G04 DipTrace 2.4.0.2*
%INfemalemalecross.gko*%
%MOMM*%
%ADD11C,0.14*%
%FSLAX53Y53*%
G04*
G71*
G90*
G75*
G01*
%LNBoardOutline*%
%LPD*%
X60825Y49039D2*
D11*
X61077Y48431D1*
X61618Y47244D1*
X62250Y46104D1*
X62969Y45017D1*
X63772Y43988D1*
X64653Y43028D1*
X65606Y42139D1*
X66627Y41326D1*
X67706Y40597D1*
X68842Y39955D1*
X70023Y39403D1*
X71245Y38946D1*
X72497Y38588D1*
X73774Y38326D1*
X75070Y38166D1*
X76370Y38111D1*
X77673Y38154D1*
X78969Y38301D1*
X80249Y38550D1*
X81506Y38895D1*
X82733Y39340D1*
X83919Y39881D1*
X85060Y40511D1*
X86147Y41230D1*
X87175Y42032D1*
X88138Y42911D1*
X88821Y43666D1*
X89459Y44458D1*
X90048Y45289D1*
X90587Y46155D1*
X91072Y47049D1*
X91504Y47971D1*
X91880Y48916D1*
X92197Y49883D1*
X92459Y50866D1*
X92659Y51865D1*
X92802Y52873D1*
X92883Y53886D1*
X92906Y54905D1*
X92865Y55921D1*
X92763Y56934D1*
X92603Y57940D1*
X92385Y58933D1*
X92106Y59914D1*
X91768Y60874D1*
X91374Y61814D1*
X90927Y62726D1*
X90424Y63612D1*
X95631Y68972D1*
Y62596D1*
X102489D1*
Y80630D1*
X84455D1*
Y73772D1*
X90831D1*
X85471Y68565D1*
X83185Y69708D1*
X82642Y69947D1*
X82159Y70292D1*
X81755Y70724D1*
X81443Y71230D1*
X81242Y71788D1*
X81153Y72375D1*
X81100Y73048D1*
X80861Y73678D1*
X80455Y74217D1*
X79916Y74623D1*
X79286Y74862D1*
X78613Y74915D1*
X77940Y74862D1*
X77310Y74623D1*
X76769Y74217D1*
X76365Y73678D1*
X76126Y73048D1*
X76073Y72375D1*
X75707Y71555D1*
X75161Y70841D1*
X74465Y70275D1*
X73658Y69883D1*
X72779Y69690D1*
X71882Y69708D1*
X71201Y69670D1*
X70526Y69568D1*
X69863Y69403D1*
X69220Y69177D1*
X68600Y68890D1*
X68011Y68545D1*
X67148Y68060D1*
X66317Y67519D1*
X65525Y66924D1*
X64770Y66279D1*
X64061Y65586D1*
X63399Y64849D1*
X62784Y64069D1*
X62225Y63254D1*
X61717Y62401D1*
X61267Y61517D1*
X60965Y60859D1*
X58352Y60844D2*
Y72672D1*
X62352Y76673D1*
X76353D1*
Y84674D1*
X62352D1*
X58352Y87674D1*
Y108672D1*
X50353D1*
Y87674D1*
X46353Y84674D1*
X46352D2*
X32248D1*
X32237Y82054D2*
Y84687D1*
X31374Y65657D2*
X40264D1*
Y73150D1*
X31374D1*
X31402Y55914D2*
Y65687D1*
X31374Y82040D2*
X24008D1*
Y73150D1*
X15118D1*
Y65657D1*
X24008D1*
Y55878D1*
X23043Y55688D1*
X22096Y55429D1*
X21166Y55104D1*
X20264Y54713D1*
X19391Y54258D1*
X18552Y53742D1*
X17752Y53168D1*
X16998Y52538D1*
X16287Y51858D1*
X15629Y51126D1*
X14615Y49927D1*
X13721Y48639D1*
X12952Y47270D1*
X12317Y45835D1*
X11819Y44347D1*
X11466Y42818D1*
X11257Y41263D1*
X11199Y39694D1*
X11288Y38126D1*
X11527Y36577D1*
X11910Y35056D1*
X12436Y33575D1*
X13101Y32155D1*
X13896Y30801D1*
X14816Y29528D1*
X15852Y28350D1*
X16995Y27275D1*
X18237Y26315D1*
X19561Y25475D1*
X20960Y24763D1*
X21864Y24799D1*
X22748Y24616D1*
X23564Y24227D1*
X24262Y23653D1*
X24803Y22930D1*
X25151Y22096D1*
X25205Y21423D1*
X25443Y20793D1*
X25850Y20255D1*
X26388Y19849D1*
X27021Y19610D1*
X27691Y19556D1*
X28364Y19610D1*
X28997Y19849D1*
X29535Y20255D1*
X29939Y20793D1*
X30178Y21423D1*
X30231Y22096D1*
X30582Y22930D1*
X31123Y23653D1*
X31819Y24227D1*
X32637Y24616D1*
X33521Y24799D1*
X34422Y24763D1*
X35314Y25200D1*
X36180Y25688D1*
X37013Y26226D1*
X37816Y26813D1*
X38580Y27446D1*
X39307Y28124D1*
X39992Y28843D1*
X40635Y29600D1*
X41229Y30392D1*
X41778Y31220D1*
X42278Y32079D1*
X42725Y32965D1*
X43119Y33877D1*
X43460Y34809D1*
X43744Y35762D1*
X43973Y36727D1*
X44143Y37705D1*
X44255Y38693D1*
X44310Y39683D1*
X44280Y40804D1*
X44176Y41921D1*
X43995Y43026D1*
X43739Y44118D1*
X43409Y45190D1*
X43007Y46237D1*
X42532Y47253D1*
X41994Y48236D1*
X41387Y49178D1*
X40716Y50077D1*
X39987Y50928D1*
X39203Y51728D1*
X38364Y52472D1*
X37478Y53158D1*
X36546Y53783D1*
X35573Y54342D1*
X34567Y54832D1*
X33528Y55254D1*
X32461Y55602D1*
X31374Y55878D1*
X31325Y73163D2*
Y76677D1*
X31307Y76671D2*
X32323D1*
X32352Y76673D2*
X46353D1*
X50353Y72672D1*
Y29673D1*
X58352D1*
X58360Y49024D1*
X58326Y49023D2*
X60808Y49027D1*
X32226Y82043D2*
X31427D1*
X60950Y60844D2*
X58345Y60845D1*
M02*
