G04 DipTrace 3.0.0.2*
G04 ECGNCHADCBFR0402.gts*
%MOIN*%
G04 #@! TF.FileFunction,Soldermask,Top*
G04 #@! TF.Part,Single*
%ADD18C,0.005906*%
%ADD36C,0.0065*%
%ADD56O,0.041339X0.019685*%
%ADD58O,0.019685X0.041339*%
%ADD60R,0.027559X0.017717*%
%ADD62R,0.027559X0.028543*%
%ADD64R,0.017717X0.027559*%
%ADD66R,0.028543X0.027559*%
%ADD68R,0.087874X0.074803*%
%ADD70R,0.070866X0.074803*%
%ADD74R,0.074803X0.087874*%
%ADD78R,0.074803X0.070866*%
%ADD80R,0.051181X0.047244*%
%ADD82R,0.031496X0.017717*%
%ADD84R,0.035433X0.043307*%
%ADD86R,0.043307X0.035433*%
%FSLAX26Y26*%
G04*
G70*
G90*
G75*
G01*
G04 TopMask*
%LPD*%
D86*
X424024Y102209D3*
X372843D3*
D84*
X411843Y192304D3*
Y141123D3*
D82*
X159657Y147630D3*
Y167315D3*
Y187000D3*
Y206685D3*
X114382D3*
Y187000D3*
Y167315D3*
Y147630D3*
X279231Y204332D3*
Y184647D3*
Y164962D3*
Y145277D3*
X324507D3*
Y164962D3*
Y184647D3*
Y204332D3*
X335335Y466196D3*
Y446510D3*
Y426825D3*
Y407140D3*
X380610D3*
Y426825D3*
Y446510D3*
Y466196D3*
D86*
X458178Y233261D3*
X406997D3*
D80*
X179962Y492697D3*
X113033D3*
D86*
X163012Y448063D3*
X111831D3*
X503875Y232886D3*
X555056D3*
D84*
X550134Y193587D3*
Y142406D3*
D86*
X467867Y102167D3*
X519049D3*
X425705Y499612D3*
X374524D3*
X458463Y368546D3*
X407282D3*
D84*
X411895Y411463D3*
Y462644D3*
X550429Y408917D3*
Y460098D3*
D86*
X503577Y368856D3*
X554759D3*
X470874Y499596D3*
X522055D3*
D78*
X350000Y550000D3*
X450000D3*
D74*
X350000Y600000D3*
X450000D3*
D78*
X350000Y50000D3*
X450000D3*
D74*
X350000Y0D3*
X450000D3*
D70*
X50000Y150000D3*
Y250000D3*
Y350000D3*
Y450000D3*
D68*
X0D3*
Y350000D3*
Y250000D3*
Y150000D3*
D78*
X250000Y50000D3*
X150000D3*
D74*
X250000Y0D3*
X150000D3*
D78*
X250000Y550000D3*
X150000D3*
D74*
X250000Y600000D3*
X150000D3*
D66*
X229848Y468037D3*
D64*
X255045D3*
X274730D3*
D66*
X299730D3*
Y503470D3*
D64*
X274730D3*
X255045D3*
D66*
X229848D3*
X445684Y400797D3*
D64*
X470881D3*
X490566D3*
D66*
X515566D3*
Y436230D3*
D64*
X490566D3*
X470881D3*
D66*
X445684D3*
D62*
X195571Y211807D3*
D60*
Y186610D3*
Y166925D3*
D62*
Y141925D3*
X231004D3*
D60*
Y166925D3*
Y186610D3*
D62*
Y211807D3*
D66*
X230327Y395020D3*
D64*
X255524D3*
X275209D3*
D66*
X300209D3*
Y430453D3*
D64*
X275209D3*
X255524D3*
D66*
X230327D3*
X440329Y283318D3*
D64*
X465526D3*
X485211D3*
D66*
X510211D3*
Y318751D3*
D64*
X485211D3*
X465526D3*
D66*
X440329D3*
X445589Y165491D3*
D64*
X470786D3*
X490471D3*
D66*
X515471D3*
Y200924D3*
D64*
X490471D3*
X470786D3*
D66*
X445589D3*
X196714Y337140D2*
D18*
X141084D1*
Y281230D1*
X196714D1*
Y337140D1*
G36*
X177300Y318366D2*
X158668D1*
Y299741D1*
X177300D1*
Y318366D1*
G37*
G36*
X198028Y315621D2*
X177034D1*
Y303144D1*
X198028D1*
Y315621D1*
G37*
G36*
X177300Y301565D2*
X161945D1*
Y280178D1*
X177300D1*
Y301565D1*
G37*
G36*
X175070Y338586D2*
X162861D1*
Y318235D1*
X175070D1*
Y338586D1*
G37*
G36*
X159052Y315358D2*
X139770D1*
Y302749D1*
X159052D1*
Y315358D1*
G37*
X173638Y293584D2*
D36*
X173665Y294316D1*
X173745Y295045D1*
X173878Y295767D1*
X174064Y296477D1*
X174301Y297174D1*
X174589Y297853D1*
X174926Y298512D1*
X175309Y299146D1*
X175739Y299754D1*
X176211Y300331D1*
X176725Y300876D1*
X177277Y301385D1*
X177865Y301855D1*
X178487Y302286D1*
X179138Y302674D1*
X179815Y303018D1*
X180517Y303316D1*
X181238Y303567D1*
X181976Y303769D1*
X182727Y303921D1*
X183487Y304023D1*
X184253Y304074D1*
X185021D1*
X185787Y304023D1*
X186547Y303921D1*
X187298Y303769D1*
X188036Y303567D1*
X188757Y303316D1*
X189459Y303018D1*
X190137Y302674D1*
X190788Y302286D1*
X191409Y301855D1*
X191997Y301385D1*
X192549Y300876D1*
X193063Y300331D1*
X193536Y299754D1*
X193965Y299146D1*
X194349Y298512D1*
X194685Y297853D1*
X194973Y297174D1*
X195210Y296477D1*
X195396Y295767D1*
X195529Y295045D1*
X195609Y294316D1*
X195636Y293584D1*
X195609Y292852D1*
X195529Y292123D1*
X195396Y291402D1*
X195210Y290691D1*
X194973Y289994D1*
X194685Y289315D1*
X194349Y288656D1*
X193965Y288022D1*
X193536Y287415D1*
X193063Y286837D1*
X192549Y286293D1*
X191997Y285784D1*
X191409Y285313D1*
X190788Y284882D1*
X190137Y284494D1*
X189459Y284150D1*
X188757Y283852D1*
X188036Y283602D1*
X187298Y283400D1*
X186547Y283247D1*
X185787Y283145D1*
X185021Y283094D1*
X184253D1*
X183487Y283145D1*
X182727Y283247D1*
X181976Y283400D1*
X181238Y283602D1*
X180517Y283852D1*
X179815Y284150D1*
X179138Y284494D1*
X178487Y284882D1*
X177865Y285313D1*
X177277Y285784D1*
X176725Y286293D1*
X176211Y286837D1*
X175739Y287415D1*
X175309Y288022D1*
X174926Y288656D1*
X174589Y289315D1*
X174301Y289994D1*
X174064Y290691D1*
X173878Y291402D1*
X173745Y292123D1*
X173665Y292852D1*
X173638Y293584D1*
X142280Y293453D2*
X142307Y294185D1*
X142387Y294914D1*
X142520Y295635D1*
X142706Y296346D1*
X142943Y297043D1*
X143231Y297722D1*
X143567Y298380D1*
X143951Y299015D1*
X144380Y299622D1*
X144853Y300200D1*
X145367Y300744D1*
X145919Y301253D1*
X146507Y301724D1*
X147128Y302155D1*
X147779Y302543D1*
X148457Y302887D1*
X149159Y303185D1*
X149880Y303435D1*
X150618Y303637D1*
X151369Y303790D1*
X152129Y303892D1*
X152895Y303943D1*
X153663D1*
X154429Y303892D1*
X155189Y303790D1*
X155940Y303637D1*
X156678Y303435D1*
X157399Y303185D1*
X158101Y302887D1*
X158778Y302543D1*
X159429Y302155D1*
X160051Y301724D1*
X160639Y301253D1*
X161191Y300744D1*
X161705Y300200D1*
X162177Y299622D1*
X162607Y299015D1*
X162990Y298380D1*
X163327Y297722D1*
X163615Y297043D1*
X163852Y296346D1*
X164038Y295635D1*
X164171Y294914D1*
X164251Y294185D1*
X164278Y293453D1*
X164251Y292721D1*
X164171Y291992D1*
X164038Y291270D1*
X163852Y290560D1*
X163615Y289863D1*
X163327Y289183D1*
X162990Y288525D1*
X162607Y287890D1*
X162177Y287283D1*
X161705Y286706D1*
X161191Y286161D1*
X160639Y285652D1*
X160051Y285181D1*
X159429Y284751D1*
X158778Y284363D1*
X158101Y284019D1*
X157399Y283721D1*
X156678Y283470D1*
X155940Y283268D1*
X155189Y283116D1*
X154429Y283014D1*
X153663Y282963D1*
X152895D1*
X152129Y283014D1*
X151369Y283116D1*
X150618Y283268D1*
X149880Y283470D1*
X149159Y283721D1*
X148457Y284019D1*
X147779Y284363D1*
X147128Y284751D1*
X146507Y285181D1*
X145919Y285652D1*
X145367Y286161D1*
X144853Y286706D1*
X144380Y287283D1*
X143951Y287890D1*
X143567Y288525D1*
X143231Y289183D1*
X142943Y289863D1*
X142706Y290560D1*
X142520Y291270D1*
X142387Y291992D1*
X142307Y292721D1*
X142280Y293453D1*
X173520Y324687D2*
X173547Y325419D1*
X173627Y326148D1*
X173760Y326869D1*
X173946Y327580D1*
X174183Y328277D1*
X174470Y328956D1*
X174807Y329615D1*
X175190Y330249D1*
X175619Y330857D1*
X176092Y331434D1*
X176605Y331978D1*
X177157Y332487D1*
X177745Y332958D1*
X178365Y333389D1*
X179016Y333777D1*
X179693Y334121D1*
X180394Y334419D1*
X181115Y334670D1*
X181853Y334872D1*
X182603Y335024D1*
X183363Y335126D1*
X184128Y335177D1*
X184895D1*
X185661Y335126D1*
X186420Y335024D1*
X187171Y334872D1*
X187908Y334670D1*
X188629Y334419D1*
X189330Y334121D1*
X190007Y333777D1*
X190658Y333389D1*
X191279Y332958D1*
X191866Y332487D1*
X192418Y331978D1*
X192932Y331434D1*
X193404Y330857D1*
X193833Y330249D1*
X194217Y329615D1*
X194553Y328956D1*
X194840Y328277D1*
X195077Y327580D1*
X195263Y326869D1*
X195396Y326148D1*
X195477Y325419D1*
X195503Y324687D1*
X195477Y323955D1*
X195396Y323226D1*
X195263Y322505D1*
X195077Y321794D1*
X194840Y321097D1*
X194553Y320418D1*
X194217Y319759D1*
X193833Y319125D1*
X193404Y318517D1*
X192932Y317940D1*
X192418Y317396D1*
X191866Y316887D1*
X191279Y316416D1*
X190658Y315985D1*
X190007Y315597D1*
X189330Y315253D1*
X188629Y314955D1*
X187908Y314704D1*
X187171Y314502D1*
X186420Y314350D1*
X185661Y314248D1*
X184895Y314197D1*
X184128D1*
X183363Y314248D1*
X182603Y314350D1*
X181853Y314502D1*
X181115Y314704D1*
X180394Y314955D1*
X179693Y315253D1*
X179016Y315597D1*
X178365Y315985D1*
X177745Y316416D1*
X177157Y316887D1*
X176605Y317396D1*
X176092Y317940D1*
X175619Y318517D1*
X175190Y319125D1*
X174807Y319759D1*
X174470Y320418D1*
X174183Y321097D1*
X173946Y321794D1*
X173760Y322505D1*
X173627Y323226D1*
X173547Y323955D1*
X173520Y324687D1*
X142413D2*
X142440Y325419D1*
X142520Y326148D1*
X142653Y326869D1*
X142839Y327580D1*
X143076Y328277D1*
X143364Y328956D1*
X143700Y329615D1*
X144084Y330249D1*
X144513Y330857D1*
X144986Y331434D1*
X145500Y331978D1*
X146052Y332487D1*
X146640Y332958D1*
X147261Y333389D1*
X147912Y333777D1*
X148590Y334121D1*
X149291Y334419D1*
X150013Y334670D1*
X150751Y334872D1*
X151502Y335024D1*
X152262Y335126D1*
X153028Y335177D1*
X153796D1*
X154561Y335126D1*
X155322Y335024D1*
X156073Y334872D1*
X156811Y334670D1*
X157532Y334419D1*
X158233Y334121D1*
X158911Y333777D1*
X159562Y333389D1*
X160183Y332958D1*
X160772Y332487D1*
X161324Y331978D1*
X161837Y331434D1*
X162310Y330857D1*
X162739Y330249D1*
X163123Y329615D1*
X163460Y328956D1*
X163747Y328277D1*
X163985Y327580D1*
X164170Y326869D1*
X164304Y326148D1*
X164384Y325419D1*
X164411Y324687D1*
X164384Y323955D1*
X164304Y323226D1*
X164170Y322505D1*
X163985Y321794D1*
X163747Y321097D1*
X163460Y320418D1*
X163123Y319759D1*
X162739Y319125D1*
X162310Y318517D1*
X161837Y317940D1*
X161324Y317396D1*
X160772Y316887D1*
X160183Y316416D1*
X159562Y315985D1*
X158911Y315597D1*
X158233Y315253D1*
X157532Y314955D1*
X156811Y314704D1*
X156073Y314502D1*
X155322Y314350D1*
X154561Y314248D1*
X153796Y314197D1*
X153028D1*
X152262Y314248D1*
X151502Y314350D1*
X150751Y314502D1*
X150013Y314704D1*
X149291Y314955D1*
X148590Y315253D1*
X147912Y315597D1*
X147261Y315985D1*
X146640Y316416D1*
X146052Y316887D1*
X145500Y317396D1*
X144986Y317940D1*
X144513Y318517D1*
X144084Y319125D1*
X143700Y319759D1*
X143364Y320418D1*
X143076Y321097D1*
X142839Y321794D1*
X142653Y322505D1*
X142520Y323226D1*
X142440Y323955D1*
X142413Y324687D1*
D58*
X198427Y366139D3*
X178741D3*
X159056D3*
X139371D3*
D56*
X111812Y338580D3*
Y318895D3*
Y299210D3*
Y279525D3*
D58*
X139371Y251966D3*
X159056D3*
X178741D3*
X198427D3*
D56*
X225986Y279525D3*
Y299210D3*
Y318895D3*
Y338580D3*
M02*
