G04 DipTrace 2.4.0.2*
%INECGNCHADCBFR0402.gbl*%
%MOMM*%
%ADD13C,0.127*%
%ADD20R,1.7X1.6*%
%ADD22R,1.7X2.032*%
%ADD24R,1.6X1.7*%
%ADD25R,2.032X1.7*%
%ADD38C,0.711*%
%ADD41C,0.457*%
%FSLAX53Y53*%
G04*
G71*
G90*
G75*
G01*
%LNBottom*%
%LPD*%
X20317Y18869D2*
D13*
Y19121D1*
X18256D1*
X18094Y18959D1*
Y16233D1*
X18089D1*
X15818Y19417D2*
Y19440D1*
X13198D1*
X12963Y19674D1*
Y20915D1*
X12441Y21438D1*
X11278D1*
X10008D1*
X11278Y18898D2*
X12498D1*
Y19146D1*
X15455D1*
X15610Y18991D1*
X16366D1*
X12441Y18898D2*
X11278D1*
X10008D1*
X23897Y16879D2*
X23010D1*
X22115Y17774D1*
X21033D1*
X19940Y16681D1*
Y15744D1*
X19056Y14860D1*
X16863Y18279D2*
X16479D1*
X14849Y16649D1*
X14423D1*
X13818Y16044D1*
X10964D1*
X11278Y16358D1*
X12441D2*
X11278D1*
X10008D1*
X18771Y14227D2*
X19202D1*
X20534Y15559D1*
Y16854D1*
X20721Y17041D1*
X21513D1*
X21874Y16680D1*
X19232Y13769D2*
Y13659D1*
X20846Y15273D1*
Y15773D1*
X20829Y15756D1*
Y16608D1*
X20980D1*
X11278Y13818D2*
X12055D1*
X14147Y15910D1*
X14523D1*
X15986Y17373D1*
X16180D1*
X12441Y13818D2*
X11278D1*
X10008D1*
X18571Y17780D2*
Y16112D1*
X18006Y15547D1*
X16721D1*
X16529Y15355D1*
X18317Y22122D2*
X16376D1*
X15716Y21462D1*
X13818Y22816D2*
Y23978D1*
Y25248D1*
Y12441D2*
Y11278D1*
Y10008D1*
X18898Y22816D2*
Y23978D1*
Y25248D1*
X21438Y22816D2*
Y23978D1*
Y25248D1*
Y12441D2*
Y11278D1*
Y10008D1*
X18898Y12443D2*
Y11278D1*
Y10008D1*
X14531Y15410D2*
X15251D1*
X16004Y16162D1*
Y16191D1*
X16158Y16345D1*
X16997D1*
X17558Y16906D1*
Y19499D1*
X17712Y19653D1*
X20097D1*
X20911Y20467D1*
Y20896D1*
X20896D1*
X20957Y20956D1*
X23387Y17906D2*
Y18041D1*
X23111Y18318D1*
Y19644D1*
X24030Y20563D1*
Y21363D1*
X23912Y21482D1*
X20857D1*
X20011Y22328D1*
X23465Y13075D2*
Y13541D1*
X24446Y14522D1*
Y17174D1*
X24266Y17354D1*
X22908D1*
X22145Y18117D1*
X20390D1*
X23447Y14485D2*
X22293D1*
X20810Y13002D1*
X14107D1*
X13832Y13276D1*
Y13881D1*
X13978Y14027D1*
X14351D1*
X14549Y14225D1*
X16358Y22813D2*
Y23978D1*
Y25248D1*
Y12441D2*
Y11278D1*
Y10008D1*
X14549Y13633D2*
X15307D1*
X15639Y13300D1*
X19790D1*
X20956Y14467D1*
X23559Y20780D2*
X22636D1*
X21242Y19386D1*
X17931D1*
X17820Y19275D1*
Y16746D1*
X17145Y16072D1*
X16329D1*
X15191Y14934D1*
X14647D1*
X14531Y14817D1*
X23459Y22207D2*
X23609D1*
X24306Y21510D1*
Y20317D1*
X23722Y19734D1*
Y18401D1*
X16505Y14759D2*
X17590D1*
X19041Y16211D1*
Y18156D1*
X19032Y18165D1*
X18968Y21394D2*
X17851D1*
X17383Y21863D1*
X16656D1*
X16220Y21427D1*
X16395D1*
X16345D1*
X15949Y21031D1*
X14630D1*
X13551Y19952D1*
X19526Y17737D2*
X19375D1*
Y16183D1*
X17332Y14140D1*
X16686D1*
X16650Y14176D1*
X16980Y21424D2*
X17270D1*
X17551Y21143D1*
X17565D1*
X17782Y20926D1*
X18859D1*
X18996Y20790D1*
X13237Y16496D2*
Y18399D1*
X13657Y18819D1*
X15053D1*
X15323Y18549D1*
X16536D1*
X16785Y18798D1*
Y21201D1*
X17008Y21424D1*
X16980D1*
X16283Y13722D2*
X17284D1*
X19651Y16089D1*
Y17011D1*
X19962Y17321D1*
X18840Y20079D2*
X17756D1*
X17296Y19619D1*
Y17071D1*
X16860Y16635D1*
X15944D1*
X15586Y16277D1*
X15422D1*
X15474Y16225D1*
D41*
X18571Y17780D3*
X19032Y18165D3*
X19526Y17737D3*
X19962Y17321D3*
X20980Y16608D3*
X20390Y18117D3*
X18317Y22122D3*
X18968Y21394D3*
X18996Y20790D3*
X18840Y20079D3*
X15716Y21462D3*
X16395Y21427D3*
X13551Y19952D3*
X16980Y21424D3*
X13237Y16496D3*
X15474Y16225D3*
X15818Y19417D3*
X16180Y17373D3*
X21874Y16680D3*
X23387Y17906D3*
X14531Y15410D3*
Y14817D3*
X14549Y14225D3*
Y13633D3*
X16283Y13722D3*
X16650Y14176D3*
X16505Y14759D3*
X16529Y15355D3*
X18089Y16233D3*
X23897Y16879D3*
X18771Y14227D3*
X19232Y13769D3*
X20317Y18869D3*
X20011Y22328D3*
X20957Y20956D3*
X23459Y22207D3*
X23559Y20780D3*
X23722Y18401D3*
X23465Y13075D3*
X23447Y14485D3*
X20956Y14467D3*
X19563Y20083D3*
X16863Y18279D3*
X16366Y18991D3*
X19056Y14860D3*
D20*
X18898Y23978D3*
X21438D3*
G36*
X20588Y22718D2*
Y23183D1*
X22288D1*
Y22718D1*
X21763Y22448D1*
X21113D1*
X20588Y22718D1*
G37*
G36*
X18048D2*
Y23183D1*
X19748D1*
Y22718D1*
X19223Y22448D1*
X18573D1*
X18048Y22718D1*
G37*
D22*
X18898Y25248D3*
X21438D3*
D20*
X18898Y11278D3*
X21438D3*
D22*
X18898Y10008D3*
X21438D3*
G36*
X22288Y12538D2*
Y12073D1*
X20588D1*
Y12538D1*
X21113Y12808D1*
X21763D1*
X22288Y12538D1*
G37*
G36*
X19748D2*
Y12078D1*
X18048D1*
Y12538D1*
X18573Y12808D1*
X19223D1*
X19748Y12538D1*
G37*
D24*
X11278Y13818D3*
Y16358D3*
Y18898D3*
Y21438D3*
G36*
X12538Y15508D2*
X12073D1*
Y17208D1*
X12538D1*
X12808Y16683D1*
Y16033D1*
X12538Y15508D1*
G37*
G36*
Y12968D2*
X12073D1*
Y14668D1*
X12538D1*
X12808Y14143D1*
Y13493D1*
X12538Y12968D1*
G37*
G36*
Y20588D2*
X12073D1*
Y22288D1*
X12538D1*
X12808Y21763D1*
Y21113D1*
X12538Y20588D1*
G37*
G36*
Y18048D2*
X12073D1*
Y19748D1*
X12538D1*
X12808Y19223D1*
Y18573D1*
X12538Y18048D1*
G37*
D25*
X10008Y21438D3*
Y18898D3*
Y16358D3*
Y13818D3*
D20*
X16358Y11278D3*
X13818D3*
G36*
X14668Y12538D2*
Y12073D1*
X12968D1*
Y12538D1*
X13493Y12808D1*
X14143D1*
X14668Y12538D1*
G37*
G36*
X17208D2*
Y12073D1*
X15508D1*
Y12538D1*
X16033Y12808D1*
X16683D1*
X17208Y12538D1*
G37*
D22*
X16358Y10008D3*
X13818D3*
D20*
X16358Y23978D3*
X13818D3*
D22*
X16358Y25248D3*
X13818D3*
G36*
X12968Y22718D2*
Y23183D1*
X14668D1*
Y22718D1*
X14143Y22448D1*
X13493D1*
X12968Y22718D1*
G37*
G36*
X15508D2*
Y23178D1*
X17208D1*
Y22718D1*
X16683Y22448D1*
X16033D1*
X15508Y22718D1*
G37*
D38*
X14696Y18255D3*
X13902D3*
Y17461D3*
X14696D3*
G36*
X12114Y22538D2*
X12304Y22567D1*
X12451Y22627D1*
X12545Y22703D1*
X12622Y22779D1*
X12685Y22892D1*
X12710Y22957D1*
X12731Y23052D1*
X12741Y23103D1*
X12746Y23185D1*
X12723Y23250D1*
X12685Y23288D1*
X12660Y23314D1*
X12647Y23378D1*
X12652Y23403D1*
X12667Y23454D1*
X12698Y23481D1*
X12616Y23580D1*
X12540Y23530D1*
X12522D1*
X12486Y23619D1*
X12431Y23631D1*
X12329Y23641D1*
X12436Y23389D1*
Y23357D1*
X12428Y23314D1*
X12406Y23304D1*
X12355Y23324D1*
X12291Y23439D1*
X12220Y23611D1*
X12170Y23586D1*
X12115Y23522D1*
X12190Y23332D1*
X12152Y23338D1*
X12114D1*
Y22538D1*
G37*
M02*
