G04 DipTrace 2.4.0.2*
%INminiEL.gtp*%
%MOMM*%
%ADD19O,0.861X0.85*%
%ADD21O,0.973X0.96*%
%ADD22R,0.3X0.8*%
%ADD23R,0.8X0.3*%
%ADD27R,0.7X0.9*%
%ADD28R,1.0X1.1*%
%ADD29R,0.9X0.7*%
%ADD30R,1.3X1.5*%
%ADD32R,0.5X0.4*%
%ADD34R,0.4X0.5*%
%ADD37R,0.6X0.6*%
%FSLAX53Y53*%
G04*
G71*
G90*
G75*
G01*
%LNTopPaste*%
%LPD*%
D19*
X16990Y21578D3*
D21*
X16216Y20840D3*
X17780Y20830D3*
X16226Y22374D3*
X17783Y22383D3*
D22*
X15758Y19685D3*
X16258D3*
X16758D3*
X17258D3*
X17758D3*
X18258D3*
D23*
X18923Y20350D3*
Y20850D3*
Y21350D3*
Y21850D3*
Y22350D3*
Y22850D3*
D22*
X18258Y23515D3*
X17758D3*
X17258D3*
X16758D3*
X16258D3*
X15758D3*
D23*
X15093Y22850D3*
Y22350D3*
Y21850D3*
Y21350D3*
Y20850D3*
Y20350D3*
G36*
X17243Y15710D2*
X16703Y15170D1*
X16103D1*
Y15850D1*
X16563Y16310D1*
X17243D1*
Y15710D1*
G37*
G36*
X16703Y14150D2*
X17243Y13610D1*
Y13010D1*
X16563D1*
X16103Y13470D1*
Y14150D1*
X16703D1*
G37*
G36*
X18263Y13610D2*
X18803Y14150D1*
X19403D1*
Y13470D1*
X18943Y13010D1*
X18263D1*
Y13610D1*
G37*
G36*
X18803Y15170D2*
X18263Y15710D1*
Y16310D1*
X18943D1*
X19403Y15850D1*
Y15170D1*
X18803D1*
G37*
D27*
X20870Y13992D3*
Y15292D3*
D28*
X20348Y17288D3*
Y18988D3*
D29*
X20841Y12743D3*
X22141D3*
D30*
X16893Y17614D3*
X18793D3*
D27*
X21622Y21863D3*
Y20563D3*
D32*
X26342Y20640D3*
Y19940D3*
X27342D3*
Y20640D3*
D34*
X25390Y19114D3*
X24690D3*
Y18114D3*
X25390D3*
D37*
X15035Y16770D3*
Y14570D3*
D27*
X23489Y23566D3*
Y22266D3*
D29*
X24431Y24803D3*
X23131D3*
M02*
