G04 DipTrace 2.4.0.2*
%INminiEL.gbl*%
%MOMM*%
%ADD13C,0.305*%
%ADD15C,0.4*%
%ADD16C,0.152*%
%ADD26R,1.6X1.7*%
%ADD27R,2.032X1.7*%
%ADD28R,2.0X1.7*%
%ADD29R,1.7X1.6*%
%ADD30R,1.7X2.0*%
%ADD42C,0.711*%
%ADD45C,0.711*%
%FSLAX53Y53*%
G04*
G71*
G90*
G75*
G01*
%LNBottom*%
%LPD*%
X24538Y17461D2*
D13*
Y17939D1*
X23524Y18953D1*
X20053D1*
X19892Y19114D1*
X19935Y20073D2*
X20181D1*
X20745Y19509D1*
X23666D1*
X25673Y17503D1*
X25944D1*
X26510Y27780D2*
Y26510D1*
Y25348D1*
X18890Y11270D2*
D15*
X16440D1*
X12179Y15532D1*
Y18376D1*
X11665Y18890D1*
X12433D1*
Y18360D1*
X12336Y18264D1*
Y22398D1*
X15286Y25348D1*
X16350D1*
Y27780D2*
Y26510D1*
Y25348D2*
Y26510D1*
X12433Y18890D2*
X11270D1*
X10000D1*
X18890Y12433D2*
Y11270D1*
Y10000D1*
X23970Y12433D2*
Y11270D1*
Y10000D1*
X13810Y12433D2*
Y11270D1*
Y10000D1*
X12433Y23970D2*
X11270D1*
X10000D1*
X21430Y27780D2*
Y26510D1*
Y25348D1*
X18861Y19008D2*
D13*
Y18933D1*
X19530Y18264D1*
X22421D1*
X22506Y18179D1*
X23147D1*
X23543Y17784D1*
Y16447D1*
X23987Y16002D1*
X27540D1*
X27888Y16350D1*
X16314Y21809D2*
X16329D1*
X17154Y20984D1*
X16314D2*
X17154D1*
X17139Y21794D2*
Y20999D1*
X17154Y20984D1*
X16314Y20159D2*
X17139D1*
Y20969D1*
Y20159D2*
X17979D1*
Y20984D1*
X17154Y20999D2*
X17964Y21809D1*
X16314Y20159D2*
X16329D1*
X17154Y20984D1*
X18861Y19008D2*
Y16636D1*
X18747Y16521D1*
X30320Y16350D2*
X29050D1*
X27888D1*
X30320Y23970D2*
X29050D1*
X27888D1*
X20281Y21909D2*
Y20807D1*
X21023Y20065D1*
X26824D1*
X27999Y18890D1*
X29050D1*
X30320D2*
X29050D1*
X27885D1*
X20987Y21407D2*
X29027D1*
X29050Y21430D1*
X30320D2*
X29050D1*
X27888D1*
X27885Y13810D2*
X29050D1*
X30320D1*
D45*
X20281Y21909D3*
X20987Y21407D3*
X19892Y19114D3*
X19935Y20073D3*
X18861Y19008D3*
X24538Y17461D3*
X25944Y17503D3*
X22506Y18179D3*
X18747Y16521D3*
X13129Y26895D2*
D16*
X15111D1*
X17589D2*
X20192D1*
X22668D2*
X25536D1*
X12981Y26746D2*
X15075D1*
X17625D2*
X20154D1*
X22707D2*
X25488D1*
X12831Y26597D2*
X15056D1*
X17644D2*
X20135D1*
X22723D2*
X25464D1*
X12681Y26448D2*
X15054D1*
X17646D2*
X20135D1*
X22726D2*
X25462D1*
X27557D2*
X27636D1*
X12534Y26298D2*
X15070D1*
X17630D2*
X20150D1*
X22709D2*
X25484D1*
X27538D2*
X27786D1*
X12384Y26149D2*
X15104D1*
X17596D2*
X20185D1*
X22676D2*
X25526D1*
X27495D2*
X27936D1*
X12236Y26000D2*
X15158D1*
X17542D2*
X20238D1*
X22621D2*
X25595D1*
X27424D2*
X28084D1*
X12086Y25851D2*
X15235D1*
X17465D2*
X20314D1*
X22545D2*
X25698D1*
X27321D2*
X28234D1*
X11936Y25702D2*
X15339D1*
X17361D2*
X20419D1*
X22440D2*
X25850D1*
X27171D2*
X28382D1*
X11788Y25553D2*
X15482D1*
X17218D2*
X20561D1*
X22299D2*
X26103D1*
X26917D2*
X28532D1*
X11638Y25404D2*
X15687D1*
X17013D2*
X20766D1*
X22095D2*
X28682D1*
X11491Y25255D2*
X16073D1*
X16627D2*
X21154D1*
X21706D2*
X28829D1*
X11879Y25106D2*
X28979D1*
X12103Y24957D2*
X28727D1*
X12255Y24808D2*
X28429D1*
X12367Y24659D2*
X28262D1*
X12448Y24510D2*
X28153D1*
X12505Y24361D2*
X28077D1*
X12543Y24212D2*
X28029D1*
X12565Y24062D2*
X28005D1*
X12567Y23913D2*
X28003D1*
X12550Y23764D2*
X28022D1*
X12517Y23615D2*
X28062D1*
X12465Y23466D2*
X28131D1*
X12389Y23317D2*
X28234D1*
X12286Y23168D2*
X28382D1*
X12146Y23019D2*
X28629D1*
X29472D2*
X29570D1*
X11943Y22870D2*
X29570D1*
X10751Y22721D2*
X10967D1*
X11574D2*
X29570D1*
X10751Y22572D2*
X29570D1*
X10751Y22423D2*
X19976D1*
X20585D2*
X28746D1*
X29355D2*
X29570D1*
X10751Y22274D2*
X19802D1*
X20759D2*
X28436D1*
X10751Y22125D2*
X19716D1*
X20844D2*
X28270D1*
X10751Y21976D2*
X19680D1*
X21156D2*
X28155D1*
X10751Y21826D2*
X19683D1*
X21416D2*
X28079D1*
X10751Y21677D2*
X19723D1*
X21525D2*
X28031D1*
X10751Y21528D2*
X19816D1*
X21578D2*
X28005D1*
X10751Y21379D2*
X20007D1*
X21590D2*
X28003D1*
X10751Y21230D2*
X20409D1*
X21564D2*
X28020D1*
X10751Y21081D2*
X20481D1*
X21494D2*
X28062D1*
X10751Y20932D2*
X20621D1*
X21352D2*
X28129D1*
X10751Y20783D2*
X28229D1*
X10751Y20634D2*
X19738D1*
X20132D2*
X28374D1*
X10751Y20485D2*
X19499D1*
X20373D2*
X28615D1*
X29484D2*
X29570D1*
X10751Y20336D2*
X19392D1*
X20478D2*
X29570D1*
X10751Y20187D2*
X19342D1*
X20530D2*
X29570D1*
X11858Y20038D2*
X19333D1*
X20540D2*
X29570D1*
X12089Y19889D2*
X19361D1*
X20511D2*
X28767D1*
X29334D2*
X29570D1*
X12246Y19740D2*
X19435D1*
X20437D2*
X28446D1*
X12360Y19590D2*
X19530D1*
X20290D2*
X28274D1*
X12443Y19441D2*
X19388D1*
X20397D2*
X28160D1*
X12503Y19292D2*
X19316D1*
X20471D2*
X28081D1*
X12541Y19143D2*
X19288D1*
X20497D2*
X28031D1*
X12562Y18994D2*
X19299D1*
X20485D2*
X28005D1*
X12567Y18845D2*
X19352D1*
X20432D2*
X28003D1*
X12553Y18696D2*
X19461D1*
X20323D2*
X28020D1*
X12520Y18547D2*
X19714D1*
X20070D2*
X28060D1*
X12470Y18398D2*
X28124D1*
X12396Y18249D2*
X28224D1*
X12296Y18100D2*
X18995D1*
X23042D2*
X28367D1*
X12158Y17951D2*
X18995D1*
X23042D2*
X24195D1*
X24881D2*
X25545D1*
X26343D2*
X28603D1*
X11962Y17802D2*
X18995D1*
X23042D2*
X24040D1*
X25035D2*
X25419D1*
X26467D2*
X29570D1*
X10751Y17653D2*
X10920D1*
X11619D2*
X18995D1*
X23042D2*
X23964D1*
X25112D2*
X25357D1*
X26528D2*
X29570D1*
X10751Y17504D2*
X18995D1*
X23042D2*
X23936D1*
X25140D2*
X25338D1*
X26547D2*
X29570D1*
X10751Y17354D2*
X18995D1*
X23042D2*
X23943D1*
X25133D2*
X25357D1*
X26528D2*
X29570D1*
X10751Y17205D2*
X18995D1*
X23042D2*
X23990D1*
X25085D2*
X25419D1*
X26469D2*
X29570D1*
X10751Y17056D2*
X18995D1*
X23042D2*
X24093D1*
X24983D2*
X25543D1*
X26345D2*
X29570D1*
X10751Y16907D2*
X18995D1*
X23042D2*
X24319D1*
X24757D2*
X29570D1*
X10751Y16758D2*
X18995D1*
X23042D2*
X29570D1*
X10751Y16609D2*
X18995D1*
X23042D2*
X29570D1*
X10751Y16460D2*
X18995D1*
X23042D2*
X29570D1*
X10751Y16311D2*
X18995D1*
X23042D2*
X29570D1*
X10751Y16162D2*
X18995D1*
X23042D2*
X29570D1*
X10751Y16013D2*
X18995D1*
X23042D2*
X29570D1*
X10751Y15864D2*
X18995D1*
X23042D2*
X29570D1*
X10751Y15715D2*
X18995D1*
X23042D2*
X29570D1*
X10751Y15566D2*
X18995D1*
X23042D2*
X29570D1*
X10751Y15417D2*
X18995D1*
X23042D2*
X29570D1*
X10751Y15268D2*
X18995D1*
X23042D2*
X29570D1*
X10751Y15118D2*
X18995D1*
X23042D2*
X29570D1*
X10751Y14969D2*
X18995D1*
X23042D2*
X29570D1*
X10751Y14820D2*
X18995D1*
X23042D2*
X28815D1*
X29286D2*
X29570D1*
X10751Y14671D2*
X18995D1*
X23042D2*
X28462D1*
X10751Y14522D2*
X18995D1*
X23042D2*
X28286D1*
X10751Y14373D2*
X18995D1*
X23042D2*
X28167D1*
X10751Y14224D2*
X18995D1*
X23042D2*
X28086D1*
X10751Y14075D2*
X18995D1*
X23042D2*
X28036D1*
X10751Y13926D2*
X28008D1*
X10751Y13777D2*
X28001D1*
X10751Y13628D2*
X28017D1*
X10751Y13479D2*
X28055D1*
X10751Y13330D2*
X28120D1*
X10834Y13181D2*
X28215D1*
X10984Y13032D2*
X28355D1*
X11134Y12882D2*
X28577D1*
X11281Y12733D2*
X29039D1*
X11431Y12584D2*
X28889D1*
X11579Y12435D2*
X13261D1*
X14360D2*
X18340D1*
X19439D2*
X23421D1*
X24519D2*
X28739D1*
X11729Y12286D2*
X13013D1*
X14608D2*
X18092D1*
X19687D2*
X23174D1*
X24766D2*
X28591D1*
X11879Y12137D2*
X12851D1*
X14770D2*
X17930D1*
X19849D2*
X23009D1*
X24931D2*
X28441D1*
X12027Y11988D2*
X12732D1*
X14886D2*
X17814D1*
X19968D2*
X22893D1*
X25047D2*
X28293D1*
X12177Y11839D2*
X12646D1*
X14975D2*
X17725D1*
X20054D2*
X22807D1*
X25133D2*
X28143D1*
X12324Y11690D2*
X12584D1*
X15037D2*
X17664D1*
X20116D2*
X22743D1*
X25197D2*
X27993D1*
X15079Y11541D2*
X17621D1*
X20159D2*
X22702D1*
X25238D2*
X27846D1*
X15101Y11392D2*
X17599D1*
X20182D2*
X22678D1*
X25262D2*
X27696D1*
X15108Y11243D2*
X17592D1*
X20187D2*
X22674D1*
X25266D2*
X27548D1*
X15096Y11094D2*
X17604D1*
X20175D2*
X22686D1*
X25254D2*
X27398D1*
X15065Y10945D2*
X17635D1*
X20144D2*
X22714D1*
X25226D2*
X27248D1*
X15015Y10796D2*
X17685D1*
X20097D2*
X22764D1*
X25176D2*
X27100D1*
X29096Y12777D2*
X28998D1*
X28847Y12796D1*
X28701Y12837D1*
X28561Y12898D1*
X28433Y12980D1*
X28318Y13080D1*
X28218Y13195D1*
X28137Y13324D1*
X28076Y13463D1*
X28035Y13610D1*
X28017Y13761D1*
X28021Y13913D1*
X28047Y14063D1*
X28095Y14208D1*
X28164Y14344D1*
X28252Y14468D1*
X28357Y14578D1*
X28477Y14671D1*
X28610Y14746D1*
X28752Y14801D1*
X28901Y14834D1*
X29053Y14844D1*
X29205Y14833D1*
X29353Y14799D1*
X29495Y14744D1*
X29585Y14695D1*
X29584Y18002D1*
X29445Y17934D1*
X29301Y17887D1*
X29151Y17861D1*
X28998Y17857D1*
X28847Y17876D1*
X28701Y17917D1*
X28561Y17978D1*
X28433Y18060D1*
X28318Y18160D1*
X28218Y18275D1*
X28137Y18404D1*
X28076Y18543D1*
X28035Y18690D1*
X28017Y18841D1*
X28021Y18993D1*
X28047Y19143D1*
X28095Y19288D1*
X28164Y19424D1*
X28252Y19548D1*
X28357Y19658D1*
X28477Y19751D1*
X28610Y19826D1*
X28752Y19881D1*
X28901Y19914D1*
X29053Y19924D1*
X29205Y19913D1*
X29353Y19879D1*
X29495Y19824D1*
X29585Y19775D1*
X29584Y20545D1*
X29514Y20506D1*
X29374Y20448D1*
X29226Y20411D1*
X29074Y20396D1*
X28922Y20404D1*
X28773Y20433D1*
X28630Y20485D1*
X28496Y20557D1*
X28373Y20648D1*
X28266Y20756D1*
X28175Y20878D1*
X28104Y21012D1*
X28053Y21156D1*
X28023Y21305D1*
X28016Y21457D1*
X28031Y21609D1*
X28069Y21756D1*
X28127Y21897D1*
X28206Y22027D1*
X28303Y22145D1*
X28416Y22247D1*
X28542Y22331D1*
X28680Y22396D1*
X28826Y22440D1*
X28977Y22462D1*
X29129Y22461D1*
X29279Y22439D1*
X29425Y22394D1*
X29563Y22328D1*
X29585Y22315D1*
X29584Y23084D1*
X29445Y23014D1*
X29301Y22967D1*
X29151Y22941D1*
X28998Y22937D1*
X28847Y22956D1*
X28701Y22997D1*
X28561Y23058D1*
X28433Y23140D1*
X28318Y23240D1*
X28218Y23355D1*
X28137Y23484D1*
X28076Y23623D1*
X28035Y23770D1*
X28017Y23921D1*
X28021Y24073D1*
X28047Y24223D1*
X28095Y24368D1*
X28164Y24504D1*
X28252Y24628D1*
X28357Y24738D1*
X28477Y24831D1*
X28610Y24906D1*
X28752Y24961D1*
X28901Y24994D1*
X29053Y25004D1*
X29098Y25003D1*
X27543Y26556D1*
X27542Y26434D1*
X27519Y26283D1*
X27475Y26138D1*
X27410Y26000D1*
X27325Y25873D1*
X27223Y25761D1*
X27105Y25664D1*
X26974Y25586D1*
X26834Y25528D1*
X26686Y25491D1*
X26534Y25476D1*
X26382Y25484D1*
X26233Y25513D1*
X26090Y25565D1*
X25956Y25637D1*
X25833Y25728D1*
X25726Y25836D1*
X25635Y25958D1*
X25564Y26092D1*
X25513Y26236D1*
X25483Y26385D1*
X25476Y26537D1*
X25491Y26689D1*
X25529Y26836D1*
X25587Y26977D1*
X25625Y27046D1*
X24878Y27044D1*
X22594D1*
X22639Y26939D1*
X22681Y26792D1*
X22706Y26642D1*
X22712Y26510D1*
X22703Y26358D1*
X22676Y26208D1*
X22632Y26062D1*
X22570Y25923D1*
X22492Y25792D1*
X22400Y25671D1*
X22294Y25562D1*
X22175Y25466D1*
X22046Y25385D1*
X21908Y25320D1*
X21764Y25272D1*
X21615Y25241D1*
X21463Y25228D1*
X21311Y25233D1*
X21160Y25256D1*
X21014Y25297D1*
X20873Y25355D1*
X20740Y25429D1*
X20616Y25519D1*
X20505Y25622D1*
X20406Y25738D1*
X20322Y25865D1*
X20253Y26001D1*
X20201Y26144D1*
X20166Y26293D1*
X20149Y26444D1*
X20151Y26596D1*
X20170Y26747D1*
X20207Y26895D1*
X20264Y27044D1*
X17517D1*
X17582Y26866D1*
X17615Y26717D1*
X17631Y26566D1*
X17630Y26434D1*
X17612Y26283D1*
X17576Y26135D1*
X17523Y25992D1*
X17453Y25856D1*
X17368Y25730D1*
X17268Y25615D1*
X17156Y25512D1*
X17032Y25424D1*
X16898Y25351D1*
X16757Y25294D1*
X16610Y25254D1*
X16459Y25232D1*
X16307Y25228D1*
X16155Y25243D1*
X16006Y25275D1*
X15862Y25324D1*
X15725Y25390D1*
X15597Y25472D1*
X15479Y25569D1*
X15374Y25679D1*
X15282Y25801D1*
X15205Y25932D1*
X15145Y26072D1*
X15101Y26218D1*
X15076Y26368D1*
X15068Y26520D1*
X15078Y26672D1*
X15106Y26822D1*
X15152Y26967D1*
X15184Y27044D1*
X13262D1*
X12532Y26312D1*
X11459Y25239D1*
X11624Y25203D1*
X11767Y25152D1*
X11904Y25085D1*
X12032Y25002D1*
X12148Y24904D1*
X12253Y24793D1*
X12344Y24671D1*
X12419Y24539D1*
X12479Y24399D1*
X12521Y24252D1*
X12546Y24102D1*
X12552Y23970D1*
X12543Y23818D1*
X12516Y23668D1*
X12472Y23522D1*
X12410Y23383D1*
X12332Y23252D1*
X12240Y23131D1*
X12134Y23022D1*
X12015Y22926D1*
X11886Y22845D1*
X11748Y22780D1*
X11604Y22732D1*
X11455Y22701D1*
X11303Y22688D1*
X11151Y22693D1*
X11000Y22716D1*
X10854Y22757D1*
X10737Y22804D1*
X10736Y20054D1*
X10873Y20109D1*
X11020Y20148D1*
X11171Y20168D1*
X11323Y20171D1*
X11475Y20156D1*
X11624Y20123D1*
X11767Y20072D1*
X11904Y20005D1*
X12032Y19922D1*
X12148Y19824D1*
X12253Y19713D1*
X12344Y19591D1*
X12419Y19459D1*
X12479Y19319D1*
X12521Y19172D1*
X12546Y19022D1*
X12552Y18890D1*
X12543Y18738D1*
X12516Y18588D1*
X12472Y18442D1*
X12410Y18303D1*
X12332Y18172D1*
X12240Y18051D1*
X12134Y17942D1*
X12015Y17846D1*
X11886Y17765D1*
X11748Y17700D1*
X11604Y17652D1*
X11455Y17621D1*
X11303Y17608D1*
X11151Y17613D1*
X11000Y17636D1*
X10854Y17677D1*
X10737Y17724D1*
X10736Y13264D1*
X12541Y11459D1*
X12566Y11582D1*
X12612Y11727D1*
X12675Y11866D1*
X12753Y11996D1*
X12847Y12117D1*
X12954Y12225D1*
X13073Y12320D1*
X13203Y12399D1*
X13341Y12463D1*
X13486Y12511D1*
X13635Y12540D1*
X13787Y12552D1*
X13939Y12546D1*
X14090Y12521D1*
X14236Y12479D1*
X14376Y12420D1*
X14509Y12345D1*
X14631Y12255D1*
X14742Y12150D1*
X14840Y12034D1*
X14923Y11906D1*
X14991Y11770D1*
X15042Y11626D1*
X15075Y11477D1*
X15091Y11326D1*
X15090Y11194D1*
X15072Y11043D1*
X15036Y10895D1*
X14976Y10737D1*
X17726Y10736D1*
X17685Y10832D1*
X17641Y10978D1*
X17616Y11128D1*
X17608Y11280D1*
X17618Y11432D1*
X17646Y11582D1*
X17692Y11727D1*
X17755Y11866D1*
X17833Y11996D1*
X17927Y12117D1*
X18034Y12225D1*
X18153Y12320D1*
X18283Y12399D1*
X18421Y12463D1*
X18566Y12511D1*
X18715Y12540D1*
X18867Y12552D1*
X19019Y12546D1*
X19170Y12521D1*
X19316Y12479D1*
X19456Y12420D1*
X19589Y12345D1*
X19711Y12255D1*
X19822Y12150D1*
X19920Y12034D1*
X20003Y11906D1*
X20071Y11770D1*
X20122Y11626D1*
X20155Y11477D1*
X20171Y11326D1*
X20170Y11194D1*
X20152Y11043D1*
X20116Y10895D1*
X20056Y10737D1*
X22803Y10736D1*
X22741Y10904D1*
X22706Y11053D1*
X22689Y11204D1*
X22691Y11356D1*
X22710Y11507D1*
X22747Y11655D1*
X22801Y11797D1*
X22872Y11932D1*
X22958Y12058D1*
X23059Y12172D1*
X23172Y12274D1*
X23297Y12361D1*
X23431Y12434D1*
X23573Y12489D1*
X23720Y12528D1*
X23871Y12548D1*
X24023Y12551D1*
X24175Y12536D1*
X24324Y12503D1*
X24467Y12452D1*
X24604Y12385D1*
X24732Y12302D1*
X24848Y12204D1*
X24953Y12093D1*
X25044Y11971D1*
X25119Y11839D1*
X25179Y11699D1*
X25221Y11552D1*
X25246Y11402D1*
X25252Y11270D1*
X25243Y11118D1*
X25216Y10968D1*
X25172Y10822D1*
X25136Y10737D1*
X27058Y10736D1*
X27788Y11468D1*
X29096Y12777D1*
X20404Y21334D2*
X20293Y21320D1*
X20217Y21323D1*
X20142Y21336D1*
X20069Y21359D1*
X20000Y21390D1*
X19936Y21431D1*
X19877Y21479D1*
X19825Y21535D1*
X19780Y21597D1*
X19744Y21664D1*
X19717Y21735D1*
X19699Y21809D1*
X19691Y21885D1*
X19693Y21961D1*
X19705Y22036D1*
X19726Y22109D1*
X19756Y22179D1*
X19795Y22245D1*
X19843Y22304D1*
X19897Y22357D1*
X19958Y22403D1*
X20024Y22441D1*
X20095Y22469D1*
X20169Y22488D1*
X20244Y22498D1*
X20320D1*
X20396Y22488D1*
X20469Y22468D1*
X20540Y22439D1*
X20606Y22401D1*
X20667Y22355D1*
X20721Y22302D1*
X20768Y22242D1*
X20807Y22177D1*
X20837Y22107D1*
X20857Y22033D1*
X20865Y21984D1*
X20950Y21995D1*
X21026D1*
X21102Y21985D1*
X21175Y21966D1*
X21246Y21937D1*
X21312Y21899D1*
X21373Y21853D1*
X21427Y21799D1*
X21474Y21740D1*
X21513Y21674D1*
X21543Y21604D1*
X21563Y21531D1*
X21577Y21407D1*
X21572Y21331D1*
X21557Y21256D1*
X21533Y21184D1*
X21500Y21115D1*
X21458Y21052D1*
X21408Y20994D1*
X21351Y20943D1*
X21289Y20900D1*
X21221Y20865D1*
X21149Y20840D1*
X21075Y20823D1*
X20999Y20817D1*
X20923Y20820D1*
X20848Y20833D1*
X20775Y20856D1*
X20706Y20888D1*
X20641Y20928D1*
X20583Y20977D1*
X20531Y21032D1*
X20486Y21094D1*
X20450Y21161D1*
X20423Y21233D1*
X20403Y21333D1*
X20477Y19038D2*
X20463Y18963D1*
X20439Y18891D1*
X20405Y18822D1*
X20364Y18759D1*
X20314Y18701D1*
X20257Y18650D1*
X20194Y18607D1*
X20127Y18572D1*
X20055Y18547D1*
X19981Y18530D1*
X19905Y18524D1*
X19829Y18527D1*
X19754Y18540D1*
X19681Y18563D1*
X19612Y18595D1*
X19547Y18635D1*
X19488Y18684D1*
X19436Y18739D1*
X19392Y18801D1*
X19356Y18868D1*
X19329Y18939D1*
X19311Y19013D1*
X19303Y19089D1*
X19305Y19165D1*
X19316Y19241D1*
X19338Y19314D1*
X19368Y19384D1*
X19407Y19449D1*
X19454Y19509D1*
X19509Y19562D1*
X19572Y19609D1*
X19479Y19699D1*
X19435Y19761D1*
X19399Y19828D1*
X19372Y19899D1*
X19354Y19973D1*
X19346Y20049D1*
X19348Y20125D1*
X19359Y20200D1*
X19381Y20273D1*
X19411Y20343D1*
X19450Y20408D1*
X19497Y20468D1*
X19552Y20521D1*
X19613Y20567D1*
X19679Y20604D1*
X19750Y20633D1*
X19823Y20652D1*
X19899Y20662D1*
X19975D1*
X20050Y20652D1*
X20124Y20632D1*
X20194Y20603D1*
X20261Y20565D1*
X20321Y20519D1*
X20376Y20466D1*
X20422Y20406D1*
X20461Y20340D1*
X20491Y20270D1*
X20512Y20197D1*
X20525Y20073D1*
X20520Y19997D1*
X20506Y19922D1*
X20482Y19850D1*
X20448Y19782D1*
X20406Y19718D1*
X20357Y19660D1*
X20300Y19609D1*
X20255Y19578D1*
X20333Y19506D1*
X20379Y19446D1*
X20418Y19381D1*
X20448Y19311D1*
X20469Y19238D1*
X20482Y19114D1*
X20477Y19038D1*
X25123Y17385D2*
X25108Y17310D1*
X25084Y17238D1*
X25051Y17170D1*
X25009Y17106D1*
X24959Y17048D1*
X24903Y16997D1*
X24840Y16954D1*
X24772Y16920D1*
X24700Y16894D1*
X24626Y16878D1*
X24550Y16871D1*
X24474Y16875D1*
X24399Y16888D1*
X24326Y16910D1*
X24257Y16942D1*
X24193Y16983D1*
X24134Y17031D1*
X24082Y17087D1*
X24038Y17149D1*
X24002Y17216D1*
X23974Y17287D1*
X23957Y17361D1*
X23949Y17437D1*
X23950Y17513D1*
X23962Y17588D1*
X23983Y17661D1*
X24013Y17731D1*
X24053Y17796D1*
X24100Y17856D1*
X24154Y17909D1*
X24215Y17955D1*
X24282Y17992D1*
X24352Y18021D1*
X24426Y18040D1*
X24501Y18050D1*
X24578D1*
X24653Y18040D1*
X24727Y18020D1*
X24797Y17991D1*
X24863Y17953D1*
X24924Y17907D1*
X24978Y17854D1*
X25025Y17794D1*
X25064Y17728D1*
X25094Y17658D1*
X25115Y17585D1*
X25128Y17461D1*
X25123Y17385D1*
X26529Y17427D2*
X26514Y17352D1*
X26490Y17280D1*
X26456Y17211D1*
X26415Y17148D1*
X26365Y17090D1*
X26308Y17039D1*
X26246Y16996D1*
X26178Y16961D1*
X26106Y16936D1*
X26032Y16919D1*
X25956Y16913D1*
X25880Y16916D1*
X25805Y16929D1*
X25732Y16952D1*
X25663Y16984D1*
X25598Y17024D1*
X25540Y17073D1*
X25488Y17128D1*
X25443Y17190D1*
X25407Y17257D1*
X25380Y17329D1*
X25362Y17403D1*
X25354Y17478D1*
X25356Y17554D1*
X25367Y17630D1*
X25389Y17703D1*
X25419Y17773D1*
X25458Y17838D1*
X25505Y17898D1*
X25560Y17951D1*
X25621Y17997D1*
X25687Y18034D1*
X25758Y18063D1*
X25831Y18082D1*
X25907Y18091D1*
X25983D1*
X26059Y18081D1*
X26132Y18062D1*
X26203Y18033D1*
X26269Y17995D1*
X26329Y17949D1*
X26384Y17896D1*
X26431Y17836D1*
X26469Y17770D1*
X26499Y17700D1*
X26520Y17627D1*
X26533Y17503D1*
X26529Y17427D1*
X19086Y18160D2*
X23028D1*
Y13997D1*
X19010D1*
Y18160D1*
X19086D1*
X13129Y26895D2*
X15111D1*
X17589D2*
X20192D1*
X22668D2*
X25536D1*
X12981Y26746D2*
X15075D1*
X17625D2*
X20154D1*
X22707D2*
X25488D1*
X12831Y26597D2*
X15056D1*
X17644D2*
X20135D1*
X22723D2*
X25464D1*
X12681Y26448D2*
X15054D1*
X17646D2*
X20135D1*
X22726D2*
X25462D1*
X27557D2*
X27636D1*
X12534Y26298D2*
X15070D1*
X17630D2*
X20150D1*
X22709D2*
X25484D1*
X27538D2*
X27786D1*
X12384Y26149D2*
X15104D1*
X17596D2*
X20185D1*
X22676D2*
X25526D1*
X27495D2*
X27936D1*
X12236Y26000D2*
X15158D1*
X17542D2*
X20238D1*
X22621D2*
X25595D1*
X27424D2*
X28084D1*
X12086Y25851D2*
X15235D1*
X17465D2*
X20314D1*
X22545D2*
X25698D1*
X27321D2*
X28234D1*
X11936Y25702D2*
X15339D1*
X17361D2*
X20419D1*
X22440D2*
X25850D1*
X27171D2*
X28382D1*
X11788Y25553D2*
X15482D1*
X17218D2*
X20561D1*
X22299D2*
X26103D1*
X26917D2*
X28532D1*
X11638Y25404D2*
X15687D1*
X17013D2*
X20766D1*
X22095D2*
X28682D1*
X11491Y25255D2*
X16073D1*
X16627D2*
X21154D1*
X21706D2*
X28829D1*
X11879Y25106D2*
X28979D1*
X12103Y24957D2*
X28727D1*
X12255Y24808D2*
X28429D1*
X12367Y24659D2*
X28262D1*
X12448Y24510D2*
X28153D1*
X12505Y24361D2*
X28077D1*
X12543Y24212D2*
X28029D1*
X12565Y24062D2*
X28005D1*
X12567Y23913D2*
X28003D1*
X12550Y23764D2*
X28022D1*
X12517Y23615D2*
X28062D1*
X12465Y23466D2*
X28131D1*
X12389Y23317D2*
X28234D1*
X12286Y23168D2*
X28382D1*
X12146Y23019D2*
X28629D1*
X29472D2*
X29570D1*
X11943Y22870D2*
X29570D1*
X10751Y22721D2*
X10967D1*
X11574D2*
X29570D1*
X10751Y22572D2*
X29570D1*
X10751Y22423D2*
X19976D1*
X20585D2*
X28746D1*
X29355D2*
X29570D1*
X10751Y22274D2*
X15935D1*
X16694D2*
X16780D1*
X17499D2*
X17585D1*
X18344D2*
X19802D1*
X20759D2*
X28436D1*
X10751Y22125D2*
X15801D1*
X18477D2*
X19716D1*
X20844D2*
X28270D1*
X10751Y21976D2*
X15732D1*
X18544D2*
X19680D1*
X21156D2*
X28155D1*
X10751Y21826D2*
X15711D1*
X18568D2*
X19683D1*
X21416D2*
X28079D1*
X10751Y21677D2*
X15725D1*
X18554D2*
X19723D1*
X21525D2*
X28031D1*
X10751Y21528D2*
X15780D1*
X18499D2*
X19816D1*
X21578D2*
X28005D1*
X10751Y21379D2*
X15861D1*
X18432D2*
X20007D1*
X21590D2*
X28003D1*
X10751Y21230D2*
X15763D1*
X18530D2*
X20409D1*
X21564D2*
X28020D1*
X10751Y21081D2*
X15718D1*
X18575D2*
X20481D1*
X21494D2*
X28062D1*
X10751Y20932D2*
X15711D1*
X18582D2*
X20621D1*
X21352D2*
X28129D1*
X10751Y20783D2*
X15744D1*
X18549D2*
X28229D1*
X10751Y20634D2*
X15825D1*
X18468D2*
X19738D1*
X20132D2*
X28374D1*
X10751Y20485D2*
X15809D1*
X18487D2*
X19499D1*
X20373D2*
X28615D1*
X29484D2*
X29570D1*
X10751Y20336D2*
X15737D1*
X18556D2*
X19392D1*
X20478D2*
X29570D1*
X10751Y20187D2*
X15711D1*
X18585D2*
X19342D1*
X20530D2*
X29570D1*
X11858Y20038D2*
X15723D1*
X18570D2*
X19333D1*
X20540D2*
X29570D1*
X12089Y19889D2*
X15775D1*
X18518D2*
X19361D1*
X20511D2*
X28767D1*
X29334D2*
X29570D1*
X12246Y19740D2*
X15885D1*
X18408D2*
X19435D1*
X20437D2*
X28446D1*
X12360Y19590D2*
X16144D1*
X16484D2*
X16968D1*
X17308D2*
X17809D1*
X18149D2*
X18759D1*
X18963D2*
X19530D1*
X20290D2*
X28274D1*
X12443Y19441D2*
X18447D1*
X19275D2*
X19388D1*
X20397D2*
X28160D1*
X12503Y19292D2*
X18330D1*
X20471D2*
X28081D1*
X12541Y19143D2*
X18273D1*
X20497D2*
X28031D1*
X12562Y18994D2*
X18256D1*
X20485D2*
X28005D1*
X12567Y18845D2*
X18278D1*
X20432D2*
X28003D1*
X12553Y18696D2*
X18345D1*
X19378D2*
X19460D1*
X20323D2*
X22207D1*
X22804D2*
X28020D1*
X12520Y18547D2*
X18478D1*
X19244D2*
X19714D1*
X20070D2*
X22028D1*
X22983D2*
X28060D1*
X12470Y18398D2*
X21943D1*
X23068D2*
X28124D1*
X12396Y18249D2*
X21905D1*
X23107D2*
X28224D1*
X12296Y18100D2*
X19042D1*
X23104D2*
X28367D1*
X12158Y17951D2*
X19042D1*
X23064D2*
X24195D1*
X24881D2*
X25545D1*
X26343D2*
X28603D1*
X11962Y17802D2*
X19042D1*
X22973D2*
X24040D1*
X25035D2*
X25419D1*
X26467D2*
X29570D1*
X10751Y17653D2*
X10920D1*
X11619D2*
X19042D1*
X22968D2*
X23964D1*
X25112D2*
X25357D1*
X26528D2*
X29570D1*
X10751Y17504D2*
X19042D1*
X22968D2*
X23936D1*
X25140D2*
X25338D1*
X26547D2*
X29570D1*
X10751Y17354D2*
X19042D1*
X22968D2*
X23943D1*
X25133D2*
X25357D1*
X26528D2*
X28789D1*
X29310D2*
X29570D1*
X10751Y17205D2*
X19042D1*
X22968D2*
X23990D1*
X25085D2*
X25419D1*
X26469D2*
X28453D1*
X10751Y17056D2*
X18483D1*
X22968D2*
X24093D1*
X24983D2*
X25543D1*
X26345D2*
X28279D1*
X10751Y16907D2*
X18285D1*
X22968D2*
X24319D1*
X24757D2*
X28165D1*
X10751Y16758D2*
X18192D1*
X22968D2*
X28084D1*
X10751Y16609D2*
X18149D1*
X22968D2*
X28034D1*
X10751Y16460D2*
X18145D1*
X22968D2*
X28008D1*
X10751Y16311D2*
X18180D1*
X22968D2*
X28001D1*
X10751Y16162D2*
X18264D1*
X22968D2*
X28017D1*
X10751Y16013D2*
X18433D1*
X22968D2*
X28058D1*
X10751Y15864D2*
X19042D1*
X22968D2*
X28122D1*
X10751Y15715D2*
X19042D1*
X22968D2*
X28220D1*
X10751Y15566D2*
X19042D1*
X22968D2*
X28360D1*
X10751Y15417D2*
X19042D1*
X22968D2*
X28591D1*
X10751Y15268D2*
X19042D1*
X22968D2*
X29570D1*
X10751Y15118D2*
X19042D1*
X22968D2*
X29570D1*
X10751Y14969D2*
X19042D1*
X22968D2*
X29570D1*
X10751Y14820D2*
X19042D1*
X22968D2*
X29570D1*
X10751Y14671D2*
X19042D1*
X22968D2*
X29570D1*
X10751Y14522D2*
X19042D1*
X22968D2*
X29570D1*
X10751Y14373D2*
X19042D1*
X22968D2*
X29570D1*
X10751Y14224D2*
X19042D1*
X22968D2*
X29570D1*
X10751Y14075D2*
X29570D1*
X10751Y13926D2*
X29570D1*
X10751Y13777D2*
X29570D1*
X10751Y13628D2*
X29570D1*
X10751Y13479D2*
X29570D1*
X10751Y13330D2*
X29570D1*
X10834Y13181D2*
X29484D1*
X10984Y13032D2*
X29336D1*
X11134Y12882D2*
X29186D1*
X11281Y12733D2*
X29039D1*
X11431Y12584D2*
X28889D1*
X11579Y12435D2*
X13261D1*
X14360D2*
X18340D1*
X19439D2*
X23421D1*
X24519D2*
X28739D1*
X11729Y12286D2*
X13013D1*
X14608D2*
X18092D1*
X19687D2*
X23174D1*
X24766D2*
X28591D1*
X11879Y12137D2*
X12851D1*
X14770D2*
X17930D1*
X19849D2*
X23009D1*
X24931D2*
X28441D1*
X12027Y11988D2*
X12732D1*
X14886D2*
X17814D1*
X19968D2*
X22893D1*
X25047D2*
X28293D1*
X12177Y11839D2*
X12646D1*
X14975D2*
X17725D1*
X20054D2*
X22807D1*
X25133D2*
X28143D1*
X12324Y11690D2*
X12584D1*
X15037D2*
X17664D1*
X20116D2*
X22743D1*
X25197D2*
X27993D1*
X15079Y11541D2*
X17621D1*
X20159D2*
X22702D1*
X25238D2*
X27846D1*
X15101Y11392D2*
X17599D1*
X20182D2*
X22678D1*
X25262D2*
X27696D1*
X15108Y11243D2*
X17592D1*
X20187D2*
X22674D1*
X25266D2*
X27548D1*
X15096Y11094D2*
X17604D1*
X20175D2*
X22686D1*
X25254D2*
X27398D1*
X15065Y10945D2*
X17635D1*
X20144D2*
X22714D1*
X25226D2*
X27248D1*
X15015Y10796D2*
X17685D1*
X20097D2*
X22764D1*
X25176D2*
X27100D1*
X16727Y19739D2*
X16679Y19696D1*
X16616Y19653D1*
X16548Y19618D1*
X16477Y19592D1*
X16402Y19576D1*
X16327Y19570D1*
X16250Y19573D1*
X16175Y19586D1*
X16103Y19609D1*
X16034Y19641D1*
X15969Y19681D1*
X15910Y19730D1*
X15858Y19785D1*
X15814Y19847D1*
X15778Y19914D1*
X15751Y19985D1*
X15733Y20059D1*
X15725Y20135D1*
X15727Y20211D1*
X15738Y20286D1*
X15759Y20360D1*
X15790Y20429D1*
X15829Y20495D1*
X15895Y20573D1*
X15858Y20610D1*
X15814Y20672D1*
X15778Y20739D1*
X15751Y20810D1*
X15733Y20884D1*
X15725Y20960D1*
X15727Y21036D1*
X15738Y21111D1*
X15759Y21185D1*
X15790Y21254D1*
X15829Y21320D1*
X15895Y21398D1*
X15858Y21435D1*
X15814Y21497D1*
X15778Y21564D1*
X15751Y21635D1*
X15733Y21709D1*
X15725Y21785D1*
X15727Y21861D1*
X15738Y21936D1*
X15759Y22010D1*
X15790Y22079D1*
X15829Y22145D1*
X15876Y22204D1*
X15931Y22258D1*
X15992Y22303D1*
X16058Y22341D1*
X16129Y22369D1*
X16202Y22389D1*
X16278Y22398D1*
X16354D1*
X16429Y22388D1*
X16503Y22368D1*
X16573Y22339D1*
X16639Y22302D1*
X16732Y22224D1*
X16817Y22288D1*
X16883Y22326D1*
X16954Y22354D1*
X17027Y22374D1*
X17103Y22383D1*
X17179D1*
X17254Y22373D1*
X17328Y22353D1*
X17398Y22324D1*
X17464Y22287D1*
X17544Y22222D1*
X17642Y22303D1*
X17708Y22341D1*
X17779Y22369D1*
X17852Y22389D1*
X17928Y22398D1*
X18004D1*
X18079Y22388D1*
X18153Y22368D1*
X18223Y22339D1*
X18289Y22302D1*
X18350Y22256D1*
X18404Y22202D1*
X18451Y22142D1*
X18490Y22077D1*
X18520Y22007D1*
X18541Y21933D1*
X18554Y21809D1*
X18549Y21733D1*
X18535Y21659D1*
X18510Y21586D1*
X18477Y21518D1*
X18435Y21454D1*
X18393Y21406D1*
X18466Y21317D1*
X18505Y21252D1*
X18535Y21182D1*
X18556Y21108D1*
X18569Y20984D1*
X18564Y20908D1*
X18550Y20834D1*
X18525Y20761D1*
X18492Y20693D1*
X18450Y20629D1*
X18402Y20573D1*
X18466Y20492D1*
X18505Y20427D1*
X18535Y20357D1*
X18556Y20283D1*
X18569Y20159D1*
X18564Y20083D1*
X18550Y20009D1*
X18525Y19936D1*
X18492Y19868D1*
X18450Y19804D1*
X18401Y19747D1*
X18344Y19696D1*
X18281Y19653D1*
X18213Y19618D1*
X18142Y19592D1*
X18067Y19576D1*
X17992Y19570D1*
X17915Y19573D1*
X17840Y19586D1*
X17768Y19609D1*
X17699Y19641D1*
X17634Y19681D1*
X17561Y19745D1*
X17504Y19696D1*
X17441Y19653D1*
X17373Y19618D1*
X17302Y19592D1*
X17227Y19576D1*
X17152Y19570D1*
X17075Y19573D1*
X17000Y19586D1*
X16928Y19609D1*
X16859Y19641D1*
X16794Y19681D1*
X16727Y19738D1*
X29583Y15464D2*
X29445Y15394D1*
X29301Y15347D1*
X29151Y15321D1*
X28998Y15317D1*
X28847Y15336D1*
X28701Y15377D1*
X28561Y15438D1*
X28433Y15520D1*
X28318Y15620D1*
X28218Y15735D1*
X28137Y15864D1*
X28076Y16003D1*
X28035Y16150D1*
X28017Y16301D1*
X28021Y16453D1*
X28047Y16603D1*
X28095Y16748D1*
X28164Y16884D1*
X28252Y17008D1*
X28357Y17118D1*
X28477Y17211D1*
X28610Y17286D1*
X28752Y17341D1*
X28901Y17374D1*
X29053Y17384D1*
X29205Y17373D1*
X29353Y17339D1*
X29495Y17284D1*
X29585Y17235D1*
X29584Y18002D1*
X29445Y17934D1*
X29301Y17887D1*
X29151Y17861D1*
X28998Y17857D1*
X28847Y17876D1*
X28701Y17917D1*
X28561Y17978D1*
X28433Y18060D1*
X28318Y18160D1*
X28218Y18275D1*
X28137Y18404D1*
X28076Y18543D1*
X28035Y18690D1*
X28017Y18841D1*
X28021Y18993D1*
X28047Y19143D1*
X28095Y19288D1*
X28164Y19424D1*
X28252Y19548D1*
X28357Y19658D1*
X28477Y19751D1*
X28610Y19826D1*
X28752Y19881D1*
X28901Y19914D1*
X29053Y19924D1*
X29205Y19913D1*
X29353Y19879D1*
X29495Y19824D1*
X29585Y19775D1*
X29584Y20545D1*
X29514Y20506D1*
X29374Y20448D1*
X29226Y20411D1*
X29074Y20396D1*
X28922Y20404D1*
X28773Y20433D1*
X28630Y20485D1*
X28496Y20557D1*
X28373Y20648D1*
X28266Y20756D1*
X28175Y20878D1*
X28104Y21012D1*
X28053Y21156D1*
X28023Y21305D1*
X28016Y21457D1*
X28031Y21609D1*
X28069Y21756D1*
X28127Y21897D1*
X28206Y22027D1*
X28303Y22145D1*
X28416Y22247D1*
X28542Y22331D1*
X28680Y22396D1*
X28826Y22440D1*
X28977Y22462D1*
X29129Y22461D1*
X29279Y22439D1*
X29425Y22394D1*
X29563Y22328D1*
X29585Y22315D1*
X29584Y23084D1*
X29445Y23014D1*
X29301Y22967D1*
X29151Y22941D1*
X28998Y22937D1*
X28847Y22956D1*
X28701Y22997D1*
X28561Y23058D1*
X28433Y23140D1*
X28318Y23240D1*
X28218Y23355D1*
X28137Y23484D1*
X28076Y23623D1*
X28035Y23770D1*
X28017Y23921D1*
X28021Y24073D1*
X28047Y24223D1*
X28095Y24368D1*
X28164Y24504D1*
X28252Y24628D1*
X28357Y24738D1*
X28477Y24831D1*
X28610Y24906D1*
X28752Y24961D1*
X28901Y24994D1*
X29053Y25004D1*
X29098Y25003D1*
X27543Y26556D1*
X27542Y26434D1*
X27519Y26283D1*
X27475Y26138D1*
X27410Y26000D1*
X27325Y25873D1*
X27223Y25761D1*
X27105Y25664D1*
X26974Y25586D1*
X26834Y25528D1*
X26686Y25491D1*
X26534Y25476D1*
X26382Y25484D1*
X26233Y25513D1*
X26090Y25565D1*
X25956Y25637D1*
X25833Y25728D1*
X25726Y25836D1*
X25635Y25958D1*
X25564Y26092D1*
X25513Y26236D1*
X25483Y26385D1*
X25476Y26537D1*
X25491Y26689D1*
X25529Y26836D1*
X25587Y26977D1*
X25625Y27046D1*
X24878Y27044D1*
X22594D1*
X22639Y26939D1*
X22681Y26792D1*
X22706Y26642D1*
X22712Y26510D1*
X22703Y26358D1*
X22676Y26208D1*
X22632Y26062D1*
X22570Y25923D1*
X22492Y25792D1*
X22400Y25671D1*
X22294Y25562D1*
X22175Y25466D1*
X22046Y25385D1*
X21908Y25320D1*
X21764Y25272D1*
X21615Y25241D1*
X21463Y25228D1*
X21311Y25233D1*
X21160Y25256D1*
X21014Y25297D1*
X20873Y25355D1*
X20740Y25429D1*
X20616Y25519D1*
X20505Y25622D1*
X20406Y25738D1*
X20322Y25865D1*
X20253Y26001D1*
X20201Y26144D1*
X20166Y26293D1*
X20149Y26444D1*
X20151Y26596D1*
X20170Y26747D1*
X20207Y26895D1*
X20264Y27044D1*
X17517D1*
X17582Y26866D1*
X17615Y26717D1*
X17631Y26566D1*
X17630Y26434D1*
X17612Y26283D1*
X17576Y26135D1*
X17523Y25992D1*
X17453Y25856D1*
X17368Y25730D1*
X17268Y25615D1*
X17156Y25512D1*
X17032Y25424D1*
X16898Y25351D1*
X16757Y25294D1*
X16610Y25254D1*
X16459Y25232D1*
X16307Y25228D1*
X16155Y25243D1*
X16006Y25275D1*
X15862Y25324D1*
X15725Y25390D1*
X15597Y25472D1*
X15479Y25569D1*
X15374Y25679D1*
X15282Y25801D1*
X15205Y25932D1*
X15145Y26072D1*
X15101Y26218D1*
X15076Y26368D1*
X15068Y26520D1*
X15078Y26672D1*
X15106Y26822D1*
X15152Y26967D1*
X15184Y27044D1*
X13262D1*
X12532Y26312D1*
X11459Y25239D1*
X11624Y25203D1*
X11767Y25152D1*
X11904Y25085D1*
X12032Y25002D1*
X12148Y24904D1*
X12253Y24793D1*
X12344Y24671D1*
X12419Y24539D1*
X12479Y24399D1*
X12521Y24252D1*
X12546Y24102D1*
X12552Y23970D1*
X12543Y23818D1*
X12516Y23668D1*
X12472Y23522D1*
X12410Y23383D1*
X12332Y23252D1*
X12240Y23131D1*
X12134Y23022D1*
X12015Y22926D1*
X11886Y22845D1*
X11748Y22780D1*
X11604Y22732D1*
X11455Y22701D1*
X11303Y22688D1*
X11151Y22693D1*
X11000Y22716D1*
X10854Y22757D1*
X10737Y22804D1*
X10736Y20054D1*
X10873Y20109D1*
X11020Y20148D1*
X11171Y20168D1*
X11323Y20171D1*
X11475Y20156D1*
X11624Y20123D1*
X11767Y20072D1*
X11904Y20005D1*
X12032Y19922D1*
X12148Y19824D1*
X12253Y19713D1*
X12344Y19591D1*
X12419Y19459D1*
X12479Y19319D1*
X12521Y19172D1*
X12546Y19022D1*
X12552Y18890D1*
X12543Y18738D1*
X12516Y18588D1*
X12472Y18442D1*
X12410Y18303D1*
X12332Y18172D1*
X12240Y18051D1*
X12134Y17942D1*
X12015Y17846D1*
X11886Y17765D1*
X11748Y17700D1*
X11604Y17652D1*
X11455Y17621D1*
X11303Y17608D1*
X11151Y17613D1*
X11000Y17636D1*
X10854Y17677D1*
X10737Y17724D1*
X10736Y13264D1*
X12541Y11459D1*
X12566Y11582D1*
X12612Y11727D1*
X12675Y11866D1*
X12753Y11996D1*
X12847Y12117D1*
X12954Y12225D1*
X13073Y12320D1*
X13203Y12399D1*
X13341Y12463D1*
X13486Y12511D1*
X13635Y12540D1*
X13787Y12552D1*
X13939Y12546D1*
X14090Y12521D1*
X14236Y12479D1*
X14376Y12420D1*
X14509Y12345D1*
X14631Y12255D1*
X14742Y12150D1*
X14840Y12034D1*
X14923Y11906D1*
X14991Y11770D1*
X15042Y11626D1*
X15075Y11477D1*
X15091Y11326D1*
X15090Y11194D1*
X15072Y11043D1*
X15036Y10895D1*
X14976Y10737D1*
X17726Y10736D1*
X17685Y10832D1*
X17641Y10978D1*
X17616Y11128D1*
X17608Y11280D1*
X17618Y11432D1*
X17646Y11582D1*
X17692Y11727D1*
X17755Y11866D1*
X17833Y11996D1*
X17927Y12117D1*
X18034Y12225D1*
X18153Y12320D1*
X18283Y12399D1*
X18421Y12463D1*
X18566Y12511D1*
X18715Y12540D1*
X18867Y12552D1*
X19019Y12546D1*
X19170Y12521D1*
X19316Y12479D1*
X19456Y12420D1*
X19589Y12345D1*
X19711Y12255D1*
X19822Y12150D1*
X19920Y12034D1*
X20003Y11906D1*
X20071Y11770D1*
X20122Y11626D1*
X20155Y11477D1*
X20171Y11326D1*
X20170Y11194D1*
X20152Y11043D1*
X20116Y10895D1*
X20056Y10737D1*
X22803Y10736D1*
X22741Y10904D1*
X22706Y11053D1*
X22689Y11204D1*
X22691Y11356D1*
X22710Y11507D1*
X22747Y11655D1*
X22801Y11797D1*
X22872Y11932D1*
X22958Y12058D1*
X23059Y12172D1*
X23172Y12274D1*
X23297Y12361D1*
X23431Y12434D1*
X23573Y12489D1*
X23720Y12528D1*
X23871Y12548D1*
X24023Y12551D1*
X24175Y12536D1*
X24324Y12503D1*
X24467Y12452D1*
X24604Y12385D1*
X24732Y12302D1*
X24848Y12204D1*
X24953Y12093D1*
X25044Y11971D1*
X25119Y11839D1*
X25179Y11699D1*
X25221Y11552D1*
X25246Y11402D1*
X25252Y11270D1*
X25243Y11118D1*
X25216Y10968D1*
X25172Y10822D1*
X25136Y10737D1*
X27058Y10736D1*
X27788Y11468D1*
X29585Y13265D1*
X29584Y15464D1*
X20404Y21334D2*
X20293Y21320D1*
X20217Y21323D1*
X20142Y21336D1*
X20069Y21359D1*
X20000Y21390D1*
X19936Y21431D1*
X19877Y21479D1*
X19825Y21535D1*
X19780Y21597D1*
X19744Y21664D1*
X19717Y21735D1*
X19699Y21809D1*
X19691Y21885D1*
X19693Y21961D1*
X19705Y22036D1*
X19726Y22109D1*
X19756Y22179D1*
X19795Y22245D1*
X19843Y22304D1*
X19897Y22357D1*
X19958Y22403D1*
X20024Y22441D1*
X20095Y22469D1*
X20169Y22488D1*
X20244Y22498D1*
X20320D1*
X20396Y22488D1*
X20469Y22468D1*
X20540Y22439D1*
X20606Y22401D1*
X20667Y22355D1*
X20721Y22302D1*
X20768Y22242D1*
X20807Y22177D1*
X20837Y22107D1*
X20857Y22033D1*
X20865Y21984D1*
X20950Y21995D1*
X21026D1*
X21102Y21985D1*
X21175Y21966D1*
X21246Y21937D1*
X21312Y21899D1*
X21373Y21853D1*
X21427Y21799D1*
X21474Y21740D1*
X21513Y21674D1*
X21543Y21604D1*
X21563Y21531D1*
X21577Y21407D1*
X21572Y21331D1*
X21557Y21256D1*
X21533Y21184D1*
X21500Y21115D1*
X21458Y21052D1*
X21408Y20994D1*
X21351Y20943D1*
X21289Y20900D1*
X21221Y20865D1*
X21149Y20840D1*
X21075Y20823D1*
X20999Y20817D1*
X20923Y20820D1*
X20848Y20833D1*
X20775Y20856D1*
X20706Y20888D1*
X20641Y20928D1*
X20583Y20977D1*
X20531Y21032D1*
X20486Y21094D1*
X20450Y21161D1*
X20423Y21233D1*
X20403Y21333D1*
X20477Y19038D2*
X20463Y18963D1*
X20439Y18891D1*
X20405Y18822D1*
X20364Y18759D1*
X20314Y18701D1*
X20257Y18650D1*
X20194Y18607D1*
X20127Y18572D1*
X20055Y18547D1*
X19981Y18530D1*
X19905Y18524D1*
X19829Y18527D1*
X19754Y18540D1*
X19681Y18563D1*
X19612Y18595D1*
X19547Y18635D1*
X19488Y18684D1*
X19436Y18739D1*
X19405Y18784D1*
X19374Y18716D1*
X19332Y18652D1*
X19282Y18595D1*
X19226Y18544D1*
X19163Y18501D1*
X19095Y18466D1*
X19023Y18440D1*
X18949Y18424D1*
X18873Y18418D1*
X18797Y18421D1*
X18722Y18434D1*
X18649Y18457D1*
X18580Y18489D1*
X18516Y18529D1*
X18457Y18578D1*
X18405Y18633D1*
X18361Y18695D1*
X18325Y18762D1*
X18297Y18833D1*
X18280Y18907D1*
X18272Y18983D1*
X18273Y19059D1*
X18285Y19135D1*
X18306Y19208D1*
X18337Y19277D1*
X18376Y19343D1*
X18423Y19403D1*
X18477Y19456D1*
X18538Y19501D1*
X18605Y19539D1*
X18675Y19567D1*
X18749Y19587D1*
X18824Y19596D1*
X18901D1*
X18976Y19586D1*
X19050Y19566D1*
X19120Y19537D1*
X19186Y19500D1*
X19247Y19454D1*
X19301Y19400D1*
X19349Y19338D1*
X19368Y19384D1*
X19407Y19449D1*
X19454Y19509D1*
X19509Y19562D1*
X19572Y19609D1*
X19479Y19699D1*
X19435Y19761D1*
X19399Y19828D1*
X19372Y19899D1*
X19354Y19973D1*
X19346Y20049D1*
X19348Y20125D1*
X19359Y20200D1*
X19381Y20273D1*
X19411Y20343D1*
X19450Y20408D1*
X19497Y20468D1*
X19552Y20521D1*
X19613Y20567D1*
X19679Y20604D1*
X19750Y20633D1*
X19823Y20652D1*
X19899Y20662D1*
X19975D1*
X20050Y20652D1*
X20124Y20632D1*
X20194Y20603D1*
X20261Y20565D1*
X20321Y20519D1*
X20376Y20466D1*
X20422Y20406D1*
X20461Y20340D1*
X20491Y20270D1*
X20512Y20197D1*
X20525Y20073D1*
X20520Y19997D1*
X20506Y19922D1*
X20482Y19850D1*
X20448Y19782D1*
X20406Y19718D1*
X20357Y19660D1*
X20300Y19609D1*
X20255Y19578D1*
X20333Y19506D1*
X20379Y19446D1*
X20418Y19381D1*
X20448Y19311D1*
X20469Y19238D1*
X20482Y19114D1*
X20477Y19038D1*
X25123Y17385D2*
X25108Y17310D1*
X25084Y17238D1*
X25051Y17170D1*
X25009Y17106D1*
X24959Y17048D1*
X24903Y16997D1*
X24840Y16954D1*
X24772Y16920D1*
X24700Y16894D1*
X24626Y16878D1*
X24550Y16871D1*
X24474Y16875D1*
X24399Y16888D1*
X24326Y16910D1*
X24257Y16942D1*
X24193Y16983D1*
X24134Y17031D1*
X24082Y17087D1*
X24038Y17149D1*
X24002Y17216D1*
X23974Y17287D1*
X23957Y17361D1*
X23949Y17437D1*
X23950Y17513D1*
X23962Y17588D1*
X23983Y17661D1*
X24013Y17731D1*
X24053Y17796D1*
X24100Y17856D1*
X24154Y17909D1*
X24215Y17955D1*
X24282Y17992D1*
X24352Y18021D1*
X24426Y18040D1*
X24501Y18050D1*
X24578D1*
X24653Y18040D1*
X24727Y18020D1*
X24797Y17991D1*
X24863Y17953D1*
X24924Y17907D1*
X24978Y17854D1*
X25025Y17794D1*
X25064Y17728D1*
X25094Y17658D1*
X25115Y17585D1*
X25128Y17461D1*
X25123Y17385D1*
X26529Y17427D2*
X26514Y17352D1*
X26490Y17280D1*
X26456Y17211D1*
X26415Y17148D1*
X26365Y17090D1*
X26308Y17039D1*
X26246Y16996D1*
X26178Y16961D1*
X26106Y16936D1*
X26032Y16919D1*
X25956Y16913D1*
X25880Y16916D1*
X25805Y16929D1*
X25732Y16952D1*
X25663Y16984D1*
X25598Y17024D1*
X25540Y17073D1*
X25488Y17128D1*
X25443Y17190D1*
X25407Y17257D1*
X25380Y17329D1*
X25362Y17403D1*
X25354Y17478D1*
X25356Y17554D1*
X25367Y17630D1*
X25389Y17703D1*
X25419Y17773D1*
X25458Y17838D1*
X25505Y17898D1*
X25560Y17951D1*
X25621Y17997D1*
X25687Y18034D1*
X25758Y18063D1*
X25831Y18082D1*
X25907Y18091D1*
X25983D1*
X26059Y18081D1*
X26132Y18062D1*
X26203Y18033D1*
X26269Y17995D1*
X26329Y17949D1*
X26384Y17896D1*
X26431Y17836D1*
X26469Y17770D1*
X26499Y17700D1*
X26520Y17627D1*
X26533Y17503D1*
X26529Y17427D1*
X23091Y18103D2*
X23076Y18029D1*
X23052Y17956D1*
X23019Y17888D1*
X22953Y17797D1*
X22954Y14215D1*
X19057D1*
Y16018D1*
X18981Y15980D1*
X18909Y15954D1*
X18835Y15938D1*
X18759Y15932D1*
X18683Y15935D1*
X18608Y15948D1*
X18535Y15971D1*
X18466Y16003D1*
X18401Y16043D1*
X18343Y16091D1*
X18291Y16147D1*
X18246Y16209D1*
X18210Y16276D1*
X18183Y16347D1*
X18165Y16421D1*
X18157Y16497D1*
X18159Y16573D1*
X18171Y16648D1*
X18192Y16721D1*
X18222Y16791D1*
X18261Y16857D1*
X18308Y16916D1*
X18363Y16969D1*
X18424Y17015D1*
X18490Y17053D1*
X18561Y17081D1*
X18634Y17100D1*
X18710Y17110D1*
X18786D1*
X18862Y17100D1*
X18935Y17080D1*
X19006Y17051D1*
X19057Y17022D1*
Y18210D1*
X21916D1*
X21930Y18306D1*
X21951Y18380D1*
X21981Y18449D1*
X22020Y18515D1*
X22067Y18574D1*
X22122Y18628D1*
X22183Y18673D1*
X22249Y18711D1*
X22320Y18739D1*
X22393Y18759D1*
X22469Y18768D1*
X22545D1*
X22621Y18758D1*
X22694Y18738D1*
X22765Y18709D1*
X22831Y18672D1*
X22891Y18626D1*
X22946Y18572D1*
X22993Y18512D1*
X23031Y18447D1*
X23062Y18377D1*
X23082Y18304D1*
X23096Y18179D1*
X23091Y18103D1*
D26*
X29050Y13810D3*
Y16350D3*
D27*
X30320Y13810D3*
Y16350D3*
G36*
X27790Y17200D2*
X28255D1*
Y15500D1*
X27790D1*
X27520Y16025D1*
Y16675D1*
X27790Y17200D1*
G37*
G36*
Y14660D2*
X28250D1*
Y12960D1*
X27790D1*
X27520Y13485D1*
Y14135D1*
X27790Y14660D1*
G37*
D26*
X29050Y23970D3*
G36*
X27790Y24820D2*
X28255D1*
Y23120D1*
X27790D1*
X27520Y23645D1*
Y24295D1*
X27790Y24820D1*
G37*
D28*
X30320Y23970D3*
D26*
X29050Y18890D3*
Y21430D3*
D27*
X30320Y18890D3*
Y21430D3*
G36*
X27790Y22280D2*
X28255D1*
Y20580D1*
X27790D1*
X27520Y21105D1*
Y21755D1*
X27790Y22280D1*
G37*
G36*
Y19740D2*
X28250D1*
Y18040D1*
X27790D1*
X27520Y18565D1*
Y19215D1*
X27790Y19740D1*
G37*
D29*
X21430Y26510D3*
G36*
X20580Y25250D2*
Y25715D1*
X22280D1*
Y25250D1*
X21755Y24980D1*
X21105D1*
X20580Y25250D1*
G37*
D30*
X21430Y27780D3*
D26*
X11270Y18890D3*
G36*
X12530Y18040D2*
X12065D1*
Y19740D1*
X12530D1*
X12800Y19215D1*
Y18565D1*
X12530Y18040D1*
G37*
D28*
X10000Y18890D3*
D29*
X26510Y26510D3*
G36*
X25660Y25250D2*
Y25715D1*
X27360D1*
Y25250D1*
X26835Y24980D1*
X26185D1*
X25660Y25250D1*
G37*
D30*
X26510Y27780D3*
D29*
X18890Y11270D3*
G36*
X19740Y12530D2*
Y12065D1*
X18040D1*
Y12530D1*
X18565Y12800D1*
X19215D1*
X19740Y12530D1*
G37*
D30*
X18890Y10000D3*
D29*
X16350Y26510D3*
G36*
X15500Y25250D2*
Y25715D1*
X17200D1*
Y25250D1*
X16675Y24980D1*
X16025D1*
X15500Y25250D1*
G37*
D30*
X16350Y27780D3*
D26*
X11270Y23970D3*
G36*
X12530Y23120D2*
X12065D1*
Y24820D1*
X12530D1*
X12800Y24295D1*
Y23645D1*
X12530Y23120D1*
G37*
D28*
X10000Y23970D3*
D29*
X13810Y11270D3*
G36*
X14660Y12530D2*
Y12065D1*
X12960D1*
Y12530D1*
X13485Y12800D1*
X14135D1*
X14660Y12530D1*
G37*
D30*
X13810Y10000D3*
D29*
X23970Y11270D3*
G36*
X24820Y12530D2*
Y12065D1*
X23120D1*
Y12530D1*
X23645Y12800D1*
X24295D1*
X24820Y12530D1*
G37*
D30*
X23970Y10000D3*
D42*
X16314Y20159D3*
X17979D3*
X16314Y21809D3*
X17964D3*
X17154Y20984D3*
X17139Y21794D3*
Y20159D3*
X16314Y20984D3*
X17979D3*
G36*
X23671Y15450D2*
X23862Y15480D1*
X24009Y15539D1*
X24103Y15616D1*
X24179Y15692D1*
X24243Y15804D1*
X24268Y15870D1*
X24288Y15965D1*
X24298Y16016D1*
X24304Y16098D1*
X24281Y16163D1*
X24243Y16201D1*
X24217Y16226D1*
X24205Y16290D1*
X24210Y16316D1*
X24225Y16367D1*
X24255Y16394D1*
X24174Y16493D1*
X24098Y16443D1*
X24080D1*
X24044Y16531D1*
X23989Y16544D1*
X23887Y16554D1*
X23994Y16301D1*
Y16270D1*
X23986Y16226D1*
X23963Y16216D1*
X23912Y16237D1*
X23849Y16352D1*
X23778Y16524D1*
X23727Y16498D1*
X23673Y16435D1*
X23747Y16244D1*
X23709Y16251D1*
X23671D1*
Y15450D1*
G37*
M02*
