G04 DipTrace 2.4.0.2*
%INminiEL.gbs*%
%MOMM*%
%ADD58R,1.75X2.05*%
%ADD59R,1.75X1.65*%
%ADD60R,2.05X1.75*%
%ADD61R,2.082X1.75*%
%ADD62R,1.65X1.75*%
%FSLAX53Y53*%
G04*
G71*
G90*
G75*
G01*
%LNBotMask*%
%LPD*%
D62*
X29050Y13810D3*
Y16350D3*
D61*
X30320Y13810D3*
Y16350D3*
G36*
X27775Y17225D2*
X28280D1*
Y15475D1*
X27775D1*
X27495Y16019D1*
Y16681D1*
X27775Y17225D1*
G37*
G36*
Y14685D2*
X28275D1*
Y12935D1*
X27775D1*
X27495Y13479D1*
Y14141D1*
X27775Y14685D1*
G37*
D62*
X29050Y23970D3*
G36*
X27775Y24845D2*
X28280D1*
Y23095D1*
X27775D1*
X27495Y23639D1*
Y24301D1*
X27775Y24845D1*
G37*
D60*
X30320Y23970D3*
D62*
X29050Y18890D3*
Y21430D3*
D61*
X30320Y18890D3*
Y21430D3*
G36*
X27775Y22305D2*
X28280D1*
Y20555D1*
X27775D1*
X27495Y21099D1*
Y21761D1*
X27775Y22305D1*
G37*
G36*
Y19765D2*
X28275D1*
Y18015D1*
X27775D1*
X27495Y18559D1*
Y19221D1*
X27775Y19765D1*
G37*
D59*
X21430Y26510D3*
G36*
X20555Y25235D2*
Y25740D1*
X22305D1*
Y25235D1*
X21761Y24955D1*
X21099D1*
X20555Y25235D1*
G37*
D58*
X21430Y27780D3*
D62*
X11270Y18890D3*
G36*
X12545Y18015D2*
X12040D1*
Y19765D1*
X12545D1*
X12825Y19221D1*
Y18559D1*
X12545Y18015D1*
G37*
D60*
X10000Y18890D3*
D59*
X26510Y26510D3*
G36*
X25635Y25235D2*
Y25740D1*
X27385D1*
Y25235D1*
X26841Y24955D1*
X26179D1*
X25635Y25235D1*
G37*
D58*
X26510Y27780D3*
D59*
X18890Y11270D3*
G36*
X19765Y12545D2*
Y12040D1*
X18015D1*
Y12545D1*
X18559Y12825D1*
X19221D1*
X19765Y12545D1*
G37*
D58*
X18890Y10000D3*
D59*
X16350Y26510D3*
G36*
X15475Y25235D2*
Y25740D1*
X17225D1*
Y25235D1*
X16681Y24955D1*
X16019D1*
X15475Y25235D1*
G37*
D58*
X16350Y27780D3*
D62*
X11270Y23970D3*
G36*
X12545Y23095D2*
X12040D1*
Y24845D1*
X12545D1*
X12825Y24301D1*
Y23639D1*
X12545Y23095D1*
G37*
D60*
X10000Y23970D3*
D59*
X13810Y11270D3*
G36*
X14685Y12545D2*
Y12040D1*
X12935D1*
Y12545D1*
X13479Y12825D1*
X14141D1*
X14685Y12545D1*
G37*
D58*
X13810Y10000D3*
D59*
X23970Y11270D3*
G36*
X24845Y12545D2*
Y12040D1*
X23095D1*
Y12545D1*
X23639Y12825D1*
X24301D1*
X24845Y12545D1*
G37*
D58*
X23970Y10000D3*
G36*
X23671Y15450D2*
X23862Y15480D1*
X24009Y15539D1*
X24103Y15616D1*
X24179Y15692D1*
X24243Y15804D1*
X24268Y15870D1*
X24288Y15965D1*
X24298Y16016D1*
X24304Y16098D1*
X24281Y16163D1*
X24243Y16201D1*
X24217Y16226D1*
X24205Y16290D1*
X24210Y16316D1*
X24225Y16367D1*
X24255Y16394D1*
X24174Y16493D1*
X24098Y16443D1*
X24080D1*
X24044Y16531D1*
X23989Y16544D1*
X23887Y16554D1*
X23994Y16301D1*
Y16270D1*
X23986Y16226D1*
X23963Y16216D1*
X23912Y16237D1*
X23849Y16352D1*
X23778Y16524D1*
X23727Y16498D1*
X23673Y16435D1*
X23747Y16244D1*
X23709Y16251D1*
X23671D1*
Y15450D1*
G37*
M02*
