M48
METRIC,0000.00
T01C0.33
T02C1.1
%
T01
X+001618Y+002077
X+001701Y+002077
X+001702Y+002160
X+001701Y+002241
X+001618Y+002242
X+001618Y+002160
X+001785Y+002160
X+001785Y+002077
X+001783Y+002242
X+001752Y+002401
X+002068Y+002239
X+002026Y+002161
X+002014Y+002016
X+001927Y+001925
X+001773Y+001888
X+001550Y+001882
X+002174Y+001641
X+002453Y+001758
X+002551Y+001764
X+002517Y+001473
X+002551Y+001365
X+002237Y+001998
X+002263Y+002162
T02
X+002905Y+001381
X+003032Y+001381
X+003032Y+001635
X+002905Y+001635
X+002905Y+001889
X+003032Y+001889
X+003032Y+002143
X+002905Y+002143
X+002905Y+002397
X+003032Y+002397
X+002651Y+002651
X+002651Y+002778
X+002143Y+002778
X+002143Y+002651
X+001635Y+002651
X+001635Y+002778
X+001127Y+002397
X+001000Y+002397
X+001000Y+001889
X+001127Y+001889
X+001381Y+001127
X+001381Y+001000
X+001889Y+001000
X+001889Y+001127
X+002397Y+001127
X+002397Y+001000
T00
M30
