G04 DipTrace 2.4.0.2*
%INminiEL.gtl*%
%MOMM*%
%ADD13C,0.305*%
%ADD14C,0.3*%
%ADD15C,0.4*%
%ADD16C,0.152*%
%ADD17C,0.127*%
%ADD18C,0.75*%
%ADD20R,1.0X1.1*%
%ADD21R,0.7X0.9*%
%ADD22R,1.3X1.5*%
%ADD23R,0.9X0.7*%
%ADD25R,0.6X0.6*%
%ADD26R,1.6X1.7*%
%ADD27R,2.032X1.7*%
%ADD28R,2.0X1.7*%
%ADD29R,1.7X1.6*%
%ADD30R,1.7X2.0*%
%ADD32R,0.5X0.4*%
%ADD34R,0.4X0.5*%
%ADD39R,0.3X0.8*%
%ADD40R,0.8X0.3*%
%ADD41R,2.52X2.52*%
%ADD42C,0.711*%
%ADD45C,0.711*%
%FSLAX53Y53*%
G04*
G71*
G90*
G75*
G01*
%LNTop*%
%LPD*%
X19054Y19734D2*
D13*
X19272D1*
X19892Y19114D1*
X24847Y17662D2*
Y17125D1*
X24171Y16449D1*
X24538Y17461D2*
Y17125D1*
X24847D1*
X19054Y20234D2*
D14*
X19774D1*
D13*
X19935Y20073D1*
X25547Y17662D2*
Y17503D1*
Y17056D1*
X26164Y16440D1*
X25944Y17503D2*
X25547D1*
X23674Y23542D2*
X19032D1*
X18603Y23113D1*
D14*
X18389Y22899D1*
X24974Y23542D2*
D13*
Y24974D1*
X26510Y26510D1*
X15224Y21234D2*
D14*
X14624D1*
D15*
X13266D1*
X10852Y18820D1*
X11200D1*
X11270Y18890D1*
X16889Y19069D2*
D14*
Y18517D1*
D13*
Y18270D1*
X15989Y17369D1*
Y16828D1*
Y15131D1*
X16012Y15107D1*
X15889Y19069D2*
D14*
X15415D1*
D15*
X14606Y18261D1*
Y14620D1*
X16158Y13069D1*
X21371D1*
X23170Y11270D1*
X23970D1*
X15224Y20234D2*
D14*
X14207D1*
D15*
X13497Y19524D1*
Y11270D1*
X13810D1*
X15224Y22234D2*
D14*
Y22472D1*
D15*
X13776Y23921D1*
X11319D1*
X11270Y23970D1*
X16389Y22899D2*
D14*
Y23626D1*
D15*
X17152Y24388D1*
X19308D1*
X21430Y26510D1*
X24285Y21437D2*
D13*
Y20960D1*
X23242Y19917D1*
X23527D1*
X24076D1*
X24842Y19151D1*
Y18667D1*
X24847Y18662D1*
X24842Y19151D2*
X25057D1*
X25547Y18662D1*
X26738D1*
X29050Y16350D1*
X18389Y19069D2*
D14*
X18692D1*
D13*
X18799D1*
X18861Y19008D1*
X17889Y22899D2*
D14*
Y22347D1*
D13*
Y21734D1*
X17139Y20984D1*
X17389Y22899D2*
D14*
Y22347D1*
D13*
Y21234D1*
X17139Y20984D1*
X21978Y18511D2*
X22174D1*
X22506Y18179D1*
X17889Y16828D2*
X18440D1*
X18747Y16521D1*
X18861Y19008D2*
X18451D1*
D14*
X18389Y19069D1*
X16314Y20159D2*
D13*
X17139Y20984D1*
X18212Y15107D2*
X19820D1*
X19925Y15002D1*
X17889Y19069D2*
D14*
Y18445D1*
D13*
X18082Y18253D1*
X18834D1*
X19925Y17162D1*
X18834Y18253D2*
X20541D1*
X20813Y18525D1*
X20694D1*
Y17970D1*
X19886Y17162D1*
X19925D1*
X22085Y15002D1*
X20813Y19825D2*
X21964D1*
X21978Y19811D1*
X26298Y23350D2*
X28430D1*
X29050Y23970D1*
X19054Y22234D2*
D14*
X19276D1*
D13*
X19782Y22740D1*
X25688D1*
X26298Y23350D1*
X19054Y21734D2*
D14*
X19607D1*
D13*
X20106D1*
X20281Y21909D1*
X26889Y19881D2*
X28059D1*
X29050Y18890D1*
X19054Y21234D2*
D14*
X19607D1*
D13*
X20814D1*
X20987Y21407D1*
X26889Y20581D2*
X28201D1*
X29050Y21430D1*
X19054Y20734D2*
D14*
X19783D1*
D13*
X22422D1*
X22666Y20491D1*
Y19284D1*
X23732Y18217D1*
X23527D1*
X23776D1*
X22720Y17162D1*
X22085D1*
Y17470D1*
X23067Y16488D1*
Y15590D1*
X23800Y14857D1*
X24013D1*
X24171Y14699D1*
X26154D1*
X26164Y14690D1*
X28170D1*
X29050Y13810D1*
X22422Y20734D2*
X22985Y21298D1*
Y21437D1*
Y21442D1*
X23706Y22162D1*
X26185D1*
X26298Y22050D1*
Y21612D1*
X25826Y21140D1*
Y20581D1*
X25889D1*
Y19881D1*
D45*
X20281Y21909D3*
X20987Y21407D3*
X19892Y19114D3*
X19935Y20073D3*
X18861Y19008D3*
X24538Y17461D3*
X25944Y17503D3*
X22506Y18179D3*
X18747Y16521D3*
X23001Y17354D2*
D16*
X23359D1*
X23001Y17205D2*
X23359D1*
X23001Y17056D2*
X23359D1*
X23001Y16907D2*
X23359D1*
X23001Y16758D2*
X23359D1*
X23001Y16609D2*
X23323D1*
X23001Y16460D2*
X23321D1*
X23001Y16311D2*
X23321D1*
X23001Y16161D2*
X23321D1*
X23001Y16012D2*
X23309D1*
X23001Y15863D2*
X23309D1*
X25021D2*
X25314D1*
X23001Y15714D2*
X23309D1*
X24978D2*
X25350D1*
X23001Y15565D2*
X23309D1*
X24968D2*
X25355D1*
X23001Y15416D2*
X23309D1*
X24990D2*
X25352D1*
X26990D2*
X28000D1*
X23001Y15267D2*
X23309D1*
X25021D2*
X25314D1*
X27014D2*
X28000D1*
X23001Y15118D2*
X23309D1*
X25021D2*
X25314D1*
X27014D2*
X29548D1*
X23001Y14969D2*
X23321D1*
X25021D2*
X25314D1*
X27014D2*
X29548D1*
X23001Y14820D2*
X23321D1*
X25021D2*
X25314D1*
X27014D2*
X28000D1*
X23001Y14671D2*
X23321D1*
X25021D2*
X25314D1*
X27014D2*
X28000D1*
X23001Y14522D2*
X23326D1*
X25018D2*
X25317D1*
X27012D2*
X28000D1*
X23001Y14373D2*
X23376D1*
X24966D2*
X25364D1*
X26962D2*
X28000D1*
X23232Y14224D2*
X23452D1*
X24890D2*
X25438D1*
X26888D2*
X28000D1*
X24785Y14075D2*
X25543D1*
X26783D2*
X28000D1*
X24564Y13925D2*
X25752D1*
X26573D2*
X28000D1*
X24133Y13776D2*
X28000D1*
X24430Y13627D2*
X28000D1*
X24730Y13478D2*
X28000D1*
X25030Y13329D2*
X28000D1*
X25330Y13180D2*
X28000D1*
X25630Y13031D2*
X28000D1*
X25928Y12882D2*
X28000D1*
X26023Y12733D2*
X28000D1*
X26023Y12584D2*
X28993D1*
X26023Y12435D2*
X28836D1*
X26023Y12286D2*
X28676D1*
X26023Y12137D2*
X28517D1*
X26023Y11988D2*
X28357D1*
X26023Y11839D2*
X28200D1*
X26023Y11689D2*
X28041D1*
X26023Y11540D2*
X27881D1*
X26023Y11391D2*
X27722D1*
X26023Y11242D2*
X27564D1*
X26023Y11093D2*
X27405D1*
X26023Y10944D2*
X27245D1*
X26023Y10795D2*
X27086D1*
X23337Y14574D2*
Y15084D1*
X23324D1*
Y16081D1*
X23336D1*
X23337Y16589D1*
X23352Y16671D1*
X23374Y16731D1*
Y17435D1*
X22987Y17433D1*
X22986Y14336D1*
X23068Y14299D1*
X23605Y14034D1*
X23553Y14102D1*
X23423Y14291D1*
X23380Y14402D1*
X23340Y14521D1*
X23337Y14559D1*
Y14574D1*
X25006Y15284D2*
X25004Y14528D1*
X24985Y14462D1*
X24918Y14289D1*
X24842Y14177D1*
X24744Y14041D1*
X24698Y14002D1*
X24462Y13883D1*
X24404Y13867D1*
X24265Y13865D1*
X23933Y13868D1*
X25966Y12857D1*
X26007Y12795D1*
X26008Y12560D1*
Y10771D1*
X27073Y10768D1*
X29161Y12726D1*
X28016D1*
Y14894D1*
X29562Y14898D1*
Y15157D1*
X28983Y15256D1*
X28925Y15266D1*
X28016D1*
Y15416D1*
X27816Y15451D1*
X27130D1*
X27076Y15475D1*
X26974Y15585D1*
X26975Y15389D1*
X26993Y15339D1*
X26998Y15274D1*
X26996Y14519D1*
X26978Y14453D1*
X26911Y14280D1*
X26834Y14168D1*
X26737Y14031D1*
X26690Y13992D1*
X26455Y13874D1*
X26396Y13858D1*
X26257Y13855D1*
X25933Y13857D1*
X25875Y13873D1*
X25633Y13995D1*
X25587Y14036D1*
X25432Y14255D1*
X25404Y14309D1*
X25335Y14496D1*
X25329Y14565D1*
X25331Y15320D1*
X25347Y15379D1*
X25369Y15420D1*
Y15712D1*
X25335Y15790D1*
X25329Y15866D1*
X25007Y15919D1*
X25006Y15849D1*
X24993Y15774D1*
X24953Y15700D1*
X24955Y15444D1*
X24986Y15392D1*
X25003Y15334D1*
X25006Y15284D1*
X24171Y14699D2*
X24780Y14090D1*
X24937Y15464D2*
X23562Y14090D1*
X25398Y15455D2*
X26773Y14080D1*
X26164Y14690D2*
X25555Y14080D1*
X28016Y14894D2*
X29050Y13810D1*
X28016Y12726D1*
X24261Y20221D2*
D17*
X24981D1*
X24261Y20097D2*
X25406D1*
X24261Y19974D2*
X25406D1*
X24261Y19850D2*
X25406D1*
X24261Y19726D2*
X25406D1*
X24261Y19603D2*
X25406D1*
X24261Y19479D2*
X25406D1*
X27372D2*
X27920D1*
X24261Y19355D2*
X28017D1*
X24261Y19232D2*
X28017D1*
X23684Y19108D2*
X24414D1*
X25981D2*
X28017D1*
X24261Y18984D2*
X24414D1*
X25981D2*
X28017D1*
X24261Y18861D2*
X24414D1*
X25981D2*
X28017D1*
X24261Y18737D2*
X24414D1*
X25981D2*
X28017D1*
X24261Y18613D2*
X24414D1*
X25981D2*
X28017D1*
X24261Y18490D2*
X24414D1*
X25981D2*
X28017D1*
X24261Y18366D2*
X24414D1*
X25981D2*
X28017D1*
X24261Y18242D2*
X24414D1*
X25981D2*
X28017D1*
X24261Y18119D2*
X24414D1*
X25981D2*
X28017D1*
X26255Y17995D2*
X28017D1*
X26398Y17871D2*
X28017D1*
X26477Y17748D2*
X29601D1*
X26519Y17624D2*
X29601D1*
X26533Y17500D2*
X29603D1*
X26519Y17377D2*
X28017D1*
X26475Y17253D2*
X28017D1*
X26687Y17129D2*
X28017D1*
X26799Y17006D2*
X28017D1*
X26886Y16882D2*
X28017D1*
X26945Y16758D2*
X28017D1*
X26989Y16635D2*
X28017D1*
X26997Y16511D2*
X28017D1*
X26997Y16387D2*
X28017D1*
X26997Y16264D2*
X28017D1*
X26997Y16140D2*
X28017D1*
X26997Y16016D2*
X28017D1*
X26997Y15893D2*
X28017D1*
X27727Y15769D2*
X28017D1*
X23669Y18988D2*
X24247D1*
X24249Y17960D1*
X24306Y17988D1*
X24365Y18011D1*
X24425Y18026D1*
X24427Y18132D1*
X25268Y18130D1*
X25317Y18132D1*
X25968D1*
Y18079D1*
X26084Y18061D1*
X26145Y18043D1*
X26203Y18017D1*
X26258Y17985D1*
X26309Y17948D1*
X26356Y17905D1*
X26398Y17857D1*
X26434Y17805D1*
X26464Y17749D1*
X26488Y17690D1*
X26506Y17629D1*
X26516Y17567D1*
X26520Y17503D1*
X26516Y17439D1*
X26506Y17377D1*
X26489Y17316D1*
X26456Y17241D1*
X26662Y17137D1*
X26705Y17109D1*
X26744Y17066D1*
X26884Y16866D1*
X26910Y16817D1*
X26970Y16657D1*
X26984Y16580D1*
Y15891D1*
X28028Y15717D1*
X28029Y15927D1*
Y17421D1*
X29617D1*
X29612Y17820D1*
X29083Y17819D1*
X28029D1*
Y19385D1*
X27904Y19509D1*
X27358Y19508D1*
X27360Y19461D1*
X26419D1*
Y20094D1*
X26360Y20099D1*
Y19461D1*
X25419D1*
Y20185D1*
X25224Y20201D1*
X24245Y20288D1*
X24247Y19926D1*
Y19147D1*
X23670D1*
X23671Y18985D1*
X25139Y19132D2*
X25968D1*
Y18191D1*
X24427D1*
Y19132D1*
X25268D1*
X23527Y19917D2*
X24247D1*
X25547Y19132D2*
Y18191D1*
Y18662D2*
X25967D1*
X24847Y19132D2*
Y18191D1*
X24427Y18662D2*
X24847D1*
X29050Y17420D2*
Y16350D1*
X28030D2*
X29050D1*
X26898Y22958D2*
D16*
X28001D1*
X26898Y22809D2*
X29503D1*
X26898Y22660D2*
X29506D1*
X26898Y22510D2*
X28001D1*
X26898Y22361D2*
X28001D1*
X20802Y22212D2*
X25698D1*
X26898D2*
X28001D1*
X20866Y22063D2*
X25698D1*
X26898D2*
X28001D1*
X21302Y21914D2*
X22286D1*
X24986D2*
X25698D1*
X26898D2*
X28001D1*
X21471Y21765D2*
X22286D1*
X24986D2*
X25698D1*
X26898D2*
X28001D1*
X21554Y21616D2*
X22286D1*
X24986D2*
X25698D1*
X26898D2*
X28001D1*
X21588Y21467D2*
X22286D1*
X24986D2*
X25698D1*
X26898D2*
X28001D1*
X21585Y21318D2*
X22286D1*
X24986D2*
X28001D1*
X24986Y21169D2*
X28001D1*
X24986Y21020D2*
X28001D1*
X24986Y20871D2*
X25391D1*
X24605Y20722D2*
X25391D1*
X24795Y20573D2*
X25391D1*
X22316Y22021D2*
X24970D1*
Y20852D1*
X24658D1*
X24607Y20745D1*
X24559Y20687D1*
X24510Y20638D1*
X25056Y20504D1*
X25405Y20421D1*
Y21015D1*
X26373D1*
Y19868D1*
X26405Y19904D1*
X26407Y20315D1*
X26405Y20375D1*
Y21015D1*
X27373D1*
Y20965D1*
X27727Y20968D1*
X28015D1*
X28016Y22514D1*
X29523D1*
X29516Y22886D1*
X29086D1*
X28016D1*
Y22964D1*
X26880Y22963D1*
X26882Y22666D1*
Y21366D1*
X25714D1*
Y22355D1*
X24774Y22353D1*
X20671D1*
X20721Y22302D1*
X20768Y22242D1*
X20807Y22177D1*
X20837Y22107D1*
X20857Y22033D1*
X20865Y21984D1*
X20950Y21995D1*
X21026D1*
X21102Y21985D1*
X21175Y21966D1*
X21246Y21937D1*
X21312Y21899D1*
X21373Y21853D1*
X21427Y21799D1*
X21474Y21740D1*
X21513Y21674D1*
X21543Y21604D1*
X21563Y21531D1*
X21577Y21407D1*
X21572Y21331D1*
X21547Y21227D1*
X22122Y21226D1*
X22246Y21201D1*
X22301Y21188D1*
Y22021D1*
X22316D1*
X22301D2*
X22985Y21437D1*
X23669Y22021D2*
X22985Y21437D1*
X25405Y21015D2*
X26373Y20147D1*
Y21015D2*
X25889Y20581D1*
X26373Y20315D2*
X25889Y19881D1*
X26298Y22050D2*
X26882Y21366D1*
Y22734D2*
X25714Y21366D1*
G36*
X23571Y14559D2*
Y15299D1*
X24771D1*
Y14559D1*
X24711Y14399D1*
X24571Y14199D1*
X24371Y14099D1*
X23971D1*
X23771Y14199D1*
X23631Y14399D1*
X23571Y14559D1*
G37*
G36*
X24771Y16589D2*
Y15849D1*
X23571D1*
Y16589D1*
X23631Y16749D1*
X23771Y16949D1*
X23971Y17049D1*
X24371D1*
X24571Y16949D1*
X24711Y16749D1*
X24771Y16589D1*
G37*
G36*
X25564Y14550D2*
Y15290D1*
X26764D1*
Y14550D1*
X26704Y14390D1*
X26564Y14190D1*
X26364Y14090D1*
X25964D1*
X25764Y14190D1*
X25624Y14390D1*
X25564Y14550D1*
G37*
G36*
X26764Y16580D2*
Y15840D1*
X25564D1*
Y16580D1*
X25624Y16740D1*
X25764Y16940D1*
X25964Y17040D1*
X26364D1*
X26564Y16940D1*
X26704Y16740D1*
X26764Y16580D1*
G37*
D20*
X23527Y18217D3*
Y19917D3*
D21*
X21978Y19811D3*
Y18511D3*
D22*
X15989Y16828D3*
X17889D3*
D23*
X22985Y21437D3*
X24285D3*
X24974Y23542D3*
X23674D3*
D25*
X16012Y15107D3*
X18212D3*
D26*
X29050Y13810D3*
Y16350D3*
D27*
X30320Y13810D3*
Y16350D3*
D26*
X29050Y23970D3*
D28*
X30320D3*
D26*
X29050Y18890D3*
Y21430D3*
D27*
X30320Y18890D3*
Y21430D3*
D29*
X21430Y26510D3*
D30*
Y27780D3*
D26*
X11270Y18890D3*
D28*
X10000D3*
D29*
X26510Y26510D3*
D30*
Y27780D3*
D29*
X18890Y11270D3*
D30*
Y10000D3*
D29*
X16350Y26510D3*
D30*
Y27780D3*
D26*
X11270Y23970D3*
D28*
X10000D3*
D29*
X13810Y11270D3*
D30*
Y10000D3*
D29*
X23970Y11270D3*
D30*
Y10000D3*
G36*
X20495Y17132D2*
X19955Y16592D1*
X19355D1*
Y17272D1*
X19815Y17732D1*
X20495D1*
Y17132D1*
G37*
G36*
X19955Y15572D2*
X20495Y15032D1*
Y14432D1*
X19815D1*
X19355Y14892D1*
Y15572D1*
X19955D1*
G37*
G36*
X21515Y15032D2*
X22055Y15572D1*
X22655D1*
Y14892D1*
X22195Y14432D1*
X21515D1*
Y15032D1*
G37*
G36*
X22055Y16592D2*
X21515Y17132D1*
Y17732D1*
X22195D1*
X22655Y17272D1*
Y16592D1*
X22055D1*
G37*
D21*
X20813Y19825D3*
Y18525D3*
D32*
X25889Y20581D3*
Y19881D3*
X26889D3*
Y20581D3*
D34*
X25547Y18662D3*
X24847D3*
Y17662D3*
X25547D3*
D21*
X26298Y23350D3*
Y22050D3*
D39*
X15889Y19069D3*
X16389D3*
X16889D3*
X17389D3*
X17889D3*
X18389D3*
D40*
X19054Y19734D3*
Y20234D3*
Y20734D3*
Y21234D3*
Y21734D3*
Y22234D3*
D39*
X18389Y22899D3*
X17889D3*
X17389D3*
X16889D3*
X16389D3*
X15889D3*
D40*
X15224Y22234D3*
Y21734D3*
Y21234D3*
Y20734D3*
Y20234D3*
Y19734D3*
D41*
X17139Y20984D3*
D42*
X16314Y20159D3*
X17979D3*
X16314Y21809D3*
X17964D3*
X17154Y20984D3*
X17139Y21794D3*
Y20159D3*
X16314Y20984D3*
X17979D3*
G36*
X24408Y25132D2*
X24379Y24941D1*
X24319Y24794D1*
X24243Y24700D1*
X24167Y24624D1*
X24054Y24560D1*
X23989Y24535D1*
X23894Y24515D1*
X23843Y24504D1*
X23760Y24499D1*
X23695Y24522D1*
X23657Y24560D1*
X23632Y24586D1*
X23568Y24598D1*
X23543Y24593D1*
X23492Y24578D1*
X23464Y24548D1*
X23365Y24629D1*
X23416Y24705D1*
Y24723D1*
X23327Y24759D1*
X23314Y24814D1*
X23304Y24916D1*
X23557Y24809D1*
X23589D1*
X23632Y24817D1*
X23642Y24840D1*
X23622Y24890D1*
X23506Y24954D1*
X23335Y25025D1*
X23360Y25076D1*
X23424Y25130D1*
X23614Y25056D1*
X23608Y25094D1*
Y25132D1*
X24408D1*
G37*
X19985Y17102D2*
D18*
X22115Y14972D1*
M02*
