G04 DipTrace 2.4.0.2*
%INminiEL.gbl*%
%MOMM*%
%ADD13C,0.305*%
%ADD15C,0.4*%
%ADD16C,0.152*%
%ADD25C,0.711*%
%ADD26C,0.711*%
%ADD38R,1.6X1.7*%
%ADD40R,2.032X1.7*%
%ADD42R,2.0X1.7*%
%ADD44R,1.7X1.6*%
%ADD45R,1.7X2.0*%
%FSLAX53Y53*%
G04*
G71*
G90*
G75*
G01*
%LNBottom*%
%LPD*%
X24528Y17582D2*
D13*
X24080Y18031D1*
X22100D1*
X20659Y19471D1*
X19267D1*
Y19250D1*
X25507Y17639D2*
Y17578D1*
X24582Y18503D1*
X22332D1*
X20649Y20186D1*
X20086D1*
Y20104D1*
X20141Y20159D1*
X26510Y25348D2*
Y26510D1*
Y27780D1*
X18890Y12433D2*
D15*
X16005D1*
X15641Y12796D1*
Y15105D1*
X11856Y18890D1*
X12433D1*
Y21430D1*
X16350Y25348D1*
X18890Y12433D2*
Y11270D1*
Y10000D1*
X12433Y18890D2*
X11270D1*
X10000D1*
X16350Y25348D2*
Y26510D1*
Y27780D1*
X15501Y18820D2*
Y17711D1*
X15939Y17273D1*
X19249D1*
X22089Y14433D1*
Y13735D1*
X23392Y12433D1*
X23970D1*
Y11270D1*
Y10000D1*
X13810Y12433D2*
Y11270D1*
Y10000D1*
X12433Y23970D2*
X11270D1*
X10000D1*
X21430Y25348D2*
Y26510D1*
Y27780D1*
X25507Y13653D2*
D13*
Y13970D1*
X27888Y16350D1*
X29050D1*
X30320D1*
X22367Y19983D2*
X21988D1*
X21115Y20857D1*
X18591D1*
X17848Y21600D1*
Y20775D1*
X17008D1*
X16183D1*
Y21600D1*
Y22425D1*
X16993D1*
X17008Y22410D1*
X17818D1*
X17833Y22425D1*
X17008Y22410D2*
Y21615D1*
X17023Y21600D1*
X17728Y18882D2*
Y18991D1*
X18439D1*
X19228Y18202D1*
X19993D1*
X21736Y16460D1*
Y16408D1*
X27888Y23970D2*
X29050D1*
X30320D1*
X20682Y22385D2*
X24390D1*
X27885Y18890D1*
X29050D1*
X30320D1*
X20259Y21614D2*
X20014D1*
Y22684D1*
X20384Y23054D1*
X24415D1*
X26039Y21430D1*
X27888D1*
X29050D2*
X30320D1*
X29050D2*
X27888D1*
X27885Y13810D2*
X29050D1*
X30320D1*
X25168Y14733D2*
X27163Y16728D1*
Y18947D1*
X24260Y21850D1*
X22841D1*
Y21408D1*
X22633Y21616D1*
D26*
X25507Y13653D3*
X19267Y19250D3*
X20141Y20159D3*
X22367Y19983D3*
X20682Y22385D3*
X20259Y21614D3*
X17728Y18882D3*
X21736Y16408D3*
X15501Y18820D3*
X24528Y17582D3*
X25507Y17639D3*
X25168Y14733D3*
X22633Y21616D3*
X17516Y24007D3*
X23948Y26867D2*
D16*
X25410D1*
X23948Y26718D2*
X25410D1*
X23948Y26569D2*
X25410D1*
X23948Y26420D2*
X25410D1*
X27610D2*
X27756D1*
X23948Y26270D2*
X25410D1*
X27610D2*
X27896D1*
X23948Y26121D2*
X25410D1*
X27610D2*
X28037D1*
X23948Y25972D2*
X25410D1*
X27610D2*
X28180D1*
X23948Y25823D2*
X25410D1*
X27610D2*
X28320D1*
X23948Y25674D2*
X25410D1*
X27610D2*
X28461D1*
X23948Y25525D2*
X25410D1*
X27610D2*
X28604D1*
X23948Y25376D2*
X25410D1*
X27610D2*
X28744D1*
X23948Y25227D2*
X25413D1*
X27608D2*
X28887D1*
X23948Y25078D2*
X25487D1*
X27534D2*
X29028D1*
X23948Y24929D2*
X25758D1*
X27263D2*
X27568D1*
X23948Y24780D2*
X26049D1*
X26972D2*
X27492D1*
X23948Y24631D2*
X27415D1*
X23948Y24482D2*
X27337D1*
X16945Y24333D2*
X19219D1*
X23948D2*
X27275D1*
X16814Y24184D2*
X19436D1*
X23948D2*
X27270D1*
X16680Y24034D2*
X19650D1*
X23948D2*
X27270D1*
X16549Y23885D2*
X27270D1*
X16418Y23736D2*
X27270D1*
X16287Y23587D2*
X27277D1*
X16156Y23438D2*
X20329D1*
X24469D2*
X27349D1*
X16025Y23289D2*
X20057D1*
X24741D2*
X27425D1*
X15892Y23140D2*
X19910D1*
X24891D2*
X27501D1*
X15761Y22991D2*
X19760D1*
X25039D2*
X27580D1*
X15630Y22842D2*
X19645D1*
X25189D2*
X29423D1*
X15583Y22693D2*
X19612D1*
X25339D2*
X29425D1*
X15583Y22544D2*
X19612D1*
X25486D2*
X29428D1*
X15583Y22395D2*
X19612D1*
X25636D2*
X27570D1*
X15583Y22246D2*
X19612D1*
X25784D2*
X27494D1*
X15580Y22097D2*
X19612D1*
X25934D2*
X27418D1*
X15580Y21948D2*
X19612D1*
X21093D2*
X22129D1*
X26084D2*
X27342D1*
X15580Y21798D2*
X19612D1*
X20833D2*
X22058D1*
X15580Y21649D2*
X19612D1*
X20862D2*
X22029D1*
X15580Y21500D2*
X19629D1*
X20852D2*
X22039D1*
X15580Y21351D2*
X19715D1*
X20802D2*
X22091D1*
X23238D2*
X24196D1*
X15578Y21202D2*
X19822D1*
X20695D2*
X22198D1*
X23184D2*
X24346D1*
X15578Y21053D2*
X20062D1*
X20457D2*
X22443D1*
X23010D2*
X24496D1*
X15578Y20904D2*
X24644D1*
X15578Y20755D2*
X24794D1*
X15578Y20606D2*
X19741D1*
X20540D2*
X24941D1*
X15578Y20457D2*
X19617D1*
X20940D2*
X25091D1*
X15578Y20308D2*
X19555D1*
X21088D2*
X25241D1*
X15978Y20159D2*
X19536D1*
X21238D2*
X25389D1*
X16518Y20010D2*
X19555D1*
X21388D2*
X25539D1*
X17059Y19861D2*
X19617D1*
X21536D2*
X25687D1*
X17599Y19712D2*
X18886D1*
X21686D2*
X25837D1*
X18140Y19562D2*
X18752D1*
X21833D2*
X25987D1*
X18571Y19413D2*
X18686D1*
X21983D2*
X26134D1*
X22133Y19264D2*
X26284D1*
X22281Y19115D2*
X26432D1*
X19800Y18966D2*
X20603D1*
X22431D2*
X26582D1*
X19683Y18817D2*
X20750D1*
X24822D2*
X26732D1*
X19435Y18668D2*
X20900D1*
X24979D2*
X26761D1*
X20231Y18519D2*
X21050D1*
X25127D2*
X26761D1*
X20388Y18370D2*
X21198D1*
X25277D2*
X26761D1*
X20536Y18221D2*
X21348D1*
X25620D2*
X26761D1*
X20686Y18072D2*
X21496D1*
X25924D2*
X26761D1*
X20836Y17923D2*
X21646D1*
X26039D2*
X26761D1*
X20983Y17774D2*
X21796D1*
X26096D2*
X26761D1*
X27565D2*
X29490D1*
X21133Y17625D2*
X23925D1*
X26112D2*
X26761D1*
X27565D2*
X29492D1*
X21281Y17476D2*
X23934D1*
X26089D2*
X26761D1*
X27565D2*
X29494D1*
X21431Y17326D2*
X23982D1*
X26022D2*
X26761D1*
X27565D2*
X29497D1*
X21581Y17177D2*
X24084D1*
X24972D2*
X25125D1*
X25889D2*
X26761D1*
X27565D2*
X29499D1*
X21729Y17028D2*
X24310D1*
X24746D2*
X26761D1*
X27565D2*
X29499D1*
X22105Y16879D2*
X26753D1*
X27565D2*
X29501D1*
X22245Y16730D2*
X26603D1*
X27565D2*
X29504D1*
X22314Y16581D2*
X26453D1*
X27536D2*
X29506D1*
X22341Y16432D2*
X26306D1*
X27429D2*
X29509D1*
X22326Y16283D2*
X26156D1*
X27279D2*
X29511D1*
X22367Y16134D2*
X26008D1*
X27132D2*
X29511D1*
X22538Y15985D2*
X25858D1*
X26982D2*
X29513D1*
X22712Y15836D2*
X25708D1*
X26832D2*
X29516D1*
X22883Y15687D2*
X25560D1*
X26684D2*
X29518D1*
X23055Y15538D2*
X25410D1*
X26534D2*
X29521D1*
X23229Y15389D2*
X25263D1*
X26386D2*
X29523D1*
X23400Y15240D2*
X24851D1*
X26236D2*
X29523D1*
X23574Y15090D2*
X24684D1*
X26086D2*
X29525D1*
X23746Y14941D2*
X24601D1*
X25939D2*
X29528D1*
X23917Y14792D2*
X24565D1*
X25789D2*
X27582D1*
X24091Y14643D2*
X24570D1*
X25765D2*
X27504D1*
X24265Y14494D2*
X24613D1*
X25722D2*
X27427D1*
X24436Y14345D2*
X24708D1*
X25627D2*
X27349D1*
X24608Y14196D2*
X24908D1*
X25427D2*
X27280D1*
X24781Y14047D2*
X27270D1*
X24953Y13898D2*
X27270D1*
X25124Y13749D2*
X27270D1*
X25298Y13600D2*
X27270D1*
X25470Y13451D2*
X27273D1*
X25643Y13302D2*
X27337D1*
X28321Y14894D2*
X29544D1*
X29505Y17804D1*
X29094Y17806D1*
X28016Y17808D1*
X27869Y17806D1*
X27790D1*
X27715Y17818D1*
X27648Y17854D1*
X27595Y17911D1*
X27550Y17994D1*
Y16728D1*
X27542Y16652D1*
X27520Y16579D1*
X27484Y16512D1*
X27437Y16454D1*
X25754Y14772D1*
X25753Y14657D1*
X25738Y14582D1*
X25714Y14510D1*
X25681Y14441D1*
X25639Y14377D1*
X25589Y14320D1*
X25532Y14269D1*
X25470Y14226D1*
X25402Y14191D1*
X25330Y14165D1*
X25256Y14149D1*
X25180Y14143D1*
X25104Y14146D1*
X25029Y14159D1*
X24956Y14182D1*
X24887Y14214D1*
X24822Y14254D1*
X24764Y14303D1*
X24712Y14358D1*
X24667Y14420D1*
X24631Y14487D1*
X24604Y14558D1*
X24586Y14632D1*
X24578Y14708D1*
X24580Y14784D1*
X24592Y14860D1*
X24613Y14933D1*
X24643Y15002D1*
X24682Y15068D1*
X24730Y15128D1*
X24784Y15181D1*
X24845Y15226D1*
X24911Y15264D1*
X24982Y15292D1*
X25056Y15312D1*
X25131Y15321D1*
X25210D1*
X26775Y16887D1*
X26776Y18788D1*
X24099Y21463D1*
X23229D1*
X23221Y21332D1*
X23199Y21259D1*
X23163Y21192D1*
X23114Y21133D1*
X23055Y21085D1*
X22988Y21050D1*
X22915Y21028D1*
X22839Y21021D1*
X22721Y21033D1*
X22645Y21026D1*
X22569Y21030D1*
X22494Y21043D1*
X22421Y21065D1*
X22352Y21097D1*
X22288Y21138D1*
X22229Y21186D1*
X22177Y21242D1*
X22133Y21304D1*
X22097Y21371D1*
X22069Y21442D1*
X22052Y21516D1*
X22044Y21592D1*
X22045Y21668D1*
X22057Y21743D1*
X22078Y21816D1*
X22109Y21886D1*
X22148Y21951D1*
X22185Y21998D1*
X21125Y21999D1*
X21046Y21922D1*
X20984Y21879D1*
X20916Y21844D1*
X20814Y21812D1*
X20835Y21738D1*
X20849Y21614D1*
X20844Y21538D1*
X20829Y21463D1*
X20805Y21391D1*
X20772Y21322D1*
X20730Y21259D1*
X20680Y21201D1*
X20624Y21150D1*
X20561Y21107D1*
X20493Y21072D1*
X20421Y21047D1*
X20347Y21030D1*
X20271Y21024D1*
X20195Y21027D1*
X20120Y21040D1*
X20047Y21063D1*
X19978Y21095D1*
X19914Y21135D1*
X19855Y21184D1*
X19803Y21239D1*
X19758Y21301D1*
X19732Y21350D1*
X19692Y21400D1*
X19656Y21467D1*
X19635Y21540D1*
X19628Y21614D1*
Y22684D1*
X19635Y22759D1*
X19657Y22832D1*
X19693Y22899D1*
X19741Y22957D1*
X20111Y23327D1*
X20170Y23375D1*
X20237Y23411D1*
X20310Y23433D1*
X20384Y23441D1*
X24415D1*
X24491Y23433D1*
X24564Y23411D1*
X24631Y23375D1*
X24689Y23327D1*
X26199Y21817D1*
X27294D1*
X27312Y21862D1*
X27582Y22387D1*
X27627Y22448D1*
X27689Y22491D1*
X27764Y22513D1*
X27866Y22514D1*
X29442D1*
X29438Y22885D1*
X29086Y22886D1*
X28016D1*
X27790D1*
X27715Y22898D1*
X27648Y22934D1*
X27595Y22991D1*
X27547Y23081D1*
X27312Y23538D1*
X27288Y23612D1*
X27286Y23721D1*
Y24295D1*
X27299Y24372D1*
X27347Y24470D1*
X27582Y24927D1*
X27627Y24988D1*
X27689Y25031D1*
X27764Y25053D1*
X27866Y25054D1*
X29066D1*
X27594Y26605D1*
X27592Y26546D1*
X27594Y26478D1*
X27592Y25476D1*
X27594Y25410D1*
Y25250D1*
X27582Y25175D1*
X27546Y25108D1*
X27489Y25055D1*
X27399Y25007D1*
X26942Y24772D1*
X26868Y24748D1*
X26759Y24746D1*
X26185D1*
X26108Y24759D1*
X26010Y24807D1*
X25553Y25042D1*
X25492Y25087D1*
X25449Y25149D1*
X25428Y25224D1*
X25426Y25326D1*
Y27015D1*
X23934Y27016D1*
Y23987D1*
X23897Y23922D1*
X23858Y23910D1*
X19867Y23911D1*
X19826Y23924D1*
X19053Y24459D1*
X17037Y24453D1*
X16101Y23393D1*
X15569Y22789D1*
X15562Y20267D1*
X15726Y20224D1*
X18510Y19453D1*
X18679Y19308D1*
X18713Y19450D1*
X18743Y19520D1*
X18782Y19585D1*
X18829Y19645D1*
X18884Y19698D1*
X18945Y19744D1*
X19011Y19781D1*
X19121Y19829D1*
X19194Y19851D1*
X19267Y19858D1*
X19632D1*
X19577Y19985D1*
X19560Y20059D1*
X19552Y20135D1*
X19553Y20211D1*
X19565Y20286D1*
X19586Y20359D1*
X19617Y20429D1*
X19656Y20495D1*
X19703Y20554D1*
X19757Y20607D1*
X19818Y20653D1*
X19885Y20691D1*
X19955Y20719D1*
X20029Y20738D1*
X20104Y20748D1*
X20181D1*
X20256Y20738D1*
X20330Y20718D1*
X20400Y20689D1*
X20466Y20651D1*
X20527Y20605D1*
X20563Y20570D1*
X20649Y20572D1*
X20725Y20565D1*
X20798Y20543D1*
X20865Y20507D1*
X20923Y20459D1*
X22494Y18888D1*
X23323Y18890D1*
X24582D1*
X24657Y18882D1*
X24730Y18860D1*
X24797Y18824D1*
X24855Y18777D1*
X25409Y18223D1*
X25547Y18228D1*
X25622Y18218D1*
X25696Y18198D1*
X25766Y18169D1*
X25832Y18132D1*
X25893Y18086D1*
X25947Y18032D1*
X25994Y17972D1*
X26033Y17907D1*
X26063Y17837D1*
X26084Y17764D1*
X26097Y17639D1*
X26092Y17563D1*
X26077Y17489D1*
X26053Y17417D1*
X26020Y17348D1*
X25978Y17284D1*
X25929Y17227D1*
X25872Y17176D1*
X25809Y17133D1*
X25741Y17098D1*
X25670Y17072D1*
X25595Y17056D1*
X25519Y17050D1*
X25443Y17053D1*
X25368Y17066D1*
X25296Y17089D1*
X25226Y17121D1*
X25162Y17161D1*
X25103Y17210D1*
X25039Y17283D1*
X24950Y17169D1*
X24893Y17118D1*
X24830Y17075D1*
X24763Y17040D1*
X24691Y17015D1*
X24616Y16999D1*
X24541Y16992D1*
X24465Y16995D1*
X24390Y17009D1*
X24317Y17031D1*
X24248Y17063D1*
X24183Y17104D1*
X24124Y17152D1*
X24072Y17208D1*
X24028Y17270D1*
X23992Y17337D1*
X23965Y17408D1*
X23947Y17482D1*
X23939Y17558D1*
X23940Y17622D1*
X23920Y17643D1*
X22100Y17644D1*
X22024Y17651D1*
X21951Y17674D1*
X21884Y17709D1*
X21826Y17757D1*
X20498Y19086D1*
X19833Y19085D1*
X19814Y19027D1*
X19780Y18959D1*
X19739Y18895D1*
X19689Y18837D1*
X19632Y18786D1*
X19569Y18743D1*
X19502Y18709D1*
X19409Y18678D1*
X19511Y18589D1*
X19993D1*
X20069Y18581D1*
X20142Y18559D1*
X20209Y18523D1*
X20267Y18476D1*
X21744Y16999D1*
X21851Y16987D1*
X21924Y16967D1*
X21995Y16938D1*
X22061Y16900D1*
X22122Y16854D1*
X22176Y16801D1*
X22223Y16741D1*
X22262Y16675D1*
X22292Y16605D1*
X22312Y16532D1*
X22326Y16408D1*
X22321Y16332D1*
X22306Y16257D1*
X22284Y16192D1*
X25682Y13255D1*
X27376D1*
X27312Y13378D1*
X27288Y13452D1*
X27286Y13561D1*
Y14135D1*
X27299Y14212D1*
X27347Y14310D1*
X27582Y14767D1*
X27627Y14828D1*
X27689Y14871D1*
X27764Y14893D1*
X27866Y14894D1*
X28321D1*
D25*
X16183Y20775D3*
X17848D3*
X16183Y22425D3*
X17833D3*
X17023Y21600D3*
X17008Y22410D3*
Y20775D3*
X16183Y21600D3*
X17848D3*
D38*
X29050Y13810D3*
Y16350D3*
D40*
X30320Y13810D3*
Y16350D3*
G36*
X27790Y17200D2*
X28255D1*
Y15500D1*
X27790D1*
X27520Y16025D1*
Y16675D1*
X27790Y17200D1*
G37*
G36*
Y14660D2*
X28250D1*
Y12960D1*
X27790D1*
X27520Y13485D1*
Y14135D1*
X27790Y14660D1*
G37*
D38*
X29050Y23970D3*
G36*
X27790Y24820D2*
X28255D1*
Y23120D1*
X27790D1*
X27520Y23645D1*
Y24295D1*
X27790Y24820D1*
G37*
D42*
X30320Y23970D3*
D38*
X29050Y18890D3*
Y21430D3*
D40*
X30320Y18890D3*
Y21430D3*
G36*
X27790Y22280D2*
X28255D1*
Y20580D1*
X27790D1*
X27520Y21105D1*
Y21755D1*
X27790Y22280D1*
G37*
G36*
Y19740D2*
X28250D1*
Y18040D1*
X27790D1*
X27520Y18565D1*
Y19215D1*
X27790Y19740D1*
G37*
D44*
X21430Y26510D3*
G36*
X20580Y25250D2*
Y25715D1*
X22280D1*
Y25250D1*
X21755Y24980D1*
X21105D1*
X20580Y25250D1*
G37*
D45*
X21430Y27780D3*
D38*
X11270Y18890D3*
G36*
X12530Y18040D2*
X12065D1*
Y19740D1*
X12530D1*
X12800Y19215D1*
Y18565D1*
X12530Y18040D1*
G37*
D42*
X10000Y18890D3*
D44*
X26510Y26510D3*
G36*
X25660Y25250D2*
Y25715D1*
X27360D1*
Y25250D1*
X26835Y24980D1*
X26185D1*
X25660Y25250D1*
G37*
D45*
X26510Y27780D3*
D44*
X18890Y11270D3*
G36*
X19740Y12530D2*
Y12065D1*
X18040D1*
Y12530D1*
X18565Y12800D1*
X19215D1*
X19740Y12530D1*
G37*
D45*
X18890Y10000D3*
D44*
X16350Y26510D3*
G36*
X15500Y25250D2*
Y25715D1*
X17200D1*
Y25250D1*
X16675Y24980D1*
X16025D1*
X15500Y25250D1*
G37*
D45*
X16350Y27780D3*
D38*
X11270Y23970D3*
G36*
X12530Y23120D2*
X12065D1*
Y24820D1*
X12530D1*
X12800Y24295D1*
Y23645D1*
X12530Y23120D1*
G37*
D42*
X10000Y23970D3*
D44*
X13810Y11270D3*
G36*
X14660Y12530D2*
Y12065D1*
X12960D1*
Y12530D1*
X13485Y12800D1*
X14135D1*
X14660Y12530D1*
G37*
D45*
X13810Y10000D3*
D44*
X23970Y11270D3*
G36*
X24820Y12530D2*
Y12065D1*
X23120D1*
Y12530D1*
X23645Y12800D1*
X24295D1*
X24820Y12530D1*
G37*
D45*
X23970Y10000D3*
G36*
X23671Y15450D2*
X23862Y15480D1*
X24009Y15539D1*
X24103Y15616D1*
X24179Y15692D1*
X24243Y15804D1*
X24268Y15870D1*
X24288Y15965D1*
X24298Y16016D1*
X24304Y16098D1*
X24281Y16163D1*
X24243Y16201D1*
X24217Y16226D1*
X24205Y16290D1*
X24210Y16316D1*
X24225Y16367D1*
X24255Y16394D1*
X24174Y16493D1*
X24098Y16443D1*
X24080D1*
X24044Y16531D1*
X23989Y16544D1*
X23887Y16554D1*
X23994Y16301D1*
Y16270D1*
X23986Y16226D1*
X23963Y16216D1*
X23912Y16237D1*
X23849Y16352D1*
X23778Y16524D1*
X23727Y16498D1*
X23673Y16435D1*
X23747Y16244D1*
X23709Y16251D1*
X23671D1*
Y15450D1*
G37*
M02*
