G04 DipTrace 3.0.0.2*
G04 BottomSilk.gbr*
%MOIN*%
G04 #@! TF.FileFunction,Legend,Bot*
G04 #@! TF.Part,Single*
%ADD10C,0.009843*%
%ADD30O,0.028478X0.033987*%
%ADD61C,0.003281*%
%ADD62C,0.004374*%
%FSLAX26Y26*%
G04*
G70*
G90*
G75*
G01*
G04 BotSilk*
%LPD*%
G36*
X746044Y499912D2*
X721760Y524844D1*
X740791Y538496D1*
X745778Y532324D1*
X746044Y499912D1*
G37*
D30*
X734951Y527274D3*
X746169Y504504D2*
D10*
G02X725829Y524319I2670J23088D01*
G01*
X746696Y505421D2*
G03X744333Y529832I-38192J8623D01*
G01*
X661015Y580919D2*
D62*
X662917Y584766D1*
X665791Y586667D1*
X669615D1*
X672489Y584766D1*
X674413Y580919D1*
Y577117D1*
X673440Y573270D1*
X672489Y571369D1*
X670588Y569467D1*
X664840Y565621D1*
X662917Y563719D1*
X661966Y561774D1*
X661015Y557971D1*
Y552223D1*
X662917Y548421D1*
X665791Y546475D1*
X669615D1*
X672489Y548421D1*
X674413Y552223D1*
X656641Y586667D2*
Y546475D1*
X649942D1*
X647068Y548421D1*
X645145Y552223D1*
X644194Y556070D1*
X643243Y561774D1*
Y571369D1*
X644194Y577117D1*
X645145Y580919D1*
X647068Y584766D1*
X649942Y586667D1*
X656641D1*
X623548Y546475D2*
X631220Y586667D1*
X638869Y546475D1*
X635995Y559873D2*
X626422D1*
X601397Y581011D2*
X603299Y584858D1*
X606173Y586759D1*
X609997D1*
X612871Y584858D1*
X614795Y581011D1*
Y577209D1*
X613822Y573362D1*
X612871Y571460D1*
X610970Y569559D1*
X605222Y565712D1*
X603299Y563811D1*
X602348Y561866D1*
X601397Y558063D1*
Y552315D1*
X603299Y548513D1*
X606173Y546567D1*
X609997D1*
X612871Y548513D1*
X614795Y552315D1*
X582675Y577209D2*
X583626Y581011D1*
X585549Y584858D1*
X587450Y586759D1*
X591275D1*
X593198Y584858D1*
X595100Y581011D1*
X596072Y577209D1*
X597023Y571460D1*
Y561866D1*
X596072Y556162D1*
X595100Y552315D1*
X593198Y548513D1*
X591275Y546567D1*
X587450D1*
X585549Y548513D1*
X583626Y552315D1*
X582675Y556162D1*
X578301Y586759D2*
Y546567D1*
X566827D1*
X587229Y645798D2*
X547037Y653447D1*
X587229Y661096D1*
Y665471D2*
X547037D1*
Y672169D1*
X548982Y675043D1*
X552785Y676967D1*
X556632Y677917D1*
X562335Y678868D1*
X571930D1*
X577678Y677917D1*
X581481Y676967D1*
X585328Y675043D1*
X587229Y672169D1*
Y665471D1*
Y683242D2*
X547037D1*
Y689941D1*
X548982Y692815D1*
X552785Y694738D1*
X556632Y695689D1*
X562335Y696640D1*
X571930D1*
X577678Y695689D1*
X581481Y694738D1*
X585328Y692815D1*
X587229Y689941D1*
Y683242D1*
X576254Y606302D2*
X580057Y605351D1*
X583904Y603428D1*
X585805Y601527D1*
Y597702D1*
X583904Y595779D1*
X580057Y593878D1*
X576254Y592905D1*
X570506Y591954D1*
X560912D1*
X555208Y592905D1*
X551361Y593878D1*
X547558Y595779D1*
X545613Y597702D1*
Y601527D1*
X547558Y603428D1*
X551361Y605352D1*
X555208Y606302D1*
X560912D1*
Y601527D1*
X585805Y624074D2*
X545613D1*
X585805Y610677D1*
X545613D1*
X585805Y628448D2*
X545613D1*
Y635147D1*
X547558Y638021D1*
X551361Y639944D1*
X555208Y640895D1*
X560912Y641846D1*
X570506D1*
X576254Y640895D1*
X580057Y639944D1*
X583904Y638021D1*
X585805Y635147D1*
Y628448D1*
X518280Y733014D2*
X516357Y734916D1*
X514455Y738762D1*
X513483Y742565D1*
X512532Y748313D1*
Y757908D1*
X513483Y763612D1*
X514456Y767458D1*
X516357Y771261D1*
X518280Y773206D1*
X522105D1*
X524006Y771261D1*
X525929Y767458D1*
X526880Y763612D1*
X527831Y757908D1*
Y748313D1*
X526880Y742565D1*
X525929Y738762D1*
X524006Y734916D1*
X522105Y733014D1*
X518280D1*
X532205Y753132D2*
X543259D1*
X731121Y739797D2*
X729198Y741698D1*
X727297Y745545D1*
X726324Y749347D1*
X725373Y755095D1*
Y764690D1*
X726324Y770394D1*
X727297Y774240D1*
X729198Y778043D1*
X731121Y779989D1*
X734946D1*
X736847Y778043D1*
X738771Y774241D1*
X739721Y770394D1*
X740672Y764690D1*
Y755095D1*
X739721Y749347D1*
X738771Y745545D1*
X736847Y741698D1*
X734946Y739797D1*
X731121D1*
X753646Y742693D2*
Y777137D1*
X745046Y759937D2*
X762268D1*
X700858Y610198D2*
Y601576D1*
X698956Y598724D1*
X697011Y597751D1*
X693208Y596800D1*
X687460D1*
X683658Y597751D1*
X681712Y598724D1*
X679811Y601576D1*
Y610198D1*
X720003D1*
X679811Y592426D2*
X720003Y587628D1*
X679811Y582853D1*
X720003Y578078D1*
X679811Y573281D1*
X720003Y553608D2*
X679811D1*
X720003Y561257D1*
X679811Y568906D1*
X720003D1*
X718790Y704717D2*
X678598Y712389D1*
X718790Y720038D1*
X705393Y717164D2*
Y707591D1*
X678598Y686946D2*
X718790D1*
X678598Y700343D1*
X718790D1*
Y667251D2*
X678598Y674922D1*
X718790Y682571D1*
X705393Y679697D2*
Y670125D1*
X667374Y721755D2*
D61*
Y691611D1*
X658768D1*
X655488Y707396D2*
X649038D1*
X646882Y708855D1*
X646153Y710281D1*
X645440Y713133D1*
Y716018D1*
X646153Y718870D1*
X646882Y720329D1*
X649038Y721755D1*
X655488D1*
Y691611D1*
X650464Y707396D2*
X645440Y691611D1*
X630668D2*
X636422Y721755D1*
X642159Y691611D1*
X640003Y701659D2*
X632824D1*
X543821Y532761D2*
Y534187D1*
X543108Y537072D1*
X542395Y538498D1*
X540953Y539924D1*
X538084D1*
X536658Y538498D1*
X535945Y537072D1*
X535216Y534187D1*
Y531335D1*
X535945Y528450D1*
X537371Y524172D1*
X544551Y509813D1*
X534503D1*
X526911Y539924D2*
X529066Y538498D1*
X530509Y534187D1*
X531222Y527024D1*
Y522713D1*
X530509Y515550D1*
X529066Y511239D1*
X526911Y509813D1*
X525485D1*
X523329Y511239D1*
X521903Y515550D1*
X521174Y522713D1*
Y527024D1*
X521903Y534187D1*
X523329Y538498D1*
X525485Y539924D1*
X526911D1*
X521903Y534187D2*
X530509Y515550D1*
X517893Y534187D2*
X516450Y535646D1*
X514295Y539924D1*
Y509813D1*
X502409Y539924D2*
X509572D1*
X510285Y527024D1*
X509572Y528450D1*
X507416Y529909D1*
X505277D1*
X503122Y528450D1*
X501679Y525598D1*
X500966Y521287D1*
Y518435D1*
X501679Y514124D1*
X503122Y511239D1*
X505277Y509813D1*
X507416D1*
X509572Y511239D1*
X510285Y512698D1*
X511014Y515550D1*
X720370Y649335D2*
X729705D1*
Y619191D1*
Y634976D2*
X723968D1*
X717089Y649335D2*
Y619191D1*
X713808Y630665D2*
X705202D1*
Y633550D1*
X705915Y636435D1*
X706628Y637861D1*
X708071Y639287D1*
X710226D1*
X711652Y637861D1*
X713095Y634976D1*
X713808Y630665D1*
Y627813D1*
X713095Y623502D1*
X711652Y620650D1*
X710226Y619191D1*
X708071D1*
X706628Y620650D1*
X705202Y623502D1*
X701922Y639287D2*
X694029Y619191D1*
Y639287D2*
X701922Y619191D1*
X616642Y707732D2*
X610192D1*
X608037Y709191D1*
X607307Y710617D1*
X606594Y713469D1*
Y716354D1*
X607307Y719206D1*
X608037Y720665D1*
X610192Y722091D1*
X616642D1*
Y691947D1*
X611618Y707732D2*
X606594Y691947D1*
X602584Y714895D2*
Y716321D1*
X601871Y719206D1*
X601158Y720632D1*
X599715Y722058D1*
X596847D1*
X595421Y720632D1*
X594708Y719206D1*
X593978Y716321D1*
Y713469D1*
X594708Y710584D1*
X596134Y706306D1*
X603313Y691947D1*
X593265D1*
X676582Y618587D2*
Y648731D1*
X682319Y618587D1*
X688056Y648731D1*
Y618587D1*
X669719Y638683D2*
X671145Y637257D1*
X672588Y634372D1*
X673301Y630061D1*
Y627209D1*
X672588Y622898D1*
X671145Y620047D1*
X669719Y618587D1*
X667564D1*
X666121Y620047D1*
X664695Y622898D1*
X663966Y627209D1*
Y630061D1*
X664695Y634372D1*
X666121Y637257D1*
X667564Y638683D1*
X669719D1*
X652080Y648731D2*
Y618587D1*
Y634372D2*
X653505Y637257D1*
X654948Y638683D1*
X657104D1*
X658529Y637257D1*
X659972Y634372D1*
X660685Y630061D1*
Y627209D1*
X659972Y622898D1*
X658529Y620047D1*
X657104Y618587D1*
X654948D1*
X653505Y620047D1*
X652080Y622898D1*
X648799Y638683D2*
Y624324D1*
X648086Y620047D1*
X646643Y618587D1*
X644488D1*
X643062Y620047D1*
X640906Y624324D1*
Y638683D2*
Y618587D1*
X637625Y648731D2*
Y618587D1*
X634345Y630061D2*
X625739D1*
Y632946D1*
X626452Y635832D1*
X627165Y637257D1*
X628608Y638683D1*
X630763D1*
X632189Y637257D1*
X633632Y634372D1*
X634345Y630061D1*
Y627209D1*
X633632Y622898D1*
X632189Y620047D1*
X630763Y618587D1*
X628608D1*
X627165Y620047D1*
X625739Y622898D1*
X659092Y686107D2*
Y655963D1*
X649044Y686107D2*
Y655963D1*
X659092Y671748D2*
X649044D1*
X637157Y676059D2*
Y655963D1*
Y671748D2*
X638583Y674633D1*
X640026Y676059D1*
X642165D1*
X643607Y674633D1*
X645033Y671748D1*
X645763Y667437D1*
Y664585D1*
X645033Y660274D1*
X643607Y657422D1*
X642165Y655963D1*
X640026D1*
X638583Y657422D1*
X637157Y660274D1*
X633877Y676059D2*
Y645915D1*
Y671748D2*
X632434Y674600D1*
X631008Y676059D1*
X628853D1*
X627410Y674600D1*
X625984Y671748D1*
X625255Y667437D1*
Y664552D1*
X625984Y660274D1*
X627410Y657389D1*
X628853Y655963D1*
X631008D1*
X632434Y657389D1*
X633877Y660274D1*
X619818Y686107D2*
Y661700D1*
X619105Y657422D1*
X617663Y655963D1*
X616237D1*
X621974Y676059D2*
X616950D1*
X612956Y686107D2*
X612243Y684681D1*
X611513Y686107D1*
X612243Y687566D1*
X612956Y686107D1*
X612243Y676059D2*
Y655963D1*
X599610Y671748D2*
X601053Y674633D1*
X602496Y676059D1*
X604634D1*
X606077Y674633D1*
X607503Y671748D1*
X608232Y667437D1*
Y664585D1*
X607503Y660274D1*
X606077Y657422D1*
X604634Y655963D1*
X602496D1*
X601053Y657422D1*
X599610Y660274D1*
X619662Y641048D2*
Y642474D1*
X618949Y645359D1*
X618236Y646785D1*
X616794Y648211D1*
X613925D1*
X612499Y646785D1*
X611786Y645359D1*
X611057Y642474D1*
Y639623D1*
X611786Y636737D1*
X613212Y632460D1*
X620392Y618101D1*
X610344D1*
X606350Y620986D2*
X607063Y619527D1*
X606350Y618101D1*
X605620Y619527D1*
X606350Y620986D1*
X598029Y648211D2*
X600184Y646785D1*
X601627Y642474D1*
X602340Y635311D1*
Y631000D1*
X601627Y623838D1*
X600184Y619527D1*
X598029Y618101D1*
X596603D1*
X594447Y619527D1*
X593021Y623838D1*
X592292Y631000D1*
Y635311D1*
X593021Y642474D1*
X594447Y646785D1*
X596603Y648211D1*
X598029D1*
X593021Y642474D2*
X601627Y623838D1*
M02*
