M48
METRIC,0000.00
T01C0.254
T02C0.33
T03C1.1
%
T01
X+001838Y+002149
X+001903Y+002194
T02
X+001465Y+001732
X+001578Y+001516
X+001642Y+001250
X+002170Y+001210
X+002127Y+001720
X+001980Y+001798
X+001980Y+001888
X+001980Y+001978
X+001890Y+001978
X+001800Y+001978
X+001800Y+001888
X+001890Y+001888
X+001890Y+001798
X+001800Y+001798
X+001409Y+001981
X+001413Y+002187
X+002199Y+002244
T03
X+001635Y+002397
X+001635Y+002524
X+001889Y+002524
X+001889Y+002397
X+002397Y+002143
X+002524Y+002143
X+002524Y+001381
X+002397Y+001381
X+001127Y+001381
X+001000Y+001381
X+001000Y+001635
X+001127Y+001635
X+001127Y+001889
X+001000Y+001889
X+001000Y+002143
X+001127Y+002143
T00
M30
