M48
METRIC,0000.00
T01C0.33
T02C1.1
%
T01
X+001694Y+001978
X+001784Y+001978
X+001874Y+001978
X+001874Y+001888
X+001784Y+001888
X+001694Y+001888
X+001694Y+001798
X+001784Y+001798
X+001874Y+001798
X+002021Y+001757
X+002274Y+001631
X+001654Y+001638
X+001479Y+001821
X+001481Y+001957
X+001466Y+002157
X+001417Y+002278
X+001647Y+002184
X+001734Y+002177
X+002099Y+002244
X+001524Y+001361
T02
X+001635Y+002397
X+001635Y+002524
X+001889Y+002524
X+001889Y+002397
X+002397Y+002143
X+002524Y+002143
X+002524Y+001381
X+002397Y+001381
X+001127Y+001381
X+001000Y+001381
X+001000Y+001635
X+001127Y+001635
X+001127Y+001889
X+001000Y+001889
X+001000Y+002143
X+001127Y+002143
T00
M30
