M48
METRIC,0000.00
T01C0.254
T02C0.33
T03C1.1
%
T01
X+001730Y+002149
X+001790Y+002170
T02
X+001529Y+001726
X+001694Y+001798
X+001694Y+001888
X+001694Y+001978
X+001784Y+001978
X+001874Y+001978
X+001874Y+001888
X+001784Y+001888
X+001784Y+001798
X+001874Y+001798
X+002021Y+001720
X+002266Y+001626
X+002099Y+002244
X+001413Y+002187
X+001321Y+001981
X+001620Y+001529
X+001612Y+001282
T03
X+001635Y+002397
X+001635Y+002524
X+001889Y+002524
X+001889Y+002397
X+002397Y+002143
X+002524Y+002143
X+002524Y+001381
X+002397Y+001381
X+001127Y+001381
X+001000Y+001381
X+001000Y+001635
X+001127Y+001635
X+001127Y+001889
X+001000Y+001889
X+001000Y+002143
X+001127Y+002143
T00
M30
