G04 DipTrace 2.4.0.2*
%INDRV2667.gbo*%
%MOMM*%
%ADD10C,0.25*%
%ADD33C,0.165*%
%ADD41O,0.723X0.863*%
%ADD65C,0.111*%
%FSLAX53Y53*%
G04*
G71*
G90*
G75*
G01*
%LNBotSilk*%
%LPD*%
G36*
X16083Y18565D2*
X15467Y19199D1*
X15950Y19545D1*
X16077Y19389D1*
X16083Y18565D1*
G37*
D41*
X15802Y19260D3*
X16087Y18682D2*
D10*
G02X15570Y19185I68J586D01*
G01*
X16100Y18705D2*
G03X16040Y19325I-970J219D01*
G01*
X21115Y14244D2*
D65*
X21164Y14293D1*
X21261Y14342D1*
X21358Y14366D1*
X21504Y14390D1*
X21748D1*
X21893Y14366D1*
X21990Y14342D1*
X22087Y14293D1*
X22136Y14244D1*
Y14147D1*
X22087Y14099D1*
X21990Y14050D1*
X21893Y14026D1*
X21748Y14002D1*
X21504D1*
X21358Y14026D1*
X21261Y14050D1*
X21164Y14099D1*
X21115Y14147D1*
Y14244D1*
Y13891D2*
X21844D1*
X21990Y13867D1*
X22087Y13818D1*
X22136Y13745D1*
Y13696D1*
X22087Y13623D1*
X21990Y13575D1*
X21844Y13550D1*
X21115D1*
Y13269D2*
X22136D1*
X21115Y13439D2*
Y13099D1*
X21189Y12769D2*
X22064D1*
X21627Y12988D2*
Y12550D1*
X23358Y18171D2*
D33*
Y19703D1*
X23650Y18171D1*
X23941Y19703D1*
Y18171D1*
X23192Y19703D2*
X23155Y19630D1*
X23118Y19703D1*
X23155Y19777D1*
X23192Y19703D1*
X23155Y19192D2*
Y18171D1*
X22952Y19192D2*
Y18171D1*
Y18901D2*
X22842Y19120D1*
X22769Y19192D1*
X22660D1*
X22587Y19120D1*
X22551Y18901D1*
Y18171D1*
X22384Y19703D2*
X22348Y19630D1*
X22311Y19703D1*
X22348Y19777D1*
X22384Y19703D1*
X22348Y19192D2*
Y18171D1*
X20999Y19703D2*
X21472D1*
Y18171D1*
X20999D1*
X21472Y18973D2*
X21181D1*
X20832Y19703D2*
Y18171D1*
X20395D1*
X19904Y17158D2*
X20379D1*
Y15627D1*
Y16429D2*
X20087D1*
X19738Y17158D2*
Y15627D1*
X19571Y16210D2*
X19134D1*
Y16356D1*
X19170Y16503D1*
X19206Y16575D1*
X19280Y16648D1*
X19389D1*
X19462Y16575D1*
X19535Y16429D1*
X19571Y16210D1*
Y16065D1*
X19535Y15846D1*
X19462Y15701D1*
X19389Y15627D1*
X19280D1*
X19206Y15701D1*
X19134Y15846D1*
X18967Y16648D2*
X18566Y15627D1*
Y16648D2*
X18967Y15627D1*
X17145D2*
Y17158D1*
X17436Y15627D1*
X17728Y17158D1*
Y15627D1*
X16796Y16648D2*
X16869Y16575D1*
X16942Y16429D1*
X16978Y16210D1*
Y16065D1*
X16942Y15846D1*
X16869Y15701D1*
X16796Y15627D1*
X16687D1*
X16613Y15701D1*
X16541Y15846D1*
X16504Y16065D1*
Y16210D1*
X16541Y16429D1*
X16613Y16575D1*
X16687Y16648D1*
X16796D1*
X15900Y17158D2*
Y15627D1*
Y16429D2*
X15973Y16575D1*
X16046Y16648D1*
X16155D1*
X16228Y16575D1*
X16301Y16429D1*
X16337Y16210D1*
Y16065D1*
X16301Y15846D1*
X16228Y15701D1*
X16155Y15627D1*
X16046D1*
X15973Y15701D1*
X15900Y15846D1*
X15733Y16648D2*
Y15918D1*
X15697Y15701D1*
X15624Y15627D1*
X15514D1*
X15442Y15701D1*
X15332Y15918D1*
Y16648D2*
Y15627D1*
X15166Y17158D2*
Y15627D1*
X14999Y16210D2*
X14562D1*
Y16356D1*
X14598Y16503D1*
X14634Y16575D1*
X14708Y16648D1*
X14817D1*
X14890Y16575D1*
X14963Y16429D1*
X14999Y16210D1*
Y16065D1*
X14963Y15846D1*
X14890Y15701D1*
X14817Y15627D1*
X14708D1*
X14634Y15701D1*
X14562Y15846D1*
X20219Y13891D2*
X19892D1*
X19782Y13965D1*
X19745Y14038D1*
X19709Y14182D1*
Y14329D1*
X19745Y14474D1*
X19782Y14548D1*
X19892Y14620D1*
X20219D1*
Y13089D1*
X19964Y13891D2*
X19709Y13089D1*
X19323Y14619D2*
X19433Y14546D1*
X19506Y14327D1*
X19542Y13963D1*
Y13744D1*
X19506Y13381D1*
X19433Y13162D1*
X19323Y13089D1*
X19251D1*
X19141Y13162D1*
X19069Y13381D1*
X19032Y13744D1*
Y13963D1*
X19069Y14327D1*
X19141Y14546D1*
X19251Y14619D1*
X19323D1*
X19069Y14327D2*
X19506Y13381D1*
X18829Y13236D2*
X18865Y13162D1*
X18829Y13089D1*
X18792Y13162D1*
X18829Y13236D1*
X18261Y13089D2*
Y14619D1*
X18625Y13600D1*
X18079D1*
X21138Y21854D2*
D65*
X21186Y21903D1*
X21284Y21951D1*
X21381Y21976D1*
X21527Y22000D1*
X21770D1*
X21915Y21976D1*
X22013Y21951D1*
X22109Y21903D1*
X22159Y21854D1*
Y21757D1*
X22109Y21709D1*
X22013Y21660D1*
X21915Y21636D1*
X21770Y21611D1*
X21527D1*
X21381Y21636D1*
X21284Y21660D1*
X21186Y21709D1*
X21138Y21757D1*
Y21854D1*
Y21500D2*
X21867D1*
X22013Y21476D1*
X22109Y21427D1*
X22159Y21354D1*
Y21306D1*
X22109Y21233D1*
X22013Y21184D1*
X21867Y21160D1*
X21138D1*
Y20879D2*
X22159D1*
X21138Y21049D2*
Y20709D1*
X21649Y20597D2*
Y20317D1*
X20357Y12567D2*
D33*
X20831D1*
Y11036D1*
Y11838D2*
X20540D1*
X20153Y12057D2*
X19935Y11036D1*
X20007Y10744D1*
X20081Y10598D1*
X20153Y10525D1*
X20190D1*
X19716Y12057D2*
X19935Y11036D1*
X19549Y12567D2*
Y11036D1*
Y11838D2*
X19476Y11984D1*
X19404Y12057D1*
X19294D1*
X19222Y11984D1*
X19148Y11838D1*
X19112Y11619D1*
Y11474D1*
X19148Y11255D1*
X19222Y11110D1*
X19294Y11036D1*
X19404D1*
X19476Y11110D1*
X19549Y11255D1*
X18946Y11619D2*
X18508D1*
Y11765D1*
X18545Y11912D1*
X18581Y11984D1*
X18654Y12057D1*
X18764D1*
X18836Y11984D1*
X18909Y11838D1*
X18946Y11619D1*
Y11474D1*
X18909Y11255D1*
X18836Y11110D1*
X18764Y11036D1*
X18654D1*
X18581Y11110D1*
X18508Y11255D1*
X18342Y12057D2*
Y11036D1*
Y11619D2*
X18305Y11838D1*
X18232Y11984D1*
X18159Y12057D1*
X18049D1*
X17211Y12567D2*
Y11036D1*
X16774D1*
X16170Y12057D2*
Y11036D1*
Y11838D2*
X16242Y11984D1*
X16315Y12057D1*
X16424D1*
X16497Y11984D1*
X16570Y11838D1*
X16607Y11619D1*
Y11474D1*
X16570Y11255D1*
X16497Y11110D1*
X16424Y11036D1*
X16315D1*
X16242Y11110D1*
X16170Y11255D1*
X16003Y12567D2*
Y11036D1*
Y11838D2*
X15930Y11984D1*
X15857Y12057D1*
X15748D1*
X15675Y11984D1*
X15602Y11838D1*
X15566Y11619D1*
Y11474D1*
X15602Y11255D1*
X15675Y11110D1*
X15748Y11036D1*
X15857D1*
X15930Y11110D1*
X16003Y11255D1*
X14998Y11838D2*
X15035Y11984D1*
X15144Y12057D1*
X15254D1*
X15363Y11984D1*
X15399Y11838D1*
X15363Y11693D1*
X15290Y11619D1*
X15108Y11546D1*
X15035Y11474D1*
X14998Y11327D1*
Y11255D1*
X15035Y11110D1*
X15144Y11036D1*
X15254D1*
X15363Y11110D1*
X15399Y11255D1*
X14160Y12567D2*
Y11036D1*
X13993Y12057D2*
Y11036D1*
Y11765D2*
X13883Y11984D1*
X13810Y12057D1*
X13701D1*
X13628Y11984D1*
X13592Y11765D1*
Y11036D1*
X12987Y11838D2*
X13061Y11984D1*
X13134Y12057D1*
X13243D1*
X13316Y11984D1*
X13388Y11838D1*
X13425Y11619D1*
Y11474D1*
X13388Y11255D1*
X13316Y11110D1*
X13243Y11036D1*
X13134D1*
X13061Y11110D1*
X12987Y11255D1*
X12784Y11182D2*
X12821Y11108D1*
X12784Y11036D1*
X12747Y11108D1*
X12784Y11182D1*
X19831Y22139D2*
D65*
Y21119D1*
X19380Y22139D2*
Y21119D1*
X19720Y22139D1*
Y21119D1*
X19269Y21628D2*
X18988D1*
X16626Y22185D2*
Y21164D1*
X16175Y22185D2*
Y21164D1*
X16515Y22185D1*
Y21164D1*
X15845Y22111D2*
Y21236D1*
X16064Y21673D2*
X15626D1*
X16656Y14334D2*
D33*
Y14406D1*
X16620Y14553D1*
X16584Y14625D1*
X16510Y14698D1*
X16365D1*
X16292Y14625D1*
X16256Y14553D1*
X16219Y14406D1*
Y14261D1*
X16256Y14115D1*
X16328Y13897D1*
X16693Y13168D1*
X16183D1*
X15797Y14698D2*
X15906Y14625D1*
X15980Y14406D1*
X16016Y14042D1*
Y13823D1*
X15980Y13459D1*
X15906Y13240D1*
X15797Y13168D1*
X15725D1*
X15615Y13240D1*
X15543Y13459D1*
X15506Y13823D1*
Y14042D1*
X15543Y14406D1*
X15615Y14625D1*
X15725Y14698D1*
X15797D1*
X15543Y14406D2*
X15980Y13459D1*
X15339Y14406D2*
X15266Y14480D1*
X15156Y14698D1*
Y13168D1*
X14552Y14698D2*
X14916D1*
X14952Y14042D1*
X14916Y14115D1*
X14807Y14189D1*
X14698D1*
X14589Y14115D1*
X14515Y13970D1*
X14479Y13751D1*
Y13606D1*
X14515Y13387D1*
X14589Y13240D1*
X14698Y13168D1*
X14807D1*
X14916Y13240D1*
X14952Y13314D1*
X14989Y13459D1*
X13966Y20356D2*
D65*
X12945Y20551D1*
X13966Y20745D1*
Y20856D2*
X12945D1*
Y21026D1*
X12994Y21099D1*
X13091Y21148D1*
X13189Y21172D1*
X13334Y21196D1*
X13577D1*
X13723Y21172D1*
X13820Y21148D1*
X13918Y21099D1*
X13966Y21026D1*
Y20856D1*
Y21307D2*
X12945D1*
Y21478D1*
X12994Y21551D1*
X13091Y21599D1*
X13189Y21624D1*
X13334Y21648D1*
X13577D1*
X13723Y21624D1*
X13820Y21599D1*
X13918Y21551D1*
X13966Y21478D1*
Y21307D1*
X13729Y18540D2*
X13826Y18515D1*
X13923Y18467D1*
X13972Y18418D1*
Y18321D1*
X13923Y18272D1*
X13826Y18224D1*
X13729Y18199D1*
X13583Y18175D1*
X13339D1*
X13194Y18199D1*
X13097Y18224D1*
X13000Y18272D1*
X12951Y18321D1*
Y18418D1*
X13000Y18467D1*
X13097Y18515D1*
X13194Y18540D1*
X13339D1*
Y18418D1*
X13972Y18991D2*
X12951D1*
X13972Y18651D1*
X12951D1*
X13972Y19102D2*
X12951D1*
Y19272D1*
X13000Y19345D1*
X13097Y19394D1*
X13194Y19418D1*
X13339Y19442D1*
X13583D1*
X13729Y19418D1*
X13826Y19394D1*
X13923Y19345D1*
X13972Y19272D1*
Y19102D1*
X13806Y16233D2*
X13904Y16185D1*
X13952Y16112D1*
Y16015D1*
X13904Y15942D1*
X13806Y15893D1*
X13709D1*
X13612Y15918D1*
X13563Y15942D1*
X13515Y15990D1*
X13417Y16136D1*
X13369Y16185D1*
X13320Y16209D1*
X13223Y16233D1*
X13077D1*
X12981Y16185D1*
X12931Y16112D1*
Y16015D1*
X12981Y15942D1*
X13077Y15893D1*
X13709Y16709D2*
X13806Y16685D1*
X13904Y16636D1*
X13952Y16588D1*
Y16490D1*
X13904Y16442D1*
X13806Y16393D1*
X13709Y16369D1*
X13563Y16344D1*
X13320D1*
X13175Y16369D1*
X13077Y16393D1*
X12981Y16442D1*
X12931Y16490D1*
Y16588D1*
X12981Y16636D1*
X13077Y16685D1*
X13175Y16709D1*
X13952Y16820D2*
X12931D1*
Y17111D1*
X13842Y13640D2*
X13940Y13591D1*
X13988Y13518D1*
Y13421D1*
X13940Y13348D1*
X13842Y13299D1*
X13746D1*
X13648Y13324D1*
X13600Y13348D1*
X13552Y13397D1*
X13454Y13543D1*
X13406Y13591D1*
X13356Y13616D1*
X13260Y13640D1*
X13114D1*
X13017Y13591D1*
X12968Y13518D1*
Y13421D1*
X13017Y13348D1*
X13114Y13299D1*
X13988Y13751D2*
X12968D1*
Y13921D1*
X13017Y13994D1*
X13114Y14043D1*
X13211Y14067D1*
X13356Y14091D1*
X13600D1*
X13746Y14067D1*
X13842Y14043D1*
X13940Y13994D1*
X13988Y13921D1*
Y13751D1*
X12968Y14591D2*
X13988Y14396D1*
X12968Y14202D1*
X13308Y14275D2*
Y14518D1*
M02*
