G04 DipTrace 2.4.0.2*
%INDRV2667.gtl*%
%MOMM*%
%ADD13C,0.305*%
%ADD14C,0.28*%
%ADD15C,0.254*%
%ADD16C,0.4*%
%ADD18R,1.5X1.3*%
%ADD19R,1.8X1.6*%
%ADD20R,0.7X0.9*%
%ADD21R,0.9X0.7*%
%ADD22R,1.7X1.6*%
%ADD24R,1.7X2.032*%
%ADD26R,1.6X1.7*%
%ADD27R,2.032X1.7*%
%ADD28R,2.0X1.7*%
%ADD31R,0.5X0.4*%
%ADD36O,1.0X0.28*%
%ADD37O,0.28X1.0*%
%ADD38C,0.711*%
%ADD39C,0.711*%
%ADD40R,2.7X2.7*%
%ADD42C,0.457*%
%FSLAX53Y53*%
G04*
G71*
G90*
G75*
G01*
%LNTop*%
%LPD*%
X14132Y18628D2*
D13*
X15631D1*
X15702Y18557D1*
X16846Y18876D2*
D14*
X16461D1*
D13*
X16021D1*
X15702Y18557D1*
X15823Y21308D2*
X15402D1*
X14786Y21924D1*
X14125D1*
X13618Y21417D1*
X16846Y18376D2*
D14*
Y17876D1*
X15702Y17257D2*
D13*
X16227D1*
X16541Y17571D1*
X16906Y17936D1*
D14*
X16846Y17876D1*
X16541Y17571D2*
D13*
X17702D1*
D14*
Y17459D1*
Y17020D1*
X17896Y16826D1*
X14812Y15662D2*
D13*
Y16367D1*
X15702Y17257D1*
X14812Y15662D2*
X15259D1*
X15774Y15146D1*
X16303Y14617D1*
X14812Y15662D2*
X14498D1*
X13095Y17065D1*
Y18747D1*
X12952Y18890D1*
X11270D1*
X14127Y21875D2*
X14125Y21924D1*
X22213Y14650D2*
Y12616D1*
X21696Y12099D1*
X15784Y15156D2*
X15774Y15146D1*
X22168Y21806D2*
Y22259D1*
X21987Y22440D1*
X18896Y18876D2*
Y18653D1*
X17702Y17459D1*
X19396Y20926D2*
D14*
X19470D1*
Y21464D1*
D13*
X19866Y21860D1*
Y22384D1*
X19366Y22883D1*
X17575D1*
X17084Y22392D1*
X19896Y20926D2*
D14*
Y21188D1*
D13*
X20473Y21765D1*
X20897D1*
Y21606D1*
X21028Y21476D1*
X15784Y22392D2*
Y23404D1*
X16350Y23970D1*
X21028Y22776D2*
Y22967D1*
X20826D1*
X20919Y23060D1*
X19800D1*
X18890Y23970D1*
X20946Y18876D2*
D15*
X20748Y18844D1*
D13*
X21537Y18816D1*
D16*
X24000Y17136D1*
Y13780D1*
X23970Y13810D1*
X20946Y19376D2*
D13*
X21604Y19423D1*
D16*
X23377Y19438D1*
X23866Y21326D1*
X23970Y21430D1*
X20946Y19876D2*
D14*
X21072D1*
D13*
X21767Y20571D1*
X22233D1*
X22168Y20506D1*
X12452Y15036D2*
Y15168D1*
X11270Y16350D1*
X18896Y20926D2*
D14*
Y21578D1*
D13*
X19034D1*
Y21938D1*
X12452Y14336D2*
X11796D1*
X11270Y13810D1*
X18396Y20926D2*
D14*
X18311D1*
Y21464D1*
D13*
X18341Y21493D1*
X18376D1*
X18396Y16826D2*
D14*
Y16451D1*
D13*
Y16093D1*
X19077Y15413D1*
X18896Y16826D2*
D14*
Y16441D1*
D13*
Y15908D1*
X19163Y15641D1*
Y15499D1*
X19077Y15413D1*
X20946Y18376D2*
D14*
Y17876D1*
Y17851D1*
D13*
X21213D1*
Y17550D1*
X22213Y16550D1*
X19896Y16826D2*
D14*
X20456D1*
D13*
Y17093D1*
X21670D1*
X22213Y16550D1*
X14132Y17328D2*
X14644D1*
X14649Y17324D1*
X21268Y17205D2*
X21213Y17550D1*
X19077Y12463D2*
X17158D1*
X16303Y13317D1*
X19077Y12463D2*
X16417D1*
X15211D1*
X14812Y12862D1*
X13452Y14336D2*
Y14221D1*
X14812Y12862D1*
X13452Y15036D2*
Y14336D1*
X16846Y19376D2*
D14*
X16461D1*
D13*
X16287D1*
X16019Y19643D1*
X14091D1*
X13618Y20117D1*
X16417Y12505D2*
Y12463D1*
X14094Y19808D2*
X14091Y19643D1*
X16846Y19876D2*
D14*
X16688D1*
D13*
X16421Y20143D1*
X15267D1*
X14786Y20624D1*
X17896Y20926D2*
D14*
X17506D1*
D13*
X17123Y21308D1*
D42*
X18376Y21493D3*
X19034Y21938D3*
D39*
X14649Y17324D3*
X21268Y17205D3*
X14127Y21875D3*
X16417Y12505D3*
X14094Y19808D3*
X21696Y12099D3*
X15784Y15156D3*
X21987Y22440D3*
D18*
X22213Y16550D3*
Y14650D3*
D19*
X14812Y12862D3*
Y15662D3*
D20*
X14786Y20624D3*
Y21924D3*
D21*
X17123Y21308D3*
X15823D3*
X15784Y22392D3*
X17084D3*
D20*
X21028Y22776D3*
Y21476D3*
X13618Y20117D3*
Y21417D3*
X16303Y13317D3*
Y14617D3*
D22*
X16350Y23970D3*
X18890D3*
D24*
X16350Y25240D3*
X18890D3*
D26*
X11270Y13810D3*
Y16350D3*
D27*
X10000Y13810D3*
Y16350D3*
D26*
X11270Y21430D3*
Y18890D3*
D27*
X10000Y21430D3*
Y18890D3*
D26*
X23970Y21430D3*
D28*
X25240D3*
D26*
X23970Y13810D3*
D28*
X25240D3*
G36*
X20247Y14688D2*
X19652Y15268D1*
X18502D1*
X17907Y14688D1*
X16932D1*
Y15588D1*
X17682Y16138D1*
X19654D1*
X20472D1*
X21222Y15588D1*
Y14688D1*
X20247D1*
G37*
G36*
X17907Y13188D2*
X18502Y12608D1*
X19652D1*
X20247Y13188D1*
X21222D1*
Y12288D1*
X20472Y11738D1*
X18499D1*
X17682D1*
X16932Y12288D1*
Y13188D1*
X17907D1*
G37*
D20*
X14132Y18628D3*
Y17328D3*
X15702Y17257D3*
Y18557D3*
X22168Y20506D3*
Y21806D3*
D31*
X13452Y14336D3*
Y15036D3*
X12452D3*
Y14336D3*
D36*
X16846Y19876D3*
Y19376D3*
Y18876D3*
Y18376D3*
Y17876D3*
D37*
X17896Y16826D3*
X18396D3*
X18896D3*
X19396D3*
X19896D3*
D36*
X20946Y17876D3*
Y18376D3*
Y18876D3*
Y19376D3*
Y19876D3*
D37*
X19896Y20926D3*
X19396D3*
X18896D3*
X18396D3*
X17896D3*
D38*
X17996Y19776D3*
X18896D3*
X19796D3*
X17996Y18876D3*
X18896D3*
X19796D3*
X17996Y17976D3*
X18896D3*
X19796D3*
D40*
X18896Y18876D3*
G36*
X13599Y22935D2*
X13408Y22964D1*
X13261Y23024D1*
X13167Y23100D1*
X13091Y23176D1*
X13027Y23289D1*
X13002Y23354D1*
X12982Y23449D1*
X12972Y23500D1*
X12966Y23583D1*
X12989Y23647D1*
X13027Y23685D1*
X13053Y23711D1*
X13065Y23775D1*
X13060Y23800D1*
X13045Y23851D1*
X13015Y23878D1*
X13096Y23978D1*
X13172Y23927D1*
X13190D1*
X13226Y24016D1*
X13281Y24028D1*
X13383Y24039D1*
X13276Y23786D1*
Y23754D1*
X13284Y23711D1*
X13307Y23701D1*
X13358Y23721D1*
X13421Y23837D1*
X13492Y24008D1*
X13543Y23983D1*
X13597Y23919D1*
X13523Y23729D1*
X13561Y23735D1*
X13599D1*
Y22935D1*
G37*
M02*
