G04 DipTrace 2.4.0.2*
%INDRV2667.gbs*%
%MOMM*%
%ADD53R,2.05X1.75*%
%ADD54R,2.082X1.75*%
%ADD55R,1.65X1.75*%
%ADD57R,1.75X2.082*%
%ADD59R,1.75X1.65*%
%FSLAX53Y53*%
G04*
G71*
G90*
G75*
G01*
%LNBotMask*%
%LPD*%
D59*
X16350Y23970D3*
X18890D3*
G36*
X18015Y22695D2*
Y23200D1*
X19765D1*
Y22695D1*
X19221Y22415D1*
X18559D1*
X18015Y22695D1*
G37*
G36*
X15475D2*
Y23200D1*
X17225D1*
Y22695D1*
X16681Y22415D1*
X16019D1*
X15475Y22695D1*
G37*
D57*
X16350Y25240D3*
X18890D3*
D55*
X11270Y13810D3*
Y16350D3*
G36*
X12545Y15475D2*
X12040D1*
Y17225D1*
X12545D1*
X12825Y16681D1*
Y16019D1*
X12545Y15475D1*
G37*
G36*
Y12935D2*
X12040D1*
Y14685D1*
X12545D1*
X12825Y14141D1*
Y13479D1*
X12545Y12935D1*
G37*
D54*
X10000Y13810D3*
Y16350D3*
D55*
X11270Y21430D3*
Y18890D3*
D54*
X10000Y21430D3*
Y18890D3*
G36*
X12545Y18015D2*
X12040D1*
Y19765D1*
X12545D1*
X12825Y19221D1*
Y18559D1*
X12545Y18015D1*
G37*
G36*
Y20555D2*
X12045D1*
Y22305D1*
X12545D1*
X12825Y21761D1*
Y21099D1*
X12545Y20555D1*
G37*
D55*
X23970Y21430D3*
G36*
X22695Y22305D2*
X23200D1*
Y20555D1*
X22695D1*
X22415Y21099D1*
Y21761D1*
X22695Y22305D1*
G37*
D53*
X25240Y21430D3*
D55*
X23970Y13810D3*
G36*
X22695Y14685D2*
X23200D1*
Y12935D1*
X22695D1*
X22415Y13479D1*
Y14141D1*
X22695Y14685D1*
G37*
D53*
X25240Y13810D3*
G36*
X16082Y18562D2*
X16272Y18591D1*
X16420Y18651D1*
X16514Y18727D1*
X16590Y18803D1*
X16653Y18916D1*
X16679Y18981D1*
X16699Y19076D1*
X16709Y19127D1*
X16714Y19209D1*
X16691Y19274D1*
X16653Y19312D1*
X16628Y19338D1*
X16615Y19402D1*
X16620Y19427D1*
X16635Y19478D1*
X16666Y19505D1*
X16584Y19604D1*
X16508Y19554D1*
X16490D1*
X16454Y19643D1*
X16399Y19655D1*
X16298Y19665D1*
X16404Y19413D1*
Y19381D1*
X16397Y19338D1*
X16374Y19328D1*
X16323Y19348D1*
X16260Y19463D1*
X16189Y19635D1*
X16138Y19609D1*
X16084Y19546D1*
X16158Y19355D1*
X16120Y19362D1*
X16082D1*
Y18562D1*
G37*
M02*
