G04 DipTrace 2.4.0.2*
%INpulse.gbs*%
%MOMM*%
%ADD43R,2.05X1.75*%
%ADD44R,1.65X1.75*%
%ADD45R,1.75X2.082*%
%ADD46R,1.75X1.65*%
%FSLAX53Y53*%
G04*
G71*
G90*
G75*
G01*
%LNBotMask*%
%LPD*%
D46*
X13810Y11270D3*
X16350D3*
X18890D3*
X21430D3*
G36*
X17225Y12545D2*
Y12040D1*
X15475D1*
Y12545D1*
X16019Y12825D1*
X16681D1*
X17225Y12545D1*
G37*
G36*
X14685D2*
Y12040D1*
X12935D1*
Y12545D1*
X13479Y12825D1*
X14141D1*
X14685Y12545D1*
G37*
G36*
X22305D2*
Y12040D1*
X20555D1*
Y12545D1*
X21099Y12825D1*
X21761D1*
X22305Y12545D1*
G37*
G36*
X19765D2*
Y12040D1*
X18015D1*
Y12545D1*
X18559Y12825D1*
X19221D1*
X19765Y12545D1*
G37*
D45*
X13810Y10000D3*
X16350D3*
X18890D3*
X21430D3*
D44*
X23970Y13810D3*
G36*
X22695Y14685D2*
X23200D1*
Y12935D1*
X22695D1*
X22415Y13479D1*
Y14141D1*
X22695Y14685D1*
G37*
D43*
X25240Y13810D3*
D44*
X11270D3*
G36*
X12545Y12935D2*
X12040D1*
Y14685D1*
X12545D1*
X12825Y14141D1*
Y13479D1*
X12545Y12935D1*
G37*
D43*
X10000Y13810D3*
M02*
