G04 DipTrace 2.4.0.2*
%INpulse.gtl*%
%MOMM*%
%ADD13C,0.305*%
%ADD14C,0.275*%
%ADD19R,0.35X0.5*%
%ADD20R,1.35X1.0*%
%ADD21R,1.0X1.1*%
%ADD22R,0.9X0.7*%
%ADD23R,1.1X1.0*%
%ADD25R,0.4X0.5*%
%ADD26R,0.7X0.9*%
%ADD28R,1.2X0.737*%
%ADD29R,1.7X1.6*%
%ADD30R,1.7X2.032*%
%ADD31R,1.6X1.7*%
%ADD32R,2.0X1.7*%
%ADD33C,0.711*%
%FSLAX53Y53*%
G04*
G71*
G90*
G75*
G01*
%LNTop*%
%LPD*%
X22450Y16160D2*
D13*
X23970Y14640D1*
Y13810D1*
X18556Y16000D2*
Y15883D1*
X19876Y14563D1*
Y14467D1*
X15324Y14435D2*
D14*
X15172Y14577D1*
D13*
X14164D1*
X13772Y14969D1*
X13386Y16301D2*
Y15355D1*
X13772Y14969D1*
X11270Y13810D2*
X11866D1*
X12658Y14602D1*
X13405D1*
X13772Y14969D1*
X16956Y16000D2*
Y15147D1*
X16835Y15026D1*
Y15214D1*
X14853D1*
X14302Y14662D1*
D14*
X15172Y14577D1*
X15356Y18150D2*
D13*
X16156D1*
X16956D1*
Y17866D1*
X16559D1*
X17756Y16668D1*
Y16000D1*
Y15404D1*
X18135Y15026D1*
Y14616D1*
X19018Y13733D1*
Y13570D1*
X19089Y13499D1*
X15324Y13569D2*
D14*
Y13280D1*
D13*
X15744Y12495D1*
X15908Y11712D1*
X16350Y11270D1*
X15356Y18150D2*
Y18504D1*
X15154Y18705D1*
X14091D1*
X13386Y18001D1*
X15786Y17825D2*
X15745Y17866D1*
X16559D1*
X20630Y13373D2*
X20703D1*
X19568Y12237D1*
Y11948D1*
X18890Y11270D1*
X18556Y18150D2*
Y17804D1*
X18596Y17764D1*
X21330Y13373D2*
Y11370D1*
X21430Y11270D1*
X17756Y18150D2*
Y17774D1*
X17718Y17735D1*
X15574Y14002D2*
D14*
X14841D1*
D13*
X14116Y13451D1*
X13772Y13469D1*
X15356Y16000D2*
X16156D1*
X15824Y14435D2*
D14*
X16034D1*
D13*
X16799Y13669D1*
X17219D1*
X17389Y13499D1*
X15824Y13569D2*
D14*
X16815D1*
D13*
X17137Y13247D1*
X17389Y13499D1*
X15356Y16000D2*
Y16945D1*
X14901Y17400D1*
X17389Y13499D2*
Y13591D1*
X16819Y14162D1*
X20954Y16694D2*
X21685D1*
X22450Y17460D1*
Y18054D1*
X22535Y18139D1*
X21330Y14373D2*
X21308D1*
Y15443D1*
X21113D1*
X20954Y15602D1*
Y17787D2*
X20381D1*
X20031Y17436D1*
Y15362D1*
X20630Y14763D1*
Y14373D1*
D33*
X18596Y17764D3*
X17718Y17735D3*
X19876Y14467D3*
X14901Y17400D3*
X15786Y17825D3*
X16819Y14162D3*
X22535Y18139D3*
D14*
X15324Y13569D3*
Y14435D3*
X15824D3*
Y13569D3*
X15574Y14002D3*
D19*
X19356Y18150D3*
X18556D3*
X17756D3*
X16956D3*
X16156D3*
X15356D3*
X14556D3*
Y16000D3*
X15356D3*
X16156D3*
X16956D3*
X17756D3*
X18556D3*
X19356D3*
D20*
X13772Y13469D3*
Y14969D3*
D21*
X13386Y16301D3*
Y18001D3*
D22*
X16835Y15026D3*
X18135D3*
D23*
X17389Y13499D3*
X19089D3*
D25*
X21330Y14373D3*
X20630D3*
Y13373D3*
X21330D3*
D26*
X22450Y16160D3*
Y17460D3*
G36*
X21554Y17758D2*
Y17318D1*
X20354D1*
Y17758D1*
X20414Y17918D1*
X20554Y18118D1*
X20754Y18218D1*
X20954Y18256D1*
X21154Y18218D1*
X21354Y18118D1*
X21494Y17918D1*
X21554Y17758D1*
G37*
G36*
X20354Y15631D2*
Y16071D1*
X21554D1*
Y15631D1*
X21494Y15471D1*
X21354Y15271D1*
X21154Y15171D1*
X20954Y15133D1*
X20754Y15171D1*
X20554Y15271D1*
X20414Y15471D1*
X20354Y15631D1*
G37*
D28*
X20954Y16694D3*
D29*
X13810Y11270D3*
X16350D3*
X18890D3*
X21430D3*
D30*
X13810Y10000D3*
X16350D3*
X18890D3*
X21430D3*
D31*
X23970Y13810D3*
D32*
X25240D3*
D31*
X11270D3*
D32*
X10000D3*
M02*
