M48
METRIC,0000.00
T01C0.254
T02C0.33
T03C0.95
T04C1.1
%
T01
X+001825Y+002495
X+001615Y+002548
X+001552Y+002580
X+001547Y+002446
X+001490Y+002416
X+001447Y+002356
X+001355Y+002471
X+001535Y+002714
X+001697Y+002715
X+002139Y+002585
X+002221Y+002469
X+002261Y+002260
X+002270Y+002197
X+002436Y+002345
X+002466Y+002527
X+002243Y+002683
X+002472Y+002065
X+002228Y+001837
X+002277Y+001733
X+002322Y+001640
X+002373Y+001683
X+002373Y+001593
X+002323Y+001548
X+002375Y+001502
X+002449Y+001491
X+002451Y+001543
X+002517Y+001507
X+002384Y+001392
X+002438Y+001327
X+002486Y+001292
X+002550Y+001242
X+002132Y+001552
X+002044Y+001556
X+002043Y+001504
X+002041Y+001442
X+002006Y+001362
X+002029Y+001317
X+001971Y+001322
X+001819Y+001381
X+001841Y+001613
X+001840Y+001676
X+001712Y+001624
X+001669Y+001672
X+001610Y+001673
X+001580Y+001725
X+001452Y+001629
X+001481Y+001567
X+001541Y+001543
X+001583Y+001353
X+001319Y+001642
X+001292Y+001740
X+001384Y+002102
X+001352Y+002152
X+002019Y+001684
X+002131Y+001645
X+002175Y+001644
X+002021Y+001164
T02
X+001925Y+002342
X+001925Y+002266
X+001925Y+002190
X+001925Y+002114
X+001925Y+002038
X+001925Y+001961
X+001925Y+001885
X+002002Y+001885
X+002001Y+001961
X+002001Y+002037
X+002001Y+002114
X+002001Y+002190
X+002001Y+002266
X+002001Y+002342
X+002078Y+002343
X+002078Y+002267
X+002078Y+002190
X+002078Y+002114
X+002078Y+002038
X+002078Y+001962
X+002078Y+001885
X+001849Y+001885
X+001848Y+001961
X+001848Y+002038
X+001848Y+002114
X+001848Y+002190
X+001848Y+002266
X+001848Y+002342
X+001772Y+002342
X+001772Y+002266
X+001772Y+002190
X+001772Y+002114
X+001772Y+002038
X+001772Y+001961
X+001772Y+001885
X+001695Y+001885
X+001695Y+001961
X+001695Y+002038
X+001695Y+002114
X+001695Y+002190
X+001695Y+002266
X+001695Y+002342
X+001618Y+002342
X+001618Y+002266
X+001618Y+002190
X+001618Y+002114
X+001618Y+002038
X+001618Y+001961
X+001619Y+001885
T03
X+001849Y+001459
X+001341Y+001357
X+001341Y+001560
T04
X+002398Y+002904
X+002398Y+003031
X+002144Y+003031
X+002144Y+002904
X+001890Y+002904
X+001890Y+003031
X+001636Y+003031
X+001636Y+002904
X+001382Y+002904
X+001382Y+003031
X+001128Y+002650
X+001001Y+002650
X+001001Y+002396
X+001128Y+002396
X+001128Y+002142
X+001001Y+002142
X+001001Y+001888
X+001128Y+001888
X+001128Y+001634
X+001001Y+001634
X+001001Y+001380
X+001128Y+001380
X+001382Y+001126
X+001382Y+000999
X+001636Y+000999
X+001636Y+001126
X+001890Y+001126
X+001890Y+000999
X+002144Y+000999
X+002144Y+001126
X+002398Y+001126
X+002398Y+000999
X+002652Y+001380
X+002779Y+001380
X+002779Y+001634
X+002652Y+001634
X+002652Y+001888
X+002779Y+001888
X+002779Y+002142
X+002652Y+002142
X+002652Y+002396
X+002779Y+002396
X+002779Y+002650
X+002652Y+002650
T00
M30
