G04 DipTrace 2.4.0.2*
%INSTM32small.gbs*%
%MOMM*%
%ADD56C,0.95*%
%ADD69R,1.75X2.05*%
%ADD70R,1.75X2.082*%
%ADD71R,1.75X1.65*%
%ADD72R,2.082X1.75*%
%ADD74R,2.05X1.75*%
%ADD76R,1.65X1.75*%
%FSLAX53Y53*%
G04*
G71*
G90*
G75*
G01*
%LNBotMask*%
%LPD*%
D76*
X11278Y21438D3*
G36*
X12553Y20563D2*
X12048D1*
Y22313D1*
X12553D1*
X12833Y21769D1*
Y21107D1*
X12553Y20563D1*
G37*
D74*
X10008Y21438D3*
D76*
X11278Y29058D3*
Y26518D3*
Y23978D3*
G36*
X12553Y25643D2*
X12048D1*
Y27393D1*
X12553D1*
X12833Y26849D1*
Y26187D1*
X12553Y25643D1*
G37*
G36*
Y28183D2*
X12053D1*
Y29933D1*
X12553D1*
X12833Y29389D1*
Y28727D1*
X12553Y28183D1*
G37*
D72*
X10008Y29058D3*
G36*
X12553Y23103D2*
X12048D1*
Y24853D1*
X12553D1*
X12833Y24309D1*
Y23647D1*
X12553Y23103D1*
G37*
D72*
X10008Y26518D3*
Y23978D3*
D71*
X23978Y31598D3*
X21438D3*
X18898D3*
X16358D3*
G36*
X20563Y30323D2*
Y30828D1*
X22313D1*
Y30323D1*
X21769Y30043D1*
X21107D1*
X20563Y30323D1*
G37*
G36*
X23103D2*
Y30828D1*
X24853D1*
Y30323D1*
X24309Y30043D1*
X23647D1*
X23103Y30323D1*
G37*
G36*
X15483D2*
Y30828D1*
X17233D1*
Y30323D1*
X16689Y30043D1*
X16027D1*
X15483Y30323D1*
G37*
G36*
X18023D2*
Y30828D1*
X19773D1*
Y30323D1*
X19229Y30043D1*
X18567D1*
X18023Y30323D1*
G37*
D70*
X23978Y32868D3*
X21438D3*
X18898D3*
X16358D3*
D76*
X26518Y16358D3*
Y18898D3*
Y21438D3*
Y23978D3*
G36*
X25243Y19773D2*
X25748D1*
Y18023D1*
X25243D1*
X24963Y18567D1*
Y19229D1*
X25243Y19773D1*
G37*
G36*
Y17233D2*
X25748D1*
Y15483D1*
X25243D1*
X24963Y16027D1*
Y16689D1*
X25243Y17233D1*
G37*
G36*
Y24853D2*
X25748D1*
Y23103D1*
X25243D1*
X24963Y23647D1*
Y24309D1*
X25243Y24853D1*
G37*
G36*
Y22313D2*
X25748D1*
Y20563D1*
X25243D1*
X24963Y21107D1*
Y21769D1*
X25243Y22313D1*
G37*
D72*
X27788Y16358D3*
Y18898D3*
Y21438D3*
Y23978D3*
D76*
X26518Y29058D3*
G36*
X25243Y29933D2*
X25748D1*
Y28183D1*
X25243D1*
X24963Y28727D1*
Y29389D1*
X25243Y29933D1*
G37*
D74*
X27788Y29058D3*
D71*
X23978Y11278D3*
G36*
X24853Y12553D2*
Y12048D1*
X23103D1*
Y12553D1*
X23647Y12833D1*
X24309D1*
X24853Y12553D1*
G37*
D69*
X23978Y10008D3*
D76*
X26518Y13818D3*
G36*
X25243Y14693D2*
X25748D1*
Y12943D1*
X25243D1*
X24963Y13487D1*
Y14149D1*
X25243Y14693D1*
G37*
D74*
X27788Y13818D3*
D71*
X13818Y11278D3*
G36*
X14693Y12553D2*
Y12048D1*
X12943D1*
Y12553D1*
X13487Y12833D1*
X14149D1*
X14693Y12553D1*
G37*
D69*
X13818Y10008D3*
D76*
X11278Y13818D3*
Y16358D3*
Y18898D3*
G36*
X12553Y15483D2*
X12048D1*
Y17233D1*
X12553D1*
X12833Y16689D1*
Y16027D1*
X12553Y15483D1*
G37*
G36*
Y12943D2*
X12048D1*
Y14693D1*
X12553D1*
X12833Y14149D1*
Y13487D1*
X12553Y12943D1*
G37*
G36*
Y18023D2*
X12048D1*
Y19773D1*
X12553D1*
X12833Y19229D1*
Y18567D1*
X12553Y18023D1*
G37*
D72*
X10008Y18898D3*
Y16358D3*
Y13818D3*
D71*
X13818Y31598D3*
G36*
X12943Y30323D2*
Y30828D1*
X14693D1*
Y30323D1*
X14149Y30043D1*
X13487D1*
X12943Y30323D1*
G37*
D69*
X13818Y32868D3*
D76*
X26518Y26518D3*
G36*
X25243Y27393D2*
X25748D1*
Y25643D1*
X25243D1*
X24963Y26187D1*
Y26849D1*
X25243Y27393D1*
G37*
D74*
X27788Y26518D3*
D56*
X18492Y14428D3*
X13412Y13412D3*
Y15444D3*
G36*
X19368Y15221D2*
X19559Y15250D1*
X19706Y15310D1*
X19800Y15386D1*
X19876Y15463D1*
X19940Y15575D1*
X19965Y15640D1*
X19985Y15736D1*
X19996Y15786D1*
X20001Y15869D1*
X19978Y15934D1*
X19940Y15972D1*
X19914Y15997D1*
X19902Y16061D1*
X19907Y16087D1*
X19922Y16137D1*
X19952Y16165D1*
X19871Y16264D1*
X19795Y16214D1*
X19777D1*
X19741Y16302D1*
X19686Y16315D1*
X19584Y16325D1*
X19691Y16072D1*
Y16040D1*
X19683Y15997D1*
X19660Y15987D1*
X19609Y16007D1*
X19546Y16123D1*
X19475Y16294D1*
X19424Y16269D1*
X19370Y16205D1*
X19444Y16015D1*
X19406Y16021D1*
X19368D1*
Y15221D1*
G37*
D71*
X21438Y11278D3*
X18898D3*
X16358D3*
G36*
X19773Y12553D2*
Y12048D1*
X18023D1*
Y12553D1*
X18567Y12833D1*
X19229D1*
X19773Y12553D1*
G37*
G36*
X22313D2*
Y12048D1*
X20563D1*
Y12553D1*
X21107Y12833D1*
X21769D1*
X22313Y12553D1*
G37*
G36*
X17233D2*
Y12048D1*
X15483D1*
Y12553D1*
X16027Y12833D1*
X16689D1*
X17233Y12553D1*
G37*
D70*
X16358Y10008D3*
X18898D3*
X21438D3*
M02*
