G04 DipTrace 2.4.0.2*
%INSTM32small.gto*%
%MOIN*%
%ADD17C,0.006*%
%ADD25O,0.0199X0.0172*%
%ADD35O,0.0189X0.0207*%
%ADD69C,0.0046*%
%ADD70C,0.0044*%
%ADD71C,0.0033*%
%FSLAX44Y44*%
G04*
G70*
G90*
G75*
G01*
%LNTopSilk*%
%LPD*%
D25*
X7862Y9515D3*
X7952Y9238D2*
D17*
X8188Y9001D1*
Y6639D2*
Y6403D1*
X7952D1*
X5353Y6639D2*
Y6403D1*
X5589D1*
Y9238D2*
X5353D1*
Y9001D1*
D35*
X7850Y10586D3*
G36*
X6976Y9265D2*
X6805D1*
Y9434D1*
X6976D1*
Y9265D1*
G37*
G36*
X7018Y10497D2*
X6905Y10639D1*
X6803Y10497D1*
X6799D1*
D1*
X7018D1*
G37*
X7659Y9442D2*
D17*
X7073D1*
X6768Y9894D2*
Y10040D1*
X7663Y10485D2*
X7073D1*
X7978Y10032D2*
Y9894D1*
X8842Y8505D2*
D69*
X8814Y8496D1*
X8785Y8479D1*
X8770Y8462D1*
Y8428D1*
X8785Y8410D1*
X8814Y8393D1*
X8842Y8384D1*
X8885Y8376D1*
X8957D1*
X9000Y8384D1*
X9029Y8393D1*
X9057Y8410D1*
X9072Y8428D1*
Y8462D1*
X9057Y8479D1*
X9029Y8496D1*
X9000Y8505D1*
X8914Y8655D2*
X8885Y8647D1*
X8871Y8621D1*
Y8595D1*
X8885Y8569D1*
X8914Y8560D1*
X8943Y8569D1*
X8957Y8586D1*
X8971Y8629D1*
X8986Y8647D1*
X9015Y8655D1*
X9029D1*
X9057Y8647D1*
X9072Y8621D1*
Y8595D1*
X9057Y8569D1*
X9029Y8560D1*
X8828Y8711D2*
X8814Y8728D1*
X8771Y8754D1*
X9072D1*
X4903Y9995D2*
X4875Y9987D1*
X4846Y9969D1*
X4832Y9952D1*
Y9918D1*
X4846Y9901D1*
X4875Y9884D1*
X4903Y9875D1*
X4947Y9866D1*
X5018D1*
X5061Y9875D1*
X5090Y9884D1*
X5119Y9901D1*
X5133Y9918D1*
Y9952D1*
X5119Y9969D1*
X5090Y9987D1*
X5061Y9995D1*
X4975Y10146D2*
X4947Y10137D1*
X4932Y10111D1*
Y10085D1*
X4947Y10059D1*
X4975Y10051D1*
X5004Y10059D1*
X5018Y10077D1*
X5033Y10120D1*
X5047Y10137D1*
X5076Y10146D1*
X5090D1*
X5119Y10137D1*
X5133Y10111D1*
Y10085D1*
X5119Y10059D1*
X5090Y10051D1*
X4904Y10210D2*
X4889D1*
X4861Y10219D1*
X4846Y10227D1*
X4832Y10244D1*
Y10279D1*
X4846Y10296D1*
X4861Y10304D1*
X4889Y10313D1*
X4918D1*
X4947Y10304D1*
X4990Y10287D1*
X5133Y10201D1*
Y10322D1*
X5645Y9872D2*
X5617Y9864D1*
X5588Y9846D1*
X5574Y9829D1*
Y9795D1*
X5588Y9778D1*
X5617Y9760D1*
X5645Y9752D1*
X5689Y9743D1*
X5760D1*
X5803Y9752D1*
X5832Y9760D1*
X5861Y9778D1*
X5875Y9795D1*
Y9829D1*
X5861Y9846D1*
X5832Y9864D1*
X5803Y9872D1*
X5717Y10023D2*
X5689Y10014D1*
X5674Y9988D1*
Y9962D1*
X5689Y9936D1*
X5717Y9928D1*
X5746Y9936D1*
X5760Y9954D1*
X5775Y9997D1*
X5789Y10014D1*
X5818Y10023D1*
X5832D1*
X5861Y10014D1*
X5875Y9988D1*
Y9962D1*
X5861Y9936D1*
X5832Y9928D1*
X5574Y10095D2*
Y10190D1*
X5689Y10138D1*
Y10164D1*
X5703Y10181D1*
X5717Y10190D1*
X5760Y10199D1*
X5789D1*
X5832Y10190D1*
X5861Y10173D1*
X5875Y10147D1*
Y10121D1*
X5861Y10095D1*
X5846Y10087D1*
X5818Y10078D1*
X4543Y6497D2*
X4514Y6488D1*
X4486Y6471D1*
X4471Y6454D1*
Y6419D1*
X4486Y6402D1*
X4514Y6385D1*
X4543Y6376D1*
X4586Y6368D1*
X4658D1*
X4701Y6376D1*
X4730Y6385D1*
X4758Y6402D1*
X4773Y6419D1*
Y6454D1*
X4758Y6471D1*
X4730Y6488D1*
X4701Y6497D1*
X4615Y6647D2*
X4586Y6639D1*
X4572Y6613D1*
Y6587D1*
X4586Y6561D1*
X4615Y6552D1*
X4643Y6561D1*
X4658Y6578D1*
X4672Y6621D1*
X4686Y6639D1*
X4715Y6647D1*
X4730D1*
X4758Y6639D1*
X4773Y6613D1*
Y6587D1*
X4758Y6561D1*
X4730Y6552D1*
X4773Y6789D2*
X4472D1*
X4672Y6703D1*
Y6832D1*
X5045Y5940D2*
X5037Y5968D1*
X5020Y5997D1*
X5002Y6012D1*
X4968D1*
X4951Y5997D1*
X4934Y5968D1*
X4925Y5940D1*
X4916Y5897D1*
Y5825D1*
X4925Y5782D1*
X4934Y5753D1*
X4951Y5725D1*
X4968Y5710D1*
X5002D1*
X5020Y5725D1*
X5037Y5753D1*
X5045Y5782D1*
X5196Y5868D2*
X5187Y5897D1*
X5161Y5911D1*
X5135D1*
X5110Y5897D1*
X5101Y5868D1*
X5110Y5839D1*
X5127Y5825D1*
X5170Y5811D1*
X5187Y5796D1*
X5196Y5768D1*
Y5753D1*
X5187Y5725D1*
X5161Y5710D1*
X5135D1*
X5110Y5725D1*
X5101Y5753D1*
X5355Y6011D2*
X5269D1*
X5260Y5882D1*
X5269Y5897D1*
X5294Y5911D1*
X5320D1*
X5346Y5897D1*
X5363Y5868D1*
X5372Y5825D1*
Y5796D1*
X5363Y5753D1*
X5346Y5724D1*
X5320Y5710D1*
X5294D1*
X5269Y5724D1*
X5260Y5739D1*
X5251Y5768D1*
X8973Y4646D2*
X8964Y4674D1*
X8947Y4703D1*
X8930Y4717D1*
X8895D1*
X8878Y4703D1*
X8861Y4674D1*
X8852Y4646D1*
X8844Y4603D1*
Y4531D1*
X8852Y4488D1*
X8861Y4459D1*
X8878Y4431D1*
X8895Y4416D1*
X8930D1*
X8947Y4431D1*
X8964Y4459D1*
X8973Y4488D1*
X9123Y4574D2*
X9114Y4603D1*
X9089Y4617D1*
X9063D1*
X9037Y4603D1*
X9028Y4574D1*
X9037Y4545D1*
X9054Y4531D1*
X9097Y4516D1*
X9114Y4502D1*
X9123Y4473D1*
Y4459D1*
X9114Y4431D1*
X9089Y4416D1*
X9063D1*
X9037Y4431D1*
X9028Y4459D1*
X9282Y4674D2*
X9273Y4703D1*
X9247Y4717D1*
X9230D1*
X9204Y4703D1*
X9187Y4660D1*
X9179Y4588D1*
Y4516D1*
X9187Y4459D1*
X9204Y4430D1*
X9230Y4416D1*
X9239D1*
X9264Y4430D1*
X9282Y4459D1*
X9290Y4502D1*
Y4516D1*
X9282Y4560D1*
X9264Y4588D1*
X9239Y4602D1*
X9230D1*
X9204Y4588D1*
X9187Y4560D1*
X9179Y4516D1*
X7469Y4974D2*
X7441Y4965D1*
X7412Y4948D1*
X7397Y4931D1*
Y4897D1*
X7412Y4879D1*
X7441Y4862D1*
X7469Y4853D1*
X7512Y4845D1*
X7584D1*
X7627Y4853D1*
X7656Y4862D1*
X7684Y4879D1*
X7699Y4897D1*
Y4931D1*
X7684Y4948D1*
X7656Y4965D1*
X7627Y4974D1*
X7541Y5124D2*
X7512Y5116D1*
X7498Y5090D1*
Y5064D1*
X7512Y5038D1*
X7541Y5030D1*
X7570Y5038D1*
X7584Y5055D1*
X7598Y5098D1*
X7613Y5116D1*
X7642Y5124D1*
X7656D1*
X7684Y5116D1*
X7699Y5090D1*
Y5064D1*
X7684Y5038D1*
X7656Y5030D1*
X7699Y5214D2*
X7398Y5300D1*
Y5180D1*
X8609Y5321D2*
X8581Y5313D1*
X8552Y5296D1*
X8538Y5279D1*
Y5244D1*
X8552Y5227D1*
X8581Y5210D1*
X8609Y5201D1*
X8653Y5192D1*
X8725D1*
X8767Y5201D1*
X8796Y5210D1*
X8825Y5227D1*
X8839Y5244D1*
Y5279D1*
X8825Y5296D1*
X8796Y5313D1*
X8767Y5321D1*
X8681Y5472D2*
X8653Y5463D1*
X8638Y5437D1*
Y5411D1*
X8653Y5386D1*
X8681Y5377D1*
X8710Y5386D1*
X8725Y5403D1*
X8739Y5446D1*
X8753Y5463D1*
X8782Y5472D1*
X8796D1*
X8825Y5463D1*
X8839Y5437D1*
Y5411D1*
X8825Y5386D1*
X8796Y5377D1*
X8538Y5570D2*
X8552Y5545D1*
X8581Y5536D1*
X8610D1*
X8638Y5545D1*
X8653Y5562D1*
X8667Y5596D1*
X8681Y5622D1*
X8710Y5639D1*
X8739Y5648D1*
X8782D1*
X8810Y5639D1*
X8825Y5631D1*
X8839Y5605D1*
Y5570D1*
X8825Y5545D1*
X8810Y5536D1*
X8782Y5527D1*
X8739D1*
X8710Y5536D1*
X8681Y5553D1*
X8667Y5579D1*
X8653Y5613D1*
X8638Y5631D1*
X8610Y5639D1*
X8581D1*
X8552Y5631D1*
X8538Y5605D1*
Y5570D1*
X7509Y5706D2*
X7481Y5698D1*
X7452Y5681D1*
X7437Y5663D1*
Y5629D1*
X7452Y5612D1*
X7481Y5595D1*
X7509Y5586D1*
X7552Y5577D1*
X7624D1*
X7667Y5586D1*
X7696Y5595D1*
X7724Y5612D1*
X7739Y5629D1*
Y5663D1*
X7724Y5681D1*
X7696Y5698D1*
X7667Y5706D1*
X7581Y5857D2*
X7552Y5848D1*
X7538Y5822D1*
Y5796D1*
X7552Y5771D1*
X7581Y5762D1*
X7610Y5771D1*
X7624Y5788D1*
X7638Y5831D1*
X7653Y5848D1*
X7682Y5857D1*
X7696D1*
X7724Y5848D1*
X7739Y5822D1*
Y5796D1*
X7724Y5771D1*
X7696Y5762D1*
X7538Y6024D2*
X7581Y6016D1*
X7610Y5998D1*
X7624Y5973D1*
Y5964D1*
X7610Y5938D1*
X7581Y5921D1*
X7538Y5912D1*
X7524D1*
X7481Y5921D1*
X7452Y5938D1*
X7438Y5964D1*
Y5973D1*
X7452Y5998D1*
X7481Y6016D1*
X7538Y6024D1*
X7610D1*
X7682Y6016D1*
X7725Y5998D1*
X7739Y5973D1*
Y5955D1*
X7725Y5930D1*
X7696Y5921D1*
X8725Y6222D2*
X8716Y6250D1*
X8699Y6279D1*
X8682Y6293D1*
X8647D1*
X8630Y6279D1*
X8613Y6250D1*
X8604Y6222D1*
X8595Y6179D1*
Y6107D1*
X8604Y6064D1*
X8613Y6035D1*
X8630Y6007D1*
X8647Y5992D1*
X8682D1*
X8699Y6007D1*
X8716Y6035D1*
X8725Y6064D1*
X8875Y6150D2*
X8866Y6179D1*
X8840Y6193D1*
X8815D1*
X8789Y6179D1*
X8780Y6150D1*
X8789Y6121D1*
X8806Y6107D1*
X8849Y6092D1*
X8866Y6078D1*
X8875Y6049D1*
Y6035D1*
X8866Y6007D1*
X8840Y5992D1*
X8815D1*
X8789Y6007D1*
X8780Y6035D1*
X8930Y6236D2*
X8948Y6250D1*
X8974Y6293D1*
Y5992D1*
X9081Y6293D2*
X9055Y6279D1*
X9038Y6236D1*
X9029Y6164D1*
Y6121D1*
X9038Y6049D1*
X9055Y6006D1*
X9081Y5992D1*
X9098D1*
X9124Y6006D1*
X9141Y6049D1*
X9150Y6121D1*
Y6164D1*
X9141Y6236D1*
X9124Y6279D1*
X9098Y6293D1*
X9081D1*
X9141Y6236D2*
X9038Y6049D1*
X8331Y8407D2*
X8302Y8398D1*
X8273Y8381D1*
X8259Y8364D1*
Y8329D1*
X8273Y8312D1*
X8302Y8295D1*
X8331Y8286D1*
X8374Y8278D1*
X8446D1*
X8489Y8286D1*
X8517Y8295D1*
X8546Y8312D1*
X8561Y8329D1*
Y8364D1*
X8546Y8381D1*
X8517Y8398D1*
X8489Y8407D1*
X8403Y8557D2*
X8374Y8549D1*
X8360Y8523D1*
Y8497D1*
X8374Y8471D1*
X8403Y8462D1*
X8431Y8471D1*
X8446Y8488D1*
X8460Y8531D1*
X8474Y8549D1*
X8503Y8557D1*
X8517D1*
X8546Y8549D1*
X8561Y8523D1*
Y8497D1*
X8546Y8471D1*
X8517Y8462D1*
X8317Y8613D2*
X8302Y8630D1*
X8259Y8656D1*
X8561D1*
X8317Y8711D2*
X8302Y8729D1*
X8259Y8755D1*
X8561D1*
X9000Y9017D2*
X8972Y9009D1*
X8943Y8991D1*
X8929Y8974D1*
Y8940D1*
X8943Y8923D1*
X8972Y8905D1*
X9000Y8897D1*
X9043Y8888D1*
X9115D1*
X9158Y8897D1*
X9187Y8905D1*
X9215Y8923D1*
X9230Y8940D1*
Y8974D1*
X9215Y8991D1*
X9187Y9009D1*
X9158Y9017D1*
X9072Y9168D2*
X9043Y9159D1*
X9029Y9133D1*
Y9107D1*
X9043Y9081D1*
X9072Y9073D1*
X9101Y9081D1*
X9115Y9099D1*
X9130Y9142D1*
X9144Y9159D1*
X9173Y9168D1*
X9187D1*
X9215Y9159D1*
X9230Y9133D1*
Y9107D1*
X9215Y9081D1*
X9187Y9073D1*
X8986Y9223D2*
X8972Y9240D1*
X8929Y9266D1*
X9230D1*
X9001Y9331D2*
X8986D1*
X8957Y9339D1*
X8943Y9348D1*
X8929Y9365D1*
Y9399D1*
X8943Y9417D1*
X8957Y9425D1*
X8986Y9434D1*
X9015D1*
X9044Y9425D1*
X9086Y9408D1*
X9230Y9322D1*
Y9442D1*
X8347Y9772D2*
X8319Y9763D1*
X8290Y9746D1*
X8276Y9729D1*
Y9694D1*
X8290Y9677D1*
X8319Y9660D1*
X8347Y9651D1*
X8390Y9643D1*
X8462D1*
X8505Y9651D1*
X8534Y9660D1*
X8562Y9677D1*
X8577Y9694D1*
Y9729D1*
X8562Y9746D1*
X8534Y9763D1*
X8505Y9772D1*
X8419Y9922D2*
X8390Y9914D1*
X8376Y9888D1*
Y9862D1*
X8390Y9836D1*
X8419Y9827D1*
X8448Y9836D1*
X8462Y9853D1*
X8477Y9896D1*
X8491Y9914D1*
X8520Y9922D1*
X8534D1*
X8562Y9914D1*
X8577Y9888D1*
Y9862D1*
X8562Y9836D1*
X8534Y9827D1*
X8333Y9978D2*
X8319Y9995D1*
X8276Y10021D1*
X8577D1*
X8276Y10094D2*
Y10188D1*
X8391Y10137D1*
Y10163D1*
X8405Y10180D1*
X8419Y10188D1*
X8462Y10197D1*
X8491D1*
X8534Y10188D1*
X8563Y10171D1*
X8577Y10145D1*
Y10119D1*
X8563Y10094D1*
X8548Y10085D1*
X8520Y10076D1*
X6220Y9527D2*
X6211Y9555D1*
X6194Y9584D1*
X6177Y9598D1*
X6142D1*
X6125Y9584D1*
X6108Y9555D1*
X6099Y9527D1*
X6091Y9484D1*
Y9412D1*
X6099Y9369D1*
X6108Y9340D1*
X6125Y9311D1*
X6142Y9297D1*
X6177D1*
X6194Y9311D1*
X6211Y9340D1*
X6220Y9369D1*
X6370Y9455D2*
X6362Y9484D1*
X6336Y9498D1*
X6310D1*
X6284Y9484D1*
X6275Y9455D1*
X6284Y9426D1*
X6301Y9412D1*
X6344Y9397D1*
X6362Y9383D1*
X6370Y9354D1*
Y9340D1*
X6362Y9311D1*
X6336Y9297D1*
X6310D1*
X6284Y9311D1*
X6275Y9340D1*
X6426Y9541D2*
X6443Y9555D1*
X6469Y9598D1*
Y9297D1*
X6611D2*
Y9598D1*
X6524Y9397D1*
X6654D1*
X4664Y8821D2*
Y8520D1*
X4768D1*
X4918Y8677D2*
X4909Y8706D1*
X4883Y8720D1*
X4858D1*
X4832Y8706D1*
X4823Y8677D1*
X4832Y8649D1*
X4849Y8634D1*
X4892Y8620D1*
X4909Y8606D1*
X4918Y8577D1*
Y8563D1*
X4909Y8534D1*
X4883Y8520D1*
X4858D1*
X4832Y8534D1*
X4823Y8563D1*
X4973Y8763D2*
X4991Y8778D1*
X5017Y8821D1*
Y8520D1*
X8602Y10396D2*
X8680D1*
X8705Y10411D1*
X8714Y10425D1*
X8723Y10453D1*
Y10482D1*
X8714Y10511D1*
X8705Y10525D1*
X8680Y10540D1*
X8602D1*
Y10238D1*
X8663Y10396D2*
X8723Y10238D1*
X8778Y10540D2*
X8787Y10525D1*
X8796Y10540D1*
X8787Y10554D1*
X8778Y10540D1*
X8787Y10439D2*
Y10238D1*
X8860Y10468D2*
Y10482D1*
X8869Y10511D1*
X8877Y10525D1*
X8894Y10539D1*
X8929D1*
X8946Y10525D1*
X8955Y10511D1*
X8963Y10482D1*
Y10453D1*
X8955Y10424D1*
X8937Y10382D1*
X8851Y10238D1*
X8972D1*
X9131Y10396D2*
X9114Y10425D1*
X9096Y10439D1*
X9071D1*
X9053Y10425D1*
X9036Y10396D1*
X9027Y10353D1*
Y10324D1*
X9036Y10281D1*
X9053Y10253D1*
X9071Y10238D1*
X9096D1*
X9114Y10253D1*
X9131Y10281D1*
X9186Y10482D2*
X9204Y10496D1*
X9230Y10539D1*
Y10238D1*
X9458Y9174D2*
Y9252D1*
X9444Y9277D1*
X9429Y9286D1*
X9401Y9295D1*
X9372D1*
X9343Y9286D1*
X9329Y9277D1*
X9315Y9252D1*
Y9174D1*
X9616D1*
X9458Y9234D2*
X9616Y9295D1*
X9315Y9350D2*
X9329Y9359D1*
X9315Y9368D1*
X9300Y9359D1*
X9315Y9350D1*
X9415Y9359D2*
X9616D1*
X9387Y9432D2*
X9372D1*
X9343Y9440D1*
X9329Y9449D1*
X9315Y9466D1*
Y9501D1*
X9329Y9518D1*
X9343Y9526D1*
X9372Y9535D1*
X9401D1*
X9430Y9526D1*
X9472Y9509D1*
X9616Y9423D1*
Y9544D1*
X9458Y9703D2*
X9429Y9685D1*
X9415Y9668D1*
Y9643D1*
X9429Y9625D1*
X9458Y9608D1*
X9501Y9599D1*
X9530D1*
X9573Y9608D1*
X9601Y9625D1*
X9616Y9643D1*
Y9668D1*
X9601Y9685D1*
X9573Y9703D1*
X9387Y9767D2*
X9372D1*
X9343Y9776D1*
X9329Y9784D1*
X9315Y9802D1*
Y9836D1*
X9329Y9853D1*
X9343Y9862D1*
X9372Y9870D1*
X9401D1*
X9430Y9862D1*
X9472Y9845D1*
X9616Y9758D1*
Y9879D1*
X8403Y6549D2*
X8480D1*
X8506Y6564D1*
X8515Y6578D1*
X8523Y6607D1*
Y6636D1*
X8515Y6664D1*
X8506Y6679D1*
X8480Y6693D1*
X8403D1*
Y6392D1*
X8463Y6549D2*
X8523Y6392D1*
X8579Y6693D2*
X8587Y6679D1*
X8596Y6693D1*
X8587Y6708D1*
X8579Y6693D1*
X8587Y6593D2*
Y6392D1*
X8660Y6621D2*
Y6635D1*
X8669Y6664D1*
X8677Y6678D1*
X8695Y6693D1*
X8729D1*
X8746Y6678D1*
X8755Y6664D1*
X8764Y6635D1*
Y6607D1*
X8755Y6578D1*
X8738Y6535D1*
X8652Y6392D1*
X8772D1*
X8931Y6549D2*
X8914Y6578D1*
X8897Y6593D1*
X8871D1*
X8854Y6578D1*
X8836Y6549D1*
X8828Y6506D1*
Y6478D1*
X8836Y6435D1*
X8854Y6406D1*
X8871Y6392D1*
X8897D1*
X8914Y6406D1*
X8931Y6435D1*
X9004Y6693D2*
X9099D1*
X9047Y6578D1*
X9073D1*
X9090Y6564D1*
X9099Y6549D1*
X9107Y6506D1*
Y6478D1*
X9099Y6435D1*
X9081Y6406D1*
X9056Y6392D1*
X9030D1*
X9004Y6406D1*
X8996Y6420D1*
X8987Y6449D1*
X8968Y4877D2*
Y4955D1*
X8954Y4981D1*
X8940Y4989D1*
X8911Y4998D1*
X8882D1*
X8854Y4989D1*
X8839Y4981D1*
X8825Y4955D1*
Y4877D1*
X9126D1*
X8968Y4938D2*
X9126Y4998D1*
X8825Y5053D2*
X8839Y5062D1*
X8825Y5071D1*
X8810Y5062D1*
X8825Y5053D1*
X8925Y5062D2*
X9126D1*
X8897Y5135D2*
X8882D1*
X8854Y5144D1*
X8839Y5152D1*
X8825Y5169D1*
Y5204D1*
X8839Y5221D1*
X8854Y5230D1*
X8882Y5238D1*
X8911D1*
X8940Y5230D1*
X8983Y5212D1*
X9126Y5126D1*
Y5247D1*
X8968Y5406D2*
X8940Y5389D1*
X8925Y5371D1*
Y5346D1*
X8940Y5328D1*
X8968Y5311D1*
X9011Y5302D1*
X9040D1*
X9083Y5311D1*
X9112Y5328D1*
X9126Y5346D1*
Y5371D1*
X9112Y5389D1*
X9083Y5406D1*
X9126Y5548D2*
X8825D1*
X9026Y5462D1*
Y5591D1*
X6527Y4833D2*
X6604D1*
X6630Y4848D1*
X6639Y4862D1*
X6647Y4891D1*
Y4920D1*
X6639Y4948D1*
X6630Y4963D1*
X6604Y4977D1*
X6527D1*
Y4676D1*
X6587Y4833D2*
X6647Y4676D1*
X6798Y4833D2*
X6789Y4862D1*
X6763Y4877D1*
X6737D1*
X6712Y4862D1*
X6703Y4833D1*
X6712Y4805D1*
X6729Y4790D1*
X6772Y4776D1*
X6789Y4762D1*
X6798Y4733D1*
Y4719D1*
X6789Y4690D1*
X6763Y4676D1*
X6737D1*
X6712Y4690D1*
X6703Y4719D1*
X6853Y4919D2*
X6871Y4934D1*
X6896Y4977D1*
Y4676D1*
X6974Y5451D2*
Y5529D1*
X6959Y5555D1*
X6945Y5563D1*
X6916Y5572D1*
X6887D1*
X6859Y5563D1*
X6844Y5555D1*
X6830Y5529D1*
Y5451D1*
X7131D1*
X6974Y5512D2*
X7131Y5572D1*
X6974Y5722D2*
X6945Y5714D1*
X6931Y5688D1*
Y5662D1*
X6945Y5636D1*
X6974Y5627D1*
X7002Y5636D1*
X7017Y5653D1*
X7031Y5696D1*
X7045Y5714D1*
X7074Y5722D1*
X7088D1*
X7117Y5714D1*
X7131Y5688D1*
Y5662D1*
X7117Y5636D1*
X7088Y5627D1*
X6902Y5787D2*
X6888D1*
X6859Y5795D1*
X6845Y5804D1*
X6830Y5821D1*
Y5855D1*
X6845Y5872D1*
X6859Y5881D1*
X6888Y5890D1*
X6916D1*
X6945Y5881D1*
X6988Y5864D1*
X7131Y5778D1*
Y5898D1*
X8625Y6979D2*
Y7057D1*
X8610Y7083D1*
X8596Y7091D1*
X8567Y7100D1*
X8538D1*
X8510Y7091D1*
X8495Y7083D1*
X8481Y7057D1*
Y6979D1*
X8782D1*
X8625Y7040D2*
X8782Y7100D1*
X8625Y7250D2*
X8596Y7242D1*
X8581Y7216D1*
Y7190D1*
X8596Y7164D1*
X8625Y7155D1*
X8653Y7164D1*
X8668Y7181D1*
X8682Y7224D1*
X8696Y7242D1*
X8725Y7250D1*
X8739D1*
X8768Y7242D1*
X8782Y7216D1*
Y7190D1*
X8768Y7164D1*
X8739Y7155D1*
X8481Y7323D2*
Y7418D1*
X8596Y7366D1*
Y7392D1*
X8610Y7409D1*
X8625Y7418D1*
X8668Y7426D1*
X8696D1*
X8739Y7418D1*
X8768Y7400D1*
X8782Y7375D1*
Y7349D1*
X8768Y7323D1*
X8754Y7315D1*
X8725Y7306D1*
X4554Y7932D2*
Y8009D1*
X4539Y8035D1*
X4525Y8044D1*
X4497Y8052D1*
X4468D1*
X4439Y8044D1*
X4425Y8035D1*
X4410Y8009D1*
Y7932D1*
X4712D1*
X4554Y7992D2*
X4712Y8052D1*
X4554Y8203D2*
X4525Y8194D1*
X4511Y8168D1*
Y8142D1*
X4525Y8117D1*
X4554Y8108D1*
X4583Y8117D1*
X4597Y8134D1*
X4611Y8177D1*
X4626Y8194D1*
X4655Y8203D1*
X4669D1*
X4697Y8194D1*
X4712Y8168D1*
Y8142D1*
X4697Y8117D1*
X4669Y8108D1*
X4712Y8344D2*
X4411D1*
X4611Y8258D1*
Y8387D1*
X8918Y6826D2*
Y6903D1*
X8904Y6929D1*
X8889Y6938D1*
X8861Y6946D1*
X8832D1*
X8803Y6938D1*
X8789Y6929D1*
X8775Y6903D1*
Y6826D1*
X9076D1*
X8918Y6886D2*
X9076Y6946D1*
X8918Y7097D2*
X8889Y7088D1*
X8875Y7062D1*
Y7036D1*
X8889Y7011D1*
X8918Y7002D1*
X8947Y7011D1*
X8961Y7028D1*
X8976Y7071D1*
X8990Y7088D1*
X9019Y7097D1*
X9033D1*
X9061Y7088D1*
X9076Y7062D1*
Y7036D1*
X9061Y7011D1*
X9033Y7002D1*
X8775Y7256D2*
Y7170D1*
X8904Y7161D1*
X8890Y7170D1*
X8875Y7196D1*
Y7221D1*
X8890Y7247D1*
X8918Y7264D1*
X8961Y7273D1*
X8990D1*
X9033Y7264D1*
X9062Y7247D1*
X9076Y7221D1*
Y7196D1*
X9062Y7170D1*
X9047Y7161D1*
X9019Y7152D1*
X4412Y9246D2*
X4384Y9229D1*
X4369Y9203D1*
Y9169D1*
X4384Y9143D1*
X4412Y9126D1*
X4441D1*
X4470Y9134D1*
X4484Y9143D1*
X4498Y9160D1*
X4527Y9212D1*
X4541Y9229D1*
X4556Y9238D1*
X4585Y9246D1*
X4628D1*
X4656Y9229D1*
X4671Y9203D1*
Y9169D1*
X4656Y9143D1*
X4628Y9126D1*
X4527Y9302D2*
Y9379D1*
X4513Y9405D1*
X4498Y9414D1*
X4470Y9422D1*
X4427D1*
X4398Y9414D1*
X4384Y9405D1*
X4369Y9379D1*
Y9302D1*
X4671D1*
X4369Y9478D2*
X4671D1*
X4441Y9542D2*
X4427D1*
X4398Y9551D1*
X4384Y9559D1*
X4370Y9577D1*
Y9611D1*
X4384Y9628D1*
X4398Y9637D1*
X4427Y9646D1*
X4456D1*
X4484Y9637D1*
X4527Y9620D1*
X4671Y9534D1*
Y9654D1*
X5160Y4759D2*
X5143Y4788D1*
X5117Y4802D1*
X5083D1*
X5057Y4788D1*
X5040Y4759D1*
Y4731D1*
X5049Y4702D1*
X5057Y4687D1*
X5074Y4673D1*
X5126Y4644D1*
X5143Y4630D1*
X5152Y4615D1*
X5160Y4587D1*
Y4544D1*
X5143Y4515D1*
X5117Y4501D1*
X5083D1*
X5057Y4515D1*
X5040Y4544D1*
X5216Y4802D2*
X5259Y4501D1*
X5302Y4802D1*
X5345Y4501D1*
X5388Y4802D1*
X5444D2*
Y4501D1*
X5504D1*
X5530Y4515D1*
X5547Y4544D1*
X5556Y4573D1*
X5564Y4615D1*
Y4687D1*
X5556Y4731D1*
X5547Y4759D1*
X5530Y4788D1*
X5504Y4802D1*
X5444D1*
X4948Y8078D2*
X5163D1*
X5206Y8087D1*
X5235Y8104D1*
X5249Y8130D1*
Y8147D1*
X5235Y8173D1*
X5206Y8190D1*
X5163Y8199D1*
X4948D1*
X5091Y8349D2*
X5062Y8341D1*
X5048Y8315D1*
Y8289D1*
X5062Y8263D1*
X5091Y8254D1*
X5120Y8263D1*
X5134Y8280D1*
X5149Y8323D1*
X5163Y8341D1*
X5192Y8349D1*
X5206D1*
X5235Y8341D1*
X5249Y8315D1*
Y8289D1*
X5235Y8263D1*
X5206Y8254D1*
X5005Y8405D2*
X4991Y8422D1*
X4948Y8448D1*
X5249D1*
X7964Y9484D2*
X8084Y9182D1*
Y9484D2*
X7964Y9182D1*
X8235Y9340D2*
X8226Y9369D1*
X8200Y9383D1*
X8174D1*
X8148Y9369D1*
X8140Y9340D1*
X8148Y9312D1*
X8166Y9297D1*
X8209Y9283D1*
X8226Y9269D1*
X8235Y9240D1*
Y9226D1*
X8226Y9197D1*
X8200Y9182D1*
X8174D1*
X8148Y9197D1*
X8140Y9226D1*
X8290Y9426D2*
X8308Y9441D1*
X8333Y9484D1*
Y9182D1*
X8595Y8045D2*
D70*
Y8170D1*
X8193D1*
X8404D2*
Y8093D1*
X8461Y7992D2*
X8193Y7935D1*
X8117Y7954D1*
X8078Y7973D1*
X8059Y7992D1*
Y8002D1*
X8461Y7877D2*
X8193Y7935D1*
X8595Y7833D2*
X8193D1*
X8404D2*
X8442Y7814D1*
X8461Y7795D1*
Y7766D1*
X8442Y7747D1*
X8404Y7728D1*
X8346Y7719D1*
X8308D1*
X8251Y7728D1*
X8213Y7747D1*
X8193Y7766D1*
Y7795D1*
X8213Y7814D1*
X8251Y7833D1*
X8346Y7675D2*
Y7560D1*
X8385D1*
X8423Y7570D1*
X8442Y7579D1*
X8461Y7598D1*
Y7627D1*
X8442Y7646D1*
X8404Y7665D1*
X8346Y7675D1*
X8308D1*
X8251Y7665D1*
X8213Y7646D1*
X8193Y7627D1*
Y7598D1*
X8213Y7579D1*
X8251Y7560D1*
X8461Y7516D2*
X8193D1*
X8346D2*
X8404Y7507D1*
X8442Y7488D1*
X8461Y7468D1*
Y7440D1*
X8595Y7220D2*
X8193D1*
Y7105D1*
X8461Y6946D2*
X8193D1*
X8404D2*
X8442Y6965D1*
X8461Y6985D1*
Y7013D1*
X8442Y7032D1*
X8404Y7051D1*
X8346Y7061D1*
X8308D1*
X8251Y7051D1*
X8213Y7032D1*
X8193Y7013D1*
Y6985D1*
X8213Y6965D1*
X8251Y6946D1*
X8595Y6903D2*
X8193D1*
X8404D2*
X8442Y6883D1*
X8461Y6864D1*
Y6836D1*
X8442Y6817D1*
X8404Y6797D1*
X8346Y6788D1*
X8308D1*
X8251Y6797D1*
X8213Y6817D1*
X8193Y6836D1*
Y6864D1*
X8213Y6883D1*
X8251Y6903D1*
X8404Y6639D2*
X8442Y6648D1*
X8461Y6677D1*
Y6706D1*
X8442Y6735D1*
X8404Y6744D1*
X8366Y6735D1*
X8346Y6715D1*
X8327Y6668D1*
X8308Y6648D1*
X8270Y6639D1*
X8251D1*
X8213Y6648D1*
X8193Y6677D1*
Y6706D1*
X8213Y6735D1*
X8251Y6744D1*
X4765Y5259D2*
X4851D1*
X4880Y5278D1*
X4890Y5297D1*
X4899Y5335D1*
Y5374D1*
X4890Y5412D1*
X4880Y5431D1*
X4851Y5450D1*
X4765D1*
Y5048D1*
X4832Y5259D2*
X4899Y5048D1*
X5000Y5450D2*
X4972Y5431D1*
X4952Y5373D1*
X4943Y5278D1*
Y5220D1*
X4952Y5125D1*
X4972Y5067D1*
X5000Y5048D1*
X5019D1*
X5048Y5067D1*
X5067Y5125D1*
X5077Y5220D1*
Y5278D1*
X5067Y5373D1*
X5048Y5431D1*
X5019Y5450D1*
X5000D1*
X5067Y5373D2*
X4952Y5125D1*
X5130Y5087D2*
X5121Y5067D1*
X5130Y5048D1*
X5140Y5067D1*
X5130Y5087D1*
X5308Y5316D2*
X5298Y5259D1*
X5279Y5220D1*
X5251Y5201D1*
X5241D1*
X5212Y5220D1*
X5193Y5259D1*
X5184Y5316D1*
Y5335D1*
X5193Y5393D1*
X5212Y5431D1*
X5241Y5450D1*
X5251D1*
X5279Y5431D1*
X5298Y5393D1*
X5308Y5316D1*
Y5220D1*
X5298Y5125D1*
X5279Y5067D1*
X5251Y5048D1*
X5232D1*
X5203Y5067D1*
X5193Y5106D1*
X5505Y5048D2*
X5428Y5450D1*
X5352Y5048D1*
X5381Y5182D2*
X5476D1*
X5735Y5354D2*
Y5373D1*
X5744Y5412D1*
X5754Y5431D1*
X5773Y5450D1*
X5811D1*
X5830Y5431D1*
X5840Y5412D1*
X5850Y5373D1*
Y5335D1*
X5840Y5297D1*
X5821Y5240D1*
X5725Y5048D1*
X5859D1*
X5960Y5450D2*
X5932Y5431D1*
X5912Y5373D1*
X5903Y5278D1*
Y5220D1*
X5912Y5125D1*
X5932Y5067D1*
X5960Y5048D1*
X5979D1*
X6008Y5067D1*
X6027Y5125D1*
X6037Y5220D1*
Y5278D1*
X6027Y5373D1*
X6008Y5431D1*
X5979Y5450D1*
X5960D1*
X6027Y5373D2*
X5912Y5125D1*
X6081Y5373D2*
X6100Y5393D1*
X6129Y5450D1*
Y5048D1*
X6268D2*
Y5450D1*
X6172Y5182D1*
X6316D1*
X6170Y6286D2*
X6151Y6324D1*
X6122Y6343D1*
X6084D1*
X6055Y6324D1*
X6036Y6286D1*
Y6248D1*
X6046Y6209D1*
X6055Y6190D1*
X6074Y6171D1*
X6132Y6133D1*
X6151Y6114D1*
X6160Y6095D1*
X6170Y6056D1*
Y5999D1*
X6151Y5961D1*
X6122Y5942D1*
X6084D1*
X6055Y5961D1*
X6036Y5999D1*
X6281Y6343D2*
Y5942D1*
X6214Y6343D2*
X6348D1*
X6544Y5942D2*
Y6343D1*
X6468Y5942D1*
X6391Y6343D1*
Y5942D1*
X6607Y6343D2*
X6712D1*
X6655Y6190D1*
X6684D1*
X6703Y6171D1*
X6712Y6152D1*
X6722Y6095D1*
Y6056D1*
X6712Y5999D1*
X6693Y5961D1*
X6665Y5942D1*
X6636D1*
X6607Y5961D1*
X6598Y5980D1*
X6588Y6018D1*
X6776Y6247D2*
Y6267D1*
X6785Y6305D1*
X6795Y6324D1*
X6814Y6343D1*
X6852D1*
X6871Y6324D1*
X6881Y6305D1*
X6890Y6267D1*
Y6228D1*
X6881Y6190D1*
X6862Y6133D1*
X6766Y5942D1*
X6900D1*
X8277Y3954D2*
D71*
Y4033D1*
X8392Y3990D1*
Y4011D1*
X8406Y4025D1*
X8420Y4033D1*
X8463Y4040D1*
X8492D1*
X8535Y4033D1*
X8564Y4018D1*
X8578Y3997D1*
Y3975D1*
X8564Y3954D1*
X8549Y3947D1*
X8521Y3939D1*
X8377Y4073D2*
X8578Y4116D1*
X8377Y4159D1*
X8277Y4206D2*
Y4285D1*
X8392Y4242D1*
Y4263D1*
X8406Y4278D1*
X8420Y4285D1*
X8463Y4292D1*
X8492D1*
X8535Y4285D1*
X8564Y4270D1*
X8578Y4249D1*
Y4227D1*
X8564Y4206D1*
X8549Y4199D1*
X8521Y4192D1*
X7353Y4063D2*
X7325Y4056D1*
X7296Y4041D1*
X7282Y4027D1*
Y3999D1*
X7296Y3984D1*
X7325Y3970D1*
X7353Y3963D1*
X7396Y3955D1*
X7468D1*
X7511Y3963D1*
X7540Y3970D1*
X7569Y3984D1*
X7583Y3999D1*
Y4027D1*
X7569Y4041D1*
X7540Y4056D1*
X7511Y4063D1*
X7468D1*
Y4027D1*
X7282Y4196D2*
X7583D1*
X7282Y4096D1*
X7583D1*
X7282Y4229D2*
X7583D1*
Y4279D1*
X7569Y4301D1*
X7540Y4315D1*
X7511Y4322D1*
X7468Y4330D1*
X7396D1*
X7353Y4322D1*
X7325Y4315D1*
X7296Y4301D1*
X7282Y4279D1*
Y4229D1*
X6313Y4290D2*
Y3988D1*
X6363D1*
X6385Y4003D1*
X6399Y4031D1*
X6406Y4060D1*
X6413Y4103D1*
Y4175D1*
X6406Y4218D1*
X6399Y4247D1*
X6385Y4275D1*
X6363Y4290D1*
X6313D1*
X6511Y4268D2*
Y4010D1*
X6446Y4139D2*
X6575D1*
X5319Y4284D2*
Y3982D1*
X5370D1*
X5391Y3997D1*
X5406Y4025D1*
X5413Y4054D1*
X5420Y4097D1*
Y4169D1*
X5413Y4212D1*
X5406Y4240D1*
X5391Y4269D1*
X5370Y4284D1*
X5319D1*
X5453Y4133D2*
X5536D1*
X4454Y4485D2*
Y4184D1*
X4487Y4485D2*
Y4184D1*
X4537D1*
X4559Y4198D1*
X4573Y4227D1*
X4580Y4256D1*
X4587Y4299D1*
Y4370D1*
X4580Y4414D1*
X4573Y4442D1*
X4559Y4471D1*
X4537Y4485D1*
X4487D1*
X9687Y9576D2*
X9673Y9605D1*
X9651Y9619D1*
X9623D1*
X9601Y9605D1*
X9587Y9576D1*
Y9547D1*
X9594Y9518D1*
X9601Y9504D1*
X9615Y9490D1*
X9659Y9461D1*
X9673Y9447D1*
X9680Y9432D1*
X9687Y9404D1*
Y9360D1*
X9673Y9332D1*
X9651Y9317D1*
X9623D1*
X9601Y9332D1*
X9587Y9360D1*
X9720Y9619D2*
Y9317D1*
X9770D1*
X9792Y9332D1*
X9806Y9360D1*
X9813Y9389D1*
X9820Y9432D1*
Y9504D1*
X9813Y9547D1*
X9806Y9576D1*
X9792Y9605D1*
X9770Y9619D1*
X9720D1*
X9968Y9317D2*
X9911Y9619D1*
X9853Y9317D1*
X9875Y9418D2*
X9947D1*
X9622Y8549D2*
X9608Y8578D1*
X9586Y8592D1*
X9557D1*
X9536Y8578D1*
X9521Y8549D1*
Y8520D1*
X9529Y8491D1*
X9536Y8477D1*
X9550Y8463D1*
X9593Y8434D1*
X9608Y8420D1*
X9615Y8405D1*
X9622Y8377D1*
Y8334D1*
X9608Y8305D1*
X9586Y8290D1*
X9557D1*
X9536Y8305D1*
X9521Y8334D1*
X9762Y8520D2*
X9755Y8549D1*
X9741Y8578D1*
X9726Y8592D1*
X9698D1*
X9683Y8578D1*
X9669Y8549D1*
X9662Y8520D1*
X9655Y8477D1*
Y8405D1*
X9662Y8362D1*
X9669Y8334D1*
X9683Y8305D1*
X9698Y8290D1*
X9726D1*
X9741Y8305D1*
X9755Y8334D1*
X9762Y8362D1*
X9795Y8592D2*
Y8290D1*
X9881D1*
X9653Y5532D2*
X9638Y5561D1*
X9617Y5575D1*
X9588D1*
X9567Y5561D1*
X9552Y5532D1*
Y5503D1*
X9559Y5474D1*
X9567Y5460D1*
X9581Y5446D1*
X9624Y5417D1*
X9638Y5403D1*
X9646Y5388D1*
X9653Y5360D1*
Y5317D1*
X9638Y5288D1*
X9617Y5274D1*
X9588D1*
X9567Y5288D1*
X9552Y5317D1*
X9685Y5575D2*
Y5274D1*
X9736D1*
X9757Y5288D1*
X9772Y5317D1*
X9779Y5345D1*
X9786Y5388D1*
Y5460D1*
X9779Y5503D1*
X9772Y5532D1*
X9757Y5561D1*
X9736Y5575D1*
X9685D1*
X9934Y5274D2*
X9876Y5575D1*
X9819Y5274D1*
X9840Y5374D2*
X9912D1*
X9414Y4540D2*
X9400Y4569D1*
X9378Y4583D1*
X9349D1*
X9328Y4569D1*
X9313Y4540D1*
Y4512D1*
X9321Y4483D1*
X9328Y4469D1*
X9342Y4454D1*
X9385Y4425D1*
X9400Y4411D1*
X9407Y4397D1*
X9414Y4368D1*
Y4325D1*
X9400Y4297D1*
X9378Y4282D1*
X9349D1*
X9328Y4297D1*
X9313Y4325D1*
X9554Y4512D2*
X9547Y4540D1*
X9533Y4569D1*
X9518Y4583D1*
X9490D1*
X9475Y4569D1*
X9461Y4540D1*
X9454Y4512D1*
X9447Y4469D1*
Y4397D1*
X9454Y4354D1*
X9461Y4325D1*
X9475Y4297D1*
X9490Y4282D1*
X9518D1*
X9533Y4297D1*
X9547Y4325D1*
X9554Y4354D1*
X9587Y4583D2*
Y4282D1*
X9673D1*
X4140Y7261D2*
Y7563D1*
X4083Y7261D1*
X4025Y7563D1*
Y7261D1*
X4216Y7563D2*
X4202Y7548D1*
X4187Y7519D1*
X4180Y7491D1*
X4173Y7448D1*
Y7376D1*
X4180Y7333D1*
X4187Y7304D1*
X4202Y7276D1*
X4216Y7261D1*
X4245D1*
X4259Y7276D1*
X4273Y7304D1*
X4280Y7333D1*
X4288Y7376D1*
Y7448D1*
X4280Y7491D1*
X4273Y7519D1*
X4259Y7548D1*
X4245Y7563D1*
X4216D1*
X4421Y7519D2*
X4407Y7548D1*
X4385Y7563D1*
X4356D1*
X4335Y7548D1*
X4320Y7519D1*
Y7491D1*
X4328Y7462D1*
X4335Y7448D1*
X4349Y7434D1*
X4392Y7405D1*
X4407Y7390D1*
X4414Y7376D1*
X4421Y7347D1*
Y7304D1*
X4407Y7276D1*
X4385Y7261D1*
X4356D1*
X4335Y7276D1*
X4320Y7304D1*
X4454Y7563D2*
Y7261D1*
X4123Y8291D2*
Y8592D1*
X4065Y8291D1*
X4008Y8592D1*
Y8291D1*
X4156Y8592D2*
Y8291D1*
X4289Y8549D2*
X4275Y8578D1*
X4253Y8592D1*
X4224D1*
X4203Y8578D1*
X4188Y8549D1*
Y8520D1*
X4196Y8492D1*
X4203Y8477D1*
X4217Y8463D1*
X4260Y8434D1*
X4275Y8420D1*
X4282Y8405D1*
X4289Y8377D1*
Y8334D1*
X4275Y8305D1*
X4253Y8291D1*
X4224D1*
X4203Y8305D1*
X4188Y8334D1*
X4365Y8592D2*
X4350Y8578D1*
X4336Y8549D1*
X4329Y8520D1*
X4322Y8477D1*
Y8405D1*
X4329Y8363D1*
X4336Y8334D1*
X4350Y8305D1*
X4365Y8291D1*
X4393D1*
X4408Y8305D1*
X4422Y8334D1*
X4429Y8363D1*
X4436Y8405D1*
Y8477D1*
X4429Y8520D1*
X4422Y8549D1*
X4408Y8578D1*
X4393Y8592D1*
X4365D1*
X4061Y9545D2*
X4047Y9573D1*
X4025Y9588D1*
X3997D1*
X3975Y9573D1*
X3961Y9545D1*
Y9516D1*
X3968Y9487D1*
X3975Y9473D1*
X3989Y9459D1*
X4032Y9430D1*
X4047Y9416D1*
X4054Y9401D1*
X4061Y9372D1*
Y9329D1*
X4047Y9301D1*
X4025Y9286D1*
X3997D1*
X3975Y9301D1*
X3961Y9329D1*
X4201Y9516D2*
X4194Y9545D1*
X4180Y9573D1*
X4166Y9588D1*
X4137D1*
X4123Y9573D1*
X4108Y9545D1*
X4101Y9516D1*
X4094Y9473D1*
Y9401D1*
X4101Y9358D1*
X4108Y9329D1*
X4123Y9301D1*
X4137Y9286D1*
X4166D1*
X4180Y9301D1*
X4194Y9329D1*
X4201Y9358D1*
X4234Y9588D2*
Y9286D1*
X4335Y9588D2*
X4234Y9387D1*
X4270Y9459D2*
X4335Y9286D1*
X4333Y10513D2*
Y10212D1*
X4232Y10513D1*
Y10212D1*
X4466Y10470D2*
X4452Y10499D1*
X4430Y10513D1*
X4402D1*
X4380Y10499D1*
X4366Y10470D1*
Y10442D1*
X4373Y10413D1*
X4380Y10399D1*
X4394Y10384D1*
X4437Y10356D1*
X4452Y10341D1*
X4459Y10327D1*
X4466Y10298D1*
Y10255D1*
X4452Y10227D1*
X4430Y10212D1*
X4402D1*
X4380Y10227D1*
X4366Y10255D1*
X4599Y10470D2*
X4585Y10499D1*
X4564Y10513D1*
X4535D1*
X4513Y10499D1*
X4499Y10470D1*
Y10442D1*
X4506Y10413D1*
X4513Y10399D1*
X4528Y10384D1*
X4571Y10356D1*
X4585Y10341D1*
X4592Y10327D1*
X4599Y10298D1*
Y10255D1*
X4585Y10227D1*
X4564Y10212D1*
X4535D1*
X4513Y10227D1*
X4499Y10255D1*
X9515Y7593D2*
Y7291D1*
X9414Y7593D1*
Y7291D1*
X9548Y7449D2*
X9612D1*
X9634Y7464D1*
X9641Y7478D1*
X9648Y7506D1*
Y7535D1*
X9641Y7564D1*
X9634Y7578D1*
X9612Y7593D1*
X9548D1*
Y7291D1*
X9598Y7449D2*
X9648Y7291D1*
X9781Y7549D2*
X9767Y7578D1*
X9745Y7593D1*
X9717D1*
X9695Y7578D1*
X9681Y7549D1*
Y7521D1*
X9688Y7492D1*
X9695Y7478D1*
X9709Y7464D1*
X9753Y7435D1*
X9767Y7420D1*
X9774Y7406D1*
X9781Y7377D1*
Y7334D1*
X9767Y7306D1*
X9745Y7291D1*
X9717D1*
X9695Y7306D1*
X9681Y7334D1*
X9864Y7593D2*
Y7291D1*
X9814Y7593D2*
X9915D1*
X9344Y6577D2*
Y6276D1*
X9408D1*
X9430Y6291D1*
X9437Y6305D1*
X9444Y6333D1*
Y6376D1*
X9437Y6405D1*
X9430Y6420D1*
X9408Y6434D1*
X9430Y6448D1*
X9437Y6463D1*
X9444Y6491D1*
Y6520D1*
X9437Y6549D1*
X9430Y6563D1*
X9408Y6577D1*
X9344D1*
Y6434D2*
X9408D1*
X9520Y6577D2*
X9506Y6563D1*
X9491Y6534D1*
X9484Y6506D1*
X9477Y6463D1*
Y6391D1*
X9484Y6348D1*
X9491Y6319D1*
X9506Y6291D1*
X9520Y6276D1*
X9549D1*
X9563Y6291D1*
X9578Y6319D1*
X9585Y6348D1*
X9592Y6391D1*
Y6463D1*
X9585Y6506D1*
X9578Y6534D1*
X9563Y6563D1*
X9549Y6577D1*
X9520D1*
X9668D2*
X9653Y6563D1*
X9639Y6534D1*
X9632Y6506D1*
X9625Y6463D1*
Y6391D1*
X9632Y6348D1*
X9639Y6319D1*
X9653Y6291D1*
X9668Y6276D1*
X9696D1*
X9711Y6291D1*
X9725Y6319D1*
X9732Y6348D1*
X9739Y6391D1*
Y6463D1*
X9732Y6506D1*
X9725Y6534D1*
X9711Y6563D1*
X9696Y6577D1*
X9668D1*
X9822D2*
Y6276D1*
X9772Y6577D2*
X9873D1*
X9949D2*
X9927Y6563D1*
X9913Y6520D1*
X9905Y6448D1*
Y6405D1*
X9913Y6333D1*
X9927Y6290D1*
X9949Y6276D1*
X9963D1*
X9984Y6290D1*
X9999Y6333D1*
X10006Y6405D1*
Y6448D1*
X9999Y6520D1*
X9984Y6563D1*
X9963Y6577D1*
X9949D1*
X9999Y6520D2*
X9913Y6333D1*
X9409Y10677D2*
Y10612D1*
X9423Y10591D1*
X9437Y10583D1*
X9466Y10576D1*
X9509D1*
X9538Y10583D1*
X9552Y10591D1*
X9566Y10612D1*
Y10677D1*
X9265D1*
Y10428D2*
X9566Y10486D1*
X9265Y10543D1*
X9365Y10522D2*
Y10450D1*
X9566Y10353D2*
X9552Y10374D1*
X9509Y10389D1*
X9437Y10396D1*
X9394D1*
X9322Y10389D1*
X9279Y10374D1*
X9265Y10353D1*
Y10338D1*
X9279Y10317D1*
X9322Y10302D1*
X9394Y10295D1*
X9437D1*
X9509Y10302D1*
X9552Y10317D1*
X9566Y10338D1*
Y10353D1*
X9509Y10302D2*
X9322Y10389D1*
X8432Y10890D2*
Y10825D1*
X8447Y10804D1*
X8461Y10796D1*
X8490Y10789D1*
X8533D1*
X8561Y10796D1*
X8576Y10804D1*
X8590Y10825D1*
Y10890D1*
X8289D1*
Y10642D2*
X8590Y10699D1*
X8289Y10757D1*
X8389Y10735D2*
Y10663D1*
X8532Y10609D2*
X8547Y10594D1*
X8590Y10573D1*
X8289D1*
X7443Y10906D2*
Y10841D1*
X7458Y10820D1*
X7472Y10813D1*
X7501Y10805D1*
X7544D1*
X7572Y10813D1*
X7587Y10820D1*
X7601Y10841D1*
Y10906D1*
X7300D1*
Y10658D2*
X7601Y10715D1*
X7300Y10773D1*
X7400Y10751D2*
Y10679D1*
X7529Y10618D2*
X7543D1*
X7572Y10610D1*
X7587Y10603D1*
X7601Y10589D1*
Y10560D1*
X7587Y10546D1*
X7572Y10539D1*
X7543Y10532D1*
X7515D1*
X7486Y10539D1*
X7443Y10553D1*
X7300Y10625D1*
Y10524D1*
X6411Y10900D2*
Y10836D1*
X6425Y10814D1*
X6440Y10807D1*
X6468Y10800D1*
X6511D1*
X6540Y10807D1*
X6555Y10814D1*
X6569Y10836D1*
Y10900D1*
X6267D1*
Y10652D2*
X6569Y10710D1*
X6267Y10767D1*
X6368Y10745D2*
Y10674D1*
X6569Y10605D2*
Y10526D1*
X6454Y10569D1*
Y10547D1*
X6440Y10533D1*
X6425Y10526D1*
X6382Y10519D1*
X6354D1*
X6311Y10526D1*
X6282Y10540D1*
X6267Y10562D1*
Y10583D1*
X6282Y10605D1*
X6296Y10612D1*
X6325Y10619D1*
X5426Y10924D2*
Y10860D1*
X5440Y10838D1*
X5455Y10831D1*
X5483Y10824D1*
X5526D1*
X5555Y10831D1*
X5569Y10838D1*
X5584Y10860D1*
Y10924D1*
X5282D1*
Y10676D2*
X5584Y10734D1*
X5282Y10791D1*
X5383Y10770D2*
Y10698D1*
X5282Y10572D2*
X5583D1*
X5383Y10643D1*
Y10536D1*
X4065Y5514D2*
X4058Y5543D1*
X4043Y5572D1*
X4029Y5586D1*
X4001D1*
X3986Y5572D1*
X3972Y5543D1*
X3965Y5514D1*
X3957Y5471D1*
Y5399D1*
X3965Y5357D1*
X3972Y5328D1*
X3986Y5299D1*
X4001Y5285D1*
X4029D1*
X4043Y5299D1*
X4058Y5328D1*
X4065Y5357D1*
X4098Y5586D2*
Y5285D1*
X4198Y5586D2*
Y5285D1*
X4098Y5442D2*
X4198D1*
X4339Y5514D2*
X4332Y5543D1*
X4317Y5572D1*
X4303Y5586D1*
X4274D1*
X4260Y5572D1*
X4246Y5543D1*
X4238Y5514D1*
X4231Y5471D1*
Y5399D1*
X4238Y5357D1*
X4246Y5328D1*
X4260Y5299D1*
X4274Y5285D1*
X4303D1*
X4317Y5299D1*
X4332Y5328D1*
X4339Y5357D1*
Y5399D1*
X4303D1*
X4372Y5586D2*
Y5285D1*
X4422D1*
X4443Y5299D1*
X4458Y5328D1*
X4465Y5357D1*
X4472Y5399D1*
Y5471D1*
X4465Y5514D1*
X4458Y5543D1*
X4443Y5572D1*
X4422Y5586D1*
X4372D1*
X4598D2*
X4505D1*
Y5285D1*
X4598D1*
X4505Y5442D2*
X4562D1*
X4681Y5586D2*
Y5285D1*
X4631Y5586D2*
X4731D1*
X4130Y6531D2*
X4116Y6560D1*
X4094Y6575D1*
X4066D1*
X4044Y6560D1*
X4030Y6531D1*
Y6503D1*
X4037Y6474D1*
X4044Y6460D1*
X4058Y6446D1*
X4101Y6417D1*
X4116Y6402D1*
X4123Y6388D1*
X4130Y6359D1*
Y6316D1*
X4116Y6288D1*
X4094Y6273D1*
X4066D1*
X4044Y6288D1*
X4030Y6316D1*
X4163Y6575D2*
X4199Y6273D1*
X4235Y6575D1*
X4271Y6273D1*
X4307Y6575D1*
X4382D2*
X4368Y6560D1*
X4354Y6531D1*
X4346Y6503D1*
X4339Y6460D1*
Y6388D1*
X4346Y6345D1*
X4354Y6316D1*
X4368Y6288D1*
X4382Y6273D1*
X4411D1*
X4425Y6288D1*
X4440Y6316D1*
X4447Y6345D1*
X4454Y6388D1*
Y6460D1*
X4447Y6503D1*
X4440Y6531D1*
X4425Y6560D1*
X4411Y6575D1*
X4382D1*
M02*
