G04 DipTrace 2.4.0.2*
%INSTM32small.gto*%
%MOMM*%
%ADD10C,0.25*%
%ADD14C,0.114*%
%ADD18C,0.152*%
%ADD23O,0.308X0.357*%
%ADD38O,0.377X0.312*%
%ADD40O,0.507X0.436*%
%ADD50O,0.48X0.525*%
%ADD83C,0.118*%
%ADD85C,0.083*%
%FSLAX53Y53*%
G04*
G71*
G90*
G75*
G01*
%LNTopSilk*%
%LPD*%
X25529Y13487D2*
D18*
X23529D1*
Y16887D1*
X25529D1*
Y13487D1*
X21401Y30635D2*
X18001D1*
Y28635D1*
X21401D1*
Y30635D1*
X14067Y28644D2*
X17467D1*
Y30644D1*
X14067D1*
Y28644D1*
X22347Y14755D2*
X21047D1*
X22347Y16755D2*
X21047D1*
D23*
X22732Y14706D3*
X20870Y13452D2*
D10*
Y12452D1*
X19470Y13452D2*
Y12452D1*
D38*
X20792Y13923D3*
D40*
X21239Y24819D3*
X21467Y24113D2*
D18*
X22067Y23513D1*
Y17513D2*
Y16913D1*
X21467D1*
X14867Y17513D2*
Y16913D1*
X15467D1*
Y24113D2*
X14867D1*
Y23513D1*
D50*
X20427Y28316D3*
G36*
X18207Y24958D2*
X17772D1*
Y25388D1*
X18207D1*
Y24958D1*
G37*
G36*
X18312Y28088D2*
X18027Y28448D1*
X17766Y28088D1*
X17757D1*
D1*
X18312D1*
G37*
X19942Y25408D2*
D18*
X18452D1*
X17677Y26558D2*
Y26928D1*
X19952Y28058D2*
X18452D1*
X20752Y26908D2*
Y26558D1*
X24209Y25216D2*
X22674D1*
X24219Y26869D2*
X22674D1*
X21182Y13830D2*
D83*
Y13064D1*
X21379D1*
X21445Y13101D1*
X21466Y13137D1*
X21488Y13210D1*
Y13319D1*
X21466Y13392D1*
X21445Y13429D1*
X21379Y13465D1*
X21445Y13502D1*
X21466Y13538D1*
X21488Y13611D1*
Y13684D1*
X21466Y13756D1*
X21445Y13793D1*
X21379Y13830D1*
X21182D1*
Y13465D2*
X21379D1*
X21629Y13830D2*
Y13064D1*
X21826D1*
X21892Y13101D1*
X21914Y13137D1*
X21936Y13210D1*
Y13319D1*
X21914Y13392D1*
X21892Y13429D1*
X21826Y13465D1*
X21892Y13502D1*
X21914Y13538D1*
X21936Y13611D1*
Y13684D1*
X21914Y13756D1*
X21892Y13793D1*
X21826Y13830D1*
X21629D1*
Y13465D2*
X21826D1*
X22208Y13830D2*
X22164Y13793D1*
X22121Y13720D1*
X22098Y13648D1*
X22077Y13538D1*
Y13355D1*
X22098Y13247D1*
X22121Y13173D1*
X22164Y13101D1*
X22208Y13064D1*
X22296D1*
X22339Y13101D1*
X22383Y13173D1*
X22405Y13247D1*
X22426Y13355D1*
Y13538D1*
X22405Y13648D1*
X22383Y13720D1*
X22339Y13793D1*
X22296Y13830D1*
X22208D1*
X22699D2*
X22655Y13793D1*
X22612Y13720D1*
X22589Y13648D1*
X22568Y13538D1*
Y13355D1*
X22589Y13247D1*
X22612Y13173D1*
X22655Y13101D1*
X22699Y13064D1*
X22786D1*
X22830Y13101D1*
X22874Y13173D1*
X22896Y13247D1*
X22917Y13355D1*
Y13538D1*
X22896Y13648D1*
X22874Y13720D1*
X22830Y13793D1*
X22786Y13830D1*
X22699D1*
X23212D2*
Y13064D1*
X23059Y13830D2*
X23365D1*
X21590Y28950D2*
X22356D1*
Y29147D1*
X22319Y29213D1*
X22283Y29235D1*
X22210Y29256D1*
X22101D1*
X22027Y29235D1*
X21991Y29213D1*
X21955Y29147D1*
X21918Y29213D1*
X21882Y29235D1*
X21809Y29256D1*
X21736D1*
X21664Y29235D1*
X21627Y29213D1*
X21590Y29147D1*
Y28950D1*
X21955D2*
Y29147D1*
Y29398D2*
Y29594D1*
X21918Y29660D1*
X21882Y29682D1*
X21809Y29704D1*
X21736D1*
X21664Y29682D1*
X21627Y29660D1*
X21590Y29594D1*
Y29398D1*
X22356D1*
X21955Y29551D2*
X22356Y29704D1*
X21700Y30151D2*
X21627Y30108D1*
X21590Y30042D1*
Y29955D1*
X21627Y29889D1*
X21700Y29845D1*
X21772D1*
X21846Y29867D1*
X21882Y29889D1*
X21918Y29932D1*
X21991Y30064D1*
X22027Y30108D1*
X22065Y30130D1*
X22137Y30151D1*
X22246D1*
X22319Y30108D1*
X22356Y30042D1*
Y29955D1*
X22319Y29889D1*
X22246Y29845D1*
X21590Y30446D2*
X22356D1*
X21590Y30292D2*
Y30599D1*
X13079Y28529D2*
X13845D1*
Y28726D1*
X13808Y28792D1*
X13772Y28814D1*
X13699Y28835D1*
X13590D1*
X13517Y28814D1*
X13480Y28792D1*
X13444Y28726D1*
X13407Y28792D1*
X13371Y28814D1*
X13298Y28835D1*
X13225D1*
X13153Y28814D1*
X13116Y28792D1*
X13079Y28726D1*
Y28529D1*
X13444D2*
Y28726D1*
X13079Y29130D2*
X13845D1*
X13079Y28977D2*
Y29283D1*
X13845Y29774D2*
X13079Y29599D1*
X13845Y29424D1*
X13590Y29490D2*
Y29709D1*
X13845Y30265D2*
X13079D1*
X13845Y30090D1*
X13079Y29915D1*
X13845D1*
X13480Y30406D2*
Y30603D1*
X13444Y30669D1*
X13407Y30691D1*
X13335Y30713D1*
X13225D1*
X13153Y30691D1*
X13116Y30669D1*
X13079Y30603D1*
Y30406D1*
X13845D1*
X22606Y22859D2*
X22585Y22932D1*
X22541Y23005D1*
X22497Y23041D1*
X22410D1*
X22366Y23005D1*
X22322Y22932D1*
X22300Y22859D1*
X22278Y22750D1*
Y22567D1*
X22300Y22458D1*
X22322Y22385D1*
X22366Y22313D1*
X22410Y22275D1*
X22497D1*
X22541Y22313D1*
X22585Y22385D1*
X22606Y22458D1*
X22748Y22895D2*
X22792Y22932D1*
X22857Y23040D1*
Y22275D1*
X20310Y15894D2*
X20289Y15967D1*
X20245Y16040D1*
X20201Y16076D1*
X20114D1*
X20070Y16040D1*
X20026Y15967D1*
X20004Y15894D1*
X19982Y15785D1*
Y15602D1*
X20004Y15494D1*
X20026Y15420D1*
X20070Y15348D1*
X20114Y15311D1*
X20201D1*
X20245Y15348D1*
X20289Y15420D1*
X20310Y15494D1*
X20474Y15894D2*
Y15930D1*
X20495Y16003D1*
X20517Y16039D1*
X20561Y16076D1*
X20649D1*
X20692Y16039D1*
X20714Y16003D1*
X20736Y15930D1*
Y15857D1*
X20714Y15784D1*
X20670Y15675D1*
X20452Y15311D1*
X20758D1*
X24058Y29848D2*
X24037Y29920D1*
X23993Y29994D1*
X23949Y30030D1*
X23862D1*
X23818Y29994D1*
X23774Y29920D1*
X23752Y29848D1*
X23730Y29738D1*
Y29556D1*
X23752Y29447D1*
X23774Y29374D1*
X23818Y29301D1*
X23862Y29264D1*
X23949D1*
X23993Y29301D1*
X24037Y29374D1*
X24058Y29447D1*
X24243Y30029D2*
X24483D1*
X24353Y29738D1*
X24418D1*
X24462Y29701D1*
X24483Y29665D1*
X24506Y29556D1*
Y29483D1*
X24483Y29374D1*
X24440Y29300D1*
X24374Y29264D1*
X24309D1*
X24243Y29300D1*
X24222Y29338D1*
X24199Y29410D1*
X22911Y29840D2*
X22890Y29913D1*
X22846Y29986D1*
X22802Y30022D1*
X22715D1*
X22671Y29986D1*
X22627Y29913D1*
X22605Y29840D1*
X22583Y29731D1*
Y29548D1*
X22605Y29439D1*
X22627Y29366D1*
X22671Y29294D1*
X22715Y29257D1*
X22802D1*
X22846Y29294D1*
X22890Y29366D1*
X22911Y29439D1*
X23271Y29257D2*
Y30021D1*
X23053Y29512D1*
X23381D1*
X25138Y22925D2*
X25117Y22997D1*
X25073Y23071D1*
X25029Y23107D1*
X24942D1*
X24898Y23071D1*
X24854Y22997D1*
X24832Y22925D1*
X24810Y22816D1*
Y22633D1*
X24832Y22524D1*
X24854Y22451D1*
X24898Y22378D1*
X24942Y22341D1*
X25029D1*
X25073Y22378D1*
X25117Y22451D1*
X25138Y22524D1*
X25542Y23106D2*
X25323D1*
X25302Y22778D1*
X25323Y22815D1*
X25389Y22852D1*
X25454D1*
X25520Y22815D1*
X25564Y22742D1*
X25586Y22633D1*
Y22560D1*
X25564Y22451D1*
X25520Y22378D1*
X25454Y22341D1*
X25389D1*
X25323Y22378D1*
X25302Y22415D1*
X25279Y22487D1*
X21531Y25505D2*
X21510Y25577D1*
X21466Y25650D1*
X21422Y25687D1*
X21335D1*
X21291Y25650D1*
X21247Y25577D1*
X21225Y25505D1*
X21203Y25395D1*
Y25212D1*
X21225Y25104D1*
X21247Y25031D1*
X21291Y24958D1*
X21335Y24921D1*
X21422D1*
X21466Y24958D1*
X21510Y25031D1*
X21531Y25104D1*
X21935Y25577D2*
X21913Y25650D1*
X21847Y25686D1*
X21804D1*
X21738Y25650D1*
X21694Y25540D1*
X21672Y25358D1*
Y25176D1*
X21694Y25031D1*
X21738Y24957D1*
X21804Y24921D1*
X21826D1*
X21891Y24957D1*
X21935Y25031D1*
X21957Y25140D1*
Y25176D1*
X21935Y25286D1*
X21891Y25358D1*
X21826Y25394D1*
X21804D1*
X21738Y25358D1*
X21694Y25286D1*
X21672Y25176D1*
X20277Y14566D2*
X20255Y14639D1*
X20211Y14712D1*
X20168Y14748D1*
X20080D1*
X20037Y14712D1*
X19993Y14639D1*
X19971Y14566D1*
X19949Y14457D1*
Y14274D1*
X19971Y14165D1*
X19993Y14092D1*
X20037Y14020D1*
X20080Y13983D1*
X20168D1*
X20211Y14020D1*
X20255Y14092D1*
X20277Y14165D1*
X20506Y13983D2*
X20725Y14747D1*
X20418D1*
X17174Y25494D2*
X17152Y25566D1*
X17108Y25639D1*
X17064Y25676D1*
X16977D1*
X16933Y25639D1*
X16890Y25566D1*
X16867Y25494D1*
X16846Y25384D1*
Y25201D1*
X16867Y25093D1*
X16890Y25019D1*
X16933Y24947D1*
X16977Y24910D1*
X17064D1*
X17108Y24947D1*
X17152Y25019D1*
X17174Y25093D1*
X17424Y25675D2*
X17359Y25639D1*
X17337Y25566D1*
Y25493D1*
X17359Y25420D1*
X17402Y25383D1*
X17490Y25347D1*
X17555Y25311D1*
X17599Y25238D1*
X17621Y25165D1*
Y25056D1*
X17599Y24983D1*
X17577Y24946D1*
X17511Y24910D1*
X17424D1*
X17359Y24946D1*
X17337Y24983D1*
X17315Y25056D1*
Y25165D1*
X17337Y25238D1*
X17380Y25311D1*
X17446Y25347D1*
X17533Y25383D1*
X17577Y25420D1*
X17599Y25493D1*
Y25566D1*
X17577Y25639D1*
X17511Y25675D1*
X17424D1*
X23862Y21172D2*
X23841Y21244D1*
X23797Y21317D1*
X23753Y21354D1*
X23666D1*
X23622Y21317D1*
X23578Y21244D1*
X23556Y21172D1*
X23534Y21062D1*
Y20879D1*
X23556Y20771D1*
X23578Y20697D1*
X23622Y20625D1*
X23666Y20588D1*
X23753D1*
X23797Y20625D1*
X23841Y20697D1*
X23862Y20771D1*
X24288Y21098D2*
X24266Y20989D1*
X24222Y20916D1*
X24157Y20879D1*
X24135D1*
X24069Y20916D1*
X24026Y20989D1*
X24004Y21098D1*
Y21135D1*
X24026Y21244D1*
X24069Y21317D1*
X24135Y21353D1*
X24157D1*
X24222Y21317D1*
X24266Y21244D1*
X24288Y21098D1*
Y20916D1*
X24266Y20734D1*
X24222Y20624D1*
X24157Y20588D1*
X24113D1*
X24048Y20624D1*
X24026Y20697D1*
X13467Y26659D2*
X13394Y26638D1*
X13321Y26594D1*
X13285Y26550D1*
Y26463D1*
X13321Y26419D1*
X13394Y26375D1*
X13467Y26353D1*
X13576Y26331D1*
X13759D1*
X13868Y26353D1*
X13941Y26375D1*
X14013Y26419D1*
X14051Y26463D1*
Y26550D1*
X14013Y26594D1*
X13941Y26638D1*
X13868Y26659D1*
X13431Y26801D2*
X13394Y26845D1*
X13286Y26910D1*
X14051D1*
X13286Y27183D2*
X13322Y27117D1*
X13431Y27073D1*
X13613Y27051D1*
X13723D1*
X13905Y27073D1*
X14014Y27117D1*
X14051Y27183D1*
Y27226D1*
X14014Y27292D1*
X13905Y27335D1*
X13723Y27358D1*
X13613D1*
X13431Y27335D1*
X13322Y27292D1*
X13286Y27226D1*
Y27183D1*
X13431Y27335D2*
X13905Y27073D1*
X15654Y26042D2*
X15632Y26114D1*
X15588Y26187D1*
X15545Y26223D1*
X15457D1*
X15413Y26187D1*
X15370Y26114D1*
X15348Y26042D1*
X15326Y25932D1*
Y25749D1*
X15348Y25641D1*
X15370Y25567D1*
X15413Y25495D1*
X15457Y25458D1*
X15545D1*
X15588Y25495D1*
X15632Y25567D1*
X15654Y25641D1*
X15795Y26077D2*
X15839Y26114D1*
X15905Y26223D1*
Y25458D1*
X16046Y26077D2*
X16090Y26114D1*
X16155Y26223D1*
Y25458D1*
X14139Y16973D2*
X14117Y17045D1*
X14073Y17118D1*
X14030Y17154D1*
X13942D1*
X13898Y17118D1*
X13855Y17045D1*
X13833Y16973D1*
X13811Y16863D1*
Y16680D1*
X13833Y16572D1*
X13855Y16498D1*
X13898Y16426D1*
X13942Y16389D1*
X14030D1*
X14073Y16426D1*
X14117Y16498D1*
X14139Y16572D1*
X14280Y17008D2*
X14324Y17045D1*
X14390Y17154D1*
Y16389D1*
X14553Y16972D2*
Y17008D1*
X14575Y17081D1*
X14597Y17117D1*
X14641Y17154D1*
X14728D1*
X14772Y17117D1*
X14793Y17081D1*
X14816Y17008D1*
Y16935D1*
X14793Y16862D1*
X14750Y16754D1*
X14531Y16389D1*
X14837D1*
X13802Y20219D2*
X13780Y20291D1*
X13736Y20365D1*
X13692Y20401D1*
X13605D1*
X13561Y20365D1*
X13518Y20291D1*
X13495Y20219D1*
X13474Y20109D1*
Y19927D1*
X13495Y19818D1*
X13518Y19745D1*
X13561Y19672D1*
X13605Y19635D1*
X13692D1*
X13736Y19672D1*
X13780Y19745D1*
X13802Y19818D1*
X13943Y20254D2*
X13987Y20291D1*
X14052Y20400D1*
Y19635D1*
X14238Y20400D2*
X14478D1*
X14347Y20108D1*
X14412D1*
X14456Y20072D1*
X14478Y20036D1*
X14500Y19927D1*
Y19854D1*
X14478Y19745D1*
X14434Y19671D1*
X14368Y19635D1*
X14303D1*
X14238Y19671D1*
X14216Y19708D1*
X14194Y19781D1*
X13435Y25551D2*
Y24785D1*
X13697D1*
X13839Y25404D2*
X13883Y25441D1*
X13948Y25550D1*
Y24785D1*
X22655Y12905D2*
Y12140D1*
X22917D1*
X23080Y12723D2*
Y12759D1*
X23102Y12832D1*
X23124Y12868D1*
X23168Y12904D1*
X23255D1*
X23299Y12868D1*
X23320Y12832D1*
X23343Y12759D1*
Y12686D1*
X23320Y12613D1*
X23277Y12504D1*
X23058Y12140D1*
X23364D1*
X22528Y18715D2*
X22725D1*
X22790Y18752D1*
X22813Y18788D1*
X22834Y18861D1*
Y18934D1*
X22813Y19007D1*
X22790Y19044D1*
X22725Y19080D1*
X22528D1*
Y18314D1*
X22681Y18715D2*
X22834Y18314D1*
X22975Y18933D2*
X23019Y18970D1*
X23085Y19079D1*
Y18314D1*
X13450Y22599D2*
X13647D1*
X13713Y22636D1*
X13735Y22672D1*
X13757Y22745D1*
Y22818D1*
X13735Y22891D1*
X13713Y22928D1*
X13647Y22964D1*
X13450D1*
Y22198D1*
X13603Y22599D2*
X13757Y22198D1*
X13920Y22781D2*
Y22817D1*
X13942Y22891D1*
X13963Y22927D1*
X14007Y22963D1*
X14095D1*
X14138Y22927D1*
X14160Y22891D1*
X14182Y22817D1*
Y22745D1*
X14160Y22672D1*
X14117Y22563D1*
X13898Y22198D1*
X14204D1*
X22493Y17022D2*
X22690D1*
X22755Y17059D1*
X22778Y17095D1*
X22799Y17167D1*
Y17241D1*
X22778Y17313D1*
X22755Y17350D1*
X22690Y17386D1*
X22493D1*
Y16621D1*
X22646Y17022D2*
X22799Y16621D1*
X22984Y17385D2*
X23224D1*
X23094Y17094D1*
X23159D1*
X23203Y17058D1*
X23224Y17022D1*
X23247Y16912D1*
Y16840D1*
X23224Y16730D1*
X23181Y16657D1*
X23115Y16621D1*
X23050D1*
X22984Y16657D1*
X22963Y16694D1*
X22940Y16766D1*
X18485Y13481D2*
X18681D1*
X18747Y13518D1*
X18769Y13554D1*
X18791Y13627D1*
Y13700D1*
X18769Y13772D1*
X18747Y13810D1*
X18681Y13846D1*
X18485D1*
Y13080D1*
X18638Y13481D2*
X18791Y13080D1*
X19151D2*
Y13845D1*
X18932Y13335D1*
X19260D1*
X17849Y16167D2*
X17806Y16240D1*
X17740Y16276D1*
X17653D1*
X17587Y16240D1*
X17543Y16167D1*
Y16095D1*
X17565Y16021D1*
X17587Y15985D1*
X17631Y15949D1*
X17762Y15876D1*
X17806Y15839D1*
X17828Y15802D1*
X17849Y15730D1*
Y15620D1*
X17806Y15548D1*
X17740Y15511D1*
X17653D1*
X17587Y15548D1*
X17543Y15620D1*
X17991Y16276D2*
X18100Y15511D1*
X18209Y16276D1*
X18319Y15511D1*
X18428Y16276D1*
X18569D2*
Y15511D1*
X18723D1*
X18788Y15548D1*
X18832Y15620D1*
X18854Y15694D1*
X18876Y15802D1*
Y15985D1*
X18854Y16095D1*
X18832Y16167D1*
X18788Y16240D1*
X18723Y16276D1*
X18569D1*
X14082Y24025D2*
Y23478D1*
X14104Y23369D1*
X14148Y23296D1*
X14213Y23259D1*
X14257D1*
X14323Y23296D1*
X14367Y23369D1*
X14388Y23478D1*
Y24025D1*
X14529Y23878D2*
X14573Y23915D1*
X14639Y24024D1*
Y23259D1*
X19883Y25255D2*
X20190Y24489D1*
Y25255D2*
X19883Y24489D1*
X20331Y25108D2*
X20375Y25145D1*
X20441Y25254D1*
Y24489D1*
X23016Y24953D2*
X23322Y24188D1*
Y24953D2*
X23016Y24188D1*
X23486Y24771D2*
Y24807D1*
X23507Y24880D1*
X23529Y24916D1*
X23573Y24952D1*
X23660D1*
X23704Y24916D1*
X23726Y24880D1*
X23748Y24807D1*
Y24734D1*
X23726Y24661D1*
X23682Y24552D1*
X23463Y24188D1*
X23770D1*
X25711Y15436D2*
D85*
X25857Y14671D1*
X26003Y15436D1*
X26086D2*
Y14671D1*
X26214D1*
X26268Y14708D1*
X26305Y14780D1*
X26323Y14853D1*
X26341Y14962D1*
Y15145D1*
X26323Y15254D1*
X26305Y15327D1*
X26268Y15400D1*
X26214Y15436D1*
X26086D1*
X26425D2*
Y14671D1*
X26552D1*
X26607Y14708D1*
X26644Y14780D1*
X26662Y14853D1*
X26680Y14962D1*
Y15145D1*
X26662Y15254D1*
X26644Y15327D1*
X26607Y15400D1*
X26552Y15436D1*
X26425D1*
X25225Y12175D2*
X25207Y12247D1*
X25170Y12321D1*
X25134Y12357D1*
X25061D1*
X25024Y12321D1*
X24988Y12247D1*
X24970Y12175D1*
X24952Y12066D1*
Y11883D1*
X24970Y11774D1*
X24988Y11701D1*
X25024Y11628D1*
X25061Y11591D1*
X25134D1*
X25170Y11628D1*
X25207Y11701D1*
X25225Y11774D1*
Y11883D1*
X25134D1*
X25564Y12357D2*
Y11591D1*
X25308Y12357D1*
Y11591D1*
X25647Y12357D2*
Y11591D1*
X25774D1*
X25829Y11628D1*
X25866Y11701D1*
X25884Y11774D1*
X25902Y11883D1*
Y12066D1*
X25884Y12175D1*
X25866Y12247D1*
X25829Y12321D1*
X25774Y12357D1*
X25647D1*
X25601Y17601D2*
X25765D1*
X25820Y17637D1*
X25838Y17674D1*
X25856Y17747D1*
Y17856D1*
X25838Y17929D1*
X25820Y17966D1*
X25765Y18002D1*
X25601D1*
Y17236D1*
X26231D2*
X26085Y18002D1*
X25940Y17236D1*
X25994Y17492D2*
X26177D1*
X26315Y17856D2*
X26351Y17893D1*
X26406Y18001D1*
Y17236D1*
X26708Y18001D2*
X26526D1*
X26508Y17674D1*
X26526Y17710D1*
X26581Y17747D1*
X26635D1*
X26690Y17710D1*
X26727Y17637D1*
X26745Y17528D1*
Y17455D1*
X26727Y17346D1*
X26690Y17273D1*
X26635Y17236D1*
X26581D1*
X26526Y17273D1*
X26508Y17310D1*
X26490Y17382D1*
X25598Y20139D2*
X25762D1*
X25816Y20176D1*
X25835Y20213D1*
X25853Y20285D1*
Y20395D1*
X25835Y20467D1*
X25816Y20504D1*
X25762Y20540D1*
X25598D1*
Y19775D1*
X25936Y20540D2*
Y19775D1*
X26101D1*
X26155Y19812D1*
X26174Y19848D1*
X26192Y19920D1*
Y20030D1*
X26174Y20103D1*
X26155Y20139D1*
X26101Y20176D1*
X26155Y20213D1*
X26174Y20249D1*
X26192Y20321D1*
Y20395D1*
X26174Y20467D1*
X26155Y20504D1*
X26101Y20540D1*
X25936D1*
Y20176D2*
X26101D1*
X26312Y20540D2*
X26512D1*
X26403Y20248D1*
X26457D1*
X26494Y20212D1*
X26512Y20176D1*
X26530Y20066D1*
Y19994D1*
X26512Y19884D1*
X26475Y19811D1*
X26421Y19775D1*
X26366D1*
X26312Y19811D1*
X26294Y19848D1*
X26275Y19920D1*
X25255Y20956D2*
Y21120D1*
X25219Y21174D1*
X25182Y21193D1*
X25109Y21211D1*
X25000D1*
X24927Y21193D1*
X24890Y21174D1*
X24854Y21120D1*
Y20956D1*
X25620D1*
X24854Y21294D2*
X25620D1*
Y21459D1*
X25583Y21513D1*
X25547Y21532D1*
X25474Y21550D1*
X25365D1*
X25291Y21532D1*
X25255Y21513D1*
X25219Y21459D1*
X25182Y21513D1*
X25146Y21532D1*
X25073Y21550D1*
X25000D1*
X24927Y21532D1*
X24890Y21513D1*
X24854Y21459D1*
Y21294D1*
X25219D2*
Y21459D1*
X25620Y21815D2*
X24855D1*
X25365Y21633D1*
Y21906D1*
X25267Y23552D2*
Y23716D1*
X25231Y23770D1*
X25194Y23789D1*
X25121Y23807D1*
X25012D1*
X24939Y23789D1*
X24902Y23770D1*
X24866Y23716D1*
Y23552D1*
X25632D1*
X24866Y23890D2*
X25632D1*
Y24055D1*
X25595Y24109D1*
X25559Y24127D1*
X25486Y24146D1*
X25377D1*
X25303Y24127D1*
X25267Y24109D1*
X25231Y24055D1*
X25194Y24109D1*
X25158Y24127D1*
X25085Y24146D1*
X25012D1*
X24939Y24127D1*
X24902Y24109D1*
X24866Y24055D1*
Y23890D1*
X25231D2*
Y24055D1*
X24867Y24447D2*
Y24266D1*
X25195Y24247D1*
X25158Y24266D1*
X25121Y24320D1*
Y24375D1*
X25158Y24429D1*
X25231Y24466D1*
X25340Y24484D1*
X25413D1*
X25522Y24466D1*
X25596Y24429D1*
X25632Y24375D1*
Y24320D1*
X25596Y24266D1*
X25559Y24247D1*
X25486Y24229D1*
X24548Y26108D2*
D14*
X25569D1*
X24548Y25768D1*
X25569D1*
X25034Y26219D2*
Y26437D1*
X24985Y26510D1*
X24937Y26535D1*
X24840Y26559D1*
X24742D1*
X24646Y26535D1*
X24596Y26510D1*
X24548Y26437D1*
Y26219D1*
X25569D1*
X25034Y26389D2*
X25569Y26559D1*
X24694Y27011D2*
X24596Y26962D1*
X24548Y26889D1*
Y26792D1*
X24596Y26719D1*
X24694Y26670D1*
X24791D1*
X24888Y26695D1*
X24937Y26719D1*
X24985Y26768D1*
X25083Y26914D1*
X25131Y26962D1*
X25180Y26987D1*
X25277Y27011D1*
X25423D1*
X25520Y26962D1*
X25569Y26889D1*
Y26792D1*
X25520Y26719D1*
X25423Y26670D1*
X24548Y27292D2*
X25569D1*
X24548Y27122D2*
Y27462D1*
X25095Y28296D2*
Y28515D1*
X25046Y28587D1*
X24997Y28612D1*
X24900Y28636D1*
X24754D1*
X24658Y28612D1*
X24608Y28587D1*
X24560Y28515D1*
Y28296D1*
X25581D1*
Y29136D2*
X24560Y28941D1*
X25581Y28747D1*
X25241Y28820D2*
Y29063D1*
X24561Y29393D2*
X24610Y29320D1*
X24756Y29271D1*
X24998Y29247D1*
X25144D1*
X25387Y29271D1*
X25533Y29320D1*
X25581Y29393D1*
Y29442D1*
X25533Y29515D1*
X25387Y29563D1*
X25144Y29588D1*
X24998D1*
X24756Y29563D1*
X24610Y29515D1*
X24561Y29442D1*
Y29393D1*
X24756Y29563D2*
X25387Y29271D1*
X25289Y30385D2*
D85*
Y30550D1*
X25253Y30604D1*
X25216Y30623D1*
X25144Y30641D1*
X25034D1*
X24962Y30623D1*
X24925Y30604D1*
X24889Y30550D1*
Y30385D1*
X25654D1*
Y31016D2*
X24889Y30870D1*
X25654Y30724D1*
X25399Y30779D2*
Y30961D1*
X25654Y31282D2*
X24889D1*
X25399Y31099D1*
Y31373D1*
X22727Y30630D2*
Y30795D1*
X22691Y30849D1*
X22653Y30868D1*
X22581Y30886D1*
X22472D1*
X22399Y30868D1*
X22362Y30849D1*
X22326Y30795D1*
Y30630D1*
X23091D1*
Y31261D2*
X22326Y31115D1*
X23091Y30969D1*
X22836Y31024D2*
Y31206D1*
X22327Y31563D2*
Y31381D1*
X22654Y31363D1*
X22618Y31381D1*
X22581Y31436D1*
Y31490D1*
X22618Y31545D1*
X22691Y31581D1*
X22800Y31599D1*
X22872D1*
X22982Y31581D1*
X23055Y31545D1*
X23091Y31490D1*
Y31436D1*
X23055Y31381D1*
X23018Y31363D1*
X22946Y31344D1*
X20190Y30880D2*
Y31044D1*
X20153Y31098D1*
X20116Y31117D1*
X20044Y31135D1*
X19934D1*
X19862Y31117D1*
X19825Y31098D1*
X19789Y31044D1*
Y30880D1*
X20554D1*
Y31510D2*
X19789Y31364D1*
X20554Y31218D1*
X20299Y31273D2*
Y31455D1*
X19898Y31812D2*
X19826Y31794D1*
X19789Y31739D1*
Y31703D1*
X19826Y31648D1*
X19935Y31612D1*
X20117Y31593D1*
X20299D1*
X20445Y31612D1*
X20518Y31648D1*
X20554Y31703D1*
Y31721D1*
X20518Y31775D1*
X20445Y31812D1*
X20335Y31830D1*
X20299D1*
X20190Y31812D1*
X20117Y31775D1*
X20081Y31721D1*
Y31703D1*
X20117Y31648D1*
X20190Y31612D1*
X20299Y31593D1*
X17640Y30894D2*
Y31058D1*
X17603Y31113D1*
X17566Y31131D1*
X17494Y31149D1*
X17384D1*
X17312Y31131D1*
X17275Y31113D1*
X17239Y31058D1*
Y30894D1*
X18004D1*
Y31524D2*
X17239Y31378D1*
X18004Y31233D1*
X17749Y31287D2*
Y31470D1*
X18004Y31681D2*
X17240Y31863D1*
Y31608D1*
X15113Y30894D2*
Y31058D1*
X15077Y31113D1*
X15040Y31131D1*
X14967Y31149D1*
X14858D1*
X14786Y31131D1*
X14748Y31113D1*
X14712Y31058D1*
Y30894D1*
X15478D1*
X14712Y31233D2*
X15478D1*
Y31397D1*
X15441Y31452D1*
X15405Y31470D1*
X15332Y31488D1*
X15223D1*
X15149Y31470D1*
X15113Y31452D1*
X15077Y31397D1*
X15040Y31452D1*
X15004Y31470D1*
X14931Y31488D1*
X14858D1*
X14786Y31470D1*
X14748Y31452D1*
X14712Y31397D1*
Y31233D1*
X15077D2*
Y31397D1*
X14859Y31571D2*
X14822Y31608D1*
X14713Y31663D1*
X15478D1*
X14895Y31764D2*
X14859D1*
X14786Y31783D1*
X14749Y31801D1*
X14713Y31837D1*
Y31910D1*
X14749Y31946D1*
X14786Y31964D1*
X14859Y31983D1*
X14931D1*
X15005Y31964D1*
X15113Y31928D1*
X15478Y31746D1*
Y32001D1*
X12501Y29653D2*
Y29489D1*
X12537Y29435D1*
X12574Y29416D1*
X12647Y29398D1*
X12756D1*
X12829Y29416D1*
X12866Y29435D1*
X12902Y29489D1*
Y29653D1*
X12136D1*
X12902Y29315D2*
X12136D1*
Y29150D1*
X12174Y29096D1*
X12210Y29077D1*
X12282Y29059D1*
X12392D1*
X12465Y29077D1*
X12501Y29096D1*
X12537Y29150D1*
X12574Y29096D1*
X12611Y29077D1*
X12683Y29059D1*
X12756D1*
X12829Y29077D1*
X12866Y29096D1*
X12902Y29150D1*
Y29315D1*
X12537D2*
Y29150D1*
X12756Y28976D2*
X12793Y28939D1*
X12901Y28885D1*
X12136D1*
X12901Y28765D2*
Y28565D1*
X12610Y28674D1*
Y28619D1*
X12574Y28583D1*
X12537Y28565D1*
X12428Y28546D1*
X12355D1*
X12246Y28565D1*
X12173Y28601D1*
X12136Y28656D1*
Y28710D1*
X12173Y28765D1*
X12210Y28783D1*
X12282Y28801D1*
X12169Y27800D2*
X12005D1*
X11951Y27764D1*
X11932Y27727D1*
X11914Y27654D1*
Y27545D1*
X11932Y27472D1*
X11951Y27435D1*
X12005Y27399D1*
X12169D1*
Y28165D1*
X11831Y27399D2*
Y28165D1*
X11666D1*
X11612Y28127D1*
X11594Y28091D1*
X11575Y28019D1*
Y27909D1*
X11594Y27836D1*
X11612Y27800D1*
X11666Y27764D1*
X11612Y27727D1*
X11594Y27690D1*
X11575Y27618D1*
Y27545D1*
X11594Y27472D1*
X11612Y27435D1*
X11666Y27399D1*
X11831D1*
Y27764D2*
X11666D1*
X11492Y27545D2*
X11455Y27508D1*
X11401Y27400D1*
Y28165D1*
X11135D2*
Y27400D1*
X11317Y27909D1*
X11044D1*
X12260Y22740D2*
X12096D1*
X12042Y22703D1*
X12023Y22666D1*
X12005Y22594D1*
Y22484D1*
X12023Y22412D1*
X12042Y22375D1*
X12096Y22339D1*
X12260D1*
Y23104D1*
X11630D2*
X11776Y22339D1*
X11922Y23104D1*
X11867Y22849D2*
X11684D1*
X11309Y22594D2*
X11328Y22703D1*
X11364Y22777D1*
X11419Y22813D1*
X11437D1*
X11492Y22777D1*
X11528Y22703D1*
X11546Y22594D1*
Y22558D1*
X11528Y22448D1*
X11492Y22376D1*
X11437Y22340D1*
X11419D1*
X11364Y22376D1*
X11328Y22448D1*
X11309Y22594D1*
Y22777D1*
X11328Y22959D1*
X11364Y23068D1*
X11419Y23104D1*
X11455D1*
X11510Y23068D1*
X11528Y22995D1*
X12675Y24810D2*
D14*
Y24591D1*
X12723Y24519D1*
X12773Y24494D1*
X12869Y24470D1*
X13015D1*
X13112Y24494D1*
X13161Y24519D1*
X13210Y24591D1*
Y24810D1*
X12189D1*
X13210Y24359D2*
X12189D1*
Y24140D1*
X12238Y24067D1*
X12287Y24043D1*
X12383Y24019D1*
X12529D1*
X12627Y24043D1*
X12675Y24067D1*
X12723Y24140D1*
X12773Y24067D1*
X12821Y24043D1*
X12918Y24019D1*
X13015D1*
X13112Y24043D1*
X13161Y24067D1*
X13210Y24140D1*
Y24359D1*
X12723D2*
Y24140D1*
X13014Y23908D2*
X13064Y23859D1*
X13209Y23786D1*
X12189D1*
X13209Y23383D2*
Y23626D1*
X12772Y23650D1*
X12820Y23626D1*
X12869Y23553D1*
Y23480D1*
X12820Y23407D1*
X12723Y23358D1*
X12577Y23334D1*
X12481D1*
X12335Y23358D1*
X12237Y23407D1*
X12189Y23480D1*
Y23553D1*
X12237Y23626D1*
X12287Y23650D1*
X12383Y23675D1*
X12490Y16630D2*
D85*
Y16465D1*
X12526Y16411D1*
X12563Y16392D1*
X12636Y16374D1*
X12745D1*
X12818Y16392D1*
X12855Y16411D1*
X12891Y16465D1*
Y16630D1*
X12125D1*
X12891Y16291D2*
X12125D1*
Y16127D1*
X12162Y16072D1*
X12199Y16054D1*
X12271Y16036D1*
X12381D1*
X12454Y16054D1*
X12490Y16072D1*
X12526Y16127D1*
X12563Y16072D1*
X12600Y16054D1*
X12672Y16036D1*
X12745D1*
X12818Y16054D1*
X12855Y16072D1*
X12891Y16127D1*
Y16291D1*
X12526D2*
Y16127D1*
X12744Y15952D2*
X12782Y15916D1*
X12890Y15861D1*
X12125D1*
X12890Y15668D2*
X12854Y15723D1*
X12744Y15760D1*
X12563Y15778D1*
X12453D1*
X12271Y15760D1*
X12162Y15723D1*
X12125Y15668D1*
Y15632D1*
X12162Y15577D1*
X12271Y15541D1*
X12453Y15523D1*
X12563D1*
X12744Y15541D1*
X12854Y15577D1*
X12890Y15632D1*
Y15668D1*
X12744Y15541D2*
X12271Y15760D1*
X12477Y14389D2*
Y14225D1*
X12513Y14170D1*
X12550Y14152D1*
X12623Y14134D1*
X12732D1*
X12805Y14152D1*
X12842Y14170D1*
X12878Y14225D1*
Y14389D1*
X12112D1*
X12878Y14050D2*
X12112D1*
Y13886D1*
X12149Y13831D1*
X12186Y13813D1*
X12258Y13795D1*
X12368D1*
X12441Y13813D1*
X12477Y13831D1*
X12513Y13886D1*
X12550Y13831D1*
X12587Y13813D1*
X12659Y13795D1*
X12732D1*
X12805Y13813D1*
X12842Y13831D1*
X12878Y13886D1*
Y14050D1*
X12513D2*
Y13886D1*
X12877Y13621D2*
X12841Y13675D1*
X12768Y13694D1*
X12695D1*
X12623Y13675D1*
X12586Y13639D1*
X12549Y13566D1*
X12513Y13511D1*
X12440Y13475D1*
X12368Y13457D1*
X12258D1*
X12186Y13475D1*
X12149Y13493D1*
X12112Y13548D1*
Y13621D1*
X12149Y13675D1*
X12186Y13694D1*
X12258Y13712D1*
X12368D1*
X12440Y13694D1*
X12513Y13657D1*
X12549Y13603D1*
X12586Y13530D1*
X12623Y13493D1*
X12695Y13475D1*
X12768D1*
X12841Y13493D1*
X12877Y13548D1*
Y13621D1*
X13583Y12510D2*
X13747D1*
X13801Y12547D1*
X13820Y12584D1*
X13838Y12656D1*
Y12766D1*
X13820Y12838D1*
X13801Y12875D1*
X13747Y12911D1*
X13583D1*
Y12146D1*
X14213D2*
X14067Y12911D1*
X13921Y12146D1*
X13976Y12401D2*
X14158D1*
X14387Y12911D2*
X14333Y12874D1*
X14315Y12802D1*
Y12729D1*
X14333Y12656D1*
X14369Y12619D1*
X14442Y12583D1*
X14497Y12547D1*
X14533Y12473D1*
X14551Y12401D1*
Y12291D1*
X14533Y12219D1*
X14515Y12182D1*
X14460Y12146D1*
X14387D1*
X14333Y12182D1*
X14315Y12219D1*
X14296Y12291D1*
Y12401D1*
X14315Y12473D1*
X14351Y12547D1*
X14405Y12583D1*
X14478Y12619D1*
X14515Y12656D1*
X14533Y12729D1*
Y12802D1*
X14515Y12874D1*
X14460Y12911D1*
X14387D1*
X15688Y12528D2*
X15852D1*
X15906Y12564D1*
X15925Y12601D1*
X15943Y12673D1*
Y12783D1*
X15925Y12855D1*
X15906Y12892D1*
X15852Y12928D1*
X15688D1*
Y12163D1*
X16318D2*
X16172Y12928D1*
X16026Y12163D1*
X16081Y12418D2*
X16263D1*
X16401Y12782D2*
X16438Y12819D1*
X16493Y12928D1*
Y12163D1*
X16686Y12928D2*
X16631Y12891D1*
X16594Y12782D1*
X16576Y12600D1*
Y12490D1*
X16594Y12309D1*
X16631Y12199D1*
X16686Y12163D1*
X16722D1*
X16776Y12199D1*
X16813Y12309D1*
X16831Y12490D1*
Y12600D1*
X16813Y12782D1*
X16776Y12891D1*
X16722Y12928D1*
X16686D1*
X16813Y12782D2*
X16594Y12309D1*
X18016Y12522D2*
X18180D1*
X18234Y12558D1*
X18253Y12596D1*
X18271Y12668D1*
Y12777D1*
X18253Y12850D1*
X18234Y12887D1*
X18180Y12923D1*
X18016D1*
Y12158D1*
X18646D2*
X18500Y12923D1*
X18354Y12158D1*
X18409Y12413D2*
X18591D1*
X18729Y12777D2*
X18766Y12814D1*
X18821Y12922D1*
Y12158D1*
X18904Y12777D2*
X18941Y12814D1*
X18996Y12922D1*
Y12158D1*
X21282Y12495D2*
X21446D1*
X21501Y12531D1*
X21519Y12568D1*
X21537Y12640D1*
Y12750D1*
X21519Y12822D1*
X21501Y12859D1*
X21446Y12896D1*
X21282D1*
Y12130D1*
X21912D2*
X21766Y12896D1*
X21621Y12130D1*
X21675Y12385D2*
X21858D1*
X21996Y12749D2*
X22032Y12786D1*
X22087Y12895D1*
Y12130D1*
X22189Y12713D2*
Y12749D1*
X22207Y12822D1*
X22225Y12859D1*
X22262Y12895D1*
X22335D1*
X22371Y12859D1*
X22389Y12822D1*
X22408Y12749D1*
Y12677D1*
X22389Y12603D1*
X22353Y12495D1*
X22171Y12130D1*
X22426D1*
X12209Y20183D2*
X12045D1*
X11990Y20147D1*
X11972Y20110D1*
X11954Y20038D1*
Y19928D1*
X11972Y19856D1*
X11990Y19819D1*
X12045Y19783D1*
X12209D1*
Y20548D1*
X11870Y19783D2*
Y20548D1*
X11706D1*
X11651Y20511D1*
X11633Y20475D1*
X11615Y20402D1*
Y20293D1*
X11633Y20220D1*
X11651Y20183D1*
X11706Y20147D1*
X11651Y20110D1*
X11633Y20074D1*
X11615Y20002D1*
Y19928D1*
X11633Y19856D1*
X11651Y19819D1*
X11706Y19783D1*
X11870D1*
Y20147D2*
X11706D1*
X11295Y20038D2*
X11313Y20147D1*
X11349Y20221D1*
X11404Y20257D1*
X11422D1*
X11477Y20221D1*
X11513Y20147D1*
X11532Y20038D1*
Y20002D1*
X11513Y19892D1*
X11477Y19820D1*
X11422Y19783D1*
X11404D1*
X11349Y19820D1*
X11313Y19892D1*
X11295Y20038D1*
Y20221D1*
X11313Y20402D1*
X11349Y20512D1*
X11404Y20548D1*
X11440D1*
X11495Y20512D1*
X11513Y20439D1*
M02*
