G04 DipTrace 2.4.0.2*
%INSTM32small.gtp*%
%MOMM*%
%ADD20R,0.57X0.56*%
%ADD21R,0.56X0.57*%
%ADD22R,0.7X0.9*%
%ADD24R,0.6X0.25*%
%ADD25R,1.1X1.0*%
%ADD26R,0.9X0.7*%
%ADD27R,1.0X1.1*%
%ADD36R,0.9X0.75*%
%ADD37R,0.75X0.9*%
%ADD39R,0.4X0.5*%
%ADD41O,2.222X2.222*%
%ADD42O,1.905X1.904*%
%ADD45R,0.3X0.55*%
%ADD46R,0.55X0.3*%
%ADD52R,1.2X1.1*%
%ADD53R,0.7X1.4*%
%FSLAX53Y53*%
G04*
G71*
G90*
G75*
G01*
%LNTopPaste*%
%LPD*%
D20*
X25117Y16470D3*
X23957D3*
Y13920D3*
X25117D3*
D21*
X18434Y30223D3*
Y29063D3*
X20984D3*
Y30223D3*
X17050Y29072D3*
Y30232D3*
X14500D3*
Y29072D3*
D22*
X23366Y23428D3*
Y22128D3*
D24*
X22280Y15013D3*
Y15513D3*
Y16013D3*
Y16513D3*
X21130D3*
Y16013D3*
Y15513D3*
Y15013D3*
D22*
X24160Y27393D3*
Y28693D3*
X22756Y27381D3*
Y28681D3*
X24412Y23433D3*
Y22133D3*
X21247Y27553D3*
Y26253D3*
G36*
X23108Y14609D2*
Y13909D1*
X22208D1*
Y14609D1*
X23108D1*
G37*
G36*
X21808D2*
Y13909D1*
X20908D1*
Y14609D1*
X21808D1*
G37*
G36*
X16827Y26757D2*
X17527D1*
Y25857D1*
X16827D1*
Y26757D1*
G37*
G36*
Y28057D2*
X17527D1*
Y27157D1*
X16827D1*
Y28057D1*
G37*
G36*
X24511Y19808D2*
Y20508D1*
X25411D1*
Y19808D1*
X24511D1*
G37*
G36*
X23211D2*
Y20508D1*
X24111D1*
Y19808D1*
X23211D1*
G37*
D25*
X14073Y27940D3*
X15773D3*
D26*
X14559Y26694D3*
X15859D3*
G36*
X14982Y16330D2*
Y15630D1*
X14082D1*
Y16330D1*
X14982D1*
G37*
G36*
X16282D2*
Y15630D1*
X15382D1*
Y16330D1*
X16282D1*
G37*
D27*
X13231Y18977D3*
Y17277D3*
D36*
X12741Y27283D3*
Y25883D3*
D37*
X25261Y12957D3*
X23861D3*
D26*
X23714Y18800D3*
X25014D3*
D22*
X12963Y22650D3*
Y21350D3*
D26*
X25074Y17522D3*
X23774D3*
D39*
X20528Y13460D3*
X19828D3*
Y12460D3*
X20528D3*
D41*
X18475Y20521D3*
D42*
X20063Y22109D3*
Y18934D3*
X16888Y22109D3*
Y18934D3*
D45*
X21225Y23897D3*
X20725D3*
X20225D3*
X19725D3*
X19225D3*
X18725D3*
X18225D3*
X17725D3*
X17225D3*
X16725D3*
X16225D3*
X15725D3*
D46*
X15100Y23272D3*
Y22772D3*
Y22272D3*
Y21772D3*
Y21272D3*
Y20772D3*
Y20272D3*
Y19772D3*
Y19272D3*
Y18772D3*
Y18272D3*
Y17772D3*
D45*
X15725Y17147D3*
X16225D3*
X16725D3*
X17225D3*
X17725D3*
X18225D3*
X18725D3*
X19225D3*
X19725D3*
X20225D3*
X20725D3*
X21225D3*
D46*
X21850Y17772D3*
Y18272D3*
Y18772D3*
Y19272D3*
Y19772D3*
Y20272D3*
Y20772D3*
Y21272D3*
Y21772D3*
Y22272D3*
Y22772D3*
Y23272D3*
D52*
X20060Y27441D3*
X18360D3*
Y26041D3*
X20060D3*
D53*
X24217Y26043D3*
X22717D3*
M02*
