G04 DipTrace 2.4.0.2*
%INSTM32small.gbo*%
%MOIN*%
%ADD70C,0.0044*%
%FSLAX44Y44*%
G04*
G70*
G90*
G75*
G01*
%LNBotSilk*%
%LPD*%
X9164Y5587D2*
D70*
X9288D1*
Y5185D1*
Y5395D2*
X9212D1*
X9110Y5453D2*
X9053Y5185D1*
X9072Y5108D1*
X9091Y5070D1*
X9110Y5051D1*
X9120D1*
X8995Y5453D2*
X9053Y5185D1*
X8952Y5587D2*
Y5185D1*
Y5395D2*
X8932Y5434D1*
X8913Y5453D1*
X8885D1*
X8866Y5434D1*
X8846Y5395D1*
X8837Y5338D1*
Y5300D1*
X8846Y5242D1*
X8866Y5204D1*
X8885Y5185D1*
X8913D1*
X8932Y5204D1*
X8952Y5242D1*
X8793Y5338D2*
X8678D1*
Y5376D1*
X8688Y5415D1*
X8697Y5434D1*
X8717Y5453D1*
X8745D1*
X8764Y5434D1*
X8784Y5395D1*
X8793Y5338D1*
Y5300D1*
X8784Y5242D1*
X8764Y5204D1*
X8745Y5185D1*
X8717D1*
X8697Y5204D1*
X8678Y5242D1*
X8635Y5453D2*
Y5185D1*
Y5338D2*
X8625Y5395D1*
X8606Y5434D1*
X8587Y5453D1*
X8558D1*
X8338Y5587D2*
Y5185D1*
X8223D1*
X8065Y5453D2*
Y5185D1*
Y5395D2*
X8084Y5434D1*
X8103Y5453D1*
X8131D1*
X8151Y5434D1*
X8170Y5395D1*
X8179Y5338D1*
Y5300D1*
X8170Y5242D1*
X8151Y5204D1*
X8131Y5185D1*
X8103D1*
X8084Y5204D1*
X8065Y5242D1*
X8021Y5587D2*
Y5185D1*
Y5395D2*
X8002Y5434D1*
X7983Y5453D1*
X7954D1*
X7935Y5434D1*
X7916Y5395D1*
X7906Y5338D1*
Y5300D1*
X7916Y5242D1*
X7935Y5204D1*
X7954Y5185D1*
X7983D1*
X8002Y5204D1*
X8021Y5242D1*
X7757Y5395D2*
X7767Y5434D1*
X7795Y5453D1*
X7824D1*
X7853Y5434D1*
X7862Y5395D1*
X7853Y5357D1*
X7834Y5338D1*
X7786Y5319D1*
X7767Y5300D1*
X7757Y5261D1*
Y5242D1*
X7767Y5204D1*
X7795Y5185D1*
X7824D1*
X7853Y5204D1*
X7862Y5242D1*
X7537Y5587D2*
Y5185D1*
X7493Y5453D2*
Y5185D1*
Y5376D2*
X7465Y5434D1*
X7445Y5453D1*
X7417D1*
X7398Y5434D1*
X7388Y5376D1*
Y5185D1*
X7229Y5395D2*
X7249Y5434D1*
X7268Y5453D1*
X7296D1*
X7316Y5434D1*
X7335Y5395D1*
X7344Y5338D1*
Y5300D1*
X7335Y5242D1*
X7316Y5204D1*
X7296Y5185D1*
X7268D1*
X7249Y5204D1*
X7229Y5242D1*
X7176Y5223D2*
X7186Y5204D1*
X7176Y5185D1*
X7166Y5204D1*
X7176Y5223D1*
X9291Y5940D2*
X9205D1*
X9176Y5959D1*
X9167Y5978D1*
X9157Y6016D1*
Y6055D1*
X9167Y6093D1*
X9176Y6112D1*
X9205Y6131D1*
X9291D1*
Y5729D1*
X9224Y5940D2*
X9157Y5729D1*
X9113Y5882D2*
X8999D1*
Y5921D1*
X9008Y5959D1*
X9018Y5978D1*
X9037Y5997D1*
X9066D1*
X9085Y5978D1*
X9104Y5940D1*
X9113Y5882D1*
Y5844D1*
X9104Y5787D1*
X9085Y5749D1*
X9066Y5729D1*
X9037D1*
X9018Y5749D1*
X8999Y5787D1*
X8955Y5997D2*
X8897Y5729D1*
X8840Y5997D1*
X8563Y6131D2*
X8591Y6112D1*
X8611Y6054D1*
X8620Y5959D1*
Y5901D1*
X8611Y5806D1*
X8591Y5748D1*
X8563Y5729D1*
X8544D1*
X8515Y5748D1*
X8496Y5806D1*
X8486Y5901D1*
Y5959D1*
X8496Y6054D1*
X8515Y6112D1*
X8544Y6131D1*
X8563D1*
X8496Y6054D2*
X8611Y5806D1*
X8433Y5768D2*
X8442Y5748D1*
X8433Y5729D1*
X8423Y5748D1*
X8433Y5768D1*
X8255Y5997D2*
X8265Y5940D1*
X8284Y5901D1*
X8312Y5882D1*
X8322D1*
X8351Y5901D1*
X8370Y5940D1*
X8379Y5997D1*
Y6016D1*
X8370Y6074D1*
X8351Y6112D1*
X8322Y6131D1*
X8312D1*
X8284Y6112D1*
X8265Y6074D1*
X8255Y5997D1*
Y5901D1*
X8265Y5806D1*
X8284Y5748D1*
X8312Y5729D1*
X8331D1*
X8360Y5748D1*
X8370Y5787D1*
X8025Y6035D2*
Y6054D1*
X8016Y6093D1*
X8006Y6112D1*
X7987Y6131D1*
X7949D1*
X7930Y6112D1*
X7920Y6093D1*
X7910Y6054D1*
Y6016D1*
X7920Y5978D1*
X7939Y5921D1*
X8035Y5729D1*
X7901D1*
X7800Y6131D2*
X7828Y6112D1*
X7848Y6054D1*
X7857Y5959D1*
Y5901D1*
X7848Y5806D1*
X7828Y5748D1*
X7800Y5729D1*
X7781D1*
X7752Y5748D1*
X7733Y5806D1*
X7723Y5901D1*
Y5959D1*
X7733Y6054D1*
X7752Y6112D1*
X7781Y6131D1*
X7800D1*
X7733Y6054D2*
X7848Y5806D1*
X7679Y6054D2*
X7660Y6074D1*
X7631Y6131D1*
Y5729D1*
X7492D2*
Y6131D1*
X7588Y5863D1*
X7444D1*
X9138Y6604D2*
X9157Y6642D1*
X9185Y6661D1*
X9224D1*
X9252Y6642D1*
X9272Y6604D1*
Y6565D1*
X9262Y6527D1*
X9252Y6508D1*
X9233Y6489D1*
X9176Y6451D1*
X9157Y6432D1*
X9147Y6412D1*
X9138Y6374D1*
Y6317D1*
X9157Y6279D1*
X9185Y6259D1*
X9224D1*
X9252Y6279D1*
X9272Y6317D1*
X9027Y6661D2*
Y6259D1*
X9094Y6661D2*
X8960D1*
X8763Y6259D2*
Y6661D1*
X8840Y6259D1*
X8916Y6661D1*
Y6259D1*
X8700Y6661D2*
X8595D1*
X8652Y6508D1*
X8624D1*
X8605Y6489D1*
X8595Y6470D1*
X8585Y6412D1*
Y6374D1*
X8595Y6317D1*
X8614Y6278D1*
X8643Y6259D1*
X8672D1*
X8700Y6278D1*
X8710Y6298D1*
X8719Y6336D1*
X8532Y6565D2*
Y6584D1*
X8523Y6623D1*
X8513Y6642D1*
X8494Y6661D1*
X8456D1*
X8437Y6642D1*
X8427Y6623D1*
X8417Y6584D1*
Y6546D1*
X8427Y6508D1*
X8446Y6451D1*
X8542Y6259D1*
X8408D1*
M02*
