G04 DipTrace 2.4.0.2*
%INSTM32small.g2l*%
%MOMM*%
%ADD18C,0.152*%
%ADD20C,1.6*%
%ADD22C,1.7*%
%ADD38C,0.711*%
%ADD42C,0.457*%
%FSLAX53Y53*%
G04*
G71*
G90*
G75*
G01*
%LNInner1_Plane*%
%LPD*%
D42*
X18249Y24949D3*
X16150Y25482D3*
X15517Y25799D3*
X15474Y24463D3*
X15802Y17252D3*
X16098Y16728D3*
X23844Y13924D3*
X24860Y12918D3*
X24379Y13271D3*
X16693Y16724D3*
X17115Y16239D3*
X18401Y16756D3*
X18410Y16132D3*
X24723Y20652D3*
X15411Y15430D3*
X20190Y16836D3*
X18194Y13807D3*
X15834Y13528D3*
X22276Y18374D3*
X13519Y21521D3*
X14896Y24161D3*
X14467Y23558D3*
X22699Y21966D3*
X22610Y22599D3*
X13843Y21024D3*
X25502Y12420D3*
X23754Y15015D3*
X20409Y14423D3*
X23735Y15933D3*
Y16833D3*
X22213Y24693D3*
X23224Y16402D3*
X14519Y16291D3*
X20295Y13173D3*
X19706Y13218D3*
X20206Y11636D3*
X21751Y16444D3*
X21308Y16453D3*
X21321Y15518D3*
X13190Y16416D3*
X20438Y15560D3*
X12919Y17403D3*
X14808Y15671D3*
X13546Y24707D3*
X20060Y13622D3*
X21393Y25847D3*
X24662Y25270D3*
X20430Y15036D3*
X22429Y26835D3*
X16973Y27149D3*
X15354Y27138D3*
X24365Y23445D3*
X23234Y15477D3*
X24515Y15434D3*
X24491Y14906D3*
X25169Y15071D3*
X22767Y17328D3*
X14719Y29578D2*
D18*
X15458D1*
X17260D2*
X17997D1*
X19799D2*
X20538D1*
X22340D2*
X23077D1*
X14792Y29429D2*
X15384D1*
X17334D2*
X17923D1*
X19872D2*
X20462D1*
X22414D2*
X23003D1*
X14840Y29281D2*
X15337D1*
X17381D2*
X17875D1*
X19920D2*
X20417D1*
X22461D2*
X22956D1*
X12619Y29132D2*
X12772D1*
X14864D2*
X15313D1*
X17405D2*
X17852D1*
X19944D2*
X20393D1*
X22483D2*
X22932D1*
X25024D2*
X25157D1*
X12472Y28983D2*
X12772D1*
X14866D2*
X15310D1*
X17405D2*
X17849D1*
X19946D2*
X20391D1*
X22485D2*
X22929D1*
X25026D2*
X25307D1*
X12325Y28835D2*
X12791D1*
X14847D2*
X15329D1*
X17386D2*
X17871D1*
X19927D2*
X20410D1*
X22466D2*
X22951D1*
X25005D2*
X25454D1*
X12177Y28686D2*
X12833D1*
X14804D2*
X15372D1*
X17343D2*
X17913D1*
X19884D2*
X20452D1*
X22423D2*
X22994D1*
X24964D2*
X25604D1*
X12030Y28537D2*
X12902D1*
X14735D2*
X15441D1*
X17274D2*
X17982D1*
X19815D2*
X20521D1*
X22354D2*
X23062D1*
X24896D2*
X25751D1*
X11883Y28389D2*
X13004D1*
X14633D2*
X15543D1*
X17172D2*
X18082D1*
X19713D2*
X20623D1*
X22252D2*
X23162D1*
X24793D2*
X25901D1*
X11736Y28240D2*
X13154D1*
X14484D2*
X15693D1*
X17022D2*
X18234D1*
X19564D2*
X20773D1*
X22103D2*
X23312D1*
X24644D2*
X26050D1*
X11588Y28091D2*
X13401D1*
X14234D2*
X15942D1*
X16775D2*
X18481D1*
X19314D2*
X21022D1*
X21856D2*
X23561D1*
X24394D2*
X26197D1*
X11441Y27943D2*
X26347D1*
X11294Y27794D2*
X26494D1*
X11147Y27645D2*
X26644D1*
X11584Y27497D2*
X26212D1*
X11892Y27348D2*
X25905D1*
X12059Y27199D2*
X25737D1*
X12170Y27051D2*
X25625D1*
X12249Y26902D2*
X25549D1*
X12296Y26753D2*
X25499D1*
X12322Y26605D2*
X25473D1*
X12327Y26456D2*
X25471D1*
X12308Y26307D2*
X25487D1*
X12268Y26159D2*
X15211D1*
X15823D2*
X25528D1*
X12201Y26010D2*
X15090D1*
X15944D2*
X25594D1*
X12104Y25861D2*
X15042D1*
X16431D2*
X25694D1*
X11959Y25713D2*
X15047D1*
X16566D2*
X24511D1*
X24812D2*
X25836D1*
X10599Y25564D2*
X10834D1*
X11724D2*
X15104D1*
X16621D2*
X24290D1*
X25036D2*
X26072D1*
X26964D2*
X27197D1*
X10599Y25415D2*
X15242D1*
X16623D2*
X24207D1*
X25116D2*
X27197D1*
X10599Y25267D2*
X15726D1*
X16576D2*
X17897D1*
X18599D2*
X24183D1*
X25140D2*
X27197D1*
X10599Y25118D2*
X13318D1*
X13773D2*
X15850D1*
X16450D2*
X17802D1*
X18694D2*
X22015D1*
X22411D2*
X24210D1*
X25114D2*
X27197D1*
X10599Y24969D2*
X11019D1*
X11539D2*
X13149D1*
X13942D2*
X17771D1*
X18725D2*
X21827D1*
X22599D2*
X24295D1*
X25029D2*
X26259D1*
X26777D2*
X27197D1*
X11873Y24821D2*
X13083D1*
X14009D2*
X15166D1*
X15783D2*
X17788D1*
X18709D2*
X21754D1*
X22673D2*
X24537D1*
X24786D2*
X25922D1*
X12047Y24672D2*
X13068D1*
X14023D2*
X15047D1*
X15901D2*
X17864D1*
X18635D2*
X21735D1*
X22692D2*
X25749D1*
X12163Y24523D2*
X13106D1*
X13987D2*
X14593D1*
X15949D2*
X18051D1*
X18445D2*
X21768D1*
X22658D2*
X25632D1*
X12242Y24375D2*
X13209D1*
X13883D2*
X14470D1*
X15944D2*
X21863D1*
X22563D2*
X25554D1*
X12294Y24226D2*
X14422D1*
X15887D2*
X25502D1*
X12322Y24077D2*
X14427D1*
X15745D2*
X25475D1*
X12327Y23929D2*
X14175D1*
X15312D2*
X25468D1*
X12310Y23780D2*
X14047D1*
X15175D2*
X24029D1*
X24698D2*
X25485D1*
X12272Y23631D2*
X13995D1*
X14940D2*
X23925D1*
X24803D2*
X25523D1*
X12208Y23483D2*
X13995D1*
X14940D2*
X23889D1*
X24841D2*
X25587D1*
X12113Y23334D2*
X14047D1*
X14887D2*
X23901D1*
X24829D2*
X25682D1*
X11973Y23185D2*
X14178D1*
X14757D2*
X23967D1*
X24763D2*
X25822D1*
X10599Y23037D2*
X10805D1*
X11750D2*
X22445D1*
X22775D2*
X24131D1*
X24596D2*
X26045D1*
X26990D2*
X27197D1*
X10599Y22888D2*
X22234D1*
X22986D2*
X27197D1*
X10599Y22739D2*
X22153D1*
X23067D2*
X27197D1*
X10599Y22591D2*
X22131D1*
X23088D2*
X27197D1*
X10599Y22442D2*
X11078D1*
X11477D2*
X22160D1*
X23060D2*
X26319D1*
X26717D2*
X27197D1*
X11854Y22293D2*
X22248D1*
X23041D2*
X25941D1*
X12035Y22145D2*
X22257D1*
X23140D2*
X25760D1*
X12156Y21996D2*
X22222D1*
X23176D2*
X25642D1*
X12237Y21847D2*
X13175D1*
X13861D2*
X22236D1*
X23162D2*
X25559D1*
X12291Y21699D2*
X13076D1*
X13961D2*
X22307D1*
X23091D2*
X25506D1*
X12320Y21550D2*
X13042D1*
X13997D2*
X22481D1*
X22917D2*
X25475D1*
X12327Y21401D2*
X13057D1*
X14127D2*
X25468D1*
X12313Y21253D2*
X13128D1*
X14260D2*
X25483D1*
X12277Y21104D2*
X13304D1*
X14315D2*
X24609D1*
X24836D2*
X25521D1*
X12215Y20955D2*
X13370D1*
X14315D2*
X24359D1*
X25088D2*
X25582D1*
X12123Y20807D2*
X13420D1*
X14267D2*
X24271D1*
X25173D2*
X25673D1*
X11987Y20658D2*
X13546D1*
X14142D2*
X24245D1*
X25200D2*
X25808D1*
X10605Y20509D2*
X10781D1*
X11776D2*
X24267D1*
X25178D2*
X26022D1*
X27014D2*
X27193D1*
X10599Y20361D2*
X24347D1*
X25097D2*
X27197D1*
X10599Y20212D2*
X24563D1*
X24881D2*
X27197D1*
X10599Y20063D2*
X27197D1*
X10599Y19915D2*
X11173D1*
X11384D2*
X26414D1*
X26625D2*
X27197D1*
X11833Y19766D2*
X25962D1*
X12023Y19617D2*
X25772D1*
X12147Y19469D2*
X25649D1*
X12232Y19320D2*
X25566D1*
X12287Y19171D2*
X25509D1*
X12318Y19023D2*
X25478D1*
X12327Y18874D2*
X25468D1*
X12315Y18725D2*
X21958D1*
X22592D2*
X25480D1*
X12280Y18577D2*
X21844D1*
X22706D2*
X25516D1*
X12220Y18428D2*
X21801D1*
X22751D2*
X25575D1*
X12132Y18279D2*
X21808D1*
X22744D2*
X25663D1*
X12002Y18131D2*
X21868D1*
X22684D2*
X25794D1*
X10624Y17982D2*
X10758D1*
X11797D2*
X22015D1*
X22537D2*
X25998D1*
X27038D2*
X27171D1*
X10599Y17833D2*
X27197D1*
X10599Y17685D2*
X15622D1*
X15982D2*
X22457D1*
X23076D2*
X27197D1*
X10599Y17536D2*
X15422D1*
X16184D2*
X22338D1*
X23195D2*
X27197D1*
X10599Y17387D2*
X15344D1*
X16260D2*
X22293D1*
X23243D2*
X27197D1*
X10636Y17239D2*
X10743D1*
X11812D2*
X15325D1*
X16279D2*
X19946D1*
X20433D2*
X22298D1*
X23238D2*
X23497D1*
X23972D2*
X25984D1*
X27052D2*
X27159D1*
X12009Y17090D2*
X15353D1*
X16992D2*
X18065D1*
X18737D2*
X19787D1*
X20592D2*
X22355D1*
X23181D2*
X23336D1*
X24136D2*
X25787D1*
X12137Y16941D2*
X15443D1*
X17117D2*
X17961D1*
X18842D2*
X19723D1*
X20656D2*
X22497D1*
X23038D2*
X23269D1*
X24200D2*
X25658D1*
X12225Y16793D2*
X15624D1*
X17165D2*
X17925D1*
X18877D2*
X19714D1*
X20666D2*
X22960D1*
X24212D2*
X25570D1*
X12282Y16644D2*
X14204D1*
X14833D2*
X15629D1*
X17355D2*
X17937D1*
X18865D2*
X19754D1*
X20625D2*
X22813D1*
X24174D2*
X25513D1*
X12315Y16495D2*
X14087D1*
X14949D2*
X15683D1*
X17516D2*
X18004D1*
X18799D2*
X19861D1*
X20518D2*
X22756D1*
X24067D2*
X25480D1*
X12327Y16347D2*
X14045D1*
X14994D2*
X15821D1*
X17581D2*
X17985D1*
X18835D2*
X22749D1*
X23957D2*
X25468D1*
X12318Y16198D2*
X13009D1*
X13811D2*
X14049D1*
X14987D2*
X16638D1*
X17592D2*
X17937D1*
X18884D2*
X22794D1*
X24128D2*
X25480D1*
X12284Y16049D2*
X12843D1*
X13978D2*
X14109D1*
X14928D2*
X16678D1*
X17552D2*
X17940D1*
X18880D2*
X22908D1*
X24197D2*
X25511D1*
X12227Y15901D2*
X12750D1*
X14068D2*
X14256D1*
X14783D2*
X16785D1*
X17445D2*
X17994D1*
X18827D2*
X23032D1*
X24212D2*
X25568D1*
X12142Y15752D2*
X12703D1*
X14118D2*
X15063D1*
X15759D2*
X18130D1*
X18690D2*
X22846D1*
X24867D2*
X25656D1*
X12014Y15603D2*
X12686D1*
X14134D2*
X14966D1*
X15856D2*
X22773D1*
X24960D2*
X25782D1*
X10643Y15455D2*
X10736D1*
X11821D2*
X12703D1*
X14118D2*
X14933D1*
X15887D2*
X22756D1*
X23915D2*
X24036D1*
X25444D2*
X25977D1*
X27059D2*
X27152D1*
X10599Y15306D2*
X12753D1*
X14068D2*
X14949D1*
X15873D2*
X22789D1*
X25584D2*
X27197D1*
X10599Y15157D2*
X12845D1*
X13975D2*
X15021D1*
X15799D2*
X18054D1*
X18927D2*
X22884D1*
X25639D2*
X27197D1*
X10599Y15009D2*
X13009D1*
X13809D2*
X15204D1*
X15616D2*
X17904D1*
X19074D2*
X23276D1*
X25644D2*
X27197D1*
X10599Y14860D2*
X17821D1*
X19160D2*
X23302D1*
X25596D2*
X27197D1*
X10617Y14711D2*
X10765D1*
X11790D2*
X17776D1*
X19203D2*
X23390D1*
X25475D2*
X26005D1*
X27031D2*
X27178D1*
X11997Y14563D2*
X17766D1*
X19215D2*
X23642D1*
X23865D2*
X24167D1*
X24817D2*
X25798D1*
X12128Y14414D2*
X17788D1*
X19193D2*
X25668D1*
X12220Y14265D2*
X13249D1*
X13572D2*
X17845D1*
X19136D2*
X23516D1*
X24171D2*
X25578D1*
X12280Y14117D2*
X12940D1*
X13878D2*
X17835D1*
X19034D2*
X23407D1*
X24280D2*
X25516D1*
X12315Y13968D2*
X12807D1*
X14013D2*
X15676D1*
X15992D2*
X17745D1*
X18849D2*
X23369D1*
X24321D2*
X25483D1*
X12327Y13819D2*
X12731D1*
X14089D2*
X15460D1*
X16210D2*
X17716D1*
X18671D2*
X23378D1*
X24309D2*
X25468D1*
X12318Y13671D2*
X12693D1*
X14127D2*
X15379D1*
X16291D2*
X17735D1*
X18652D2*
X23442D1*
X24627D2*
X25478D1*
X12289Y13522D2*
X12688D1*
X14132D2*
X15356D1*
X16312D2*
X17814D1*
X18573D2*
X23599D1*
X24782D2*
X25509D1*
X12232Y13373D2*
X12715D1*
X14106D2*
X15384D1*
X16286D2*
X18018D1*
X18371D2*
X23913D1*
X24955D2*
X25563D1*
X12149Y13225D2*
X12776D1*
X14044D2*
X15470D1*
X16198D2*
X23903D1*
X25221D2*
X25646D1*
X12028Y13076D2*
X12888D1*
X13933D2*
X15719D1*
X15949D2*
X23944D1*
X25309D2*
X25768D1*
X11840Y12927D2*
X13099D1*
X13719D2*
X24053D1*
X25337D2*
X25955D1*
X11014Y12779D2*
X11133D1*
X11425D2*
X24402D1*
X25810D2*
X26371D1*
X26665D2*
X26777D1*
X11161Y12630D2*
X24483D1*
X25931D2*
X26627D1*
X11311Y12481D2*
X24689D1*
X25976D2*
X26478D1*
X11460Y12333D2*
X25034D1*
X25971D2*
X26328D1*
X11607Y12184D2*
X13330D1*
X14305D2*
X15869D1*
X16847D2*
X18410D1*
X19386D2*
X23490D1*
X24466D2*
X25088D1*
X25917D2*
X26178D1*
X11757Y12035D2*
X13114D1*
X14522D2*
X15652D1*
X17063D2*
X18194D1*
X19602D2*
X23274D1*
X24682D2*
X25231D1*
X25774D2*
X26026D1*
X11904Y11887D2*
X12976D1*
X14659D2*
X15517D1*
X17198D2*
X18056D1*
X19739D2*
X23136D1*
X24820D2*
X25877D1*
X12054Y11738D2*
X12883D1*
X14752D2*
X15424D1*
X17293D2*
X17963D1*
X19832D2*
X23043D1*
X24912D2*
X25727D1*
X12204Y11589D2*
X12821D1*
X14816D2*
X15360D1*
X17355D2*
X17902D1*
X19896D2*
X22982D1*
X24974D2*
X25578D1*
X12351Y11441D2*
X12783D1*
X14852D2*
X15325D1*
X17393D2*
X17864D1*
X19932D2*
X22944D1*
X25012D2*
X25428D1*
X12500Y11292D2*
X12769D1*
X14866D2*
X15308D1*
X17407D2*
X17849D1*
X19946D2*
X22929D1*
X25026D2*
X25278D1*
X12648Y11143D2*
X12776D1*
X14861D2*
X15315D1*
X17400D2*
X17856D1*
X19941D2*
X22937D1*
X25021D2*
X25129D1*
X14833Y10995D2*
X15344D1*
X17372D2*
X17885D1*
X19910D2*
X22965D1*
X14778Y10846D2*
X15396D1*
X17319D2*
X17937D1*
X19858D2*
X23017D1*
X14697Y10697D2*
X15479D1*
X17239D2*
X18018D1*
X19777D2*
X23098D1*
X25010Y28968D2*
X24987Y28818D1*
X24943Y28673D1*
X24879Y28536D1*
X24794Y28409D1*
X24693Y28296D1*
X24575Y28200D1*
X24445Y28122D1*
X24305Y28063D1*
X24158Y28026D1*
X24007Y28010D1*
X23855Y28017D1*
X23706Y28046D1*
X23563Y28097D1*
X23429Y28168D1*
X23306Y28258D1*
X23198Y28364D1*
X23107Y28486D1*
X23035Y28619D1*
X22983Y28762D1*
X22952Y28911D1*
X22944Y29062D1*
X22957Y29214D1*
X22993Y29361D1*
X23050Y29502D1*
X23132Y29639D1*
X23067Y29727D1*
X22350D1*
X22286Y29639D1*
X22356Y29521D1*
X22416Y29382D1*
X22455Y29235D1*
X22472Y29084D1*
X22470Y28968D1*
X22447Y28818D1*
X22403Y28673D1*
X22339Y28536D1*
X22254Y28409D1*
X22153Y28296D1*
X22035Y28200D1*
X21905Y28122D1*
X21765Y28063D1*
X21618Y28026D1*
X21467Y28010D1*
X21315Y28017D1*
X21166Y28046D1*
X21023Y28097D1*
X20889Y28168D1*
X20766Y28258D1*
X20658Y28364D1*
X20567Y28486D1*
X20495Y28619D1*
X20443Y28762D1*
X20412Y28911D1*
X20404Y29062D1*
X20417Y29214D1*
X20453Y29361D1*
X20510Y29502D1*
X20592Y29639D1*
X20527Y29727D1*
X19809D1*
X19746Y29639D1*
X19816Y29521D1*
X19876Y29382D1*
X19915Y29235D1*
X19932Y29084D1*
X19930Y28968D1*
X19907Y28818D1*
X19863Y28673D1*
X19799Y28536D1*
X19714Y28409D1*
X19613Y28296D1*
X19495Y28200D1*
X19365Y28122D1*
X19225Y28063D1*
X19078Y28026D1*
X18927Y28010D1*
X18775Y28017D1*
X18626Y28046D1*
X18483Y28097D1*
X18349Y28168D1*
X18226Y28258D1*
X18118Y28364D1*
X18027Y28486D1*
X17955Y28619D1*
X17903Y28762D1*
X17872Y28911D1*
X17864Y29062D1*
X17877Y29214D1*
X17913Y29361D1*
X17970Y29502D1*
X18052Y29639D1*
X17987Y29727D1*
X17268D1*
X17206Y29639D1*
X17276Y29521D1*
X17336Y29382D1*
X17375Y29235D1*
X17392Y29084D1*
X17390Y28968D1*
X17367Y28818D1*
X17323Y28673D1*
X17259Y28536D1*
X17174Y28409D1*
X17073Y28296D1*
X16955Y28200D1*
X16825Y28122D1*
X16685Y28063D1*
X16538Y28026D1*
X16387Y28010D1*
X16235Y28017D1*
X16086Y28046D1*
X15943Y28097D1*
X15809Y28168D1*
X15686Y28258D1*
X15578Y28364D1*
X15487Y28486D1*
X15415Y28619D1*
X15363Y28762D1*
X15332Y28911D1*
X15324Y29062D1*
X15337Y29214D1*
X15373Y29361D1*
X15430Y29502D1*
X15512Y29639D1*
X15447Y29727D1*
X14727D1*
X14666Y29639D1*
X14736Y29521D1*
X14796Y29382D1*
X14835Y29235D1*
X14852Y29084D1*
X14850Y28968D1*
X14827Y28818D1*
X14783Y28673D1*
X14719Y28536D1*
X14634Y28409D1*
X14533Y28296D1*
X14415Y28200D1*
X14285Y28122D1*
X14145Y28063D1*
X13998Y28026D1*
X13847Y28010D1*
X13695Y28017D1*
X13546Y28046D1*
X13403Y28097D1*
X13269Y28168D1*
X13146Y28258D1*
X13038Y28364D1*
X12947Y28486D1*
X12875Y28619D1*
X12823Y28762D1*
X12792Y28911D1*
X12784Y29062D1*
X12797Y29214D1*
X12834Y29364D1*
X10981Y27494D1*
X11116Y27526D1*
X11267Y27539D1*
X11419Y27529D1*
X11567Y27498D1*
X11710Y27445D1*
X11843Y27371D1*
X11963Y27279D1*
X12069Y27171D1*
X12158Y27048D1*
X12228Y26913D1*
X12278Y26769D1*
X12306Y26620D1*
X12312Y26504D1*
X12301Y26353D1*
X12268Y26205D1*
X12214Y26063D1*
X12139Y25931D1*
X12046Y25811D1*
X11936Y25706D1*
X11812Y25618D1*
X11676Y25550D1*
X11532Y25502D1*
X11383Y25475D1*
X11231Y25471D1*
X11080Y25489D1*
X10934Y25529D1*
X10795Y25590D1*
X10684Y25658D1*
X10611Y25603D1*
X10585Y25587D1*
X10584Y24881D1*
X10684Y24812D1*
X10827Y24895D1*
X10968Y24951D1*
X11116Y24986D1*
X11267Y24999D1*
X11419Y24989D1*
X11567Y24958D1*
X11710Y24905D1*
X11843Y24831D1*
X11963Y24739D1*
X12069Y24631D1*
X12158Y24508D1*
X12228Y24373D1*
X12278Y24229D1*
X12306Y24080D1*
X12312Y23964D1*
X12301Y23813D1*
X12268Y23665D1*
X12214Y23523D1*
X12139Y23391D1*
X12046Y23271D1*
X11936Y23166D1*
X11812Y23078D1*
X11676Y23010D1*
X11532Y22962D1*
X11383Y22935D1*
X11231Y22931D1*
X11080Y22949D1*
X10934Y22989D1*
X10795Y23050D1*
X10684Y23118D1*
X10611Y23063D1*
X10585Y23047D1*
X10584Y22344D1*
X10684Y22272D1*
X10827Y22355D1*
X10968Y22411D1*
X11116Y22446D1*
X11267Y22459D1*
X11419Y22449D1*
X11567Y22418D1*
X11710Y22365D1*
X11843Y22291D1*
X11963Y22199D1*
X12069Y22091D1*
X12158Y21968D1*
X12228Y21833D1*
X12278Y21689D1*
X12306Y21540D1*
X12312Y21424D1*
X12301Y21273D1*
X12268Y21125D1*
X12214Y20983D1*
X12139Y20851D1*
X12046Y20731D1*
X11936Y20626D1*
X11812Y20538D1*
X11676Y20470D1*
X11532Y20422D1*
X11383Y20395D1*
X11231Y20391D1*
X11080Y20409D1*
X10934Y20449D1*
X10795Y20510D1*
X10684Y20578D1*
X10611Y20523D1*
X10585Y20507D1*
X10584Y19803D1*
X10684Y19732D1*
X10827Y19815D1*
X10968Y19871D1*
X11116Y19906D1*
X11267Y19919D1*
X11419Y19909D1*
X11567Y19878D1*
X11710Y19825D1*
X11843Y19751D1*
X11963Y19659D1*
X12069Y19551D1*
X12158Y19428D1*
X12228Y19293D1*
X12278Y19149D1*
X12306Y19000D1*
X12312Y18884D1*
X12301Y18733D1*
X12268Y18585D1*
X12214Y18443D1*
X12139Y18311D1*
X12046Y18191D1*
X11936Y18086D1*
X11812Y17998D1*
X11676Y17930D1*
X11532Y17882D1*
X11383Y17855D1*
X11231Y17851D1*
X11080Y17869D1*
X10934Y17909D1*
X10795Y17970D1*
X10684Y18038D1*
X10611Y17983D1*
X10585Y17967D1*
X10584Y17262D1*
X10684Y17192D1*
X10827Y17275D1*
X10968Y17331D1*
X11116Y17366D1*
X11267Y17379D1*
X11419Y17369D1*
X11567Y17338D1*
X11710Y17285D1*
X11843Y17211D1*
X11963Y17119D1*
X12069Y17011D1*
X12158Y16888D1*
X12228Y16753D1*
X12278Y16609D1*
X12306Y16460D1*
X12312Y16344D1*
X12301Y16193D1*
X12268Y16045D1*
X12214Y15903D1*
X12139Y15771D1*
X12046Y15651D1*
X11936Y15546D1*
X11812Y15458D1*
X11676Y15390D1*
X11532Y15342D1*
X11383Y15315D1*
X11231Y15311D1*
X11080Y15329D1*
X10934Y15369D1*
X10795Y15430D1*
X10684Y15498D1*
X10611Y15443D1*
X10585Y15427D1*
X10584Y14725D1*
X10684Y14652D1*
X10827Y14735D1*
X10968Y14791D1*
X11116Y14826D1*
X11267Y14839D1*
X11419Y14829D1*
X11567Y14798D1*
X11710Y14745D1*
X11843Y14671D1*
X11963Y14579D1*
X12069Y14471D1*
X12158Y14348D1*
X12228Y14213D1*
X12278Y14069D1*
X12306Y13920D1*
X12312Y13804D1*
X12301Y13653D1*
X12268Y13505D1*
X12214Y13363D1*
X12139Y13231D1*
X12046Y13111D1*
X11936Y13006D1*
X11812Y12918D1*
X11676Y12850D1*
X11532Y12802D1*
X11383Y12775D1*
X11231Y12771D1*
X11080Y12789D1*
X10954Y12823D1*
X12834Y10943D1*
X12805Y11056D1*
X12785Y11207D1*
X12788Y11358D1*
X12813Y11508D1*
X12859Y11653D1*
X12926Y11789D1*
X13013Y11914D1*
X13117Y12025D1*
X13235Y12119D1*
X13367Y12195D1*
X13508Y12251D1*
X13656Y12286D1*
X13807Y12299D1*
X13959Y12289D1*
X14107Y12258D1*
X14250Y12205D1*
X14383Y12131D1*
X14503Y12039D1*
X14609Y11931D1*
X14698Y11808D1*
X14768Y11673D1*
X14818Y11529D1*
X14846Y11380D1*
X14852Y11264D1*
X14841Y11113D1*
X14808Y10965D1*
X14754Y10823D1*
X14679Y10691D1*
X14664Y10670D1*
X14728Y10583D1*
X15449Y10584D1*
X15512Y10672D1*
X15449Y10771D1*
X15386Y10910D1*
X15345Y11056D1*
X15325Y11207D1*
X15328Y11358D1*
X15353Y11508D1*
X15399Y11653D1*
X15466Y11789D1*
X15553Y11914D1*
X15657Y12025D1*
X15775Y12119D1*
X15907Y12195D1*
X16048Y12251D1*
X16196Y12286D1*
X16347Y12299D1*
X16499Y12289D1*
X16647Y12258D1*
X16790Y12205D1*
X16923Y12131D1*
X17043Y12039D1*
X17149Y11931D1*
X17238Y11808D1*
X17308Y11673D1*
X17358Y11529D1*
X17386Y11380D1*
X17392Y11264D1*
X17381Y11113D1*
X17348Y10965D1*
X17294Y10823D1*
X17219Y10691D1*
X17204Y10670D1*
X17268Y10583D1*
X17990Y10584D1*
X18052Y10672D1*
X17989Y10771D1*
X17926Y10910D1*
X17885Y11056D1*
X17865Y11207D1*
X17868Y11358D1*
X17893Y11508D1*
X17939Y11653D1*
X18006Y11789D1*
X18093Y11914D1*
X18197Y12025D1*
X18315Y12119D1*
X18447Y12195D1*
X18588Y12251D1*
X18736Y12286D1*
X18887Y12299D1*
X19039Y12289D1*
X19187Y12258D1*
X19330Y12205D1*
X19463Y12131D1*
X19583Y12039D1*
X19689Y11931D1*
X19778Y11808D1*
X19848Y11673D1*
X19898Y11529D1*
X19926Y11380D1*
X19932Y11264D1*
X19921Y11113D1*
X19888Y10965D1*
X19834Y10823D1*
X19759Y10691D1*
X19744Y10670D1*
X19808Y10583D1*
X21674Y10584D1*
X23068D1*
X23132Y10672D1*
X23069Y10771D1*
X23006Y10910D1*
X22965Y11056D1*
X22945Y11207D1*
X22948Y11358D1*
X22973Y11508D1*
X23019Y11653D1*
X23086Y11789D1*
X23173Y11914D1*
X23277Y12025D1*
X23395Y12119D1*
X23527Y12195D1*
X23668Y12251D1*
X23816Y12286D1*
X23967Y12299D1*
X24119Y12289D1*
X24267Y12258D1*
X24410Y12205D1*
X24543Y12131D1*
X24663Y12039D1*
X24769Y11931D1*
X24858Y11808D1*
X24928Y11673D1*
X24978Y11529D1*
X25006Y11380D1*
X25012Y11264D1*
X25001Y11113D1*
X24970Y10972D1*
X26835Y12821D1*
X26698Y12786D1*
X26547Y12770D1*
X26395Y12777D1*
X26246Y12806D1*
X26103Y12857D1*
X25969Y12928D1*
X25846Y13018D1*
X25738Y13124D1*
X25647Y13246D1*
X25575Y13379D1*
X25523Y13522D1*
X25492Y13671D1*
X25484Y13822D1*
X25497Y13974D1*
X25533Y14121D1*
X25590Y14262D1*
X25667Y14393D1*
X25763Y14511D1*
X25874Y14614D1*
X26000Y14700D1*
X26136Y14766D1*
X26281Y14811D1*
X26431Y14835D1*
X26583Y14837D1*
X26734Y14816D1*
X26879Y14774D1*
X27017Y14710D1*
X27112Y14651D1*
X27214Y14724D1*
X27212Y15139D1*
Y15426D1*
X27111Y15497D1*
X26985Y15422D1*
X26845Y15363D1*
X26698Y15326D1*
X26547Y15310D1*
X26395Y15317D1*
X26246Y15346D1*
X26103Y15397D1*
X25969Y15468D1*
X25846Y15558D1*
X25738Y15664D1*
X25647Y15786D1*
X25575Y15919D1*
X25523Y16062D1*
X25492Y16211D1*
X25484Y16362D1*
X25497Y16514D1*
X25533Y16661D1*
X25590Y16802D1*
X25667Y16933D1*
X25763Y17051D1*
X25874Y17154D1*
X26000Y17240D1*
X26136Y17306D1*
X26281Y17351D1*
X26431Y17375D1*
X26583Y17377D1*
X26734Y17356D1*
X26879Y17314D1*
X27017Y17250D1*
X27112Y17191D1*
X27214Y17264D1*
X27212Y17495D1*
Y17967D1*
X27111Y18037D1*
X26985Y17962D1*
X26845Y17903D1*
X26698Y17866D1*
X26547Y17850D1*
X26395Y17857D1*
X26246Y17886D1*
X26103Y17937D1*
X25969Y18008D1*
X25846Y18098D1*
X25738Y18204D1*
X25647Y18326D1*
X25575Y18459D1*
X25523Y18602D1*
X25492Y18751D1*
X25484Y18902D1*
X25497Y19054D1*
X25533Y19201D1*
X25590Y19342D1*
X25667Y19473D1*
X25763Y19591D1*
X25874Y19694D1*
X26000Y19780D1*
X26136Y19846D1*
X26281Y19891D1*
X26431Y19915D1*
X26583Y19917D1*
X26734Y19896D1*
X26879Y19854D1*
X27017Y19790D1*
X27112Y19731D1*
X27214Y19804D1*
X27212Y20307D1*
Y20504D1*
X27111Y20577D1*
X26985Y20502D1*
X26845Y20443D1*
X26698Y20406D1*
X26547Y20390D1*
X26395Y20397D1*
X26246Y20426D1*
X26103Y20477D1*
X25969Y20548D1*
X25846Y20638D1*
X25738Y20744D1*
X25647Y20866D1*
X25575Y20999D1*
X25523Y21142D1*
X25492Y21291D1*
X25484Y21442D1*
X25497Y21594D1*
X25533Y21741D1*
X25590Y21882D1*
X25667Y22013D1*
X25763Y22131D1*
X25874Y22234D1*
X26000Y22320D1*
X26136Y22386D1*
X26281Y22431D1*
X26431Y22455D1*
X26583Y22457D1*
X26734Y22436D1*
X26879Y22394D1*
X27017Y22330D1*
X27112Y22271D1*
X27214Y22344D1*
X27212Y22587D1*
Y23045D1*
X27111Y23117D1*
X26985Y23042D1*
X26845Y22983D1*
X26698Y22946D1*
X26547Y22930D1*
X26395Y22937D1*
X26246Y22966D1*
X26103Y23017D1*
X25969Y23088D1*
X25846Y23178D1*
X25738Y23284D1*
X25647Y23406D1*
X25575Y23539D1*
X25523Y23682D1*
X25492Y23831D1*
X25484Y23982D1*
X25497Y24134D1*
X25533Y24281D1*
X25590Y24422D1*
X25667Y24553D1*
X25763Y24671D1*
X25874Y24774D1*
X26000Y24860D1*
X26136Y24926D1*
X26281Y24971D1*
X26431Y24995D1*
X26583Y24997D1*
X26734Y24976D1*
X26879Y24934D1*
X27017Y24870D1*
X27112Y24811D1*
X27214Y24884D1*
X27212Y25399D1*
Y25586D1*
X27111Y25657D1*
X26985Y25582D1*
X26845Y25523D1*
X26698Y25486D1*
X26547Y25470D1*
X26395Y25477D1*
X26246Y25506D1*
X26103Y25557D1*
X25969Y25628D1*
X25846Y25718D1*
X25738Y25824D1*
X25647Y25946D1*
X25575Y26079D1*
X25523Y26222D1*
X25492Y26371D1*
X25484Y26522D1*
X25497Y26674D1*
X25533Y26821D1*
X25590Y26962D1*
X25667Y27093D1*
X25763Y27211D1*
X25874Y27314D1*
X26000Y27400D1*
X26136Y27466D1*
X26281Y27511D1*
X26431Y27535D1*
X26583Y27537D1*
X26734Y27516D1*
X26804Y27500D1*
X24972Y29332D1*
X24995Y29235D1*
X25012Y29084D1*
X25010Y28968D1*
X18705Y24873D2*
X18687Y24799D1*
X18657Y24730D1*
X18615Y24666D1*
X18564Y24610D1*
X18505Y24563D1*
X18438Y24526D1*
X18367Y24501D1*
X18292Y24488D1*
X18216Y24487D1*
X18141Y24498D1*
X18069Y24522D1*
X18002Y24557D1*
X17941Y24603D1*
X17889Y24658D1*
X17846Y24720D1*
X17814Y24789D1*
X17794Y24862D1*
X17786Y24938D1*
X17790Y25014D1*
X17807Y25088D1*
X17836Y25158D1*
X17875Y25223D1*
X17925Y25280D1*
X17984Y25328D1*
X18049Y25367D1*
X18120Y25394D1*
X18195Y25409D1*
X18270Y25411D1*
X18346Y25402D1*
X18418Y25380D1*
X18486Y25346D1*
X18548Y25302D1*
X18602Y25248D1*
X18646Y25186D1*
X18680Y25118D1*
X18701Y25046D1*
X18712Y24949D1*
X18705Y24873D1*
X16607Y25407D2*
X16589Y25333D1*
X16558Y25263D1*
X16517Y25200D1*
X16466Y25143D1*
X16406Y25096D1*
X16340Y25060D1*
X16268Y25034D1*
X16194Y25021D1*
X16118Y25020D1*
X16043Y25032D1*
X15970Y25055D1*
X15903Y25091D1*
X15842Y25136D1*
X15790Y25191D1*
X15747Y25254D1*
X15715Y25323D1*
X15701Y25375D1*
X15635Y25351D1*
X15560Y25338D1*
X15484Y25337D1*
X15409Y25348D1*
X15337Y25372D1*
X15270Y25407D1*
X15209Y25453D1*
X15157Y25508D1*
X15114Y25570D1*
X15082Y25639D1*
X15062Y25713D1*
X15054Y25788D1*
X15058Y25864D1*
X15075Y25938D1*
X15104Y26008D1*
X15143Y26073D1*
X15193Y26130D1*
X15252Y26179D1*
X15317Y26217D1*
X15388Y26244D1*
X15463Y26259D1*
X15539Y26261D1*
X15614Y26252D1*
X15686Y26230D1*
X15755Y26196D1*
X15816Y26152D1*
X15870Y26098D1*
X15914Y26037D1*
X15948Y25968D1*
X15966Y25907D1*
X16022Y25927D1*
X16096Y25942D1*
X16172Y25945D1*
X16247Y25935D1*
X16320Y25913D1*
X16388Y25880D1*
X16450Y25835D1*
X16503Y25782D1*
X16548Y25720D1*
X16581Y25652D1*
X16603Y25579D1*
X16613Y25482D1*
X16607Y25407D1*
X15931Y24388D2*
X15912Y24314D1*
X15882Y24244D1*
X15841Y24181D1*
X15790Y24125D1*
X15730Y24078D1*
X15664Y24041D1*
X15592Y24016D1*
X15517Y24002D1*
X15442Y24001D1*
X15337Y24023D1*
X15304Y23942D1*
X15263Y23878D1*
X15212Y23822D1*
X15153Y23775D1*
X15086Y23738D1*
X15014Y23713D1*
X14909Y23700D1*
X14930Y23579D1*
X14924Y23482D1*
X14905Y23409D1*
X14875Y23339D1*
X14834Y23275D1*
X14783Y23219D1*
X14723Y23172D1*
X14657Y23135D1*
X14585Y23110D1*
X14510Y23097D1*
X14434Y23096D1*
X14359Y23107D1*
X14287Y23131D1*
X14220Y23166D1*
X14159Y23212D1*
X14107Y23267D1*
X14064Y23330D1*
X14032Y23398D1*
X14012Y23472D1*
X14004Y23547D1*
X14009Y23623D1*
X14025Y23697D1*
X14054Y23767D1*
X14094Y23832D1*
X14143Y23889D1*
X14202Y23938D1*
X14268Y23976D1*
X14339Y24003D1*
X14413Y24018D1*
X14458Y24019D1*
X14441Y24075D1*
X14433Y24150D1*
X14438Y24226D1*
X14455Y24300D1*
X14483Y24370D1*
X14523Y24435D1*
X14573Y24492D1*
X14631Y24541D1*
X14697Y24579D1*
X14768Y24606D1*
X14842Y24621D1*
X14918Y24624D1*
X14993Y24614D1*
X15032Y24602D1*
X15061Y24673D1*
X15101Y24737D1*
X15151Y24795D1*
X15209Y24843D1*
X15275Y24881D1*
X15346Y24908D1*
X15420Y24923D1*
X15496Y24926D1*
X15571Y24916D1*
X15644Y24894D1*
X15712Y24861D1*
X15774Y24816D1*
X15827Y24763D1*
X15871Y24701D1*
X15905Y24633D1*
X15927Y24560D1*
X15937Y24463D1*
X15931Y24388D1*
X16259Y17177D2*
X16256Y17165D1*
X16336Y17125D1*
X16399Y17080D1*
X16428Y17103D1*
X16493Y17142D1*
X16564Y17169D1*
X16639Y17184D1*
X16714Y17186D1*
X16790Y17177D1*
X16862Y17155D1*
X16930Y17121D1*
X16992Y17077D1*
X17046Y17023D1*
X17090Y16961D1*
X17124Y16893D1*
X17145Y16821D1*
X17156Y16724D1*
X17154Y16698D1*
X17212Y16692D1*
X17285Y16670D1*
X17353Y16636D1*
X17415Y16592D1*
X17469Y16538D1*
X17513Y16477D1*
X17546Y16409D1*
X17568Y16336D1*
X17578Y16239D1*
X17572Y16163D1*
X17554Y16090D1*
X17523Y16020D1*
X17482Y15956D1*
X17431Y15900D1*
X17372Y15853D1*
X17305Y15816D1*
X17233Y15791D1*
X17159Y15778D1*
X17083Y15777D1*
X17008Y15789D1*
X16936Y15812D1*
X16868Y15847D1*
X16808Y15893D1*
X16755Y15948D1*
X16713Y16011D1*
X16681Y16079D1*
X16660Y16153D1*
X16652Y16228D1*
X16655Y16264D1*
X16585Y16273D1*
X16513Y16297D1*
X16446Y16332D1*
X16394Y16371D1*
X16288Y16306D1*
X16216Y16280D1*
X16141Y16267D1*
X16065Y16266D1*
X15990Y16278D1*
X15918Y16301D1*
X15851Y16336D1*
X15790Y16382D1*
X15738Y16437D1*
X15695Y16500D1*
X15663Y16569D1*
X15643Y16642D1*
X15635Y16717D1*
X15645Y16819D1*
X15555Y16861D1*
X15495Y16906D1*
X15442Y16961D1*
X15400Y17024D1*
X15368Y17093D1*
X15347Y17166D1*
X15339Y17242D1*
X15344Y17317D1*
X15361Y17391D1*
X15389Y17462D1*
X15429Y17526D1*
X15479Y17584D1*
X15537Y17632D1*
X15603Y17670D1*
X15674Y17697D1*
X15748Y17712D1*
X15824Y17715D1*
X15899Y17705D1*
X15972Y17683D1*
X16040Y17650D1*
X16102Y17606D1*
X16156Y17552D1*
X16200Y17490D1*
X16233Y17422D1*
X16255Y17349D1*
X16265Y17252D1*
X16259Y17177D1*
X24301Y13849D2*
X24282Y13775D1*
X24257Y13716D1*
X24325Y13730D1*
X24401Y13733D1*
X24476Y13723D1*
X24549Y13701D1*
X24617Y13668D1*
X24678Y13624D1*
X24732Y13570D1*
X24776Y13508D1*
X24810Y13440D1*
X24828Y13379D1*
X24881Y13380D1*
X24957Y13370D1*
X25029Y13348D1*
X25097Y13315D1*
X25159Y13271D1*
X25213Y13217D1*
X25257Y13155D1*
X25290Y13087D1*
X25312Y13015D1*
X25323Y12918D1*
X25317Y12844D1*
X25374Y12865D1*
X25448Y12880D1*
X25524Y12882D1*
X25599Y12873D1*
X25672Y12851D1*
X25740Y12817D1*
X25802Y12773D1*
X25856Y12719D1*
X25900Y12658D1*
X25933Y12589D1*
X25955Y12517D1*
X25965Y12420D1*
X25959Y12344D1*
X25941Y12271D1*
X25910Y12201D1*
X25869Y12137D1*
X25818Y12081D1*
X25759Y12034D1*
X25692Y11997D1*
X25620Y11972D1*
X25546Y11959D1*
X25470Y11958D1*
X25395Y11969D1*
X25323Y11993D1*
X25255Y12028D1*
X25195Y12074D1*
X25142Y12129D1*
X25100Y12192D1*
X25068Y12260D1*
X25047Y12334D1*
X25039Y12409D1*
X25045Y12492D1*
X24978Y12470D1*
X24903Y12457D1*
X24827Y12456D1*
X24752Y12467D1*
X24680Y12491D1*
X24613Y12526D1*
X24552Y12572D1*
X24499Y12626D1*
X24457Y12689D1*
X24425Y12758D1*
X24410Y12811D1*
X24346Y12809D1*
X24271Y12820D1*
X24199Y12844D1*
X24132Y12879D1*
X24071Y12924D1*
X24019Y12979D1*
X23976Y13042D1*
X23944Y13111D1*
X23924Y13184D1*
X23916Y13260D1*
X23920Y13336D1*
X23937Y13410D1*
X23962Y13477D1*
X23887Y13463D1*
X23811Y13462D1*
X23736Y13474D1*
X23664Y13498D1*
X23597Y13533D1*
X23536Y13578D1*
X23484Y13633D1*
X23441Y13696D1*
X23409Y13765D1*
X23389Y13838D1*
X23381Y13913D1*
X23385Y13989D1*
X23402Y14063D1*
X23431Y14134D1*
X23471Y14198D1*
X23520Y14256D1*
X23579Y14304D1*
X23645Y14342D1*
X23715Y14369D1*
X23790Y14384D1*
X23866Y14387D1*
X23941Y14377D1*
X24014Y14355D1*
X24082Y14322D1*
X24144Y14277D1*
X24197Y14224D1*
X24241Y14162D1*
X24275Y14094D1*
X24297Y14021D1*
X24307Y13924D1*
X24301Y13849D1*
X18858Y16680D2*
X18840Y16607D1*
X18809Y16537D1*
X18747Y16451D1*
X18808Y16369D1*
X18841Y16301D1*
X18863Y16229D1*
X18873Y16132D1*
X18867Y16056D1*
X18849Y15982D1*
X18818Y15913D1*
X18777Y15849D1*
X18726Y15793D1*
X18666Y15746D1*
X18600Y15709D1*
X18528Y15684D1*
X18454Y15671D1*
X18378Y15670D1*
X18303Y15681D1*
X18230Y15705D1*
X18163Y15740D1*
X18102Y15786D1*
X18050Y15841D1*
X18007Y15903D1*
X17975Y15972D1*
X17955Y16045D1*
X17947Y16121D1*
X17952Y16197D1*
X17968Y16271D1*
X17997Y16341D1*
X18037Y16406D1*
X18066Y16440D1*
X18041Y16465D1*
X17999Y16528D1*
X17967Y16597D1*
X17946Y16670D1*
X17938Y16745D1*
X17943Y16821D1*
X17960Y16895D1*
X17988Y16965D1*
X18028Y17030D1*
X18078Y17087D1*
X18136Y17136D1*
X18202Y17174D1*
X18273Y17201D1*
X18347Y17216D1*
X18423Y17219D1*
X18498Y17209D1*
X18571Y17187D1*
X18639Y17153D1*
X18701Y17109D1*
X18755Y17055D1*
X18799Y16994D1*
X18832Y16926D1*
X18854Y16853D1*
X18864Y16756D1*
X18858Y16680D1*
X25180Y20576D2*
X25161Y20503D1*
X25131Y20433D1*
X25090Y20369D1*
X25038Y20313D1*
X24979Y20266D1*
X24912Y20229D1*
X24841Y20204D1*
X24766Y20191D1*
X24690Y20190D1*
X24615Y20202D1*
X24543Y20225D1*
X24476Y20260D1*
X24415Y20306D1*
X24363Y20361D1*
X24320Y20424D1*
X24288Y20492D1*
X24268Y20566D1*
X24260Y20641D1*
X24264Y20717D1*
X24281Y20791D1*
X24310Y20861D1*
X24349Y20926D1*
X24399Y20983D1*
X24458Y21032D1*
X24523Y21070D1*
X24594Y21097D1*
X24669Y21112D1*
X24745Y21115D1*
X24820Y21105D1*
X24892Y21083D1*
X24961Y21049D1*
X25022Y21005D1*
X25076Y20951D1*
X25120Y20890D1*
X25154Y20822D1*
X25176Y20749D1*
X25186Y20652D1*
X25180Y20576D1*
X15868Y15354D2*
X15849Y15281D1*
X15819Y15211D1*
X15778Y15147D1*
X15727Y15091D1*
X15667Y15044D1*
X15600Y15007D1*
X15529Y14982D1*
X15454Y14969D1*
X15378Y14968D1*
X15303Y14980D1*
X15231Y15003D1*
X15164Y15038D1*
X15103Y15084D1*
X15051Y15139D1*
X15008Y15202D1*
X14976Y15270D1*
X14956Y15344D1*
X14948Y15419D1*
X14952Y15495D1*
X14969Y15569D1*
X14998Y15639D1*
X15038Y15704D1*
X15087Y15761D1*
X15146Y15810D1*
X15211Y15848D1*
X15282Y15875D1*
X15357Y15890D1*
X15433Y15893D1*
X15508Y15883D1*
X15581Y15861D1*
X15649Y15827D1*
X15710Y15783D1*
X15764Y15729D1*
X15808Y15668D1*
X15842Y15600D1*
X15864Y15527D1*
X15874Y15430D1*
X15868Y15354D1*
X20647Y16761D2*
X20628Y16687D1*
X20598Y16617D1*
X20557Y16554D1*
X20506Y16497D1*
X20446Y16450D1*
X20379Y16414D1*
X20308Y16388D1*
X20233Y16375D1*
X20157Y16374D1*
X20082Y16386D1*
X20010Y16409D1*
X19943Y16445D1*
X19882Y16490D1*
X19830Y16545D1*
X19787Y16608D1*
X19755Y16677D1*
X19735Y16750D1*
X19727Y16825D1*
X19731Y16901D1*
X19748Y16975D1*
X19777Y17046D1*
X19816Y17110D1*
X19866Y17168D1*
X19925Y17216D1*
X19990Y17254D1*
X20061Y17281D1*
X20136Y17296D1*
X20212Y17299D1*
X20287Y17289D1*
X20360Y17267D1*
X20428Y17234D1*
X20489Y17189D1*
X20543Y17136D1*
X20587Y17074D1*
X20621Y17006D1*
X20643Y16933D1*
X20653Y16836D1*
X20647Y16761D1*
X18651Y13731D2*
X18632Y13658D1*
X18602Y13588D1*
X18561Y13524D1*
X18509Y13468D1*
X18450Y13421D1*
X18383Y13384D1*
X18312Y13359D1*
X18237Y13346D1*
X18161Y13345D1*
X18086Y13356D1*
X18014Y13380D1*
X17947Y13415D1*
X17886Y13461D1*
X17834Y13516D1*
X17791Y13579D1*
X17759Y13647D1*
X17739Y13721D1*
X17731Y13796D1*
X17735Y13872D1*
X17752Y13946D1*
X17781Y14016D1*
X17820Y14081D1*
X17870Y14138D1*
X17916Y14176D1*
X17855Y14272D1*
X17825Y14342D1*
X17803Y14414D1*
X17788Y14489D1*
X17781Y14564D1*
X17783Y14640D1*
X17793Y14716D1*
X17810Y14789D1*
X17836Y14861D1*
X17869Y14929D1*
X17909Y14994D1*
X17956Y15054D1*
X18008Y15108D1*
X18067Y15157D1*
X18130Y15199D1*
X18198Y15234D1*
X18268Y15261D1*
X18342Y15281D1*
X18417Y15293D1*
X18493Y15297D1*
X18568Y15293D1*
X18643Y15280D1*
X18717Y15260D1*
X18787Y15232D1*
X18854Y15196D1*
X18917Y15154D1*
X18975Y15105D1*
X19028Y15050D1*
X19074Y14990D1*
X19114Y14925D1*
X19146Y14856D1*
X19171Y14784D1*
X19188Y14710D1*
X19199Y14588D1*
X19195Y14512D1*
X19183Y14437D1*
X19163Y14364D1*
X19135Y14293D1*
X19100Y14226D1*
X19057Y14163D1*
X19009Y14104D1*
X18954Y14052D1*
X18894Y14005D1*
X18829Y13965D1*
X18761Y13933D1*
X18650Y13898D1*
X18657Y13807D1*
X18651Y13731D1*
X16291Y13452D2*
X16273Y13378D1*
X16243Y13309D1*
X16201Y13245D1*
X16150Y13189D1*
X16091Y13142D1*
X16024Y13105D1*
X15953Y13080D1*
X15878Y13067D1*
X15802Y13066D1*
X15727Y13077D1*
X15655Y13101D1*
X15587Y13136D1*
X15527Y13182D1*
X15474Y13237D1*
X15432Y13299D1*
X15400Y13368D1*
X15380Y13441D1*
X15372Y13517D1*
X15376Y13593D1*
X15393Y13667D1*
X15421Y13737D1*
X15461Y13802D1*
X15511Y13859D1*
X15569Y13907D1*
X15635Y13946D1*
X15706Y13973D1*
X15780Y13988D1*
X15856Y13990D1*
X15932Y13981D1*
X16004Y13959D1*
X16072Y13925D1*
X16134Y13881D1*
X16188Y13827D1*
X16232Y13765D1*
X16265Y13697D1*
X16287Y13625D1*
X16298Y13528D1*
X16291Y13452D1*
X22732Y18298D2*
X22714Y18225D1*
X22684Y18155D1*
X22642Y18092D1*
X22591Y18035D1*
X22532Y17988D1*
X22465Y17952D1*
X22394Y17926D1*
X22319Y17913D1*
X22243Y17912D1*
X22168Y17924D1*
X22096Y17947D1*
X22029Y17982D1*
X21968Y18028D1*
X21916Y18083D1*
X21873Y18146D1*
X21841Y18215D1*
X21821Y18288D1*
X21813Y18363D1*
X21817Y18439D1*
X21834Y18513D1*
X21863Y18583D1*
X21902Y18648D1*
X21952Y18705D1*
X22011Y18754D1*
X22076Y18792D1*
X22147Y18819D1*
X22222Y18834D1*
X22297Y18837D1*
X22373Y18827D1*
X22445Y18805D1*
X22513Y18771D1*
X22575Y18727D1*
X22629Y18674D1*
X22673Y18612D1*
X22707Y18544D1*
X22728Y18471D1*
X22739Y18374D1*
X22732Y18298D1*
X13382Y21081D2*
X13339Y21095D1*
X13272Y21130D1*
X13211Y21175D1*
X13159Y21230D1*
X13116Y21293D1*
X13084Y21362D1*
X13064Y21435D1*
X13056Y21510D1*
X13060Y21586D1*
X13077Y21660D1*
X13106Y21731D1*
X13145Y21795D1*
X13195Y21853D1*
X13254Y21901D1*
X13319Y21939D1*
X13390Y21966D1*
X13465Y21981D1*
X13540Y21984D1*
X13616Y21974D1*
X13688Y21952D1*
X13757Y21919D1*
X13818Y21874D1*
X13872Y21821D1*
X13916Y21759D1*
X13950Y21691D1*
X13972Y21618D1*
X13982Y21521D1*
X13977Y21467D1*
X14081Y21421D1*
X14143Y21377D1*
X14196Y21323D1*
X14241Y21262D1*
X14274Y21194D1*
X14296Y21121D1*
X14306Y21024D1*
X14300Y20948D1*
X14281Y20875D1*
X14251Y20805D1*
X14210Y20741D1*
X14159Y20685D1*
X14099Y20638D1*
X14033Y20601D1*
X13961Y20576D1*
X13886Y20563D1*
X13811Y20562D1*
X13736Y20574D1*
X13663Y20597D1*
X13596Y20632D1*
X13535Y20678D1*
X13483Y20733D1*
X13440Y20796D1*
X13408Y20864D1*
X13388Y20938D1*
X13380Y21013D1*
X13384Y21077D1*
X23156Y21890D2*
X23137Y21817D1*
X23107Y21747D1*
X23066Y21684D1*
X23015Y21627D1*
X22955Y21580D1*
X22889Y21544D1*
X22817Y21518D1*
X22742Y21505D1*
X22666Y21504D1*
X22591Y21516D1*
X22519Y21539D1*
X22452Y21574D1*
X22391Y21620D1*
X22339Y21675D1*
X22296Y21738D1*
X22264Y21807D1*
X22244Y21880D1*
X22236Y21955D1*
X22240Y22031D1*
X22257Y22105D1*
X22286Y22175D1*
X22322Y22234D1*
X22250Y22308D1*
X22207Y22370D1*
X22175Y22439D1*
X22155Y22512D1*
X22147Y22588D1*
X22151Y22664D1*
X22168Y22738D1*
X22197Y22808D1*
X22237Y22873D1*
X22286Y22930D1*
X22345Y22978D1*
X22410Y23017D1*
X22481Y23044D1*
X22556Y23059D1*
X22632Y23061D1*
X22707Y23051D1*
X22780Y23029D1*
X22848Y22996D1*
X22909Y22952D1*
X22963Y22898D1*
X23007Y22836D1*
X23041Y22768D1*
X23063Y22696D1*
X23073Y22599D1*
X23067Y22523D1*
X23048Y22449D1*
X23018Y22380D1*
X22986Y22330D1*
X23052Y22266D1*
X23096Y22204D1*
X23130Y22136D1*
X23152Y22063D1*
X23162Y21966D1*
X23156Y21890D1*
X24080Y14689D2*
X24010Y14630D1*
X23943Y14593D1*
X23872Y14568D1*
X23797Y14554D1*
X23721Y14553D1*
X23646Y14565D1*
X23574Y14589D1*
X23506Y14624D1*
X23446Y14669D1*
X23393Y14724D1*
X23351Y14787D1*
X23319Y14856D1*
X23299Y14929D1*
X23291Y15016D1*
X23202D1*
X23127Y15027D1*
X23055Y15051D1*
X22987Y15086D1*
X22927Y15131D1*
X22874Y15186D1*
X22832Y15249D1*
X22800Y15318D1*
X22779Y15391D1*
X22771Y15467D1*
X22776Y15542D1*
X22793Y15616D1*
X22821Y15687D1*
X22861Y15751D1*
X22911Y15809D1*
X22969Y15857D1*
X23035Y15895D1*
X23106Y15922D1*
X23180Y15937D1*
X23273Y15938D1*
X23191Y15940D1*
X23116Y15952D1*
X23044Y15975D1*
X22977Y16011D1*
X22916Y16056D1*
X22864Y16111D1*
X22821Y16174D1*
X22789Y16243D1*
X22769Y16316D1*
X22761Y16391D1*
X22765Y16467D1*
X22782Y16541D1*
X22811Y16612D1*
X22850Y16676D1*
X22900Y16734D1*
X22959Y16782D1*
X23024Y16820D1*
X23095Y16847D1*
X23170Y16862D1*
X23271Y16861D1*
X23293Y16972D1*
X23322Y17042D1*
X23361Y17107D1*
X23411Y17164D1*
X23470Y17212D1*
X23535Y17251D1*
X23606Y17278D1*
X23681Y17293D1*
X23757Y17295D1*
X23832Y17285D1*
X23905Y17264D1*
X23973Y17230D1*
X24034Y17186D1*
X24088Y17132D1*
X24132Y17070D1*
X24166Y17002D1*
X24188Y16930D1*
X24198Y16833D1*
X24192Y16757D1*
X24173Y16683D1*
X24143Y16614D1*
X24102Y16550D1*
X24050Y16494D1*
X23991Y16447D1*
X23924Y16410D1*
X23841Y16383D1*
X23905Y16364D1*
X23973Y16330D1*
X24034Y16286D1*
X24088Y16232D1*
X24132Y16171D1*
X24166Y16103D1*
X24188Y16030D1*
X24198Y15933D1*
X24192Y15857D1*
X24173Y15784D1*
X24143Y15714D1*
X24102Y15650D1*
X24050Y15594D1*
X23991Y15547D1*
X23924Y15511D1*
X23853Y15485D1*
X23799Y15476D1*
X23851Y15468D1*
X23923Y15446D1*
X23991Y15413D1*
X24058Y15363D1*
X24052Y15423D1*
X24056Y15499D1*
X24073Y15573D1*
X24102Y15643D1*
X24141Y15708D1*
X24191Y15765D1*
X24250Y15813D1*
X24315Y15852D1*
X24386Y15879D1*
X24461Y15894D1*
X24537Y15896D1*
X24612Y15886D1*
X24685Y15864D1*
X24753Y15831D1*
X24814Y15787D1*
X24868Y15733D1*
X24912Y15671D1*
X24946Y15603D1*
X24968Y15531D1*
X24973Y15491D1*
X25041Y15516D1*
X25115Y15531D1*
X25191Y15533D1*
X25267Y15523D1*
X25339Y15502D1*
X25407Y15468D1*
X25469Y15424D1*
X25523Y15370D1*
X25567Y15308D1*
X25600Y15240D1*
X25622Y15168D1*
X25633Y15071D1*
X25626Y14995D1*
X25608Y14921D1*
X25578Y14852D1*
X25536Y14788D1*
X25485Y14732D1*
X25426Y14685D1*
X25359Y14648D1*
X25288Y14623D1*
X25213Y14610D1*
X25137Y14609D1*
X25062Y14620D1*
X24990Y14644D1*
X24902Y14695D1*
X24858Y14624D1*
X24807Y14568D1*
X24747Y14521D1*
X24681Y14484D1*
X24609Y14459D1*
X24535Y14445D1*
X24459Y14444D1*
X24384Y14456D1*
X24311Y14480D1*
X24244Y14515D1*
X24183Y14560D1*
X24131Y14615D1*
X24083Y14689D1*
X22670Y24617D2*
X22652Y24543D1*
X22621Y24474D1*
X22580Y24410D1*
X22529Y24354D1*
X22469Y24307D1*
X22403Y24270D1*
X22331Y24245D1*
X22257Y24232D1*
X22181Y24231D1*
X22106Y24242D1*
X22033Y24266D1*
X21966Y24301D1*
X21905Y24347D1*
X21853Y24402D1*
X21810Y24464D1*
X21778Y24533D1*
X21758Y24606D1*
X21750Y24682D1*
X21755Y24758D1*
X21771Y24832D1*
X21800Y24902D1*
X21840Y24967D1*
X21890Y25024D1*
X21948Y25072D1*
X22014Y25111D1*
X22085Y25138D1*
X22159Y25153D1*
X22235Y25155D1*
X22310Y25146D1*
X22383Y25124D1*
X22451Y25090D1*
X22513Y25046D1*
X22566Y24992D1*
X22611Y24930D1*
X22644Y24862D1*
X22666Y24790D1*
X22676Y24693D1*
X22670Y24617D1*
X14976Y16215D2*
X14957Y16142D1*
X14927Y16072D1*
X14886Y16009D1*
X14835Y15952D1*
X14775Y15905D1*
X14708Y15869D1*
X14637Y15843D1*
X14562Y15830D1*
X14486Y15829D1*
X14411Y15841D1*
X14339Y15864D1*
X14272Y15899D1*
X14211Y15945D1*
X14159Y16000D1*
X14116Y16063D1*
X14084Y16132D1*
X14064Y16205D1*
X14056Y16280D1*
X14060Y16356D1*
X14077Y16430D1*
X14106Y16500D1*
X14146Y16565D1*
X14195Y16622D1*
X14254Y16671D1*
X14319Y16709D1*
X14390Y16736D1*
X14465Y16751D1*
X14541Y16754D1*
X14616Y16744D1*
X14689Y16722D1*
X14757Y16688D1*
X14818Y16644D1*
X14872Y16591D1*
X14916Y16529D1*
X14950Y16461D1*
X14972Y16388D1*
X14982Y16291D1*
X14976Y16215D1*
X14003Y24631D2*
X13984Y24557D1*
X13954Y24488D1*
X13913Y24424D1*
X13862Y24368D1*
X13802Y24321D1*
X13735Y24284D1*
X13664Y24259D1*
X13589Y24245D1*
X13513D1*
X13438Y24256D1*
X13366Y24280D1*
X13299Y24315D1*
X13238Y24360D1*
X13186Y24415D1*
X13143Y24478D1*
X13111Y24547D1*
X13091Y24620D1*
X13083Y24696D1*
X13087Y24771D1*
X13104Y24846D1*
X13133Y24916D1*
X13173Y24980D1*
X13222Y25038D1*
X13281Y25086D1*
X13346Y25124D1*
X13417Y25151D1*
X13492Y25166D1*
X13568Y25169D1*
X13643Y25159D1*
X13716Y25137D1*
X13784Y25104D1*
X13845Y25060D1*
X13899Y25006D1*
X13943Y24944D1*
X13977Y24876D1*
X13999Y24803D1*
X14009Y24707D1*
X14003Y24631D1*
X25119Y25194D2*
X25100Y25121D1*
X25070Y25051D1*
X25029Y24987D1*
X24978Y24931D1*
X24918Y24884D1*
X24852Y24848D1*
X24780Y24822D1*
X24705Y24809D1*
X24629Y24808D1*
X24554Y24820D1*
X24482Y24843D1*
X24415Y24878D1*
X24354Y24924D1*
X24302Y24979D1*
X24259Y25042D1*
X24227Y25111D1*
X24207Y25184D1*
X24199Y25259D1*
X24203Y25335D1*
X24220Y25409D1*
X24249Y25479D1*
X24289Y25544D1*
X24338Y25601D1*
X24397Y25650D1*
X24462Y25688D1*
X24533Y25715D1*
X24608Y25730D1*
X24684Y25733D1*
X24759Y25723D1*
X24832Y25701D1*
X24900Y25667D1*
X24961Y25623D1*
X25015Y25570D1*
X25059Y25508D1*
X25093Y25440D1*
X25115Y25367D1*
X25125Y25270D1*
X25119Y25194D1*
X24821Y23370D2*
X24803Y23296D1*
X24773Y23226D1*
X24731Y23163D1*
X24680Y23107D1*
X24621Y23059D1*
X24554Y23023D1*
X24483Y22998D1*
X24408Y22984D1*
X24332Y22983D1*
X24257Y22995D1*
X24185Y23019D1*
X24117Y23054D1*
X24057Y23099D1*
X24004Y23154D1*
X23962Y23217D1*
X23930Y23286D1*
X23910Y23359D1*
X23902Y23434D1*
X23906Y23510D1*
X23923Y23584D1*
X23951Y23655D1*
X23991Y23719D1*
X24041Y23777D1*
X24099Y23825D1*
X24165Y23863D1*
X24236Y23890D1*
X24310Y23905D1*
X24386Y23908D1*
X24462Y23898D1*
X24534Y23876D1*
X24602Y23843D1*
X24664Y23798D1*
X24718Y23745D1*
X24762Y23683D1*
X24795Y23615D1*
X24817Y23542D1*
X24828Y23445D1*
X24821Y23370D1*
X23224Y17252D2*
X23206Y17178D1*
X23176Y17109D1*
X23134Y17045D1*
X23083Y16989D1*
X23024Y16942D1*
X22957Y16905D1*
X22886Y16880D1*
X22811Y16867D1*
X22735Y16866D1*
X22660Y16877D1*
X22588Y16901D1*
X22520Y16936D1*
X22460Y16982D1*
X22407Y17036D1*
X22365Y17099D1*
X22333Y17168D1*
X22312Y17241D1*
X22304Y17317D1*
X22309Y17393D1*
X22326Y17467D1*
X22354Y17537D1*
X22394Y17602D1*
X22444Y17659D1*
X22502Y17707D1*
X22568Y17746D1*
X22639Y17772D1*
X22713Y17788D1*
X22789Y17790D1*
X22865Y17780D1*
X22937Y17758D1*
X23005Y17725D1*
X23067Y17681D1*
X23121Y17627D1*
X23165Y17565D1*
X23198Y17497D1*
X23220Y17425D1*
X23231Y17328D1*
X23224Y17252D1*
X14115Y13496D2*
X14103Y13421D1*
X14083Y13348D1*
X14055Y13277D1*
X14020Y13210D1*
X13977Y13147D1*
X13929Y13088D1*
X13874Y13036D1*
X13814Y12989D1*
X13749Y12949D1*
X13681Y12917D1*
X13609Y12891D1*
X13535Y12874D1*
X13460Y12865D1*
X13384Y12863D1*
X13308Y12870D1*
X13234Y12885D1*
X13161Y12908D1*
X13092Y12938D1*
X13026Y12976D1*
X12964Y13021D1*
X12908Y13071D1*
X12857Y13128D1*
X12813Y13190D1*
X12775Y13256D1*
X12745Y13326D1*
X12723Y13398D1*
X12708Y13473D1*
X12701Y13548D1*
X12703Y13624D1*
X12713Y13700D1*
X12730Y13773D1*
X12756Y13845D1*
X12789Y13913D1*
X12829Y13978D1*
X12876Y14038D1*
X12928Y14092D1*
X12987Y14141D1*
X13050Y14183D1*
X13118Y14218D1*
X13188Y14245D1*
X13262Y14265D1*
X13337Y14277D1*
X13413Y14281D1*
X13488Y14277D1*
X13563Y14264D1*
X13637Y14244D1*
X13707Y14216D1*
X13774Y14180D1*
X13837Y14138D1*
X13895Y14089D1*
X13948Y14034D1*
X13994Y13974D1*
X14034Y13909D1*
X14066Y13840D1*
X14091Y13768D1*
X14108Y13694D1*
X14119Y13572D1*
X14115Y13496D1*
Y15528D2*
X14103Y15453D1*
X14083Y15380D1*
X14055Y15309D1*
X14020Y15242D1*
X13977Y15179D1*
X13929Y15120D1*
X13874Y15068D1*
X13814Y15021D1*
X13749Y14981D1*
X13681Y14949D1*
X13609Y14923D1*
X13535Y14906D1*
X13460Y14897D1*
X13384Y14895D1*
X13308Y14902D1*
X13234Y14917D1*
X13161Y14940D1*
X13092Y14970D1*
X13026Y15008D1*
X12964Y15053D1*
X12908Y15103D1*
X12857Y15160D1*
X12813Y15222D1*
X12775Y15288D1*
X12745Y15358D1*
X12723Y15430D1*
X12708Y15505D1*
X12701Y15580D1*
X12703Y15656D1*
X12713Y15732D1*
X12730Y15805D1*
X12756Y15877D1*
X12789Y15945D1*
X12829Y16010D1*
X12876Y16070D1*
X12928Y16124D1*
X12987Y16173D1*
X13050Y16215D1*
X13118Y16250D1*
X13188Y16277D1*
X13262Y16297D1*
X13337Y16309D1*
X13413Y16313D1*
X13488Y16309D1*
X13563Y16296D1*
X13637Y16276D1*
X13707Y16248D1*
X13774Y16212D1*
X13837Y16170D1*
X13895Y16121D1*
X13948Y16066D1*
X13994Y16006D1*
X14034Y15941D1*
X14066Y15872D1*
X14091Y15800D1*
X14108Y15726D1*
X14119Y15604D1*
X14115Y15528D1*
D20*
X23978Y29044D3*
X21438D3*
X18898D3*
X16358D3*
X13818D3*
D22*
X23978Y30314D3*
X21438D3*
X18898D3*
X16358D3*
X13818D3*
D20*
X26518Y18884D3*
Y21424D3*
D22*
X27788Y18884D3*
Y21424D3*
D20*
X26518Y23964D3*
Y26504D3*
D22*
X27788Y23964D3*
Y26504D3*
D20*
X26518Y13804D3*
Y16344D3*
D22*
X27788Y13804D3*
Y16344D3*
D20*
X23978Y11264D3*
X21438D3*
D22*
X23978Y9994D3*
X21438D3*
D20*
X11278Y26504D3*
Y23964D3*
Y21424D3*
Y18884D3*
D22*
X10008Y26504D3*
Y23964D3*
Y21424D3*
Y18884D3*
D38*
X19248Y23425D3*
Y22663D3*
Y21901D3*
Y21139D3*
Y20377D3*
Y19615D3*
X18482Y23425D3*
Y22663D3*
Y21901D3*
Y21139D3*
Y20377D3*
Y19615D3*
X20012Y23421D3*
Y22659D3*
Y21897D3*
Y21135D3*
Y20373D3*
Y19611D3*
X17715Y23425D3*
Y22663D3*
Y21901D3*
Y21139D3*
Y20377D3*
Y19615D3*
X16948Y23425D3*
Y22663D3*
Y21901D3*
Y21139D3*
Y20377D3*
Y19615D3*
X20778Y23428D3*
Y22666D3*
Y21904D3*
Y21142D3*
Y20380D3*
Y19618D3*
X19252Y18851D3*
X18485D3*
X20015Y18848D3*
X17718Y18851D3*
X16952D3*
X20782Y18855D3*
X16182Y23425D3*
Y22663D3*
Y21901D3*
Y21139D3*
Y20377D3*
Y19615D3*
X16185Y18851D3*
D20*
X11278Y16344D3*
Y13804D3*
D22*
X10008Y16344D3*
Y13804D3*
D20*
X18898Y11264D3*
X16358D3*
X13818D3*
D22*
Y9994D3*
X16358D3*
X18898D3*
M02*
