G04 DipTrace 2.4.0.2*
%INSTM32small.gbo*%
%MOMM*%
%ADD10C,0.25*%
%ADD14C,0.114*%
%ADD50O,0.723X0.863*%
%ADD85C,0.235*%
%FSLAX53Y53*%
G04*
G71*
G90*
G75*
G01*
%LNBotSilk*%
%LPD*%
G36*
X19370Y15225D2*
X18753Y15858D1*
X19236Y16205D1*
X19363Y16048D1*
X19370Y15225D1*
G37*
D50*
X19088Y15920D3*
X19373Y15341D2*
D10*
G02X18856Y15845I68J586D01*
G01*
X19386Y15365D2*
G03X19326Y15985I-970J219D01*
G01*
X21607Y26032D2*
D85*
Y26506D1*
X23138D1*
X22336D2*
Y26215D1*
X22117Y25760D2*
X23138Y25541D1*
X23430Y25614D1*
X23576Y25687D1*
X23649Y25760D1*
Y25797D1*
X22117Y25322D2*
X23138Y25541D1*
X21607Y25087D2*
X23138D1*
X22336D2*
X22190Y25014D1*
X22117Y24941D1*
Y24832D1*
X22190Y24759D1*
X22336Y24686D1*
X22555Y24650D1*
X22700D1*
X22919Y24686D1*
X23064Y24759D1*
X23138Y24832D1*
Y24941D1*
X23064Y25014D1*
X22919Y25087D1*
X22555Y24415D2*
Y23978D1*
X22409D1*
X22262Y24014D1*
X22190Y24050D1*
X22117Y24123D1*
Y24233D1*
X22190Y24305D1*
X22336Y24378D1*
X22555Y24415D1*
X22700D1*
X22919Y24378D1*
X23064Y24305D1*
X23138Y24233D1*
Y24123D1*
X23064Y24050D1*
X22919Y23978D1*
X22117Y23742D2*
X23138D1*
X22555D2*
X22336Y23705D1*
X22190Y23633D1*
X22117Y23559D1*
Y23450D1*
X21607Y22474D2*
X23138D1*
Y22037D1*
X22117Y21364D2*
X23138D1*
X22336D2*
X22190Y21437D1*
X22117Y21510D1*
Y21619D1*
X22190Y21692D1*
X22336Y21764D1*
X22555Y21802D1*
X22700D1*
X22919Y21764D1*
X23064Y21692D1*
X23138Y21619D1*
Y21510D1*
X23064Y21437D1*
X22919Y21364D1*
X21607Y21129D2*
X23138D1*
X22336D2*
X22190Y21056D1*
X22117Y20983D1*
Y20874D1*
X22190Y20801D1*
X22336Y20728D1*
X22555Y20692D1*
X22700D1*
X22919Y20728D1*
X23064Y20801D1*
X23138Y20874D1*
Y20983D1*
X23064Y21056D1*
X22919Y21129D1*
X22336Y20056D2*
X22190Y20092D1*
X22117Y20201D1*
Y20311D1*
X22190Y20420D1*
X22336Y20457D1*
X22481Y20420D1*
X22555Y20347D1*
X22628Y20165D1*
X22700Y20092D1*
X22847Y20056D1*
X22919D1*
X23064Y20092D1*
X23138Y20201D1*
Y20311D1*
X23064Y20420D1*
X22919Y20457D1*
X21607Y19080D2*
X23138D1*
X22117Y18844D2*
X23138D1*
X22409D2*
X22190Y18735D1*
X22117Y18662D1*
Y18553D1*
X22190Y18480D1*
X22409Y18443D1*
X23138D1*
X22336Y17770D2*
X22190Y17843D1*
X22117Y17917D1*
Y18025D1*
X22190Y18099D1*
X22336Y18171D1*
X22555Y18208D1*
X22700D1*
X22919Y18171D1*
X23064Y18099D1*
X23138Y18025D1*
Y17917D1*
X23064Y17843D1*
X22919Y17770D1*
X22992Y17499D2*
X23066Y17535D1*
X23138Y17499D1*
X23066Y17462D1*
X22992Y17499D1*
X19749Y25659D2*
X19421D1*
X19312Y25733D1*
X19275Y25806D1*
X19239Y25951D1*
Y26097D1*
X19275Y26242D1*
X19312Y26316D1*
X19421Y26389D1*
X19749D1*
Y24857D1*
X19494Y25659D2*
X19239Y24857D1*
X19003Y26096D2*
X18930Y26170D1*
X18821Y26387D1*
Y24857D1*
X18549Y25004D2*
X18585Y24930D1*
X18549Y24857D1*
X18512Y24930D1*
X18549Y25004D1*
X18058Y26387D2*
X18167Y26315D1*
X18241Y26096D1*
X18277Y25732D1*
Y25513D1*
X18241Y25149D1*
X18167Y24930D1*
X18058Y24857D1*
X17985D1*
X17876Y24930D1*
X17803Y25149D1*
X17766Y25513D1*
Y25732D1*
X17803Y26096D1*
X17876Y26315D1*
X17985Y26387D1*
X18058D1*
X17803Y26096D2*
X18241Y25149D1*
X16947Y24857D2*
X17240Y26389D1*
X17531Y24857D1*
X17422Y25368D2*
X17057D1*
X22408Y28246D2*
X22481Y28392D1*
X22590Y28465D1*
X22736D1*
X22845Y28392D1*
X22919Y28246D1*
Y28101D1*
X22882Y27954D1*
X22845Y27882D1*
X22773Y27809D1*
X22554Y27663D1*
X22481Y27590D1*
X22445Y27516D1*
X22408Y27371D1*
Y27152D1*
X22481Y27008D1*
X22590Y26933D1*
X22736D1*
X22845Y27008D1*
X22919Y27152D1*
X21918Y28465D2*
Y26933D1*
X22173Y28465D2*
X21663D1*
X20844Y26933D2*
Y28465D1*
X21136Y26933D1*
X21427Y28465D1*
Y26933D1*
X20536Y28463D2*
X20136D1*
X20354Y27880D1*
X20244D1*
X20172Y27808D1*
X20136Y27735D1*
X20099Y27516D1*
Y27371D1*
X20136Y27152D1*
X20208Y27006D1*
X20318Y26933D1*
X20427D1*
X20536Y27006D1*
X20572Y27080D1*
X20609Y27225D1*
X19826Y28099D2*
Y28172D1*
X19790Y28318D1*
X19754Y28391D1*
X19681Y28463D1*
X19535D1*
X19462Y28391D1*
X19426Y28318D1*
X19389Y28172D1*
Y28027D1*
X19426Y27880D1*
X19499Y27663D1*
X19863Y26933D1*
X19353D1*
X17976Y27735D2*
X18012Y27882D1*
X18122Y27954D1*
X18231D1*
X18341Y27882D1*
X18377Y27735D1*
X18341Y27590D1*
X18267Y27516D1*
X18086Y27444D1*
X18012Y27371D1*
X17976Y27225D1*
Y27152D1*
X18012Y27008D1*
X18122Y26933D1*
X18231D1*
X18341Y27008D1*
X18377Y27152D1*
X17741Y27954D2*
Y26933D1*
Y27663D2*
X17631Y27882D1*
X17558Y27954D1*
X17449D1*
X17376Y27882D1*
X17340Y27663D1*
Y26933D1*
Y27663D2*
X17230Y27882D1*
X17157Y27954D1*
X17048D1*
X16975Y27882D1*
X16938Y27663D1*
Y26933D1*
X16266Y27954D2*
Y26933D1*
Y27735D2*
X16338Y27882D1*
X16411Y27954D1*
X16520D1*
X16593Y27882D1*
X16666Y27735D1*
X16703Y27516D1*
Y27371D1*
X16666Y27152D1*
X16593Y27008D1*
X16520Y26933D1*
X16411D1*
X16338Y27008D1*
X16266Y27152D1*
X16030Y28465D2*
Y26933D1*
X15795Y28465D2*
Y26933D1*
X23813Y15489D2*
D14*
X24834Y15295D1*
X23813Y15101D1*
Y14990D2*
X24834D1*
Y14820D1*
X24785Y14747D1*
X24688Y14698D1*
X24590Y14674D1*
X24445Y14649D1*
X24202D1*
X24056Y14674D1*
X23959Y14698D1*
X23861Y14747D1*
X23813Y14820D1*
Y14990D1*
Y14538D2*
X24834D1*
Y14368D1*
X24785Y14295D1*
X24688Y14246D1*
X24590Y14222D1*
X24445Y14198D1*
X24202D1*
X24056Y14222D1*
X23959Y14246D1*
X23861Y14295D1*
X23813Y14368D1*
Y14538D1*
X24265Y13702D2*
X24289Y13799D1*
X24338Y13897D1*
X24386Y13945D1*
X24483D1*
X24532Y13897D1*
X24580Y13799D1*
X24605Y13702D1*
X24629Y13556D1*
Y13313D1*
X24605Y13168D1*
X24580Y13070D1*
X24532Y12974D1*
X24483Y12924D1*
X24386D1*
X24338Y12974D1*
X24289Y13070D1*
X24265Y13168D1*
Y13313D1*
X24386D1*
X23813Y13945D2*
Y12924D1*
X24154Y13945D1*
Y12924D1*
X23702Y13945D2*
Y12924D1*
X23532D1*
X23459Y12974D1*
X23410Y13070D1*
X23386Y13168D1*
X23362Y13313D1*
Y13556D1*
X23386Y13702D1*
X23410Y13799D1*
X23459Y13897D1*
X23532Y13945D1*
X23702D1*
X24346Y17429D2*
Y17210D1*
X24298Y17138D1*
X24248Y17113D1*
X24152Y17089D1*
X24006D1*
X23909Y17113D1*
X23860Y17138D1*
X23811Y17210D1*
Y17429D1*
X24832D1*
Y16589D2*
X23811Y16783D1*
X24832Y16978D1*
X24492Y16905D2*
Y16662D1*
X24007Y16477D2*
X23957Y16429D1*
X23812Y16356D1*
X24832D1*
X23812Y15953D2*
Y16196D1*
X24249Y16220D1*
X24201Y16196D1*
X24152Y16123D1*
Y16050D1*
X24201Y15977D1*
X24298Y15928D1*
X24444Y15904D1*
X24540D1*
X24686Y15928D1*
X24784Y15977D1*
X24832Y16050D1*
Y16123D1*
X24784Y16196D1*
X24735Y16220D1*
X24638Y16244D1*
X24366Y19554D2*
Y19335D1*
X24318Y19263D1*
X24268Y19238D1*
X24172Y19214D1*
X24026D1*
X23929Y19238D1*
X23880Y19263D1*
X23831Y19335D1*
Y19554D1*
X24852D1*
X23831Y19103D2*
X24852D1*
Y18884D1*
X24803Y18811D1*
X24755Y18787D1*
X24658Y18763D1*
X24512D1*
X24414Y18787D1*
X24366Y18811D1*
X24318Y18884D1*
X24268Y18811D1*
X24220Y18787D1*
X24123Y18763D1*
X24026D1*
X23929Y18787D1*
X23880Y18811D1*
X23831Y18884D1*
Y19103D1*
X24318D2*
Y18884D1*
X23832Y18603D2*
Y18336D1*
X24221Y18481D1*
Y18408D1*
X24269Y18360D1*
X24318Y18336D1*
X24464Y18311D1*
X24560D1*
X24706Y18336D1*
X24804Y18384D1*
X24852Y18457D1*
Y18530D1*
X24804Y18603D1*
X24755Y18627D1*
X24658Y18652D1*
X24378Y22171D2*
Y21952D1*
X24330Y21879D1*
X24281Y21854D1*
X24184Y21830D1*
X24038D1*
X23942Y21854D1*
X23892Y21879D1*
X23844Y21952D1*
Y22171D1*
X24865D1*
X23844Y21719D2*
X24865D1*
Y21500D1*
X24815Y21427D1*
X24767Y21403D1*
X24670Y21379D1*
X24524D1*
X24427Y21403D1*
X24378Y21427D1*
X24330Y21500D1*
X24281Y21427D1*
X24232Y21403D1*
X24136Y21379D1*
X24038D1*
X23942Y21403D1*
X23892Y21427D1*
X23844Y21500D1*
Y21719D1*
X24330D2*
Y21500D1*
X24865Y21025D2*
X23845D1*
X24524Y21268D1*
Y20903D1*
X24386Y24889D2*
Y24670D1*
X24338Y24597D1*
X24289Y24573D1*
X24192Y24549D1*
X24046D1*
X23949Y24573D1*
X23900Y24597D1*
X23852Y24670D1*
Y24889D1*
X24873D1*
X23852Y24437D2*
X24873D1*
Y24218D1*
X24823Y24145D1*
X24775Y24121D1*
X24678Y24097D1*
X24532D1*
X24435Y24121D1*
X24386Y24145D1*
X24338Y24218D1*
X24289Y24145D1*
X24240Y24121D1*
X24144Y24097D1*
X24046D1*
X23949Y24121D1*
X23900Y24145D1*
X23852Y24218D1*
Y24437D1*
X24338D2*
Y24218D1*
X23853Y23695D2*
Y23937D1*
X24290Y23961D1*
X24241Y23937D1*
X24192Y23864D1*
Y23792D1*
X24241Y23719D1*
X24338Y23670D1*
X24484Y23646D1*
X24581D1*
X24727Y23670D1*
X24824Y23719D1*
X24873Y23792D1*
Y23864D1*
X24824Y23937D1*
X24775Y23961D1*
X24678Y23986D1*
X23855Y26532D2*
X24876D1*
X23855Y26872D1*
X24876D1*
X24342Y26421D2*
Y26202D1*
X24292Y26129D1*
X24244Y26105D1*
X24147Y26081D1*
X24050D1*
X23953Y26105D1*
X23904Y26129D1*
X23855Y26202D1*
Y26421D1*
X24876D1*
X24342Y26251D2*
X24876Y26081D1*
X24001Y25629D2*
X23904Y25677D1*
X23855Y25750D1*
Y25848D1*
X23904Y25921D1*
X24001Y25969D1*
X24098D1*
X24196Y25945D1*
X24244Y25921D1*
X24292Y25872D1*
X24390Y25726D1*
X24438Y25677D1*
X24488Y25653D1*
X24584Y25629D1*
X24730D1*
X24827Y25677D1*
X24876Y25750D1*
Y25848D1*
X24827Y25921D1*
X24730Y25969D1*
X23855Y25348D2*
X24876D1*
X23855Y25518D2*
Y25178D1*
X24240Y28512D2*
Y28293D1*
X24192Y28220D1*
X24142Y28196D1*
X24046Y28172D1*
X23900D1*
X23803Y28196D1*
X23754Y28220D1*
X23705Y28293D1*
Y28512D1*
X24726D1*
Y27671D2*
X23705Y27866D1*
X24726Y28060D1*
X24386Y27987D2*
Y27744D1*
X23706Y27414D2*
X23755Y27487D1*
X23901Y27536D1*
X24143Y27560D1*
X24289D1*
X24532Y27536D1*
X24678Y27487D1*
X24726Y27414D1*
Y27366D1*
X24678Y27293D1*
X24532Y27245D1*
X24289Y27220D1*
X24143D1*
X23901Y27245D1*
X23755Y27293D1*
X23706Y27366D1*
Y27414D1*
X23901Y27245D2*
X24532Y27536D1*
X22783Y29476D2*
X23002D1*
X23074Y29427D1*
X23099Y29378D1*
X23123Y29281D1*
Y29135D1*
X23099Y29039D1*
X23074Y28989D1*
X23002Y28941D1*
X22783D1*
Y29962D1*
X23623D2*
X23428Y28941D1*
X23234Y29962D1*
X23307Y29622D2*
X23550D1*
X23977Y29962D2*
Y28942D1*
X23734Y29622D1*
X24099D1*
X20466Y29491D2*
X20685D1*
X20758Y29442D1*
X20783Y29393D1*
X20807Y29296D1*
Y29150D1*
X20783Y29054D1*
X20758Y29004D1*
X20685Y28956D1*
X20466D1*
Y29977D1*
X21307D2*
X21112Y28956D1*
X20918Y29977D1*
X20991Y29637D2*
X21234D1*
X21710Y28957D2*
X21467D1*
X21443Y29394D1*
X21467Y29346D1*
X21540Y29296D1*
X21612D1*
X21685Y29346D1*
X21734Y29442D1*
X21758Y29588D1*
Y29685D1*
X21734Y29831D1*
X21685Y29929D1*
X21612Y29977D1*
X21540D1*
X21467Y29929D1*
X21443Y29879D1*
X21418Y29783D1*
X18092Y29493D2*
X18311D1*
X18384Y29445D1*
X18409Y29395D1*
X18433Y29299D1*
Y29153D1*
X18409Y29056D1*
X18384Y29007D1*
X18311Y28959D1*
X18092D1*
Y29979D1*
X18933D2*
X18738Y28959D1*
X18544Y29979D1*
X18617Y29639D2*
X18860D1*
X19335Y29105D2*
X19311Y29008D1*
X19238Y28960D1*
X19190D1*
X19117Y29008D1*
X19068Y29154D1*
X19044Y29397D1*
Y29639D1*
X19068Y29833D1*
X19117Y29931D1*
X19190Y29979D1*
X19214D1*
X19287Y29931D1*
X19335Y29833D1*
X19360Y29687D1*
Y29639D1*
X19335Y29493D1*
X19287Y29397D1*
X19214Y29348D1*
X19190D1*
X19117Y29397D1*
X19068Y29493D1*
X19044Y29639D1*
X16200Y29486D2*
X16419D1*
X16492Y29438D1*
X16516Y29389D1*
X16540Y29292D1*
Y29146D1*
X16516Y29049D1*
X16492Y29000D1*
X16419Y28952D1*
X16200D1*
Y29973D1*
X17041D2*
X16846Y28952D1*
X16652Y29973D1*
X16725Y29632D2*
X16968D1*
X17249Y29973D2*
X17492Y28953D1*
X17152D1*
X13900Y29478D2*
X14119D1*
X14191Y29430D1*
X14216Y29380D1*
X14240Y29284D1*
Y29138D1*
X14216Y29041D1*
X14191Y28992D1*
X14119Y28943D1*
X13900D1*
Y29964D1*
X14351Y28943D2*
Y29964D1*
X14570D1*
X14643Y29915D1*
X14668Y29866D1*
X14692Y29770D1*
Y29624D1*
X14668Y29526D1*
X14643Y29478D1*
X14570Y29430D1*
X14643Y29380D1*
X14668Y29332D1*
X14692Y29235D1*
Y29138D1*
X14668Y29041D1*
X14643Y28992D1*
X14570Y28943D1*
X14351D1*
Y29430D2*
X14570D1*
X14803Y29139D2*
X14852Y29089D1*
X14925Y28944D1*
Y29964D1*
X15060Y29187D2*
Y29139D1*
X15085Y29041D1*
X15109Y28993D1*
X15158Y28944D1*
X15255D1*
X15303Y28993D1*
X15327Y29041D1*
X15352Y29139D1*
Y29235D1*
X15327Y29333D1*
X15279Y29478D1*
X15036Y29964D1*
X15376D1*
X13355Y27270D2*
Y27489D1*
X13403Y27561D1*
X13453Y27586D1*
X13549Y27610D1*
X13695D1*
X13792Y27586D1*
X13841Y27561D1*
X13889Y27489D1*
Y27270D1*
X12869D1*
X13889Y27721D2*
X12869D1*
Y27940D1*
X12918Y28013D1*
X12966Y28037D1*
X13063Y28061D1*
X13209D1*
X13307Y28037D1*
X13355Y28013D1*
X13403Y27940D1*
X13453Y28013D1*
X13501Y28037D1*
X13597Y28061D1*
X13695D1*
X13792Y28037D1*
X13841Y28013D1*
X13889Y27940D1*
Y27721D1*
X13403D2*
Y27940D1*
X13694Y28172D2*
X13743Y28221D1*
X13888Y28294D1*
X12869D1*
X13888Y28454D2*
Y28721D1*
X13500Y28576D1*
Y28649D1*
X13451Y28697D1*
X13403Y28721D1*
X13257Y28746D1*
X13161D1*
X13015Y28721D1*
X12917Y28673D1*
X12869Y28600D1*
Y28527D1*
X12917Y28454D1*
X12966Y28430D1*
X13063Y28405D1*
X13364Y25262D2*
Y25481D1*
X13412Y25554D1*
X13461Y25578D1*
X13558Y25602D1*
X13704D1*
X13801Y25578D1*
X13850Y25554D1*
X13898Y25481D1*
Y25262D1*
X12877D1*
X13898Y25714D2*
X12877D1*
Y25933D1*
X12927Y26006D1*
X12975Y26030D1*
X13072Y26054D1*
X13218D1*
X13315Y26030D1*
X13364Y26006D1*
X13412Y25933D1*
X13461Y26006D1*
X13510Y26030D1*
X13606Y26054D1*
X13704D1*
X13801Y26030D1*
X13850Y26006D1*
X13898Y25933D1*
Y25714D1*
X13412D2*
Y25933D1*
X13703Y26165D2*
X13752Y26214D1*
X13897Y26287D1*
X12877D1*
Y26641D2*
X13897D1*
X13218Y26398D1*
Y26762D1*
X13376Y20740D2*
Y20959D1*
X13425Y21031D1*
X13474Y21056D1*
X13571Y21080D1*
X13717D1*
X13813Y21056D1*
X13863Y21031D1*
X13911Y20959D1*
Y20740D1*
X12890D1*
Y21581D2*
X13911Y21386D1*
X12890Y21191D1*
X13230Y21264D2*
Y21508D1*
X13571Y22008D2*
X13425Y21983D1*
X13327Y21935D1*
X13279Y21862D1*
Y21838D1*
X13327Y21765D1*
X13425Y21716D1*
X13571Y21692D1*
X13619D1*
X13765Y21716D1*
X13862Y21765D1*
X13910Y21838D1*
Y21862D1*
X13862Y21935D1*
X13765Y21983D1*
X13571Y22008D1*
X13327D1*
X13084Y21983D1*
X12938Y21935D1*
X12890Y21862D1*
Y21814D1*
X12938Y21741D1*
X13036Y21716D1*
X13402Y23242D2*
Y23461D1*
X13451Y23534D1*
X13500Y23558D1*
X13597Y23583D1*
X13743D1*
X13839Y23558D1*
X13889Y23534D1*
X13937Y23461D1*
Y23242D1*
X12916D1*
X13937Y23694D2*
X12916D1*
Y23913D1*
X12965Y23986D1*
X13014Y24010D1*
X13110Y24034D1*
X13256D1*
X13354Y24010D1*
X13402Y23986D1*
X13451Y23913D1*
X13500Y23986D1*
X13548Y24010D1*
X13645Y24034D1*
X13743D1*
X13839Y24010D1*
X13889Y23986D1*
X13937Y23913D1*
Y23694D1*
X13451D2*
Y23913D1*
X13741Y24145D2*
X13791Y24194D1*
X13936Y24267D1*
X12916D1*
X13936Y24669D2*
Y24427D1*
X13499Y24403D1*
X13547Y24427D1*
X13597Y24500D1*
Y24572D1*
X13547Y24645D1*
X13451Y24694D1*
X13305Y24718D1*
X13208D1*
X13062Y24694D1*
X12964Y24645D1*
X12916Y24572D1*
Y24500D1*
X12964Y24427D1*
X13014Y24403D1*
X13110Y24378D1*
X13414Y16134D2*
Y16353D1*
X13462Y16426D1*
X13512Y16450D1*
X13608Y16475D1*
X13754D1*
X13851Y16450D1*
X13900Y16426D1*
X13948Y16353D1*
Y16134D1*
X12928D1*
X13948Y16586D2*
X12928D1*
Y16805D1*
X12977Y16878D1*
X13025Y16902D1*
X13122Y16926D1*
X13268D1*
X13366Y16902D1*
X13414Y16878D1*
X13462Y16805D1*
X13512Y16878D1*
X13560Y16902D1*
X13656Y16926D1*
X13754D1*
X13851Y16902D1*
X13900Y16878D1*
X13948Y16805D1*
Y16586D1*
X13462D2*
Y16805D1*
X13753Y17037D2*
X13802Y17086D1*
X13947Y17159D1*
X12928D1*
X13947Y17416D2*
X13899Y17343D1*
X13753Y17294D1*
X13510Y17270D1*
X13364D1*
X13122Y17294D1*
X12976Y17343D1*
X12928Y17416D1*
Y17464D1*
X12976Y17537D1*
X13122Y17586D1*
X13364Y17610D1*
X13510D1*
X13753Y17586D1*
X13899Y17537D1*
X13947Y17464D1*
Y17416D1*
X13753Y17586D2*
X13122Y17294D1*
X12297Y11642D2*
Y11861D1*
X12345Y11934D1*
X12395Y11958D1*
X12491Y11983D1*
X12637D1*
X12734Y11958D1*
X12783Y11934D1*
X12831Y11861D1*
Y11642D1*
X11811D1*
X12831Y12094D2*
X11811D1*
Y12313D1*
X11860Y12386D1*
X11908Y12410D1*
X12005Y12434D1*
X12151D1*
X12249Y12410D1*
X12297Y12386D1*
X12345Y12313D1*
X12395Y12386D1*
X12443Y12410D1*
X12539Y12434D1*
X12637D1*
X12734Y12410D1*
X12783Y12386D1*
X12831Y12313D1*
Y12094D1*
X12345D2*
Y12313D1*
X12830Y12666D2*
X12782Y12594D1*
X12685Y12569D1*
X12588D1*
X12491Y12594D1*
X12442Y12642D1*
X12393Y12739D1*
X12345Y12812D1*
X12247Y12861D1*
X12151Y12885D1*
X12005D1*
X11908Y12861D1*
X11859Y12837D1*
X11811Y12764D1*
Y12666D1*
X11859Y12594D1*
X11908Y12569D1*
X12005Y12545D1*
X12151D1*
X12247Y12569D1*
X12345Y12618D1*
X12393Y12691D1*
X12442Y12788D1*
X12491Y12837D1*
X12588Y12861D1*
X12685D1*
X12782Y12837D1*
X12830Y12764D1*
Y12666D1*
X15344Y13390D2*
X15125D1*
X15053Y13438D1*
X15028Y13488D1*
X15004Y13584D1*
Y13730D1*
X15028Y13827D1*
X15053Y13876D1*
X15125Y13925D1*
X15344D1*
Y12904D1*
X14504D2*
X14698Y13925D1*
X14893Y12904D1*
X14820Y13244D2*
X14577D1*
X14271Y13924D2*
X14344Y13875D1*
X14368Y13779D1*
Y13681D1*
X14344Y13584D1*
X14295Y13535D1*
X14198Y13487D1*
X14125Y13438D1*
X14077Y13341D1*
X14053Y13244D1*
Y13098D1*
X14077Y13001D1*
X14101Y12952D1*
X14174Y12904D1*
X14271D1*
X14344Y12952D1*
X14368Y13001D1*
X14392Y13098D1*
Y13244D1*
X14368Y13341D1*
X14319Y13438D1*
X14247Y13487D1*
X14150Y13535D1*
X14101Y13584D1*
X14077Y13681D1*
Y13779D1*
X14101Y13875D1*
X14174Y13924D1*
X14271D1*
X17202Y13362D2*
X16983D1*
X16910Y13410D1*
X16886Y13460D1*
X16861Y13556D1*
Y13702D1*
X16886Y13799D1*
X16910Y13848D1*
X16983Y13897D1*
X17202D1*
Y12876D1*
X16361D2*
X16556Y13897D1*
X16750Y12876D1*
X16677Y13216D2*
X16434D1*
X16250Y13701D2*
X16201Y13751D1*
X16128Y13896D1*
Y12876D1*
X15871Y13896D2*
X15944Y13847D1*
X15993Y13701D1*
X16017Y13459D1*
Y13313D1*
X15993Y13070D1*
X15944Y12924D1*
X15871Y12876D1*
X15823D1*
X15750Y12924D1*
X15702Y13070D1*
X15677Y13313D1*
Y13459D1*
X15702Y13701D1*
X15750Y13847D1*
X15823Y13896D1*
X15871D1*
X15702Y13701D2*
X15993Y13070D1*
X19552Y13357D2*
X19333D1*
X19260Y13405D1*
X19236Y13455D1*
X19212Y13551D1*
Y13697D1*
X19236Y13794D1*
X19260Y13843D1*
X19333Y13891D1*
X19552D1*
Y12871D1*
X18711D2*
X18906Y13891D1*
X19100Y12871D1*
X19027Y13211D2*
X18784D1*
X18600Y13696D2*
X18551Y13745D1*
X18478Y13890D1*
Y12871D1*
X18367Y13696D2*
X18318Y13745D1*
X18245Y13890D1*
Y12871D1*
X22264Y13406D2*
X22045D1*
X21973Y13454D1*
X21948Y13504D1*
X21924Y13600D1*
Y13746D1*
X21948Y13843D1*
X21973Y13892D1*
X22045Y13940D1*
X22264D1*
Y12920D1*
X21423D2*
X21618Y13940D1*
X21813Y12920D1*
X21740Y13260D2*
X21496D1*
X21312Y13745D2*
X21263Y13794D1*
X21190Y13939D1*
Y12920D1*
X21055Y13697D2*
Y13745D1*
X21031Y13843D1*
X21006Y13891D1*
X20958Y13939D1*
X20860D1*
X20812Y13891D1*
X20788Y13843D1*
X20763Y13745D1*
Y13648D1*
X20788Y13551D1*
X20836Y13406D1*
X21079Y12920D1*
X20739D1*
X13378Y18339D2*
Y18558D1*
X13427Y18631D1*
X13476Y18655D1*
X13573Y18680D1*
X13719D1*
X13815Y18655D1*
X13865Y18631D1*
X13913Y18558D1*
Y18339D1*
X12892D1*
X13913Y18791D2*
X12892D1*
Y19010D1*
X12941Y19083D1*
X12990Y19107D1*
X13086Y19131D1*
X13232D1*
X13330Y19107D1*
X13378Y19083D1*
X13427Y19010D1*
X13476Y19083D1*
X13524Y19107D1*
X13621Y19131D1*
X13719D1*
X13815Y19107D1*
X13865Y19083D1*
X13913Y19010D1*
Y18791D1*
X13427D2*
Y19010D1*
X13573Y19558D2*
X13427Y19534D1*
X13329Y19485D1*
X13281Y19412D1*
Y19388D1*
X13329Y19315D1*
X13427Y19267D1*
X13573Y19242D1*
X13621D1*
X13767Y19267D1*
X13863Y19315D1*
X13912Y19388D1*
Y19412D1*
X13863Y19485D1*
X13767Y19534D1*
X13573Y19558D1*
X13329D1*
X13086Y19534D1*
X12940Y19485D1*
X12892Y19412D1*
Y19364D1*
X12940Y19291D1*
X13038Y19267D1*
X14212Y23826D2*
D85*
Y24300D1*
X15743D1*
X14941D2*
Y24008D1*
X14212Y23590D2*
X15743D1*
X15160Y23355D2*
Y22918D1*
X15014D1*
X14867Y22954D1*
X14795Y22990D1*
X14722Y23064D1*
Y23173D1*
X14795Y23245D1*
X14941Y23319D1*
X15160Y23355D1*
X15305D1*
X15524Y23319D1*
X15669Y23245D1*
X15743Y23173D1*
Y23064D1*
X15669Y22990D1*
X15524Y22918D1*
X14722Y22683D2*
X15743Y22282D1*
X14722D2*
X15743Y22683D1*
Y20723D2*
X14212D1*
X15743Y21014D1*
X14212Y21306D1*
X15743D1*
X14722Y20305D2*
X14795Y20378D1*
X14941Y20451D1*
X15160Y20487D1*
X15305D1*
X15524Y20451D1*
X15669Y20378D1*
X15743Y20305D1*
Y20196D1*
X15669Y20123D1*
X15524Y20050D1*
X15305Y20013D1*
X15160D1*
X14941Y20050D1*
X14795Y20123D1*
X14722Y20196D1*
Y20305D1*
X14212Y19341D2*
X15743D1*
X14941D2*
X14795Y19413D1*
X14722Y19486D1*
Y19596D1*
X14795Y19668D1*
X14941Y19742D1*
X15160Y19778D1*
X15305D1*
X15524Y19742D1*
X15669Y19668D1*
X15743Y19596D1*
Y19486D1*
X15669Y19413D1*
X15524Y19341D1*
X14722Y19105D2*
X15452D1*
X15669Y19069D1*
X15743Y18996D1*
Y18886D1*
X15669Y18814D1*
X15452Y18705D1*
X14722D2*
X15743D1*
X14212Y18469D2*
X15743D1*
X15160Y18234D2*
Y17797D1*
X15014D1*
X14867Y17833D1*
X14795Y17869D1*
X14722Y17943D1*
Y18052D1*
X14795Y18124D1*
X14941Y18198D1*
X15160Y18234D1*
X15305D1*
X15524Y18198D1*
X15669Y18124D1*
X15743Y18052D1*
Y17943D1*
X15669Y17869D1*
X15524Y17797D1*
X23219Y15651D2*
Y15724D1*
X23183Y15870D1*
X23147Y15943D1*
X23074Y16015D1*
X22928D1*
X22855Y15943D1*
X22819Y15870D1*
X22782Y15724D1*
Y15579D1*
X22819Y15432D1*
X22892Y15215D1*
X23256Y14486D1*
X22746D1*
X22292Y16015D2*
X22401Y15943D1*
X22474Y15724D1*
X22511Y15360D1*
Y15141D1*
X22474Y14777D1*
X22401Y14558D1*
X22292Y14486D1*
X22219D1*
X22110Y14558D1*
X22037Y14777D1*
X22000Y15141D1*
Y15360D1*
X22037Y15724D1*
X22110Y15943D1*
X22219Y16015D1*
X22292D1*
X22037Y15724D2*
X22474Y14777D1*
X21765Y15724D2*
X21692Y15798D1*
X21582Y16015D1*
Y14486D1*
X20910Y16015D2*
X21273D1*
X21310Y15360D1*
X21273Y15432D1*
X21164Y15507D1*
X21055D1*
X20946Y15432D1*
X20873Y15288D1*
X20836Y15069D1*
Y14924D1*
X20873Y14705D1*
X20946Y14558D1*
X21055Y14486D1*
X21164D1*
X21273Y14558D1*
X21310Y14632D1*
X21347Y14777D1*
M02*
