G04 DipTrace 2.4.0.2*
%INcaptouch.gto*%
%MOMM*%
%ADD10C,0.25*%
%ADD17C,0.152*%
%ADD18O,0.295X0.293*%
%ADD23O,0.312X0.377*%
%ADD30O,0.723X0.863*%
%ADD44C,0.118*%
%ADD45C,0.111*%
%FSLAX53Y53*%
G04*
G71*
G90*
G75*
G01*
%LNTopSilk*%
%LPD*%
D18*
X17908Y16766D3*
X17599Y16884D2*
D17*
X17163Y16366D1*
X15153Y16378D2*
X14716D1*
Y16896D1*
X14723Y18897D2*
Y19415D1*
X15159D1*
X17588Y18888D2*
Y19405D1*
X17151D1*
X23727Y16339D2*
D10*
X22727D1*
X23727Y17739D2*
X22727D1*
D23*
X24198Y16417D3*
X21781Y16362D2*
D10*
X20781D1*
X21781Y17762D2*
X20781D1*
D23*
X22252Y16440D3*
X23484Y20602D2*
D17*
G02X23484Y19252I-80J-675D01*
G01*
X21484D2*
G02X21484Y20602I80J675D01*
G01*
Y19252D2*
X23484D1*
X21484Y20602D2*
X23484D1*
G36*
X23481Y12394D2*
X24098Y13027D1*
X23614Y13374D1*
X23488Y13217D1*
X23481Y12394D1*
G37*
D30*
X23763Y13089D3*
X23478Y12511D2*
D10*
G03X23994Y13014I-68J586D01*
G01*
X23464Y12534D2*
G02X23524Y13154I970J219D01*
G01*
X14556Y20628D2*
D44*
Y20081D1*
X14578Y19972D1*
X14622Y19899D1*
X14687Y19862D1*
X14731D1*
X14797Y19899D1*
X14841Y19972D1*
X14862Y20081D1*
Y20628D1*
X15003Y20481D2*
X15047Y20518D1*
X15113Y20627D1*
Y19862D1*
X18837Y16487D2*
X18815Y16560D1*
X18771Y16633D1*
X18728Y16669D1*
X18640D1*
X18596Y16633D1*
X18553Y16560D1*
X18530Y16487D1*
X18509Y16378D1*
Y16195D1*
X18530Y16086D1*
X18553Y16013D1*
X18596Y15941D1*
X18640Y15903D1*
X18728D1*
X18771Y15941D1*
X18815Y16013D1*
X18837Y16086D1*
X18978Y16523D2*
X19022Y16560D1*
X19088Y16668D1*
Y15903D1*
X19778Y19611D2*
X19756Y19683D1*
X19712Y19756D1*
X19669Y19793D1*
X19582D1*
X19538Y19756D1*
X19494Y19683D1*
X19472Y19611D1*
X19450Y19501D1*
Y19318D1*
X19472Y19210D1*
X19494Y19136D1*
X19538Y19064D1*
X19582Y19027D1*
X19669D1*
X19712Y19064D1*
X19756Y19136D1*
X19778Y19210D1*
X19942Y19610D2*
Y19646D1*
X19963Y19719D1*
X19985Y19755D1*
X20029Y19792D1*
X20116D1*
X20160Y19755D1*
X20182Y19719D1*
X20204Y19646D1*
Y19574D1*
X20182Y19500D1*
X20138Y19392D1*
X19919Y19027D1*
X20226D1*
X23039Y18490D2*
X23235D1*
X23301Y18527D1*
X23323Y18563D1*
X23345Y18635D1*
Y18709D1*
X23323Y18781D1*
X23301Y18818D1*
X23235Y18854D1*
X23039D1*
Y18089D1*
X23192Y18490D2*
X23345Y18089D1*
X23508Y18672D2*
Y18708D1*
X23530Y18781D1*
X23552Y18817D1*
X23596Y18854D1*
X23683D1*
X23727Y18817D1*
X23748Y18781D1*
X23771Y18708D1*
Y18635D1*
X23748Y18562D1*
X23705Y18454D1*
X23486Y18089D1*
X23792D1*
X17166Y21750D2*
X17363D1*
X17428Y21787D1*
X17451Y21823D1*
X17472Y21896D1*
Y21969D1*
X17451Y22041D1*
X17428Y22078D1*
X17363Y22115D1*
X17166D1*
Y21349D1*
X17319Y21750D2*
X17472Y21349D1*
X17658Y22114D2*
X17898D1*
X17767Y21822D1*
X17832D1*
X17876Y21786D1*
X17898Y21750D1*
X17920Y21640D1*
Y21568D1*
X17898Y21459D1*
X17854Y21385D1*
X17788Y21349D1*
X17723D1*
X17658Y21385D1*
X17636Y21422D1*
X17614Y21495D1*
X21191Y18513D2*
X21388D1*
X21453Y18550D1*
X21475Y18587D1*
X21497Y18659D1*
Y18732D1*
X21475Y18805D1*
X21453Y18842D1*
X21388Y18878D1*
X21191D1*
Y18112D1*
X21344Y18513D2*
X21497Y18112D1*
X21638Y18731D2*
X21682Y18768D1*
X21748Y18877D1*
Y18112D1*
X22435Y20952D2*
X22260Y21718D1*
X22085Y20952D1*
X22151Y21207D2*
X22370D1*
X22708Y21717D2*
X22642Y21681D1*
X22598Y21571D1*
X22577Y21389D1*
Y21280D1*
X22598Y21098D1*
X22642Y20988D1*
X22708Y20952D1*
X22751D1*
X22817Y20988D1*
X22861Y21098D1*
X22883Y21280D1*
Y21389D1*
X22861Y21571D1*
X22817Y21681D1*
X22751Y21717D1*
X22708D1*
X22861Y21571D2*
X22598Y21098D1*
X24507Y12961D2*
D45*
X25528Y13194D1*
X24507Y13427D1*
Y13561D2*
X25528D1*
Y13765D1*
X25479Y13852D1*
X25382Y13911D1*
X25284Y13940D1*
X25139Y13969D1*
X24896D1*
X24750Y13940D1*
X24653Y13911D1*
X24555Y13852D1*
X24507Y13765D1*
Y13561D1*
Y14102D2*
X25528D1*
Y14306D1*
X25479Y14394D1*
X25382Y14453D1*
X25284Y14482D1*
X25139Y14511D1*
X24896D1*
X24750Y14482D1*
X24653Y14453D1*
X24555Y14394D1*
X24507Y14306D1*
Y14102D1*
X24773Y15965D2*
X24676Y15936D1*
X24578Y15878D1*
X24530Y15820D1*
Y15703D1*
X24578Y15645D1*
X24676Y15587D1*
X24773Y15557D1*
X24919Y15528D1*
X25162D1*
X25307Y15557D1*
X25405Y15587D1*
X25501Y15645D1*
X25551Y15703D1*
Y15820D1*
X25501Y15878D1*
X25405Y15936D1*
X25307Y15965D1*
X25162D1*
Y15820D1*
X24530Y16507D2*
X25551D1*
X24530Y16099D1*
X25551D1*
X24530Y16640D2*
X25551D1*
Y16845D1*
X25501Y16932D1*
X25405Y16991D1*
X25307Y17020D1*
X25162Y17049D1*
X24919D1*
X24773Y17020D1*
X24676Y16991D1*
X24578Y16932D1*
X24530Y16845D1*
Y16640D1*
X24670Y21061D2*
X24572Y21003D1*
X24524Y20916D1*
Y20799D1*
X24572Y20712D1*
X24670Y20653D1*
X24766D1*
X24864Y20683D1*
X24912Y20712D1*
X24961Y20770D1*
X25058Y20945D1*
X25107Y21003D1*
X25156Y21032D1*
X25253Y21061D1*
X25399D1*
X25495Y21003D1*
X25545Y20916D1*
Y20799D1*
X25495Y20712D1*
X25399Y20653D1*
X24524Y21195D2*
X25545D1*
Y21399D1*
X25495Y21486D1*
X25399Y21545D1*
X25301Y21574D1*
X25156Y21603D1*
X24912D1*
X24766Y21574D1*
X24670Y21545D1*
X24572Y21486D1*
X24524Y21399D1*
Y21195D1*
X25545Y22203D2*
X24524Y21969D1*
X25545Y21736D1*
X25204Y21824D2*
Y22116D1*
X24682Y18645D2*
X24585Y18587D1*
X24536Y18499D1*
Y18383D1*
X24585Y18295D1*
X24682Y18236D1*
X24779D1*
X24877Y18266D1*
X24925Y18295D1*
X24973Y18353D1*
X25071Y18528D1*
X25119Y18587D1*
X25169Y18616D1*
X25265Y18645D1*
X25411D1*
X25508Y18587D1*
X25557Y18499D1*
Y18383D1*
X25508Y18295D1*
X25411Y18236D1*
X24779Y19215D2*
X24682Y19186D1*
X24585Y19128D1*
X24536Y19070D1*
Y18953D1*
X24585Y18895D1*
X24682Y18837D1*
X24779Y18807D1*
X24925Y18778D1*
X25169D1*
X25314Y18807D1*
X25411Y18837D1*
X25508Y18895D1*
X25557Y18953D1*
Y19070D1*
X25508Y19128D1*
X25411Y19186D1*
X25314Y19215D1*
X24536Y19349D2*
X25557D1*
Y19698D1*
X21499Y22002D2*
X21878D1*
Y23023D1*
X21499D1*
X21878Y22489D2*
X21645D1*
X21191Y22003D2*
X21278Y22052D1*
X21337Y22198D1*
X21366Y22440D1*
Y22586D1*
X21337Y22829D1*
X21278Y22975D1*
X21191Y23023D1*
X21133D1*
X21045Y22975D1*
X20987Y22829D1*
X20957Y22586D1*
Y22440D1*
X20987Y22198D1*
X21045Y22052D1*
X21133Y22003D1*
X21191D1*
X20987Y22198D2*
X21337Y22829D1*
X18819Y21979D2*
X19198D1*
Y23000D1*
X18819D1*
X19198Y22465D2*
X18964D1*
X18686Y22175D2*
X18627Y22125D1*
X18539Y21980D1*
Y23000D1*
X16435Y21978D2*
X16814D1*
Y22999D1*
X16435D1*
X16814Y22464D2*
X16581D1*
X16272Y22221D2*
Y22173D1*
X16243Y22075D1*
X16214Y22027D1*
X16156Y21979D1*
X16039D1*
X15981Y22027D1*
X15952Y22075D1*
X15923Y22173D1*
Y22270D1*
X15952Y22367D1*
X16010Y22512D1*
X16302Y22999D1*
X15894D1*
X13924Y21975D2*
X14303D1*
Y22996D1*
X13924D1*
X14303Y22461D2*
X14069D1*
X13732Y21976D2*
X13412D1*
X13586Y22364D1*
X13499D1*
X13441Y22413D1*
X13412Y22461D1*
X13382Y22607D1*
Y22704D1*
X13412Y22850D1*
X13470Y22947D1*
X13557Y22996D1*
X13645D1*
X13732Y22947D1*
X13761Y22898D1*
X13791Y22801D1*
X13297Y21346D2*
Y21725D1*
X12276D1*
Y21346D1*
X12811Y21725D2*
Y21492D1*
X12276Y20921D2*
X13296D1*
X12617Y21213D1*
Y20775D1*
X13286Y18960D2*
Y19338D1*
X12265D1*
Y18960D1*
X12799Y19338D2*
Y19105D1*
X13284Y18477D2*
Y18768D1*
X12848Y18797D1*
X12896Y18768D1*
X12945Y18680D1*
Y18593D1*
X12896Y18506D1*
X12799Y18447D1*
X12653Y18418D1*
X12557D1*
X12411Y18447D1*
X12313Y18506D1*
X12265Y18593D1*
Y18680D1*
X12313Y18768D1*
X12362Y18797D1*
X12459Y18826D1*
X13290Y16580D2*
Y16959D1*
X12269D1*
Y16580D1*
X12804Y16959D2*
Y16726D1*
X13144Y16097D2*
X13241Y16126D1*
X13289Y16214D1*
Y16272D1*
X13241Y16359D1*
X13095Y16418D1*
X12852Y16447D1*
X12610D1*
X12415Y16418D1*
X12318Y16359D1*
X12269Y16272D1*
Y16243D1*
X12318Y16156D1*
X12415Y16097D1*
X12561Y16068D1*
X12610D1*
X12756Y16097D1*
X12852Y16156D1*
X12901Y16243D1*
Y16272D1*
X12852Y16359D1*
X12756Y16418D1*
X12610Y16447D1*
X13273Y14051D2*
Y14429D1*
X12252D1*
Y14051D1*
X12787Y14429D2*
Y14196D1*
X12252Y13801D2*
X13272Y13509D1*
Y13917D1*
X13878Y13279D2*
X13499D1*
Y12258D1*
X13878D1*
X13499Y12792D2*
X13733D1*
X14157Y13277D2*
X14070Y13229D1*
X14040Y13133D1*
Y13035D1*
X14070Y12938D1*
X14128Y12889D1*
X14245Y12841D1*
X14332Y12792D1*
X14390Y12695D1*
X14419Y12598D1*
Y12452D1*
X14390Y12355D1*
X14361Y12306D1*
X14274Y12258D1*
X14157D1*
X14070Y12306D1*
X14040Y12355D1*
X14011Y12452D1*
Y12598D1*
X14040Y12695D1*
X14099Y12792D1*
X14186Y12841D1*
X14302Y12889D1*
X14361Y12938D1*
X14390Y13035D1*
Y13133D1*
X14361Y13229D1*
X14274Y13277D1*
X14157D1*
X16347Y13266D2*
X15968D1*
Y12245D1*
X16347D1*
X15968Y12779D2*
X16201D1*
X16859Y12925D2*
X16830Y12779D1*
X16772Y12682D1*
X16684Y12633D1*
X16655D1*
X16567Y12682D1*
X16510Y12779D1*
X16480Y12925D1*
Y12974D1*
X16510Y13120D1*
X16567Y13216D1*
X16655Y13265D1*
X16684D1*
X16772Y13216D1*
X16830Y13120D1*
X16859Y12925D1*
Y12682D1*
X16830Y12439D1*
X16772Y12293D1*
X16684Y12245D1*
X16626D1*
X16539Y12293D1*
X16510Y12391D1*
X18705Y13259D2*
X18326D1*
Y12238D1*
X18705D1*
X18326Y12773D2*
X18560D1*
X18838Y13064D2*
X18897Y13113D1*
X18985Y13258D1*
Y12238D1*
X19293Y13258D2*
X19206Y13210D1*
X19147Y13064D1*
X19118Y12821D1*
Y12675D1*
X19147Y12433D1*
X19206Y12287D1*
X19293Y12238D1*
X19351D1*
X19439Y12287D1*
X19497Y12433D1*
X19526Y12675D1*
Y12821D1*
X19497Y13064D1*
X19439Y13210D1*
X19351Y13258D1*
X19293D1*
X19497Y13064D2*
X19147Y12433D1*
X21310Y13275D2*
X20931D1*
Y12255D1*
X21310D1*
X20931Y12789D2*
X21164D1*
X21443Y13080D2*
X21502Y13129D1*
X21589Y13274D1*
Y12255D1*
X21722Y13080D2*
X21781Y13129D1*
X21869Y13274D1*
Y12255D1*
X24648Y22961D2*
X24240Y21942D1*
X24106Y21940D2*
Y22961D1*
X23565Y21940D2*
Y22961D1*
X23973Y21940D1*
Y22961D1*
X23227Y21940D2*
Y22961D1*
X23431Y21940D2*
X23023D1*
X14526Y14539D2*
X14146D1*
Y13519D1*
Y14053D2*
X14379D1*
X14689Y14199D2*
X14863Y13519D1*
X14805Y13324D1*
X14747Y13227D1*
X14689Y13178D1*
X14659D1*
X15038Y14199D2*
X14863Y13519D1*
X15172Y14539D2*
Y13519D1*
Y14053D2*
X15230Y14151D1*
X15288Y14199D1*
X15376D1*
X15434Y14151D1*
X15492Y14053D1*
X15521Y13907D1*
Y13811D1*
X15492Y13665D1*
X15434Y13568D1*
X15376Y13519D1*
X15288D1*
X15230Y13568D1*
X15172Y13665D1*
X15655Y13907D2*
X16004D1*
Y14005D1*
X15975Y14103D1*
X15946Y14151D1*
X15888Y14199D1*
X15800D1*
X15742Y14151D1*
X15684Y14053D1*
X15655Y13907D1*
Y13811D1*
X15684Y13665D1*
X15742Y13568D1*
X15800Y13519D1*
X15888D1*
X15946Y13568D1*
X16004Y13665D1*
X16138Y14199D2*
Y13519D1*
Y13907D2*
X16167Y14053D1*
X16225Y14151D1*
X16284Y14199D1*
X16372D1*
X17043Y14539D2*
Y13519D1*
X17392D1*
X17875Y14199D2*
Y13519D1*
Y14053D2*
X17817Y14151D1*
X17759Y14199D1*
X17672D1*
X17613Y14151D1*
X17555Y14053D1*
X17526Y13907D1*
Y13811D1*
X17555Y13665D1*
X17613Y13568D1*
X17672Y13519D1*
X17759D1*
X17817Y13568D1*
X17875Y13665D1*
X18009Y14539D2*
Y13519D1*
Y14053D2*
X18067Y14151D1*
X18125Y14199D1*
X18213D1*
X18271Y14151D1*
X18329Y14053D1*
X18358Y13907D1*
Y13811D1*
X18329Y13665D1*
X18271Y13568D1*
X18213Y13519D1*
X18125D1*
X18067Y13568D1*
X18009Y13665D1*
X18812Y14053D2*
X18783Y14151D1*
X18696Y14199D1*
X18608D1*
X18521Y14151D1*
X18492Y14053D1*
X18521Y13957D1*
X18579Y13907D1*
X18725Y13859D1*
X18783Y13811D1*
X18812Y13713D1*
Y13665D1*
X18783Y13568D1*
X18696Y13519D1*
X18608D1*
X18521Y13568D1*
X18492Y13665D1*
X19483Y14539D2*
Y13519D1*
X19617Y14199D2*
Y13519D1*
Y14005D2*
X19704Y14151D1*
X19763Y14199D1*
X19850D1*
X19909Y14151D1*
X19938Y14005D1*
Y13519D1*
X20421Y14053D2*
X20363Y14151D1*
X20304Y14199D1*
X20217D1*
X20158Y14151D1*
X20100Y14053D1*
X20071Y13907D1*
Y13811D1*
X20100Y13665D1*
X20158Y13568D1*
X20217Y13519D1*
X20304D1*
X20363Y13568D1*
X20421Y13665D1*
X20584Y13616D2*
X20555Y13567D1*
X20584Y13519D1*
X20613Y13567D1*
X20584Y13616D1*
X12914Y15530D2*
X12885Y15627D1*
X12826Y15725D1*
X12768Y15773D1*
X12652D1*
X12593Y15725D1*
X12535Y15627D1*
X12506Y15530D1*
X12477Y15384D1*
Y15141D1*
X12506Y14996D1*
X12535Y14898D1*
X12593Y14802D1*
X12652Y14752D1*
X12768D1*
X12826Y14802D1*
X12885Y14898D1*
X12914Y14996D1*
X13397Y15433D2*
Y14752D1*
Y15287D2*
X13339Y15384D1*
X13280Y15433D1*
X13194D1*
X13135Y15384D1*
X13077Y15287D1*
X13047Y15141D1*
Y15044D1*
X13077Y14898D1*
X13135Y14802D1*
X13194Y14752D1*
X13280D1*
X13339Y14802D1*
X13397Y14898D1*
X13530Y15433D2*
Y14412D1*
Y15287D2*
X13589Y15383D1*
X13647Y15433D1*
X13735D1*
X13793Y15383D1*
X13851Y15287D1*
X13881Y15141D1*
Y15043D1*
X13851Y14898D1*
X13793Y14800D1*
X13735Y14752D1*
X13647D1*
X13589Y14800D1*
X13530Y14898D1*
X14756Y15773D2*
Y14752D1*
X14552Y15773D2*
X14960D1*
X15239Y15433D2*
X15181Y15384D1*
X15122Y15287D1*
X15093Y15141D1*
Y15044D1*
X15122Y14898D1*
X15181Y14802D1*
X15239Y14752D1*
X15327D1*
X15385Y14802D1*
X15443Y14898D1*
X15473Y15044D1*
Y15141D1*
X15443Y15287D1*
X15385Y15384D1*
X15327Y15433D1*
X15239D1*
X15606D2*
Y14946D1*
X15635Y14802D1*
X15694Y14752D1*
X15781D1*
X15839Y14802D1*
X15927Y14946D1*
Y15433D2*
Y14752D1*
X16411Y15287D2*
X16352Y15384D1*
X16293Y15433D1*
X16206D1*
X16148Y15384D1*
X16090Y15287D1*
X16060Y15141D1*
Y15044D1*
X16090Y14898D1*
X16148Y14802D1*
X16206Y14752D1*
X16293D1*
X16352Y14802D1*
X16411Y14898D1*
X16544Y15773D2*
Y14752D1*
Y15238D2*
X16632Y15384D1*
X16690Y15433D1*
X16778D1*
X16836Y15384D1*
X16865Y15238D1*
Y14752D1*
X20182Y15770D2*
X19802D1*
Y14750D1*
Y15284D2*
X20036D1*
X20315Y15770D2*
Y14750D1*
X20448Y15138D2*
X20798D1*
Y15236D1*
X20769Y15334D1*
X20740Y15382D1*
X20682Y15430D1*
X20594D1*
X20536Y15382D1*
X20477Y15284D1*
X20448Y15138D1*
Y15042D1*
X20477Y14896D1*
X20536Y14799D1*
X20594Y14750D1*
X20682D1*
X20740Y14799D1*
X20798Y14896D1*
X20932Y15430D2*
X21252Y14750D1*
Y15430D2*
X20932Y14750D1*
X22390D2*
Y15770D1*
X22156Y14750D1*
X21923Y15770D1*
Y14750D1*
X22668Y15430D2*
X22610Y15382D1*
X22552Y15284D1*
X22523Y15138D1*
Y15042D1*
X22552Y14896D1*
X22610Y14799D1*
X22668Y14750D1*
X22756D1*
X22815Y14799D1*
X22873Y14896D1*
X22902Y15042D1*
Y15138D1*
X22873Y15284D1*
X22815Y15382D1*
X22756Y15430D1*
X22668D1*
X23385Y15770D2*
Y14750D1*
Y15284D2*
X23327Y15382D1*
X23269Y15430D1*
X23181D1*
X23123Y15382D1*
X23065Y15284D1*
X23036Y15138D1*
Y15042D1*
X23065Y14896D1*
X23123Y14799D1*
X23181Y14750D1*
X23269D1*
X23327Y14799D1*
X23385Y14896D1*
X23519Y15430D2*
Y14944D1*
X23548Y14799D1*
X23606Y14750D1*
X23694D1*
X23752Y14799D1*
X23839Y14944D1*
Y15430D2*
Y14750D1*
X23973Y15770D2*
Y14750D1*
X24106Y15138D2*
X24456D1*
Y15236D1*
X24427Y15334D1*
X24398Y15382D1*
X24339Y15430D1*
X24252D1*
X24194Y15382D1*
X24135Y15284D1*
X24106Y15138D1*
Y15042D1*
X24135Y14896D1*
X24194Y14799D1*
X24252Y14750D1*
X24339D1*
X24398Y14799D1*
X24456Y14896D1*
X21046Y14047D2*
X21308D1*
X21396Y14096D1*
X21426Y14145D1*
X21455Y14241D1*
Y14339D1*
X21426Y14435D1*
X21396Y14485D1*
X21308Y14533D1*
X21046D1*
Y13512D1*
X21250Y14047D2*
X21455Y13512D1*
X21763Y14532D2*
X21676Y14484D1*
X21617Y14338D1*
X21588Y14095D1*
Y13949D1*
X21617Y13707D1*
X21676Y13561D1*
X21763Y13512D1*
X21821D1*
X21909Y13561D1*
X21967Y13707D1*
X21996Y13949D1*
Y14095D1*
X21967Y14338D1*
X21909Y14484D1*
X21821Y14532D1*
X21763D1*
X21967Y14338D2*
X21617Y13707D1*
X22159Y13610D2*
X22130Y13561D1*
X22159Y13512D1*
X22188Y13561D1*
X22159Y13610D1*
X22613Y13512D2*
Y14532D1*
X22322Y13853D1*
X22759D1*
X22965Y11683D2*
Y11731D1*
X22994Y11829D1*
X23023Y11877D1*
X23082Y11926D1*
X23198D1*
X23256Y11877D1*
X23285Y11829D1*
X23315Y11731D1*
Y11635D1*
X23285Y11537D1*
X23227Y11392D1*
X22936Y10906D1*
X23344D1*
X23653Y11926D2*
X23565Y11877D1*
X23506Y11731D1*
X23477Y11489D1*
Y11343D1*
X23506Y11100D1*
X23565Y10954D1*
X23653Y10906D1*
X23711D1*
X23798Y10954D1*
X23856Y11100D1*
X23886Y11343D1*
Y11489D1*
X23856Y11731D1*
X23798Y11877D1*
X23711Y11926D1*
X23653D1*
X23856Y11731D2*
X23506Y11100D1*
X24019Y11731D2*
X24078Y11781D1*
X24165Y11926D1*
Y10906D1*
X24648Y11926D2*
X24357D1*
X24328Y11489D1*
X24357Y11537D1*
X24445Y11586D1*
X24532D1*
X24619Y11537D1*
X24678Y11440D1*
X24707Y11294D1*
Y11198D1*
X24678Y11052D1*
X24619Y10954D1*
X24532Y10906D1*
X24445D1*
X24357Y10954D1*
X24328Y11004D1*
X24299Y11100D1*
M02*
