G04 DipTrace 2.4.0.2*
%INcaptouch.gbl*%
%MOMM*%
%ADD15C,0.305*%
%ADD17C,0.152*%
%ADD21R,1.7X1.6*%
%ADD22R,1.7X2.032*%
%ADD23R,1.6X1.7*%
%ADD24R,2.032X1.7*%
%ADD34C,0.711*%
%FSLAX53Y53*%
G04*
G71*
G90*
G75*
G01*
%LNBottom*%
%LPD*%
X21430Y22808D2*
D15*
Y23970D1*
Y25240D1*
X18890Y22808D2*
Y25240D1*
Y22808D2*
Y23970D1*
Y25240D1*
X16350Y22808D2*
Y23970D1*
Y25240D1*
X13810Y22808D2*
Y23970D1*
Y25240D1*
X12433Y21430D2*
X11270D1*
X10000D1*
X12433Y18890D2*
X11270D1*
X10000D1*
X12433Y16350D2*
X11270D1*
X10000D1*
X12433Y13810D2*
X11270D1*
X10000D1*
X13810Y10000D2*
Y11270D1*
Y12433D1*
X16350Y10000D2*
Y11270D1*
Y12433D1*
X18890Y10000D2*
Y11270D1*
Y12433D1*
X21430Y10000D2*
Y11270D1*
Y12433D1*
X23970Y22808D2*
Y23970D1*
Y25240D1*
X18072Y16530D2*
X18037D1*
X17367Y17201D1*
Y20481D1*
X17862Y20976D1*
X22138D1*
X23970Y22808D1*
X19417Y15060D2*
Y16240D1*
X18466Y17192D1*
Y19797D1*
X18050Y20214D1*
X19417Y15060D2*
Y15296D1*
X24294D1*
X25348Y16350D1*
X26510D1*
X27780D1*
X22248Y18584D2*
X19679D1*
X18050Y20214D1*
X19912Y16906D2*
Y17095D1*
X22654D1*
X24449Y18890D1*
X25348D1*
X26510D1*
X27780D1*
X19128Y17477D2*
Y17570D1*
X22461D1*
X26321Y21430D1*
X25348D1*
X26510D1*
X27780D1*
X23292Y14020D2*
X25138D1*
X25348Y13810D1*
X26510D1*
X27780D1*
D34*
X19128Y17477D3*
X19912Y16906D3*
X19417Y15060D3*
X18050Y20214D3*
X23292Y14020D3*
X17551Y14843D3*
X22248Y18584D3*
X18072Y16530D3*
X16505Y15353D2*
D17*
X18601D1*
X16505Y15204D2*
X18829D1*
X24763D2*
X26759D1*
X16507Y15055D2*
X18813D1*
X24615D2*
X26759D1*
X16507Y14906D2*
X18832D1*
X20003D2*
X26759D1*
X16507Y14756D2*
X18896D1*
X19938D2*
X26759D1*
X16509Y14607D2*
X19022D1*
X19810D2*
X26759D1*
X16509Y14458D2*
X26759D1*
X16509Y14309D2*
X26759D1*
X16512Y14160D2*
X26759D1*
X16512Y14011D2*
X26759D1*
X16512Y13862D2*
X26759D1*
X16514Y13713D2*
X26759D1*
X16514Y13564D2*
X26759D1*
X16517Y13415D2*
X26759D1*
X16517Y13266D2*
X26759D1*
X16517Y13117D2*
X26759D1*
X16876Y12968D2*
X18363D1*
X19417D2*
X20903D1*
X21958D2*
X26728D1*
X17167Y12819D2*
X18074D1*
X19708D2*
X20613D1*
X22246D2*
X26573D1*
X17402Y12670D2*
X17836D1*
X19943D2*
X20377D1*
X22484D2*
X26421D1*
X17450Y12520D2*
X17791D1*
X19989D2*
X20329D1*
X22529D2*
X26268D1*
X17450Y12371D2*
X17791D1*
X19989D2*
X20329D1*
X22529D2*
X26114D1*
X17450Y12222D2*
X17791D1*
X19989D2*
X20329D1*
X22529D2*
X25961D1*
X17450Y12073D2*
X17791D1*
X19989D2*
X20329D1*
X22529D2*
X25809D1*
X17450Y11924D2*
X17791D1*
X19989D2*
X20329D1*
X22529D2*
X25654D1*
X17450Y11775D2*
X17791D1*
X19989D2*
X20329D1*
X22529D2*
X25502D1*
X17450Y11626D2*
X17791D1*
X19989D2*
X20329D1*
X22529D2*
X25349D1*
X17450Y11477D2*
X17791D1*
X19989D2*
X20329D1*
X22529D2*
X25194D1*
X17450Y11328D2*
X17791D1*
X19989D2*
X20329D1*
X22529D2*
X25042D1*
X17450Y11179D2*
X17791D1*
X19989D2*
X20329D1*
X22529D2*
X24890D1*
X17435Y12000D2*
Y11120D1*
X17807D1*
X17805Y11607D1*
X17808Y12305D1*
X17805Y12370D1*
Y12530D1*
X17818Y12605D1*
X17853Y12672D1*
X17910Y12725D1*
X18000Y12774D1*
X18458Y13009D1*
X18532Y13032D1*
X18641Y13035D1*
X19215D1*
X19292Y13021D1*
X19390Y12974D1*
X19847Y12739D1*
X19908Y12694D1*
X19952Y12631D1*
X19973Y12556D1*
X19975Y12454D1*
Y11126D1*
X20346Y11128D1*
X20348Y12305D1*
X20345Y12370D1*
Y12530D1*
X20358Y12605D1*
X20393Y12672D1*
X20450Y12725D1*
X20540Y12774D1*
X20998Y13009D1*
X21072Y13032D1*
X21181Y13035D1*
X21755D1*
X21832Y13021D1*
X21930Y12974D1*
X22387Y12739D1*
X22448Y12694D1*
X22492Y12631D1*
X22513Y12556D1*
X22515Y12454D1*
Y11136D1*
X24865Y11142D1*
X26701Y12928D1*
X26775Y13000D1*
X26774Y14719D1*
Y15264D1*
X26529Y15265D1*
X25475D1*
X25250D1*
X25175Y15278D1*
X25108Y15313D1*
X25055Y15370D1*
X25067Y15354D1*
X25004Y15371D1*
X24824Y15279D1*
X24568Y15023D1*
X24509Y14975D1*
X24442Y14939D1*
X24369Y14917D1*
X24294Y14909D1*
X19988D1*
X19964Y14837D1*
X19930Y14768D1*
X19889Y14705D1*
X19839Y14647D1*
X19782Y14596D1*
X19720Y14553D1*
X19652Y14518D1*
X19580Y14492D1*
X19506Y14476D1*
X19430Y14470D1*
X19354Y14473D1*
X19279Y14486D1*
X19206Y14508D1*
X19137Y14540D1*
X19072Y14581D1*
X19014Y14629D1*
X18961Y14684D1*
X18917Y14746D1*
X18881Y14813D1*
X18853Y14884D1*
X18836Y14958D1*
X18827Y15034D1*
X18829Y15110D1*
X18840Y15185D1*
X18859Y15252D1*
X18269Y15494D1*
X16488Y15493D1*
X16503Y13034D1*
X16675Y13035D1*
X16752Y13021D1*
X16850Y12974D1*
X17307Y12739D1*
X17368Y12694D1*
X17412Y12631D1*
X17433Y12556D1*
X17435Y12454D1*
Y12000D1*
X14910Y24355D2*
X15251D1*
X17449D2*
X17790D1*
X19990D2*
X20330D1*
X22530D2*
X22871D1*
X14910Y24206D2*
X15251D1*
X17449D2*
X17790D1*
X19990D2*
X20330D1*
X22530D2*
X22871D1*
X14910Y24057D2*
X15251D1*
X17449D2*
X17790D1*
X19990D2*
X20330D1*
X22530D2*
X22871D1*
X14910Y23908D2*
X15251D1*
X17449D2*
X17790D1*
X19990D2*
X20330D1*
X22530D2*
X22871D1*
X12534Y23758D2*
X12710D1*
X14910D2*
X15251D1*
X17449D2*
X17790D1*
X19990D2*
X20330D1*
X22530D2*
X22871D1*
X25069D2*
X25245D1*
X12384Y23609D2*
X12710D1*
X14910D2*
X15251D1*
X17449D2*
X17790D1*
X19990D2*
X20330D1*
X22530D2*
X22871D1*
X25069D2*
X25395D1*
X12236Y23460D2*
X12710D1*
X14910D2*
X15251D1*
X17449D2*
X17790D1*
X19990D2*
X20330D1*
X22530D2*
X22871D1*
X25069D2*
X25543D1*
X12086Y23311D2*
X12710D1*
X14910D2*
X15251D1*
X17449D2*
X17790D1*
X19990D2*
X20330D1*
X22530D2*
X22871D1*
X25069D2*
X25693D1*
X11936Y23162D2*
X12710D1*
X14910D2*
X15251D1*
X17449D2*
X17790D1*
X19990D2*
X20330D1*
X22530D2*
X22871D1*
X25069D2*
X25843D1*
X11788Y23013D2*
X12710D1*
X14910D2*
X15251D1*
X17449D2*
X17790D1*
X19990D2*
X20330D1*
X22530D2*
X22871D1*
X25069D2*
X25991D1*
X11638Y22864D2*
X12710D1*
X14910D2*
X15251D1*
X17449D2*
X17790D1*
X19990D2*
X20330D1*
X22530D2*
X22871D1*
X25069D2*
X26141D1*
X11491Y22715D2*
X12710D1*
X14910D2*
X15251D1*
X17449D2*
X17790D1*
X19990D2*
X20330D1*
X22530D2*
X22871D1*
X25069D2*
X26288D1*
X11341Y22566D2*
X12761D1*
X14860D2*
X15299D1*
X17401D2*
X17840D1*
X19939D2*
X20381D1*
X22480D2*
X22919D1*
X25021D2*
X26438D1*
X12736Y22417D2*
X13003D1*
X14617D2*
X15542D1*
X17158D2*
X18083D1*
X19697D2*
X20623D1*
X22237D2*
X23017D1*
X24778D2*
X25045D1*
X12815Y22268D2*
X13292D1*
X14327D2*
X15832D1*
X16868D2*
X18373D1*
X19408D2*
X20912D1*
X21947D2*
X22869D1*
X24488D2*
X24964D1*
X12891Y22119D2*
X22719D1*
X23842D2*
X24888D1*
X12967Y21970D2*
X22569D1*
X23695D2*
X24812D1*
X13041Y21821D2*
X22421D1*
X23545D2*
X24741D1*
X13051Y21672D2*
X22271D1*
X23397D2*
X24731D1*
X13051Y21522D2*
X22124D1*
X23247D2*
X24731D1*
X13051Y21373D2*
X21974D1*
X23097D2*
X24731D1*
X13051Y21224D2*
X17549D1*
X22949D2*
X24731D1*
X13048Y21075D2*
X17399D1*
X22799D2*
X24733D1*
X12986Y20926D2*
X17249D1*
X22652D2*
X24793D1*
X12910Y20777D2*
X17102D1*
X22502D2*
X24869D1*
X12834Y20628D2*
X16994D1*
X22323D2*
X24945D1*
X12758Y20479D2*
X16966D1*
X17927D2*
X24807D1*
X10751Y20330D2*
X16966D1*
X17777D2*
X24657D1*
X10751Y20181D2*
X16966D1*
X17768D2*
X24510D1*
X10751Y20032D2*
X16966D1*
X17768D2*
X24360D1*
X12731Y19883D2*
X16966D1*
X17768D2*
X24212D1*
X12812Y19734D2*
X16966D1*
X17768D2*
X24062D1*
X12889Y19585D2*
X16966D1*
X17768D2*
X23912D1*
X12965Y19436D2*
X16966D1*
X17768D2*
X23764D1*
X13039Y19286D2*
X16966D1*
X17768D2*
X23614D1*
X13051Y19137D2*
X16966D1*
X17768D2*
X23467D1*
X13051Y18988D2*
X16966D1*
X17768D2*
X23317D1*
X13051Y18839D2*
X16966D1*
X17768D2*
X23167D1*
X13051Y18690D2*
X16966D1*
X17768D2*
X23019D1*
X13048Y18541D2*
X16966D1*
X17768D2*
X22869D1*
X12991Y18392D2*
X16966D1*
X17768D2*
X22721D1*
X24514D2*
X24791D1*
X12912Y18243D2*
X16966D1*
X17768D2*
X22571D1*
X24364D2*
X24867D1*
X12836Y18094D2*
X16966D1*
X17768D2*
X22421D1*
X24216D2*
X24943D1*
X12760Y17945D2*
X16966D1*
X17768D2*
X18754D1*
X24066D2*
X25019D1*
X10751Y17796D2*
X16966D1*
X17768D2*
X18616D1*
X23916D2*
X27029D1*
X10751Y17647D2*
X16966D1*
X17768D2*
X18547D1*
X23769D2*
X27029D1*
X10751Y17498D2*
X16966D1*
X17768D2*
X18523D1*
X23619D2*
X27029D1*
X12727Y17349D2*
X16966D1*
X17782D2*
X18537D1*
X23471D2*
X27029D1*
X12810Y17200D2*
X16966D1*
X17930D2*
X18592D1*
X23321D2*
X27029D1*
X12886Y17050D2*
X16994D1*
X18365D2*
X18704D1*
X23171D2*
X27029D1*
X12962Y16901D2*
X17104D1*
X18546D2*
X18983D1*
X23023D2*
X27029D1*
X13036Y16752D2*
X17254D1*
X18635D2*
X19328D1*
X22849D2*
X27029D1*
X13051Y16603D2*
X17402D1*
X18673D2*
X19390D1*
X20432D2*
X27029D1*
X13051Y16454D2*
X17471D1*
X18673D2*
X19518D1*
X20306D2*
X27029D1*
X13051Y16305D2*
X17511D1*
X18632D2*
X27029D1*
X13051Y16156D2*
X17602D1*
X18544D2*
X27029D1*
X13048Y16007D2*
X17785D1*
X18361D2*
X27029D1*
X12993Y15858D2*
X27029D1*
X12917Y15709D2*
X16209D1*
X18580D2*
X24967D1*
X26952D2*
X27029D1*
X12839Y15560D2*
X16163D1*
X18947D2*
X24674D1*
X12762Y15411D2*
X16163D1*
X20199D2*
X24383D1*
X10751Y15262D2*
X16163D1*
X10751Y15113D2*
X16166D1*
X10751Y14964D2*
X16166D1*
X12722Y14814D2*
X16166D1*
X12805Y14665D2*
X16168D1*
X12884Y14516D2*
X16168D1*
X12960Y14367D2*
X16170D1*
X13034Y14218D2*
X16170D1*
X13051Y14069D2*
X16170D1*
X13051Y13920D2*
X16173D1*
X13051Y13771D2*
X16173D1*
X13051Y13622D2*
X16173D1*
X13048Y13473D2*
X16175D1*
X12996Y13324D2*
X16175D1*
X12920Y13175D2*
X16175D1*
X12843Y13026D2*
X13406D1*
X14213D2*
X15947D1*
X12765Y12877D2*
X13106D1*
X14513D2*
X15647D1*
X12574Y12728D2*
X12818D1*
X14801D2*
X15358D1*
X11436Y12578D2*
X12715D1*
X14906D2*
X15256D1*
X11586Y12429D2*
X12710D1*
X14910D2*
X15251D1*
X11734Y12280D2*
X12710D1*
X14910D2*
X15251D1*
X11884Y12131D2*
X12710D1*
X14910D2*
X15251D1*
X12034Y11982D2*
X12710D1*
X14910D2*
X15251D1*
X12181Y11833D2*
X12710D1*
X14910D2*
X15251D1*
X12331Y11684D2*
X12710D1*
X14910D2*
X15251D1*
X12479Y11535D2*
X12710D1*
X14910D2*
X15251D1*
X12629Y11386D2*
X12710D1*
X14910D2*
X15251D1*
X14910Y11237D2*
X15251D1*
X14910Y11088D2*
X15251D1*
X14910Y10939D2*
X15251D1*
X14910Y10790D2*
X15251D1*
X25055Y23964D2*
X25052Y22935D1*
X25055Y22870D1*
Y22710D1*
X25042Y22635D1*
X25007Y22568D1*
X24950Y22515D1*
X24860Y22466D1*
X24402Y22231D1*
X24328Y22208D1*
X24219Y22205D1*
X23916D1*
X22412Y20702D1*
X22353Y20654D1*
X22286Y20618D1*
X22213Y20596D1*
X22138Y20589D1*
X18021D1*
X17753Y20320D1*
X17754Y17359D1*
X17999Y17116D1*
X18110Y17119D1*
X18185Y17110D1*
X18259Y17090D1*
X18329Y17061D1*
X18396Y17024D1*
X18456Y16978D1*
X18511Y16925D1*
X18558Y16865D1*
X18597Y16800D1*
X18627Y16730D1*
X18648Y16657D1*
X18662Y16530D1*
X18657Y16454D1*
X18643Y16380D1*
X18618Y16307D1*
X18585Y16239D1*
X18543Y16175D1*
X18494Y16117D1*
X18437Y16067D1*
X18374Y16023D1*
X18307Y15989D1*
X18235Y15963D1*
X18161Y15947D1*
X18085Y15940D1*
X18009Y15943D1*
X17934Y15956D1*
X17861Y15979D1*
X17792Y16011D1*
X17727Y16051D1*
X17668Y16099D1*
X17616Y16155D1*
X17572Y16217D1*
X17536Y16284D1*
X17508Y16355D1*
X17490Y16429D1*
X17483Y16536D1*
X17093Y16927D1*
X17045Y16986D1*
X17009Y17053D1*
X16987Y17126D1*
X16980Y17201D1*
Y20481D1*
X16987Y20556D1*
X17009Y20629D1*
X17045Y20696D1*
X17093Y20754D1*
X17588Y21250D1*
X17647Y21298D1*
X17714Y21334D1*
X17787Y21356D1*
X17862Y21363D1*
X21979D1*
X23082Y22467D1*
X23013Y22501D1*
X22952Y22546D1*
X22908Y22609D1*
X22887Y22684D1*
X22885Y22786D1*
Y24505D1*
X22516Y24504D1*
X22515Y23786D1*
X22512Y22935D1*
X22515Y22870D1*
Y22710D1*
X22502Y22635D1*
X22467Y22568D1*
X22410Y22515D1*
X22320Y22466D1*
X21862Y22231D1*
X21788Y22208D1*
X21679Y22205D1*
X21105D1*
X21028Y22219D1*
X20930Y22266D1*
X20473Y22501D1*
X20412Y22546D1*
X20368Y22609D1*
X20347Y22684D1*
X20345Y22786D1*
Y24506D1*
X19973Y24504D1*
X19975Y23709D1*
X19972Y22935D1*
X19975Y22870D1*
Y22710D1*
X19962Y22635D1*
X19927Y22568D1*
X19870Y22515D1*
X19780Y22466D1*
X19322Y22231D1*
X19248Y22208D1*
X19139Y22205D1*
X18565D1*
X18488Y22219D1*
X18390Y22266D1*
X17933Y22501D1*
X17872Y22546D1*
X17828Y22609D1*
X17807Y22684D1*
X17805Y22786D1*
Y24505D1*
X17435Y24504D1*
X17432Y22935D1*
X17435Y22870D1*
Y22710D1*
X17422Y22635D1*
X17387Y22568D1*
X17330Y22515D1*
X17240Y22466D1*
X16782Y22231D1*
X16708Y22208D1*
X16599Y22205D1*
X16025D1*
X15948Y22219D1*
X15850Y22266D1*
X15393Y22501D1*
X15332Y22546D1*
X15288Y22609D1*
X15267Y22684D1*
X15265Y22786D1*
Y24505D1*
X14896Y24504D1*
X14895Y23786D1*
X14892Y22935D1*
X14895Y22870D1*
Y22710D1*
X14882Y22635D1*
X14847Y22568D1*
X14790Y22515D1*
X14700Y22466D1*
X14242Y22231D1*
X14168Y22208D1*
X14059Y22205D1*
X13485D1*
X13408Y22219D1*
X13310Y22266D1*
X12853Y22501D1*
X12792Y22546D1*
X12748Y22609D1*
X12727Y22684D1*
X12725Y22786D1*
Y23966D1*
X11274Y22514D1*
X12305Y22515D1*
X12530D1*
X12605Y22502D1*
X12672Y22467D1*
X12725Y22410D1*
X12774Y22320D1*
X13009Y21862D1*
X13032Y21788D1*
X13035Y21679D1*
Y21105D1*
X13021Y21028D1*
X12974Y20930D1*
X12739Y20473D1*
X12694Y20412D1*
X12631Y20368D1*
X12556Y20347D1*
X12454Y20345D1*
X10735D1*
X10736Y19976D1*
X11455Y19975D1*
X12305Y19972D1*
X12370Y19975D1*
X12530D1*
X12605Y19962D1*
X12672Y19927D1*
X12725Y19870D1*
X12774Y19780D1*
X13009Y19322D1*
X13032Y19248D1*
X13035Y19139D1*
Y18565D1*
X13021Y18488D1*
X12974Y18390D1*
X12739Y17933D1*
X12694Y17872D1*
X12631Y17828D1*
X12556Y17807D1*
X12454Y17805D1*
X10734D1*
X10736Y17433D1*
X11531Y17435D1*
X12305Y17432D1*
X12370Y17435D1*
X12530D1*
X12605Y17422D1*
X12672Y17387D1*
X12725Y17330D1*
X12774Y17240D1*
X13009Y16782D1*
X13032Y16708D1*
X13035Y16599D1*
Y16025D1*
X13021Y15948D1*
X12974Y15850D1*
X12739Y15393D1*
X12694Y15332D1*
X12631Y15288D1*
X12556Y15267D1*
X12454Y15265D1*
X10735D1*
X10736Y14895D1*
X12305Y14892D1*
X12370Y14895D1*
X12530D1*
X12605Y14882D1*
X12672Y14847D1*
X12725Y14790D1*
X12774Y14700D1*
X13009Y14242D1*
X13032Y14168D1*
X13035Y14059D1*
Y13485D1*
X13021Y13408D1*
X12974Y13310D1*
X12739Y12853D1*
X12694Y12792D1*
X12631Y12748D1*
X12556Y12727D1*
X12454Y12725D1*
X11274D1*
X12726Y11274D1*
X12725Y12305D1*
Y12530D1*
X12738Y12605D1*
X12773Y12672D1*
X12830Y12725D1*
X12920Y12774D1*
X13378Y13009D1*
X13452Y13032D1*
X13561Y13035D1*
X14135D1*
X14212Y13021D1*
X14310Y12974D1*
X14767Y12739D1*
X14828Y12694D1*
X14872Y12631D1*
X14893Y12556D1*
X14895Y12454D1*
Y10735D1*
X15264Y10736D1*
X15265Y11455D1*
X15268Y12305D1*
X15265Y12370D1*
Y12530D1*
X15278Y12605D1*
X15313Y12672D1*
X15370Y12725D1*
X15460Y12774D1*
X15918Y13009D1*
X15992Y13032D1*
X16101Y13035D1*
X16194D1*
X16189Y13553D1*
X16177Y15568D1*
X16189Y15643D1*
X16224Y15710D1*
X16279Y15762D1*
X16348Y15795D1*
X16412Y15804D1*
X18286D1*
X18375Y15786D1*
X19255Y15429D1*
X24243Y15331D1*
X25134Y15787D1*
X25202Y15809D1*
X25330Y15808D1*
X26863Y15725D1*
X26937Y15709D1*
X27003Y15668D1*
X27044Y15671D1*
Y17807D1*
X26249Y17805D1*
X25475Y17808D1*
X25410Y17805D1*
X25250D1*
X25175Y17818D1*
X25108Y17853D1*
X25055Y17910D1*
X25006Y18000D1*
X24771Y18460D1*
X24738Y18503D1*
X24607D1*
X24076Y17970D1*
X22928Y16821D1*
X22869Y16773D1*
X22802Y16737D1*
X22729Y16715D1*
X22654Y16708D1*
X20466D1*
X20425Y16615D1*
X20383Y16551D1*
X20334Y16494D1*
X20277Y16443D1*
X20214Y16400D1*
X20146Y16365D1*
X20075Y16339D1*
X20000Y16323D1*
X19925Y16316D1*
X19848Y16320D1*
X19773Y16333D1*
X19701Y16355D1*
X19631Y16387D1*
X19567Y16427D1*
X19508Y16476D1*
X19456Y16531D1*
X19412Y16593D1*
X19375Y16660D1*
X19348Y16731D1*
X19330Y16805D1*
X19323Y16921D1*
X19217Y16893D1*
X19141Y16886D1*
X19065Y16890D1*
X18990Y16903D1*
X18917Y16925D1*
X18848Y16957D1*
X18783Y16997D1*
X18724Y17046D1*
X18672Y17101D1*
X18628Y17163D1*
X18592Y17230D1*
X18564Y17301D1*
X18546Y17375D1*
X18538Y17451D1*
X18540Y17527D1*
X18551Y17602D1*
X18572Y17676D1*
X18602Y17745D1*
X18641Y17811D1*
X18688Y17871D1*
X18743Y17924D1*
X18804Y17970D1*
X18870Y18008D1*
X18940Y18036D1*
X19014Y18056D1*
X19089Y18066D1*
X19166D1*
X19241Y18056D1*
X19315Y18037D1*
X19385Y18008D1*
X19469Y17957D1*
X22302D1*
X23588Y19245D1*
X24963Y20620D1*
X24771Y20998D1*
X24748Y21072D1*
X24745Y21181D1*
Y21755D1*
X24759Y21832D1*
X24806Y21930D1*
X25041Y22387D1*
X25086Y22448D1*
X25149Y22492D1*
X25224Y22513D1*
X25326Y22515D1*
X26506D1*
X25054Y23966D1*
D21*
X23970Y23970D3*
X21430D3*
X18890D3*
X16350D3*
X13810D3*
G36*
X20580Y22710D2*
Y23175D1*
X22280D1*
Y22710D1*
X21755Y22440D1*
X21105D1*
X20580Y22710D1*
G37*
G36*
X23120D2*
Y23175D1*
X24820D1*
Y22710D1*
X24295Y22440D1*
X23645D1*
X23120Y22710D1*
G37*
G36*
X18040D2*
Y23175D1*
X19740D1*
Y22710D1*
X19215Y22440D1*
X18565D1*
X18040Y22710D1*
G37*
G36*
X12960D2*
Y23175D1*
X14660D1*
Y22710D1*
X14135Y22440D1*
X13485D1*
X12960Y22710D1*
G37*
G36*
X15500D2*
Y23175D1*
X17200D1*
Y22710D1*
X16675Y22440D1*
X16025D1*
X15500Y22710D1*
G37*
D22*
X23970Y25240D3*
X21430D3*
X18890D3*
X16350D3*
X13810D3*
D23*
X11270Y21430D3*
Y18890D3*
Y16350D3*
Y13810D3*
G36*
X12530Y18040D2*
X12065D1*
Y19740D1*
X12530D1*
X12800Y19215D1*
Y18565D1*
X12530Y18040D1*
G37*
G36*
Y20580D2*
X12065D1*
Y22280D1*
X12530D1*
X12800Y21755D1*
Y21105D1*
X12530Y20580D1*
G37*
G36*
Y12960D2*
X12065D1*
Y14660D1*
X12530D1*
X12800Y14135D1*
Y13485D1*
X12530Y12960D1*
G37*
G36*
Y15500D2*
X12065D1*
Y17200D1*
X12530D1*
X12800Y16675D1*
Y16025D1*
X12530Y15500D1*
G37*
D24*
X10000Y21430D3*
Y18890D3*
Y16350D3*
Y13810D3*
D21*
X13810Y11270D3*
X16350D3*
X18890D3*
X21430D3*
G36*
X17200Y12530D2*
Y12065D1*
X15500D1*
Y12530D1*
X16025Y12800D1*
X16675D1*
X17200Y12530D1*
G37*
G36*
X14660D2*
Y12065D1*
X12960D1*
Y12530D1*
X13485Y12800D1*
X14135D1*
X14660Y12530D1*
G37*
G36*
X22280D2*
Y12065D1*
X20580D1*
Y12530D1*
X21105Y12800D1*
X21755D1*
X22280Y12530D1*
G37*
G36*
X19740D2*
Y12065D1*
X18040D1*
Y12530D1*
X18565Y12800D1*
X19215D1*
X19740Y12530D1*
G37*
D22*
X13810Y10000D3*
X16350D3*
X18890D3*
X21430D3*
D23*
X26510Y21430D3*
Y18890D3*
Y16350D3*
Y13810D3*
G36*
X25250Y19740D2*
X25715D1*
Y18040D1*
X25250D1*
X24980Y18565D1*
Y19215D1*
X25250Y19740D1*
G37*
G36*
Y22280D2*
X25715D1*
Y20580D1*
X25250D1*
X24980Y21105D1*
Y21755D1*
X25250Y22280D1*
G37*
G36*
Y14660D2*
X25715D1*
Y12960D1*
X25250D1*
X24980Y13485D1*
Y14135D1*
X25250Y14660D1*
G37*
G36*
Y17200D2*
X25715D1*
Y15500D1*
X25250D1*
X24980Y16025D1*
Y16675D1*
X25250Y17200D1*
G37*
D24*
X27780Y13810D3*
Y16350D3*
Y18890D3*
Y21430D3*
G36*
X15208Y17618D2*
X15399Y17647D1*
X15546Y17707D1*
X15640Y17783D1*
X15716Y17859D1*
X15780Y17972D1*
X15805Y18037D1*
X15825Y18132D1*
X15836Y18183D1*
X15841Y18266D1*
X15818Y18330D1*
X15780Y18368D1*
X15754Y18394D1*
X15742Y18458D1*
X15747Y18483D1*
X15762Y18534D1*
X15792Y18561D1*
X15711Y18661D1*
X15635Y18610D1*
X15617D1*
X15581Y18699D1*
X15526Y18711D1*
X15424Y18721D1*
X15531Y18469D1*
Y18437D1*
X15523Y18394D1*
X15500Y18384D1*
X15449Y18404D1*
X15386Y18520D1*
X15315Y18691D1*
X15264Y18666D1*
X15210Y18602D1*
X15284Y18412D1*
X15246Y18418D1*
X15208D1*
Y17618D1*
G37*
M02*
