G04 DipTrace 2.4.0.2*
%INUSBHiPower.gts*%
%MOIN*%
%ADD13C,0.006*%
%ADD35C,0.0065*%
%ADD36C,0.007*%
%ADD56R,0.1496X0.0926*%
%ADD57R,0.1083X0.065*%
%ADD58R,0.0965X0.065*%
%ADD59R,0.0177X0.0551*%
%ADD60R,0.0225X0.0138*%
%ADD62R,0.0256X0.0118*%
%ADD65R,0.0114X0.0256*%
%ADD66R,0.0114X0.0296*%
%ADD67R,0.013X0.0296*%
%ADD68R,0.0296X0.015*%
%ADD69R,0.0374X0.0296*%
%ADD70R,0.1792X0.1004*%
%ADD71R,0.0296X0.0374*%
%ADD72R,0.0414X0.0453*%
%ADD73R,0.0453X0.0414*%
%ADD74R,0.0689X0.082*%
%ADD75R,0.082X0.0689*%
%FSLAX44Y44*%
G04*
G70*
G90*
G75*
G01*
%LNTopMask*%
%LPD*%
D75*
X3940Y9296D3*
X10940Y8296D3*
Y9296D3*
Y10296D3*
D74*
X9940Y11296D3*
D75*
X3940Y4296D3*
Y5296D3*
Y6296D3*
Y7296D3*
Y10296D3*
D73*
X7449Y7281D3*
X8118D3*
X8163Y10444D3*
X8833D3*
X7648Y10167D3*
X6979D3*
D72*
X6886Y7174D3*
Y6505D3*
X6440Y9048D3*
Y8379D3*
D73*
X5099Y8347D3*
X5768D3*
D71*
X6318Y10065D3*
Y10577D3*
D75*
X10940Y4296D3*
Y5296D3*
Y6296D3*
Y7296D3*
X3940Y8296D3*
D70*
X9553Y7014D3*
Y8589D3*
D73*
X8827Y9907D3*
X8158D3*
X9473Y9386D3*
X8804D3*
D72*
X9991Y10052D3*
Y9383D3*
D69*
X7419Y9313D3*
X6907D3*
D71*
X4997Y6987D3*
Y7499D3*
X5371Y7202D3*
Y7714D3*
X4561Y8220D3*
Y7708D3*
X4946Y10116D3*
Y10628D3*
X4567Y10124D3*
Y10636D3*
D69*
X5374Y10629D3*
X5886D3*
D68*
X5925Y9385D3*
D67*
X5826Y9681D3*
D66*
X5630D3*
X5433D3*
D67*
X5236D3*
D68*
X5137Y9385D3*
D67*
X5236Y9090D3*
D66*
X5433D3*
X5630D3*
D67*
X5826D3*
X5964Y7187D2*
D35*
X5965Y7195D1*
Y7203D1*
X5967Y7210D1*
X5968Y7218D1*
X5971Y7225D1*
X5973Y7232D1*
X5977Y7239D1*
X5980Y7246D1*
X5984Y7252D1*
X5989Y7258D1*
X5994Y7264D1*
X5999Y7269D1*
X6005Y7274D1*
X6011Y7279D1*
X6017Y7283D1*
X6023Y7286D1*
X6030Y7289D1*
X6037Y7292D1*
X6044Y7294D1*
X6051Y7296D1*
X6058Y7297D1*
X6066D1*
X6073D1*
X6080D1*
X6088Y7296D1*
X6095Y7294D1*
X6102Y7292D1*
X6109Y7289D1*
X6115Y7286D1*
X6122Y7283D1*
X6128Y7279D1*
X6134Y7274D1*
X6140Y7269D1*
X6145Y7264D1*
X6150Y7258D1*
X6154Y7252D1*
X6158Y7246D1*
X6162Y7239D1*
X6165Y7232D1*
X6168Y7225D1*
X6170Y7218D1*
X6172Y7210D1*
X6173Y7203D1*
X6174Y7195D1*
Y7187D1*
Y7180D1*
X6173Y7172D1*
X6172Y7165D1*
X6170Y7157D1*
X6168Y7150D1*
X6165Y7143D1*
X6162Y7136D1*
X6158Y7129D1*
X6154Y7123D1*
X6150Y7117D1*
X6145Y7111D1*
X6140Y7106D1*
X6134Y7101D1*
X6128Y7096D1*
X6122Y7092D1*
X6115Y7089D1*
X6109Y7085D1*
X6102Y7083D1*
X6095Y7081D1*
X6088Y7079D1*
X6080Y7078D1*
X6073D1*
X6066D1*
X6058D1*
X6051Y7079D1*
X6044Y7081D1*
X6037Y7083D1*
X6030Y7085D1*
X6023Y7089D1*
X6017Y7092D1*
X6011Y7096D1*
X6005Y7101D1*
X5999Y7106D1*
X5994Y7111D1*
X5989Y7117D1*
X5984Y7123D1*
X5980Y7129D1*
X5977Y7136D1*
X5973Y7143D1*
X5971Y7150D1*
X5968Y7157D1*
X5967Y7165D1*
X5965Y7172D1*
Y7180D1*
X5964Y7187D1*
X6319D2*
Y7195D1*
X6320Y7203D1*
X6321Y7210D1*
X6323Y7218D1*
X6325Y7225D1*
X6328Y7232D1*
X6331Y7239D1*
X6335Y7246D1*
X6339Y7252D1*
X6343Y7258D1*
X6348Y7264D1*
X6353Y7269D1*
X6359Y7274D1*
X6365Y7279D1*
X6371Y7283D1*
X6378Y7286D1*
X6384Y7289D1*
X6391Y7292D1*
X6398Y7294D1*
X6405Y7296D1*
X6413Y7297D1*
X6420D1*
X6427D1*
X6435D1*
X6442Y7296D1*
X6449Y7294D1*
X6456Y7292D1*
X6463Y7289D1*
X6470Y7286D1*
X6476Y7283D1*
X6482Y7279D1*
X6488Y7274D1*
X6494Y7269D1*
X6499Y7264D1*
X6504Y7258D1*
X6509Y7252D1*
X6513Y7246D1*
X6516Y7239D1*
X6520Y7232D1*
X6522Y7225D1*
X6525Y7218D1*
X6526Y7210D1*
X6528Y7203D1*
Y7195D1*
X6529Y7187D1*
X6528Y7180D1*
Y7172D1*
X6526Y7165D1*
X6525Y7157D1*
X6522Y7150D1*
X6520Y7143D1*
X6516Y7136D1*
X6513Y7129D1*
X6509Y7123D1*
X6504Y7117D1*
X6499Y7111D1*
X6494Y7106D1*
X6488Y7101D1*
X6482Y7096D1*
X6476Y7092D1*
X6470Y7089D1*
X6463Y7085D1*
X6456Y7083D1*
X6449Y7081D1*
X6442Y7079D1*
X6435Y7078D1*
X6427D1*
X6420D1*
X6413D1*
X6405Y7079D1*
X6398Y7081D1*
X6391Y7083D1*
X6384Y7085D1*
X6378Y7089D1*
X6371Y7092D1*
X6365Y7096D1*
X6359Y7101D1*
X6353Y7106D1*
X6348Y7111D1*
X6343Y7117D1*
X6339Y7123D1*
X6335Y7129D1*
X6331Y7136D1*
X6328Y7143D1*
X6325Y7150D1*
X6323Y7157D1*
X6321Y7165D1*
X6320Y7172D1*
X6319Y7180D1*
Y7187D1*
X6142Y7292D2*
Y7300D1*
X6143Y7308D1*
X6144Y7315D1*
X6146Y7323D1*
X6148Y7330D1*
X6151Y7337D1*
X6154Y7344D1*
X6157Y7351D1*
X6162Y7357D1*
X6166Y7363D1*
X6171Y7369D1*
X6176Y7374D1*
X6182Y7379D1*
X6188Y7384D1*
X6194Y7388D1*
X6201Y7391D1*
X6207Y7394D1*
X6214Y7397D1*
X6221Y7399D1*
X6228Y7401D1*
X6236Y7402D1*
X6243D1*
X6250D1*
X6258D1*
X6265Y7401D1*
X6272Y7399D1*
X6279Y7397D1*
X6286Y7394D1*
X6293Y7391D1*
X6299Y7388D1*
X6305Y7384D1*
X6311Y7379D1*
X6317Y7374D1*
X6322Y7369D1*
X6327Y7363D1*
X6331Y7357D1*
X6336Y7351D1*
X6339Y7344D1*
X6342Y7337D1*
X6345Y7330D1*
X6347Y7323D1*
X6349Y7315D1*
X6350Y7308D1*
X6351Y7300D1*
X6352Y7292D1*
X6351Y7285D1*
X6350Y7277D1*
X6349Y7269D1*
X6347Y7262D1*
X6345Y7255D1*
X6342Y7248D1*
X6339Y7241D1*
X6336Y7234D1*
X6331Y7228D1*
X6327Y7222D1*
X6322Y7216D1*
X6317Y7211D1*
X6311Y7206D1*
X6305Y7201D1*
X6299Y7197D1*
X6293Y7193D1*
X6286Y7190D1*
X6279Y7188D1*
X6272Y7186D1*
X6265Y7184D1*
X6258Y7183D1*
X6250Y7182D1*
X6243D1*
X6236Y7183D1*
X6228Y7184D1*
X6221Y7186D1*
X6214Y7188D1*
X6207Y7190D1*
X6201Y7193D1*
X6194Y7197D1*
X6188Y7201D1*
X6182Y7206D1*
X6176Y7211D1*
X6171Y7216D1*
X6166Y7222D1*
X6162Y7228D1*
X6157Y7234D1*
X6154Y7241D1*
X6151Y7248D1*
X6148Y7255D1*
X6146Y7262D1*
X6144Y7269D1*
X6143Y7277D1*
X6142Y7285D1*
Y7292D1*
G36*
X6354Y7051D2*
X6137D1*
Y7228D1*
X6354D1*
Y7051D1*
G37*
G36*
X6165Y7273D2*
X5926D1*
Y7407D1*
X6165D1*
Y7273D1*
G37*
G36*
X6556Y7277D2*
X6329D1*
Y7400D1*
X6556D1*
Y7277D1*
G37*
X6547Y7072D2*
D36*
X5952D1*
Y7416D1*
X6547D1*
Y7072D1*
D65*
X6561Y7637D3*
X6404D3*
X6246D3*
X6089D3*
X5931D3*
Y6850D3*
X6089D3*
X6246D3*
X6404D3*
X6561D3*
G36*
X7556Y7760D2*
X7694D1*
Y7928D1*
X7556D1*
Y7760D1*
G37*
G36*
X7801Y7917D2*
X7923D1*
Y8088D1*
X7801D1*
Y7917D1*
G37*
G36*
X7784Y7591D2*
X7920D1*
Y7751D1*
X7784D1*
Y7591D1*
G37*
G36*
X7573Y8085D2*
X7700D1*
Y8256D1*
X7573D1*
Y8085D1*
G37*
X7555Y7571D2*
D13*
X7942D1*
Y8277D1*
X7555D1*
Y7571D1*
X7702Y7842D2*
D35*
Y7850D1*
X7703Y7857D1*
X7704Y7864D1*
X7706Y7871D1*
X7709Y7878D1*
X7712Y7885D1*
X7715Y7892D1*
X7719Y7898D1*
X7723Y7904D1*
X7728Y7910D1*
X7733Y7915D1*
X7738Y7920D1*
X7744Y7925D1*
X7750Y7929D1*
X7757Y7933D1*
X7764Y7937D1*
X7771Y7940D1*
X7778Y7942D1*
X7785Y7944D1*
X7793Y7946D1*
X7800Y7947D1*
X7808D1*
X7816D1*
X7823D1*
X7831Y7946D1*
X7839Y7944D1*
X7846Y7942D1*
X7853Y7940D1*
X7860Y7937D1*
X7867Y7933D1*
X7873Y7929D1*
X7880Y7925D1*
X7886Y7920D1*
X7891Y7915D1*
X7896Y7910D1*
X7901Y7904D1*
X7905Y7898D1*
X7909Y7892D1*
X7912Y7885D1*
X7915Y7878D1*
X7918Y7871D1*
X7920Y7864D1*
X7921Y7857D1*
X7922Y7850D1*
Y7842D1*
Y7835D1*
X7921Y7828D1*
X7920Y7821D1*
X7918Y7813D1*
X7915Y7806D1*
X7912Y7800D1*
X7909Y7793D1*
X7905Y7787D1*
X7901Y7781D1*
X7896Y7775D1*
X7891Y7769D1*
X7886Y7764D1*
X7880Y7760D1*
X7873Y7755D1*
X7867Y7751D1*
X7860Y7748D1*
X7853Y7745D1*
X7846Y7743D1*
X7839Y7741D1*
X7831Y7739D1*
X7823Y7738D1*
X7816Y7737D1*
X7808D1*
X7800Y7738D1*
X7793Y7739D1*
X7785Y7741D1*
X7778Y7743D1*
X7771Y7745D1*
X7764Y7748D1*
X7757Y7751D1*
X7750Y7755D1*
X7744Y7760D1*
X7738Y7764D1*
X7733Y7769D1*
X7728Y7775D1*
X7723Y7781D1*
X7719Y7787D1*
X7715Y7793D1*
X7712Y7800D1*
X7709Y7806D1*
X7706Y7813D1*
X7704Y7821D1*
X7703Y7828D1*
X7702Y7835D1*
Y7842D1*
X7577Y8004D2*
X7578Y8011D1*
Y8018D1*
X7580Y8026D1*
X7582Y8033D1*
X7584Y8040D1*
X7587Y8046D1*
X7590Y8053D1*
X7594Y8059D1*
X7598Y8066D1*
X7603Y8071D1*
X7608Y8077D1*
X7614Y8082D1*
X7620Y8087D1*
X7626Y8091D1*
X7632Y8095D1*
X7639Y8098D1*
X7646Y8101D1*
X7653Y8104D1*
X7661Y8106D1*
X7668Y8107D1*
X7676Y8108D1*
X7683Y8109D1*
X7691D1*
X7699Y8108D1*
X7706Y8107D1*
X7714Y8106D1*
X7721Y8104D1*
X7728Y8101D1*
X7735Y8098D1*
X7742Y8095D1*
X7749Y8091D1*
X7755Y8087D1*
X7761Y8082D1*
X7766Y8077D1*
X7771Y8071D1*
X7776Y8066D1*
X7781Y8059D1*
X7784Y8053D1*
X7788Y8046D1*
X7791Y8040D1*
X7793Y8033D1*
X7795Y8026D1*
X7796Y8018D1*
X7797Y8011D1*
Y8004D1*
Y7996D1*
X7796Y7989D1*
X7795Y7982D1*
X7793Y7975D1*
X7791Y7968D1*
X7788Y7961D1*
X7784Y7954D1*
X7781Y7948D1*
X7776Y7942D1*
X7771Y7936D1*
X7766Y7931D1*
X7761Y7926D1*
X7755Y7921D1*
X7749Y7917D1*
X7742Y7913D1*
X7735Y7909D1*
X7728Y7906D1*
X7721Y7904D1*
X7714Y7902D1*
X7706Y7900D1*
X7699Y7899D1*
X7691D1*
X7683D1*
X7676D1*
X7668Y7900D1*
X7661Y7902D1*
X7653Y7904D1*
X7646Y7906D1*
X7639Y7909D1*
X7632Y7913D1*
X7626Y7917D1*
X7620Y7921D1*
X7614Y7926D1*
X7608Y7931D1*
X7603Y7936D1*
X7598Y7942D1*
X7594Y7948D1*
X7590Y7954D1*
X7587Y7961D1*
X7584Y7968D1*
X7582Y7975D1*
X7580Y7982D1*
X7578Y7989D1*
Y7996D1*
X7577Y8004D1*
Y7684D2*
X7578Y7691D1*
Y7698D1*
X7580Y7705D1*
X7582Y7713D1*
X7584Y7719D1*
X7587Y7726D1*
X7590Y7733D1*
X7594Y7739D1*
X7598Y7745D1*
X7603Y7751D1*
X7608Y7756D1*
X7614Y7762D1*
X7620Y7766D1*
X7626Y7771D1*
X7632Y7774D1*
X7639Y7778D1*
X7646Y7781D1*
X7653Y7783D1*
X7661Y7785D1*
X7668Y7787D1*
X7676Y7788D1*
X7683D1*
X7691D1*
X7699D1*
X7706Y7787D1*
X7714Y7785D1*
X7721Y7783D1*
X7728Y7781D1*
X7735Y7778D1*
X7742Y7774D1*
X7749Y7771D1*
X7755Y7766D1*
X7761Y7762D1*
X7766Y7756D1*
X7771Y7751D1*
X7776Y7745D1*
X7781Y7739D1*
X7784Y7733D1*
X7788Y7726D1*
X7791Y7719D1*
X7793Y7713D1*
X7795Y7705D1*
X7796Y7698D1*
X7797Y7691D1*
Y7684D1*
Y7676D1*
X7796Y7669D1*
X7795Y7662D1*
X7793Y7655D1*
X7791Y7648D1*
X7788Y7641D1*
X7784Y7634D1*
X7781Y7628D1*
X7776Y7622D1*
X7771Y7616D1*
X7766Y7611D1*
X7761Y7606D1*
X7755Y7601D1*
X7749Y7597D1*
X7742Y7593D1*
X7735Y7589D1*
X7728Y7586D1*
X7721Y7584D1*
X7714Y7582D1*
X7706Y7580D1*
X7699Y7579D1*
X7691D1*
X7683D1*
X7676D1*
X7668Y7580D1*
X7661Y7582D1*
X7653Y7584D1*
X7646Y7586D1*
X7639Y7589D1*
X7632Y7593D1*
X7626Y7597D1*
X7620Y7601D1*
X7614Y7606D1*
X7608Y7611D1*
X7603Y7616D1*
X7598Y7622D1*
X7594Y7628D1*
X7590Y7634D1*
X7587Y7641D1*
X7584Y7648D1*
X7582Y7655D1*
X7580Y7662D1*
X7578Y7669D1*
Y7676D1*
X7577Y7684D1*
X7702Y8165D2*
Y8172D1*
X7703Y8180D1*
X7704Y8187D1*
X7706Y8194D1*
X7709Y8201D1*
X7712Y8208D1*
X7715Y8214D1*
X7719Y8221D1*
X7723Y8227D1*
X7728Y8233D1*
X7733Y8238D1*
X7738Y8243D1*
X7744Y8248D1*
X7750Y8252D1*
X7757Y8256D1*
X7764Y8260D1*
X7771Y8263D1*
X7778Y8265D1*
X7785Y8267D1*
X7793Y8269D1*
X7800Y8270D1*
X7808D1*
X7816D1*
X7823D1*
X7831Y8269D1*
X7839Y8267D1*
X7846Y8265D1*
X7853Y8263D1*
X7860Y8260D1*
X7867Y8256D1*
X7873Y8252D1*
X7880Y8248D1*
X7886Y8243D1*
X7891Y8238D1*
X7896Y8233D1*
X7901Y8227D1*
X7905Y8221D1*
X7909Y8214D1*
X7912Y8208D1*
X7915Y8201D1*
X7918Y8194D1*
X7920Y8187D1*
X7921Y8180D1*
X7922Y8172D1*
Y8165D1*
Y8158D1*
X7921Y8151D1*
X7920Y8143D1*
X7918Y8136D1*
X7915Y8129D1*
X7912Y8122D1*
X7909Y8116D1*
X7905Y8110D1*
X7901Y8103D1*
X7896Y8098D1*
X7891Y8092D1*
X7886Y8087D1*
X7880Y8082D1*
X7873Y8078D1*
X7867Y8074D1*
X7860Y8071D1*
X7853Y8068D1*
X7846Y8065D1*
X7839Y8063D1*
X7831Y8062D1*
X7823Y8061D1*
X7816Y8060D1*
X7808D1*
X7800Y8061D1*
X7793Y8062D1*
X7785Y8063D1*
X7778Y8065D1*
X7771Y8068D1*
X7764Y8071D1*
X7757Y8074D1*
X7750Y8078D1*
X7744Y8082D1*
X7738Y8087D1*
X7733Y8092D1*
X7728Y8098D1*
X7723Y8103D1*
X7719Y8110D1*
X7715Y8116D1*
X7712Y8122D1*
X7709Y8129D1*
X7706Y8136D1*
X7704Y8143D1*
X7703Y8151D1*
X7702Y8158D1*
Y8165D1*
D62*
X8144Y7626D3*
Y7823D3*
Y8020D3*
Y8217D3*
X7357D3*
Y8020D3*
Y7823D3*
Y7626D3*
D60*
X7168Y9028D3*
Y8831D3*
Y8635D3*
X7471D3*
Y8831D3*
Y9028D3*
G36*
X5595Y11706D2*
X6285D1*
Y10886D1*
X5595D1*
Y11706D1*
G37*
G36*
X4595D2*
X5285D1*
Y10886D1*
X4595D1*
Y11706D1*
G37*
D59*
X5825Y5766D3*
X6081D3*
X6336D3*
X6592D3*
X6848D3*
D58*
X5175Y5657D3*
X7498D3*
D57*
X4968Y4575D3*
X7705D3*
D56*
X6336Y4713D3*
D74*
X6940Y11296D3*
X7940D3*
X8940D3*
M02*
