M48
INCH
T01C0.013
T02C0.0433
%
T01
X+006424Y+007189
X+006246Y+007294
X+006069Y+007189
X+005729Y+007023
X+005230Y+006785
X+005031Y+006420
X+005125Y+006177
X+005496Y+006178
X+006289Y+006526
X+006488Y+006250
X+007278Y+006175
X+007569Y+006575
X+007519Y+006873
X+007869Y+006959
X+008192Y+006950
X+008250Y+006493
X+007881Y+006491
X+007948Y+006116
X+008511Y+005402
X+008886Y+005442
X+008895Y+004764
X+009425Y+004915
X+009804Y+004867
X+009665Y+005452
X+009998Y+005521
X+010094Y+005981
X+009828Y+006179
X+009242Y+006304
X+007915Y+007540
X+007689Y+007682
X+007812Y+007842
X+007689Y+008004
X+007812Y+008167
X+007687Y+008399
X+008111Y+008430
X+008464Y+008190
X+008517Y+009348
X+007714Y+009908
X+007484Y+009654
X+007139Y+009644
X+006710Y+009654
X+006505Y+009360
X+006035Y+009086
X+005709Y+008760
X+006111Y+008393
X+006031Y+007953
X+005775Y+007681
X+006429Y+007961
X+007067Y+008044
X+006859Y+008944
X+005982Y+009846
X+005663Y+010295
X+005376Y+010005
X+004964Y+009677
X+004892Y+009344
X+004967Y+008893
X+004679Y+008441
X+004931Y+007939
X+004518Y+006802
X+004555Y+005959
X+004465Y+005257
X+004854Y+005135
X+005546Y+004643
X+006304Y+005196
X+007121Y+004631
X+007301Y+005099
X+008446Y+004239
X+009643Y+004207
X+009984Y+004159
X+007116Y+006920
X+007315Y+010533
X+006664Y+010692
X+009270Y+010081
X+009560Y+009791
X+010336Y+009417
X+010467Y+009835
X+010756Y+011045
X+004422Y+004143
T02
X+003940Y+009296
X+003940Y+010296
X+004940Y+011296
X+005940Y+011296
X+006940Y+011296
X+007940Y+011296
X+008940Y+011296
X+009940Y+011296
X+010940Y+010296
X+010940Y+009296
X+010940Y+008296
X+010940Y+007296
X+010940Y+006296
X+010940Y+005296
X+010940Y+004296
X+003940Y+004296
X+003940Y+005296
X+003940Y+006296
X+003940Y+007296
X+003940Y+008296
T00
M30
