G04 DipTrace 2.4.0.2*
%INUSBHiPower.gbl*%
%MOIN*%
%ADD13C,0.006*%
%ADD14C,0.012*%
%ADD15C,0.01*%
%ADD16C,0.02*%
%ADD17C,0.03*%
%ADD18C,0.008*%
%ADD21C,0.015*%
%ADD22R,0.08X0.0669*%
%ADD23R,0.0669X0.08*%
%ADD39C,0.028*%
%ADD53C,0.028*%
%FSLAX44Y44*%
G04*
G70*
G90*
G75*
G01*
%LNBottom*%
%LPD*%
X6028Y7950D2*
D13*
Y7916D1*
X6856Y8744D1*
Y8941D1*
X4515Y6799D2*
D17*
Y6983D1*
X5921Y8390D1*
X6108D1*
D18*
Y8591D1*
X7072Y9555D1*
X7050D1*
X7136Y9641D1*
X5029Y9716D2*
D15*
Y9646D1*
X4381Y10293D1*
X3937D1*
X5726Y7020D2*
X5466D1*
X5227Y6782D1*
X4928Y7936D2*
Y7979D1*
X5706Y8757D1*
X5973Y10280D2*
X6595D1*
X7049Y10734D1*
X7399D1*
X7709Y11044D1*
Y10964D1*
X7813D1*
Y11170D1*
X7937Y11293D1*
X5624Y10301D2*
Y10415D1*
X5824Y10614D1*
X6698D1*
X6900Y10815D1*
Y11256D1*
X6937Y11293D1*
X8108Y8427D2*
Y8925D1*
X8514Y9331D1*
Y9345D1*
X6426Y7958D2*
X6406D1*
Y8013D1*
X8461Y8187D2*
D14*
Y8399D1*
X8357Y8502D1*
Y8789D1*
X9316Y9747D1*
X9591D1*
Y9788D1*
X9557D1*
X3937Y4293D2*
X4270D1*
Y5398D1*
X5329Y6458D1*
X4572D1*
X5028D1*
X5317D1*
X5645D1*
X6424Y7237D1*
Y7285D1*
X3937Y5293D2*
X4299D1*
Y5440D1*
X5317Y6458D1*
X10937Y5293D2*
X9818D1*
X9662Y5449D1*
X10937Y4293D2*
X10040D1*
X9422Y4912D1*
X4552Y5956D2*
Y6458D1*
X4572D1*
X5122Y6174D2*
X4572D1*
Y6458D1*
X5028Y6417D2*
Y6458D1*
X4419Y4140D2*
X4355D1*
Y4210D1*
X4272Y4293D1*
X4964Y8890D2*
X5430Y9357D1*
X6502D1*
X3937Y8293D2*
X3942D1*
X4476Y8827D1*
X4900D1*
X4964Y8890D1*
X10937Y6293D2*
Y6372D1*
X10641Y6668D1*
Y6998D1*
X10937Y7293D1*
X7902Y7532D2*
X8055D1*
X7809Y7778D1*
X6066Y7186D2*
X6138D1*
X6243Y7291D1*
X6316D1*
X6421Y7186D1*
X5028Y6417D2*
X5346D1*
X5498Y6570D1*
X5805D1*
X6421Y7186D1*
X6348D1*
X6243Y7291D1*
X6171D1*
X6066Y7186D1*
X5772Y7678D2*
D15*
X5937D1*
X6068Y7547D1*
X6544D1*
X6677Y7414D1*
Y6438D1*
X6485Y6247D1*
X6677Y7414D2*
X6770Y7507D1*
Y8115D1*
X7219Y8565D1*
Y8539D1*
X7962Y9281D1*
Y9527D1*
X8765Y10330D1*
Y11121D1*
X8937Y11293D1*
X7064Y8041D2*
Y8140D1*
X8137Y9213D1*
Y9466D1*
X8748Y10078D1*
X9267D1*
X5979Y9848D2*
Y9828D1*
X5702D1*
X5315Y10215D1*
Y10859D1*
X4984Y11190D1*
Y11293D1*
X4937D1*
X5493Y6175D2*
D16*
X5939D1*
X6286Y6523D1*
X6032Y9083D2*
D15*
X5646D1*
X5034Y8471D1*
X4643D1*
X4676Y8438D1*
X4889Y9341D2*
D21*
X5047D1*
X5278Y9571D1*
X6096D1*
X6618Y10093D1*
X6680D1*
X7102Y10515D1*
X7794D1*
X7842Y10563D1*
D53*
X5973Y10280D3*
X5624Y10301D3*
X5979Y9848D3*
X4889Y9341D3*
X7113Y6917D3*
X7866Y6956D3*
X7275Y6172D3*
X8247Y6490D3*
X7945Y6113D3*
X7298Y5096D3*
X4851Y5132D3*
X4462Y5254D3*
X9662Y5449D3*
X9422Y4912D3*
X7136Y9641D3*
X4964Y8890D3*
X8443Y4236D3*
X9981Y4156D3*
X9825Y6176D3*
X9640Y4204D3*
X9239Y6301D3*
X6032Y9083D3*
X4419Y4140D3*
X7902Y7532D3*
X7516Y6870D3*
X8189Y6947D3*
X7566Y6572D3*
X7878Y6488D3*
X6502Y9357D3*
X4552Y5956D3*
X5122Y6174D3*
X5028Y6417D3*
X5543Y4640D3*
X7118Y4628D3*
X8883Y5439D3*
X8508Y5399D3*
X10091Y5978D3*
X9995Y5518D3*
X9801Y4864D3*
X8892Y4761D3*
X5706Y8757D3*
X4676Y8438D3*
X4928Y7936D3*
X7842Y10563D3*
X5029Y9716D3*
X7684Y8396D3*
X8179Y7545D3*
X6301Y5193D3*
X6704Y9684D3*
X7481Y9651D3*
X9935Y10754D3*
X10464Y9832D3*
X10333Y9414D3*
X10405Y10819D3*
X9569Y10447D3*
X8108Y8427D3*
X8461Y8187D3*
X6286Y6523D3*
X8514Y9345D3*
X9557Y9788D3*
X7064Y8041D3*
X9267Y10078D3*
X5493Y6175D3*
X6485Y6247D3*
X5227Y6782D3*
X5726Y7020D3*
X5772Y7678D3*
X4515Y6799D3*
X6108Y8390D3*
X6028Y7950D3*
X6856Y8941D3*
X6426Y7958D3*
X8369Y11216D2*
D13*
X8504D1*
X8369Y11157D2*
X8504D1*
X8369Y11099D2*
X8504D1*
X8369Y11040D2*
X8504D1*
X8369Y10982D2*
X8504D1*
X8369Y10923D2*
X8504D1*
X8369Y10865D2*
X8504D1*
X8369Y10806D2*
X8504D1*
X7619Y10748D2*
X7696D1*
X7988D2*
X8617D1*
X7561Y10689D2*
X7642D1*
X8043D2*
X8617D1*
X8070Y10631D2*
X8617D1*
X8080Y10572D2*
X8617D1*
X8075Y10514D2*
X8617D1*
X8054Y10455D2*
X8617D1*
X8010Y10397D2*
X8617D1*
X7167Y10338D2*
X7778D1*
X7906D2*
X8566D1*
X7109Y10280D2*
X8508D1*
X7050Y10221D2*
X8449D1*
X6992Y10162D2*
X8390D1*
X6933Y10104D2*
X8332D1*
X6874Y10045D2*
X8273D1*
X4435Y9987D2*
X4481D1*
X6816D2*
X8215D1*
X4435Y9928D2*
X4540D1*
X6713D2*
X8156D1*
X4435Y9870D2*
X4599D1*
X6637D2*
X7091D1*
X7181D2*
X8097D1*
X3978Y9811D2*
X4657D1*
X6578D2*
X6973D1*
X7300D2*
X8039D1*
X3978Y9753D2*
X4715D1*
X6520D2*
X6927D1*
X7345D2*
X7980D1*
X4435Y9694D2*
X4773D1*
X6461D2*
X6904D1*
X7368D2*
X7922D1*
X4435Y9636D2*
X4805D1*
X6403D2*
X6898D1*
X7373D2*
X7864D1*
X4435Y9577D2*
X4837D1*
X6344D2*
X6901D1*
X7365D2*
X7823D1*
X4435Y9519D2*
X4735D1*
X6285D2*
X6843D1*
X7339D2*
X7814D1*
X4435Y9460D2*
X4685D1*
X6227D2*
X6785D1*
X7287D2*
X7814D1*
X4435Y9402D2*
X4659D1*
X5350D2*
X6726D1*
X7111D2*
X7814D1*
X4435Y9343D2*
X4652D1*
X5292D2*
X6668D1*
X7053D2*
X7814D1*
X4435Y9285D2*
X4658D1*
X5233D2*
X5910D1*
X6153D2*
X6609D1*
X6994D2*
X7758D1*
X4435Y9226D2*
X4682D1*
X5175D2*
X5843D1*
X6221D2*
X6550D1*
X6936D2*
X7700D1*
X4435Y9167D2*
X4729D1*
X5050D2*
X5523D1*
X6254D2*
X6492D1*
X6913D2*
X7641D1*
X4435Y9109D2*
X4871D1*
X4908D2*
X5464D1*
X6268D2*
X6433D1*
X7023D2*
X7582D1*
X4435Y9050D2*
X5406D1*
X6267D2*
X6375D1*
X7067D2*
X7524D1*
X4435Y8992D2*
X5347D1*
X6251D2*
X6316D1*
X7088D2*
X7465D1*
X4435Y8933D2*
X5289D1*
X6215D2*
X6257D1*
X7094D2*
X7407D1*
X4435Y8875D2*
X5231D1*
X6140D2*
X6199D1*
X7085D2*
X7348D1*
X3983Y8816D2*
X5172D1*
X5935D2*
X6140D1*
X7057D2*
X7289D1*
X3984Y8758D2*
X5114D1*
X5944D2*
X6082D1*
X7004D2*
X7232D1*
X7889D2*
X7960D1*
X3984Y8699D2*
X5055D1*
X5936D2*
X6023D1*
X6976D2*
X7167D1*
X7830D2*
X7960D1*
X3984Y8641D2*
X4557D1*
X4795D2*
X4996D1*
X5913D2*
X5980D1*
X6931D2*
X7088D1*
X7772D2*
X7960D1*
X3985Y8582D2*
X4488D1*
X6872D2*
X7030D1*
X7713D2*
X7929D1*
X3985Y8524D2*
X4455D1*
X6814D2*
X6972D1*
X7654D2*
X7891D1*
X3985Y8465D2*
X4440D1*
X6755D2*
X6913D1*
X7596D2*
X7873D1*
X3986Y8407D2*
X4441D1*
X6697D2*
X6855D1*
X7537D2*
X7870D1*
X3986Y8348D2*
X4456D1*
X6639D2*
X6796D1*
X7479D2*
X7883D1*
X3986Y8290D2*
X4492D1*
X4861D2*
X5031D1*
X6580D2*
X6737D1*
X7420D2*
X7915D1*
X3987Y8231D2*
X4565D1*
X4787D2*
X4973D1*
X6522D2*
X6679D1*
X7361D2*
X7978D1*
X3987Y8173D2*
X4915D1*
X6463D2*
X6634D1*
X7303D2*
X7994D1*
X3987Y8114D2*
X4773D1*
X6405D2*
X6622D1*
X7290D2*
X7994D1*
X3987Y8055D2*
X4723D1*
X6346D2*
X6622D1*
X7301D2*
X7994D1*
X3988Y7997D2*
X4698D1*
X6287D2*
X6622D1*
X7298D2*
X7994D1*
X3988Y7938D2*
X4690D1*
X6265D2*
X6622D1*
X7278D2*
X7994D1*
X3988Y7880D2*
X4697D1*
X6255D2*
X6622D1*
X7237D2*
X7994D1*
X3989Y7821D2*
X4720D1*
X6227D2*
X6622D1*
X6918D2*
X6984D1*
X7144D2*
X7994D1*
X3989Y7763D2*
X4767D1*
X6172D2*
X6622D1*
X6918D2*
X7994D1*
X4435Y7704D2*
X4887D1*
X6118D2*
X6622D1*
X6918D2*
X8178D1*
X4435Y7646D2*
X4829D1*
X6918D2*
X8288D1*
X4435Y7587D2*
X4771D1*
X5467D2*
X5552D1*
X6918D2*
X8288D1*
X4435Y7529D2*
X4712D1*
X5409D2*
X5588D1*
X6918D2*
X8289D1*
X4435Y7470D2*
X4654D1*
X5350D2*
X5663D1*
X5882D2*
X5937D1*
X6913D2*
X8289D1*
X4435Y7412D2*
X4595D1*
X5291D2*
X6019D1*
X6881D2*
X8289D1*
X4435Y7353D2*
X4537D1*
X5233D2*
X6528D1*
X6825D2*
X8289D1*
X4435Y7295D2*
X4478D1*
X5174D2*
X6528D1*
X6825D2*
X8290D1*
X5116Y7236D2*
X5635D1*
X5817D2*
X6528D1*
X6825D2*
X8290D1*
X5057Y7178D2*
X5549D1*
X5903D2*
X6528D1*
X6825D2*
X8290D1*
X4999Y7119D2*
X5358D1*
X5942D2*
X6528D1*
X6825D2*
X8290D1*
X4941Y7060D2*
X5299D1*
X5961D2*
X6528D1*
X6825D2*
X8291D1*
X4882Y7002D2*
X5148D1*
X5963D2*
X6528D1*
X6825D2*
X8291D1*
X4824Y6943D2*
X5055D1*
X5950D2*
X6528D1*
X6825D2*
X8291D1*
X4765Y6885D2*
X5014D1*
X5920D2*
X6528D1*
X6825D2*
X8291D1*
X4763Y6826D2*
X4993D1*
X5479D2*
X5592D1*
X5859D2*
X6528D1*
X6825D2*
X8291D1*
X4761Y6768D2*
X4989D1*
X5465D2*
X6528D1*
X6825D2*
X8292D1*
X4746Y6709D2*
X5001D1*
X5454D2*
X6142D1*
X6430D2*
X6528D1*
X6825D2*
X8339D1*
X4712Y6651D2*
X5030D1*
X5425D2*
X6087D1*
X6486D2*
X6528D1*
X6825D2*
X8406D1*
X4647Y6592D2*
X5088D1*
X5367D2*
X6059D1*
X6825D2*
X8471D1*
X4435Y6534D2*
X6020D1*
X6825D2*
X8538D1*
X4435Y6475D2*
X5962D1*
X6825D2*
X8603D1*
X9597D2*
X10943D1*
X4435Y6417D2*
X5903D1*
X6823D2*
X10943D1*
X4435Y6358D2*
X5345D1*
X6800D2*
X10943D1*
X4435Y6300D2*
X5291D1*
X6745D2*
X10943D1*
X4435Y6241D2*
X5265D1*
X6723D2*
X10943D1*
X4435Y6183D2*
X5256D1*
X6223D2*
X6256D1*
X6714D2*
X10943D1*
X4435Y6124D2*
X5261D1*
X6165D2*
X6282D1*
X6688D2*
X10943D1*
X4435Y6066D2*
X5283D1*
X6107D2*
X6334D1*
X6636D2*
X10943D1*
X4435Y6007D2*
X5328D1*
X6037D2*
X10943D1*
X4435Y5948D2*
X5437D1*
X5549D2*
X10943D1*
X4435Y5890D2*
X10943D1*
X3998Y5831D2*
X10943D1*
X3999Y5773D2*
X10943D1*
X3999Y5714D2*
X10943D1*
X3999Y5656D2*
X10943D1*
X3999Y5597D2*
X10943D1*
X4000Y5539D2*
X10943D1*
X4000Y5480D2*
X10943D1*
X4000Y5422D2*
X10943D1*
X4001Y5363D2*
X10943D1*
X4001Y5305D2*
X10943D1*
X4001Y5246D2*
X10943D1*
X4002Y5188D2*
X10943D1*
X4002Y5129D2*
X10943D1*
X4002Y5071D2*
X10943D1*
X4003Y5012D2*
X10943D1*
X4003Y4954D2*
X10943D1*
X4003Y4895D2*
X10943D1*
X4003Y4836D2*
X10943D1*
X4004Y4778D2*
X10943D1*
X4004Y4719D2*
X10943D1*
X4004Y4661D2*
X10943D1*
X4005Y4602D2*
X10943D1*
X4005Y4544D2*
X10943D1*
X4005Y4485D2*
X10943D1*
X4006Y4427D2*
X10943D1*
X4006Y4368D2*
X10943D1*
X4006Y4310D2*
X10943D1*
X4007Y4251D2*
X10943D1*
X4007Y4193D2*
X10943D1*
X4007Y4134D2*
X10943D1*
X4007Y4076D2*
X10943D1*
X4007Y4017D2*
X10943D1*
X4007Y3959D2*
X10943D1*
X3973Y9720D2*
X4429D1*
Y8867D1*
X3978D1*
X3983Y7720D1*
X4429D1*
Y7240D1*
X4896Y7707D1*
X4874Y7710D1*
X4846Y7719D1*
X4818Y7731D1*
X4793Y7747D1*
X4770Y7766D1*
X4749Y7787D1*
X4732Y7812D1*
X4717Y7838D1*
X4706Y7866D1*
X4699Y7895D1*
X4696Y7924D1*
Y7954D1*
X4701Y7984D1*
X4709Y8013D1*
X4721Y8040D1*
X4736Y8066D1*
X4754Y8090D1*
X4775Y8111D1*
X4799Y8129D1*
X4825Y8144D1*
X4853Y8155D1*
X4881Y8163D1*
X4916Y8167D1*
X5088Y8340D1*
X5055Y8331D1*
X5004Y8329D1*
X4881D1*
X4862Y8298D1*
X4842Y8276D1*
X4820Y8256D1*
X4795Y8239D1*
X4769Y8225D1*
X4741Y8215D1*
X4712Y8208D1*
X4682Y8206D1*
X4652Y8207D1*
X4622Y8212D1*
X4594Y8221D1*
X4567Y8233D1*
X4541Y8249D1*
X4518Y8268D1*
X4498Y8289D1*
X4480Y8314D1*
X4466Y8340D1*
X4455Y8368D1*
X4448Y8397D1*
X4444Y8427D1*
X4445Y8456D1*
X4449Y8486D1*
X4457Y8515D1*
X4469Y8542D1*
X4484Y8568D1*
X4502Y8592D1*
X4524Y8613D1*
X4547Y8631D1*
X4573Y8646D1*
X4601Y8657D1*
X4630Y8665D1*
X4659Y8669D1*
X4689Y8670D1*
X4719Y8666D1*
X4748Y8659D1*
X4776Y8648D1*
X4802Y8633D1*
X4828Y8613D1*
X4975Y8614D1*
X5545Y9184D1*
X5568Y9203D1*
X5595Y9216D1*
X5618Y9223D1*
X5676Y9225D1*
X5848D1*
X5880Y9258D1*
X5903Y9276D1*
X5929Y9291D1*
X5957Y9303D1*
X5986Y9311D1*
X6015Y9315D1*
X6045D1*
X6075Y9311D1*
X6104Y9304D1*
X6132Y9293D1*
X6158Y9278D1*
X6182Y9261D1*
X6203Y9240D1*
X6222Y9217D1*
X6238Y9191D1*
X6250Y9164D1*
X6258Y9135D1*
X6264Y9083D1*
X6262Y9053D1*
X6257Y9024D1*
X6247Y8996D1*
X6234Y8969D1*
X6218Y8944D1*
X6198Y8921D1*
X6176Y8901D1*
X6151Y8884D1*
X6125Y8870D1*
X6097Y8860D1*
X6067Y8854D1*
X6038Y8851D1*
X6008Y8852D1*
X5978Y8857D1*
X5950Y8866D1*
X5923Y8879D1*
X5883Y8906D1*
X5911Y8864D1*
X5923Y8837D1*
X5932Y8809D1*
X5938Y8757D1*
X5936Y8727D1*
X5930Y8697D1*
X5921Y8669D1*
X5900Y8630D1*
X5951Y8632D1*
X5982D1*
X5998Y8664D1*
X6035Y8705D1*
X6911Y9581D1*
X6904Y9630D1*
X6905Y9660D1*
X6909Y9689D1*
X6917Y9718D1*
X6929Y9746D1*
X6944Y9771D1*
X6962Y9795D1*
X6983Y9816D1*
X7007Y9834D1*
X7033Y9849D1*
X7061Y9861D1*
X7089Y9869D1*
X7119Y9873D1*
X7149D1*
X7179Y9869D1*
X7208Y9862D1*
X7235Y9851D1*
X7262Y9836D1*
X7286Y9819D1*
X7307Y9798D1*
X7326Y9775D1*
X7341Y9749D1*
X7354Y9722D1*
X7362Y9693D1*
X7368Y9641D1*
X7366Y9611D1*
X7360Y9582D1*
X7351Y9554D1*
X7338Y9527D1*
X7322Y9502D1*
X7302Y9479D1*
X7280Y9459D1*
X7255Y9442D1*
X7229Y9428D1*
X7201Y9418D1*
X7171Y9412D1*
X7142Y9409D1*
X7114Y9410D1*
X6876Y9172D1*
X6899Y9169D1*
X6928Y9162D1*
X6956Y9151D1*
X6982Y9136D1*
X7006Y9119D1*
X7027Y9098D1*
X7046Y9075D1*
X7062Y9049D1*
X7074Y9022D1*
X7082Y8993D1*
X7088Y8941D1*
X7086Y8911D1*
X7081Y8882D1*
X7071Y8854D1*
X7058Y8827D1*
X7042Y8802D1*
X7022Y8779D1*
X7000Y8759D1*
X6978Y8744D1*
Y8733D1*
X6971Y8704D1*
X6958Y8677D1*
X6921Y8637D1*
X6258Y7974D1*
X6260Y7950D1*
X6258Y7920D1*
X6252Y7890D1*
X6243Y7862D1*
X6230Y7835D1*
X6214Y7810D1*
X6194Y7787D1*
X6172Y7767D1*
X6147Y7750D1*
X6121Y7737D1*
X6090Y7726D1*
X6128Y7689D1*
X6544D1*
X6573Y7686D1*
X6602Y7677D1*
X6623Y7664D1*
X6628Y7687D1*
Y8115D1*
X6631Y8145D1*
X6640Y8174D1*
X6652Y8195D1*
X6691Y8237D1*
X7119Y8665D1*
X7142Y8684D1*
X7182Y8703D1*
X7820Y9341D1*
Y9527D1*
X7823Y9557D1*
X7832Y9585D1*
X7844Y9606D1*
X7882Y9649D1*
X8623Y10390D1*
Y10802D1*
X8556Y10801D1*
X8510D1*
Y11273D1*
X8364Y11274D1*
Y10801D1*
X7667D1*
X7547Y10681D1*
X7643Y10682D1*
X7668Y10716D1*
X7690Y10738D1*
X7713Y10756D1*
X7739Y10771D1*
X7767Y10782D1*
X7796Y10790D1*
X7825Y10794D1*
X7855D1*
X7885Y10791D1*
X7914Y10783D1*
X7942Y10772D1*
X7968Y10758D1*
X7992Y10740D1*
X8013Y10719D1*
X8032Y10696D1*
X8048Y10671D1*
X8060Y10643D1*
X8068Y10615D1*
X8074Y10563D1*
X8072Y10533D1*
X8067Y10503D1*
X8057Y10475D1*
X8044Y10448D1*
X8028Y10423D1*
X8008Y10400D1*
X7986Y10380D1*
X7961Y10363D1*
X7935Y10350D1*
X7907Y10340D1*
X7878Y10333D1*
X7848Y10330D1*
X7818Y10332D1*
X7788Y10337D1*
X7756Y10347D1*
X7171Y10348D1*
X6798Y9975D1*
X6775Y9956D1*
X6749Y9941D1*
X6721Y9931D1*
X6693Y9927D1*
X6672Y9911D1*
X6214Y9453D1*
X6191Y9434D1*
X6165Y9419D1*
X6137Y9409D1*
X6112Y9405D1*
X5946Y9404D1*
X5347D1*
X5165Y9222D1*
X5143Y9203D1*
X5117Y9189D1*
X5088Y9179D1*
X5060Y9174D1*
X5009Y9141D1*
X4982Y9128D1*
X4954Y9118D1*
X4925Y9111D1*
X4895Y9109D1*
X4865Y9110D1*
X4836Y9115D1*
X4807Y9124D1*
X4780Y9136D1*
X4755Y9152D1*
X4731Y9171D1*
X4711Y9192D1*
X4693Y9217D1*
X4679Y9243D1*
X4668Y9271D1*
X4661Y9300D1*
X4658Y9329D1*
Y9359D1*
X4662Y9389D1*
X4670Y9418D1*
X4682Y9445D1*
X4697Y9471D1*
X4716Y9495D1*
X4737Y9516D1*
X4761Y9534D1*
X4787Y9549D1*
X4814Y9560D1*
X4849Y9569D1*
X4833Y9591D1*
X4819Y9618D1*
X4808Y9646D1*
X4801Y9674D1*
X4430Y10044D1*
X4429Y9867D1*
X3972D1*
X3973Y9720D1*
X4429Y6573D2*
Y5867D1*
X3993D1*
X4002Y3951D1*
X10950Y3957D1*
X10949Y6477D1*
X8622Y6474D1*
X8603Y6481D1*
X8307Y6744D1*
X8297Y6765D1*
X8294Y7671D1*
X8020Y7752D1*
X8000Y7774D1*
X7999Y7781D1*
X7998Y8222D1*
X7973Y8238D1*
X7949Y8257D1*
X7929Y8279D1*
X7911Y8303D1*
X7897Y8329D1*
X7886Y8357D1*
X7879Y8386D1*
X7876Y8416D1*
Y8446D1*
X7880Y8475D1*
X7889Y8504D1*
X7900Y8532D1*
X7915Y8557D1*
X7934Y8581D1*
X7966Y8611D1*
X7965Y8841D1*
X7412Y8287D1*
X7271Y8147D1*
X7290Y8093D1*
X7296Y8041D1*
X7294Y8011D1*
X7288Y7982D1*
X7279Y7954D1*
X7266Y7927D1*
X7249Y7902D1*
X7230Y7879D1*
X7208Y7859D1*
X7183Y7842D1*
X7157Y7828D1*
X7128Y7818D1*
X7099Y7812D1*
X7069Y7809D1*
X7040Y7810D1*
X7010Y7815D1*
X6982Y7824D1*
X6954Y7837D1*
X6929Y7852D1*
X6912Y7866D1*
Y7507D1*
X6909Y7477D1*
X6900Y7449D1*
X6888Y7428D1*
X6849Y7385D1*
X6819Y7354D1*
Y6438D1*
X6816Y6409D1*
X6806Y6380D1*
X6795Y6359D1*
X6756Y6317D1*
X6716Y6276D1*
X6717Y6247D1*
X6715Y6217D1*
X6710Y6188D1*
X6700Y6159D1*
X6687Y6132D1*
X6671Y6107D1*
X6651Y6085D1*
X6629Y6065D1*
X6604Y6048D1*
X6578Y6034D1*
X6550Y6024D1*
X6521Y6017D1*
X6491Y6015D1*
X6461Y6016D1*
X6431Y6021D1*
X6403Y6030D1*
X6376Y6042D1*
X6350Y6058D1*
X6327Y6077D1*
X6306Y6099D1*
X6289Y6123D1*
X6275Y6149D1*
X6264Y6177D1*
X6255Y6220D1*
X6075Y6039D1*
X6052Y6020D1*
X6026Y6004D1*
X5999Y5993D1*
X5970Y5985D1*
X5909Y5983D1*
X5624D1*
X5586Y5962D1*
X5558Y5952D1*
X5529Y5946D1*
X5499Y5943D1*
X5469Y5944D1*
X5440Y5949D1*
X5411Y5958D1*
X5384Y5970D1*
X5359Y5986D1*
X5335Y6005D1*
X5315Y6027D1*
X5297Y6051D1*
X5283Y6077D1*
X5272Y6105D1*
X5265Y6134D1*
X5262Y6164D1*
Y6194D1*
X5266Y6223D1*
X5274Y6252D1*
X5286Y6280D1*
X5301Y6305D1*
X5320Y6329D1*
X5341Y6350D1*
X5365Y6368D1*
X5391Y6383D1*
X5418Y6395D1*
X5447Y6403D1*
X5477Y6407D1*
X5506D1*
X5536Y6403D1*
X5565Y6396D1*
X5593Y6385D1*
X5623Y6368D1*
X5859Y6367D1*
X6059Y6567D1*
X6067Y6600D1*
X6079Y6627D1*
X6094Y6653D1*
X6113Y6677D1*
X6134Y6698D1*
X6158Y6716D1*
X6183Y6731D1*
X6211Y6742D1*
X6240Y6750D1*
X6269Y6754D1*
X6299D1*
X6329Y6751D1*
X6358Y6743D1*
X6386Y6732D1*
X6412Y6718D1*
X6436Y6700D1*
X6458Y6679D1*
X6476Y6656D1*
X6492Y6631D1*
X6504Y6603D1*
X6513Y6575D1*
X6518Y6523D1*
X6514Y6477D1*
X6534Y6498D1*
Y7356D1*
X6484Y7405D1*
X6068D1*
X6038Y7408D1*
X6010Y7417D1*
X5989Y7429D1*
X5946Y7468D1*
X5916Y7497D1*
X5891Y7479D1*
X5865Y7465D1*
X5837Y7455D1*
X5807Y7448D1*
X5778Y7446D1*
X5748Y7447D1*
X5718Y7452D1*
X5690Y7461D1*
X5662Y7473D1*
X5637Y7489D1*
X5614Y7508D1*
X5593Y7529D1*
X5576Y7554D1*
X5561Y7580D1*
X5551Y7608D1*
X5543Y7637D1*
X5540Y7665D1*
X4823Y6949D1*
X4756Y6882D1*
X4757Y6799D1*
X4755Y6769D1*
X4750Y6740D1*
X4741Y6711D1*
X4728Y6684D1*
X4712Y6659D1*
X4694Y6635D1*
X4672Y6615D1*
X4648Y6597D1*
X4622Y6582D1*
X4595Y6570D1*
X4566Y6562D1*
X4536Y6558D1*
X4506Y6557D1*
X4477Y6560D1*
X4429Y6573D1*
X5457Y6752D2*
X5452Y6723D1*
X5442Y6694D1*
X5429Y6667D1*
X5413Y6642D1*
X5393Y6620D1*
X5371Y6600D1*
X5346Y6583D1*
X5320Y6569D1*
X5292Y6559D1*
X5263Y6552D1*
X5233Y6550D1*
X5203Y6551D1*
X5173Y6556D1*
X5145Y6565D1*
X5118Y6577D1*
X5092Y6593D1*
X5069Y6612D1*
X5049Y6633D1*
X5031Y6658D1*
X5017Y6684D1*
X5006Y6712D1*
X4999Y6741D1*
X4995Y6770D1*
X4996Y6800D1*
X5000Y6830D1*
X5008Y6859D1*
X5020Y6886D1*
X5035Y6912D1*
X5053Y6936D1*
X5075Y6957D1*
X5098Y6975D1*
X5124Y6990D1*
X5152Y7001D1*
X5181Y7009D1*
X5210Y7013D1*
X5256Y7012D1*
X5365Y7121D1*
X5389Y7140D1*
X5415Y7153D1*
X5438Y7160D1*
X5496Y7163D1*
X5542D1*
X5573Y7195D1*
X5597Y7214D1*
X5623Y7228D1*
X5650Y7240D1*
X5679Y7248D1*
X5709Y7252D1*
X5739D1*
X5768Y7249D1*
X5797Y7241D1*
X5825Y7230D1*
X5851Y7216D1*
X5875Y7198D1*
X5897Y7177D1*
X5916Y7154D1*
X5931Y7128D1*
X5943Y7101D1*
X5952Y7072D1*
X5958Y7020D1*
X5956Y6991D1*
X5950Y6961D1*
X5941Y6933D1*
X5928Y6906D1*
X5911Y6881D1*
X5892Y6858D1*
X5870Y6838D1*
X5845Y6821D1*
X5818Y6808D1*
X5790Y6797D1*
X5761Y6791D1*
X5731Y6788D1*
X5701Y6789D1*
X5672Y6795D1*
X5643Y6803D1*
X5616Y6816D1*
X5591Y6831D1*
X5568Y6850D1*
X5542Y6879D1*
X5524Y6878D1*
X5457Y6811D1*
X5459Y6782D1*
X5457Y6752D1*
X9371Y11203D2*
X9504D1*
X10370D2*
X10943D1*
X9371Y11144D2*
X9504D1*
X10370D2*
X10943D1*
X9371Y11086D2*
X9504D1*
X10370D2*
X10943D1*
X9371Y11027D2*
X9504D1*
X10370D2*
X10942D1*
X9371Y10968D2*
X9504D1*
X10370D2*
X10942D1*
X9371Y10910D2*
X9504D1*
X10370D2*
X10942D1*
X9371Y10851D2*
X9504D1*
X10370D2*
X10942D1*
X9367Y10792D2*
X10942D1*
X9367Y10733D2*
X10942D1*
X9367Y10675D2*
X10439D1*
X9367Y10616D2*
X10439D1*
X9367Y10557D2*
X10439D1*
X9367Y10499D2*
X10439D1*
X9367Y10440D2*
X10439D1*
X9367Y10381D2*
X10439D1*
X9366Y10323D2*
X10439D1*
X9433Y10264D2*
X10439D1*
X9475Y10205D2*
X10439D1*
X9528Y10147D2*
X10439D1*
X9582Y10088D2*
X10439D1*
X9636Y10029D2*
X10439D1*
X9706Y9971D2*
X10439D1*
X9760Y9912D2*
X10439D1*
X9798Y9853D2*
X10940D1*
X9826Y9794D2*
X10940D1*
X9790Y9736D2*
X10940D1*
X9767Y9677D2*
X10439D1*
X9722Y9618D2*
X10439D1*
X9349Y9560D2*
X9508D1*
X9606D2*
X10439D1*
X9290Y9501D2*
X10439D1*
X9232Y9442D2*
X10439D1*
X9173Y9384D2*
X10439D1*
X9115Y9325D2*
X10439D1*
X9056Y9266D2*
X10439D1*
X8997Y9208D2*
X10439D1*
X8939Y9149D2*
X10439D1*
X8879Y9090D2*
X10439D1*
X8821Y9032D2*
X10439D1*
X8762Y8973D2*
X10439D1*
X8703Y8914D2*
X10439D1*
X8645Y8855D2*
X10938D1*
X8586Y8797D2*
X10938D1*
X8528Y8738D2*
X10938D1*
X8516Y8679D2*
X10439D1*
X8516Y8621D2*
X10439D1*
X8519Y8562D2*
X10439D1*
X8578Y8503D2*
X10439D1*
X8611Y8445D2*
X10439D1*
X8619Y8386D2*
X10439D1*
X8652Y8327D2*
X10439D1*
X8684Y8269D2*
X10439D1*
X8698Y8210D2*
X10439D1*
X8696Y8151D2*
X10439D1*
X8679Y8093D2*
X10439D1*
X9186Y8034D2*
X10439D1*
X9233Y7975D2*
X10439D1*
X9280Y7916D2*
X10439D1*
X9327Y7858D2*
X10937D1*
X9374Y7799D2*
X10937D1*
X9419Y7740D2*
X10937D1*
X9466Y7682D2*
X10439D1*
X10056Y7623D2*
X10439D1*
X9365Y11262D2*
Y10801D1*
X9362D1*
X9361Y10322D1*
X9381Y10300D1*
X9412Y10278D1*
X9433Y10257D1*
X9452Y10233D1*
X9468Y10205D1*
X9660Y9996D1*
X9685Y9982D1*
X9709Y9964D1*
X9730Y9943D1*
X9749Y9920D1*
X9764Y9894D1*
X9773Y9874D1*
X9815Y9828D1*
X9822Y9799D1*
X9816Y9788D1*
X9786Y9753D1*
X9782Y9729D1*
X9772Y9700D1*
X9759Y9673D1*
X9743Y9648D1*
X9723Y9625D1*
X9701Y9605D1*
X9676Y9588D1*
X9650Y9575D1*
X9621Y9565D1*
X9592Y9558D1*
X9562Y9556D1*
X9532Y9557D1*
X9503Y9562D1*
X9474Y9571D1*
X9447Y9583D1*
X9429Y9595D1*
X9378D1*
X9105Y9322D1*
X8509Y8726D1*
X8510Y8565D1*
X8568Y8506D1*
X8587Y8483D1*
X8601Y8457D1*
X8610Y8428D1*
X8613Y8399D1*
Y8362D1*
X8633Y8343D1*
X8652Y8319D1*
X8667Y8294D1*
X8679Y8266D1*
X8688Y8237D1*
X8693Y8187D1*
X8691Y8158D1*
X8685Y8128D1*
X8676Y8100D1*
X8663Y8073D1*
X8650Y8053D1*
X9143Y8062D1*
X9169Y8047D1*
X9261Y7933D1*
X9483Y7653D1*
X10444Y7602D1*
Y7720D1*
X10942D1*
Y7868D1*
X10913Y7867D1*
X10445D1*
Y8721D1*
X10944Y8722D1*
X10943Y8867D1*
X10445D1*
Y9721D1*
X10946D1*
Y9867D1*
X10901Y9866D1*
X10445D1*
Y10720D1*
X10948D1*
X10949Y11260D1*
X10365D1*
X10364Y10946D1*
Y10801D1*
X9510D1*
X9509Y11261D1*
X9364Y11262D1*
X10445Y10720D2*
X10937Y10293D1*
X10445Y9866D1*
Y8721D2*
X10937Y8294D1*
X10445Y7867D1*
Y9721D2*
X10937Y9294D1*
X10445Y8867D1*
X9937Y11293D2*
X10364Y10801D1*
X9937Y11293D2*
X9510Y10801D1*
D22*
X3937Y9293D3*
X10937Y8293D3*
Y9293D3*
Y10293D3*
D23*
X9937Y11293D3*
D22*
X3937Y4293D3*
Y5293D3*
Y6293D3*
Y7293D3*
Y10293D3*
X10937Y4293D3*
Y5293D3*
Y6293D3*
Y7293D3*
X3937Y8293D3*
D39*
X6421Y7186D3*
X6243Y7291D3*
X6066Y7186D3*
X7686Y7679D3*
X7809Y7840D3*
X7686Y8001D3*
X7809Y8164D3*
G36*
X5602Y11693D2*
X6272D1*
Y10893D1*
X5602D1*
Y11693D1*
G37*
G36*
X4602D2*
X5272D1*
Y10893D1*
X4602D1*
Y11693D1*
G37*
D23*
X6937Y11293D3*
X7937D3*
X8937D3*
M02*
