G04 DipTrace 2.4.0.2*
%INUSBHiPower.gbo*%
%MOIN*%
%ADD97C,0.0046*%
%ADD99C,0.0033*%
%FSLAX44Y44*%
G04*
G70*
G90*
G75*
G01*
%LNBotSilk*%
%LPD*%
X9192Y5946D2*
D97*
Y5731D1*
X9183Y5688D1*
X9166Y5659D1*
X9140Y5645D1*
X9123D1*
X9097Y5659D1*
X9080Y5688D1*
X9071Y5731D1*
Y5946D1*
X8895Y5903D2*
X8912Y5932D1*
X8938Y5946D1*
X8972D1*
X8998Y5932D1*
X9015Y5903D1*
Y5875D1*
X9007Y5846D1*
X8998Y5831D1*
X8981Y5817D1*
X8929Y5788D1*
X8912Y5774D1*
X8903Y5759D1*
X8895Y5731D1*
Y5688D1*
X8912Y5659D1*
X8938Y5645D1*
X8972D1*
X8998Y5659D1*
X9015Y5688D1*
X8839Y5946D2*
Y5645D1*
X8762D1*
X8736Y5659D1*
X8727Y5674D1*
X8719Y5702D1*
Y5745D1*
X8727Y5774D1*
X8736Y5788D1*
X8762Y5803D1*
X8736Y5817D1*
X8727Y5831D1*
X8719Y5860D1*
Y5889D1*
X8727Y5917D1*
X8736Y5932D1*
X8762Y5946D1*
X8839D1*
Y5803D2*
X8762D1*
X8488Y5946D2*
Y5645D1*
X8368Y5946D2*
Y5645D1*
X8488Y5803D2*
X8368D1*
X8312Y5946D2*
X8304Y5932D1*
X8295Y5946D1*
X8304Y5961D1*
X8312Y5946D1*
X8304Y5846D2*
Y5645D1*
X8239Y5788D2*
X8162D1*
X8136Y5803D1*
X8127Y5817D1*
X8119Y5846D1*
Y5889D1*
X8127Y5917D1*
X8136Y5932D1*
X8162Y5946D1*
X8239D1*
Y5645D1*
X8020Y5846D2*
X8037Y5831D1*
X8054Y5803D1*
X8063Y5759D1*
Y5731D1*
X8054Y5688D1*
X8037Y5659D1*
X8020Y5645D1*
X7994D1*
X7977Y5659D1*
X7960Y5688D1*
X7951Y5731D1*
Y5759D1*
X7960Y5803D1*
X7977Y5831D1*
X7994Y5846D1*
X8020D1*
X7895D2*
X7861Y5645D1*
X7827Y5846D1*
X7792Y5645D1*
X7758Y5846D1*
X7702Y5759D2*
X7599D1*
Y5788D1*
X7607Y5817D1*
X7616Y5831D1*
X7633Y5846D1*
X7659D1*
X7676Y5831D1*
X7694Y5803D1*
X7702Y5759D1*
Y5731D1*
X7694Y5688D1*
X7676Y5659D1*
X7659Y5645D1*
X7633D1*
X7616Y5659D1*
X7599Y5688D1*
X7543Y5846D2*
Y5645D1*
Y5759D2*
X7535Y5803D1*
X7517Y5831D1*
X7500Y5846D1*
X7474D1*
X9231Y5305D2*
X9102D1*
X9059Y5319D1*
X9045Y5334D1*
X9030Y5362D1*
Y5391D1*
X9045Y5420D1*
X9059Y5434D1*
X9102Y5448D1*
X9231D1*
Y5147D1*
X9131Y5305D2*
X9030Y5147D1*
X8938Y5262D2*
X8766D1*
Y5291D1*
X8780Y5319D1*
X8794Y5334D1*
X8823Y5348D1*
X8866D1*
X8895Y5334D1*
X8924Y5305D1*
X8938Y5262D1*
Y5233D1*
X8924Y5190D1*
X8895Y5162D1*
X8866Y5147D1*
X8823D1*
X8794Y5162D1*
X8766Y5190D1*
X8673Y5348D2*
X8587Y5147D1*
X8501Y5348D1*
X8408Y5448D2*
X8394Y5434D1*
X8379Y5448D1*
X8394Y5463D1*
X8408Y5448D1*
X8394Y5348D2*
Y5147D1*
X8129Y5305D2*
X8143Y5334D1*
X8186Y5348D1*
X8229D1*
X8273Y5334D1*
X8287Y5305D1*
X8273Y5276D1*
X8244Y5262D1*
X8172Y5247D1*
X8143Y5233D1*
X8129Y5204D1*
Y5190D1*
X8143Y5162D1*
X8186Y5147D1*
X8229D1*
X8273Y5162D1*
X8287Y5190D1*
X8036Y5448D2*
X8022Y5434D1*
X8007Y5448D1*
X8022Y5463D1*
X8036Y5448D1*
X8022Y5348D2*
Y5147D1*
X7843Y5348D2*
X7872Y5334D1*
X7901Y5305D1*
X7915Y5262D1*
Y5233D1*
X7901Y5190D1*
X7872Y5162D1*
X7843Y5147D1*
X7800D1*
X7771Y5162D1*
X7743Y5190D1*
X7728Y5233D1*
Y5262D1*
X7743Y5305D1*
X7771Y5334D1*
X7800Y5348D1*
X7843D1*
X7635D2*
Y5147D1*
Y5291D2*
X7592Y5334D1*
X7564Y5348D1*
X7521D1*
X7492Y5334D1*
X7478Y5291D1*
Y5147D1*
X7007Y5448D2*
X7050Y5434D1*
X7079Y5391D1*
X7093Y5319D1*
Y5276D1*
X7079Y5204D1*
X7050Y5161D1*
X7007Y5147D1*
X6979D1*
X6936Y5161D1*
X6907Y5204D1*
X6892Y5276D1*
Y5319D1*
X6907Y5391D1*
X6936Y5434D1*
X6979Y5448D1*
X7007D1*
X6907Y5391D2*
X7079Y5204D1*
X6786Y5176D2*
X6800Y5161D1*
X6786Y5147D1*
X6771Y5161D1*
X6786Y5176D1*
X6492Y5348D2*
X6506Y5305D1*
X6535Y5276D1*
X6578Y5262D1*
X6592D1*
X6635Y5276D1*
X6664Y5305D1*
X6678Y5348D1*
Y5362D1*
X6664Y5405D1*
X6635Y5434D1*
X6592Y5448D1*
X6578D1*
X6535Y5434D1*
X6506Y5405D1*
X6492Y5348D1*
Y5276D1*
X6506Y5204D1*
X6535Y5161D1*
X6578Y5147D1*
X6606D1*
X6649Y5161D1*
X6664Y5190D1*
X6399Y5448D2*
Y5147D1*
X6270D1*
X6227Y5162D1*
X6212Y5176D1*
X6198Y5204D1*
Y5247D1*
X6212Y5276D1*
X6227Y5291D1*
X6270Y5305D1*
X6227Y5319D1*
X6212Y5334D1*
X6198Y5362D1*
Y5391D1*
X6212Y5420D1*
X6227Y5434D1*
X6270Y5448D1*
X6399D1*
Y5305D2*
X6270D1*
X9122Y5055D2*
X9234D1*
Y4753D1*
Y4911D2*
X9165D1*
X9058Y4954D2*
X9006Y4753D1*
X9023Y4696D1*
X9040Y4667D1*
X9058Y4653D1*
X9066D1*
X8954Y4954D2*
X9006Y4753D1*
X8899Y5055D2*
Y4753D1*
Y4911D2*
X8881Y4940D1*
X8864Y4954D1*
X8838D1*
X8821Y4940D1*
X8804Y4911D1*
X8795Y4868D1*
Y4839D1*
X8804Y4796D1*
X8821Y4768D1*
X8838Y4753D1*
X8864D1*
X8881Y4768D1*
X8899Y4796D1*
X8740Y4868D2*
X8637D1*
Y4897D1*
X8645Y4926D1*
X8654Y4940D1*
X8671Y4954D1*
X8697D1*
X8714Y4940D1*
X8731Y4911D1*
X8740Y4868D1*
Y4839D1*
X8731Y4796D1*
X8714Y4768D1*
X8697Y4753D1*
X8671D1*
X8654Y4768D1*
X8637Y4796D1*
X8581Y4954D2*
Y4753D1*
Y4868D2*
X8572Y4911D1*
X8555Y4940D1*
X8538Y4954D1*
X8512D1*
X8281Y5055D2*
Y4753D1*
X8178D1*
X8019Y4954D2*
Y4753D1*
Y4911D2*
X8036Y4940D1*
X8054Y4954D1*
X8079D1*
X8097Y4940D1*
X8114Y4911D1*
X8123Y4868D1*
Y4839D1*
X8114Y4796D1*
X8097Y4768D1*
X8079Y4753D1*
X8054D1*
X8036Y4768D1*
X8019Y4796D1*
X7964Y5055D2*
Y4753D1*
Y4911D2*
X7946Y4940D1*
X7929Y4954D1*
X7903D1*
X7886Y4940D1*
X7869Y4911D1*
X7860Y4868D1*
Y4839D1*
X7869Y4796D1*
X7886Y4768D1*
X7903Y4753D1*
X7929D1*
X7946Y4768D1*
X7964Y4796D1*
X7710Y4911D2*
X7719Y4940D1*
X7745Y4954D1*
X7770D1*
X7796Y4940D1*
X7805Y4911D1*
X7796Y4883D1*
X7779Y4868D1*
X7736Y4854D1*
X7719Y4839D1*
X7710Y4811D1*
Y4796D1*
X7719Y4768D1*
X7745Y4753D1*
X7770D1*
X7796Y4768D1*
X7805Y4796D1*
X7480Y5055D2*
Y4753D1*
X7424Y4954D2*
Y4753D1*
Y4897D2*
X7398Y4940D1*
X7381Y4954D1*
X7355D1*
X7338Y4940D1*
X7329Y4897D1*
Y4753D1*
X7170Y4911D2*
X7188Y4940D1*
X7205Y4954D1*
X7231D1*
X7248Y4940D1*
X7265Y4911D1*
X7274Y4868D1*
Y4839D1*
X7265Y4796D1*
X7248Y4768D1*
X7231Y4753D1*
X7205D1*
X7188Y4768D1*
X7170Y4796D1*
X7106Y4782D2*
X7115Y4767D1*
X7106Y4753D1*
X7097Y4767D1*
X7106Y4782D1*
X8103Y4548D2*
D99*
Y4563D1*
X8089Y4591D1*
X8074Y4606D1*
X8046Y4620D1*
X7988D1*
X7960Y4606D1*
X7945Y4591D1*
X7931Y4563D1*
Y4534D1*
X7945Y4505D1*
X7974Y4462D1*
X8117Y4319D1*
X7917D1*
X7765Y4620D2*
X7808Y4606D1*
X7837Y4563D1*
X7851Y4491D1*
Y4448D1*
X7837Y4376D1*
X7808Y4333D1*
X7765Y4319D1*
X7736D1*
X7693Y4333D1*
X7665Y4376D1*
X7650Y4448D1*
Y4491D1*
X7665Y4563D1*
X7693Y4606D1*
X7736Y4620D1*
X7765D1*
X7665Y4563D2*
X7837Y4376D1*
X7584Y4563D2*
X7555Y4577D1*
X7512Y4620D1*
Y4319D1*
X7303D2*
Y4620D1*
X7447Y4419D1*
X7232D1*
M02*
