G04 DipTrace 2.4.0.2*
%INECGNCHADCBFR0402.gts*%
%MOMM*%
%ADD14C,0.152*%
%ADD34C,0.165*%
%ADD50O,0.9X0.35*%
%ADD51O,0.35X0.9*%
%ADD52R,0.55X0.3*%
%ADD53R,0.55X0.575*%
%ADD54R,0.3X0.55*%
%ADD55R,0.575X0.55*%
%ADD56R,2.082X1.75*%
%ADD57R,1.65X1.75*%
%ADD59R,1.75X2.082*%
%ADD61R,1.75X1.65*%
%ADD62R,1.15X1.05*%
%ADD63R,0.65X0.3*%
%ADD64R,0.75X0.95*%
%ADD65R,0.95X0.75*%
%FSLAX53Y53*%
G04*
G71*
G90*
G75*
G01*
%LNTopMask*%
%LPD*%
D65*
X20778Y12604D3*
X19478D3*
D64*
X20469Y14893D3*
Y13593D3*
D63*
X14063Y13758D3*
Y14258D3*
Y14758D3*
Y15258D3*
X12913D3*
Y14758D3*
Y14258D3*
Y13758D3*
X17100Y15198D3*
Y14698D3*
Y14198D3*
Y13698D3*
X18250D3*
Y14198D3*
Y14698D3*
Y15198D3*
X18526Y21849D3*
Y21349D3*
Y20849D3*
Y20349D3*
X19676D3*
Y20849D3*
Y21349D3*
Y21849D3*
D65*
X21646Y15933D3*
X20346D3*
D62*
X14579Y22523D3*
X12879D3*
D65*
X14149Y21389D3*
X12849D3*
X22806Y15923D3*
X24106D3*
D64*
X23981Y14925D3*
Y13625D3*
D65*
X21892Y12603D3*
X23192D3*
X20821Y22698D3*
X19521D3*
X21653Y19369D3*
X20353D3*
D64*
X20470Y20459D3*
Y21759D3*
X23989Y20395D3*
Y21695D3*
D65*
X22799Y19377D3*
X24099D3*
X21968Y22698D3*
X23268D3*
D61*
X18898Y23978D3*
X21438D3*
D59*
X18898Y25248D3*
X21438D3*
D61*
X18898Y11278D3*
X21438D3*
D59*
X18898Y10008D3*
X21438D3*
D57*
X11278Y13818D3*
Y16358D3*
Y18898D3*
Y21438D3*
D56*
X10008D3*
Y18898D3*
Y16358D3*
Y13818D3*
D61*
X16358Y11278D3*
X13818D3*
D59*
X16358Y10008D3*
X13818D3*
D61*
X16358Y23978D3*
X13818D3*
D59*
X16358Y25248D3*
X13818D3*
D55*
X15846Y21896D3*
D54*
X16486D3*
X16986D3*
D55*
X17621D3*
Y22796D3*
D54*
X16986D3*
X16486D3*
D55*
X15846D3*
X21328Y20188D3*
D54*
X21968D3*
X22468D3*
D55*
X23103D3*
Y21088D3*
D54*
X22468D3*
X21968D3*
D55*
X21328D3*
D53*
X14976Y15388D3*
D52*
Y14748D3*
Y14248D3*
D53*
Y13613D3*
X15876D3*
D52*
Y14248D3*
Y14748D3*
D53*
Y15388D3*
D55*
X15858Y20042D3*
D54*
X16498D3*
X16998D3*
D55*
X17633D3*
Y20942D3*
D54*
X16998D3*
X16498D3*
D55*
X15858D3*
X21192Y17204D3*
D54*
X21832D3*
X22332D3*
D55*
X22967D3*
Y18104D3*
D54*
X22332D3*
X21832D3*
D55*
X21192D3*
X21326Y14211D3*
D54*
X21966D3*
X22466D3*
D55*
X23101D3*
Y15111D3*
D54*
X22466D3*
X21966D3*
D55*
X21326D3*
X15005Y18571D2*
D14*
X13592D1*
Y17151D1*
X15005D1*
Y18571D1*
G36*
X14511Y18095D2*
X14038D1*
Y17621D1*
X14511D1*
Y18095D1*
G37*
G36*
X15038Y18025D2*
X14505D1*
Y17708D1*
X15038D1*
Y18025D1*
G37*
G36*
X14511Y17668D2*
X14121D1*
Y17125D1*
X14511D1*
Y17668D1*
G37*
G36*
X14455Y18608D2*
X14145D1*
Y18091D1*
X14455D1*
Y18608D1*
G37*
G36*
X14048Y18018D2*
X13558D1*
Y17698D1*
X14048D1*
Y18018D1*
G37*
X14418Y17465D2*
D34*
X14419Y17484D1*
X14421Y17502D1*
X14425Y17520D1*
X14429Y17539D1*
X14435Y17556D1*
X14443Y17573D1*
X14451Y17590D1*
X14461Y17606D1*
X14472Y17622D1*
X14484Y17636D1*
X14497Y17650D1*
X14511Y17663D1*
X14526Y17675D1*
X14542Y17686D1*
X14558Y17696D1*
X14575Y17705D1*
X14593Y17712D1*
X14611Y17719D1*
X14630Y17724D1*
X14649Y17728D1*
X14669Y17730D1*
X14688Y17731D1*
X14708D1*
X14727Y17730D1*
X14746Y17728D1*
X14765Y17724D1*
X14784Y17719D1*
X14802Y17712D1*
X14820Y17705D1*
X14837Y17696D1*
X14854Y17686D1*
X14870Y17675D1*
X14885Y17663D1*
X14899Y17650D1*
X14912Y17636D1*
X14924Y17622D1*
X14935Y17606D1*
X14944Y17590D1*
X14953Y17573D1*
X14960Y17556D1*
X14966Y17539D1*
X14971Y17520D1*
X14974Y17502D1*
X14976Y17484D1*
X14977Y17465D1*
X14976Y17446D1*
X14974Y17428D1*
X14971Y17410D1*
X14966Y17392D1*
X14960Y17374D1*
X14953Y17357D1*
X14944Y17340D1*
X14935Y17324D1*
X14924Y17308D1*
X14912Y17294D1*
X14899Y17280D1*
X14885Y17267D1*
X14870Y17255D1*
X14854Y17244D1*
X14837Y17234D1*
X14820Y17225D1*
X14802Y17218D1*
X14784Y17211D1*
X14765Y17206D1*
X14746Y17202D1*
X14727Y17200D1*
X14708Y17199D1*
X14688D1*
X14669Y17200D1*
X14649Y17202D1*
X14630Y17206D1*
X14611Y17211D1*
X14593Y17218D1*
X14575Y17225D1*
X14558Y17234D1*
X14542Y17244D1*
X14526Y17255D1*
X14511Y17267D1*
X14497Y17280D1*
X14484Y17294D1*
X14472Y17308D1*
X14461Y17324D1*
X14451Y17340D1*
X14443Y17357D1*
X14435Y17374D1*
X14429Y17392D1*
X14425Y17410D1*
X14421Y17428D1*
X14419Y17446D1*
X14418Y17465D1*
X13622Y17462D2*
X13623Y17480D1*
X13625Y17499D1*
X13628Y17517D1*
X13633Y17535D1*
X13639Y17553D1*
X13646Y17570D1*
X13655Y17587D1*
X13664Y17603D1*
X13675Y17618D1*
X13687Y17633D1*
X13700Y17647D1*
X13714Y17660D1*
X13729Y17672D1*
X13745Y17683D1*
X13762Y17693D1*
X13779Y17701D1*
X13797Y17709D1*
X13815Y17715D1*
X13834Y17720D1*
X13853Y17724D1*
X13872Y17727D1*
X13892Y17728D1*
X13911D1*
X13930Y17727D1*
X13950Y17724D1*
X13969Y17720D1*
X13988Y17715D1*
X14006Y17709D1*
X14024Y17701D1*
X14041Y17693D1*
X14058Y17683D1*
X14073Y17672D1*
X14088Y17660D1*
X14102Y17647D1*
X14115Y17633D1*
X14127Y17618D1*
X14138Y17603D1*
X14148Y17587D1*
X14157Y17570D1*
X14164Y17553D1*
X14170Y17535D1*
X14175Y17517D1*
X14178Y17499D1*
X14180Y17480D1*
X14181Y17462D1*
X14180Y17443D1*
X14178Y17425D1*
X14175Y17406D1*
X14170Y17388D1*
X14164Y17371D1*
X14157Y17353D1*
X14148Y17337D1*
X14138Y17320D1*
X14127Y17305D1*
X14115Y17290D1*
X14102Y17277D1*
X14088Y17264D1*
X14073Y17252D1*
X14058Y17241D1*
X14041Y17231D1*
X14024Y17222D1*
X14006Y17215D1*
X13988Y17208D1*
X13969Y17203D1*
X13950Y17199D1*
X13930Y17197D1*
X13911Y17195D1*
X13892D1*
X13872Y17197D1*
X13853Y17199D1*
X13834Y17203D1*
X13815Y17208D1*
X13797Y17215D1*
X13779Y17222D1*
X13762Y17231D1*
X13745Y17241D1*
X13729Y17252D1*
X13714Y17264D1*
X13700Y17277D1*
X13687Y17290D1*
X13675Y17305D1*
X13664Y17320D1*
X13655Y17337D1*
X13646Y17353D1*
X13639Y17371D1*
X13633Y17388D1*
X13628Y17406D1*
X13625Y17425D1*
X13623Y17443D1*
X13622Y17462D1*
X14415Y18255D2*
X14416Y18274D1*
X14418Y18292D1*
X14422Y18310D1*
X14426Y18329D1*
X14432Y18346D1*
X14440Y18363D1*
X14448Y18380D1*
X14458Y18396D1*
X14469Y18412D1*
X14481Y18426D1*
X14494Y18440D1*
X14508Y18453D1*
X14523Y18465D1*
X14538Y18476D1*
X14555Y18486D1*
X14572Y18495D1*
X14590Y18502D1*
X14608Y18509D1*
X14627Y18514D1*
X14646Y18518D1*
X14665Y18520D1*
X14685Y18522D1*
X14704D1*
X14724Y18520D1*
X14743Y18518D1*
X14762Y18514D1*
X14781Y18509D1*
X14799Y18502D1*
X14817Y18495D1*
X14834Y18486D1*
X14851Y18476D1*
X14866Y18465D1*
X14881Y18453D1*
X14895Y18440D1*
X14908Y18426D1*
X14920Y18412D1*
X14931Y18396D1*
X14941Y18380D1*
X14950Y18363D1*
X14957Y18346D1*
X14963Y18329D1*
X14968Y18310D1*
X14971Y18292D1*
X14973Y18274D1*
X14974Y18255D1*
X14973Y18236D1*
X14971Y18218D1*
X14968Y18200D1*
X14963Y18182D1*
X14957Y18164D1*
X14950Y18147D1*
X14941Y18130D1*
X14931Y18114D1*
X14920Y18098D1*
X14908Y18084D1*
X14895Y18070D1*
X14881Y18057D1*
X14866Y18045D1*
X14851Y18034D1*
X14834Y18024D1*
X14817Y18015D1*
X14799Y18008D1*
X14781Y18001D1*
X14762Y17996D1*
X14743Y17992D1*
X14724Y17990D1*
X14704Y17989D1*
X14685D1*
X14665Y17990D1*
X14646Y17992D1*
X14627Y17996D1*
X14608Y18001D1*
X14590Y18008D1*
X14572Y18015D1*
X14555Y18024D1*
X14538Y18034D1*
X14523Y18045D1*
X14508Y18057D1*
X14494Y18070D1*
X14481Y18084D1*
X14469Y18098D1*
X14458Y18114D1*
X14448Y18130D1*
X14440Y18147D1*
X14432Y18164D1*
X14426Y18182D1*
X14422Y18200D1*
X14418Y18218D1*
X14416Y18236D1*
X14415Y18255D1*
X13625D2*
X13626Y18274D1*
X13628Y18292D1*
X13631Y18310D1*
X13636Y18329D1*
X13642Y18346D1*
X13649Y18363D1*
X13658Y18380D1*
X13668Y18396D1*
X13679Y18412D1*
X13691Y18426D1*
X13704Y18440D1*
X13718Y18453D1*
X13733Y18465D1*
X13748Y18476D1*
X13765Y18486D1*
X13782Y18495D1*
X13800Y18502D1*
X13818Y18509D1*
X13837Y18514D1*
X13856Y18518D1*
X13875Y18520D1*
X13895Y18522D1*
X13914D1*
X13934Y18520D1*
X13953Y18518D1*
X13972Y18514D1*
X13991Y18509D1*
X14009Y18502D1*
X14027Y18495D1*
X14044Y18486D1*
X14061Y18476D1*
X14077Y18465D1*
X14092Y18453D1*
X14106Y18440D1*
X14119Y18426D1*
X14131Y18412D1*
X14142Y18396D1*
X14151Y18380D1*
X14160Y18363D1*
X14167Y18346D1*
X14173Y18329D1*
X14178Y18310D1*
X14181Y18292D1*
X14183Y18274D1*
X14184Y18255D1*
X14183Y18236D1*
X14181Y18218D1*
X14178Y18200D1*
X14173Y18182D1*
X14167Y18164D1*
X14160Y18147D1*
X14151Y18130D1*
X14142Y18114D1*
X14131Y18098D1*
X14119Y18084D1*
X14106Y18070D1*
X14092Y18057D1*
X14077Y18045D1*
X14061Y18034D1*
X14044Y18024D1*
X14027Y18015D1*
X14009Y18008D1*
X13991Y18001D1*
X13972Y17996D1*
X13953Y17992D1*
X13934Y17990D1*
X13914Y17989D1*
X13895D1*
X13875Y17990D1*
X13856Y17992D1*
X13837Y17996D1*
X13818Y18001D1*
X13800Y18008D1*
X13782Y18015D1*
X13765Y18024D1*
X13748Y18034D1*
X13733Y18045D1*
X13718Y18057D1*
X13704Y18070D1*
X13691Y18084D1*
X13679Y18098D1*
X13668Y18114D1*
X13658Y18130D1*
X13649Y18147D1*
X13642Y18164D1*
X13636Y18182D1*
X13631Y18200D1*
X13628Y18218D1*
X13626Y18236D1*
X13625Y18255D1*
D51*
X15048Y19308D3*
X14548D3*
X14048D3*
X13548D3*
D50*
X12848Y18608D3*
Y18108D3*
Y17608D3*
Y17108D3*
D51*
X13548Y16408D3*
X14048D3*
X14548D3*
X15048D3*
D50*
X15748Y17108D3*
Y17608D3*
Y18108D3*
Y18608D3*
M02*
