G04 DipTrace 2.4.0.2*
%INECGNCHADCBFR0402.gbo*%
%MOMM*%
%ADD10C,0.25*%
%ADD40O,0.723X0.863*%
%ADD67C,0.196*%
%ADD69C,0.111*%
%FSLAX53Y53*%
G04*
G71*
G90*
G75*
G01*
%LNBotSilk*%
%LPD*%
G36*
X12115Y22541D2*
X11498Y23175D1*
X11982Y23521D1*
X12108Y23365D1*
X12115Y22541D1*
G37*
D40*
X11833Y23236D3*
X12118Y22658D2*
D10*
G02X11602Y23161I68J586D01*
G01*
X12132Y22681D2*
G03X12072Y23301I-970J219D01*
G01*
X22309Y20844D2*
D67*
X23098D1*
Y19567D1*
X22309D1*
X23098Y20236D2*
X22612D1*
X21917Y20418D2*
X21248Y19567D1*
Y20418D2*
X21917Y19567D1*
X19945Y20540D2*
X20005Y20661D1*
X20128Y20783D1*
X20248Y20844D1*
X20491D1*
X20613Y20783D1*
X20734Y20661D1*
X20796Y20540D1*
X20856Y20358D1*
Y20053D1*
X20796Y19872D1*
X20734Y19750D1*
X20613Y19629D1*
X20491Y19567D1*
X20248D1*
X20128Y19629D1*
X20005Y19750D1*
X19945Y19872D1*
Y20053D1*
X20248D1*
X17468Y20844D2*
Y19567D1*
X18318Y20844D1*
Y19567D1*
X16772Y20418D2*
X16893Y20358D1*
X17015Y20236D1*
X17076Y20053D1*
Y19932D1*
X17015Y19750D1*
X16893Y19629D1*
X16772Y19567D1*
X16590D1*
X16468Y19629D1*
X16347Y19750D1*
X16285Y19932D1*
Y20053D1*
X16347Y20236D1*
X16468Y20358D1*
X16590Y20418D1*
X16772D1*
X15710Y20844D2*
Y19810D1*
X15650Y19629D1*
X15528Y19567D1*
X15407D1*
X15893Y20418D2*
X15468D1*
X14285Y20236D2*
X14407Y20358D1*
X14529Y20418D1*
X14710D1*
X14833Y20358D1*
X14953Y20236D1*
X15015Y20053D1*
Y19932D1*
X14953Y19750D1*
X14833Y19629D1*
X14710Y19567D1*
X14529D1*
X14407Y19629D1*
X14285Y19750D1*
X13893Y20844D2*
Y19567D1*
Y20175D2*
X13710Y20358D1*
X13588Y20418D1*
X13406D1*
X13285Y20358D1*
X13225Y20175D1*
Y19567D1*
X23159Y14600D2*
X22613D1*
X22431Y14662D1*
X22369Y14722D1*
X22309Y14843D1*
Y14965D1*
X22369Y15086D1*
X22431Y15148D1*
X22613Y15208D1*
X23159D1*
Y13932D1*
X22734Y14600D2*
X22309Y13932D1*
X21551Y15207D2*
X21734Y15146D1*
X21856Y14964D1*
X21916Y14660D1*
Y14478D1*
X21856Y14175D1*
X21734Y13992D1*
X21551Y13932D1*
X21431D1*
X21248Y13992D1*
X21127Y14175D1*
X21066Y14478D1*
Y14660D1*
X21127Y14964D1*
X21248Y15146D1*
X21431Y15207D1*
X21551D1*
X21127Y14964D2*
X21856Y14175D1*
X20613Y14054D2*
X20673Y13992D1*
X20613Y13932D1*
X20551Y13992D1*
X20613Y14054D1*
X19551Y13932D2*
Y15207D1*
X20159Y14357D1*
X19248D1*
X23966Y17003D2*
X24756D1*
Y15727D1*
Y16395D2*
X24270D1*
X23512Y16578D2*
X23148Y15727D1*
X23269Y15484D1*
X23391Y15362D1*
X23512Y15301D1*
X23573D1*
X22783Y16578D2*
X23148Y15727D1*
X22391Y17003D2*
Y15727D1*
Y16395D2*
X22269Y16517D1*
X22148Y16578D1*
X21966D1*
X21845Y16517D1*
X21723Y16395D1*
X21662Y16213D1*
Y16092D1*
X21723Y15909D1*
X21845Y15789D1*
X21966Y15727D1*
X22148D1*
X22269Y15789D1*
X22391Y15909D1*
X21270Y16213D2*
X20542D1*
Y16335D1*
X20602Y16457D1*
X20662Y16517D1*
X20784Y16578D1*
X20967D1*
X21088Y16517D1*
X21210Y16395D1*
X21270Y16213D1*
Y16092D1*
X21210Y15909D1*
X21088Y15789D1*
X20967Y15727D1*
X20784D1*
X20662Y15789D1*
X20542Y15909D1*
X20149Y16578D2*
Y15727D1*
Y16213D2*
X20088Y16395D1*
X19967Y16517D1*
X19845Y16578D1*
X19662D1*
X18036Y17003D2*
Y15727D1*
X17307D1*
X16186Y16578D2*
Y15727D1*
Y16395D2*
X16307Y16517D1*
X16429Y16578D1*
X16610D1*
X16732Y16517D1*
X16853Y16395D1*
X16915Y16213D1*
Y16092D1*
X16853Y15909D1*
X16732Y15789D1*
X16610Y15727D1*
X16429D1*
X16307Y15789D1*
X16186Y15909D1*
X15794Y17003D2*
Y15727D1*
Y16395D2*
X15672Y16517D1*
X15551Y16578D1*
X15369D1*
X15248Y16517D1*
X15126Y16395D1*
X15066Y16213D1*
Y16092D1*
X15126Y15909D1*
X15248Y15789D1*
X15369Y15727D1*
X15551D1*
X15672Y15789D1*
X15794Y15909D1*
X14005Y16395D2*
X14066Y16517D1*
X14248Y16578D1*
X14431D1*
X14613Y16517D1*
X14673Y16395D1*
X14613Y16274D1*
X14491Y16213D1*
X14188Y16152D1*
X14066Y16092D1*
X14005Y15970D1*
Y15909D1*
X14066Y15789D1*
X14248Y15727D1*
X14431D1*
X14613Y15789D1*
X14673Y15909D1*
X18853Y14931D2*
Y14991D1*
X18793Y15113D1*
X18732Y15174D1*
X18610Y15234D1*
X18367D1*
X18247Y15174D1*
X18186Y15113D1*
X18125Y14991D1*
Y14871D1*
X18186Y14748D1*
X18307Y14567D1*
X18915Y13959D1*
X18064D1*
X17307Y15234D2*
X17490Y15174D1*
X17612Y14991D1*
X17672Y14688D1*
Y14506D1*
X17612Y14202D1*
X17490Y14020D1*
X17307Y13959D1*
X17186D1*
X17004Y14020D1*
X16883Y14202D1*
X16821Y14506D1*
Y14688D1*
X16883Y14991D1*
X17004Y15174D1*
X17186Y15234D1*
X17307D1*
X16883Y14991D2*
X17612Y14202D1*
X16429Y14991D2*
X16307Y15053D1*
X16125Y15234D1*
Y13959D1*
X15004Y15234D2*
X15610D1*
X15671Y14688D1*
X15610Y14748D1*
X15428Y14810D1*
X15247D1*
X15064Y14748D1*
X14942Y14628D1*
X14882Y14445D1*
Y14324D1*
X14942Y14142D1*
X15064Y14020D1*
X15247Y13959D1*
X15428D1*
X15610Y14020D1*
X15671Y14082D1*
X15732Y14202D1*
X16822Y21573D2*
D69*
X17017Y22594D1*
X17211Y21573D1*
X17322D2*
Y22594D1*
X17492D1*
X17565Y22544D1*
X17614Y22448D1*
X17638Y22350D1*
X17662Y22205D1*
Y21961D1*
X17638Y21815D1*
X17614Y21719D1*
X17565Y21621D1*
X17492Y21573D1*
X17322D1*
X17773D2*
Y22594D1*
X17944D1*
X18017Y22544D1*
X18065Y22448D1*
X18090Y22350D1*
X18114Y22205D1*
Y21961D1*
X18090Y21815D1*
X18065Y21719D1*
X18017Y21621D1*
X17944Y21573D1*
X17773D1*
X18173Y13734D2*
X17978Y12713D1*
X17784Y13734D1*
X17673D2*
Y12713D1*
X17503D1*
X17430Y12763D1*
X17381Y12859D1*
X17357Y12957D1*
X17333Y13102D1*
Y13346D1*
X17357Y13492D1*
X17381Y13588D1*
X17430Y13686D1*
X17503Y13734D1*
X17673D1*
X17222D2*
Y12713D1*
X17052D1*
X16979Y12763D1*
X16930Y12859D1*
X16906Y12957D1*
X16881Y13102D1*
Y13346D1*
X16906Y13492D1*
X16930Y13588D1*
X16979Y13686D1*
X17052Y13734D1*
X17222D1*
X14487Y21664D2*
X14463Y21568D1*
X14414Y21470D1*
X14365Y21422D1*
X14268D1*
X14219Y21470D1*
X14171Y21568D1*
X14146Y21664D1*
X14122Y21810D1*
Y22054D1*
X14146Y22199D1*
X14171Y22297D1*
X14219Y22393D1*
X14268Y22443D1*
X14365D1*
X14414Y22393D1*
X14463Y22297D1*
X14487Y22199D1*
Y22054D1*
X14365D1*
X14938Y21422D2*
Y22443D1*
X14598Y21422D1*
Y22443D1*
X15049Y21422D2*
Y22443D1*
X15219D1*
X15292Y22393D1*
X15341Y22297D1*
X15365Y22199D1*
X15389Y22054D1*
Y21810D1*
X15365Y21664D1*
X15341Y21568D1*
X15292Y21470D1*
X15219Y21422D1*
X15049D1*
X13910Y13655D2*
X13934Y13752D1*
X13983Y13850D1*
X14031Y13898D1*
X14128D1*
X14177Y13850D1*
X14225Y13752D1*
X14250Y13655D1*
X14274Y13509D1*
Y13266D1*
X14250Y13121D1*
X14225Y13023D1*
X14177Y12926D1*
X14128Y12877D1*
X14031D1*
X13983Y12926D1*
X13934Y13023D1*
X13910Y13121D1*
Y13266D1*
X14031D1*
X13458Y13898D2*
Y12877D1*
X13799Y13898D1*
Y12877D1*
X13347Y13898D2*
Y12877D1*
X13177D1*
X13104Y12926D1*
X13055Y13023D1*
X13031Y13121D1*
X13007Y13266D1*
Y13509D1*
X13031Y13655D1*
X13055Y13752D1*
X13104Y13850D1*
X13177Y13898D1*
X13347D1*
X12568Y12726D2*
X12617Y12677D1*
X12665Y12580D1*
X12690Y12483D1*
X12714Y12337D1*
Y12093D1*
X12690Y11949D1*
X12665Y11851D1*
X12617Y11754D1*
X12568Y11705D1*
X12471D1*
X12423Y11754D1*
X12374Y11851D1*
X12350Y11949D1*
X12326Y12093D1*
Y12337D1*
X12350Y12483D1*
X12374Y12580D1*
X12423Y12677D1*
X12471Y12726D1*
X12568D1*
X12215D2*
Y11997D1*
X12190Y11851D1*
X12142Y11754D1*
X12069Y11705D1*
X12020D1*
X11947Y11754D1*
X11898Y11851D1*
X11874Y11997D1*
Y12726D1*
X11593D2*
Y11705D1*
X11763Y12726D2*
X11423D1*
X22893Y12389D2*
Y11368D1*
X22442Y12389D2*
Y11368D1*
X22782Y12389D1*
Y11368D1*
X13759Y21318D2*
X13808Y21366D1*
X13953Y21439D1*
X12933D1*
X13709Y18803D2*
X13758D1*
X13855Y18827D1*
X13904Y18851D1*
X13952Y18900D1*
Y18997D1*
X13904Y19045D1*
X13855Y19070D1*
X13758Y19094D1*
X13661D1*
X13563Y19070D1*
X13418Y19021D1*
X12932Y18778D1*
Y19118D1*
X13866Y16708D2*
Y16975D1*
X13477Y16829D1*
Y16902D1*
X13429Y16950D1*
X13381Y16975D1*
X13235Y16999D1*
X13138D1*
X12992Y16975D1*
X12894Y16926D1*
X12846Y16853D1*
Y16780D1*
X12894Y16708D1*
X12944Y16684D1*
X13040Y16659D1*
X12820Y14416D2*
X13840D1*
X13161Y14173D1*
Y14537D1*
X21207Y21594D2*
Y21545D1*
X21232Y21448D1*
X21256Y21399D1*
X21305Y21351D1*
X21402D1*
X21450Y21399D1*
X21474Y21448D1*
X21499Y21545D1*
Y21642D1*
X21474Y21740D1*
X21426Y21885D1*
X21183Y22371D1*
X21523D1*
X19182Y21606D2*
X19231Y21556D1*
X19304Y21411D1*
Y22431D1*
X22110Y13837D2*
X21843D1*
X21988Y13449D1*
X21915D1*
X21867Y13400D1*
X21843Y13352D1*
X21818Y13206D1*
Y13109D1*
X21843Y12963D1*
X21891Y12866D1*
X21964Y12817D1*
X22037D1*
X22110Y12866D1*
X22134Y12915D1*
X22159Y13012D1*
X19686Y12669D2*
Y13689D1*
X19929Y13010D1*
X19565D1*
X23876Y18825D2*
D67*
X24666D1*
Y17549D1*
Y18217D2*
X24180D1*
X23483Y18825D2*
Y17549D1*
X23091Y18034D2*
X22363D1*
Y18157D1*
X22423Y18279D1*
X22483Y18339D1*
X22606Y18399D1*
X22788D1*
X22909Y18339D1*
X23031Y18217D1*
X23091Y18034D1*
Y17914D1*
X23031Y17731D1*
X22909Y17610D1*
X22788Y17549D1*
X22606D1*
X22483Y17610D1*
X22363Y17731D1*
X21970Y18399D2*
X21302Y17549D1*
Y18399D2*
X21970Y17549D1*
X18704D2*
Y18825D1*
X19190Y17549D1*
X19676Y18825D1*
Y17549D1*
X18009Y18399D2*
X18130Y18339D1*
X18252Y18217D1*
X18312Y18034D1*
Y17914D1*
X18252Y17731D1*
X18130Y17610D1*
X18009Y17549D1*
X17826D1*
X17704Y17610D1*
X17583Y17731D1*
X17522Y17914D1*
Y18034D1*
X17583Y18217D1*
X17704Y18339D1*
X17826Y18399D1*
X18009D1*
X16401Y18825D2*
Y17549D1*
Y18217D2*
X16522Y18339D1*
X16644Y18399D1*
X16826D1*
X16947Y18339D1*
X17069Y18217D1*
X17130Y18034D1*
Y17914D1*
X17069Y17731D1*
X16947Y17610D1*
X16826Y17549D1*
X16644D1*
X16522Y17610D1*
X16401Y17731D1*
X16009Y18399D2*
Y17792D1*
X15948Y17610D1*
X15826Y17549D1*
X15644D1*
X15523Y17610D1*
X15341Y17792D1*
Y18399D2*
Y17549D1*
X14948Y18825D2*
Y17549D1*
X14556Y18034D2*
X13828D1*
Y18157D1*
X13888Y18279D1*
X13948Y18339D1*
X14070Y18399D1*
X14253D1*
X14374Y18339D1*
X14496Y18217D1*
X14556Y18034D1*
Y17914D1*
X14496Y17731D1*
X14374Y17610D1*
X14253Y17549D1*
X14070D1*
X13948Y17610D1*
X13828Y17731D1*
M02*
