G04 DipTrace 2.4.0.2*
%INECGNCHADCBFR0402.gtp*%
%MOMM*%
%ADD15R,0.9X0.7*%
%ADD16R,0.7X0.9*%
%ADD18R,0.6X0.25*%
%ADD19R,1.1X1.0*%
%ADD27R,0.525X0.5*%
%ADD28R,0.25X0.5*%
%ADD30R,0.5X0.525*%
%ADD31R,0.5X0.25*%
%ADD33O,0.59X0.59*%
%ADD35O,0.3X0.85*%
%ADD36O,0.85X0.3*%
%FSLAX53Y53*%
G04*
G71*
G90*
G75*
G01*
%LNTopPaste*%
%LPD*%
D15*
X20778Y12604D3*
X19478D3*
D16*
X20469Y14893D3*
Y13593D3*
D18*
X14063Y13758D3*
Y14258D3*
Y14758D3*
Y15258D3*
X12913D3*
Y14758D3*
Y14258D3*
Y13758D3*
X17100Y15198D3*
Y14698D3*
Y14198D3*
Y13698D3*
X18250D3*
Y14198D3*
Y14698D3*
Y15198D3*
X18526Y21849D3*
Y21349D3*
Y20849D3*
Y20349D3*
X19676D3*
Y20849D3*
Y21349D3*
Y21849D3*
D15*
X21646Y15933D3*
X20346D3*
D19*
X14579Y22523D3*
X12879D3*
D15*
X14149Y21389D3*
X12849D3*
X22806Y15923D3*
X24106D3*
D16*
X23981Y14925D3*
Y13625D3*
D15*
X21892Y12603D3*
X23192D3*
X20821Y22698D3*
X19521D3*
X21653Y19369D3*
X20353D3*
D16*
X20470Y20459D3*
Y21759D3*
X23989Y20395D3*
Y21695D3*
D15*
X22799Y19377D3*
X24099D3*
X21968Y22698D3*
X23268D3*
D27*
X15846Y21896D3*
D28*
X16486D3*
X16986D3*
D27*
X17621D3*
Y22796D3*
D28*
X16986D3*
X16486D3*
D27*
X15846D3*
X21328Y20188D3*
D28*
X21968D3*
X22468D3*
D27*
X23103D3*
Y21088D3*
D28*
X22468D3*
X21968D3*
D27*
X21328D3*
D30*
X14976Y15388D3*
D31*
Y14748D3*
Y14248D3*
D30*
Y13613D3*
X15876D3*
D31*
Y14248D3*
Y14748D3*
D30*
Y15388D3*
D27*
X15858Y20042D3*
D28*
X16498D3*
X16998D3*
D27*
X17633D3*
Y20942D3*
D28*
X16998D3*
X16498D3*
D27*
X15858D3*
X21192Y17204D3*
D28*
X21832D3*
X22332D3*
D27*
X22967D3*
Y18104D3*
D28*
X22332D3*
X21832D3*
D27*
X21192D3*
X21326Y14211D3*
D28*
X21966D3*
X22466D3*
D27*
X23101D3*
Y15111D3*
D28*
X22466D3*
X21966D3*
D27*
X21326D3*
D33*
X14652Y17504D3*
Y18212D3*
X13944Y17504D3*
Y18212D3*
D35*
X15048Y19308D3*
X14548D3*
X14048D3*
X13548D3*
D36*
X12848Y18608D3*
Y18108D3*
Y17608D3*
Y17108D3*
D35*
X13548Y16408D3*
X14048D3*
X14548D3*
X15048D3*
D36*
X15748Y17108D3*
Y17608D3*
Y18108D3*
Y18608D3*
M02*
