M48
METRIC,0000.00
T01C0.254
T02C1.1
%
T01
X+001969Y+001676
X+002062Y+001595
X+002218Y+001471
X+001959Y+001409
X+001838Y+001314
X+001722Y+001350
X+001694Y+001405
X+001636Y+001415
X+001551Y+001471
X+001518Y+001520
X+001645Y+001585
X+001741Y+001503
X+001830Y+001518
X+001851Y+001628
X+001771Y+001626
X+001820Y+001720
X+001973Y+001920
X+001966Y+001247
X+002050Y+001154
X+001795Y+001154
X+001375Y+001339
X+001196Y+001258
X+001237Y+001792
T02
X+002397Y+001381
X+002524Y+001381
X+002524Y+001127
X+002397Y+001127
X+002397Y+001635
X+002524Y+001635
X+002524Y+001889
X+002397Y+001889
X+001620Y+001889
X+001620Y+002016
X+001366Y+002016
X+001366Y+001889
X+001127Y+001635
X+001000Y+001635
X+001000Y+001381
X+001127Y+001381
X+001381Y+001127
X+001381Y+001000
X+001635Y+001000
X+001635Y+001127
T00
M30
