G04 DipTrace 2.4.0.2*
%INST12axis2.gtl*%
%MOMM*%
%ADD13C,0.152*%
%ADD14C,0.254*%
%ADD17R,0.7X0.9*%
%ADD18R,1.1X1.0*%
%ADD19R,1.6X1.7*%
%ADD20R,2.032X1.7*%
%ADD21R,2.0X1.7*%
%ADD22R,1.7X1.6*%
%ADD23R,1.7X2.032*%
%ADD25R,0.525X0.5*%
%ADD26R,0.25X0.5*%
%ADD28R,0.4X0.5*%
%ADD30R,0.737X1.2*%
%ADD32R,0.5X0.35*%
%ADD34O,0.27X0.58*%
%ADD35O,0.58X0.27*%
%ADD37C,0.711*%
%FSLAX53Y53*%
G04*
G71*
G90*
G75*
G01*
%LNTop*%
%LPD*%
X21861Y15688D2*
D13*
X20655D1*
X20546Y15579D1*
X21861Y16978D2*
X21544D1*
X21056Y17466D1*
X20714D1*
X24311Y18268D2*
X24618D1*
X26510Y20160D1*
X24311Y16548D2*
X24937D1*
X25400Y16085D1*
Y14126D1*
X26986Y12540D1*
X26510D1*
X21861Y17408D2*
Y17838D1*
Y18268D1*
X22411D1*
X22441Y18238D1*
X22871D1*
X23301D1*
X23731D1*
Y19220D1*
X24106Y19596D1*
X21861Y18268D2*
X21346D1*
X21498D1*
X21000Y18766D1*
X20714D1*
X15916Y15800D2*
X16236D1*
X16338Y15698D1*
X16992D1*
X17500D1*
Y15363D1*
X17633Y15495D1*
X18016D1*
X18268D1*
X18768D1*
X19020D1*
X19408D1*
Y15456D1*
X19869Y14995D1*
Y14956D1*
X20546Y14279D1*
Y13959D1*
X21635Y12870D1*
X16350Y21430D2*
Y21891D1*
X14181Y19722D1*
Y18643D1*
X14064Y18526D1*
X13916Y15150D2*
Y15187D1*
X13632D1*
X12886Y15934D1*
X12755D1*
X21346Y18601D2*
Y18268D1*
X19697Y14975D2*
X19717Y14995D1*
X19869D1*
X17047Y15753D2*
X16992Y15698D1*
X14064Y18526D2*
X13810D1*
X13236Y17952D1*
Y17591D1*
X12701Y17056D1*
Y15934D1*
X12755D1*
X17047Y15753D2*
Y15844D1*
X16397Y16493D1*
X15839D1*
X15812Y16520D1*
X24311Y17408D2*
D14*
X26298D1*
X26510Y17620D1*
X24311Y16978D2*
D13*
X25098D1*
X26996Y15080D1*
X26510D1*
X22441Y15288D2*
X22466D1*
Y14579D1*
X22257Y14370D1*
Y13564D1*
X22845Y12976D1*
X23079D1*
X15916Y13850D2*
Y13804D1*
X16395Y13325D1*
X22366Y12060D2*
Y12252D1*
X22257Y12362D1*
Y13564D1*
X17342Y13832D2*
Y13109D1*
X17605Y12846D1*
X23079Y11976D2*
Y11793D1*
X22747Y11461D1*
X21428D1*
X21049Y11841D1*
X20778D1*
X20952Y12015D1*
X23301Y15288D2*
Y14679D1*
X23507Y14473D1*
Y13482D1*
X23715Y13274D1*
Y12976D1*
X23779D1*
X16613Y14556D2*
X15973D1*
X15916Y14500D1*
X24583Y11805D2*
Y12108D1*
X23715Y12976D1*
X15916Y14500D2*
X15773D1*
X15431Y14157D1*
Y13216D1*
X14856Y12641D1*
X12899D1*
X11988Y13552D1*
Y14362D1*
X11270Y15080D1*
X19526Y13832D2*
Y13588D1*
X19988Y13126D1*
Y12066D1*
X20912Y11142D1*
X23018D1*
X23814Y11937D1*
X23779D1*
Y11976D1*
X17633Y16395D2*
X17527D1*
X16942Y16980D1*
X16595D1*
X16224Y17351D1*
X16011D1*
X15608Y17754D1*
X13916Y13850D2*
X13874D1*
X13426Y13402D1*
X14939Y17169D2*
X14870Y17238D1*
X16304D1*
X16595Y16947D1*
Y16980D1*
X18768Y16395D2*
Y16665D1*
X18367Y17066D1*
X18292Y17141D1*
X18127D1*
X17499Y17769D1*
X23731Y15288D2*
X23707D1*
Y14982D1*
X23868Y14821D1*
Y13665D1*
X24518Y13015D1*
Y13200D1*
X18201Y17153D2*
X18287Y17066D1*
X18367D1*
X19408Y16395D2*
D14*
X19404Y16863D1*
Y17671D1*
X24311Y15258D2*
Y14348D1*
X24597Y14061D1*
X19414Y16863D2*
X19404D1*
X22871Y15288D2*
D13*
Y14072D1*
X22918Y14119D1*
Y14210D1*
X24311Y15688D2*
Y15831D1*
Y16118D1*
X22406Y19596D2*
X21753D1*
X20724D1*
X18890Y21430D1*
Y19673D1*
X19404Y19159D1*
X17597D1*
X17499Y19257D1*
X15623D1*
X15608Y19242D1*
X21861Y15258D2*
Y14818D1*
Y14395D1*
X21635Y14170D1*
X21861Y16548D2*
Y16118D1*
Y16548D2*
Y16327D1*
X21310D1*
X21196Y16441D1*
X13916Y15800D2*
Y16786D1*
Y17374D1*
X14064Y17226D1*
X13953D1*
X14728Y18001D1*
Y18781D1*
X14925Y18979D1*
X15345D1*
X15608Y19242D1*
X13916Y14500D2*
X13309D1*
X12889D1*
X12755Y14634D1*
X15916Y15150D2*
X17121D1*
X17338Y14932D1*
X17726D1*
X17964D1*
X18442Y14454D1*
Y13840D1*
X18434Y13832D1*
X13309Y14492D2*
Y14500D1*
X24311Y15831D2*
X24585D1*
X24662Y15908D1*
X18890Y11270D2*
Y12485D1*
X18639Y12736D1*
Y13627D1*
X18434Y13832D1*
X13479Y16786D2*
X13916D1*
X21789Y14818D2*
X21861D1*
X21753Y19631D2*
Y19596D1*
X18365Y14690D2*
X18141D1*
X17875Y14956D1*
X17726D1*
Y14932D1*
D37*
X22918Y14210D3*
X21196Y16441D3*
X24597Y14061D3*
X13426Y13402D3*
X13309Y14492D3*
X16613Y14556D3*
X16395Y13325D3*
X24662Y15908D3*
X21346Y18601D3*
X17605Y12846D3*
X20952Y12015D3*
X19697Y14975D3*
X24518Y13200D3*
X17047Y15753D3*
X13479Y16786D3*
X21789Y14818D3*
X24583Y11805D3*
X22366Y12060D3*
X14939Y17169D3*
X21753Y19631D3*
X19414Y16863D3*
X18201Y17153D3*
X18365Y14690D3*
X15812Y16520D3*
G36*
X15008Y17631D2*
Y18371D1*
X16208D1*
Y17631D1*
X16148Y17471D1*
X16008Y17271D1*
X15808Y17171D1*
X15608Y17136D1*
X15408Y17171D1*
X15208Y17271D1*
X15068Y17471D1*
X15008Y17631D1*
G37*
G36*
X16208Y19364D2*
Y18624D1*
X15008D1*
Y19364D1*
X15068Y19524D1*
X15208Y19724D1*
X15408Y19824D1*
X15608Y19860D1*
X15808Y19824D1*
X16008Y19724D1*
X16148Y19524D1*
X16208Y19364D1*
G37*
G36*
X18099Y19379D2*
Y18640D1*
X16899D1*
Y19379D1*
X16959Y19539D1*
X17099Y19739D1*
X17299Y19839D1*
X17499Y19875D1*
X17699Y19839D1*
X17899Y19739D1*
X18039Y19539D1*
X18099Y19379D1*
G37*
G36*
X16899Y17647D2*
Y18387D1*
X18099D1*
Y17647D1*
X18039Y17487D1*
X17899Y17287D1*
X17699Y17187D1*
X17499Y17151D1*
X17299Y17187D1*
X17099Y17287D1*
X16959Y17487D1*
X16899Y17647D1*
G37*
G36*
X20004Y19282D2*
Y18542D1*
X18804D1*
Y19282D1*
X18864Y19442D1*
X19004Y19642D1*
X19204Y19742D1*
X19404Y19777D1*
X19604Y19742D1*
X19804Y19642D1*
X19944Y19442D1*
X20004Y19282D1*
G37*
G36*
X18804Y17549D2*
Y18289D1*
X20004D1*
Y17549D1*
X19944Y17389D1*
X19804Y17189D1*
X19604Y17089D1*
X19404Y17053D1*
X19204Y17089D1*
X19004Y17189D1*
X18864Y17389D1*
X18804Y17549D1*
G37*
D17*
X12755Y14634D3*
Y15934D3*
X14064Y17226D3*
Y18526D3*
X21635Y14170D3*
Y12870D3*
D18*
X22406Y19596D3*
X24106D3*
D17*
X20714Y17466D3*
Y18766D3*
X20546Y15579D3*
Y14279D3*
D19*
X26510Y17620D3*
Y20160D3*
D20*
X27780Y17620D3*
Y20160D3*
D19*
X26510Y12540D3*
D21*
X27780D3*
D19*
X11270Y15080D3*
Y17620D3*
D20*
X10000Y15080D3*
Y17620D3*
D19*
X26510Y15080D3*
D21*
X27780D3*
D22*
X18890Y11270D3*
X16350D3*
D23*
X18890Y10000D3*
X16350D3*
D22*
X18890Y21430D3*
X16350D3*
D23*
X18890Y22700D3*
X16350D3*
D25*
X19408Y16395D3*
D26*
X18768D3*
X18268D3*
D25*
X17633D3*
Y15495D3*
D26*
X18268D3*
X18768D3*
D25*
X19408D3*
D28*
X23779Y12976D3*
X23079D3*
Y11976D3*
X23779D3*
G36*
X17371Y14432D2*
X17811D1*
Y13232D1*
X17371D1*
X17211Y13292D1*
X17011Y13432D1*
X16911Y13632D1*
X16873Y13832D1*
X16911Y14032D1*
X17011Y14232D1*
X17211Y14372D1*
X17371Y14432D1*
G37*
G36*
X19497Y13232D2*
X19057D1*
Y14432D1*
X19497D1*
X19657Y14372D1*
X19857Y14232D1*
X19957Y14032D1*
X19996Y13832D1*
X19957Y13632D1*
X19857Y13432D1*
X19657Y13292D1*
X19497Y13232D1*
G37*
D30*
X18434Y13832D3*
D32*
X13916Y15800D3*
Y15150D3*
Y14500D3*
Y13850D3*
X15916D3*
Y14500D3*
Y15150D3*
Y15800D3*
D34*
X22441Y15288D3*
X22871D3*
X23301D3*
X23731D3*
D35*
X24311Y15258D3*
Y15688D3*
Y16118D3*
Y16548D3*
Y16978D3*
Y17408D3*
Y17838D3*
Y18268D3*
D34*
X23731Y18238D3*
X23301D3*
X22871D3*
X22441D3*
D35*
X21861Y18268D3*
Y17838D3*
Y17408D3*
Y16978D3*
Y16548D3*
Y16118D3*
Y15688D3*
Y15258D3*
M02*
