G04 DipTrace 2.4.0.2*
%INlightning.gtp*%
%MOMM*%
%ADD17R,1.1X1.0*%
%ADD18R,1.0X1.1*%
%ADD19R,0.7X0.9*%
%ADD20R,0.9X0.7*%
%ADD27R,1.3X3.2*%
%ADD29R,0.4X0.5*%
%ADD31R,0.5X0.4*%
%ADD33O,0.86X0.85*%
%ADD35O,0.973X0.96*%
%ADD36O,0.35X0.8*%
%ADD37O,0.8X0.35*%
%FSLAX53Y53*%
G04*
G71*
G90*
G75*
G01*
%LNTopPaste*%
%LPD*%
D17*
X17731Y20168D3*
X19431D3*
D18*
X11285Y17843D3*
Y16143D3*
D19*
X11278Y19533D3*
Y20833D3*
D20*
X13803Y21756D3*
X15103D3*
X13803Y23026D3*
X15103D3*
D27*
X12978Y27153D3*
X22278D3*
D29*
X20405Y13762D3*
X21105D3*
Y14762D3*
X20405D3*
D31*
X20803Y17946D3*
Y18646D3*
X19803D3*
Y17946D3*
D20*
X15103Y24296D3*
X13803D3*
D33*
X14456Y18602D3*
D35*
X15230Y19340D3*
X13666Y19350D3*
X15220Y17807D3*
X13663Y17797D3*
D36*
X15428Y20531D3*
X14778D3*
X14128D3*
X13478D3*
D37*
X12503Y19556D3*
Y18906D3*
Y18256D3*
Y17606D3*
D36*
X13478Y16631D3*
X14128D3*
X14778D3*
X15428D3*
D37*
X16403Y17606D3*
Y18256D3*
Y18906D3*
Y19556D3*
M02*
