G04 DipTrace 2.4.0.2*
%INlightning.gts*%
%MOMM*%
%ADD10C,0.25*%
%ADD16O,1.23X1.185*%
%ADD21O,1.185X1.23*%
%ADD34C,0.165*%
%ADD49O,0.85X0.4*%
%ADD50O,0.4X0.85*%
%ADD51R,0.55X0.45*%
%ADD52R,0.45X0.55*%
%ADD53R,1.35X3.25*%
%ADD54R,1.75X2.05*%
%ADD55R,1.75X1.65*%
%ADD56R,2.05X1.75*%
%ADD57R,1.65X1.75*%
%ADD59R,0.95X0.75*%
%ADD60R,0.75X0.95*%
%ADD61R,1.05X1.15*%
%ADD62R,1.15X1.05*%
%FSLAX53Y53*%
G04*
G71*
G90*
G75*
G01*
%LNTopMask*%
%LPD*%
D16*
X17881Y13463D3*
G36*
X18496Y13237D2*
X17266D1*
Y15237D1*
X18496D1*
Y13237D1*
G37*
D16*
X17881Y15011D3*
X15071Y13463D3*
G36*
X15687Y13237D2*
X14456D1*
Y15237D1*
X15687D1*
Y13237D1*
G37*
D16*
X15071Y15011D3*
D62*
X17723Y20478D3*
X19423D3*
D61*
X11277Y17835D3*
Y16135D3*
D60*
X11270Y19525D3*
Y20825D3*
D59*
X13795Y21748D3*
X15095D3*
X13795Y23018D3*
X15095D3*
D21*
X19817Y16033D3*
G36*
X19777Y15433D2*
X21752D1*
Y16632D1*
X19777D1*
Y15433D1*
G37*
D21*
X21737Y16033D3*
D57*
X11270Y13810D3*
D56*
X10000D3*
D55*
X13810Y11270D3*
D54*
Y10000D3*
D55*
X16350Y11270D3*
D54*
Y10000D3*
D55*
X18890Y11270D3*
D54*
Y10000D3*
D55*
X21430Y11270D3*
D54*
Y10000D3*
D53*
X12970Y27145D3*
X22270D3*
D52*
X20397Y13754D3*
X21097D3*
Y14754D3*
X20397D3*
D51*
X18948Y17938D3*
Y18638D3*
X17948D3*
Y17938D3*
D59*
X15095Y24288D3*
X13795D3*
X15062Y18576D2*
D34*
X15063Y18595D1*
X15065Y18613D1*
X15068Y18632D1*
X15073Y18650D1*
X15079Y18668D1*
X15086Y18685D1*
X15095Y18702D1*
X15105Y18718D1*
X15115Y18733D1*
X15127Y18748D1*
X15141Y18762D1*
X15155Y18774D1*
X15170Y18786D1*
X15185Y18797D1*
X15202Y18807D1*
X15219Y18816D1*
X15237Y18824D1*
X15255Y18830D1*
X15274Y18835D1*
X15293Y18839D1*
X15312Y18842D1*
X15332Y18843D1*
X15351D1*
X15371Y18842D1*
X15390Y18839D1*
X15409Y18835D1*
X15428Y18830D1*
X15446Y18824D1*
X15464Y18816D1*
X15481Y18807D1*
X15498Y18797D1*
X15514Y18786D1*
X15528Y18774D1*
X15543Y18762D1*
X15556Y18748D1*
X15568Y18733D1*
X15578Y18718D1*
X15588Y18702D1*
X15597Y18685D1*
X15604Y18668D1*
X15610Y18650D1*
X15615Y18632D1*
X15618Y18613D1*
X15620Y18595D1*
X15621Y18576D1*
X15620Y18558D1*
X15618Y18539D1*
X15615Y18521D1*
X15610Y18503D1*
X15604Y18485D1*
X15597Y18468D1*
X15588Y18451D1*
X15578Y18435D1*
X15568Y18420D1*
X15556Y18405D1*
X15543Y18391D1*
X15528Y18378D1*
X15514Y18366D1*
X15498Y18355D1*
X15481Y18345D1*
X15464Y18337D1*
X15446Y18329D1*
X15428Y18323D1*
X15409Y18318D1*
X15390Y18314D1*
X15371Y18311D1*
X15351Y18310D1*
X15332D1*
X15312Y18311D1*
X15293Y18314D1*
X15274Y18318D1*
X15255Y18323D1*
X15237Y18329D1*
X15219Y18337D1*
X15202Y18345D1*
X15185Y18355D1*
X15170Y18366D1*
X15155Y18378D1*
X15141Y18391D1*
X15127Y18405D1*
X15115Y18420D1*
X15105Y18435D1*
X15095Y18451D1*
X15086Y18468D1*
X15079Y18485D1*
X15073Y18503D1*
X15068Y18521D1*
X15065Y18539D1*
X15063Y18558D1*
X15062Y18576D1*
Y17673D2*
X15063Y17691D1*
X15065Y17710D1*
X15068Y17728D1*
X15073Y17746D1*
X15079Y17764D1*
X15086Y17781D1*
X15095Y17798D1*
X15105Y17814D1*
X15115Y17829D1*
X15127Y17844D1*
X15141Y17858D1*
X15155Y17871D1*
X15170Y17883D1*
X15185Y17894D1*
X15202Y17904D1*
X15219Y17912D1*
X15237Y17920D1*
X15255Y17926D1*
X15274Y17931D1*
X15293Y17935D1*
X15312Y17938D1*
X15332Y17939D1*
X15351D1*
X15371Y17938D1*
X15390Y17935D1*
X15409Y17931D1*
X15428Y17926D1*
X15446Y17920D1*
X15464Y17912D1*
X15481Y17904D1*
X15498Y17894D1*
X15514Y17883D1*
X15528Y17871D1*
X15543Y17858D1*
X15556Y17844D1*
X15568Y17829D1*
X15578Y17814D1*
X15588Y17798D1*
X15597Y17781D1*
X15604Y17764D1*
X15610Y17746D1*
X15615Y17728D1*
X15618Y17710D1*
X15620Y17691D1*
X15621Y17673D1*
X15620Y17654D1*
X15618Y17636D1*
X15615Y17617D1*
X15610Y17599D1*
X15604Y17582D1*
X15597Y17564D1*
X15588Y17548D1*
X15578Y17531D1*
X15568Y17516D1*
X15556Y17501D1*
X15543Y17487D1*
X15528Y17475D1*
X15514Y17463D1*
X15498Y17452D1*
X15481Y17442D1*
X15464Y17433D1*
X15446Y17425D1*
X15428Y17419D1*
X15409Y17414D1*
X15390Y17410D1*
X15371Y17408D1*
X15351Y17406D1*
X15332D1*
X15312Y17408D1*
X15293Y17410D1*
X15274Y17414D1*
X15255Y17419D1*
X15237Y17425D1*
X15219Y17433D1*
X15202Y17442D1*
X15185Y17452D1*
X15170Y17463D1*
X15155Y17475D1*
X15141Y17487D1*
X15127Y17501D1*
X15115Y17516D1*
X15105Y17531D1*
X15095Y17548D1*
X15086Y17564D1*
X15079Y17582D1*
X15073Y17599D1*
X15068Y17617D1*
X15065Y17636D1*
X15063Y17654D1*
X15062Y17673D1*
X14165Y19483D2*
X14166Y19501D1*
X14168Y19520D1*
X14171Y19538D1*
X14176Y19556D1*
X14182Y19574D1*
X14190Y19591D1*
X14198Y19608D1*
X14208Y19624D1*
X14219Y19639D1*
X14231Y19654D1*
X14244Y19668D1*
X14258Y19681D1*
X14273Y19693D1*
X14289Y19704D1*
X14305Y19714D1*
X14322Y19722D1*
X14340Y19730D1*
X14359Y19736D1*
X14377Y19741D1*
X14396Y19745D1*
X14416Y19748D1*
X14435Y19749D1*
X14455D1*
X14474Y19748D1*
X14494Y19745D1*
X14513Y19741D1*
X14531Y19736D1*
X14550Y19730D1*
X14568Y19722D1*
X14585Y19714D1*
X14601Y19704D1*
X14617Y19693D1*
X14632Y19681D1*
X14646Y19668D1*
X14659Y19654D1*
X14671Y19639D1*
X14682Y19624D1*
X14692Y19608D1*
X14700Y19591D1*
X14708Y19574D1*
X14714Y19556D1*
X14719Y19538D1*
X14722Y19520D1*
X14724Y19501D1*
X14725Y19483D1*
X14724Y19464D1*
X14722Y19446D1*
X14719Y19427D1*
X14714Y19409D1*
X14708Y19391D1*
X14700Y19374D1*
X14692Y19358D1*
X14682Y19341D1*
X14671Y19326D1*
X14659Y19311D1*
X14646Y19297D1*
X14632Y19285D1*
X14617Y19273D1*
X14601Y19262D1*
X14585Y19252D1*
X14568Y19243D1*
X14550Y19235D1*
X14531Y19229D1*
X14513Y19224D1*
X14494Y19220D1*
X14474Y19218D1*
X14455Y19216D1*
X14435D1*
X14416Y19218D1*
X14396Y19220D1*
X14377Y19224D1*
X14359Y19229D1*
X14340Y19235D1*
X14322Y19243D1*
X14305Y19252D1*
X14289Y19262D1*
X14273Y19273D1*
X14258Y19285D1*
X14244Y19297D1*
X14231Y19311D1*
X14219Y19326D1*
X14208Y19341D1*
X14198Y19358D1*
X14190Y19374D1*
X14182Y19391D1*
X14176Y19409D1*
X14171Y19427D1*
X14168Y19446D1*
X14166Y19464D1*
X14165Y19483D1*
X14163Y18583D2*
Y18602D1*
X14165Y18620D1*
X14169Y18638D1*
X14173Y18656D1*
X14179Y18674D1*
X14187Y18691D1*
X14195Y18708D1*
X14205Y18724D1*
X14216Y18740D1*
X14228Y18754D1*
X14241Y18768D1*
X14255Y18781D1*
X14270Y18793D1*
X14286Y18804D1*
X14302Y18814D1*
X14319Y18823D1*
X14337Y18830D1*
X14355Y18837D1*
X14374Y18842D1*
X14393Y18846D1*
X14413Y18848D1*
X14432Y18849D1*
X14451D1*
X14471Y18848D1*
X14490Y18846D1*
X14509Y18842D1*
X14528Y18837D1*
X14546Y18830D1*
X14564Y18823D1*
X14581Y18814D1*
X14598Y18804D1*
X14614Y18793D1*
X14629Y18781D1*
X14643Y18768D1*
X14656Y18754D1*
X14668Y18740D1*
X14678Y18724D1*
X14688Y18708D1*
X14697Y18691D1*
X14704Y18674D1*
X14710Y18656D1*
X14715Y18638D1*
X14718Y18620D1*
X14720Y18602D1*
X14721Y18583D1*
X14720Y18564D1*
X14718Y18546D1*
X14715Y18528D1*
X14710Y18509D1*
X14704Y18492D1*
X14697Y18475D1*
X14688Y18458D1*
X14678Y18442D1*
X14668Y18426D1*
X14656Y18412D1*
X14643Y18398D1*
X14629Y18385D1*
X14614Y18373D1*
X14598Y18362D1*
X14581Y18352D1*
X14564Y18343D1*
X14546Y18336D1*
X14528Y18329D1*
X14509Y18324D1*
X14490Y18320D1*
X14471Y18318D1*
X14451Y18316D1*
X14432D1*
X14413Y18318D1*
X14393Y18320D1*
X14374Y18324D1*
X14355Y18329D1*
X14337Y18336D1*
X14319Y18343D1*
X14302Y18352D1*
X14286Y18362D1*
X14270Y18373D1*
X14255Y18385D1*
X14241Y18398D1*
X14228Y18412D1*
X14216Y18426D1*
X14205Y18442D1*
X14195Y18458D1*
X14187Y18475D1*
X14179Y18492D1*
X14173Y18509D1*
X14169Y18528D1*
X14165Y18546D1*
X14163Y18564D1*
Y18583D1*
Y18573D2*
Y18592D1*
X14165Y18610D1*
X14169Y18628D1*
X14173Y18646D1*
X14179Y18664D1*
X14187Y18681D1*
X14195Y18698D1*
X14205Y18714D1*
X14216Y18730D1*
X14228Y18744D1*
X14241Y18758D1*
X14255Y18771D1*
X14270Y18783D1*
X14286Y18794D1*
X14302Y18804D1*
X14319Y18813D1*
X14337Y18820D1*
X14355Y18827D1*
X14374Y18832D1*
X14393Y18836D1*
X14413Y18838D1*
X14432Y18839D1*
X14451D1*
X14471Y18838D1*
X14490Y18836D1*
X14509Y18832D1*
X14528Y18827D1*
X14546Y18820D1*
X14564Y18813D1*
X14581Y18804D1*
X14598Y18794D1*
X14614Y18783D1*
X14629Y18771D1*
X14643Y18758D1*
X14656Y18744D1*
X14668Y18730D1*
X14678Y18714D1*
X14688Y18698D1*
X14697Y18681D1*
X14704Y18664D1*
X14710Y18646D1*
X14715Y18628D1*
X14718Y18610D1*
X14720Y18592D1*
X14721Y18573D1*
X14720Y18554D1*
X14718Y18536D1*
X14715Y18518D1*
X14710Y18499D1*
X14704Y18482D1*
X14697Y18465D1*
X14688Y18448D1*
X14678Y18432D1*
X14668Y18416D1*
X14656Y18402D1*
X14643Y18388D1*
X14629Y18375D1*
X14614Y18363D1*
X14598Y18352D1*
X14581Y18342D1*
X14564Y18333D1*
X14546Y18326D1*
X14528Y18319D1*
X14509Y18314D1*
X14490Y18310D1*
X14471Y18308D1*
X14451Y18307D1*
X14432D1*
X14413Y18308D1*
X14393Y18310D1*
X14374Y18314D1*
X14355Y18319D1*
X14337Y18326D1*
X14319Y18333D1*
X14302Y18342D1*
X14286Y18352D1*
X14270Y18363D1*
X14255Y18375D1*
X14241Y18388D1*
X14228Y18402D1*
X14216Y18416D1*
X14205Y18432D1*
X14195Y18448D1*
X14187Y18465D1*
X14179Y18482D1*
X14173Y18499D1*
X14169Y18518D1*
X14165Y18536D1*
X14163Y18554D1*
Y18573D1*
X14169Y17676D2*
X14170Y17695D1*
X14172Y17713D1*
X14175Y17732D1*
X14180Y17750D1*
X14186Y17767D1*
X14193Y17785D1*
X14202Y17801D1*
X14212Y17817D1*
X14222Y17833D1*
X14234Y17848D1*
X14247Y17861D1*
X14261Y17874D1*
X14276Y17886D1*
X14292Y17897D1*
X14309Y17907D1*
X14326Y17916D1*
X14344Y17923D1*
X14362Y17930D1*
X14381Y17935D1*
X14400Y17939D1*
X14419Y17941D1*
X14439Y17943D1*
X14458D1*
X14477Y17941D1*
X14497Y17939D1*
X14516Y17935D1*
X14535Y17930D1*
X14553Y17923D1*
X14571Y17916D1*
X14588Y17907D1*
X14604Y17897D1*
X14620Y17886D1*
X14635Y17874D1*
X14649Y17861D1*
X14662Y17848D1*
X14674Y17833D1*
X14685Y17817D1*
X14695Y17801D1*
X14703Y17785D1*
X14711Y17767D1*
X14717Y17750D1*
X14721Y17732D1*
X14725Y17713D1*
X14727Y17695D1*
Y17676D1*
Y17658D1*
X14725Y17639D1*
X14721Y17621D1*
X14717Y17603D1*
X14711Y17585D1*
X14703Y17568D1*
X14695Y17551D1*
X14685Y17535D1*
X14674Y17520D1*
X14662Y17505D1*
X14649Y17491D1*
X14635Y17478D1*
X14620Y17466D1*
X14604Y17455D1*
X14588Y17446D1*
X14571Y17437D1*
X14553Y17429D1*
X14535Y17423D1*
X14516Y17418D1*
X14497Y17414D1*
X14477Y17411D1*
X14458Y17410D1*
X14439D1*
X14419Y17411D1*
X14400Y17414D1*
X14381Y17418D1*
X14362Y17423D1*
X14344Y17429D1*
X14326Y17437D1*
X14309Y17446D1*
X14292Y17455D1*
X14276Y17466D1*
X14261Y17478D1*
X14247Y17491D1*
X14234Y17505D1*
X14222Y17520D1*
X14212Y17535D1*
X14202Y17551D1*
X14193Y17568D1*
X14186Y17585D1*
X14180Y17603D1*
X14175Y17621D1*
X14172Y17639D1*
X14170Y17658D1*
X14169Y17676D1*
X13262Y18580D2*
X13263Y18598D1*
X13265Y18617D1*
X13269Y18635D1*
X13273Y18653D1*
X13279Y18671D1*
X13287Y18688D1*
X13295Y18705D1*
X13305Y18721D1*
X13316Y18736D1*
X13328Y18751D1*
X13341Y18765D1*
X13355Y18778D1*
X13370Y18790D1*
X13386Y18801D1*
X13402Y18811D1*
X13419Y18819D1*
X13437Y18827D1*
X13455Y18833D1*
X13474Y18838D1*
X13493Y18842D1*
X13512Y18845D1*
X13532Y18846D1*
X13551D1*
X13571Y18845D1*
X13590Y18842D1*
X13609Y18838D1*
X13628Y18833D1*
X13646Y18827D1*
X13664Y18819D1*
X13681Y18811D1*
X13698Y18801D1*
X13714Y18790D1*
X13728Y18778D1*
X13742Y18765D1*
X13756Y18751D1*
X13768Y18736D1*
X13778Y18721D1*
X13788Y18705D1*
X13797Y18688D1*
X13804Y18671D1*
X13810Y18653D1*
X13815Y18635D1*
X13818Y18617D1*
X13820Y18598D1*
X13821Y18580D1*
X13820Y18561D1*
X13818Y18543D1*
X13815Y18524D1*
X13810Y18506D1*
X13804Y18488D1*
X13797Y18471D1*
X13788Y18454D1*
X13778Y18438D1*
X13768Y18423D1*
X13756Y18408D1*
X13742Y18394D1*
X13728Y18381D1*
X13714Y18370D1*
X13698Y18359D1*
X13681Y18349D1*
X13664Y18340D1*
X13646Y18332D1*
X13628Y18326D1*
X13609Y18321D1*
X13590Y18317D1*
X13571Y18314D1*
X13551Y18313D1*
X13532D1*
X13512Y18314D1*
X13493Y18317D1*
X13474Y18321D1*
X13455Y18326D1*
X13437Y18332D1*
X13419Y18340D1*
X13402Y18349D1*
X13386Y18359D1*
X13370Y18370D1*
X13355Y18381D1*
X13341Y18394D1*
X13328Y18408D1*
X13316Y18423D1*
X13305Y18438D1*
X13295Y18454D1*
X13287Y18471D1*
X13279Y18488D1*
X13273Y18506D1*
X13269Y18524D1*
X13265Y18543D1*
X13263Y18561D1*
X13262Y18580D1*
Y19476D2*
X13263Y19495D1*
X13265Y19513D1*
X13269Y19531D1*
X13273Y19550D1*
X13279Y19567D1*
X13287Y19584D1*
X13295Y19601D1*
X13305Y19617D1*
X13316Y19633D1*
X13328Y19647D1*
X13341Y19661D1*
X13355Y19674D1*
X13370Y19686D1*
X13386Y19697D1*
X13402Y19707D1*
X13419Y19716D1*
X13437Y19723D1*
X13455Y19730D1*
X13474Y19735D1*
X13493Y19739D1*
X13512Y19741D1*
X13532Y19743D1*
X13551D1*
X13571Y19741D1*
X13590Y19739D1*
X13609Y19735D1*
X13628Y19730D1*
X13646Y19723D1*
X13664Y19716D1*
X13681Y19707D1*
X13698Y19697D1*
X13714Y19686D1*
X13728Y19674D1*
X13742Y19661D1*
X13756Y19647D1*
X13768Y19633D1*
X13778Y19617D1*
X13788Y19601D1*
X13797Y19584D1*
X13804Y19567D1*
X13810Y19550D1*
X13815Y19531D1*
X13818Y19513D1*
X13820Y19495D1*
X13821Y19476D1*
X13820Y19457D1*
X13818Y19439D1*
X13815Y19421D1*
X13810Y19403D1*
X13804Y19385D1*
X13797Y19368D1*
X13788Y19351D1*
X13778Y19335D1*
X13768Y19319D1*
X13756Y19305D1*
X13742Y19291D1*
X13728Y19278D1*
X13714Y19266D1*
X13698Y19255D1*
X13681Y19245D1*
X13664Y19236D1*
X13646Y19229D1*
X13628Y19222D1*
X13609Y19217D1*
X13590Y19213D1*
X13571Y19211D1*
X13551Y19210D1*
X13532D1*
X13512Y19211D1*
X13493Y19213D1*
X13474Y19217D1*
X13455Y19222D1*
X13437Y19229D1*
X13419Y19236D1*
X13402Y19245D1*
X13386Y19255D1*
X13370Y19266D1*
X13355Y19278D1*
X13341Y19291D1*
X13328Y19305D1*
X13316Y19319D1*
X13305Y19335D1*
X13295Y19351D1*
X13287Y19368D1*
X13279Y19385D1*
X13273Y19403D1*
X13269Y19421D1*
X13265Y19439D1*
X13263Y19457D1*
X13262Y19476D1*
Y17673D2*
X13263Y17691D1*
X13265Y17710D1*
X13269Y17728D1*
X13273Y17746D1*
X13279Y17764D1*
X13287Y17781D1*
X13295Y17798D1*
X13305Y17814D1*
X13316Y17829D1*
X13328Y17844D1*
X13341Y17858D1*
X13355Y17871D1*
X13370Y17883D1*
X13386Y17894D1*
X13402Y17904D1*
X13419Y17912D1*
X13437Y17920D1*
X13455Y17926D1*
X13474Y17931D1*
X13493Y17935D1*
X13512Y17938D1*
X13532Y17939D1*
X13551D1*
X13571Y17938D1*
X13590Y17935D1*
X13609Y17931D1*
X13628Y17926D1*
X13646Y17920D1*
X13664Y17912D1*
X13681Y17904D1*
X13698Y17894D1*
X13714Y17883D1*
X13728Y17871D1*
X13742Y17858D1*
X13756Y17844D1*
X13768Y17829D1*
X13778Y17814D1*
X13788Y17798D1*
X13797Y17781D1*
X13804Y17764D1*
X13810Y17746D1*
X13815Y17728D1*
X13818Y17710D1*
X13820Y17691D1*
X13821Y17673D1*
X13820Y17654D1*
X13818Y17636D1*
X13815Y17617D1*
X13810Y17599D1*
X13804Y17582D1*
X13797Y17564D1*
X13788Y17548D1*
X13778Y17531D1*
X13768Y17516D1*
X13756Y17501D1*
X13742Y17487D1*
X13728Y17475D1*
X13714Y17463D1*
X13698Y17452D1*
X13681Y17442D1*
X13664Y17433D1*
X13646Y17425D1*
X13628Y17419D1*
X13609Y17414D1*
X13590Y17410D1*
X13571Y17408D1*
X13551Y17406D1*
X13532D1*
X13512Y17408D1*
X13493Y17410D1*
X13474Y17414D1*
X13455Y17419D1*
X13437Y17425D1*
X13419Y17433D1*
X13402Y17442D1*
X13386Y17452D1*
X13370Y17463D1*
X13355Y17475D1*
X13341Y17487D1*
X13328Y17501D1*
X13316Y17516D1*
X13305Y17531D1*
X13295Y17548D1*
X13287Y17564D1*
X13279Y17582D1*
X13273Y17599D1*
X13269Y17617D1*
X13265Y17636D1*
X13263Y17654D1*
X13262Y17673D1*
X15712Y19832D2*
D10*
X13185D1*
Y17342D1*
X15712D1*
Y19832D1*
G36*
X15651Y19239D2*
X13269D1*
Y18759D1*
X15651D1*
Y19239D1*
G37*
G36*
X14245Y19796D2*
X13779D1*
Y17319D1*
X14245D1*
Y19796D1*
G37*
G36*
X15105Y19779D2*
X14638D1*
Y17419D1*
X15105D1*
Y19779D1*
G37*
G36*
X15745Y18349D2*
X13275D1*
Y17876D1*
X15745D1*
Y18349D1*
G37*
X15049Y19449D2*
D34*
X15050Y19468D1*
X15052Y19487D1*
X15055Y19505D1*
X15060Y19523D1*
X15066Y19541D1*
X15073Y19558D1*
X15082Y19575D1*
X15091Y19591D1*
X15102Y19606D1*
X15114Y19621D1*
X15127Y19635D1*
X15141Y19648D1*
X15156Y19660D1*
X15172Y19670D1*
X15189Y19680D1*
X15206Y19689D1*
X15224Y19697D1*
X15242Y19703D1*
X15261Y19708D1*
X15280Y19712D1*
X15299Y19715D1*
X15319Y19716D1*
X15338D1*
X15358Y19715D1*
X15377Y19712D1*
X15396Y19708D1*
X15415Y19703D1*
X15433Y19697D1*
X15451Y19689D1*
X15468Y19680D1*
X15485Y19670D1*
X15500Y19660D1*
X15515Y19648D1*
X15529Y19635D1*
X15542Y19621D1*
X15554Y19606D1*
X15565Y19591D1*
X15575Y19575D1*
X15584Y19558D1*
X15591Y19541D1*
X15597Y19523D1*
X15602Y19505D1*
X15605Y19487D1*
X15607Y19468D1*
X15608Y19449D1*
X15607Y19431D1*
X15605Y19412D1*
X15602Y19394D1*
X15597Y19376D1*
X15591Y19358D1*
X15584Y19341D1*
X15575Y19324D1*
X15565Y19308D1*
X15554Y19293D1*
X15542Y19278D1*
X15529Y19264D1*
X15515Y19251D1*
X15500Y19239D1*
X15485Y19228D1*
X15468Y19219D1*
X15451Y19210D1*
X15433Y19202D1*
X15415Y19196D1*
X15396Y19191D1*
X15377Y19187D1*
X15358Y19184D1*
X15338Y19183D1*
X15319D1*
X15299Y19184D1*
X15280Y19187D1*
X15261Y19191D1*
X15242Y19196D1*
X15224Y19202D1*
X15206Y19210D1*
X15189Y19219D1*
X15172Y19228D1*
X15156Y19239D1*
X15141Y19251D1*
X15127Y19264D1*
X15114Y19278D1*
X15102Y19293D1*
X15091Y19308D1*
X15082Y19324D1*
X15073Y19341D1*
X15066Y19358D1*
X15060Y19376D1*
X15055Y19394D1*
X15052Y19412D1*
X15050Y19431D1*
X15049Y19449D1*
D50*
X15420Y20523D3*
X14770D3*
X14120D3*
X13470D3*
D49*
X12495Y19548D3*
Y18898D3*
Y18248D3*
Y17598D3*
D50*
X13470Y16623D3*
X14120D3*
X14770D3*
X15420D3*
D49*
X16395Y17598D3*
Y18248D3*
Y18898D3*
Y19548D3*
G36*
X11079Y26032D2*
X10889Y26061D1*
X10741Y26121D1*
X10647Y26197D1*
X10571Y26273D1*
X10508Y26386D1*
X10482Y26451D1*
X10462Y26546D1*
X10452Y26597D1*
X10447Y26680D1*
X10470Y26745D1*
X10508Y26783D1*
X10533Y26808D1*
X10546Y26872D1*
X10541Y26897D1*
X10526Y26948D1*
X10495Y26976D1*
X10577Y27075D1*
X10653Y27024D1*
X10671D1*
X10707Y27113D1*
X10762Y27126D1*
X10863Y27136D1*
X10757Y26883D1*
Y26851D1*
X10764Y26808D1*
X10787Y26798D1*
X10838Y26818D1*
X10901Y26934D1*
X10972Y27105D1*
X11023Y27080D1*
X11077Y27016D1*
X11003Y26826D1*
X11041Y26832D1*
X11079D1*
Y26032D1*
G37*
M02*
