M48
METRIC,0000.00
T01C0.33
T02C1.1
%
T01
X+001708Y+001602
X+001630Y+001561
X+001728Y+001691
X+001885Y+001672
X+001953Y+001794
X+001953Y+001921
X+002080Y+001921
X+002207Y+001921
X+002207Y+001794
X+002080Y+001794
X+002080Y+001706
X+002207Y+001476
X+002233Y+001362
X+002334Y+001349
X+002302Y+001236
X+002334Y+001476
X+002334Y+001635
X+002334Y+001794
X+002334Y+001921
X+002334Y+002048
X+002334Y+002175
X+002207Y+002175
X+002080Y+002175
X+001953Y+002175
X+001826Y+002175
X+001699Y+002175
X+001747Y+001914
X+001535Y+001947
X+001535Y+001857
X+001535Y+001767
X+001445Y+001767
X+001445Y+001857
X+001445Y+001947
X+001355Y+001947
X+001355Y+001857
X+001355Y+001767
X+001254Y+001667
X+001328Y+001597
X+001254Y+001525
X+001102Y+001526
X+001396Y+001462
X+001222Y+001221
X+001175Y+001870
X+001257Y+002070
X+001254Y+002175
X+001103Y+002175
X+002080Y+002048
X+002207Y+002048
X+001909Y+001374
T02
X+001127Y+001381
X+001000Y+001381
X+001381Y+001127
X+001381Y+001000
X+001635Y+001000
X+001635Y+001127
X+001889Y+001127
X+001889Y+001000
X+002143Y+001000
X+002143Y+001127
T00
M30
