G04 DipTrace 2.4.0.2*
%INlightning.gto*%
%MOMM*%
%ADD10C,0.25*%
%ADD15C,0.152*%
%ADD28O,0.377X0.312*%
%ADD30O,0.312X0.377*%
%ADD32O,0.4X0.399*%
%ADD40O,0.723X0.863*%
%ADD63C,0.118*%
%ADD64C,0.111*%
%FSLAX53Y53*%
G04*
G71*
G90*
G75*
G01*
%LNTopSilk*%
%LPD*%
X17214Y15096D2*
D15*
G02X18564Y15096I675J-80D01*
G01*
Y13393D2*
G02X17214Y13393I-675J80D01*
G01*
X18564Y13356D2*
Y15134D1*
X17214Y13356D2*
Y15134D1*
X14404Y15096D2*
G02X15754Y15096I675J-80D01*
G01*
Y13393D2*
G02X14404Y13393I-675J80D01*
G01*
X15754Y13356D2*
Y15134D1*
X14404Y13356D2*
Y15134D1*
X21822Y16716D2*
G02X21822Y15366I-80J-675D01*
G01*
X19747D2*
G02X19747Y16716I80J675D01*
G01*
X19785Y15366D2*
X21784D1*
X19785Y16716D2*
X21784D1*
X12128Y28953D2*
D10*
X23128D1*
Y25353D1*
X12128D1*
Y28953D1*
X20055Y13762D2*
Y14762D1*
X21455Y13762D2*
Y14762D1*
D28*
X20133Y13291D3*
X20803Y17595D2*
D10*
X19803D1*
X20803Y18996D2*
X19803D1*
D30*
X21274Y17674D3*
X12953Y20581D2*
D10*
X12453D1*
Y20081D1*
X16453Y16580D2*
Y17080D1*
Y16580D2*
X15953D1*
X12453Y17080D2*
Y16580D1*
X12953D1*
X15953Y20680D2*
X16553Y20081D1*
D32*
X15404Y21575D3*
G36*
X11086Y26044D2*
X11703Y26677D1*
X11219Y27024D1*
X11093Y26867D1*
X11086Y26044D1*
G37*
D40*
X11368Y26739D3*
X11083Y26160D2*
D10*
G03X11599Y26664I-68J586D01*
G01*
X11069Y26184D2*
G02X11129Y26804I970J219D01*
G01*
X18033Y15883D2*
D63*
X17858Y16649D1*
X17683Y15883D1*
X17748Y16138D2*
X17967D1*
X18306Y16648D2*
X18240Y16612D1*
X18196Y16502D1*
X18174Y16320D1*
Y16211D1*
X18196Y16029D1*
X18240Y15919D1*
X18306Y15883D1*
X18349D1*
X18415Y15919D1*
X18458Y16029D1*
X18480Y16211D1*
Y16320D1*
X18458Y16502D1*
X18415Y16612D1*
X18349Y16648D1*
X18306D1*
X18458Y16502D2*
X18196Y16029D1*
X13945Y15123D2*
X13770Y15889D1*
X13595Y15123D1*
X13661Y15378D2*
X13880D1*
X14087Y15742D2*
X14131Y15779D1*
X14196Y15888D1*
Y15123D1*
X18569Y21354D2*
X18548Y21426D1*
X18504Y21499D1*
X18460Y21536D1*
X18373D1*
X18329Y21499D1*
X18285Y21426D1*
X18263Y21354D1*
X18241Y21244D1*
Y21061D1*
X18263Y20953D1*
X18285Y20879D1*
X18329Y20807D1*
X18373Y20770D1*
X18460D1*
X18504Y20807D1*
X18548Y20879D1*
X18569Y20953D1*
X18711Y21389D2*
X18755Y21426D1*
X18820Y21535D1*
Y20770D1*
X12195Y16105D2*
X12173Y16178D1*
X12129Y16251D1*
X12086Y16287D1*
X11998D1*
X11954Y16251D1*
X11911Y16178D1*
X11888Y16105D1*
X11867Y15996D1*
Y15813D1*
X11888Y15704D1*
X11911Y15631D1*
X11954Y15558D1*
X11998Y15521D1*
X12086D1*
X12129Y15558D1*
X12173Y15631D1*
X12195Y15704D1*
X12358Y16104D2*
Y16141D1*
X12380Y16214D1*
X12402Y16250D1*
X12446Y16286D1*
X12533D1*
X12576Y16250D1*
X12598Y16214D1*
X12620Y16141D1*
Y16068D1*
X12598Y15995D1*
X12555Y15886D1*
X12336Y15521D1*
X12642D1*
X11739Y22360D2*
X11717Y22432D1*
X11673Y22505D1*
X11630Y22542D1*
X11542D1*
X11498Y22505D1*
X11455Y22432D1*
X11433Y22360D1*
X11411Y22250D1*
Y22067D1*
X11433Y21959D1*
X11455Y21885D1*
X11498Y21813D1*
X11542Y21776D1*
X11630D1*
X11673Y21813D1*
X11717Y21885D1*
X11739Y21959D1*
X11924Y22541D2*
X12164D1*
X12033Y22249D1*
X12099D1*
X12142Y22213D1*
X12164Y22177D1*
X12186Y22067D1*
Y21995D1*
X12164Y21885D1*
X12121Y21812D1*
X12055Y21776D1*
X11989D1*
X11924Y21812D1*
X11902Y21849D1*
X11880Y21922D1*
X16073Y22344D2*
X16051Y22416D1*
X16007Y22489D1*
X15963Y22525D1*
X15876D1*
X15832Y22489D1*
X15789Y22416D1*
X15766Y22344D1*
X15745Y22234D1*
Y22051D1*
X15766Y21943D1*
X15789Y21869D1*
X15832Y21797D1*
X15876Y21760D1*
X15963D1*
X16007Y21797D1*
X16051Y21869D1*
X16073Y21943D1*
X16433Y21760D2*
Y22525D1*
X16214Y22015D1*
X16542D1*
X16017Y23448D2*
X15995Y23520D1*
X15952Y23594D1*
X15908Y23630D1*
X15821D1*
X15777Y23594D1*
X15733Y23520D1*
X15711Y23448D1*
X15689Y23338D1*
Y23156D1*
X15711Y23047D1*
X15733Y22974D1*
X15777Y22901D1*
X15821Y22864D1*
X15908D1*
X15952Y22901D1*
X15995Y22974D1*
X16017Y23047D1*
X16421Y23629D2*
X16202D1*
X16181Y23301D1*
X16202Y23337D1*
X16268Y23375D1*
X16333D1*
X16399Y23337D1*
X16443Y23265D1*
X16465Y23156D1*
Y23083D1*
X16443Y22974D1*
X16399Y22900D1*
X16333Y22864D1*
X16268D1*
X16202Y22900D1*
X16181Y22937D1*
X16158Y23010D1*
X21294Y17660D2*
X21316Y17624D1*
X21338Y17660D1*
X21316Y17697D1*
X21294Y17660D1*
X21316Y17405D2*
Y16895D1*
X21501Y17478D2*
Y17514D1*
X21523Y17587D1*
X21545Y17623D1*
X21589Y17660D1*
X21676D1*
X21720Y17623D1*
X21741Y17587D1*
X21764Y17514D1*
Y17441D1*
X21741Y17368D1*
X21698Y17259D1*
X21479Y16895D1*
X21785D1*
X22189Y17296D2*
X22145Y17369D1*
X22101Y17405D1*
X22036D1*
X21992Y17369D1*
X21949Y17296D1*
X21926Y17186D1*
Y17114D1*
X21949Y17004D1*
X21992Y16932D1*
X22036Y16895D1*
X22101D1*
X22145Y16932D1*
X22189Y17004D1*
X22330Y17296D2*
X22527D1*
X22593Y17333D1*
X22615Y17369D1*
X22637Y17441D1*
Y17515D1*
X22615Y17587D1*
X22593Y17624D1*
X22527Y17660D1*
X22330D1*
Y16895D1*
X22484Y17296D2*
X22637Y16895D1*
X17437Y24950D2*
Y24185D1*
X17699D1*
X17840Y24804D2*
X17884Y24841D1*
X17950Y24949D1*
Y24185D1*
X19184Y14591D2*
X19381D1*
X19446Y14628D1*
X19469Y14664D1*
X19490Y14737D1*
Y14810D1*
X19469Y14882D1*
X19446Y14919D1*
X19381Y14956D1*
X19184D1*
Y14190D1*
X19337Y14591D2*
X19490Y14190D1*
X19631Y14809D2*
X19675Y14846D1*
X19741Y14955D1*
Y14190D1*
X20403Y19655D2*
X20600D1*
X20665Y19692D1*
X20688Y19729D1*
X20709Y19801D1*
Y19874D1*
X20688Y19947D1*
X20665Y19984D1*
X20600Y20020D1*
X20403D1*
Y19254D1*
X20556Y19655D2*
X20709Y19254D1*
X20873Y19837D2*
Y19873D1*
X20894Y19947D1*
X20916Y19983D1*
X20960Y20019D1*
X21048D1*
X21091Y19983D1*
X21113Y19947D1*
X21135Y19873D1*
Y19801D1*
X21113Y19728D1*
X21069Y19619D1*
X20850Y19254D1*
X21157D1*
X15733Y24402D2*
X15930D1*
X15996Y24440D1*
X16018Y24476D1*
X16039Y24548D1*
Y24621D1*
X16018Y24694D1*
X15996Y24731D1*
X15930Y24767D1*
X15733D1*
Y24002D1*
X15886Y24402D2*
X16039Y24002D1*
X16225Y24766D2*
X16465D1*
X16334Y24475D1*
X16399D1*
X16443Y24439D1*
X16465Y24402D1*
X16487Y24293D1*
Y24221D1*
X16465Y24111D1*
X16421Y24038D1*
X16356Y24002D1*
X16290D1*
X16225Y24038D1*
X16203Y24075D1*
X16181Y24147D1*
X16409Y21276D2*
Y20729D1*
X16431Y20620D1*
X16475Y20547D1*
X16541Y20510D1*
X16584D1*
X16650Y20547D1*
X16694Y20620D1*
X16716Y20729D1*
Y21276D1*
X16857Y21129D2*
X16901Y21166D1*
X16966Y21275D1*
Y20510D1*
X19031Y13165D2*
D64*
X18983Y13263D1*
X18910Y13311D1*
X18813D1*
X18740Y13263D1*
X18691Y13165D1*
Y13069D1*
X18716Y12971D1*
X18740Y12923D1*
X18788Y12874D1*
X18934Y12777D1*
X18983Y12728D1*
X19007Y12679D1*
X19031Y12582D1*
Y12436D1*
X18983Y12340D1*
X18910Y12290D1*
X18813D1*
X18740Y12340D1*
X18691Y12436D1*
X19507Y13069D2*
X19483Y13165D1*
X19434Y13263D1*
X19386Y13311D1*
X19289D1*
X19240Y13263D1*
X19191Y13165D1*
X19167Y13069D1*
X19143Y12923D1*
Y12679D1*
X19167Y12534D1*
X19191Y12436D1*
X19240Y12340D1*
X19289Y12290D1*
X19386D1*
X19434Y12340D1*
X19483Y12436D1*
X19507Y12534D1*
X19618Y13311D2*
Y12290D1*
X19910D1*
X16190Y13081D2*
X16166Y13177D1*
X16117Y13275D1*
X16069Y13323D1*
X15972D1*
X15923Y13275D1*
X15875Y13177D1*
X15850Y13081D1*
X15826Y12935D1*
Y12691D1*
X15850Y12546D1*
X15875Y12449D1*
X15923Y12352D1*
X15972Y12303D1*
X16069D1*
X16117Y12352D1*
X16166Y12449D1*
X16190Y12546D1*
Y12691D1*
X16069D1*
X16642Y13323D2*
Y12303D1*
X16301Y13323D1*
Y12303D1*
X16753Y13323D2*
Y12303D1*
X16923D1*
X16996Y12352D1*
X17045Y12449D1*
X17069Y12546D1*
X17093Y12691D1*
Y12935D1*
X17069Y13081D1*
X17045Y13177D1*
X16996Y13275D1*
X16923Y13323D1*
X16753D1*
X19267Y24967D2*
X18951D1*
Y23946D1*
Y24481D2*
X19146D1*
X19403Y24627D2*
X19549Y23946D1*
X19500Y23752D1*
X19452Y23654D1*
X19403Y23606D1*
X19379D1*
X19695Y24627D2*
X19549Y23946D1*
X19806Y24967D2*
Y23946D1*
Y24481D2*
X19855Y24579D1*
X19903Y24627D1*
X19976D1*
X20024Y24579D1*
X20073Y24481D1*
X20097Y24335D1*
Y24238D1*
X20073Y24092D1*
X20024Y23996D1*
X19976Y23946D1*
X19903D1*
X19855Y23996D1*
X19806Y24092D1*
X20208Y24335D2*
X20500D1*
Y24433D1*
X20476Y24530D1*
X20452Y24579D1*
X20403Y24627D1*
X20330D1*
X20281Y24579D1*
X20233Y24481D1*
X20208Y24335D1*
Y24238D1*
X20233Y24092D1*
X20281Y23996D1*
X20330Y23946D1*
X20403D1*
X20452Y23996D1*
X20500Y24092D1*
X20611Y24627D2*
Y23946D1*
Y24335D2*
X20636Y24481D1*
X20684Y24579D1*
X20733Y24627D1*
X20806D1*
X21365Y24967D2*
Y23946D1*
X21656D1*
X22059Y24627D2*
Y23946D1*
Y24481D2*
X22011Y24579D1*
X21962Y24627D1*
X21889D1*
X21840Y24579D1*
X21792Y24481D1*
X21767Y24335D1*
Y24238D1*
X21792Y24092D1*
X21840Y23996D1*
X21889Y23946D1*
X21962D1*
X22011Y23996D1*
X22059Y24092D1*
X22170Y24967D2*
Y23946D1*
Y24481D2*
X22219Y24579D1*
X22267Y24627D1*
X22340D1*
X22388Y24579D1*
X22437Y24481D1*
X22461Y24335D1*
Y24238D1*
X22437Y24092D1*
X22388Y23996D1*
X22340Y23946D1*
X22267D1*
X22219Y23996D1*
X22170Y24092D1*
X22840Y24481D2*
X22816Y24579D1*
X22743Y24627D1*
X22670D1*
X22597Y24579D1*
X22573Y24481D1*
X22597Y24384D1*
X22646Y24335D1*
X22767Y24287D1*
X22816Y24238D1*
X22840Y24141D1*
Y24092D1*
X22816Y23996D1*
X22743Y23946D1*
X22670D1*
X22597Y23996D1*
X22573Y24092D1*
X23399Y24967D2*
Y23946D1*
X23510Y24627D2*
Y23946D1*
Y24433D2*
X23583Y24579D1*
X23632Y24627D1*
X23704D1*
X23753Y24579D1*
X23777Y24433D1*
Y23946D1*
X24181Y24481D2*
X24132Y24579D1*
X24083Y24627D1*
X24010D1*
X23962Y24579D1*
X23913Y24481D1*
X23889Y24335D1*
Y24238D1*
X23913Y24092D1*
X23962Y23996D1*
X24010Y23946D1*
X24083D1*
X24132Y23996D1*
X24181Y24092D1*
X24316Y24044D2*
X24292Y23995D1*
X24316Y23946D1*
X24341Y23995D1*
X24316Y24044D1*
X10696Y24582D2*
Y24630D1*
X10721Y24728D1*
X10745Y24776D1*
X10794Y24824D1*
X10891D1*
X10939Y24776D1*
X10963Y24728D1*
X10988Y24630D1*
Y24533D1*
X10963Y24436D1*
X10915Y24291D1*
X10672Y23804D1*
X11012D1*
X11269Y24824D2*
X11196Y24776D1*
X11147Y24630D1*
X11123Y24387D1*
Y24241D1*
X11147Y23999D1*
X11196Y23853D1*
X11269Y23804D1*
X11317D1*
X11390Y23853D1*
X11439Y23999D1*
X11463Y24241D1*
Y24387D1*
X11439Y24630D1*
X11390Y24776D1*
X11317Y24824D1*
X11269D1*
X11439Y24630D2*
X11147Y23999D1*
X11575Y24630D2*
X11623Y24679D1*
X11696Y24824D1*
Y23804D1*
X12099Y24824D2*
X11856D1*
X11832Y24387D1*
X11856Y24436D1*
X11929Y24485D1*
X12002D1*
X12075Y24436D1*
X12124Y24339D1*
X12148Y24193D1*
Y24096D1*
X12124Y23950D1*
X12075Y23853D1*
X12002Y23804D1*
X11929D1*
X11856Y23853D1*
X11832Y23902D1*
X11808Y23999D1*
X13014Y13334D2*
X13209Y12313D1*
X13403Y13334D1*
X13514D2*
Y12313D1*
X13684D1*
X13757Y12363D1*
X13806Y12459D1*
X13830Y12557D1*
X13854Y12702D1*
Y12946D1*
X13830Y13092D1*
X13806Y13188D1*
X13757Y13286D1*
X13684Y13334D1*
X13514D1*
X13965D2*
Y12313D1*
X14136D1*
X14209Y12363D1*
X14257Y12459D1*
X14282Y12557D1*
X14306Y12702D1*
Y12946D1*
X14282Y13092D1*
X14257Y13188D1*
X14209Y13286D1*
X14136Y13334D1*
X13965D1*
X23522Y26648D2*
X23740D1*
X23813Y26698D1*
X23838Y26746D1*
X23862Y26843D1*
Y26940D1*
X23838Y27037D1*
X23813Y27086D1*
X23740Y27135D1*
X23522D1*
Y26114D1*
X23692Y26648D2*
X23862Y26114D1*
X24119Y27134D2*
X24046Y27085D1*
X23997Y26939D1*
X23973Y26697D1*
Y26551D1*
X23997Y26308D1*
X24046Y26162D1*
X24119Y26114D1*
X24167D1*
X24240Y26162D1*
X24289Y26308D1*
X24313Y26551D1*
Y26697D1*
X24289Y26939D1*
X24240Y27085D1*
X24167Y27134D1*
X24119D1*
X24289Y26939D2*
X23997Y26308D1*
X24449Y26211D2*
X24425Y26162D1*
X24449Y26114D1*
X24473Y26162D1*
X24449Y26211D1*
X24828Y26114D2*
Y27134D1*
X24585Y26454D1*
X24949D1*
X17133Y23575D2*
Y22554D1*
X17424D1*
X17535Y23575D2*
X17559Y23526D1*
X17584Y23575D1*
X17559Y23624D1*
X17535Y23575D1*
X17559Y23234D2*
Y22554D1*
X17987Y23186D2*
Y22408D1*
X17962Y22263D1*
X17938Y22213D1*
X17889Y22165D1*
X17816D1*
X17768Y22213D1*
X17987Y23040D2*
X17938Y23137D1*
X17889Y23186D1*
X17816D1*
X17768Y23137D1*
X17719Y23040D1*
X17695Y22894D1*
Y22796D1*
X17719Y22651D1*
X17768Y22554D1*
X17816Y22505D1*
X17889D1*
X17938Y22554D1*
X17987Y22651D1*
X18098Y23575D2*
Y22554D1*
Y23040D2*
X18171Y23186D1*
X18220Y23234D1*
X18293D1*
X18341Y23186D1*
X18365Y23040D1*
Y22554D1*
X18549Y23575D2*
Y22748D1*
X18573Y22603D1*
X18622Y22554D1*
X18670D1*
X18476Y23234D2*
X18646D1*
X18782D2*
Y22554D1*
Y23040D2*
X18855Y23186D1*
X18903Y23234D1*
X18976D1*
X19025Y23186D1*
X19049Y23040D1*
Y22554D1*
X19160Y23575D2*
X19184Y23526D1*
X19209Y23575D1*
X19184Y23624D1*
X19160Y23575D1*
X19184Y23234D2*
Y22554D1*
X19320Y23234D2*
Y22554D1*
Y23040D2*
X19393Y23186D1*
X19442Y23234D1*
X19514D1*
X19563Y23186D1*
X19587Y23040D1*
Y22554D1*
X19990Y23186D2*
Y22408D1*
X19966Y22263D1*
X19941Y22213D1*
X19893Y22165D1*
X19820D1*
X19771Y22213D1*
X19990Y23040D2*
X19941Y23137D1*
X19893Y23186D1*
X19820D1*
X19771Y23137D1*
X19722Y23040D1*
X19698Y22894D1*
Y22796D1*
X19722Y22651D1*
X19771Y22554D1*
X19820Y22505D1*
X19893D1*
X19941Y22554D1*
X19990Y22651D1*
X20865Y23575D2*
X20549D1*
Y22554D1*
Y23088D2*
X20743D1*
X20976Y23575D2*
Y22554D1*
X21087Y22942D2*
X21379D1*
Y23040D1*
X21355Y23138D1*
X21330Y23186D1*
X21282Y23234D1*
X21209D1*
X21160Y23186D1*
X21111Y23088D1*
X21087Y22942D1*
Y22846D1*
X21111Y22700D1*
X21160Y22603D1*
X21209Y22554D1*
X21282D1*
X21330Y22603D1*
X21379Y22700D1*
X21490Y23234D2*
X21757Y22554D1*
Y23234D2*
X21490Y22554D1*
X22705D2*
Y23575D1*
X22511Y22554D1*
X22316Y23575D1*
Y22554D1*
X22937Y23234D2*
X22889Y23186D1*
X22840Y23088D1*
X22816Y22942D1*
Y22846D1*
X22840Y22700D1*
X22889Y22603D1*
X22937Y22554D1*
X23010D1*
X23059Y22603D1*
X23107Y22700D1*
X23132Y22846D1*
Y22942D1*
X23107Y23088D1*
X23059Y23186D1*
X23010Y23234D1*
X22937D1*
X23535Y23575D2*
Y22554D1*
Y23088D2*
X23486Y23186D1*
X23437Y23234D1*
X23364D1*
X23316Y23186D1*
X23267Y23088D1*
X23243Y22942D1*
Y22846D1*
X23267Y22700D1*
X23316Y22603D1*
X23364Y22554D1*
X23437D1*
X23486Y22603D1*
X23535Y22700D1*
X23646Y23234D2*
Y22748D1*
X23670Y22603D1*
X23719Y22554D1*
X23792D1*
X23840Y22603D1*
X23913Y22748D1*
Y23234D2*
Y22554D1*
X24024Y23575D2*
Y22554D1*
X24135Y22942D2*
X24427D1*
Y23040D1*
X24403Y23138D1*
X24378Y23186D1*
X24330Y23234D1*
X24257D1*
X24208Y23186D1*
X24159Y23088D1*
X24135Y22942D1*
Y22846D1*
X24159Y22700D1*
X24208Y22603D1*
X24257Y22554D1*
X24330D1*
X24378Y22603D1*
X24427Y22700D1*
X21264Y13171D2*
X21216Y13269D1*
X21143Y13317D1*
X21046D1*
X20973Y13269D1*
X20924Y13171D1*
Y13075D1*
X20948Y12977D1*
X20973Y12929D1*
X21021Y12880D1*
X21167Y12783D1*
X21216Y12734D1*
X21240Y12685D1*
X21264Y12588D1*
Y12442D1*
X21216Y12346D1*
X21143Y12296D1*
X21046D1*
X20973Y12346D1*
X20924Y12442D1*
X21375Y13317D2*
Y12296D1*
X21545D1*
X21618Y12346D1*
X21667Y12442D1*
X21691Y12540D1*
X21715Y12685D1*
Y12929D1*
X21691Y13075D1*
X21667Y13171D1*
X21618Y13269D1*
X21545Y13317D1*
X21375D1*
X22216Y12296D2*
X22021Y13317D1*
X21826Y12296D1*
X21899Y12637D2*
X22143D1*
X13322Y14550D2*
X12301D1*
X13322Y14099D2*
X12301D1*
X13322Y14439D1*
X12301D1*
X13322Y13817D2*
X12301D1*
X13322Y13988D2*
Y13647D1*
M02*
