G04 DipTrace 2.4.0.2*
%INlightning.gbs*%
%MOMM*%
%ADD54R,1.75X2.05*%
%ADD55R,1.75X1.65*%
%ADD56R,2.05X1.75*%
%ADD57R,1.65X1.75*%
%FSLAX53Y53*%
G04*
G71*
G90*
G75*
G01*
%LNBotMask*%
%LPD*%
D57*
X11270Y13810D3*
G36*
X12545Y12935D2*
X12040D1*
Y14685D1*
X12545D1*
X12825Y14141D1*
Y13479D1*
X12545Y12935D1*
G37*
D56*
X10000Y13810D3*
D55*
X13810Y11270D3*
G36*
X14685Y12545D2*
Y12040D1*
X12935D1*
Y12545D1*
X13479Y12825D1*
X14141D1*
X14685Y12545D1*
G37*
D54*
X13810Y10000D3*
D55*
X16350Y11270D3*
G36*
X17225Y12545D2*
Y12040D1*
X15475D1*
Y12545D1*
X16019Y12825D1*
X16681D1*
X17225Y12545D1*
G37*
D54*
X16350Y10000D3*
D55*
X18890Y11270D3*
G36*
X19765Y12545D2*
Y12040D1*
X18015D1*
Y12545D1*
X18559Y12825D1*
X19221D1*
X19765Y12545D1*
G37*
D54*
X18890Y10000D3*
D55*
X21430Y11270D3*
G36*
X22305Y12545D2*
Y12040D1*
X20555D1*
Y12545D1*
X21099Y12825D1*
X21761D1*
X22305Y12545D1*
G37*
D54*
X21430Y10000D3*
G36*
X21448Y15021D2*
X22398Y15166D1*
X23138Y15466D1*
X23608Y15846D1*
X23988Y16231D1*
X24303Y16791D1*
X24433Y17116D1*
X24533Y17596D1*
X24583Y17846D1*
X24608Y18261D1*
X24493Y18586D1*
X24303Y18776D1*
X24178Y18901D1*
X24113Y19221D1*
X24138Y19351D1*
X24213Y19601D1*
X24368Y19741D1*
X23958Y20236D1*
X23578Y19986D1*
X23488D1*
X23308Y20426D1*
X23033Y20401D1*
X22528Y20541D1*
X23058Y19276D1*
Y19116D1*
X23023Y18901D1*
X22908Y18851D1*
X22653Y18951D1*
X22338Y19531D1*
X21983Y20386D1*
X21728Y20261D1*
X21458Y19941D1*
X21828Y18991D1*
X21638Y19021D1*
X21448D1*
Y15021D1*
G37*
M02*
