G04 DipTrace 2.4.0.2*
%INlightning.gtl*%
%MOMM*%
%ADD13C,0.305*%
%ADD14C,0.381*%
%ADD15C,0.152*%
%ADD17R,1.1X1.0*%
%ADD18R,1.0X1.1*%
%ADD19R,0.7X0.9*%
%ADD20R,0.9X0.7*%
%ADD22R,0.737X1.2*%
%ADD23R,1.6X1.7*%
%ADD24R,2.0X1.7*%
%ADD25R,1.7X1.6*%
%ADD26R,1.7X2.0*%
%ADD27R,1.3X3.2*%
%ADD29R,0.4X0.5*%
%ADD31R,0.5X0.4*%
%ADD36O,0.35X0.8*%
%ADD37O,0.8X0.35*%
%ADD38R,2.6X2.6*%
%ADD39C,0.711*%
%ADD42C,0.711*%
%FSLAX53Y53*%
G04*
G71*
G90*
G75*
G01*
%LNTop*%
%LPD*%
X15420Y20523D2*
D13*
Y20272D1*
X17517D1*
X17723Y20478D1*
X17948Y17938D2*
Y17972D1*
X17606D1*
X16681Y18898D1*
X16395D1*
X17606Y17972D2*
X17942Y17637D1*
Y15042D1*
X17881Y14981D1*
X16395Y19548D2*
X16840D1*
X17750Y18638D1*
X17948D1*
X17466Y19144D2*
Y19028D1*
X17856Y18638D1*
X15071Y14981D2*
X15668D1*
X16302Y15615D1*
X14770Y20523D2*
Y18898D1*
X14445Y18573D1*
X22270Y27145D2*
Y25763D1*
X21430Y24923D1*
X15730D1*
X15095Y24288D1*
Y23018D1*
Y21748D1*
X14770Y20523D2*
Y21423D1*
X15095Y21748D1*
X15420Y16623D2*
Y17598D1*
X14445Y18573D1*
X15345Y19473D2*
X14445Y18573D1*
X12495Y18248D2*
Y17598D1*
Y16713D1*
X12540Y16668D1*
X12459D1*
Y15252D1*
X12540D1*
X11277Y16135D2*
X12008D1*
X12540Y16668D1*
X12495Y17598D2*
X13470D1*
X14445Y18573D1*
X12495Y18248D2*
X14120D1*
X14445Y18573D1*
X13470Y20523D2*
Y19548D1*
X14445Y18573D1*
X13470Y20523D2*
X12569D1*
X11573D1*
X11270Y20825D1*
X11029Y21748D2*
Y21066D1*
X11270Y20825D1*
X12540Y21748D2*
X12193D1*
X11270Y20825D1*
X19423Y20478D2*
X20795D1*
X16985Y21748D2*
X18255D1*
X19525D1*
X20795D1*
X22065D1*
X23335D1*
Y20478D1*
X22065D1*
X20795D1*
X22065D2*
Y19208D1*
Y17938D1*
X23335D1*
Y19208D2*
Y17938D1*
Y16350D1*
Y14763D1*
Y13493D1*
X22327D1*
Y13623D1*
X22065Y14763D2*
Y13623D1*
X22327D1*
X12569Y20696D2*
Y20523D1*
X23023Y12364D2*
Y13181D1*
X23335Y13493D1*
X18948Y17938D2*
X19525D1*
X20795D1*
X22065D1*
X18948Y18638D2*
Y17938D1*
Y18638D2*
X21495D1*
X22065Y19208D1*
X13963Y14623D2*
Y13920D1*
X13054Y13011D1*
X13017D1*
X12220Y12214D1*
X20795Y17938D2*
D3*
Y19208D2*
X22065D1*
X20795D2*
Y17938D1*
Y19208D2*
X19525D1*
X12540Y15252D2*
X11020D1*
X11015Y15256D1*
X19525Y17938D2*
D3*
X14120Y20523D2*
Y21423D1*
X13795Y21748D1*
Y23018D1*
Y24288D1*
Y24620D1*
X12970Y25445D1*
Y27145D1*
X14120Y16623D2*
Y15849D1*
X13769Y15498D1*
Y15379D1*
X12200Y13810D1*
X11270D1*
X20397Y13754D2*
Y12777D1*
X18890Y11270D1*
X14770Y16623D2*
Y16367D1*
X15233Y15904D1*
X15608D1*
X15990Y16286D1*
X16780D1*
X17084Y15982D1*
Y16023D1*
X21097Y13754D2*
Y11603D1*
X21430Y11270D1*
X16395Y17598D2*
X16590D1*
X17279Y16908D1*
X12495Y18898D2*
D14*
X12118D1*
X11690Y18470D1*
Y18248D1*
X11277Y17835D1*
X12495Y19548D2*
X11293D1*
X11270Y19525D1*
X11277Y17835D2*
X11385D1*
Y19410D1*
X11270Y19525D1*
X11745Y18701D2*
X11690Y18646D1*
Y18470D1*
X20795Y17062D2*
Y16051D1*
X20777Y16033D1*
X13470Y16623D2*
Y16154D1*
X13283Y15967D1*
X15071Y13493D2*
D13*
X14974D1*
X13841Y12360D1*
Y11301D1*
X13810Y11270D1*
X15071Y13493D2*
Y13285D1*
X16138Y14352D1*
X16798D1*
X17881Y13270D1*
Y13493D1*
X19684Y16033D2*
Y15466D1*
X20397Y14754D1*
X21869Y16033D2*
Y15526D1*
X21097Y14754D1*
D42*
X17084Y16023D3*
X17279Y16908D3*
X17466Y19144D3*
X16302Y15615D3*
X20795Y20478D3*
X22065D3*
X23335D3*
X22065Y19208D3*
X23335D3*
X22065Y17938D3*
X23335D3*
Y16350D3*
Y14763D3*
X22065D3*
X22327Y13623D3*
X23335Y13493D3*
X16985Y21748D3*
X20795D3*
X22065D3*
X23335D3*
X19525D3*
X18255D3*
X12540D3*
X11029D3*
X12540Y15252D3*
X11745Y18701D3*
X12540Y16668D3*
X20795Y17062D3*
X13283Y15967D3*
X13963Y14623D3*
X23023Y12364D3*
X19088Y13738D3*
X18853Y16718D3*
X12569Y20696D3*
X12220Y12214D3*
X20795Y17938D3*
Y19208D3*
X19525D3*
X11015Y15256D3*
X19525Y17938D3*
X10751Y21981D2*
D15*
X13094D1*
X15844D2*
X24488D1*
X10751Y21832D2*
X13094D1*
X15844D2*
X24488D1*
X10751Y21683D2*
X13094D1*
X15844D2*
X24488D1*
X10751Y21534D2*
X13094D1*
X15844D2*
X24488D1*
X11869Y21385D2*
X13094D1*
X15844D2*
X24488D1*
X11869Y21236D2*
X13094D1*
X15844D2*
X24488D1*
X11869Y21087D2*
X13094D1*
X15844D2*
X16923D1*
X18523D2*
X18623D1*
X20223D2*
X24488D1*
X11869Y20938D2*
X13091D1*
X15844D2*
X16923D1*
X18523D2*
X18623D1*
X20223D2*
X24488D1*
X11869Y20789D2*
X13049D1*
X15844D2*
X16923D1*
X18523D2*
X18623D1*
X20223D2*
X24488D1*
X11869Y20640D2*
X13046D1*
X18523D2*
X18623D1*
X20223D2*
X24488D1*
X11869Y20491D2*
X13046D1*
X18523D2*
X18623D1*
X20223D2*
X24488D1*
X11869Y20342D2*
X13046D1*
X18523D2*
X18623D1*
X20223D2*
X24488D1*
X11869Y20193D2*
X13058D1*
X18523D2*
X18623D1*
X20223D2*
X24488D1*
X11869Y20044D2*
X12896D1*
X18523D2*
X18623D1*
X20223D2*
X24488D1*
X18523Y19894D2*
X18623D1*
X20223D2*
X24488D1*
X18523Y19745D2*
X18623D1*
X20223D2*
X24488D1*
X17861Y19596D2*
X24488D1*
X17987Y19447D2*
X24488D1*
X18051Y19298D2*
X24488D1*
X18070Y19149D2*
X24488D1*
X19447Y19000D2*
X24488D1*
X19447Y18851D2*
X24488D1*
X19447Y18702D2*
X24488D1*
X19447Y18553D2*
X24488D1*
X19447Y18404D2*
X24488D1*
X19447Y18255D2*
X24488D1*
X19447Y18106D2*
X24488D1*
X19447Y17957D2*
X24488D1*
X19447Y17808D2*
X24488D1*
X19447Y17658D2*
X24488D1*
X19447Y17509D2*
X20395D1*
X21194D2*
X24488D1*
X18344Y17360D2*
X20271D1*
X21318D2*
X24488D1*
X12027Y17211D2*
X12120D1*
X18344D2*
X20209D1*
X21380D2*
X24488D1*
X12027Y17062D2*
X12896D1*
X18344D2*
X20190D1*
X21399D2*
X24488D1*
X12027Y16913D2*
X13051D1*
X18344D2*
X20209D1*
X21380D2*
X24488D1*
X12027Y16764D2*
X13046D1*
X18344D2*
X19404D1*
X22149D2*
X24488D1*
X12027Y16615D2*
X13030D1*
X18344D2*
X19192D1*
X22361D2*
X24488D1*
X12027Y16466D2*
X12953D1*
X18344D2*
X19092D1*
X22461D2*
X24488D1*
X12027Y16317D2*
X12794D1*
X18344D2*
X19018D1*
X22533D2*
X24488D1*
X12027Y16168D2*
X12713D1*
X18344D2*
X18987D1*
X22566D2*
X24488D1*
X12027Y16019D2*
X12680D1*
X18344D2*
X18966D1*
X22587D2*
X24488D1*
X12027Y15870D2*
X12687D1*
X14522D2*
X14706D1*
X18344D2*
X18992D1*
X22561D2*
X24488D1*
X12027Y15721D2*
X12732D1*
X14501D2*
X14646D1*
X18344D2*
X19033D1*
X22521D2*
X24488D1*
X12027Y15572D2*
X12830D1*
X18506D2*
X19107D1*
X22447D2*
X24488D1*
X12027Y15422D2*
X13039D1*
X14255D2*
X14342D1*
X18611D2*
X19230D1*
X22323D2*
X24488D1*
X10751Y15273D2*
X13101D1*
X14155D2*
X14270D1*
X18682D2*
X19335D1*
X22178D2*
X24488D1*
X10751Y15124D2*
X12951D1*
X14074D2*
X14223D1*
X18730D2*
X19464D1*
X22030D2*
X24488D1*
X10751Y14975D2*
X12803D1*
X13927D2*
X14223D1*
X18730D2*
X19614D1*
X21880D2*
X24488D1*
X12319Y14826D2*
X12653D1*
X13779D2*
X14223D1*
X18730D2*
X19761D1*
X21730D2*
X24488D1*
X12319Y14677D2*
X12506D1*
X13629D2*
X14223D1*
X18730D2*
X19911D1*
X21583D2*
X24488D1*
X13479Y14528D2*
X14154D1*
X18775D2*
X19947D1*
X21547D2*
X24488D1*
X13332Y14379D2*
X14154D1*
X18775D2*
X19947D1*
X21547D2*
X24488D1*
X13182Y14230D2*
X14154D1*
X18775D2*
X19947D1*
X21547D2*
X24488D1*
X13034Y14081D2*
X14154D1*
X18775D2*
X19947D1*
X21547D2*
X24488D1*
X12884Y13932D2*
X14154D1*
X16280D2*
X16656D1*
X18775D2*
X19947D1*
X21547D2*
X24488D1*
X12734Y13783D2*
X14223D1*
X16132D2*
X16806D1*
X18730D2*
X19947D1*
X21547D2*
X24488D1*
X12586Y13634D2*
X14223D1*
X15982D2*
X16954D1*
X18730D2*
X19947D1*
X21547D2*
X24488D1*
X12424Y13485D2*
X14223D1*
X15920D2*
X17030D1*
X18730D2*
X19947D1*
X21547D2*
X24488D1*
X12319Y13336D2*
X14225D1*
X15918D2*
X17032D1*
X18727D2*
X19947D1*
X21547D2*
X24488D1*
X12319Y13186D2*
X14106D1*
X15868D2*
X17085D1*
X18677D2*
X19995D1*
X21499D2*
X24412D1*
X12319Y13037D2*
X13956D1*
X15791D2*
X17161D1*
X18601D2*
X19995D1*
X21499D2*
X24262D1*
X12319Y12888D2*
X13808D1*
X15687D2*
X17266D1*
X18496D2*
X19947D1*
X21499D2*
X24112D1*
X12319Y12739D2*
X13658D1*
X15468D2*
X17483D1*
X18277D2*
X19797D1*
X21499D2*
X23964D1*
X11424Y12590D2*
X13515D1*
X14634D2*
X19647D1*
X21499D2*
X23814D1*
X11574Y12441D2*
X13449D1*
X14484D2*
X19499D1*
X21499D2*
X23667D1*
X11722Y12292D2*
X12710D1*
X14910D2*
X15251D1*
X17449D2*
X17790D1*
X22530D2*
X23517D1*
X11872Y12143D2*
X12710D1*
X14910D2*
X15251D1*
X17449D2*
X17790D1*
X22530D2*
X23367D1*
X12022Y11994D2*
X12710D1*
X14910D2*
X15251D1*
X17449D2*
X17790D1*
X22530D2*
X23219D1*
X12169Y11845D2*
X12710D1*
X14910D2*
X15251D1*
X17449D2*
X17790D1*
X22530D2*
X23069D1*
X12319Y11696D2*
X12710D1*
X14910D2*
X15251D1*
X17449D2*
X17790D1*
X22530D2*
X22921D1*
X12467Y11547D2*
X12710D1*
X14910D2*
X15251D1*
X17449D2*
X17790D1*
X22530D2*
X22771D1*
X12617Y11398D2*
X12710D1*
X14910D2*
X15251D1*
X17449D2*
X17790D1*
X22530D2*
X22621D1*
X14910Y11249D2*
X15251D1*
X17449D2*
X17790D1*
X14910Y11100D2*
X15251D1*
X17449D2*
X17790D1*
X14910Y10950D2*
X15251D1*
X17449D2*
X17790D1*
X14910Y10801D2*
X15251D1*
X17449D2*
X17790D1*
X18715Y15027D2*
Y14639D1*
X18759Y14640D1*
Y13833D1*
X18714D1*
X18715Y13370D1*
X18700Y13288D1*
X18638Y13121D1*
X18569Y13013D1*
X18473Y12876D1*
X18429Y12828D1*
X18317Y12766D1*
X18186Y12700D1*
X18122Y12679D1*
X17922Y12644D1*
X17840D1*
X17640Y12679D1*
X17576Y12700D1*
X17376Y12800D1*
X17322Y12837D1*
X17245Y12938D1*
X17144Y13082D1*
X17094Y13199D1*
X17061Y13288D1*
X17046Y13370D1*
Y13558D1*
X16639Y13964D1*
X16296Y13965D1*
X15905Y13572D1*
X15906Y13370D1*
X15891Y13288D1*
X15828Y13121D1*
X15760Y13013D1*
X15664Y12876D1*
X15620Y12828D1*
X15508Y12766D1*
X15376Y12700D1*
X15313Y12679D1*
X15113Y12644D1*
X15030D1*
X14830Y12679D1*
X14767Y12700D1*
X14743Y12712D1*
X14333Y12305D1*
X14895D1*
Y10735D1*
X15265Y10738D1*
Y12305D1*
X17435D1*
Y10737D1*
X17807Y10736D1*
X17805Y11235D1*
Y12305D1*
X19379D1*
X20009Y12936D1*
X20010Y13270D1*
X19962Y13269D1*
Y14239D1*
X20831Y14236D1*
X20891Y14239D1*
X21531D1*
Y13269D1*
X21481D1*
X21484Y12916D1*
Y12304D1*
X22515Y12305D1*
Y11274D1*
X24505Y13265D1*
X24504Y16357D1*
X24502Y22075D1*
X15828D1*
X15829Y21056D1*
X15830Y20659D1*
X16937D1*
X16938Y21212D1*
X18507D1*
Y19743D1*
X17190D1*
X17243Y19692D1*
X17352Y19724D1*
X17427Y19733D1*
X17504D1*
X17579Y19724D1*
X17653Y19704D1*
X17723Y19676D1*
X17790Y19638D1*
X17850Y19592D1*
X17905Y19539D1*
X17952Y19479D1*
X17991Y19414D1*
X18021Y19344D1*
X18042Y19271D1*
X18056Y19144D1*
X18051Y19071D1*
X18433Y19072D1*
X18430Y18203D1*
X18433Y18144D1*
Y17503D1*
X18330D1*
X18329Y16951D1*
Y15701D1*
X18439Y15636D1*
X18517Y15535D1*
X18617Y15391D1*
X18667Y15274D1*
X18700Y15186D1*
X18715Y15103D1*
Y15027D1*
X14237Y14642D2*
Y15103D1*
X14252Y15186D1*
X14315Y15353D1*
X14383Y15460D1*
X14479Y15598D1*
X14523Y15645D1*
X14635Y15707D1*
X14786Y15781D1*
X14798Y15792D1*
X14507Y16082D1*
Y15849D1*
X14500Y15774D1*
X14477Y15701D1*
X14442Y15634D1*
X14394Y15576D1*
X14153Y15335D1*
X14126Y15231D1*
X14090Y15163D1*
X14043Y15105D1*
X12474Y13536D1*
X12415Y13488D1*
X12343Y13451D1*
X12305Y13371D1*
Y12725D1*
X11274D1*
X12726Y11274D1*
X12725Y12305D1*
X13456D1*
X13454Y12360D1*
X13462Y12436D1*
X13484Y12508D1*
X13520Y12575D1*
X13568Y12634D1*
X14246Y13312D1*
X14237Y13370D1*
Y13835D1*
X14168Y13833D1*
Y14640D1*
X14237D1*
X18653Y21212D2*
X20207D1*
Y19743D1*
X18638D1*
Y21212D1*
X18653D1*
X12012Y17279D2*
Y17050D1*
X10738D1*
X10736Y16917D1*
X10786Y16920D1*
X12012D1*
Y15350D1*
X10736D1*
Y14893D1*
X11235Y14895D1*
X12305D1*
Y14464D1*
X13221Y15379D1*
X13145Y15393D1*
X13072Y15415D1*
X13003Y15447D1*
X12938Y15488D1*
X12880Y15536D1*
X12827Y15591D1*
X12783Y15653D1*
X12747Y15720D1*
X12719Y15791D1*
X12702Y15865D1*
X12693Y15941D1*
X12695Y16017D1*
X12706Y16092D1*
X12727Y16166D1*
X12758Y16236D1*
X12797Y16301D1*
X12844Y16361D1*
X12898Y16414D1*
X12959Y16460D1*
X13045Y16506D1*
Y16623D1*
X13052Y16698D1*
X13061Y16733D1*
X13063Y16848D1*
X13069Y16931D1*
X13091Y17004D1*
X13110Y17040D1*
X13008Y17038D1*
X12910D1*
Y17235D1*
X12843Y17207D1*
X12769Y17191D1*
X12659Y17188D1*
X12228Y17190D1*
X12153Y17205D1*
X12083Y17233D1*
X12011Y17280D1*
X11854Y20210D2*
X11855Y19974D1*
X12495Y19973D1*
X12571Y19966D1*
X12605Y19956D1*
X12770Y19954D1*
X12845Y19938D1*
X12913Y19909D1*
X12910Y19994D1*
Y20107D1*
X13108D1*
X13080Y20171D1*
X13064Y20245D1*
X13060Y20343D1*
X13062Y20786D1*
X13076Y20861D1*
X13108Y20940D1*
Y22075D1*
X10736D1*
Y21508D1*
X10975Y21510D1*
X11855D1*
X11854Y20140D1*
X21707Y16867D2*
X21840D1*
X21922Y16852D1*
X22089Y16789D1*
X22197Y16721D1*
X22334Y16625D1*
X22382Y16581D1*
X22444Y16469D1*
X22510Y16337D1*
X22530Y16276D1*
X22568Y16076D1*
Y15989D1*
X22530Y15789D1*
X22510Y15728D1*
X22410Y15528D1*
X22373Y15474D1*
X22272Y15397D1*
X22215Y15357D1*
X22190Y15311D1*
X22143Y15253D1*
X21531Y14641D1*
Y14269D1*
X20662Y14272D1*
X20603Y14269D1*
X19962D1*
X19961Y14642D1*
X19411Y15193D1*
X19362Y15251D1*
X19294Y15388D1*
X19219Y15440D1*
X19171Y15484D1*
X19109Y15596D1*
X19044Y15728D1*
X19023Y15789D1*
X18985Y15989D1*
Y16076D1*
X19023Y16276D1*
X19044Y16337D1*
X19144Y16537D1*
X19180Y16591D1*
X19281Y16668D1*
X19425Y16769D1*
X19542Y16819D1*
X19631Y16852D1*
X19713Y16867D1*
X19849D1*
X19848Y16886D1*
X20231Y16887D1*
X20213Y16961D1*
X20205Y17037D1*
X20207Y17113D1*
X20218Y17188D1*
X20239Y17261D1*
X20269Y17331D1*
X20308Y17397D1*
X20356Y17456D1*
X20410Y17510D1*
X20471Y17556D1*
X20537Y17593D1*
X20607Y17622D1*
X20681Y17642D1*
X20757Y17651D1*
X20833D1*
X20908Y17642D1*
X20982Y17622D1*
X21052Y17594D1*
X21119Y17556D1*
X21179Y17510D1*
X21234Y17457D1*
X21281Y17397D1*
X21320Y17332D1*
X21350Y17262D1*
X21372Y17189D1*
X21385Y17062D1*
X21380Y16986D1*
X21357Y16887D1*
X21705Y16886D1*
Y16865D1*
X19433Y18372D2*
Y17503D1*
X18463D1*
Y19072D1*
X19433D1*
X19432Y18203D1*
X18638Y21212D2*
X20207Y19743D1*
Y21212D2*
X18638Y19743D1*
X11277Y16135D2*
X12012Y15351D1*
Y16919D2*
X11277Y16135D1*
X10686Y21509D2*
X11855Y20141D1*
Y21509D2*
X11270Y20825D1*
X15266Y12304D2*
X16350Y11270D1*
X17434Y12304D2*
X16350Y11270D1*
X18464Y18372D2*
X19433Y17503D1*
Y18372D2*
X18464Y17503D1*
Y19072D2*
X19433Y18203D1*
Y19072D2*
X18464Y18203D1*
X13121Y20961D2*
X13470Y20523D1*
X13121Y20084D1*
X12495Y17598D2*
X12934Y17248D1*
X12495Y17598D2*
X12056Y17248D1*
X12911Y20107D2*
X14445Y18573D1*
X12911Y17038D1*
G36*
X18481Y15103D2*
Y14363D1*
X17281D1*
Y15103D1*
X17341Y15263D1*
X17481Y15463D1*
X17681Y15563D1*
X17881Y15599D1*
X18081Y15563D1*
X18281Y15463D1*
X18421Y15263D1*
X18481Y15103D1*
G37*
G36*
X17281Y13370D2*
Y14110D1*
X18481D1*
Y13370D1*
X18421Y13210D1*
X18281Y13010D1*
X18081Y12910D1*
X17881Y12875D1*
X17681Y12910D1*
X17481Y13010D1*
X17341Y13210D1*
X17281Y13370D1*
G37*
G36*
X15671Y15103D2*
Y14363D1*
X14471D1*
Y15103D1*
X14531Y15263D1*
X14671Y15463D1*
X14871Y15563D1*
X15071Y15599D1*
X15271Y15563D1*
X15471Y15463D1*
X15611Y15263D1*
X15671Y15103D1*
G37*
G36*
X14471Y13370D2*
Y14110D1*
X15671D1*
Y13370D1*
X15611Y13210D1*
X15471Y13010D1*
X15271Y12910D1*
X15071Y12875D1*
X14871Y12910D1*
X14671Y13010D1*
X14531Y13210D1*
X14471Y13370D1*
G37*
D17*
X17723Y20478D3*
X19423D3*
D18*
X11277Y17835D3*
Y16135D3*
D19*
X11270Y19525D3*
Y20825D3*
D20*
X13795Y21748D3*
X15095D3*
X13795Y23018D3*
X15095D3*
G36*
X21840Y15433D2*
X21400D1*
Y16633D1*
X21840D1*
X22000Y16573D1*
X22200Y16433D1*
X22300Y16233D1*
X22338Y16033D1*
X22300Y15833D1*
X22200Y15633D1*
X22000Y15493D1*
X21840Y15433D1*
G37*
G36*
X19713Y16633D2*
X20153D1*
Y15433D1*
X19713D1*
X19553Y15493D1*
X19353Y15633D1*
X19253Y15833D1*
X19215Y16033D1*
X19253Y16233D1*
X19353Y16433D1*
X19553Y16573D1*
X19713Y16633D1*
G37*
D22*
X20777Y16033D3*
D23*
X11270Y13810D3*
D24*
X10000D3*
D25*
X13810Y11270D3*
D26*
Y10000D3*
D25*
X16350Y11270D3*
D26*
Y10000D3*
D25*
X18890Y11270D3*
D26*
Y10000D3*
D25*
X21430Y11270D3*
D26*
Y10000D3*
D27*
X12970Y27145D3*
X22270D3*
D29*
X20397Y13754D3*
X21097D3*
Y14754D3*
X20397D3*
D31*
X18948Y17938D3*
Y18638D3*
X17948D3*
Y17938D3*
D20*
X15095Y24288D3*
X13795D3*
D36*
X15420Y20523D3*
X14770D3*
X14120D3*
X13470D3*
D37*
X12495Y19548D3*
Y18898D3*
Y18248D3*
Y17598D3*
D36*
X13470Y16623D3*
X14120D3*
X14770D3*
X15420D3*
D37*
X16395Y17598D3*
Y18248D3*
Y18898D3*
Y19548D3*
D38*
X14445Y18573D3*
D39*
X15345Y19473D3*
Y18573D3*
Y17673D3*
X14445Y19473D3*
Y18573D3*
Y17673D3*
X13545Y19473D3*
Y18573D3*
Y17673D3*
G36*
X11079Y26032D2*
X10889Y26061D1*
X10741Y26121D1*
X10647Y26197D1*
X10571Y26273D1*
X10508Y26386D1*
X10482Y26451D1*
X10462Y26546D1*
X10452Y26597D1*
X10447Y26680D1*
X10470Y26745D1*
X10508Y26783D1*
X10533Y26808D1*
X10546Y26872D1*
X10541Y26897D1*
X10526Y26948D1*
X10495Y26976D1*
X10577Y27075D1*
X10653Y27024D1*
X10671D1*
X10707Y27113D1*
X10762Y27126D1*
X10863Y27136D1*
X10757Y26883D1*
Y26851D1*
X10764Y26808D1*
X10787Y26798D1*
X10838Y26818D1*
X10901Y26934D1*
X10972Y27105D1*
X11023Y27080D1*
X11077Y27016D1*
X11003Y26826D1*
X11041Y26832D1*
X11079D1*
Y26032D1*
G37*
M02*
