G04 DipTrace 2.4.0.2*
%INlightning.gbo*%
%MOMM*%
%ADD10C,0.25*%
%ADD41O,3.825X4.663*%
%ADD64C,0.111*%
%ADD65C,0.235*%
%FSLAX53Y53*%
G04*
G71*
G90*
G75*
G01*
%LNBotSilk*%
%LPD*%
X21448Y15122D2*
D10*
G02X18424Y18472I218J3237D01*
G01*
D41*
X20211Y18178D3*
G36*
X21498Y15196D2*
X21649Y17246D1*
X18699Y17821D1*
X19598Y15896D1*
X20548Y15371D1*
D1*
X21498Y15196D1*
G37*
X18291Y13855D2*
D64*
X18339Y13953D1*
X18412Y14001D1*
X18509D1*
X18582Y13953D1*
X18631Y13855D1*
Y13758D1*
X18606Y13661D1*
X18582Y13612D1*
X18534Y13564D1*
X18388Y13466D1*
X18339Y13418D1*
X18315Y13369D1*
X18291Y13272D1*
Y13126D1*
X18339Y13029D1*
X18412Y12980D1*
X18509D1*
X18582Y13029D1*
X18631Y13126D1*
X17815Y13758D2*
X17839Y13855D1*
X17888Y13953D1*
X17936Y14001D1*
X18033D1*
X18082Y13953D1*
X18131Y13855D1*
X18155Y13758D1*
X18179Y13612D1*
Y13369D1*
X18155Y13224D1*
X18131Y13126D1*
X18082Y13029D1*
X18033Y12980D1*
X17936D1*
X17888Y13029D1*
X17839Y13126D1*
X17815Y13224D1*
X17704Y14001D2*
Y12980D1*
X17412D1*
X16556Y13722D2*
X16580Y13818D1*
X16629Y13916D1*
X16677Y13964D1*
X16775D1*
X16823Y13916D1*
X16872Y13818D1*
X16896Y13722D1*
X16921Y13576D1*
Y13332D1*
X16896Y13187D1*
X16872Y13089D1*
X16823Y12993D1*
X16775Y12943D1*
X16677D1*
X16629Y12993D1*
X16580Y13089D1*
X16556Y13187D1*
Y13332D1*
X16677D1*
X16105Y13964D2*
Y12943D1*
X16445Y13964D1*
Y12943D1*
X15994Y13964D2*
Y12943D1*
X15823D1*
X15750Y12993D1*
X15702Y13089D1*
X15677Y13187D1*
X15653Y13332D1*
Y13576D1*
X15677Y13722D1*
X15702Y13818D1*
X15750Y13916D1*
X15823Y13964D1*
X15994D1*
X22047Y29242D2*
D65*
X22616D1*
Y27710D1*
Y28512D2*
X22266D1*
X21720Y28731D2*
X21458Y27710D1*
X21545Y27419D1*
X21633Y27272D1*
X21720Y27200D1*
X21764D1*
X21195Y28731D2*
X21458Y27710D1*
X20913Y29242D2*
Y27710D1*
Y28512D2*
X20825Y28659D1*
X20738Y28731D1*
X20607D1*
X20520Y28659D1*
X20432Y28512D1*
X20388Y28293D1*
Y28148D1*
X20432Y27929D1*
X20520Y27785D1*
X20607Y27710D1*
X20738D1*
X20825Y27785D1*
X20913Y27929D1*
X20106Y28293D2*
X19581D1*
Y28440D1*
X19625Y28586D1*
X19668Y28659D1*
X19756Y28731D1*
X19888D1*
X19975Y28659D1*
X20063Y28512D1*
X20106Y28293D1*
Y28148D1*
X20063Y27929D1*
X19975Y27785D1*
X19888Y27710D1*
X19756D1*
X19668Y27785D1*
X19581Y27929D1*
X19299Y28731D2*
Y27710D1*
Y28293D2*
X19255Y28512D1*
X19168Y28659D1*
X19080Y28731D1*
X18948D1*
X17777Y29242D2*
Y27710D1*
X17253D1*
X16446Y28731D2*
Y27710D1*
Y28512D2*
X16533Y28659D1*
X16620Y28731D1*
X16751D1*
X16839Y28659D1*
X16926Y28512D1*
X16970Y28293D1*
Y28148D1*
X16926Y27929D1*
X16839Y27785D1*
X16751Y27710D1*
X16620D1*
X16533Y27785D1*
X16446Y27929D1*
X16163Y29242D2*
Y27710D1*
Y28512D2*
X16075Y28659D1*
X15988Y28731D1*
X15857D1*
X15770Y28659D1*
X15682Y28512D1*
X15639Y28293D1*
Y28148D1*
X15682Y27929D1*
X15770Y27785D1*
X15857Y27710D1*
X15988D1*
X16075Y27785D1*
X16163Y27929D1*
X14875Y28512D2*
X14919Y28659D1*
X15050Y28731D1*
X15181D1*
X15313Y28659D1*
X15356Y28512D1*
X15313Y28367D1*
X15225Y28293D1*
X15007Y28221D1*
X14919Y28148D1*
X14875Y28002D1*
Y27929D1*
X14919Y27785D1*
X15050Y27710D1*
X15181D1*
X15313Y27785D1*
X15356Y27929D1*
X13704Y29242D2*
Y27710D1*
X13422Y28731D2*
Y27710D1*
Y28440D2*
X13290Y28659D1*
X13202Y28731D1*
X13072D1*
X12984Y28659D1*
X12941Y28440D1*
Y27710D1*
X12133Y28512D2*
X12221Y28659D1*
X12308Y28731D1*
X12439D1*
X12527Y28659D1*
X12614Y28512D1*
X12658Y28293D1*
Y28148D1*
X12614Y27929D1*
X12527Y27785D1*
X12439Y27710D1*
X12308D1*
X12221Y27785D1*
X12133Y27929D1*
X11807Y27857D2*
X11850Y27783D1*
X11807Y27710D1*
X11762Y27783D1*
X11807Y27857D1*
X15598Y23468D2*
Y23541D1*
X15554Y23687D1*
X15511Y23760D1*
X15423Y23832D1*
X15248D1*
X15161Y23760D1*
X15118Y23687D1*
X15073Y23541D1*
Y23396D1*
X15118Y23249D1*
X15205Y23032D1*
X15642Y22302D1*
X15030D1*
X14485Y23832D2*
X14616Y23760D1*
X14704Y23541D1*
X14747Y23177D1*
Y22958D1*
X14704Y22594D1*
X14616Y22375D1*
X14485Y22302D1*
X14398D1*
X14266Y22375D1*
X14179Y22594D1*
X14135Y22958D1*
Y23177D1*
X14179Y23541D1*
X14266Y23760D1*
X14398Y23832D1*
X14485D1*
X14179Y23541D2*
X14704Y22594D1*
X13853Y23541D2*
X13765Y23615D1*
X13633Y23832D1*
Y22302D1*
X12826Y23832D2*
X13263D1*
X13306Y23177D1*
X13263Y23249D1*
X13131Y23323D1*
X13001D1*
X12870Y23249D1*
X12782Y23104D1*
X12738Y22885D1*
Y22740D1*
X12782Y22521D1*
X12870Y22375D1*
X13001Y22302D1*
X13131D1*
X13263Y22375D1*
X13306Y22449D1*
X13351Y22594D1*
X14536Y13962D2*
D64*
X14342Y12941D1*
X14148Y13962D1*
X14036D2*
Y12941D1*
X13866D1*
X13793Y12990D1*
X13744Y13087D1*
X13720Y13185D1*
X13696Y13330D1*
Y13573D1*
X13720Y13719D1*
X13744Y13816D1*
X13793Y13914D1*
X13866Y13962D1*
X14036D1*
X13585D2*
Y12941D1*
X13415D1*
X13342Y12990D1*
X13293Y13087D1*
X13269Y13185D1*
X13245Y13330D1*
Y13573D1*
X13269Y13719D1*
X13293Y13816D1*
X13342Y13914D1*
X13415Y13962D1*
X13585D1*
X21875Y23031D2*
D65*
X21482D1*
X21350Y23105D1*
X21306Y23177D1*
X21262Y23322D1*
Y23469D1*
X21306Y23613D1*
X21350Y23688D1*
X21482Y23760D1*
X21875D1*
Y22229D1*
X21569Y23031D2*
X21262Y22229D1*
X20717Y23758D2*
X20849Y23686D1*
X20937Y23467D1*
X20980Y23103D1*
Y22884D1*
X20937Y22520D1*
X20849Y22301D1*
X20717Y22229D1*
X20630D1*
X20499Y22301D1*
X20412Y22520D1*
X20367Y22884D1*
Y23103D1*
X20412Y23467D1*
X20499Y23686D1*
X20630Y23758D1*
X20717D1*
X20412Y23467D2*
X20937Y22520D1*
X20042Y22375D2*
X20085Y22301D1*
X20042Y22229D1*
X19997Y22301D1*
X20042Y22375D1*
X19277Y22229D2*
Y23758D1*
X19715Y22739D1*
X19059D1*
X25019Y26541D2*
Y25010D1*
X24494D1*
X24212Y26541D2*
X24168Y26469D1*
X24124Y26541D1*
X24168Y26615D1*
X24212Y26541D1*
X24168Y26031D2*
Y25010D1*
X23317Y25958D2*
Y24791D1*
X23360Y24574D1*
X23404Y24500D1*
X23492Y24427D1*
X23623D1*
X23710Y24500D1*
X23317Y25739D2*
X23404Y25884D1*
X23492Y25958D1*
X23623D1*
X23710Y25884D1*
X23798Y25739D1*
X23841Y25520D1*
Y25374D1*
X23798Y25157D1*
X23710Y25010D1*
X23623Y24938D1*
X23492D1*
X23404Y25010D1*
X23317Y25157D1*
X23035Y26541D2*
Y25010D1*
Y25739D2*
X22903Y25958D1*
X22815Y26031D1*
X22684D1*
X22597Y25958D1*
X22553Y25739D1*
Y25010D1*
X22140Y26541D2*
Y25301D1*
X22096Y25084D1*
X22008Y25010D1*
X21921D1*
X22271Y26031D2*
X21965D1*
X21639D2*
Y25010D1*
Y25739D2*
X21508Y25958D1*
X21420Y26031D1*
X21289D1*
X21201Y25958D1*
X21158Y25739D1*
Y25010D1*
X20875Y26541D2*
X20832Y26469D1*
X20788Y26541D1*
X20832Y26615D1*
X20875Y26541D1*
X20832Y26031D2*
Y25010D1*
X20505Y26031D2*
Y25010D1*
Y25739D2*
X20374Y25958D1*
X20286Y26031D1*
X20155D1*
X20068Y25958D1*
X20024Y25739D1*
Y25010D1*
X19217Y25958D2*
Y24791D1*
X19261Y24574D1*
X19304Y24500D1*
X19392Y24427D1*
X19523D1*
X19610Y24500D1*
X19217Y25739D2*
X19304Y25884D1*
X19392Y25958D1*
X19523D1*
X19610Y25884D1*
X19698Y25739D1*
X19742Y25520D1*
Y25374D1*
X19698Y25157D1*
X19610Y25010D1*
X19523Y24938D1*
X19392D1*
X19304Y25010D1*
X19217Y25157D1*
X17477Y26541D2*
X18046D1*
Y25010D1*
Y25812D2*
X17696D1*
X17195Y26541D2*
Y25010D1*
X16912Y25593D2*
X16388D1*
Y25739D1*
X16431Y25886D1*
X16475Y25958D1*
X16562Y26031D1*
X16694D1*
X16781Y25958D1*
X16869Y25812D1*
X16912Y25593D1*
Y25448D1*
X16869Y25229D1*
X16781Y25084D1*
X16694Y25010D1*
X16562D1*
X16475Y25084D1*
X16388Y25229D1*
X16105Y26031D2*
X15624Y25010D1*
Y26031D2*
X16105Y25010D1*
X13753D2*
Y26541D1*
X14103Y25010D1*
X14453Y26541D1*
Y25010D1*
X13253Y26031D2*
X13340Y25958D1*
X13428Y25812D1*
X13471Y25593D1*
Y25448D1*
X13428Y25229D1*
X13340Y25084D1*
X13253Y25010D1*
X13121D1*
X13033Y25084D1*
X12947Y25229D1*
X12902Y25448D1*
Y25593D1*
X12947Y25812D1*
X13033Y25958D1*
X13121Y26031D1*
X13253D1*
X12095Y26541D2*
Y25010D1*
Y25812D2*
X12182Y25958D1*
X12270Y26031D1*
X12401D1*
X12488Y25958D1*
X12576Y25812D1*
X12620Y25593D1*
Y25448D1*
X12576Y25229D1*
X12488Y25084D1*
X12401Y25010D1*
X12270D1*
X12182Y25084D1*
X12095Y25229D1*
X11813Y26031D2*
Y25301D1*
X11769Y25084D1*
X11681Y25010D1*
X11550D1*
X11463Y25084D1*
X11332Y25301D1*
Y26031D2*
Y25010D1*
X11049Y26541D2*
Y25010D1*
X10767Y25593D2*
X10242D1*
Y25739D1*
X10286Y25886D1*
X10329Y25958D1*
X10417Y26031D1*
X10549D1*
X10636Y25958D1*
X10723Y25812D1*
X10767Y25593D1*
Y25448D1*
X10723Y25229D1*
X10636Y25084D1*
X10549Y25010D1*
X10417D1*
X10329Y25084D1*
X10242Y25229D1*
X21517Y13866D2*
D64*
X21565Y13963D1*
X21638Y14012D1*
X21735D1*
X21808Y13963D1*
X21857Y13866D1*
Y13769D1*
X21833Y13671D1*
X21808Y13623D1*
X21760Y13575D1*
X21614Y13477D1*
X21565Y13429D1*
X21541Y13379D1*
X21517Y13283D1*
Y13137D1*
X21565Y13040D1*
X21638Y12991D1*
X21735D1*
X21808Y13040D1*
X21857Y13137D1*
X21406Y14012D2*
Y12991D1*
X21236D1*
X21163Y13040D1*
X21114Y13137D1*
X21090Y13235D1*
X21066Y13379D1*
Y13623D1*
X21090Y13769D1*
X21114Y13866D1*
X21163Y13963D1*
X21236Y14012D1*
X21406D1*
X20565Y12991D2*
X20760Y14012D1*
X20954Y12991D1*
X20881Y13331D2*
X20638D1*
X12165Y16001D2*
Y14980D1*
X11714Y16001D2*
Y14980D1*
X12054Y16001D1*
Y14980D1*
X11433Y16001D2*
Y14980D1*
X11603Y16001D2*
X11262D1*
M02*
