G04 DipTrace 2.4.0.2*
%INcolor.gtl*%
%MOMM*%
%ADD13C,0.305*%
%ADD14C,0.152*%
%ADD16R,0.6X0.6*%
%ADD18R,0.4X0.5*%
%ADD19R,0.7X0.9*%
%ADD20R,0.9X0.7*%
%ADD21R,1.1X1.0*%
%ADD22R,1.6X1.7*%
%ADD23R,2.0X1.7*%
%ADD25R,1.2X0.737*%
%ADD26R,1.7X1.6*%
%ADD27R,1.7X2.032*%
%ADD28C,0.711*%
%FSLAX53Y53*%
G04*
G71*
G90*
G75*
G01*
%LNTop*%
%LPD*%
X14768Y16866D2*
D13*
Y15570D1*
X14701Y15503D1*
X14935Y13907D2*
Y15269D1*
X14701Y15503D1*
X16350Y11270D2*
Y13252D1*
X15696Y13907D1*
X14935D1*
X16294Y15640D2*
X14838D1*
X14701Y15503D1*
X21568Y13768D2*
X21808D1*
X21849Y13727D1*
X23887D1*
X23970Y13810D1*
X17694Y16650D2*
X17389D1*
X17138Y16902D1*
X17694Y14630D2*
Y15640D1*
X19690Y13534D2*
Y12070D1*
X18890Y11270D1*
X16294Y16650D2*
X16388D1*
X16954Y16084D1*
Y13049D1*
X18733Y11270D1*
X18890D1*
X20390Y13534D2*
Y12310D1*
X21430Y11270D1*
X17694Y17660D2*
X17779D1*
X18333Y17106D1*
Y14985D1*
X18886Y14432D1*
X13180Y16828D2*
Y15724D1*
X13401Y15503D1*
Y14072D1*
X13235Y13907D1*
X13810Y11270D2*
X13109D1*
Y13781D1*
X13235Y13907D1*
X21568Y15068D2*
Y16235D1*
X21159Y16643D1*
X20453D1*
X20342Y16754D1*
X16294Y14630D2*
X16038D1*
X15829Y14838D1*
X21498Y16194D2*
X21568Y16235D1*
X13235Y13907D2*
Y11845D1*
X13810Y11270D1*
X19690Y14534D2*
Y14704D1*
X19283Y15111D1*
Y17162D1*
X19968Y17847D1*
X20342D1*
X20390Y14534D2*
Y15615D1*
X20342Y15662D1*
X16294Y17660D2*
Y17923D1*
X15010D1*
X14768Y18166D1*
X13218D1*
X13180Y18128D1*
D28*
X15829Y14838D3*
X21498Y16194D3*
X17138Y16902D3*
X18886Y14432D3*
X13129Y19275D2*
D14*
X22109D1*
X12981Y19126D2*
X22259D1*
X12831Y18977D2*
X22407D1*
X12681Y18828D2*
X14168D1*
X15367D2*
X22557D1*
X13779Y18678D2*
X14168D1*
X15367D2*
X22707D1*
X12384Y18529D2*
X12582D1*
X15367D2*
X20197D1*
X20487D2*
X22855D1*
X12236Y18380D2*
X12582D1*
X15367D2*
X19809D1*
X20875D2*
X23005D1*
X12086Y18231D2*
X12582D1*
X16544D2*
X19678D1*
X21006D2*
X23152D1*
X11936Y18082D2*
X12582D1*
X16844D2*
X17144D1*
X18244D2*
X19578D1*
X21106D2*
X23302D1*
X11788Y17933D2*
X12582D1*
X16844D2*
X17144D1*
X18244D2*
X19492D1*
X21163D2*
X23452D1*
X11638Y17784D2*
X12582D1*
X16844D2*
X17144D1*
X18244D2*
X19342D1*
X21192D2*
X23600D1*
X11491Y17635D2*
X12582D1*
X13779D2*
X14168D1*
X16844D2*
X17144D1*
X18365D2*
X19195D1*
X21211D2*
X23750D1*
X11341Y17486D2*
X12582D1*
X13779D2*
X14168D1*
X16844D2*
X17037D1*
X18516D2*
X19045D1*
X21211D2*
X23898D1*
X11191Y17337D2*
X12582D1*
X13779D2*
X14168D1*
X18658D2*
X18923D1*
X21211D2*
X24048D1*
X11043Y17188D2*
X12582D1*
X13779D2*
X14168D1*
X18727D2*
X18883D1*
X21211D2*
X24198D1*
X10893Y17039D2*
X12582D1*
X13779D2*
X14168D1*
X18735D2*
X18880D1*
X21211D2*
X24345D1*
X10751Y16890D2*
X12582D1*
X13779D2*
X14168D1*
X18735D2*
X18880D1*
X21211D2*
X24488D1*
X10751Y16741D2*
X12582D1*
X13779D2*
X14168D1*
X18735D2*
X18880D1*
X21192D2*
X24488D1*
X10751Y16592D2*
X12582D1*
X13779D2*
X14168D1*
X18735D2*
X18880D1*
X21211D2*
X24488D1*
X10751Y16442D2*
X12582D1*
X13779D2*
X14168D1*
X18735D2*
X18880D1*
X21211D2*
X24488D1*
X10751Y16293D2*
X12582D1*
X13779D2*
X14168D1*
X18735D2*
X18880D1*
X21211D2*
X24488D1*
X10751Y16144D2*
X12582D1*
X13779D2*
X14365D1*
X18735D2*
X18880D1*
X21211D2*
X24488D1*
X10751Y15995D2*
X12701D1*
X18735D2*
X18880D1*
X21211D2*
X24488D1*
X10751Y15846D2*
X12701D1*
X18735D2*
X18880D1*
X21211D2*
X24488D1*
X10751Y15697D2*
X12701D1*
X18735D2*
X18880D1*
X22166D2*
X24488D1*
X10751Y15548D2*
X12701D1*
X18735D2*
X18880D1*
X22166D2*
X24488D1*
X10751Y15399D2*
X12701D1*
X18735D2*
X18880D1*
X22166D2*
X24488D1*
X10751Y15250D2*
X12701D1*
X18735D2*
X18880D1*
X22166D2*
X24488D1*
X10751Y15101D2*
X12701D1*
X18780D2*
X18880D1*
X20821D2*
X20969D1*
X22166D2*
X24488D1*
X10751Y14952D2*
X12701D1*
X20840D2*
X20969D1*
X22166D2*
X24488D1*
X10751Y14803D2*
X14532D1*
X20840D2*
X20969D1*
X22166D2*
X22921D1*
X10751Y14654D2*
X14532D1*
X20840D2*
X20969D1*
X22166D2*
X22921D1*
X10751Y14505D2*
X12434D1*
X14034D2*
X14134D1*
X20840D2*
X20969D1*
X22166D2*
X22921D1*
X10751Y14356D2*
X12434D1*
X14034D2*
X14134D1*
X20840D2*
X20969D1*
X22166D2*
X22921D1*
X10751Y14206D2*
X12434D1*
X14034D2*
X14134D1*
X18244D2*
X18327D1*
X20840D2*
X20969D1*
X22166D2*
X22921D1*
X10751Y14057D2*
X12434D1*
X14034D2*
X14134D1*
X17356D2*
X18416D1*
X20840D2*
X20969D1*
X10751Y13908D2*
X12434D1*
X14034D2*
X14134D1*
X17356D2*
X18599D1*
X20840D2*
X20969D1*
X10751Y13759D2*
X12434D1*
X14034D2*
X14134D1*
X17356D2*
X19240D1*
X20840D2*
X20969D1*
X10751Y13610D2*
X12434D1*
X14034D2*
X14134D1*
X17356D2*
X19240D1*
X20840D2*
X20969D1*
X10751Y13461D2*
X12434D1*
X14034D2*
X14134D1*
X17356D2*
X19240D1*
X20840D2*
X20969D1*
X10751Y13312D2*
X12434D1*
X14034D2*
X14134D1*
X17356D2*
X19240D1*
X20840D2*
X20969D1*
X22166D2*
X22921D1*
X10853Y13163D2*
X15878D1*
X17401D2*
X19240D1*
X20840D2*
X20969D1*
X22166D2*
X22921D1*
X11000Y13014D2*
X15949D1*
X17551D2*
X19288D1*
X20792D2*
X22921D1*
X11150Y12865D2*
X15949D1*
X17699D2*
X19288D1*
X20792D2*
X22921D1*
X11300Y12716D2*
X15949D1*
X17849D2*
X19288D1*
X20792D2*
X23940D1*
X11448Y12567D2*
X15949D1*
X17999D2*
X19288D1*
X20792D2*
X23790D1*
X11598Y12418D2*
X15949D1*
X18146D2*
X19288D1*
X20844D2*
X23643D1*
X11746Y12269D2*
X12710D1*
X14910D2*
X15251D1*
X22530D2*
X23493D1*
X11896Y12120D2*
X12710D1*
X14910D2*
X15251D1*
X22530D2*
X23345D1*
X12046Y11970D2*
X12710D1*
X14910D2*
X15251D1*
X22530D2*
X23195D1*
X12193Y11821D2*
X12710D1*
X14910D2*
X15251D1*
X22530D2*
X23045D1*
X12343Y11672D2*
X12710D1*
X14910D2*
X15251D1*
X22530D2*
X22897D1*
X12491Y11523D2*
X12710D1*
X14910D2*
X15251D1*
X22530D2*
X22747D1*
X14910Y11374D2*
X15251D1*
X14910Y11225D2*
X15251D1*
X14910Y11076D2*
X15251D1*
X14910Y10927D2*
X15251D1*
X14910Y10778D2*
X15251D1*
X16571Y18195D2*
X16829D1*
Y17407D1*
X16950Y17462D1*
X17024Y17481D1*
X17099Y17491D1*
X17159D1*
Y18195D1*
X18229D1*
Y17759D1*
X18607Y17379D1*
X18655Y17321D1*
X18691Y17253D1*
X18713Y17181D1*
X18720Y17106D1*
Y15146D1*
X18848Y15021D1*
X18907D1*
X18896Y15111D1*
Y17162D1*
X18903Y17237D1*
X18925Y17310D1*
X18961Y17377D1*
X19009Y17435D1*
X19553Y17979D1*
X19585Y18067D1*
X19654Y18175D1*
X19750Y18312D1*
X19794Y18360D1*
X19905Y18422D1*
X20037Y18488D1*
X20098Y18508D1*
X20298Y18546D1*
X20386D1*
X20586Y18508D1*
X20647Y18487D1*
X20847Y18387D1*
X20901Y18351D1*
X20978Y18250D1*
X21079Y18106D1*
X21129Y17989D1*
X21162Y17900D1*
X21177Y17818D1*
Y17682D1*
X21196Y17683D1*
Y16801D1*
X21174D1*
X21177Y16748D1*
Y16683D1*
X21196D1*
Y15826D1*
X21174D1*
X21181Y15753D1*
X22152D1*
X22154Y14115D1*
X22938D1*
X22935Y14554D1*
Y14895D1*
X24505D1*
X24504Y16896D1*
X21975Y19425D1*
X18731Y19424D1*
X13261D1*
X12909Y19069D1*
X12652Y18811D1*
X13434Y18813D1*
X13765D1*
Y18553D1*
X14183D1*
Y18851D1*
X15352D1*
Y18310D1*
X16294Y18311D1*
X16370Y18303D1*
X16443Y18281D1*
X16510Y18245D1*
X16571Y18194D1*
X18229Y14543D2*
Y14096D1*
X17341D1*
Y13210D1*
X18246Y12304D1*
X19303Y12305D1*
Y13049D1*
X19255Y13050D1*
Y13973D1*
X19189Y13925D1*
X19121Y13890D1*
X19049Y13865D1*
X18975Y13848D1*
X18899Y13842D1*
X18823Y13845D1*
X18748Y13858D1*
X18675Y13881D1*
X18606Y13912D1*
X18541Y13953D1*
X18483Y14001D1*
X18431Y14057D1*
X18386Y14118D1*
X18350Y14185D1*
X18323Y14257D1*
X18305Y14331D1*
X18296Y14406D1*
X18298Y14475D1*
X18227Y14544D1*
X19305Y14019D2*
X20125Y14017D1*
X20184Y14019D1*
X20825D1*
Y13050D1*
X20775D1*
X20777Y12696D1*
Y12470D1*
X20942Y12306D1*
X22098Y12305D1*
X22515D1*
Y11274D1*
X23966Y12726D1*
X22935Y12725D1*
Y13342D1*
X22287Y13340D1*
X22152D1*
Y13084D1*
X20983D1*
X20985Y14453D1*
X20983Y14506D1*
Y15266D1*
X20935Y15197D1*
X20890Y15149D1*
X20777Y15086D1*
Y15017D1*
X20825Y15019D1*
Y14050D1*
X19955Y14052D1*
X19896Y14050D1*
X19336D1*
X19251Y13968D1*
X14184Y17481D2*
X14183Y17779D1*
X13765D1*
X13763Y17443D1*
X13765Y17391D1*
Y16143D1*
X12596D1*
Y18755D1*
X10735Y16895D1*
X10736Y13651D1*
Y13264D1*
X12726Y11274D1*
X12725Y12305D1*
X14895D1*
Y10735D1*
X15264Y10736D1*
X15265Y11455D1*
Y12305D1*
X15963D1*
Y13092D1*
X15718Y13337D1*
X15720Y13172D1*
X14150D1*
Y14641D1*
X14548D1*
X14547Y14919D1*
X14016Y14921D1*
X13963Y14919D1*
X12716D1*
Y16088D1*
X14380D1*
X14381Y16182D1*
X14183Y16181D1*
X14185Y17551D1*
X12465Y14641D2*
X14020D1*
Y13172D1*
X12450D1*
Y14641D1*
X12465D1*
X13401Y16088D2*
Y14919D1*
X12716Y15503D2*
X13401D1*
X13235Y14641D2*
Y13172D1*
X12450Y13907D2*
X14019D1*
X21568Y15753D2*
Y15068D1*
X20983D2*
X22152D1*
X13180Y16828D2*
Y16144D1*
X12596Y16828D2*
X13765D1*
X20342Y16754D2*
X21177D1*
X13810Y12304D2*
Y11270D1*
X12726D2*
X14894D1*
D16*
X16294Y17660D3*
Y16650D3*
Y15640D3*
Y14630D3*
X17694D3*
Y15640D3*
Y16650D3*
Y17660D3*
D18*
X19690Y13534D3*
X20390D3*
Y14534D3*
X19690D3*
D19*
X14768Y18166D3*
Y16866D3*
D20*
X13401Y15503D3*
X14701D3*
D21*
X13235Y13907D3*
X14935D3*
D19*
X21568Y13768D3*
Y15068D3*
X13180Y18128D3*
Y16828D3*
D22*
X23970Y13810D3*
D23*
X25240D3*
G36*
X19742Y15691D2*
Y16131D1*
X20942D1*
Y15691D1*
X20882Y15531D1*
X20742Y15331D1*
X20542Y15231D1*
X20342Y15193D1*
X20142Y15231D1*
X19942Y15331D1*
X19802Y15531D1*
X19742Y15691D1*
G37*
G36*
X20942Y17818D2*
Y17378D1*
X19742D1*
Y17818D1*
X19802Y17978D1*
X19942Y18178D1*
X20142Y18278D1*
X20342Y18316D1*
X20542Y18278D1*
X20742Y18178D1*
X20882Y17978D1*
X20942Y17818D1*
G37*
D25*
X20342Y16754D3*
D26*
X13810Y11270D3*
X16350D3*
D27*
X13810Y10000D3*
X16350D3*
D26*
X18890Y11270D3*
X21430D3*
D27*
X18890Y10000D3*
X21430D3*
M02*
