G04 DipTrace 2.4.0.2*
%INcolor.gto*%
%MOMM*%
%ADD10C,0.25*%
%ADD14C,0.152*%
%ADD15O,0.5X0.45*%
%ADD17O,0.377X0.312*%
%ADD43C,0.118*%
%ADD44C,0.157*%
%ADD45C,0.111*%
%FSLAX53Y53*%
G04*
G71*
G90*
G75*
G01*
%LNTopSilk*%
%LPD*%
X18244Y18245D2*
D10*
X15744D1*
Y14045D1*
X18244D1*
Y18245D1*
D15*
X15294Y18070D3*
X19340Y13534D2*
D10*
Y14534D1*
X20740Y13534D2*
Y14534D1*
D17*
X19418Y13064D3*
X21017Y15717D2*
D14*
G02X19667Y15717I-675J80D01*
G01*
Y17792D2*
G02X21017Y17792I675J-80D01*
G01*
X19667Y17754D2*
Y15755D1*
X21017Y17754D2*
Y15755D1*
X18634Y18049D2*
D43*
Y17502D1*
X18656Y17393D1*
X18700Y17320D1*
X18766Y17283D1*
X18809D1*
X18875Y17320D1*
X18919Y17393D1*
X18940Y17502D1*
Y18049D1*
X19082Y17902D2*
X19126Y17939D1*
X19191Y18048D1*
Y17283D1*
X18746Y15276D2*
X18942D1*
X19008Y15313D1*
X19030Y15349D1*
X19052Y15422D1*
Y15495D1*
X19030Y15567D1*
X19008Y15604D1*
X18942Y15641D1*
X18746D1*
Y14875D1*
X18899Y15276D2*
X19052Y14875D1*
X19193Y15494D2*
X19237Y15531D1*
X19303Y15640D1*
Y14875D1*
X14011Y18329D2*
X13989Y18401D1*
X13945Y18474D1*
X13902Y18511D1*
X13815D1*
X13771Y18474D1*
X13727Y18401D1*
X13705Y18329D1*
X13683Y18219D1*
Y18036D1*
X13705Y17928D1*
X13727Y17855D1*
X13771Y17782D1*
X13815Y17745D1*
X13902D1*
X13945Y17782D1*
X13989Y17855D1*
X14011Y17928D1*
X14152Y18364D2*
X14196Y18401D1*
X14262Y18510D1*
Y17745D1*
X12325Y15780D2*
X12303Y15852D1*
X12259Y15925D1*
X12216Y15961D1*
X12128D1*
X12084Y15925D1*
X12041Y15852D1*
X12019Y15780D1*
X11997Y15670D1*
Y15487D1*
X12019Y15379D1*
X12041Y15305D1*
X12084Y15233D1*
X12128Y15196D1*
X12216D1*
X12259Y15233D1*
X12303Y15305D1*
X12325Y15379D1*
X12488Y15779D2*
Y15815D1*
X12510Y15888D1*
X12532Y15924D1*
X12576Y15961D1*
X12663D1*
X12707Y15924D1*
X12728Y15888D1*
X12751Y15815D1*
Y15742D1*
X12728Y15669D1*
X12685Y15561D1*
X12466Y15196D1*
X12772D1*
X11968Y14148D2*
X11947Y14220D1*
X11903Y14293D1*
X11859Y14329D1*
X11772D1*
X11728Y14293D1*
X11684Y14220D1*
X11662Y14148D1*
X11640Y14038D1*
Y13855D1*
X11662Y13747D1*
X11684Y13673D1*
X11728Y13601D1*
X11772Y13564D1*
X11859D1*
X11903Y13601D1*
X11947Y13673D1*
X11968Y13747D1*
X12153Y14329D2*
X12393D1*
X12263Y14037D1*
X12328D1*
X12372Y14001D1*
X12393Y13965D1*
X12416Y13855D1*
Y13783D1*
X12393Y13673D1*
X12350Y13600D1*
X12284Y13564D1*
X12219D1*
X12153Y13600D1*
X12132Y13637D1*
X12109Y13710D1*
X22095Y15745D2*
X22292D1*
X22358Y15783D1*
X22380Y15819D1*
X22402Y15891D1*
Y15964D1*
X22380Y16037D1*
X22358Y16074D1*
X22292Y16110D1*
X22095D1*
Y15345D1*
X22249Y15745D2*
X22402Y15345D1*
X22565Y15927D2*
Y15964D1*
X22587Y16037D1*
X22609Y16073D1*
X22652Y16109D1*
X22740D1*
X22783Y16073D1*
X22805Y16037D1*
X22827Y15964D1*
Y15891D1*
X22805Y15818D1*
X22762Y15709D1*
X22543Y15345D1*
X22849D1*
X11939Y17571D2*
X12136D1*
X12202Y17608D1*
X12224Y17644D1*
X12246Y17717D1*
Y17790D1*
X12224Y17863D1*
X12202Y17900D1*
X12136Y17936D1*
X11939D1*
Y17170D1*
X12092Y17571D2*
X12246Y17170D1*
X12431Y17935D2*
X12671D1*
X12540Y17644D1*
X12606D1*
X12649Y17607D1*
X12671Y17571D1*
X12693Y17462D1*
Y17389D1*
X12671Y17280D1*
X12627Y17206D1*
X12562Y17170D1*
X12496D1*
X12431Y17206D1*
X12409Y17243D1*
X12387Y17316D1*
X21241Y17917D2*
X21263Y17881D1*
X21285Y17917D1*
X21263Y17954D1*
X21241Y17917D1*
X21263Y17662D2*
Y17152D1*
X21449Y17734D2*
Y17771D1*
X21470Y17844D1*
X21492Y17880D1*
X21536Y17916D1*
X21624D1*
X21667Y17880D1*
X21689Y17844D1*
X21711Y17771D1*
Y17698D1*
X21689Y17625D1*
X21645Y17516D1*
X21426Y17152D1*
X21733D1*
X22137Y17553D2*
X22093Y17626D1*
X22049Y17662D1*
X21984D1*
X21940Y17626D1*
X21896Y17553D1*
X21874Y17443D1*
Y17371D1*
X21896Y17261D1*
X21940Y17189D1*
X21984Y17152D1*
X22049D1*
X22093Y17189D1*
X22137Y17261D1*
X22278Y17553D2*
X22474D1*
X22540Y17590D1*
X22562Y17626D1*
X22584Y17698D1*
Y17772D1*
X22562Y17844D1*
X22540Y17881D1*
X22474Y17917D1*
X22278D1*
Y17152D1*
X22431Y17553D2*
X22584Y17152D1*
X13075Y13231D2*
D45*
X13269Y12211D1*
X13464Y13231D1*
X13575D2*
Y12211D1*
X13745D1*
X13818Y12260D1*
X13867Y12357D1*
X13891Y12454D1*
X13915Y12599D1*
Y12843D1*
X13891Y12989D1*
X13867Y13085D1*
X13818Y13183D1*
X13745Y13231D1*
X13575D1*
X14026D2*
Y12211D1*
X14196D1*
X14269Y12260D1*
X14318Y12357D1*
X14342Y12454D1*
X14367Y12599D1*
Y12843D1*
X14342Y12989D1*
X14318Y13085D1*
X14269Y13183D1*
X14196Y13231D1*
X14026D1*
X14006Y19478D2*
D44*
X13977Y19574D1*
X13918Y19672D1*
X13860Y19720D1*
X13743D1*
X13685Y19672D1*
X13627Y19574D1*
X13597Y19478D1*
X13568Y19332D1*
Y19088D1*
X13597Y18943D1*
X13627Y18846D1*
X13685Y18749D1*
X13743Y18700D1*
X13860D1*
X13918Y18749D1*
X13977Y18846D1*
X14006Y18943D1*
X14339Y19380D2*
X14281Y19332D1*
X14223Y19234D1*
X14194Y19088D1*
Y18992D1*
X14223Y18846D1*
X14281Y18749D1*
X14339Y18700D1*
X14427D1*
X14486Y18749D1*
X14544Y18846D1*
X14573Y18992D1*
Y19088D1*
X14544Y19234D1*
X14486Y19332D1*
X14427Y19380D1*
X14339D1*
X14761Y19720D2*
Y18700D1*
X15095Y19380D2*
X15037Y19332D1*
X14979Y19234D1*
X14950Y19088D1*
Y18992D1*
X14979Y18846D1*
X15037Y18749D1*
X15095Y18700D1*
X15183D1*
X15241Y18749D1*
X15299Y18846D1*
X15329Y18992D1*
Y19088D1*
X15299Y19234D1*
X15241Y19332D1*
X15183Y19380D1*
X15095D1*
X15517D2*
Y18700D1*
Y19088D2*
X15547Y19234D1*
X15605Y19332D1*
X15663Y19380D1*
X15751D1*
X16911Y19720D2*
X16532D1*
Y18700D1*
Y19234D2*
X16765D1*
X17099Y19720D2*
Y18700D1*
X17288Y19088D2*
X17637D1*
Y19186D1*
X17608Y19284D1*
X17579Y19332D1*
X17521Y19380D1*
X17433D1*
X17375Y19332D1*
X17317Y19234D1*
X17288Y19088D1*
Y18992D1*
X17317Y18846D1*
X17375Y18749D1*
X17433Y18700D1*
X17521D1*
X17579Y18749D1*
X17637Y18846D1*
X17826Y19380D2*
X18146Y18700D1*
Y19380D2*
X17826Y18700D1*
X19393D2*
Y19720D1*
X19160Y18700D1*
X18927Y19720D1*
Y18700D1*
X19727Y19380D2*
X19669Y19332D1*
X19611Y19234D1*
X19582Y19088D1*
Y18992D1*
X19611Y18846D1*
X19669Y18749D1*
X19727Y18700D1*
X19815D1*
X19874Y18749D1*
X19931Y18846D1*
X19961Y18992D1*
Y19088D1*
X19931Y19234D1*
X19874Y19332D1*
X19815Y19380D1*
X19727D1*
X20499Y19720D2*
Y18700D1*
Y19234D2*
X20441Y19332D1*
X20382Y19380D1*
X20295D1*
X20237Y19332D1*
X20178Y19234D1*
X20149Y19088D1*
Y18992D1*
X20178Y18846D1*
X20237Y18749D1*
X20295Y18700D1*
X20382D1*
X20441Y18749D1*
X20499Y18846D1*
X20687Y19380D2*
Y18894D1*
X20716Y18749D1*
X20775Y18700D1*
X20863D1*
X20920Y18749D1*
X21008Y18894D1*
Y19380D2*
Y18700D1*
X21196Y19720D2*
Y18700D1*
X21385Y19088D2*
X21734D1*
Y19186D1*
X21705Y19284D1*
X21676Y19332D1*
X21618Y19380D1*
X21530D1*
X21472Y19332D1*
X21413Y19234D1*
X21385Y19088D1*
Y18992D1*
X21413Y18846D1*
X21472Y18749D1*
X21530Y18700D1*
X21618D1*
X21676Y18749D1*
X21734Y18846D1*
X16040Y12962D2*
D45*
X16015Y13059D1*
X15967Y13157D1*
X15918Y13205D1*
X15821D1*
X15772Y13157D1*
X15724Y13059D1*
X15699Y12962D1*
X15675Y12816D1*
Y12573D1*
X15699Y12428D1*
X15724Y12330D1*
X15772Y12233D1*
X15821Y12184D1*
X15918D1*
X15967Y12233D1*
X16015Y12330D1*
X16040Y12428D1*
Y12573D1*
X15918D1*
X16491Y13205D2*
Y12184D1*
X16151Y13205D1*
Y12184D1*
X16602Y13205D2*
Y12184D1*
X16772D1*
X16845Y12233D1*
X16894Y12330D1*
X16918Y12428D1*
X16942Y12573D1*
Y12816D1*
X16918Y12962D1*
X16894Y13059D1*
X16845Y13157D1*
X16772Y13205D1*
X16602D1*
X18523Y13073D2*
X18475Y13171D1*
X18402Y13219D1*
X18305D1*
X18232Y13171D1*
X18183Y13073D1*
Y12977D1*
X18208Y12879D1*
X18232Y12831D1*
X18280Y12783D1*
X18426Y12685D1*
X18475Y12637D1*
X18499Y12587D1*
X18523Y12491D1*
Y12345D1*
X18475Y12248D1*
X18402Y12199D1*
X18305D1*
X18232Y12248D1*
X18183Y12345D1*
X18999Y12977D2*
X18975Y13073D1*
X18926Y13171D1*
X18878Y13219D1*
X18780D1*
X18732Y13171D1*
X18683Y13073D1*
X18659Y12977D1*
X18634Y12831D1*
Y12587D1*
X18659Y12442D1*
X18683Y12345D1*
X18732Y12248D1*
X18780Y12199D1*
X18878D1*
X18926Y12248D1*
X18975Y12345D1*
X18999Y12442D1*
X19110Y13219D2*
Y12199D1*
X19401D1*
X21123Y13057D2*
X21075Y13155D1*
X21002Y13203D1*
X20905D1*
X20832Y13155D1*
X20783Y13057D1*
Y12961D1*
X20808Y12863D1*
X20832Y12815D1*
X20880Y12766D1*
X21026Y12669D1*
X21075Y12620D1*
X21099Y12571D1*
X21123Y12474D1*
Y12328D1*
X21075Y12232D1*
X21002Y12182D1*
X20905D1*
X20832Y12232D1*
X20783Y12328D1*
X21235Y13203D2*
Y12182D1*
X21405D1*
X21478Y12232D1*
X21527Y12328D1*
X21551Y12426D1*
X21575Y12571D1*
Y12815D1*
X21551Y12961D1*
X21527Y13057D1*
X21478Y13155D1*
X21405Y13203D1*
X21235D1*
X22075Y12182D2*
X21880Y13203D1*
X21686Y12182D1*
X21759Y12523D2*
X22002D1*
X22050Y13411D2*
X23071D1*
X22050Y13862D2*
X23071D1*
X22050Y13522D1*
X23071D1*
X22050Y14144D2*
X23071D1*
X22050Y13973D2*
Y14314D1*
X11233Y14623D2*
D44*
Y14885D1*
X11184Y14973D1*
X11135Y15003D1*
X11039Y15032D1*
X10941D1*
X10845Y15003D1*
X10795Y14973D1*
X10747Y14885D1*
Y14623D1*
X11768D1*
X11233Y14827D2*
X11768Y15032D1*
X10748Y15395D2*
X10796Y15307D1*
X10942Y15249D1*
X11185Y15220D1*
X11331D1*
X11573Y15249D1*
X11719Y15307D1*
X11768Y15395D1*
Y15453D1*
X11719Y15541D1*
X11573Y15599D1*
X11331Y15628D1*
X11185D1*
X10942Y15599D1*
X10796Y15541D1*
X10748Y15453D1*
Y15395D1*
X10942Y15599D2*
X11573Y15249D1*
X11670Y15845D2*
X11719Y15816D1*
X11768Y15845D1*
X11719Y15875D1*
X11670Y15845D1*
X11768Y16355D2*
X10748D1*
X11427Y16063D1*
Y16501D1*
X23674Y15206D2*
X23625D1*
X23528Y15235D1*
X23479Y15264D1*
X23431Y15323D1*
Y15439D1*
X23479Y15497D1*
X23528Y15526D1*
X23625Y15556D1*
X23722D1*
X23820Y15526D1*
X23965Y15468D1*
X24451Y15176D1*
Y15585D1*
X23431Y15948D2*
X23479Y15861D1*
X23625Y15802D1*
X23868Y15773D1*
X24014D1*
X24257Y15802D1*
X24403Y15861D1*
X24451Y15948D1*
Y16006D1*
X24403Y16094D1*
X24257Y16152D1*
X24014Y16181D1*
X23868D1*
X23625Y16152D1*
X23479Y16094D1*
X23431Y16006D1*
Y15948D1*
X23625Y16152D2*
X24257Y15802D1*
X23625Y16370D2*
X23576Y16428D1*
X23431Y16516D1*
X24451D1*
X23431Y17054D2*
Y16763D1*
X23868Y16734D1*
X23820Y16763D1*
X23770Y16850D1*
Y16937D1*
X23820Y17025D1*
X23916Y17083D1*
X24062Y17112D1*
X24159D1*
X24305Y17083D1*
X24403Y17025D1*
X24451Y16937D1*
Y16850D1*
X24403Y16763D1*
X24353Y16734D1*
X24257Y16704D1*
M02*
