G04 DipTrace 2.4.0.2*
%INDRV2605.gts*%
%MOIN*%
%ADD12C,0.003*%
%ADD27C,0.0114*%
%ADD29R,0.0685X0.0816*%
%ADD33R,0.0816X0.0685*%
%ADD35R,0.037X0.0291*%
%ADD37R,0.0291X0.037*%
%FSLAX44Y44*%
G04*
G70*
G90*
G75*
G01*
%LNTopMask*%
%LPD*%
D37*
X4853Y5959D3*
Y5447D3*
D35*
X5578Y4677D3*
X5066D3*
D37*
X6183Y5318D3*
Y5830D3*
D33*
X6938Y4937D3*
Y5937D3*
D29*
X5938Y6937D3*
X4938D3*
X5938Y3937D3*
X4938D3*
D33*
X3938Y4937D3*
Y5937D3*
X5510Y5326D2*
D12*
Y5330D1*
X5511Y5335D1*
X5512Y5339D1*
X5513Y5344D1*
X5514Y5348D1*
X5516Y5353D1*
X5518Y5357D1*
X5520Y5361D1*
X5522Y5365D1*
X5525Y5368D1*
X5528Y5372D1*
X5531Y5375D1*
X5535Y5378D1*
X5538Y5381D1*
X5542Y5383D1*
X5546Y5385D1*
X5550Y5387D1*
X5554Y5389D1*
X5558Y5390D1*
X5563Y5391D1*
X5567Y5392D1*
X5572D1*
X5576D1*
X5581D1*
X5585Y5391D1*
X5589Y5390D1*
X5594Y5389D1*
X5598Y5387D1*
X5602Y5385D1*
X5606Y5383D1*
X5609Y5381D1*
X5613Y5378D1*
X5616Y5375D1*
X5620Y5372D1*
X5623Y5368D1*
X5625Y5365D1*
X5628Y5361D1*
X5630Y5357D1*
X5632Y5353D1*
X5634Y5348D1*
X5635Y5344D1*
X5636Y5339D1*
X5637Y5335D1*
Y5330D1*
X5638Y5326D1*
X5637Y5321D1*
Y5316D1*
X5636Y5312D1*
X5635Y5307D1*
X5634Y5303D1*
X5632Y5299D1*
X5630Y5294D1*
X5628Y5290D1*
X5625Y5287D1*
X5623Y5283D1*
X5620Y5280D1*
X5616Y5276D1*
X5613Y5273D1*
X5609Y5271D1*
X5606Y5268D1*
X5602Y5266D1*
X5598Y5264D1*
X5594Y5263D1*
X5589Y5261D1*
X5585Y5260D1*
X5581D1*
X5576Y5259D1*
X5572D1*
X5567Y5260D1*
X5563D1*
X5558Y5261D1*
X5554Y5263D1*
X5550Y5264D1*
X5546Y5266D1*
X5542Y5268D1*
X5538Y5271D1*
X5535Y5273D1*
X5531Y5276D1*
X5528Y5280D1*
X5525Y5283D1*
X5522Y5287D1*
X5520Y5290D1*
X5518Y5294D1*
X5516Y5299D1*
X5514Y5303D1*
X5513Y5307D1*
X5512Y5312D1*
X5511Y5316D1*
X5510Y5321D1*
Y5326D1*
D27*
X5771Y5129D3*
X5575D3*
X5378D3*
X5771Y5326D3*
X5378D3*
X5771Y5523D3*
X5575D3*
X5378D3*
M02*
