G04 DipTrace 2.4.0.2*
%INDRV2605panel2.gbl*%
%MOIN*%
%ADD14C,0.01*%
%ADD21R,0.08X0.0669*%
%ADD23R,0.0669X0.08*%
%ADD30C,0.018*%
%FSLAX44Y44*%
G04*
G70*
G90*
G75*
G01*
%LNBottom*%
%LPD*%
X5097Y4097D2*
D14*
Y4809D1*
X5533Y5245D1*
X6097Y4097D2*
Y4723D1*
X5789Y5031D1*
Y5374D1*
X5558Y5606D1*
Y5721D1*
X5727Y6198D2*
X5565Y6371D1*
X5491Y6444D1*
X5230Y6636D1*
Y6964D1*
X5097Y7097D1*
X6097D2*
X6253D1*
X6164Y6047D2*
Y5678D1*
X5971Y5486D1*
X6233Y5150D2*
Y5528D1*
X6394Y5688D1*
Y6101D1*
X6222Y6273D1*
X6109D1*
X5952Y6115D1*
Y6076D1*
X5839Y5963D1*
X5542D1*
X5502Y6003D1*
D30*
X5971Y5486D3*
X5558Y5721D3*
X5533Y5245D3*
X6233Y5150D3*
X5502Y6003D3*
X5075Y5123D3*
X4832Y4817D3*
X5727Y6198D3*
X6164Y6047D3*
D21*
X7097Y5097D3*
Y6097D3*
G36*
X6601Y6432D2*
X6703D1*
Y5762D1*
X6601D1*
X6495Y5969D1*
Y6225D1*
X6601Y6432D1*
G37*
G36*
Y5432D2*
X6703D1*
Y4762D1*
X6601D1*
X6495Y4969D1*
Y5225D1*
X6601Y5432D1*
G37*
D23*
X6097Y7097D3*
X5097D3*
G36*
X4762Y6601D2*
Y6703D1*
X5432D1*
Y6601D1*
X5225Y6495D1*
X4969D1*
X4762Y6601D1*
G37*
G36*
X5762D2*
Y6703D1*
X6432D1*
Y6601D1*
X6225Y6495D1*
X5969D1*
X5762Y6601D1*
G37*
D23*
X6097Y4097D3*
X5097D3*
G36*
X5432Y4593D2*
Y4491D1*
X4762D1*
Y4593D1*
X4969Y4699D1*
X5225D1*
X5432Y4593D1*
G37*
G36*
X6432D2*
Y4491D1*
X5762D1*
Y4593D1*
X5969Y4699D1*
X6225D1*
X6432Y4593D1*
G37*
D21*
X4097Y5097D3*
Y6097D3*
G36*
X4593Y5762D2*
X4491D1*
Y6432D1*
X4593D1*
X4699Y6225D1*
Y5969D1*
X4593Y5762D1*
G37*
G36*
Y4762D2*
X4491D1*
Y5432D1*
X4593D1*
X4699Y5225D1*
Y4969D1*
X4593Y4762D1*
G37*
X11417Y4097D2*
D14*
Y4809D1*
X11853Y5245D1*
X12417Y4097D2*
Y4723D1*
X12109Y5031D1*
Y5374D1*
X11878Y5606D1*
Y5721D1*
X12047Y6198D2*
X11885Y6371D1*
X11811Y6444D1*
X11550Y6636D1*
Y6964D1*
X11417Y7097D1*
X12417D2*
X12573D1*
X12484Y6047D2*
Y5678D1*
X12291Y5486D1*
X12553Y5150D2*
Y5528D1*
X12714Y5688D1*
Y6101D1*
X12542Y6273D1*
X12429D1*
X12272Y6115D1*
Y6076D1*
X12159Y5963D1*
X11862D1*
X11822Y6003D1*
D30*
X12291Y5486D3*
X11878Y5721D3*
X11853Y5245D3*
X12553Y5150D3*
X11822Y6003D3*
X11395Y5123D3*
X11152Y4817D3*
X12047Y6198D3*
X12484Y6047D3*
D21*
X13417Y5097D3*
Y6097D3*
G36*
X12921Y6432D2*
X13023D1*
Y5762D1*
X12921D1*
X12815Y5969D1*
Y6225D1*
X12921Y6432D1*
G37*
G36*
Y5432D2*
X13023D1*
Y4762D1*
X12921D1*
X12815Y4969D1*
Y5225D1*
X12921Y5432D1*
G37*
D23*
X12417Y7097D3*
X11417D3*
G36*
X11082Y6601D2*
Y6703D1*
X11752D1*
Y6601D1*
X11545Y6495D1*
X11289D1*
X11082Y6601D1*
G37*
G36*
X12082D2*
Y6703D1*
X12752D1*
Y6601D1*
X12545Y6495D1*
X12289D1*
X12082Y6601D1*
G37*
D23*
X12417Y4097D3*
X11417D3*
G36*
X11752Y4593D2*
Y4491D1*
X11082D1*
Y4593D1*
X11289Y4699D1*
X11545D1*
X11752Y4593D1*
G37*
G36*
X12752D2*
Y4491D1*
X12082D1*
Y4593D1*
X12289Y4699D1*
X12545D1*
X12752Y4593D1*
G37*
D21*
X10417Y5097D3*
Y6097D3*
G36*
X10913Y5762D2*
X10811D1*
Y6432D1*
X10913D1*
X11019Y6225D1*
Y5969D1*
X10913Y5762D1*
G37*
G36*
Y4762D2*
X10811D1*
Y5432D1*
X10913D1*
X11019Y5225D1*
Y4969D1*
X10913Y4762D1*
G37*
X17737Y4097D2*
D14*
Y4809D1*
X18173Y5245D1*
X18737Y4097D2*
Y4723D1*
X18429Y5031D1*
Y5374D1*
X18198Y5606D1*
Y5721D1*
X18367Y6198D2*
X18205Y6371D1*
X18131Y6444D1*
X17870Y6636D1*
Y6964D1*
X17737Y7097D1*
X18737D2*
X18893D1*
X18804Y6047D2*
Y5678D1*
X18611Y5486D1*
X18873Y5150D2*
Y5528D1*
X19034Y5688D1*
Y6101D1*
X18862Y6273D1*
X18749D1*
X18592Y6115D1*
Y6076D1*
X18479Y5963D1*
X18182D1*
X18142Y6003D1*
D30*
X18611Y5486D3*
X18198Y5721D3*
X18173Y5245D3*
X18873Y5150D3*
X18142Y6003D3*
X17715Y5123D3*
X17472Y4817D3*
X18367Y6198D3*
X18804Y6047D3*
D21*
X19737Y5097D3*
Y6097D3*
G36*
X19241Y6432D2*
X19343D1*
Y5762D1*
X19241D1*
X19135Y5969D1*
Y6225D1*
X19241Y6432D1*
G37*
G36*
Y5432D2*
X19343D1*
Y4762D1*
X19241D1*
X19135Y4969D1*
Y5225D1*
X19241Y5432D1*
G37*
D23*
X18737Y7097D3*
X17737D3*
G36*
X17402Y6601D2*
Y6703D1*
X18072D1*
Y6601D1*
X17865Y6495D1*
X17609D1*
X17402Y6601D1*
G37*
G36*
X18402D2*
Y6703D1*
X19072D1*
Y6601D1*
X18865Y6495D1*
X18609D1*
X18402Y6601D1*
G37*
D23*
X18737Y4097D3*
X17737D3*
G36*
X18072Y4593D2*
Y4491D1*
X17402D1*
Y4593D1*
X17609Y4699D1*
X17865D1*
X18072Y4593D1*
G37*
G36*
X19072D2*
Y4491D1*
X18402D1*
Y4593D1*
X18609Y4699D1*
X18865D1*
X19072Y4593D1*
G37*
D21*
X16737Y5097D3*
Y6097D3*
G36*
X17233Y5762D2*
X17131D1*
Y6432D1*
X17233D1*
X17339Y6225D1*
Y5969D1*
X17233Y5762D1*
G37*
G36*
Y4762D2*
X17131D1*
Y5432D1*
X17233D1*
X17339Y5225D1*
Y4969D1*
X17233Y4762D1*
G37*
X24057Y4097D2*
D14*
Y4809D1*
X24493Y5245D1*
X25057Y4097D2*
Y4723D1*
X24749Y5031D1*
Y5374D1*
X24518Y5606D1*
Y5721D1*
X24687Y6198D2*
X24525Y6371D1*
X24451Y6444D1*
X24190Y6636D1*
Y6964D1*
X24057Y7097D1*
X25057D2*
X25213D1*
X25124Y6047D2*
Y5678D1*
X24931Y5486D1*
X25193Y5150D2*
Y5528D1*
X25354Y5688D1*
Y6101D1*
X25182Y6273D1*
X25069D1*
X24912Y6115D1*
Y6076D1*
X24799Y5963D1*
X24502D1*
X24462Y6003D1*
D30*
X24931Y5486D3*
X24518Y5721D3*
X24493Y5245D3*
X25193Y5150D3*
X24462Y6003D3*
X24035Y5123D3*
X23792Y4817D3*
X24687Y6198D3*
X25124Y6047D3*
D21*
X26057Y5097D3*
Y6097D3*
G36*
X25561Y6432D2*
X25663D1*
Y5762D1*
X25561D1*
X25455Y5969D1*
Y6225D1*
X25561Y6432D1*
G37*
G36*
Y5432D2*
X25663D1*
Y4762D1*
X25561D1*
X25455Y4969D1*
Y5225D1*
X25561Y5432D1*
G37*
D23*
X25057Y7097D3*
X24057D3*
G36*
X23722Y6601D2*
Y6703D1*
X24392D1*
Y6601D1*
X24185Y6495D1*
X23929D1*
X23722Y6601D1*
G37*
G36*
X24722D2*
Y6703D1*
X25392D1*
Y6601D1*
X25185Y6495D1*
X24929D1*
X24722Y6601D1*
G37*
D23*
X25057Y4097D3*
X24057D3*
G36*
X24392Y4593D2*
Y4491D1*
X23722D1*
Y4593D1*
X23929Y4699D1*
X24185D1*
X24392Y4593D1*
G37*
G36*
X25392D2*
Y4491D1*
X24722D1*
Y4593D1*
X24929Y4699D1*
X25185D1*
X25392Y4593D1*
G37*
D21*
X23057Y5097D3*
Y6097D3*
G36*
X23553Y5762D2*
X23451D1*
Y6432D1*
X23553D1*
X23659Y6225D1*
Y5969D1*
X23553Y5762D1*
G37*
G36*
Y4762D2*
X23451D1*
Y5432D1*
X23553D1*
X23659Y5225D1*
Y4969D1*
X23553Y4762D1*
G37*
X30377Y4097D2*
D14*
Y4809D1*
X30813Y5245D1*
X31377Y4097D2*
Y4723D1*
X31069Y5031D1*
Y5374D1*
X30838Y5606D1*
Y5721D1*
X31007Y6198D2*
X30845Y6371D1*
X30771Y6444D1*
X30510Y6636D1*
Y6964D1*
X30377Y7097D1*
X31377D2*
X31533D1*
X31444Y6047D2*
Y5678D1*
X31251Y5486D1*
X31513Y5150D2*
Y5528D1*
X31674Y5688D1*
Y6101D1*
X31502Y6273D1*
X31389D1*
X31232Y6115D1*
Y6076D1*
X31119Y5963D1*
X30822D1*
X30782Y6003D1*
D30*
X31251Y5486D3*
X30838Y5721D3*
X30813Y5245D3*
X31513Y5150D3*
X30782Y6003D3*
X30355Y5123D3*
X30112Y4817D3*
X31007Y6198D3*
X31444Y6047D3*
D21*
X32377Y5097D3*
Y6097D3*
G36*
X31881Y6432D2*
X31983D1*
Y5762D1*
X31881D1*
X31775Y5969D1*
Y6225D1*
X31881Y6432D1*
G37*
G36*
Y5432D2*
X31983D1*
Y4762D1*
X31881D1*
X31775Y4969D1*
Y5225D1*
X31881Y5432D1*
G37*
D23*
X31377Y7097D3*
X30377D3*
G36*
X30042Y6601D2*
Y6703D1*
X30712D1*
Y6601D1*
X30505Y6495D1*
X30249D1*
X30042Y6601D1*
G37*
G36*
X31042D2*
Y6703D1*
X31712D1*
Y6601D1*
X31505Y6495D1*
X31249D1*
X31042Y6601D1*
G37*
D23*
X31377Y4097D3*
X30377D3*
G36*
X30712Y4593D2*
Y4491D1*
X30042D1*
Y4593D1*
X30249Y4699D1*
X30505D1*
X30712Y4593D1*
G37*
G36*
X31712D2*
Y4491D1*
X31042D1*
Y4593D1*
X31249Y4699D1*
X31505D1*
X31712Y4593D1*
G37*
D21*
X29377Y5097D3*
Y6097D3*
G36*
X29873Y5762D2*
X29771D1*
Y6432D1*
X29873D1*
X29979Y6225D1*
Y5969D1*
X29873Y5762D1*
G37*
G36*
Y4762D2*
X29771D1*
Y5432D1*
X29873D1*
X29979Y5225D1*
Y4969D1*
X29873Y4762D1*
G37*
X36697Y4097D2*
D14*
Y4809D1*
X37133Y5245D1*
X37697Y4097D2*
Y4723D1*
X37389Y5031D1*
Y5374D1*
X37158Y5606D1*
Y5721D1*
X37327Y6198D2*
X37165Y6371D1*
X37091Y6444D1*
X36830Y6636D1*
Y6964D1*
X36697Y7097D1*
X37697D2*
X37853D1*
X37764Y6047D2*
Y5678D1*
X37571Y5486D1*
X37833Y5150D2*
Y5528D1*
X37994Y5688D1*
Y6101D1*
X37822Y6273D1*
X37709D1*
X37552Y6115D1*
Y6076D1*
X37439Y5963D1*
X37142D1*
X37102Y6003D1*
D30*
X37571Y5486D3*
X37158Y5721D3*
X37133Y5245D3*
X37833Y5150D3*
X37102Y6003D3*
X36675Y5123D3*
X36432Y4817D3*
X37327Y6198D3*
X37764Y6047D3*
D21*
X38697Y5097D3*
Y6097D3*
G36*
X38201Y6432D2*
X38303D1*
Y5762D1*
X38201D1*
X38095Y5969D1*
Y6225D1*
X38201Y6432D1*
G37*
G36*
Y5432D2*
X38303D1*
Y4762D1*
X38201D1*
X38095Y4969D1*
Y5225D1*
X38201Y5432D1*
G37*
D23*
X37697Y7097D3*
X36697D3*
G36*
X36362Y6601D2*
Y6703D1*
X37032D1*
Y6601D1*
X36825Y6495D1*
X36569D1*
X36362Y6601D1*
G37*
G36*
X37362D2*
Y6703D1*
X38032D1*
Y6601D1*
X37825Y6495D1*
X37569D1*
X37362Y6601D1*
G37*
D23*
X37697Y4097D3*
X36697D3*
G36*
X37032Y4593D2*
Y4491D1*
X36362D1*
Y4593D1*
X36569Y4699D1*
X36825D1*
X37032Y4593D1*
G37*
G36*
X38032D2*
Y4491D1*
X37362D1*
Y4593D1*
X37569Y4699D1*
X37825D1*
X38032Y4593D1*
G37*
D21*
X35697Y5097D3*
Y6097D3*
G36*
X36193Y5762D2*
X36091D1*
Y6432D1*
X36193D1*
X36299Y6225D1*
Y5969D1*
X36193Y5762D1*
G37*
G36*
Y4762D2*
X36091D1*
Y5432D1*
X36193D1*
X36299Y5225D1*
Y4969D1*
X36193Y4762D1*
G37*
X43017Y4097D2*
D14*
Y4809D1*
X43453Y5245D1*
X44017Y4097D2*
Y4723D1*
X43709Y5031D1*
Y5374D1*
X43478Y5606D1*
Y5721D1*
X43647Y6198D2*
X43485Y6371D1*
X43411Y6444D1*
X43150Y6636D1*
Y6964D1*
X43017Y7097D1*
X44017D2*
X44173D1*
X44084Y6047D2*
Y5678D1*
X43891Y5486D1*
X44153Y5150D2*
Y5528D1*
X44314Y5688D1*
Y6101D1*
X44142Y6273D1*
X44029D1*
X43872Y6115D1*
Y6076D1*
X43759Y5963D1*
X43462D1*
X43422Y6003D1*
D30*
X43891Y5486D3*
X43478Y5721D3*
X43453Y5245D3*
X44153Y5150D3*
X43422Y6003D3*
X42995Y5123D3*
X42752Y4817D3*
X43647Y6198D3*
X44084Y6047D3*
D21*
X45017Y5097D3*
Y6097D3*
G36*
X44521Y6432D2*
X44623D1*
Y5762D1*
X44521D1*
X44415Y5969D1*
Y6225D1*
X44521Y6432D1*
G37*
G36*
Y5432D2*
X44623D1*
Y4762D1*
X44521D1*
X44415Y4969D1*
Y5225D1*
X44521Y5432D1*
G37*
D23*
X44017Y7097D3*
X43017D3*
G36*
X42682Y6601D2*
Y6703D1*
X43352D1*
Y6601D1*
X43145Y6495D1*
X42889D1*
X42682Y6601D1*
G37*
G36*
X43682D2*
Y6703D1*
X44352D1*
Y6601D1*
X44145Y6495D1*
X43889D1*
X43682Y6601D1*
G37*
D23*
X44017Y4097D3*
X43017D3*
G36*
X43352Y4593D2*
Y4491D1*
X42682D1*
Y4593D1*
X42889Y4699D1*
X43145D1*
X43352Y4593D1*
G37*
G36*
X44352D2*
Y4491D1*
X43682D1*
Y4593D1*
X43889Y4699D1*
X44145D1*
X44352Y4593D1*
G37*
D21*
X42017Y5097D3*
Y6097D3*
G36*
X42513Y5762D2*
X42411D1*
Y6432D1*
X42513D1*
X42619Y6225D1*
Y5969D1*
X42513Y5762D1*
G37*
G36*
Y4762D2*
X42411D1*
Y5432D1*
X42513D1*
X42619Y5225D1*
Y4969D1*
X42513Y4762D1*
G37*
X49337Y4097D2*
D14*
Y4809D1*
X49773Y5245D1*
X50337Y4097D2*
Y4723D1*
X50029Y5031D1*
Y5374D1*
X49798Y5606D1*
Y5721D1*
X49967Y6198D2*
X49805Y6371D1*
X49731Y6444D1*
X49470Y6636D1*
Y6964D1*
X49337Y7097D1*
X50337D2*
X50493D1*
X50404Y6047D2*
Y5678D1*
X50211Y5486D1*
X50473Y5150D2*
Y5528D1*
X50634Y5688D1*
Y6101D1*
X50462Y6273D1*
X50349D1*
X50192Y6115D1*
Y6076D1*
X50079Y5963D1*
X49782D1*
X49742Y6003D1*
D30*
X50211Y5486D3*
X49798Y5721D3*
X49773Y5245D3*
X50473Y5150D3*
X49742Y6003D3*
X49315Y5123D3*
X49072Y4817D3*
X49967Y6198D3*
X50404Y6047D3*
D21*
X51337Y5097D3*
Y6097D3*
G36*
X50841Y6432D2*
X50943D1*
Y5762D1*
X50841D1*
X50735Y5969D1*
Y6225D1*
X50841Y6432D1*
G37*
G36*
Y5432D2*
X50943D1*
Y4762D1*
X50841D1*
X50735Y4969D1*
Y5225D1*
X50841Y5432D1*
G37*
D23*
X50337Y7097D3*
X49337D3*
G36*
X49002Y6601D2*
Y6703D1*
X49672D1*
Y6601D1*
X49465Y6495D1*
X49209D1*
X49002Y6601D1*
G37*
G36*
X50002D2*
Y6703D1*
X50672D1*
Y6601D1*
X50465Y6495D1*
X50209D1*
X50002Y6601D1*
G37*
D23*
X50337Y4097D3*
X49337D3*
G36*
X49672Y4593D2*
Y4491D1*
X49002D1*
Y4593D1*
X49209Y4699D1*
X49465D1*
X49672Y4593D1*
G37*
G36*
X50672D2*
Y4491D1*
X50002D1*
Y4593D1*
X50209Y4699D1*
X50465D1*
X50672Y4593D1*
G37*
D21*
X48337Y5097D3*
Y6097D3*
G36*
X48833Y5762D2*
X48731D1*
Y6432D1*
X48833D1*
X48939Y6225D1*
Y5969D1*
X48833Y5762D1*
G37*
G36*
Y4762D2*
X48731D1*
Y5432D1*
X48833D1*
X48939Y5225D1*
Y4969D1*
X48833Y4762D1*
G37*
X55657Y4097D2*
D14*
Y4809D1*
X56093Y5245D1*
X56657Y4097D2*
Y4723D1*
X56349Y5031D1*
Y5374D1*
X56118Y5606D1*
Y5721D1*
X56287Y6198D2*
X56125Y6371D1*
X56051Y6444D1*
X55790Y6636D1*
Y6964D1*
X55657Y7097D1*
X56657D2*
X56813D1*
X56724Y6047D2*
Y5678D1*
X56531Y5486D1*
X56793Y5150D2*
Y5528D1*
X56954Y5688D1*
Y6101D1*
X56782Y6273D1*
X56669D1*
X56512Y6115D1*
Y6076D1*
X56399Y5963D1*
X56102D1*
X56062Y6003D1*
D30*
X56531Y5486D3*
X56118Y5721D3*
X56093Y5245D3*
X56793Y5150D3*
X56062Y6003D3*
X55635Y5123D3*
X55392Y4817D3*
X56287Y6198D3*
X56724Y6047D3*
D21*
X57657Y5097D3*
Y6097D3*
G36*
X57161Y6432D2*
X57263D1*
Y5762D1*
X57161D1*
X57055Y5969D1*
Y6225D1*
X57161Y6432D1*
G37*
G36*
Y5432D2*
X57263D1*
Y4762D1*
X57161D1*
X57055Y4969D1*
Y5225D1*
X57161Y5432D1*
G37*
D23*
X56657Y7097D3*
X55657D3*
G36*
X55322Y6601D2*
Y6703D1*
X55992D1*
Y6601D1*
X55785Y6495D1*
X55529D1*
X55322Y6601D1*
G37*
G36*
X56322D2*
Y6703D1*
X56992D1*
Y6601D1*
X56785Y6495D1*
X56529D1*
X56322Y6601D1*
G37*
D23*
X56657Y4097D3*
X55657D3*
G36*
X55992Y4593D2*
Y4491D1*
X55322D1*
Y4593D1*
X55529Y4699D1*
X55785D1*
X55992Y4593D1*
G37*
G36*
X56992D2*
Y4491D1*
X56322D1*
Y4593D1*
X56529Y4699D1*
X56785D1*
X56992Y4593D1*
G37*
D21*
X54657Y5097D3*
Y6097D3*
G36*
X55153Y5762D2*
X55051D1*
Y6432D1*
X55153D1*
X55259Y6225D1*
Y5969D1*
X55153Y5762D1*
G37*
G36*
Y4762D2*
X55051D1*
Y5432D1*
X55153D1*
X55259Y5225D1*
Y4969D1*
X55153Y4762D1*
G37*
X61977Y4097D2*
D14*
Y4809D1*
X62413Y5245D1*
X62977Y4097D2*
Y4723D1*
X62669Y5031D1*
Y5374D1*
X62438Y5606D1*
Y5721D1*
X62607Y6198D2*
X62445Y6371D1*
X62371Y6444D1*
X62110Y6636D1*
Y6964D1*
X61977Y7097D1*
X62977D2*
X63133D1*
X63044Y6047D2*
Y5678D1*
X62851Y5486D1*
X63113Y5150D2*
Y5528D1*
X63274Y5688D1*
Y6101D1*
X63102Y6273D1*
X62989D1*
X62832Y6115D1*
Y6076D1*
X62719Y5963D1*
X62422D1*
X62382Y6003D1*
D30*
X62851Y5486D3*
X62438Y5721D3*
X62413Y5245D3*
X63113Y5150D3*
X62382Y6003D3*
X61955Y5123D3*
X61712Y4817D3*
X62607Y6198D3*
X63044Y6047D3*
D21*
X63977Y5097D3*
Y6097D3*
G36*
X63481Y6432D2*
X63583D1*
Y5762D1*
X63481D1*
X63375Y5969D1*
Y6225D1*
X63481Y6432D1*
G37*
G36*
Y5432D2*
X63583D1*
Y4762D1*
X63481D1*
X63375Y4969D1*
Y5225D1*
X63481Y5432D1*
G37*
D23*
X62977Y7097D3*
X61977D3*
G36*
X61642Y6601D2*
Y6703D1*
X62312D1*
Y6601D1*
X62105Y6495D1*
X61849D1*
X61642Y6601D1*
G37*
G36*
X62642D2*
Y6703D1*
X63312D1*
Y6601D1*
X63105Y6495D1*
X62849D1*
X62642Y6601D1*
G37*
D23*
X62977Y4097D3*
X61977D3*
G36*
X62312Y4593D2*
Y4491D1*
X61642D1*
Y4593D1*
X61849Y4699D1*
X62105D1*
X62312Y4593D1*
G37*
G36*
X63312D2*
Y4491D1*
X62642D1*
Y4593D1*
X62849Y4699D1*
X63105D1*
X63312Y4593D1*
G37*
D21*
X60977Y5097D3*
Y6097D3*
G36*
X61473Y5762D2*
X61371D1*
Y6432D1*
X61473D1*
X61579Y6225D1*
Y5969D1*
X61473Y5762D1*
G37*
G36*
Y4762D2*
X61371D1*
Y5432D1*
X61473D1*
X61579Y5225D1*
Y4969D1*
X61473Y4762D1*
G37*
X68297Y4097D2*
D14*
Y4809D1*
X68733Y5245D1*
X69297Y4097D2*
Y4723D1*
X68989Y5031D1*
Y5374D1*
X68758Y5606D1*
Y5721D1*
X68927Y6198D2*
X68765Y6371D1*
X68691Y6444D1*
X68430Y6636D1*
Y6964D1*
X68297Y7097D1*
X69297D2*
X69453D1*
X69364Y6047D2*
Y5678D1*
X69171Y5486D1*
X69433Y5150D2*
Y5528D1*
X69594Y5688D1*
Y6101D1*
X69422Y6273D1*
X69309D1*
X69152Y6115D1*
Y6076D1*
X69039Y5963D1*
X68742D1*
X68702Y6003D1*
D30*
X69171Y5486D3*
X68758Y5721D3*
X68733Y5245D3*
X69433Y5150D3*
X68702Y6003D3*
X68275Y5123D3*
X68032Y4817D3*
X68927Y6198D3*
X69364Y6047D3*
D21*
X70297Y5097D3*
Y6097D3*
G36*
X69801Y6432D2*
X69903D1*
Y5762D1*
X69801D1*
X69695Y5969D1*
Y6225D1*
X69801Y6432D1*
G37*
G36*
Y5432D2*
X69903D1*
Y4762D1*
X69801D1*
X69695Y4969D1*
Y5225D1*
X69801Y5432D1*
G37*
D23*
X69297Y7097D3*
X68297D3*
G36*
X67962Y6601D2*
Y6703D1*
X68632D1*
Y6601D1*
X68425Y6495D1*
X68169D1*
X67962Y6601D1*
G37*
G36*
X68962D2*
Y6703D1*
X69632D1*
Y6601D1*
X69425Y6495D1*
X69169D1*
X68962Y6601D1*
G37*
D23*
X69297Y4097D3*
X68297D3*
G36*
X68632Y4593D2*
Y4491D1*
X67962D1*
Y4593D1*
X68169Y4699D1*
X68425D1*
X68632Y4593D1*
G37*
G36*
X69632D2*
Y4491D1*
X68962D1*
Y4593D1*
X69169Y4699D1*
X69425D1*
X69632Y4593D1*
G37*
D21*
X67297Y5097D3*
Y6097D3*
G36*
X67793Y5762D2*
X67691D1*
Y6432D1*
X67793D1*
X67899Y6225D1*
Y5969D1*
X67793Y5762D1*
G37*
G36*
Y4762D2*
X67691D1*
Y5432D1*
X67793D1*
X67899Y5225D1*
Y4969D1*
X67793Y4762D1*
G37*
X74617Y4097D2*
D14*
Y4809D1*
X75053Y5245D1*
X75617Y4097D2*
Y4723D1*
X75309Y5031D1*
Y5374D1*
X75078Y5606D1*
Y5721D1*
X75247Y6198D2*
X75085Y6371D1*
X75011Y6444D1*
X74750Y6636D1*
Y6964D1*
X74617Y7097D1*
X75617D2*
X75773D1*
X75684Y6047D2*
Y5678D1*
X75491Y5486D1*
X75753Y5150D2*
Y5528D1*
X75914Y5688D1*
Y6101D1*
X75742Y6273D1*
X75629D1*
X75472Y6115D1*
Y6076D1*
X75359Y5963D1*
X75062D1*
X75022Y6003D1*
D30*
X75491Y5486D3*
X75078Y5721D3*
X75053Y5245D3*
X75753Y5150D3*
X75022Y6003D3*
X74595Y5123D3*
X74352Y4817D3*
X75247Y6198D3*
X75684Y6047D3*
D21*
X76617Y5097D3*
Y6097D3*
G36*
X76121Y6432D2*
X76223D1*
Y5762D1*
X76121D1*
X76015Y5969D1*
Y6225D1*
X76121Y6432D1*
G37*
G36*
Y5432D2*
X76223D1*
Y4762D1*
X76121D1*
X76015Y4969D1*
Y5225D1*
X76121Y5432D1*
G37*
D23*
X75617Y7097D3*
X74617D3*
G36*
X74282Y6601D2*
Y6703D1*
X74952D1*
Y6601D1*
X74745Y6495D1*
X74489D1*
X74282Y6601D1*
G37*
G36*
X75282D2*
Y6703D1*
X75952D1*
Y6601D1*
X75745Y6495D1*
X75489D1*
X75282Y6601D1*
G37*
D23*
X75617Y4097D3*
X74617D3*
G36*
X74952Y4593D2*
Y4491D1*
X74282D1*
Y4593D1*
X74489Y4699D1*
X74745D1*
X74952Y4593D1*
G37*
G36*
X75952D2*
Y4491D1*
X75282D1*
Y4593D1*
X75489Y4699D1*
X75745D1*
X75952Y4593D1*
G37*
D21*
X73617Y5097D3*
Y6097D3*
G36*
X74113Y5762D2*
X74011D1*
Y6432D1*
X74113D1*
X74219Y6225D1*
Y5969D1*
X74113Y5762D1*
G37*
G36*
Y4762D2*
X74011D1*
Y5432D1*
X74113D1*
X74219Y5225D1*
Y4969D1*
X74113Y4762D1*
G37*
X5097Y10417D2*
D14*
Y11129D1*
X5533Y11565D1*
X6097Y10417D2*
Y11043D1*
X5789Y11351D1*
Y11694D1*
X5558Y11926D1*
Y12041D1*
X5727Y12518D2*
X5565Y12691D1*
X5491Y12764D1*
X5230Y12956D1*
Y13284D1*
X5097Y13417D1*
X6097D2*
X6253D1*
X6164Y12367D2*
Y11998D1*
X5971Y11806D1*
X6233Y11470D2*
Y11848D1*
X6394Y12008D1*
Y12421D1*
X6222Y12593D1*
X6109D1*
X5952Y12435D1*
Y12396D1*
X5839Y12283D1*
X5542D1*
X5502Y12323D1*
D30*
X5971Y11806D3*
X5558Y12041D3*
X5533Y11565D3*
X6233Y11470D3*
X5502Y12323D3*
X5075Y11443D3*
X4832Y11137D3*
X5727Y12518D3*
X6164Y12367D3*
D21*
X7097Y11417D3*
Y12417D3*
G36*
X6601Y12752D2*
X6703D1*
Y12082D1*
X6601D1*
X6495Y12289D1*
Y12545D1*
X6601Y12752D1*
G37*
G36*
Y11752D2*
X6703D1*
Y11082D1*
X6601D1*
X6495Y11289D1*
Y11545D1*
X6601Y11752D1*
G37*
D23*
X6097Y13417D3*
X5097D3*
G36*
X4762Y12921D2*
Y13023D1*
X5432D1*
Y12921D1*
X5225Y12815D1*
X4969D1*
X4762Y12921D1*
G37*
G36*
X5762D2*
Y13023D1*
X6432D1*
Y12921D1*
X6225Y12815D1*
X5969D1*
X5762Y12921D1*
G37*
D23*
X6097Y10417D3*
X5097D3*
G36*
X5432Y10913D2*
Y10811D1*
X4762D1*
Y10913D1*
X4969Y11019D1*
X5225D1*
X5432Y10913D1*
G37*
G36*
X6432D2*
Y10811D1*
X5762D1*
Y10913D1*
X5969Y11019D1*
X6225D1*
X6432Y10913D1*
G37*
D21*
X4097Y11417D3*
Y12417D3*
G36*
X4593Y12082D2*
X4491D1*
Y12752D1*
X4593D1*
X4699Y12545D1*
Y12289D1*
X4593Y12082D1*
G37*
G36*
Y11082D2*
X4491D1*
Y11752D1*
X4593D1*
X4699Y11545D1*
Y11289D1*
X4593Y11082D1*
G37*
X11417Y10417D2*
D14*
Y11129D1*
X11853Y11565D1*
X12417Y10417D2*
Y11043D1*
X12109Y11351D1*
Y11694D1*
X11878Y11926D1*
Y12041D1*
X12047Y12518D2*
X11885Y12691D1*
X11811Y12764D1*
X11550Y12956D1*
Y13284D1*
X11417Y13417D1*
X12417D2*
X12573D1*
X12484Y12367D2*
Y11998D1*
X12291Y11806D1*
X12553Y11470D2*
Y11848D1*
X12714Y12008D1*
Y12421D1*
X12542Y12593D1*
X12429D1*
X12272Y12435D1*
Y12396D1*
X12159Y12283D1*
X11862D1*
X11822Y12323D1*
D30*
X12291Y11806D3*
X11878Y12041D3*
X11853Y11565D3*
X12553Y11470D3*
X11822Y12323D3*
X11395Y11443D3*
X11152Y11137D3*
X12047Y12518D3*
X12484Y12367D3*
D21*
X13417Y11417D3*
Y12417D3*
G36*
X12921Y12752D2*
X13023D1*
Y12082D1*
X12921D1*
X12815Y12289D1*
Y12545D1*
X12921Y12752D1*
G37*
G36*
Y11752D2*
X13023D1*
Y11082D1*
X12921D1*
X12815Y11289D1*
Y11545D1*
X12921Y11752D1*
G37*
D23*
X12417Y13417D3*
X11417D3*
G36*
X11082Y12921D2*
Y13023D1*
X11752D1*
Y12921D1*
X11545Y12815D1*
X11289D1*
X11082Y12921D1*
G37*
G36*
X12082D2*
Y13023D1*
X12752D1*
Y12921D1*
X12545Y12815D1*
X12289D1*
X12082Y12921D1*
G37*
D23*
X12417Y10417D3*
X11417D3*
G36*
X11752Y10913D2*
Y10811D1*
X11082D1*
Y10913D1*
X11289Y11019D1*
X11545D1*
X11752Y10913D1*
G37*
G36*
X12752D2*
Y10811D1*
X12082D1*
Y10913D1*
X12289Y11019D1*
X12545D1*
X12752Y10913D1*
G37*
D21*
X10417Y11417D3*
Y12417D3*
G36*
X10913Y12082D2*
X10811D1*
Y12752D1*
X10913D1*
X11019Y12545D1*
Y12289D1*
X10913Y12082D1*
G37*
G36*
Y11082D2*
X10811D1*
Y11752D1*
X10913D1*
X11019Y11545D1*
Y11289D1*
X10913Y11082D1*
G37*
X17737Y10417D2*
D14*
Y11129D1*
X18173Y11565D1*
X18737Y10417D2*
Y11043D1*
X18429Y11351D1*
Y11694D1*
X18198Y11926D1*
Y12041D1*
X18367Y12518D2*
X18205Y12691D1*
X18131Y12764D1*
X17870Y12956D1*
Y13284D1*
X17737Y13417D1*
X18737D2*
X18893D1*
X18804Y12367D2*
Y11998D1*
X18611Y11806D1*
X18873Y11470D2*
Y11848D1*
X19034Y12008D1*
Y12421D1*
X18862Y12593D1*
X18749D1*
X18592Y12435D1*
Y12396D1*
X18479Y12283D1*
X18182D1*
X18142Y12323D1*
D30*
X18611Y11806D3*
X18198Y12041D3*
X18173Y11565D3*
X18873Y11470D3*
X18142Y12323D3*
X17715Y11443D3*
X17472Y11137D3*
X18367Y12518D3*
X18804Y12367D3*
D21*
X19737Y11417D3*
Y12417D3*
G36*
X19241Y12752D2*
X19343D1*
Y12082D1*
X19241D1*
X19135Y12289D1*
Y12545D1*
X19241Y12752D1*
G37*
G36*
Y11752D2*
X19343D1*
Y11082D1*
X19241D1*
X19135Y11289D1*
Y11545D1*
X19241Y11752D1*
G37*
D23*
X18737Y13417D3*
X17737D3*
G36*
X17402Y12921D2*
Y13023D1*
X18072D1*
Y12921D1*
X17865Y12815D1*
X17609D1*
X17402Y12921D1*
G37*
G36*
X18402D2*
Y13023D1*
X19072D1*
Y12921D1*
X18865Y12815D1*
X18609D1*
X18402Y12921D1*
G37*
D23*
X18737Y10417D3*
X17737D3*
G36*
X18072Y10913D2*
Y10811D1*
X17402D1*
Y10913D1*
X17609Y11019D1*
X17865D1*
X18072Y10913D1*
G37*
G36*
X19072D2*
Y10811D1*
X18402D1*
Y10913D1*
X18609Y11019D1*
X18865D1*
X19072Y10913D1*
G37*
D21*
X16737Y11417D3*
Y12417D3*
G36*
X17233Y12082D2*
X17131D1*
Y12752D1*
X17233D1*
X17339Y12545D1*
Y12289D1*
X17233Y12082D1*
G37*
G36*
Y11082D2*
X17131D1*
Y11752D1*
X17233D1*
X17339Y11545D1*
Y11289D1*
X17233Y11082D1*
G37*
X24057Y10417D2*
D14*
Y11129D1*
X24493Y11565D1*
X25057Y10417D2*
Y11043D1*
X24749Y11351D1*
Y11694D1*
X24518Y11926D1*
Y12041D1*
X24687Y12518D2*
X24525Y12691D1*
X24451Y12764D1*
X24190Y12956D1*
Y13284D1*
X24057Y13417D1*
X25057D2*
X25213D1*
X25124Y12367D2*
Y11998D1*
X24931Y11806D1*
X25193Y11470D2*
Y11848D1*
X25354Y12008D1*
Y12421D1*
X25182Y12593D1*
X25069D1*
X24912Y12435D1*
Y12396D1*
X24799Y12283D1*
X24502D1*
X24462Y12323D1*
D30*
X24931Y11806D3*
X24518Y12041D3*
X24493Y11565D3*
X25193Y11470D3*
X24462Y12323D3*
X24035Y11443D3*
X23792Y11137D3*
X24687Y12518D3*
X25124Y12367D3*
D21*
X26057Y11417D3*
Y12417D3*
G36*
X25561Y12752D2*
X25663D1*
Y12082D1*
X25561D1*
X25455Y12289D1*
Y12545D1*
X25561Y12752D1*
G37*
G36*
Y11752D2*
X25663D1*
Y11082D1*
X25561D1*
X25455Y11289D1*
Y11545D1*
X25561Y11752D1*
G37*
D23*
X25057Y13417D3*
X24057D3*
G36*
X23722Y12921D2*
Y13023D1*
X24392D1*
Y12921D1*
X24185Y12815D1*
X23929D1*
X23722Y12921D1*
G37*
G36*
X24722D2*
Y13023D1*
X25392D1*
Y12921D1*
X25185Y12815D1*
X24929D1*
X24722Y12921D1*
G37*
D23*
X25057Y10417D3*
X24057D3*
G36*
X24392Y10913D2*
Y10811D1*
X23722D1*
Y10913D1*
X23929Y11019D1*
X24185D1*
X24392Y10913D1*
G37*
G36*
X25392D2*
Y10811D1*
X24722D1*
Y10913D1*
X24929Y11019D1*
X25185D1*
X25392Y10913D1*
G37*
D21*
X23057Y11417D3*
Y12417D3*
G36*
X23553Y12082D2*
X23451D1*
Y12752D1*
X23553D1*
X23659Y12545D1*
Y12289D1*
X23553Y12082D1*
G37*
G36*
Y11082D2*
X23451D1*
Y11752D1*
X23553D1*
X23659Y11545D1*
Y11289D1*
X23553Y11082D1*
G37*
X30377Y10417D2*
D14*
Y11129D1*
X30813Y11565D1*
X31377Y10417D2*
Y11043D1*
X31069Y11351D1*
Y11694D1*
X30838Y11926D1*
Y12041D1*
X31007Y12518D2*
X30845Y12691D1*
X30771Y12764D1*
X30510Y12956D1*
Y13284D1*
X30377Y13417D1*
X31377D2*
X31533D1*
X31444Y12367D2*
Y11998D1*
X31251Y11806D1*
X31513Y11470D2*
Y11848D1*
X31674Y12008D1*
Y12421D1*
X31502Y12593D1*
X31389D1*
X31232Y12435D1*
Y12396D1*
X31119Y12283D1*
X30822D1*
X30782Y12323D1*
D30*
X31251Y11806D3*
X30838Y12041D3*
X30813Y11565D3*
X31513Y11470D3*
X30782Y12323D3*
X30355Y11443D3*
X30112Y11137D3*
X31007Y12518D3*
X31444Y12367D3*
D21*
X32377Y11417D3*
Y12417D3*
G36*
X31881Y12752D2*
X31983D1*
Y12082D1*
X31881D1*
X31775Y12289D1*
Y12545D1*
X31881Y12752D1*
G37*
G36*
Y11752D2*
X31983D1*
Y11082D1*
X31881D1*
X31775Y11289D1*
Y11545D1*
X31881Y11752D1*
G37*
D23*
X31377Y13417D3*
X30377D3*
G36*
X30042Y12921D2*
Y13023D1*
X30712D1*
Y12921D1*
X30505Y12815D1*
X30249D1*
X30042Y12921D1*
G37*
G36*
X31042D2*
Y13023D1*
X31712D1*
Y12921D1*
X31505Y12815D1*
X31249D1*
X31042Y12921D1*
G37*
D23*
X31377Y10417D3*
X30377D3*
G36*
X30712Y10913D2*
Y10811D1*
X30042D1*
Y10913D1*
X30249Y11019D1*
X30505D1*
X30712Y10913D1*
G37*
G36*
X31712D2*
Y10811D1*
X31042D1*
Y10913D1*
X31249Y11019D1*
X31505D1*
X31712Y10913D1*
G37*
D21*
X29377Y11417D3*
Y12417D3*
G36*
X29873Y12082D2*
X29771D1*
Y12752D1*
X29873D1*
X29979Y12545D1*
Y12289D1*
X29873Y12082D1*
G37*
G36*
Y11082D2*
X29771D1*
Y11752D1*
X29873D1*
X29979Y11545D1*
Y11289D1*
X29873Y11082D1*
G37*
X36697Y10417D2*
D14*
Y11129D1*
X37133Y11565D1*
X37697Y10417D2*
Y11043D1*
X37389Y11351D1*
Y11694D1*
X37158Y11926D1*
Y12041D1*
X37327Y12518D2*
X37165Y12691D1*
X37091Y12764D1*
X36830Y12956D1*
Y13284D1*
X36697Y13417D1*
X37697D2*
X37853D1*
X37764Y12367D2*
Y11998D1*
X37571Y11806D1*
X37833Y11470D2*
Y11848D1*
X37994Y12008D1*
Y12421D1*
X37822Y12593D1*
X37709D1*
X37552Y12435D1*
Y12396D1*
X37439Y12283D1*
X37142D1*
X37102Y12323D1*
D30*
X37571Y11806D3*
X37158Y12041D3*
X37133Y11565D3*
X37833Y11470D3*
X37102Y12323D3*
X36675Y11443D3*
X36432Y11137D3*
X37327Y12518D3*
X37764Y12367D3*
D21*
X38697Y11417D3*
Y12417D3*
G36*
X38201Y12752D2*
X38303D1*
Y12082D1*
X38201D1*
X38095Y12289D1*
Y12545D1*
X38201Y12752D1*
G37*
G36*
Y11752D2*
X38303D1*
Y11082D1*
X38201D1*
X38095Y11289D1*
Y11545D1*
X38201Y11752D1*
G37*
D23*
X37697Y13417D3*
X36697D3*
G36*
X36362Y12921D2*
Y13023D1*
X37032D1*
Y12921D1*
X36825Y12815D1*
X36569D1*
X36362Y12921D1*
G37*
G36*
X37362D2*
Y13023D1*
X38032D1*
Y12921D1*
X37825Y12815D1*
X37569D1*
X37362Y12921D1*
G37*
D23*
X37697Y10417D3*
X36697D3*
G36*
X37032Y10913D2*
Y10811D1*
X36362D1*
Y10913D1*
X36569Y11019D1*
X36825D1*
X37032Y10913D1*
G37*
G36*
X38032D2*
Y10811D1*
X37362D1*
Y10913D1*
X37569Y11019D1*
X37825D1*
X38032Y10913D1*
G37*
D21*
X35697Y11417D3*
Y12417D3*
G36*
X36193Y12082D2*
X36091D1*
Y12752D1*
X36193D1*
X36299Y12545D1*
Y12289D1*
X36193Y12082D1*
G37*
G36*
Y11082D2*
X36091D1*
Y11752D1*
X36193D1*
X36299Y11545D1*
Y11289D1*
X36193Y11082D1*
G37*
X43017Y10417D2*
D14*
Y11129D1*
X43453Y11565D1*
X44017Y10417D2*
Y11043D1*
X43709Y11351D1*
Y11694D1*
X43478Y11926D1*
Y12041D1*
X43647Y12518D2*
X43485Y12691D1*
X43411Y12764D1*
X43150Y12956D1*
Y13284D1*
X43017Y13417D1*
X44017D2*
X44173D1*
X44084Y12367D2*
Y11998D1*
X43891Y11806D1*
X44153Y11470D2*
Y11848D1*
X44314Y12008D1*
Y12421D1*
X44142Y12593D1*
X44029D1*
X43872Y12435D1*
Y12396D1*
X43759Y12283D1*
X43462D1*
X43422Y12323D1*
D30*
X43891Y11806D3*
X43478Y12041D3*
X43453Y11565D3*
X44153Y11470D3*
X43422Y12323D3*
X42995Y11443D3*
X42752Y11137D3*
X43647Y12518D3*
X44084Y12367D3*
D21*
X45017Y11417D3*
Y12417D3*
G36*
X44521Y12752D2*
X44623D1*
Y12082D1*
X44521D1*
X44415Y12289D1*
Y12545D1*
X44521Y12752D1*
G37*
G36*
Y11752D2*
X44623D1*
Y11082D1*
X44521D1*
X44415Y11289D1*
Y11545D1*
X44521Y11752D1*
G37*
D23*
X44017Y13417D3*
X43017D3*
G36*
X42682Y12921D2*
Y13023D1*
X43352D1*
Y12921D1*
X43145Y12815D1*
X42889D1*
X42682Y12921D1*
G37*
G36*
X43682D2*
Y13023D1*
X44352D1*
Y12921D1*
X44145Y12815D1*
X43889D1*
X43682Y12921D1*
G37*
D23*
X44017Y10417D3*
X43017D3*
G36*
X43352Y10913D2*
Y10811D1*
X42682D1*
Y10913D1*
X42889Y11019D1*
X43145D1*
X43352Y10913D1*
G37*
G36*
X44352D2*
Y10811D1*
X43682D1*
Y10913D1*
X43889Y11019D1*
X44145D1*
X44352Y10913D1*
G37*
D21*
X42017Y11417D3*
Y12417D3*
G36*
X42513Y12082D2*
X42411D1*
Y12752D1*
X42513D1*
X42619Y12545D1*
Y12289D1*
X42513Y12082D1*
G37*
G36*
Y11082D2*
X42411D1*
Y11752D1*
X42513D1*
X42619Y11545D1*
Y11289D1*
X42513Y11082D1*
G37*
X49337Y10417D2*
D14*
Y11129D1*
X49773Y11565D1*
X50337Y10417D2*
Y11043D1*
X50029Y11351D1*
Y11694D1*
X49798Y11926D1*
Y12041D1*
X49967Y12518D2*
X49805Y12691D1*
X49731Y12764D1*
X49470Y12956D1*
Y13284D1*
X49337Y13417D1*
X50337D2*
X50493D1*
X50404Y12367D2*
Y11998D1*
X50211Y11806D1*
X50473Y11470D2*
Y11848D1*
X50634Y12008D1*
Y12421D1*
X50462Y12593D1*
X50349D1*
X50192Y12435D1*
Y12396D1*
X50079Y12283D1*
X49782D1*
X49742Y12323D1*
D30*
X50211Y11806D3*
X49798Y12041D3*
X49773Y11565D3*
X50473Y11470D3*
X49742Y12323D3*
X49315Y11443D3*
X49072Y11137D3*
X49967Y12518D3*
X50404Y12367D3*
D21*
X51337Y11417D3*
Y12417D3*
G36*
X50841Y12752D2*
X50943D1*
Y12082D1*
X50841D1*
X50735Y12289D1*
Y12545D1*
X50841Y12752D1*
G37*
G36*
Y11752D2*
X50943D1*
Y11082D1*
X50841D1*
X50735Y11289D1*
Y11545D1*
X50841Y11752D1*
G37*
D23*
X50337Y13417D3*
X49337D3*
G36*
X49002Y12921D2*
Y13023D1*
X49672D1*
Y12921D1*
X49465Y12815D1*
X49209D1*
X49002Y12921D1*
G37*
G36*
X50002D2*
Y13023D1*
X50672D1*
Y12921D1*
X50465Y12815D1*
X50209D1*
X50002Y12921D1*
G37*
D23*
X50337Y10417D3*
X49337D3*
G36*
X49672Y10913D2*
Y10811D1*
X49002D1*
Y10913D1*
X49209Y11019D1*
X49465D1*
X49672Y10913D1*
G37*
G36*
X50672D2*
Y10811D1*
X50002D1*
Y10913D1*
X50209Y11019D1*
X50465D1*
X50672Y10913D1*
G37*
D21*
X48337Y11417D3*
Y12417D3*
G36*
X48833Y12082D2*
X48731D1*
Y12752D1*
X48833D1*
X48939Y12545D1*
Y12289D1*
X48833Y12082D1*
G37*
G36*
Y11082D2*
X48731D1*
Y11752D1*
X48833D1*
X48939Y11545D1*
Y11289D1*
X48833Y11082D1*
G37*
X55657Y10417D2*
D14*
Y11129D1*
X56093Y11565D1*
X56657Y10417D2*
Y11043D1*
X56349Y11351D1*
Y11694D1*
X56118Y11926D1*
Y12041D1*
X56287Y12518D2*
X56125Y12691D1*
X56051Y12764D1*
X55790Y12956D1*
Y13284D1*
X55657Y13417D1*
X56657D2*
X56813D1*
X56724Y12367D2*
Y11998D1*
X56531Y11806D1*
X56793Y11470D2*
Y11848D1*
X56954Y12008D1*
Y12421D1*
X56782Y12593D1*
X56669D1*
X56512Y12435D1*
Y12396D1*
X56399Y12283D1*
X56102D1*
X56062Y12323D1*
D30*
X56531Y11806D3*
X56118Y12041D3*
X56093Y11565D3*
X56793Y11470D3*
X56062Y12323D3*
X55635Y11443D3*
X55392Y11137D3*
X56287Y12518D3*
X56724Y12367D3*
D21*
X57657Y11417D3*
Y12417D3*
G36*
X57161Y12752D2*
X57263D1*
Y12082D1*
X57161D1*
X57055Y12289D1*
Y12545D1*
X57161Y12752D1*
G37*
G36*
Y11752D2*
X57263D1*
Y11082D1*
X57161D1*
X57055Y11289D1*
Y11545D1*
X57161Y11752D1*
G37*
D23*
X56657Y13417D3*
X55657D3*
G36*
X55322Y12921D2*
Y13023D1*
X55992D1*
Y12921D1*
X55785Y12815D1*
X55529D1*
X55322Y12921D1*
G37*
G36*
X56322D2*
Y13023D1*
X56992D1*
Y12921D1*
X56785Y12815D1*
X56529D1*
X56322Y12921D1*
G37*
D23*
X56657Y10417D3*
X55657D3*
G36*
X55992Y10913D2*
Y10811D1*
X55322D1*
Y10913D1*
X55529Y11019D1*
X55785D1*
X55992Y10913D1*
G37*
G36*
X56992D2*
Y10811D1*
X56322D1*
Y10913D1*
X56529Y11019D1*
X56785D1*
X56992Y10913D1*
G37*
D21*
X54657Y11417D3*
Y12417D3*
G36*
X55153Y12082D2*
X55051D1*
Y12752D1*
X55153D1*
X55259Y12545D1*
Y12289D1*
X55153Y12082D1*
G37*
G36*
Y11082D2*
X55051D1*
Y11752D1*
X55153D1*
X55259Y11545D1*
Y11289D1*
X55153Y11082D1*
G37*
X61977Y10417D2*
D14*
Y11129D1*
X62413Y11565D1*
X62977Y10417D2*
Y11043D1*
X62669Y11351D1*
Y11694D1*
X62438Y11926D1*
Y12041D1*
X62607Y12518D2*
X62445Y12691D1*
X62371Y12764D1*
X62110Y12956D1*
Y13284D1*
X61977Y13417D1*
X62977D2*
X63133D1*
X63044Y12367D2*
Y11998D1*
X62851Y11806D1*
X63113Y11470D2*
Y11848D1*
X63274Y12008D1*
Y12421D1*
X63102Y12593D1*
X62989D1*
X62832Y12435D1*
Y12396D1*
X62719Y12283D1*
X62422D1*
X62382Y12323D1*
D30*
X62851Y11806D3*
X62438Y12041D3*
X62413Y11565D3*
X63113Y11470D3*
X62382Y12323D3*
X61955Y11443D3*
X61712Y11137D3*
X62607Y12518D3*
X63044Y12367D3*
D21*
X63977Y11417D3*
Y12417D3*
G36*
X63481Y12752D2*
X63583D1*
Y12082D1*
X63481D1*
X63375Y12289D1*
Y12545D1*
X63481Y12752D1*
G37*
G36*
Y11752D2*
X63583D1*
Y11082D1*
X63481D1*
X63375Y11289D1*
Y11545D1*
X63481Y11752D1*
G37*
D23*
X62977Y13417D3*
X61977D3*
G36*
X61642Y12921D2*
Y13023D1*
X62312D1*
Y12921D1*
X62105Y12815D1*
X61849D1*
X61642Y12921D1*
G37*
G36*
X62642D2*
Y13023D1*
X63312D1*
Y12921D1*
X63105Y12815D1*
X62849D1*
X62642Y12921D1*
G37*
D23*
X62977Y10417D3*
X61977D3*
G36*
X62312Y10913D2*
Y10811D1*
X61642D1*
Y10913D1*
X61849Y11019D1*
X62105D1*
X62312Y10913D1*
G37*
G36*
X63312D2*
Y10811D1*
X62642D1*
Y10913D1*
X62849Y11019D1*
X63105D1*
X63312Y10913D1*
G37*
D21*
X60977Y11417D3*
Y12417D3*
G36*
X61473Y12082D2*
X61371D1*
Y12752D1*
X61473D1*
X61579Y12545D1*
Y12289D1*
X61473Y12082D1*
G37*
G36*
Y11082D2*
X61371D1*
Y11752D1*
X61473D1*
X61579Y11545D1*
Y11289D1*
X61473Y11082D1*
G37*
X68297Y10417D2*
D14*
Y11129D1*
X68733Y11565D1*
X69297Y10417D2*
Y11043D1*
X68989Y11351D1*
Y11694D1*
X68758Y11926D1*
Y12041D1*
X68927Y12518D2*
X68765Y12691D1*
X68691Y12764D1*
X68430Y12956D1*
Y13284D1*
X68297Y13417D1*
X69297D2*
X69453D1*
X69364Y12367D2*
Y11998D1*
X69171Y11806D1*
X69433Y11470D2*
Y11848D1*
X69594Y12008D1*
Y12421D1*
X69422Y12593D1*
X69309D1*
X69152Y12435D1*
Y12396D1*
X69039Y12283D1*
X68742D1*
X68702Y12323D1*
D30*
X69171Y11806D3*
X68758Y12041D3*
X68733Y11565D3*
X69433Y11470D3*
X68702Y12323D3*
X68275Y11443D3*
X68032Y11137D3*
X68927Y12518D3*
X69364Y12367D3*
D21*
X70297Y11417D3*
Y12417D3*
G36*
X69801Y12752D2*
X69903D1*
Y12082D1*
X69801D1*
X69695Y12289D1*
Y12545D1*
X69801Y12752D1*
G37*
G36*
Y11752D2*
X69903D1*
Y11082D1*
X69801D1*
X69695Y11289D1*
Y11545D1*
X69801Y11752D1*
G37*
D23*
X69297Y13417D3*
X68297D3*
G36*
X67962Y12921D2*
Y13023D1*
X68632D1*
Y12921D1*
X68425Y12815D1*
X68169D1*
X67962Y12921D1*
G37*
G36*
X68962D2*
Y13023D1*
X69632D1*
Y12921D1*
X69425Y12815D1*
X69169D1*
X68962Y12921D1*
G37*
D23*
X69297Y10417D3*
X68297D3*
G36*
X68632Y10913D2*
Y10811D1*
X67962D1*
Y10913D1*
X68169Y11019D1*
X68425D1*
X68632Y10913D1*
G37*
G36*
X69632D2*
Y10811D1*
X68962D1*
Y10913D1*
X69169Y11019D1*
X69425D1*
X69632Y10913D1*
G37*
D21*
X67297Y11417D3*
Y12417D3*
G36*
X67793Y12082D2*
X67691D1*
Y12752D1*
X67793D1*
X67899Y12545D1*
Y12289D1*
X67793Y12082D1*
G37*
G36*
Y11082D2*
X67691D1*
Y11752D1*
X67793D1*
X67899Y11545D1*
Y11289D1*
X67793Y11082D1*
G37*
X74617Y10417D2*
D14*
Y11129D1*
X75053Y11565D1*
X75617Y10417D2*
Y11043D1*
X75309Y11351D1*
Y11694D1*
X75078Y11926D1*
Y12041D1*
X75247Y12518D2*
X75085Y12691D1*
X75011Y12764D1*
X74750Y12956D1*
Y13284D1*
X74617Y13417D1*
X75617D2*
X75773D1*
X75684Y12367D2*
Y11998D1*
X75491Y11806D1*
X75753Y11470D2*
Y11848D1*
X75914Y12008D1*
Y12421D1*
X75742Y12593D1*
X75629D1*
X75472Y12435D1*
Y12396D1*
X75359Y12283D1*
X75062D1*
X75022Y12323D1*
D30*
X75491Y11806D3*
X75078Y12041D3*
X75053Y11565D3*
X75753Y11470D3*
X75022Y12323D3*
X74595Y11443D3*
X74352Y11137D3*
X75247Y12518D3*
X75684Y12367D3*
D21*
X76617Y11417D3*
Y12417D3*
G36*
X76121Y12752D2*
X76223D1*
Y12082D1*
X76121D1*
X76015Y12289D1*
Y12545D1*
X76121Y12752D1*
G37*
G36*
Y11752D2*
X76223D1*
Y11082D1*
X76121D1*
X76015Y11289D1*
Y11545D1*
X76121Y11752D1*
G37*
D23*
X75617Y13417D3*
X74617D3*
G36*
X74282Y12921D2*
Y13023D1*
X74952D1*
Y12921D1*
X74745Y12815D1*
X74489D1*
X74282Y12921D1*
G37*
G36*
X75282D2*
Y13023D1*
X75952D1*
Y12921D1*
X75745Y12815D1*
X75489D1*
X75282Y12921D1*
G37*
D23*
X75617Y10417D3*
X74617D3*
G36*
X74952Y10913D2*
Y10811D1*
X74282D1*
Y10913D1*
X74489Y11019D1*
X74745D1*
X74952Y10913D1*
G37*
G36*
X75952D2*
Y10811D1*
X75282D1*
Y10913D1*
X75489Y11019D1*
X75745D1*
X75952Y10913D1*
G37*
D21*
X73617Y11417D3*
Y12417D3*
G36*
X74113Y12082D2*
X74011D1*
Y12752D1*
X74113D1*
X74219Y12545D1*
Y12289D1*
X74113Y12082D1*
G37*
G36*
Y11082D2*
X74011D1*
Y11752D1*
X74113D1*
X74219Y11545D1*
Y11289D1*
X74113Y11082D1*
G37*
X5097Y16737D2*
D14*
Y17449D1*
X5533Y17885D1*
X6097Y16737D2*
Y17363D1*
X5789Y17671D1*
Y18014D1*
X5558Y18246D1*
Y18361D1*
X5727Y18838D2*
X5565Y19011D1*
X5491Y19084D1*
X5230Y19276D1*
Y19604D1*
X5097Y19737D1*
X6097D2*
X6253D1*
X6164Y18687D2*
Y18318D1*
X5971Y18126D1*
X6233Y17790D2*
Y18168D1*
X6394Y18328D1*
Y18741D1*
X6222Y18913D1*
X6109D1*
X5952Y18755D1*
Y18716D1*
X5839Y18603D1*
X5542D1*
X5502Y18643D1*
D30*
X5971Y18126D3*
X5558Y18361D3*
X5533Y17885D3*
X6233Y17790D3*
X5502Y18643D3*
X5075Y17763D3*
X4832Y17457D3*
X5727Y18838D3*
X6164Y18687D3*
D21*
X7097Y17737D3*
Y18737D3*
G36*
X6601Y19072D2*
X6703D1*
Y18402D1*
X6601D1*
X6495Y18609D1*
Y18865D1*
X6601Y19072D1*
G37*
G36*
Y18072D2*
X6703D1*
Y17402D1*
X6601D1*
X6495Y17609D1*
Y17865D1*
X6601Y18072D1*
G37*
D23*
X6097Y19737D3*
X5097D3*
G36*
X4762Y19241D2*
Y19343D1*
X5432D1*
Y19241D1*
X5225Y19135D1*
X4969D1*
X4762Y19241D1*
G37*
G36*
X5762D2*
Y19343D1*
X6432D1*
Y19241D1*
X6225Y19135D1*
X5969D1*
X5762Y19241D1*
G37*
D23*
X6097Y16737D3*
X5097D3*
G36*
X5432Y17233D2*
Y17131D1*
X4762D1*
Y17233D1*
X4969Y17339D1*
X5225D1*
X5432Y17233D1*
G37*
G36*
X6432D2*
Y17131D1*
X5762D1*
Y17233D1*
X5969Y17339D1*
X6225D1*
X6432Y17233D1*
G37*
D21*
X4097Y17737D3*
Y18737D3*
G36*
X4593Y18402D2*
X4491D1*
Y19072D1*
X4593D1*
X4699Y18865D1*
Y18609D1*
X4593Y18402D1*
G37*
G36*
Y17402D2*
X4491D1*
Y18072D1*
X4593D1*
X4699Y17865D1*
Y17609D1*
X4593Y17402D1*
G37*
X11417Y16737D2*
D14*
Y17449D1*
X11853Y17885D1*
X12417Y16737D2*
Y17363D1*
X12109Y17671D1*
Y18014D1*
X11878Y18246D1*
Y18361D1*
X12047Y18838D2*
X11885Y19011D1*
X11811Y19084D1*
X11550Y19276D1*
Y19604D1*
X11417Y19737D1*
X12417D2*
X12573D1*
X12484Y18687D2*
Y18318D1*
X12291Y18126D1*
X12553Y17790D2*
Y18168D1*
X12714Y18328D1*
Y18741D1*
X12542Y18913D1*
X12429D1*
X12272Y18755D1*
Y18716D1*
X12159Y18603D1*
X11862D1*
X11822Y18643D1*
D30*
X12291Y18126D3*
X11878Y18361D3*
X11853Y17885D3*
X12553Y17790D3*
X11822Y18643D3*
X11395Y17763D3*
X11152Y17457D3*
X12047Y18838D3*
X12484Y18687D3*
D21*
X13417Y17737D3*
Y18737D3*
G36*
X12921Y19072D2*
X13023D1*
Y18402D1*
X12921D1*
X12815Y18609D1*
Y18865D1*
X12921Y19072D1*
G37*
G36*
Y18072D2*
X13023D1*
Y17402D1*
X12921D1*
X12815Y17609D1*
Y17865D1*
X12921Y18072D1*
G37*
D23*
X12417Y19737D3*
X11417D3*
G36*
X11082Y19241D2*
Y19343D1*
X11752D1*
Y19241D1*
X11545Y19135D1*
X11289D1*
X11082Y19241D1*
G37*
G36*
X12082D2*
Y19343D1*
X12752D1*
Y19241D1*
X12545Y19135D1*
X12289D1*
X12082Y19241D1*
G37*
D23*
X12417Y16737D3*
X11417D3*
G36*
X11752Y17233D2*
Y17131D1*
X11082D1*
Y17233D1*
X11289Y17339D1*
X11545D1*
X11752Y17233D1*
G37*
G36*
X12752D2*
Y17131D1*
X12082D1*
Y17233D1*
X12289Y17339D1*
X12545D1*
X12752Y17233D1*
G37*
D21*
X10417Y17737D3*
Y18737D3*
G36*
X10913Y18402D2*
X10811D1*
Y19072D1*
X10913D1*
X11019Y18865D1*
Y18609D1*
X10913Y18402D1*
G37*
G36*
Y17402D2*
X10811D1*
Y18072D1*
X10913D1*
X11019Y17865D1*
Y17609D1*
X10913Y17402D1*
G37*
X17737Y16737D2*
D14*
Y17449D1*
X18173Y17885D1*
X18737Y16737D2*
Y17363D1*
X18429Y17671D1*
Y18014D1*
X18198Y18246D1*
Y18361D1*
X18367Y18838D2*
X18205Y19011D1*
X18131Y19084D1*
X17870Y19276D1*
Y19604D1*
X17737Y19737D1*
X18737D2*
X18893D1*
X18804Y18687D2*
Y18318D1*
X18611Y18126D1*
X18873Y17790D2*
Y18168D1*
X19034Y18328D1*
Y18741D1*
X18862Y18913D1*
X18749D1*
X18592Y18755D1*
Y18716D1*
X18479Y18603D1*
X18182D1*
X18142Y18643D1*
D30*
X18611Y18126D3*
X18198Y18361D3*
X18173Y17885D3*
X18873Y17790D3*
X18142Y18643D3*
X17715Y17763D3*
X17472Y17457D3*
X18367Y18838D3*
X18804Y18687D3*
D21*
X19737Y17737D3*
Y18737D3*
G36*
X19241Y19072D2*
X19343D1*
Y18402D1*
X19241D1*
X19135Y18609D1*
Y18865D1*
X19241Y19072D1*
G37*
G36*
Y18072D2*
X19343D1*
Y17402D1*
X19241D1*
X19135Y17609D1*
Y17865D1*
X19241Y18072D1*
G37*
D23*
X18737Y19737D3*
X17737D3*
G36*
X17402Y19241D2*
Y19343D1*
X18072D1*
Y19241D1*
X17865Y19135D1*
X17609D1*
X17402Y19241D1*
G37*
G36*
X18402D2*
Y19343D1*
X19072D1*
Y19241D1*
X18865Y19135D1*
X18609D1*
X18402Y19241D1*
G37*
D23*
X18737Y16737D3*
X17737D3*
G36*
X18072Y17233D2*
Y17131D1*
X17402D1*
Y17233D1*
X17609Y17339D1*
X17865D1*
X18072Y17233D1*
G37*
G36*
X19072D2*
Y17131D1*
X18402D1*
Y17233D1*
X18609Y17339D1*
X18865D1*
X19072Y17233D1*
G37*
D21*
X16737Y17737D3*
Y18737D3*
G36*
X17233Y18402D2*
X17131D1*
Y19072D1*
X17233D1*
X17339Y18865D1*
Y18609D1*
X17233Y18402D1*
G37*
G36*
Y17402D2*
X17131D1*
Y18072D1*
X17233D1*
X17339Y17865D1*
Y17609D1*
X17233Y17402D1*
G37*
X24057Y16737D2*
D14*
Y17449D1*
X24493Y17885D1*
X25057Y16737D2*
Y17363D1*
X24749Y17671D1*
Y18014D1*
X24518Y18246D1*
Y18361D1*
X24687Y18838D2*
X24525Y19011D1*
X24451Y19084D1*
X24190Y19276D1*
Y19604D1*
X24057Y19737D1*
X25057D2*
X25213D1*
X25124Y18687D2*
Y18318D1*
X24931Y18126D1*
X25193Y17790D2*
Y18168D1*
X25354Y18328D1*
Y18741D1*
X25182Y18913D1*
X25069D1*
X24912Y18755D1*
Y18716D1*
X24799Y18603D1*
X24502D1*
X24462Y18643D1*
D30*
X24931Y18126D3*
X24518Y18361D3*
X24493Y17885D3*
X25193Y17790D3*
X24462Y18643D3*
X24035Y17763D3*
X23792Y17457D3*
X24687Y18838D3*
X25124Y18687D3*
D21*
X26057Y17737D3*
Y18737D3*
G36*
X25561Y19072D2*
X25663D1*
Y18402D1*
X25561D1*
X25455Y18609D1*
Y18865D1*
X25561Y19072D1*
G37*
G36*
Y18072D2*
X25663D1*
Y17402D1*
X25561D1*
X25455Y17609D1*
Y17865D1*
X25561Y18072D1*
G37*
D23*
X25057Y19737D3*
X24057D3*
G36*
X23722Y19241D2*
Y19343D1*
X24392D1*
Y19241D1*
X24185Y19135D1*
X23929D1*
X23722Y19241D1*
G37*
G36*
X24722D2*
Y19343D1*
X25392D1*
Y19241D1*
X25185Y19135D1*
X24929D1*
X24722Y19241D1*
G37*
D23*
X25057Y16737D3*
X24057D3*
G36*
X24392Y17233D2*
Y17131D1*
X23722D1*
Y17233D1*
X23929Y17339D1*
X24185D1*
X24392Y17233D1*
G37*
G36*
X25392D2*
Y17131D1*
X24722D1*
Y17233D1*
X24929Y17339D1*
X25185D1*
X25392Y17233D1*
G37*
D21*
X23057Y17737D3*
Y18737D3*
G36*
X23553Y18402D2*
X23451D1*
Y19072D1*
X23553D1*
X23659Y18865D1*
Y18609D1*
X23553Y18402D1*
G37*
G36*
Y17402D2*
X23451D1*
Y18072D1*
X23553D1*
X23659Y17865D1*
Y17609D1*
X23553Y17402D1*
G37*
X30377Y16737D2*
D14*
Y17449D1*
X30813Y17885D1*
X31377Y16737D2*
Y17363D1*
X31069Y17671D1*
Y18014D1*
X30838Y18246D1*
Y18361D1*
X31007Y18838D2*
X30845Y19011D1*
X30771Y19084D1*
X30510Y19276D1*
Y19604D1*
X30377Y19737D1*
X31377D2*
X31533D1*
X31444Y18687D2*
Y18318D1*
X31251Y18126D1*
X31513Y17790D2*
Y18168D1*
X31674Y18328D1*
Y18741D1*
X31502Y18913D1*
X31389D1*
X31232Y18755D1*
Y18716D1*
X31119Y18603D1*
X30822D1*
X30782Y18643D1*
D30*
X31251Y18126D3*
X30838Y18361D3*
X30813Y17885D3*
X31513Y17790D3*
X30782Y18643D3*
X30355Y17763D3*
X30112Y17457D3*
X31007Y18838D3*
X31444Y18687D3*
D21*
X32377Y17737D3*
Y18737D3*
G36*
X31881Y19072D2*
X31983D1*
Y18402D1*
X31881D1*
X31775Y18609D1*
Y18865D1*
X31881Y19072D1*
G37*
G36*
Y18072D2*
X31983D1*
Y17402D1*
X31881D1*
X31775Y17609D1*
Y17865D1*
X31881Y18072D1*
G37*
D23*
X31377Y19737D3*
X30377D3*
G36*
X30042Y19241D2*
Y19343D1*
X30712D1*
Y19241D1*
X30505Y19135D1*
X30249D1*
X30042Y19241D1*
G37*
G36*
X31042D2*
Y19343D1*
X31712D1*
Y19241D1*
X31505Y19135D1*
X31249D1*
X31042Y19241D1*
G37*
D23*
X31377Y16737D3*
X30377D3*
G36*
X30712Y17233D2*
Y17131D1*
X30042D1*
Y17233D1*
X30249Y17339D1*
X30505D1*
X30712Y17233D1*
G37*
G36*
X31712D2*
Y17131D1*
X31042D1*
Y17233D1*
X31249Y17339D1*
X31505D1*
X31712Y17233D1*
G37*
D21*
X29377Y17737D3*
Y18737D3*
G36*
X29873Y18402D2*
X29771D1*
Y19072D1*
X29873D1*
X29979Y18865D1*
Y18609D1*
X29873Y18402D1*
G37*
G36*
Y17402D2*
X29771D1*
Y18072D1*
X29873D1*
X29979Y17865D1*
Y17609D1*
X29873Y17402D1*
G37*
X36697Y16737D2*
D14*
Y17449D1*
X37133Y17885D1*
X37697Y16737D2*
Y17363D1*
X37389Y17671D1*
Y18014D1*
X37158Y18246D1*
Y18361D1*
X37327Y18838D2*
X37165Y19011D1*
X37091Y19084D1*
X36830Y19276D1*
Y19604D1*
X36697Y19737D1*
X37697D2*
X37853D1*
X37764Y18687D2*
Y18318D1*
X37571Y18126D1*
X37833Y17790D2*
Y18168D1*
X37994Y18328D1*
Y18741D1*
X37822Y18913D1*
X37709D1*
X37552Y18755D1*
Y18716D1*
X37439Y18603D1*
X37142D1*
X37102Y18643D1*
D30*
X37571Y18126D3*
X37158Y18361D3*
X37133Y17885D3*
X37833Y17790D3*
X37102Y18643D3*
X36675Y17763D3*
X36432Y17457D3*
X37327Y18838D3*
X37764Y18687D3*
D21*
X38697Y17737D3*
Y18737D3*
G36*
X38201Y19072D2*
X38303D1*
Y18402D1*
X38201D1*
X38095Y18609D1*
Y18865D1*
X38201Y19072D1*
G37*
G36*
Y18072D2*
X38303D1*
Y17402D1*
X38201D1*
X38095Y17609D1*
Y17865D1*
X38201Y18072D1*
G37*
D23*
X37697Y19737D3*
X36697D3*
G36*
X36362Y19241D2*
Y19343D1*
X37032D1*
Y19241D1*
X36825Y19135D1*
X36569D1*
X36362Y19241D1*
G37*
G36*
X37362D2*
Y19343D1*
X38032D1*
Y19241D1*
X37825Y19135D1*
X37569D1*
X37362Y19241D1*
G37*
D23*
X37697Y16737D3*
X36697D3*
G36*
X37032Y17233D2*
Y17131D1*
X36362D1*
Y17233D1*
X36569Y17339D1*
X36825D1*
X37032Y17233D1*
G37*
G36*
X38032D2*
Y17131D1*
X37362D1*
Y17233D1*
X37569Y17339D1*
X37825D1*
X38032Y17233D1*
G37*
D21*
X35697Y17737D3*
Y18737D3*
G36*
X36193Y18402D2*
X36091D1*
Y19072D1*
X36193D1*
X36299Y18865D1*
Y18609D1*
X36193Y18402D1*
G37*
G36*
Y17402D2*
X36091D1*
Y18072D1*
X36193D1*
X36299Y17865D1*
Y17609D1*
X36193Y17402D1*
G37*
X43017Y16737D2*
D14*
Y17449D1*
X43453Y17885D1*
X44017Y16737D2*
Y17363D1*
X43709Y17671D1*
Y18014D1*
X43478Y18246D1*
Y18361D1*
X43647Y18838D2*
X43485Y19011D1*
X43411Y19084D1*
X43150Y19276D1*
Y19604D1*
X43017Y19737D1*
X44017D2*
X44173D1*
X44084Y18687D2*
Y18318D1*
X43891Y18126D1*
X44153Y17790D2*
Y18168D1*
X44314Y18328D1*
Y18741D1*
X44142Y18913D1*
X44029D1*
X43872Y18755D1*
Y18716D1*
X43759Y18603D1*
X43462D1*
X43422Y18643D1*
D30*
X43891Y18126D3*
X43478Y18361D3*
X43453Y17885D3*
X44153Y17790D3*
X43422Y18643D3*
X42995Y17763D3*
X42752Y17457D3*
X43647Y18838D3*
X44084Y18687D3*
D21*
X45017Y17737D3*
Y18737D3*
G36*
X44521Y19072D2*
X44623D1*
Y18402D1*
X44521D1*
X44415Y18609D1*
Y18865D1*
X44521Y19072D1*
G37*
G36*
Y18072D2*
X44623D1*
Y17402D1*
X44521D1*
X44415Y17609D1*
Y17865D1*
X44521Y18072D1*
G37*
D23*
X44017Y19737D3*
X43017D3*
G36*
X42682Y19241D2*
Y19343D1*
X43352D1*
Y19241D1*
X43145Y19135D1*
X42889D1*
X42682Y19241D1*
G37*
G36*
X43682D2*
Y19343D1*
X44352D1*
Y19241D1*
X44145Y19135D1*
X43889D1*
X43682Y19241D1*
G37*
D23*
X44017Y16737D3*
X43017D3*
G36*
X43352Y17233D2*
Y17131D1*
X42682D1*
Y17233D1*
X42889Y17339D1*
X43145D1*
X43352Y17233D1*
G37*
G36*
X44352D2*
Y17131D1*
X43682D1*
Y17233D1*
X43889Y17339D1*
X44145D1*
X44352Y17233D1*
G37*
D21*
X42017Y17737D3*
Y18737D3*
G36*
X42513Y18402D2*
X42411D1*
Y19072D1*
X42513D1*
X42619Y18865D1*
Y18609D1*
X42513Y18402D1*
G37*
G36*
Y17402D2*
X42411D1*
Y18072D1*
X42513D1*
X42619Y17865D1*
Y17609D1*
X42513Y17402D1*
G37*
X49337Y16737D2*
D14*
Y17449D1*
X49773Y17885D1*
X50337Y16737D2*
Y17363D1*
X50029Y17671D1*
Y18014D1*
X49798Y18246D1*
Y18361D1*
X49967Y18838D2*
X49805Y19011D1*
X49731Y19084D1*
X49470Y19276D1*
Y19604D1*
X49337Y19737D1*
X50337D2*
X50493D1*
X50404Y18687D2*
Y18318D1*
X50211Y18126D1*
X50473Y17790D2*
Y18168D1*
X50634Y18328D1*
Y18741D1*
X50462Y18913D1*
X50349D1*
X50192Y18755D1*
Y18716D1*
X50079Y18603D1*
X49782D1*
X49742Y18643D1*
D30*
X50211Y18126D3*
X49798Y18361D3*
X49773Y17885D3*
X50473Y17790D3*
X49742Y18643D3*
X49315Y17763D3*
X49072Y17457D3*
X49967Y18838D3*
X50404Y18687D3*
D21*
X51337Y17737D3*
Y18737D3*
G36*
X50841Y19072D2*
X50943D1*
Y18402D1*
X50841D1*
X50735Y18609D1*
Y18865D1*
X50841Y19072D1*
G37*
G36*
Y18072D2*
X50943D1*
Y17402D1*
X50841D1*
X50735Y17609D1*
Y17865D1*
X50841Y18072D1*
G37*
D23*
X50337Y19737D3*
X49337D3*
G36*
X49002Y19241D2*
Y19343D1*
X49672D1*
Y19241D1*
X49465Y19135D1*
X49209D1*
X49002Y19241D1*
G37*
G36*
X50002D2*
Y19343D1*
X50672D1*
Y19241D1*
X50465Y19135D1*
X50209D1*
X50002Y19241D1*
G37*
D23*
X50337Y16737D3*
X49337D3*
G36*
X49672Y17233D2*
Y17131D1*
X49002D1*
Y17233D1*
X49209Y17339D1*
X49465D1*
X49672Y17233D1*
G37*
G36*
X50672D2*
Y17131D1*
X50002D1*
Y17233D1*
X50209Y17339D1*
X50465D1*
X50672Y17233D1*
G37*
D21*
X48337Y17737D3*
Y18737D3*
G36*
X48833Y18402D2*
X48731D1*
Y19072D1*
X48833D1*
X48939Y18865D1*
Y18609D1*
X48833Y18402D1*
G37*
G36*
Y17402D2*
X48731D1*
Y18072D1*
X48833D1*
X48939Y17865D1*
Y17609D1*
X48833Y17402D1*
G37*
X55657Y16737D2*
D14*
Y17449D1*
X56093Y17885D1*
X56657Y16737D2*
Y17363D1*
X56349Y17671D1*
Y18014D1*
X56118Y18246D1*
Y18361D1*
X56287Y18838D2*
X56125Y19011D1*
X56051Y19084D1*
X55790Y19276D1*
Y19604D1*
X55657Y19737D1*
X56657D2*
X56813D1*
X56724Y18687D2*
Y18318D1*
X56531Y18126D1*
X56793Y17790D2*
Y18168D1*
X56954Y18328D1*
Y18741D1*
X56782Y18913D1*
X56669D1*
X56512Y18755D1*
Y18716D1*
X56399Y18603D1*
X56102D1*
X56062Y18643D1*
D30*
X56531Y18126D3*
X56118Y18361D3*
X56093Y17885D3*
X56793Y17790D3*
X56062Y18643D3*
X55635Y17763D3*
X55392Y17457D3*
X56287Y18838D3*
X56724Y18687D3*
D21*
X57657Y17737D3*
Y18737D3*
G36*
X57161Y19072D2*
X57263D1*
Y18402D1*
X57161D1*
X57055Y18609D1*
Y18865D1*
X57161Y19072D1*
G37*
G36*
Y18072D2*
X57263D1*
Y17402D1*
X57161D1*
X57055Y17609D1*
Y17865D1*
X57161Y18072D1*
G37*
D23*
X56657Y19737D3*
X55657D3*
G36*
X55322Y19241D2*
Y19343D1*
X55992D1*
Y19241D1*
X55785Y19135D1*
X55529D1*
X55322Y19241D1*
G37*
G36*
X56322D2*
Y19343D1*
X56992D1*
Y19241D1*
X56785Y19135D1*
X56529D1*
X56322Y19241D1*
G37*
D23*
X56657Y16737D3*
X55657D3*
G36*
X55992Y17233D2*
Y17131D1*
X55322D1*
Y17233D1*
X55529Y17339D1*
X55785D1*
X55992Y17233D1*
G37*
G36*
X56992D2*
Y17131D1*
X56322D1*
Y17233D1*
X56529Y17339D1*
X56785D1*
X56992Y17233D1*
G37*
D21*
X54657Y17737D3*
Y18737D3*
G36*
X55153Y18402D2*
X55051D1*
Y19072D1*
X55153D1*
X55259Y18865D1*
Y18609D1*
X55153Y18402D1*
G37*
G36*
Y17402D2*
X55051D1*
Y18072D1*
X55153D1*
X55259Y17865D1*
Y17609D1*
X55153Y17402D1*
G37*
X61977Y16737D2*
D14*
Y17449D1*
X62413Y17885D1*
X62977Y16737D2*
Y17363D1*
X62669Y17671D1*
Y18014D1*
X62438Y18246D1*
Y18361D1*
X62607Y18838D2*
X62445Y19011D1*
X62371Y19084D1*
X62110Y19276D1*
Y19604D1*
X61977Y19737D1*
X62977D2*
X63133D1*
X63044Y18687D2*
Y18318D1*
X62851Y18126D1*
X63113Y17790D2*
Y18168D1*
X63274Y18328D1*
Y18741D1*
X63102Y18913D1*
X62989D1*
X62832Y18755D1*
Y18716D1*
X62719Y18603D1*
X62422D1*
X62382Y18643D1*
D30*
X62851Y18126D3*
X62438Y18361D3*
X62413Y17885D3*
X63113Y17790D3*
X62382Y18643D3*
X61955Y17763D3*
X61712Y17457D3*
X62607Y18838D3*
X63044Y18687D3*
D21*
X63977Y17737D3*
Y18737D3*
G36*
X63481Y19072D2*
X63583D1*
Y18402D1*
X63481D1*
X63375Y18609D1*
Y18865D1*
X63481Y19072D1*
G37*
G36*
Y18072D2*
X63583D1*
Y17402D1*
X63481D1*
X63375Y17609D1*
Y17865D1*
X63481Y18072D1*
G37*
D23*
X62977Y19737D3*
X61977D3*
G36*
X61642Y19241D2*
Y19343D1*
X62312D1*
Y19241D1*
X62105Y19135D1*
X61849D1*
X61642Y19241D1*
G37*
G36*
X62642D2*
Y19343D1*
X63312D1*
Y19241D1*
X63105Y19135D1*
X62849D1*
X62642Y19241D1*
G37*
D23*
X62977Y16737D3*
X61977D3*
G36*
X62312Y17233D2*
Y17131D1*
X61642D1*
Y17233D1*
X61849Y17339D1*
X62105D1*
X62312Y17233D1*
G37*
G36*
X63312D2*
Y17131D1*
X62642D1*
Y17233D1*
X62849Y17339D1*
X63105D1*
X63312Y17233D1*
G37*
D21*
X60977Y17737D3*
Y18737D3*
G36*
X61473Y18402D2*
X61371D1*
Y19072D1*
X61473D1*
X61579Y18865D1*
Y18609D1*
X61473Y18402D1*
G37*
G36*
Y17402D2*
X61371D1*
Y18072D1*
X61473D1*
X61579Y17865D1*
Y17609D1*
X61473Y17402D1*
G37*
X68297Y16737D2*
D14*
Y17449D1*
X68733Y17885D1*
X69297Y16737D2*
Y17363D1*
X68989Y17671D1*
Y18014D1*
X68758Y18246D1*
Y18361D1*
X68927Y18838D2*
X68765Y19011D1*
X68691Y19084D1*
X68430Y19276D1*
Y19604D1*
X68297Y19737D1*
X69297D2*
X69453D1*
X69364Y18687D2*
Y18318D1*
X69171Y18126D1*
X69433Y17790D2*
Y18168D1*
X69594Y18328D1*
Y18741D1*
X69422Y18913D1*
X69309D1*
X69152Y18755D1*
Y18716D1*
X69039Y18603D1*
X68742D1*
X68702Y18643D1*
D30*
X69171Y18126D3*
X68758Y18361D3*
X68733Y17885D3*
X69433Y17790D3*
X68702Y18643D3*
X68275Y17763D3*
X68032Y17457D3*
X68927Y18838D3*
X69364Y18687D3*
D21*
X70297Y17737D3*
Y18737D3*
G36*
X69801Y19072D2*
X69903D1*
Y18402D1*
X69801D1*
X69695Y18609D1*
Y18865D1*
X69801Y19072D1*
G37*
G36*
Y18072D2*
X69903D1*
Y17402D1*
X69801D1*
X69695Y17609D1*
Y17865D1*
X69801Y18072D1*
G37*
D23*
X69297Y19737D3*
X68297D3*
G36*
X67962Y19241D2*
Y19343D1*
X68632D1*
Y19241D1*
X68425Y19135D1*
X68169D1*
X67962Y19241D1*
G37*
G36*
X68962D2*
Y19343D1*
X69632D1*
Y19241D1*
X69425Y19135D1*
X69169D1*
X68962Y19241D1*
G37*
D23*
X69297Y16737D3*
X68297D3*
G36*
X68632Y17233D2*
Y17131D1*
X67962D1*
Y17233D1*
X68169Y17339D1*
X68425D1*
X68632Y17233D1*
G37*
G36*
X69632D2*
Y17131D1*
X68962D1*
Y17233D1*
X69169Y17339D1*
X69425D1*
X69632Y17233D1*
G37*
D21*
X67297Y17737D3*
Y18737D3*
G36*
X67793Y18402D2*
X67691D1*
Y19072D1*
X67793D1*
X67899Y18865D1*
Y18609D1*
X67793Y18402D1*
G37*
G36*
Y17402D2*
X67691D1*
Y18072D1*
X67793D1*
X67899Y17865D1*
Y17609D1*
X67793Y17402D1*
G37*
X74617Y16737D2*
D14*
Y17449D1*
X75053Y17885D1*
X75617Y16737D2*
Y17363D1*
X75309Y17671D1*
Y18014D1*
X75078Y18246D1*
Y18361D1*
X75247Y18838D2*
X75085Y19011D1*
X75011Y19084D1*
X74750Y19276D1*
Y19604D1*
X74617Y19737D1*
X75617D2*
X75773D1*
X75684Y18687D2*
Y18318D1*
X75491Y18126D1*
X75753Y17790D2*
Y18168D1*
X75914Y18328D1*
Y18741D1*
X75742Y18913D1*
X75629D1*
X75472Y18755D1*
Y18716D1*
X75359Y18603D1*
X75062D1*
X75022Y18643D1*
D30*
X75491Y18126D3*
X75078Y18361D3*
X75053Y17885D3*
X75753Y17790D3*
X75022Y18643D3*
X74595Y17763D3*
X74352Y17457D3*
X75247Y18838D3*
X75684Y18687D3*
D21*
X76617Y17737D3*
Y18737D3*
G36*
X76121Y19072D2*
X76223D1*
Y18402D1*
X76121D1*
X76015Y18609D1*
Y18865D1*
X76121Y19072D1*
G37*
G36*
Y18072D2*
X76223D1*
Y17402D1*
X76121D1*
X76015Y17609D1*
Y17865D1*
X76121Y18072D1*
G37*
D23*
X75617Y19737D3*
X74617D3*
G36*
X74282Y19241D2*
Y19343D1*
X74952D1*
Y19241D1*
X74745Y19135D1*
X74489D1*
X74282Y19241D1*
G37*
G36*
X75282D2*
Y19343D1*
X75952D1*
Y19241D1*
X75745Y19135D1*
X75489D1*
X75282Y19241D1*
G37*
D23*
X75617Y16737D3*
X74617D3*
G36*
X74952Y17233D2*
Y17131D1*
X74282D1*
Y17233D1*
X74489Y17339D1*
X74745D1*
X74952Y17233D1*
G37*
G36*
X75952D2*
Y17131D1*
X75282D1*
Y17233D1*
X75489Y17339D1*
X75745D1*
X75952Y17233D1*
G37*
D21*
X73617Y17737D3*
Y18737D3*
G36*
X74113Y18402D2*
X74011D1*
Y19072D1*
X74113D1*
X74219Y18865D1*
Y18609D1*
X74113Y18402D1*
G37*
G36*
Y17402D2*
X74011D1*
Y18072D1*
X74113D1*
X74219Y17865D1*
Y17609D1*
X74113Y17402D1*
G37*
X5097Y23057D2*
D14*
Y23769D1*
X5533Y24205D1*
X6097Y23057D2*
Y23683D1*
X5789Y23991D1*
Y24334D1*
X5558Y24566D1*
Y24681D1*
X5727Y25158D2*
X5565Y25331D1*
X5491Y25404D1*
X5230Y25596D1*
Y25924D1*
X5097Y26057D1*
X6097D2*
X6253D1*
X6164Y25007D2*
Y24638D1*
X5971Y24446D1*
X6233Y24110D2*
Y24488D1*
X6394Y24648D1*
Y25061D1*
X6222Y25233D1*
X6109D1*
X5952Y25075D1*
Y25036D1*
X5839Y24923D1*
X5542D1*
X5502Y24963D1*
D30*
X5971Y24446D3*
X5558Y24681D3*
X5533Y24205D3*
X6233Y24110D3*
X5502Y24963D3*
X5075Y24083D3*
X4832Y23777D3*
X5727Y25158D3*
X6164Y25007D3*
D21*
X7097Y24057D3*
Y25057D3*
G36*
X6601Y25392D2*
X6703D1*
Y24722D1*
X6601D1*
X6495Y24929D1*
Y25185D1*
X6601Y25392D1*
G37*
G36*
Y24392D2*
X6703D1*
Y23722D1*
X6601D1*
X6495Y23929D1*
Y24185D1*
X6601Y24392D1*
G37*
D23*
X6097Y26057D3*
X5097D3*
G36*
X4762Y25561D2*
Y25663D1*
X5432D1*
Y25561D1*
X5225Y25455D1*
X4969D1*
X4762Y25561D1*
G37*
G36*
X5762D2*
Y25663D1*
X6432D1*
Y25561D1*
X6225Y25455D1*
X5969D1*
X5762Y25561D1*
G37*
D23*
X6097Y23057D3*
X5097D3*
G36*
X5432Y23553D2*
Y23451D1*
X4762D1*
Y23553D1*
X4969Y23659D1*
X5225D1*
X5432Y23553D1*
G37*
G36*
X6432D2*
Y23451D1*
X5762D1*
Y23553D1*
X5969Y23659D1*
X6225D1*
X6432Y23553D1*
G37*
D21*
X4097Y24057D3*
Y25057D3*
G36*
X4593Y24722D2*
X4491D1*
Y25392D1*
X4593D1*
X4699Y25185D1*
Y24929D1*
X4593Y24722D1*
G37*
G36*
Y23722D2*
X4491D1*
Y24392D1*
X4593D1*
X4699Y24185D1*
Y23929D1*
X4593Y23722D1*
G37*
X11417Y23057D2*
D14*
Y23769D1*
X11853Y24205D1*
X12417Y23057D2*
Y23683D1*
X12109Y23991D1*
Y24334D1*
X11878Y24566D1*
Y24681D1*
X12047Y25158D2*
X11885Y25331D1*
X11811Y25404D1*
X11550Y25596D1*
Y25924D1*
X11417Y26057D1*
X12417D2*
X12573D1*
X12484Y25007D2*
Y24638D1*
X12291Y24446D1*
X12553Y24110D2*
Y24488D1*
X12714Y24648D1*
Y25061D1*
X12542Y25233D1*
X12429D1*
X12272Y25075D1*
Y25036D1*
X12159Y24923D1*
X11862D1*
X11822Y24963D1*
D30*
X12291Y24446D3*
X11878Y24681D3*
X11853Y24205D3*
X12553Y24110D3*
X11822Y24963D3*
X11395Y24083D3*
X11152Y23777D3*
X12047Y25158D3*
X12484Y25007D3*
D21*
X13417Y24057D3*
Y25057D3*
G36*
X12921Y25392D2*
X13023D1*
Y24722D1*
X12921D1*
X12815Y24929D1*
Y25185D1*
X12921Y25392D1*
G37*
G36*
Y24392D2*
X13023D1*
Y23722D1*
X12921D1*
X12815Y23929D1*
Y24185D1*
X12921Y24392D1*
G37*
D23*
X12417Y26057D3*
X11417D3*
G36*
X11082Y25561D2*
Y25663D1*
X11752D1*
Y25561D1*
X11545Y25455D1*
X11289D1*
X11082Y25561D1*
G37*
G36*
X12082D2*
Y25663D1*
X12752D1*
Y25561D1*
X12545Y25455D1*
X12289D1*
X12082Y25561D1*
G37*
D23*
X12417Y23057D3*
X11417D3*
G36*
X11752Y23553D2*
Y23451D1*
X11082D1*
Y23553D1*
X11289Y23659D1*
X11545D1*
X11752Y23553D1*
G37*
G36*
X12752D2*
Y23451D1*
X12082D1*
Y23553D1*
X12289Y23659D1*
X12545D1*
X12752Y23553D1*
G37*
D21*
X10417Y24057D3*
Y25057D3*
G36*
X10913Y24722D2*
X10811D1*
Y25392D1*
X10913D1*
X11019Y25185D1*
Y24929D1*
X10913Y24722D1*
G37*
G36*
Y23722D2*
X10811D1*
Y24392D1*
X10913D1*
X11019Y24185D1*
Y23929D1*
X10913Y23722D1*
G37*
X17737Y23057D2*
D14*
Y23769D1*
X18173Y24205D1*
X18737Y23057D2*
Y23683D1*
X18429Y23991D1*
Y24334D1*
X18198Y24566D1*
Y24681D1*
X18367Y25158D2*
X18205Y25331D1*
X18131Y25404D1*
X17870Y25596D1*
Y25924D1*
X17737Y26057D1*
X18737D2*
X18893D1*
X18804Y25007D2*
Y24638D1*
X18611Y24446D1*
X18873Y24110D2*
Y24488D1*
X19034Y24648D1*
Y25061D1*
X18862Y25233D1*
X18749D1*
X18592Y25075D1*
Y25036D1*
X18479Y24923D1*
X18182D1*
X18142Y24963D1*
D30*
X18611Y24446D3*
X18198Y24681D3*
X18173Y24205D3*
X18873Y24110D3*
X18142Y24963D3*
X17715Y24083D3*
X17472Y23777D3*
X18367Y25158D3*
X18804Y25007D3*
D21*
X19737Y24057D3*
Y25057D3*
G36*
X19241Y25392D2*
X19343D1*
Y24722D1*
X19241D1*
X19135Y24929D1*
Y25185D1*
X19241Y25392D1*
G37*
G36*
Y24392D2*
X19343D1*
Y23722D1*
X19241D1*
X19135Y23929D1*
Y24185D1*
X19241Y24392D1*
G37*
D23*
X18737Y26057D3*
X17737D3*
G36*
X17402Y25561D2*
Y25663D1*
X18072D1*
Y25561D1*
X17865Y25455D1*
X17609D1*
X17402Y25561D1*
G37*
G36*
X18402D2*
Y25663D1*
X19072D1*
Y25561D1*
X18865Y25455D1*
X18609D1*
X18402Y25561D1*
G37*
D23*
X18737Y23057D3*
X17737D3*
G36*
X18072Y23553D2*
Y23451D1*
X17402D1*
Y23553D1*
X17609Y23659D1*
X17865D1*
X18072Y23553D1*
G37*
G36*
X19072D2*
Y23451D1*
X18402D1*
Y23553D1*
X18609Y23659D1*
X18865D1*
X19072Y23553D1*
G37*
D21*
X16737Y24057D3*
Y25057D3*
G36*
X17233Y24722D2*
X17131D1*
Y25392D1*
X17233D1*
X17339Y25185D1*
Y24929D1*
X17233Y24722D1*
G37*
G36*
Y23722D2*
X17131D1*
Y24392D1*
X17233D1*
X17339Y24185D1*
Y23929D1*
X17233Y23722D1*
G37*
X24057Y23057D2*
D14*
Y23769D1*
X24493Y24205D1*
X25057Y23057D2*
Y23683D1*
X24749Y23991D1*
Y24334D1*
X24518Y24566D1*
Y24681D1*
X24687Y25158D2*
X24525Y25331D1*
X24451Y25404D1*
X24190Y25596D1*
Y25924D1*
X24057Y26057D1*
X25057D2*
X25213D1*
X25124Y25007D2*
Y24638D1*
X24931Y24446D1*
X25193Y24110D2*
Y24488D1*
X25354Y24648D1*
Y25061D1*
X25182Y25233D1*
X25069D1*
X24912Y25075D1*
Y25036D1*
X24799Y24923D1*
X24502D1*
X24462Y24963D1*
D30*
X24931Y24446D3*
X24518Y24681D3*
X24493Y24205D3*
X25193Y24110D3*
X24462Y24963D3*
X24035Y24083D3*
X23792Y23777D3*
X24687Y25158D3*
X25124Y25007D3*
D21*
X26057Y24057D3*
Y25057D3*
G36*
X25561Y25392D2*
X25663D1*
Y24722D1*
X25561D1*
X25455Y24929D1*
Y25185D1*
X25561Y25392D1*
G37*
G36*
Y24392D2*
X25663D1*
Y23722D1*
X25561D1*
X25455Y23929D1*
Y24185D1*
X25561Y24392D1*
G37*
D23*
X25057Y26057D3*
X24057D3*
G36*
X23722Y25561D2*
Y25663D1*
X24392D1*
Y25561D1*
X24185Y25455D1*
X23929D1*
X23722Y25561D1*
G37*
G36*
X24722D2*
Y25663D1*
X25392D1*
Y25561D1*
X25185Y25455D1*
X24929D1*
X24722Y25561D1*
G37*
D23*
X25057Y23057D3*
X24057D3*
G36*
X24392Y23553D2*
Y23451D1*
X23722D1*
Y23553D1*
X23929Y23659D1*
X24185D1*
X24392Y23553D1*
G37*
G36*
X25392D2*
Y23451D1*
X24722D1*
Y23553D1*
X24929Y23659D1*
X25185D1*
X25392Y23553D1*
G37*
D21*
X23057Y24057D3*
Y25057D3*
G36*
X23553Y24722D2*
X23451D1*
Y25392D1*
X23553D1*
X23659Y25185D1*
Y24929D1*
X23553Y24722D1*
G37*
G36*
Y23722D2*
X23451D1*
Y24392D1*
X23553D1*
X23659Y24185D1*
Y23929D1*
X23553Y23722D1*
G37*
X30377Y23057D2*
D14*
Y23769D1*
X30813Y24205D1*
X31377Y23057D2*
Y23683D1*
X31069Y23991D1*
Y24334D1*
X30838Y24566D1*
Y24681D1*
X31007Y25158D2*
X30845Y25331D1*
X30771Y25404D1*
X30510Y25596D1*
Y25924D1*
X30377Y26057D1*
X31377D2*
X31533D1*
X31444Y25007D2*
Y24638D1*
X31251Y24446D1*
X31513Y24110D2*
Y24488D1*
X31674Y24648D1*
Y25061D1*
X31502Y25233D1*
X31389D1*
X31232Y25075D1*
Y25036D1*
X31119Y24923D1*
X30822D1*
X30782Y24963D1*
D30*
X31251Y24446D3*
X30838Y24681D3*
X30813Y24205D3*
X31513Y24110D3*
X30782Y24963D3*
X30355Y24083D3*
X30112Y23777D3*
X31007Y25158D3*
X31444Y25007D3*
D21*
X32377Y24057D3*
Y25057D3*
G36*
X31881Y25392D2*
X31983D1*
Y24722D1*
X31881D1*
X31775Y24929D1*
Y25185D1*
X31881Y25392D1*
G37*
G36*
Y24392D2*
X31983D1*
Y23722D1*
X31881D1*
X31775Y23929D1*
Y24185D1*
X31881Y24392D1*
G37*
D23*
X31377Y26057D3*
X30377D3*
G36*
X30042Y25561D2*
Y25663D1*
X30712D1*
Y25561D1*
X30505Y25455D1*
X30249D1*
X30042Y25561D1*
G37*
G36*
X31042D2*
Y25663D1*
X31712D1*
Y25561D1*
X31505Y25455D1*
X31249D1*
X31042Y25561D1*
G37*
D23*
X31377Y23057D3*
X30377D3*
G36*
X30712Y23553D2*
Y23451D1*
X30042D1*
Y23553D1*
X30249Y23659D1*
X30505D1*
X30712Y23553D1*
G37*
G36*
X31712D2*
Y23451D1*
X31042D1*
Y23553D1*
X31249Y23659D1*
X31505D1*
X31712Y23553D1*
G37*
D21*
X29377Y24057D3*
Y25057D3*
G36*
X29873Y24722D2*
X29771D1*
Y25392D1*
X29873D1*
X29979Y25185D1*
Y24929D1*
X29873Y24722D1*
G37*
G36*
Y23722D2*
X29771D1*
Y24392D1*
X29873D1*
X29979Y24185D1*
Y23929D1*
X29873Y23722D1*
G37*
X36697Y23057D2*
D14*
Y23769D1*
X37133Y24205D1*
X37697Y23057D2*
Y23683D1*
X37389Y23991D1*
Y24334D1*
X37158Y24566D1*
Y24681D1*
X37327Y25158D2*
X37165Y25331D1*
X37091Y25404D1*
X36830Y25596D1*
Y25924D1*
X36697Y26057D1*
X37697D2*
X37853D1*
X37764Y25007D2*
Y24638D1*
X37571Y24446D1*
X37833Y24110D2*
Y24488D1*
X37994Y24648D1*
Y25061D1*
X37822Y25233D1*
X37709D1*
X37552Y25075D1*
Y25036D1*
X37439Y24923D1*
X37142D1*
X37102Y24963D1*
D30*
X37571Y24446D3*
X37158Y24681D3*
X37133Y24205D3*
X37833Y24110D3*
X37102Y24963D3*
X36675Y24083D3*
X36432Y23777D3*
X37327Y25158D3*
X37764Y25007D3*
D21*
X38697Y24057D3*
Y25057D3*
G36*
X38201Y25392D2*
X38303D1*
Y24722D1*
X38201D1*
X38095Y24929D1*
Y25185D1*
X38201Y25392D1*
G37*
G36*
Y24392D2*
X38303D1*
Y23722D1*
X38201D1*
X38095Y23929D1*
Y24185D1*
X38201Y24392D1*
G37*
D23*
X37697Y26057D3*
X36697D3*
G36*
X36362Y25561D2*
Y25663D1*
X37032D1*
Y25561D1*
X36825Y25455D1*
X36569D1*
X36362Y25561D1*
G37*
G36*
X37362D2*
Y25663D1*
X38032D1*
Y25561D1*
X37825Y25455D1*
X37569D1*
X37362Y25561D1*
G37*
D23*
X37697Y23057D3*
X36697D3*
G36*
X37032Y23553D2*
Y23451D1*
X36362D1*
Y23553D1*
X36569Y23659D1*
X36825D1*
X37032Y23553D1*
G37*
G36*
X38032D2*
Y23451D1*
X37362D1*
Y23553D1*
X37569Y23659D1*
X37825D1*
X38032Y23553D1*
G37*
D21*
X35697Y24057D3*
Y25057D3*
G36*
X36193Y24722D2*
X36091D1*
Y25392D1*
X36193D1*
X36299Y25185D1*
Y24929D1*
X36193Y24722D1*
G37*
G36*
Y23722D2*
X36091D1*
Y24392D1*
X36193D1*
X36299Y24185D1*
Y23929D1*
X36193Y23722D1*
G37*
X43017Y23057D2*
D14*
Y23769D1*
X43453Y24205D1*
X44017Y23057D2*
Y23683D1*
X43709Y23991D1*
Y24334D1*
X43478Y24566D1*
Y24681D1*
X43647Y25158D2*
X43485Y25331D1*
X43411Y25404D1*
X43150Y25596D1*
Y25924D1*
X43017Y26057D1*
X44017D2*
X44173D1*
X44084Y25007D2*
Y24638D1*
X43891Y24446D1*
X44153Y24110D2*
Y24488D1*
X44314Y24648D1*
Y25061D1*
X44142Y25233D1*
X44029D1*
X43872Y25075D1*
Y25036D1*
X43759Y24923D1*
X43462D1*
X43422Y24963D1*
D30*
X43891Y24446D3*
X43478Y24681D3*
X43453Y24205D3*
X44153Y24110D3*
X43422Y24963D3*
X42995Y24083D3*
X42752Y23777D3*
X43647Y25158D3*
X44084Y25007D3*
D21*
X45017Y24057D3*
Y25057D3*
G36*
X44521Y25392D2*
X44623D1*
Y24722D1*
X44521D1*
X44415Y24929D1*
Y25185D1*
X44521Y25392D1*
G37*
G36*
Y24392D2*
X44623D1*
Y23722D1*
X44521D1*
X44415Y23929D1*
Y24185D1*
X44521Y24392D1*
G37*
D23*
X44017Y26057D3*
X43017D3*
G36*
X42682Y25561D2*
Y25663D1*
X43352D1*
Y25561D1*
X43145Y25455D1*
X42889D1*
X42682Y25561D1*
G37*
G36*
X43682D2*
Y25663D1*
X44352D1*
Y25561D1*
X44145Y25455D1*
X43889D1*
X43682Y25561D1*
G37*
D23*
X44017Y23057D3*
X43017D3*
G36*
X43352Y23553D2*
Y23451D1*
X42682D1*
Y23553D1*
X42889Y23659D1*
X43145D1*
X43352Y23553D1*
G37*
G36*
X44352D2*
Y23451D1*
X43682D1*
Y23553D1*
X43889Y23659D1*
X44145D1*
X44352Y23553D1*
G37*
D21*
X42017Y24057D3*
Y25057D3*
G36*
X42513Y24722D2*
X42411D1*
Y25392D1*
X42513D1*
X42619Y25185D1*
Y24929D1*
X42513Y24722D1*
G37*
G36*
Y23722D2*
X42411D1*
Y24392D1*
X42513D1*
X42619Y24185D1*
Y23929D1*
X42513Y23722D1*
G37*
X49337Y23057D2*
D14*
Y23769D1*
X49773Y24205D1*
X50337Y23057D2*
Y23683D1*
X50029Y23991D1*
Y24334D1*
X49798Y24566D1*
Y24681D1*
X49967Y25158D2*
X49805Y25331D1*
X49731Y25404D1*
X49470Y25596D1*
Y25924D1*
X49337Y26057D1*
X50337D2*
X50493D1*
X50404Y25007D2*
Y24638D1*
X50211Y24446D1*
X50473Y24110D2*
Y24488D1*
X50634Y24648D1*
Y25061D1*
X50462Y25233D1*
X50349D1*
X50192Y25075D1*
Y25036D1*
X50079Y24923D1*
X49782D1*
X49742Y24963D1*
D30*
X50211Y24446D3*
X49798Y24681D3*
X49773Y24205D3*
X50473Y24110D3*
X49742Y24963D3*
X49315Y24083D3*
X49072Y23777D3*
X49967Y25158D3*
X50404Y25007D3*
D21*
X51337Y24057D3*
Y25057D3*
G36*
X50841Y25392D2*
X50943D1*
Y24722D1*
X50841D1*
X50735Y24929D1*
Y25185D1*
X50841Y25392D1*
G37*
G36*
Y24392D2*
X50943D1*
Y23722D1*
X50841D1*
X50735Y23929D1*
Y24185D1*
X50841Y24392D1*
G37*
D23*
X50337Y26057D3*
X49337D3*
G36*
X49002Y25561D2*
Y25663D1*
X49672D1*
Y25561D1*
X49465Y25455D1*
X49209D1*
X49002Y25561D1*
G37*
G36*
X50002D2*
Y25663D1*
X50672D1*
Y25561D1*
X50465Y25455D1*
X50209D1*
X50002Y25561D1*
G37*
D23*
X50337Y23057D3*
X49337D3*
G36*
X49672Y23553D2*
Y23451D1*
X49002D1*
Y23553D1*
X49209Y23659D1*
X49465D1*
X49672Y23553D1*
G37*
G36*
X50672D2*
Y23451D1*
X50002D1*
Y23553D1*
X50209Y23659D1*
X50465D1*
X50672Y23553D1*
G37*
D21*
X48337Y24057D3*
Y25057D3*
G36*
X48833Y24722D2*
X48731D1*
Y25392D1*
X48833D1*
X48939Y25185D1*
Y24929D1*
X48833Y24722D1*
G37*
G36*
Y23722D2*
X48731D1*
Y24392D1*
X48833D1*
X48939Y24185D1*
Y23929D1*
X48833Y23722D1*
G37*
X55657Y23057D2*
D14*
Y23769D1*
X56093Y24205D1*
X56657Y23057D2*
Y23683D1*
X56349Y23991D1*
Y24334D1*
X56118Y24566D1*
Y24681D1*
X56287Y25158D2*
X56125Y25331D1*
X56051Y25404D1*
X55790Y25596D1*
Y25924D1*
X55657Y26057D1*
X56657D2*
X56813D1*
X56724Y25007D2*
Y24638D1*
X56531Y24446D1*
X56793Y24110D2*
Y24488D1*
X56954Y24648D1*
Y25061D1*
X56782Y25233D1*
X56669D1*
X56512Y25075D1*
Y25036D1*
X56399Y24923D1*
X56102D1*
X56062Y24963D1*
D30*
X56531Y24446D3*
X56118Y24681D3*
X56093Y24205D3*
X56793Y24110D3*
X56062Y24963D3*
X55635Y24083D3*
X55392Y23777D3*
X56287Y25158D3*
X56724Y25007D3*
D21*
X57657Y24057D3*
Y25057D3*
G36*
X57161Y25392D2*
X57263D1*
Y24722D1*
X57161D1*
X57055Y24929D1*
Y25185D1*
X57161Y25392D1*
G37*
G36*
Y24392D2*
X57263D1*
Y23722D1*
X57161D1*
X57055Y23929D1*
Y24185D1*
X57161Y24392D1*
G37*
D23*
X56657Y26057D3*
X55657D3*
G36*
X55322Y25561D2*
Y25663D1*
X55992D1*
Y25561D1*
X55785Y25455D1*
X55529D1*
X55322Y25561D1*
G37*
G36*
X56322D2*
Y25663D1*
X56992D1*
Y25561D1*
X56785Y25455D1*
X56529D1*
X56322Y25561D1*
G37*
D23*
X56657Y23057D3*
X55657D3*
G36*
X55992Y23553D2*
Y23451D1*
X55322D1*
Y23553D1*
X55529Y23659D1*
X55785D1*
X55992Y23553D1*
G37*
G36*
X56992D2*
Y23451D1*
X56322D1*
Y23553D1*
X56529Y23659D1*
X56785D1*
X56992Y23553D1*
G37*
D21*
X54657Y24057D3*
Y25057D3*
G36*
X55153Y24722D2*
X55051D1*
Y25392D1*
X55153D1*
X55259Y25185D1*
Y24929D1*
X55153Y24722D1*
G37*
G36*
Y23722D2*
X55051D1*
Y24392D1*
X55153D1*
X55259Y24185D1*
Y23929D1*
X55153Y23722D1*
G37*
X61977Y23057D2*
D14*
Y23769D1*
X62413Y24205D1*
X62977Y23057D2*
Y23683D1*
X62669Y23991D1*
Y24334D1*
X62438Y24566D1*
Y24681D1*
X62607Y25158D2*
X62445Y25331D1*
X62371Y25404D1*
X62110Y25596D1*
Y25924D1*
X61977Y26057D1*
X62977D2*
X63133D1*
X63044Y25007D2*
Y24638D1*
X62851Y24446D1*
X63113Y24110D2*
Y24488D1*
X63274Y24648D1*
Y25061D1*
X63102Y25233D1*
X62989D1*
X62832Y25075D1*
Y25036D1*
X62719Y24923D1*
X62422D1*
X62382Y24963D1*
D30*
X62851Y24446D3*
X62438Y24681D3*
X62413Y24205D3*
X63113Y24110D3*
X62382Y24963D3*
X61955Y24083D3*
X61712Y23777D3*
X62607Y25158D3*
X63044Y25007D3*
D21*
X63977Y24057D3*
Y25057D3*
G36*
X63481Y25392D2*
X63583D1*
Y24722D1*
X63481D1*
X63375Y24929D1*
Y25185D1*
X63481Y25392D1*
G37*
G36*
Y24392D2*
X63583D1*
Y23722D1*
X63481D1*
X63375Y23929D1*
Y24185D1*
X63481Y24392D1*
G37*
D23*
X62977Y26057D3*
X61977D3*
G36*
X61642Y25561D2*
Y25663D1*
X62312D1*
Y25561D1*
X62105Y25455D1*
X61849D1*
X61642Y25561D1*
G37*
G36*
X62642D2*
Y25663D1*
X63312D1*
Y25561D1*
X63105Y25455D1*
X62849D1*
X62642Y25561D1*
G37*
D23*
X62977Y23057D3*
X61977D3*
G36*
X62312Y23553D2*
Y23451D1*
X61642D1*
Y23553D1*
X61849Y23659D1*
X62105D1*
X62312Y23553D1*
G37*
G36*
X63312D2*
Y23451D1*
X62642D1*
Y23553D1*
X62849Y23659D1*
X63105D1*
X63312Y23553D1*
G37*
D21*
X60977Y24057D3*
Y25057D3*
G36*
X61473Y24722D2*
X61371D1*
Y25392D1*
X61473D1*
X61579Y25185D1*
Y24929D1*
X61473Y24722D1*
G37*
G36*
Y23722D2*
X61371D1*
Y24392D1*
X61473D1*
X61579Y24185D1*
Y23929D1*
X61473Y23722D1*
G37*
X68297Y23057D2*
D14*
Y23769D1*
X68733Y24205D1*
X69297Y23057D2*
Y23683D1*
X68989Y23991D1*
Y24334D1*
X68758Y24566D1*
Y24681D1*
X68927Y25158D2*
X68765Y25331D1*
X68691Y25404D1*
X68430Y25596D1*
Y25924D1*
X68297Y26057D1*
X69297D2*
X69453D1*
X69364Y25007D2*
Y24638D1*
X69171Y24446D1*
X69433Y24110D2*
Y24488D1*
X69594Y24648D1*
Y25061D1*
X69422Y25233D1*
X69309D1*
X69152Y25075D1*
Y25036D1*
X69039Y24923D1*
X68742D1*
X68702Y24963D1*
D30*
X69171Y24446D3*
X68758Y24681D3*
X68733Y24205D3*
X69433Y24110D3*
X68702Y24963D3*
X68275Y24083D3*
X68032Y23777D3*
X68927Y25158D3*
X69364Y25007D3*
D21*
X70297Y24057D3*
Y25057D3*
G36*
X69801Y25392D2*
X69903D1*
Y24722D1*
X69801D1*
X69695Y24929D1*
Y25185D1*
X69801Y25392D1*
G37*
G36*
Y24392D2*
X69903D1*
Y23722D1*
X69801D1*
X69695Y23929D1*
Y24185D1*
X69801Y24392D1*
G37*
D23*
X69297Y26057D3*
X68297D3*
G36*
X67962Y25561D2*
Y25663D1*
X68632D1*
Y25561D1*
X68425Y25455D1*
X68169D1*
X67962Y25561D1*
G37*
G36*
X68962D2*
Y25663D1*
X69632D1*
Y25561D1*
X69425Y25455D1*
X69169D1*
X68962Y25561D1*
G37*
D23*
X69297Y23057D3*
X68297D3*
G36*
X68632Y23553D2*
Y23451D1*
X67962D1*
Y23553D1*
X68169Y23659D1*
X68425D1*
X68632Y23553D1*
G37*
G36*
X69632D2*
Y23451D1*
X68962D1*
Y23553D1*
X69169Y23659D1*
X69425D1*
X69632Y23553D1*
G37*
D21*
X67297Y24057D3*
Y25057D3*
G36*
X67793Y24722D2*
X67691D1*
Y25392D1*
X67793D1*
X67899Y25185D1*
Y24929D1*
X67793Y24722D1*
G37*
G36*
Y23722D2*
X67691D1*
Y24392D1*
X67793D1*
X67899Y24185D1*
Y23929D1*
X67793Y23722D1*
G37*
X74617Y23057D2*
D14*
Y23769D1*
X75053Y24205D1*
X75617Y23057D2*
Y23683D1*
X75309Y23991D1*
Y24334D1*
X75078Y24566D1*
Y24681D1*
X75247Y25158D2*
X75085Y25331D1*
X75011Y25404D1*
X74750Y25596D1*
Y25924D1*
X74617Y26057D1*
X75617D2*
X75773D1*
X75684Y25007D2*
Y24638D1*
X75491Y24446D1*
X75753Y24110D2*
Y24488D1*
X75914Y24648D1*
Y25061D1*
X75742Y25233D1*
X75629D1*
X75472Y25075D1*
Y25036D1*
X75359Y24923D1*
X75062D1*
X75022Y24963D1*
D30*
X75491Y24446D3*
X75078Y24681D3*
X75053Y24205D3*
X75753Y24110D3*
X75022Y24963D3*
X74595Y24083D3*
X74352Y23777D3*
X75247Y25158D3*
X75684Y25007D3*
D21*
X76617Y24057D3*
Y25057D3*
G36*
X76121Y25392D2*
X76223D1*
Y24722D1*
X76121D1*
X76015Y24929D1*
Y25185D1*
X76121Y25392D1*
G37*
G36*
Y24392D2*
X76223D1*
Y23722D1*
X76121D1*
X76015Y23929D1*
Y24185D1*
X76121Y24392D1*
G37*
D23*
X75617Y26057D3*
X74617D3*
G36*
X74282Y25561D2*
Y25663D1*
X74952D1*
Y25561D1*
X74745Y25455D1*
X74489D1*
X74282Y25561D1*
G37*
G36*
X75282D2*
Y25663D1*
X75952D1*
Y25561D1*
X75745Y25455D1*
X75489D1*
X75282Y25561D1*
G37*
D23*
X75617Y23057D3*
X74617D3*
G36*
X74952Y23553D2*
Y23451D1*
X74282D1*
Y23553D1*
X74489Y23659D1*
X74745D1*
X74952Y23553D1*
G37*
G36*
X75952D2*
Y23451D1*
X75282D1*
Y23553D1*
X75489Y23659D1*
X75745D1*
X75952Y23553D1*
G37*
D21*
X73617Y24057D3*
Y25057D3*
G36*
X74113Y24722D2*
X74011D1*
Y25392D1*
X74113D1*
X74219Y25185D1*
Y24929D1*
X74113Y24722D1*
G37*
G36*
Y23722D2*
X74011D1*
Y24392D1*
X74113D1*
X74219Y24185D1*
Y23929D1*
X74113Y23722D1*
G37*
X5097Y29377D2*
D14*
Y30089D1*
X5533Y30525D1*
X6097Y29377D2*
Y30003D1*
X5789Y30311D1*
Y30654D1*
X5558Y30886D1*
Y31001D1*
X5727Y31478D2*
X5565Y31651D1*
X5491Y31724D1*
X5230Y31916D1*
Y32244D1*
X5097Y32377D1*
X6097D2*
X6253D1*
X6164Y31327D2*
Y30958D1*
X5971Y30766D1*
X6233Y30430D2*
Y30808D1*
X6394Y30968D1*
Y31381D1*
X6222Y31553D1*
X6109D1*
X5952Y31395D1*
Y31356D1*
X5839Y31243D1*
X5542D1*
X5502Y31283D1*
D30*
X5971Y30766D3*
X5558Y31001D3*
X5533Y30525D3*
X6233Y30430D3*
X5502Y31283D3*
X5075Y30403D3*
X4832Y30097D3*
X5727Y31478D3*
X6164Y31327D3*
D21*
X7097Y30377D3*
Y31377D3*
G36*
X6601Y31712D2*
X6703D1*
Y31042D1*
X6601D1*
X6495Y31249D1*
Y31505D1*
X6601Y31712D1*
G37*
G36*
Y30712D2*
X6703D1*
Y30042D1*
X6601D1*
X6495Y30249D1*
Y30505D1*
X6601Y30712D1*
G37*
D23*
X6097Y32377D3*
X5097D3*
G36*
X4762Y31881D2*
Y31983D1*
X5432D1*
Y31881D1*
X5225Y31775D1*
X4969D1*
X4762Y31881D1*
G37*
G36*
X5762D2*
Y31983D1*
X6432D1*
Y31881D1*
X6225Y31775D1*
X5969D1*
X5762Y31881D1*
G37*
D23*
X6097Y29377D3*
X5097D3*
G36*
X5432Y29873D2*
Y29771D1*
X4762D1*
Y29873D1*
X4969Y29979D1*
X5225D1*
X5432Y29873D1*
G37*
G36*
X6432D2*
Y29771D1*
X5762D1*
Y29873D1*
X5969Y29979D1*
X6225D1*
X6432Y29873D1*
G37*
D21*
X4097Y30377D3*
Y31377D3*
G36*
X4593Y31042D2*
X4491D1*
Y31712D1*
X4593D1*
X4699Y31505D1*
Y31249D1*
X4593Y31042D1*
G37*
G36*
Y30042D2*
X4491D1*
Y30712D1*
X4593D1*
X4699Y30505D1*
Y30249D1*
X4593Y30042D1*
G37*
X11417Y29377D2*
D14*
Y30089D1*
X11853Y30525D1*
X12417Y29377D2*
Y30003D1*
X12109Y30311D1*
Y30654D1*
X11878Y30886D1*
Y31001D1*
X12047Y31478D2*
X11885Y31651D1*
X11811Y31724D1*
X11550Y31916D1*
Y32244D1*
X11417Y32377D1*
X12417D2*
X12573D1*
X12484Y31327D2*
Y30958D1*
X12291Y30766D1*
X12553Y30430D2*
Y30808D1*
X12714Y30968D1*
Y31381D1*
X12542Y31553D1*
X12429D1*
X12272Y31395D1*
Y31356D1*
X12159Y31243D1*
X11862D1*
X11822Y31283D1*
D30*
X12291Y30766D3*
X11878Y31001D3*
X11853Y30525D3*
X12553Y30430D3*
X11822Y31283D3*
X11395Y30403D3*
X11152Y30097D3*
X12047Y31478D3*
X12484Y31327D3*
D21*
X13417Y30377D3*
Y31377D3*
G36*
X12921Y31712D2*
X13023D1*
Y31042D1*
X12921D1*
X12815Y31249D1*
Y31505D1*
X12921Y31712D1*
G37*
G36*
Y30712D2*
X13023D1*
Y30042D1*
X12921D1*
X12815Y30249D1*
Y30505D1*
X12921Y30712D1*
G37*
D23*
X12417Y32377D3*
X11417D3*
G36*
X11082Y31881D2*
Y31983D1*
X11752D1*
Y31881D1*
X11545Y31775D1*
X11289D1*
X11082Y31881D1*
G37*
G36*
X12082D2*
Y31983D1*
X12752D1*
Y31881D1*
X12545Y31775D1*
X12289D1*
X12082Y31881D1*
G37*
D23*
X12417Y29377D3*
X11417D3*
G36*
X11752Y29873D2*
Y29771D1*
X11082D1*
Y29873D1*
X11289Y29979D1*
X11545D1*
X11752Y29873D1*
G37*
G36*
X12752D2*
Y29771D1*
X12082D1*
Y29873D1*
X12289Y29979D1*
X12545D1*
X12752Y29873D1*
G37*
D21*
X10417Y30377D3*
Y31377D3*
G36*
X10913Y31042D2*
X10811D1*
Y31712D1*
X10913D1*
X11019Y31505D1*
Y31249D1*
X10913Y31042D1*
G37*
G36*
Y30042D2*
X10811D1*
Y30712D1*
X10913D1*
X11019Y30505D1*
Y30249D1*
X10913Y30042D1*
G37*
X17737Y29377D2*
D14*
Y30089D1*
X18173Y30525D1*
X18737Y29377D2*
Y30003D1*
X18429Y30311D1*
Y30654D1*
X18198Y30886D1*
Y31001D1*
X18367Y31478D2*
X18205Y31651D1*
X18131Y31724D1*
X17870Y31916D1*
Y32244D1*
X17737Y32377D1*
X18737D2*
X18893D1*
X18804Y31327D2*
Y30958D1*
X18611Y30766D1*
X18873Y30430D2*
Y30808D1*
X19034Y30968D1*
Y31381D1*
X18862Y31553D1*
X18749D1*
X18592Y31395D1*
Y31356D1*
X18479Y31243D1*
X18182D1*
X18142Y31283D1*
D30*
X18611Y30766D3*
X18198Y31001D3*
X18173Y30525D3*
X18873Y30430D3*
X18142Y31283D3*
X17715Y30403D3*
X17472Y30097D3*
X18367Y31478D3*
X18804Y31327D3*
D21*
X19737Y30377D3*
Y31377D3*
G36*
X19241Y31712D2*
X19343D1*
Y31042D1*
X19241D1*
X19135Y31249D1*
Y31505D1*
X19241Y31712D1*
G37*
G36*
Y30712D2*
X19343D1*
Y30042D1*
X19241D1*
X19135Y30249D1*
Y30505D1*
X19241Y30712D1*
G37*
D23*
X18737Y32377D3*
X17737D3*
G36*
X17402Y31881D2*
Y31983D1*
X18072D1*
Y31881D1*
X17865Y31775D1*
X17609D1*
X17402Y31881D1*
G37*
G36*
X18402D2*
Y31983D1*
X19072D1*
Y31881D1*
X18865Y31775D1*
X18609D1*
X18402Y31881D1*
G37*
D23*
X18737Y29377D3*
X17737D3*
G36*
X18072Y29873D2*
Y29771D1*
X17402D1*
Y29873D1*
X17609Y29979D1*
X17865D1*
X18072Y29873D1*
G37*
G36*
X19072D2*
Y29771D1*
X18402D1*
Y29873D1*
X18609Y29979D1*
X18865D1*
X19072Y29873D1*
G37*
D21*
X16737Y30377D3*
Y31377D3*
G36*
X17233Y31042D2*
X17131D1*
Y31712D1*
X17233D1*
X17339Y31505D1*
Y31249D1*
X17233Y31042D1*
G37*
G36*
Y30042D2*
X17131D1*
Y30712D1*
X17233D1*
X17339Y30505D1*
Y30249D1*
X17233Y30042D1*
G37*
X24057Y29377D2*
D14*
Y30089D1*
X24493Y30525D1*
X25057Y29377D2*
Y30003D1*
X24749Y30311D1*
Y30654D1*
X24518Y30886D1*
Y31001D1*
X24687Y31478D2*
X24525Y31651D1*
X24451Y31724D1*
X24190Y31916D1*
Y32244D1*
X24057Y32377D1*
X25057D2*
X25213D1*
X25124Y31327D2*
Y30958D1*
X24931Y30766D1*
X25193Y30430D2*
Y30808D1*
X25354Y30968D1*
Y31381D1*
X25182Y31553D1*
X25069D1*
X24912Y31395D1*
Y31356D1*
X24799Y31243D1*
X24502D1*
X24462Y31283D1*
D30*
X24931Y30766D3*
X24518Y31001D3*
X24493Y30525D3*
X25193Y30430D3*
X24462Y31283D3*
X24035Y30403D3*
X23792Y30097D3*
X24687Y31478D3*
X25124Y31327D3*
D21*
X26057Y30377D3*
Y31377D3*
G36*
X25561Y31712D2*
X25663D1*
Y31042D1*
X25561D1*
X25455Y31249D1*
Y31505D1*
X25561Y31712D1*
G37*
G36*
Y30712D2*
X25663D1*
Y30042D1*
X25561D1*
X25455Y30249D1*
Y30505D1*
X25561Y30712D1*
G37*
D23*
X25057Y32377D3*
X24057D3*
G36*
X23722Y31881D2*
Y31983D1*
X24392D1*
Y31881D1*
X24185Y31775D1*
X23929D1*
X23722Y31881D1*
G37*
G36*
X24722D2*
Y31983D1*
X25392D1*
Y31881D1*
X25185Y31775D1*
X24929D1*
X24722Y31881D1*
G37*
D23*
X25057Y29377D3*
X24057D3*
G36*
X24392Y29873D2*
Y29771D1*
X23722D1*
Y29873D1*
X23929Y29979D1*
X24185D1*
X24392Y29873D1*
G37*
G36*
X25392D2*
Y29771D1*
X24722D1*
Y29873D1*
X24929Y29979D1*
X25185D1*
X25392Y29873D1*
G37*
D21*
X23057Y30377D3*
Y31377D3*
G36*
X23553Y31042D2*
X23451D1*
Y31712D1*
X23553D1*
X23659Y31505D1*
Y31249D1*
X23553Y31042D1*
G37*
G36*
Y30042D2*
X23451D1*
Y30712D1*
X23553D1*
X23659Y30505D1*
Y30249D1*
X23553Y30042D1*
G37*
X30377Y29377D2*
D14*
Y30089D1*
X30813Y30525D1*
X31377Y29377D2*
Y30003D1*
X31069Y30311D1*
Y30654D1*
X30838Y30886D1*
Y31001D1*
X31007Y31478D2*
X30845Y31651D1*
X30771Y31724D1*
X30510Y31916D1*
Y32244D1*
X30377Y32377D1*
X31377D2*
X31533D1*
X31444Y31327D2*
Y30958D1*
X31251Y30766D1*
X31513Y30430D2*
Y30808D1*
X31674Y30968D1*
Y31381D1*
X31502Y31553D1*
X31389D1*
X31232Y31395D1*
Y31356D1*
X31119Y31243D1*
X30822D1*
X30782Y31283D1*
D30*
X31251Y30766D3*
X30838Y31001D3*
X30813Y30525D3*
X31513Y30430D3*
X30782Y31283D3*
X30355Y30403D3*
X30112Y30097D3*
X31007Y31478D3*
X31444Y31327D3*
D21*
X32377Y30377D3*
Y31377D3*
G36*
X31881Y31712D2*
X31983D1*
Y31042D1*
X31881D1*
X31775Y31249D1*
Y31505D1*
X31881Y31712D1*
G37*
G36*
Y30712D2*
X31983D1*
Y30042D1*
X31881D1*
X31775Y30249D1*
Y30505D1*
X31881Y30712D1*
G37*
D23*
X31377Y32377D3*
X30377D3*
G36*
X30042Y31881D2*
Y31983D1*
X30712D1*
Y31881D1*
X30505Y31775D1*
X30249D1*
X30042Y31881D1*
G37*
G36*
X31042D2*
Y31983D1*
X31712D1*
Y31881D1*
X31505Y31775D1*
X31249D1*
X31042Y31881D1*
G37*
D23*
X31377Y29377D3*
X30377D3*
G36*
X30712Y29873D2*
Y29771D1*
X30042D1*
Y29873D1*
X30249Y29979D1*
X30505D1*
X30712Y29873D1*
G37*
G36*
X31712D2*
Y29771D1*
X31042D1*
Y29873D1*
X31249Y29979D1*
X31505D1*
X31712Y29873D1*
G37*
D21*
X29377Y30377D3*
Y31377D3*
G36*
X29873Y31042D2*
X29771D1*
Y31712D1*
X29873D1*
X29979Y31505D1*
Y31249D1*
X29873Y31042D1*
G37*
G36*
Y30042D2*
X29771D1*
Y30712D1*
X29873D1*
X29979Y30505D1*
Y30249D1*
X29873Y30042D1*
G37*
X36697Y29377D2*
D14*
Y30089D1*
X37133Y30525D1*
X37697Y29377D2*
Y30003D1*
X37389Y30311D1*
Y30654D1*
X37158Y30886D1*
Y31001D1*
X37327Y31478D2*
X37165Y31651D1*
X37091Y31724D1*
X36830Y31916D1*
Y32244D1*
X36697Y32377D1*
X37697D2*
X37853D1*
X37764Y31327D2*
Y30958D1*
X37571Y30766D1*
X37833Y30430D2*
Y30808D1*
X37994Y30968D1*
Y31381D1*
X37822Y31553D1*
X37709D1*
X37552Y31395D1*
Y31356D1*
X37439Y31243D1*
X37142D1*
X37102Y31283D1*
D30*
X37571Y30766D3*
X37158Y31001D3*
X37133Y30525D3*
X37833Y30430D3*
X37102Y31283D3*
X36675Y30403D3*
X36432Y30097D3*
X37327Y31478D3*
X37764Y31327D3*
D21*
X38697Y30377D3*
Y31377D3*
G36*
X38201Y31712D2*
X38303D1*
Y31042D1*
X38201D1*
X38095Y31249D1*
Y31505D1*
X38201Y31712D1*
G37*
G36*
Y30712D2*
X38303D1*
Y30042D1*
X38201D1*
X38095Y30249D1*
Y30505D1*
X38201Y30712D1*
G37*
D23*
X37697Y32377D3*
X36697D3*
G36*
X36362Y31881D2*
Y31983D1*
X37032D1*
Y31881D1*
X36825Y31775D1*
X36569D1*
X36362Y31881D1*
G37*
G36*
X37362D2*
Y31983D1*
X38032D1*
Y31881D1*
X37825Y31775D1*
X37569D1*
X37362Y31881D1*
G37*
D23*
X37697Y29377D3*
X36697D3*
G36*
X37032Y29873D2*
Y29771D1*
X36362D1*
Y29873D1*
X36569Y29979D1*
X36825D1*
X37032Y29873D1*
G37*
G36*
X38032D2*
Y29771D1*
X37362D1*
Y29873D1*
X37569Y29979D1*
X37825D1*
X38032Y29873D1*
G37*
D21*
X35697Y30377D3*
Y31377D3*
G36*
X36193Y31042D2*
X36091D1*
Y31712D1*
X36193D1*
X36299Y31505D1*
Y31249D1*
X36193Y31042D1*
G37*
G36*
Y30042D2*
X36091D1*
Y30712D1*
X36193D1*
X36299Y30505D1*
Y30249D1*
X36193Y30042D1*
G37*
X43017Y29377D2*
D14*
Y30089D1*
X43453Y30525D1*
X44017Y29377D2*
Y30003D1*
X43709Y30311D1*
Y30654D1*
X43478Y30886D1*
Y31001D1*
X43647Y31478D2*
X43485Y31651D1*
X43411Y31724D1*
X43150Y31916D1*
Y32244D1*
X43017Y32377D1*
X44017D2*
X44173D1*
X44084Y31327D2*
Y30958D1*
X43891Y30766D1*
X44153Y30430D2*
Y30808D1*
X44314Y30968D1*
Y31381D1*
X44142Y31553D1*
X44029D1*
X43872Y31395D1*
Y31356D1*
X43759Y31243D1*
X43462D1*
X43422Y31283D1*
D30*
X43891Y30766D3*
X43478Y31001D3*
X43453Y30525D3*
X44153Y30430D3*
X43422Y31283D3*
X42995Y30403D3*
X42752Y30097D3*
X43647Y31478D3*
X44084Y31327D3*
D21*
X45017Y30377D3*
Y31377D3*
G36*
X44521Y31712D2*
X44623D1*
Y31042D1*
X44521D1*
X44415Y31249D1*
Y31505D1*
X44521Y31712D1*
G37*
G36*
Y30712D2*
X44623D1*
Y30042D1*
X44521D1*
X44415Y30249D1*
Y30505D1*
X44521Y30712D1*
G37*
D23*
X44017Y32377D3*
X43017D3*
G36*
X42682Y31881D2*
Y31983D1*
X43352D1*
Y31881D1*
X43145Y31775D1*
X42889D1*
X42682Y31881D1*
G37*
G36*
X43682D2*
Y31983D1*
X44352D1*
Y31881D1*
X44145Y31775D1*
X43889D1*
X43682Y31881D1*
G37*
D23*
X44017Y29377D3*
X43017D3*
G36*
X43352Y29873D2*
Y29771D1*
X42682D1*
Y29873D1*
X42889Y29979D1*
X43145D1*
X43352Y29873D1*
G37*
G36*
X44352D2*
Y29771D1*
X43682D1*
Y29873D1*
X43889Y29979D1*
X44145D1*
X44352Y29873D1*
G37*
D21*
X42017Y30377D3*
Y31377D3*
G36*
X42513Y31042D2*
X42411D1*
Y31712D1*
X42513D1*
X42619Y31505D1*
Y31249D1*
X42513Y31042D1*
G37*
G36*
Y30042D2*
X42411D1*
Y30712D1*
X42513D1*
X42619Y30505D1*
Y30249D1*
X42513Y30042D1*
G37*
X49337Y29377D2*
D14*
Y30089D1*
X49773Y30525D1*
X50337Y29377D2*
Y30003D1*
X50029Y30311D1*
Y30654D1*
X49798Y30886D1*
Y31001D1*
X49967Y31478D2*
X49805Y31651D1*
X49731Y31724D1*
X49470Y31916D1*
Y32244D1*
X49337Y32377D1*
X50337D2*
X50493D1*
X50404Y31327D2*
Y30958D1*
X50211Y30766D1*
X50473Y30430D2*
Y30808D1*
X50634Y30968D1*
Y31381D1*
X50462Y31553D1*
X50349D1*
X50192Y31395D1*
Y31356D1*
X50079Y31243D1*
X49782D1*
X49742Y31283D1*
D30*
X50211Y30766D3*
X49798Y31001D3*
X49773Y30525D3*
X50473Y30430D3*
X49742Y31283D3*
X49315Y30403D3*
X49072Y30097D3*
X49967Y31478D3*
X50404Y31327D3*
D21*
X51337Y30377D3*
Y31377D3*
G36*
X50841Y31712D2*
X50943D1*
Y31042D1*
X50841D1*
X50735Y31249D1*
Y31505D1*
X50841Y31712D1*
G37*
G36*
Y30712D2*
X50943D1*
Y30042D1*
X50841D1*
X50735Y30249D1*
Y30505D1*
X50841Y30712D1*
G37*
D23*
X50337Y32377D3*
X49337D3*
G36*
X49002Y31881D2*
Y31983D1*
X49672D1*
Y31881D1*
X49465Y31775D1*
X49209D1*
X49002Y31881D1*
G37*
G36*
X50002D2*
Y31983D1*
X50672D1*
Y31881D1*
X50465Y31775D1*
X50209D1*
X50002Y31881D1*
G37*
D23*
X50337Y29377D3*
X49337D3*
G36*
X49672Y29873D2*
Y29771D1*
X49002D1*
Y29873D1*
X49209Y29979D1*
X49465D1*
X49672Y29873D1*
G37*
G36*
X50672D2*
Y29771D1*
X50002D1*
Y29873D1*
X50209Y29979D1*
X50465D1*
X50672Y29873D1*
G37*
D21*
X48337Y30377D3*
Y31377D3*
G36*
X48833Y31042D2*
X48731D1*
Y31712D1*
X48833D1*
X48939Y31505D1*
Y31249D1*
X48833Y31042D1*
G37*
G36*
Y30042D2*
X48731D1*
Y30712D1*
X48833D1*
X48939Y30505D1*
Y30249D1*
X48833Y30042D1*
G37*
X55657Y29377D2*
D14*
Y30089D1*
X56093Y30525D1*
X56657Y29377D2*
Y30003D1*
X56349Y30311D1*
Y30654D1*
X56118Y30886D1*
Y31001D1*
X56287Y31478D2*
X56125Y31651D1*
X56051Y31724D1*
X55790Y31916D1*
Y32244D1*
X55657Y32377D1*
X56657D2*
X56813D1*
X56724Y31327D2*
Y30958D1*
X56531Y30766D1*
X56793Y30430D2*
Y30808D1*
X56954Y30968D1*
Y31381D1*
X56782Y31553D1*
X56669D1*
X56512Y31395D1*
Y31356D1*
X56399Y31243D1*
X56102D1*
X56062Y31283D1*
D30*
X56531Y30766D3*
X56118Y31001D3*
X56093Y30525D3*
X56793Y30430D3*
X56062Y31283D3*
X55635Y30403D3*
X55392Y30097D3*
X56287Y31478D3*
X56724Y31327D3*
D21*
X57657Y30377D3*
Y31377D3*
G36*
X57161Y31712D2*
X57263D1*
Y31042D1*
X57161D1*
X57055Y31249D1*
Y31505D1*
X57161Y31712D1*
G37*
G36*
Y30712D2*
X57263D1*
Y30042D1*
X57161D1*
X57055Y30249D1*
Y30505D1*
X57161Y30712D1*
G37*
D23*
X56657Y32377D3*
X55657D3*
G36*
X55322Y31881D2*
Y31983D1*
X55992D1*
Y31881D1*
X55785Y31775D1*
X55529D1*
X55322Y31881D1*
G37*
G36*
X56322D2*
Y31983D1*
X56992D1*
Y31881D1*
X56785Y31775D1*
X56529D1*
X56322Y31881D1*
G37*
D23*
X56657Y29377D3*
X55657D3*
G36*
X55992Y29873D2*
Y29771D1*
X55322D1*
Y29873D1*
X55529Y29979D1*
X55785D1*
X55992Y29873D1*
G37*
G36*
X56992D2*
Y29771D1*
X56322D1*
Y29873D1*
X56529Y29979D1*
X56785D1*
X56992Y29873D1*
G37*
D21*
X54657Y30377D3*
Y31377D3*
G36*
X55153Y31042D2*
X55051D1*
Y31712D1*
X55153D1*
X55259Y31505D1*
Y31249D1*
X55153Y31042D1*
G37*
G36*
Y30042D2*
X55051D1*
Y30712D1*
X55153D1*
X55259Y30505D1*
Y30249D1*
X55153Y30042D1*
G37*
X61977Y29377D2*
D14*
Y30089D1*
X62413Y30525D1*
X62977Y29377D2*
Y30003D1*
X62669Y30311D1*
Y30654D1*
X62438Y30886D1*
Y31001D1*
X62607Y31478D2*
X62445Y31651D1*
X62371Y31724D1*
X62110Y31916D1*
Y32244D1*
X61977Y32377D1*
X62977D2*
X63133D1*
X63044Y31327D2*
Y30958D1*
X62851Y30766D1*
X63113Y30430D2*
Y30808D1*
X63274Y30968D1*
Y31381D1*
X63102Y31553D1*
X62989D1*
X62832Y31395D1*
Y31356D1*
X62719Y31243D1*
X62422D1*
X62382Y31283D1*
D30*
X62851Y30766D3*
X62438Y31001D3*
X62413Y30525D3*
X63113Y30430D3*
X62382Y31283D3*
X61955Y30403D3*
X61712Y30097D3*
X62607Y31478D3*
X63044Y31327D3*
D21*
X63977Y30377D3*
Y31377D3*
G36*
X63481Y31712D2*
X63583D1*
Y31042D1*
X63481D1*
X63375Y31249D1*
Y31505D1*
X63481Y31712D1*
G37*
G36*
Y30712D2*
X63583D1*
Y30042D1*
X63481D1*
X63375Y30249D1*
Y30505D1*
X63481Y30712D1*
G37*
D23*
X62977Y32377D3*
X61977D3*
G36*
X61642Y31881D2*
Y31983D1*
X62312D1*
Y31881D1*
X62105Y31775D1*
X61849D1*
X61642Y31881D1*
G37*
G36*
X62642D2*
Y31983D1*
X63312D1*
Y31881D1*
X63105Y31775D1*
X62849D1*
X62642Y31881D1*
G37*
D23*
X62977Y29377D3*
X61977D3*
G36*
X62312Y29873D2*
Y29771D1*
X61642D1*
Y29873D1*
X61849Y29979D1*
X62105D1*
X62312Y29873D1*
G37*
G36*
X63312D2*
Y29771D1*
X62642D1*
Y29873D1*
X62849Y29979D1*
X63105D1*
X63312Y29873D1*
G37*
D21*
X60977Y30377D3*
Y31377D3*
G36*
X61473Y31042D2*
X61371D1*
Y31712D1*
X61473D1*
X61579Y31505D1*
Y31249D1*
X61473Y31042D1*
G37*
G36*
Y30042D2*
X61371D1*
Y30712D1*
X61473D1*
X61579Y30505D1*
Y30249D1*
X61473Y30042D1*
G37*
X68297Y29377D2*
D14*
Y30089D1*
X68733Y30525D1*
X69297Y29377D2*
Y30003D1*
X68989Y30311D1*
Y30654D1*
X68758Y30886D1*
Y31001D1*
X68927Y31478D2*
X68765Y31651D1*
X68691Y31724D1*
X68430Y31916D1*
Y32244D1*
X68297Y32377D1*
X69297D2*
X69453D1*
X69364Y31327D2*
Y30958D1*
X69171Y30766D1*
X69433Y30430D2*
Y30808D1*
X69594Y30968D1*
Y31381D1*
X69422Y31553D1*
X69309D1*
X69152Y31395D1*
Y31356D1*
X69039Y31243D1*
X68742D1*
X68702Y31283D1*
D30*
X69171Y30766D3*
X68758Y31001D3*
X68733Y30525D3*
X69433Y30430D3*
X68702Y31283D3*
X68275Y30403D3*
X68032Y30097D3*
X68927Y31478D3*
X69364Y31327D3*
D21*
X70297Y30377D3*
Y31377D3*
G36*
X69801Y31712D2*
X69903D1*
Y31042D1*
X69801D1*
X69695Y31249D1*
Y31505D1*
X69801Y31712D1*
G37*
G36*
Y30712D2*
X69903D1*
Y30042D1*
X69801D1*
X69695Y30249D1*
Y30505D1*
X69801Y30712D1*
G37*
D23*
X69297Y32377D3*
X68297D3*
G36*
X67962Y31881D2*
Y31983D1*
X68632D1*
Y31881D1*
X68425Y31775D1*
X68169D1*
X67962Y31881D1*
G37*
G36*
X68962D2*
Y31983D1*
X69632D1*
Y31881D1*
X69425Y31775D1*
X69169D1*
X68962Y31881D1*
G37*
D23*
X69297Y29377D3*
X68297D3*
G36*
X68632Y29873D2*
Y29771D1*
X67962D1*
Y29873D1*
X68169Y29979D1*
X68425D1*
X68632Y29873D1*
G37*
G36*
X69632D2*
Y29771D1*
X68962D1*
Y29873D1*
X69169Y29979D1*
X69425D1*
X69632Y29873D1*
G37*
D21*
X67297Y30377D3*
Y31377D3*
G36*
X67793Y31042D2*
X67691D1*
Y31712D1*
X67793D1*
X67899Y31505D1*
Y31249D1*
X67793Y31042D1*
G37*
G36*
Y30042D2*
X67691D1*
Y30712D1*
X67793D1*
X67899Y30505D1*
Y30249D1*
X67793Y30042D1*
G37*
X74617Y29377D2*
D14*
Y30089D1*
X75053Y30525D1*
X75617Y29377D2*
Y30003D1*
X75309Y30311D1*
Y30654D1*
X75078Y30886D1*
Y31001D1*
X75247Y31478D2*
X75085Y31651D1*
X75011Y31724D1*
X74750Y31916D1*
Y32244D1*
X74617Y32377D1*
X75617D2*
X75773D1*
X75684Y31327D2*
Y30958D1*
X75491Y30766D1*
X75753Y30430D2*
Y30808D1*
X75914Y30968D1*
Y31381D1*
X75742Y31553D1*
X75629D1*
X75472Y31395D1*
Y31356D1*
X75359Y31243D1*
X75062D1*
X75022Y31283D1*
D30*
X75491Y30766D3*
X75078Y31001D3*
X75053Y30525D3*
X75753Y30430D3*
X75022Y31283D3*
X74595Y30403D3*
X74352Y30097D3*
X75247Y31478D3*
X75684Y31327D3*
D21*
X76617Y30377D3*
Y31377D3*
G36*
X76121Y31712D2*
X76223D1*
Y31042D1*
X76121D1*
X76015Y31249D1*
Y31505D1*
X76121Y31712D1*
G37*
G36*
Y30712D2*
X76223D1*
Y30042D1*
X76121D1*
X76015Y30249D1*
Y30505D1*
X76121Y30712D1*
G37*
D23*
X75617Y32377D3*
X74617D3*
G36*
X74282Y31881D2*
Y31983D1*
X74952D1*
Y31881D1*
X74745Y31775D1*
X74489D1*
X74282Y31881D1*
G37*
G36*
X75282D2*
Y31983D1*
X75952D1*
Y31881D1*
X75745Y31775D1*
X75489D1*
X75282Y31881D1*
G37*
D23*
X75617Y29377D3*
X74617D3*
G36*
X74952Y29873D2*
Y29771D1*
X74282D1*
Y29873D1*
X74489Y29979D1*
X74745D1*
X74952Y29873D1*
G37*
G36*
X75952D2*
Y29771D1*
X75282D1*
Y29873D1*
X75489Y29979D1*
X75745D1*
X75952Y29873D1*
G37*
D21*
X73617Y30377D3*
Y31377D3*
G36*
X74113Y31042D2*
X74011D1*
Y31712D1*
X74113D1*
X74219Y31505D1*
Y31249D1*
X74113Y31042D1*
G37*
G36*
Y30042D2*
X74011D1*
Y30712D1*
X74113D1*
X74219Y30505D1*
Y30249D1*
X74113Y30042D1*
G37*
X5097Y35697D2*
D14*
Y36409D1*
X5533Y36845D1*
X6097Y35697D2*
Y36323D1*
X5789Y36631D1*
Y36974D1*
X5558Y37206D1*
Y37321D1*
X5727Y37798D2*
X5565Y37971D1*
X5491Y38044D1*
X5230Y38236D1*
Y38564D1*
X5097Y38697D1*
X6097D2*
X6253D1*
X6164Y37647D2*
Y37278D1*
X5971Y37086D1*
X6233Y36750D2*
Y37128D1*
X6394Y37288D1*
Y37701D1*
X6222Y37873D1*
X6109D1*
X5952Y37715D1*
Y37676D1*
X5839Y37563D1*
X5542D1*
X5502Y37603D1*
D30*
X5971Y37086D3*
X5558Y37321D3*
X5533Y36845D3*
X6233Y36750D3*
X5502Y37603D3*
X5075Y36723D3*
X4832Y36417D3*
X5727Y37798D3*
X6164Y37647D3*
D21*
X7097Y36697D3*
Y37697D3*
G36*
X6601Y38032D2*
X6703D1*
Y37362D1*
X6601D1*
X6495Y37569D1*
Y37825D1*
X6601Y38032D1*
G37*
G36*
Y37032D2*
X6703D1*
Y36362D1*
X6601D1*
X6495Y36569D1*
Y36825D1*
X6601Y37032D1*
G37*
D23*
X6097Y38697D3*
X5097D3*
G36*
X4762Y38201D2*
Y38303D1*
X5432D1*
Y38201D1*
X5225Y38095D1*
X4969D1*
X4762Y38201D1*
G37*
G36*
X5762D2*
Y38303D1*
X6432D1*
Y38201D1*
X6225Y38095D1*
X5969D1*
X5762Y38201D1*
G37*
D23*
X6097Y35697D3*
X5097D3*
G36*
X5432Y36193D2*
Y36091D1*
X4762D1*
Y36193D1*
X4969Y36299D1*
X5225D1*
X5432Y36193D1*
G37*
G36*
X6432D2*
Y36091D1*
X5762D1*
Y36193D1*
X5969Y36299D1*
X6225D1*
X6432Y36193D1*
G37*
D21*
X4097Y36697D3*
Y37697D3*
G36*
X4593Y37362D2*
X4491D1*
Y38032D1*
X4593D1*
X4699Y37825D1*
Y37569D1*
X4593Y37362D1*
G37*
G36*
Y36362D2*
X4491D1*
Y37032D1*
X4593D1*
X4699Y36825D1*
Y36569D1*
X4593Y36362D1*
G37*
X11417Y35697D2*
D14*
Y36409D1*
X11853Y36845D1*
X12417Y35697D2*
Y36323D1*
X12109Y36631D1*
Y36974D1*
X11878Y37206D1*
Y37321D1*
X12047Y37798D2*
X11885Y37971D1*
X11811Y38044D1*
X11550Y38236D1*
Y38564D1*
X11417Y38697D1*
X12417D2*
X12573D1*
X12484Y37647D2*
Y37278D1*
X12291Y37086D1*
X12553Y36750D2*
Y37128D1*
X12714Y37288D1*
Y37701D1*
X12542Y37873D1*
X12429D1*
X12272Y37715D1*
Y37676D1*
X12159Y37563D1*
X11862D1*
X11822Y37603D1*
D30*
X12291Y37086D3*
X11878Y37321D3*
X11853Y36845D3*
X12553Y36750D3*
X11822Y37603D3*
X11395Y36723D3*
X11152Y36417D3*
X12047Y37798D3*
X12484Y37647D3*
D21*
X13417Y36697D3*
Y37697D3*
G36*
X12921Y38032D2*
X13023D1*
Y37362D1*
X12921D1*
X12815Y37569D1*
Y37825D1*
X12921Y38032D1*
G37*
G36*
Y37032D2*
X13023D1*
Y36362D1*
X12921D1*
X12815Y36569D1*
Y36825D1*
X12921Y37032D1*
G37*
D23*
X12417Y38697D3*
X11417D3*
G36*
X11082Y38201D2*
Y38303D1*
X11752D1*
Y38201D1*
X11545Y38095D1*
X11289D1*
X11082Y38201D1*
G37*
G36*
X12082D2*
Y38303D1*
X12752D1*
Y38201D1*
X12545Y38095D1*
X12289D1*
X12082Y38201D1*
G37*
D23*
X12417Y35697D3*
X11417D3*
G36*
X11752Y36193D2*
Y36091D1*
X11082D1*
Y36193D1*
X11289Y36299D1*
X11545D1*
X11752Y36193D1*
G37*
G36*
X12752D2*
Y36091D1*
X12082D1*
Y36193D1*
X12289Y36299D1*
X12545D1*
X12752Y36193D1*
G37*
D21*
X10417Y36697D3*
Y37697D3*
G36*
X10913Y37362D2*
X10811D1*
Y38032D1*
X10913D1*
X11019Y37825D1*
Y37569D1*
X10913Y37362D1*
G37*
G36*
Y36362D2*
X10811D1*
Y37032D1*
X10913D1*
X11019Y36825D1*
Y36569D1*
X10913Y36362D1*
G37*
X17737Y35697D2*
D14*
Y36409D1*
X18173Y36845D1*
X18737Y35697D2*
Y36323D1*
X18429Y36631D1*
Y36974D1*
X18198Y37206D1*
Y37321D1*
X18367Y37798D2*
X18205Y37971D1*
X18131Y38044D1*
X17870Y38236D1*
Y38564D1*
X17737Y38697D1*
X18737D2*
X18893D1*
X18804Y37647D2*
Y37278D1*
X18611Y37086D1*
X18873Y36750D2*
Y37128D1*
X19034Y37288D1*
Y37701D1*
X18862Y37873D1*
X18749D1*
X18592Y37715D1*
Y37676D1*
X18479Y37563D1*
X18182D1*
X18142Y37603D1*
D30*
X18611Y37086D3*
X18198Y37321D3*
X18173Y36845D3*
X18873Y36750D3*
X18142Y37603D3*
X17715Y36723D3*
X17472Y36417D3*
X18367Y37798D3*
X18804Y37647D3*
D21*
X19737Y36697D3*
Y37697D3*
G36*
X19241Y38032D2*
X19343D1*
Y37362D1*
X19241D1*
X19135Y37569D1*
Y37825D1*
X19241Y38032D1*
G37*
G36*
Y37032D2*
X19343D1*
Y36362D1*
X19241D1*
X19135Y36569D1*
Y36825D1*
X19241Y37032D1*
G37*
D23*
X18737Y38697D3*
X17737D3*
G36*
X17402Y38201D2*
Y38303D1*
X18072D1*
Y38201D1*
X17865Y38095D1*
X17609D1*
X17402Y38201D1*
G37*
G36*
X18402D2*
Y38303D1*
X19072D1*
Y38201D1*
X18865Y38095D1*
X18609D1*
X18402Y38201D1*
G37*
D23*
X18737Y35697D3*
X17737D3*
G36*
X18072Y36193D2*
Y36091D1*
X17402D1*
Y36193D1*
X17609Y36299D1*
X17865D1*
X18072Y36193D1*
G37*
G36*
X19072D2*
Y36091D1*
X18402D1*
Y36193D1*
X18609Y36299D1*
X18865D1*
X19072Y36193D1*
G37*
D21*
X16737Y36697D3*
Y37697D3*
G36*
X17233Y37362D2*
X17131D1*
Y38032D1*
X17233D1*
X17339Y37825D1*
Y37569D1*
X17233Y37362D1*
G37*
G36*
Y36362D2*
X17131D1*
Y37032D1*
X17233D1*
X17339Y36825D1*
Y36569D1*
X17233Y36362D1*
G37*
X24057Y35697D2*
D14*
Y36409D1*
X24493Y36845D1*
X25057Y35697D2*
Y36323D1*
X24749Y36631D1*
Y36974D1*
X24518Y37206D1*
Y37321D1*
X24687Y37798D2*
X24525Y37971D1*
X24451Y38044D1*
X24190Y38236D1*
Y38564D1*
X24057Y38697D1*
X25057D2*
X25213D1*
X25124Y37647D2*
Y37278D1*
X24931Y37086D1*
X25193Y36750D2*
Y37128D1*
X25354Y37288D1*
Y37701D1*
X25182Y37873D1*
X25069D1*
X24912Y37715D1*
Y37676D1*
X24799Y37563D1*
X24502D1*
X24462Y37603D1*
D30*
X24931Y37086D3*
X24518Y37321D3*
X24493Y36845D3*
X25193Y36750D3*
X24462Y37603D3*
X24035Y36723D3*
X23792Y36417D3*
X24687Y37798D3*
X25124Y37647D3*
D21*
X26057Y36697D3*
Y37697D3*
G36*
X25561Y38032D2*
X25663D1*
Y37362D1*
X25561D1*
X25455Y37569D1*
Y37825D1*
X25561Y38032D1*
G37*
G36*
Y37032D2*
X25663D1*
Y36362D1*
X25561D1*
X25455Y36569D1*
Y36825D1*
X25561Y37032D1*
G37*
D23*
X25057Y38697D3*
X24057D3*
G36*
X23722Y38201D2*
Y38303D1*
X24392D1*
Y38201D1*
X24185Y38095D1*
X23929D1*
X23722Y38201D1*
G37*
G36*
X24722D2*
Y38303D1*
X25392D1*
Y38201D1*
X25185Y38095D1*
X24929D1*
X24722Y38201D1*
G37*
D23*
X25057Y35697D3*
X24057D3*
G36*
X24392Y36193D2*
Y36091D1*
X23722D1*
Y36193D1*
X23929Y36299D1*
X24185D1*
X24392Y36193D1*
G37*
G36*
X25392D2*
Y36091D1*
X24722D1*
Y36193D1*
X24929Y36299D1*
X25185D1*
X25392Y36193D1*
G37*
D21*
X23057Y36697D3*
Y37697D3*
G36*
X23553Y37362D2*
X23451D1*
Y38032D1*
X23553D1*
X23659Y37825D1*
Y37569D1*
X23553Y37362D1*
G37*
G36*
Y36362D2*
X23451D1*
Y37032D1*
X23553D1*
X23659Y36825D1*
Y36569D1*
X23553Y36362D1*
G37*
X30377Y35697D2*
D14*
Y36409D1*
X30813Y36845D1*
X31377Y35697D2*
Y36323D1*
X31069Y36631D1*
Y36974D1*
X30838Y37206D1*
Y37321D1*
X31007Y37798D2*
X30845Y37971D1*
X30771Y38044D1*
X30510Y38236D1*
Y38564D1*
X30377Y38697D1*
X31377D2*
X31533D1*
X31444Y37647D2*
Y37278D1*
X31251Y37086D1*
X31513Y36750D2*
Y37128D1*
X31674Y37288D1*
Y37701D1*
X31502Y37873D1*
X31389D1*
X31232Y37715D1*
Y37676D1*
X31119Y37563D1*
X30822D1*
X30782Y37603D1*
D30*
X31251Y37086D3*
X30838Y37321D3*
X30813Y36845D3*
X31513Y36750D3*
X30782Y37603D3*
X30355Y36723D3*
X30112Y36417D3*
X31007Y37798D3*
X31444Y37647D3*
D21*
X32377Y36697D3*
Y37697D3*
G36*
X31881Y38032D2*
X31983D1*
Y37362D1*
X31881D1*
X31775Y37569D1*
Y37825D1*
X31881Y38032D1*
G37*
G36*
Y37032D2*
X31983D1*
Y36362D1*
X31881D1*
X31775Y36569D1*
Y36825D1*
X31881Y37032D1*
G37*
D23*
X31377Y38697D3*
X30377D3*
G36*
X30042Y38201D2*
Y38303D1*
X30712D1*
Y38201D1*
X30505Y38095D1*
X30249D1*
X30042Y38201D1*
G37*
G36*
X31042D2*
Y38303D1*
X31712D1*
Y38201D1*
X31505Y38095D1*
X31249D1*
X31042Y38201D1*
G37*
D23*
X31377Y35697D3*
X30377D3*
G36*
X30712Y36193D2*
Y36091D1*
X30042D1*
Y36193D1*
X30249Y36299D1*
X30505D1*
X30712Y36193D1*
G37*
G36*
X31712D2*
Y36091D1*
X31042D1*
Y36193D1*
X31249Y36299D1*
X31505D1*
X31712Y36193D1*
G37*
D21*
X29377Y36697D3*
Y37697D3*
G36*
X29873Y37362D2*
X29771D1*
Y38032D1*
X29873D1*
X29979Y37825D1*
Y37569D1*
X29873Y37362D1*
G37*
G36*
Y36362D2*
X29771D1*
Y37032D1*
X29873D1*
X29979Y36825D1*
Y36569D1*
X29873Y36362D1*
G37*
X36697Y35697D2*
D14*
Y36409D1*
X37133Y36845D1*
X37697Y35697D2*
Y36323D1*
X37389Y36631D1*
Y36974D1*
X37158Y37206D1*
Y37321D1*
X37327Y37798D2*
X37165Y37971D1*
X37091Y38044D1*
X36830Y38236D1*
Y38564D1*
X36697Y38697D1*
X37697D2*
X37853D1*
X37764Y37647D2*
Y37278D1*
X37571Y37086D1*
X37833Y36750D2*
Y37128D1*
X37994Y37288D1*
Y37701D1*
X37822Y37873D1*
X37709D1*
X37552Y37715D1*
Y37676D1*
X37439Y37563D1*
X37142D1*
X37102Y37603D1*
D30*
X37571Y37086D3*
X37158Y37321D3*
X37133Y36845D3*
X37833Y36750D3*
X37102Y37603D3*
X36675Y36723D3*
X36432Y36417D3*
X37327Y37798D3*
X37764Y37647D3*
D21*
X38697Y36697D3*
Y37697D3*
G36*
X38201Y38032D2*
X38303D1*
Y37362D1*
X38201D1*
X38095Y37569D1*
Y37825D1*
X38201Y38032D1*
G37*
G36*
Y37032D2*
X38303D1*
Y36362D1*
X38201D1*
X38095Y36569D1*
Y36825D1*
X38201Y37032D1*
G37*
D23*
X37697Y38697D3*
X36697D3*
G36*
X36362Y38201D2*
Y38303D1*
X37032D1*
Y38201D1*
X36825Y38095D1*
X36569D1*
X36362Y38201D1*
G37*
G36*
X37362D2*
Y38303D1*
X38032D1*
Y38201D1*
X37825Y38095D1*
X37569D1*
X37362Y38201D1*
G37*
D23*
X37697Y35697D3*
X36697D3*
G36*
X37032Y36193D2*
Y36091D1*
X36362D1*
Y36193D1*
X36569Y36299D1*
X36825D1*
X37032Y36193D1*
G37*
G36*
X38032D2*
Y36091D1*
X37362D1*
Y36193D1*
X37569Y36299D1*
X37825D1*
X38032Y36193D1*
G37*
D21*
X35697Y36697D3*
Y37697D3*
G36*
X36193Y37362D2*
X36091D1*
Y38032D1*
X36193D1*
X36299Y37825D1*
Y37569D1*
X36193Y37362D1*
G37*
G36*
Y36362D2*
X36091D1*
Y37032D1*
X36193D1*
X36299Y36825D1*
Y36569D1*
X36193Y36362D1*
G37*
X43017Y35697D2*
D14*
Y36409D1*
X43453Y36845D1*
X44017Y35697D2*
Y36323D1*
X43709Y36631D1*
Y36974D1*
X43478Y37206D1*
Y37321D1*
X43647Y37798D2*
X43485Y37971D1*
X43411Y38044D1*
X43150Y38236D1*
Y38564D1*
X43017Y38697D1*
X44017D2*
X44173D1*
X44084Y37647D2*
Y37278D1*
X43891Y37086D1*
X44153Y36750D2*
Y37128D1*
X44314Y37288D1*
Y37701D1*
X44142Y37873D1*
X44029D1*
X43872Y37715D1*
Y37676D1*
X43759Y37563D1*
X43462D1*
X43422Y37603D1*
D30*
X43891Y37086D3*
X43478Y37321D3*
X43453Y36845D3*
X44153Y36750D3*
X43422Y37603D3*
X42995Y36723D3*
X42752Y36417D3*
X43647Y37798D3*
X44084Y37647D3*
D21*
X45017Y36697D3*
Y37697D3*
G36*
X44521Y38032D2*
X44623D1*
Y37362D1*
X44521D1*
X44415Y37569D1*
Y37825D1*
X44521Y38032D1*
G37*
G36*
Y37032D2*
X44623D1*
Y36362D1*
X44521D1*
X44415Y36569D1*
Y36825D1*
X44521Y37032D1*
G37*
D23*
X44017Y38697D3*
X43017D3*
G36*
X42682Y38201D2*
Y38303D1*
X43352D1*
Y38201D1*
X43145Y38095D1*
X42889D1*
X42682Y38201D1*
G37*
G36*
X43682D2*
Y38303D1*
X44352D1*
Y38201D1*
X44145Y38095D1*
X43889D1*
X43682Y38201D1*
G37*
D23*
X44017Y35697D3*
X43017D3*
G36*
X43352Y36193D2*
Y36091D1*
X42682D1*
Y36193D1*
X42889Y36299D1*
X43145D1*
X43352Y36193D1*
G37*
G36*
X44352D2*
Y36091D1*
X43682D1*
Y36193D1*
X43889Y36299D1*
X44145D1*
X44352Y36193D1*
G37*
D21*
X42017Y36697D3*
Y37697D3*
G36*
X42513Y37362D2*
X42411D1*
Y38032D1*
X42513D1*
X42619Y37825D1*
Y37569D1*
X42513Y37362D1*
G37*
G36*
Y36362D2*
X42411D1*
Y37032D1*
X42513D1*
X42619Y36825D1*
Y36569D1*
X42513Y36362D1*
G37*
X49337Y35697D2*
D14*
Y36409D1*
X49773Y36845D1*
X50337Y35697D2*
Y36323D1*
X50029Y36631D1*
Y36974D1*
X49798Y37206D1*
Y37321D1*
X49967Y37798D2*
X49805Y37971D1*
X49731Y38044D1*
X49470Y38236D1*
Y38564D1*
X49337Y38697D1*
X50337D2*
X50493D1*
X50404Y37647D2*
Y37278D1*
X50211Y37086D1*
X50473Y36750D2*
Y37128D1*
X50634Y37288D1*
Y37701D1*
X50462Y37873D1*
X50349D1*
X50192Y37715D1*
Y37676D1*
X50079Y37563D1*
X49782D1*
X49742Y37603D1*
D30*
X50211Y37086D3*
X49798Y37321D3*
X49773Y36845D3*
X50473Y36750D3*
X49742Y37603D3*
X49315Y36723D3*
X49072Y36417D3*
X49967Y37798D3*
X50404Y37647D3*
D21*
X51337Y36697D3*
Y37697D3*
G36*
X50841Y38032D2*
X50943D1*
Y37362D1*
X50841D1*
X50735Y37569D1*
Y37825D1*
X50841Y38032D1*
G37*
G36*
Y37032D2*
X50943D1*
Y36362D1*
X50841D1*
X50735Y36569D1*
Y36825D1*
X50841Y37032D1*
G37*
D23*
X50337Y38697D3*
X49337D3*
G36*
X49002Y38201D2*
Y38303D1*
X49672D1*
Y38201D1*
X49465Y38095D1*
X49209D1*
X49002Y38201D1*
G37*
G36*
X50002D2*
Y38303D1*
X50672D1*
Y38201D1*
X50465Y38095D1*
X50209D1*
X50002Y38201D1*
G37*
D23*
X50337Y35697D3*
X49337D3*
G36*
X49672Y36193D2*
Y36091D1*
X49002D1*
Y36193D1*
X49209Y36299D1*
X49465D1*
X49672Y36193D1*
G37*
G36*
X50672D2*
Y36091D1*
X50002D1*
Y36193D1*
X50209Y36299D1*
X50465D1*
X50672Y36193D1*
G37*
D21*
X48337Y36697D3*
Y37697D3*
G36*
X48833Y37362D2*
X48731D1*
Y38032D1*
X48833D1*
X48939Y37825D1*
Y37569D1*
X48833Y37362D1*
G37*
G36*
Y36362D2*
X48731D1*
Y37032D1*
X48833D1*
X48939Y36825D1*
Y36569D1*
X48833Y36362D1*
G37*
X55657Y35697D2*
D14*
Y36409D1*
X56093Y36845D1*
X56657Y35697D2*
Y36323D1*
X56349Y36631D1*
Y36974D1*
X56118Y37206D1*
Y37321D1*
X56287Y37798D2*
X56125Y37971D1*
X56051Y38044D1*
X55790Y38236D1*
Y38564D1*
X55657Y38697D1*
X56657D2*
X56813D1*
X56724Y37647D2*
Y37278D1*
X56531Y37086D1*
X56793Y36750D2*
Y37128D1*
X56954Y37288D1*
Y37701D1*
X56782Y37873D1*
X56669D1*
X56512Y37715D1*
Y37676D1*
X56399Y37563D1*
X56102D1*
X56062Y37603D1*
D30*
X56531Y37086D3*
X56118Y37321D3*
X56093Y36845D3*
X56793Y36750D3*
X56062Y37603D3*
X55635Y36723D3*
X55392Y36417D3*
X56287Y37798D3*
X56724Y37647D3*
D21*
X57657Y36697D3*
Y37697D3*
G36*
X57161Y38032D2*
X57263D1*
Y37362D1*
X57161D1*
X57055Y37569D1*
Y37825D1*
X57161Y38032D1*
G37*
G36*
Y37032D2*
X57263D1*
Y36362D1*
X57161D1*
X57055Y36569D1*
Y36825D1*
X57161Y37032D1*
G37*
D23*
X56657Y38697D3*
X55657D3*
G36*
X55322Y38201D2*
Y38303D1*
X55992D1*
Y38201D1*
X55785Y38095D1*
X55529D1*
X55322Y38201D1*
G37*
G36*
X56322D2*
Y38303D1*
X56992D1*
Y38201D1*
X56785Y38095D1*
X56529D1*
X56322Y38201D1*
G37*
D23*
X56657Y35697D3*
X55657D3*
G36*
X55992Y36193D2*
Y36091D1*
X55322D1*
Y36193D1*
X55529Y36299D1*
X55785D1*
X55992Y36193D1*
G37*
G36*
X56992D2*
Y36091D1*
X56322D1*
Y36193D1*
X56529Y36299D1*
X56785D1*
X56992Y36193D1*
G37*
D21*
X54657Y36697D3*
Y37697D3*
G36*
X55153Y37362D2*
X55051D1*
Y38032D1*
X55153D1*
X55259Y37825D1*
Y37569D1*
X55153Y37362D1*
G37*
G36*
Y36362D2*
X55051D1*
Y37032D1*
X55153D1*
X55259Y36825D1*
Y36569D1*
X55153Y36362D1*
G37*
X61977Y35697D2*
D14*
Y36409D1*
X62413Y36845D1*
X62977Y35697D2*
Y36323D1*
X62669Y36631D1*
Y36974D1*
X62438Y37206D1*
Y37321D1*
X62607Y37798D2*
X62445Y37971D1*
X62371Y38044D1*
X62110Y38236D1*
Y38564D1*
X61977Y38697D1*
X62977D2*
X63133D1*
X63044Y37647D2*
Y37278D1*
X62851Y37086D1*
X63113Y36750D2*
Y37128D1*
X63274Y37288D1*
Y37701D1*
X63102Y37873D1*
X62989D1*
X62832Y37715D1*
Y37676D1*
X62719Y37563D1*
X62422D1*
X62382Y37603D1*
D30*
X62851Y37086D3*
X62438Y37321D3*
X62413Y36845D3*
X63113Y36750D3*
X62382Y37603D3*
X61955Y36723D3*
X61712Y36417D3*
X62607Y37798D3*
X63044Y37647D3*
D21*
X63977Y36697D3*
Y37697D3*
G36*
X63481Y38032D2*
X63583D1*
Y37362D1*
X63481D1*
X63375Y37569D1*
Y37825D1*
X63481Y38032D1*
G37*
G36*
Y37032D2*
X63583D1*
Y36362D1*
X63481D1*
X63375Y36569D1*
Y36825D1*
X63481Y37032D1*
G37*
D23*
X62977Y38697D3*
X61977D3*
G36*
X61642Y38201D2*
Y38303D1*
X62312D1*
Y38201D1*
X62105Y38095D1*
X61849D1*
X61642Y38201D1*
G37*
G36*
X62642D2*
Y38303D1*
X63312D1*
Y38201D1*
X63105Y38095D1*
X62849D1*
X62642Y38201D1*
G37*
D23*
X62977Y35697D3*
X61977D3*
G36*
X62312Y36193D2*
Y36091D1*
X61642D1*
Y36193D1*
X61849Y36299D1*
X62105D1*
X62312Y36193D1*
G37*
G36*
X63312D2*
Y36091D1*
X62642D1*
Y36193D1*
X62849Y36299D1*
X63105D1*
X63312Y36193D1*
G37*
D21*
X60977Y36697D3*
Y37697D3*
G36*
X61473Y37362D2*
X61371D1*
Y38032D1*
X61473D1*
X61579Y37825D1*
Y37569D1*
X61473Y37362D1*
G37*
G36*
Y36362D2*
X61371D1*
Y37032D1*
X61473D1*
X61579Y36825D1*
Y36569D1*
X61473Y36362D1*
G37*
X68297Y35697D2*
D14*
Y36409D1*
X68733Y36845D1*
X69297Y35697D2*
Y36323D1*
X68989Y36631D1*
Y36974D1*
X68758Y37206D1*
Y37321D1*
X68927Y37798D2*
X68765Y37971D1*
X68691Y38044D1*
X68430Y38236D1*
Y38564D1*
X68297Y38697D1*
X69297D2*
X69453D1*
X69364Y37647D2*
Y37278D1*
X69171Y37086D1*
X69433Y36750D2*
Y37128D1*
X69594Y37288D1*
Y37701D1*
X69422Y37873D1*
X69309D1*
X69152Y37715D1*
Y37676D1*
X69039Y37563D1*
X68742D1*
X68702Y37603D1*
D30*
X69171Y37086D3*
X68758Y37321D3*
X68733Y36845D3*
X69433Y36750D3*
X68702Y37603D3*
X68275Y36723D3*
X68032Y36417D3*
X68927Y37798D3*
X69364Y37647D3*
D21*
X70297Y36697D3*
Y37697D3*
G36*
X69801Y38032D2*
X69903D1*
Y37362D1*
X69801D1*
X69695Y37569D1*
Y37825D1*
X69801Y38032D1*
G37*
G36*
Y37032D2*
X69903D1*
Y36362D1*
X69801D1*
X69695Y36569D1*
Y36825D1*
X69801Y37032D1*
G37*
D23*
X69297Y38697D3*
X68297D3*
G36*
X67962Y38201D2*
Y38303D1*
X68632D1*
Y38201D1*
X68425Y38095D1*
X68169D1*
X67962Y38201D1*
G37*
G36*
X68962D2*
Y38303D1*
X69632D1*
Y38201D1*
X69425Y38095D1*
X69169D1*
X68962Y38201D1*
G37*
D23*
X69297Y35697D3*
X68297D3*
G36*
X68632Y36193D2*
Y36091D1*
X67962D1*
Y36193D1*
X68169Y36299D1*
X68425D1*
X68632Y36193D1*
G37*
G36*
X69632D2*
Y36091D1*
X68962D1*
Y36193D1*
X69169Y36299D1*
X69425D1*
X69632Y36193D1*
G37*
D21*
X67297Y36697D3*
Y37697D3*
G36*
X67793Y37362D2*
X67691D1*
Y38032D1*
X67793D1*
X67899Y37825D1*
Y37569D1*
X67793Y37362D1*
G37*
G36*
Y36362D2*
X67691D1*
Y37032D1*
X67793D1*
X67899Y36825D1*
Y36569D1*
X67793Y36362D1*
G37*
X74617Y35697D2*
D14*
Y36409D1*
X75053Y36845D1*
X75617Y35697D2*
Y36323D1*
X75309Y36631D1*
Y36974D1*
X75078Y37206D1*
Y37321D1*
X75247Y37798D2*
X75085Y37971D1*
X75011Y38044D1*
X74750Y38236D1*
Y38564D1*
X74617Y38697D1*
X75617D2*
X75773D1*
X75684Y37647D2*
Y37278D1*
X75491Y37086D1*
X75753Y36750D2*
Y37128D1*
X75914Y37288D1*
Y37701D1*
X75742Y37873D1*
X75629D1*
X75472Y37715D1*
Y37676D1*
X75359Y37563D1*
X75062D1*
X75022Y37603D1*
D30*
X75491Y37086D3*
X75078Y37321D3*
X75053Y36845D3*
X75753Y36750D3*
X75022Y37603D3*
X74595Y36723D3*
X74352Y36417D3*
X75247Y37798D3*
X75684Y37647D3*
D21*
X76617Y36697D3*
Y37697D3*
G36*
X76121Y38032D2*
X76223D1*
Y37362D1*
X76121D1*
X76015Y37569D1*
Y37825D1*
X76121Y38032D1*
G37*
G36*
Y37032D2*
X76223D1*
Y36362D1*
X76121D1*
X76015Y36569D1*
Y36825D1*
X76121Y37032D1*
G37*
D23*
X75617Y38697D3*
X74617D3*
G36*
X74282Y38201D2*
Y38303D1*
X74952D1*
Y38201D1*
X74745Y38095D1*
X74489D1*
X74282Y38201D1*
G37*
G36*
X75282D2*
Y38303D1*
X75952D1*
Y38201D1*
X75745Y38095D1*
X75489D1*
X75282Y38201D1*
G37*
D23*
X75617Y35697D3*
X74617D3*
G36*
X74952Y36193D2*
Y36091D1*
X74282D1*
Y36193D1*
X74489Y36299D1*
X74745D1*
X74952Y36193D1*
G37*
G36*
X75952D2*
Y36091D1*
X75282D1*
Y36193D1*
X75489Y36299D1*
X75745D1*
X75952Y36193D1*
G37*
D21*
X73617Y36697D3*
Y37697D3*
G36*
X74113Y37362D2*
X74011D1*
Y38032D1*
X74113D1*
X74219Y37825D1*
Y37569D1*
X74113Y37362D1*
G37*
G36*
Y36362D2*
X74011D1*
Y37032D1*
X74113D1*
X74219Y36825D1*
Y36569D1*
X74113Y36362D1*
G37*
X5097Y42017D2*
D14*
Y42729D1*
X5533Y43165D1*
X6097Y42017D2*
Y42643D1*
X5789Y42951D1*
Y43294D1*
X5558Y43526D1*
Y43641D1*
X5727Y44118D2*
X5565Y44291D1*
X5491Y44364D1*
X5230Y44556D1*
Y44884D1*
X5097Y45017D1*
X6097D2*
X6253D1*
X6164Y43967D2*
Y43598D1*
X5971Y43406D1*
X6233Y43070D2*
Y43448D1*
X6394Y43608D1*
Y44021D1*
X6222Y44193D1*
X6109D1*
X5952Y44035D1*
Y43996D1*
X5839Y43883D1*
X5542D1*
X5502Y43923D1*
D30*
X5971Y43406D3*
X5558Y43641D3*
X5533Y43165D3*
X6233Y43070D3*
X5502Y43923D3*
X5075Y43043D3*
X4832Y42737D3*
X5727Y44118D3*
X6164Y43967D3*
D21*
X7097Y43017D3*
Y44017D3*
G36*
X6601Y44352D2*
X6703D1*
Y43682D1*
X6601D1*
X6495Y43889D1*
Y44145D1*
X6601Y44352D1*
G37*
G36*
Y43352D2*
X6703D1*
Y42682D1*
X6601D1*
X6495Y42889D1*
Y43145D1*
X6601Y43352D1*
G37*
D23*
X6097Y45017D3*
X5097D3*
G36*
X4762Y44521D2*
Y44623D1*
X5432D1*
Y44521D1*
X5225Y44415D1*
X4969D1*
X4762Y44521D1*
G37*
G36*
X5762D2*
Y44623D1*
X6432D1*
Y44521D1*
X6225Y44415D1*
X5969D1*
X5762Y44521D1*
G37*
D23*
X6097Y42017D3*
X5097D3*
G36*
X5432Y42513D2*
Y42411D1*
X4762D1*
Y42513D1*
X4969Y42619D1*
X5225D1*
X5432Y42513D1*
G37*
G36*
X6432D2*
Y42411D1*
X5762D1*
Y42513D1*
X5969Y42619D1*
X6225D1*
X6432Y42513D1*
G37*
D21*
X4097Y43017D3*
Y44017D3*
G36*
X4593Y43682D2*
X4491D1*
Y44352D1*
X4593D1*
X4699Y44145D1*
Y43889D1*
X4593Y43682D1*
G37*
G36*
Y42682D2*
X4491D1*
Y43352D1*
X4593D1*
X4699Y43145D1*
Y42889D1*
X4593Y42682D1*
G37*
X11417Y42017D2*
D14*
Y42729D1*
X11853Y43165D1*
X12417Y42017D2*
Y42643D1*
X12109Y42951D1*
Y43294D1*
X11878Y43526D1*
Y43641D1*
X12047Y44118D2*
X11885Y44291D1*
X11811Y44364D1*
X11550Y44556D1*
Y44884D1*
X11417Y45017D1*
X12417D2*
X12573D1*
X12484Y43967D2*
Y43598D1*
X12291Y43406D1*
X12553Y43070D2*
Y43448D1*
X12714Y43608D1*
Y44021D1*
X12542Y44193D1*
X12429D1*
X12272Y44035D1*
Y43996D1*
X12159Y43883D1*
X11862D1*
X11822Y43923D1*
D30*
X12291Y43406D3*
X11878Y43641D3*
X11853Y43165D3*
X12553Y43070D3*
X11822Y43923D3*
X11395Y43043D3*
X11152Y42737D3*
X12047Y44118D3*
X12484Y43967D3*
D21*
X13417Y43017D3*
Y44017D3*
G36*
X12921Y44352D2*
X13023D1*
Y43682D1*
X12921D1*
X12815Y43889D1*
Y44145D1*
X12921Y44352D1*
G37*
G36*
Y43352D2*
X13023D1*
Y42682D1*
X12921D1*
X12815Y42889D1*
Y43145D1*
X12921Y43352D1*
G37*
D23*
X12417Y45017D3*
X11417D3*
G36*
X11082Y44521D2*
Y44623D1*
X11752D1*
Y44521D1*
X11545Y44415D1*
X11289D1*
X11082Y44521D1*
G37*
G36*
X12082D2*
Y44623D1*
X12752D1*
Y44521D1*
X12545Y44415D1*
X12289D1*
X12082Y44521D1*
G37*
D23*
X12417Y42017D3*
X11417D3*
G36*
X11752Y42513D2*
Y42411D1*
X11082D1*
Y42513D1*
X11289Y42619D1*
X11545D1*
X11752Y42513D1*
G37*
G36*
X12752D2*
Y42411D1*
X12082D1*
Y42513D1*
X12289Y42619D1*
X12545D1*
X12752Y42513D1*
G37*
D21*
X10417Y43017D3*
Y44017D3*
G36*
X10913Y43682D2*
X10811D1*
Y44352D1*
X10913D1*
X11019Y44145D1*
Y43889D1*
X10913Y43682D1*
G37*
G36*
Y42682D2*
X10811D1*
Y43352D1*
X10913D1*
X11019Y43145D1*
Y42889D1*
X10913Y42682D1*
G37*
X17737Y42017D2*
D14*
Y42729D1*
X18173Y43165D1*
X18737Y42017D2*
Y42643D1*
X18429Y42951D1*
Y43294D1*
X18198Y43526D1*
Y43641D1*
X18367Y44118D2*
X18205Y44291D1*
X18131Y44364D1*
X17870Y44556D1*
Y44884D1*
X17737Y45017D1*
X18737D2*
X18893D1*
X18804Y43967D2*
Y43598D1*
X18611Y43406D1*
X18873Y43070D2*
Y43448D1*
X19034Y43608D1*
Y44021D1*
X18862Y44193D1*
X18749D1*
X18592Y44035D1*
Y43996D1*
X18479Y43883D1*
X18182D1*
X18142Y43923D1*
D30*
X18611Y43406D3*
X18198Y43641D3*
X18173Y43165D3*
X18873Y43070D3*
X18142Y43923D3*
X17715Y43043D3*
X17472Y42737D3*
X18367Y44118D3*
X18804Y43967D3*
D21*
X19737Y43017D3*
Y44017D3*
G36*
X19241Y44352D2*
X19343D1*
Y43682D1*
X19241D1*
X19135Y43889D1*
Y44145D1*
X19241Y44352D1*
G37*
G36*
Y43352D2*
X19343D1*
Y42682D1*
X19241D1*
X19135Y42889D1*
Y43145D1*
X19241Y43352D1*
G37*
D23*
X18737Y45017D3*
X17737D3*
G36*
X17402Y44521D2*
Y44623D1*
X18072D1*
Y44521D1*
X17865Y44415D1*
X17609D1*
X17402Y44521D1*
G37*
G36*
X18402D2*
Y44623D1*
X19072D1*
Y44521D1*
X18865Y44415D1*
X18609D1*
X18402Y44521D1*
G37*
D23*
X18737Y42017D3*
X17737D3*
G36*
X18072Y42513D2*
Y42411D1*
X17402D1*
Y42513D1*
X17609Y42619D1*
X17865D1*
X18072Y42513D1*
G37*
G36*
X19072D2*
Y42411D1*
X18402D1*
Y42513D1*
X18609Y42619D1*
X18865D1*
X19072Y42513D1*
G37*
D21*
X16737Y43017D3*
Y44017D3*
G36*
X17233Y43682D2*
X17131D1*
Y44352D1*
X17233D1*
X17339Y44145D1*
Y43889D1*
X17233Y43682D1*
G37*
G36*
Y42682D2*
X17131D1*
Y43352D1*
X17233D1*
X17339Y43145D1*
Y42889D1*
X17233Y42682D1*
G37*
X24057Y42017D2*
D14*
Y42729D1*
X24493Y43165D1*
X25057Y42017D2*
Y42643D1*
X24749Y42951D1*
Y43294D1*
X24518Y43526D1*
Y43641D1*
X24687Y44118D2*
X24525Y44291D1*
X24451Y44364D1*
X24190Y44556D1*
Y44884D1*
X24057Y45017D1*
X25057D2*
X25213D1*
X25124Y43967D2*
Y43598D1*
X24931Y43406D1*
X25193Y43070D2*
Y43448D1*
X25354Y43608D1*
Y44021D1*
X25182Y44193D1*
X25069D1*
X24912Y44035D1*
Y43996D1*
X24799Y43883D1*
X24502D1*
X24462Y43923D1*
D30*
X24931Y43406D3*
X24518Y43641D3*
X24493Y43165D3*
X25193Y43070D3*
X24462Y43923D3*
X24035Y43043D3*
X23792Y42737D3*
X24687Y44118D3*
X25124Y43967D3*
D21*
X26057Y43017D3*
Y44017D3*
G36*
X25561Y44352D2*
X25663D1*
Y43682D1*
X25561D1*
X25455Y43889D1*
Y44145D1*
X25561Y44352D1*
G37*
G36*
Y43352D2*
X25663D1*
Y42682D1*
X25561D1*
X25455Y42889D1*
Y43145D1*
X25561Y43352D1*
G37*
D23*
X25057Y45017D3*
X24057D3*
G36*
X23722Y44521D2*
Y44623D1*
X24392D1*
Y44521D1*
X24185Y44415D1*
X23929D1*
X23722Y44521D1*
G37*
G36*
X24722D2*
Y44623D1*
X25392D1*
Y44521D1*
X25185Y44415D1*
X24929D1*
X24722Y44521D1*
G37*
D23*
X25057Y42017D3*
X24057D3*
G36*
X24392Y42513D2*
Y42411D1*
X23722D1*
Y42513D1*
X23929Y42619D1*
X24185D1*
X24392Y42513D1*
G37*
G36*
X25392D2*
Y42411D1*
X24722D1*
Y42513D1*
X24929Y42619D1*
X25185D1*
X25392Y42513D1*
G37*
D21*
X23057Y43017D3*
Y44017D3*
G36*
X23553Y43682D2*
X23451D1*
Y44352D1*
X23553D1*
X23659Y44145D1*
Y43889D1*
X23553Y43682D1*
G37*
G36*
Y42682D2*
X23451D1*
Y43352D1*
X23553D1*
X23659Y43145D1*
Y42889D1*
X23553Y42682D1*
G37*
X30377Y42017D2*
D14*
Y42729D1*
X30813Y43165D1*
X31377Y42017D2*
Y42643D1*
X31069Y42951D1*
Y43294D1*
X30838Y43526D1*
Y43641D1*
X31007Y44118D2*
X30845Y44291D1*
X30771Y44364D1*
X30510Y44556D1*
Y44884D1*
X30377Y45017D1*
X31377D2*
X31533D1*
X31444Y43967D2*
Y43598D1*
X31251Y43406D1*
X31513Y43070D2*
Y43448D1*
X31674Y43608D1*
Y44021D1*
X31502Y44193D1*
X31389D1*
X31232Y44035D1*
Y43996D1*
X31119Y43883D1*
X30822D1*
X30782Y43923D1*
D30*
X31251Y43406D3*
X30838Y43641D3*
X30813Y43165D3*
X31513Y43070D3*
X30782Y43923D3*
X30355Y43043D3*
X30112Y42737D3*
X31007Y44118D3*
X31444Y43967D3*
D21*
X32377Y43017D3*
Y44017D3*
G36*
X31881Y44352D2*
X31983D1*
Y43682D1*
X31881D1*
X31775Y43889D1*
Y44145D1*
X31881Y44352D1*
G37*
G36*
Y43352D2*
X31983D1*
Y42682D1*
X31881D1*
X31775Y42889D1*
Y43145D1*
X31881Y43352D1*
G37*
D23*
X31377Y45017D3*
X30377D3*
G36*
X30042Y44521D2*
Y44623D1*
X30712D1*
Y44521D1*
X30505Y44415D1*
X30249D1*
X30042Y44521D1*
G37*
G36*
X31042D2*
Y44623D1*
X31712D1*
Y44521D1*
X31505Y44415D1*
X31249D1*
X31042Y44521D1*
G37*
D23*
X31377Y42017D3*
X30377D3*
G36*
X30712Y42513D2*
Y42411D1*
X30042D1*
Y42513D1*
X30249Y42619D1*
X30505D1*
X30712Y42513D1*
G37*
G36*
X31712D2*
Y42411D1*
X31042D1*
Y42513D1*
X31249Y42619D1*
X31505D1*
X31712Y42513D1*
G37*
D21*
X29377Y43017D3*
Y44017D3*
G36*
X29873Y43682D2*
X29771D1*
Y44352D1*
X29873D1*
X29979Y44145D1*
Y43889D1*
X29873Y43682D1*
G37*
G36*
Y42682D2*
X29771D1*
Y43352D1*
X29873D1*
X29979Y43145D1*
Y42889D1*
X29873Y42682D1*
G37*
X36697Y42017D2*
D14*
Y42729D1*
X37133Y43165D1*
X37697Y42017D2*
Y42643D1*
X37389Y42951D1*
Y43294D1*
X37158Y43526D1*
Y43641D1*
X37327Y44118D2*
X37165Y44291D1*
X37091Y44364D1*
X36830Y44556D1*
Y44884D1*
X36697Y45017D1*
X37697D2*
X37853D1*
X37764Y43967D2*
Y43598D1*
X37571Y43406D1*
X37833Y43070D2*
Y43448D1*
X37994Y43608D1*
Y44021D1*
X37822Y44193D1*
X37709D1*
X37552Y44035D1*
Y43996D1*
X37439Y43883D1*
X37142D1*
X37102Y43923D1*
D30*
X37571Y43406D3*
X37158Y43641D3*
X37133Y43165D3*
X37833Y43070D3*
X37102Y43923D3*
X36675Y43043D3*
X36432Y42737D3*
X37327Y44118D3*
X37764Y43967D3*
D21*
X38697Y43017D3*
Y44017D3*
G36*
X38201Y44352D2*
X38303D1*
Y43682D1*
X38201D1*
X38095Y43889D1*
Y44145D1*
X38201Y44352D1*
G37*
G36*
Y43352D2*
X38303D1*
Y42682D1*
X38201D1*
X38095Y42889D1*
Y43145D1*
X38201Y43352D1*
G37*
D23*
X37697Y45017D3*
X36697D3*
G36*
X36362Y44521D2*
Y44623D1*
X37032D1*
Y44521D1*
X36825Y44415D1*
X36569D1*
X36362Y44521D1*
G37*
G36*
X37362D2*
Y44623D1*
X38032D1*
Y44521D1*
X37825Y44415D1*
X37569D1*
X37362Y44521D1*
G37*
D23*
X37697Y42017D3*
X36697D3*
G36*
X37032Y42513D2*
Y42411D1*
X36362D1*
Y42513D1*
X36569Y42619D1*
X36825D1*
X37032Y42513D1*
G37*
G36*
X38032D2*
Y42411D1*
X37362D1*
Y42513D1*
X37569Y42619D1*
X37825D1*
X38032Y42513D1*
G37*
D21*
X35697Y43017D3*
Y44017D3*
G36*
X36193Y43682D2*
X36091D1*
Y44352D1*
X36193D1*
X36299Y44145D1*
Y43889D1*
X36193Y43682D1*
G37*
G36*
Y42682D2*
X36091D1*
Y43352D1*
X36193D1*
X36299Y43145D1*
Y42889D1*
X36193Y42682D1*
G37*
X43017Y42017D2*
D14*
Y42729D1*
X43453Y43165D1*
X44017Y42017D2*
Y42643D1*
X43709Y42951D1*
Y43294D1*
X43478Y43526D1*
Y43641D1*
X43647Y44118D2*
X43485Y44291D1*
X43411Y44364D1*
X43150Y44556D1*
Y44884D1*
X43017Y45017D1*
X44017D2*
X44173D1*
X44084Y43967D2*
Y43598D1*
X43891Y43406D1*
X44153Y43070D2*
Y43448D1*
X44314Y43608D1*
Y44021D1*
X44142Y44193D1*
X44029D1*
X43872Y44035D1*
Y43996D1*
X43759Y43883D1*
X43462D1*
X43422Y43923D1*
D30*
X43891Y43406D3*
X43478Y43641D3*
X43453Y43165D3*
X44153Y43070D3*
X43422Y43923D3*
X42995Y43043D3*
X42752Y42737D3*
X43647Y44118D3*
X44084Y43967D3*
D21*
X45017Y43017D3*
Y44017D3*
G36*
X44521Y44352D2*
X44623D1*
Y43682D1*
X44521D1*
X44415Y43889D1*
Y44145D1*
X44521Y44352D1*
G37*
G36*
Y43352D2*
X44623D1*
Y42682D1*
X44521D1*
X44415Y42889D1*
Y43145D1*
X44521Y43352D1*
G37*
D23*
X44017Y45017D3*
X43017D3*
G36*
X42682Y44521D2*
Y44623D1*
X43352D1*
Y44521D1*
X43145Y44415D1*
X42889D1*
X42682Y44521D1*
G37*
G36*
X43682D2*
Y44623D1*
X44352D1*
Y44521D1*
X44145Y44415D1*
X43889D1*
X43682Y44521D1*
G37*
D23*
X44017Y42017D3*
X43017D3*
G36*
X43352Y42513D2*
Y42411D1*
X42682D1*
Y42513D1*
X42889Y42619D1*
X43145D1*
X43352Y42513D1*
G37*
G36*
X44352D2*
Y42411D1*
X43682D1*
Y42513D1*
X43889Y42619D1*
X44145D1*
X44352Y42513D1*
G37*
D21*
X42017Y43017D3*
Y44017D3*
G36*
X42513Y43682D2*
X42411D1*
Y44352D1*
X42513D1*
X42619Y44145D1*
Y43889D1*
X42513Y43682D1*
G37*
G36*
Y42682D2*
X42411D1*
Y43352D1*
X42513D1*
X42619Y43145D1*
Y42889D1*
X42513Y42682D1*
G37*
X49337Y42017D2*
D14*
Y42729D1*
X49773Y43165D1*
X50337Y42017D2*
Y42643D1*
X50029Y42951D1*
Y43294D1*
X49798Y43526D1*
Y43641D1*
X49967Y44118D2*
X49805Y44291D1*
X49731Y44364D1*
X49470Y44556D1*
Y44884D1*
X49337Y45017D1*
X50337D2*
X50493D1*
X50404Y43967D2*
Y43598D1*
X50211Y43406D1*
X50473Y43070D2*
Y43448D1*
X50634Y43608D1*
Y44021D1*
X50462Y44193D1*
X50349D1*
X50192Y44035D1*
Y43996D1*
X50079Y43883D1*
X49782D1*
X49742Y43923D1*
D30*
X50211Y43406D3*
X49798Y43641D3*
X49773Y43165D3*
X50473Y43070D3*
X49742Y43923D3*
X49315Y43043D3*
X49072Y42737D3*
X49967Y44118D3*
X50404Y43967D3*
D21*
X51337Y43017D3*
Y44017D3*
G36*
X50841Y44352D2*
X50943D1*
Y43682D1*
X50841D1*
X50735Y43889D1*
Y44145D1*
X50841Y44352D1*
G37*
G36*
Y43352D2*
X50943D1*
Y42682D1*
X50841D1*
X50735Y42889D1*
Y43145D1*
X50841Y43352D1*
G37*
D23*
X50337Y45017D3*
X49337D3*
G36*
X49002Y44521D2*
Y44623D1*
X49672D1*
Y44521D1*
X49465Y44415D1*
X49209D1*
X49002Y44521D1*
G37*
G36*
X50002D2*
Y44623D1*
X50672D1*
Y44521D1*
X50465Y44415D1*
X50209D1*
X50002Y44521D1*
G37*
D23*
X50337Y42017D3*
X49337D3*
G36*
X49672Y42513D2*
Y42411D1*
X49002D1*
Y42513D1*
X49209Y42619D1*
X49465D1*
X49672Y42513D1*
G37*
G36*
X50672D2*
Y42411D1*
X50002D1*
Y42513D1*
X50209Y42619D1*
X50465D1*
X50672Y42513D1*
G37*
D21*
X48337Y43017D3*
Y44017D3*
G36*
X48833Y43682D2*
X48731D1*
Y44352D1*
X48833D1*
X48939Y44145D1*
Y43889D1*
X48833Y43682D1*
G37*
G36*
Y42682D2*
X48731D1*
Y43352D1*
X48833D1*
X48939Y43145D1*
Y42889D1*
X48833Y42682D1*
G37*
X55657Y42017D2*
D14*
Y42729D1*
X56093Y43165D1*
X56657Y42017D2*
Y42643D1*
X56349Y42951D1*
Y43294D1*
X56118Y43526D1*
Y43641D1*
X56287Y44118D2*
X56125Y44291D1*
X56051Y44364D1*
X55790Y44556D1*
Y44884D1*
X55657Y45017D1*
X56657D2*
X56813D1*
X56724Y43967D2*
Y43598D1*
X56531Y43406D1*
X56793Y43070D2*
Y43448D1*
X56954Y43608D1*
Y44021D1*
X56782Y44193D1*
X56669D1*
X56512Y44035D1*
Y43996D1*
X56399Y43883D1*
X56102D1*
X56062Y43923D1*
D30*
X56531Y43406D3*
X56118Y43641D3*
X56093Y43165D3*
X56793Y43070D3*
X56062Y43923D3*
X55635Y43043D3*
X55392Y42737D3*
X56287Y44118D3*
X56724Y43967D3*
D21*
X57657Y43017D3*
Y44017D3*
G36*
X57161Y44352D2*
X57263D1*
Y43682D1*
X57161D1*
X57055Y43889D1*
Y44145D1*
X57161Y44352D1*
G37*
G36*
Y43352D2*
X57263D1*
Y42682D1*
X57161D1*
X57055Y42889D1*
Y43145D1*
X57161Y43352D1*
G37*
D23*
X56657Y45017D3*
X55657D3*
G36*
X55322Y44521D2*
Y44623D1*
X55992D1*
Y44521D1*
X55785Y44415D1*
X55529D1*
X55322Y44521D1*
G37*
G36*
X56322D2*
Y44623D1*
X56992D1*
Y44521D1*
X56785Y44415D1*
X56529D1*
X56322Y44521D1*
G37*
D23*
X56657Y42017D3*
X55657D3*
G36*
X55992Y42513D2*
Y42411D1*
X55322D1*
Y42513D1*
X55529Y42619D1*
X55785D1*
X55992Y42513D1*
G37*
G36*
X56992D2*
Y42411D1*
X56322D1*
Y42513D1*
X56529Y42619D1*
X56785D1*
X56992Y42513D1*
G37*
D21*
X54657Y43017D3*
Y44017D3*
G36*
X55153Y43682D2*
X55051D1*
Y44352D1*
X55153D1*
X55259Y44145D1*
Y43889D1*
X55153Y43682D1*
G37*
G36*
Y42682D2*
X55051D1*
Y43352D1*
X55153D1*
X55259Y43145D1*
Y42889D1*
X55153Y42682D1*
G37*
X61977Y42017D2*
D14*
Y42729D1*
X62413Y43165D1*
X62977Y42017D2*
Y42643D1*
X62669Y42951D1*
Y43294D1*
X62438Y43526D1*
Y43641D1*
X62607Y44118D2*
X62445Y44291D1*
X62371Y44364D1*
X62110Y44556D1*
Y44884D1*
X61977Y45017D1*
X62977D2*
X63133D1*
X63044Y43967D2*
Y43598D1*
X62851Y43406D1*
X63113Y43070D2*
Y43448D1*
X63274Y43608D1*
Y44021D1*
X63102Y44193D1*
X62989D1*
X62832Y44035D1*
Y43996D1*
X62719Y43883D1*
X62422D1*
X62382Y43923D1*
D30*
X62851Y43406D3*
X62438Y43641D3*
X62413Y43165D3*
X63113Y43070D3*
X62382Y43923D3*
X61955Y43043D3*
X61712Y42737D3*
X62607Y44118D3*
X63044Y43967D3*
D21*
X63977Y43017D3*
Y44017D3*
G36*
X63481Y44352D2*
X63583D1*
Y43682D1*
X63481D1*
X63375Y43889D1*
Y44145D1*
X63481Y44352D1*
G37*
G36*
Y43352D2*
X63583D1*
Y42682D1*
X63481D1*
X63375Y42889D1*
Y43145D1*
X63481Y43352D1*
G37*
D23*
X62977Y45017D3*
X61977D3*
G36*
X61642Y44521D2*
Y44623D1*
X62312D1*
Y44521D1*
X62105Y44415D1*
X61849D1*
X61642Y44521D1*
G37*
G36*
X62642D2*
Y44623D1*
X63312D1*
Y44521D1*
X63105Y44415D1*
X62849D1*
X62642Y44521D1*
G37*
D23*
X62977Y42017D3*
X61977D3*
G36*
X62312Y42513D2*
Y42411D1*
X61642D1*
Y42513D1*
X61849Y42619D1*
X62105D1*
X62312Y42513D1*
G37*
G36*
X63312D2*
Y42411D1*
X62642D1*
Y42513D1*
X62849Y42619D1*
X63105D1*
X63312Y42513D1*
G37*
D21*
X60977Y43017D3*
Y44017D3*
G36*
X61473Y43682D2*
X61371D1*
Y44352D1*
X61473D1*
X61579Y44145D1*
Y43889D1*
X61473Y43682D1*
G37*
G36*
Y42682D2*
X61371D1*
Y43352D1*
X61473D1*
X61579Y43145D1*
Y42889D1*
X61473Y42682D1*
G37*
X68297Y42017D2*
D14*
Y42729D1*
X68733Y43165D1*
X69297Y42017D2*
Y42643D1*
X68989Y42951D1*
Y43294D1*
X68758Y43526D1*
Y43641D1*
X68927Y44118D2*
X68765Y44291D1*
X68691Y44364D1*
X68430Y44556D1*
Y44884D1*
X68297Y45017D1*
X69297D2*
X69453D1*
X69364Y43967D2*
Y43598D1*
X69171Y43406D1*
X69433Y43070D2*
Y43448D1*
X69594Y43608D1*
Y44021D1*
X69422Y44193D1*
X69309D1*
X69152Y44035D1*
Y43996D1*
X69039Y43883D1*
X68742D1*
X68702Y43923D1*
D30*
X69171Y43406D3*
X68758Y43641D3*
X68733Y43165D3*
X69433Y43070D3*
X68702Y43923D3*
X68275Y43043D3*
X68032Y42737D3*
X68927Y44118D3*
X69364Y43967D3*
D21*
X70297Y43017D3*
Y44017D3*
G36*
X69801Y44352D2*
X69903D1*
Y43682D1*
X69801D1*
X69695Y43889D1*
Y44145D1*
X69801Y44352D1*
G37*
G36*
Y43352D2*
X69903D1*
Y42682D1*
X69801D1*
X69695Y42889D1*
Y43145D1*
X69801Y43352D1*
G37*
D23*
X69297Y45017D3*
X68297D3*
G36*
X67962Y44521D2*
Y44623D1*
X68632D1*
Y44521D1*
X68425Y44415D1*
X68169D1*
X67962Y44521D1*
G37*
G36*
X68962D2*
Y44623D1*
X69632D1*
Y44521D1*
X69425Y44415D1*
X69169D1*
X68962Y44521D1*
G37*
D23*
X69297Y42017D3*
X68297D3*
G36*
X68632Y42513D2*
Y42411D1*
X67962D1*
Y42513D1*
X68169Y42619D1*
X68425D1*
X68632Y42513D1*
G37*
G36*
X69632D2*
Y42411D1*
X68962D1*
Y42513D1*
X69169Y42619D1*
X69425D1*
X69632Y42513D1*
G37*
D21*
X67297Y43017D3*
Y44017D3*
G36*
X67793Y43682D2*
X67691D1*
Y44352D1*
X67793D1*
X67899Y44145D1*
Y43889D1*
X67793Y43682D1*
G37*
G36*
Y42682D2*
X67691D1*
Y43352D1*
X67793D1*
X67899Y43145D1*
Y42889D1*
X67793Y42682D1*
G37*
X74617Y42017D2*
D14*
Y42729D1*
X75053Y43165D1*
X75617Y42017D2*
Y42643D1*
X75309Y42951D1*
Y43294D1*
X75078Y43526D1*
Y43641D1*
X75247Y44118D2*
X75085Y44291D1*
X75011Y44364D1*
X74750Y44556D1*
Y44884D1*
X74617Y45017D1*
X75617D2*
X75773D1*
X75684Y43967D2*
Y43598D1*
X75491Y43406D1*
X75753Y43070D2*
Y43448D1*
X75914Y43608D1*
Y44021D1*
X75742Y44193D1*
X75629D1*
X75472Y44035D1*
Y43996D1*
X75359Y43883D1*
X75062D1*
X75022Y43923D1*
D30*
X75491Y43406D3*
X75078Y43641D3*
X75053Y43165D3*
X75753Y43070D3*
X75022Y43923D3*
X74595Y43043D3*
X74352Y42737D3*
X75247Y44118D3*
X75684Y43967D3*
D21*
X76617Y43017D3*
Y44017D3*
G36*
X76121Y44352D2*
X76223D1*
Y43682D1*
X76121D1*
X76015Y43889D1*
Y44145D1*
X76121Y44352D1*
G37*
G36*
Y43352D2*
X76223D1*
Y42682D1*
X76121D1*
X76015Y42889D1*
Y43145D1*
X76121Y43352D1*
G37*
D23*
X75617Y45017D3*
X74617D3*
G36*
X74282Y44521D2*
Y44623D1*
X74952D1*
Y44521D1*
X74745Y44415D1*
X74489D1*
X74282Y44521D1*
G37*
G36*
X75282D2*
Y44623D1*
X75952D1*
Y44521D1*
X75745Y44415D1*
X75489D1*
X75282Y44521D1*
G37*
D23*
X75617Y42017D3*
X74617D3*
G36*
X74952Y42513D2*
Y42411D1*
X74282D1*
Y42513D1*
X74489Y42619D1*
X74745D1*
X74952Y42513D1*
G37*
G36*
X75952D2*
Y42411D1*
X75282D1*
Y42513D1*
X75489Y42619D1*
X75745D1*
X75952Y42513D1*
G37*
D21*
X73617Y43017D3*
Y44017D3*
G36*
X74113Y43682D2*
X74011D1*
Y44352D1*
X74113D1*
X74219Y44145D1*
Y43889D1*
X74113Y43682D1*
G37*
G36*
Y42682D2*
X74011D1*
Y43352D1*
X74113D1*
X74219Y43145D1*
Y42889D1*
X74113Y42682D1*
G37*
X5097Y48337D2*
D14*
Y49049D1*
X5533Y49485D1*
X6097Y48337D2*
Y48963D1*
X5789Y49271D1*
Y49614D1*
X5558Y49846D1*
Y49961D1*
X5727Y50438D2*
X5565Y50611D1*
X5491Y50684D1*
X5230Y50876D1*
Y51204D1*
X5097Y51337D1*
X6097D2*
X6253D1*
X6164Y50287D2*
Y49918D1*
X5971Y49726D1*
X6233Y49390D2*
Y49768D1*
X6394Y49928D1*
Y50341D1*
X6222Y50513D1*
X6109D1*
X5952Y50355D1*
Y50316D1*
X5839Y50203D1*
X5542D1*
X5502Y50243D1*
D30*
X5971Y49726D3*
X5558Y49961D3*
X5533Y49485D3*
X6233Y49390D3*
X5502Y50243D3*
X5075Y49363D3*
X4832Y49057D3*
X5727Y50438D3*
X6164Y50287D3*
D21*
X7097Y49337D3*
Y50337D3*
G36*
X6601Y50672D2*
X6703D1*
Y50002D1*
X6601D1*
X6495Y50209D1*
Y50465D1*
X6601Y50672D1*
G37*
G36*
Y49672D2*
X6703D1*
Y49002D1*
X6601D1*
X6495Y49209D1*
Y49465D1*
X6601Y49672D1*
G37*
D23*
X6097Y51337D3*
X5097D3*
G36*
X4762Y50841D2*
Y50943D1*
X5432D1*
Y50841D1*
X5225Y50735D1*
X4969D1*
X4762Y50841D1*
G37*
G36*
X5762D2*
Y50943D1*
X6432D1*
Y50841D1*
X6225Y50735D1*
X5969D1*
X5762Y50841D1*
G37*
D23*
X6097Y48337D3*
X5097D3*
G36*
X5432Y48833D2*
Y48731D1*
X4762D1*
Y48833D1*
X4969Y48939D1*
X5225D1*
X5432Y48833D1*
G37*
G36*
X6432D2*
Y48731D1*
X5762D1*
Y48833D1*
X5969Y48939D1*
X6225D1*
X6432Y48833D1*
G37*
D21*
X4097Y49337D3*
Y50337D3*
G36*
X4593Y50002D2*
X4491D1*
Y50672D1*
X4593D1*
X4699Y50465D1*
Y50209D1*
X4593Y50002D1*
G37*
G36*
Y49002D2*
X4491D1*
Y49672D1*
X4593D1*
X4699Y49465D1*
Y49209D1*
X4593Y49002D1*
G37*
X11417Y48337D2*
D14*
Y49049D1*
X11853Y49485D1*
X12417Y48337D2*
Y48963D1*
X12109Y49271D1*
Y49614D1*
X11878Y49846D1*
Y49961D1*
X12047Y50438D2*
X11885Y50611D1*
X11811Y50684D1*
X11550Y50876D1*
Y51204D1*
X11417Y51337D1*
X12417D2*
X12573D1*
X12484Y50287D2*
Y49918D1*
X12291Y49726D1*
X12553Y49390D2*
Y49768D1*
X12714Y49928D1*
Y50341D1*
X12542Y50513D1*
X12429D1*
X12272Y50355D1*
Y50316D1*
X12159Y50203D1*
X11862D1*
X11822Y50243D1*
D30*
X12291Y49726D3*
X11878Y49961D3*
X11853Y49485D3*
X12553Y49390D3*
X11822Y50243D3*
X11395Y49363D3*
X11152Y49057D3*
X12047Y50438D3*
X12484Y50287D3*
D21*
X13417Y49337D3*
Y50337D3*
G36*
X12921Y50672D2*
X13023D1*
Y50002D1*
X12921D1*
X12815Y50209D1*
Y50465D1*
X12921Y50672D1*
G37*
G36*
Y49672D2*
X13023D1*
Y49002D1*
X12921D1*
X12815Y49209D1*
Y49465D1*
X12921Y49672D1*
G37*
D23*
X12417Y51337D3*
X11417D3*
G36*
X11082Y50841D2*
Y50943D1*
X11752D1*
Y50841D1*
X11545Y50735D1*
X11289D1*
X11082Y50841D1*
G37*
G36*
X12082D2*
Y50943D1*
X12752D1*
Y50841D1*
X12545Y50735D1*
X12289D1*
X12082Y50841D1*
G37*
D23*
X12417Y48337D3*
X11417D3*
G36*
X11752Y48833D2*
Y48731D1*
X11082D1*
Y48833D1*
X11289Y48939D1*
X11545D1*
X11752Y48833D1*
G37*
G36*
X12752D2*
Y48731D1*
X12082D1*
Y48833D1*
X12289Y48939D1*
X12545D1*
X12752Y48833D1*
G37*
D21*
X10417Y49337D3*
Y50337D3*
G36*
X10913Y50002D2*
X10811D1*
Y50672D1*
X10913D1*
X11019Y50465D1*
Y50209D1*
X10913Y50002D1*
G37*
G36*
Y49002D2*
X10811D1*
Y49672D1*
X10913D1*
X11019Y49465D1*
Y49209D1*
X10913Y49002D1*
G37*
X17737Y48337D2*
D14*
Y49049D1*
X18173Y49485D1*
X18737Y48337D2*
Y48963D1*
X18429Y49271D1*
Y49614D1*
X18198Y49846D1*
Y49961D1*
X18367Y50438D2*
X18205Y50611D1*
X18131Y50684D1*
X17870Y50876D1*
Y51204D1*
X17737Y51337D1*
X18737D2*
X18893D1*
X18804Y50287D2*
Y49918D1*
X18611Y49726D1*
X18873Y49390D2*
Y49768D1*
X19034Y49928D1*
Y50341D1*
X18862Y50513D1*
X18749D1*
X18592Y50355D1*
Y50316D1*
X18479Y50203D1*
X18182D1*
X18142Y50243D1*
D30*
X18611Y49726D3*
X18198Y49961D3*
X18173Y49485D3*
X18873Y49390D3*
X18142Y50243D3*
X17715Y49363D3*
X17472Y49057D3*
X18367Y50438D3*
X18804Y50287D3*
D21*
X19737Y49337D3*
Y50337D3*
G36*
X19241Y50672D2*
X19343D1*
Y50002D1*
X19241D1*
X19135Y50209D1*
Y50465D1*
X19241Y50672D1*
G37*
G36*
Y49672D2*
X19343D1*
Y49002D1*
X19241D1*
X19135Y49209D1*
Y49465D1*
X19241Y49672D1*
G37*
D23*
X18737Y51337D3*
X17737D3*
G36*
X17402Y50841D2*
Y50943D1*
X18072D1*
Y50841D1*
X17865Y50735D1*
X17609D1*
X17402Y50841D1*
G37*
G36*
X18402D2*
Y50943D1*
X19072D1*
Y50841D1*
X18865Y50735D1*
X18609D1*
X18402Y50841D1*
G37*
D23*
X18737Y48337D3*
X17737D3*
G36*
X18072Y48833D2*
Y48731D1*
X17402D1*
Y48833D1*
X17609Y48939D1*
X17865D1*
X18072Y48833D1*
G37*
G36*
X19072D2*
Y48731D1*
X18402D1*
Y48833D1*
X18609Y48939D1*
X18865D1*
X19072Y48833D1*
G37*
D21*
X16737Y49337D3*
Y50337D3*
G36*
X17233Y50002D2*
X17131D1*
Y50672D1*
X17233D1*
X17339Y50465D1*
Y50209D1*
X17233Y50002D1*
G37*
G36*
Y49002D2*
X17131D1*
Y49672D1*
X17233D1*
X17339Y49465D1*
Y49209D1*
X17233Y49002D1*
G37*
X24057Y48337D2*
D14*
Y49049D1*
X24493Y49485D1*
X25057Y48337D2*
Y48963D1*
X24749Y49271D1*
Y49614D1*
X24518Y49846D1*
Y49961D1*
X24687Y50438D2*
X24525Y50611D1*
X24451Y50684D1*
X24190Y50876D1*
Y51204D1*
X24057Y51337D1*
X25057D2*
X25213D1*
X25124Y50287D2*
Y49918D1*
X24931Y49726D1*
X25193Y49390D2*
Y49768D1*
X25354Y49928D1*
Y50341D1*
X25182Y50513D1*
X25069D1*
X24912Y50355D1*
Y50316D1*
X24799Y50203D1*
X24502D1*
X24462Y50243D1*
D30*
X24931Y49726D3*
X24518Y49961D3*
X24493Y49485D3*
X25193Y49390D3*
X24462Y50243D3*
X24035Y49363D3*
X23792Y49057D3*
X24687Y50438D3*
X25124Y50287D3*
D21*
X26057Y49337D3*
Y50337D3*
G36*
X25561Y50672D2*
X25663D1*
Y50002D1*
X25561D1*
X25455Y50209D1*
Y50465D1*
X25561Y50672D1*
G37*
G36*
Y49672D2*
X25663D1*
Y49002D1*
X25561D1*
X25455Y49209D1*
Y49465D1*
X25561Y49672D1*
G37*
D23*
X25057Y51337D3*
X24057D3*
G36*
X23722Y50841D2*
Y50943D1*
X24392D1*
Y50841D1*
X24185Y50735D1*
X23929D1*
X23722Y50841D1*
G37*
G36*
X24722D2*
Y50943D1*
X25392D1*
Y50841D1*
X25185Y50735D1*
X24929D1*
X24722Y50841D1*
G37*
D23*
X25057Y48337D3*
X24057D3*
G36*
X24392Y48833D2*
Y48731D1*
X23722D1*
Y48833D1*
X23929Y48939D1*
X24185D1*
X24392Y48833D1*
G37*
G36*
X25392D2*
Y48731D1*
X24722D1*
Y48833D1*
X24929Y48939D1*
X25185D1*
X25392Y48833D1*
G37*
D21*
X23057Y49337D3*
Y50337D3*
G36*
X23553Y50002D2*
X23451D1*
Y50672D1*
X23553D1*
X23659Y50465D1*
Y50209D1*
X23553Y50002D1*
G37*
G36*
Y49002D2*
X23451D1*
Y49672D1*
X23553D1*
X23659Y49465D1*
Y49209D1*
X23553Y49002D1*
G37*
X30377Y48337D2*
D14*
Y49049D1*
X30813Y49485D1*
X31377Y48337D2*
Y48963D1*
X31069Y49271D1*
Y49614D1*
X30838Y49846D1*
Y49961D1*
X31007Y50438D2*
X30845Y50611D1*
X30771Y50684D1*
X30510Y50876D1*
Y51204D1*
X30377Y51337D1*
X31377D2*
X31533D1*
X31444Y50287D2*
Y49918D1*
X31251Y49726D1*
X31513Y49390D2*
Y49768D1*
X31674Y49928D1*
Y50341D1*
X31502Y50513D1*
X31389D1*
X31232Y50355D1*
Y50316D1*
X31119Y50203D1*
X30822D1*
X30782Y50243D1*
D30*
X31251Y49726D3*
X30838Y49961D3*
X30813Y49485D3*
X31513Y49390D3*
X30782Y50243D3*
X30355Y49363D3*
X30112Y49057D3*
X31007Y50438D3*
X31444Y50287D3*
D21*
X32377Y49337D3*
Y50337D3*
G36*
X31881Y50672D2*
X31983D1*
Y50002D1*
X31881D1*
X31775Y50209D1*
Y50465D1*
X31881Y50672D1*
G37*
G36*
Y49672D2*
X31983D1*
Y49002D1*
X31881D1*
X31775Y49209D1*
Y49465D1*
X31881Y49672D1*
G37*
D23*
X31377Y51337D3*
X30377D3*
G36*
X30042Y50841D2*
Y50943D1*
X30712D1*
Y50841D1*
X30505Y50735D1*
X30249D1*
X30042Y50841D1*
G37*
G36*
X31042D2*
Y50943D1*
X31712D1*
Y50841D1*
X31505Y50735D1*
X31249D1*
X31042Y50841D1*
G37*
D23*
X31377Y48337D3*
X30377D3*
G36*
X30712Y48833D2*
Y48731D1*
X30042D1*
Y48833D1*
X30249Y48939D1*
X30505D1*
X30712Y48833D1*
G37*
G36*
X31712D2*
Y48731D1*
X31042D1*
Y48833D1*
X31249Y48939D1*
X31505D1*
X31712Y48833D1*
G37*
D21*
X29377Y49337D3*
Y50337D3*
G36*
X29873Y50002D2*
X29771D1*
Y50672D1*
X29873D1*
X29979Y50465D1*
Y50209D1*
X29873Y50002D1*
G37*
G36*
Y49002D2*
X29771D1*
Y49672D1*
X29873D1*
X29979Y49465D1*
Y49209D1*
X29873Y49002D1*
G37*
X36697Y48337D2*
D14*
Y49049D1*
X37133Y49485D1*
X37697Y48337D2*
Y48963D1*
X37389Y49271D1*
Y49614D1*
X37158Y49846D1*
Y49961D1*
X37327Y50438D2*
X37165Y50611D1*
X37091Y50684D1*
X36830Y50876D1*
Y51204D1*
X36697Y51337D1*
X37697D2*
X37853D1*
X37764Y50287D2*
Y49918D1*
X37571Y49726D1*
X37833Y49390D2*
Y49768D1*
X37994Y49928D1*
Y50341D1*
X37822Y50513D1*
X37709D1*
X37552Y50355D1*
Y50316D1*
X37439Y50203D1*
X37142D1*
X37102Y50243D1*
D30*
X37571Y49726D3*
X37158Y49961D3*
X37133Y49485D3*
X37833Y49390D3*
X37102Y50243D3*
X36675Y49363D3*
X36432Y49057D3*
X37327Y50438D3*
X37764Y50287D3*
D21*
X38697Y49337D3*
Y50337D3*
G36*
X38201Y50672D2*
X38303D1*
Y50002D1*
X38201D1*
X38095Y50209D1*
Y50465D1*
X38201Y50672D1*
G37*
G36*
Y49672D2*
X38303D1*
Y49002D1*
X38201D1*
X38095Y49209D1*
Y49465D1*
X38201Y49672D1*
G37*
D23*
X37697Y51337D3*
X36697D3*
G36*
X36362Y50841D2*
Y50943D1*
X37032D1*
Y50841D1*
X36825Y50735D1*
X36569D1*
X36362Y50841D1*
G37*
G36*
X37362D2*
Y50943D1*
X38032D1*
Y50841D1*
X37825Y50735D1*
X37569D1*
X37362Y50841D1*
G37*
D23*
X37697Y48337D3*
X36697D3*
G36*
X37032Y48833D2*
Y48731D1*
X36362D1*
Y48833D1*
X36569Y48939D1*
X36825D1*
X37032Y48833D1*
G37*
G36*
X38032D2*
Y48731D1*
X37362D1*
Y48833D1*
X37569Y48939D1*
X37825D1*
X38032Y48833D1*
G37*
D21*
X35697Y49337D3*
Y50337D3*
G36*
X36193Y50002D2*
X36091D1*
Y50672D1*
X36193D1*
X36299Y50465D1*
Y50209D1*
X36193Y50002D1*
G37*
G36*
Y49002D2*
X36091D1*
Y49672D1*
X36193D1*
X36299Y49465D1*
Y49209D1*
X36193Y49002D1*
G37*
X43017Y48337D2*
D14*
Y49049D1*
X43453Y49485D1*
X44017Y48337D2*
Y48963D1*
X43709Y49271D1*
Y49614D1*
X43478Y49846D1*
Y49961D1*
X43647Y50438D2*
X43485Y50611D1*
X43411Y50684D1*
X43150Y50876D1*
Y51204D1*
X43017Y51337D1*
X44017D2*
X44173D1*
X44084Y50287D2*
Y49918D1*
X43891Y49726D1*
X44153Y49390D2*
Y49768D1*
X44314Y49928D1*
Y50341D1*
X44142Y50513D1*
X44029D1*
X43872Y50355D1*
Y50316D1*
X43759Y50203D1*
X43462D1*
X43422Y50243D1*
D30*
X43891Y49726D3*
X43478Y49961D3*
X43453Y49485D3*
X44153Y49390D3*
X43422Y50243D3*
X42995Y49363D3*
X42752Y49057D3*
X43647Y50438D3*
X44084Y50287D3*
D21*
X45017Y49337D3*
Y50337D3*
G36*
X44521Y50672D2*
X44623D1*
Y50002D1*
X44521D1*
X44415Y50209D1*
Y50465D1*
X44521Y50672D1*
G37*
G36*
Y49672D2*
X44623D1*
Y49002D1*
X44521D1*
X44415Y49209D1*
Y49465D1*
X44521Y49672D1*
G37*
D23*
X44017Y51337D3*
X43017D3*
G36*
X42682Y50841D2*
Y50943D1*
X43352D1*
Y50841D1*
X43145Y50735D1*
X42889D1*
X42682Y50841D1*
G37*
G36*
X43682D2*
Y50943D1*
X44352D1*
Y50841D1*
X44145Y50735D1*
X43889D1*
X43682Y50841D1*
G37*
D23*
X44017Y48337D3*
X43017D3*
G36*
X43352Y48833D2*
Y48731D1*
X42682D1*
Y48833D1*
X42889Y48939D1*
X43145D1*
X43352Y48833D1*
G37*
G36*
X44352D2*
Y48731D1*
X43682D1*
Y48833D1*
X43889Y48939D1*
X44145D1*
X44352Y48833D1*
G37*
D21*
X42017Y49337D3*
Y50337D3*
G36*
X42513Y50002D2*
X42411D1*
Y50672D1*
X42513D1*
X42619Y50465D1*
Y50209D1*
X42513Y50002D1*
G37*
G36*
Y49002D2*
X42411D1*
Y49672D1*
X42513D1*
X42619Y49465D1*
Y49209D1*
X42513Y49002D1*
G37*
X49337Y48337D2*
D14*
Y49049D1*
X49773Y49485D1*
X50337Y48337D2*
Y48963D1*
X50029Y49271D1*
Y49614D1*
X49798Y49846D1*
Y49961D1*
X49967Y50438D2*
X49805Y50611D1*
X49731Y50684D1*
X49470Y50876D1*
Y51204D1*
X49337Y51337D1*
X50337D2*
X50493D1*
X50404Y50287D2*
Y49918D1*
X50211Y49726D1*
X50473Y49390D2*
Y49768D1*
X50634Y49928D1*
Y50341D1*
X50462Y50513D1*
X50349D1*
X50192Y50355D1*
Y50316D1*
X50079Y50203D1*
X49782D1*
X49742Y50243D1*
D30*
X50211Y49726D3*
X49798Y49961D3*
X49773Y49485D3*
X50473Y49390D3*
X49742Y50243D3*
X49315Y49363D3*
X49072Y49057D3*
X49967Y50438D3*
X50404Y50287D3*
D21*
X51337Y49337D3*
Y50337D3*
G36*
X50841Y50672D2*
X50943D1*
Y50002D1*
X50841D1*
X50735Y50209D1*
Y50465D1*
X50841Y50672D1*
G37*
G36*
Y49672D2*
X50943D1*
Y49002D1*
X50841D1*
X50735Y49209D1*
Y49465D1*
X50841Y49672D1*
G37*
D23*
X50337Y51337D3*
X49337D3*
G36*
X49002Y50841D2*
Y50943D1*
X49672D1*
Y50841D1*
X49465Y50735D1*
X49209D1*
X49002Y50841D1*
G37*
G36*
X50002D2*
Y50943D1*
X50672D1*
Y50841D1*
X50465Y50735D1*
X50209D1*
X50002Y50841D1*
G37*
D23*
X50337Y48337D3*
X49337D3*
G36*
X49672Y48833D2*
Y48731D1*
X49002D1*
Y48833D1*
X49209Y48939D1*
X49465D1*
X49672Y48833D1*
G37*
G36*
X50672D2*
Y48731D1*
X50002D1*
Y48833D1*
X50209Y48939D1*
X50465D1*
X50672Y48833D1*
G37*
D21*
X48337Y49337D3*
Y50337D3*
G36*
X48833Y50002D2*
X48731D1*
Y50672D1*
X48833D1*
X48939Y50465D1*
Y50209D1*
X48833Y50002D1*
G37*
G36*
Y49002D2*
X48731D1*
Y49672D1*
X48833D1*
X48939Y49465D1*
Y49209D1*
X48833Y49002D1*
G37*
X55657Y48337D2*
D14*
Y49049D1*
X56093Y49485D1*
X56657Y48337D2*
Y48963D1*
X56349Y49271D1*
Y49614D1*
X56118Y49846D1*
Y49961D1*
X56287Y50438D2*
X56125Y50611D1*
X56051Y50684D1*
X55790Y50876D1*
Y51204D1*
X55657Y51337D1*
X56657D2*
X56813D1*
X56724Y50287D2*
Y49918D1*
X56531Y49726D1*
X56793Y49390D2*
Y49768D1*
X56954Y49928D1*
Y50341D1*
X56782Y50513D1*
X56669D1*
X56512Y50355D1*
Y50316D1*
X56399Y50203D1*
X56102D1*
X56062Y50243D1*
D30*
X56531Y49726D3*
X56118Y49961D3*
X56093Y49485D3*
X56793Y49390D3*
X56062Y50243D3*
X55635Y49363D3*
X55392Y49057D3*
X56287Y50438D3*
X56724Y50287D3*
D21*
X57657Y49337D3*
Y50337D3*
G36*
X57161Y50672D2*
X57263D1*
Y50002D1*
X57161D1*
X57055Y50209D1*
Y50465D1*
X57161Y50672D1*
G37*
G36*
Y49672D2*
X57263D1*
Y49002D1*
X57161D1*
X57055Y49209D1*
Y49465D1*
X57161Y49672D1*
G37*
D23*
X56657Y51337D3*
X55657D3*
G36*
X55322Y50841D2*
Y50943D1*
X55992D1*
Y50841D1*
X55785Y50735D1*
X55529D1*
X55322Y50841D1*
G37*
G36*
X56322D2*
Y50943D1*
X56992D1*
Y50841D1*
X56785Y50735D1*
X56529D1*
X56322Y50841D1*
G37*
D23*
X56657Y48337D3*
X55657D3*
G36*
X55992Y48833D2*
Y48731D1*
X55322D1*
Y48833D1*
X55529Y48939D1*
X55785D1*
X55992Y48833D1*
G37*
G36*
X56992D2*
Y48731D1*
X56322D1*
Y48833D1*
X56529Y48939D1*
X56785D1*
X56992Y48833D1*
G37*
D21*
X54657Y49337D3*
Y50337D3*
G36*
X55153Y50002D2*
X55051D1*
Y50672D1*
X55153D1*
X55259Y50465D1*
Y50209D1*
X55153Y50002D1*
G37*
G36*
Y49002D2*
X55051D1*
Y49672D1*
X55153D1*
X55259Y49465D1*
Y49209D1*
X55153Y49002D1*
G37*
X61977Y48337D2*
D14*
Y49049D1*
X62413Y49485D1*
X62977Y48337D2*
Y48963D1*
X62669Y49271D1*
Y49614D1*
X62438Y49846D1*
Y49961D1*
X62607Y50438D2*
X62445Y50611D1*
X62371Y50684D1*
X62110Y50876D1*
Y51204D1*
X61977Y51337D1*
X62977D2*
X63133D1*
X63044Y50287D2*
Y49918D1*
X62851Y49726D1*
X63113Y49390D2*
Y49768D1*
X63274Y49928D1*
Y50341D1*
X63102Y50513D1*
X62989D1*
X62832Y50355D1*
Y50316D1*
X62719Y50203D1*
X62422D1*
X62382Y50243D1*
D30*
X62851Y49726D3*
X62438Y49961D3*
X62413Y49485D3*
X63113Y49390D3*
X62382Y50243D3*
X61955Y49363D3*
X61712Y49057D3*
X62607Y50438D3*
X63044Y50287D3*
D21*
X63977Y49337D3*
Y50337D3*
G36*
X63481Y50672D2*
X63583D1*
Y50002D1*
X63481D1*
X63375Y50209D1*
Y50465D1*
X63481Y50672D1*
G37*
G36*
Y49672D2*
X63583D1*
Y49002D1*
X63481D1*
X63375Y49209D1*
Y49465D1*
X63481Y49672D1*
G37*
D23*
X62977Y51337D3*
X61977D3*
G36*
X61642Y50841D2*
Y50943D1*
X62312D1*
Y50841D1*
X62105Y50735D1*
X61849D1*
X61642Y50841D1*
G37*
G36*
X62642D2*
Y50943D1*
X63312D1*
Y50841D1*
X63105Y50735D1*
X62849D1*
X62642Y50841D1*
G37*
D23*
X62977Y48337D3*
X61977D3*
G36*
X62312Y48833D2*
Y48731D1*
X61642D1*
Y48833D1*
X61849Y48939D1*
X62105D1*
X62312Y48833D1*
G37*
G36*
X63312D2*
Y48731D1*
X62642D1*
Y48833D1*
X62849Y48939D1*
X63105D1*
X63312Y48833D1*
G37*
D21*
X60977Y49337D3*
Y50337D3*
G36*
X61473Y50002D2*
X61371D1*
Y50672D1*
X61473D1*
X61579Y50465D1*
Y50209D1*
X61473Y50002D1*
G37*
G36*
Y49002D2*
X61371D1*
Y49672D1*
X61473D1*
X61579Y49465D1*
Y49209D1*
X61473Y49002D1*
G37*
X68297Y48337D2*
D14*
Y49049D1*
X68733Y49485D1*
X69297Y48337D2*
Y48963D1*
X68989Y49271D1*
Y49614D1*
X68758Y49846D1*
Y49961D1*
X68927Y50438D2*
X68765Y50611D1*
X68691Y50684D1*
X68430Y50876D1*
Y51204D1*
X68297Y51337D1*
X69297D2*
X69453D1*
X69364Y50287D2*
Y49918D1*
X69171Y49726D1*
X69433Y49390D2*
Y49768D1*
X69594Y49928D1*
Y50341D1*
X69422Y50513D1*
X69309D1*
X69152Y50355D1*
Y50316D1*
X69039Y50203D1*
X68742D1*
X68702Y50243D1*
D30*
X69171Y49726D3*
X68758Y49961D3*
X68733Y49485D3*
X69433Y49390D3*
X68702Y50243D3*
X68275Y49363D3*
X68032Y49057D3*
X68927Y50438D3*
X69364Y50287D3*
D21*
X70297Y49337D3*
Y50337D3*
G36*
X69801Y50672D2*
X69903D1*
Y50002D1*
X69801D1*
X69695Y50209D1*
Y50465D1*
X69801Y50672D1*
G37*
G36*
Y49672D2*
X69903D1*
Y49002D1*
X69801D1*
X69695Y49209D1*
Y49465D1*
X69801Y49672D1*
G37*
D23*
X69297Y51337D3*
X68297D3*
G36*
X67962Y50841D2*
Y50943D1*
X68632D1*
Y50841D1*
X68425Y50735D1*
X68169D1*
X67962Y50841D1*
G37*
G36*
X68962D2*
Y50943D1*
X69632D1*
Y50841D1*
X69425Y50735D1*
X69169D1*
X68962Y50841D1*
G37*
D23*
X69297Y48337D3*
X68297D3*
G36*
X68632Y48833D2*
Y48731D1*
X67962D1*
Y48833D1*
X68169Y48939D1*
X68425D1*
X68632Y48833D1*
G37*
G36*
X69632D2*
Y48731D1*
X68962D1*
Y48833D1*
X69169Y48939D1*
X69425D1*
X69632Y48833D1*
G37*
D21*
X67297Y49337D3*
Y50337D3*
G36*
X67793Y50002D2*
X67691D1*
Y50672D1*
X67793D1*
X67899Y50465D1*
Y50209D1*
X67793Y50002D1*
G37*
G36*
Y49002D2*
X67691D1*
Y49672D1*
X67793D1*
X67899Y49465D1*
Y49209D1*
X67793Y49002D1*
G37*
X74617Y48337D2*
D14*
Y49049D1*
X75053Y49485D1*
X75617Y48337D2*
Y48963D1*
X75309Y49271D1*
Y49614D1*
X75078Y49846D1*
Y49961D1*
X75247Y50438D2*
X75085Y50611D1*
X75011Y50684D1*
X74750Y50876D1*
Y51204D1*
X74617Y51337D1*
X75617D2*
X75773D1*
X75684Y50287D2*
Y49918D1*
X75491Y49726D1*
X75753Y49390D2*
Y49768D1*
X75914Y49928D1*
Y50341D1*
X75742Y50513D1*
X75629D1*
X75472Y50355D1*
Y50316D1*
X75359Y50203D1*
X75062D1*
X75022Y50243D1*
D30*
X75491Y49726D3*
X75078Y49961D3*
X75053Y49485D3*
X75753Y49390D3*
X75022Y50243D3*
X74595Y49363D3*
X74352Y49057D3*
X75247Y50438D3*
X75684Y50287D3*
D21*
X76617Y49337D3*
Y50337D3*
G36*
X76121Y50672D2*
X76223D1*
Y50002D1*
X76121D1*
X76015Y50209D1*
Y50465D1*
X76121Y50672D1*
G37*
G36*
Y49672D2*
X76223D1*
Y49002D1*
X76121D1*
X76015Y49209D1*
Y49465D1*
X76121Y49672D1*
G37*
D23*
X75617Y51337D3*
X74617D3*
G36*
X74282Y50841D2*
Y50943D1*
X74952D1*
Y50841D1*
X74745Y50735D1*
X74489D1*
X74282Y50841D1*
G37*
G36*
X75282D2*
Y50943D1*
X75952D1*
Y50841D1*
X75745Y50735D1*
X75489D1*
X75282Y50841D1*
G37*
D23*
X75617Y48337D3*
X74617D3*
G36*
X74952Y48833D2*
Y48731D1*
X74282D1*
Y48833D1*
X74489Y48939D1*
X74745D1*
X74952Y48833D1*
G37*
G36*
X75952D2*
Y48731D1*
X75282D1*
Y48833D1*
X75489Y48939D1*
X75745D1*
X75952Y48833D1*
G37*
D21*
X73617Y49337D3*
Y50337D3*
G36*
X74113Y50002D2*
X74011D1*
Y50672D1*
X74113D1*
X74219Y50465D1*
Y50209D1*
X74113Y50002D1*
G37*
G36*
Y49002D2*
X74011D1*
Y49672D1*
X74113D1*
X74219Y49465D1*
Y49209D1*
X74113Y49002D1*
G37*
M02*
