G04 DipTrace 2.4.0.2*
%INDRV2605.g2l*%
%MOIN*%
%ADD14C,0.006*%
%ADD18C,0.0669*%
%ADD23C,0.018*%
%FSLAX44Y44*%
G04*
G70*
G90*
G75*
G01*
%LNInner1_Plane*%
%LPD*%
D23*
X5581Y5333D3*
X5176Y5597D3*
X5034Y5026D3*
X5938Y4883D3*
X5382Y5815D3*
X4831Y5202D3*
X4798Y4678D3*
X5344Y6788D2*
D14*
X5532D1*
X4526Y6730D2*
X4559D1*
X5317D2*
X5559D1*
X4468Y6671D2*
X4598D1*
X5278D2*
X5597D1*
X6278D2*
X6401D1*
X4410Y6612D2*
X4654D1*
X5220D2*
X5655D1*
X6221D2*
X6459D1*
X4352Y6554D2*
X4744D1*
X5131D2*
X5744D1*
X6132D2*
X6518D1*
X4294Y6495D2*
X6576D1*
X4237Y6436D2*
X6635D1*
X4179Y6378D2*
X6694D1*
X4135Y6319D2*
X6740D1*
X4223Y6260D2*
X6653D1*
X4279Y6201D2*
X6597D1*
X4318Y6143D2*
X6557D1*
X4345Y6084D2*
X6531D1*
X4362Y6025D2*
X6514D1*
X4369Y5967D2*
X5275D1*
X5489D2*
X6506D1*
X4370Y5908D2*
X5220D1*
X5545D2*
X6506D1*
X4362Y5849D2*
X5197D1*
X5567D2*
X6514D1*
X4345Y5791D2*
X5195D1*
X5569D2*
X6530D1*
X4318Y5732D2*
X5047D1*
X5550D2*
X6557D1*
X4279Y5673D2*
X5004D1*
X5503D2*
X6596D1*
X4224Y5615D2*
X4988D1*
X5363D2*
X6652D1*
X4136Y5556D2*
X4992D1*
X5359D2*
X6739D1*
X4033Y5497D2*
X5017D1*
X5335D2*
X5496D1*
X5666D2*
X6841D1*
X4033Y5439D2*
X5079D1*
X5272D2*
X5427D1*
X5736D2*
X6841D1*
X4033Y5380D2*
X5399D1*
X5763D2*
X6841D1*
X4033Y5321D2*
X5393D1*
X5769D2*
X6745D1*
X4033Y5262D2*
X5407D1*
X5756D2*
X6655D1*
X4033Y5204D2*
X4989D1*
X5080D2*
X5446D1*
X5716D2*
X6599D1*
X4033Y5145D2*
X4891D1*
X5178D2*
X6559D1*
X4033Y5086D2*
X4856D1*
X5212D2*
X6532D1*
X4033Y5028D2*
X4846D1*
X5222D2*
X5821D1*
X6055D2*
X6514D1*
X4033Y4969D2*
X4855D1*
X5213D2*
X5771D1*
X6104D2*
X6506D1*
X4033Y4910D2*
X4887D1*
X5181D2*
X5751D1*
X6124D2*
X6506D1*
X4033Y4852D2*
X4974D1*
X5094D2*
X5752D1*
X6123D2*
X6513D1*
X4033Y4793D2*
X5773D1*
X6103D2*
X6530D1*
X4033Y4734D2*
X5826D1*
X6049D2*
X6556D1*
X4033Y4676D2*
X6594D1*
X4060Y4617D2*
X6649D1*
X4117Y4558D2*
X6735D1*
X4175Y4500D2*
X6697D1*
X4233Y4441D2*
X6638D1*
X4291Y4382D2*
X6580D1*
X4348Y4323D2*
X4750D1*
X5125D2*
X5750D1*
X6125D2*
X6521D1*
X4407Y4265D2*
X4658D1*
X5218D2*
X5658D1*
X6217D2*
X6462D1*
X4465Y4206D2*
X4600D1*
X5275D2*
X5600D1*
X6275D2*
X6404D1*
X4523Y4147D2*
X4560D1*
X5315D2*
X5560D1*
X5343Y4089D2*
X5533D1*
X5360Y4030D2*
X5515D1*
X6755Y4551D2*
X6719Y4570D1*
X6670Y4604D1*
X6626Y4645D1*
X6588Y4691D1*
X6557Y4743D1*
X6534Y4798D1*
X6518Y4856D1*
X6511Y4915D1*
X6512Y4975D1*
X6522Y5035D1*
X6540Y5092D1*
X6565Y5146D1*
X6598Y5196D1*
X6638Y5241D1*
X6683Y5280D1*
X6734Y5312D1*
X6789Y5337D1*
X6847Y5354D1*
X6848Y5520D1*
X6801Y5532D1*
X6746Y5556D1*
X6694Y5586D1*
X6647Y5624D1*
X6606Y5668D1*
X6572Y5717D1*
X6545Y5770D1*
X6525Y5827D1*
X6514Y5886D1*
X6511Y5945D1*
X6516Y6005D1*
X6530Y6063D1*
X6552Y6119D1*
X6581Y6172D1*
X6617Y6219D1*
X6660Y6261D1*
X6708Y6297D1*
X6755Y6323D1*
X6323Y6755D1*
X6299Y6709D1*
X6264Y6661D1*
X6222Y6618D1*
X6174Y6582D1*
X6122Y6552D1*
X6066Y6530D1*
X6008Y6516D1*
X5948Y6510D1*
X5889Y6513D1*
X5830Y6524D1*
X5773Y6543D1*
X5719Y6570D1*
X5670Y6604D1*
X5626Y6645D1*
X5588Y6691D1*
X5557Y6743D1*
X5534Y6798D1*
X5520Y6848D1*
X5355Y6847D1*
X5339Y6790D1*
X5314Y6735D1*
X5282Y6685D1*
X5243Y6639D1*
X5199Y6599D1*
X5149Y6566D1*
X5095Y6540D1*
X5038Y6522D1*
X4978Y6512D1*
X4919Y6510D1*
X4859Y6517D1*
X4801Y6532D1*
X4746Y6556D1*
X4694Y6586D1*
X4647Y6624D1*
X4606Y6668D1*
X4572Y6717D1*
X4549Y6761D1*
X4455Y6664D1*
X4120Y6324D1*
X4163Y6300D1*
X4212Y6264D1*
X4255Y6223D1*
X4292Y6176D1*
X4322Y6124D1*
X4344Y6068D1*
X4358Y6010D1*
X4365Y5950D1*
X4364Y5907D1*
X4355Y5848D1*
X4339Y5790D1*
X4314Y5735D1*
X4282Y5685D1*
X4243Y5639D1*
X4199Y5599D1*
X4149Y5566D1*
X4095Y5540D1*
X4038Y5522D1*
X4027Y5520D1*
Y4644D1*
X4550Y4114D1*
X4565Y4146D1*
X4598Y4196D1*
X4638Y4241D1*
X4683Y4280D1*
X4734Y4312D1*
X4789Y4337D1*
X4846Y4354D1*
X4905Y4363D1*
X4965D1*
X5025Y4355D1*
X5082Y4339D1*
X5137Y4315D1*
X5188Y4283D1*
X5234Y4244D1*
X5274Y4200D1*
X5308Y4150D1*
X5334Y4096D1*
X5352Y4039D1*
X5355Y4027D1*
X5520D1*
X5540Y4092D1*
X5565Y4146D1*
X5598Y4196D1*
X5638Y4241D1*
X5683Y4280D1*
X5734Y4312D1*
X5789Y4337D1*
X5846Y4354D1*
X5905Y4363D1*
X5965D1*
X6025Y4355D1*
X6082Y4339D1*
X6137Y4315D1*
X6188Y4283D1*
X6234Y4244D1*
X6274Y4200D1*
X6308Y4150D1*
X6324Y4119D1*
X6497Y4294D1*
X6755Y4552D1*
X5761Y5303D2*
X5754Y5274D1*
X5742Y5246D1*
X5726Y5221D1*
X5705Y5199D1*
X5682Y5181D1*
X5655Y5166D1*
X5627Y5156D1*
X5598Y5151D1*
X5568D1*
X5538Y5156D1*
X5510Y5165D1*
X5483Y5179D1*
X5459Y5197D1*
X5439Y5219D1*
X5422Y5244D1*
X5410Y5271D1*
X5402Y5300D1*
X5399Y5330D1*
X5401Y5360D1*
X5408Y5389D1*
X5419Y5417D1*
X5435Y5442D1*
X5455Y5464D1*
X5478Y5483D1*
X5504Y5498D1*
X5532Y5509D1*
X5562Y5514D1*
X5592Y5515D1*
X5621Y5511D1*
X5650Y5502D1*
X5677Y5488D1*
X5701Y5470D1*
X5722Y5449D1*
X5739Y5424D1*
X5752Y5397D1*
X5760Y5369D1*
X5764Y5333D1*
X5761Y5303D1*
X5356Y5567D2*
X5348Y5538D1*
X5336Y5510D1*
X5320Y5485D1*
X5300Y5463D1*
X5276Y5445D1*
X5250Y5430D1*
X5222Y5420D1*
X5192Y5415D1*
X5162D1*
X5133Y5419D1*
X5104Y5429D1*
X5078Y5443D1*
X5054Y5461D1*
X5033Y5483D1*
X5017Y5508D1*
X5004Y5535D1*
X4996Y5564D1*
X4993Y5594D1*
X4995Y5624D1*
X5002Y5653D1*
X5014Y5680D1*
X5030Y5706D1*
X5049Y5728D1*
X5073Y5747D1*
X5099Y5762D1*
X5127Y5772D1*
X5156Y5778D1*
X5186Y5779D1*
X5204Y5776D1*
X5200Y5812D1*
X5202Y5842D1*
X5208Y5871D1*
X5220Y5899D1*
X5236Y5924D1*
X5256Y5947D1*
X5279Y5966D1*
X5305Y5980D1*
X5333Y5991D1*
X5363Y5996D1*
X5393Y5997D1*
X5422Y5993D1*
X5451Y5984D1*
X5478Y5971D1*
X5502Y5953D1*
X5523Y5931D1*
X5540Y5907D1*
X5553Y5880D1*
X5561Y5851D1*
X5564Y5815D1*
X5562Y5785D1*
X5555Y5756D1*
X5543Y5729D1*
X5526Y5704D1*
X5506Y5681D1*
X5483Y5663D1*
X5456Y5649D1*
X5428Y5639D1*
X5399Y5633D1*
X5369D1*
X5355Y5635D1*
X5358Y5597D1*
X5356Y5567D1*
X5214Y4996D2*
X5207Y4967D1*
X5195Y4939D1*
X5178Y4914D1*
X5158Y4892D1*
X5135Y4874D1*
X5108Y4859D1*
X5080Y4849D1*
X5051Y4844D1*
X5021D1*
X4991Y4849D1*
X4963Y4858D1*
X4936Y4872D1*
X4912Y4890D1*
X4892Y4912D1*
X4875Y4937D1*
X4862Y4964D1*
X4855Y4993D1*
X4852Y5023D1*
X4854Y5053D1*
X4860Y5082D1*
X4872Y5110D1*
X4888Y5135D1*
X4908Y5157D1*
X4931Y5176D1*
X4957Y5191D1*
X4985Y5202D1*
X5015Y5207D1*
X5045Y5208D1*
X5074Y5204D1*
X5103Y5195D1*
X5130Y5181D1*
X5154Y5164D1*
X5175Y5142D1*
X5192Y5118D1*
X5205Y5090D1*
X5213Y5062D1*
X5216Y5026D1*
X5214Y4996D1*
X6118Y4853D2*
X6110Y4824D1*
X6098Y4797D1*
X6082Y4771D1*
X6062Y4749D1*
X6038Y4731D1*
X6012Y4716D1*
X5984Y4706D1*
X5954Y4701D1*
X5924D1*
X5895Y4706D1*
X5866Y4715D1*
X5840Y4729D1*
X5816Y4747D1*
X5795Y4769D1*
X5778Y4794D1*
X5766Y4821D1*
X5758Y4850D1*
X5755Y4880D1*
X5757Y4910D1*
X5764Y4939D1*
X5776Y4967D1*
X5792Y4992D1*
X5811Y5014D1*
X5835Y5033D1*
X5861Y5048D1*
X5889Y5059D1*
X5918Y5064D1*
X5948Y5065D1*
X5978Y5061D1*
X6006Y5052D1*
X6033Y5038D1*
X6057Y5021D1*
X6078Y4999D1*
X6095Y4975D1*
X6108Y4948D1*
X6117Y4919D1*
X6120Y4883D1*
X6118Y4853D1*
D18*
X6938Y4937D3*
Y5937D3*
X5938Y6937D3*
X4938D3*
X5938Y3937D3*
X4938D3*
X3938Y4937D3*
Y5937D3*
M02*
