G04 DipTrace 2.4.0.2*
%INDRV2605panel2.gtl*%
%MOIN*%
%ADD14C,0.01*%
%ADD18R,0.0276X0.0354*%
%ADD19R,0.0354X0.0276*%
%ADD20R,0.0394X0.0433*%
%ADD21R,0.08X0.0669*%
%ADD23R,0.0669X0.08*%
%ADD26C,0.0098*%
%ADD28C,0.0591*%
%ADD30C,0.018*%
%FSLAX44Y44*%
G04*
G70*
G90*
G75*
G01*
%LNTop*%
%LPD*%
X7097Y6097D2*
D14*
X6592D1*
X6488Y5993D1*
X5775Y5486D2*
X5293D1*
X5274Y5506D1*
X5199D1*
X4991Y5298D1*
Y5248D1*
X5267Y4973D1*
X5075Y5123D2*
X4991D1*
Y5248D1*
X5267Y4973D2*
X4988D1*
X4832Y4817D1*
X5274Y5506D2*
X4921Y5152D1*
X4813D1*
Y5323D1*
Y5324D1*
X4097Y5097D2*
X4587D1*
X4813Y5324D1*
X5775Y5289D2*
X5578D1*
X5533Y5245D1*
X5775Y5683D2*
X5558D1*
Y5721D1*
X6488Y5481D2*
X6195D1*
X6190Y5486D1*
X6168D1*
X7097Y5097D2*
X6872D1*
X6488Y5481D1*
X5727Y6198D2*
X6168Y5757D1*
Y5683D1*
X5097Y7097D2*
Y6759D1*
X4811Y6473D1*
X5971Y5486D2*
D3*
X6097Y7097D2*
Y6724D1*
X6343Y6478D1*
X6164Y6047D2*
Y6298D1*
X6343Y6478D1*
X6168Y5289D2*
Y5215D1*
X6233Y5150D1*
X5971Y5683D2*
Y5709D1*
X5666Y6014D1*
X5277D1*
X5274Y6017D1*
X5323Y6473D2*
X5826D1*
X5831Y6478D1*
X5451D1*
X4990Y6017D1*
X5274D1*
X4097Y6097D2*
X4709D1*
X4813Y5993D1*
X5250D1*
X5274Y6017D1*
X5502Y6003D2*
X5288D1*
X5779Y4973D2*
X5971D1*
Y5289D1*
D30*
Y5486D3*
X5558Y5721D3*
X5533Y5245D3*
X6233Y5150D3*
X5502Y6003D3*
X5075Y5123D3*
X4832Y4817D3*
X5727Y6198D3*
X6164Y6047D3*
D18*
X5274Y6017D3*
Y5506D3*
D19*
X5779Y4973D3*
X5267D3*
D18*
X6488Y5481D3*
Y5993D3*
D20*
X4813D3*
Y5324D3*
D21*
X7097Y5097D3*
Y6097D3*
D23*
X6097Y7097D3*
X5097D3*
X6097Y4097D3*
X5097D3*
D21*
X4097Y5097D3*
Y6097D3*
D19*
X4811Y6473D3*
X5323D3*
X6343Y6478D3*
X5831D3*
D26*
X6168Y5289D3*
X5971D3*
X5775D3*
X6168Y5486D3*
X5971D3*
X5775D3*
X6168Y5683D3*
X5971D3*
X5775D3*
D28*
X2500Y2500D3*
X78210D3*
X2500Y52930D3*
X13417Y6097D2*
D14*
X12912D1*
X12808Y5993D1*
X12095Y5486D2*
X11613D1*
X11594Y5506D1*
X11519D1*
X11311Y5298D1*
Y5248D1*
X11587Y4973D1*
X11395Y5123D2*
X11311D1*
Y5248D1*
X11587Y4973D2*
X11308D1*
X11152Y4817D1*
X11594Y5506D2*
X11241Y5152D1*
X11133D1*
Y5323D1*
Y5324D1*
X10417Y5097D2*
X10907D1*
X11133Y5324D1*
X12095Y5289D2*
X11898D1*
X11853Y5245D1*
X12095Y5683D2*
X11878D1*
Y5721D1*
X12808Y5481D2*
X12515D1*
X12510Y5486D1*
X12488D1*
X13417Y5097D2*
X13192D1*
X12808Y5481D1*
X12047Y6198D2*
X12488Y5757D1*
Y5683D1*
X11417Y7097D2*
Y6759D1*
X11131Y6473D1*
X12291Y5486D2*
D3*
X12417Y7097D2*
Y6724D1*
X12663Y6478D1*
X12484Y6047D2*
Y6298D1*
X12663Y6478D1*
X12488Y5289D2*
Y5215D1*
X12553Y5150D1*
X12291Y5683D2*
Y5709D1*
X11986Y6014D1*
X11597D1*
X11594Y6017D1*
X11643Y6473D2*
X12146D1*
X12151Y6478D1*
X11771D1*
X11310Y6017D1*
X11594D1*
X10417Y6097D2*
X11029D1*
X11133Y5993D1*
X11570D1*
X11594Y6017D1*
X11822Y6003D2*
X11608D1*
X12099Y4973D2*
X12291D1*
Y5289D1*
D30*
Y5486D3*
X11878Y5721D3*
X11853Y5245D3*
X12553Y5150D3*
X11822Y6003D3*
X11395Y5123D3*
X11152Y4817D3*
X12047Y6198D3*
X12484Y6047D3*
D18*
X11594Y6017D3*
Y5506D3*
D19*
X12099Y4973D3*
X11587D3*
D18*
X12808Y5481D3*
Y5993D3*
D20*
X11133D3*
Y5324D3*
D21*
X13417Y5097D3*
Y6097D3*
D23*
X12417Y7097D3*
X11417D3*
X12417Y4097D3*
X11417D3*
D21*
X10417Y5097D3*
Y6097D3*
D19*
X11131Y6473D3*
X11643D3*
X12663Y6478D3*
X12151D3*
D26*
X12488Y5289D3*
X12291D3*
X12095D3*
X12488Y5486D3*
X12291D3*
X12095D3*
X12488Y5683D3*
X12291D3*
X12095D3*
X19737Y6097D2*
D14*
X19232D1*
X19128Y5993D1*
X18415Y5486D2*
X17933D1*
X17914Y5506D1*
X17839D1*
X17631Y5298D1*
Y5248D1*
X17907Y4973D1*
X17715Y5123D2*
X17631D1*
Y5248D1*
X17907Y4973D2*
X17628D1*
X17472Y4817D1*
X17914Y5506D2*
X17561Y5152D1*
X17453D1*
Y5323D1*
Y5324D1*
X16737Y5097D2*
X17227D1*
X17453Y5324D1*
X18415Y5289D2*
X18218D1*
X18173Y5245D1*
X18415Y5683D2*
X18198D1*
Y5721D1*
X19128Y5481D2*
X18835D1*
X18830Y5486D1*
X18808D1*
X19737Y5097D2*
X19512D1*
X19128Y5481D1*
X18367Y6198D2*
X18808Y5757D1*
Y5683D1*
X17737Y7097D2*
Y6759D1*
X17451Y6473D1*
X18611Y5486D2*
D3*
X18737Y7097D2*
Y6724D1*
X18983Y6478D1*
X18804Y6047D2*
Y6298D1*
X18983Y6478D1*
X18808Y5289D2*
Y5215D1*
X18873Y5150D1*
X18611Y5683D2*
Y5709D1*
X18306Y6014D1*
X17917D1*
X17914Y6017D1*
X17963Y6473D2*
X18466D1*
X18471Y6478D1*
X18091D1*
X17630Y6017D1*
X17914D1*
X16737Y6097D2*
X17349D1*
X17453Y5993D1*
X17890D1*
X17914Y6017D1*
X18142Y6003D2*
X17928D1*
X18419Y4973D2*
X18611D1*
Y5289D1*
D30*
Y5486D3*
X18198Y5721D3*
X18173Y5245D3*
X18873Y5150D3*
X18142Y6003D3*
X17715Y5123D3*
X17472Y4817D3*
X18367Y6198D3*
X18804Y6047D3*
D18*
X17914Y6017D3*
Y5506D3*
D19*
X18419Y4973D3*
X17907D3*
D18*
X19128Y5481D3*
Y5993D3*
D20*
X17453D3*
Y5324D3*
D21*
X19737Y5097D3*
Y6097D3*
D23*
X18737Y7097D3*
X17737D3*
X18737Y4097D3*
X17737D3*
D21*
X16737Y5097D3*
Y6097D3*
D19*
X17451Y6473D3*
X17963D3*
X18983Y6478D3*
X18471D3*
D26*
X18808Y5289D3*
X18611D3*
X18415D3*
X18808Y5486D3*
X18611D3*
X18415D3*
X18808Y5683D3*
X18611D3*
X18415D3*
X26057Y6097D2*
D14*
X25552D1*
X25448Y5993D1*
X24735Y5486D2*
X24253D1*
X24234Y5506D1*
X24159D1*
X23951Y5298D1*
Y5248D1*
X24227Y4973D1*
X24035Y5123D2*
X23951D1*
Y5248D1*
X24227Y4973D2*
X23948D1*
X23792Y4817D1*
X24234Y5506D2*
X23881Y5152D1*
X23773D1*
Y5323D1*
Y5324D1*
X23057Y5097D2*
X23547D1*
X23773Y5324D1*
X24735Y5289D2*
X24538D1*
X24493Y5245D1*
X24735Y5683D2*
X24518D1*
Y5721D1*
X25448Y5481D2*
X25155D1*
X25150Y5486D1*
X25128D1*
X26057Y5097D2*
X25832D1*
X25448Y5481D1*
X24687Y6198D2*
X25128Y5757D1*
Y5683D1*
X24057Y7097D2*
Y6759D1*
X23771Y6473D1*
X24931Y5486D2*
D3*
X25057Y7097D2*
Y6724D1*
X25303Y6478D1*
X25124Y6047D2*
Y6298D1*
X25303Y6478D1*
X25128Y5289D2*
Y5215D1*
X25193Y5150D1*
X24931Y5683D2*
Y5709D1*
X24626Y6014D1*
X24237D1*
X24234Y6017D1*
X24283Y6473D2*
X24786D1*
X24791Y6478D1*
X24411D1*
X23950Y6017D1*
X24234D1*
X23057Y6097D2*
X23669D1*
X23773Y5993D1*
X24210D1*
X24234Y6017D1*
X24462Y6003D2*
X24248D1*
X24739Y4973D2*
X24931D1*
Y5289D1*
D30*
Y5486D3*
X24518Y5721D3*
X24493Y5245D3*
X25193Y5150D3*
X24462Y6003D3*
X24035Y5123D3*
X23792Y4817D3*
X24687Y6198D3*
X25124Y6047D3*
D18*
X24234Y6017D3*
Y5506D3*
D19*
X24739Y4973D3*
X24227D3*
D18*
X25448Y5481D3*
Y5993D3*
D20*
X23773D3*
Y5324D3*
D21*
X26057Y5097D3*
Y6097D3*
D23*
X25057Y7097D3*
X24057D3*
X25057Y4097D3*
X24057D3*
D21*
X23057Y5097D3*
Y6097D3*
D19*
X23771Y6473D3*
X24283D3*
X25303Y6478D3*
X24791D3*
D26*
X25128Y5289D3*
X24931D3*
X24735D3*
X25128Y5486D3*
X24931D3*
X24735D3*
X25128Y5683D3*
X24931D3*
X24735D3*
X32377Y6097D2*
D14*
X31872D1*
X31768Y5993D1*
X31055Y5486D2*
X30573D1*
X30554Y5506D1*
X30479D1*
X30271Y5298D1*
Y5248D1*
X30547Y4973D1*
X30355Y5123D2*
X30271D1*
Y5248D1*
X30547Y4973D2*
X30268D1*
X30112Y4817D1*
X30554Y5506D2*
X30201Y5152D1*
X30093D1*
Y5323D1*
Y5324D1*
X29377Y5097D2*
X29867D1*
X30093Y5324D1*
X31055Y5289D2*
X30858D1*
X30813Y5245D1*
X31055Y5683D2*
X30838D1*
Y5721D1*
X31768Y5481D2*
X31475D1*
X31470Y5486D1*
X31448D1*
X32377Y5097D2*
X32152D1*
X31768Y5481D1*
X31007Y6198D2*
X31448Y5757D1*
Y5683D1*
X30377Y7097D2*
Y6759D1*
X30091Y6473D1*
X31251Y5486D2*
D3*
X31377Y7097D2*
Y6724D1*
X31623Y6478D1*
X31444Y6047D2*
Y6298D1*
X31623Y6478D1*
X31448Y5289D2*
Y5215D1*
X31513Y5150D1*
X31251Y5683D2*
Y5709D1*
X30946Y6014D1*
X30557D1*
X30554Y6017D1*
X30603Y6473D2*
X31106D1*
X31111Y6478D1*
X30731D1*
X30270Y6017D1*
X30554D1*
X29377Y6097D2*
X29989D1*
X30093Y5993D1*
X30530D1*
X30554Y6017D1*
X30782Y6003D2*
X30568D1*
X31059Y4973D2*
X31251D1*
Y5289D1*
D30*
Y5486D3*
X30838Y5721D3*
X30813Y5245D3*
X31513Y5150D3*
X30782Y6003D3*
X30355Y5123D3*
X30112Y4817D3*
X31007Y6198D3*
X31444Y6047D3*
D18*
X30554Y6017D3*
Y5506D3*
D19*
X31059Y4973D3*
X30547D3*
D18*
X31768Y5481D3*
Y5993D3*
D20*
X30093D3*
Y5324D3*
D21*
X32377Y5097D3*
Y6097D3*
D23*
X31377Y7097D3*
X30377D3*
X31377Y4097D3*
X30377D3*
D21*
X29377Y5097D3*
Y6097D3*
D19*
X30091Y6473D3*
X30603D3*
X31623Y6478D3*
X31111D3*
D26*
X31448Y5289D3*
X31251D3*
X31055D3*
X31448Y5486D3*
X31251D3*
X31055D3*
X31448Y5683D3*
X31251D3*
X31055D3*
X38697Y6097D2*
D14*
X38192D1*
X38088Y5993D1*
X37375Y5486D2*
X36893D1*
X36874Y5506D1*
X36799D1*
X36591Y5298D1*
Y5248D1*
X36867Y4973D1*
X36675Y5123D2*
X36591D1*
Y5248D1*
X36867Y4973D2*
X36588D1*
X36432Y4817D1*
X36874Y5506D2*
X36521Y5152D1*
X36413D1*
Y5323D1*
Y5324D1*
X35697Y5097D2*
X36187D1*
X36413Y5324D1*
X37375Y5289D2*
X37178D1*
X37133Y5245D1*
X37375Y5683D2*
X37158D1*
Y5721D1*
X38088Y5481D2*
X37795D1*
X37790Y5486D1*
X37768D1*
X38697Y5097D2*
X38472D1*
X38088Y5481D1*
X37327Y6198D2*
X37768Y5757D1*
Y5683D1*
X36697Y7097D2*
Y6759D1*
X36411Y6473D1*
X37571Y5486D2*
D3*
X37697Y7097D2*
Y6724D1*
X37943Y6478D1*
X37764Y6047D2*
Y6298D1*
X37943Y6478D1*
X37768Y5289D2*
Y5215D1*
X37833Y5150D1*
X37571Y5683D2*
Y5709D1*
X37266Y6014D1*
X36877D1*
X36874Y6017D1*
X36923Y6473D2*
X37426D1*
X37431Y6478D1*
X37051D1*
X36590Y6017D1*
X36874D1*
X35697Y6097D2*
X36309D1*
X36413Y5993D1*
X36850D1*
X36874Y6017D1*
X37102Y6003D2*
X36888D1*
X37379Y4973D2*
X37571D1*
Y5289D1*
D30*
Y5486D3*
X37158Y5721D3*
X37133Y5245D3*
X37833Y5150D3*
X37102Y6003D3*
X36675Y5123D3*
X36432Y4817D3*
X37327Y6198D3*
X37764Y6047D3*
D18*
X36874Y6017D3*
Y5506D3*
D19*
X37379Y4973D3*
X36867D3*
D18*
X38088Y5481D3*
Y5993D3*
D20*
X36413D3*
Y5324D3*
D21*
X38697Y5097D3*
Y6097D3*
D23*
X37697Y7097D3*
X36697D3*
X37697Y4097D3*
X36697D3*
D21*
X35697Y5097D3*
Y6097D3*
D19*
X36411Y6473D3*
X36923D3*
X37943Y6478D3*
X37431D3*
D26*
X37768Y5289D3*
X37571D3*
X37375D3*
X37768Y5486D3*
X37571D3*
X37375D3*
X37768Y5683D3*
X37571D3*
X37375D3*
X45017Y6097D2*
D14*
X44512D1*
X44408Y5993D1*
X43695Y5486D2*
X43213D1*
X43194Y5506D1*
X43119D1*
X42911Y5298D1*
Y5248D1*
X43187Y4973D1*
X42995Y5123D2*
X42911D1*
Y5248D1*
X43187Y4973D2*
X42908D1*
X42752Y4817D1*
X43194Y5506D2*
X42841Y5152D1*
X42733D1*
Y5323D1*
Y5324D1*
X42017Y5097D2*
X42507D1*
X42733Y5324D1*
X43695Y5289D2*
X43498D1*
X43453Y5245D1*
X43695Y5683D2*
X43478D1*
Y5721D1*
X44408Y5481D2*
X44115D1*
X44110Y5486D1*
X44088D1*
X45017Y5097D2*
X44792D1*
X44408Y5481D1*
X43647Y6198D2*
X44088Y5757D1*
Y5683D1*
X43017Y7097D2*
Y6759D1*
X42731Y6473D1*
X43891Y5486D2*
D3*
X44017Y7097D2*
Y6724D1*
X44263Y6478D1*
X44084Y6047D2*
Y6298D1*
X44263Y6478D1*
X44088Y5289D2*
Y5215D1*
X44153Y5150D1*
X43891Y5683D2*
Y5709D1*
X43586Y6014D1*
X43197D1*
X43194Y6017D1*
X43243Y6473D2*
X43746D1*
X43751Y6478D1*
X43371D1*
X42910Y6017D1*
X43194D1*
X42017Y6097D2*
X42629D1*
X42733Y5993D1*
X43170D1*
X43194Y6017D1*
X43422Y6003D2*
X43208D1*
X43699Y4973D2*
X43891D1*
Y5289D1*
D30*
Y5486D3*
X43478Y5721D3*
X43453Y5245D3*
X44153Y5150D3*
X43422Y6003D3*
X42995Y5123D3*
X42752Y4817D3*
X43647Y6198D3*
X44084Y6047D3*
D18*
X43194Y6017D3*
Y5506D3*
D19*
X43699Y4973D3*
X43187D3*
D18*
X44408Y5481D3*
Y5993D3*
D20*
X42733D3*
Y5324D3*
D21*
X45017Y5097D3*
Y6097D3*
D23*
X44017Y7097D3*
X43017D3*
X44017Y4097D3*
X43017D3*
D21*
X42017Y5097D3*
Y6097D3*
D19*
X42731Y6473D3*
X43243D3*
X44263Y6478D3*
X43751D3*
D26*
X44088Y5289D3*
X43891D3*
X43695D3*
X44088Y5486D3*
X43891D3*
X43695D3*
X44088Y5683D3*
X43891D3*
X43695D3*
X51337Y6097D2*
D14*
X50832D1*
X50728Y5993D1*
X50015Y5486D2*
X49533D1*
X49514Y5506D1*
X49439D1*
X49231Y5298D1*
Y5248D1*
X49507Y4973D1*
X49315Y5123D2*
X49231D1*
Y5248D1*
X49507Y4973D2*
X49228D1*
X49072Y4817D1*
X49514Y5506D2*
X49161Y5152D1*
X49053D1*
Y5323D1*
Y5324D1*
X48337Y5097D2*
X48827D1*
X49053Y5324D1*
X50015Y5289D2*
X49818D1*
X49773Y5245D1*
X50015Y5683D2*
X49798D1*
Y5721D1*
X50728Y5481D2*
X50435D1*
X50430Y5486D1*
X50408D1*
X51337Y5097D2*
X51112D1*
X50728Y5481D1*
X49967Y6198D2*
X50408Y5757D1*
Y5683D1*
X49337Y7097D2*
Y6759D1*
X49051Y6473D1*
X50211Y5486D2*
D3*
X50337Y7097D2*
Y6724D1*
X50583Y6478D1*
X50404Y6047D2*
Y6298D1*
X50583Y6478D1*
X50408Y5289D2*
Y5215D1*
X50473Y5150D1*
X50211Y5683D2*
Y5709D1*
X49906Y6014D1*
X49517D1*
X49514Y6017D1*
X49563Y6473D2*
X50066D1*
X50071Y6478D1*
X49691D1*
X49230Y6017D1*
X49514D1*
X48337Y6097D2*
X48949D1*
X49053Y5993D1*
X49490D1*
X49514Y6017D1*
X49742Y6003D2*
X49528D1*
X50019Y4973D2*
X50211D1*
Y5289D1*
D30*
Y5486D3*
X49798Y5721D3*
X49773Y5245D3*
X50473Y5150D3*
X49742Y6003D3*
X49315Y5123D3*
X49072Y4817D3*
X49967Y6198D3*
X50404Y6047D3*
D18*
X49514Y6017D3*
Y5506D3*
D19*
X50019Y4973D3*
X49507D3*
D18*
X50728Y5481D3*
Y5993D3*
D20*
X49053D3*
Y5324D3*
D21*
X51337Y5097D3*
Y6097D3*
D23*
X50337Y7097D3*
X49337D3*
X50337Y4097D3*
X49337D3*
D21*
X48337Y5097D3*
Y6097D3*
D19*
X49051Y6473D3*
X49563D3*
X50583Y6478D3*
X50071D3*
D26*
X50408Y5289D3*
X50211D3*
X50015D3*
X50408Y5486D3*
X50211D3*
X50015D3*
X50408Y5683D3*
X50211D3*
X50015D3*
X57657Y6097D2*
D14*
X57152D1*
X57048Y5993D1*
X56335Y5486D2*
X55853D1*
X55834Y5506D1*
X55759D1*
X55551Y5298D1*
Y5248D1*
X55827Y4973D1*
X55635Y5123D2*
X55551D1*
Y5248D1*
X55827Y4973D2*
X55548D1*
X55392Y4817D1*
X55834Y5506D2*
X55481Y5152D1*
X55373D1*
Y5323D1*
Y5324D1*
X54657Y5097D2*
X55147D1*
X55373Y5324D1*
X56335Y5289D2*
X56138D1*
X56093Y5245D1*
X56335Y5683D2*
X56118D1*
Y5721D1*
X57048Y5481D2*
X56755D1*
X56750Y5486D1*
X56728D1*
X57657Y5097D2*
X57432D1*
X57048Y5481D1*
X56287Y6198D2*
X56728Y5757D1*
Y5683D1*
X55657Y7097D2*
Y6759D1*
X55371Y6473D1*
X56531Y5486D2*
D3*
X56657Y7097D2*
Y6724D1*
X56903Y6478D1*
X56724Y6047D2*
Y6298D1*
X56903Y6478D1*
X56728Y5289D2*
Y5215D1*
X56793Y5150D1*
X56531Y5683D2*
Y5709D1*
X56226Y6014D1*
X55837D1*
X55834Y6017D1*
X55883Y6473D2*
X56386D1*
X56391Y6478D1*
X56011D1*
X55550Y6017D1*
X55834D1*
X54657Y6097D2*
X55269D1*
X55373Y5993D1*
X55810D1*
X55834Y6017D1*
X56062Y6003D2*
X55848D1*
X56339Y4973D2*
X56531D1*
Y5289D1*
D30*
Y5486D3*
X56118Y5721D3*
X56093Y5245D3*
X56793Y5150D3*
X56062Y6003D3*
X55635Y5123D3*
X55392Y4817D3*
X56287Y6198D3*
X56724Y6047D3*
D18*
X55834Y6017D3*
Y5506D3*
D19*
X56339Y4973D3*
X55827D3*
D18*
X57048Y5481D3*
Y5993D3*
D20*
X55373D3*
Y5324D3*
D21*
X57657Y5097D3*
Y6097D3*
D23*
X56657Y7097D3*
X55657D3*
X56657Y4097D3*
X55657D3*
D21*
X54657Y5097D3*
Y6097D3*
D19*
X55371Y6473D3*
X55883D3*
X56903Y6478D3*
X56391D3*
D26*
X56728Y5289D3*
X56531D3*
X56335D3*
X56728Y5486D3*
X56531D3*
X56335D3*
X56728Y5683D3*
X56531D3*
X56335D3*
X63977Y6097D2*
D14*
X63472D1*
X63368Y5993D1*
X62655Y5486D2*
X62173D1*
X62154Y5506D1*
X62079D1*
X61871Y5298D1*
Y5248D1*
X62147Y4973D1*
X61955Y5123D2*
X61871D1*
Y5248D1*
X62147Y4973D2*
X61868D1*
X61712Y4817D1*
X62154Y5506D2*
X61801Y5152D1*
X61693D1*
Y5323D1*
Y5324D1*
X60977Y5097D2*
X61467D1*
X61693Y5324D1*
X62655Y5289D2*
X62458D1*
X62413Y5245D1*
X62655Y5683D2*
X62438D1*
Y5721D1*
X63368Y5481D2*
X63075D1*
X63070Y5486D1*
X63048D1*
X63977Y5097D2*
X63752D1*
X63368Y5481D1*
X62607Y6198D2*
X63048Y5757D1*
Y5683D1*
X61977Y7097D2*
Y6759D1*
X61691Y6473D1*
X62851Y5486D2*
D3*
X62977Y7097D2*
Y6724D1*
X63223Y6478D1*
X63044Y6047D2*
Y6298D1*
X63223Y6478D1*
X63048Y5289D2*
Y5215D1*
X63113Y5150D1*
X62851Y5683D2*
Y5709D1*
X62546Y6014D1*
X62157D1*
X62154Y6017D1*
X62203Y6473D2*
X62706D1*
X62711Y6478D1*
X62331D1*
X61870Y6017D1*
X62154D1*
X60977Y6097D2*
X61589D1*
X61693Y5993D1*
X62130D1*
X62154Y6017D1*
X62382Y6003D2*
X62168D1*
X62659Y4973D2*
X62851D1*
Y5289D1*
D30*
Y5486D3*
X62438Y5721D3*
X62413Y5245D3*
X63113Y5150D3*
X62382Y6003D3*
X61955Y5123D3*
X61712Y4817D3*
X62607Y6198D3*
X63044Y6047D3*
D18*
X62154Y6017D3*
Y5506D3*
D19*
X62659Y4973D3*
X62147D3*
D18*
X63368Y5481D3*
Y5993D3*
D20*
X61693D3*
Y5324D3*
D21*
X63977Y5097D3*
Y6097D3*
D23*
X62977Y7097D3*
X61977D3*
X62977Y4097D3*
X61977D3*
D21*
X60977Y5097D3*
Y6097D3*
D19*
X61691Y6473D3*
X62203D3*
X63223Y6478D3*
X62711D3*
D26*
X63048Y5289D3*
X62851D3*
X62655D3*
X63048Y5486D3*
X62851D3*
X62655D3*
X63048Y5683D3*
X62851D3*
X62655D3*
X70297Y6097D2*
D14*
X69792D1*
X69688Y5993D1*
X68975Y5486D2*
X68493D1*
X68474Y5506D1*
X68399D1*
X68191Y5298D1*
Y5248D1*
X68467Y4973D1*
X68275Y5123D2*
X68191D1*
Y5248D1*
X68467Y4973D2*
X68188D1*
X68032Y4817D1*
X68474Y5506D2*
X68121Y5152D1*
X68013D1*
Y5323D1*
Y5324D1*
X67297Y5097D2*
X67787D1*
X68013Y5324D1*
X68975Y5289D2*
X68778D1*
X68733Y5245D1*
X68975Y5683D2*
X68758D1*
Y5721D1*
X69688Y5481D2*
X69395D1*
X69390Y5486D1*
X69368D1*
X70297Y5097D2*
X70072D1*
X69688Y5481D1*
X68927Y6198D2*
X69368Y5757D1*
Y5683D1*
X68297Y7097D2*
Y6759D1*
X68011Y6473D1*
X69171Y5486D2*
D3*
X69297Y7097D2*
Y6724D1*
X69543Y6478D1*
X69364Y6047D2*
Y6298D1*
X69543Y6478D1*
X69368Y5289D2*
Y5215D1*
X69433Y5150D1*
X69171Y5683D2*
Y5709D1*
X68866Y6014D1*
X68477D1*
X68474Y6017D1*
X68523Y6473D2*
X69026D1*
X69031Y6478D1*
X68651D1*
X68190Y6017D1*
X68474D1*
X67297Y6097D2*
X67909D1*
X68013Y5993D1*
X68450D1*
X68474Y6017D1*
X68702Y6003D2*
X68488D1*
X68979Y4973D2*
X69171D1*
Y5289D1*
D30*
Y5486D3*
X68758Y5721D3*
X68733Y5245D3*
X69433Y5150D3*
X68702Y6003D3*
X68275Y5123D3*
X68032Y4817D3*
X68927Y6198D3*
X69364Y6047D3*
D18*
X68474Y6017D3*
Y5506D3*
D19*
X68979Y4973D3*
X68467D3*
D18*
X69688Y5481D3*
Y5993D3*
D20*
X68013D3*
Y5324D3*
D21*
X70297Y5097D3*
Y6097D3*
D23*
X69297Y7097D3*
X68297D3*
X69297Y4097D3*
X68297D3*
D21*
X67297Y5097D3*
Y6097D3*
D19*
X68011Y6473D3*
X68523D3*
X69543Y6478D3*
X69031D3*
D26*
X69368Y5289D3*
X69171D3*
X68975D3*
X69368Y5486D3*
X69171D3*
X68975D3*
X69368Y5683D3*
X69171D3*
X68975D3*
X76617Y6097D2*
D14*
X76112D1*
X76008Y5993D1*
X75295Y5486D2*
X74813D1*
X74794Y5506D1*
X74719D1*
X74511Y5298D1*
Y5248D1*
X74787Y4973D1*
X74595Y5123D2*
X74511D1*
Y5248D1*
X74787Y4973D2*
X74508D1*
X74352Y4817D1*
X74794Y5506D2*
X74441Y5152D1*
X74333D1*
Y5323D1*
Y5324D1*
X73617Y5097D2*
X74107D1*
X74333Y5324D1*
X75295Y5289D2*
X75098D1*
X75053Y5245D1*
X75295Y5683D2*
X75078D1*
Y5721D1*
X76008Y5481D2*
X75715D1*
X75710Y5486D1*
X75688D1*
X76617Y5097D2*
X76392D1*
X76008Y5481D1*
X75247Y6198D2*
X75688Y5757D1*
Y5683D1*
X74617Y7097D2*
Y6759D1*
X74331Y6473D1*
X75491Y5486D2*
D3*
X75617Y7097D2*
Y6724D1*
X75863Y6478D1*
X75684Y6047D2*
Y6298D1*
X75863Y6478D1*
X75688Y5289D2*
Y5215D1*
X75753Y5150D1*
X75491Y5683D2*
Y5709D1*
X75186Y6014D1*
X74797D1*
X74794Y6017D1*
X74843Y6473D2*
X75346D1*
X75351Y6478D1*
X74971D1*
X74510Y6017D1*
X74794D1*
X73617Y6097D2*
X74229D1*
X74333Y5993D1*
X74770D1*
X74794Y6017D1*
X75022Y6003D2*
X74808D1*
X75299Y4973D2*
X75491D1*
Y5289D1*
D30*
Y5486D3*
X75078Y5721D3*
X75053Y5245D3*
X75753Y5150D3*
X75022Y6003D3*
X74595Y5123D3*
X74352Y4817D3*
X75247Y6198D3*
X75684Y6047D3*
D18*
X74794Y6017D3*
Y5506D3*
D19*
X75299Y4973D3*
X74787D3*
D18*
X76008Y5481D3*
Y5993D3*
D20*
X74333D3*
Y5324D3*
D21*
X76617Y5097D3*
Y6097D3*
D23*
X75617Y7097D3*
X74617D3*
X75617Y4097D3*
X74617D3*
D21*
X73617Y5097D3*
Y6097D3*
D19*
X74331Y6473D3*
X74843D3*
X75863Y6478D3*
X75351D3*
D26*
X75688Y5289D3*
X75491D3*
X75295D3*
X75688Y5486D3*
X75491D3*
X75295D3*
X75688Y5683D3*
X75491D3*
X75295D3*
X7097Y12417D2*
D14*
X6592D1*
X6488Y12313D1*
X5775Y11806D2*
X5293D1*
X5274Y11826D1*
X5199D1*
X4991Y11618D1*
Y11568D1*
X5267Y11293D1*
X5075Y11443D2*
X4991D1*
Y11568D1*
X5267Y11293D2*
X4988D1*
X4832Y11137D1*
X5274Y11826D2*
X4921Y11472D1*
X4813D1*
Y11643D1*
Y11644D1*
X4097Y11417D2*
X4587D1*
X4813Y11644D1*
X5775Y11609D2*
X5578D1*
X5533Y11565D1*
X5775Y12003D2*
X5558D1*
Y12041D1*
X6488Y11801D2*
X6195D1*
X6190Y11806D1*
X6168D1*
X7097Y11417D2*
X6872D1*
X6488Y11801D1*
X5727Y12518D2*
X6168Y12077D1*
Y12003D1*
X5097Y13417D2*
Y13079D1*
X4811Y12793D1*
X5971Y11806D2*
D3*
X6097Y13417D2*
Y13044D1*
X6343Y12798D1*
X6164Y12367D2*
Y12618D1*
X6343Y12798D1*
X6168Y11609D2*
Y11535D1*
X6233Y11470D1*
X5971Y12003D2*
Y12029D1*
X5666Y12334D1*
X5277D1*
X5274Y12337D1*
X5323Y12793D2*
X5826D1*
X5831Y12798D1*
X5451D1*
X4990Y12337D1*
X5274D1*
X4097Y12417D2*
X4709D1*
X4813Y12313D1*
X5250D1*
X5274Y12337D1*
X5502Y12323D2*
X5288D1*
X5779Y11293D2*
X5971D1*
Y11609D1*
D30*
Y11806D3*
X5558Y12041D3*
X5533Y11565D3*
X6233Y11470D3*
X5502Y12323D3*
X5075Y11443D3*
X4832Y11137D3*
X5727Y12518D3*
X6164Y12367D3*
D18*
X5274Y12337D3*
Y11826D3*
D19*
X5779Y11293D3*
X5267D3*
D18*
X6488Y11801D3*
Y12313D3*
D20*
X4813D3*
Y11644D3*
D21*
X7097Y11417D3*
Y12417D3*
D23*
X6097Y13417D3*
X5097D3*
X6097Y10417D3*
X5097D3*
D21*
X4097Y11417D3*
Y12417D3*
D19*
X4811Y12793D3*
X5323D3*
X6343Y12798D3*
X5831D3*
D26*
X6168Y11609D3*
X5971D3*
X5775D3*
X6168Y11806D3*
X5971D3*
X5775D3*
X6168Y12003D3*
X5971D3*
X5775D3*
X13417Y12417D2*
D14*
X12912D1*
X12808Y12313D1*
X12095Y11806D2*
X11613D1*
X11594Y11826D1*
X11519D1*
X11311Y11618D1*
Y11568D1*
X11587Y11293D1*
X11395Y11443D2*
X11311D1*
Y11568D1*
X11587Y11293D2*
X11308D1*
X11152Y11137D1*
X11594Y11826D2*
X11241Y11472D1*
X11133D1*
Y11643D1*
Y11644D1*
X10417Y11417D2*
X10907D1*
X11133Y11644D1*
X12095Y11609D2*
X11898D1*
X11853Y11565D1*
X12095Y12003D2*
X11878D1*
Y12041D1*
X12808Y11801D2*
X12515D1*
X12510Y11806D1*
X12488D1*
X13417Y11417D2*
X13192D1*
X12808Y11801D1*
X12047Y12518D2*
X12488Y12077D1*
Y12003D1*
X11417Y13417D2*
Y13079D1*
X11131Y12793D1*
X12291Y11806D2*
D3*
X12417Y13417D2*
Y13044D1*
X12663Y12798D1*
X12484Y12367D2*
Y12618D1*
X12663Y12798D1*
X12488Y11609D2*
Y11535D1*
X12553Y11470D1*
X12291Y12003D2*
Y12029D1*
X11986Y12334D1*
X11597D1*
X11594Y12337D1*
X11643Y12793D2*
X12146D1*
X12151Y12798D1*
X11771D1*
X11310Y12337D1*
X11594D1*
X10417Y12417D2*
X11029D1*
X11133Y12313D1*
X11570D1*
X11594Y12337D1*
X11822Y12323D2*
X11608D1*
X12099Y11293D2*
X12291D1*
Y11609D1*
D30*
Y11806D3*
X11878Y12041D3*
X11853Y11565D3*
X12553Y11470D3*
X11822Y12323D3*
X11395Y11443D3*
X11152Y11137D3*
X12047Y12518D3*
X12484Y12367D3*
D18*
X11594Y12337D3*
Y11826D3*
D19*
X12099Y11293D3*
X11587D3*
D18*
X12808Y11801D3*
Y12313D3*
D20*
X11133D3*
Y11644D3*
D21*
X13417Y11417D3*
Y12417D3*
D23*
X12417Y13417D3*
X11417D3*
X12417Y10417D3*
X11417D3*
D21*
X10417Y11417D3*
Y12417D3*
D19*
X11131Y12793D3*
X11643D3*
X12663Y12798D3*
X12151D3*
D26*
X12488Y11609D3*
X12291D3*
X12095D3*
X12488Y11806D3*
X12291D3*
X12095D3*
X12488Y12003D3*
X12291D3*
X12095D3*
X19737Y12417D2*
D14*
X19232D1*
X19128Y12313D1*
X18415Y11806D2*
X17933D1*
X17914Y11826D1*
X17839D1*
X17631Y11618D1*
Y11568D1*
X17907Y11293D1*
X17715Y11443D2*
X17631D1*
Y11568D1*
X17907Y11293D2*
X17628D1*
X17472Y11137D1*
X17914Y11826D2*
X17561Y11472D1*
X17453D1*
Y11643D1*
Y11644D1*
X16737Y11417D2*
X17227D1*
X17453Y11644D1*
X18415Y11609D2*
X18218D1*
X18173Y11565D1*
X18415Y12003D2*
X18198D1*
Y12041D1*
X19128Y11801D2*
X18835D1*
X18830Y11806D1*
X18808D1*
X19737Y11417D2*
X19512D1*
X19128Y11801D1*
X18367Y12518D2*
X18808Y12077D1*
Y12003D1*
X17737Y13417D2*
Y13079D1*
X17451Y12793D1*
X18611Y11806D2*
D3*
X18737Y13417D2*
Y13044D1*
X18983Y12798D1*
X18804Y12367D2*
Y12618D1*
X18983Y12798D1*
X18808Y11609D2*
Y11535D1*
X18873Y11470D1*
X18611Y12003D2*
Y12029D1*
X18306Y12334D1*
X17917D1*
X17914Y12337D1*
X17963Y12793D2*
X18466D1*
X18471Y12798D1*
X18091D1*
X17630Y12337D1*
X17914D1*
X16737Y12417D2*
X17349D1*
X17453Y12313D1*
X17890D1*
X17914Y12337D1*
X18142Y12323D2*
X17928D1*
X18419Y11293D2*
X18611D1*
Y11609D1*
D30*
Y11806D3*
X18198Y12041D3*
X18173Y11565D3*
X18873Y11470D3*
X18142Y12323D3*
X17715Y11443D3*
X17472Y11137D3*
X18367Y12518D3*
X18804Y12367D3*
D18*
X17914Y12337D3*
Y11826D3*
D19*
X18419Y11293D3*
X17907D3*
D18*
X19128Y11801D3*
Y12313D3*
D20*
X17453D3*
Y11644D3*
D21*
X19737Y11417D3*
Y12417D3*
D23*
X18737Y13417D3*
X17737D3*
X18737Y10417D3*
X17737D3*
D21*
X16737Y11417D3*
Y12417D3*
D19*
X17451Y12793D3*
X17963D3*
X18983Y12798D3*
X18471D3*
D26*
X18808Y11609D3*
X18611D3*
X18415D3*
X18808Y11806D3*
X18611D3*
X18415D3*
X18808Y12003D3*
X18611D3*
X18415D3*
X26057Y12417D2*
D14*
X25552D1*
X25448Y12313D1*
X24735Y11806D2*
X24253D1*
X24234Y11826D1*
X24159D1*
X23951Y11618D1*
Y11568D1*
X24227Y11293D1*
X24035Y11443D2*
X23951D1*
Y11568D1*
X24227Y11293D2*
X23948D1*
X23792Y11137D1*
X24234Y11826D2*
X23881Y11472D1*
X23773D1*
Y11643D1*
Y11644D1*
X23057Y11417D2*
X23547D1*
X23773Y11644D1*
X24735Y11609D2*
X24538D1*
X24493Y11565D1*
X24735Y12003D2*
X24518D1*
Y12041D1*
X25448Y11801D2*
X25155D1*
X25150Y11806D1*
X25128D1*
X26057Y11417D2*
X25832D1*
X25448Y11801D1*
X24687Y12518D2*
X25128Y12077D1*
Y12003D1*
X24057Y13417D2*
Y13079D1*
X23771Y12793D1*
X24931Y11806D2*
D3*
X25057Y13417D2*
Y13044D1*
X25303Y12798D1*
X25124Y12367D2*
Y12618D1*
X25303Y12798D1*
X25128Y11609D2*
Y11535D1*
X25193Y11470D1*
X24931Y12003D2*
Y12029D1*
X24626Y12334D1*
X24237D1*
X24234Y12337D1*
X24283Y12793D2*
X24786D1*
X24791Y12798D1*
X24411D1*
X23950Y12337D1*
X24234D1*
X23057Y12417D2*
X23669D1*
X23773Y12313D1*
X24210D1*
X24234Y12337D1*
X24462Y12323D2*
X24248D1*
X24739Y11293D2*
X24931D1*
Y11609D1*
D30*
Y11806D3*
X24518Y12041D3*
X24493Y11565D3*
X25193Y11470D3*
X24462Y12323D3*
X24035Y11443D3*
X23792Y11137D3*
X24687Y12518D3*
X25124Y12367D3*
D18*
X24234Y12337D3*
Y11826D3*
D19*
X24739Y11293D3*
X24227D3*
D18*
X25448Y11801D3*
Y12313D3*
D20*
X23773D3*
Y11644D3*
D21*
X26057Y11417D3*
Y12417D3*
D23*
X25057Y13417D3*
X24057D3*
X25057Y10417D3*
X24057D3*
D21*
X23057Y11417D3*
Y12417D3*
D19*
X23771Y12793D3*
X24283D3*
X25303Y12798D3*
X24791D3*
D26*
X25128Y11609D3*
X24931D3*
X24735D3*
X25128Y11806D3*
X24931D3*
X24735D3*
X25128Y12003D3*
X24931D3*
X24735D3*
X32377Y12417D2*
D14*
X31872D1*
X31768Y12313D1*
X31055Y11806D2*
X30573D1*
X30554Y11826D1*
X30479D1*
X30271Y11618D1*
Y11568D1*
X30547Y11293D1*
X30355Y11443D2*
X30271D1*
Y11568D1*
X30547Y11293D2*
X30268D1*
X30112Y11137D1*
X30554Y11826D2*
X30201Y11472D1*
X30093D1*
Y11643D1*
Y11644D1*
X29377Y11417D2*
X29867D1*
X30093Y11644D1*
X31055Y11609D2*
X30858D1*
X30813Y11565D1*
X31055Y12003D2*
X30838D1*
Y12041D1*
X31768Y11801D2*
X31475D1*
X31470Y11806D1*
X31448D1*
X32377Y11417D2*
X32152D1*
X31768Y11801D1*
X31007Y12518D2*
X31448Y12077D1*
Y12003D1*
X30377Y13417D2*
Y13079D1*
X30091Y12793D1*
X31251Y11806D2*
D3*
X31377Y13417D2*
Y13044D1*
X31623Y12798D1*
X31444Y12367D2*
Y12618D1*
X31623Y12798D1*
X31448Y11609D2*
Y11535D1*
X31513Y11470D1*
X31251Y12003D2*
Y12029D1*
X30946Y12334D1*
X30557D1*
X30554Y12337D1*
X30603Y12793D2*
X31106D1*
X31111Y12798D1*
X30731D1*
X30270Y12337D1*
X30554D1*
X29377Y12417D2*
X29989D1*
X30093Y12313D1*
X30530D1*
X30554Y12337D1*
X30782Y12323D2*
X30568D1*
X31059Y11293D2*
X31251D1*
Y11609D1*
D30*
Y11806D3*
X30838Y12041D3*
X30813Y11565D3*
X31513Y11470D3*
X30782Y12323D3*
X30355Y11443D3*
X30112Y11137D3*
X31007Y12518D3*
X31444Y12367D3*
D18*
X30554Y12337D3*
Y11826D3*
D19*
X31059Y11293D3*
X30547D3*
D18*
X31768Y11801D3*
Y12313D3*
D20*
X30093D3*
Y11644D3*
D21*
X32377Y11417D3*
Y12417D3*
D23*
X31377Y13417D3*
X30377D3*
X31377Y10417D3*
X30377D3*
D21*
X29377Y11417D3*
Y12417D3*
D19*
X30091Y12793D3*
X30603D3*
X31623Y12798D3*
X31111D3*
D26*
X31448Y11609D3*
X31251D3*
X31055D3*
X31448Y11806D3*
X31251D3*
X31055D3*
X31448Y12003D3*
X31251D3*
X31055D3*
X38697Y12417D2*
D14*
X38192D1*
X38088Y12313D1*
X37375Y11806D2*
X36893D1*
X36874Y11826D1*
X36799D1*
X36591Y11618D1*
Y11568D1*
X36867Y11293D1*
X36675Y11443D2*
X36591D1*
Y11568D1*
X36867Y11293D2*
X36588D1*
X36432Y11137D1*
X36874Y11826D2*
X36521Y11472D1*
X36413D1*
Y11643D1*
Y11644D1*
X35697Y11417D2*
X36187D1*
X36413Y11644D1*
X37375Y11609D2*
X37178D1*
X37133Y11565D1*
X37375Y12003D2*
X37158D1*
Y12041D1*
X38088Y11801D2*
X37795D1*
X37790Y11806D1*
X37768D1*
X38697Y11417D2*
X38472D1*
X38088Y11801D1*
X37327Y12518D2*
X37768Y12077D1*
Y12003D1*
X36697Y13417D2*
Y13079D1*
X36411Y12793D1*
X37571Y11806D2*
D3*
X37697Y13417D2*
Y13044D1*
X37943Y12798D1*
X37764Y12367D2*
Y12618D1*
X37943Y12798D1*
X37768Y11609D2*
Y11535D1*
X37833Y11470D1*
X37571Y12003D2*
Y12029D1*
X37266Y12334D1*
X36877D1*
X36874Y12337D1*
X36923Y12793D2*
X37426D1*
X37431Y12798D1*
X37051D1*
X36590Y12337D1*
X36874D1*
X35697Y12417D2*
X36309D1*
X36413Y12313D1*
X36850D1*
X36874Y12337D1*
X37102Y12323D2*
X36888D1*
X37379Y11293D2*
X37571D1*
Y11609D1*
D30*
Y11806D3*
X37158Y12041D3*
X37133Y11565D3*
X37833Y11470D3*
X37102Y12323D3*
X36675Y11443D3*
X36432Y11137D3*
X37327Y12518D3*
X37764Y12367D3*
D18*
X36874Y12337D3*
Y11826D3*
D19*
X37379Y11293D3*
X36867D3*
D18*
X38088Y11801D3*
Y12313D3*
D20*
X36413D3*
Y11644D3*
D21*
X38697Y11417D3*
Y12417D3*
D23*
X37697Y13417D3*
X36697D3*
X37697Y10417D3*
X36697D3*
D21*
X35697Y11417D3*
Y12417D3*
D19*
X36411Y12793D3*
X36923D3*
X37943Y12798D3*
X37431D3*
D26*
X37768Y11609D3*
X37571D3*
X37375D3*
X37768Y11806D3*
X37571D3*
X37375D3*
X37768Y12003D3*
X37571D3*
X37375D3*
X45017Y12417D2*
D14*
X44512D1*
X44408Y12313D1*
X43695Y11806D2*
X43213D1*
X43194Y11826D1*
X43119D1*
X42911Y11618D1*
Y11568D1*
X43187Y11293D1*
X42995Y11443D2*
X42911D1*
Y11568D1*
X43187Y11293D2*
X42908D1*
X42752Y11137D1*
X43194Y11826D2*
X42841Y11472D1*
X42733D1*
Y11643D1*
Y11644D1*
X42017Y11417D2*
X42507D1*
X42733Y11644D1*
X43695Y11609D2*
X43498D1*
X43453Y11565D1*
X43695Y12003D2*
X43478D1*
Y12041D1*
X44408Y11801D2*
X44115D1*
X44110Y11806D1*
X44088D1*
X45017Y11417D2*
X44792D1*
X44408Y11801D1*
X43647Y12518D2*
X44088Y12077D1*
Y12003D1*
X43017Y13417D2*
Y13079D1*
X42731Y12793D1*
X43891Y11806D2*
D3*
X44017Y13417D2*
Y13044D1*
X44263Y12798D1*
X44084Y12367D2*
Y12618D1*
X44263Y12798D1*
X44088Y11609D2*
Y11535D1*
X44153Y11470D1*
X43891Y12003D2*
Y12029D1*
X43586Y12334D1*
X43197D1*
X43194Y12337D1*
X43243Y12793D2*
X43746D1*
X43751Y12798D1*
X43371D1*
X42910Y12337D1*
X43194D1*
X42017Y12417D2*
X42629D1*
X42733Y12313D1*
X43170D1*
X43194Y12337D1*
X43422Y12323D2*
X43208D1*
X43699Y11293D2*
X43891D1*
Y11609D1*
D30*
Y11806D3*
X43478Y12041D3*
X43453Y11565D3*
X44153Y11470D3*
X43422Y12323D3*
X42995Y11443D3*
X42752Y11137D3*
X43647Y12518D3*
X44084Y12367D3*
D18*
X43194Y12337D3*
Y11826D3*
D19*
X43699Y11293D3*
X43187D3*
D18*
X44408Y11801D3*
Y12313D3*
D20*
X42733D3*
Y11644D3*
D21*
X45017Y11417D3*
Y12417D3*
D23*
X44017Y13417D3*
X43017D3*
X44017Y10417D3*
X43017D3*
D21*
X42017Y11417D3*
Y12417D3*
D19*
X42731Y12793D3*
X43243D3*
X44263Y12798D3*
X43751D3*
D26*
X44088Y11609D3*
X43891D3*
X43695D3*
X44088Y11806D3*
X43891D3*
X43695D3*
X44088Y12003D3*
X43891D3*
X43695D3*
X51337Y12417D2*
D14*
X50832D1*
X50728Y12313D1*
X50015Y11806D2*
X49533D1*
X49514Y11826D1*
X49439D1*
X49231Y11618D1*
Y11568D1*
X49507Y11293D1*
X49315Y11443D2*
X49231D1*
Y11568D1*
X49507Y11293D2*
X49228D1*
X49072Y11137D1*
X49514Y11826D2*
X49161Y11472D1*
X49053D1*
Y11643D1*
Y11644D1*
X48337Y11417D2*
X48827D1*
X49053Y11644D1*
X50015Y11609D2*
X49818D1*
X49773Y11565D1*
X50015Y12003D2*
X49798D1*
Y12041D1*
X50728Y11801D2*
X50435D1*
X50430Y11806D1*
X50408D1*
X51337Y11417D2*
X51112D1*
X50728Y11801D1*
X49967Y12518D2*
X50408Y12077D1*
Y12003D1*
X49337Y13417D2*
Y13079D1*
X49051Y12793D1*
X50211Y11806D2*
D3*
X50337Y13417D2*
Y13044D1*
X50583Y12798D1*
X50404Y12367D2*
Y12618D1*
X50583Y12798D1*
X50408Y11609D2*
Y11535D1*
X50473Y11470D1*
X50211Y12003D2*
Y12029D1*
X49906Y12334D1*
X49517D1*
X49514Y12337D1*
X49563Y12793D2*
X50066D1*
X50071Y12798D1*
X49691D1*
X49230Y12337D1*
X49514D1*
X48337Y12417D2*
X48949D1*
X49053Y12313D1*
X49490D1*
X49514Y12337D1*
X49742Y12323D2*
X49528D1*
X50019Y11293D2*
X50211D1*
Y11609D1*
D30*
Y11806D3*
X49798Y12041D3*
X49773Y11565D3*
X50473Y11470D3*
X49742Y12323D3*
X49315Y11443D3*
X49072Y11137D3*
X49967Y12518D3*
X50404Y12367D3*
D18*
X49514Y12337D3*
Y11826D3*
D19*
X50019Y11293D3*
X49507D3*
D18*
X50728Y11801D3*
Y12313D3*
D20*
X49053D3*
Y11644D3*
D21*
X51337Y11417D3*
Y12417D3*
D23*
X50337Y13417D3*
X49337D3*
X50337Y10417D3*
X49337D3*
D21*
X48337Y11417D3*
Y12417D3*
D19*
X49051Y12793D3*
X49563D3*
X50583Y12798D3*
X50071D3*
D26*
X50408Y11609D3*
X50211D3*
X50015D3*
X50408Y11806D3*
X50211D3*
X50015D3*
X50408Y12003D3*
X50211D3*
X50015D3*
X57657Y12417D2*
D14*
X57152D1*
X57048Y12313D1*
X56335Y11806D2*
X55853D1*
X55834Y11826D1*
X55759D1*
X55551Y11618D1*
Y11568D1*
X55827Y11293D1*
X55635Y11443D2*
X55551D1*
Y11568D1*
X55827Y11293D2*
X55548D1*
X55392Y11137D1*
X55834Y11826D2*
X55481Y11472D1*
X55373D1*
Y11643D1*
Y11644D1*
X54657Y11417D2*
X55147D1*
X55373Y11644D1*
X56335Y11609D2*
X56138D1*
X56093Y11565D1*
X56335Y12003D2*
X56118D1*
Y12041D1*
X57048Y11801D2*
X56755D1*
X56750Y11806D1*
X56728D1*
X57657Y11417D2*
X57432D1*
X57048Y11801D1*
X56287Y12518D2*
X56728Y12077D1*
Y12003D1*
X55657Y13417D2*
Y13079D1*
X55371Y12793D1*
X56531Y11806D2*
D3*
X56657Y13417D2*
Y13044D1*
X56903Y12798D1*
X56724Y12367D2*
Y12618D1*
X56903Y12798D1*
X56728Y11609D2*
Y11535D1*
X56793Y11470D1*
X56531Y12003D2*
Y12029D1*
X56226Y12334D1*
X55837D1*
X55834Y12337D1*
X55883Y12793D2*
X56386D1*
X56391Y12798D1*
X56011D1*
X55550Y12337D1*
X55834D1*
X54657Y12417D2*
X55269D1*
X55373Y12313D1*
X55810D1*
X55834Y12337D1*
X56062Y12323D2*
X55848D1*
X56339Y11293D2*
X56531D1*
Y11609D1*
D30*
Y11806D3*
X56118Y12041D3*
X56093Y11565D3*
X56793Y11470D3*
X56062Y12323D3*
X55635Y11443D3*
X55392Y11137D3*
X56287Y12518D3*
X56724Y12367D3*
D18*
X55834Y12337D3*
Y11826D3*
D19*
X56339Y11293D3*
X55827D3*
D18*
X57048Y11801D3*
Y12313D3*
D20*
X55373D3*
Y11644D3*
D21*
X57657Y11417D3*
Y12417D3*
D23*
X56657Y13417D3*
X55657D3*
X56657Y10417D3*
X55657D3*
D21*
X54657Y11417D3*
Y12417D3*
D19*
X55371Y12793D3*
X55883D3*
X56903Y12798D3*
X56391D3*
D26*
X56728Y11609D3*
X56531D3*
X56335D3*
X56728Y11806D3*
X56531D3*
X56335D3*
X56728Y12003D3*
X56531D3*
X56335D3*
X63977Y12417D2*
D14*
X63472D1*
X63368Y12313D1*
X62655Y11806D2*
X62173D1*
X62154Y11826D1*
X62079D1*
X61871Y11618D1*
Y11568D1*
X62147Y11293D1*
X61955Y11443D2*
X61871D1*
Y11568D1*
X62147Y11293D2*
X61868D1*
X61712Y11137D1*
X62154Y11826D2*
X61801Y11472D1*
X61693D1*
Y11643D1*
Y11644D1*
X60977Y11417D2*
X61467D1*
X61693Y11644D1*
X62655Y11609D2*
X62458D1*
X62413Y11565D1*
X62655Y12003D2*
X62438D1*
Y12041D1*
X63368Y11801D2*
X63075D1*
X63070Y11806D1*
X63048D1*
X63977Y11417D2*
X63752D1*
X63368Y11801D1*
X62607Y12518D2*
X63048Y12077D1*
Y12003D1*
X61977Y13417D2*
Y13079D1*
X61691Y12793D1*
X62851Y11806D2*
D3*
X62977Y13417D2*
Y13044D1*
X63223Y12798D1*
X63044Y12367D2*
Y12618D1*
X63223Y12798D1*
X63048Y11609D2*
Y11535D1*
X63113Y11470D1*
X62851Y12003D2*
Y12029D1*
X62546Y12334D1*
X62157D1*
X62154Y12337D1*
X62203Y12793D2*
X62706D1*
X62711Y12798D1*
X62331D1*
X61870Y12337D1*
X62154D1*
X60977Y12417D2*
X61589D1*
X61693Y12313D1*
X62130D1*
X62154Y12337D1*
X62382Y12323D2*
X62168D1*
X62659Y11293D2*
X62851D1*
Y11609D1*
D30*
Y11806D3*
X62438Y12041D3*
X62413Y11565D3*
X63113Y11470D3*
X62382Y12323D3*
X61955Y11443D3*
X61712Y11137D3*
X62607Y12518D3*
X63044Y12367D3*
D18*
X62154Y12337D3*
Y11826D3*
D19*
X62659Y11293D3*
X62147D3*
D18*
X63368Y11801D3*
Y12313D3*
D20*
X61693D3*
Y11644D3*
D21*
X63977Y11417D3*
Y12417D3*
D23*
X62977Y13417D3*
X61977D3*
X62977Y10417D3*
X61977D3*
D21*
X60977Y11417D3*
Y12417D3*
D19*
X61691Y12793D3*
X62203D3*
X63223Y12798D3*
X62711D3*
D26*
X63048Y11609D3*
X62851D3*
X62655D3*
X63048Y11806D3*
X62851D3*
X62655D3*
X63048Y12003D3*
X62851D3*
X62655D3*
X70297Y12417D2*
D14*
X69792D1*
X69688Y12313D1*
X68975Y11806D2*
X68493D1*
X68474Y11826D1*
X68399D1*
X68191Y11618D1*
Y11568D1*
X68467Y11293D1*
X68275Y11443D2*
X68191D1*
Y11568D1*
X68467Y11293D2*
X68188D1*
X68032Y11137D1*
X68474Y11826D2*
X68121Y11472D1*
X68013D1*
Y11643D1*
Y11644D1*
X67297Y11417D2*
X67787D1*
X68013Y11644D1*
X68975Y11609D2*
X68778D1*
X68733Y11565D1*
X68975Y12003D2*
X68758D1*
Y12041D1*
X69688Y11801D2*
X69395D1*
X69390Y11806D1*
X69368D1*
X70297Y11417D2*
X70072D1*
X69688Y11801D1*
X68927Y12518D2*
X69368Y12077D1*
Y12003D1*
X68297Y13417D2*
Y13079D1*
X68011Y12793D1*
X69171Y11806D2*
D3*
X69297Y13417D2*
Y13044D1*
X69543Y12798D1*
X69364Y12367D2*
Y12618D1*
X69543Y12798D1*
X69368Y11609D2*
Y11535D1*
X69433Y11470D1*
X69171Y12003D2*
Y12029D1*
X68866Y12334D1*
X68477D1*
X68474Y12337D1*
X68523Y12793D2*
X69026D1*
X69031Y12798D1*
X68651D1*
X68190Y12337D1*
X68474D1*
X67297Y12417D2*
X67909D1*
X68013Y12313D1*
X68450D1*
X68474Y12337D1*
X68702Y12323D2*
X68488D1*
X68979Y11293D2*
X69171D1*
Y11609D1*
D30*
Y11806D3*
X68758Y12041D3*
X68733Y11565D3*
X69433Y11470D3*
X68702Y12323D3*
X68275Y11443D3*
X68032Y11137D3*
X68927Y12518D3*
X69364Y12367D3*
D18*
X68474Y12337D3*
Y11826D3*
D19*
X68979Y11293D3*
X68467D3*
D18*
X69688Y11801D3*
Y12313D3*
D20*
X68013D3*
Y11644D3*
D21*
X70297Y11417D3*
Y12417D3*
D23*
X69297Y13417D3*
X68297D3*
X69297Y10417D3*
X68297D3*
D21*
X67297Y11417D3*
Y12417D3*
D19*
X68011Y12793D3*
X68523D3*
X69543Y12798D3*
X69031D3*
D26*
X69368Y11609D3*
X69171D3*
X68975D3*
X69368Y11806D3*
X69171D3*
X68975D3*
X69368Y12003D3*
X69171D3*
X68975D3*
X76617Y12417D2*
D14*
X76112D1*
X76008Y12313D1*
X75295Y11806D2*
X74813D1*
X74794Y11826D1*
X74719D1*
X74511Y11618D1*
Y11568D1*
X74787Y11293D1*
X74595Y11443D2*
X74511D1*
Y11568D1*
X74787Y11293D2*
X74508D1*
X74352Y11137D1*
X74794Y11826D2*
X74441Y11472D1*
X74333D1*
Y11643D1*
Y11644D1*
X73617Y11417D2*
X74107D1*
X74333Y11644D1*
X75295Y11609D2*
X75098D1*
X75053Y11565D1*
X75295Y12003D2*
X75078D1*
Y12041D1*
X76008Y11801D2*
X75715D1*
X75710Y11806D1*
X75688D1*
X76617Y11417D2*
X76392D1*
X76008Y11801D1*
X75247Y12518D2*
X75688Y12077D1*
Y12003D1*
X74617Y13417D2*
Y13079D1*
X74331Y12793D1*
X75491Y11806D2*
D3*
X75617Y13417D2*
Y13044D1*
X75863Y12798D1*
X75684Y12367D2*
Y12618D1*
X75863Y12798D1*
X75688Y11609D2*
Y11535D1*
X75753Y11470D1*
X75491Y12003D2*
Y12029D1*
X75186Y12334D1*
X74797D1*
X74794Y12337D1*
X74843Y12793D2*
X75346D1*
X75351Y12798D1*
X74971D1*
X74510Y12337D1*
X74794D1*
X73617Y12417D2*
X74229D1*
X74333Y12313D1*
X74770D1*
X74794Y12337D1*
X75022Y12323D2*
X74808D1*
X75299Y11293D2*
X75491D1*
Y11609D1*
D30*
Y11806D3*
X75078Y12041D3*
X75053Y11565D3*
X75753Y11470D3*
X75022Y12323D3*
X74595Y11443D3*
X74352Y11137D3*
X75247Y12518D3*
X75684Y12367D3*
D18*
X74794Y12337D3*
Y11826D3*
D19*
X75299Y11293D3*
X74787D3*
D18*
X76008Y11801D3*
Y12313D3*
D20*
X74333D3*
Y11644D3*
D21*
X76617Y11417D3*
Y12417D3*
D23*
X75617Y13417D3*
X74617D3*
X75617Y10417D3*
X74617D3*
D21*
X73617Y11417D3*
Y12417D3*
D19*
X74331Y12793D3*
X74843D3*
X75863Y12798D3*
X75351D3*
D26*
X75688Y11609D3*
X75491D3*
X75295D3*
X75688Y11806D3*
X75491D3*
X75295D3*
X75688Y12003D3*
X75491D3*
X75295D3*
X7097Y18737D2*
D14*
X6592D1*
X6488Y18633D1*
X5775Y18126D2*
X5293D1*
X5274Y18146D1*
X5199D1*
X4991Y17938D1*
Y17888D1*
X5267Y17613D1*
X5075Y17763D2*
X4991D1*
Y17888D1*
X5267Y17613D2*
X4988D1*
X4832Y17457D1*
X5274Y18146D2*
X4921Y17792D1*
X4813D1*
Y17963D1*
Y17964D1*
X4097Y17737D2*
X4587D1*
X4813Y17964D1*
X5775Y17929D2*
X5578D1*
X5533Y17885D1*
X5775Y18323D2*
X5558D1*
Y18361D1*
X6488Y18121D2*
X6195D1*
X6190Y18126D1*
X6168D1*
X7097Y17737D2*
X6872D1*
X6488Y18121D1*
X5727Y18838D2*
X6168Y18397D1*
Y18323D1*
X5097Y19737D2*
Y19399D1*
X4811Y19113D1*
X5971Y18126D2*
D3*
X6097Y19737D2*
Y19364D1*
X6343Y19118D1*
X6164Y18687D2*
Y18938D1*
X6343Y19118D1*
X6168Y17929D2*
Y17855D1*
X6233Y17790D1*
X5971Y18323D2*
Y18349D1*
X5666Y18654D1*
X5277D1*
X5274Y18657D1*
X5323Y19113D2*
X5826D1*
X5831Y19118D1*
X5451D1*
X4990Y18657D1*
X5274D1*
X4097Y18737D2*
X4709D1*
X4813Y18633D1*
X5250D1*
X5274Y18657D1*
X5502Y18643D2*
X5288D1*
X5779Y17613D2*
X5971D1*
Y17929D1*
D30*
Y18126D3*
X5558Y18361D3*
X5533Y17885D3*
X6233Y17790D3*
X5502Y18643D3*
X5075Y17763D3*
X4832Y17457D3*
X5727Y18838D3*
X6164Y18687D3*
D18*
X5274Y18657D3*
Y18146D3*
D19*
X5779Y17613D3*
X5267D3*
D18*
X6488Y18121D3*
Y18633D3*
D20*
X4813D3*
Y17964D3*
D21*
X7097Y17737D3*
Y18737D3*
D23*
X6097Y19737D3*
X5097D3*
X6097Y16737D3*
X5097D3*
D21*
X4097Y17737D3*
Y18737D3*
D19*
X4811Y19113D3*
X5323D3*
X6343Y19118D3*
X5831D3*
D26*
X6168Y17929D3*
X5971D3*
X5775D3*
X6168Y18126D3*
X5971D3*
X5775D3*
X6168Y18323D3*
X5971D3*
X5775D3*
X13417Y18737D2*
D14*
X12912D1*
X12808Y18633D1*
X12095Y18126D2*
X11613D1*
X11594Y18146D1*
X11519D1*
X11311Y17938D1*
Y17888D1*
X11587Y17613D1*
X11395Y17763D2*
X11311D1*
Y17888D1*
X11587Y17613D2*
X11308D1*
X11152Y17457D1*
X11594Y18146D2*
X11241Y17792D1*
X11133D1*
Y17963D1*
Y17964D1*
X10417Y17737D2*
X10907D1*
X11133Y17964D1*
X12095Y17929D2*
X11898D1*
X11853Y17885D1*
X12095Y18323D2*
X11878D1*
Y18361D1*
X12808Y18121D2*
X12515D1*
X12510Y18126D1*
X12488D1*
X13417Y17737D2*
X13192D1*
X12808Y18121D1*
X12047Y18838D2*
X12488Y18397D1*
Y18323D1*
X11417Y19737D2*
Y19399D1*
X11131Y19113D1*
X12291Y18126D2*
D3*
X12417Y19737D2*
Y19364D1*
X12663Y19118D1*
X12484Y18687D2*
Y18938D1*
X12663Y19118D1*
X12488Y17929D2*
Y17855D1*
X12553Y17790D1*
X12291Y18323D2*
Y18349D1*
X11986Y18654D1*
X11597D1*
X11594Y18657D1*
X11643Y19113D2*
X12146D1*
X12151Y19118D1*
X11771D1*
X11310Y18657D1*
X11594D1*
X10417Y18737D2*
X11029D1*
X11133Y18633D1*
X11570D1*
X11594Y18657D1*
X11822Y18643D2*
X11608D1*
X12099Y17613D2*
X12291D1*
Y17929D1*
D30*
Y18126D3*
X11878Y18361D3*
X11853Y17885D3*
X12553Y17790D3*
X11822Y18643D3*
X11395Y17763D3*
X11152Y17457D3*
X12047Y18838D3*
X12484Y18687D3*
D18*
X11594Y18657D3*
Y18146D3*
D19*
X12099Y17613D3*
X11587D3*
D18*
X12808Y18121D3*
Y18633D3*
D20*
X11133D3*
Y17964D3*
D21*
X13417Y17737D3*
Y18737D3*
D23*
X12417Y19737D3*
X11417D3*
X12417Y16737D3*
X11417D3*
D21*
X10417Y17737D3*
Y18737D3*
D19*
X11131Y19113D3*
X11643D3*
X12663Y19118D3*
X12151D3*
D26*
X12488Y17929D3*
X12291D3*
X12095D3*
X12488Y18126D3*
X12291D3*
X12095D3*
X12488Y18323D3*
X12291D3*
X12095D3*
X19737Y18737D2*
D14*
X19232D1*
X19128Y18633D1*
X18415Y18126D2*
X17933D1*
X17914Y18146D1*
X17839D1*
X17631Y17938D1*
Y17888D1*
X17907Y17613D1*
X17715Y17763D2*
X17631D1*
Y17888D1*
X17907Y17613D2*
X17628D1*
X17472Y17457D1*
X17914Y18146D2*
X17561Y17792D1*
X17453D1*
Y17963D1*
Y17964D1*
X16737Y17737D2*
X17227D1*
X17453Y17964D1*
X18415Y17929D2*
X18218D1*
X18173Y17885D1*
X18415Y18323D2*
X18198D1*
Y18361D1*
X19128Y18121D2*
X18835D1*
X18830Y18126D1*
X18808D1*
X19737Y17737D2*
X19512D1*
X19128Y18121D1*
X18367Y18838D2*
X18808Y18397D1*
Y18323D1*
X17737Y19737D2*
Y19399D1*
X17451Y19113D1*
X18611Y18126D2*
D3*
X18737Y19737D2*
Y19364D1*
X18983Y19118D1*
X18804Y18687D2*
Y18938D1*
X18983Y19118D1*
X18808Y17929D2*
Y17855D1*
X18873Y17790D1*
X18611Y18323D2*
Y18349D1*
X18306Y18654D1*
X17917D1*
X17914Y18657D1*
X17963Y19113D2*
X18466D1*
X18471Y19118D1*
X18091D1*
X17630Y18657D1*
X17914D1*
X16737Y18737D2*
X17349D1*
X17453Y18633D1*
X17890D1*
X17914Y18657D1*
X18142Y18643D2*
X17928D1*
X18419Y17613D2*
X18611D1*
Y17929D1*
D30*
Y18126D3*
X18198Y18361D3*
X18173Y17885D3*
X18873Y17790D3*
X18142Y18643D3*
X17715Y17763D3*
X17472Y17457D3*
X18367Y18838D3*
X18804Y18687D3*
D18*
X17914Y18657D3*
Y18146D3*
D19*
X18419Y17613D3*
X17907D3*
D18*
X19128Y18121D3*
Y18633D3*
D20*
X17453D3*
Y17964D3*
D21*
X19737Y17737D3*
Y18737D3*
D23*
X18737Y19737D3*
X17737D3*
X18737Y16737D3*
X17737D3*
D21*
X16737Y17737D3*
Y18737D3*
D19*
X17451Y19113D3*
X17963D3*
X18983Y19118D3*
X18471D3*
D26*
X18808Y17929D3*
X18611D3*
X18415D3*
X18808Y18126D3*
X18611D3*
X18415D3*
X18808Y18323D3*
X18611D3*
X18415D3*
X26057Y18737D2*
D14*
X25552D1*
X25448Y18633D1*
X24735Y18126D2*
X24253D1*
X24234Y18146D1*
X24159D1*
X23951Y17938D1*
Y17888D1*
X24227Y17613D1*
X24035Y17763D2*
X23951D1*
Y17888D1*
X24227Y17613D2*
X23948D1*
X23792Y17457D1*
X24234Y18146D2*
X23881Y17792D1*
X23773D1*
Y17963D1*
Y17964D1*
X23057Y17737D2*
X23547D1*
X23773Y17964D1*
X24735Y17929D2*
X24538D1*
X24493Y17885D1*
X24735Y18323D2*
X24518D1*
Y18361D1*
X25448Y18121D2*
X25155D1*
X25150Y18126D1*
X25128D1*
X26057Y17737D2*
X25832D1*
X25448Y18121D1*
X24687Y18838D2*
X25128Y18397D1*
Y18323D1*
X24057Y19737D2*
Y19399D1*
X23771Y19113D1*
X24931Y18126D2*
D3*
X25057Y19737D2*
Y19364D1*
X25303Y19118D1*
X25124Y18687D2*
Y18938D1*
X25303Y19118D1*
X25128Y17929D2*
Y17855D1*
X25193Y17790D1*
X24931Y18323D2*
Y18349D1*
X24626Y18654D1*
X24237D1*
X24234Y18657D1*
X24283Y19113D2*
X24786D1*
X24791Y19118D1*
X24411D1*
X23950Y18657D1*
X24234D1*
X23057Y18737D2*
X23669D1*
X23773Y18633D1*
X24210D1*
X24234Y18657D1*
X24462Y18643D2*
X24248D1*
X24739Y17613D2*
X24931D1*
Y17929D1*
D30*
Y18126D3*
X24518Y18361D3*
X24493Y17885D3*
X25193Y17790D3*
X24462Y18643D3*
X24035Y17763D3*
X23792Y17457D3*
X24687Y18838D3*
X25124Y18687D3*
D18*
X24234Y18657D3*
Y18146D3*
D19*
X24739Y17613D3*
X24227D3*
D18*
X25448Y18121D3*
Y18633D3*
D20*
X23773D3*
Y17964D3*
D21*
X26057Y17737D3*
Y18737D3*
D23*
X25057Y19737D3*
X24057D3*
X25057Y16737D3*
X24057D3*
D21*
X23057Y17737D3*
Y18737D3*
D19*
X23771Y19113D3*
X24283D3*
X25303Y19118D3*
X24791D3*
D26*
X25128Y17929D3*
X24931D3*
X24735D3*
X25128Y18126D3*
X24931D3*
X24735D3*
X25128Y18323D3*
X24931D3*
X24735D3*
X32377Y18737D2*
D14*
X31872D1*
X31768Y18633D1*
X31055Y18126D2*
X30573D1*
X30554Y18146D1*
X30479D1*
X30271Y17938D1*
Y17888D1*
X30547Y17613D1*
X30355Y17763D2*
X30271D1*
Y17888D1*
X30547Y17613D2*
X30268D1*
X30112Y17457D1*
X30554Y18146D2*
X30201Y17792D1*
X30093D1*
Y17963D1*
Y17964D1*
X29377Y17737D2*
X29867D1*
X30093Y17964D1*
X31055Y17929D2*
X30858D1*
X30813Y17885D1*
X31055Y18323D2*
X30838D1*
Y18361D1*
X31768Y18121D2*
X31475D1*
X31470Y18126D1*
X31448D1*
X32377Y17737D2*
X32152D1*
X31768Y18121D1*
X31007Y18838D2*
X31448Y18397D1*
Y18323D1*
X30377Y19737D2*
Y19399D1*
X30091Y19113D1*
X31251Y18126D2*
D3*
X31377Y19737D2*
Y19364D1*
X31623Y19118D1*
X31444Y18687D2*
Y18938D1*
X31623Y19118D1*
X31448Y17929D2*
Y17855D1*
X31513Y17790D1*
X31251Y18323D2*
Y18349D1*
X30946Y18654D1*
X30557D1*
X30554Y18657D1*
X30603Y19113D2*
X31106D1*
X31111Y19118D1*
X30731D1*
X30270Y18657D1*
X30554D1*
X29377Y18737D2*
X29989D1*
X30093Y18633D1*
X30530D1*
X30554Y18657D1*
X30782Y18643D2*
X30568D1*
X31059Y17613D2*
X31251D1*
Y17929D1*
D30*
Y18126D3*
X30838Y18361D3*
X30813Y17885D3*
X31513Y17790D3*
X30782Y18643D3*
X30355Y17763D3*
X30112Y17457D3*
X31007Y18838D3*
X31444Y18687D3*
D18*
X30554Y18657D3*
Y18146D3*
D19*
X31059Y17613D3*
X30547D3*
D18*
X31768Y18121D3*
Y18633D3*
D20*
X30093D3*
Y17964D3*
D21*
X32377Y17737D3*
Y18737D3*
D23*
X31377Y19737D3*
X30377D3*
X31377Y16737D3*
X30377D3*
D21*
X29377Y17737D3*
Y18737D3*
D19*
X30091Y19113D3*
X30603D3*
X31623Y19118D3*
X31111D3*
D26*
X31448Y17929D3*
X31251D3*
X31055D3*
X31448Y18126D3*
X31251D3*
X31055D3*
X31448Y18323D3*
X31251D3*
X31055D3*
X38697Y18737D2*
D14*
X38192D1*
X38088Y18633D1*
X37375Y18126D2*
X36893D1*
X36874Y18146D1*
X36799D1*
X36591Y17938D1*
Y17888D1*
X36867Y17613D1*
X36675Y17763D2*
X36591D1*
Y17888D1*
X36867Y17613D2*
X36588D1*
X36432Y17457D1*
X36874Y18146D2*
X36521Y17792D1*
X36413D1*
Y17963D1*
Y17964D1*
X35697Y17737D2*
X36187D1*
X36413Y17964D1*
X37375Y17929D2*
X37178D1*
X37133Y17885D1*
X37375Y18323D2*
X37158D1*
Y18361D1*
X38088Y18121D2*
X37795D1*
X37790Y18126D1*
X37768D1*
X38697Y17737D2*
X38472D1*
X38088Y18121D1*
X37327Y18838D2*
X37768Y18397D1*
Y18323D1*
X36697Y19737D2*
Y19399D1*
X36411Y19113D1*
X37571Y18126D2*
D3*
X37697Y19737D2*
Y19364D1*
X37943Y19118D1*
X37764Y18687D2*
Y18938D1*
X37943Y19118D1*
X37768Y17929D2*
Y17855D1*
X37833Y17790D1*
X37571Y18323D2*
Y18349D1*
X37266Y18654D1*
X36877D1*
X36874Y18657D1*
X36923Y19113D2*
X37426D1*
X37431Y19118D1*
X37051D1*
X36590Y18657D1*
X36874D1*
X35697Y18737D2*
X36309D1*
X36413Y18633D1*
X36850D1*
X36874Y18657D1*
X37102Y18643D2*
X36888D1*
X37379Y17613D2*
X37571D1*
Y17929D1*
D30*
Y18126D3*
X37158Y18361D3*
X37133Y17885D3*
X37833Y17790D3*
X37102Y18643D3*
X36675Y17763D3*
X36432Y17457D3*
X37327Y18838D3*
X37764Y18687D3*
D18*
X36874Y18657D3*
Y18146D3*
D19*
X37379Y17613D3*
X36867D3*
D18*
X38088Y18121D3*
Y18633D3*
D20*
X36413D3*
Y17964D3*
D21*
X38697Y17737D3*
Y18737D3*
D23*
X37697Y19737D3*
X36697D3*
X37697Y16737D3*
X36697D3*
D21*
X35697Y17737D3*
Y18737D3*
D19*
X36411Y19113D3*
X36923D3*
X37943Y19118D3*
X37431D3*
D26*
X37768Y17929D3*
X37571D3*
X37375D3*
X37768Y18126D3*
X37571D3*
X37375D3*
X37768Y18323D3*
X37571D3*
X37375D3*
X45017Y18737D2*
D14*
X44512D1*
X44408Y18633D1*
X43695Y18126D2*
X43213D1*
X43194Y18146D1*
X43119D1*
X42911Y17938D1*
Y17888D1*
X43187Y17613D1*
X42995Y17763D2*
X42911D1*
Y17888D1*
X43187Y17613D2*
X42908D1*
X42752Y17457D1*
X43194Y18146D2*
X42841Y17792D1*
X42733D1*
Y17963D1*
Y17964D1*
X42017Y17737D2*
X42507D1*
X42733Y17964D1*
X43695Y17929D2*
X43498D1*
X43453Y17885D1*
X43695Y18323D2*
X43478D1*
Y18361D1*
X44408Y18121D2*
X44115D1*
X44110Y18126D1*
X44088D1*
X45017Y17737D2*
X44792D1*
X44408Y18121D1*
X43647Y18838D2*
X44088Y18397D1*
Y18323D1*
X43017Y19737D2*
Y19399D1*
X42731Y19113D1*
X43891Y18126D2*
D3*
X44017Y19737D2*
Y19364D1*
X44263Y19118D1*
X44084Y18687D2*
Y18938D1*
X44263Y19118D1*
X44088Y17929D2*
Y17855D1*
X44153Y17790D1*
X43891Y18323D2*
Y18349D1*
X43586Y18654D1*
X43197D1*
X43194Y18657D1*
X43243Y19113D2*
X43746D1*
X43751Y19118D1*
X43371D1*
X42910Y18657D1*
X43194D1*
X42017Y18737D2*
X42629D1*
X42733Y18633D1*
X43170D1*
X43194Y18657D1*
X43422Y18643D2*
X43208D1*
X43699Y17613D2*
X43891D1*
Y17929D1*
D30*
Y18126D3*
X43478Y18361D3*
X43453Y17885D3*
X44153Y17790D3*
X43422Y18643D3*
X42995Y17763D3*
X42752Y17457D3*
X43647Y18838D3*
X44084Y18687D3*
D18*
X43194Y18657D3*
Y18146D3*
D19*
X43699Y17613D3*
X43187D3*
D18*
X44408Y18121D3*
Y18633D3*
D20*
X42733D3*
Y17964D3*
D21*
X45017Y17737D3*
Y18737D3*
D23*
X44017Y19737D3*
X43017D3*
X44017Y16737D3*
X43017D3*
D21*
X42017Y17737D3*
Y18737D3*
D19*
X42731Y19113D3*
X43243D3*
X44263Y19118D3*
X43751D3*
D26*
X44088Y17929D3*
X43891D3*
X43695D3*
X44088Y18126D3*
X43891D3*
X43695D3*
X44088Y18323D3*
X43891D3*
X43695D3*
X51337Y18737D2*
D14*
X50832D1*
X50728Y18633D1*
X50015Y18126D2*
X49533D1*
X49514Y18146D1*
X49439D1*
X49231Y17938D1*
Y17888D1*
X49507Y17613D1*
X49315Y17763D2*
X49231D1*
Y17888D1*
X49507Y17613D2*
X49228D1*
X49072Y17457D1*
X49514Y18146D2*
X49161Y17792D1*
X49053D1*
Y17963D1*
Y17964D1*
X48337Y17737D2*
X48827D1*
X49053Y17964D1*
X50015Y17929D2*
X49818D1*
X49773Y17885D1*
X50015Y18323D2*
X49798D1*
Y18361D1*
X50728Y18121D2*
X50435D1*
X50430Y18126D1*
X50408D1*
X51337Y17737D2*
X51112D1*
X50728Y18121D1*
X49967Y18838D2*
X50408Y18397D1*
Y18323D1*
X49337Y19737D2*
Y19399D1*
X49051Y19113D1*
X50211Y18126D2*
D3*
X50337Y19737D2*
Y19364D1*
X50583Y19118D1*
X50404Y18687D2*
Y18938D1*
X50583Y19118D1*
X50408Y17929D2*
Y17855D1*
X50473Y17790D1*
X50211Y18323D2*
Y18349D1*
X49906Y18654D1*
X49517D1*
X49514Y18657D1*
X49563Y19113D2*
X50066D1*
X50071Y19118D1*
X49691D1*
X49230Y18657D1*
X49514D1*
X48337Y18737D2*
X48949D1*
X49053Y18633D1*
X49490D1*
X49514Y18657D1*
X49742Y18643D2*
X49528D1*
X50019Y17613D2*
X50211D1*
Y17929D1*
D30*
Y18126D3*
X49798Y18361D3*
X49773Y17885D3*
X50473Y17790D3*
X49742Y18643D3*
X49315Y17763D3*
X49072Y17457D3*
X49967Y18838D3*
X50404Y18687D3*
D18*
X49514Y18657D3*
Y18146D3*
D19*
X50019Y17613D3*
X49507D3*
D18*
X50728Y18121D3*
Y18633D3*
D20*
X49053D3*
Y17964D3*
D21*
X51337Y17737D3*
Y18737D3*
D23*
X50337Y19737D3*
X49337D3*
X50337Y16737D3*
X49337D3*
D21*
X48337Y17737D3*
Y18737D3*
D19*
X49051Y19113D3*
X49563D3*
X50583Y19118D3*
X50071D3*
D26*
X50408Y17929D3*
X50211D3*
X50015D3*
X50408Y18126D3*
X50211D3*
X50015D3*
X50408Y18323D3*
X50211D3*
X50015D3*
X57657Y18737D2*
D14*
X57152D1*
X57048Y18633D1*
X56335Y18126D2*
X55853D1*
X55834Y18146D1*
X55759D1*
X55551Y17938D1*
Y17888D1*
X55827Y17613D1*
X55635Y17763D2*
X55551D1*
Y17888D1*
X55827Y17613D2*
X55548D1*
X55392Y17457D1*
X55834Y18146D2*
X55481Y17792D1*
X55373D1*
Y17963D1*
Y17964D1*
X54657Y17737D2*
X55147D1*
X55373Y17964D1*
X56335Y17929D2*
X56138D1*
X56093Y17885D1*
X56335Y18323D2*
X56118D1*
Y18361D1*
X57048Y18121D2*
X56755D1*
X56750Y18126D1*
X56728D1*
X57657Y17737D2*
X57432D1*
X57048Y18121D1*
X56287Y18838D2*
X56728Y18397D1*
Y18323D1*
X55657Y19737D2*
Y19399D1*
X55371Y19113D1*
X56531Y18126D2*
D3*
X56657Y19737D2*
Y19364D1*
X56903Y19118D1*
X56724Y18687D2*
Y18938D1*
X56903Y19118D1*
X56728Y17929D2*
Y17855D1*
X56793Y17790D1*
X56531Y18323D2*
Y18349D1*
X56226Y18654D1*
X55837D1*
X55834Y18657D1*
X55883Y19113D2*
X56386D1*
X56391Y19118D1*
X56011D1*
X55550Y18657D1*
X55834D1*
X54657Y18737D2*
X55269D1*
X55373Y18633D1*
X55810D1*
X55834Y18657D1*
X56062Y18643D2*
X55848D1*
X56339Y17613D2*
X56531D1*
Y17929D1*
D30*
Y18126D3*
X56118Y18361D3*
X56093Y17885D3*
X56793Y17790D3*
X56062Y18643D3*
X55635Y17763D3*
X55392Y17457D3*
X56287Y18838D3*
X56724Y18687D3*
D18*
X55834Y18657D3*
Y18146D3*
D19*
X56339Y17613D3*
X55827D3*
D18*
X57048Y18121D3*
Y18633D3*
D20*
X55373D3*
Y17964D3*
D21*
X57657Y17737D3*
Y18737D3*
D23*
X56657Y19737D3*
X55657D3*
X56657Y16737D3*
X55657D3*
D21*
X54657Y17737D3*
Y18737D3*
D19*
X55371Y19113D3*
X55883D3*
X56903Y19118D3*
X56391D3*
D26*
X56728Y17929D3*
X56531D3*
X56335D3*
X56728Y18126D3*
X56531D3*
X56335D3*
X56728Y18323D3*
X56531D3*
X56335D3*
X63977Y18737D2*
D14*
X63472D1*
X63368Y18633D1*
X62655Y18126D2*
X62173D1*
X62154Y18146D1*
X62079D1*
X61871Y17938D1*
Y17888D1*
X62147Y17613D1*
X61955Y17763D2*
X61871D1*
Y17888D1*
X62147Y17613D2*
X61868D1*
X61712Y17457D1*
X62154Y18146D2*
X61801Y17792D1*
X61693D1*
Y17963D1*
Y17964D1*
X60977Y17737D2*
X61467D1*
X61693Y17964D1*
X62655Y17929D2*
X62458D1*
X62413Y17885D1*
X62655Y18323D2*
X62438D1*
Y18361D1*
X63368Y18121D2*
X63075D1*
X63070Y18126D1*
X63048D1*
X63977Y17737D2*
X63752D1*
X63368Y18121D1*
X62607Y18838D2*
X63048Y18397D1*
Y18323D1*
X61977Y19737D2*
Y19399D1*
X61691Y19113D1*
X62851Y18126D2*
D3*
X62977Y19737D2*
Y19364D1*
X63223Y19118D1*
X63044Y18687D2*
Y18938D1*
X63223Y19118D1*
X63048Y17929D2*
Y17855D1*
X63113Y17790D1*
X62851Y18323D2*
Y18349D1*
X62546Y18654D1*
X62157D1*
X62154Y18657D1*
X62203Y19113D2*
X62706D1*
X62711Y19118D1*
X62331D1*
X61870Y18657D1*
X62154D1*
X60977Y18737D2*
X61589D1*
X61693Y18633D1*
X62130D1*
X62154Y18657D1*
X62382Y18643D2*
X62168D1*
X62659Y17613D2*
X62851D1*
Y17929D1*
D30*
Y18126D3*
X62438Y18361D3*
X62413Y17885D3*
X63113Y17790D3*
X62382Y18643D3*
X61955Y17763D3*
X61712Y17457D3*
X62607Y18838D3*
X63044Y18687D3*
D18*
X62154Y18657D3*
Y18146D3*
D19*
X62659Y17613D3*
X62147D3*
D18*
X63368Y18121D3*
Y18633D3*
D20*
X61693D3*
Y17964D3*
D21*
X63977Y17737D3*
Y18737D3*
D23*
X62977Y19737D3*
X61977D3*
X62977Y16737D3*
X61977D3*
D21*
X60977Y17737D3*
Y18737D3*
D19*
X61691Y19113D3*
X62203D3*
X63223Y19118D3*
X62711D3*
D26*
X63048Y17929D3*
X62851D3*
X62655D3*
X63048Y18126D3*
X62851D3*
X62655D3*
X63048Y18323D3*
X62851D3*
X62655D3*
X70297Y18737D2*
D14*
X69792D1*
X69688Y18633D1*
X68975Y18126D2*
X68493D1*
X68474Y18146D1*
X68399D1*
X68191Y17938D1*
Y17888D1*
X68467Y17613D1*
X68275Y17763D2*
X68191D1*
Y17888D1*
X68467Y17613D2*
X68188D1*
X68032Y17457D1*
X68474Y18146D2*
X68121Y17792D1*
X68013D1*
Y17963D1*
Y17964D1*
X67297Y17737D2*
X67787D1*
X68013Y17964D1*
X68975Y17929D2*
X68778D1*
X68733Y17885D1*
X68975Y18323D2*
X68758D1*
Y18361D1*
X69688Y18121D2*
X69395D1*
X69390Y18126D1*
X69368D1*
X70297Y17737D2*
X70072D1*
X69688Y18121D1*
X68927Y18838D2*
X69368Y18397D1*
Y18323D1*
X68297Y19737D2*
Y19399D1*
X68011Y19113D1*
X69171Y18126D2*
D3*
X69297Y19737D2*
Y19364D1*
X69543Y19118D1*
X69364Y18687D2*
Y18938D1*
X69543Y19118D1*
X69368Y17929D2*
Y17855D1*
X69433Y17790D1*
X69171Y18323D2*
Y18349D1*
X68866Y18654D1*
X68477D1*
X68474Y18657D1*
X68523Y19113D2*
X69026D1*
X69031Y19118D1*
X68651D1*
X68190Y18657D1*
X68474D1*
X67297Y18737D2*
X67909D1*
X68013Y18633D1*
X68450D1*
X68474Y18657D1*
X68702Y18643D2*
X68488D1*
X68979Y17613D2*
X69171D1*
Y17929D1*
D30*
Y18126D3*
X68758Y18361D3*
X68733Y17885D3*
X69433Y17790D3*
X68702Y18643D3*
X68275Y17763D3*
X68032Y17457D3*
X68927Y18838D3*
X69364Y18687D3*
D18*
X68474Y18657D3*
Y18146D3*
D19*
X68979Y17613D3*
X68467D3*
D18*
X69688Y18121D3*
Y18633D3*
D20*
X68013D3*
Y17964D3*
D21*
X70297Y17737D3*
Y18737D3*
D23*
X69297Y19737D3*
X68297D3*
X69297Y16737D3*
X68297D3*
D21*
X67297Y17737D3*
Y18737D3*
D19*
X68011Y19113D3*
X68523D3*
X69543Y19118D3*
X69031D3*
D26*
X69368Y17929D3*
X69171D3*
X68975D3*
X69368Y18126D3*
X69171D3*
X68975D3*
X69368Y18323D3*
X69171D3*
X68975D3*
X76617Y18737D2*
D14*
X76112D1*
X76008Y18633D1*
X75295Y18126D2*
X74813D1*
X74794Y18146D1*
X74719D1*
X74511Y17938D1*
Y17888D1*
X74787Y17613D1*
X74595Y17763D2*
X74511D1*
Y17888D1*
X74787Y17613D2*
X74508D1*
X74352Y17457D1*
X74794Y18146D2*
X74441Y17792D1*
X74333D1*
Y17963D1*
Y17964D1*
X73617Y17737D2*
X74107D1*
X74333Y17964D1*
X75295Y17929D2*
X75098D1*
X75053Y17885D1*
X75295Y18323D2*
X75078D1*
Y18361D1*
X76008Y18121D2*
X75715D1*
X75710Y18126D1*
X75688D1*
X76617Y17737D2*
X76392D1*
X76008Y18121D1*
X75247Y18838D2*
X75688Y18397D1*
Y18323D1*
X74617Y19737D2*
Y19399D1*
X74331Y19113D1*
X75491Y18126D2*
D3*
X75617Y19737D2*
Y19364D1*
X75863Y19118D1*
X75684Y18687D2*
Y18938D1*
X75863Y19118D1*
X75688Y17929D2*
Y17855D1*
X75753Y17790D1*
X75491Y18323D2*
Y18349D1*
X75186Y18654D1*
X74797D1*
X74794Y18657D1*
X74843Y19113D2*
X75346D1*
X75351Y19118D1*
X74971D1*
X74510Y18657D1*
X74794D1*
X73617Y18737D2*
X74229D1*
X74333Y18633D1*
X74770D1*
X74794Y18657D1*
X75022Y18643D2*
X74808D1*
X75299Y17613D2*
X75491D1*
Y17929D1*
D30*
Y18126D3*
X75078Y18361D3*
X75053Y17885D3*
X75753Y17790D3*
X75022Y18643D3*
X74595Y17763D3*
X74352Y17457D3*
X75247Y18838D3*
X75684Y18687D3*
D18*
X74794Y18657D3*
Y18146D3*
D19*
X75299Y17613D3*
X74787D3*
D18*
X76008Y18121D3*
Y18633D3*
D20*
X74333D3*
Y17964D3*
D21*
X76617Y17737D3*
Y18737D3*
D23*
X75617Y19737D3*
X74617D3*
X75617Y16737D3*
X74617D3*
D21*
X73617Y17737D3*
Y18737D3*
D19*
X74331Y19113D3*
X74843D3*
X75863Y19118D3*
X75351D3*
D26*
X75688Y17929D3*
X75491D3*
X75295D3*
X75688Y18126D3*
X75491D3*
X75295D3*
X75688Y18323D3*
X75491D3*
X75295D3*
X7097Y25057D2*
D14*
X6592D1*
X6488Y24953D1*
X5775Y24446D2*
X5293D1*
X5274Y24466D1*
X5199D1*
X4991Y24258D1*
Y24208D1*
X5267Y23933D1*
X5075Y24083D2*
X4991D1*
Y24208D1*
X5267Y23933D2*
X4988D1*
X4832Y23777D1*
X5274Y24466D2*
X4921Y24112D1*
X4813D1*
Y24283D1*
Y24284D1*
X4097Y24057D2*
X4587D1*
X4813Y24284D1*
X5775Y24249D2*
X5578D1*
X5533Y24205D1*
X5775Y24643D2*
X5558D1*
Y24681D1*
X6488Y24441D2*
X6195D1*
X6190Y24446D1*
X6168D1*
X7097Y24057D2*
X6872D1*
X6488Y24441D1*
X5727Y25158D2*
X6168Y24717D1*
Y24643D1*
X5097Y26057D2*
Y25719D1*
X4811Y25433D1*
X5971Y24446D2*
D3*
X6097Y26057D2*
Y25684D1*
X6343Y25438D1*
X6164Y25007D2*
Y25258D1*
X6343Y25438D1*
X6168Y24249D2*
Y24175D1*
X6233Y24110D1*
X5971Y24643D2*
Y24669D1*
X5666Y24974D1*
X5277D1*
X5274Y24977D1*
X5323Y25433D2*
X5826D1*
X5831Y25438D1*
X5451D1*
X4990Y24977D1*
X5274D1*
X4097Y25057D2*
X4709D1*
X4813Y24953D1*
X5250D1*
X5274Y24977D1*
X5502Y24963D2*
X5288D1*
X5779Y23933D2*
X5971D1*
Y24249D1*
D30*
Y24446D3*
X5558Y24681D3*
X5533Y24205D3*
X6233Y24110D3*
X5502Y24963D3*
X5075Y24083D3*
X4832Y23777D3*
X5727Y25158D3*
X6164Y25007D3*
D18*
X5274Y24977D3*
Y24466D3*
D19*
X5779Y23933D3*
X5267D3*
D18*
X6488Y24441D3*
Y24953D3*
D20*
X4813D3*
Y24284D3*
D21*
X7097Y24057D3*
Y25057D3*
D23*
X6097Y26057D3*
X5097D3*
X6097Y23057D3*
X5097D3*
D21*
X4097Y24057D3*
Y25057D3*
D19*
X4811Y25433D3*
X5323D3*
X6343Y25438D3*
X5831D3*
D26*
X6168Y24249D3*
X5971D3*
X5775D3*
X6168Y24446D3*
X5971D3*
X5775D3*
X6168Y24643D3*
X5971D3*
X5775D3*
X13417Y25057D2*
D14*
X12912D1*
X12808Y24953D1*
X12095Y24446D2*
X11613D1*
X11594Y24466D1*
X11519D1*
X11311Y24258D1*
Y24208D1*
X11587Y23933D1*
X11395Y24083D2*
X11311D1*
Y24208D1*
X11587Y23933D2*
X11308D1*
X11152Y23777D1*
X11594Y24466D2*
X11241Y24112D1*
X11133D1*
Y24283D1*
Y24284D1*
X10417Y24057D2*
X10907D1*
X11133Y24284D1*
X12095Y24249D2*
X11898D1*
X11853Y24205D1*
X12095Y24643D2*
X11878D1*
Y24681D1*
X12808Y24441D2*
X12515D1*
X12510Y24446D1*
X12488D1*
X13417Y24057D2*
X13192D1*
X12808Y24441D1*
X12047Y25158D2*
X12488Y24717D1*
Y24643D1*
X11417Y26057D2*
Y25719D1*
X11131Y25433D1*
X12291Y24446D2*
D3*
X12417Y26057D2*
Y25684D1*
X12663Y25438D1*
X12484Y25007D2*
Y25258D1*
X12663Y25438D1*
X12488Y24249D2*
Y24175D1*
X12553Y24110D1*
X12291Y24643D2*
Y24669D1*
X11986Y24974D1*
X11597D1*
X11594Y24977D1*
X11643Y25433D2*
X12146D1*
X12151Y25438D1*
X11771D1*
X11310Y24977D1*
X11594D1*
X10417Y25057D2*
X11029D1*
X11133Y24953D1*
X11570D1*
X11594Y24977D1*
X11822Y24963D2*
X11608D1*
X12099Y23933D2*
X12291D1*
Y24249D1*
D30*
Y24446D3*
X11878Y24681D3*
X11853Y24205D3*
X12553Y24110D3*
X11822Y24963D3*
X11395Y24083D3*
X11152Y23777D3*
X12047Y25158D3*
X12484Y25007D3*
D18*
X11594Y24977D3*
Y24466D3*
D19*
X12099Y23933D3*
X11587D3*
D18*
X12808Y24441D3*
Y24953D3*
D20*
X11133D3*
Y24284D3*
D21*
X13417Y24057D3*
Y25057D3*
D23*
X12417Y26057D3*
X11417D3*
X12417Y23057D3*
X11417D3*
D21*
X10417Y24057D3*
Y25057D3*
D19*
X11131Y25433D3*
X11643D3*
X12663Y25438D3*
X12151D3*
D26*
X12488Y24249D3*
X12291D3*
X12095D3*
X12488Y24446D3*
X12291D3*
X12095D3*
X12488Y24643D3*
X12291D3*
X12095D3*
X19737Y25057D2*
D14*
X19232D1*
X19128Y24953D1*
X18415Y24446D2*
X17933D1*
X17914Y24466D1*
X17839D1*
X17631Y24258D1*
Y24208D1*
X17907Y23933D1*
X17715Y24083D2*
X17631D1*
Y24208D1*
X17907Y23933D2*
X17628D1*
X17472Y23777D1*
X17914Y24466D2*
X17561Y24112D1*
X17453D1*
Y24283D1*
Y24284D1*
X16737Y24057D2*
X17227D1*
X17453Y24284D1*
X18415Y24249D2*
X18218D1*
X18173Y24205D1*
X18415Y24643D2*
X18198D1*
Y24681D1*
X19128Y24441D2*
X18835D1*
X18830Y24446D1*
X18808D1*
X19737Y24057D2*
X19512D1*
X19128Y24441D1*
X18367Y25158D2*
X18808Y24717D1*
Y24643D1*
X17737Y26057D2*
Y25719D1*
X17451Y25433D1*
X18611Y24446D2*
D3*
X18737Y26057D2*
Y25684D1*
X18983Y25438D1*
X18804Y25007D2*
Y25258D1*
X18983Y25438D1*
X18808Y24249D2*
Y24175D1*
X18873Y24110D1*
X18611Y24643D2*
Y24669D1*
X18306Y24974D1*
X17917D1*
X17914Y24977D1*
X17963Y25433D2*
X18466D1*
X18471Y25438D1*
X18091D1*
X17630Y24977D1*
X17914D1*
X16737Y25057D2*
X17349D1*
X17453Y24953D1*
X17890D1*
X17914Y24977D1*
X18142Y24963D2*
X17928D1*
X18419Y23933D2*
X18611D1*
Y24249D1*
D30*
Y24446D3*
X18198Y24681D3*
X18173Y24205D3*
X18873Y24110D3*
X18142Y24963D3*
X17715Y24083D3*
X17472Y23777D3*
X18367Y25158D3*
X18804Y25007D3*
D18*
X17914Y24977D3*
Y24466D3*
D19*
X18419Y23933D3*
X17907D3*
D18*
X19128Y24441D3*
Y24953D3*
D20*
X17453D3*
Y24284D3*
D21*
X19737Y24057D3*
Y25057D3*
D23*
X18737Y26057D3*
X17737D3*
X18737Y23057D3*
X17737D3*
D21*
X16737Y24057D3*
Y25057D3*
D19*
X17451Y25433D3*
X17963D3*
X18983Y25438D3*
X18471D3*
D26*
X18808Y24249D3*
X18611D3*
X18415D3*
X18808Y24446D3*
X18611D3*
X18415D3*
X18808Y24643D3*
X18611D3*
X18415D3*
X26057Y25057D2*
D14*
X25552D1*
X25448Y24953D1*
X24735Y24446D2*
X24253D1*
X24234Y24466D1*
X24159D1*
X23951Y24258D1*
Y24208D1*
X24227Y23933D1*
X24035Y24083D2*
X23951D1*
Y24208D1*
X24227Y23933D2*
X23948D1*
X23792Y23777D1*
X24234Y24466D2*
X23881Y24112D1*
X23773D1*
Y24283D1*
Y24284D1*
X23057Y24057D2*
X23547D1*
X23773Y24284D1*
X24735Y24249D2*
X24538D1*
X24493Y24205D1*
X24735Y24643D2*
X24518D1*
Y24681D1*
X25448Y24441D2*
X25155D1*
X25150Y24446D1*
X25128D1*
X26057Y24057D2*
X25832D1*
X25448Y24441D1*
X24687Y25158D2*
X25128Y24717D1*
Y24643D1*
X24057Y26057D2*
Y25719D1*
X23771Y25433D1*
X24931Y24446D2*
D3*
X25057Y26057D2*
Y25684D1*
X25303Y25438D1*
X25124Y25007D2*
Y25258D1*
X25303Y25438D1*
X25128Y24249D2*
Y24175D1*
X25193Y24110D1*
X24931Y24643D2*
Y24669D1*
X24626Y24974D1*
X24237D1*
X24234Y24977D1*
X24283Y25433D2*
X24786D1*
X24791Y25438D1*
X24411D1*
X23950Y24977D1*
X24234D1*
X23057Y25057D2*
X23669D1*
X23773Y24953D1*
X24210D1*
X24234Y24977D1*
X24462Y24963D2*
X24248D1*
X24739Y23933D2*
X24931D1*
Y24249D1*
D30*
Y24446D3*
X24518Y24681D3*
X24493Y24205D3*
X25193Y24110D3*
X24462Y24963D3*
X24035Y24083D3*
X23792Y23777D3*
X24687Y25158D3*
X25124Y25007D3*
D18*
X24234Y24977D3*
Y24466D3*
D19*
X24739Y23933D3*
X24227D3*
D18*
X25448Y24441D3*
Y24953D3*
D20*
X23773D3*
Y24284D3*
D21*
X26057Y24057D3*
Y25057D3*
D23*
X25057Y26057D3*
X24057D3*
X25057Y23057D3*
X24057D3*
D21*
X23057Y24057D3*
Y25057D3*
D19*
X23771Y25433D3*
X24283D3*
X25303Y25438D3*
X24791D3*
D26*
X25128Y24249D3*
X24931D3*
X24735D3*
X25128Y24446D3*
X24931D3*
X24735D3*
X25128Y24643D3*
X24931D3*
X24735D3*
X32377Y25057D2*
D14*
X31872D1*
X31768Y24953D1*
X31055Y24446D2*
X30573D1*
X30554Y24466D1*
X30479D1*
X30271Y24258D1*
Y24208D1*
X30547Y23933D1*
X30355Y24083D2*
X30271D1*
Y24208D1*
X30547Y23933D2*
X30268D1*
X30112Y23777D1*
X30554Y24466D2*
X30201Y24112D1*
X30093D1*
Y24283D1*
Y24284D1*
X29377Y24057D2*
X29867D1*
X30093Y24284D1*
X31055Y24249D2*
X30858D1*
X30813Y24205D1*
X31055Y24643D2*
X30838D1*
Y24681D1*
X31768Y24441D2*
X31475D1*
X31470Y24446D1*
X31448D1*
X32377Y24057D2*
X32152D1*
X31768Y24441D1*
X31007Y25158D2*
X31448Y24717D1*
Y24643D1*
X30377Y26057D2*
Y25719D1*
X30091Y25433D1*
X31251Y24446D2*
D3*
X31377Y26057D2*
Y25684D1*
X31623Y25438D1*
X31444Y25007D2*
Y25258D1*
X31623Y25438D1*
X31448Y24249D2*
Y24175D1*
X31513Y24110D1*
X31251Y24643D2*
Y24669D1*
X30946Y24974D1*
X30557D1*
X30554Y24977D1*
X30603Y25433D2*
X31106D1*
X31111Y25438D1*
X30731D1*
X30270Y24977D1*
X30554D1*
X29377Y25057D2*
X29989D1*
X30093Y24953D1*
X30530D1*
X30554Y24977D1*
X30782Y24963D2*
X30568D1*
X31059Y23933D2*
X31251D1*
Y24249D1*
D30*
Y24446D3*
X30838Y24681D3*
X30813Y24205D3*
X31513Y24110D3*
X30782Y24963D3*
X30355Y24083D3*
X30112Y23777D3*
X31007Y25158D3*
X31444Y25007D3*
D18*
X30554Y24977D3*
Y24466D3*
D19*
X31059Y23933D3*
X30547D3*
D18*
X31768Y24441D3*
Y24953D3*
D20*
X30093D3*
Y24284D3*
D21*
X32377Y24057D3*
Y25057D3*
D23*
X31377Y26057D3*
X30377D3*
X31377Y23057D3*
X30377D3*
D21*
X29377Y24057D3*
Y25057D3*
D19*
X30091Y25433D3*
X30603D3*
X31623Y25438D3*
X31111D3*
D26*
X31448Y24249D3*
X31251D3*
X31055D3*
X31448Y24446D3*
X31251D3*
X31055D3*
X31448Y24643D3*
X31251D3*
X31055D3*
X38697Y25057D2*
D14*
X38192D1*
X38088Y24953D1*
X37375Y24446D2*
X36893D1*
X36874Y24466D1*
X36799D1*
X36591Y24258D1*
Y24208D1*
X36867Y23933D1*
X36675Y24083D2*
X36591D1*
Y24208D1*
X36867Y23933D2*
X36588D1*
X36432Y23777D1*
X36874Y24466D2*
X36521Y24112D1*
X36413D1*
Y24283D1*
Y24284D1*
X35697Y24057D2*
X36187D1*
X36413Y24284D1*
X37375Y24249D2*
X37178D1*
X37133Y24205D1*
X37375Y24643D2*
X37158D1*
Y24681D1*
X38088Y24441D2*
X37795D1*
X37790Y24446D1*
X37768D1*
X38697Y24057D2*
X38472D1*
X38088Y24441D1*
X37327Y25158D2*
X37768Y24717D1*
Y24643D1*
X36697Y26057D2*
Y25719D1*
X36411Y25433D1*
X37571Y24446D2*
D3*
X37697Y26057D2*
Y25684D1*
X37943Y25438D1*
X37764Y25007D2*
Y25258D1*
X37943Y25438D1*
X37768Y24249D2*
Y24175D1*
X37833Y24110D1*
X37571Y24643D2*
Y24669D1*
X37266Y24974D1*
X36877D1*
X36874Y24977D1*
X36923Y25433D2*
X37426D1*
X37431Y25438D1*
X37051D1*
X36590Y24977D1*
X36874D1*
X35697Y25057D2*
X36309D1*
X36413Y24953D1*
X36850D1*
X36874Y24977D1*
X37102Y24963D2*
X36888D1*
X37379Y23933D2*
X37571D1*
Y24249D1*
D30*
Y24446D3*
X37158Y24681D3*
X37133Y24205D3*
X37833Y24110D3*
X37102Y24963D3*
X36675Y24083D3*
X36432Y23777D3*
X37327Y25158D3*
X37764Y25007D3*
D18*
X36874Y24977D3*
Y24466D3*
D19*
X37379Y23933D3*
X36867D3*
D18*
X38088Y24441D3*
Y24953D3*
D20*
X36413D3*
Y24284D3*
D21*
X38697Y24057D3*
Y25057D3*
D23*
X37697Y26057D3*
X36697D3*
X37697Y23057D3*
X36697D3*
D21*
X35697Y24057D3*
Y25057D3*
D19*
X36411Y25433D3*
X36923D3*
X37943Y25438D3*
X37431D3*
D26*
X37768Y24249D3*
X37571D3*
X37375D3*
X37768Y24446D3*
X37571D3*
X37375D3*
X37768Y24643D3*
X37571D3*
X37375D3*
X45017Y25057D2*
D14*
X44512D1*
X44408Y24953D1*
X43695Y24446D2*
X43213D1*
X43194Y24466D1*
X43119D1*
X42911Y24258D1*
Y24208D1*
X43187Y23933D1*
X42995Y24083D2*
X42911D1*
Y24208D1*
X43187Y23933D2*
X42908D1*
X42752Y23777D1*
X43194Y24466D2*
X42841Y24112D1*
X42733D1*
Y24283D1*
Y24284D1*
X42017Y24057D2*
X42507D1*
X42733Y24284D1*
X43695Y24249D2*
X43498D1*
X43453Y24205D1*
X43695Y24643D2*
X43478D1*
Y24681D1*
X44408Y24441D2*
X44115D1*
X44110Y24446D1*
X44088D1*
X45017Y24057D2*
X44792D1*
X44408Y24441D1*
X43647Y25158D2*
X44088Y24717D1*
Y24643D1*
X43017Y26057D2*
Y25719D1*
X42731Y25433D1*
X43891Y24446D2*
D3*
X44017Y26057D2*
Y25684D1*
X44263Y25438D1*
X44084Y25007D2*
Y25258D1*
X44263Y25438D1*
X44088Y24249D2*
Y24175D1*
X44153Y24110D1*
X43891Y24643D2*
Y24669D1*
X43586Y24974D1*
X43197D1*
X43194Y24977D1*
X43243Y25433D2*
X43746D1*
X43751Y25438D1*
X43371D1*
X42910Y24977D1*
X43194D1*
X42017Y25057D2*
X42629D1*
X42733Y24953D1*
X43170D1*
X43194Y24977D1*
X43422Y24963D2*
X43208D1*
X43699Y23933D2*
X43891D1*
Y24249D1*
D30*
Y24446D3*
X43478Y24681D3*
X43453Y24205D3*
X44153Y24110D3*
X43422Y24963D3*
X42995Y24083D3*
X42752Y23777D3*
X43647Y25158D3*
X44084Y25007D3*
D18*
X43194Y24977D3*
Y24466D3*
D19*
X43699Y23933D3*
X43187D3*
D18*
X44408Y24441D3*
Y24953D3*
D20*
X42733D3*
Y24284D3*
D21*
X45017Y24057D3*
Y25057D3*
D23*
X44017Y26057D3*
X43017D3*
X44017Y23057D3*
X43017D3*
D21*
X42017Y24057D3*
Y25057D3*
D19*
X42731Y25433D3*
X43243D3*
X44263Y25438D3*
X43751D3*
D26*
X44088Y24249D3*
X43891D3*
X43695D3*
X44088Y24446D3*
X43891D3*
X43695D3*
X44088Y24643D3*
X43891D3*
X43695D3*
X51337Y25057D2*
D14*
X50832D1*
X50728Y24953D1*
X50015Y24446D2*
X49533D1*
X49514Y24466D1*
X49439D1*
X49231Y24258D1*
Y24208D1*
X49507Y23933D1*
X49315Y24083D2*
X49231D1*
Y24208D1*
X49507Y23933D2*
X49228D1*
X49072Y23777D1*
X49514Y24466D2*
X49161Y24112D1*
X49053D1*
Y24283D1*
Y24284D1*
X48337Y24057D2*
X48827D1*
X49053Y24284D1*
X50015Y24249D2*
X49818D1*
X49773Y24205D1*
X50015Y24643D2*
X49798D1*
Y24681D1*
X50728Y24441D2*
X50435D1*
X50430Y24446D1*
X50408D1*
X51337Y24057D2*
X51112D1*
X50728Y24441D1*
X49967Y25158D2*
X50408Y24717D1*
Y24643D1*
X49337Y26057D2*
Y25719D1*
X49051Y25433D1*
X50211Y24446D2*
D3*
X50337Y26057D2*
Y25684D1*
X50583Y25438D1*
X50404Y25007D2*
Y25258D1*
X50583Y25438D1*
X50408Y24249D2*
Y24175D1*
X50473Y24110D1*
X50211Y24643D2*
Y24669D1*
X49906Y24974D1*
X49517D1*
X49514Y24977D1*
X49563Y25433D2*
X50066D1*
X50071Y25438D1*
X49691D1*
X49230Y24977D1*
X49514D1*
X48337Y25057D2*
X48949D1*
X49053Y24953D1*
X49490D1*
X49514Y24977D1*
X49742Y24963D2*
X49528D1*
X50019Y23933D2*
X50211D1*
Y24249D1*
D30*
Y24446D3*
X49798Y24681D3*
X49773Y24205D3*
X50473Y24110D3*
X49742Y24963D3*
X49315Y24083D3*
X49072Y23777D3*
X49967Y25158D3*
X50404Y25007D3*
D18*
X49514Y24977D3*
Y24466D3*
D19*
X50019Y23933D3*
X49507D3*
D18*
X50728Y24441D3*
Y24953D3*
D20*
X49053D3*
Y24284D3*
D21*
X51337Y24057D3*
Y25057D3*
D23*
X50337Y26057D3*
X49337D3*
X50337Y23057D3*
X49337D3*
D21*
X48337Y24057D3*
Y25057D3*
D19*
X49051Y25433D3*
X49563D3*
X50583Y25438D3*
X50071D3*
D26*
X50408Y24249D3*
X50211D3*
X50015D3*
X50408Y24446D3*
X50211D3*
X50015D3*
X50408Y24643D3*
X50211D3*
X50015D3*
X57657Y25057D2*
D14*
X57152D1*
X57048Y24953D1*
X56335Y24446D2*
X55853D1*
X55834Y24466D1*
X55759D1*
X55551Y24258D1*
Y24208D1*
X55827Y23933D1*
X55635Y24083D2*
X55551D1*
Y24208D1*
X55827Y23933D2*
X55548D1*
X55392Y23777D1*
X55834Y24466D2*
X55481Y24112D1*
X55373D1*
Y24283D1*
Y24284D1*
X54657Y24057D2*
X55147D1*
X55373Y24284D1*
X56335Y24249D2*
X56138D1*
X56093Y24205D1*
X56335Y24643D2*
X56118D1*
Y24681D1*
X57048Y24441D2*
X56755D1*
X56750Y24446D1*
X56728D1*
X57657Y24057D2*
X57432D1*
X57048Y24441D1*
X56287Y25158D2*
X56728Y24717D1*
Y24643D1*
X55657Y26057D2*
Y25719D1*
X55371Y25433D1*
X56531Y24446D2*
D3*
X56657Y26057D2*
Y25684D1*
X56903Y25438D1*
X56724Y25007D2*
Y25258D1*
X56903Y25438D1*
X56728Y24249D2*
Y24175D1*
X56793Y24110D1*
X56531Y24643D2*
Y24669D1*
X56226Y24974D1*
X55837D1*
X55834Y24977D1*
X55883Y25433D2*
X56386D1*
X56391Y25438D1*
X56011D1*
X55550Y24977D1*
X55834D1*
X54657Y25057D2*
X55269D1*
X55373Y24953D1*
X55810D1*
X55834Y24977D1*
X56062Y24963D2*
X55848D1*
X56339Y23933D2*
X56531D1*
Y24249D1*
D30*
Y24446D3*
X56118Y24681D3*
X56093Y24205D3*
X56793Y24110D3*
X56062Y24963D3*
X55635Y24083D3*
X55392Y23777D3*
X56287Y25158D3*
X56724Y25007D3*
D18*
X55834Y24977D3*
Y24466D3*
D19*
X56339Y23933D3*
X55827D3*
D18*
X57048Y24441D3*
Y24953D3*
D20*
X55373D3*
Y24284D3*
D21*
X57657Y24057D3*
Y25057D3*
D23*
X56657Y26057D3*
X55657D3*
X56657Y23057D3*
X55657D3*
D21*
X54657Y24057D3*
Y25057D3*
D19*
X55371Y25433D3*
X55883D3*
X56903Y25438D3*
X56391D3*
D26*
X56728Y24249D3*
X56531D3*
X56335D3*
X56728Y24446D3*
X56531D3*
X56335D3*
X56728Y24643D3*
X56531D3*
X56335D3*
X63977Y25057D2*
D14*
X63472D1*
X63368Y24953D1*
X62655Y24446D2*
X62173D1*
X62154Y24466D1*
X62079D1*
X61871Y24258D1*
Y24208D1*
X62147Y23933D1*
X61955Y24083D2*
X61871D1*
Y24208D1*
X62147Y23933D2*
X61868D1*
X61712Y23777D1*
X62154Y24466D2*
X61801Y24112D1*
X61693D1*
Y24283D1*
Y24284D1*
X60977Y24057D2*
X61467D1*
X61693Y24284D1*
X62655Y24249D2*
X62458D1*
X62413Y24205D1*
X62655Y24643D2*
X62438D1*
Y24681D1*
X63368Y24441D2*
X63075D1*
X63070Y24446D1*
X63048D1*
X63977Y24057D2*
X63752D1*
X63368Y24441D1*
X62607Y25158D2*
X63048Y24717D1*
Y24643D1*
X61977Y26057D2*
Y25719D1*
X61691Y25433D1*
X62851Y24446D2*
D3*
X62977Y26057D2*
Y25684D1*
X63223Y25438D1*
X63044Y25007D2*
Y25258D1*
X63223Y25438D1*
X63048Y24249D2*
Y24175D1*
X63113Y24110D1*
X62851Y24643D2*
Y24669D1*
X62546Y24974D1*
X62157D1*
X62154Y24977D1*
X62203Y25433D2*
X62706D1*
X62711Y25438D1*
X62331D1*
X61870Y24977D1*
X62154D1*
X60977Y25057D2*
X61589D1*
X61693Y24953D1*
X62130D1*
X62154Y24977D1*
X62382Y24963D2*
X62168D1*
X62659Y23933D2*
X62851D1*
Y24249D1*
D30*
Y24446D3*
X62438Y24681D3*
X62413Y24205D3*
X63113Y24110D3*
X62382Y24963D3*
X61955Y24083D3*
X61712Y23777D3*
X62607Y25158D3*
X63044Y25007D3*
D18*
X62154Y24977D3*
Y24466D3*
D19*
X62659Y23933D3*
X62147D3*
D18*
X63368Y24441D3*
Y24953D3*
D20*
X61693D3*
Y24284D3*
D21*
X63977Y24057D3*
Y25057D3*
D23*
X62977Y26057D3*
X61977D3*
X62977Y23057D3*
X61977D3*
D21*
X60977Y24057D3*
Y25057D3*
D19*
X61691Y25433D3*
X62203D3*
X63223Y25438D3*
X62711D3*
D26*
X63048Y24249D3*
X62851D3*
X62655D3*
X63048Y24446D3*
X62851D3*
X62655D3*
X63048Y24643D3*
X62851D3*
X62655D3*
X70297Y25057D2*
D14*
X69792D1*
X69688Y24953D1*
X68975Y24446D2*
X68493D1*
X68474Y24466D1*
X68399D1*
X68191Y24258D1*
Y24208D1*
X68467Y23933D1*
X68275Y24083D2*
X68191D1*
Y24208D1*
X68467Y23933D2*
X68188D1*
X68032Y23777D1*
X68474Y24466D2*
X68121Y24112D1*
X68013D1*
Y24283D1*
Y24284D1*
X67297Y24057D2*
X67787D1*
X68013Y24284D1*
X68975Y24249D2*
X68778D1*
X68733Y24205D1*
X68975Y24643D2*
X68758D1*
Y24681D1*
X69688Y24441D2*
X69395D1*
X69390Y24446D1*
X69368D1*
X70297Y24057D2*
X70072D1*
X69688Y24441D1*
X68927Y25158D2*
X69368Y24717D1*
Y24643D1*
X68297Y26057D2*
Y25719D1*
X68011Y25433D1*
X69171Y24446D2*
D3*
X69297Y26057D2*
Y25684D1*
X69543Y25438D1*
X69364Y25007D2*
Y25258D1*
X69543Y25438D1*
X69368Y24249D2*
Y24175D1*
X69433Y24110D1*
X69171Y24643D2*
Y24669D1*
X68866Y24974D1*
X68477D1*
X68474Y24977D1*
X68523Y25433D2*
X69026D1*
X69031Y25438D1*
X68651D1*
X68190Y24977D1*
X68474D1*
X67297Y25057D2*
X67909D1*
X68013Y24953D1*
X68450D1*
X68474Y24977D1*
X68702Y24963D2*
X68488D1*
X68979Y23933D2*
X69171D1*
Y24249D1*
D30*
Y24446D3*
X68758Y24681D3*
X68733Y24205D3*
X69433Y24110D3*
X68702Y24963D3*
X68275Y24083D3*
X68032Y23777D3*
X68927Y25158D3*
X69364Y25007D3*
D18*
X68474Y24977D3*
Y24466D3*
D19*
X68979Y23933D3*
X68467D3*
D18*
X69688Y24441D3*
Y24953D3*
D20*
X68013D3*
Y24284D3*
D21*
X70297Y24057D3*
Y25057D3*
D23*
X69297Y26057D3*
X68297D3*
X69297Y23057D3*
X68297D3*
D21*
X67297Y24057D3*
Y25057D3*
D19*
X68011Y25433D3*
X68523D3*
X69543Y25438D3*
X69031D3*
D26*
X69368Y24249D3*
X69171D3*
X68975D3*
X69368Y24446D3*
X69171D3*
X68975D3*
X69368Y24643D3*
X69171D3*
X68975D3*
X76617Y25057D2*
D14*
X76112D1*
X76008Y24953D1*
X75295Y24446D2*
X74813D1*
X74794Y24466D1*
X74719D1*
X74511Y24258D1*
Y24208D1*
X74787Y23933D1*
X74595Y24083D2*
X74511D1*
Y24208D1*
X74787Y23933D2*
X74508D1*
X74352Y23777D1*
X74794Y24466D2*
X74441Y24112D1*
X74333D1*
Y24283D1*
Y24284D1*
X73617Y24057D2*
X74107D1*
X74333Y24284D1*
X75295Y24249D2*
X75098D1*
X75053Y24205D1*
X75295Y24643D2*
X75078D1*
Y24681D1*
X76008Y24441D2*
X75715D1*
X75710Y24446D1*
X75688D1*
X76617Y24057D2*
X76392D1*
X76008Y24441D1*
X75247Y25158D2*
X75688Y24717D1*
Y24643D1*
X74617Y26057D2*
Y25719D1*
X74331Y25433D1*
X75491Y24446D2*
D3*
X75617Y26057D2*
Y25684D1*
X75863Y25438D1*
X75684Y25007D2*
Y25258D1*
X75863Y25438D1*
X75688Y24249D2*
Y24175D1*
X75753Y24110D1*
X75491Y24643D2*
Y24669D1*
X75186Y24974D1*
X74797D1*
X74794Y24977D1*
X74843Y25433D2*
X75346D1*
X75351Y25438D1*
X74971D1*
X74510Y24977D1*
X74794D1*
X73617Y25057D2*
X74229D1*
X74333Y24953D1*
X74770D1*
X74794Y24977D1*
X75022Y24963D2*
X74808D1*
X75299Y23933D2*
X75491D1*
Y24249D1*
D30*
Y24446D3*
X75078Y24681D3*
X75053Y24205D3*
X75753Y24110D3*
X75022Y24963D3*
X74595Y24083D3*
X74352Y23777D3*
X75247Y25158D3*
X75684Y25007D3*
D18*
X74794Y24977D3*
Y24466D3*
D19*
X75299Y23933D3*
X74787D3*
D18*
X76008Y24441D3*
Y24953D3*
D20*
X74333D3*
Y24284D3*
D21*
X76617Y24057D3*
Y25057D3*
D23*
X75617Y26057D3*
X74617D3*
X75617Y23057D3*
X74617D3*
D21*
X73617Y24057D3*
Y25057D3*
D19*
X74331Y25433D3*
X74843D3*
X75863Y25438D3*
X75351D3*
D26*
X75688Y24249D3*
X75491D3*
X75295D3*
X75688Y24446D3*
X75491D3*
X75295D3*
X75688Y24643D3*
X75491D3*
X75295D3*
X7097Y31377D2*
D14*
X6592D1*
X6488Y31273D1*
X5775Y30766D2*
X5293D1*
X5274Y30786D1*
X5199D1*
X4991Y30578D1*
Y30528D1*
X5267Y30253D1*
X5075Y30403D2*
X4991D1*
Y30528D1*
X5267Y30253D2*
X4988D1*
X4832Y30097D1*
X5274Y30786D2*
X4921Y30432D1*
X4813D1*
Y30603D1*
Y30604D1*
X4097Y30377D2*
X4587D1*
X4813Y30604D1*
X5775Y30569D2*
X5578D1*
X5533Y30525D1*
X5775Y30963D2*
X5558D1*
Y31001D1*
X6488Y30761D2*
X6195D1*
X6190Y30766D1*
X6168D1*
X7097Y30377D2*
X6872D1*
X6488Y30761D1*
X5727Y31478D2*
X6168Y31037D1*
Y30963D1*
X5097Y32377D2*
Y32039D1*
X4811Y31753D1*
X5971Y30766D2*
D3*
X6097Y32377D2*
Y32004D1*
X6343Y31758D1*
X6164Y31327D2*
Y31578D1*
X6343Y31758D1*
X6168Y30569D2*
Y30495D1*
X6233Y30430D1*
X5971Y30963D2*
Y30989D1*
X5666Y31294D1*
X5277D1*
X5274Y31297D1*
X5323Y31753D2*
X5826D1*
X5831Y31758D1*
X5451D1*
X4990Y31297D1*
X5274D1*
X4097Y31377D2*
X4709D1*
X4813Y31273D1*
X5250D1*
X5274Y31297D1*
X5502Y31283D2*
X5288D1*
X5779Y30253D2*
X5971D1*
Y30569D1*
D30*
Y30766D3*
X5558Y31001D3*
X5533Y30525D3*
X6233Y30430D3*
X5502Y31283D3*
X5075Y30403D3*
X4832Y30097D3*
X5727Y31478D3*
X6164Y31327D3*
D18*
X5274Y31297D3*
Y30786D3*
D19*
X5779Y30253D3*
X5267D3*
D18*
X6488Y30761D3*
Y31273D3*
D20*
X4813D3*
Y30604D3*
D21*
X7097Y30377D3*
Y31377D3*
D23*
X6097Y32377D3*
X5097D3*
X6097Y29377D3*
X5097D3*
D21*
X4097Y30377D3*
Y31377D3*
D19*
X4811Y31753D3*
X5323D3*
X6343Y31758D3*
X5831D3*
D26*
X6168Y30569D3*
X5971D3*
X5775D3*
X6168Y30766D3*
X5971D3*
X5775D3*
X6168Y30963D3*
X5971D3*
X5775D3*
X13417Y31377D2*
D14*
X12912D1*
X12808Y31273D1*
X12095Y30766D2*
X11613D1*
X11594Y30786D1*
X11519D1*
X11311Y30578D1*
Y30528D1*
X11587Y30253D1*
X11395Y30403D2*
X11311D1*
Y30528D1*
X11587Y30253D2*
X11308D1*
X11152Y30097D1*
X11594Y30786D2*
X11241Y30432D1*
X11133D1*
Y30603D1*
Y30604D1*
X10417Y30377D2*
X10907D1*
X11133Y30604D1*
X12095Y30569D2*
X11898D1*
X11853Y30525D1*
X12095Y30963D2*
X11878D1*
Y31001D1*
X12808Y30761D2*
X12515D1*
X12510Y30766D1*
X12488D1*
X13417Y30377D2*
X13192D1*
X12808Y30761D1*
X12047Y31478D2*
X12488Y31037D1*
Y30963D1*
X11417Y32377D2*
Y32039D1*
X11131Y31753D1*
X12291Y30766D2*
D3*
X12417Y32377D2*
Y32004D1*
X12663Y31758D1*
X12484Y31327D2*
Y31578D1*
X12663Y31758D1*
X12488Y30569D2*
Y30495D1*
X12553Y30430D1*
X12291Y30963D2*
Y30989D1*
X11986Y31294D1*
X11597D1*
X11594Y31297D1*
X11643Y31753D2*
X12146D1*
X12151Y31758D1*
X11771D1*
X11310Y31297D1*
X11594D1*
X10417Y31377D2*
X11029D1*
X11133Y31273D1*
X11570D1*
X11594Y31297D1*
X11822Y31283D2*
X11608D1*
X12099Y30253D2*
X12291D1*
Y30569D1*
D30*
Y30766D3*
X11878Y31001D3*
X11853Y30525D3*
X12553Y30430D3*
X11822Y31283D3*
X11395Y30403D3*
X11152Y30097D3*
X12047Y31478D3*
X12484Y31327D3*
D18*
X11594Y31297D3*
Y30786D3*
D19*
X12099Y30253D3*
X11587D3*
D18*
X12808Y30761D3*
Y31273D3*
D20*
X11133D3*
Y30604D3*
D21*
X13417Y30377D3*
Y31377D3*
D23*
X12417Y32377D3*
X11417D3*
X12417Y29377D3*
X11417D3*
D21*
X10417Y30377D3*
Y31377D3*
D19*
X11131Y31753D3*
X11643D3*
X12663Y31758D3*
X12151D3*
D26*
X12488Y30569D3*
X12291D3*
X12095D3*
X12488Y30766D3*
X12291D3*
X12095D3*
X12488Y30963D3*
X12291D3*
X12095D3*
X19737Y31377D2*
D14*
X19232D1*
X19128Y31273D1*
X18415Y30766D2*
X17933D1*
X17914Y30786D1*
X17839D1*
X17631Y30578D1*
Y30528D1*
X17907Y30253D1*
X17715Y30403D2*
X17631D1*
Y30528D1*
X17907Y30253D2*
X17628D1*
X17472Y30097D1*
X17914Y30786D2*
X17561Y30432D1*
X17453D1*
Y30603D1*
Y30604D1*
X16737Y30377D2*
X17227D1*
X17453Y30604D1*
X18415Y30569D2*
X18218D1*
X18173Y30525D1*
X18415Y30963D2*
X18198D1*
Y31001D1*
X19128Y30761D2*
X18835D1*
X18830Y30766D1*
X18808D1*
X19737Y30377D2*
X19512D1*
X19128Y30761D1*
X18367Y31478D2*
X18808Y31037D1*
Y30963D1*
X17737Y32377D2*
Y32039D1*
X17451Y31753D1*
X18611Y30766D2*
D3*
X18737Y32377D2*
Y32004D1*
X18983Y31758D1*
X18804Y31327D2*
Y31578D1*
X18983Y31758D1*
X18808Y30569D2*
Y30495D1*
X18873Y30430D1*
X18611Y30963D2*
Y30989D1*
X18306Y31294D1*
X17917D1*
X17914Y31297D1*
X17963Y31753D2*
X18466D1*
X18471Y31758D1*
X18091D1*
X17630Y31297D1*
X17914D1*
X16737Y31377D2*
X17349D1*
X17453Y31273D1*
X17890D1*
X17914Y31297D1*
X18142Y31283D2*
X17928D1*
X18419Y30253D2*
X18611D1*
Y30569D1*
D30*
Y30766D3*
X18198Y31001D3*
X18173Y30525D3*
X18873Y30430D3*
X18142Y31283D3*
X17715Y30403D3*
X17472Y30097D3*
X18367Y31478D3*
X18804Y31327D3*
D18*
X17914Y31297D3*
Y30786D3*
D19*
X18419Y30253D3*
X17907D3*
D18*
X19128Y30761D3*
Y31273D3*
D20*
X17453D3*
Y30604D3*
D21*
X19737Y30377D3*
Y31377D3*
D23*
X18737Y32377D3*
X17737D3*
X18737Y29377D3*
X17737D3*
D21*
X16737Y30377D3*
Y31377D3*
D19*
X17451Y31753D3*
X17963D3*
X18983Y31758D3*
X18471D3*
D26*
X18808Y30569D3*
X18611D3*
X18415D3*
X18808Y30766D3*
X18611D3*
X18415D3*
X18808Y30963D3*
X18611D3*
X18415D3*
X26057Y31377D2*
D14*
X25552D1*
X25448Y31273D1*
X24735Y30766D2*
X24253D1*
X24234Y30786D1*
X24159D1*
X23951Y30578D1*
Y30528D1*
X24227Y30253D1*
X24035Y30403D2*
X23951D1*
Y30528D1*
X24227Y30253D2*
X23948D1*
X23792Y30097D1*
X24234Y30786D2*
X23881Y30432D1*
X23773D1*
Y30603D1*
Y30604D1*
X23057Y30377D2*
X23547D1*
X23773Y30604D1*
X24735Y30569D2*
X24538D1*
X24493Y30525D1*
X24735Y30963D2*
X24518D1*
Y31001D1*
X25448Y30761D2*
X25155D1*
X25150Y30766D1*
X25128D1*
X26057Y30377D2*
X25832D1*
X25448Y30761D1*
X24687Y31478D2*
X25128Y31037D1*
Y30963D1*
X24057Y32377D2*
Y32039D1*
X23771Y31753D1*
X24931Y30766D2*
D3*
X25057Y32377D2*
Y32004D1*
X25303Y31758D1*
X25124Y31327D2*
Y31578D1*
X25303Y31758D1*
X25128Y30569D2*
Y30495D1*
X25193Y30430D1*
X24931Y30963D2*
Y30989D1*
X24626Y31294D1*
X24237D1*
X24234Y31297D1*
X24283Y31753D2*
X24786D1*
X24791Y31758D1*
X24411D1*
X23950Y31297D1*
X24234D1*
X23057Y31377D2*
X23669D1*
X23773Y31273D1*
X24210D1*
X24234Y31297D1*
X24462Y31283D2*
X24248D1*
X24739Y30253D2*
X24931D1*
Y30569D1*
D30*
Y30766D3*
X24518Y31001D3*
X24493Y30525D3*
X25193Y30430D3*
X24462Y31283D3*
X24035Y30403D3*
X23792Y30097D3*
X24687Y31478D3*
X25124Y31327D3*
D18*
X24234Y31297D3*
Y30786D3*
D19*
X24739Y30253D3*
X24227D3*
D18*
X25448Y30761D3*
Y31273D3*
D20*
X23773D3*
Y30604D3*
D21*
X26057Y30377D3*
Y31377D3*
D23*
X25057Y32377D3*
X24057D3*
X25057Y29377D3*
X24057D3*
D21*
X23057Y30377D3*
Y31377D3*
D19*
X23771Y31753D3*
X24283D3*
X25303Y31758D3*
X24791D3*
D26*
X25128Y30569D3*
X24931D3*
X24735D3*
X25128Y30766D3*
X24931D3*
X24735D3*
X25128Y30963D3*
X24931D3*
X24735D3*
X32377Y31377D2*
D14*
X31872D1*
X31768Y31273D1*
X31055Y30766D2*
X30573D1*
X30554Y30786D1*
X30479D1*
X30271Y30578D1*
Y30528D1*
X30547Y30253D1*
X30355Y30403D2*
X30271D1*
Y30528D1*
X30547Y30253D2*
X30268D1*
X30112Y30097D1*
X30554Y30786D2*
X30201Y30432D1*
X30093D1*
Y30603D1*
Y30604D1*
X29377Y30377D2*
X29867D1*
X30093Y30604D1*
X31055Y30569D2*
X30858D1*
X30813Y30525D1*
X31055Y30963D2*
X30838D1*
Y31001D1*
X31768Y30761D2*
X31475D1*
X31470Y30766D1*
X31448D1*
X32377Y30377D2*
X32152D1*
X31768Y30761D1*
X31007Y31478D2*
X31448Y31037D1*
Y30963D1*
X30377Y32377D2*
Y32039D1*
X30091Y31753D1*
X31251Y30766D2*
D3*
X31377Y32377D2*
Y32004D1*
X31623Y31758D1*
X31444Y31327D2*
Y31578D1*
X31623Y31758D1*
X31448Y30569D2*
Y30495D1*
X31513Y30430D1*
X31251Y30963D2*
Y30989D1*
X30946Y31294D1*
X30557D1*
X30554Y31297D1*
X30603Y31753D2*
X31106D1*
X31111Y31758D1*
X30731D1*
X30270Y31297D1*
X30554D1*
X29377Y31377D2*
X29989D1*
X30093Y31273D1*
X30530D1*
X30554Y31297D1*
X30782Y31283D2*
X30568D1*
X31059Y30253D2*
X31251D1*
Y30569D1*
D30*
Y30766D3*
X30838Y31001D3*
X30813Y30525D3*
X31513Y30430D3*
X30782Y31283D3*
X30355Y30403D3*
X30112Y30097D3*
X31007Y31478D3*
X31444Y31327D3*
D18*
X30554Y31297D3*
Y30786D3*
D19*
X31059Y30253D3*
X30547D3*
D18*
X31768Y30761D3*
Y31273D3*
D20*
X30093D3*
Y30604D3*
D21*
X32377Y30377D3*
Y31377D3*
D23*
X31377Y32377D3*
X30377D3*
X31377Y29377D3*
X30377D3*
D21*
X29377Y30377D3*
Y31377D3*
D19*
X30091Y31753D3*
X30603D3*
X31623Y31758D3*
X31111D3*
D26*
X31448Y30569D3*
X31251D3*
X31055D3*
X31448Y30766D3*
X31251D3*
X31055D3*
X31448Y30963D3*
X31251D3*
X31055D3*
X38697Y31377D2*
D14*
X38192D1*
X38088Y31273D1*
X37375Y30766D2*
X36893D1*
X36874Y30786D1*
X36799D1*
X36591Y30578D1*
Y30528D1*
X36867Y30253D1*
X36675Y30403D2*
X36591D1*
Y30528D1*
X36867Y30253D2*
X36588D1*
X36432Y30097D1*
X36874Y30786D2*
X36521Y30432D1*
X36413D1*
Y30603D1*
Y30604D1*
X35697Y30377D2*
X36187D1*
X36413Y30604D1*
X37375Y30569D2*
X37178D1*
X37133Y30525D1*
X37375Y30963D2*
X37158D1*
Y31001D1*
X38088Y30761D2*
X37795D1*
X37790Y30766D1*
X37768D1*
X38697Y30377D2*
X38472D1*
X38088Y30761D1*
X37327Y31478D2*
X37768Y31037D1*
Y30963D1*
X36697Y32377D2*
Y32039D1*
X36411Y31753D1*
X37571Y30766D2*
D3*
X37697Y32377D2*
Y32004D1*
X37943Y31758D1*
X37764Y31327D2*
Y31578D1*
X37943Y31758D1*
X37768Y30569D2*
Y30495D1*
X37833Y30430D1*
X37571Y30963D2*
Y30989D1*
X37266Y31294D1*
X36877D1*
X36874Y31297D1*
X36923Y31753D2*
X37426D1*
X37431Y31758D1*
X37051D1*
X36590Y31297D1*
X36874D1*
X35697Y31377D2*
X36309D1*
X36413Y31273D1*
X36850D1*
X36874Y31297D1*
X37102Y31283D2*
X36888D1*
X37379Y30253D2*
X37571D1*
Y30569D1*
D30*
Y30766D3*
X37158Y31001D3*
X37133Y30525D3*
X37833Y30430D3*
X37102Y31283D3*
X36675Y30403D3*
X36432Y30097D3*
X37327Y31478D3*
X37764Y31327D3*
D18*
X36874Y31297D3*
Y30786D3*
D19*
X37379Y30253D3*
X36867D3*
D18*
X38088Y30761D3*
Y31273D3*
D20*
X36413D3*
Y30604D3*
D21*
X38697Y30377D3*
Y31377D3*
D23*
X37697Y32377D3*
X36697D3*
X37697Y29377D3*
X36697D3*
D21*
X35697Y30377D3*
Y31377D3*
D19*
X36411Y31753D3*
X36923D3*
X37943Y31758D3*
X37431D3*
D26*
X37768Y30569D3*
X37571D3*
X37375D3*
X37768Y30766D3*
X37571D3*
X37375D3*
X37768Y30963D3*
X37571D3*
X37375D3*
X45017Y31377D2*
D14*
X44512D1*
X44408Y31273D1*
X43695Y30766D2*
X43213D1*
X43194Y30786D1*
X43119D1*
X42911Y30578D1*
Y30528D1*
X43187Y30253D1*
X42995Y30403D2*
X42911D1*
Y30528D1*
X43187Y30253D2*
X42908D1*
X42752Y30097D1*
X43194Y30786D2*
X42841Y30432D1*
X42733D1*
Y30603D1*
Y30604D1*
X42017Y30377D2*
X42507D1*
X42733Y30604D1*
X43695Y30569D2*
X43498D1*
X43453Y30525D1*
X43695Y30963D2*
X43478D1*
Y31001D1*
X44408Y30761D2*
X44115D1*
X44110Y30766D1*
X44088D1*
X45017Y30377D2*
X44792D1*
X44408Y30761D1*
X43647Y31478D2*
X44088Y31037D1*
Y30963D1*
X43017Y32377D2*
Y32039D1*
X42731Y31753D1*
X43891Y30766D2*
D3*
X44017Y32377D2*
Y32004D1*
X44263Y31758D1*
X44084Y31327D2*
Y31578D1*
X44263Y31758D1*
X44088Y30569D2*
Y30495D1*
X44153Y30430D1*
X43891Y30963D2*
Y30989D1*
X43586Y31294D1*
X43197D1*
X43194Y31297D1*
X43243Y31753D2*
X43746D1*
X43751Y31758D1*
X43371D1*
X42910Y31297D1*
X43194D1*
X42017Y31377D2*
X42629D1*
X42733Y31273D1*
X43170D1*
X43194Y31297D1*
X43422Y31283D2*
X43208D1*
X43699Y30253D2*
X43891D1*
Y30569D1*
D30*
Y30766D3*
X43478Y31001D3*
X43453Y30525D3*
X44153Y30430D3*
X43422Y31283D3*
X42995Y30403D3*
X42752Y30097D3*
X43647Y31478D3*
X44084Y31327D3*
D18*
X43194Y31297D3*
Y30786D3*
D19*
X43699Y30253D3*
X43187D3*
D18*
X44408Y30761D3*
Y31273D3*
D20*
X42733D3*
Y30604D3*
D21*
X45017Y30377D3*
Y31377D3*
D23*
X44017Y32377D3*
X43017D3*
X44017Y29377D3*
X43017D3*
D21*
X42017Y30377D3*
Y31377D3*
D19*
X42731Y31753D3*
X43243D3*
X44263Y31758D3*
X43751D3*
D26*
X44088Y30569D3*
X43891D3*
X43695D3*
X44088Y30766D3*
X43891D3*
X43695D3*
X44088Y30963D3*
X43891D3*
X43695D3*
X51337Y31377D2*
D14*
X50832D1*
X50728Y31273D1*
X50015Y30766D2*
X49533D1*
X49514Y30786D1*
X49439D1*
X49231Y30578D1*
Y30528D1*
X49507Y30253D1*
X49315Y30403D2*
X49231D1*
Y30528D1*
X49507Y30253D2*
X49228D1*
X49072Y30097D1*
X49514Y30786D2*
X49161Y30432D1*
X49053D1*
Y30603D1*
Y30604D1*
X48337Y30377D2*
X48827D1*
X49053Y30604D1*
X50015Y30569D2*
X49818D1*
X49773Y30525D1*
X50015Y30963D2*
X49798D1*
Y31001D1*
X50728Y30761D2*
X50435D1*
X50430Y30766D1*
X50408D1*
X51337Y30377D2*
X51112D1*
X50728Y30761D1*
X49967Y31478D2*
X50408Y31037D1*
Y30963D1*
X49337Y32377D2*
Y32039D1*
X49051Y31753D1*
X50211Y30766D2*
D3*
X50337Y32377D2*
Y32004D1*
X50583Y31758D1*
X50404Y31327D2*
Y31578D1*
X50583Y31758D1*
X50408Y30569D2*
Y30495D1*
X50473Y30430D1*
X50211Y30963D2*
Y30989D1*
X49906Y31294D1*
X49517D1*
X49514Y31297D1*
X49563Y31753D2*
X50066D1*
X50071Y31758D1*
X49691D1*
X49230Y31297D1*
X49514D1*
X48337Y31377D2*
X48949D1*
X49053Y31273D1*
X49490D1*
X49514Y31297D1*
X49742Y31283D2*
X49528D1*
X50019Y30253D2*
X50211D1*
Y30569D1*
D30*
Y30766D3*
X49798Y31001D3*
X49773Y30525D3*
X50473Y30430D3*
X49742Y31283D3*
X49315Y30403D3*
X49072Y30097D3*
X49967Y31478D3*
X50404Y31327D3*
D18*
X49514Y31297D3*
Y30786D3*
D19*
X50019Y30253D3*
X49507D3*
D18*
X50728Y30761D3*
Y31273D3*
D20*
X49053D3*
Y30604D3*
D21*
X51337Y30377D3*
Y31377D3*
D23*
X50337Y32377D3*
X49337D3*
X50337Y29377D3*
X49337D3*
D21*
X48337Y30377D3*
Y31377D3*
D19*
X49051Y31753D3*
X49563D3*
X50583Y31758D3*
X50071D3*
D26*
X50408Y30569D3*
X50211D3*
X50015D3*
X50408Y30766D3*
X50211D3*
X50015D3*
X50408Y30963D3*
X50211D3*
X50015D3*
X57657Y31377D2*
D14*
X57152D1*
X57048Y31273D1*
X56335Y30766D2*
X55853D1*
X55834Y30786D1*
X55759D1*
X55551Y30578D1*
Y30528D1*
X55827Y30253D1*
X55635Y30403D2*
X55551D1*
Y30528D1*
X55827Y30253D2*
X55548D1*
X55392Y30097D1*
X55834Y30786D2*
X55481Y30432D1*
X55373D1*
Y30603D1*
Y30604D1*
X54657Y30377D2*
X55147D1*
X55373Y30604D1*
X56335Y30569D2*
X56138D1*
X56093Y30525D1*
X56335Y30963D2*
X56118D1*
Y31001D1*
X57048Y30761D2*
X56755D1*
X56750Y30766D1*
X56728D1*
X57657Y30377D2*
X57432D1*
X57048Y30761D1*
X56287Y31478D2*
X56728Y31037D1*
Y30963D1*
X55657Y32377D2*
Y32039D1*
X55371Y31753D1*
X56531Y30766D2*
D3*
X56657Y32377D2*
Y32004D1*
X56903Y31758D1*
X56724Y31327D2*
Y31578D1*
X56903Y31758D1*
X56728Y30569D2*
Y30495D1*
X56793Y30430D1*
X56531Y30963D2*
Y30989D1*
X56226Y31294D1*
X55837D1*
X55834Y31297D1*
X55883Y31753D2*
X56386D1*
X56391Y31758D1*
X56011D1*
X55550Y31297D1*
X55834D1*
X54657Y31377D2*
X55269D1*
X55373Y31273D1*
X55810D1*
X55834Y31297D1*
X56062Y31283D2*
X55848D1*
X56339Y30253D2*
X56531D1*
Y30569D1*
D30*
Y30766D3*
X56118Y31001D3*
X56093Y30525D3*
X56793Y30430D3*
X56062Y31283D3*
X55635Y30403D3*
X55392Y30097D3*
X56287Y31478D3*
X56724Y31327D3*
D18*
X55834Y31297D3*
Y30786D3*
D19*
X56339Y30253D3*
X55827D3*
D18*
X57048Y30761D3*
Y31273D3*
D20*
X55373D3*
Y30604D3*
D21*
X57657Y30377D3*
Y31377D3*
D23*
X56657Y32377D3*
X55657D3*
X56657Y29377D3*
X55657D3*
D21*
X54657Y30377D3*
Y31377D3*
D19*
X55371Y31753D3*
X55883D3*
X56903Y31758D3*
X56391D3*
D26*
X56728Y30569D3*
X56531D3*
X56335D3*
X56728Y30766D3*
X56531D3*
X56335D3*
X56728Y30963D3*
X56531D3*
X56335D3*
X63977Y31377D2*
D14*
X63472D1*
X63368Y31273D1*
X62655Y30766D2*
X62173D1*
X62154Y30786D1*
X62079D1*
X61871Y30578D1*
Y30528D1*
X62147Y30253D1*
X61955Y30403D2*
X61871D1*
Y30528D1*
X62147Y30253D2*
X61868D1*
X61712Y30097D1*
X62154Y30786D2*
X61801Y30432D1*
X61693D1*
Y30603D1*
Y30604D1*
X60977Y30377D2*
X61467D1*
X61693Y30604D1*
X62655Y30569D2*
X62458D1*
X62413Y30525D1*
X62655Y30963D2*
X62438D1*
Y31001D1*
X63368Y30761D2*
X63075D1*
X63070Y30766D1*
X63048D1*
X63977Y30377D2*
X63752D1*
X63368Y30761D1*
X62607Y31478D2*
X63048Y31037D1*
Y30963D1*
X61977Y32377D2*
Y32039D1*
X61691Y31753D1*
X62851Y30766D2*
D3*
X62977Y32377D2*
Y32004D1*
X63223Y31758D1*
X63044Y31327D2*
Y31578D1*
X63223Y31758D1*
X63048Y30569D2*
Y30495D1*
X63113Y30430D1*
X62851Y30963D2*
Y30989D1*
X62546Y31294D1*
X62157D1*
X62154Y31297D1*
X62203Y31753D2*
X62706D1*
X62711Y31758D1*
X62331D1*
X61870Y31297D1*
X62154D1*
X60977Y31377D2*
X61589D1*
X61693Y31273D1*
X62130D1*
X62154Y31297D1*
X62382Y31283D2*
X62168D1*
X62659Y30253D2*
X62851D1*
Y30569D1*
D30*
Y30766D3*
X62438Y31001D3*
X62413Y30525D3*
X63113Y30430D3*
X62382Y31283D3*
X61955Y30403D3*
X61712Y30097D3*
X62607Y31478D3*
X63044Y31327D3*
D18*
X62154Y31297D3*
Y30786D3*
D19*
X62659Y30253D3*
X62147D3*
D18*
X63368Y30761D3*
Y31273D3*
D20*
X61693D3*
Y30604D3*
D21*
X63977Y30377D3*
Y31377D3*
D23*
X62977Y32377D3*
X61977D3*
X62977Y29377D3*
X61977D3*
D21*
X60977Y30377D3*
Y31377D3*
D19*
X61691Y31753D3*
X62203D3*
X63223Y31758D3*
X62711D3*
D26*
X63048Y30569D3*
X62851D3*
X62655D3*
X63048Y30766D3*
X62851D3*
X62655D3*
X63048Y30963D3*
X62851D3*
X62655D3*
X70297Y31377D2*
D14*
X69792D1*
X69688Y31273D1*
X68975Y30766D2*
X68493D1*
X68474Y30786D1*
X68399D1*
X68191Y30578D1*
Y30528D1*
X68467Y30253D1*
X68275Y30403D2*
X68191D1*
Y30528D1*
X68467Y30253D2*
X68188D1*
X68032Y30097D1*
X68474Y30786D2*
X68121Y30432D1*
X68013D1*
Y30603D1*
Y30604D1*
X67297Y30377D2*
X67787D1*
X68013Y30604D1*
X68975Y30569D2*
X68778D1*
X68733Y30525D1*
X68975Y30963D2*
X68758D1*
Y31001D1*
X69688Y30761D2*
X69395D1*
X69390Y30766D1*
X69368D1*
X70297Y30377D2*
X70072D1*
X69688Y30761D1*
X68927Y31478D2*
X69368Y31037D1*
Y30963D1*
X68297Y32377D2*
Y32039D1*
X68011Y31753D1*
X69171Y30766D2*
D3*
X69297Y32377D2*
Y32004D1*
X69543Y31758D1*
X69364Y31327D2*
Y31578D1*
X69543Y31758D1*
X69368Y30569D2*
Y30495D1*
X69433Y30430D1*
X69171Y30963D2*
Y30989D1*
X68866Y31294D1*
X68477D1*
X68474Y31297D1*
X68523Y31753D2*
X69026D1*
X69031Y31758D1*
X68651D1*
X68190Y31297D1*
X68474D1*
X67297Y31377D2*
X67909D1*
X68013Y31273D1*
X68450D1*
X68474Y31297D1*
X68702Y31283D2*
X68488D1*
X68979Y30253D2*
X69171D1*
Y30569D1*
D30*
Y30766D3*
X68758Y31001D3*
X68733Y30525D3*
X69433Y30430D3*
X68702Y31283D3*
X68275Y30403D3*
X68032Y30097D3*
X68927Y31478D3*
X69364Y31327D3*
D18*
X68474Y31297D3*
Y30786D3*
D19*
X68979Y30253D3*
X68467D3*
D18*
X69688Y30761D3*
Y31273D3*
D20*
X68013D3*
Y30604D3*
D21*
X70297Y30377D3*
Y31377D3*
D23*
X69297Y32377D3*
X68297D3*
X69297Y29377D3*
X68297D3*
D21*
X67297Y30377D3*
Y31377D3*
D19*
X68011Y31753D3*
X68523D3*
X69543Y31758D3*
X69031D3*
D26*
X69368Y30569D3*
X69171D3*
X68975D3*
X69368Y30766D3*
X69171D3*
X68975D3*
X69368Y30963D3*
X69171D3*
X68975D3*
X76617Y31377D2*
D14*
X76112D1*
X76008Y31273D1*
X75295Y30766D2*
X74813D1*
X74794Y30786D1*
X74719D1*
X74511Y30578D1*
Y30528D1*
X74787Y30253D1*
X74595Y30403D2*
X74511D1*
Y30528D1*
X74787Y30253D2*
X74508D1*
X74352Y30097D1*
X74794Y30786D2*
X74441Y30432D1*
X74333D1*
Y30603D1*
Y30604D1*
X73617Y30377D2*
X74107D1*
X74333Y30604D1*
X75295Y30569D2*
X75098D1*
X75053Y30525D1*
X75295Y30963D2*
X75078D1*
Y31001D1*
X76008Y30761D2*
X75715D1*
X75710Y30766D1*
X75688D1*
X76617Y30377D2*
X76392D1*
X76008Y30761D1*
X75247Y31478D2*
X75688Y31037D1*
Y30963D1*
X74617Y32377D2*
Y32039D1*
X74331Y31753D1*
X75491Y30766D2*
D3*
X75617Y32377D2*
Y32004D1*
X75863Y31758D1*
X75684Y31327D2*
Y31578D1*
X75863Y31758D1*
X75688Y30569D2*
Y30495D1*
X75753Y30430D1*
X75491Y30963D2*
Y30989D1*
X75186Y31294D1*
X74797D1*
X74794Y31297D1*
X74843Y31753D2*
X75346D1*
X75351Y31758D1*
X74971D1*
X74510Y31297D1*
X74794D1*
X73617Y31377D2*
X74229D1*
X74333Y31273D1*
X74770D1*
X74794Y31297D1*
X75022Y31283D2*
X74808D1*
X75299Y30253D2*
X75491D1*
Y30569D1*
D30*
Y30766D3*
X75078Y31001D3*
X75053Y30525D3*
X75753Y30430D3*
X75022Y31283D3*
X74595Y30403D3*
X74352Y30097D3*
X75247Y31478D3*
X75684Y31327D3*
D18*
X74794Y31297D3*
Y30786D3*
D19*
X75299Y30253D3*
X74787D3*
D18*
X76008Y30761D3*
Y31273D3*
D20*
X74333D3*
Y30604D3*
D21*
X76617Y30377D3*
Y31377D3*
D23*
X75617Y32377D3*
X74617D3*
X75617Y29377D3*
X74617D3*
D21*
X73617Y30377D3*
Y31377D3*
D19*
X74331Y31753D3*
X74843D3*
X75863Y31758D3*
X75351D3*
D26*
X75688Y30569D3*
X75491D3*
X75295D3*
X75688Y30766D3*
X75491D3*
X75295D3*
X75688Y30963D3*
X75491D3*
X75295D3*
X7097Y37697D2*
D14*
X6592D1*
X6488Y37593D1*
X5775Y37086D2*
X5293D1*
X5274Y37106D1*
X5199D1*
X4991Y36898D1*
Y36848D1*
X5267Y36573D1*
X5075Y36723D2*
X4991D1*
Y36848D1*
X5267Y36573D2*
X4988D1*
X4832Y36417D1*
X5274Y37106D2*
X4921Y36752D1*
X4813D1*
Y36923D1*
Y36924D1*
X4097Y36697D2*
X4587D1*
X4813Y36924D1*
X5775Y36889D2*
X5578D1*
X5533Y36845D1*
X5775Y37283D2*
X5558D1*
Y37321D1*
X6488Y37081D2*
X6195D1*
X6190Y37086D1*
X6168D1*
X7097Y36697D2*
X6872D1*
X6488Y37081D1*
X5727Y37798D2*
X6168Y37357D1*
Y37283D1*
X5097Y38697D2*
Y38359D1*
X4811Y38073D1*
X5971Y37086D2*
D3*
X6097Y38697D2*
Y38324D1*
X6343Y38078D1*
X6164Y37647D2*
Y37898D1*
X6343Y38078D1*
X6168Y36889D2*
Y36815D1*
X6233Y36750D1*
X5971Y37283D2*
Y37309D1*
X5666Y37614D1*
X5277D1*
X5274Y37617D1*
X5323Y38073D2*
X5826D1*
X5831Y38078D1*
X5451D1*
X4990Y37617D1*
X5274D1*
X4097Y37697D2*
X4709D1*
X4813Y37593D1*
X5250D1*
X5274Y37617D1*
X5502Y37603D2*
X5288D1*
X5779Y36573D2*
X5971D1*
Y36889D1*
D30*
Y37086D3*
X5558Y37321D3*
X5533Y36845D3*
X6233Y36750D3*
X5502Y37603D3*
X5075Y36723D3*
X4832Y36417D3*
X5727Y37798D3*
X6164Y37647D3*
D18*
X5274Y37617D3*
Y37106D3*
D19*
X5779Y36573D3*
X5267D3*
D18*
X6488Y37081D3*
Y37593D3*
D20*
X4813D3*
Y36924D3*
D21*
X7097Y36697D3*
Y37697D3*
D23*
X6097Y38697D3*
X5097D3*
X6097Y35697D3*
X5097D3*
D21*
X4097Y36697D3*
Y37697D3*
D19*
X4811Y38073D3*
X5323D3*
X6343Y38078D3*
X5831D3*
D26*
X6168Y36889D3*
X5971D3*
X5775D3*
X6168Y37086D3*
X5971D3*
X5775D3*
X6168Y37283D3*
X5971D3*
X5775D3*
X13417Y37697D2*
D14*
X12912D1*
X12808Y37593D1*
X12095Y37086D2*
X11613D1*
X11594Y37106D1*
X11519D1*
X11311Y36898D1*
Y36848D1*
X11587Y36573D1*
X11395Y36723D2*
X11311D1*
Y36848D1*
X11587Y36573D2*
X11308D1*
X11152Y36417D1*
X11594Y37106D2*
X11241Y36752D1*
X11133D1*
Y36923D1*
Y36924D1*
X10417Y36697D2*
X10907D1*
X11133Y36924D1*
X12095Y36889D2*
X11898D1*
X11853Y36845D1*
X12095Y37283D2*
X11878D1*
Y37321D1*
X12808Y37081D2*
X12515D1*
X12510Y37086D1*
X12488D1*
X13417Y36697D2*
X13192D1*
X12808Y37081D1*
X12047Y37798D2*
X12488Y37357D1*
Y37283D1*
X11417Y38697D2*
Y38359D1*
X11131Y38073D1*
X12291Y37086D2*
D3*
X12417Y38697D2*
Y38324D1*
X12663Y38078D1*
X12484Y37647D2*
Y37898D1*
X12663Y38078D1*
X12488Y36889D2*
Y36815D1*
X12553Y36750D1*
X12291Y37283D2*
Y37309D1*
X11986Y37614D1*
X11597D1*
X11594Y37617D1*
X11643Y38073D2*
X12146D1*
X12151Y38078D1*
X11771D1*
X11310Y37617D1*
X11594D1*
X10417Y37697D2*
X11029D1*
X11133Y37593D1*
X11570D1*
X11594Y37617D1*
X11822Y37603D2*
X11608D1*
X12099Y36573D2*
X12291D1*
Y36889D1*
D30*
Y37086D3*
X11878Y37321D3*
X11853Y36845D3*
X12553Y36750D3*
X11822Y37603D3*
X11395Y36723D3*
X11152Y36417D3*
X12047Y37798D3*
X12484Y37647D3*
D18*
X11594Y37617D3*
Y37106D3*
D19*
X12099Y36573D3*
X11587D3*
D18*
X12808Y37081D3*
Y37593D3*
D20*
X11133D3*
Y36924D3*
D21*
X13417Y36697D3*
Y37697D3*
D23*
X12417Y38697D3*
X11417D3*
X12417Y35697D3*
X11417D3*
D21*
X10417Y36697D3*
Y37697D3*
D19*
X11131Y38073D3*
X11643D3*
X12663Y38078D3*
X12151D3*
D26*
X12488Y36889D3*
X12291D3*
X12095D3*
X12488Y37086D3*
X12291D3*
X12095D3*
X12488Y37283D3*
X12291D3*
X12095D3*
X19737Y37697D2*
D14*
X19232D1*
X19128Y37593D1*
X18415Y37086D2*
X17933D1*
X17914Y37106D1*
X17839D1*
X17631Y36898D1*
Y36848D1*
X17907Y36573D1*
X17715Y36723D2*
X17631D1*
Y36848D1*
X17907Y36573D2*
X17628D1*
X17472Y36417D1*
X17914Y37106D2*
X17561Y36752D1*
X17453D1*
Y36923D1*
Y36924D1*
X16737Y36697D2*
X17227D1*
X17453Y36924D1*
X18415Y36889D2*
X18218D1*
X18173Y36845D1*
X18415Y37283D2*
X18198D1*
Y37321D1*
X19128Y37081D2*
X18835D1*
X18830Y37086D1*
X18808D1*
X19737Y36697D2*
X19512D1*
X19128Y37081D1*
X18367Y37798D2*
X18808Y37357D1*
Y37283D1*
X17737Y38697D2*
Y38359D1*
X17451Y38073D1*
X18611Y37086D2*
D3*
X18737Y38697D2*
Y38324D1*
X18983Y38078D1*
X18804Y37647D2*
Y37898D1*
X18983Y38078D1*
X18808Y36889D2*
Y36815D1*
X18873Y36750D1*
X18611Y37283D2*
Y37309D1*
X18306Y37614D1*
X17917D1*
X17914Y37617D1*
X17963Y38073D2*
X18466D1*
X18471Y38078D1*
X18091D1*
X17630Y37617D1*
X17914D1*
X16737Y37697D2*
X17349D1*
X17453Y37593D1*
X17890D1*
X17914Y37617D1*
X18142Y37603D2*
X17928D1*
X18419Y36573D2*
X18611D1*
Y36889D1*
D30*
Y37086D3*
X18198Y37321D3*
X18173Y36845D3*
X18873Y36750D3*
X18142Y37603D3*
X17715Y36723D3*
X17472Y36417D3*
X18367Y37798D3*
X18804Y37647D3*
D18*
X17914Y37617D3*
Y37106D3*
D19*
X18419Y36573D3*
X17907D3*
D18*
X19128Y37081D3*
Y37593D3*
D20*
X17453D3*
Y36924D3*
D21*
X19737Y36697D3*
Y37697D3*
D23*
X18737Y38697D3*
X17737D3*
X18737Y35697D3*
X17737D3*
D21*
X16737Y36697D3*
Y37697D3*
D19*
X17451Y38073D3*
X17963D3*
X18983Y38078D3*
X18471D3*
D26*
X18808Y36889D3*
X18611D3*
X18415D3*
X18808Y37086D3*
X18611D3*
X18415D3*
X18808Y37283D3*
X18611D3*
X18415D3*
X26057Y37697D2*
D14*
X25552D1*
X25448Y37593D1*
X24735Y37086D2*
X24253D1*
X24234Y37106D1*
X24159D1*
X23951Y36898D1*
Y36848D1*
X24227Y36573D1*
X24035Y36723D2*
X23951D1*
Y36848D1*
X24227Y36573D2*
X23948D1*
X23792Y36417D1*
X24234Y37106D2*
X23881Y36752D1*
X23773D1*
Y36923D1*
Y36924D1*
X23057Y36697D2*
X23547D1*
X23773Y36924D1*
X24735Y36889D2*
X24538D1*
X24493Y36845D1*
X24735Y37283D2*
X24518D1*
Y37321D1*
X25448Y37081D2*
X25155D1*
X25150Y37086D1*
X25128D1*
X26057Y36697D2*
X25832D1*
X25448Y37081D1*
X24687Y37798D2*
X25128Y37357D1*
Y37283D1*
X24057Y38697D2*
Y38359D1*
X23771Y38073D1*
X24931Y37086D2*
D3*
X25057Y38697D2*
Y38324D1*
X25303Y38078D1*
X25124Y37647D2*
Y37898D1*
X25303Y38078D1*
X25128Y36889D2*
Y36815D1*
X25193Y36750D1*
X24931Y37283D2*
Y37309D1*
X24626Y37614D1*
X24237D1*
X24234Y37617D1*
X24283Y38073D2*
X24786D1*
X24791Y38078D1*
X24411D1*
X23950Y37617D1*
X24234D1*
X23057Y37697D2*
X23669D1*
X23773Y37593D1*
X24210D1*
X24234Y37617D1*
X24462Y37603D2*
X24248D1*
X24739Y36573D2*
X24931D1*
Y36889D1*
D30*
Y37086D3*
X24518Y37321D3*
X24493Y36845D3*
X25193Y36750D3*
X24462Y37603D3*
X24035Y36723D3*
X23792Y36417D3*
X24687Y37798D3*
X25124Y37647D3*
D18*
X24234Y37617D3*
Y37106D3*
D19*
X24739Y36573D3*
X24227D3*
D18*
X25448Y37081D3*
Y37593D3*
D20*
X23773D3*
Y36924D3*
D21*
X26057Y36697D3*
Y37697D3*
D23*
X25057Y38697D3*
X24057D3*
X25057Y35697D3*
X24057D3*
D21*
X23057Y36697D3*
Y37697D3*
D19*
X23771Y38073D3*
X24283D3*
X25303Y38078D3*
X24791D3*
D26*
X25128Y36889D3*
X24931D3*
X24735D3*
X25128Y37086D3*
X24931D3*
X24735D3*
X25128Y37283D3*
X24931D3*
X24735D3*
X32377Y37697D2*
D14*
X31872D1*
X31768Y37593D1*
X31055Y37086D2*
X30573D1*
X30554Y37106D1*
X30479D1*
X30271Y36898D1*
Y36848D1*
X30547Y36573D1*
X30355Y36723D2*
X30271D1*
Y36848D1*
X30547Y36573D2*
X30268D1*
X30112Y36417D1*
X30554Y37106D2*
X30201Y36752D1*
X30093D1*
Y36923D1*
Y36924D1*
X29377Y36697D2*
X29867D1*
X30093Y36924D1*
X31055Y36889D2*
X30858D1*
X30813Y36845D1*
X31055Y37283D2*
X30838D1*
Y37321D1*
X31768Y37081D2*
X31475D1*
X31470Y37086D1*
X31448D1*
X32377Y36697D2*
X32152D1*
X31768Y37081D1*
X31007Y37798D2*
X31448Y37357D1*
Y37283D1*
X30377Y38697D2*
Y38359D1*
X30091Y38073D1*
X31251Y37086D2*
D3*
X31377Y38697D2*
Y38324D1*
X31623Y38078D1*
X31444Y37647D2*
Y37898D1*
X31623Y38078D1*
X31448Y36889D2*
Y36815D1*
X31513Y36750D1*
X31251Y37283D2*
Y37309D1*
X30946Y37614D1*
X30557D1*
X30554Y37617D1*
X30603Y38073D2*
X31106D1*
X31111Y38078D1*
X30731D1*
X30270Y37617D1*
X30554D1*
X29377Y37697D2*
X29989D1*
X30093Y37593D1*
X30530D1*
X30554Y37617D1*
X30782Y37603D2*
X30568D1*
X31059Y36573D2*
X31251D1*
Y36889D1*
D30*
Y37086D3*
X30838Y37321D3*
X30813Y36845D3*
X31513Y36750D3*
X30782Y37603D3*
X30355Y36723D3*
X30112Y36417D3*
X31007Y37798D3*
X31444Y37647D3*
D18*
X30554Y37617D3*
Y37106D3*
D19*
X31059Y36573D3*
X30547D3*
D18*
X31768Y37081D3*
Y37593D3*
D20*
X30093D3*
Y36924D3*
D21*
X32377Y36697D3*
Y37697D3*
D23*
X31377Y38697D3*
X30377D3*
X31377Y35697D3*
X30377D3*
D21*
X29377Y36697D3*
Y37697D3*
D19*
X30091Y38073D3*
X30603D3*
X31623Y38078D3*
X31111D3*
D26*
X31448Y36889D3*
X31251D3*
X31055D3*
X31448Y37086D3*
X31251D3*
X31055D3*
X31448Y37283D3*
X31251D3*
X31055D3*
X38697Y37697D2*
D14*
X38192D1*
X38088Y37593D1*
X37375Y37086D2*
X36893D1*
X36874Y37106D1*
X36799D1*
X36591Y36898D1*
Y36848D1*
X36867Y36573D1*
X36675Y36723D2*
X36591D1*
Y36848D1*
X36867Y36573D2*
X36588D1*
X36432Y36417D1*
X36874Y37106D2*
X36521Y36752D1*
X36413D1*
Y36923D1*
Y36924D1*
X35697Y36697D2*
X36187D1*
X36413Y36924D1*
X37375Y36889D2*
X37178D1*
X37133Y36845D1*
X37375Y37283D2*
X37158D1*
Y37321D1*
X38088Y37081D2*
X37795D1*
X37790Y37086D1*
X37768D1*
X38697Y36697D2*
X38472D1*
X38088Y37081D1*
X37327Y37798D2*
X37768Y37357D1*
Y37283D1*
X36697Y38697D2*
Y38359D1*
X36411Y38073D1*
X37571Y37086D2*
D3*
X37697Y38697D2*
Y38324D1*
X37943Y38078D1*
X37764Y37647D2*
Y37898D1*
X37943Y38078D1*
X37768Y36889D2*
Y36815D1*
X37833Y36750D1*
X37571Y37283D2*
Y37309D1*
X37266Y37614D1*
X36877D1*
X36874Y37617D1*
X36923Y38073D2*
X37426D1*
X37431Y38078D1*
X37051D1*
X36590Y37617D1*
X36874D1*
X35697Y37697D2*
X36309D1*
X36413Y37593D1*
X36850D1*
X36874Y37617D1*
X37102Y37603D2*
X36888D1*
X37379Y36573D2*
X37571D1*
Y36889D1*
D30*
Y37086D3*
X37158Y37321D3*
X37133Y36845D3*
X37833Y36750D3*
X37102Y37603D3*
X36675Y36723D3*
X36432Y36417D3*
X37327Y37798D3*
X37764Y37647D3*
D18*
X36874Y37617D3*
Y37106D3*
D19*
X37379Y36573D3*
X36867D3*
D18*
X38088Y37081D3*
Y37593D3*
D20*
X36413D3*
Y36924D3*
D21*
X38697Y36697D3*
Y37697D3*
D23*
X37697Y38697D3*
X36697D3*
X37697Y35697D3*
X36697D3*
D21*
X35697Y36697D3*
Y37697D3*
D19*
X36411Y38073D3*
X36923D3*
X37943Y38078D3*
X37431D3*
D26*
X37768Y36889D3*
X37571D3*
X37375D3*
X37768Y37086D3*
X37571D3*
X37375D3*
X37768Y37283D3*
X37571D3*
X37375D3*
X45017Y37697D2*
D14*
X44512D1*
X44408Y37593D1*
X43695Y37086D2*
X43213D1*
X43194Y37106D1*
X43119D1*
X42911Y36898D1*
Y36848D1*
X43187Y36573D1*
X42995Y36723D2*
X42911D1*
Y36848D1*
X43187Y36573D2*
X42908D1*
X42752Y36417D1*
X43194Y37106D2*
X42841Y36752D1*
X42733D1*
Y36923D1*
Y36924D1*
X42017Y36697D2*
X42507D1*
X42733Y36924D1*
X43695Y36889D2*
X43498D1*
X43453Y36845D1*
X43695Y37283D2*
X43478D1*
Y37321D1*
X44408Y37081D2*
X44115D1*
X44110Y37086D1*
X44088D1*
X45017Y36697D2*
X44792D1*
X44408Y37081D1*
X43647Y37798D2*
X44088Y37357D1*
Y37283D1*
X43017Y38697D2*
Y38359D1*
X42731Y38073D1*
X43891Y37086D2*
D3*
X44017Y38697D2*
Y38324D1*
X44263Y38078D1*
X44084Y37647D2*
Y37898D1*
X44263Y38078D1*
X44088Y36889D2*
Y36815D1*
X44153Y36750D1*
X43891Y37283D2*
Y37309D1*
X43586Y37614D1*
X43197D1*
X43194Y37617D1*
X43243Y38073D2*
X43746D1*
X43751Y38078D1*
X43371D1*
X42910Y37617D1*
X43194D1*
X42017Y37697D2*
X42629D1*
X42733Y37593D1*
X43170D1*
X43194Y37617D1*
X43422Y37603D2*
X43208D1*
X43699Y36573D2*
X43891D1*
Y36889D1*
D30*
Y37086D3*
X43478Y37321D3*
X43453Y36845D3*
X44153Y36750D3*
X43422Y37603D3*
X42995Y36723D3*
X42752Y36417D3*
X43647Y37798D3*
X44084Y37647D3*
D18*
X43194Y37617D3*
Y37106D3*
D19*
X43699Y36573D3*
X43187D3*
D18*
X44408Y37081D3*
Y37593D3*
D20*
X42733D3*
Y36924D3*
D21*
X45017Y36697D3*
Y37697D3*
D23*
X44017Y38697D3*
X43017D3*
X44017Y35697D3*
X43017D3*
D21*
X42017Y36697D3*
Y37697D3*
D19*
X42731Y38073D3*
X43243D3*
X44263Y38078D3*
X43751D3*
D26*
X44088Y36889D3*
X43891D3*
X43695D3*
X44088Y37086D3*
X43891D3*
X43695D3*
X44088Y37283D3*
X43891D3*
X43695D3*
X51337Y37697D2*
D14*
X50832D1*
X50728Y37593D1*
X50015Y37086D2*
X49533D1*
X49514Y37106D1*
X49439D1*
X49231Y36898D1*
Y36848D1*
X49507Y36573D1*
X49315Y36723D2*
X49231D1*
Y36848D1*
X49507Y36573D2*
X49228D1*
X49072Y36417D1*
X49514Y37106D2*
X49161Y36752D1*
X49053D1*
Y36923D1*
Y36924D1*
X48337Y36697D2*
X48827D1*
X49053Y36924D1*
X50015Y36889D2*
X49818D1*
X49773Y36845D1*
X50015Y37283D2*
X49798D1*
Y37321D1*
X50728Y37081D2*
X50435D1*
X50430Y37086D1*
X50408D1*
X51337Y36697D2*
X51112D1*
X50728Y37081D1*
X49967Y37798D2*
X50408Y37357D1*
Y37283D1*
X49337Y38697D2*
Y38359D1*
X49051Y38073D1*
X50211Y37086D2*
D3*
X50337Y38697D2*
Y38324D1*
X50583Y38078D1*
X50404Y37647D2*
Y37898D1*
X50583Y38078D1*
X50408Y36889D2*
Y36815D1*
X50473Y36750D1*
X50211Y37283D2*
Y37309D1*
X49906Y37614D1*
X49517D1*
X49514Y37617D1*
X49563Y38073D2*
X50066D1*
X50071Y38078D1*
X49691D1*
X49230Y37617D1*
X49514D1*
X48337Y37697D2*
X48949D1*
X49053Y37593D1*
X49490D1*
X49514Y37617D1*
X49742Y37603D2*
X49528D1*
X50019Y36573D2*
X50211D1*
Y36889D1*
D30*
Y37086D3*
X49798Y37321D3*
X49773Y36845D3*
X50473Y36750D3*
X49742Y37603D3*
X49315Y36723D3*
X49072Y36417D3*
X49967Y37798D3*
X50404Y37647D3*
D18*
X49514Y37617D3*
Y37106D3*
D19*
X50019Y36573D3*
X49507D3*
D18*
X50728Y37081D3*
Y37593D3*
D20*
X49053D3*
Y36924D3*
D21*
X51337Y36697D3*
Y37697D3*
D23*
X50337Y38697D3*
X49337D3*
X50337Y35697D3*
X49337D3*
D21*
X48337Y36697D3*
Y37697D3*
D19*
X49051Y38073D3*
X49563D3*
X50583Y38078D3*
X50071D3*
D26*
X50408Y36889D3*
X50211D3*
X50015D3*
X50408Y37086D3*
X50211D3*
X50015D3*
X50408Y37283D3*
X50211D3*
X50015D3*
X57657Y37697D2*
D14*
X57152D1*
X57048Y37593D1*
X56335Y37086D2*
X55853D1*
X55834Y37106D1*
X55759D1*
X55551Y36898D1*
Y36848D1*
X55827Y36573D1*
X55635Y36723D2*
X55551D1*
Y36848D1*
X55827Y36573D2*
X55548D1*
X55392Y36417D1*
X55834Y37106D2*
X55481Y36752D1*
X55373D1*
Y36923D1*
Y36924D1*
X54657Y36697D2*
X55147D1*
X55373Y36924D1*
X56335Y36889D2*
X56138D1*
X56093Y36845D1*
X56335Y37283D2*
X56118D1*
Y37321D1*
X57048Y37081D2*
X56755D1*
X56750Y37086D1*
X56728D1*
X57657Y36697D2*
X57432D1*
X57048Y37081D1*
X56287Y37798D2*
X56728Y37357D1*
Y37283D1*
X55657Y38697D2*
Y38359D1*
X55371Y38073D1*
X56531Y37086D2*
D3*
X56657Y38697D2*
Y38324D1*
X56903Y38078D1*
X56724Y37647D2*
Y37898D1*
X56903Y38078D1*
X56728Y36889D2*
Y36815D1*
X56793Y36750D1*
X56531Y37283D2*
Y37309D1*
X56226Y37614D1*
X55837D1*
X55834Y37617D1*
X55883Y38073D2*
X56386D1*
X56391Y38078D1*
X56011D1*
X55550Y37617D1*
X55834D1*
X54657Y37697D2*
X55269D1*
X55373Y37593D1*
X55810D1*
X55834Y37617D1*
X56062Y37603D2*
X55848D1*
X56339Y36573D2*
X56531D1*
Y36889D1*
D30*
Y37086D3*
X56118Y37321D3*
X56093Y36845D3*
X56793Y36750D3*
X56062Y37603D3*
X55635Y36723D3*
X55392Y36417D3*
X56287Y37798D3*
X56724Y37647D3*
D18*
X55834Y37617D3*
Y37106D3*
D19*
X56339Y36573D3*
X55827D3*
D18*
X57048Y37081D3*
Y37593D3*
D20*
X55373D3*
Y36924D3*
D21*
X57657Y36697D3*
Y37697D3*
D23*
X56657Y38697D3*
X55657D3*
X56657Y35697D3*
X55657D3*
D21*
X54657Y36697D3*
Y37697D3*
D19*
X55371Y38073D3*
X55883D3*
X56903Y38078D3*
X56391D3*
D26*
X56728Y36889D3*
X56531D3*
X56335D3*
X56728Y37086D3*
X56531D3*
X56335D3*
X56728Y37283D3*
X56531D3*
X56335D3*
X63977Y37697D2*
D14*
X63472D1*
X63368Y37593D1*
X62655Y37086D2*
X62173D1*
X62154Y37106D1*
X62079D1*
X61871Y36898D1*
Y36848D1*
X62147Y36573D1*
X61955Y36723D2*
X61871D1*
Y36848D1*
X62147Y36573D2*
X61868D1*
X61712Y36417D1*
X62154Y37106D2*
X61801Y36752D1*
X61693D1*
Y36923D1*
Y36924D1*
X60977Y36697D2*
X61467D1*
X61693Y36924D1*
X62655Y36889D2*
X62458D1*
X62413Y36845D1*
X62655Y37283D2*
X62438D1*
Y37321D1*
X63368Y37081D2*
X63075D1*
X63070Y37086D1*
X63048D1*
X63977Y36697D2*
X63752D1*
X63368Y37081D1*
X62607Y37798D2*
X63048Y37357D1*
Y37283D1*
X61977Y38697D2*
Y38359D1*
X61691Y38073D1*
X62851Y37086D2*
D3*
X62977Y38697D2*
Y38324D1*
X63223Y38078D1*
X63044Y37647D2*
Y37898D1*
X63223Y38078D1*
X63048Y36889D2*
Y36815D1*
X63113Y36750D1*
X62851Y37283D2*
Y37309D1*
X62546Y37614D1*
X62157D1*
X62154Y37617D1*
X62203Y38073D2*
X62706D1*
X62711Y38078D1*
X62331D1*
X61870Y37617D1*
X62154D1*
X60977Y37697D2*
X61589D1*
X61693Y37593D1*
X62130D1*
X62154Y37617D1*
X62382Y37603D2*
X62168D1*
X62659Y36573D2*
X62851D1*
Y36889D1*
D30*
Y37086D3*
X62438Y37321D3*
X62413Y36845D3*
X63113Y36750D3*
X62382Y37603D3*
X61955Y36723D3*
X61712Y36417D3*
X62607Y37798D3*
X63044Y37647D3*
D18*
X62154Y37617D3*
Y37106D3*
D19*
X62659Y36573D3*
X62147D3*
D18*
X63368Y37081D3*
Y37593D3*
D20*
X61693D3*
Y36924D3*
D21*
X63977Y36697D3*
Y37697D3*
D23*
X62977Y38697D3*
X61977D3*
X62977Y35697D3*
X61977D3*
D21*
X60977Y36697D3*
Y37697D3*
D19*
X61691Y38073D3*
X62203D3*
X63223Y38078D3*
X62711D3*
D26*
X63048Y36889D3*
X62851D3*
X62655D3*
X63048Y37086D3*
X62851D3*
X62655D3*
X63048Y37283D3*
X62851D3*
X62655D3*
X70297Y37697D2*
D14*
X69792D1*
X69688Y37593D1*
X68975Y37086D2*
X68493D1*
X68474Y37106D1*
X68399D1*
X68191Y36898D1*
Y36848D1*
X68467Y36573D1*
X68275Y36723D2*
X68191D1*
Y36848D1*
X68467Y36573D2*
X68188D1*
X68032Y36417D1*
X68474Y37106D2*
X68121Y36752D1*
X68013D1*
Y36923D1*
Y36924D1*
X67297Y36697D2*
X67787D1*
X68013Y36924D1*
X68975Y36889D2*
X68778D1*
X68733Y36845D1*
X68975Y37283D2*
X68758D1*
Y37321D1*
X69688Y37081D2*
X69395D1*
X69390Y37086D1*
X69368D1*
X70297Y36697D2*
X70072D1*
X69688Y37081D1*
X68927Y37798D2*
X69368Y37357D1*
Y37283D1*
X68297Y38697D2*
Y38359D1*
X68011Y38073D1*
X69171Y37086D2*
D3*
X69297Y38697D2*
Y38324D1*
X69543Y38078D1*
X69364Y37647D2*
Y37898D1*
X69543Y38078D1*
X69368Y36889D2*
Y36815D1*
X69433Y36750D1*
X69171Y37283D2*
Y37309D1*
X68866Y37614D1*
X68477D1*
X68474Y37617D1*
X68523Y38073D2*
X69026D1*
X69031Y38078D1*
X68651D1*
X68190Y37617D1*
X68474D1*
X67297Y37697D2*
X67909D1*
X68013Y37593D1*
X68450D1*
X68474Y37617D1*
X68702Y37603D2*
X68488D1*
X68979Y36573D2*
X69171D1*
Y36889D1*
D30*
Y37086D3*
X68758Y37321D3*
X68733Y36845D3*
X69433Y36750D3*
X68702Y37603D3*
X68275Y36723D3*
X68032Y36417D3*
X68927Y37798D3*
X69364Y37647D3*
D18*
X68474Y37617D3*
Y37106D3*
D19*
X68979Y36573D3*
X68467D3*
D18*
X69688Y37081D3*
Y37593D3*
D20*
X68013D3*
Y36924D3*
D21*
X70297Y36697D3*
Y37697D3*
D23*
X69297Y38697D3*
X68297D3*
X69297Y35697D3*
X68297D3*
D21*
X67297Y36697D3*
Y37697D3*
D19*
X68011Y38073D3*
X68523D3*
X69543Y38078D3*
X69031D3*
D26*
X69368Y36889D3*
X69171D3*
X68975D3*
X69368Y37086D3*
X69171D3*
X68975D3*
X69368Y37283D3*
X69171D3*
X68975D3*
X76617Y37697D2*
D14*
X76112D1*
X76008Y37593D1*
X75295Y37086D2*
X74813D1*
X74794Y37106D1*
X74719D1*
X74511Y36898D1*
Y36848D1*
X74787Y36573D1*
X74595Y36723D2*
X74511D1*
Y36848D1*
X74787Y36573D2*
X74508D1*
X74352Y36417D1*
X74794Y37106D2*
X74441Y36752D1*
X74333D1*
Y36923D1*
Y36924D1*
X73617Y36697D2*
X74107D1*
X74333Y36924D1*
X75295Y36889D2*
X75098D1*
X75053Y36845D1*
X75295Y37283D2*
X75078D1*
Y37321D1*
X76008Y37081D2*
X75715D1*
X75710Y37086D1*
X75688D1*
X76617Y36697D2*
X76392D1*
X76008Y37081D1*
X75247Y37798D2*
X75688Y37357D1*
Y37283D1*
X74617Y38697D2*
Y38359D1*
X74331Y38073D1*
X75491Y37086D2*
D3*
X75617Y38697D2*
Y38324D1*
X75863Y38078D1*
X75684Y37647D2*
Y37898D1*
X75863Y38078D1*
X75688Y36889D2*
Y36815D1*
X75753Y36750D1*
X75491Y37283D2*
Y37309D1*
X75186Y37614D1*
X74797D1*
X74794Y37617D1*
X74843Y38073D2*
X75346D1*
X75351Y38078D1*
X74971D1*
X74510Y37617D1*
X74794D1*
X73617Y37697D2*
X74229D1*
X74333Y37593D1*
X74770D1*
X74794Y37617D1*
X75022Y37603D2*
X74808D1*
X75299Y36573D2*
X75491D1*
Y36889D1*
D30*
Y37086D3*
X75078Y37321D3*
X75053Y36845D3*
X75753Y36750D3*
X75022Y37603D3*
X74595Y36723D3*
X74352Y36417D3*
X75247Y37798D3*
X75684Y37647D3*
D18*
X74794Y37617D3*
Y37106D3*
D19*
X75299Y36573D3*
X74787D3*
D18*
X76008Y37081D3*
Y37593D3*
D20*
X74333D3*
Y36924D3*
D21*
X76617Y36697D3*
Y37697D3*
D23*
X75617Y38697D3*
X74617D3*
X75617Y35697D3*
X74617D3*
D21*
X73617Y36697D3*
Y37697D3*
D19*
X74331Y38073D3*
X74843D3*
X75863Y38078D3*
X75351D3*
D26*
X75688Y36889D3*
X75491D3*
X75295D3*
X75688Y37086D3*
X75491D3*
X75295D3*
X75688Y37283D3*
X75491D3*
X75295D3*
X7097Y44017D2*
D14*
X6592D1*
X6488Y43913D1*
X5775Y43406D2*
X5293D1*
X5274Y43426D1*
X5199D1*
X4991Y43218D1*
Y43168D1*
X5267Y42893D1*
X5075Y43043D2*
X4991D1*
Y43168D1*
X5267Y42893D2*
X4988D1*
X4832Y42737D1*
X5274Y43426D2*
X4921Y43072D1*
X4813D1*
Y43243D1*
Y43244D1*
X4097Y43017D2*
X4587D1*
X4813Y43244D1*
X5775Y43209D2*
X5578D1*
X5533Y43165D1*
X5775Y43603D2*
X5558D1*
Y43641D1*
X6488Y43401D2*
X6195D1*
X6190Y43406D1*
X6168D1*
X7097Y43017D2*
X6872D1*
X6488Y43401D1*
X5727Y44118D2*
X6168Y43677D1*
Y43603D1*
X5097Y45017D2*
Y44679D1*
X4811Y44393D1*
X5971Y43406D2*
D3*
X6097Y45017D2*
Y44644D1*
X6343Y44398D1*
X6164Y43967D2*
Y44218D1*
X6343Y44398D1*
X6168Y43209D2*
Y43135D1*
X6233Y43070D1*
X5971Y43603D2*
Y43629D1*
X5666Y43934D1*
X5277D1*
X5274Y43937D1*
X5323Y44393D2*
X5826D1*
X5831Y44398D1*
X5451D1*
X4990Y43937D1*
X5274D1*
X4097Y44017D2*
X4709D1*
X4813Y43913D1*
X5250D1*
X5274Y43937D1*
X5502Y43923D2*
X5288D1*
X5779Y42893D2*
X5971D1*
Y43209D1*
D30*
Y43406D3*
X5558Y43641D3*
X5533Y43165D3*
X6233Y43070D3*
X5502Y43923D3*
X5075Y43043D3*
X4832Y42737D3*
X5727Y44118D3*
X6164Y43967D3*
D18*
X5274Y43937D3*
Y43426D3*
D19*
X5779Y42893D3*
X5267D3*
D18*
X6488Y43401D3*
Y43913D3*
D20*
X4813D3*
Y43244D3*
D21*
X7097Y43017D3*
Y44017D3*
D23*
X6097Y45017D3*
X5097D3*
X6097Y42017D3*
X5097D3*
D21*
X4097Y43017D3*
Y44017D3*
D19*
X4811Y44393D3*
X5323D3*
X6343Y44398D3*
X5831D3*
D26*
X6168Y43209D3*
X5971D3*
X5775D3*
X6168Y43406D3*
X5971D3*
X5775D3*
X6168Y43603D3*
X5971D3*
X5775D3*
X13417Y44017D2*
D14*
X12912D1*
X12808Y43913D1*
X12095Y43406D2*
X11613D1*
X11594Y43426D1*
X11519D1*
X11311Y43218D1*
Y43168D1*
X11587Y42893D1*
X11395Y43043D2*
X11311D1*
Y43168D1*
X11587Y42893D2*
X11308D1*
X11152Y42737D1*
X11594Y43426D2*
X11241Y43072D1*
X11133D1*
Y43243D1*
Y43244D1*
X10417Y43017D2*
X10907D1*
X11133Y43244D1*
X12095Y43209D2*
X11898D1*
X11853Y43165D1*
X12095Y43603D2*
X11878D1*
Y43641D1*
X12808Y43401D2*
X12515D1*
X12510Y43406D1*
X12488D1*
X13417Y43017D2*
X13192D1*
X12808Y43401D1*
X12047Y44118D2*
X12488Y43677D1*
Y43603D1*
X11417Y45017D2*
Y44679D1*
X11131Y44393D1*
X12291Y43406D2*
D3*
X12417Y45017D2*
Y44644D1*
X12663Y44398D1*
X12484Y43967D2*
Y44218D1*
X12663Y44398D1*
X12488Y43209D2*
Y43135D1*
X12553Y43070D1*
X12291Y43603D2*
Y43629D1*
X11986Y43934D1*
X11597D1*
X11594Y43937D1*
X11643Y44393D2*
X12146D1*
X12151Y44398D1*
X11771D1*
X11310Y43937D1*
X11594D1*
X10417Y44017D2*
X11029D1*
X11133Y43913D1*
X11570D1*
X11594Y43937D1*
X11822Y43923D2*
X11608D1*
X12099Y42893D2*
X12291D1*
Y43209D1*
D30*
Y43406D3*
X11878Y43641D3*
X11853Y43165D3*
X12553Y43070D3*
X11822Y43923D3*
X11395Y43043D3*
X11152Y42737D3*
X12047Y44118D3*
X12484Y43967D3*
D18*
X11594Y43937D3*
Y43426D3*
D19*
X12099Y42893D3*
X11587D3*
D18*
X12808Y43401D3*
Y43913D3*
D20*
X11133D3*
Y43244D3*
D21*
X13417Y43017D3*
Y44017D3*
D23*
X12417Y45017D3*
X11417D3*
X12417Y42017D3*
X11417D3*
D21*
X10417Y43017D3*
Y44017D3*
D19*
X11131Y44393D3*
X11643D3*
X12663Y44398D3*
X12151D3*
D26*
X12488Y43209D3*
X12291D3*
X12095D3*
X12488Y43406D3*
X12291D3*
X12095D3*
X12488Y43603D3*
X12291D3*
X12095D3*
X19737Y44017D2*
D14*
X19232D1*
X19128Y43913D1*
X18415Y43406D2*
X17933D1*
X17914Y43426D1*
X17839D1*
X17631Y43218D1*
Y43168D1*
X17907Y42893D1*
X17715Y43043D2*
X17631D1*
Y43168D1*
X17907Y42893D2*
X17628D1*
X17472Y42737D1*
X17914Y43426D2*
X17561Y43072D1*
X17453D1*
Y43243D1*
Y43244D1*
X16737Y43017D2*
X17227D1*
X17453Y43244D1*
X18415Y43209D2*
X18218D1*
X18173Y43165D1*
X18415Y43603D2*
X18198D1*
Y43641D1*
X19128Y43401D2*
X18835D1*
X18830Y43406D1*
X18808D1*
X19737Y43017D2*
X19512D1*
X19128Y43401D1*
X18367Y44118D2*
X18808Y43677D1*
Y43603D1*
X17737Y45017D2*
Y44679D1*
X17451Y44393D1*
X18611Y43406D2*
D3*
X18737Y45017D2*
Y44644D1*
X18983Y44398D1*
X18804Y43967D2*
Y44218D1*
X18983Y44398D1*
X18808Y43209D2*
Y43135D1*
X18873Y43070D1*
X18611Y43603D2*
Y43629D1*
X18306Y43934D1*
X17917D1*
X17914Y43937D1*
X17963Y44393D2*
X18466D1*
X18471Y44398D1*
X18091D1*
X17630Y43937D1*
X17914D1*
X16737Y44017D2*
X17349D1*
X17453Y43913D1*
X17890D1*
X17914Y43937D1*
X18142Y43923D2*
X17928D1*
X18419Y42893D2*
X18611D1*
Y43209D1*
D30*
Y43406D3*
X18198Y43641D3*
X18173Y43165D3*
X18873Y43070D3*
X18142Y43923D3*
X17715Y43043D3*
X17472Y42737D3*
X18367Y44118D3*
X18804Y43967D3*
D18*
X17914Y43937D3*
Y43426D3*
D19*
X18419Y42893D3*
X17907D3*
D18*
X19128Y43401D3*
Y43913D3*
D20*
X17453D3*
Y43244D3*
D21*
X19737Y43017D3*
Y44017D3*
D23*
X18737Y45017D3*
X17737D3*
X18737Y42017D3*
X17737D3*
D21*
X16737Y43017D3*
Y44017D3*
D19*
X17451Y44393D3*
X17963D3*
X18983Y44398D3*
X18471D3*
D26*
X18808Y43209D3*
X18611D3*
X18415D3*
X18808Y43406D3*
X18611D3*
X18415D3*
X18808Y43603D3*
X18611D3*
X18415D3*
X26057Y44017D2*
D14*
X25552D1*
X25448Y43913D1*
X24735Y43406D2*
X24253D1*
X24234Y43426D1*
X24159D1*
X23951Y43218D1*
Y43168D1*
X24227Y42893D1*
X24035Y43043D2*
X23951D1*
Y43168D1*
X24227Y42893D2*
X23948D1*
X23792Y42737D1*
X24234Y43426D2*
X23881Y43072D1*
X23773D1*
Y43243D1*
Y43244D1*
X23057Y43017D2*
X23547D1*
X23773Y43244D1*
X24735Y43209D2*
X24538D1*
X24493Y43165D1*
X24735Y43603D2*
X24518D1*
Y43641D1*
X25448Y43401D2*
X25155D1*
X25150Y43406D1*
X25128D1*
X26057Y43017D2*
X25832D1*
X25448Y43401D1*
X24687Y44118D2*
X25128Y43677D1*
Y43603D1*
X24057Y45017D2*
Y44679D1*
X23771Y44393D1*
X24931Y43406D2*
D3*
X25057Y45017D2*
Y44644D1*
X25303Y44398D1*
X25124Y43967D2*
Y44218D1*
X25303Y44398D1*
X25128Y43209D2*
Y43135D1*
X25193Y43070D1*
X24931Y43603D2*
Y43629D1*
X24626Y43934D1*
X24237D1*
X24234Y43937D1*
X24283Y44393D2*
X24786D1*
X24791Y44398D1*
X24411D1*
X23950Y43937D1*
X24234D1*
X23057Y44017D2*
X23669D1*
X23773Y43913D1*
X24210D1*
X24234Y43937D1*
X24462Y43923D2*
X24248D1*
X24739Y42893D2*
X24931D1*
Y43209D1*
D30*
Y43406D3*
X24518Y43641D3*
X24493Y43165D3*
X25193Y43070D3*
X24462Y43923D3*
X24035Y43043D3*
X23792Y42737D3*
X24687Y44118D3*
X25124Y43967D3*
D18*
X24234Y43937D3*
Y43426D3*
D19*
X24739Y42893D3*
X24227D3*
D18*
X25448Y43401D3*
Y43913D3*
D20*
X23773D3*
Y43244D3*
D21*
X26057Y43017D3*
Y44017D3*
D23*
X25057Y45017D3*
X24057D3*
X25057Y42017D3*
X24057D3*
D21*
X23057Y43017D3*
Y44017D3*
D19*
X23771Y44393D3*
X24283D3*
X25303Y44398D3*
X24791D3*
D26*
X25128Y43209D3*
X24931D3*
X24735D3*
X25128Y43406D3*
X24931D3*
X24735D3*
X25128Y43603D3*
X24931D3*
X24735D3*
X32377Y44017D2*
D14*
X31872D1*
X31768Y43913D1*
X31055Y43406D2*
X30573D1*
X30554Y43426D1*
X30479D1*
X30271Y43218D1*
Y43168D1*
X30547Y42893D1*
X30355Y43043D2*
X30271D1*
Y43168D1*
X30547Y42893D2*
X30268D1*
X30112Y42737D1*
X30554Y43426D2*
X30201Y43072D1*
X30093D1*
Y43243D1*
Y43244D1*
X29377Y43017D2*
X29867D1*
X30093Y43244D1*
X31055Y43209D2*
X30858D1*
X30813Y43165D1*
X31055Y43603D2*
X30838D1*
Y43641D1*
X31768Y43401D2*
X31475D1*
X31470Y43406D1*
X31448D1*
X32377Y43017D2*
X32152D1*
X31768Y43401D1*
X31007Y44118D2*
X31448Y43677D1*
Y43603D1*
X30377Y45017D2*
Y44679D1*
X30091Y44393D1*
X31251Y43406D2*
D3*
X31377Y45017D2*
Y44644D1*
X31623Y44398D1*
X31444Y43967D2*
Y44218D1*
X31623Y44398D1*
X31448Y43209D2*
Y43135D1*
X31513Y43070D1*
X31251Y43603D2*
Y43629D1*
X30946Y43934D1*
X30557D1*
X30554Y43937D1*
X30603Y44393D2*
X31106D1*
X31111Y44398D1*
X30731D1*
X30270Y43937D1*
X30554D1*
X29377Y44017D2*
X29989D1*
X30093Y43913D1*
X30530D1*
X30554Y43937D1*
X30782Y43923D2*
X30568D1*
X31059Y42893D2*
X31251D1*
Y43209D1*
D30*
Y43406D3*
X30838Y43641D3*
X30813Y43165D3*
X31513Y43070D3*
X30782Y43923D3*
X30355Y43043D3*
X30112Y42737D3*
X31007Y44118D3*
X31444Y43967D3*
D18*
X30554Y43937D3*
Y43426D3*
D19*
X31059Y42893D3*
X30547D3*
D18*
X31768Y43401D3*
Y43913D3*
D20*
X30093D3*
Y43244D3*
D21*
X32377Y43017D3*
Y44017D3*
D23*
X31377Y45017D3*
X30377D3*
X31377Y42017D3*
X30377D3*
D21*
X29377Y43017D3*
Y44017D3*
D19*
X30091Y44393D3*
X30603D3*
X31623Y44398D3*
X31111D3*
D26*
X31448Y43209D3*
X31251D3*
X31055D3*
X31448Y43406D3*
X31251D3*
X31055D3*
X31448Y43603D3*
X31251D3*
X31055D3*
X38697Y44017D2*
D14*
X38192D1*
X38088Y43913D1*
X37375Y43406D2*
X36893D1*
X36874Y43426D1*
X36799D1*
X36591Y43218D1*
Y43168D1*
X36867Y42893D1*
X36675Y43043D2*
X36591D1*
Y43168D1*
X36867Y42893D2*
X36588D1*
X36432Y42737D1*
X36874Y43426D2*
X36521Y43072D1*
X36413D1*
Y43243D1*
Y43244D1*
X35697Y43017D2*
X36187D1*
X36413Y43244D1*
X37375Y43209D2*
X37178D1*
X37133Y43165D1*
X37375Y43603D2*
X37158D1*
Y43641D1*
X38088Y43401D2*
X37795D1*
X37790Y43406D1*
X37768D1*
X38697Y43017D2*
X38472D1*
X38088Y43401D1*
X37327Y44118D2*
X37768Y43677D1*
Y43603D1*
X36697Y45017D2*
Y44679D1*
X36411Y44393D1*
X37571Y43406D2*
D3*
X37697Y45017D2*
Y44644D1*
X37943Y44398D1*
X37764Y43967D2*
Y44218D1*
X37943Y44398D1*
X37768Y43209D2*
Y43135D1*
X37833Y43070D1*
X37571Y43603D2*
Y43629D1*
X37266Y43934D1*
X36877D1*
X36874Y43937D1*
X36923Y44393D2*
X37426D1*
X37431Y44398D1*
X37051D1*
X36590Y43937D1*
X36874D1*
X35697Y44017D2*
X36309D1*
X36413Y43913D1*
X36850D1*
X36874Y43937D1*
X37102Y43923D2*
X36888D1*
X37379Y42893D2*
X37571D1*
Y43209D1*
D30*
Y43406D3*
X37158Y43641D3*
X37133Y43165D3*
X37833Y43070D3*
X37102Y43923D3*
X36675Y43043D3*
X36432Y42737D3*
X37327Y44118D3*
X37764Y43967D3*
D18*
X36874Y43937D3*
Y43426D3*
D19*
X37379Y42893D3*
X36867D3*
D18*
X38088Y43401D3*
Y43913D3*
D20*
X36413D3*
Y43244D3*
D21*
X38697Y43017D3*
Y44017D3*
D23*
X37697Y45017D3*
X36697D3*
X37697Y42017D3*
X36697D3*
D21*
X35697Y43017D3*
Y44017D3*
D19*
X36411Y44393D3*
X36923D3*
X37943Y44398D3*
X37431D3*
D26*
X37768Y43209D3*
X37571D3*
X37375D3*
X37768Y43406D3*
X37571D3*
X37375D3*
X37768Y43603D3*
X37571D3*
X37375D3*
X45017Y44017D2*
D14*
X44512D1*
X44408Y43913D1*
X43695Y43406D2*
X43213D1*
X43194Y43426D1*
X43119D1*
X42911Y43218D1*
Y43168D1*
X43187Y42893D1*
X42995Y43043D2*
X42911D1*
Y43168D1*
X43187Y42893D2*
X42908D1*
X42752Y42737D1*
X43194Y43426D2*
X42841Y43072D1*
X42733D1*
Y43243D1*
Y43244D1*
X42017Y43017D2*
X42507D1*
X42733Y43244D1*
X43695Y43209D2*
X43498D1*
X43453Y43165D1*
X43695Y43603D2*
X43478D1*
Y43641D1*
X44408Y43401D2*
X44115D1*
X44110Y43406D1*
X44088D1*
X45017Y43017D2*
X44792D1*
X44408Y43401D1*
X43647Y44118D2*
X44088Y43677D1*
Y43603D1*
X43017Y45017D2*
Y44679D1*
X42731Y44393D1*
X43891Y43406D2*
D3*
X44017Y45017D2*
Y44644D1*
X44263Y44398D1*
X44084Y43967D2*
Y44218D1*
X44263Y44398D1*
X44088Y43209D2*
Y43135D1*
X44153Y43070D1*
X43891Y43603D2*
Y43629D1*
X43586Y43934D1*
X43197D1*
X43194Y43937D1*
X43243Y44393D2*
X43746D1*
X43751Y44398D1*
X43371D1*
X42910Y43937D1*
X43194D1*
X42017Y44017D2*
X42629D1*
X42733Y43913D1*
X43170D1*
X43194Y43937D1*
X43422Y43923D2*
X43208D1*
X43699Y42893D2*
X43891D1*
Y43209D1*
D30*
Y43406D3*
X43478Y43641D3*
X43453Y43165D3*
X44153Y43070D3*
X43422Y43923D3*
X42995Y43043D3*
X42752Y42737D3*
X43647Y44118D3*
X44084Y43967D3*
D18*
X43194Y43937D3*
Y43426D3*
D19*
X43699Y42893D3*
X43187D3*
D18*
X44408Y43401D3*
Y43913D3*
D20*
X42733D3*
Y43244D3*
D21*
X45017Y43017D3*
Y44017D3*
D23*
X44017Y45017D3*
X43017D3*
X44017Y42017D3*
X43017D3*
D21*
X42017Y43017D3*
Y44017D3*
D19*
X42731Y44393D3*
X43243D3*
X44263Y44398D3*
X43751D3*
D26*
X44088Y43209D3*
X43891D3*
X43695D3*
X44088Y43406D3*
X43891D3*
X43695D3*
X44088Y43603D3*
X43891D3*
X43695D3*
X51337Y44017D2*
D14*
X50832D1*
X50728Y43913D1*
X50015Y43406D2*
X49533D1*
X49514Y43426D1*
X49439D1*
X49231Y43218D1*
Y43168D1*
X49507Y42893D1*
X49315Y43043D2*
X49231D1*
Y43168D1*
X49507Y42893D2*
X49228D1*
X49072Y42737D1*
X49514Y43426D2*
X49161Y43072D1*
X49053D1*
Y43243D1*
Y43244D1*
X48337Y43017D2*
X48827D1*
X49053Y43244D1*
X50015Y43209D2*
X49818D1*
X49773Y43165D1*
X50015Y43603D2*
X49798D1*
Y43641D1*
X50728Y43401D2*
X50435D1*
X50430Y43406D1*
X50408D1*
X51337Y43017D2*
X51112D1*
X50728Y43401D1*
X49967Y44118D2*
X50408Y43677D1*
Y43603D1*
X49337Y45017D2*
Y44679D1*
X49051Y44393D1*
X50211Y43406D2*
D3*
X50337Y45017D2*
Y44644D1*
X50583Y44398D1*
X50404Y43967D2*
Y44218D1*
X50583Y44398D1*
X50408Y43209D2*
Y43135D1*
X50473Y43070D1*
X50211Y43603D2*
Y43629D1*
X49906Y43934D1*
X49517D1*
X49514Y43937D1*
X49563Y44393D2*
X50066D1*
X50071Y44398D1*
X49691D1*
X49230Y43937D1*
X49514D1*
X48337Y44017D2*
X48949D1*
X49053Y43913D1*
X49490D1*
X49514Y43937D1*
X49742Y43923D2*
X49528D1*
X50019Y42893D2*
X50211D1*
Y43209D1*
D30*
Y43406D3*
X49798Y43641D3*
X49773Y43165D3*
X50473Y43070D3*
X49742Y43923D3*
X49315Y43043D3*
X49072Y42737D3*
X49967Y44118D3*
X50404Y43967D3*
D18*
X49514Y43937D3*
Y43426D3*
D19*
X50019Y42893D3*
X49507D3*
D18*
X50728Y43401D3*
Y43913D3*
D20*
X49053D3*
Y43244D3*
D21*
X51337Y43017D3*
Y44017D3*
D23*
X50337Y45017D3*
X49337D3*
X50337Y42017D3*
X49337D3*
D21*
X48337Y43017D3*
Y44017D3*
D19*
X49051Y44393D3*
X49563D3*
X50583Y44398D3*
X50071D3*
D26*
X50408Y43209D3*
X50211D3*
X50015D3*
X50408Y43406D3*
X50211D3*
X50015D3*
X50408Y43603D3*
X50211D3*
X50015D3*
X57657Y44017D2*
D14*
X57152D1*
X57048Y43913D1*
X56335Y43406D2*
X55853D1*
X55834Y43426D1*
X55759D1*
X55551Y43218D1*
Y43168D1*
X55827Y42893D1*
X55635Y43043D2*
X55551D1*
Y43168D1*
X55827Y42893D2*
X55548D1*
X55392Y42737D1*
X55834Y43426D2*
X55481Y43072D1*
X55373D1*
Y43243D1*
Y43244D1*
X54657Y43017D2*
X55147D1*
X55373Y43244D1*
X56335Y43209D2*
X56138D1*
X56093Y43165D1*
X56335Y43603D2*
X56118D1*
Y43641D1*
X57048Y43401D2*
X56755D1*
X56750Y43406D1*
X56728D1*
X57657Y43017D2*
X57432D1*
X57048Y43401D1*
X56287Y44118D2*
X56728Y43677D1*
Y43603D1*
X55657Y45017D2*
Y44679D1*
X55371Y44393D1*
X56531Y43406D2*
D3*
X56657Y45017D2*
Y44644D1*
X56903Y44398D1*
X56724Y43967D2*
Y44218D1*
X56903Y44398D1*
X56728Y43209D2*
Y43135D1*
X56793Y43070D1*
X56531Y43603D2*
Y43629D1*
X56226Y43934D1*
X55837D1*
X55834Y43937D1*
X55883Y44393D2*
X56386D1*
X56391Y44398D1*
X56011D1*
X55550Y43937D1*
X55834D1*
X54657Y44017D2*
X55269D1*
X55373Y43913D1*
X55810D1*
X55834Y43937D1*
X56062Y43923D2*
X55848D1*
X56339Y42893D2*
X56531D1*
Y43209D1*
D30*
Y43406D3*
X56118Y43641D3*
X56093Y43165D3*
X56793Y43070D3*
X56062Y43923D3*
X55635Y43043D3*
X55392Y42737D3*
X56287Y44118D3*
X56724Y43967D3*
D18*
X55834Y43937D3*
Y43426D3*
D19*
X56339Y42893D3*
X55827D3*
D18*
X57048Y43401D3*
Y43913D3*
D20*
X55373D3*
Y43244D3*
D21*
X57657Y43017D3*
Y44017D3*
D23*
X56657Y45017D3*
X55657D3*
X56657Y42017D3*
X55657D3*
D21*
X54657Y43017D3*
Y44017D3*
D19*
X55371Y44393D3*
X55883D3*
X56903Y44398D3*
X56391D3*
D26*
X56728Y43209D3*
X56531D3*
X56335D3*
X56728Y43406D3*
X56531D3*
X56335D3*
X56728Y43603D3*
X56531D3*
X56335D3*
X63977Y44017D2*
D14*
X63472D1*
X63368Y43913D1*
X62655Y43406D2*
X62173D1*
X62154Y43426D1*
X62079D1*
X61871Y43218D1*
Y43168D1*
X62147Y42893D1*
X61955Y43043D2*
X61871D1*
Y43168D1*
X62147Y42893D2*
X61868D1*
X61712Y42737D1*
X62154Y43426D2*
X61801Y43072D1*
X61693D1*
Y43243D1*
Y43244D1*
X60977Y43017D2*
X61467D1*
X61693Y43244D1*
X62655Y43209D2*
X62458D1*
X62413Y43165D1*
X62655Y43603D2*
X62438D1*
Y43641D1*
X63368Y43401D2*
X63075D1*
X63070Y43406D1*
X63048D1*
X63977Y43017D2*
X63752D1*
X63368Y43401D1*
X62607Y44118D2*
X63048Y43677D1*
Y43603D1*
X61977Y45017D2*
Y44679D1*
X61691Y44393D1*
X62851Y43406D2*
D3*
X62977Y45017D2*
Y44644D1*
X63223Y44398D1*
X63044Y43967D2*
Y44218D1*
X63223Y44398D1*
X63048Y43209D2*
Y43135D1*
X63113Y43070D1*
X62851Y43603D2*
Y43629D1*
X62546Y43934D1*
X62157D1*
X62154Y43937D1*
X62203Y44393D2*
X62706D1*
X62711Y44398D1*
X62331D1*
X61870Y43937D1*
X62154D1*
X60977Y44017D2*
X61589D1*
X61693Y43913D1*
X62130D1*
X62154Y43937D1*
X62382Y43923D2*
X62168D1*
X62659Y42893D2*
X62851D1*
Y43209D1*
D30*
Y43406D3*
X62438Y43641D3*
X62413Y43165D3*
X63113Y43070D3*
X62382Y43923D3*
X61955Y43043D3*
X61712Y42737D3*
X62607Y44118D3*
X63044Y43967D3*
D18*
X62154Y43937D3*
Y43426D3*
D19*
X62659Y42893D3*
X62147D3*
D18*
X63368Y43401D3*
Y43913D3*
D20*
X61693D3*
Y43244D3*
D21*
X63977Y43017D3*
Y44017D3*
D23*
X62977Y45017D3*
X61977D3*
X62977Y42017D3*
X61977D3*
D21*
X60977Y43017D3*
Y44017D3*
D19*
X61691Y44393D3*
X62203D3*
X63223Y44398D3*
X62711D3*
D26*
X63048Y43209D3*
X62851D3*
X62655D3*
X63048Y43406D3*
X62851D3*
X62655D3*
X63048Y43603D3*
X62851D3*
X62655D3*
X70297Y44017D2*
D14*
X69792D1*
X69688Y43913D1*
X68975Y43406D2*
X68493D1*
X68474Y43426D1*
X68399D1*
X68191Y43218D1*
Y43168D1*
X68467Y42893D1*
X68275Y43043D2*
X68191D1*
Y43168D1*
X68467Y42893D2*
X68188D1*
X68032Y42737D1*
X68474Y43426D2*
X68121Y43072D1*
X68013D1*
Y43243D1*
Y43244D1*
X67297Y43017D2*
X67787D1*
X68013Y43244D1*
X68975Y43209D2*
X68778D1*
X68733Y43165D1*
X68975Y43603D2*
X68758D1*
Y43641D1*
X69688Y43401D2*
X69395D1*
X69390Y43406D1*
X69368D1*
X70297Y43017D2*
X70072D1*
X69688Y43401D1*
X68927Y44118D2*
X69368Y43677D1*
Y43603D1*
X68297Y45017D2*
Y44679D1*
X68011Y44393D1*
X69171Y43406D2*
D3*
X69297Y45017D2*
Y44644D1*
X69543Y44398D1*
X69364Y43967D2*
Y44218D1*
X69543Y44398D1*
X69368Y43209D2*
Y43135D1*
X69433Y43070D1*
X69171Y43603D2*
Y43629D1*
X68866Y43934D1*
X68477D1*
X68474Y43937D1*
X68523Y44393D2*
X69026D1*
X69031Y44398D1*
X68651D1*
X68190Y43937D1*
X68474D1*
X67297Y44017D2*
X67909D1*
X68013Y43913D1*
X68450D1*
X68474Y43937D1*
X68702Y43923D2*
X68488D1*
X68979Y42893D2*
X69171D1*
Y43209D1*
D30*
Y43406D3*
X68758Y43641D3*
X68733Y43165D3*
X69433Y43070D3*
X68702Y43923D3*
X68275Y43043D3*
X68032Y42737D3*
X68927Y44118D3*
X69364Y43967D3*
D18*
X68474Y43937D3*
Y43426D3*
D19*
X68979Y42893D3*
X68467D3*
D18*
X69688Y43401D3*
Y43913D3*
D20*
X68013D3*
Y43244D3*
D21*
X70297Y43017D3*
Y44017D3*
D23*
X69297Y45017D3*
X68297D3*
X69297Y42017D3*
X68297D3*
D21*
X67297Y43017D3*
Y44017D3*
D19*
X68011Y44393D3*
X68523D3*
X69543Y44398D3*
X69031D3*
D26*
X69368Y43209D3*
X69171D3*
X68975D3*
X69368Y43406D3*
X69171D3*
X68975D3*
X69368Y43603D3*
X69171D3*
X68975D3*
X76617Y44017D2*
D14*
X76112D1*
X76008Y43913D1*
X75295Y43406D2*
X74813D1*
X74794Y43426D1*
X74719D1*
X74511Y43218D1*
Y43168D1*
X74787Y42893D1*
X74595Y43043D2*
X74511D1*
Y43168D1*
X74787Y42893D2*
X74508D1*
X74352Y42737D1*
X74794Y43426D2*
X74441Y43072D1*
X74333D1*
Y43243D1*
Y43244D1*
X73617Y43017D2*
X74107D1*
X74333Y43244D1*
X75295Y43209D2*
X75098D1*
X75053Y43165D1*
X75295Y43603D2*
X75078D1*
Y43641D1*
X76008Y43401D2*
X75715D1*
X75710Y43406D1*
X75688D1*
X76617Y43017D2*
X76392D1*
X76008Y43401D1*
X75247Y44118D2*
X75688Y43677D1*
Y43603D1*
X74617Y45017D2*
Y44679D1*
X74331Y44393D1*
X75491Y43406D2*
D3*
X75617Y45017D2*
Y44644D1*
X75863Y44398D1*
X75684Y43967D2*
Y44218D1*
X75863Y44398D1*
X75688Y43209D2*
Y43135D1*
X75753Y43070D1*
X75491Y43603D2*
Y43629D1*
X75186Y43934D1*
X74797D1*
X74794Y43937D1*
X74843Y44393D2*
X75346D1*
X75351Y44398D1*
X74971D1*
X74510Y43937D1*
X74794D1*
X73617Y44017D2*
X74229D1*
X74333Y43913D1*
X74770D1*
X74794Y43937D1*
X75022Y43923D2*
X74808D1*
X75299Y42893D2*
X75491D1*
Y43209D1*
D30*
Y43406D3*
X75078Y43641D3*
X75053Y43165D3*
X75753Y43070D3*
X75022Y43923D3*
X74595Y43043D3*
X74352Y42737D3*
X75247Y44118D3*
X75684Y43967D3*
D18*
X74794Y43937D3*
Y43426D3*
D19*
X75299Y42893D3*
X74787D3*
D18*
X76008Y43401D3*
Y43913D3*
D20*
X74333D3*
Y43244D3*
D21*
X76617Y43017D3*
Y44017D3*
D23*
X75617Y45017D3*
X74617D3*
X75617Y42017D3*
X74617D3*
D21*
X73617Y43017D3*
Y44017D3*
D19*
X74331Y44393D3*
X74843D3*
X75863Y44398D3*
X75351D3*
D26*
X75688Y43209D3*
X75491D3*
X75295D3*
X75688Y43406D3*
X75491D3*
X75295D3*
X75688Y43603D3*
X75491D3*
X75295D3*
X7097Y50337D2*
D14*
X6592D1*
X6488Y50233D1*
X5775Y49726D2*
X5293D1*
X5274Y49746D1*
X5199D1*
X4991Y49538D1*
Y49488D1*
X5267Y49213D1*
X5075Y49363D2*
X4991D1*
Y49488D1*
X5267Y49213D2*
X4988D1*
X4832Y49057D1*
X5274Y49746D2*
X4921Y49392D1*
X4813D1*
Y49563D1*
Y49564D1*
X4097Y49337D2*
X4587D1*
X4813Y49564D1*
X5775Y49529D2*
X5578D1*
X5533Y49485D1*
X5775Y49923D2*
X5558D1*
Y49961D1*
X6488Y49721D2*
X6195D1*
X6190Y49726D1*
X6168D1*
X7097Y49337D2*
X6872D1*
X6488Y49721D1*
X5727Y50438D2*
X6168Y49997D1*
Y49923D1*
X5097Y51337D2*
Y50999D1*
X4811Y50713D1*
X5971Y49726D2*
D3*
X6097Y51337D2*
Y50964D1*
X6343Y50718D1*
X6164Y50287D2*
Y50538D1*
X6343Y50718D1*
X6168Y49529D2*
Y49455D1*
X6233Y49390D1*
X5971Y49923D2*
Y49949D1*
X5666Y50254D1*
X5277D1*
X5274Y50257D1*
X5323Y50713D2*
X5826D1*
X5831Y50718D1*
X5451D1*
X4990Y50257D1*
X5274D1*
X4097Y50337D2*
X4709D1*
X4813Y50233D1*
X5250D1*
X5274Y50257D1*
X5502Y50243D2*
X5288D1*
X5779Y49213D2*
X5971D1*
Y49529D1*
D30*
Y49726D3*
X5558Y49961D3*
X5533Y49485D3*
X6233Y49390D3*
X5502Y50243D3*
X5075Y49363D3*
X4832Y49057D3*
X5727Y50438D3*
X6164Y50287D3*
D18*
X5274Y50257D3*
Y49746D3*
D19*
X5779Y49213D3*
X5267D3*
D18*
X6488Y49721D3*
Y50233D3*
D20*
X4813D3*
Y49564D3*
D21*
X7097Y49337D3*
Y50337D3*
D23*
X6097Y51337D3*
X5097D3*
X6097Y48337D3*
X5097D3*
D21*
X4097Y49337D3*
Y50337D3*
D19*
X4811Y50713D3*
X5323D3*
X6343Y50718D3*
X5831D3*
D26*
X6168Y49529D3*
X5971D3*
X5775D3*
X6168Y49726D3*
X5971D3*
X5775D3*
X6168Y49923D3*
X5971D3*
X5775D3*
X13417Y50337D2*
D14*
X12912D1*
X12808Y50233D1*
X12095Y49726D2*
X11613D1*
X11594Y49746D1*
X11519D1*
X11311Y49538D1*
Y49488D1*
X11587Y49213D1*
X11395Y49363D2*
X11311D1*
Y49488D1*
X11587Y49213D2*
X11308D1*
X11152Y49057D1*
X11594Y49746D2*
X11241Y49392D1*
X11133D1*
Y49563D1*
Y49564D1*
X10417Y49337D2*
X10907D1*
X11133Y49564D1*
X12095Y49529D2*
X11898D1*
X11853Y49485D1*
X12095Y49923D2*
X11878D1*
Y49961D1*
X12808Y49721D2*
X12515D1*
X12510Y49726D1*
X12488D1*
X13417Y49337D2*
X13192D1*
X12808Y49721D1*
X12047Y50438D2*
X12488Y49997D1*
Y49923D1*
X11417Y51337D2*
Y50999D1*
X11131Y50713D1*
X12291Y49726D2*
D3*
X12417Y51337D2*
Y50964D1*
X12663Y50718D1*
X12484Y50287D2*
Y50538D1*
X12663Y50718D1*
X12488Y49529D2*
Y49455D1*
X12553Y49390D1*
X12291Y49923D2*
Y49949D1*
X11986Y50254D1*
X11597D1*
X11594Y50257D1*
X11643Y50713D2*
X12146D1*
X12151Y50718D1*
X11771D1*
X11310Y50257D1*
X11594D1*
X10417Y50337D2*
X11029D1*
X11133Y50233D1*
X11570D1*
X11594Y50257D1*
X11822Y50243D2*
X11608D1*
X12099Y49213D2*
X12291D1*
Y49529D1*
D30*
Y49726D3*
X11878Y49961D3*
X11853Y49485D3*
X12553Y49390D3*
X11822Y50243D3*
X11395Y49363D3*
X11152Y49057D3*
X12047Y50438D3*
X12484Y50287D3*
D18*
X11594Y50257D3*
Y49746D3*
D19*
X12099Y49213D3*
X11587D3*
D18*
X12808Y49721D3*
Y50233D3*
D20*
X11133D3*
Y49564D3*
D21*
X13417Y49337D3*
Y50337D3*
D23*
X12417Y51337D3*
X11417D3*
X12417Y48337D3*
X11417D3*
D21*
X10417Y49337D3*
Y50337D3*
D19*
X11131Y50713D3*
X11643D3*
X12663Y50718D3*
X12151D3*
D26*
X12488Y49529D3*
X12291D3*
X12095D3*
X12488Y49726D3*
X12291D3*
X12095D3*
X12488Y49923D3*
X12291D3*
X12095D3*
X19737Y50337D2*
D14*
X19232D1*
X19128Y50233D1*
X18415Y49726D2*
X17933D1*
X17914Y49746D1*
X17839D1*
X17631Y49538D1*
Y49488D1*
X17907Y49213D1*
X17715Y49363D2*
X17631D1*
Y49488D1*
X17907Y49213D2*
X17628D1*
X17472Y49057D1*
X17914Y49746D2*
X17561Y49392D1*
X17453D1*
Y49563D1*
Y49564D1*
X16737Y49337D2*
X17227D1*
X17453Y49564D1*
X18415Y49529D2*
X18218D1*
X18173Y49485D1*
X18415Y49923D2*
X18198D1*
Y49961D1*
X19128Y49721D2*
X18835D1*
X18830Y49726D1*
X18808D1*
X19737Y49337D2*
X19512D1*
X19128Y49721D1*
X18367Y50438D2*
X18808Y49997D1*
Y49923D1*
X17737Y51337D2*
Y50999D1*
X17451Y50713D1*
X18611Y49726D2*
D3*
X18737Y51337D2*
Y50964D1*
X18983Y50718D1*
X18804Y50287D2*
Y50538D1*
X18983Y50718D1*
X18808Y49529D2*
Y49455D1*
X18873Y49390D1*
X18611Y49923D2*
Y49949D1*
X18306Y50254D1*
X17917D1*
X17914Y50257D1*
X17963Y50713D2*
X18466D1*
X18471Y50718D1*
X18091D1*
X17630Y50257D1*
X17914D1*
X16737Y50337D2*
X17349D1*
X17453Y50233D1*
X17890D1*
X17914Y50257D1*
X18142Y50243D2*
X17928D1*
X18419Y49213D2*
X18611D1*
Y49529D1*
D30*
Y49726D3*
X18198Y49961D3*
X18173Y49485D3*
X18873Y49390D3*
X18142Y50243D3*
X17715Y49363D3*
X17472Y49057D3*
X18367Y50438D3*
X18804Y50287D3*
D18*
X17914Y50257D3*
Y49746D3*
D19*
X18419Y49213D3*
X17907D3*
D18*
X19128Y49721D3*
Y50233D3*
D20*
X17453D3*
Y49564D3*
D21*
X19737Y49337D3*
Y50337D3*
D23*
X18737Y51337D3*
X17737D3*
X18737Y48337D3*
X17737D3*
D21*
X16737Y49337D3*
Y50337D3*
D19*
X17451Y50713D3*
X17963D3*
X18983Y50718D3*
X18471D3*
D26*
X18808Y49529D3*
X18611D3*
X18415D3*
X18808Y49726D3*
X18611D3*
X18415D3*
X18808Y49923D3*
X18611D3*
X18415D3*
X26057Y50337D2*
D14*
X25552D1*
X25448Y50233D1*
X24735Y49726D2*
X24253D1*
X24234Y49746D1*
X24159D1*
X23951Y49538D1*
Y49488D1*
X24227Y49213D1*
X24035Y49363D2*
X23951D1*
Y49488D1*
X24227Y49213D2*
X23948D1*
X23792Y49057D1*
X24234Y49746D2*
X23881Y49392D1*
X23773D1*
Y49563D1*
Y49564D1*
X23057Y49337D2*
X23547D1*
X23773Y49564D1*
X24735Y49529D2*
X24538D1*
X24493Y49485D1*
X24735Y49923D2*
X24518D1*
Y49961D1*
X25448Y49721D2*
X25155D1*
X25150Y49726D1*
X25128D1*
X26057Y49337D2*
X25832D1*
X25448Y49721D1*
X24687Y50438D2*
X25128Y49997D1*
Y49923D1*
X24057Y51337D2*
Y50999D1*
X23771Y50713D1*
X24931Y49726D2*
D3*
X25057Y51337D2*
Y50964D1*
X25303Y50718D1*
X25124Y50287D2*
Y50538D1*
X25303Y50718D1*
X25128Y49529D2*
Y49455D1*
X25193Y49390D1*
X24931Y49923D2*
Y49949D1*
X24626Y50254D1*
X24237D1*
X24234Y50257D1*
X24283Y50713D2*
X24786D1*
X24791Y50718D1*
X24411D1*
X23950Y50257D1*
X24234D1*
X23057Y50337D2*
X23669D1*
X23773Y50233D1*
X24210D1*
X24234Y50257D1*
X24462Y50243D2*
X24248D1*
X24739Y49213D2*
X24931D1*
Y49529D1*
D30*
Y49726D3*
X24518Y49961D3*
X24493Y49485D3*
X25193Y49390D3*
X24462Y50243D3*
X24035Y49363D3*
X23792Y49057D3*
X24687Y50438D3*
X25124Y50287D3*
D18*
X24234Y50257D3*
Y49746D3*
D19*
X24739Y49213D3*
X24227D3*
D18*
X25448Y49721D3*
Y50233D3*
D20*
X23773D3*
Y49564D3*
D21*
X26057Y49337D3*
Y50337D3*
D23*
X25057Y51337D3*
X24057D3*
X25057Y48337D3*
X24057D3*
D21*
X23057Y49337D3*
Y50337D3*
D19*
X23771Y50713D3*
X24283D3*
X25303Y50718D3*
X24791D3*
D26*
X25128Y49529D3*
X24931D3*
X24735D3*
X25128Y49726D3*
X24931D3*
X24735D3*
X25128Y49923D3*
X24931D3*
X24735D3*
X32377Y50337D2*
D14*
X31872D1*
X31768Y50233D1*
X31055Y49726D2*
X30573D1*
X30554Y49746D1*
X30479D1*
X30271Y49538D1*
Y49488D1*
X30547Y49213D1*
X30355Y49363D2*
X30271D1*
Y49488D1*
X30547Y49213D2*
X30268D1*
X30112Y49057D1*
X30554Y49746D2*
X30201Y49392D1*
X30093D1*
Y49563D1*
Y49564D1*
X29377Y49337D2*
X29867D1*
X30093Y49564D1*
X31055Y49529D2*
X30858D1*
X30813Y49485D1*
X31055Y49923D2*
X30838D1*
Y49961D1*
X31768Y49721D2*
X31475D1*
X31470Y49726D1*
X31448D1*
X32377Y49337D2*
X32152D1*
X31768Y49721D1*
X31007Y50438D2*
X31448Y49997D1*
Y49923D1*
X30377Y51337D2*
Y50999D1*
X30091Y50713D1*
X31251Y49726D2*
D3*
X31377Y51337D2*
Y50964D1*
X31623Y50718D1*
X31444Y50287D2*
Y50538D1*
X31623Y50718D1*
X31448Y49529D2*
Y49455D1*
X31513Y49390D1*
X31251Y49923D2*
Y49949D1*
X30946Y50254D1*
X30557D1*
X30554Y50257D1*
X30603Y50713D2*
X31106D1*
X31111Y50718D1*
X30731D1*
X30270Y50257D1*
X30554D1*
X29377Y50337D2*
X29989D1*
X30093Y50233D1*
X30530D1*
X30554Y50257D1*
X30782Y50243D2*
X30568D1*
X31059Y49213D2*
X31251D1*
Y49529D1*
D30*
Y49726D3*
X30838Y49961D3*
X30813Y49485D3*
X31513Y49390D3*
X30782Y50243D3*
X30355Y49363D3*
X30112Y49057D3*
X31007Y50438D3*
X31444Y50287D3*
D18*
X30554Y50257D3*
Y49746D3*
D19*
X31059Y49213D3*
X30547D3*
D18*
X31768Y49721D3*
Y50233D3*
D20*
X30093D3*
Y49564D3*
D21*
X32377Y49337D3*
Y50337D3*
D23*
X31377Y51337D3*
X30377D3*
X31377Y48337D3*
X30377D3*
D21*
X29377Y49337D3*
Y50337D3*
D19*
X30091Y50713D3*
X30603D3*
X31623Y50718D3*
X31111D3*
D26*
X31448Y49529D3*
X31251D3*
X31055D3*
X31448Y49726D3*
X31251D3*
X31055D3*
X31448Y49923D3*
X31251D3*
X31055D3*
X38697Y50337D2*
D14*
X38192D1*
X38088Y50233D1*
X37375Y49726D2*
X36893D1*
X36874Y49746D1*
X36799D1*
X36591Y49538D1*
Y49488D1*
X36867Y49213D1*
X36675Y49363D2*
X36591D1*
Y49488D1*
X36867Y49213D2*
X36588D1*
X36432Y49057D1*
X36874Y49746D2*
X36521Y49392D1*
X36413D1*
Y49563D1*
Y49564D1*
X35697Y49337D2*
X36187D1*
X36413Y49564D1*
X37375Y49529D2*
X37178D1*
X37133Y49485D1*
X37375Y49923D2*
X37158D1*
Y49961D1*
X38088Y49721D2*
X37795D1*
X37790Y49726D1*
X37768D1*
X38697Y49337D2*
X38472D1*
X38088Y49721D1*
X37327Y50438D2*
X37768Y49997D1*
Y49923D1*
X36697Y51337D2*
Y50999D1*
X36411Y50713D1*
X37571Y49726D2*
D3*
X37697Y51337D2*
Y50964D1*
X37943Y50718D1*
X37764Y50287D2*
Y50538D1*
X37943Y50718D1*
X37768Y49529D2*
Y49455D1*
X37833Y49390D1*
X37571Y49923D2*
Y49949D1*
X37266Y50254D1*
X36877D1*
X36874Y50257D1*
X36923Y50713D2*
X37426D1*
X37431Y50718D1*
X37051D1*
X36590Y50257D1*
X36874D1*
X35697Y50337D2*
X36309D1*
X36413Y50233D1*
X36850D1*
X36874Y50257D1*
X37102Y50243D2*
X36888D1*
X37379Y49213D2*
X37571D1*
Y49529D1*
D30*
Y49726D3*
X37158Y49961D3*
X37133Y49485D3*
X37833Y49390D3*
X37102Y50243D3*
X36675Y49363D3*
X36432Y49057D3*
X37327Y50438D3*
X37764Y50287D3*
D18*
X36874Y50257D3*
Y49746D3*
D19*
X37379Y49213D3*
X36867D3*
D18*
X38088Y49721D3*
Y50233D3*
D20*
X36413D3*
Y49564D3*
D21*
X38697Y49337D3*
Y50337D3*
D23*
X37697Y51337D3*
X36697D3*
X37697Y48337D3*
X36697D3*
D21*
X35697Y49337D3*
Y50337D3*
D19*
X36411Y50713D3*
X36923D3*
X37943Y50718D3*
X37431D3*
D26*
X37768Y49529D3*
X37571D3*
X37375D3*
X37768Y49726D3*
X37571D3*
X37375D3*
X37768Y49923D3*
X37571D3*
X37375D3*
X45017Y50337D2*
D14*
X44512D1*
X44408Y50233D1*
X43695Y49726D2*
X43213D1*
X43194Y49746D1*
X43119D1*
X42911Y49538D1*
Y49488D1*
X43187Y49213D1*
X42995Y49363D2*
X42911D1*
Y49488D1*
X43187Y49213D2*
X42908D1*
X42752Y49057D1*
X43194Y49746D2*
X42841Y49392D1*
X42733D1*
Y49563D1*
Y49564D1*
X42017Y49337D2*
X42507D1*
X42733Y49564D1*
X43695Y49529D2*
X43498D1*
X43453Y49485D1*
X43695Y49923D2*
X43478D1*
Y49961D1*
X44408Y49721D2*
X44115D1*
X44110Y49726D1*
X44088D1*
X45017Y49337D2*
X44792D1*
X44408Y49721D1*
X43647Y50438D2*
X44088Y49997D1*
Y49923D1*
X43017Y51337D2*
Y50999D1*
X42731Y50713D1*
X43891Y49726D2*
D3*
X44017Y51337D2*
Y50964D1*
X44263Y50718D1*
X44084Y50287D2*
Y50538D1*
X44263Y50718D1*
X44088Y49529D2*
Y49455D1*
X44153Y49390D1*
X43891Y49923D2*
Y49949D1*
X43586Y50254D1*
X43197D1*
X43194Y50257D1*
X43243Y50713D2*
X43746D1*
X43751Y50718D1*
X43371D1*
X42910Y50257D1*
X43194D1*
X42017Y50337D2*
X42629D1*
X42733Y50233D1*
X43170D1*
X43194Y50257D1*
X43422Y50243D2*
X43208D1*
X43699Y49213D2*
X43891D1*
Y49529D1*
D30*
Y49726D3*
X43478Y49961D3*
X43453Y49485D3*
X44153Y49390D3*
X43422Y50243D3*
X42995Y49363D3*
X42752Y49057D3*
X43647Y50438D3*
X44084Y50287D3*
D18*
X43194Y50257D3*
Y49746D3*
D19*
X43699Y49213D3*
X43187D3*
D18*
X44408Y49721D3*
Y50233D3*
D20*
X42733D3*
Y49564D3*
D21*
X45017Y49337D3*
Y50337D3*
D23*
X44017Y51337D3*
X43017D3*
X44017Y48337D3*
X43017D3*
D21*
X42017Y49337D3*
Y50337D3*
D19*
X42731Y50713D3*
X43243D3*
X44263Y50718D3*
X43751D3*
D26*
X44088Y49529D3*
X43891D3*
X43695D3*
X44088Y49726D3*
X43891D3*
X43695D3*
X44088Y49923D3*
X43891D3*
X43695D3*
X51337Y50337D2*
D14*
X50832D1*
X50728Y50233D1*
X50015Y49726D2*
X49533D1*
X49514Y49746D1*
X49439D1*
X49231Y49538D1*
Y49488D1*
X49507Y49213D1*
X49315Y49363D2*
X49231D1*
Y49488D1*
X49507Y49213D2*
X49228D1*
X49072Y49057D1*
X49514Y49746D2*
X49161Y49392D1*
X49053D1*
Y49563D1*
Y49564D1*
X48337Y49337D2*
X48827D1*
X49053Y49564D1*
X50015Y49529D2*
X49818D1*
X49773Y49485D1*
X50015Y49923D2*
X49798D1*
Y49961D1*
X50728Y49721D2*
X50435D1*
X50430Y49726D1*
X50408D1*
X51337Y49337D2*
X51112D1*
X50728Y49721D1*
X49967Y50438D2*
X50408Y49997D1*
Y49923D1*
X49337Y51337D2*
Y50999D1*
X49051Y50713D1*
X50211Y49726D2*
D3*
X50337Y51337D2*
Y50964D1*
X50583Y50718D1*
X50404Y50287D2*
Y50538D1*
X50583Y50718D1*
X50408Y49529D2*
Y49455D1*
X50473Y49390D1*
X50211Y49923D2*
Y49949D1*
X49906Y50254D1*
X49517D1*
X49514Y50257D1*
X49563Y50713D2*
X50066D1*
X50071Y50718D1*
X49691D1*
X49230Y50257D1*
X49514D1*
X48337Y50337D2*
X48949D1*
X49053Y50233D1*
X49490D1*
X49514Y50257D1*
X49742Y50243D2*
X49528D1*
X50019Y49213D2*
X50211D1*
Y49529D1*
D30*
Y49726D3*
X49798Y49961D3*
X49773Y49485D3*
X50473Y49390D3*
X49742Y50243D3*
X49315Y49363D3*
X49072Y49057D3*
X49967Y50438D3*
X50404Y50287D3*
D18*
X49514Y50257D3*
Y49746D3*
D19*
X50019Y49213D3*
X49507D3*
D18*
X50728Y49721D3*
Y50233D3*
D20*
X49053D3*
Y49564D3*
D21*
X51337Y49337D3*
Y50337D3*
D23*
X50337Y51337D3*
X49337D3*
X50337Y48337D3*
X49337D3*
D21*
X48337Y49337D3*
Y50337D3*
D19*
X49051Y50713D3*
X49563D3*
X50583Y50718D3*
X50071D3*
D26*
X50408Y49529D3*
X50211D3*
X50015D3*
X50408Y49726D3*
X50211D3*
X50015D3*
X50408Y49923D3*
X50211D3*
X50015D3*
X57657Y50337D2*
D14*
X57152D1*
X57048Y50233D1*
X56335Y49726D2*
X55853D1*
X55834Y49746D1*
X55759D1*
X55551Y49538D1*
Y49488D1*
X55827Y49213D1*
X55635Y49363D2*
X55551D1*
Y49488D1*
X55827Y49213D2*
X55548D1*
X55392Y49057D1*
X55834Y49746D2*
X55481Y49392D1*
X55373D1*
Y49563D1*
Y49564D1*
X54657Y49337D2*
X55147D1*
X55373Y49564D1*
X56335Y49529D2*
X56138D1*
X56093Y49485D1*
X56335Y49923D2*
X56118D1*
Y49961D1*
X57048Y49721D2*
X56755D1*
X56750Y49726D1*
X56728D1*
X57657Y49337D2*
X57432D1*
X57048Y49721D1*
X56287Y50438D2*
X56728Y49997D1*
Y49923D1*
X55657Y51337D2*
Y50999D1*
X55371Y50713D1*
X56531Y49726D2*
D3*
X56657Y51337D2*
Y50964D1*
X56903Y50718D1*
X56724Y50287D2*
Y50538D1*
X56903Y50718D1*
X56728Y49529D2*
Y49455D1*
X56793Y49390D1*
X56531Y49923D2*
Y49949D1*
X56226Y50254D1*
X55837D1*
X55834Y50257D1*
X55883Y50713D2*
X56386D1*
X56391Y50718D1*
X56011D1*
X55550Y50257D1*
X55834D1*
X54657Y50337D2*
X55269D1*
X55373Y50233D1*
X55810D1*
X55834Y50257D1*
X56062Y50243D2*
X55848D1*
X56339Y49213D2*
X56531D1*
Y49529D1*
D30*
Y49726D3*
X56118Y49961D3*
X56093Y49485D3*
X56793Y49390D3*
X56062Y50243D3*
X55635Y49363D3*
X55392Y49057D3*
X56287Y50438D3*
X56724Y50287D3*
D18*
X55834Y50257D3*
Y49746D3*
D19*
X56339Y49213D3*
X55827D3*
D18*
X57048Y49721D3*
Y50233D3*
D20*
X55373D3*
Y49564D3*
D21*
X57657Y49337D3*
Y50337D3*
D23*
X56657Y51337D3*
X55657D3*
X56657Y48337D3*
X55657D3*
D21*
X54657Y49337D3*
Y50337D3*
D19*
X55371Y50713D3*
X55883D3*
X56903Y50718D3*
X56391D3*
D26*
X56728Y49529D3*
X56531D3*
X56335D3*
X56728Y49726D3*
X56531D3*
X56335D3*
X56728Y49923D3*
X56531D3*
X56335D3*
X63977Y50337D2*
D14*
X63472D1*
X63368Y50233D1*
X62655Y49726D2*
X62173D1*
X62154Y49746D1*
X62079D1*
X61871Y49538D1*
Y49488D1*
X62147Y49213D1*
X61955Y49363D2*
X61871D1*
Y49488D1*
X62147Y49213D2*
X61868D1*
X61712Y49057D1*
X62154Y49746D2*
X61801Y49392D1*
X61693D1*
Y49563D1*
Y49564D1*
X60977Y49337D2*
X61467D1*
X61693Y49564D1*
X62655Y49529D2*
X62458D1*
X62413Y49485D1*
X62655Y49923D2*
X62438D1*
Y49961D1*
X63368Y49721D2*
X63075D1*
X63070Y49726D1*
X63048D1*
X63977Y49337D2*
X63752D1*
X63368Y49721D1*
X62607Y50438D2*
X63048Y49997D1*
Y49923D1*
X61977Y51337D2*
Y50999D1*
X61691Y50713D1*
X62851Y49726D2*
D3*
X62977Y51337D2*
Y50964D1*
X63223Y50718D1*
X63044Y50287D2*
Y50538D1*
X63223Y50718D1*
X63048Y49529D2*
Y49455D1*
X63113Y49390D1*
X62851Y49923D2*
Y49949D1*
X62546Y50254D1*
X62157D1*
X62154Y50257D1*
X62203Y50713D2*
X62706D1*
X62711Y50718D1*
X62331D1*
X61870Y50257D1*
X62154D1*
X60977Y50337D2*
X61589D1*
X61693Y50233D1*
X62130D1*
X62154Y50257D1*
X62382Y50243D2*
X62168D1*
X62659Y49213D2*
X62851D1*
Y49529D1*
D30*
Y49726D3*
X62438Y49961D3*
X62413Y49485D3*
X63113Y49390D3*
X62382Y50243D3*
X61955Y49363D3*
X61712Y49057D3*
X62607Y50438D3*
X63044Y50287D3*
D18*
X62154Y50257D3*
Y49746D3*
D19*
X62659Y49213D3*
X62147D3*
D18*
X63368Y49721D3*
Y50233D3*
D20*
X61693D3*
Y49564D3*
D21*
X63977Y49337D3*
Y50337D3*
D23*
X62977Y51337D3*
X61977D3*
X62977Y48337D3*
X61977D3*
D21*
X60977Y49337D3*
Y50337D3*
D19*
X61691Y50713D3*
X62203D3*
X63223Y50718D3*
X62711D3*
D26*
X63048Y49529D3*
X62851D3*
X62655D3*
X63048Y49726D3*
X62851D3*
X62655D3*
X63048Y49923D3*
X62851D3*
X62655D3*
X70297Y50337D2*
D14*
X69792D1*
X69688Y50233D1*
X68975Y49726D2*
X68493D1*
X68474Y49746D1*
X68399D1*
X68191Y49538D1*
Y49488D1*
X68467Y49213D1*
X68275Y49363D2*
X68191D1*
Y49488D1*
X68467Y49213D2*
X68188D1*
X68032Y49057D1*
X68474Y49746D2*
X68121Y49392D1*
X68013D1*
Y49563D1*
Y49564D1*
X67297Y49337D2*
X67787D1*
X68013Y49564D1*
X68975Y49529D2*
X68778D1*
X68733Y49485D1*
X68975Y49923D2*
X68758D1*
Y49961D1*
X69688Y49721D2*
X69395D1*
X69390Y49726D1*
X69368D1*
X70297Y49337D2*
X70072D1*
X69688Y49721D1*
X68927Y50438D2*
X69368Y49997D1*
Y49923D1*
X68297Y51337D2*
Y50999D1*
X68011Y50713D1*
X69171Y49726D2*
D3*
X69297Y51337D2*
Y50964D1*
X69543Y50718D1*
X69364Y50287D2*
Y50538D1*
X69543Y50718D1*
X69368Y49529D2*
Y49455D1*
X69433Y49390D1*
X69171Y49923D2*
Y49949D1*
X68866Y50254D1*
X68477D1*
X68474Y50257D1*
X68523Y50713D2*
X69026D1*
X69031Y50718D1*
X68651D1*
X68190Y50257D1*
X68474D1*
X67297Y50337D2*
X67909D1*
X68013Y50233D1*
X68450D1*
X68474Y50257D1*
X68702Y50243D2*
X68488D1*
X68979Y49213D2*
X69171D1*
Y49529D1*
D30*
Y49726D3*
X68758Y49961D3*
X68733Y49485D3*
X69433Y49390D3*
X68702Y50243D3*
X68275Y49363D3*
X68032Y49057D3*
X68927Y50438D3*
X69364Y50287D3*
D18*
X68474Y50257D3*
Y49746D3*
D19*
X68979Y49213D3*
X68467D3*
D18*
X69688Y49721D3*
Y50233D3*
D20*
X68013D3*
Y49564D3*
D21*
X70297Y49337D3*
Y50337D3*
D23*
X69297Y51337D3*
X68297D3*
X69297Y48337D3*
X68297D3*
D21*
X67297Y49337D3*
Y50337D3*
D19*
X68011Y50713D3*
X68523D3*
X69543Y50718D3*
X69031D3*
D26*
X69368Y49529D3*
X69171D3*
X68975D3*
X69368Y49726D3*
X69171D3*
X68975D3*
X69368Y49923D3*
X69171D3*
X68975D3*
X76617Y50337D2*
D14*
X76112D1*
X76008Y50233D1*
X75295Y49726D2*
X74813D1*
X74794Y49746D1*
X74719D1*
X74511Y49538D1*
Y49488D1*
X74787Y49213D1*
X74595Y49363D2*
X74511D1*
Y49488D1*
X74787Y49213D2*
X74508D1*
X74352Y49057D1*
X74794Y49746D2*
X74441Y49392D1*
X74333D1*
Y49563D1*
Y49564D1*
X73617Y49337D2*
X74107D1*
X74333Y49564D1*
X75295Y49529D2*
X75098D1*
X75053Y49485D1*
X75295Y49923D2*
X75078D1*
Y49961D1*
X76008Y49721D2*
X75715D1*
X75710Y49726D1*
X75688D1*
X76617Y49337D2*
X76392D1*
X76008Y49721D1*
X75247Y50438D2*
X75688Y49997D1*
Y49923D1*
X74617Y51337D2*
Y50999D1*
X74331Y50713D1*
X75491Y49726D2*
D3*
X75617Y51337D2*
Y50964D1*
X75863Y50718D1*
X75684Y50287D2*
Y50538D1*
X75863Y50718D1*
X75688Y49529D2*
Y49455D1*
X75753Y49390D1*
X75491Y49923D2*
Y49949D1*
X75186Y50254D1*
X74797D1*
X74794Y50257D1*
X74843Y50713D2*
X75346D1*
X75351Y50718D1*
X74971D1*
X74510Y50257D1*
X74794D1*
X73617Y50337D2*
X74229D1*
X74333Y50233D1*
X74770D1*
X74794Y50257D1*
X75022Y50243D2*
X74808D1*
X75299Y49213D2*
X75491D1*
Y49529D1*
D30*
Y49726D3*
X75078Y49961D3*
X75053Y49485D3*
X75753Y49390D3*
X75022Y50243D3*
X74595Y49363D3*
X74352Y49057D3*
X75247Y50438D3*
X75684Y50287D3*
D18*
X74794Y50257D3*
Y49746D3*
D19*
X75299Y49213D3*
X74787D3*
D18*
X76008Y49721D3*
Y50233D3*
D20*
X74333D3*
Y49564D3*
D21*
X76617Y49337D3*
Y50337D3*
D23*
X75617Y51337D3*
X74617D3*
X75617Y48337D3*
X74617D3*
D21*
X73617Y49337D3*
Y50337D3*
D19*
X74331Y50713D3*
X74843D3*
X75863Y50718D3*
X75351D3*
D26*
X75688Y49529D3*
X75491D3*
X75295D3*
X75688Y49726D3*
X75491D3*
X75295D3*
X75688Y49923D3*
X75491D3*
X75295D3*
M02*
