G04 DipTrace 2.4.0.2*
%INDRV2605.gtl*%
%MOIN*%
%ADD13C,0.01*%
%ADD15R,0.0276X0.0354*%
%ADD16R,0.0354X0.0276*%
%ADD17R,0.08X0.0669*%
%ADD19R,0.0669X0.08*%
%ADD22C,0.0098*%
%ADD23C,0.018*%
%FSLAX44Y44*%
G04*
G70*
G90*
G75*
G01*
%LNTop*%
%LPD*%
X6938Y5937D2*
D13*
X6291D1*
X6183Y5830D1*
X3938Y4937D2*
X4343D1*
X4853Y5447D1*
X5378Y5326D2*
X4974D1*
X4853Y5447D1*
X4832D1*
Y5202D1*
Y4912D1*
X5066Y4677D1*
X4831Y5202D2*
X4832D1*
X5066Y4677D2*
X4799D1*
X4798Y4678D1*
X5378Y5129D2*
X5138D1*
X5034Y5026D1*
X5578Y4677D2*
Y5129D1*
X5575D1*
X6183Y5318D2*
X6039D1*
X6031Y5326D1*
X5771D1*
X6938Y4937D2*
X6564D1*
X6183Y5318D1*
X5771Y5523D2*
Y6103D1*
X4938Y6937D1*
X5378Y5523D2*
X5249D1*
X5176Y5597D1*
X5575Y5523D2*
Y5632D1*
X5353Y5854D1*
X4867D1*
Y5972D1*
X4853Y5959D1*
X3959D1*
X3938Y5937D1*
X5771Y5129D2*
Y5049D1*
X5938Y4883D1*
X5382Y5815D2*
X5353Y5854D1*
X5575Y5326D2*
D3*
D23*
X5581Y5333D3*
X5176Y5597D3*
X5034Y5026D3*
X5938Y4883D3*
X5382Y5815D3*
X4831Y5202D3*
X4798Y4678D3*
D15*
X4853Y5959D3*
Y5447D3*
D16*
X5578Y4677D3*
X5066D3*
D15*
X6183Y5318D3*
Y5830D3*
D17*
X6938Y4937D3*
Y5937D3*
D19*
X5938Y6937D3*
X4938D3*
X5938Y3937D3*
X4938D3*
D17*
X3938Y4937D3*
Y5937D3*
D22*
X5771Y5129D3*
X5575D3*
X5378D3*
X5771Y5326D3*
X5575D3*
X5378D3*
X5771Y5523D3*
X5575D3*
X5378D3*
M02*
