M48
INCH
T01C0.01
T02C0.0433
T03C0.0492
%
T01
X+005971Y+005486
X+006233Y+005150
X+005533Y+005245
X+005075Y+005123
X+004832Y+004817
X+005558Y+005721
X+005502Y+006003
X+005727Y+006198
X+006164Y+006047
X+011152Y+004817
X+011395Y+005123
X+011853Y+005245
X+011878Y+005721
X+011822Y+006003
X+012047Y+006198
X+012484Y+006047
X+012291Y+005486
X+012553Y+005150
X+017472Y+004817
X+017715Y+005123
X+018173Y+005245
X+018198Y+005721
X+018142Y+006003
X+018367Y+006198
X+018804Y+006047
X+018611Y+005486
X+018873Y+005150
X+023792Y+004817
X+024035Y+005123
X+024493Y+005245
X+024518Y+005721
X+024462Y+006003
X+024687Y+006198
X+025124Y+006047
X+024931Y+005486
X+025193Y+005150
X+030112Y+004817
X+030355Y+005123
X+030813Y+005245
X+030838Y+005721
X+030782Y+006003
X+031007Y+006198
X+031444Y+006047
X+031251Y+005486
X+031513Y+005150
X+036432Y+004817
X+036675Y+005123
X+037133Y+005245
X+037158Y+005721
X+037102Y+006003
X+037327Y+006198
X+037764Y+006047
X+037571Y+005486
X+037833Y+005150
X+042752Y+004817
X+042995Y+005123
X+043453Y+005245
X+043478Y+005721
X+043422Y+006003
X+043647Y+006198
X+044084Y+006047
X+043891Y+005486
X+044153Y+005150
X+049072Y+004817
X+049315Y+005123
X+049773Y+005245
X+049798Y+005721
X+049742Y+006003
X+049967Y+006198
X+050404Y+006047
X+050211Y+005486
X+050473Y+005150
X+055392Y+004817
X+055635Y+005123
X+056093Y+005245
X+056118Y+005721
X+056062Y+006003
X+056287Y+006198
X+056724Y+006047
X+056531Y+005486
X+056793Y+005150
X+061712Y+004817
X+061955Y+005123
X+062413Y+005245
X+062438Y+005721
X+062382Y+006003
X+062607Y+006198
X+063044Y+006047
X+062851Y+005486
X+063113Y+005150
X+068032Y+004817
X+068275Y+005123
X+068733Y+005245
X+068758Y+005721
X+068702Y+006003
X+068927Y+006198
X+069364Y+006047
X+069171Y+005486
X+069433Y+005150
X+074352Y+004817
X+074595Y+005123
X+075053Y+005245
X+075078Y+005721
X+075022Y+006003
X+075247Y+006198
X+075684Y+006047
X+075491Y+005486
X+075753Y+005150
X+074352Y+011137
X+074595Y+011443
X+075053Y+011565
X+075078Y+012041
X+075022Y+012323
X+075247Y+012518
X+075684Y+012367
X+075491Y+011806
X+075753Y+011470
X+074352Y+017457
X+074595Y+017763
X+075053Y+017885
X+075078Y+018361
X+075022Y+018643
X+075247Y+018838
X+075684Y+018687
X+075491Y+018126
X+075753Y+017790
X+074352Y+023777
X+074595Y+024083
X+075053Y+024205
X+075078Y+024681
X+075022Y+024963
X+075247Y+025158
X+075684Y+025007
X+075491Y+024446
X+075753Y+024110
X+074352Y+030097
X+074595Y+030403
X+075053Y+030525
X+075078Y+031001
X+075022Y+031283
X+075247Y+031478
X+075684Y+031327
X+075491Y+030766
X+075753Y+030430
X+074352Y+036417
X+074595Y+036723
X+075053Y+036845
X+075078Y+037321
X+075022Y+037603
X+075247Y+037798
X+075684Y+037647
X+075491Y+037086
X+075753Y+036750
X+074352Y+042737
X+074595Y+043043
X+075053Y+043165
X+075078Y+043641
X+075022Y+043923
X+075247Y+044118
X+075684Y+043967
X+075491Y+043406
X+075753Y+043070
X+074352Y+049057
X+074595Y+049363
X+075053Y+049485
X+075078Y+049961
X+075022Y+050243
X+075247Y+050438
X+075684Y+050287
X+075491Y+049726
X+075753Y+049390
X+069433Y+049390
X+069171Y+049726
X+068758Y+049961
X+068702Y+050243
X+068927Y+050438
X+069364Y+050287
X+068733Y+049485
X+068275Y+049363
X+068032Y+049057
X+063113Y+049390
X+062851Y+049726
X+062438Y+049961
X+062382Y+050243
X+062607Y+050438
X+063044Y+050287
X+062413Y+049485
X+061955Y+049363
X+061712Y+049057
X+056793Y+049390
X+056531Y+049726
X+056118Y+049961
X+056062Y+050243
X+056287Y+050438
X+056724Y+050287
X+056093Y+049485
X+055635Y+049363
X+055392Y+049057
X+050473Y+049390
X+050211Y+049726
X+049798Y+049961
X+049742Y+050243
X+049967Y+050438
X+050404Y+050287
X+049773Y+049485
X+049315Y+049363
X+049072Y+049057
X+044153Y+049390
X+043891Y+049726
X+043478Y+049961
X+043422Y+050243
X+043647Y+050438
X+044084Y+050287
X+043453Y+049485
X+042995Y+049363
X+042752Y+049057
X+037833Y+049390
X+037571Y+049726
X+037158Y+049961
X+037102Y+050243
X+037327Y+050438
X+037764Y+050287
X+037133Y+049485
X+036675Y+049363
X+036432Y+049057
X+031513Y+049390
X+031251Y+049726
X+030838Y+049961
X+030782Y+050243
X+031007Y+050438
X+031444Y+050287
X+030813Y+049485
X+030355Y+049363
X+030112Y+049057
X+025193Y+049390
X+024931Y+049726
X+024518Y+049961
X+024462Y+050243
X+024687Y+050438
X+025124Y+050287
X+024493Y+049485
X+024035Y+049363
X+023792Y+049057
X+018873Y+049390
X+018611Y+049726
X+018198Y+049961
X+018142Y+050243
X+018367Y+050438
X+018804Y+050287
X+018173Y+049485
X+017715Y+049363
X+017472Y+049057
X+012553Y+049390
X+012291Y+049726
X+011878Y+049961
X+011822Y+050243
X+012047Y+050438
X+012484Y+050287
X+011853Y+049485
X+011395Y+049363
X+011152Y+049057
X+006233Y+049390
X+005971Y+049726
X+005558Y+049961
X+005502Y+050243
X+005727Y+050438
X+006164Y+050287
X+005533Y+049485
X+005075Y+049363
X+004832Y+049057
X+005727Y+044118
X+005502Y+043923
X+005558Y+043641
X+005971Y+043406
X+006233Y+043070
X+005533Y+043165
X+005075Y+043043
X+004832Y+042737
X+006164Y+043967
X+011152Y+042737
X+011395Y+043043
X+011853Y+043165
X+011878Y+043641
X+011822Y+043923
X+012047Y+044118
X+012484Y+043967
X+012291Y+043406
X+012553Y+043070
X+017472Y+042737
X+017715Y+043043
X+018173Y+043165
X+018198Y+043641
X+018142Y+043923
X+018367Y+044118
X+018804Y+043967
X+018611Y+043406
X+018873Y+043070
X+023792Y+042737
X+024035Y+043043
X+024493Y+043165
X+024518Y+043641
X+024462Y+043923
X+024687Y+044118
X+025124Y+043967
X+024931Y+043406
X+025193Y+043070
X+030112Y+042737
X+030355Y+043043
X+030813Y+043165
X+030838Y+043641
X+030782Y+043923
X+031007Y+044118
X+031444Y+043967
X+031251Y+043406
X+031513Y+043070
X+036432Y+042737
X+036675Y+043043
X+037133Y+043165
X+037158Y+043641
X+037102Y+043923
X+037327Y+044118
X+037764Y+043967
X+037571Y+043406
X+037833Y+043070
X+042752Y+042737
X+042995Y+043043
X+043453Y+043165
X+043478Y+043641
X+043422Y+043923
X+043647Y+044118
X+044084Y+043967
X+043891Y+043406
X+044153Y+043070
X+049072Y+042737
X+049315Y+043043
X+049773Y+043165
X+049798Y+043641
X+049742Y+043923
X+049967Y+044118
X+050404Y+043967
X+050211Y+043406
X+050473Y+043070
X+055392Y+042737
X+055635Y+043043
X+056093Y+043165
X+056118Y+043641
X+056062Y+043923
X+056287Y+044118
X+056724Y+043967
X+056531Y+043406
X+056793Y+043070
X+061712Y+042737
X+061955Y+043043
X+062413Y+043165
X+062438Y+043641
X+062382Y+043923
X+062607Y+044118
X+063044Y+043967
X+062851Y+043406
X+063113Y+043070
X+068032Y+042737
X+068275Y+043043
X+068733Y+043165
X+068758Y+043641
X+068702Y+043923
X+068927Y+044118
X+069364Y+043967
X+069171Y+043406
X+069433Y+043070
X+068927Y+037798
X+068702Y+037603
X+068758Y+037321
X+069171Y+037086
X+069433Y+036750
X+068733Y+036845
X+068275Y+036723
X+068032Y+036417
X+069364Y+037647
X+068927Y+031478
X+068702Y+031283
X+068758Y+031001
X+069171Y+030766
X+069433Y+030430
X+068733Y+030525
X+068275Y+030403
X+068032Y+030097
X+069364Y+031327
X+068927Y+025158
X+068702Y+024963
X+068758Y+024681
X+069171Y+024446
X+069433Y+024110
X+068733Y+024205
X+068275Y+024083
X+068032Y+023777
X+069364Y+025007
X+068927Y+018838
X+068702Y+018643
X+068758Y+018361
X+069171Y+018126
X+069433Y+017790
X+068733Y+017885
X+068275Y+017763
X+068032Y+017457
X+069364Y+018687
X+068927Y+012518
X+068702Y+012323
X+068758Y+012041
X+069171Y+011806
X+069433Y+011470
X+068733Y+011565
X+068275Y+011443
X+068032Y+011137
X+069364Y+012367
X+063113Y+011470
X+062851Y+011806
X+062438Y+012041
X+062382Y+012323
X+062607Y+012518
X+063044Y+012367
X+062413Y+011565
X+061955Y+011443
X+061712Y+011137
X+056793Y+011470
X+056531Y+011806
X+056118Y+012041
X+056062Y+012323
X+056287Y+012518
X+056724Y+012367
X+056093Y+011565
X+055635Y+011443
X+055392Y+011137
X+050473Y+011470
X+050211Y+011806
X+049798Y+012041
X+049742Y+012323
X+049967Y+012518
X+050404Y+012367
X+049773Y+011565
X+049315Y+011443
X+049072Y+011137
X+044153Y+011470
X+043891Y+011806
X+043478Y+012041
X+043422Y+012323
X+043647Y+012518
X+044084Y+012367
X+043453Y+011565
X+042995Y+011443
X+042752Y+011137
X+037833Y+011470
X+037571Y+011806
X+037158Y+012041
X+037102Y+012323
X+037327Y+012518
X+037764Y+012367
X+037133Y+011565
X+036675Y+011443
X+036432Y+011137
X+031513Y+011470
X+031251Y+011806
X+030838Y+012041
X+030782Y+012323
X+031007Y+012518
X+031444Y+012367
X+030813Y+011565
X+030355Y+011443
X+030112Y+011137
X+025193Y+011470
X+024931Y+011806
X+024518Y+012041
X+024462Y+012323
X+024687Y+012518
X+025124Y+012367
X+024493Y+011565
X+024035Y+011443
X+023792Y+011137
X+018873Y+011470
X+018611Y+011806
X+018198Y+012041
X+018142Y+012323
X+018367Y+012518
X+018804Y+012367
X+018173Y+011565
X+017715Y+011443
X+017472Y+011137
X+012553Y+011470
X+012291Y+011806
X+011878Y+012041
X+011822Y+012323
X+012047Y+012518
X+012484Y+012367
X+011853Y+011565
X+011395Y+011443
X+011152Y+011137
X+006233Y+011470
X+005971Y+011806
X+005558Y+012041
X+005502Y+012323
X+005727Y+012518
X+006164Y+012367
X+005533Y+011565
X+005075Y+011443
X+004832Y+011137
X+004832Y+017457
X+005075Y+017763
X+005533Y+017885
X+005558Y+018361
X+005502Y+018643
X+005727Y+018838
X+006164Y+018687
X+005971Y+018126
X+006233Y+017790
X+011152Y+017457
X+011395Y+017763
X+011853Y+017885
X+011878Y+018361
X+011822Y+018643
X+012047Y+018838
X+012484Y+018687
X+012291Y+018126
X+012553Y+017790
X+017472Y+017457
X+017715Y+017763
X+018173Y+017885
X+018198Y+018361
X+018142Y+018643
X+018367Y+018838
X+018804Y+018687
X+018611Y+018126
X+018873Y+017790
X+023792Y+017457
X+024035Y+017763
X+024493Y+017885
X+024518Y+018361
X+024462Y+018643
X+024687Y+018838
X+025124Y+018687
X+024931Y+018126
X+025193Y+017790
X+030112Y+017457
X+030355Y+017763
X+030813Y+017885
X+030838Y+018361
X+030782Y+018643
X+031007Y+018838
X+031444Y+018687
X+031251Y+018126
X+031513Y+017790
X+036432Y+017457
X+036675Y+017763
X+037133Y+017885
X+037158Y+018361
X+037102Y+018643
X+037327Y+018838
X+037764Y+018687
X+037571Y+018126
X+037833Y+017790
X+042752Y+017457
X+042995Y+017763
X+043453Y+017885
X+043478Y+018361
X+043422Y+018643
X+043647Y+018838
X+044084Y+018687
X+043891Y+018126
X+044153Y+017790
X+049072Y+017457
X+049315Y+017763
X+049773Y+017885
X+049798Y+018361
X+049742Y+018643
X+049967Y+018838
X+050404Y+018687
X+050211Y+018126
X+050473Y+017790
X+055392Y+017457
X+055635Y+017763
X+056093Y+017885
X+056118Y+018361
X+056062Y+018643
X+056287Y+018838
X+056724Y+018687
X+056531Y+018126
X+056793Y+017790
X+061712Y+017457
X+061955Y+017763
X+062413Y+017885
X+062438Y+018361
X+062382Y+018643
X+062607Y+018838
X+063044Y+018687
X+062851Y+018126
X+063113Y+017790
X+061712Y+023777
X+061955Y+024083
X+062413Y+024205
X+062438Y+024681
X+062382Y+024963
X+062607Y+025158
X+063044Y+025007
X+062851Y+024446
X+063113Y+024110
X+061712Y+030097
X+061955Y+030403
X+062413Y+030525
X+062438Y+031001
X+062382Y+031283
X+062607Y+031478
X+063044Y+031327
X+062851Y+030766
X+063113Y+030430
X+061712Y+036417
X+061955Y+036723
X+062413Y+036845
X+062438Y+037321
X+062382Y+037603
X+062607Y+037798
X+063044Y+037647
X+062851Y+037086
X+063113Y+036750
X+056793Y+036750
X+056531Y+037086
X+056118Y+037321
X+056062Y+037603
X+056287Y+037798
X+056724Y+037647
X+056093Y+036845
X+055635Y+036723
X+055392Y+036417
X+050473Y+036750
X+050211Y+037086
X+049798Y+037321
X+049742Y+037603
X+049967Y+037798
X+050404Y+037647
X+049773Y+036845
X+049315Y+036723
X+049072Y+036417
X+044153Y+036750
X+043891Y+037086
X+043478Y+037321
X+043422Y+037603
X+043647Y+037798
X+044084Y+037647
X+043453Y+036845
X+042995Y+036723
X+042752Y+036417
X+037833Y+036750
X+037571Y+037086
X+037158Y+037321
X+037102Y+037603
X+037327Y+037798
X+037764Y+037647
X+037133Y+036845
X+036675Y+036723
X+036432Y+036417
X+031513Y+036750
X+031251Y+037086
X+030838Y+037321
X+030782Y+037603
X+031007Y+037798
X+031444Y+037647
X+030813Y+036845
X+030355Y+036723
X+030112Y+036417
X+025193Y+036750
X+024931Y+037086
X+024518Y+037321
X+024462Y+037603
X+024687Y+037798
X+025124Y+037647
X+024493Y+036845
X+024035Y+036723
X+023792Y+036417
X+018873Y+036750
X+018611Y+037086
X+018198Y+037321
X+018142Y+037603
X+018367Y+037798
X+018804Y+037647
X+018173Y+036845
X+017715Y+036723
X+017472Y+036417
X+012553Y+036750
X+012291Y+037086
X+011878Y+037321
X+011822Y+037603
X+012047Y+037798
X+012484Y+037647
X+011853Y+036845
X+011395Y+036723
X+011152Y+036417
X+006233Y+036750
X+005971Y+037086
X+005558Y+037321
X+005502Y+037603
X+005727Y+037798
X+006164Y+037647
X+005533Y+036845
X+005075Y+036723
X+004832Y+036417
X+005727Y+031478
X+005502Y+031283
X+005558Y+031001
X+005971Y+030766
X+006233Y+030430
X+005533Y+030525
X+005075Y+030403
X+004832Y+030097
X+006164Y+031327
X+011152Y+030097
X+011395Y+030403
X+011853Y+030525
X+011878Y+031001
X+011822Y+031283
X+012047Y+031478
X+012484Y+031327
X+012291Y+030766
X+012553Y+030430
X+017472Y+030097
X+017715Y+030403
X+018173Y+030525
X+018198Y+031001
X+018142Y+031283
X+018367Y+031478
X+018804Y+031327
X+018611Y+030766
X+018873Y+030430
X+023792Y+030097
X+024035Y+030403
X+024493Y+030525
X+024518Y+031001
X+024462Y+031283
X+024687Y+031478
X+025124Y+031327
X+024931Y+030766
X+025193Y+030430
X+030112Y+030097
X+030355Y+030403
X+030813Y+030525
X+030838Y+031001
X+030782Y+031283
X+031007Y+031478
X+031444Y+031327
X+031251Y+030766
X+031513Y+030430
X+036432Y+030097
X+036675Y+030403
X+037133Y+030525
X+037158Y+031001
X+037102Y+031283
X+037327Y+031478
X+037764Y+031327
X+037571Y+030766
X+037833Y+030430
X+042752Y+030097
X+042995Y+030403
X+043453Y+030525
X+043478Y+031001
X+043422Y+031283
X+043647Y+031478
X+044084Y+031327
X+043891Y+030766
X+044153Y+030430
X+049072Y+030097
X+049315Y+030403
X+049773Y+030525
X+049798Y+031001
X+049742Y+031283
X+049967Y+031478
X+050404Y+031327
X+050211Y+030766
X+050473Y+030430
X+055392Y+030097
X+055635Y+030403
X+056093Y+030525
X+056118Y+031001
X+056062Y+031283
X+056287Y+031478
X+056724Y+031327
X+056531Y+030766
X+056793Y+030430
X+056287Y+025158
X+056062Y+024963
X+056118Y+024681
X+056531Y+024446
X+056793Y+024110
X+056093Y+024205
X+055635Y+024083
X+055392Y+023777
X+056724Y+025007
X+050473Y+024110
X+050211Y+024446
X+049798Y+024681
X+049742Y+024963
X+049967Y+025158
X+050404Y+025007
X+049773Y+024205
X+049315Y+024083
X+049072Y+023777
X+044153Y+024110
X+043891Y+024446
X+043478Y+024681
X+043422Y+024963
X+043647Y+025158
X+044084Y+025007
X+043453Y+024205
X+042995Y+024083
X+042752Y+023777
X+037833Y+024110
X+037571Y+024446
X+037158Y+024681
X+037102Y+024963
X+037327Y+025158
X+037764Y+025007
X+037133Y+024205
X+036675Y+024083
X+036432Y+023777
X+031513Y+024110
X+031251Y+024446
X+030838Y+024681
X+030782Y+024963
X+031007Y+025158
X+031444Y+025007
X+030813Y+024205
X+030355Y+024083
X+030112Y+023777
X+025193Y+024110
X+024931Y+024446
X+024518Y+024681
X+024462Y+024963
X+024687Y+025158
X+025124Y+025007
X+024493Y+024205
X+024035Y+024083
X+023792Y+023777
X+018873Y+024110
X+018611Y+024446
X+018198Y+024681
X+018142Y+024963
X+018367Y+025158
X+018804Y+025007
X+018173Y+024205
X+017715Y+024083
X+017472Y+023777
X+012553Y+024110
X+012291Y+024446
X+011878Y+024681
X+011822Y+024963
X+012047Y+025158
X+012484Y+025007
X+011853Y+024205
X+011395Y+024083
X+011152Y+023777
X+006233Y+024110
X+005971Y+024446
X+005558Y+024681
X+005502Y+024963
X+005727Y+025158
X+006164Y+025007
X+005533Y+024205
X+005075Y+024083
X+004832Y+023777
T02
X+007097Y+005097
X+007097Y+006097
X+006097Y+007097
X+005097Y+007097
X+004097Y+006097
X+004097Y+005097
X+005097Y+004097
X+006097Y+004097
X+010417Y+005097
X+010417Y+006097
X+011417Y+007097
X+012417Y+007097
X+013417Y+006097
X+013417Y+005097
X+012417Y+004097
X+011417Y+004097
X+016737Y+005097
X+016737Y+006097
X+017737Y+007097
X+018737Y+007097
X+019737Y+006097
X+019737Y+005097
X+018737Y+004097
X+017737Y+004097
X+023057Y+005097
X+023057Y+006097
X+024057Y+007097
X+025057Y+007097
X+026057Y+006097
X+026057Y+005097
X+025057Y+004097
X+024057Y+004097
X+029377Y+005097
X+029377Y+006097
X+030377Y+007097
X+031377Y+007097
X+032377Y+006097
X+032377Y+005097
X+031377Y+004097
X+030377Y+004097
X+035697Y+005097
X+035697Y+006097
X+036697Y+007097
X+037697Y+007097
X+038697Y+006097
X+038697Y+005097
X+037697Y+004097
X+036697Y+004097
X+042017Y+005097
X+042017Y+006097
X+043017Y+007097
X+044017Y+007097
X+045017Y+006097
X+045017Y+005097
X+044017Y+004097
X+043017Y+004097
X+048337Y+005097
X+048337Y+006097
X+049337Y+007097
X+050337Y+007097
X+051337Y+006097
X+051337Y+005097
X+050337Y+004097
X+049337Y+004097
X+054657Y+005097
X+054657Y+006097
X+055657Y+007097
X+056657Y+007097
X+057657Y+006097
X+057657Y+005097
X+056657Y+004097
X+055657Y+004097
X+060977Y+005097
X+060977Y+006097
X+061977Y+007097
X+062977Y+007097
X+063977Y+006097
X+063977Y+005097
X+062977Y+004097
X+061977Y+004097
X+067297Y+005097
X+067297Y+006097
X+068297Y+007097
X+069297Y+007097
X+070297Y+006097
X+070297Y+005097
X+069297Y+004097
X+068297Y+004097
X+073617Y+005097
X+073617Y+006097
X+074617Y+007097
X+075617Y+007097
X+076617Y+006097
X+076617Y+005097
X+075617Y+004097
X+074617Y+004097
X+074617Y+010417
X+075617Y+010417
X+076617Y+011417
X+076617Y+012417
X+075617Y+013417
X+074617Y+013417
X+073617Y+012417
X+073617Y+011417
X+070297Y+011417
X+070297Y+012417
X+069297Y+013417
X+068297Y+013417
X+067297Y+012417
X+067297Y+011417
X+068297Y+010417
X+069297Y+010417
X+063977Y+011417
X+063977Y+012417
X+062977Y+013417
X+061977Y+013417
X+060977Y+012417
X+060977Y+011417
X+061977Y+010417
X+062977Y+010417
X+057657Y+011417
X+057657Y+012417
X+056657Y+013417
X+055657Y+013417
X+054657Y+012417
X+054657Y+011417
X+055657Y+010417
X+056657Y+010417
X+051337Y+011417
X+051337Y+012417
X+050337Y+013417
X+049337Y+013417
X+048337Y+012417
X+048337Y+011417
X+049337Y+010417
X+050337Y+010417
X+045017Y+011417
X+045017Y+012417
X+044017Y+013417
X+043017Y+013417
X+042017Y+012417
X+042017Y+011417
X+043017Y+010417
X+044017Y+010417
X+038697Y+011417
X+038697Y+012417
X+037697Y+013417
X+036697Y+013417
X+035697Y+012417
X+035697Y+011417
X+036697Y+010417
X+037697Y+010417
X+032377Y+011417
X+032377Y+012417
X+031377Y+013417
X+030377Y+013417
X+029377Y+012417
X+029377Y+011417
X+030377Y+010417
X+031377Y+010417
X+026057Y+011417
X+026057Y+012417
X+025057Y+013417
X+024057Y+013417
X+023057Y+012417
X+023057Y+011417
X+024057Y+010417
X+025057Y+010417
X+019737Y+011417
X+019737Y+012417
X+018737Y+013417
X+017737Y+013417
X+016737Y+012417
X+016737Y+011417
X+017737Y+010417
X+018737Y+010417
X+013417Y+011417
X+013417Y+012417
X+012417Y+013417
X+011417Y+013417
X+010417Y+012417
X+010417Y+011417
X+011417Y+010417
X+012417Y+010417
X+007097Y+011417
X+007097Y+012417
X+006097Y+013417
X+005097Y+013417
X+004097Y+012417
X+004097Y+011417
X+005097Y+010417
X+006097Y+010417
X+006097Y+016737
X+005097Y+016737
X+004097Y+017737
X+004097Y+018737
X+005097Y+019737
X+006097Y+019737
X+007097Y+018737
X+007097Y+017737
X+010417Y+017737
X+010417Y+018737
X+011417Y+019737
X+012417Y+019737
X+013417Y+018737
X+013417Y+017737
X+012417Y+016737
X+011417Y+016737
X+016737Y+017737
X+016737Y+018737
X+017737Y+019737
X+018737Y+019737
X+019737Y+018737
X+019737Y+017737
X+018737Y+016737
X+017737Y+016737
X+023057Y+017737
X+023057Y+018737
X+024057Y+019737
X+025057Y+019737
X+026057Y+018737
X+026057Y+017737
X+025057Y+016737
X+024057Y+016737
X+029377Y+017737
X+029377Y+018737
X+030377Y+019737
X+031377Y+019737
X+032377Y+018737
X+032377Y+017737
X+031377Y+016737
X+030377Y+016737
X+035697Y+017737
X+035697Y+018737
X+036697Y+019737
X+037697Y+019737
X+038697Y+018737
X+038697Y+017737
X+037697Y+016737
X+036697Y+016737
X+042017Y+017737
X+042017Y+018737
X+043017Y+019737
X+044017Y+019737
X+045017Y+018737
X+045017Y+017737
X+044017Y+016737
X+043017Y+016737
X+048337Y+017737
X+048337Y+018737
X+049337Y+019737
X+050337Y+019737
X+051337Y+018737
X+051337Y+017737
X+050337Y+016737
X+049337Y+016737
X+054657Y+017737
X+054657Y+018737
X+055657Y+019737
X+056657Y+019737
X+057657Y+018737
X+057657Y+017737
X+056657Y+016737
X+055657Y+016737
X+060977Y+017737
X+060977Y+018737
X+061977Y+019737
X+062977Y+019737
X+063977Y+018737
X+063977Y+017737
X+062977Y+016737
X+061977Y+016737
X+067297Y+017737
X+067297Y+018737
X+068297Y+019737
X+069297Y+019737
X+070297Y+018737
X+070297Y+017737
X+069297Y+016737
X+068297Y+016737
X+073617Y+017737
X+073617Y+018737
X+074617Y+019737
X+075617Y+019737
X+076617Y+018737
X+076617Y+017737
X+075617Y+016737
X+074617Y+016737
X+074617Y+023057
X+075617Y+023057
X+076617Y+024057
X+076617Y+025057
X+075617Y+026057
X+074617Y+026057
X+073617Y+025057
X+073617Y+024057
X+070297Y+024057
X+070297Y+025057
X+069297Y+026057
X+068297Y+026057
X+067297Y+025057
X+067297Y+024057
X+068297Y+023057
X+069297Y+023057
X+063977Y+024057
X+063977Y+025057
X+062977Y+026057
X+061977Y+026057
X+060977Y+025057
X+060977Y+024057
X+061977Y+023057
X+062977Y+023057
X+057657Y+024057
X+057657Y+025057
X+056657Y+026057
X+055657Y+026057
X+054657Y+025057
X+054657Y+024057
X+055657Y+023057
X+056657Y+023057
X+051337Y+024057
X+051337Y+025057
X+050337Y+026057
X+049337Y+026057
X+048337Y+025057
X+048337Y+024057
X+049337Y+023057
X+050337Y+023057
X+045017Y+024057
X+045017Y+025057
X+044017Y+026057
X+043017Y+026057
X+042017Y+025057
X+042017Y+024057
X+043017Y+023057
X+044017Y+023057
X+038697Y+024057
X+038697Y+025057
X+037697Y+026057
X+036697Y+026057
X+035697Y+025057
X+035697Y+024057
X+036697Y+023057
X+037697Y+023057
X+032377Y+024057
X+032377Y+025057
X+031377Y+026057
X+030377Y+026057
X+029377Y+025057
X+029377Y+024057
X+030377Y+023057
X+031377Y+023057
X+026057Y+024057
X+026057Y+025057
X+025057Y+026057
X+024057Y+026057
X+023057Y+025057
X+023057Y+024057
X+024057Y+023057
X+025057Y+023057
X+019737Y+024057
X+019737Y+025057
X+018737Y+026057
X+017737Y+026057
X+016737Y+025057
X+016737Y+024057
X+017737Y+023057
X+018737Y+023057
X+013417Y+024057
X+013417Y+025057
X+012417Y+026057
X+011417Y+026057
X+010417Y+025057
X+010417Y+024057
X+011417Y+023057
X+012417Y+023057
X+007097Y+024057
X+007097Y+025057
X+006097Y+026057
X+005097Y+026057
X+004097Y+025057
X+004097Y+024057
X+005097Y+023057
X+006097Y+023057
X+006097Y+029377
X+005097Y+029377
X+004097Y+030377
X+004097Y+031377
X+005097Y+032377
X+006097Y+032377
X+007097Y+031377
X+007097Y+030377
X+010417Y+030377
X+010417Y+031377
X+011417Y+032377
X+012417Y+032377
X+013417Y+031377
X+013417Y+030377
X+012417Y+029377
X+011417Y+029377
X+016737Y+030377
X+016737Y+031377
X+017737Y+032377
X+018737Y+032377
X+019737Y+031377
X+019737Y+030377
X+018737Y+029377
X+017737Y+029377
X+023057Y+030377
X+023057Y+031377
X+024057Y+032377
X+025057Y+032377
X+026057Y+031377
X+026057Y+030377
X+025057Y+029377
X+024057Y+029377
X+029377Y+030377
X+029377Y+031377
X+030377Y+032377
X+031377Y+032377
X+032377Y+031377
X+032377Y+030377
X+031377Y+029377
X+030377Y+029377
X+035697Y+030377
X+035697Y+031377
X+036697Y+032377
X+037697Y+032377
X+038697Y+031377
X+038697Y+030377
X+037697Y+029377
X+036697Y+029377
X+042017Y+030377
X+042017Y+031377
X+043017Y+032377
X+044017Y+032377
X+045017Y+031377
X+045017Y+030377
X+044017Y+029377
X+043017Y+029377
X+048337Y+030377
X+048337Y+031377
X+049337Y+032377
X+050337Y+032377
X+051337Y+031377
X+051337Y+030377
X+050337Y+029377
X+049337Y+029377
X+054657Y+030377
X+054657Y+031377
X+055657Y+032377
X+056657Y+032377
X+057657Y+031377
X+057657Y+030377
X+056657Y+029377
X+055657Y+029377
X+060977Y+030377
X+060977Y+031377
X+061977Y+032377
X+062977Y+032377
X+063977Y+031377
X+063977Y+030377
X+062977Y+029377
X+061977Y+029377
X+067297Y+030377
X+067297Y+031377
X+068297Y+032377
X+069297Y+032377
X+070297Y+031377
X+070297Y+030377
X+069297Y+029377
X+068297Y+029377
X+073617Y+030377
X+073617Y+031377
X+074617Y+032377
X+075617Y+032377
X+076617Y+031377
X+076617Y+030377
X+075617Y+029377
X+074617Y+029377
X+074617Y+035697
X+075617Y+035697
X+076617Y+036697
X+076617Y+037697
X+075617Y+038697
X+074617Y+038697
X+073617Y+037697
X+073617Y+036697
X+070297Y+036697
X+070297Y+037697
X+069297Y+038697
X+068297Y+038697
X+067297Y+037697
X+067297Y+036697
X+068297Y+035697
X+069297Y+035697
X+063977Y+036697
X+063977Y+037697
X+062977Y+038697
X+061977Y+038697
X+060977Y+037697
X+060977Y+036697
X+061977Y+035697
X+062977Y+035697
X+057657Y+036697
X+057657Y+037697
X+056657Y+038697
X+055657Y+038697
X+054657Y+037697
X+054657Y+036697
X+055657Y+035697
X+056657Y+035697
X+051337Y+036697
X+051337Y+037697
X+050337Y+038697
X+049337Y+038697
X+048337Y+037697
X+048337Y+036697
X+049337Y+035697
X+050337Y+035697
X+045017Y+036697
X+045017Y+037697
X+044017Y+038697
X+043017Y+038697
X+042017Y+037697
X+042017Y+036697
X+043017Y+035697
X+044017Y+035697
X+038697Y+036697
X+038697Y+037697
X+037697Y+038697
X+036697Y+038697
X+035697Y+037697
X+035697Y+036697
X+036697Y+035697
X+037697Y+035697
X+032377Y+036697
X+032377Y+037697
X+031377Y+038697
X+030377Y+038697
X+029377Y+037697
X+029377Y+036697
X+030377Y+035697
X+031377Y+035697
X+026057Y+036697
X+026057Y+037697
X+025057Y+038697
X+024057Y+038697
X+023057Y+037697
X+023057Y+036697
X+024057Y+035697
X+025057Y+035697
X+019737Y+036697
X+019737Y+037697
X+018737Y+038697
X+017737Y+038697
X+016737Y+037697
X+016737Y+036697
X+017737Y+035697
X+018737Y+035697
X+013417Y+036697
X+013417Y+037697
X+012417Y+038697
X+011417Y+038697
X+010417Y+037697
X+010417Y+036697
X+011417Y+035697
X+012417Y+035697
X+007097Y+036697
X+007097Y+037697
X+006097Y+038697
X+005097Y+038697
X+004097Y+037697
X+004097Y+036697
X+005097Y+035697
X+006097Y+035697
X+006097Y+042017
X+005097Y+042017
X+004097Y+043017
X+004097Y+044017
X+005097Y+045017
X+006097Y+045017
X+007097Y+044017
X+007097Y+043017
X+010417Y+043017
X+010417Y+044017
X+011417Y+045017
X+012417Y+045017
X+013417Y+044017
X+013417Y+043017
X+012417Y+042017
X+011417Y+042017
X+016737Y+043017
X+016737Y+044017
X+017737Y+045017
X+018737Y+045017
X+019737Y+044017
X+019737Y+043017
X+018737Y+042017
X+017737Y+042017
X+023057Y+043017
X+023057Y+044017
X+024057Y+045017
X+025057Y+045017
X+026057Y+044017
X+026057Y+043017
X+025057Y+042017
X+024057Y+042017
X+029377Y+043017
X+029377Y+044017
X+030377Y+045017
X+031377Y+045017
X+032377Y+044017
X+032377Y+043017
X+031377Y+042017
X+030377Y+042017
X+035697Y+043017
X+035697Y+044017
X+036697Y+045017
X+037697Y+045017
X+038697Y+044017
X+038697Y+043017
X+037697Y+042017
X+036697Y+042017
X+042017Y+043017
X+042017Y+044017
X+043017Y+045017
X+044017Y+045017
X+045017Y+044017
X+045017Y+043017
X+044017Y+042017
X+043017Y+042017
X+048337Y+043017
X+048337Y+044017
X+049337Y+045017
X+050337Y+045017
X+051337Y+044017
X+051337Y+043017
X+050337Y+042017
X+049337Y+042017
X+054657Y+043017
X+054657Y+044017
X+055657Y+045017
X+056657Y+045017
X+057657Y+044017
X+057657Y+043017
X+056657Y+042017
X+055657Y+042017
X+060977Y+043017
X+060977Y+044017
X+061977Y+045017
X+062977Y+045017
X+063977Y+044017
X+063977Y+043017
X+062977Y+042017
X+061977Y+042017
X+067297Y+043017
X+067297Y+044017
X+068297Y+045017
X+069297Y+045017
X+070297Y+044017
X+070297Y+043017
X+069297Y+042017
X+068297Y+042017
X+073617Y+043017
X+073617Y+044017
X+074617Y+045017
X+075617Y+045017
X+076617Y+044017
X+076617Y+043017
X+075617Y+042017
X+074617Y+042017
X+074617Y+048337
X+075617Y+048337
X+076617Y+049337
X+076617Y+050337
X+075617Y+051337
X+074617Y+051337
X+073617Y+050337
X+073617Y+049337
X+070297Y+049337
X+070297Y+050337
X+069297Y+051337
X+068297Y+051337
X+067297Y+050337
X+067297Y+049337
X+068297Y+048337
X+069297Y+048337
X+063977Y+049337
X+063977Y+050337
X+062977Y+051337
X+061977Y+051337
X+060977Y+050337
X+060977Y+049337
X+061977Y+048337
X+062977Y+048337
X+057657Y+049337
X+057657Y+050337
X+056657Y+051337
X+055657Y+051337
X+054657Y+050337
X+054657Y+049337
X+055657Y+048337
X+056657Y+048337
X+051337Y+049337
X+051337Y+050337
X+050337Y+051337
X+049337Y+051337
X+048337Y+050337
X+048337Y+049337
X+049337Y+048337
X+050337Y+048337
X+045017Y+049337
X+045017Y+050337
X+044017Y+051337
X+043017Y+051337
X+042017Y+050337
X+042017Y+049337
X+043017Y+048337
X+044017Y+048337
X+038697Y+049337
X+038697Y+050337
X+037697Y+051337
X+036697Y+051337
X+035697Y+050337
X+035697Y+049337
X+036697Y+048337
X+037697Y+048337
X+032377Y+049337
X+032377Y+050337
X+031377Y+051337
X+030377Y+051337
X+029377Y+050337
X+029377Y+049337
X+030377Y+048337
X+031377Y+048337
X+026057Y+049337
X+026057Y+050337
X+025057Y+051337
X+024057Y+051337
X+023057Y+050337
X+023057Y+049337
X+024057Y+048337
X+025057Y+048337
X+019737Y+049337
X+019737Y+050337
X+018737Y+051337
X+017737Y+051337
X+016737Y+050337
X+016737Y+049337
X+017737Y+048337
X+018737Y+048337
X+013417Y+049337
X+013417Y+050337
X+012417Y+051337
X+011417Y+051337
X+010417Y+050337
X+010417Y+049337
X+011417Y+048337
X+012417Y+048337
X+007097Y+049337
X+007097Y+050337
X+006097Y+051337
X+005097Y+051337
X+004097Y+050337
X+004097Y+049337
X+005097Y+048337
X+006097Y+048337
T03
X+078210Y+001250
X+078210Y+054180
X+031478Y+031491
X+002500Y+054180
X+002500Y+001250
T00
M30
