G04 DipTrace 2.4.0.2*
%INFabricationInstructions.gbr*%
%MOIN*%
%ADD10C,0.0098*%
%ADD44C,0.0124*%
%ADD46C,0.0154*%
%FSLAX44Y44*%
G04*
G70*
G90*
G75*
G01*
%LNFabrication Instructions*%
%LPD*%
X82796Y52277D2*
D10*
X98544D1*
Y50702D1*
X82796D1*
Y52277D1*
Y50702D2*
X98544D1*
Y49128D1*
X82796D1*
Y50702D1*
Y49128D2*
X98544D1*
Y47553D1*
X82796D1*
Y49128D1*
Y47553D2*
X98544D1*
Y45978D1*
X82796D1*
Y47553D1*
Y45978D2*
X98544D1*
Y44403D1*
X82796D1*
Y45978D1*
Y44403D2*
X98544D1*
Y42828D1*
X82796D1*
Y44403D1*
Y42828D2*
X98544D1*
Y41254D1*
X82796D1*
Y42828D1*
Y41254D2*
X98544D1*
Y39679D1*
X82796D1*
Y41254D1*
Y39679D2*
X98544D1*
Y38104D1*
X82796D1*
Y39679D1*
Y38104D2*
X98544D1*
Y36529D1*
X82796D1*
Y38104D1*
Y36529D2*
X98544D1*
Y34954D1*
X82796D1*
Y36529D1*
Y34954D2*
X98544D1*
Y33380D1*
X82796D1*
Y34954D1*
Y33380D2*
X98544D1*
Y29443D1*
X82796D1*
Y33380D1*
Y29443D2*
X98544D1*
Y25506D1*
X82796D1*
Y29443D1*
Y25506D2*
X98544D1*
Y23931D1*
X82796D1*
Y25506D1*
Y23931D2*
X98544D1*
Y22361D1*
X82796D1*
Y23931D1*
Y22361D2*
X98544D1*
Y20786D1*
X82796D1*
Y22361D1*
Y20786D2*
X98544D1*
Y19211D1*
X82796D1*
Y20786D1*
Y19211D2*
X98544D1*
Y17636D1*
X82796D1*
Y19211D1*
Y17636D2*
X98544D1*
Y16066D1*
X82796D1*
Y17636D1*
Y16066D2*
X98544D1*
Y12129D1*
X82796D1*
Y16066D1*
Y12129D2*
X98544D1*
Y10555D1*
X82796D1*
Y12129D1*
Y10555D2*
X98544D1*
Y8980D1*
X82796D1*
Y10555D1*
Y8980D2*
X98544D1*
Y5040D1*
X82796D1*
Y8980D1*
X98544Y52277D2*
X122164D1*
Y50702D1*
X98544D1*
Y52277D1*
Y50702D2*
X122164D1*
Y49128D1*
X98544D1*
Y50702D1*
Y49128D2*
X122164D1*
Y47553D1*
X98544D1*
Y49128D1*
Y47553D2*
X122164D1*
Y45978D1*
X98544D1*
Y47553D1*
Y45978D2*
X122164D1*
Y44403D1*
X98544D1*
Y45978D1*
Y44403D2*
X122164D1*
Y42828D1*
X98544D1*
Y44403D1*
Y42828D2*
X122164D1*
Y41254D1*
X98544D1*
Y42828D1*
Y41254D2*
X122164D1*
Y39679D1*
X98544D1*
Y41254D1*
Y39679D2*
X122164D1*
Y38104D1*
X98544D1*
Y39679D1*
Y38104D2*
X122164D1*
Y36529D1*
X98544D1*
Y38104D1*
Y36529D2*
X122164D1*
Y34954D1*
X98544D1*
Y36529D1*
Y34954D2*
X122164D1*
Y33380D1*
X98544D1*
Y34954D1*
Y33380D2*
X122164D1*
Y29443D1*
X98544D1*
Y33380D1*
Y29443D2*
X122164D1*
Y25506D1*
X98544D1*
Y29443D1*
Y25506D2*
X122164D1*
Y23931D1*
X98544D1*
Y25506D1*
Y23931D2*
X122164D1*
Y22361D1*
X98544D1*
Y23931D1*
Y22361D2*
X122164D1*
Y20786D1*
X98544D1*
Y22361D1*
Y20786D2*
X122164D1*
Y19211D1*
X98544D1*
Y20786D1*
Y19211D2*
X122164D1*
Y17636D1*
X98544D1*
Y19211D1*
Y17636D2*
X122164D1*
Y16066D1*
X98544D1*
Y17636D1*
Y16066D2*
X122164D1*
Y12129D1*
X98544D1*
Y16066D1*
Y12129D2*
X122164D1*
Y10555D1*
X98544D1*
Y12129D1*
Y10555D2*
X122164D1*
Y8980D1*
X98544D1*
Y10555D1*
Y8980D2*
X122164D1*
Y5040D1*
X98544D1*
Y8980D1*
X122164Y52277D2*
X132006D1*
Y50702D1*
X122164D1*
Y52277D1*
Y50702D2*
X132006D1*
Y49128D1*
X122164D1*
Y50702D1*
Y49128D2*
X132006D1*
Y47553D1*
X122164D1*
Y49128D1*
Y47553D2*
X132006D1*
Y45978D1*
X122164D1*
Y47553D1*
Y45978D2*
X132006D1*
Y44403D1*
X122164D1*
Y45978D1*
Y44403D2*
X132006D1*
Y42828D1*
X122164D1*
Y44403D1*
Y42828D2*
X132006D1*
Y41254D1*
X122164D1*
Y42828D1*
Y41254D2*
X132006D1*
Y39679D1*
X122164D1*
Y41254D1*
Y39679D2*
X132006D1*
Y38104D1*
X122164D1*
Y39679D1*
Y38104D2*
X132006D1*
Y36529D1*
X122164D1*
Y38104D1*
Y36529D2*
X132006D1*
Y34954D1*
X122164D1*
Y36529D1*
Y34954D2*
X132006D1*
Y33380D1*
X122164D1*
Y34954D1*
Y33380D2*
X132006D1*
Y29443D1*
X122164D1*
Y33380D1*
Y29443D2*
X132006D1*
Y25506D1*
X122164D1*
Y29443D1*
Y25506D2*
X132006D1*
Y23931D1*
X122164D1*
Y25506D1*
Y23931D2*
X132006D1*
Y22361D1*
X122164D1*
Y23931D1*
Y22361D2*
X132006D1*
Y20786D1*
X122164D1*
Y22361D1*
Y20786D2*
X132006D1*
Y19211D1*
X122164D1*
Y20786D1*
Y19211D2*
X132006D1*
Y17636D1*
X122164D1*
Y19211D1*
Y17636D2*
X132006D1*
Y16066D1*
X122164D1*
Y17636D1*
Y16066D2*
X132006D1*
Y12129D1*
X122164D1*
Y16066D1*
Y12129D2*
X132006D1*
Y10555D1*
X122164D1*
Y12129D1*
Y10555D2*
X132006D1*
Y8980D1*
X122164D1*
Y10555D1*
Y8980D2*
X132006D1*
Y5040D1*
X122164D1*
Y8980D1*
X83787Y51825D2*
D44*
X83711Y51902D1*
X83596Y51940D1*
X83443D1*
X83328Y51902D1*
X83251Y51825D1*
Y51749D1*
X83290Y51672D1*
X83328Y51634D1*
X83404Y51596D1*
X83634Y51519D1*
X83711Y51481D1*
X83749Y51442D1*
X83787Y51366D1*
Y51251D1*
X83711Y51175D1*
X83596Y51136D1*
X83443D1*
X83328Y51175D1*
X83251Y51251D1*
X84034Y51672D2*
Y50868D1*
Y51557D2*
X84111Y51633D1*
X84187Y51672D1*
X84302D1*
X84379Y51633D1*
X84455Y51557D1*
X84494Y51442D1*
Y51365D1*
X84455Y51251D1*
X84379Y51174D1*
X84302Y51136D1*
X84187D1*
X84111Y51174D1*
X84034Y51251D1*
X84741Y51442D2*
X85200D1*
Y51519D1*
X85162Y51596D1*
X85124Y51634D1*
X85047Y51672D1*
X84932D1*
X84856Y51634D1*
X84779Y51557D1*
X84741Y51442D1*
Y51366D1*
X84779Y51251D1*
X84856Y51175D1*
X84932Y51136D1*
X85047D1*
X85124Y51175D1*
X85200Y51251D1*
X85907Y51557D2*
X85830Y51634D1*
X85753Y51672D1*
X85639D1*
X85562Y51634D1*
X85486Y51557D1*
X85447Y51442D1*
Y51366D1*
X85486Y51251D1*
X85562Y51175D1*
X85639Y51136D1*
X85753D1*
X85830Y51175D1*
X85907Y51251D1*
X86154Y51940D2*
X86192Y51902D1*
X86231Y51940D1*
X86192Y51979D1*
X86154Y51940D1*
X86192Y51672D2*
Y51136D1*
X86784Y51940D2*
X86708D1*
X86631Y51902D1*
X86593Y51787D1*
Y51136D1*
X86478Y51672D2*
X86746D1*
X87031Y51940D2*
X87069Y51902D1*
X87108Y51940D1*
X87069Y51979D1*
X87031Y51940D1*
X87069Y51672D2*
Y51136D1*
X87815Y51557D2*
X87738Y51634D1*
X87661Y51672D1*
X87547D1*
X87470Y51634D1*
X87394Y51557D1*
X87355Y51442D1*
Y51366D1*
X87394Y51251D1*
X87470Y51175D1*
X87547Y51136D1*
X87661D1*
X87738Y51175D1*
X87815Y51251D1*
X88521Y51672D2*
Y51136D1*
Y51557D2*
X88444Y51634D1*
X88368Y51672D1*
X88253D1*
X88177Y51634D1*
X88100Y51557D1*
X88062Y51442D1*
Y51366D1*
X88100Y51251D1*
X88177Y51175D1*
X88253Y51136D1*
X88368D1*
X88444Y51175D1*
X88521Y51251D1*
X88883Y51940D2*
Y51289D1*
X88921Y51175D1*
X88997Y51136D1*
X89074D1*
X88768Y51672D2*
X89035D1*
X89321Y51940D2*
X89359Y51902D1*
X89397Y51940D1*
X89359Y51979D1*
X89321Y51940D1*
X89359Y51672D2*
Y51136D1*
X89836Y51672D2*
X89759Y51634D1*
X89683Y51557D1*
X89645Y51442D1*
Y51366D1*
X89683Y51251D1*
X89759Y51175D1*
X89836Y51136D1*
X89950D1*
X90027Y51175D1*
X90103Y51251D1*
X90142Y51366D1*
Y51442D1*
X90103Y51557D1*
X90027Y51634D1*
X89950Y51672D1*
X89836D1*
X90389D2*
Y51136D1*
Y51519D2*
X90504Y51634D1*
X90581Y51672D1*
X90695D1*
X90772Y51634D1*
X90810Y51519D1*
Y51136D1*
X83251Y49944D2*
X83596D1*
X83710Y49982D1*
X83749Y50021D1*
X83787Y50097D1*
Y50212D1*
X83749Y50288D1*
X83710Y50327D1*
X83596Y50365D1*
X83251D1*
Y49561D1*
X84493Y50097D2*
Y49561D1*
Y49982D2*
X84417Y50059D1*
X84340Y50097D1*
X84226D1*
X84149Y50059D1*
X84073Y49982D1*
X84034Y49867D1*
Y49791D1*
X84073Y49676D1*
X84149Y49600D1*
X84226Y49561D1*
X84340D1*
X84417Y49600D1*
X84493Y49676D1*
X84740Y50097D2*
Y49561D1*
Y49867D2*
X84779Y49982D1*
X84855Y50059D1*
X84932Y50097D1*
X85047D1*
X85409Y50365D2*
Y49714D1*
X85447Y49600D1*
X85524Y49561D1*
X85600D1*
X85294Y50097D2*
X85562D1*
X87160Y50365D2*
Y49561D1*
X86625Y50365D1*
Y49561D1*
X87407Y50097D2*
Y49714D1*
X87445Y49600D1*
X87522Y49561D1*
X87637D1*
X87713Y49600D1*
X87828Y49714D1*
Y50097D2*
Y49561D1*
X88075Y50097D2*
Y49561D1*
Y49944D2*
X88190Y50059D1*
X88267Y50097D1*
X88381D1*
X88458Y50059D1*
X88496Y49944D1*
Y49561D1*
Y49944D2*
X88611Y50059D1*
X88688Y50097D1*
X88802D1*
X88879Y50059D1*
X88918Y49944D1*
Y49561D1*
X89165Y50365D2*
Y49561D1*
Y49982D2*
X89242Y50059D1*
X89318Y50097D1*
X89433D1*
X89509Y50059D1*
X89586Y49982D1*
X89624Y49867D1*
Y49791D1*
X89586Y49676D1*
X89509Y49600D1*
X89433Y49561D1*
X89318D1*
X89242Y49600D1*
X89165Y49676D1*
X89871Y49867D2*
X90330D1*
Y49944D1*
X90292Y50021D1*
X90254Y50059D1*
X90177Y50097D1*
X90062D1*
X89986Y50059D1*
X89909Y49982D1*
X89871Y49867D1*
Y49791D1*
X89909Y49676D1*
X89986Y49600D1*
X90062Y49561D1*
X90177D1*
X90254Y49600D1*
X90330Y49676D1*
X90577Y50097D2*
Y49561D1*
Y49867D2*
X90616Y49982D1*
X90692Y50059D1*
X90769Y50097D1*
X90884D1*
X83251Y48407D2*
X83595D1*
X83710Y48446D1*
X83749Y48484D1*
X83787Y48560D1*
Y48637D1*
X83749Y48713D1*
X83710Y48752D1*
X83595Y48790D1*
X83251D1*
Y47987D1*
X83519Y48407D2*
X83787Y47987D1*
X84034Y48293D2*
X84493D1*
Y48369D1*
X84455Y48446D1*
X84417Y48484D1*
X84340Y48522D1*
X84225D1*
X84149Y48484D1*
X84072Y48407D1*
X84034Y48293D1*
Y48216D1*
X84072Y48101D1*
X84149Y48025D1*
X84225Y47987D1*
X84340D1*
X84417Y48025D1*
X84493Y48101D1*
X84740Y48522D2*
X84970Y47987D1*
X85199Y48522D1*
X85446Y48790D2*
X85484Y48752D1*
X85523Y48790D1*
X85484Y48829D1*
X85446Y48790D1*
X85484Y48522D2*
Y47987D1*
X86191Y48407D2*
X86153Y48484D1*
X86038Y48522D1*
X85923D1*
X85808Y48484D1*
X85770Y48407D1*
X85808Y48331D1*
X85885Y48293D1*
X86076Y48254D1*
X86153Y48216D1*
X86191Y48140D1*
Y48101D1*
X86153Y48025D1*
X86038Y47987D1*
X85923D1*
X85808Y48025D1*
X85770Y48101D1*
X86438Y48790D2*
X86476Y48752D1*
X86515Y48790D1*
X86476Y48829D1*
X86438Y48790D1*
X86476Y48522D2*
Y47987D1*
X86953Y48522D2*
X86877Y48484D1*
X86800Y48407D1*
X86762Y48293D1*
Y48216D1*
X86800Y48101D1*
X86877Y48025D1*
X86953Y47987D1*
X87068D1*
X87145Y48025D1*
X87221Y48101D1*
X87260Y48216D1*
Y48293D1*
X87221Y48407D1*
X87145Y48484D1*
X87068Y48522D1*
X86953D1*
X87507D2*
Y47987D1*
Y48369D2*
X87622Y48484D1*
X87699Y48522D1*
X87813D1*
X87890Y48484D1*
X87928Y48369D1*
Y47987D1*
X83251Y46795D2*
X83596D1*
X83710Y46833D1*
X83749Y46872D1*
X83787Y46948D1*
Y47063D1*
X83749Y47139D1*
X83710Y47178D1*
X83596Y47216D1*
X83251D1*
Y46412D1*
X84608Y47025D2*
X84570Y47101D1*
X84493Y47178D1*
X84417Y47216D1*
X84264D1*
X84187Y47178D1*
X84111Y47101D1*
X84072Y47025D1*
X84034Y46910D1*
Y46718D1*
X84072Y46604D1*
X84111Y46527D1*
X84187Y46451D1*
X84264Y46412D1*
X84417D1*
X84493Y46451D1*
X84570Y46527D1*
X84608Y46604D1*
X84855Y47216D2*
Y46412D1*
X85200D1*
X85315Y46451D1*
X85353Y46489D1*
X85391Y46565D1*
Y46680D1*
X85353Y46757D1*
X85315Y46795D1*
X85200Y46833D1*
X85315Y46872D1*
X85353Y46910D1*
X85391Y46986D1*
Y47063D1*
X85353Y47139D1*
X85315Y47178D1*
X85200Y47216D1*
X84855D1*
Y46833D2*
X85200D1*
X87027Y46412D2*
Y47216D1*
X86721Y46412D1*
X86416Y47216D1*
Y46412D1*
X87733Y46948D2*
Y46412D1*
Y46833D2*
X87657Y46910D1*
X87580Y46948D1*
X87466D1*
X87389Y46910D1*
X87313Y46833D1*
X87274Y46718D1*
Y46642D1*
X87313Y46527D1*
X87389Y46451D1*
X87466Y46412D1*
X87580D1*
X87657Y46451D1*
X87733Y46527D1*
X88095Y47216D2*
Y46565D1*
X88133Y46451D1*
X88210Y46412D1*
X88286D1*
X87980Y46948D2*
X88248D1*
X88533Y46718D2*
X88992D1*
Y46795D1*
X88954Y46872D1*
X88916Y46910D1*
X88839Y46948D1*
X88724D1*
X88648Y46910D1*
X88572Y46833D1*
X88533Y46718D1*
Y46642D1*
X88572Y46527D1*
X88648Y46451D1*
X88724Y46412D1*
X88839D1*
X88916Y46451D1*
X88992Y46527D1*
X89239Y46948D2*
Y46412D1*
Y46718D2*
X89278Y46833D1*
X89354Y46910D1*
X89431Y46948D1*
X89546D1*
X89793Y47216D2*
X89831Y47178D1*
X89870Y47216D1*
X89831Y47254D1*
X89793Y47216D1*
X89831Y46948D2*
Y46412D1*
X90576Y46948D2*
Y46412D1*
Y46833D2*
X90500Y46910D1*
X90423Y46948D1*
X90309D1*
X90232Y46910D1*
X90156Y46833D1*
X90117Y46718D1*
Y46642D1*
X90156Y46527D1*
X90232Y46451D1*
X90309Y46412D1*
X90423D1*
X90500Y46451D1*
X90576Y46527D1*
X90823Y47216D2*
Y46412D1*
X83251Y45220D2*
X83596D1*
X83710Y45258D1*
X83749Y45297D1*
X83787Y45373D1*
Y45488D1*
X83749Y45564D1*
X83710Y45603D1*
X83596Y45641D1*
X83251D1*
Y44837D1*
X84608Y45450D2*
X84570Y45526D1*
X84493Y45603D1*
X84417Y45641D1*
X84264D1*
X84187Y45603D1*
X84111Y45526D1*
X84072Y45450D1*
X84034Y45335D1*
Y45143D1*
X84072Y45029D1*
X84111Y44952D1*
X84187Y44876D1*
X84264Y44837D1*
X84417D1*
X84493Y44876D1*
X84570Y44952D1*
X84608Y45029D1*
X84855Y45641D2*
Y44837D1*
X85200D1*
X85315Y44876D1*
X85353Y44914D1*
X85391Y44990D1*
Y45105D1*
X85353Y45182D1*
X85315Y45220D1*
X85200Y45258D1*
X85315Y45297D1*
X85353Y45335D1*
X85391Y45411D1*
Y45488D1*
X85353Y45564D1*
X85315Y45603D1*
X85200Y45641D1*
X84855D1*
Y45258D2*
X85200D1*
X86416Y45641D2*
Y44837D1*
X86874D1*
X87580Y45373D2*
Y44837D1*
Y45258D2*
X87504Y45335D1*
X87427Y45373D1*
X87313D1*
X87236Y45335D1*
X87160Y45258D1*
X87122Y45143D1*
Y45067D1*
X87160Y44952D1*
X87236Y44876D1*
X87313Y44837D1*
X87427D1*
X87504Y44876D1*
X87580Y44952D1*
X87866Y45373D2*
X88095Y44837D1*
X88019Y44684D1*
X87942Y44607D1*
X87866Y44569D1*
X87827D1*
X88325Y45373D2*
X88095Y44837D1*
X88572Y45143D2*
X89031D1*
Y45220D1*
X88993Y45297D1*
X88955Y45335D1*
X88878Y45373D1*
X88763D1*
X88687Y45335D1*
X88610Y45258D1*
X88572Y45143D1*
Y45067D1*
X88610Y44952D1*
X88687Y44876D1*
X88763Y44837D1*
X88878D1*
X88955Y44876D1*
X89031Y44952D1*
X89278Y45373D2*
Y44837D1*
Y45143D2*
X89317Y45258D1*
X89393Y45335D1*
X89470Y45373D1*
X89585D1*
X90253Y45258D2*
X90215Y45335D1*
X90100Y45373D1*
X89985D1*
X89870Y45335D1*
X89832Y45258D1*
X89870Y45182D1*
X89947Y45143D1*
X90138Y45105D1*
X90215Y45067D1*
X90253Y44990D1*
Y44952D1*
X90215Y44876D1*
X90100Y44837D1*
X89985D1*
X89870Y44876D1*
X89832Y44952D1*
X83749Y44066D2*
X83251D1*
Y43262D1*
Y43683D2*
X83557D1*
X83996Y44066D2*
X84034Y44028D1*
X84073Y44066D1*
X84034Y44105D1*
X83996Y44066D1*
X84034Y43798D2*
Y43262D1*
X84320Y43798D2*
Y43262D1*
Y43645D2*
X84435Y43760D1*
X84512Y43798D1*
X84626D1*
X84703Y43760D1*
X84741Y43645D1*
Y43262D1*
X84988Y44066D2*
X85026Y44028D1*
X85065Y44066D1*
X85026Y44105D1*
X84988Y44066D1*
X85026Y43798D2*
Y43262D1*
X85733Y43683D2*
X85695Y43760D1*
X85580Y43798D1*
X85465D1*
X85350Y43760D1*
X85312Y43683D1*
X85350Y43607D1*
X85427Y43568D1*
X85618Y43530D1*
X85695Y43492D1*
X85733Y43415D1*
Y43377D1*
X85695Y43301D1*
X85580Y43262D1*
X85465D1*
X85350Y43301D1*
X85312Y43377D1*
X85980Y44066D2*
Y43262D1*
Y43645D2*
X86095Y43760D1*
X86172Y43798D1*
X86287D1*
X86363Y43760D1*
X86401Y43645D1*
Y43262D1*
X86648Y43568D2*
X87107D1*
Y43645D1*
X87069Y43722D1*
X87031Y43760D1*
X86954Y43798D1*
X86839D1*
X86763Y43760D1*
X86686Y43683D1*
X86648Y43568D1*
Y43492D1*
X86686Y43377D1*
X86763Y43301D1*
X86839Y43262D1*
X86954D1*
X87031Y43301D1*
X87107Y43377D1*
X87813Y44066D2*
Y43262D1*
Y43683D2*
X87737Y43760D1*
X87660Y43798D1*
X87545D1*
X87469Y43760D1*
X87392Y43683D1*
X87354Y43568D1*
Y43492D1*
X87392Y43377D1*
X87469Y43301D1*
X87545Y43262D1*
X87660D1*
X87737Y43301D1*
X87813Y43377D1*
X88837Y43645D2*
X89182D1*
X89296Y43683D1*
X89335Y43722D1*
X89373Y43798D1*
Y43913D1*
X89335Y43989D1*
X89296Y44028D1*
X89182Y44066D1*
X88837D1*
Y43262D1*
X90194Y43875D2*
X90156Y43951D1*
X90079Y44028D1*
X90003Y44066D1*
X89850D1*
X89773Y44028D1*
X89697Y43951D1*
X89658Y43875D1*
X89620Y43760D1*
Y43568D1*
X89658Y43454D1*
X89697Y43377D1*
X89773Y43301D1*
X89850Y43262D1*
X90003D1*
X90079Y43301D1*
X90156Y43377D1*
X90194Y43454D1*
X90441Y44066D2*
Y43262D1*
X90786D1*
X90901Y43301D1*
X90939Y43339D1*
X90977Y43415D1*
Y43530D1*
X90939Y43607D1*
X90901Y43645D1*
X90786Y43683D1*
X90901Y43722D1*
X90939Y43760D1*
X90977Y43836D1*
Y43913D1*
X90939Y43989D1*
X90901Y44028D1*
X90786Y44066D1*
X90441D1*
Y43683D2*
X90786D1*
X92270Y44066D2*
Y43262D1*
X92002Y44066D2*
X92538D1*
X92785D2*
Y43262D1*
Y43645D2*
X92900Y43760D1*
X92977Y43798D1*
X93092D1*
X93168Y43760D1*
X93206Y43645D1*
Y43262D1*
X93453Y44066D2*
X93491Y44028D1*
X93530Y44066D1*
X93491Y44105D1*
X93453Y44066D1*
X93491Y43798D2*
Y43262D1*
X94236Y43683D2*
X94160Y43760D1*
X94083Y43798D1*
X93969D1*
X93892Y43760D1*
X93816Y43683D1*
X93777Y43568D1*
Y43492D1*
X93816Y43377D1*
X93892Y43301D1*
X93969Y43262D1*
X94083D1*
X94160Y43301D1*
X94236Y43377D1*
X94484Y44066D2*
Y43262D1*
X94866Y43798D2*
X94484Y43415D1*
X94637Y43568D2*
X94904Y43262D1*
X95151Y43798D2*
Y43262D1*
Y43645D2*
X95266Y43760D1*
X95343Y43798D1*
X95457D1*
X95534Y43760D1*
X95572Y43645D1*
Y43262D1*
X95819Y43568D2*
X96278D1*
Y43645D1*
X96240Y43722D1*
X96202Y43760D1*
X96125Y43798D1*
X96010D1*
X95934Y43760D1*
X95857Y43683D1*
X95819Y43568D1*
Y43492D1*
X95857Y43377D1*
X95934Y43301D1*
X96010Y43262D1*
X96125D1*
X96202Y43301D1*
X96278Y43377D1*
X96946Y43683D2*
X96908Y43760D1*
X96793Y43798D1*
X96678D1*
X96563Y43760D1*
X96525Y43683D1*
X96563Y43607D1*
X96640Y43568D1*
X96831Y43530D1*
X96908Y43492D1*
X96946Y43415D1*
Y43377D1*
X96908Y43301D1*
X96793Y43262D1*
X96678D1*
X96563Y43301D1*
X96525Y43377D1*
X97614Y43683D2*
X97576Y43760D1*
X97461Y43798D1*
X97346D1*
X97231Y43760D1*
X97193Y43683D1*
X97231Y43607D1*
X97308Y43568D1*
X97499Y43530D1*
X97576Y43492D1*
X97614Y43415D1*
Y43377D1*
X97576Y43301D1*
X97461Y43262D1*
X97346D1*
X97231Y43301D1*
X97193Y43377D1*
X83749Y42491D2*
X83251D1*
Y41687D1*
Y42108D2*
X83557D1*
X83996Y42491D2*
X84034Y42453D1*
X84073Y42491D1*
X84034Y42530D1*
X83996Y42491D1*
X84034Y42223D2*
Y41687D1*
X84320Y42223D2*
Y41687D1*
Y42070D2*
X84435Y42185D1*
X84512Y42223D1*
X84626D1*
X84703Y42185D1*
X84741Y42070D1*
Y41687D1*
X84988Y42491D2*
X85026Y42453D1*
X85065Y42491D1*
X85026Y42530D1*
X84988Y42491D1*
X85026Y42223D2*
Y41687D1*
X85733Y42108D2*
X85695Y42185D1*
X85580Y42223D1*
X85465D1*
X85350Y42185D1*
X85312Y42108D1*
X85350Y42032D1*
X85427Y41993D1*
X85618Y41955D1*
X85695Y41917D1*
X85733Y41840D1*
Y41802D1*
X85695Y41726D1*
X85580Y41687D1*
X85465D1*
X85350Y41726D1*
X85312Y41802D1*
X85980Y42491D2*
Y41687D1*
Y42070D2*
X86095Y42185D1*
X86172Y42223D1*
X86287D1*
X86363Y42185D1*
X86401Y42070D1*
Y41687D1*
X86648Y41993D2*
X87107D1*
Y42070D1*
X87069Y42147D1*
X87031Y42185D1*
X86954Y42223D1*
X86839D1*
X86763Y42185D1*
X86686Y42108D1*
X86648Y41993D1*
Y41917D1*
X86686Y41802D1*
X86763Y41726D1*
X86839Y41687D1*
X86954D1*
X87031Y41726D1*
X87107Y41802D1*
X87813Y42491D2*
Y41687D1*
Y42108D2*
X87737Y42185D1*
X87660Y42223D1*
X87545D1*
X87469Y42185D1*
X87392Y42108D1*
X87354Y41993D1*
Y41917D1*
X87392Y41802D1*
X87469Y41726D1*
X87545Y41687D1*
X87660D1*
X87737Y41726D1*
X87813Y41802D1*
X89067Y42491D2*
X88990Y42453D1*
X88914Y42376D1*
X88875Y42300D1*
X88837Y42185D1*
Y41993D1*
X88875Y41879D1*
X88914Y41802D1*
X88990Y41726D1*
X89067Y41687D1*
X89220D1*
X89296Y41726D1*
X89373Y41802D1*
X89411Y41879D1*
X89449Y41993D1*
Y42185D1*
X89411Y42300D1*
X89373Y42376D1*
X89296Y42453D1*
X89220Y42491D1*
X89067D1*
X89696Y42223D2*
Y41840D1*
X89734Y41726D1*
X89811Y41687D1*
X89926D1*
X90002Y41726D1*
X90117Y41840D1*
Y42223D2*
Y41687D1*
X90479Y42491D2*
Y41840D1*
X90517Y41726D1*
X90594Y41687D1*
X90670D1*
X90364Y42223D2*
X90632D1*
X92269Y42300D2*
X92231Y42376D1*
X92154Y42453D1*
X92078Y42491D1*
X91925D1*
X91848Y42453D1*
X91772Y42376D1*
X91733Y42300D1*
X91695Y42185D1*
Y41993D1*
X91733Y41879D1*
X91772Y41802D1*
X91848Y41726D1*
X91925Y41687D1*
X92078D1*
X92154Y41726D1*
X92231Y41802D1*
X92269Y41879D1*
X92707Y42223D2*
X92631Y42185D1*
X92554Y42108D1*
X92516Y41993D1*
Y41917D1*
X92554Y41802D1*
X92631Y41726D1*
X92707Y41687D1*
X92822D1*
X92899Y41726D1*
X92975Y41802D1*
X93014Y41917D1*
Y41993D1*
X92975Y42108D1*
X92899Y42185D1*
X92822Y42223D1*
X92707D1*
X93261D2*
Y41419D1*
Y42108D2*
X93338Y42184D1*
X93414Y42223D1*
X93529D1*
X93606Y42184D1*
X93682Y42108D1*
X93721Y41993D1*
Y41916D1*
X93682Y41802D1*
X93606Y41725D1*
X93529Y41687D1*
X93414D1*
X93338Y41725D1*
X93261Y41802D1*
X93968Y42223D2*
Y41419D1*
Y42108D2*
X94045Y42184D1*
X94121Y42223D1*
X94236D1*
X94313Y42184D1*
X94389Y42108D1*
X94428Y41993D1*
Y41916D1*
X94389Y41802D1*
X94313Y41725D1*
X94236Y41687D1*
X94121D1*
X94045Y41725D1*
X93968Y41802D1*
X94675Y41993D2*
X95133D1*
Y42070D1*
X95095Y42147D1*
X95057Y42185D1*
X94981Y42223D1*
X94866D1*
X94789Y42185D1*
X94713Y42108D1*
X94675Y41993D1*
Y41917D1*
X94713Y41802D1*
X94789Y41726D1*
X94866Y41687D1*
X94981D1*
X95057Y41726D1*
X95133Y41802D1*
X95381Y42223D2*
Y41687D1*
Y41993D2*
X95419Y42108D1*
X95495Y42185D1*
X95572Y42223D1*
X95687D1*
X96712Y42491D2*
X96904Y41687D1*
X97095Y42491D1*
X97286Y41687D1*
X97478Y42491D1*
X97840D2*
Y41840D1*
X97878Y41726D1*
X97955Y41687D1*
X98031D1*
X97725Y42223D2*
X97993D1*
X83749Y40916D2*
X83251D1*
Y40113D1*
Y40533D2*
X83557D1*
X83996Y40916D2*
X84034Y40878D1*
X84073Y40916D1*
X84034Y40955D1*
X83996Y40916D1*
X84034Y40648D2*
Y40113D1*
X84320Y40648D2*
Y40113D1*
Y40495D2*
X84435Y40610D1*
X84512Y40648D1*
X84626D1*
X84703Y40610D1*
X84741Y40495D1*
Y40113D1*
X84988Y40916D2*
X85026Y40878D1*
X85065Y40916D1*
X85026Y40955D1*
X84988Y40916D1*
X85026Y40648D2*
Y40113D1*
X85733Y40533D2*
X85695Y40610D1*
X85580Y40648D1*
X85465D1*
X85350Y40610D1*
X85312Y40533D1*
X85350Y40457D1*
X85427Y40418D1*
X85618Y40380D1*
X85695Y40342D1*
X85733Y40266D1*
Y40227D1*
X85695Y40151D1*
X85580Y40113D1*
X85465D1*
X85350Y40151D1*
X85312Y40227D1*
X85980Y40916D2*
Y40113D1*
Y40495D2*
X86095Y40610D1*
X86172Y40648D1*
X86287D1*
X86363Y40610D1*
X86401Y40495D1*
Y40113D1*
X86648Y40418D2*
X87107D1*
Y40495D1*
X87069Y40572D1*
X87031Y40610D1*
X86954Y40648D1*
X86839D1*
X86763Y40610D1*
X86686Y40533D1*
X86648Y40418D1*
Y40342D1*
X86686Y40227D1*
X86763Y40151D1*
X86839Y40113D1*
X86954D1*
X87031Y40151D1*
X87107Y40227D1*
X87813Y40916D2*
Y40113D1*
Y40533D2*
X87737Y40610D1*
X87660Y40648D1*
X87545D1*
X87469Y40610D1*
X87392Y40533D1*
X87354Y40418D1*
Y40342D1*
X87392Y40227D1*
X87469Y40151D1*
X87545Y40113D1*
X87660D1*
X87737Y40151D1*
X87813Y40227D1*
X88837Y40916D2*
Y40113D1*
X89084Y40648D2*
Y40113D1*
Y40495D2*
X89199Y40610D1*
X89276Y40648D1*
X89390D1*
X89467Y40610D1*
X89505Y40495D1*
Y40113D1*
X91104Y40725D2*
X91066Y40801D1*
X90989Y40878D1*
X90913Y40916D1*
X90760D1*
X90683Y40878D1*
X90607Y40801D1*
X90568Y40725D1*
X90530Y40610D1*
Y40418D1*
X90568Y40304D1*
X90607Y40227D1*
X90683Y40151D1*
X90760Y40113D1*
X90913D1*
X90989Y40151D1*
X91066Y40227D1*
X91104Y40304D1*
X91542Y40648D2*
X91466Y40610D1*
X91389Y40533D1*
X91351Y40418D1*
Y40342D1*
X91389Y40227D1*
X91466Y40151D1*
X91542Y40113D1*
X91657D1*
X91734Y40151D1*
X91810Y40227D1*
X91849Y40342D1*
Y40418D1*
X91810Y40533D1*
X91734Y40610D1*
X91657Y40648D1*
X91542D1*
X92096D2*
Y39845D1*
Y40533D2*
X92173Y40610D1*
X92249Y40648D1*
X92364D1*
X92441Y40610D1*
X92517Y40533D1*
X92556Y40418D1*
Y40342D1*
X92517Y40227D1*
X92441Y40151D1*
X92364Y40113D1*
X92249D1*
X92173Y40151D1*
X92096Y40227D1*
X92803Y40648D2*
Y39845D1*
Y40533D2*
X92880Y40610D1*
X92956Y40648D1*
X93071D1*
X93148Y40610D1*
X93224Y40533D1*
X93263Y40418D1*
Y40342D1*
X93224Y40227D1*
X93148Y40151D1*
X93071Y40113D1*
X92956D1*
X92880Y40151D1*
X92803Y40227D1*
X93510Y40418D2*
X93969D1*
Y40495D1*
X93931Y40572D1*
X93893Y40610D1*
X93816Y40648D1*
X93701D1*
X93625Y40610D1*
X93548Y40533D1*
X93510Y40418D1*
Y40342D1*
X93548Y40227D1*
X93625Y40151D1*
X93701Y40113D1*
X93816D1*
X93893Y40151D1*
X93969Y40227D1*
X94216Y40648D2*
Y40113D1*
Y40418D2*
X94254Y40533D1*
X94331Y40610D1*
X94407Y40648D1*
X94522D1*
X95547Y40916D2*
X95739Y40113D1*
X95930Y40916D1*
X96121Y40113D1*
X96313Y40916D1*
X96675D2*
Y40266D1*
X96713Y40151D1*
X96790Y40113D1*
X96866D1*
X96560Y40648D2*
X96828D1*
X83787Y39227D2*
X83711Y39304D1*
X83596Y39342D1*
X83443D1*
X83328Y39304D1*
X83251Y39227D1*
Y39151D1*
X83290Y39074D1*
X83328Y39036D1*
X83404Y38998D1*
X83634Y38921D1*
X83711Y38883D1*
X83749Y38844D1*
X83787Y38768D1*
Y38653D1*
X83711Y38577D1*
X83596Y38538D1*
X83443D1*
X83328Y38577D1*
X83251Y38653D1*
X84225Y39074D2*
X84149Y39036D1*
X84072Y38959D1*
X84034Y38844D1*
Y38768D1*
X84072Y38653D1*
X84149Y38577D1*
X84225Y38538D1*
X84340D1*
X84417Y38577D1*
X84493Y38653D1*
X84532Y38768D1*
Y38844D1*
X84493Y38959D1*
X84417Y39036D1*
X84340Y39074D1*
X84225D1*
X84779Y39342D2*
Y38538D1*
X85485Y39342D2*
Y38538D1*
Y38959D2*
X85409Y39036D1*
X85332Y39074D1*
X85217D1*
X85141Y39036D1*
X85064Y38959D1*
X85026Y38844D1*
Y38768D1*
X85064Y38653D1*
X85141Y38577D1*
X85217Y38538D1*
X85332D1*
X85409Y38577D1*
X85485Y38653D1*
X85732Y38844D2*
X86191D1*
Y38921D1*
X86153Y38998D1*
X86115Y39036D1*
X86038Y39074D1*
X85923D1*
X85847Y39036D1*
X85770Y38959D1*
X85732Y38844D1*
Y38768D1*
X85770Y38653D1*
X85847Y38577D1*
X85923Y38538D1*
X86038D1*
X86115Y38577D1*
X86191Y38653D1*
X86438Y39074D2*
Y38538D1*
Y38844D2*
X86477Y38959D1*
X86553Y39036D1*
X86630Y39074D1*
X86745D1*
X86992D2*
Y38538D1*
Y38921D2*
X87107Y39036D1*
X87184Y39074D1*
X87298D1*
X87375Y39036D1*
X87413Y38921D1*
Y38538D1*
Y38921D2*
X87528Y39036D1*
X87605Y39074D1*
X87719D1*
X87796Y39036D1*
X87835Y38921D1*
Y38538D1*
X88541Y39074D2*
Y38538D1*
Y38959D2*
X88465Y39036D1*
X88388Y39074D1*
X88273D1*
X88197Y39036D1*
X88121Y38959D1*
X88082Y38844D1*
Y38768D1*
X88121Y38653D1*
X88197Y38577D1*
X88273Y38538D1*
X88388D1*
X88465Y38577D1*
X88541Y38653D1*
X89209Y38959D2*
X89170Y39036D1*
X89056Y39074D1*
X88941D1*
X88826Y39036D1*
X88788Y38959D1*
X88826Y38883D1*
X88903Y38844D1*
X89094Y38806D1*
X89170Y38768D1*
X89209Y38691D1*
Y38653D1*
X89170Y38577D1*
X89056Y38538D1*
X88941D1*
X88826Y38577D1*
X88788Y38653D1*
X89456Y39342D2*
Y38538D1*
X89838Y39074D2*
X89456Y38691D1*
X89609Y38844D2*
X89876Y38538D1*
X83787Y37652D2*
X83711Y37729D1*
X83596Y37767D1*
X83443D1*
X83328Y37729D1*
X83251Y37652D1*
Y37576D1*
X83290Y37499D1*
X83328Y37461D1*
X83404Y37423D1*
X83634Y37346D1*
X83711Y37308D1*
X83749Y37269D1*
X83787Y37193D1*
Y37078D1*
X83711Y37002D1*
X83596Y36963D1*
X83443D1*
X83328Y37002D1*
X83251Y37078D1*
X84034Y37767D2*
X84072Y37729D1*
X84111Y37767D1*
X84072Y37806D1*
X84034Y37767D1*
X84072Y37499D2*
Y36963D1*
X84358Y37767D2*
Y36963D1*
X84605Y37767D2*
Y36963D1*
X84988Y37499D2*
X84605Y37116D1*
X84758Y37269D2*
X85026Y36963D1*
X85694Y37384D2*
X85656Y37461D1*
X85541Y37499D1*
X85426D1*
X85311Y37461D1*
X85273Y37384D1*
X85311Y37308D1*
X85388Y37269D1*
X85579Y37231D1*
X85656Y37193D1*
X85694Y37116D1*
Y37078D1*
X85656Y37002D1*
X85541Y36963D1*
X85426D1*
X85311Y37002D1*
X85273Y37078D1*
X86401Y37384D2*
X86324Y37461D1*
X86247Y37499D1*
X86133D1*
X86056Y37461D1*
X85980Y37384D1*
X85941Y37269D1*
Y37193D1*
X85980Y37078D1*
X86056Y37002D1*
X86133Y36963D1*
X86247D1*
X86324Y37002D1*
X86401Y37078D1*
X86648Y37499D2*
Y36963D1*
Y37269D2*
X86687Y37384D1*
X86763Y37461D1*
X86840Y37499D1*
X86955D1*
X87202Y37269D2*
X87661D1*
Y37346D1*
X87623Y37423D1*
X87585Y37461D1*
X87508Y37499D1*
X87393D1*
X87317Y37461D1*
X87240Y37384D1*
X87202Y37269D1*
Y37193D1*
X87240Y37078D1*
X87317Y37002D1*
X87393Y36963D1*
X87508D1*
X87585Y37002D1*
X87661Y37078D1*
X87908Y37269D2*
X88367D1*
Y37346D1*
X88329Y37423D1*
X88291Y37461D1*
X88214Y37499D1*
X88099D1*
X88023Y37461D1*
X87946Y37384D1*
X87908Y37269D1*
Y37193D1*
X87946Y37078D1*
X88023Y37002D1*
X88099Y36963D1*
X88214D1*
X88291Y37002D1*
X88367Y37078D1*
X88614Y37499D2*
Y36963D1*
Y37346D2*
X88729Y37461D1*
X88806Y37499D1*
X88920D1*
X88997Y37461D1*
X89035Y37346D1*
Y36963D1*
X83749Y36192D2*
X83251D1*
Y35388D1*
Y35809D2*
X83557D1*
X83996Y36192D2*
X84034Y36154D1*
X84073Y36192D1*
X84034Y36231D1*
X83996Y36192D1*
X84034Y35924D2*
Y35388D1*
X84320Y35924D2*
Y35388D1*
Y35771D2*
X84435Y35886D1*
X84512Y35924D1*
X84626D1*
X84703Y35886D1*
X84741Y35771D1*
Y35388D1*
X84988Y36192D2*
X85026Y36154D1*
X85065Y36192D1*
X85026Y36231D1*
X84988Y36192D1*
X85026Y35924D2*
Y35388D1*
X85733Y35809D2*
X85695Y35886D1*
X85580Y35924D1*
X85465D1*
X85350Y35886D1*
X85312Y35809D1*
X85350Y35733D1*
X85427Y35694D1*
X85618Y35656D1*
X85695Y35618D1*
X85733Y35541D1*
Y35503D1*
X85695Y35427D1*
X85580Y35388D1*
X85465D1*
X85350Y35427D1*
X85312Y35503D1*
X85980Y36192D2*
Y35388D1*
Y35771D2*
X86095Y35886D1*
X86172Y35924D1*
X86287D1*
X86363Y35886D1*
X86401Y35771D1*
Y35388D1*
X83251Y34196D2*
X83596D1*
X83710Y34234D1*
X83749Y34273D1*
X83787Y34349D1*
Y34464D1*
X83749Y34540D1*
X83710Y34579D1*
X83596Y34617D1*
X83251D1*
Y33813D1*
X84608Y34426D2*
X84570Y34502D1*
X84493Y34579D1*
X84417Y34617D1*
X84264D1*
X84187Y34579D1*
X84111Y34502D1*
X84072Y34426D1*
X84034Y34311D1*
Y34119D1*
X84072Y34005D1*
X84111Y33928D1*
X84187Y33852D1*
X84264Y33813D1*
X84417D1*
X84493Y33852D1*
X84570Y33928D1*
X84608Y34005D1*
X84855Y34617D2*
Y33813D1*
X85200D1*
X85315Y33852D1*
X85353Y33890D1*
X85391Y33966D1*
Y34081D1*
X85353Y34158D1*
X85315Y34196D1*
X85200Y34234D1*
X85315Y34273D1*
X85353Y34311D1*
X85391Y34387D1*
Y34464D1*
X85353Y34540D1*
X85315Y34579D1*
X85200Y34617D1*
X84855D1*
Y34234D2*
X85200D1*
X86416Y34617D2*
Y33813D1*
X86683D1*
X86798Y33852D1*
X86875Y33928D1*
X86913Y34005D1*
X86951Y34119D1*
Y34311D1*
X86913Y34426D1*
X86875Y34502D1*
X86798Y34579D1*
X86683Y34617D1*
X86416D1*
X87198D2*
X87236Y34579D1*
X87275Y34617D1*
X87236Y34656D1*
X87198Y34617D1*
X87236Y34349D2*
Y33813D1*
X87522Y34349D2*
Y33813D1*
Y34196D2*
X87637Y34311D1*
X87714Y34349D1*
X87828D1*
X87905Y34311D1*
X87943Y34196D1*
Y33813D1*
Y34196D2*
X88058Y34311D1*
X88135Y34349D1*
X88249D1*
X88326Y34311D1*
X88365Y34196D1*
Y33813D1*
X88612Y34119D2*
X89071D1*
Y34196D1*
X89033Y34273D1*
X88995Y34311D1*
X88918Y34349D1*
X88803D1*
X88727Y34311D1*
X88650Y34234D1*
X88612Y34119D1*
Y34043D1*
X88650Y33928D1*
X88727Y33852D1*
X88803Y33813D1*
X88918D1*
X88995Y33852D1*
X89071Y33928D1*
X89318Y34349D2*
Y33813D1*
Y34196D2*
X89433Y34311D1*
X89510Y34349D1*
X89624D1*
X89701Y34311D1*
X89739Y34196D1*
Y33813D1*
X90407Y34234D2*
X90369Y34311D1*
X90254Y34349D1*
X90139D1*
X90024Y34311D1*
X89986Y34234D1*
X90024Y34158D1*
X90101Y34119D1*
X90292Y34081D1*
X90369Y34043D1*
X90407Y33966D1*
Y33928D1*
X90369Y33852D1*
X90254Y33813D1*
X90139D1*
X90024Y33852D1*
X89986Y33928D1*
X90654Y34617D2*
X90692Y34579D1*
X90731Y34617D1*
X90692Y34656D1*
X90654Y34617D1*
X90692Y34349D2*
Y33813D1*
X91169Y34349D2*
X91093Y34311D1*
X91016Y34234D1*
X90978Y34119D1*
Y34043D1*
X91016Y33928D1*
X91093Y33852D1*
X91169Y33813D1*
X91284D1*
X91361Y33852D1*
X91437Y33928D1*
X91476Y34043D1*
Y34119D1*
X91437Y34234D1*
X91361Y34311D1*
X91284Y34349D1*
X91169D1*
X91723D2*
Y33813D1*
Y34196D2*
X91838Y34311D1*
X91915Y34349D1*
X92029D1*
X92106Y34311D1*
X92144Y34196D1*
Y33813D1*
X92812Y34234D2*
X92774Y34311D1*
X92659Y34349D1*
X92544D1*
X92429Y34311D1*
X92391Y34234D1*
X92429Y34158D1*
X92506Y34119D1*
X92697Y34081D1*
X92774Y34043D1*
X92812Y33966D1*
Y33928D1*
X92774Y33852D1*
X92659Y33813D1*
X92544D1*
X92429Y33852D1*
X92391Y33928D1*
X83864Y31779D2*
X83557Y32583D1*
X83251Y31779D1*
X83366Y32047D2*
X83749D1*
X84111Y32315D2*
Y31779D1*
Y32085D2*
X84150Y32200D1*
X84226Y32277D1*
X84303Y32315D1*
X84418D1*
X84665D2*
Y31779D1*
Y32085D2*
X84704Y32200D1*
X84780Y32277D1*
X84857Y32315D1*
X84972D1*
X85678D2*
Y31779D1*
Y32200D2*
X85602Y32277D1*
X85525Y32315D1*
X85411D1*
X85334Y32277D1*
X85258Y32200D1*
X85219Y32085D1*
Y32009D1*
X85258Y31894D1*
X85334Y31818D1*
X85411Y31779D1*
X85525D1*
X85602Y31818D1*
X85678Y31894D1*
X85964Y32315D2*
X86193Y31779D1*
X86117Y31626D1*
X86040Y31549D1*
X85964Y31511D1*
X85925D1*
X86423Y32315D2*
X86193Y31779D1*
X83251Y31140D2*
Y30336D1*
X83519D1*
X83634Y30375D1*
X83711Y30451D1*
X83749Y30528D1*
X83787Y30642D1*
Y30834D1*
X83749Y30949D1*
X83711Y31025D1*
X83634Y31102D1*
X83519Y31140D1*
X83251D1*
X84034D2*
X84072Y31102D1*
X84111Y31140D1*
X84072Y31179D1*
X84034Y31140D1*
X84072Y30872D2*
Y30336D1*
X84358Y30872D2*
Y30336D1*
Y30719D2*
X84473Y30834D1*
X84550Y30872D1*
X84664D1*
X84741Y30834D1*
X84779Y30719D1*
Y30336D1*
Y30719D2*
X84894Y30834D1*
X84971Y30872D1*
X85085D1*
X85162Y30834D1*
X85201Y30719D1*
Y30336D1*
X85448Y30642D2*
X85907D1*
Y30719D1*
X85869Y30796D1*
X85831Y30834D1*
X85754Y30872D1*
X85639D1*
X85563Y30834D1*
X85486Y30757D1*
X85448Y30642D1*
Y30566D1*
X85486Y30451D1*
X85563Y30375D1*
X85639Y30336D1*
X85754D1*
X85831Y30375D1*
X85907Y30451D1*
X86154Y30872D2*
Y30336D1*
Y30719D2*
X86269Y30834D1*
X86346Y30872D1*
X86460D1*
X86537Y30834D1*
X86575Y30719D1*
Y30336D1*
X87243Y30757D2*
X87205Y30834D1*
X87090Y30872D1*
X86975D1*
X86860Y30834D1*
X86822Y30757D1*
X86860Y30681D1*
X86937Y30642D1*
X87128Y30604D1*
X87205Y30566D1*
X87243Y30489D1*
Y30451D1*
X87205Y30375D1*
X87090Y30336D1*
X86975D1*
X86860Y30375D1*
X86822Y30451D1*
X87490Y31140D2*
X87528Y31102D1*
X87567Y31140D1*
X87528Y31179D1*
X87490Y31140D1*
X87528Y30872D2*
Y30336D1*
X88005Y30872D2*
X87929Y30834D1*
X87852Y30757D1*
X87814Y30642D1*
Y30566D1*
X87852Y30451D1*
X87929Y30375D1*
X88005Y30336D1*
X88120D1*
X88197Y30375D1*
X88273Y30451D1*
X88312Y30566D1*
Y30642D1*
X88273Y30757D1*
X88197Y30834D1*
X88120Y30872D1*
X88005D1*
X88559D2*
Y30336D1*
Y30719D2*
X88674Y30834D1*
X88750Y30872D1*
X88865D1*
X88941Y30834D1*
X88979Y30719D1*
Y30336D1*
X89647Y30757D2*
X89609Y30834D1*
X89494Y30872D1*
X89379D1*
X89265Y30834D1*
X89227Y30757D1*
X89265Y30681D1*
X89341Y30642D1*
X89532Y30604D1*
X89609Y30566D1*
X89647Y30489D1*
Y30451D1*
X89609Y30375D1*
X89494Y30336D1*
X89379D1*
X89265Y30375D1*
X89227Y30451D1*
X83251Y27924D2*
X83557Y27120D1*
X83863Y27924D1*
X84110D2*
Y27120D1*
X84970D2*
X84663Y27924D1*
X84357Y27120D1*
X84472Y27388D2*
X84855D1*
X86416Y27541D2*
X86377Y27618D1*
X86263Y27656D1*
X86148D1*
X86033Y27618D1*
X85995Y27541D1*
X86033Y27465D1*
X86110Y27426D1*
X86301Y27388D1*
X86377Y27350D1*
X86416Y27273D1*
Y27235D1*
X86377Y27159D1*
X86263Y27120D1*
X86148D1*
X86033Y27159D1*
X85995Y27235D1*
X86854Y27656D2*
X86778Y27618D1*
X86701Y27541D1*
X86663Y27426D1*
Y27350D1*
X86701Y27235D1*
X86778Y27159D1*
X86854Y27120D1*
X86969D1*
X87045Y27159D1*
X87122Y27235D1*
X87160Y27350D1*
Y27426D1*
X87122Y27541D1*
X87045Y27618D1*
X86969Y27656D1*
X86854D1*
X87407Y27924D2*
Y27120D1*
X88113Y27924D2*
Y27120D1*
Y27541D2*
X88037Y27618D1*
X87960Y27656D1*
X87845D1*
X87769Y27618D1*
X87692Y27541D1*
X87654Y27426D1*
Y27350D1*
X87692Y27235D1*
X87769Y27159D1*
X87845Y27120D1*
X87960D1*
X88037Y27159D1*
X88113Y27235D1*
X88360Y27426D2*
X88819D1*
Y27503D1*
X88781Y27580D1*
X88743Y27618D1*
X88666Y27656D1*
X88551D1*
X88475Y27618D1*
X88398Y27541D1*
X88360Y27426D1*
Y27350D1*
X88398Y27235D1*
X88475Y27159D1*
X88551Y27120D1*
X88666D1*
X88743Y27159D1*
X88819Y27235D1*
X89066Y27656D2*
Y27120D1*
Y27426D2*
X89105Y27541D1*
X89181Y27618D1*
X89258Y27656D1*
X89373D1*
X89620D2*
Y27120D1*
Y27503D2*
X89735Y27618D1*
X89812Y27656D1*
X89926D1*
X90003Y27618D1*
X90041Y27503D1*
Y27120D1*
Y27503D2*
X90156Y27618D1*
X90233Y27656D1*
X90347D1*
X90424Y27618D1*
X90463Y27503D1*
Y27120D1*
X91169Y27656D2*
Y27120D1*
Y27541D2*
X91093Y27618D1*
X91016Y27656D1*
X90902D1*
X90825Y27618D1*
X90749Y27541D1*
X90710Y27426D1*
Y27350D1*
X90749Y27235D1*
X90825Y27159D1*
X90902Y27120D1*
X91016D1*
X91093Y27159D1*
X91169Y27235D1*
X91837Y27541D2*
X91799Y27618D1*
X91684Y27656D1*
X91569D1*
X91454Y27618D1*
X91416Y27541D1*
X91454Y27465D1*
X91531Y27426D1*
X91722Y27388D1*
X91799Y27350D1*
X91837Y27273D1*
Y27235D1*
X91799Y27159D1*
X91684Y27120D1*
X91569D1*
X91454Y27159D1*
X91416Y27235D1*
X92084Y27924D2*
Y27120D1*
X92467Y27656D2*
X92084Y27273D1*
X92237Y27426D2*
X92505Y27120D1*
X83863Y24364D2*
Y25168D1*
X83557Y24364D1*
X83251Y25168D1*
Y24364D1*
X84110Y25168D2*
X84148Y25130D1*
X84187Y25168D1*
X84148Y25207D1*
X84110Y25168D1*
X84148Y24900D2*
Y24364D1*
X84434Y24900D2*
Y24364D1*
Y24747D2*
X84549Y24862D1*
X84626Y24900D1*
X84740D1*
X84817Y24862D1*
X84855Y24747D1*
Y24364D1*
X85995Y25168D2*
Y24517D1*
X86033Y24403D1*
X86110Y24364D1*
X86186D1*
X85880Y24900D2*
X86148D1*
X86433D2*
Y24364D1*
Y24670D2*
X86472Y24785D1*
X86548Y24862D1*
X86625Y24900D1*
X86739D1*
X87445D2*
Y24364D1*
Y24785D2*
X87369Y24862D1*
X87292Y24900D1*
X87178D1*
X87101Y24862D1*
X87025Y24785D1*
X86987Y24670D1*
Y24594D1*
X87025Y24479D1*
X87101Y24403D1*
X87178Y24364D1*
X87292D1*
X87369Y24403D1*
X87445Y24479D1*
X88152Y24785D2*
X88075Y24862D1*
X87998Y24900D1*
X87884D1*
X87807Y24862D1*
X87731Y24785D1*
X87692Y24670D1*
Y24594D1*
X87731Y24479D1*
X87807Y24403D1*
X87884Y24364D1*
X87998D1*
X88075Y24403D1*
X88152Y24479D1*
X88399Y24670D2*
X88858D1*
Y24747D1*
X88820Y24824D1*
X88782Y24862D1*
X88705Y24900D1*
X88590D1*
X88514Y24862D1*
X88437Y24785D1*
X88399Y24670D1*
Y24594D1*
X88437Y24479D1*
X88514Y24403D1*
X88590Y24364D1*
X88705D1*
X88782Y24403D1*
X88858Y24479D1*
X83863Y22792D2*
Y23596D1*
X83557Y22792D1*
X83251Y23596D1*
Y22792D1*
X84110Y23596D2*
X84148Y23558D1*
X84187Y23596D1*
X84148Y23635D1*
X84110Y23596D1*
X84148Y23328D2*
Y22792D1*
X84434Y23328D2*
Y22792D1*
Y23175D2*
X84549Y23290D1*
X84626Y23328D1*
X84740D1*
X84817Y23290D1*
X84855Y23175D1*
Y22792D1*
X85880Y23596D2*
Y22792D1*
Y23175D2*
X85995Y23290D1*
X86072Y23328D1*
X86186D1*
X86263Y23290D1*
X86301Y23175D1*
Y22792D1*
X86739Y23328D2*
X86663Y23290D1*
X86586Y23213D1*
X86548Y23098D1*
Y23022D1*
X86586Y22907D1*
X86663Y22831D1*
X86739Y22792D1*
X86854D1*
X86930Y22831D1*
X87007Y22907D1*
X87045Y23022D1*
Y23098D1*
X87007Y23213D1*
X86930Y23290D1*
X86854Y23328D1*
X86739D1*
X87292Y23596D2*
Y22792D1*
X87540Y23098D2*
X87998D1*
Y23175D1*
X87960Y23252D1*
X87922Y23290D1*
X87845Y23328D1*
X87731D1*
X87654Y23290D1*
X87578Y23213D1*
X87540Y23098D1*
Y23022D1*
X87578Y22907D1*
X87654Y22831D1*
X87731Y22792D1*
X87845D1*
X87922Y22831D1*
X87998Y22907D1*
X83749Y22024D2*
X83251D1*
Y21220D1*
Y21641D2*
X83557D1*
X83996Y21526D2*
X84455D1*
Y21603D1*
X84417Y21680D1*
X84379Y21718D1*
X84302Y21756D1*
X84187D1*
X84111Y21718D1*
X84034Y21641D1*
X83996Y21526D1*
Y21450D1*
X84034Y21335D1*
X84111Y21259D1*
X84187Y21220D1*
X84302D1*
X84379Y21259D1*
X84455Y21335D1*
X85161Y21756D2*
Y21220D1*
Y21641D2*
X85085Y21718D1*
X85008Y21756D1*
X84894D1*
X84817Y21718D1*
X84741Y21641D1*
X84702Y21526D1*
Y21450D1*
X84741Y21335D1*
X84817Y21259D1*
X84894Y21220D1*
X85008D1*
X85085Y21259D1*
X85161Y21335D1*
X85523Y22024D2*
Y21373D1*
X85561Y21259D1*
X85638Y21220D1*
X85714D1*
X85408Y21756D2*
X85676D1*
X85961D2*
Y21373D1*
X85999Y21259D1*
X86076Y21220D1*
X86191D1*
X86267Y21259D1*
X86382Y21373D1*
Y21756D2*
Y21220D1*
X86629Y21756D2*
Y21220D1*
Y21526D2*
X86668Y21641D1*
X86744Y21718D1*
X86821Y21756D1*
X86936D1*
X87183Y21526D2*
X87642D1*
Y21603D1*
X87604Y21680D1*
X87566Y21718D1*
X87489Y21756D1*
X87374D1*
X87298Y21718D1*
X87221Y21641D1*
X87183Y21526D1*
Y21450D1*
X87221Y21335D1*
X87298Y21259D1*
X87374Y21220D1*
X87489D1*
X87566Y21259D1*
X87642Y21335D1*
X88781Y22024D2*
Y21373D1*
X88819Y21259D1*
X88896Y21220D1*
X88972D1*
X88666Y21756D2*
X88934D1*
X89410D2*
X89334Y21718D1*
X89257Y21641D1*
X89219Y21526D1*
Y21450D1*
X89257Y21335D1*
X89334Y21259D1*
X89410Y21220D1*
X89525D1*
X89602Y21259D1*
X89678Y21335D1*
X89717Y21450D1*
Y21526D1*
X89678Y21641D1*
X89602Y21718D1*
X89525Y21756D1*
X89410D1*
X90742Y21526D2*
X91201D1*
Y21603D1*
X91163Y21680D1*
X91125Y21718D1*
X91048Y21756D1*
X90933D1*
X90857Y21718D1*
X90780Y21641D1*
X90742Y21526D1*
Y21450D1*
X90780Y21335D1*
X90857Y21259D1*
X90933Y21220D1*
X91048D1*
X91125Y21259D1*
X91201Y21335D1*
X91907Y22024D2*
Y21220D1*
Y21641D2*
X91831Y21718D1*
X91754Y21756D1*
X91639D1*
X91563Y21718D1*
X91486Y21641D1*
X91448Y21526D1*
Y21450D1*
X91486Y21335D1*
X91563Y21259D1*
X91639Y21220D1*
X91754D1*
X91831Y21259D1*
X91907Y21335D1*
X92613Y21718D2*
Y21105D1*
X92575Y20991D1*
X92537Y20952D1*
X92460Y20914D1*
X92345D1*
X92269Y20952D1*
X92613Y21603D2*
X92537Y21679D1*
X92460Y21718D1*
X92345D1*
X92269Y21679D1*
X92192Y21603D1*
X92154Y21488D1*
Y21411D1*
X92192Y21297D1*
X92269Y21220D1*
X92345Y21182D1*
X92460D1*
X92537Y21220D1*
X92613Y21297D1*
X92860Y21526D2*
X93319D1*
Y21603D1*
X93281Y21680D1*
X93243Y21718D1*
X93166Y21756D1*
X93051D1*
X92975Y21718D1*
X92898Y21641D1*
X92860Y21526D1*
Y21450D1*
X92898Y21335D1*
X92975Y21259D1*
X93051Y21220D1*
X93166D1*
X93243Y21259D1*
X93319Y21335D1*
X83825Y20258D2*
X83787Y20334D1*
X83710Y20411D1*
X83634Y20449D1*
X83481D1*
X83404Y20411D1*
X83328Y20334D1*
X83289Y20258D1*
X83251Y20143D1*
Y19951D1*
X83289Y19837D1*
X83328Y19760D1*
X83404Y19684D1*
X83481Y19645D1*
X83634D1*
X83710Y19684D1*
X83787Y19760D1*
X83825Y19837D1*
X84531Y20181D2*
Y19645D1*
Y20066D2*
X84455Y20143D1*
X84378Y20181D1*
X84264D1*
X84187Y20143D1*
X84111Y20066D1*
X84072Y19951D1*
Y19875D1*
X84111Y19760D1*
X84187Y19684D1*
X84264Y19645D1*
X84378D1*
X84455Y19684D1*
X84531Y19760D1*
X85199Y20066D2*
X85161Y20143D1*
X85046Y20181D1*
X84931D1*
X84816Y20143D1*
X84778Y20066D1*
X84816Y19990D1*
X84893Y19951D1*
X85084Y19913D1*
X85161Y19875D1*
X85199Y19798D1*
Y19760D1*
X85161Y19684D1*
X85046Y19645D1*
X84931D1*
X84816Y19684D1*
X84778Y19760D1*
X85561Y20449D2*
Y19798D1*
X85599Y19684D1*
X85676Y19645D1*
X85752D1*
X85446Y20181D2*
X85714D1*
X85999Y19951D2*
X86458D1*
Y20028D1*
X86420Y20105D1*
X86382Y20143D1*
X86305Y20181D1*
X86190D1*
X86114Y20143D1*
X86037Y20066D1*
X85999Y19951D1*
Y19875D1*
X86037Y19760D1*
X86114Y19684D1*
X86190Y19645D1*
X86305D1*
X86382Y19684D1*
X86458Y19760D1*
X86705Y20449D2*
Y19645D1*
X86952Y20449D2*
Y19645D1*
X87658Y20181D2*
Y19645D1*
Y20066D2*
X87582Y20143D1*
X87505Y20181D1*
X87391D1*
X87314Y20143D1*
X87238Y20066D1*
X87199Y19951D1*
Y19875D1*
X87238Y19760D1*
X87314Y19684D1*
X87391Y19645D1*
X87505D1*
X87582Y19684D1*
X87658Y19760D1*
X88020Y20449D2*
Y19798D1*
X88058Y19684D1*
X88135Y19645D1*
X88211D1*
X87905Y20181D2*
X88173D1*
X88458Y20449D2*
X88496Y20411D1*
X88535Y20449D1*
X88496Y20488D1*
X88458Y20449D1*
X88496Y20181D2*
Y19645D1*
X88973Y20181D2*
X88897Y20143D1*
X88820Y20066D1*
X88782Y19951D1*
Y19875D1*
X88820Y19760D1*
X88897Y19684D1*
X88973Y19645D1*
X89088D1*
X89165Y19684D1*
X89241Y19760D1*
X89280Y19875D1*
Y19951D1*
X89241Y20066D1*
X89165Y20143D1*
X89088Y20181D1*
X88973D1*
X89527D2*
Y19645D1*
Y20028D2*
X89642Y20143D1*
X89719Y20181D1*
X89833D1*
X89910Y20143D1*
X89948Y20028D1*
Y19645D1*
X90616Y20066D2*
X90578Y20143D1*
X90463Y20181D1*
X90348D1*
X90233Y20143D1*
X90195Y20066D1*
X90233Y19990D1*
X90310Y19951D1*
X90501Y19913D1*
X90578Y19875D1*
X90616Y19798D1*
Y19760D1*
X90578Y19684D1*
X90463Y19645D1*
X90348D1*
X90233Y19684D1*
X90195Y19760D1*
X83251Y18491D2*
X83595D1*
X83710Y18530D1*
X83749Y18568D1*
X83787Y18644D1*
Y18721D1*
X83749Y18797D1*
X83710Y18836D1*
X83595Y18874D1*
X83251D1*
Y18070D1*
X83519Y18491D2*
X83787Y18070D1*
X84225Y18606D2*
X84149Y18568D1*
X84072Y18491D1*
X84034Y18376D1*
Y18300D1*
X84072Y18185D1*
X84149Y18109D1*
X84225Y18070D1*
X84340D1*
X84417Y18109D1*
X84493Y18185D1*
X84532Y18300D1*
Y18376D1*
X84493Y18491D1*
X84417Y18568D1*
X84340Y18606D1*
X84225D1*
X84779D2*
Y18223D1*
X84817Y18109D1*
X84894Y18070D1*
X85009D1*
X85085Y18109D1*
X85200Y18223D1*
Y18606D2*
Y18070D1*
X85562Y18874D2*
Y18223D1*
X85600Y18109D1*
X85677Y18070D1*
X85753D1*
X85447Y18606D2*
X85715D1*
X86000Y18874D2*
X86038Y18836D1*
X86077Y18874D1*
X86038Y18913D1*
X86000Y18874D1*
X86038Y18606D2*
Y18070D1*
X86324Y18606D2*
Y18070D1*
Y18453D2*
X86439Y18568D1*
X86516Y18606D1*
X86630D1*
X86707Y18568D1*
X86745Y18453D1*
Y18070D1*
X87451Y18568D2*
Y17955D1*
X87413Y17841D1*
X87375Y17802D1*
X87298Y17764D1*
X87183D1*
X87107Y17802D1*
X87451Y18453D2*
X87375Y18529D1*
X87298Y18568D1*
X87183D1*
X87107Y18529D1*
X87030Y18453D1*
X86992Y18338D1*
Y18261D1*
X87030Y18147D1*
X87107Y18070D1*
X87183Y18032D1*
X87298D1*
X87375Y18070D1*
X87451Y18147D1*
X83251Y16919D2*
X83595D1*
X83710Y16958D1*
X83749Y16996D1*
X83787Y17072D1*
Y17149D1*
X83749Y17225D1*
X83710Y17263D1*
X83595Y17302D1*
X83251D1*
Y16498D1*
X83519Y16919D2*
X83787Y16498D1*
X84225Y17034D2*
X84149Y16996D1*
X84072Y16919D1*
X84034Y16804D1*
Y16728D1*
X84072Y16613D1*
X84149Y16537D1*
X84225Y16498D1*
X84340D1*
X84417Y16537D1*
X84493Y16613D1*
X84532Y16728D1*
Y16804D1*
X84493Y16919D1*
X84417Y16996D1*
X84340Y17034D1*
X84225D1*
X84779D2*
Y16651D1*
X84817Y16537D1*
X84894Y16498D1*
X85009D1*
X85085Y16537D1*
X85200Y16651D1*
Y17034D2*
Y16498D1*
X85562Y17302D2*
Y16651D1*
X85600Y16537D1*
X85677Y16498D1*
X85753D1*
X85447Y17034D2*
X85715D1*
X86000Y17302D2*
X86038Y17263D1*
X86077Y17302D1*
X86038Y17340D1*
X86000Y17302D1*
X86038Y17034D2*
Y16498D1*
X86324Y17034D2*
Y16498D1*
Y16881D2*
X86439Y16996D1*
X86516Y17034D1*
X86630D1*
X86707Y16996D1*
X86745Y16881D1*
Y16498D1*
X87451Y16996D2*
Y16383D1*
X87413Y16269D1*
X87375Y16230D1*
X87298Y16192D1*
X87183D1*
X87107Y16230D1*
X87451Y16881D2*
X87375Y16957D1*
X87298Y16996D1*
X87183D1*
X87107Y16957D1*
X87030Y16881D1*
X86992Y16766D1*
Y16689D1*
X87030Y16575D1*
X87107Y16498D1*
X87183Y16460D1*
X87298D1*
X87375Y16498D1*
X87451Y16575D1*
X88590Y17302D2*
Y16651D1*
X88628Y16537D1*
X88705Y16498D1*
X88781D1*
X88475Y17034D2*
X88743D1*
X89487D2*
Y16498D1*
Y16919D2*
X89411Y16996D1*
X89334Y17034D1*
X89220D1*
X89143Y16996D1*
X89067Y16919D1*
X89028Y16804D1*
Y16728D1*
X89067Y16613D1*
X89143Y16537D1*
X89220Y16498D1*
X89334D1*
X89411Y16537D1*
X89487Y16613D1*
X89734Y17302D2*
Y16498D1*
Y16919D2*
X89811Y16996D1*
X89887Y17034D1*
X90002D1*
X90078Y16996D1*
X90155Y16919D1*
X90193Y16804D1*
Y16728D1*
X90155Y16613D1*
X90078Y16537D1*
X90002Y16498D1*
X89887D1*
X89811Y16537D1*
X89734Y16613D1*
X90861Y16919D2*
X90823Y16996D1*
X90708Y17034D1*
X90593D1*
X90478Y16996D1*
X90440Y16919D1*
X90478Y16843D1*
X90555Y16804D1*
X90746Y16766D1*
X90823Y16728D1*
X90861Y16651D1*
Y16613D1*
X90823Y16537D1*
X90708Y16498D1*
X90593D1*
X90478Y16537D1*
X90440Y16613D1*
X83251Y14548D2*
X83557Y13744D1*
X83863Y14548D1*
X84110D2*
X84148Y14510D1*
X84187Y14548D1*
X84148Y14587D1*
X84110Y14548D1*
X84148Y14280D2*
Y13744D1*
X84893Y14280D2*
Y13744D1*
Y14165D2*
X84817Y14242D1*
X84740Y14280D1*
X84626D1*
X84549Y14242D1*
X84473Y14165D1*
X84434Y14050D1*
Y13974D1*
X84473Y13859D1*
X84549Y13783D1*
X84626Y13744D1*
X84740D1*
X84817Y13783D1*
X84893Y13859D1*
X85918Y14548D2*
Y13744D1*
X86165Y14280D2*
Y13744D1*
Y14127D2*
X86280Y14242D1*
X86357Y14280D1*
X86471D1*
X86548Y14242D1*
X86586Y14127D1*
Y13744D1*
X87610Y14127D2*
X87955D1*
X88069Y14165D1*
X88108Y14204D1*
X88146Y14280D1*
Y14395D1*
X88108Y14471D1*
X88069Y14510D1*
X87955Y14548D1*
X87610D1*
Y13744D1*
X88852Y14280D2*
Y13744D1*
Y14165D2*
X88776Y14242D1*
X88699Y14280D1*
X88585D1*
X88508Y14242D1*
X88432Y14165D1*
X88393Y14050D1*
Y13974D1*
X88432Y13859D1*
X88508Y13783D1*
X88585Y13744D1*
X88699D1*
X88776Y13783D1*
X88852Y13859D1*
X89558Y14548D2*
Y13744D1*
Y14165D2*
X89482Y14242D1*
X89405Y14280D1*
X89290D1*
X89214Y14242D1*
X89137Y14165D1*
X89099Y14050D1*
Y13974D1*
X89137Y13859D1*
X89214Y13783D1*
X89290Y13744D1*
X89405D1*
X89482Y13783D1*
X89558Y13859D1*
X83825Y11601D2*
X83787Y11677D1*
X83710Y11754D1*
X83634Y11792D1*
X83481D1*
X83404Y11754D1*
X83328Y11677D1*
X83289Y11601D1*
X83251Y11486D1*
Y11294D1*
X83289Y11180D1*
X83328Y11103D1*
X83404Y11027D1*
X83481Y10988D1*
X83634D1*
X83710Y11027D1*
X83787Y11103D1*
X83825Y11180D1*
X84263Y11524D2*
X84187Y11486D1*
X84110Y11409D1*
X84072Y11294D1*
Y11218D1*
X84110Y11103D1*
X84187Y11027D1*
X84263Y10988D1*
X84378D1*
X84455Y11027D1*
X84531Y11103D1*
X84570Y11218D1*
Y11294D1*
X84531Y11409D1*
X84455Y11486D1*
X84378Y11524D1*
X84263D1*
X84817D2*
Y10988D1*
Y11371D2*
X84932Y11486D1*
X85009Y11524D1*
X85123D1*
X85200Y11486D1*
X85238Y11371D1*
Y10988D1*
X85600Y11792D2*
Y11141D1*
X85638Y11027D1*
X85715Y10988D1*
X85791D1*
X85485Y11524D2*
X85753D1*
X86497D2*
Y10988D1*
Y11409D2*
X86421Y11486D1*
X86344Y11524D1*
X86230D1*
X86153Y11486D1*
X86077Y11409D1*
X86038Y11294D1*
Y11218D1*
X86077Y11103D1*
X86153Y11027D1*
X86230Y10988D1*
X86344D1*
X86421Y11027D1*
X86497Y11103D1*
X87204Y11409D2*
X87127Y11486D1*
X87050Y11524D1*
X86936D1*
X86859Y11486D1*
X86783Y11409D1*
X86744Y11294D1*
Y11218D1*
X86783Y11103D1*
X86859Y11027D1*
X86936Y10988D1*
X87050D1*
X87127Y11027D1*
X87204Y11103D1*
X87566Y11792D2*
Y11141D1*
X87604Y11027D1*
X87681Y10988D1*
X87757D1*
X87451Y11524D2*
X87719D1*
X89278Y11792D2*
X88781D1*
Y10988D1*
X89278D1*
X88781Y11409D2*
X89087D1*
X89525Y11524D2*
Y10988D1*
Y11371D2*
X89640Y11486D1*
X89717Y11524D1*
X89831D1*
X89908Y11486D1*
X89946Y11371D1*
Y10988D1*
Y11371D2*
X90061Y11486D1*
X90138Y11524D1*
X90252D1*
X90329Y11486D1*
X90368Y11371D1*
Y10988D1*
X91074Y11524D2*
Y10988D1*
Y11409D2*
X90998Y11486D1*
X90921Y11524D1*
X90807D1*
X90730Y11486D1*
X90654Y11409D1*
X90615Y11294D1*
Y11218D1*
X90654Y11103D1*
X90730Y11027D1*
X90807Y10988D1*
X90921D1*
X90998Y11027D1*
X91074Y11103D1*
X91321Y11792D2*
X91359Y11754D1*
X91398Y11792D1*
X91359Y11831D1*
X91321Y11792D1*
X91359Y11524D2*
Y10988D1*
X91645Y11792D2*
Y10988D1*
X83825Y10026D2*
X83787Y10102D1*
X83710Y10179D1*
X83634Y10217D1*
X83481D1*
X83404Y10179D1*
X83328Y10102D1*
X83289Y10026D1*
X83251Y9911D1*
Y9719D1*
X83289Y9605D1*
X83328Y9528D1*
X83404Y9452D1*
X83481Y9413D1*
X83634D1*
X83710Y9452D1*
X83787Y9528D1*
X83825Y9605D1*
X84263Y9949D2*
X84187Y9911D1*
X84110Y9834D1*
X84072Y9719D1*
Y9643D1*
X84110Y9528D1*
X84187Y9452D1*
X84263Y9413D1*
X84378D1*
X84455Y9452D1*
X84531Y9528D1*
X84570Y9643D1*
Y9719D1*
X84531Y9834D1*
X84455Y9911D1*
X84378Y9949D1*
X84263D1*
X84817D2*
Y9413D1*
Y9796D2*
X84932Y9911D1*
X85009Y9949D1*
X85123D1*
X85200Y9911D1*
X85238Y9796D1*
Y9413D1*
X85600Y10217D2*
Y9566D1*
X85638Y9452D1*
X85715Y9413D1*
X85791D1*
X85485Y9949D2*
X85753D1*
X86497D2*
Y9413D1*
Y9834D2*
X86421Y9911D1*
X86344Y9949D1*
X86230D1*
X86153Y9911D1*
X86077Y9834D1*
X86038Y9719D1*
Y9643D1*
X86077Y9528D1*
X86153Y9452D1*
X86230Y9413D1*
X86344D1*
X86421Y9452D1*
X86497Y9528D1*
X87204Y9834D2*
X87127Y9911D1*
X87050Y9949D1*
X86936D1*
X86859Y9911D1*
X86783Y9834D1*
X86744Y9719D1*
Y9643D1*
X86783Y9528D1*
X86859Y9452D1*
X86936Y9413D1*
X87050D1*
X87127Y9452D1*
X87204Y9528D1*
X87566Y10217D2*
Y9566D1*
X87604Y9452D1*
X87681Y9413D1*
X87757D1*
X87451Y9949D2*
X87719D1*
X88781Y9796D2*
X89126D1*
X89240Y9834D1*
X89279Y9873D1*
X89317Y9949D1*
Y10064D1*
X89279Y10140D1*
X89240Y10179D1*
X89126Y10217D1*
X88781D1*
Y9413D1*
X89564Y10217D2*
Y9413D1*
Y9796D2*
X89679Y9911D1*
X89756Y9949D1*
X89871D1*
X89947Y9911D1*
X89985Y9796D1*
Y9413D1*
X90423Y9949D2*
X90347Y9911D1*
X90270Y9834D1*
X90232Y9719D1*
Y9643D1*
X90270Y9528D1*
X90347Y9452D1*
X90423Y9413D1*
X90538D1*
X90615Y9452D1*
X90691Y9528D1*
X90730Y9643D1*
Y9719D1*
X90691Y9834D1*
X90615Y9911D1*
X90538Y9949D1*
X90423D1*
X90977D2*
Y9413D1*
Y9796D2*
X91092Y9911D1*
X91169Y9949D1*
X91283D1*
X91360Y9911D1*
X91398Y9796D1*
Y9413D1*
X91645Y9719D2*
X92104D1*
Y9796D1*
X92066Y9873D1*
X92028Y9911D1*
X91951Y9949D1*
X91836D1*
X91760Y9911D1*
X91683Y9834D1*
X91645Y9719D1*
Y9643D1*
X91683Y9528D1*
X91760Y9452D1*
X91836Y9413D1*
X91951D1*
X92028Y9452D1*
X92104Y9528D1*
X83825Y7269D2*
X83787Y7345D1*
X83710Y7422D1*
X83634Y7460D1*
X83481D1*
X83404Y7422D1*
X83328Y7345D1*
X83289Y7269D1*
X83251Y7154D1*
Y6962D1*
X83289Y6848D1*
X83328Y6771D1*
X83404Y6695D1*
X83481Y6656D1*
X83634D1*
X83710Y6695D1*
X83787Y6771D1*
X83825Y6848D1*
X84263Y7192D2*
X84187Y7154D1*
X84110Y7077D1*
X84072Y6962D1*
Y6886D1*
X84110Y6771D1*
X84187Y6695D1*
X84263Y6656D1*
X84378D1*
X84455Y6695D1*
X84531Y6771D1*
X84570Y6886D1*
Y6962D1*
X84531Y7077D1*
X84455Y7154D1*
X84378Y7192D1*
X84263D1*
X84817D2*
Y6656D1*
Y7039D2*
X84932Y7154D1*
X85009Y7192D1*
X85123D1*
X85200Y7154D1*
X85238Y7039D1*
Y6656D1*
X85600Y7460D2*
Y6809D1*
X85638Y6695D1*
X85715Y6656D1*
X85791D1*
X85485Y7192D2*
X85753D1*
X86497D2*
Y6656D1*
Y7077D2*
X86421Y7154D1*
X86344Y7192D1*
X86230D1*
X86153Y7154D1*
X86077Y7077D1*
X86038Y6962D1*
Y6886D1*
X86077Y6771D1*
X86153Y6695D1*
X86230Y6656D1*
X86344D1*
X86421Y6695D1*
X86497Y6771D1*
X87204Y7077D2*
X87127Y7154D1*
X87050Y7192D1*
X86936D1*
X86859Y7154D1*
X86783Y7077D1*
X86744Y6962D1*
Y6886D1*
X86783Y6771D1*
X86859Y6695D1*
X86936Y6656D1*
X87050D1*
X87127Y6695D1*
X87204Y6771D1*
X87566Y7460D2*
Y6809D1*
X87604Y6695D1*
X87681Y6656D1*
X87757D1*
X87451Y7192D2*
X87719D1*
X89394Y6656D2*
X89087Y7460D1*
X88781Y6656D1*
X88896Y6924D2*
X89279D1*
X90100Y7460D2*
Y6656D1*
Y7077D2*
X90024Y7154D1*
X89947Y7192D1*
X89832D1*
X89756Y7154D1*
X89679Y7077D1*
X89641Y6962D1*
Y6886D1*
X89679Y6771D1*
X89756Y6695D1*
X89832Y6656D1*
X89947D1*
X90024Y6695D1*
X90100Y6771D1*
X90806Y7460D2*
Y6656D1*
Y7077D2*
X90730Y7154D1*
X90653Y7192D1*
X90538D1*
X90462Y7154D1*
X90385Y7077D1*
X90347Y6962D1*
Y6886D1*
X90385Y6771D1*
X90462Y6695D1*
X90538Y6656D1*
X90653D1*
X90730Y6695D1*
X90806Y6771D1*
X91053Y7192D2*
Y6656D1*
Y6962D2*
X91092Y7077D1*
X91168Y7154D1*
X91245Y7192D1*
X91360D1*
X91607Y6962D2*
X92066D1*
Y7039D1*
X92028Y7116D1*
X91990Y7154D1*
X91913Y7192D1*
X91798D1*
X91722Y7154D1*
X91645Y7077D1*
X91607Y6962D1*
Y6886D1*
X91645Y6771D1*
X91722Y6695D1*
X91798Y6656D1*
X91913D1*
X91990Y6695D1*
X92066Y6771D1*
X92734Y7077D2*
X92696Y7154D1*
X92581Y7192D1*
X92466D1*
X92351Y7154D1*
X92313Y7077D1*
X92351Y7001D1*
X92428Y6962D1*
X92619Y6924D1*
X92696Y6886D1*
X92734Y6809D1*
Y6771D1*
X92696Y6695D1*
X92581Y6656D1*
X92466D1*
X92351Y6695D1*
X92313Y6771D1*
X93402Y7077D2*
X93364Y7154D1*
X93249Y7192D1*
X93134D1*
X93019Y7154D1*
X92981Y7077D1*
X93019Y7001D1*
X93096Y6962D1*
X93287Y6924D1*
X93364Y6886D1*
X93402Y6809D1*
Y6771D1*
X93364Y6695D1*
X93249Y6656D1*
X93134D1*
X93019Y6695D1*
X92981Y6771D1*
X98999Y51940D2*
X99305Y51136D1*
X99611Y51940D1*
X100317Y51672D2*
Y51136D1*
Y51557D2*
X100241Y51634D1*
X100164Y51672D1*
X100050D1*
X99973Y51634D1*
X99897Y51557D1*
X99858Y51442D1*
Y51366D1*
X99897Y51251D1*
X99973Y51175D1*
X100050Y51136D1*
X100164D1*
X100241Y51175D1*
X100317Y51251D1*
X100564Y51940D2*
Y51136D1*
X100811Y51672D2*
Y51289D1*
X100849Y51175D1*
X100926Y51136D1*
X101041D1*
X101117Y51175D1*
X101232Y51289D1*
Y51672D2*
Y51136D1*
X101479Y51442D2*
X101938D1*
Y51519D1*
X101900Y51596D1*
X101862Y51634D1*
X101785Y51672D1*
X101670D1*
X101594Y51634D1*
X101517Y51557D1*
X101479Y51442D1*
Y51366D1*
X101517Y51251D1*
X101594Y51175D1*
X101670Y51136D1*
X101785D1*
X101862Y51175D1*
X101938Y51251D1*
X98999Y50365D2*
Y49561D1*
X99267D1*
X99382Y49600D1*
X99459Y49676D1*
X99497Y49753D1*
X99535Y49867D1*
Y50059D1*
X99497Y50174D1*
X99459Y50250D1*
X99382Y50327D1*
X99267Y50365D1*
X98999D1*
X99782Y49982D2*
X100126D1*
X100241Y50021D1*
X100280Y50059D1*
X100318Y50135D1*
Y50212D1*
X100280Y50288D1*
X100241Y50327D1*
X100126Y50365D1*
X99782D1*
Y49561D1*
X100050Y49982D2*
X100318Y49561D1*
X100565Y50365D2*
X100871Y49561D1*
X101177Y50365D1*
X101463Y50173D2*
Y50211D1*
X101501Y50288D1*
X101539Y50326D1*
X101616Y50364D1*
X101769D1*
X101845Y50326D1*
X101883Y50288D1*
X101922Y50211D1*
Y50135D1*
X101883Y50058D1*
X101807Y49944D1*
X101424Y49561D1*
X101960D1*
X102666Y50250D2*
X102628Y50326D1*
X102513Y50364D1*
X102437D1*
X102322Y50326D1*
X102245Y50211D1*
X102207Y50020D1*
Y49829D1*
X102245Y49676D1*
X102322Y49599D1*
X102437Y49561D1*
X102475D1*
X102589Y49599D1*
X102666Y49676D1*
X102704Y49791D1*
Y49829D1*
X102666Y49944D1*
X102589Y50020D1*
X102475Y50058D1*
X102437D1*
X102322Y50020D1*
X102245Y49944D1*
X102207Y49829D1*
X103181Y50364D2*
X103066Y50326D1*
X102989Y50211D1*
X102951Y50020D1*
Y49905D1*
X102989Y49714D1*
X103066Y49599D1*
X103181Y49561D1*
X103257D1*
X103372Y49599D1*
X103448Y49714D1*
X103487Y49905D1*
Y50020D1*
X103448Y50211D1*
X103372Y50326D1*
X103257Y50364D1*
X103181D1*
X103448Y50211D2*
X102989Y49714D1*
X104193Y50364D2*
X103811D1*
X103773Y50020D1*
X103811Y50058D1*
X103926Y50097D1*
X104040D1*
X104155Y50058D1*
X104232Y49982D1*
X104270Y49867D1*
Y49791D1*
X104232Y49676D1*
X104155Y49599D1*
X104040Y49561D1*
X103926D1*
X103811Y49599D1*
X103773Y49638D1*
X103734Y49714D1*
X105792Y50365D2*
X105294D1*
Y49561D1*
Y49982D2*
X105600D1*
X106039Y50365D2*
Y49561D1*
X106286Y49867D2*
X106745D1*
Y49944D1*
X106707Y50021D1*
X106669Y50059D1*
X106592Y50097D1*
X106477D1*
X106401Y50059D1*
X106324Y49982D1*
X106286Y49867D1*
Y49791D1*
X106324Y49676D1*
X106401Y49600D1*
X106477Y49561D1*
X106592D1*
X106669Y49600D1*
X106745Y49676D1*
X106992Y50097D2*
X107413Y49561D1*
Y50097D2*
X106992Y49561D1*
X109050D2*
Y50365D1*
X108744Y49561D1*
X108438Y50365D1*
Y49561D1*
X109488Y50097D2*
X109412Y50059D1*
X109335Y49982D1*
X109297Y49867D1*
Y49791D1*
X109335Y49676D1*
X109412Y49600D1*
X109488Y49561D1*
X109603D1*
X109680Y49600D1*
X109756Y49676D1*
X109795Y49791D1*
Y49867D1*
X109756Y49982D1*
X109680Y50059D1*
X109603Y50097D1*
X109488D1*
X110501Y50365D2*
Y49561D1*
Y49982D2*
X110425Y50059D1*
X110348Y50097D1*
X110233D1*
X110157Y50059D1*
X110080Y49982D1*
X110042Y49867D1*
Y49791D1*
X110080Y49676D1*
X110157Y49600D1*
X110233Y49561D1*
X110348D1*
X110425Y49600D1*
X110501Y49676D1*
X110748Y50097D2*
Y49714D1*
X110786Y49600D1*
X110863Y49561D1*
X110978D1*
X111054Y49600D1*
X111169Y49714D1*
Y50097D2*
Y49561D1*
X111416Y50365D2*
Y49561D1*
X111663Y49867D2*
X112122D1*
Y49944D1*
X112084Y50021D1*
X112046Y50059D1*
X111969Y50097D1*
X111854D1*
X111778Y50059D1*
X111701Y49982D1*
X111663Y49867D1*
Y49791D1*
X111701Y49676D1*
X111778Y49600D1*
X111854Y49561D1*
X111969D1*
X112046Y49600D1*
X112122Y49676D1*
X98999Y48637D2*
X99076Y48675D1*
X99191Y48789D1*
Y47987D1*
X99476Y48063D2*
X99438Y48025D1*
X99476Y47987D1*
X99515Y48025D1*
X99476Y48063D1*
X99992Y48789D2*
X99877Y48751D1*
X99800Y48637D1*
X99762Y48445D1*
Y48331D1*
X99800Y48140D1*
X99877Y48025D1*
X99992Y47987D1*
X100068D1*
X100183Y48025D1*
X100259Y48140D1*
X100298Y48331D1*
Y48445D1*
X100259Y48637D1*
X100183Y48751D1*
X100068Y48789D1*
X99992D1*
X100259Y48637D2*
X99800Y48140D1*
X101158Y47987D2*
X100851Y48790D1*
X100545Y47987D1*
X100660Y48254D2*
X101043D1*
X99497Y47216D2*
X98999D1*
Y46412D1*
Y46833D2*
X99305D1*
X99744D2*
X100088D1*
X100203Y46872D1*
X100242Y46910D1*
X100280Y46986D1*
Y47063D1*
X100242Y47139D1*
X100203Y47178D1*
X100088Y47216D1*
X99744D1*
Y46412D1*
X100012Y46833D2*
X100280Y46412D1*
X100910D2*
Y47215D1*
X100527Y46680D1*
X101101D1*
X102393Y47216D2*
Y46412D1*
X102126Y47216D2*
X102661D1*
X103367Y46910D2*
Y46297D1*
X103329Y46183D1*
X103291Y46144D1*
X103214Y46106D1*
X103099D1*
X103023Y46144D1*
X103367Y46795D2*
X103291Y46871D1*
X103214Y46910D1*
X103099D1*
X103023Y46871D1*
X102946Y46795D1*
X102908Y46680D1*
Y46603D1*
X102946Y46489D1*
X103023Y46412D1*
X103099Y46374D1*
X103214D1*
X103291Y46412D1*
X103367Y46489D1*
X103614Y47062D2*
X103691Y47101D1*
X103806Y47215D1*
Y46412D1*
X104206D2*
X104589Y47215D1*
X104053D1*
X105066D2*
X104951Y47177D1*
X104874Y47062D1*
X104836Y46871D1*
Y46756D1*
X104874Y46565D1*
X104951Y46450D1*
X105066Y46412D1*
X105142D1*
X105257Y46450D1*
X105333Y46565D1*
X105372Y46756D1*
Y46871D1*
X105333Y47062D1*
X105257Y47177D1*
X105142Y47215D1*
X105066D1*
X105333Y47062D2*
X104874Y46565D1*
X106588Y46948D2*
X106512Y46910D1*
X106435Y46833D1*
X106397Y46718D1*
Y46642D1*
X106435Y46527D1*
X106512Y46451D1*
X106588Y46412D1*
X106703D1*
X106780Y46451D1*
X106856Y46527D1*
X106895Y46642D1*
Y46718D1*
X106856Y46833D1*
X106780Y46910D1*
X106703Y46948D1*
X106588D1*
X107142D2*
Y46412D1*
Y46718D2*
X107181Y46833D1*
X107257Y46910D1*
X107334Y46948D1*
X107449D1*
X108970Y47216D2*
X108473D1*
Y46412D1*
X108970D1*
X108473Y46833D2*
X108779D1*
X109676Y46948D2*
Y46144D1*
Y46833D2*
X109600Y46909D1*
X109523Y46948D1*
X109408D1*
X109332Y46909D1*
X109255Y46833D1*
X109217Y46718D1*
Y46641D1*
X109255Y46527D1*
X109332Y46450D1*
X109408Y46412D1*
X109523D1*
X109600Y46450D1*
X109676Y46527D1*
X109923Y46948D2*
Y46565D1*
X109961Y46451D1*
X110038Y46412D1*
X110153D1*
X110229Y46451D1*
X110344Y46565D1*
Y46948D2*
Y46412D1*
X110591Y47216D2*
X110629Y47178D1*
X110668Y47216D1*
X110629Y47254D1*
X110591Y47216D1*
X110629Y46948D2*
Y46412D1*
X110915Y46948D2*
X111145Y46412D1*
X111374Y46948D1*
X112399Y46833D2*
X112743D1*
X112858Y46872D1*
X112897Y46910D1*
X112935Y46986D1*
Y47063D1*
X112897Y47139D1*
X112858Y47178D1*
X112743Y47216D1*
X112399D1*
Y46412D1*
X112667Y46833D2*
X112935Y46412D1*
X113373Y46948D2*
X113297Y46910D1*
X113220Y46833D1*
X113182Y46718D1*
Y46642D1*
X113220Y46527D1*
X113297Y46451D1*
X113373Y46412D1*
X113488D1*
X113565Y46451D1*
X113641Y46527D1*
X113680Y46642D1*
Y46718D1*
X113641Y46833D1*
X113565Y46910D1*
X113488Y46948D1*
X113373D1*
X113927Y47216D2*
Y46412D1*
X114462Y47216D2*
Y46412D1*
X113927Y46833D2*
X114462D1*
X115245Y47101D2*
X115169Y47178D1*
X115054Y47216D1*
X114901D1*
X114786Y47178D1*
X114709Y47101D1*
Y47025D1*
X114748Y46948D1*
X114786Y46910D1*
X114862Y46872D1*
X115092Y46795D1*
X115169Y46757D1*
X115207Y46718D1*
X115245Y46642D1*
Y46527D1*
X115169Y46451D1*
X115054Y46412D1*
X114901D1*
X114786Y46451D1*
X114709Y46527D1*
X99382Y44837D2*
Y45640D1*
X98999Y45105D1*
X99573D1*
X98999Y43912D2*
X99076Y43951D1*
X99191Y44065D1*
Y43262D1*
X99476Y43339D2*
X99438Y43300D1*
X99476Y43262D1*
X99515Y43300D1*
X99476Y43339D1*
X100221Y43951D2*
X100183Y44027D1*
X100068Y44065D1*
X99992D1*
X99877Y44027D1*
X99800Y43912D1*
X99762Y43721D1*
Y43530D1*
X99800Y43377D1*
X99877Y43300D1*
X99992Y43262D1*
X100030D1*
X100144Y43300D1*
X100221Y43377D1*
X100259Y43492D1*
Y43530D1*
X100221Y43645D1*
X100144Y43721D1*
X100030Y43759D1*
X99992D1*
X99877Y43721D1*
X99800Y43645D1*
X99762Y43530D1*
X100506Y43798D2*
Y43262D1*
Y43645D2*
X100621Y43760D1*
X100698Y43798D1*
X100812D1*
X100889Y43760D1*
X100927Y43645D1*
Y43262D1*
Y43645D2*
X101042Y43760D1*
X101119Y43798D1*
X101233D1*
X101310Y43760D1*
X101349Y43645D1*
Y43262D1*
X101596Y43798D2*
Y43262D1*
Y43645D2*
X101711Y43760D1*
X101788Y43798D1*
X101902D1*
X101979Y43760D1*
X102017Y43645D1*
Y43262D1*
Y43645D2*
X102132Y43760D1*
X102209Y43798D1*
X102323D1*
X102400Y43760D1*
X102439Y43645D1*
Y43262D1*
X98999Y42337D2*
X99076Y42376D1*
X99191Y42490D1*
Y41687D1*
X99629Y42223D2*
X99553Y42185D1*
X99476Y42108D1*
X99438Y41993D1*
Y41917D1*
X99476Y41802D1*
X99553Y41726D1*
X99629Y41687D1*
X99744D1*
X99821Y41726D1*
X99897Y41802D1*
X99936Y41917D1*
Y41993D1*
X99897Y42108D1*
X99821Y42185D1*
X99744Y42223D1*
X99629D1*
X100183D2*
X100604D1*
X100183Y41687D1*
X100604D1*
X99037Y40189D2*
X98999Y40151D1*
X99037Y40113D1*
X99076Y40151D1*
X99037Y40189D1*
X99782Y40915D2*
X99400D1*
X99362Y40571D1*
X99400Y40610D1*
X99515Y40648D1*
X99629D1*
X99744Y40610D1*
X99821Y40533D1*
X99859Y40418D1*
Y40342D1*
X99821Y40227D1*
X99744Y40151D1*
X99629Y40113D1*
X99515D1*
X99400Y40151D1*
X99362Y40189D1*
X99323Y40266D1*
X100297Y40648D2*
X100221Y40610D1*
X100144Y40533D1*
X100106Y40418D1*
Y40342D1*
X100144Y40227D1*
X100221Y40151D1*
X100297Y40113D1*
X100412D1*
X100489Y40151D1*
X100565Y40227D1*
X100604Y40342D1*
Y40418D1*
X100565Y40533D1*
X100489Y40610D1*
X100412Y40648D1*
X100297D1*
X100851D2*
X101272D1*
X100851Y40113D1*
X101272D1*
X99611Y38538D2*
Y39342D1*
X99305Y38538D1*
X98999Y39342D1*
Y38538D1*
X100317Y39074D2*
Y38538D1*
Y38959D2*
X100241Y39036D1*
X100164Y39074D1*
X100050D1*
X99973Y39036D1*
X99897Y38959D1*
X99858Y38844D1*
Y38768D1*
X99897Y38653D1*
X99973Y38577D1*
X100050Y38538D1*
X100164D1*
X100241Y38577D1*
X100317Y38653D1*
X100679Y39342D2*
Y38691D1*
X100717Y38577D1*
X100794Y38538D1*
X100870D1*
X100564Y39074D2*
X100832D1*
X101232Y39342D2*
Y38691D1*
X101270Y38577D1*
X101347Y38538D1*
X101423D1*
X101117Y39074D2*
X101385D1*
X101670Y38844D2*
X102129D1*
Y38921D1*
X102091Y38998D1*
X102053Y39036D1*
X101976Y39074D1*
X101861D1*
X101785Y39036D1*
X101708Y38959D1*
X101670Y38844D1*
Y38768D1*
X101708Y38653D1*
X101785Y38577D1*
X101861Y38538D1*
X101976D1*
X102053Y38577D1*
X102129Y38653D1*
X103154Y39342D2*
Y38538D1*
X103499D1*
X103614Y38577D1*
X103652Y38615D1*
X103690Y38691D1*
Y38806D1*
X103652Y38883D1*
X103614Y38921D1*
X103499Y38959D1*
X103614Y38998D1*
X103652Y39036D1*
X103690Y39112D1*
Y39189D1*
X103652Y39265D1*
X103614Y39304D1*
X103499Y39342D1*
X103154D1*
Y38959D2*
X103499D1*
X103937Y39342D2*
Y38538D1*
X104643Y39074D2*
Y38538D1*
Y38959D2*
X104567Y39036D1*
X104490Y39074D1*
X104376D1*
X104299Y39036D1*
X104223Y38959D1*
X104184Y38844D1*
Y38768D1*
X104223Y38653D1*
X104299Y38577D1*
X104376Y38538D1*
X104490D1*
X104567Y38577D1*
X104643Y38653D1*
X105349Y38959D2*
X105273Y39036D1*
X105196Y39074D1*
X105082D1*
X105005Y39036D1*
X104929Y38959D1*
X104890Y38844D1*
Y38768D1*
X104929Y38653D1*
X105005Y38577D1*
X105082Y38538D1*
X105196D1*
X105273Y38577D1*
X105349Y38653D1*
X105597Y39342D2*
Y38538D1*
X105979Y39074D2*
X105597Y38691D1*
X105749Y38844D2*
X106017Y38538D1*
X98999Y37767D2*
X99191Y36963D1*
X99382Y37767D1*
X99573Y36963D1*
X99765Y37767D1*
X100012D2*
Y36963D1*
Y37346D2*
X100127Y37461D1*
X100204Y37499D1*
X100319D1*
X100395Y37461D1*
X100433Y37346D1*
Y36963D1*
X100680Y37767D2*
X100718Y37729D1*
X100757Y37767D1*
X100718Y37806D1*
X100680Y37767D1*
X100718Y37499D2*
Y36963D1*
X101119Y37767D2*
Y37116D1*
X101157Y37002D1*
X101234Y36963D1*
X101310D1*
X101004Y37499D2*
X101272D1*
X101557Y37269D2*
X102016D1*
Y37346D1*
X101978Y37423D1*
X101940Y37461D1*
X101863Y37499D1*
X101748D1*
X101672Y37461D1*
X101595Y37384D1*
X101557Y37269D1*
Y37193D1*
X101595Y37078D1*
X101672Y37002D1*
X101748Y36963D1*
X101863D1*
X101940Y37002D1*
X102016Y37078D1*
X99496Y36192D2*
X98999D1*
Y35388D1*
X99496D1*
X98999Y35809D2*
X99305D1*
X100279Y36192D2*
Y35388D1*
X99743Y36192D1*
Y35388D1*
X100526Y36192D2*
Y35388D1*
X101347Y36001D2*
X101309Y36077D1*
X101232Y36154D1*
X101156Y36192D1*
X101003D1*
X100926Y36154D1*
X100850Y36077D1*
X100811Y36001D1*
X100773Y35886D1*
Y35694D1*
X100811Y35580D1*
X100850Y35503D1*
X100926Y35427D1*
X101003Y35388D1*
X101156D1*
X101232Y35427D1*
X101309Y35503D1*
X101347Y35580D1*
Y35694D1*
X101156D1*
X99190Y34616D2*
X99076Y34578D1*
X99037Y34502D1*
Y34425D1*
X99076Y34349D1*
X99152Y34310D1*
X99305Y34272D1*
X99420Y34234D1*
X99496Y34157D1*
X99534Y34081D1*
Y33966D1*
X99496Y33890D1*
X99458Y33851D1*
X99343Y33813D1*
X99190D1*
X99076Y33851D1*
X99037Y33890D1*
X98999Y33966D1*
Y34081D1*
X99037Y34157D1*
X99114Y34234D1*
X99228Y34272D1*
X99381Y34310D1*
X99458Y34349D1*
X99496Y34425D1*
Y34502D1*
X99458Y34578D1*
X99343Y34616D1*
X99190D1*
X99819Y33890D2*
X99781Y33851D1*
X99819Y33813D1*
X99858Y33851D1*
X99819Y33890D1*
X100488Y33813D2*
Y34616D1*
X100105Y34081D1*
X100679D1*
X101003Y34616D2*
X101423D1*
X101194Y34310D1*
X101309D1*
X101385Y34272D1*
X101423Y34234D1*
X101462Y34119D1*
Y34043D1*
X101423Y33928D1*
X101347Y33851D1*
X101232Y33813D1*
X101117D1*
X101003Y33851D1*
X100965Y33890D1*
X100926Y33966D1*
X101709Y34349D2*
X102130Y33813D1*
Y34349D2*
X101709Y33813D1*
X102568Y34616D2*
X102454Y34578D1*
X102415Y34502D1*
Y34425D1*
X102454Y34349D1*
X102530Y34310D1*
X102683Y34272D1*
X102798Y34234D1*
X102874Y34157D1*
X102912Y34081D1*
Y33966D1*
X102874Y33890D1*
X102836Y33851D1*
X102721Y33813D1*
X102568D1*
X102454Y33851D1*
X102415Y33890D1*
X102377Y33966D1*
Y34081D1*
X102415Y34157D1*
X102492Y34234D1*
X102606Y34272D1*
X102759Y34310D1*
X102836Y34349D1*
X102874Y34425D1*
Y34502D1*
X102836Y34578D1*
X102721Y34616D1*
X102568D1*
X103197Y33890D2*
X103159Y33851D1*
X103197Y33813D1*
X103236Y33851D1*
X103197Y33890D1*
X103866Y33813D2*
Y34616D1*
X103483Y34081D1*
X104057D1*
X104381Y34616D2*
X104801D1*
X104572Y34310D1*
X104687D1*
X104763Y34272D1*
X104801Y34234D1*
X104840Y34119D1*
Y34043D1*
X104801Y33928D1*
X104725Y33851D1*
X104610Y33813D1*
X104495D1*
X104381Y33851D1*
X104343Y33890D1*
X104304Y33966D1*
X105087Y34349D2*
Y33813D1*
Y34196D2*
X105202Y34311D1*
X105279Y34349D1*
X105393D1*
X105470Y34311D1*
X105508Y34196D1*
Y33813D1*
Y34196D2*
X105623Y34311D1*
X105700Y34349D1*
X105814D1*
X105891Y34311D1*
X105930Y34196D1*
Y33813D1*
X106177Y34349D2*
Y33813D1*
Y34196D2*
X106292Y34311D1*
X106369Y34349D1*
X106483D1*
X106560Y34311D1*
X106598Y34196D1*
Y33813D1*
Y34196D2*
X106713Y34311D1*
X106789Y34349D1*
X106904D1*
X106980Y34311D1*
X107019Y34196D1*
Y33813D1*
X108312Y34827D2*
X108235Y34751D1*
X108159Y34636D1*
X108082Y34483D1*
X108044Y34291D1*
Y34138D1*
X108082Y33947D1*
X108159Y33794D1*
X108235Y33679D1*
X108312Y33603D1*
X109019Y34234D2*
X108942Y34311D1*
X108865Y34349D1*
X108751D1*
X108674Y34311D1*
X108598Y34234D1*
X108559Y34119D1*
Y34043D1*
X108598Y33928D1*
X108674Y33852D1*
X108751Y33813D1*
X108865D1*
X108942Y33852D1*
X109019Y33928D1*
X109725Y34349D2*
Y33813D1*
Y34234D2*
X109649Y34311D1*
X109572Y34349D1*
X109458D1*
X109381Y34311D1*
X109305Y34234D1*
X109266Y34119D1*
Y34043D1*
X109305Y33928D1*
X109381Y33852D1*
X109458Y33813D1*
X109572D1*
X109649Y33852D1*
X109725Y33928D1*
X110393Y34234D2*
X110355Y34311D1*
X110240Y34349D1*
X110125D1*
X110010Y34311D1*
X109972Y34234D1*
X110010Y34158D1*
X110087Y34119D1*
X110278Y34081D1*
X110355Y34043D1*
X110393Y33966D1*
Y33928D1*
X110355Y33852D1*
X110240Y33813D1*
X110125D1*
X110010Y33852D1*
X109972Y33928D1*
X110755Y34617D2*
Y33966D1*
X110793Y33852D1*
X110870Y33813D1*
X110946D1*
X110640Y34349D2*
X110908D1*
X111193Y34119D2*
X111652D1*
Y34196D1*
X111614Y34273D1*
X111576Y34311D1*
X111499Y34349D1*
X111384D1*
X111308Y34311D1*
X111231Y34234D1*
X111193Y34119D1*
Y34043D1*
X111231Y33928D1*
X111308Y33852D1*
X111384Y33813D1*
X111499D1*
X111576Y33852D1*
X111652Y33928D1*
X111899Y34617D2*
Y33813D1*
X112146Y34617D2*
Y33813D1*
X112852Y34349D2*
Y33813D1*
Y34234D2*
X112776Y34311D1*
X112699Y34349D1*
X112585D1*
X112508Y34311D1*
X112432Y34234D1*
X112393Y34119D1*
Y34043D1*
X112432Y33928D1*
X112508Y33852D1*
X112585Y33813D1*
X112699D1*
X112776Y33852D1*
X112852Y33928D1*
X113214Y34617D2*
Y33966D1*
X113252Y33852D1*
X113329Y33813D1*
X113405D1*
X113099Y34349D2*
X113367D1*
X113652Y34617D2*
X113690Y34579D1*
X113729Y34617D1*
X113690Y34656D1*
X113652Y34617D1*
X113690Y34349D2*
Y33813D1*
X114167Y34349D2*
X114091Y34311D1*
X114014Y34234D1*
X113976Y34119D1*
Y34043D1*
X114014Y33928D1*
X114091Y33852D1*
X114167Y33813D1*
X114282D1*
X114359Y33852D1*
X114435Y33928D1*
X114474Y34043D1*
Y34119D1*
X114435Y34234D1*
X114359Y34311D1*
X114282Y34349D1*
X114167D1*
X114721D2*
Y33813D1*
Y34196D2*
X114836Y34311D1*
X114913Y34349D1*
X115027D1*
X115104Y34311D1*
X115142Y34196D1*
Y33813D1*
X115810Y34234D2*
X115772Y34311D1*
X115657Y34349D1*
X115542D1*
X115427Y34311D1*
X115389Y34234D1*
X115427Y34158D1*
X115504Y34119D1*
X115695Y34081D1*
X115772Y34043D1*
X115810Y33966D1*
Y33928D1*
X115772Y33852D1*
X115657Y33813D1*
X115542D1*
X115427Y33852D1*
X115389Y33928D1*
X117294Y34234D2*
X117217Y34311D1*
X117140Y34349D1*
X117026D1*
X116949Y34311D1*
X116873Y34234D1*
X116834Y34119D1*
Y34043D1*
X116873Y33928D1*
X116949Y33852D1*
X117026Y33813D1*
X117140D1*
X117217Y33852D1*
X117294Y33928D1*
X117541Y34349D2*
Y33966D1*
X117579Y33852D1*
X117656Y33813D1*
X117771D1*
X117847Y33852D1*
X117962Y33966D1*
Y34349D2*
Y33813D1*
X118324Y34617D2*
Y33966D1*
X118362Y33852D1*
X118439Y33813D1*
X118515D1*
X118209Y34349D2*
X118477D1*
X118762Y34827D2*
X118839Y34751D1*
X118915Y34636D1*
X118992Y34483D1*
X119030Y34291D1*
Y34138D1*
X118992Y33947D1*
X118915Y33794D1*
X118839Y33679D1*
X118762Y33603D1*
X99038Y33112D2*
Y33150D1*
X99076Y33227D1*
X99114Y33265D1*
X99191Y33303D1*
X99344D1*
X99420Y33265D1*
X99458Y33227D1*
X99497Y33150D1*
Y33074D1*
X99458Y32997D1*
X99382Y32883D1*
X98999Y32500D1*
X99535D1*
X100012Y33303D2*
X99897Y33265D1*
X99820Y33150D1*
X99782Y32959D1*
Y32844D1*
X99820Y32653D1*
X99897Y32538D1*
X100012Y32500D1*
X100088D1*
X100203Y32538D1*
X100279Y32653D1*
X100318Y32844D1*
Y32959D1*
X100279Y33150D1*
X100203Y33265D1*
X100088Y33303D1*
X100012D1*
X100279Y33150D2*
X99820Y32653D1*
X101024Y33303D2*
X100642D1*
X100604Y32959D1*
X100642Y32997D1*
X100757Y33036D1*
X100871D1*
X100986Y32997D1*
X101063Y32921D1*
X101101Y32806D1*
Y32730D1*
X101063Y32615D1*
X100986Y32538D1*
X100871Y32500D1*
X100757D1*
X100642Y32538D1*
X100604Y32577D1*
X100565Y32653D1*
X101386Y32577D2*
X101348Y32538D1*
X101386Y32500D1*
X101425Y32538D1*
X101386Y32577D1*
X101902Y33303D2*
X101787Y33265D1*
X101710Y33150D1*
X101672Y32959D1*
Y32844D1*
X101710Y32653D1*
X101787Y32538D1*
X101902Y32500D1*
X101978D1*
X102093Y32538D1*
X102169Y32653D1*
X102208Y32844D1*
Y32959D1*
X102169Y33150D1*
X102093Y33265D1*
X101978Y33303D1*
X101902D1*
X102169Y33150D2*
X101710Y32653D1*
X102455Y33150D2*
X102532Y33189D1*
X102647Y33303D1*
Y32500D1*
X103277D2*
Y33303D1*
X102894Y32768D1*
X103468D1*
X103715Y33036D2*
X104136Y32500D1*
Y33036D2*
X103715Y32500D1*
X104383Y33150D2*
X104460Y33189D1*
X104575Y33303D1*
Y32500D1*
X105204D2*
Y33303D1*
X104822Y32768D1*
X105395D1*
X105872Y33303D2*
X105757Y33265D1*
X105681Y33150D1*
X105642Y32959D1*
Y32844D1*
X105681Y32653D1*
X105757Y32538D1*
X105872Y32500D1*
X105948D1*
X106063Y32538D1*
X106139Y32653D1*
X106178Y32844D1*
Y32959D1*
X106139Y33150D1*
X106063Y33265D1*
X105948Y33303D1*
X105872D1*
X106139Y33150D2*
X105681Y32653D1*
X106463Y32577D2*
X106425Y32538D1*
X106463Y32500D1*
X106502Y32538D1*
X106463Y32577D1*
X106940Y33303D2*
X106826Y33265D1*
X106787Y33189D1*
Y33112D1*
X106826Y33036D1*
X106902Y32997D1*
X107055Y32959D1*
X107170Y32921D1*
X107246Y32844D1*
X107284Y32768D1*
Y32653D1*
X107246Y32577D1*
X107208Y32538D1*
X107093Y32500D1*
X106940D1*
X106826Y32538D1*
X106787Y32577D1*
X106749Y32653D1*
Y32768D1*
X106787Y32844D1*
X106864Y32921D1*
X106978Y32959D1*
X107131Y32997D1*
X107208Y33036D1*
X107246Y33112D1*
Y33189D1*
X107208Y33265D1*
X107093Y33303D1*
X106940D1*
X107761D2*
X107646Y33265D1*
X107569Y33150D1*
X107531Y32959D1*
Y32844D1*
X107569Y32653D1*
X107646Y32538D1*
X107761Y32500D1*
X107837D1*
X107952Y32538D1*
X108028Y32653D1*
X108067Y32844D1*
Y32959D1*
X108028Y33150D1*
X107952Y33265D1*
X107837Y33303D1*
X107761D1*
X108028Y33150D2*
X107569Y32653D1*
X108353Y33112D2*
Y33150D1*
X108391Y33227D1*
X108429Y33265D1*
X108506Y33303D1*
X108659D1*
X108735Y33265D1*
X108773Y33227D1*
X108812Y33150D1*
Y33074D1*
X108773Y32997D1*
X108697Y32883D1*
X108314Y32500D1*
X108850D1*
X109097Y33036D2*
Y32500D1*
Y32883D2*
X109212Y32998D1*
X109289Y33036D1*
X109403D1*
X109480Y32998D1*
X109518Y32883D1*
Y32500D1*
Y32883D2*
X109633Y32998D1*
X109710Y33036D1*
X109824D1*
X109901Y32998D1*
X109940Y32883D1*
Y32500D1*
X110187Y33036D2*
Y32500D1*
Y32883D2*
X110302Y32998D1*
X110379Y33036D1*
X110493D1*
X110570Y32998D1*
X110608Y32883D1*
Y32500D1*
Y32883D2*
X110723Y32998D1*
X110800Y33036D1*
X110914D1*
X110991Y32998D1*
X111030Y32883D1*
Y32500D1*
X112054Y33036D2*
Y32232D1*
Y32921D2*
X112131Y32997D1*
X112207Y33036D1*
X112322D1*
X112399Y32997D1*
X112475Y32921D1*
X112514Y32806D1*
Y32729D1*
X112475Y32615D1*
X112399Y32538D1*
X112322Y32500D1*
X112207D1*
X112131Y32538D1*
X112054Y32615D1*
X113220Y33036D2*
Y32500D1*
Y32921D2*
X113144Y32998D1*
X113067Y33036D1*
X112953D1*
X112876Y32998D1*
X112800Y32921D1*
X112761Y32806D1*
Y32730D1*
X112800Y32615D1*
X112876Y32539D1*
X112953Y32500D1*
X113067D1*
X113144Y32539D1*
X113220Y32615D1*
X113467Y33036D2*
Y32500D1*
Y32883D2*
X113582Y32998D1*
X113659Y33036D1*
X113773D1*
X113850Y32998D1*
X113888Y32883D1*
Y32500D1*
X114135Y32806D2*
X114594D1*
Y32883D1*
X114556Y32960D1*
X114518Y32998D1*
X114441Y33036D1*
X114326D1*
X114250Y32998D1*
X114173Y32921D1*
X114135Y32806D1*
Y32730D1*
X114173Y32615D1*
X114250Y32539D1*
X114326Y32500D1*
X114441D1*
X114518Y32539D1*
X114594Y32615D1*
X114841Y33304D2*
Y32500D1*
X98999Y31707D2*
X99076Y31746D1*
X99191Y31860D1*
Y31057D1*
X99668Y31860D2*
X99553Y31822D1*
X99476Y31707D1*
X99438Y31516D1*
Y31401D1*
X99476Y31210D1*
X99553Y31095D1*
X99668Y31057D1*
X99744D1*
X99859Y31095D1*
X99935Y31210D1*
X99974Y31401D1*
Y31516D1*
X99935Y31707D1*
X99859Y31822D1*
X99744Y31860D1*
X99668D1*
X99935Y31707D2*
X99476Y31210D1*
X100221Y31593D2*
Y31057D1*
Y31440D2*
X100336Y31555D1*
X100413Y31593D1*
X100527D1*
X100604Y31555D1*
X100642Y31440D1*
Y31057D1*
Y31440D2*
X100757Y31555D1*
X100834Y31593D1*
X100948D1*
X101025Y31555D1*
X101064Y31440D1*
Y31057D1*
X101311Y31593D2*
Y31057D1*
Y31440D2*
X101426Y31555D1*
X101503Y31593D1*
X101617D1*
X101694Y31555D1*
X101732Y31440D1*
Y31057D1*
Y31440D2*
X101847Y31555D1*
X101924Y31593D1*
X102038D1*
X102115Y31555D1*
X102154Y31440D1*
Y31057D1*
X103293Y31861D2*
Y31210D1*
X103331Y31096D1*
X103408Y31057D1*
X103484D1*
X103178Y31593D2*
X103446D1*
X103922D2*
X103846Y31555D1*
X103769Y31478D1*
X103731Y31363D1*
Y31287D1*
X103769Y31172D1*
X103846Y31096D1*
X103922Y31057D1*
X104037D1*
X104114Y31096D1*
X104190Y31172D1*
X104229Y31287D1*
Y31363D1*
X104190Y31478D1*
X104114Y31555D1*
X104037Y31593D1*
X103922D1*
X104667D2*
X104591Y31555D1*
X104514Y31478D1*
X104476Y31363D1*
Y31287D1*
X104514Y31172D1*
X104591Y31096D1*
X104667Y31057D1*
X104782D1*
X104859Y31096D1*
X104935Y31172D1*
X104974Y31287D1*
Y31363D1*
X104935Y31478D1*
X104859Y31555D1*
X104782Y31593D1*
X104667D1*
X105221Y31861D2*
Y31057D1*
X106246Y31593D2*
Y31057D1*
Y31363D2*
X106285Y31478D1*
X106361Y31555D1*
X106437Y31593D1*
X106552D1*
X107258D2*
Y31057D1*
Y31478D2*
X107182Y31555D1*
X107105Y31593D1*
X106991D1*
X106914Y31555D1*
X106838Y31478D1*
X106799Y31363D1*
Y31287D1*
X106838Y31172D1*
X106914Y31096D1*
X106991Y31057D1*
X107105D1*
X107182Y31096D1*
X107258Y31172D1*
X107505Y31861D2*
X107543Y31823D1*
X107582Y31861D1*
X107543Y31900D1*
X107505Y31861D1*
X107543Y31593D2*
Y31057D1*
X107829Y31861D2*
Y31057D1*
X99152Y29614D2*
X99535Y30417D1*
X98999D1*
X99820Y29691D2*
X99782Y29653D1*
X99820Y29614D1*
X99859Y29653D1*
X99820Y29691D1*
X100565Y30303D2*
X100527Y30379D1*
X100412Y30417D1*
X100336D1*
X100221Y30379D1*
X100144Y30264D1*
X100106Y30073D1*
Y29882D1*
X100144Y29729D1*
X100221Y29653D1*
X100336Y29614D1*
X100374D1*
X100488Y29653D1*
X100565Y29729D1*
X100603Y29844D1*
Y29882D1*
X100565Y29997D1*
X100488Y30073D1*
X100374Y30111D1*
X100336D1*
X100221Y30073D1*
X100144Y29997D1*
X100106Y29882D1*
X100927Y30417D2*
X101347D1*
X101118Y30111D1*
X101233D1*
X101309Y30073D1*
X101347Y30035D1*
X101386Y29920D1*
Y29844D1*
X101347Y29729D1*
X101271Y29653D1*
X101156Y29614D1*
X101041D1*
X100927Y29653D1*
X100889Y29691D1*
X100850Y29767D1*
X101633Y30150D2*
Y29614D1*
Y29997D2*
X101748Y30112D1*
X101825Y30150D1*
X101939D1*
X102016Y30112D1*
X102054Y29997D1*
Y29614D1*
Y29997D2*
X102169Y30112D1*
X102246Y30150D1*
X102360D1*
X102437Y30112D1*
X102476Y29997D1*
Y29614D1*
X102723Y30150D2*
Y29614D1*
Y29997D2*
X102838Y30112D1*
X102915Y30150D1*
X103029D1*
X103106Y30112D1*
X103144Y29997D1*
Y29614D1*
Y29997D2*
X103259Y30112D1*
X103336Y30150D1*
X103450D1*
X103527Y30112D1*
X103565Y29997D1*
Y29614D1*
X104590Y30418D2*
Y29614D1*
Y30035D2*
X104667Y30112D1*
X104743Y30150D1*
X104858D1*
X104934Y30112D1*
X105011Y30035D1*
X105049Y29920D1*
Y29844D1*
X105011Y29729D1*
X104934Y29653D1*
X104858Y29614D1*
X104743D1*
X104667Y29653D1*
X104590Y29729D1*
X105487Y30150D2*
X105411Y30112D1*
X105334Y30035D1*
X105296Y29920D1*
Y29844D1*
X105334Y29729D1*
X105411Y29653D1*
X105487Y29614D1*
X105602D1*
X105679Y29653D1*
X105755Y29729D1*
X105794Y29844D1*
Y29920D1*
X105755Y30035D1*
X105679Y30112D1*
X105602Y30150D1*
X105487D1*
X106500D2*
Y29614D1*
Y30035D2*
X106424Y30112D1*
X106347Y30150D1*
X106233D1*
X106156Y30112D1*
X106080Y30035D1*
X106041Y29920D1*
Y29844D1*
X106080Y29729D1*
X106156Y29653D1*
X106233Y29614D1*
X106347D1*
X106424Y29653D1*
X106500Y29729D1*
X106747Y30150D2*
Y29614D1*
Y29920D2*
X106786Y30035D1*
X106862Y30112D1*
X106939Y30150D1*
X107054D1*
X107760Y30418D2*
Y29614D1*
Y30035D2*
X107684Y30112D1*
X107607Y30150D1*
X107492D1*
X107416Y30112D1*
X107339Y30035D1*
X107301Y29920D1*
Y29844D1*
X107339Y29729D1*
X107416Y29653D1*
X107492Y29614D1*
X107607D1*
X107684Y29653D1*
X107760Y29729D1*
X109205Y30035D2*
X109167Y30112D1*
X109052Y30150D1*
X108937D1*
X108823Y30112D1*
X108784Y30035D1*
X108823Y29959D1*
X108899Y29920D1*
X109090Y29882D1*
X109167Y29844D1*
X109205Y29767D1*
Y29729D1*
X109167Y29653D1*
X109052Y29614D1*
X108937D1*
X108823Y29653D1*
X108784Y29729D1*
X109452Y30150D2*
Y29347D1*
Y30035D2*
X109529Y30111D1*
X109605Y30150D1*
X109720D1*
X109797Y30111D1*
X109873Y30035D1*
X109912Y29920D1*
Y29844D1*
X109873Y29729D1*
X109797Y29653D1*
X109720Y29614D1*
X109605D1*
X109529Y29653D1*
X109452Y29729D1*
X110618Y30150D2*
Y29614D1*
Y30035D2*
X110542Y30112D1*
X110465Y30150D1*
X110351D1*
X110274Y30112D1*
X110198Y30035D1*
X110159Y29920D1*
Y29844D1*
X110198Y29729D1*
X110274Y29653D1*
X110351Y29614D1*
X110465D1*
X110542Y29653D1*
X110618Y29729D1*
X111325Y30035D2*
X111248Y30112D1*
X111171Y30150D1*
X111057D1*
X110980Y30112D1*
X110904Y30035D1*
X110865Y29920D1*
Y29844D1*
X110904Y29729D1*
X110980Y29653D1*
X111057Y29614D1*
X111171D1*
X111248Y29653D1*
X111325Y29729D1*
X111572Y30418D2*
X111610Y30380D1*
X111649Y30418D1*
X111610Y30457D1*
X111572Y30418D1*
X111610Y30150D2*
Y29614D1*
X111896Y30150D2*
Y29614D1*
Y29997D2*
X112011Y30112D1*
X112088Y30150D1*
X112202D1*
X112279Y30112D1*
X112317Y29997D1*
Y29614D1*
X113023Y30112D2*
Y29500D1*
X112985Y29385D1*
X112947Y29347D1*
X112870Y29309D1*
X112755D1*
X112679Y29347D1*
X113023Y29997D2*
X112947Y30073D1*
X112870Y30112D1*
X112755D1*
X112679Y30073D1*
X112602Y29997D1*
X112564Y29882D1*
Y29806D1*
X112602Y29691D1*
X112679Y29614D1*
X112755Y29576D1*
X112870D1*
X112947Y29614D1*
X113023Y29691D1*
X99535Y29252D2*
X99459Y29329D1*
X99344Y29367D1*
X99191D1*
X99076Y29329D1*
X98999Y29252D1*
Y29176D1*
X99038Y29099D1*
X99076Y29061D1*
X99152Y29023D1*
X99382Y28946D1*
X99459Y28908D1*
X99497Y28869D1*
X99535Y28793D1*
Y28678D1*
X99459Y28602D1*
X99344Y28563D1*
X99191D1*
X99076Y28602D1*
X98999Y28678D1*
X99973Y29099D2*
X99897Y29061D1*
X99820Y28984D1*
X99782Y28869D1*
Y28793D1*
X99820Y28678D1*
X99897Y28602D1*
X99973Y28563D1*
X100088D1*
X100165Y28602D1*
X100241Y28678D1*
X100280Y28793D1*
Y28869D1*
X100241Y28984D1*
X100165Y29061D1*
X100088Y29099D1*
X99973D1*
X100527Y29367D2*
Y28563D1*
X101233Y29367D2*
Y28563D1*
Y28984D2*
X101157Y29061D1*
X101080Y29099D1*
X100965D1*
X100889Y29061D1*
X100812Y28984D1*
X100774Y28869D1*
Y28793D1*
X100812Y28678D1*
X100889Y28602D1*
X100965Y28563D1*
X101080D1*
X101157Y28602D1*
X101233Y28678D1*
X101480Y28869D2*
X101939D1*
Y28946D1*
X101901Y29023D1*
X101863Y29061D1*
X101786Y29099D1*
X101671D1*
X101595Y29061D1*
X101518Y28984D1*
X101480Y28869D1*
Y28793D1*
X101518Y28678D1*
X101595Y28602D1*
X101671Y28563D1*
X101786D1*
X101863Y28602D1*
X101939Y28678D1*
X102186Y29099D2*
Y28563D1*
Y28869D2*
X102225Y28984D1*
X102301Y29061D1*
X102378Y29099D1*
X102493D1*
X102740D2*
Y28563D1*
Y28946D2*
X102855Y29061D1*
X102932Y29099D1*
X103046D1*
X103123Y29061D1*
X103161Y28946D1*
Y28563D1*
Y28946D2*
X103276Y29061D1*
X103353Y29099D1*
X103467D1*
X103544Y29061D1*
X103583Y28946D1*
Y28563D1*
X104289Y29099D2*
Y28563D1*
Y28984D2*
X104213Y29061D1*
X104136Y29099D1*
X104022D1*
X103945Y29061D1*
X103869Y28984D1*
X103830Y28869D1*
Y28793D1*
X103869Y28678D1*
X103945Y28602D1*
X104022Y28563D1*
X104136D1*
X104213Y28602D1*
X104289Y28678D1*
X104957Y28984D2*
X104919Y29061D1*
X104804Y29099D1*
X104689D1*
X104574Y29061D1*
X104536Y28984D1*
X104574Y28908D1*
X104651Y28869D1*
X104842Y28831D1*
X104919Y28793D1*
X104957Y28716D1*
Y28678D1*
X104919Y28602D1*
X104804Y28563D1*
X104689D1*
X104574Y28602D1*
X104536Y28678D1*
X105204Y29367D2*
Y28563D1*
X105586Y29099D2*
X105204Y28716D1*
X105357Y28869D2*
X105625Y28563D1*
X107109Y28984D2*
X107032Y29061D1*
X106955Y29099D1*
X106841D1*
X106764Y29061D1*
X106688Y28984D1*
X106649Y28869D1*
Y28793D1*
X106688Y28678D1*
X106764Y28602D1*
X106841Y28563D1*
X106955D1*
X107032Y28602D1*
X107109Y28678D1*
X107547Y29099D2*
X107471Y29061D1*
X107394Y28984D1*
X107356Y28869D1*
Y28793D1*
X107394Y28678D1*
X107471Y28602D1*
X107547Y28563D1*
X107662D1*
X107739Y28602D1*
X107815Y28678D1*
X107854Y28793D1*
Y28869D1*
X107815Y28984D1*
X107739Y29061D1*
X107662Y29099D1*
X107547D1*
X108101D2*
X108331Y28563D1*
X108560Y29099D1*
X108807Y28869D2*
X109266D1*
Y28946D1*
X109228Y29023D1*
X109190Y29061D1*
X109113Y29099D1*
X108998D1*
X108922Y29061D1*
X108845Y28984D1*
X108807Y28869D1*
Y28793D1*
X108845Y28678D1*
X108922Y28602D1*
X108998Y28563D1*
X109113D1*
X109190Y28602D1*
X109266Y28678D1*
X109513Y29099D2*
Y28563D1*
Y28869D2*
X109552Y28984D1*
X109628Y29061D1*
X109705Y29099D1*
X109820D1*
X111303D2*
Y28563D1*
Y28984D2*
X111227Y29061D1*
X111150Y29099D1*
X111036D1*
X110959Y29061D1*
X110883Y28984D1*
X110844Y28869D1*
Y28793D1*
X110883Y28678D1*
X110959Y28602D1*
X111036Y28563D1*
X111150D1*
X111227Y28602D1*
X111303Y28678D1*
X111550Y29367D2*
Y28563D1*
X111797Y29367D2*
Y28563D1*
X112822Y29099D2*
X113052Y28563D1*
X113281Y29099D1*
X113528Y29367D2*
X113566Y29329D1*
X113605Y29367D1*
X113566Y29406D1*
X113528Y29367D1*
X113566Y29099D2*
Y28563D1*
X114311Y29099D2*
Y28563D1*
Y28984D2*
X114235Y29061D1*
X114158Y29099D1*
X114044D1*
X113967Y29061D1*
X113891Y28984D1*
X113852Y28869D1*
Y28793D1*
X113891Y28678D1*
X113967Y28602D1*
X114044Y28563D1*
X114158D1*
X114235Y28602D1*
X114311Y28678D1*
X114979Y28984D2*
X114941Y29061D1*
X114826Y29099D1*
X114711D1*
X114596Y29061D1*
X114558Y28984D1*
X114596Y28908D1*
X114673Y28869D1*
X114864Y28831D1*
X114941Y28793D1*
X114979Y28716D1*
Y28678D1*
X114941Y28602D1*
X114826Y28563D1*
X114711D1*
X114596Y28602D1*
X114558Y28678D1*
X116004Y29099D2*
Y28563D1*
Y28946D2*
X116119Y29061D1*
X116195Y29099D1*
X116310D1*
X116386Y29061D1*
X116424Y28946D1*
Y28563D1*
X116863Y29099D2*
X116786Y29061D1*
X116710Y28984D1*
X116672Y28869D1*
Y28793D1*
X116710Y28678D1*
X116786Y28602D1*
X116863Y28563D1*
X116977D1*
X117054Y28602D1*
X117130Y28678D1*
X117169Y28793D1*
Y28869D1*
X117130Y28984D1*
X117054Y29061D1*
X116977Y29099D1*
X116863D1*
X117531Y29367D2*
Y28716D1*
X117569Y28602D1*
X117646Y28563D1*
X117722D1*
X117416Y29099D2*
X117684D1*
X99420Y27541D2*
X99382Y27618D1*
X99267Y27656D1*
X99152D1*
X99037Y27618D1*
X98999Y27541D1*
X99037Y27465D1*
X99114Y27426D1*
X99305Y27388D1*
X99382Y27350D1*
X99420Y27273D1*
Y27235D1*
X99382Y27159D1*
X99267Y27120D1*
X99152D1*
X99037Y27159D1*
X98999Y27235D1*
X99667Y27924D2*
Y27120D1*
Y27503D2*
X99782Y27618D1*
X99859Y27656D1*
X99974D1*
X100050Y27618D1*
X100088Y27503D1*
Y27120D1*
X100526Y27656D2*
X100450Y27618D1*
X100373Y27541D1*
X100335Y27426D1*
Y27350D1*
X100373Y27235D1*
X100450Y27159D1*
X100526Y27120D1*
X100641D1*
X100718Y27159D1*
X100794Y27235D1*
X100833Y27350D1*
Y27426D1*
X100794Y27541D1*
X100718Y27618D1*
X100641Y27656D1*
X100526D1*
X101080D2*
X101233Y27120D1*
X101386Y27656D1*
X101539Y27120D1*
X101692Y27656D1*
X101939D2*
Y27120D1*
Y27503D2*
X102054Y27618D1*
X102131Y27656D1*
X102245D1*
X102322Y27618D1*
X102360Y27503D1*
Y27120D1*
X103576Y27656D2*
X103499Y27618D1*
X103423Y27541D1*
X103385Y27426D1*
Y27350D1*
X103423Y27235D1*
X103499Y27159D1*
X103576Y27120D1*
X103690D1*
X103767Y27159D1*
X103843Y27235D1*
X103882Y27350D1*
Y27426D1*
X103843Y27541D1*
X103767Y27618D1*
X103690Y27656D1*
X103576D1*
X104129D2*
Y27120D1*
Y27503D2*
X104244Y27618D1*
X104321Y27656D1*
X104435D1*
X104512Y27618D1*
X104550Y27503D1*
Y27120D1*
X105996Y27541D2*
X105958Y27618D1*
X105843Y27656D1*
X105728D1*
X105613Y27618D1*
X105575Y27541D1*
X105613Y27465D1*
X105690Y27426D1*
X105881Y27388D1*
X105958Y27350D1*
X105996Y27273D1*
Y27235D1*
X105958Y27159D1*
X105843Y27120D1*
X105728D1*
X105613Y27159D1*
X105575Y27235D1*
X106434Y27656D2*
X106358Y27618D1*
X106281Y27541D1*
X106243Y27426D1*
Y27350D1*
X106281Y27235D1*
X106358Y27159D1*
X106434Y27120D1*
X106549D1*
X106626Y27159D1*
X106702Y27235D1*
X106741Y27350D1*
Y27426D1*
X106702Y27541D1*
X106626Y27618D1*
X106549Y27656D1*
X106434D1*
X106988Y27924D2*
Y27120D1*
X107694Y27924D2*
Y27120D1*
Y27541D2*
X107618Y27618D1*
X107541Y27656D1*
X107426D1*
X107350Y27618D1*
X107273Y27541D1*
X107235Y27426D1*
Y27350D1*
X107273Y27235D1*
X107350Y27159D1*
X107426Y27120D1*
X107541D1*
X107618Y27159D1*
X107694Y27235D1*
X107941Y27426D2*
X108400D1*
Y27503D1*
X108362Y27580D1*
X108324Y27618D1*
X108247Y27656D1*
X108132D1*
X108056Y27618D1*
X107979Y27541D1*
X107941Y27426D1*
Y27350D1*
X107979Y27235D1*
X108056Y27159D1*
X108132Y27120D1*
X108247D1*
X108324Y27159D1*
X108400Y27235D1*
X108647Y27656D2*
Y27120D1*
Y27426D2*
X108686Y27541D1*
X108762Y27618D1*
X108839Y27656D1*
X108954D1*
X109201D2*
Y27120D1*
Y27503D2*
X109316Y27618D1*
X109393Y27656D1*
X109507D1*
X109584Y27618D1*
X109622Y27503D1*
Y27120D1*
Y27503D2*
X109737Y27618D1*
X109814Y27656D1*
X109928D1*
X110005Y27618D1*
X110043Y27503D1*
Y27120D1*
X110749Y27656D2*
Y27120D1*
Y27541D2*
X110673Y27618D1*
X110596Y27656D1*
X110482D1*
X110405Y27618D1*
X110329Y27541D1*
X110291Y27426D1*
Y27350D1*
X110329Y27235D1*
X110405Y27159D1*
X110482Y27120D1*
X110596D1*
X110673Y27159D1*
X110749Y27235D1*
X111417Y27541D2*
X111379Y27618D1*
X111264Y27656D1*
X111149D1*
X111035Y27618D1*
X110996Y27541D1*
X111035Y27465D1*
X111111Y27426D1*
X111302Y27388D1*
X111379Y27350D1*
X111417Y27273D1*
Y27235D1*
X111379Y27159D1*
X111264Y27120D1*
X111149D1*
X111035Y27159D1*
X110996Y27235D1*
X111664Y27924D2*
Y27120D1*
X112047Y27656D2*
X111664Y27273D1*
X111817Y27426D2*
X112085Y27120D1*
X113110Y27924D2*
Y27120D1*
X113816Y27656D2*
Y27120D1*
Y27541D2*
X113740Y27618D1*
X113663Y27656D1*
X113549D1*
X113472Y27618D1*
X113396Y27541D1*
X113357Y27426D1*
Y27350D1*
X113396Y27235D1*
X113472Y27159D1*
X113549Y27120D1*
X113663D1*
X113740Y27159D1*
X113816Y27235D1*
X114102Y27656D2*
X114331Y27120D1*
X114255Y26967D1*
X114178Y26890D1*
X114102Y26852D1*
X114063D1*
X114561Y27656D2*
X114331Y27120D1*
X114808Y27426D2*
X115267D1*
Y27503D1*
X115229Y27580D1*
X115191Y27618D1*
X115114Y27656D1*
X114999D1*
X114923Y27618D1*
X114846Y27541D1*
X114808Y27426D1*
Y27350D1*
X114846Y27235D1*
X114923Y27159D1*
X114999Y27120D1*
X115114D1*
X115191Y27159D1*
X115267Y27235D1*
X115514Y27656D2*
Y27120D1*
Y27426D2*
X115553Y27541D1*
X115629Y27618D1*
X115706Y27656D1*
X115821D1*
X117036D2*
X116960Y27618D1*
X116883Y27541D1*
X116845Y27426D1*
Y27350D1*
X116883Y27235D1*
X116960Y27159D1*
X117036Y27120D1*
X117151D1*
X117228Y27159D1*
X117304Y27235D1*
X117343Y27350D1*
Y27426D1*
X117304Y27541D1*
X117228Y27618D1*
X117151Y27656D1*
X117036D1*
X117590D2*
Y27120D1*
Y27426D2*
X117629Y27541D1*
X117705Y27618D1*
X117782Y27656D1*
X117897D1*
X98999Y26213D2*
X99229Y25677D1*
X99458Y26213D1*
X99705Y26481D2*
X99743Y26443D1*
X99782Y26481D1*
X99743Y26520D1*
X99705Y26481D1*
X99743Y26213D2*
Y25677D1*
X100488Y26213D2*
Y25677D1*
Y26098D2*
X100412Y26175D1*
X100335Y26213D1*
X100221D1*
X100144Y26175D1*
X100068Y26098D1*
X100029Y25983D1*
Y25907D1*
X100068Y25792D1*
X100144Y25716D1*
X100221Y25677D1*
X100335D1*
X100412Y25716D1*
X100488Y25792D1*
X101513Y26481D2*
X101551Y26443D1*
X101590Y26481D1*
X101551Y26520D1*
X101513Y26481D1*
X101551Y26213D2*
Y25677D1*
X101837Y26213D2*
Y25677D1*
Y26060D2*
X101952Y26175D1*
X102029Y26213D1*
X102143D1*
X102220Y26175D1*
X102258Y26060D1*
Y25677D1*
X103282Y26213D2*
Y25410D1*
Y26098D2*
X103359Y26174D1*
X103435Y26213D1*
X103550D1*
X103627Y26174D1*
X103703Y26098D1*
X103742Y25983D1*
Y25907D1*
X103703Y25792D1*
X103627Y25716D1*
X103550Y25677D1*
X103435D1*
X103359Y25716D1*
X103282Y25792D1*
X104448Y26213D2*
Y25677D1*
Y26098D2*
X104372Y26175D1*
X104295Y26213D1*
X104181D1*
X104104Y26175D1*
X104028Y26098D1*
X103989Y25983D1*
Y25907D1*
X104028Y25792D1*
X104104Y25716D1*
X104181Y25677D1*
X104295D1*
X104372Y25716D1*
X104448Y25792D1*
X105154Y26481D2*
Y25677D1*
Y26098D2*
X105078Y26175D1*
X105001Y26213D1*
X104886D1*
X104810Y26175D1*
X104733Y26098D1*
X104695Y25983D1*
Y25907D1*
X104733Y25792D1*
X104810Y25716D1*
X104886Y25677D1*
X105001D1*
X105078Y25716D1*
X105154Y25792D1*
X99229Y25167D2*
X99114Y25129D1*
X99037Y25014D1*
X98999Y24823D1*
Y24708D1*
X99037Y24517D1*
X99114Y24403D1*
X99229Y24364D1*
X99305D1*
X99420Y24403D1*
X99496Y24517D1*
X99535Y24708D1*
Y24823D1*
X99496Y25014D1*
X99420Y25129D1*
X99305Y25167D1*
X99229D1*
X99496Y25014D2*
X99037Y24517D1*
X99820Y24441D2*
X99782Y24403D1*
X99820Y24364D1*
X99859Y24403D1*
X99820Y24441D1*
X100106Y25014D2*
X100183Y25053D1*
X100298Y25167D1*
Y24364D1*
X101004Y25167D2*
X100622D1*
X100584Y24823D1*
X100622Y24861D1*
X100737Y24900D1*
X100851D1*
X100966Y24861D1*
X101043Y24785D1*
X101081Y24670D1*
Y24594D1*
X101043Y24479D1*
X100966Y24403D1*
X100851Y24364D1*
X100737D1*
X100622Y24403D1*
X100584Y24441D1*
X100545Y24517D1*
X101367Y24976D2*
Y25014D1*
X101405Y25091D1*
X101443Y25129D1*
X101520Y25167D1*
X101673D1*
X101749Y25129D1*
X101787Y25091D1*
X101826Y25014D1*
Y24938D1*
X101787Y24861D1*
X101711Y24747D1*
X101328Y24364D1*
X101864D1*
X102111Y24900D2*
Y24364D1*
Y24747D2*
X102226Y24862D1*
X102303Y24900D1*
X102417D1*
X102494Y24862D1*
X102532Y24747D1*
Y24364D1*
Y24747D2*
X102647Y24862D1*
X102724Y24900D1*
X102838D1*
X102915Y24862D1*
X102954Y24747D1*
Y24364D1*
X103201Y24900D2*
Y24364D1*
Y24747D2*
X103316Y24862D1*
X103392Y24900D1*
X103507D1*
X103583Y24862D1*
X103622Y24747D1*
Y24364D1*
Y24747D2*
X103736Y24862D1*
X103813Y24900D1*
X103927D1*
X104004Y24862D1*
X104043Y24747D1*
Y24364D1*
X99229Y23595D2*
X99114Y23557D1*
X99037Y23442D1*
X98999Y23251D1*
Y23136D1*
X99037Y22945D1*
X99114Y22830D1*
X99229Y22792D1*
X99305D1*
X99420Y22830D1*
X99496Y22945D1*
X99535Y23136D1*
Y23251D1*
X99496Y23442D1*
X99420Y23557D1*
X99305Y23595D1*
X99229D1*
X99496Y23442D2*
X99037Y22945D1*
X99820Y22869D2*
X99782Y22830D1*
X99820Y22792D1*
X99859Y22830D1*
X99820Y22869D1*
X100145Y23404D2*
Y23442D1*
X100183Y23519D1*
X100221Y23557D1*
X100298Y23595D1*
X100451D1*
X100527Y23557D1*
X100565Y23519D1*
X100604Y23442D1*
Y23366D1*
X100565Y23289D1*
X100489Y23175D1*
X100106Y22792D1*
X100642D1*
X101348Y23595D2*
X100966D1*
X100928Y23251D1*
X100966Y23289D1*
X101081Y23328D1*
X101195D1*
X101310Y23289D1*
X101387Y23213D1*
X101425Y23098D1*
Y23022D1*
X101387Y22907D1*
X101310Y22830D1*
X101195Y22792D1*
X101081D1*
X100966Y22830D1*
X100928Y22869D1*
X100889Y22945D1*
X102055Y22792D2*
Y23595D1*
X101672Y23060D1*
X102246D1*
X102493Y23328D2*
Y22792D1*
Y23175D2*
X102608Y23290D1*
X102685Y23328D1*
X102799D1*
X102876Y23290D1*
X102914Y23175D1*
Y22792D1*
Y23175D2*
X103029Y23290D1*
X103106Y23328D1*
X103220D1*
X103297Y23290D1*
X103336Y23175D1*
Y22792D1*
X103583Y23328D2*
Y22792D1*
Y23175D2*
X103698Y23290D1*
X103774Y23328D1*
X103889D1*
X103966Y23290D1*
X104004Y23175D1*
Y22792D1*
Y23175D2*
X104118Y23290D1*
X104195Y23328D1*
X104310D1*
X104386Y23290D1*
X104425Y23175D1*
Y22792D1*
X105794Y23538D2*
Y22849D1*
X105450Y23193D2*
X106139D1*
X106386Y22792D2*
X106922Y23595D1*
X107169Y23194D2*
X107611D1*
X108866Y23595D2*
X108751Y23557D1*
X108674Y23442D1*
X108636Y23251D1*
Y23136D1*
X108674Y22945D1*
X108751Y22830D1*
X108866Y22792D1*
X108942D1*
X109057Y22830D1*
X109133Y22945D1*
X109172Y23136D1*
Y23251D1*
X109133Y23442D1*
X109057Y23557D1*
X108942Y23595D1*
X108866D1*
X109133Y23442D2*
X108674Y22945D1*
X109457Y22869D2*
X109419Y22830D1*
X109457Y22792D1*
X109495Y22830D1*
X109457Y22869D1*
X109972Y23595D2*
X109857Y23557D1*
X109781Y23442D1*
X109743Y23251D1*
Y23136D1*
X109781Y22945D1*
X109857Y22830D1*
X109972Y22792D1*
X110048D1*
X110163Y22830D1*
X110239Y22945D1*
X110278Y23136D1*
Y23251D1*
X110239Y23442D1*
X110163Y23557D1*
X110048Y23595D1*
X109972D1*
X110239Y23442D2*
X109781Y22945D1*
X110678Y22792D2*
X111061Y23595D1*
X110525D1*
X111308Y23328D2*
Y22792D1*
Y23175D2*
X111423Y23290D1*
X111500Y23328D1*
X111614D1*
X111691Y23290D1*
X111729Y23175D1*
Y22792D1*
Y23175D2*
X111844Y23290D1*
X111921Y23328D1*
X112035D1*
X112112Y23290D1*
X112151Y23175D1*
Y22792D1*
X112398Y23328D2*
Y22792D1*
Y23175D2*
X112513Y23290D1*
X112590Y23328D1*
X112704D1*
X112781Y23290D1*
X112819Y23175D1*
Y22792D1*
Y23175D2*
X112934Y23290D1*
X113011Y23328D1*
X113125D1*
X113202Y23290D1*
X113241Y23175D1*
Y22792D1*
X99229Y22023D2*
X99114Y21985D1*
X99037Y21870D1*
X98999Y21679D1*
Y21564D1*
X99037Y21373D1*
X99114Y21258D1*
X99229Y21220D1*
X99305D1*
X99420Y21258D1*
X99496Y21373D1*
X99535Y21564D1*
Y21679D1*
X99496Y21870D1*
X99420Y21985D1*
X99305Y22023D1*
X99229D1*
X99496Y21870D2*
X99037Y21373D1*
X99820Y21297D2*
X99782Y21258D1*
X99820Y21220D1*
X99859Y21258D1*
X99820Y21297D1*
X100183Y22023D2*
X100603D1*
X100374Y21717D1*
X100489D1*
X100565Y21679D1*
X100603Y21641D1*
X100642Y21526D1*
Y21450D1*
X100603Y21335D1*
X100527Y21258D1*
X100412Y21220D1*
X100297D1*
X100183Y21258D1*
X100145Y21297D1*
X100106Y21373D1*
X101080Y22023D2*
X100966Y21985D1*
X100927Y21909D1*
Y21832D1*
X100966Y21756D1*
X101042Y21717D1*
X101195Y21679D1*
X101310Y21641D1*
X101386Y21564D1*
X101424Y21488D1*
Y21373D1*
X101386Y21297D1*
X101348Y21258D1*
X101233Y21220D1*
X101080D1*
X100966Y21258D1*
X100927Y21297D1*
X100889Y21373D1*
Y21488D1*
X100927Y21564D1*
X101004Y21641D1*
X101118Y21679D1*
X101271Y21717D1*
X101348Y21756D1*
X101386Y21832D1*
Y21909D1*
X101348Y21985D1*
X101233Y22023D1*
X101080D1*
X101671Y21870D2*
X101748Y21909D1*
X101863Y22023D1*
Y21220D1*
X102110Y21756D2*
Y21220D1*
Y21603D2*
X102225Y21718D1*
X102302Y21756D1*
X102416D1*
X102493Y21718D1*
X102531Y21603D1*
Y21220D1*
Y21603D2*
X102646Y21718D1*
X102723Y21756D1*
X102837D1*
X102914Y21718D1*
X102953Y21603D1*
Y21220D1*
X103200Y21756D2*
Y21220D1*
Y21603D2*
X103315Y21718D1*
X103392Y21756D1*
X103506D1*
X103583Y21718D1*
X103621Y21603D1*
Y21220D1*
Y21603D2*
X103736Y21718D1*
X103813Y21756D1*
X103927D1*
X104004Y21718D1*
X104042Y21603D1*
Y21220D1*
X105335Y22233D2*
X105258Y22157D1*
X105182Y22042D1*
X105105Y21889D1*
X105067Y21697D1*
Y21544D1*
X105105Y21353D1*
X105182Y21200D1*
X105258Y21085D1*
X105335Y21009D1*
X105582Y21526D2*
X106041D1*
Y21603D1*
X106003Y21680D1*
X105965Y21718D1*
X105888Y21756D1*
X105773D1*
X105697Y21718D1*
X105620Y21641D1*
X105582Y21526D1*
Y21450D1*
X105620Y21335D1*
X105697Y21259D1*
X105773Y21220D1*
X105888D1*
X105965Y21259D1*
X106041Y21335D1*
X106288Y21756D2*
X106709Y21220D1*
Y21756D2*
X106288Y21220D1*
X108193Y21641D2*
X108117Y21718D1*
X108040Y21756D1*
X107926D1*
X107849Y21718D1*
X107773Y21641D1*
X107734Y21526D1*
Y21450D1*
X107773Y21335D1*
X107849Y21259D1*
X107926Y21220D1*
X108040D1*
X108117Y21259D1*
X108193Y21335D1*
X108899Y21756D2*
Y21220D1*
Y21641D2*
X108823Y21718D1*
X108746Y21756D1*
X108632D1*
X108555Y21718D1*
X108479Y21641D1*
X108440Y21526D1*
Y21450D1*
X108479Y21335D1*
X108555Y21259D1*
X108632Y21220D1*
X108746D1*
X108823Y21259D1*
X108899Y21335D1*
X109567Y21641D2*
X109529Y21718D1*
X109414Y21756D1*
X109299D1*
X109185Y21718D1*
X109146Y21641D1*
X109185Y21565D1*
X109261Y21526D1*
X109452Y21488D1*
X109529Y21450D1*
X109567Y21373D1*
Y21335D1*
X109529Y21259D1*
X109414Y21220D1*
X109299D1*
X109185Y21259D1*
X109146Y21335D1*
X109929Y22024D2*
Y21373D1*
X109967Y21259D1*
X110044Y21220D1*
X110120D1*
X109814Y21756D2*
X110082D1*
X110367Y21526D2*
X110826D1*
Y21603D1*
X110788Y21680D1*
X110750Y21718D1*
X110673Y21756D1*
X110558D1*
X110482Y21718D1*
X110405Y21641D1*
X110367Y21526D1*
Y21450D1*
X110405Y21335D1*
X110482Y21259D1*
X110558Y21220D1*
X110673D1*
X110750Y21259D1*
X110826Y21335D1*
X111073Y22024D2*
Y21220D1*
X111320Y22024D2*
Y21220D1*
X112026Y21756D2*
Y21220D1*
Y21641D2*
X111950Y21718D1*
X111873Y21756D1*
X111759D1*
X111682Y21718D1*
X111606Y21641D1*
X111567Y21526D1*
Y21450D1*
X111606Y21335D1*
X111682Y21259D1*
X111759Y21220D1*
X111873D1*
X111950Y21259D1*
X112026Y21335D1*
X112388Y22024D2*
Y21373D1*
X112426Y21259D1*
X112503Y21220D1*
X112579D1*
X112273Y21756D2*
X112541D1*
X112826Y22024D2*
X112864Y21986D1*
X112903Y22024D1*
X112864Y22062D1*
X112826Y22024D1*
X112864Y21756D2*
Y21220D1*
X113341Y21756D2*
X113265Y21718D1*
X113188Y21641D1*
X113150Y21526D1*
Y21450D1*
X113188Y21335D1*
X113265Y21259D1*
X113341Y21220D1*
X113456D1*
X113533Y21259D1*
X113609Y21335D1*
X113648Y21450D1*
Y21526D1*
X113609Y21641D1*
X113533Y21718D1*
X113456Y21756D1*
X113341D1*
X113895D2*
Y21220D1*
Y21603D2*
X114010Y21718D1*
X114087Y21756D1*
X114201D1*
X114278Y21718D1*
X114316Y21603D1*
Y21220D1*
X114984Y21641D2*
X114946Y21718D1*
X114831Y21756D1*
X114716D1*
X114601Y21718D1*
X114563Y21641D1*
X114601Y21565D1*
X114678Y21526D1*
X114869Y21488D1*
X114946Y21450D1*
X114984Y21373D1*
Y21335D1*
X114946Y21259D1*
X114831Y21220D1*
X114716D1*
X114601Y21259D1*
X114563Y21335D1*
X115231Y22233D2*
X115308Y22157D1*
X115384Y22042D1*
X115461Y21889D1*
X115499Y21697D1*
Y21544D1*
X115461Y21353D1*
X115384Y21200D1*
X115308Y21085D1*
X115231Y21009D1*
X98999Y20066D2*
X99343D1*
X99458Y20105D1*
X99497Y20143D1*
X99535Y20219D1*
Y20296D1*
X99497Y20372D1*
X99458Y20411D1*
X99343Y20449D1*
X98999D1*
Y19645D1*
X99267Y20066D2*
X99535Y19645D1*
X99973Y20181D2*
X99897Y20143D1*
X99820Y20066D1*
X99782Y19951D1*
Y19875D1*
X99820Y19760D1*
X99897Y19684D1*
X99973Y19645D1*
X100088D1*
X100165Y19684D1*
X100241Y19760D1*
X100280Y19875D1*
Y19951D1*
X100241Y20066D1*
X100165Y20143D1*
X100088Y20181D1*
X99973D1*
X100527D2*
Y19798D1*
X100565Y19684D1*
X100642Y19645D1*
X100757D1*
X100833Y19684D1*
X100948Y19798D1*
Y20181D2*
Y19645D1*
X101310Y20449D2*
Y19798D1*
X101348Y19684D1*
X101425Y19645D1*
X101501D1*
X101195Y20181D2*
X101463D1*
X101748Y19951D2*
X102207D1*
Y20028D1*
X102169Y20105D1*
X102131Y20143D1*
X102054Y20181D1*
X101939D1*
X101863Y20143D1*
X101786Y20066D1*
X101748Y19951D1*
Y19875D1*
X101786Y19760D1*
X101863Y19684D1*
X101939Y19645D1*
X102054D1*
X102131Y19684D1*
X102207Y19760D1*
X103346Y20449D2*
Y19798D1*
X103385Y19684D1*
X103461Y19645D1*
X103537D1*
X103232Y20181D2*
X103499D1*
X103785Y20449D2*
Y19645D1*
Y20028D2*
X103899Y20143D1*
X103976Y20181D1*
X104091D1*
X104167Y20143D1*
X104205Y20028D1*
Y19645D1*
X104452Y20181D2*
Y19645D1*
Y19951D2*
X104491Y20066D1*
X104567Y20143D1*
X104644Y20181D1*
X104759D1*
X105197D2*
X105121Y20143D1*
X105044Y20066D1*
X105006Y19951D1*
Y19875D1*
X105044Y19760D1*
X105121Y19684D1*
X105197Y19645D1*
X105312D1*
X105389Y19684D1*
X105465Y19760D1*
X105504Y19875D1*
Y19951D1*
X105465Y20066D1*
X105389Y20143D1*
X105312Y20181D1*
X105197D1*
X105751D2*
Y19798D1*
X105789Y19684D1*
X105866Y19645D1*
X105981D1*
X106057Y19684D1*
X106172Y19798D1*
Y20181D2*
Y19645D1*
X106878Y20143D2*
Y19530D1*
X106840Y19416D1*
X106802Y19377D1*
X106725Y19339D1*
X106610D1*
X106534Y19377D1*
X106878Y20028D2*
X106802Y20104D1*
X106725Y20143D1*
X106610D1*
X106534Y20104D1*
X106457Y20028D1*
X106419Y19913D1*
Y19836D1*
X106457Y19722D1*
X106534Y19645D1*
X106610Y19607D1*
X106725D1*
X106802Y19645D1*
X106878Y19722D1*
X107125Y20449D2*
Y19645D1*
Y20028D2*
X107240Y20143D1*
X107317Y20181D1*
X107432D1*
X107508Y20143D1*
X107546Y20028D1*
Y19645D1*
X108571Y20181D2*
X108801Y19645D1*
X109030Y20181D1*
X109277Y20449D2*
X109315Y20411D1*
X109354Y20449D1*
X109315Y20488D1*
X109277Y20449D1*
X109315Y20181D2*
Y19645D1*
X110060Y20181D2*
Y19645D1*
Y20066D2*
X109984Y20143D1*
X109907Y20181D1*
X109793D1*
X109716Y20143D1*
X109640Y20066D1*
X109601Y19951D1*
Y19875D1*
X109640Y19760D1*
X109716Y19684D1*
X109793Y19645D1*
X109907D1*
X109984Y19684D1*
X110060Y19760D1*
X111084Y19951D2*
X111543D1*
Y20028D1*
X111505Y20105D1*
X111467Y20143D1*
X111390Y20181D1*
X111275D1*
X111199Y20143D1*
X111122Y20066D1*
X111084Y19951D1*
Y19875D1*
X111122Y19760D1*
X111199Y19684D1*
X111275Y19645D1*
X111390D1*
X111467Y19684D1*
X111543Y19760D1*
X112249Y20449D2*
Y19645D1*
Y20066D2*
X112173Y20143D1*
X112096Y20181D1*
X111981D1*
X111905Y20143D1*
X111828Y20066D1*
X111790Y19951D1*
Y19875D1*
X111828Y19760D1*
X111905Y19684D1*
X111981Y19645D1*
X112096D1*
X112173Y19684D1*
X112249Y19760D1*
X112955Y20143D2*
Y19530D1*
X112917Y19416D1*
X112879Y19377D1*
X112802Y19339D1*
X112687D1*
X112611Y19377D1*
X112955Y20028D2*
X112879Y20104D1*
X112802Y20143D1*
X112687D1*
X112611Y20104D1*
X112534Y20028D1*
X112496Y19913D1*
Y19836D1*
X112534Y19722D1*
X112611Y19645D1*
X112687Y19607D1*
X112802D1*
X112879Y19645D1*
X112955Y19722D1*
X113202Y19951D2*
X113661D1*
Y20028D1*
X113623Y20105D1*
X113585Y20143D1*
X113508Y20181D1*
X113393D1*
X113317Y20143D1*
X113240Y20066D1*
X113202Y19951D1*
Y19875D1*
X113240Y19760D1*
X113317Y19684D1*
X113393Y19645D1*
X113508D1*
X113585Y19684D1*
X113661Y19760D1*
X98999Y18874D2*
Y18300D1*
X99037Y18185D1*
X99114Y18109D1*
X99229Y18070D1*
X99305D1*
X99420Y18109D1*
X99497Y18185D1*
X99535Y18300D1*
Y18874D1*
X100203Y18491D2*
X100165Y18568D1*
X100050Y18606D1*
X99935D1*
X99820Y18568D1*
X99782Y18491D1*
X99820Y18415D1*
X99897Y18376D1*
X100088Y18338D1*
X100165Y18300D1*
X100203Y18223D1*
Y18185D1*
X100165Y18109D1*
X100050Y18070D1*
X99935D1*
X99820Y18109D1*
X99782Y18185D1*
X100450Y18376D2*
X100909D1*
Y18453D1*
X100871Y18530D1*
X100833Y18568D1*
X100756Y18606D1*
X100641D1*
X100565Y18568D1*
X100488Y18491D1*
X100450Y18376D1*
Y18300D1*
X100488Y18185D1*
X100565Y18109D1*
X100641Y18070D1*
X100756D1*
X100833Y18109D1*
X100909Y18185D1*
X101934Y18606D2*
Y18070D1*
Y18376D2*
X101973Y18491D1*
X102049Y18568D1*
X102126Y18606D1*
X102240D1*
X102679D2*
X102602Y18568D1*
X102526Y18491D1*
X102488Y18376D1*
Y18300D1*
X102526Y18185D1*
X102602Y18109D1*
X102679Y18070D1*
X102793D1*
X102870Y18109D1*
X102946Y18185D1*
X102985Y18300D1*
Y18376D1*
X102946Y18491D1*
X102870Y18568D1*
X102793Y18606D1*
X102679D1*
X103232D2*
Y18223D1*
X103270Y18109D1*
X103347Y18070D1*
X103462D1*
X103538Y18109D1*
X103653Y18223D1*
Y18606D2*
Y18070D1*
X104015Y18874D2*
Y18223D1*
X104053Y18109D1*
X104130Y18070D1*
X104206D1*
X103900Y18606D2*
X104168D1*
X104453Y18874D2*
X104491Y18836D1*
X104530Y18874D1*
X104491Y18913D1*
X104453Y18874D1*
X104491Y18606D2*
Y18070D1*
X104777Y18606D2*
Y18070D1*
Y18453D2*
X104892Y18568D1*
X104969Y18606D1*
X105083D1*
X105160Y18568D1*
X105198Y18453D1*
Y18070D1*
X105904Y18568D2*
Y17955D1*
X105866Y17841D1*
X105828Y17802D1*
X105751Y17764D1*
X105636D1*
X105560Y17802D1*
X105904Y18453D2*
X105828Y18529D1*
X105751Y18568D1*
X105636D1*
X105560Y18529D1*
X105483Y18453D1*
X105445Y18338D1*
Y18261D1*
X105483Y18147D1*
X105560Y18070D1*
X105636Y18032D1*
X105751D1*
X105828Y18070D1*
X105904Y18147D1*
X107044Y18874D2*
Y18223D1*
X107082Y18109D1*
X107159Y18070D1*
X107235D1*
X106929Y18606D2*
X107197D1*
X107941D2*
Y18070D1*
Y18491D2*
X107865Y18568D1*
X107788Y18606D1*
X107674D1*
X107597Y18568D1*
X107521Y18491D1*
X107482Y18376D1*
Y18300D1*
X107521Y18185D1*
X107597Y18109D1*
X107674Y18070D1*
X107788D1*
X107865Y18109D1*
X107941Y18185D1*
X108188Y18874D2*
Y18070D1*
Y18491D2*
X108265Y18568D1*
X108341Y18606D1*
X108456D1*
X108532Y18568D1*
X108609Y18491D1*
X108647Y18376D1*
Y18300D1*
X108609Y18185D1*
X108532Y18109D1*
X108456Y18070D1*
X108341D1*
X108265Y18109D1*
X108188Y18185D1*
X109315Y18491D2*
X109277Y18568D1*
X109162Y18606D1*
X109047D1*
X108932Y18568D1*
X108894Y18491D1*
X108932Y18415D1*
X109009Y18376D1*
X109200Y18338D1*
X109277Y18300D1*
X109315Y18223D1*
Y18185D1*
X109277Y18109D1*
X109162Y18070D1*
X109047D1*
X108932Y18109D1*
X108894Y18185D1*
X99535Y17187D2*
X99459Y17263D1*
X99344Y17302D1*
X99191D1*
X99076Y17263D1*
X98999Y17187D1*
Y17111D1*
X99038Y17034D1*
X99076Y16996D1*
X99152Y16958D1*
X99382Y16881D1*
X99459Y16843D1*
X99497Y16804D1*
X99535Y16728D1*
Y16613D1*
X99459Y16537D1*
X99344Y16498D1*
X99191D1*
X99076Y16537D1*
X98999Y16613D1*
X99782Y16804D2*
X100241D1*
Y16881D1*
X100203Y16958D1*
X100165Y16996D1*
X100088Y17034D1*
X99973D1*
X99897Y16996D1*
X99820Y16919D1*
X99782Y16804D1*
Y16728D1*
X99820Y16613D1*
X99897Y16537D1*
X99973Y16498D1*
X100088D1*
X100165Y16537D1*
X100241Y16613D1*
X100488Y16804D2*
X100947D1*
Y16881D1*
X100909Y16958D1*
X100871Y16996D1*
X100794Y17034D1*
X100679D1*
X100603Y16996D1*
X100526Y16919D1*
X100488Y16804D1*
Y16728D1*
X100526Y16613D1*
X100603Y16537D1*
X100679Y16498D1*
X100794D1*
X100871Y16537D1*
X100947Y16613D1*
X101972Y17034D2*
Y16498D1*
Y16804D2*
X102011Y16919D1*
X102087Y16996D1*
X102164Y17034D1*
X102279D1*
X102717D2*
X102640Y16996D1*
X102564Y16919D1*
X102526Y16804D1*
Y16728D1*
X102564Y16613D1*
X102640Y16537D1*
X102717Y16498D1*
X102832D1*
X102908Y16537D1*
X102984Y16613D1*
X103023Y16728D1*
Y16804D1*
X102984Y16919D1*
X102908Y16996D1*
X102832Y17034D1*
X102717D1*
X103270D2*
Y16651D1*
X103308Y16537D1*
X103385Y16498D1*
X103500D1*
X103576Y16537D1*
X103691Y16651D1*
Y17034D2*
Y16498D1*
X104053Y17302D2*
Y16651D1*
X104091Y16537D1*
X104168Y16498D1*
X104244D1*
X103938Y17034D2*
X104206D1*
X104491Y16804D2*
X104950D1*
Y16881D1*
X104912Y16958D1*
X104874Y16996D1*
X104797Y17034D1*
X104682D1*
X104606Y16996D1*
X104529Y16919D1*
X104491Y16804D1*
Y16728D1*
X104529Y16613D1*
X104606Y16537D1*
X104682Y16498D1*
X104797D1*
X104874Y16537D1*
X104950Y16613D1*
X105312Y17302D2*
Y16651D1*
X105350Y16537D1*
X105427Y16498D1*
X105503D1*
X105197Y17034D2*
X105465D1*
X106209D2*
Y16498D1*
Y16919D2*
X106133Y16996D1*
X106056Y17034D1*
X105942D1*
X105865Y16996D1*
X105789Y16919D1*
X105750Y16804D1*
Y16728D1*
X105789Y16613D1*
X105865Y16537D1*
X105942Y16498D1*
X106056D1*
X106133Y16537D1*
X106209Y16613D1*
X106456Y17302D2*
Y16498D1*
Y16919D2*
X106533Y16996D1*
X106609Y17034D1*
X106724D1*
X106800Y16996D1*
X106877Y16919D1*
X106915Y16804D1*
Y16728D1*
X106877Y16613D1*
X106800Y16537D1*
X106724Y16498D1*
X106609D1*
X106533Y16537D1*
X106456Y16613D1*
X107940Y17302D2*
Y16498D1*
X108646Y17034D2*
Y16498D1*
Y16919D2*
X108570Y16996D1*
X108493Y17034D1*
X108379D1*
X108302Y16996D1*
X108226Y16919D1*
X108187Y16804D1*
Y16728D1*
X108226Y16613D1*
X108302Y16537D1*
X108379Y16498D1*
X108493D1*
X108570Y16537D1*
X108646Y16613D1*
X108932Y17034D2*
X109161Y16498D1*
X109085Y16345D1*
X109008Y16268D1*
X108932Y16230D1*
X108893D1*
X109391Y17034D2*
X109161Y16498D1*
X109638Y16804D2*
X110097D1*
Y16881D1*
X110059Y16958D1*
X110021Y16996D1*
X109944Y17034D1*
X109829D1*
X109753Y16996D1*
X109676Y16919D1*
X109638Y16804D1*
Y16728D1*
X109676Y16613D1*
X109753Y16537D1*
X109829Y16498D1*
X109944D1*
X110021Y16537D1*
X110097Y16613D1*
X110344Y17034D2*
Y16498D1*
Y16804D2*
X110383Y16919D1*
X110459Y16996D1*
X110536Y17034D1*
X110651D1*
X99535Y15991D2*
Y15187D1*
X98999Y15991D1*
Y15187D1*
X99973Y15723D2*
X99897Y15685D1*
X99820Y15608D1*
X99782Y15493D1*
Y15417D1*
X99820Y15302D1*
X99897Y15226D1*
X99973Y15187D1*
X100088D1*
X100165Y15226D1*
X100241Y15302D1*
X100280Y15417D1*
Y15493D1*
X100241Y15608D1*
X100165Y15685D1*
X100088Y15723D1*
X99973D1*
X100527D2*
Y15187D1*
Y15570D2*
X100642Y15685D1*
X100719Y15723D1*
X100833D1*
X100910Y15685D1*
X100948Y15570D1*
Y15187D1*
X102432Y15608D2*
X102355Y15685D1*
X102279Y15723D1*
X102164D1*
X102087Y15685D1*
X102011Y15608D1*
X101973Y15493D1*
Y15417D1*
X102011Y15302D1*
X102087Y15226D1*
X102164Y15187D1*
X102279D1*
X102355Y15226D1*
X102432Y15302D1*
X102870Y15723D2*
X102794Y15685D1*
X102717Y15608D1*
X102679Y15493D1*
Y15417D1*
X102717Y15302D1*
X102794Y15226D1*
X102870Y15187D1*
X102985D1*
X103062Y15226D1*
X103138Y15302D1*
X103177Y15417D1*
Y15493D1*
X103138Y15608D1*
X103062Y15685D1*
X102985Y15723D1*
X102870D1*
X103424D2*
Y15187D1*
Y15570D2*
X103539Y15685D1*
X103616Y15723D1*
X103730D1*
X103807Y15685D1*
X103845Y15570D1*
Y15187D1*
X104551Y15991D2*
Y15187D1*
Y15608D2*
X104475Y15685D1*
X104398Y15723D1*
X104283D1*
X104207Y15685D1*
X104130Y15608D1*
X104092Y15493D1*
Y15417D1*
X104130Y15302D1*
X104207Y15226D1*
X104283Y15187D1*
X104398D1*
X104475Y15226D1*
X104551Y15302D1*
X104798Y15723D2*
Y15340D1*
X104836Y15226D1*
X104913Y15187D1*
X105028D1*
X105104Y15226D1*
X105219Y15340D1*
Y15723D2*
Y15187D1*
X105926Y15608D2*
X105849Y15685D1*
X105772Y15723D1*
X105658D1*
X105581Y15685D1*
X105505Y15608D1*
X105466Y15493D1*
Y15417D1*
X105505Y15302D1*
X105581Y15226D1*
X105658Y15187D1*
X105772D1*
X105849Y15226D1*
X105926Y15302D1*
X106288Y15991D2*
Y15340D1*
X106326Y15226D1*
X106403Y15187D1*
X106479D1*
X106173Y15723D2*
X106441D1*
X106726Y15991D2*
X106764Y15953D1*
X106803Y15991D1*
X106764Y16030D1*
X106726Y15991D1*
X106764Y15723D2*
Y15187D1*
X107050Y15723D2*
X107280Y15187D1*
X107509Y15723D1*
X107756Y15493D2*
X108215D1*
Y15570D1*
X108177Y15647D1*
X108139Y15685D1*
X108062Y15723D1*
X107947D1*
X107871Y15685D1*
X107794Y15608D1*
X107756Y15493D1*
Y15417D1*
X107794Y15302D1*
X107871Y15226D1*
X107947Y15187D1*
X108062D1*
X108139Y15226D1*
X108215Y15302D1*
X99305Y14548D2*
X99229D1*
X99152Y14510D1*
X99114Y14395D1*
Y13744D1*
X98999Y14280D2*
X99267D1*
X99552Y14548D2*
X99590Y14510D1*
X99629Y14548D1*
X99590Y14587D1*
X99552Y14548D1*
X99590Y14280D2*
Y13744D1*
X99876Y14548D2*
Y13744D1*
X100123Y14548D2*
Y13744D1*
X100370Y14050D2*
X100829D1*
Y14127D1*
X100791Y14204D1*
X100753Y14242D1*
X100676Y14280D1*
X100561D1*
X100485Y14242D1*
X100408Y14165D1*
X100370Y14050D1*
Y13974D1*
X100408Y13859D1*
X100485Y13783D1*
X100561Y13744D1*
X100676D1*
X100753Y13783D1*
X100829Y13859D1*
X101535Y14548D2*
Y13744D1*
Y14165D2*
X101459Y14242D1*
X101382Y14280D1*
X101267D1*
X101191Y14242D1*
X101114Y14165D1*
X101076Y14050D1*
Y13974D1*
X101114Y13859D1*
X101191Y13783D1*
X101267Y13744D1*
X101382D1*
X101459Y13783D1*
X101535Y13859D1*
X101859Y13782D2*
X101820Y13744D1*
X101782Y13782D1*
X101820Y13821D1*
X101859Y13782D1*
Y13706D1*
X101820Y13629D1*
X101782Y13591D1*
X103190Y14548D2*
X103114D1*
X103037Y14510D1*
X102999Y14395D1*
Y13744D1*
X102884Y14280D2*
X103152D1*
X103437Y14548D2*
Y13744D1*
X104143Y14280D2*
Y13744D1*
Y14165D2*
X104067Y14242D1*
X103990Y14280D1*
X103876D1*
X103799Y14242D1*
X103723Y14165D1*
X103684Y14050D1*
Y13974D1*
X103723Y13859D1*
X103799Y13783D1*
X103876Y13744D1*
X103990D1*
X104067Y13783D1*
X104143Y13859D1*
X104505Y14548D2*
Y13897D1*
X104543Y13783D1*
X104620Y13744D1*
X104696D1*
X104390Y14280D2*
X104658D1*
X105020Y13782D2*
X104981Y13744D1*
X104943Y13782D1*
X104981Y13821D1*
X105020Y13782D1*
Y13706D1*
X104981Y13629D1*
X104943Y13591D1*
X106503Y14280D2*
Y13744D1*
Y14165D2*
X106427Y14242D1*
X106350Y14280D1*
X106236D1*
X106159Y14242D1*
X106083Y14165D1*
X106044Y14050D1*
Y13974D1*
X106083Y13859D1*
X106159Y13783D1*
X106236Y13744D1*
X106350D1*
X106427Y13783D1*
X106503Y13859D1*
X106750Y14280D2*
Y13744D1*
Y14127D2*
X106865Y14242D1*
X106942Y14280D1*
X107056D1*
X107133Y14242D1*
X107171Y14127D1*
Y13744D1*
X107877Y14548D2*
Y13744D1*
Y14165D2*
X107801Y14242D1*
X107724Y14280D1*
X107609D1*
X107533Y14242D1*
X107456Y14165D1*
X107418Y14050D1*
Y13974D1*
X107456Y13859D1*
X107533Y13783D1*
X107609Y13744D1*
X107724D1*
X107801Y13783D1*
X107877Y13859D1*
X108902Y14280D2*
Y13476D1*
Y14165D2*
X108979Y14241D1*
X109055Y14280D1*
X109170D1*
X109247Y14241D1*
X109323Y14165D1*
X109362Y14050D1*
Y13973D1*
X109323Y13859D1*
X109247Y13782D1*
X109170Y13744D1*
X109055D1*
X108979Y13782D1*
X108902Y13859D1*
X109609Y14548D2*
Y13744D1*
X110315Y14280D2*
Y13744D1*
Y14165D2*
X110239Y14242D1*
X110162Y14280D1*
X110048D1*
X109971Y14242D1*
X109895Y14165D1*
X109856Y14050D1*
Y13974D1*
X109895Y13859D1*
X109971Y13783D1*
X110048Y13744D1*
X110162D1*
X110239Y13783D1*
X110315Y13859D1*
X110677Y14548D2*
Y13897D1*
X110715Y13783D1*
X110792Y13744D1*
X110868D1*
X110562Y14280D2*
X110830D1*
X111115Y14050D2*
X111574D1*
Y14127D1*
X111536Y14204D1*
X111498Y14242D1*
X111421Y14280D1*
X111306D1*
X111230Y14242D1*
X111153Y14165D1*
X111115Y14050D1*
Y13974D1*
X111153Y13859D1*
X111230Y13783D1*
X111306Y13744D1*
X111421D1*
X111498Y13783D1*
X111574Y13859D1*
X112280Y14548D2*
Y13744D1*
Y14165D2*
X112204Y14242D1*
X112127Y14280D1*
X112012D1*
X111936Y14242D1*
X111859Y14165D1*
X111821Y14050D1*
Y13974D1*
X111859Y13859D1*
X111936Y13783D1*
X112012Y13744D1*
X112127D1*
X112204Y13783D1*
X112280Y13859D1*
X112604Y13782D2*
X112565Y13744D1*
X112527Y13782D1*
X112565Y13821D1*
X112604Y13782D1*
Y13706D1*
X112565Y13629D1*
X112527Y13591D1*
X99420Y12722D2*
X99382Y12799D1*
X99267Y12837D1*
X99152D1*
X99037Y12799D1*
X98999Y12722D1*
X99037Y12646D1*
X99114Y12607D1*
X99305Y12569D1*
X99382Y12531D1*
X99420Y12454D1*
Y12416D1*
X99382Y12340D1*
X99267Y12301D1*
X99152D1*
X99037Y12340D1*
X98999Y12416D1*
X99667Y12607D2*
X100126D1*
Y12684D1*
X100088Y12761D1*
X100050Y12799D1*
X99973Y12837D1*
X99858D1*
X99782Y12799D1*
X99705Y12722D1*
X99667Y12607D1*
Y12531D1*
X99705Y12416D1*
X99782Y12340D1*
X99858Y12301D1*
X99973D1*
X100050Y12340D1*
X100126Y12416D1*
X100373Y12607D2*
X100832D1*
Y12684D1*
X100794Y12761D1*
X100756Y12799D1*
X100679Y12837D1*
X100564D1*
X100488Y12799D1*
X100411Y12722D1*
X100373Y12607D1*
Y12531D1*
X100411Y12416D1*
X100488Y12340D1*
X100564Y12301D1*
X100679D1*
X100756Y12340D1*
X100832Y12416D1*
X101857Y12837D2*
X102087Y12301D1*
X102316Y12837D1*
X102563Y13105D2*
X102601Y13067D1*
X102640Y13105D1*
X102601Y13144D1*
X102563Y13105D1*
X102601Y12837D2*
Y12301D1*
X103346Y12837D2*
Y12301D1*
Y12722D2*
X103270Y12799D1*
X103193Y12837D1*
X103079D1*
X103002Y12799D1*
X102926Y12722D1*
X102887Y12607D1*
Y12531D1*
X102926Y12416D1*
X103002Y12340D1*
X103079Y12301D1*
X103193D1*
X103270Y12340D1*
X103346Y12416D1*
X103593Y13105D2*
X103631Y13067D1*
X103670Y13105D1*
X103631Y13144D1*
X103593Y13105D1*
X103631Y12837D2*
Y12301D1*
X103917Y12837D2*
Y12301D1*
Y12684D2*
X104032Y12799D1*
X104108Y12837D1*
X104223D1*
X104299Y12799D1*
X104338Y12684D1*
Y12301D1*
X104585Y12837D2*
Y12033D1*
Y12722D2*
X104661Y12798D1*
X104738Y12837D1*
X104852D1*
X104929Y12798D1*
X105005Y12722D1*
X105044Y12607D1*
Y12530D1*
X105005Y12416D1*
X104929Y12339D1*
X104852Y12301D1*
X104738D1*
X104661Y12339D1*
X104585Y12416D1*
X105750Y12837D2*
Y12301D1*
Y12722D2*
X105674Y12799D1*
X105597Y12837D1*
X105483D1*
X105406Y12799D1*
X105330Y12722D1*
X105291Y12607D1*
Y12531D1*
X105330Y12416D1*
X105406Y12340D1*
X105483Y12301D1*
X105597D1*
X105674Y12340D1*
X105750Y12416D1*
X106456Y13105D2*
Y12301D1*
Y12722D2*
X106380Y12799D1*
X106303Y12837D1*
X106188D1*
X106112Y12799D1*
X106035Y12722D1*
X105997Y12607D1*
Y12531D1*
X106035Y12416D1*
X106112Y12340D1*
X106188Y12301D1*
X106303D1*
X106380Y12340D1*
X106456Y12416D1*
X107481Y13105D2*
Y12301D1*
X108187Y12837D2*
Y12301D1*
Y12722D2*
X108111Y12799D1*
X108034Y12837D1*
X107920D1*
X107843Y12799D1*
X107767Y12722D1*
X107728Y12607D1*
Y12531D1*
X107767Y12416D1*
X107843Y12340D1*
X107920Y12301D1*
X108034D1*
X108111Y12340D1*
X108187Y12416D1*
X108473Y12837D2*
X108702Y12301D1*
X108626Y12148D1*
X108549Y12071D1*
X108473Y12033D1*
X108434D1*
X108932Y12837D2*
X108702Y12301D1*
X109179Y12607D2*
X109638D1*
Y12684D1*
X109600Y12761D1*
X109562Y12799D1*
X109485Y12837D1*
X109370D1*
X109294Y12799D1*
X109217Y12722D1*
X109179Y12607D1*
Y12531D1*
X109217Y12416D1*
X109294Y12340D1*
X109370Y12301D1*
X109485D1*
X109562Y12340D1*
X109638Y12416D1*
X109885Y12837D2*
Y12301D1*
Y12607D2*
X109924Y12722D1*
X110000Y12799D1*
X110077Y12837D1*
X110192D1*
X99459Y11409D2*
X99382Y11486D1*
X99305Y11524D1*
X99191D1*
X99114Y11486D1*
X99038Y11409D1*
X98999Y11294D1*
Y11218D1*
X99038Y11103D1*
X99114Y11027D1*
X99191Y10988D1*
X99305D1*
X99382Y11027D1*
X99459Y11103D1*
X99706Y11792D2*
Y10988D1*
Y11371D2*
X99821Y11486D1*
X99898Y11524D1*
X100013D1*
X100089Y11486D1*
X100127Y11371D1*
Y10988D1*
X100374Y11524D2*
Y10988D1*
Y11294D2*
X100413Y11409D1*
X100489Y11486D1*
X100566Y11524D1*
X100681D1*
X100928Y11792D2*
X100966Y11754D1*
X101005Y11792D1*
X100966Y11831D1*
X100928Y11792D1*
X100966Y11524D2*
Y10988D1*
X101673Y11409D2*
X101635Y11486D1*
X101520Y11524D1*
X101405D1*
X101290Y11486D1*
X101252Y11409D1*
X101290Y11333D1*
X101367Y11294D1*
X101558Y11256D1*
X101635Y11218D1*
X101673Y11141D1*
Y11103D1*
X101635Y11027D1*
X101520Y10988D1*
X101405D1*
X101290Y11027D1*
X101252Y11103D1*
X102341Y11600D2*
X102226D1*
X102150Y11562D1*
X102111Y11524D1*
X102073Y11447D1*
Y11294D1*
X102111Y11256D1*
X102188D1*
X102341Y11294D1*
X102379Y11218D1*
X102417D1*
X102494Y11294D1*
X102532Y11485D1*
X102494Y11600D1*
X102456Y11677D1*
X102379Y11753D1*
X102303Y11791D1*
X102150D1*
X102073Y11753D1*
X101997Y11677D1*
X101958Y11600D1*
X101920Y11485D1*
Y11294D1*
X101958Y11179D1*
X101997Y11103D1*
X102073Y11026D1*
X102150Y10988D1*
X102303D1*
X102379Y11026D1*
X102456Y11103D1*
X102341Y11638D2*
Y11294D1*
X103085Y11792D2*
X103009D1*
X102932Y11754D1*
X102894Y11639D1*
Y10988D1*
X102779Y11524D2*
X103047D1*
X103371D2*
X103600Y10988D1*
X103524Y10835D1*
X103447Y10758D1*
X103371Y10720D1*
X103332D1*
X103830Y11524D2*
X103600Y10988D1*
X104077Y11792D2*
Y10988D1*
Y11409D2*
X104154Y11486D1*
X104230Y11524D1*
X104345D1*
X104421Y11486D1*
X104498Y11409D1*
X104536Y11294D1*
Y11218D1*
X104498Y11103D1*
X104421Y11027D1*
X104345Y10988D1*
X104230D1*
X104154Y11027D1*
X104077Y11103D1*
X104783Y11294D2*
X105242D1*
Y11371D1*
X105204Y11448D1*
X105166Y11486D1*
X105089Y11524D1*
X104974D1*
X104898Y11486D1*
X104821Y11409D1*
X104783Y11294D1*
Y11218D1*
X104821Y11103D1*
X104898Y11027D1*
X104974Y10988D1*
X105089D1*
X105166Y11027D1*
X105242Y11103D1*
X105489Y11524D2*
Y10988D1*
Y11294D2*
X105528Y11409D1*
X105604Y11486D1*
X105681Y11524D1*
X105795D1*
X106043Y11792D2*
Y10988D1*
X106748Y11524D2*
Y10988D1*
Y11409D2*
X106672Y11486D1*
X106596Y11524D1*
X106481D1*
X106404Y11486D1*
X106328Y11409D1*
X106290Y11294D1*
Y11218D1*
X106328Y11103D1*
X106404Y11027D1*
X106481Y10988D1*
X106596D1*
X106672Y11027D1*
X106748Y11103D1*
X106996Y11792D2*
Y10988D1*
Y11409D2*
X107072Y11486D1*
X107149Y11524D1*
X107263D1*
X107340Y11486D1*
X107416Y11409D1*
X107454Y11294D1*
Y11218D1*
X107416Y11103D1*
X107340Y11027D1*
X107263Y10988D1*
X107149D1*
X107072Y11027D1*
X106996Y11103D1*
X108122Y11409D2*
X108084Y11486D1*
X107969Y11524D1*
X107854D1*
X107740Y11486D1*
X107702Y11409D1*
X107740Y11333D1*
X107816Y11294D1*
X108007Y11256D1*
X108084Y11218D1*
X108122Y11141D1*
Y11103D1*
X108084Y11027D1*
X107969Y10988D1*
X107854D1*
X107740Y11027D1*
X107702Y11103D1*
X108407Y11065D2*
X108369Y11026D1*
X108407Y10988D1*
X108446Y11026D1*
X108407Y11065D1*
X109153Y11409D2*
X109076Y11486D1*
X108999Y11524D1*
X108885D1*
X108808Y11486D1*
X108732Y11409D1*
X108693Y11294D1*
Y11218D1*
X108732Y11103D1*
X108808Y11027D1*
X108885Y10988D1*
X108999D1*
X109076Y11027D1*
X109153Y11103D1*
X109591Y11524D2*
X109515Y11486D1*
X109438Y11409D1*
X109400Y11294D1*
Y11218D1*
X109438Y11103D1*
X109515Y11027D1*
X109591Y10988D1*
X109706D1*
X109783Y11027D1*
X109859Y11103D1*
X109898Y11218D1*
Y11294D1*
X109859Y11409D1*
X109783Y11486D1*
X109706Y11524D1*
X109591D1*
X110145D2*
Y10988D1*
Y11371D2*
X110260Y11486D1*
X110337Y11524D1*
X110451D1*
X110528Y11486D1*
X110566Y11371D1*
Y10988D1*
Y11371D2*
X110681Y11486D1*
X110758Y11524D1*
X110872D1*
X110949Y11486D1*
X110988Y11371D1*
Y10988D1*
X98999Y10063D2*
X99076Y10102D1*
X99191Y10216D1*
Y9413D1*
X99438Y9815D2*
X99880D1*
X100625Y9949D2*
X100586Y9834D1*
X100510Y9757D1*
X100395Y9719D1*
X100357D1*
X100242Y9757D1*
X100166Y9834D1*
X100127Y9949D1*
Y9987D1*
X100166Y10102D1*
X100242Y10178D1*
X100357Y10216D1*
X100395D1*
X100510Y10178D1*
X100586Y10102D1*
X100625Y9949D1*
Y9757D1*
X100586Y9566D1*
X100510Y9451D1*
X100395Y9413D1*
X100319D1*
X100204Y9451D1*
X100166Y9528D1*
X100872Y10063D2*
X100949Y10102D1*
X101064Y10216D1*
Y9413D1*
X101809Y9949D2*
X101770Y9834D1*
X101694Y9757D1*
X101579Y9719D1*
X101541D1*
X101426Y9757D1*
X101350Y9834D1*
X101311Y9949D1*
Y9987D1*
X101350Y10102D1*
X101426Y10178D1*
X101541Y10216D1*
X101579D1*
X101694Y10178D1*
X101770Y10102D1*
X101809Y9949D1*
Y9757D1*
X101770Y9566D1*
X101694Y9451D1*
X101579Y9413D1*
X101503D1*
X101388Y9451D1*
X101350Y9528D1*
X102056Y9815D2*
X102498D1*
X103204Y10216D2*
X102822D1*
X102784Y9872D1*
X102822Y9910D1*
X102937Y9949D1*
X103051D1*
X103166Y9910D1*
X103243Y9834D1*
X103281Y9719D1*
Y9643D1*
X103243Y9528D1*
X103166Y9451D1*
X103051Y9413D1*
X102937D1*
X102822Y9451D1*
X102784Y9490D1*
X102745Y9566D1*
X103605Y10216D2*
X104025D1*
X103796Y9910D1*
X103911D1*
X103987Y9872D1*
X104025Y9834D1*
X104064Y9719D1*
Y9643D1*
X104025Y9528D1*
X103949Y9451D1*
X103834Y9413D1*
X103719D1*
X103605Y9451D1*
X103567Y9490D1*
X103528Y9566D1*
X104388Y10216D2*
X104808D1*
X104579Y9910D1*
X104694D1*
X104770Y9872D1*
X104808Y9834D1*
X104847Y9719D1*
Y9643D1*
X104808Y9528D1*
X104732Y9451D1*
X104617Y9413D1*
X104502D1*
X104388Y9451D1*
X104350Y9490D1*
X104311Y9566D1*
X105094Y9815D2*
X105536D1*
X106242Y10216D2*
X105860D1*
X105822Y9872D1*
X105860Y9910D1*
X105975Y9949D1*
X106089D1*
X106204Y9910D1*
X106281Y9834D1*
X106319Y9719D1*
Y9643D1*
X106281Y9528D1*
X106204Y9451D1*
X106089Y9413D1*
X105975D1*
X105860Y9451D1*
X105822Y9490D1*
X105783Y9566D1*
X106643Y10216D2*
X107063D1*
X106834Y9910D1*
X106949D1*
X107025Y9872D1*
X107063Y9834D1*
X107102Y9719D1*
Y9643D1*
X107063Y9528D1*
X106987Y9451D1*
X106872Y9413D1*
X106757D1*
X106643Y9451D1*
X106605Y9490D1*
X106566Y9566D1*
X107426Y10216D2*
X107846D1*
X107617Y9910D1*
X107732D1*
X107808Y9872D1*
X107846Y9834D1*
X107885Y9719D1*
Y9643D1*
X107846Y9528D1*
X107770Y9451D1*
X107655Y9413D1*
X107540D1*
X107426Y9451D1*
X107388Y9490D1*
X107349Y9566D1*
X108591Y10216D2*
X108209D1*
X108171Y9872D1*
X108209Y9910D1*
X108324Y9949D1*
X108438D1*
X108553Y9910D1*
X108630Y9834D1*
X108668Y9719D1*
Y9643D1*
X108630Y9528D1*
X108553Y9451D1*
X108438Y9413D1*
X108324D1*
X108209Y9451D1*
X108171Y9490D1*
X108132Y9566D1*
X98999Y8027D2*
X99076Y8066D1*
X99191Y8180D1*
Y7377D1*
X99515Y8180D2*
X99935D1*
X99706Y7874D1*
X99821D1*
X99897Y7836D1*
X99935Y7798D1*
X99974Y7683D1*
Y7607D1*
X99935Y7492D1*
X99859Y7415D1*
X99744Y7377D1*
X99629D1*
X99515Y7415D1*
X99477Y7454D1*
X99438Y7530D1*
X100298Y8180D2*
X100718D1*
X100489Y7874D1*
X100604D1*
X100680Y7836D1*
X100718Y7798D1*
X100757Y7683D1*
Y7607D1*
X100718Y7492D1*
X100642Y7415D1*
X100527Y7377D1*
X100412D1*
X100298Y7415D1*
X100260Y7454D1*
X100221Y7530D1*
X101463Y8180D2*
X101081D1*
X101043Y7836D1*
X101081Y7874D1*
X101196Y7913D1*
X101310D1*
X101425Y7874D1*
X101502Y7798D1*
X101540Y7683D1*
Y7607D1*
X101502Y7492D1*
X101425Y7415D1*
X101310Y7377D1*
X101196D1*
X101081Y7415D1*
X101043Y7454D1*
X101004Y7530D1*
X102017Y8180D2*
X101902Y8142D1*
X101825Y8027D1*
X101787Y7836D1*
Y7721D1*
X101825Y7530D1*
X101902Y7415D1*
X102017Y7377D1*
X102093D1*
X102208Y7415D1*
X102284Y7530D1*
X102323Y7721D1*
Y7836D1*
X102284Y8027D1*
X102208Y8142D1*
X102093Y8180D1*
X102017D1*
X102284Y8027D2*
X101825Y7530D1*
X103883Y8181D2*
Y7377D1*
X103347Y8181D1*
Y7377D1*
X104627Y8181D2*
X104130D1*
Y7377D1*
X104627D1*
X104130Y7798D2*
X104436D1*
X105652Y8027D2*
X105729Y8066D1*
X105844Y8180D1*
Y7377D1*
X106168Y8180D2*
X106588D1*
X106359Y7874D1*
X106474D1*
X106550Y7836D1*
X106588Y7798D1*
X106627Y7683D1*
Y7607D1*
X106588Y7492D1*
X106512Y7415D1*
X106397Y7377D1*
X106282D1*
X106168Y7415D1*
X106130Y7454D1*
X106091Y7530D1*
X107257Y7377D2*
Y8180D1*
X106874Y7645D1*
X107448D1*
X107810Y8181D2*
Y7530D1*
X107848Y7416D1*
X107925Y7377D1*
X108001D1*
X107695Y7913D2*
X107963D1*
X108248Y8181D2*
Y7377D1*
Y7760D2*
X108363Y7875D1*
X108440Y7913D1*
X108555D1*
X108631Y7875D1*
X108669Y7760D1*
Y7377D1*
X109693Y7760D2*
X110038D1*
X110152Y7798D1*
X110191Y7837D1*
X110229Y7913D1*
Y8028D1*
X110191Y8104D1*
X110152Y8143D1*
X110038Y8181D1*
X109693D1*
Y7377D1*
X110476Y8181D2*
Y7377D1*
X98999Y6738D2*
Y5935D1*
X99535Y6738D2*
X98999Y6202D1*
X99190Y6394D2*
X99535Y5935D1*
X99782Y6738D2*
X99820Y6700D1*
X99859Y6738D1*
X99820Y6777D1*
X99782Y6738D1*
X99820Y6470D2*
Y5935D1*
X100106Y6470D2*
Y5935D1*
Y6241D2*
X100145Y6355D1*
X100221Y6432D1*
X100298Y6470D1*
X100413D1*
X100660Y6738D2*
Y5935D1*
X101043Y6470D2*
X100660Y6088D1*
X100813Y6241D2*
X101081Y5935D1*
X101328Y6738D2*
Y5935D1*
X102034Y6470D2*
Y5935D1*
Y6355D2*
X101958Y6432D1*
X101881Y6470D1*
X101767D1*
X101690Y6432D1*
X101614Y6355D1*
X101575Y6241D1*
Y6164D1*
X101614Y6049D1*
X101690Y5973D1*
X101767Y5935D1*
X101881D1*
X101958Y5973D1*
X102034Y6049D1*
X102281Y6470D2*
Y5935D1*
Y6317D2*
X102396Y6432D1*
X102473Y6470D1*
X102587D1*
X102664Y6432D1*
X102702Y6317D1*
Y5935D1*
X103408Y6738D2*
Y5935D1*
Y6355D2*
X103332Y6432D1*
X103255Y6470D1*
X103140D1*
X103064Y6432D1*
X102987Y6355D1*
X102949Y6241D1*
Y6164D1*
X102987Y6049D1*
X103064Y5973D1*
X103140Y5935D1*
X103255D1*
X103332Y5973D1*
X103408Y6049D1*
X103732Y5973D2*
X103693Y5935D1*
X103655Y5973D1*
X103693Y6011D1*
X103732Y5973D1*
Y5897D1*
X103693Y5820D1*
X103655Y5782D1*
X104756Y6738D2*
X104948Y5935D1*
X105139Y6738D1*
X105330Y5935D1*
X105522Y6738D1*
X106382Y5935D2*
X106075Y6738D1*
X105769Y5935D1*
X105884Y6202D2*
X106267D1*
X107905Y6470D2*
X107866Y6355D1*
X107790Y6279D1*
X107675Y6241D1*
X107637D1*
X107522Y6279D1*
X107446Y6355D1*
X107407Y6470D1*
Y6508D1*
X107446Y6623D1*
X107522Y6699D1*
X107637Y6737D1*
X107675D1*
X107790Y6699D1*
X107866Y6623D1*
X107905Y6470D1*
Y6279D1*
X107866Y6088D1*
X107790Y5973D1*
X107675Y5935D1*
X107599D1*
X107484Y5973D1*
X107446Y6049D1*
X108343Y6737D2*
X108229Y6699D1*
X108190Y6623D1*
Y6546D1*
X108229Y6470D1*
X108305Y6432D1*
X108458Y6393D1*
X108573Y6355D1*
X108649Y6279D1*
X108687Y6202D1*
Y6088D1*
X108649Y6011D1*
X108611Y5973D1*
X108496Y5935D1*
X108343D1*
X108229Y5973D1*
X108190Y6011D1*
X108152Y6088D1*
Y6202D1*
X108190Y6279D1*
X108267Y6355D1*
X108381Y6393D1*
X108534Y6432D1*
X108611Y6470D1*
X108649Y6546D1*
Y6623D1*
X108611Y6699D1*
X108496Y6737D1*
X108343D1*
X109164D2*
X109049Y6699D1*
X108972Y6585D1*
X108934Y6393D1*
Y6279D1*
X108972Y6088D1*
X109049Y5973D1*
X109164Y5935D1*
X109240D1*
X109355Y5973D1*
X109431Y6088D1*
X109470Y6279D1*
Y6393D1*
X109431Y6585D1*
X109355Y6699D1*
X109240Y6737D1*
X109164D1*
X109431Y6585D2*
X108972Y6088D1*
X109794Y6737D2*
X110214D1*
X109985Y6432D1*
X110099D1*
X110176Y6393D1*
X110214Y6355D1*
X110252Y6241D1*
Y6164D1*
X110214Y6049D1*
X110138Y5973D1*
X110023Y5935D1*
X109908D1*
X109794Y5973D1*
X109755Y6011D1*
X109717Y6088D1*
X110882Y5935D2*
Y6737D1*
X110500Y6202D1*
X111073D1*
X84018Y54361D2*
D46*
X83395D1*
Y53356D1*
Y53882D2*
X83778D1*
X84900Y54026D2*
Y53356D1*
Y53882D2*
X84805Y53978D1*
X84709Y54026D1*
X84566D1*
X84470Y53978D1*
X84375Y53882D1*
X84327Y53738D1*
Y53643D1*
X84375Y53500D1*
X84470Y53404D1*
X84566Y53356D1*
X84709D1*
X84805Y53404D1*
X84900Y53500D1*
X85209Y54361D2*
Y53356D1*
Y53882D2*
X85305Y53978D1*
X85400Y54026D1*
X85544D1*
X85639Y53978D1*
X85735Y53882D1*
X85783Y53738D1*
Y53643D1*
X85735Y53500D1*
X85639Y53404D1*
X85544Y53356D1*
X85400D1*
X85305Y53404D1*
X85209Y53500D1*
X86091Y54026D2*
Y53356D1*
Y53738D2*
X86140Y53882D1*
X86235Y53978D1*
X86331Y54026D1*
X86475D1*
X86784Y54361D2*
X86831Y54313D1*
X86880Y54361D1*
X86831Y54409D1*
X86784Y54361D1*
X86831Y54026D2*
Y53356D1*
X87764Y53882D2*
X87667Y53978D1*
X87571Y54026D1*
X87429D1*
X87333Y53978D1*
X87237Y53882D1*
X87189Y53738D1*
Y53643D1*
X87237Y53500D1*
X87333Y53404D1*
X87429Y53356D1*
X87571D1*
X87667Y53404D1*
X87764Y53500D1*
X88646Y54026D2*
Y53356D1*
Y53882D2*
X88551Y53978D1*
X88455Y54026D1*
X88312D1*
X88216Y53978D1*
X88121Y53882D1*
X88072Y53738D1*
Y53643D1*
X88121Y53500D1*
X88216Y53404D1*
X88312Y53356D1*
X88455D1*
X88551Y53404D1*
X88646Y53500D1*
X89099Y54361D2*
Y53547D1*
X89146Y53404D1*
X89242Y53356D1*
X89337D1*
X88955Y54026D2*
X89290D1*
X89646Y54361D2*
X89694Y54313D1*
X89742Y54361D1*
X89694Y54409D1*
X89646Y54361D1*
X89694Y54026D2*
Y53356D1*
X90290Y54026D2*
X90195Y53978D1*
X90099Y53882D1*
X90051Y53738D1*
Y53643D1*
X90099Y53500D1*
X90195Y53404D1*
X90290Y53356D1*
X90434D1*
X90530Y53404D1*
X90625Y53500D1*
X90673Y53643D1*
Y53738D1*
X90625Y53882D1*
X90530Y53978D1*
X90434Y54026D1*
X90290D1*
X90982D2*
Y53356D1*
Y53834D2*
X91126Y53978D1*
X91222Y54026D1*
X91365D1*
X91461Y53978D1*
X91508Y53834D1*
Y53356D1*
X92789Y54361D2*
Y53356D1*
X93098Y54026D2*
Y53356D1*
Y53834D2*
X93242Y53978D1*
X93338Y54026D1*
X93480D1*
X93577Y53978D1*
X93624Y53834D1*
Y53356D1*
X94459Y53882D2*
X94412Y53978D1*
X94268Y54026D1*
X94124D1*
X93980Y53978D1*
X93933Y53882D1*
X93980Y53787D1*
X94077Y53738D1*
X94315Y53691D1*
X94412Y53643D1*
X94459Y53547D1*
Y53500D1*
X94412Y53404D1*
X94268Y53356D1*
X94124D1*
X93980Y53404D1*
X93933Y53500D1*
X94912Y54361D2*
Y53547D1*
X94959Y53404D1*
X95055Y53356D1*
X95150D1*
X94768Y54026D2*
X95103D1*
X95459D2*
Y53356D1*
Y53738D2*
X95508Y53882D1*
X95603Y53978D1*
X95699Y54026D1*
X95843D1*
X96151D2*
Y53547D1*
X96199Y53404D1*
X96295Y53356D1*
X96439D1*
X96534Y53404D1*
X96678Y53547D1*
Y54026D2*
Y53356D1*
X97561Y53882D2*
X97465Y53978D1*
X97369Y54026D1*
X97226D1*
X97130Y53978D1*
X97035Y53882D1*
X96986Y53738D1*
Y53643D1*
X97035Y53500D1*
X97130Y53404D1*
X97226Y53356D1*
X97369D1*
X97465Y53404D1*
X97561Y53500D1*
X98014Y54361D2*
Y53547D1*
X98061Y53404D1*
X98157Y53356D1*
X98252D1*
X97870Y54026D2*
X98205D1*
X98561Y54361D2*
X98609Y54313D1*
X98657Y54361D1*
X98609Y54409D1*
X98561Y54361D1*
X98609Y54026D2*
Y53356D1*
X99205Y54026D2*
X99110Y53978D1*
X99014Y53882D1*
X98966Y53738D1*
Y53643D1*
X99014Y53500D1*
X99110Y53404D1*
X99205Y53356D1*
X99349D1*
X99445Y53404D1*
X99540Y53500D1*
X99589Y53643D1*
Y53738D1*
X99540Y53882D1*
X99445Y53978D1*
X99349Y54026D1*
X99205D1*
X99897D2*
Y53356D1*
Y53834D2*
X100041Y53978D1*
X100137Y54026D1*
X100280D1*
X100376Y53978D1*
X100423Y53834D1*
Y53356D1*
X101258Y53882D2*
X101211Y53978D1*
X101067Y54026D1*
X100924D1*
X100780Y53978D1*
X100732Y53882D1*
X100780Y53787D1*
X100876Y53738D1*
X101115Y53691D1*
X101211Y53643D1*
X101258Y53547D1*
Y53500D1*
X101211Y53404D1*
X101067Y53356D1*
X100924D1*
X100780Y53404D1*
X100732Y53500D1*
M02*
