G04 DipTrace 3.0.0.2*
G04 DRV2605L(1).gbo*
%MOIN*%
G04 #@! TF.FileFunction,Legend,Bot*
G04 #@! TF.Part,Single*
%ADD10C,0.009843*%
%ADD30O,0.028478X0.033987*%
%ADD55C,0.003281*%
%ADD56C,0.004374*%
%FSLAX26Y26*%
G04*
G70*
G90*
G75*
G01*
G04 BotSilk*
%LPD*%
G36*
X312343Y66211D2*
X288059Y91143D1*
X307090Y104795D1*
X312077Y98623D1*
X312343Y66211D1*
G37*
D30*
X301250Y93573D3*
X312468Y70803D2*
D10*
G02X292128Y90618I2670J23088D01*
G01*
X312995Y71720D2*
G03X310632Y96131I-38192J8623D01*
G01*
X227314Y147218D2*
D56*
X229216Y151065D1*
X232090Y152966D1*
X235914D1*
X238788Y151065D1*
X240712Y147218D1*
Y143416D1*
X239739Y139569D1*
X238788Y137668D1*
X236887Y135766D1*
X231139Y131920D1*
X229216Y130018D1*
X228265Y128073D1*
X227314Y124270D1*
Y118522D1*
X229216Y114720D1*
X232090Y112774D1*
X235914D1*
X238788Y114720D1*
X240712Y118522D1*
X222940Y152966D2*
Y112774D1*
X216241D1*
X213367Y114720D1*
X211444Y118522D1*
X210493Y122369D1*
X209542Y128073D1*
Y137668D1*
X210493Y143416D1*
X211444Y147218D1*
X213367Y151065D1*
X216241Y152966D1*
X222940D1*
X189847Y112774D2*
X197519Y152966D1*
X205168Y112774D1*
X202294Y126172D2*
X192721D1*
X167696Y147310D2*
X169598Y151157D1*
X172472Y153058D1*
X176296D1*
X179170Y151157D1*
X181094Y147310D1*
Y143508D1*
X180121Y139661D1*
X179170Y137759D1*
X177269Y135858D1*
X171521Y132011D1*
X169598Y130110D1*
X168647Y128165D1*
X167696Y124362D1*
Y118614D1*
X169598Y114812D1*
X172472Y112866D1*
X176296D1*
X179170Y114812D1*
X181094Y118614D1*
X148974Y143508D2*
X149925Y147310D1*
X151848Y151157D1*
X153749Y153058D1*
X157574D1*
X159497Y151157D1*
X161399Y147310D1*
X162371Y143508D1*
X163322Y137759D1*
Y128165D1*
X162371Y122461D1*
X161399Y118614D1*
X159497Y114812D1*
X157574Y112866D1*
X153749D1*
X151848Y114812D1*
X149925Y118614D1*
X148974Y122461D1*
X144600Y153058D2*
Y112866D1*
X133126D1*
X153528Y212097D2*
X113336Y219746D1*
X153528Y227395D1*
Y231770D2*
X113336D1*
Y238468D1*
X115281Y241342D1*
X119084Y243266D1*
X122931Y244216D1*
X128634Y245167D1*
X138229D1*
X143977Y244216D1*
X147780Y243266D1*
X151627Y241342D1*
X153528Y238468D1*
Y231770D1*
Y249541D2*
X113336D1*
Y256240D1*
X115281Y259114D1*
X119084Y261037D1*
X122931Y261988D1*
X128634Y262939D1*
X138229D1*
X143977Y261988D1*
X147780Y261037D1*
X151627Y259114D1*
X153528Y256240D1*
Y249541D1*
X142553Y172601D2*
X146356Y171650D1*
X150203Y169727D1*
X152104Y167826D1*
Y164001D1*
X150203Y162078D1*
X146356Y160177D1*
X142553Y159204D1*
X136805Y158253D1*
X127211D1*
X121507Y159204D1*
X117660Y160177D1*
X113857Y162078D1*
X111912Y164001D1*
Y167826D1*
X113857Y169727D1*
X117660Y171651D1*
X121507Y172601D1*
X127211D1*
Y167826D1*
X152104Y190373D2*
X111912D1*
X152104Y176976D1*
X111912D1*
X152104Y194747D2*
X111912D1*
Y201446D1*
X113857Y204320D1*
X117660Y206243D1*
X121507Y207194D1*
X127211Y208145D1*
X136805D1*
X142553Y207194D1*
X146356Y206243D1*
X150203Y204320D1*
X152104Y201446D1*
Y194747D1*
X84579Y299313D2*
X82656Y301215D1*
X80754Y305061D1*
X79782Y308864D1*
X78831Y314612D1*
Y324207D1*
X79782Y329911D1*
X80755Y333757D1*
X82656Y337560D1*
X84579Y339505D1*
X88404D1*
X90305Y337560D1*
X92228Y333757D1*
X93179Y329911D1*
X94130Y324207D1*
Y314612D1*
X93179Y308864D1*
X92228Y305061D1*
X90305Y301215D1*
X88404Y299313D1*
X84579D1*
X98504Y319431D2*
X109558D1*
X297420Y306096D2*
X295497Y307997D1*
X293596Y311844D1*
X292623Y315646D1*
X291672Y321394D1*
Y330989D1*
X292623Y336693D1*
X293596Y340539D1*
X295497Y344342D1*
X297420Y346288D1*
X301245D1*
X303146Y344342D1*
X305070Y340540D1*
X306020Y336693D1*
X306971Y330989D1*
Y321394D1*
X306020Y315646D1*
X305070Y311844D1*
X303146Y307997D1*
X301245Y306096D1*
X297420D1*
X319945Y308992D2*
Y343436D1*
X311345Y326236D2*
X328567D1*
X267157Y176497D2*
Y167875D1*
X265255Y165023D1*
X263310Y164050D1*
X259507Y163099D1*
X253759D1*
X249957Y164050D1*
X248011Y165023D1*
X246110Y167875D1*
Y176497D1*
X286302D1*
X246110Y158725D2*
X286302Y153927D1*
X246110Y149152D1*
X286302Y144377D1*
X246110Y139580D1*
X286302Y119907D2*
X246110D1*
X286302Y127556D1*
X246110Y135205D1*
X286302D1*
X285089Y271016D2*
X244897Y278688D1*
X285089Y286337D1*
X271692Y283463D2*
Y273890D1*
X244897Y253245D2*
X285089D1*
X244897Y266642D1*
X285089D1*
Y233550D2*
X244897Y241221D1*
X285089Y248870D1*
X271692Y245996D2*
Y236424D1*
X233673Y288054D2*
D55*
Y257910D1*
X225067D1*
X221787Y273695D2*
X215337D1*
X213181Y275154D1*
X212452Y276580D1*
X211739Y279432D1*
Y282317D1*
X212452Y285169D1*
X213181Y286628D1*
X215337Y288054D1*
X221787D1*
Y257910D1*
X216763Y273695D2*
X211739Y257910D1*
X196967D2*
X202721Y288054D1*
X208458Y257910D1*
X206302Y267958D2*
X199123D1*
X110120Y99060D2*
Y100486D1*
X109407Y103371D1*
X108694Y104797D1*
X107252Y106223D1*
X104383D1*
X102957Y104797D1*
X102244Y103371D1*
X101515Y100486D1*
Y97634D1*
X102244Y94749D1*
X103670Y90471D1*
X110850Y76112D1*
X100802D1*
X93210Y106223D2*
X95365Y104797D1*
X96808Y100486D1*
X97521Y93323D1*
Y89012D1*
X96808Y81849D1*
X95365Y77538D1*
X93210Y76112D1*
X91784D1*
X89628Y77538D1*
X88202Y81849D1*
X87473Y89012D1*
Y93323D1*
X88202Y100486D1*
X89628Y104797D1*
X91784Y106223D1*
X93210D1*
X88202Y100486D2*
X96808Y81849D1*
X84192Y100486D2*
X82749Y101945D1*
X80594Y106223D1*
Y76112D1*
X68708Y106223D2*
X75871D1*
X76584Y93323D1*
X75871Y94749D1*
X73715Y96208D1*
X71576D1*
X69421Y94749D1*
X67978Y91897D1*
X67265Y87586D1*
Y84734D1*
X67978Y80423D1*
X69421Y77538D1*
X71576Y76112D1*
X73715D1*
X75871Y77538D1*
X76584Y78997D1*
X77313Y81849D1*
X286669Y215634D2*
X296004D1*
Y185490D1*
Y201275D2*
X290267D1*
X283388Y215634D2*
Y185490D1*
X280107Y196964D2*
X271501D1*
Y199849D1*
X272214Y202734D1*
X272927Y204160D1*
X274370Y205586D1*
X276525D1*
X277951Y204160D1*
X279394Y201275D1*
X280107Y196964D1*
Y194112D1*
X279394Y189801D1*
X277951Y186949D1*
X276525Y185490D1*
X274370D1*
X272927Y186949D1*
X271501Y189801D1*
X268221Y205586D2*
X260328Y185490D1*
Y205586D2*
X268221Y185490D1*
X182941Y274031D2*
X176491D1*
X174336Y275490D1*
X173606Y276916D1*
X172893Y279768D1*
Y282653D1*
X173606Y285505D1*
X174336Y286964D1*
X176491Y288390D1*
X182941D1*
Y258246D1*
X177917Y274031D2*
X172893Y258246D1*
X168883Y281194D2*
Y282620D1*
X168170Y285505D1*
X167457Y286931D1*
X166014Y288357D1*
X163146D1*
X161720Y286931D1*
X161007Y285505D1*
X160277Y282620D1*
Y279768D1*
X161007Y276883D1*
X162433Y272605D1*
X169612Y258246D1*
X159564D1*
X242881Y184886D2*
Y215030D1*
X248618Y184886D1*
X254355Y215030D1*
Y184886D1*
X236018Y204982D2*
X237444Y203556D1*
X238887Y200671D1*
X239600Y196360D1*
Y193508D1*
X238887Y189197D1*
X237444Y186346D1*
X236018Y184886D1*
X233863D1*
X232420Y186346D1*
X230994Y189197D1*
X230265Y193508D1*
Y196360D1*
X230994Y200671D1*
X232420Y203556D1*
X233863Y204982D1*
X236018D1*
X218379Y215030D2*
Y184886D1*
Y200671D2*
X219804Y203556D1*
X221247Y204982D1*
X223403D1*
X224828Y203556D1*
X226271Y200671D1*
X226984Y196360D1*
Y193508D1*
X226271Y189197D1*
X224828Y186346D1*
X223403Y184886D1*
X221247D1*
X219804Y186346D1*
X218379Y189197D1*
X215098Y204982D2*
Y190623D1*
X214385Y186346D1*
X212942Y184886D1*
X210787D1*
X209361Y186346D1*
X207205Y190623D1*
Y204982D2*
Y184886D1*
X203924Y215030D2*
Y184886D1*
X200644Y196360D2*
X192038D1*
Y199245D1*
X192751Y202131D1*
X193464Y203556D1*
X194907Y204982D1*
X197062D1*
X198488Y203556D1*
X199931Y200671D1*
X200644Y196360D1*
Y193508D1*
X199931Y189197D1*
X198488Y186346D1*
X197062Y184886D1*
X194907D1*
X193464Y186346D1*
X192038Y189197D1*
X225391Y252406D2*
Y222262D1*
X215343Y252406D2*
Y222262D1*
X225391Y238047D2*
X215343D1*
X203456Y242358D2*
Y222262D1*
Y238047D2*
X204882Y240932D1*
X206325Y242358D1*
X208464D1*
X209906Y240932D1*
X211332Y238047D1*
X212062Y233736D1*
Y230884D1*
X211332Y226573D1*
X209906Y223721D1*
X208464Y222262D1*
X206325D1*
X204882Y223721D1*
X203456Y226573D1*
X200176Y242358D2*
Y212214D1*
Y238047D2*
X198733Y240899D1*
X197307Y242358D1*
X195152D1*
X193709Y240899D1*
X192283Y238047D1*
X191554Y233736D1*
Y230851D1*
X192283Y226573D1*
X193709Y223688D1*
X195152Y222262D1*
X197307D1*
X198733Y223688D1*
X200176Y226573D1*
X186117Y252406D2*
Y227999D1*
X185404Y223721D1*
X183962Y222262D1*
X182536D1*
X188273Y242358D2*
X183249D1*
X179255Y252406D2*
X178542Y250980D1*
X177812Y252406D1*
X178542Y253865D1*
X179255Y252406D1*
X178542Y242358D2*
Y222262D1*
X165909Y238047D2*
X167352Y240932D1*
X168795Y242358D1*
X170933D1*
X172376Y240932D1*
X173802Y238047D1*
X174531Y233736D1*
Y230884D1*
X173802Y226573D1*
X172376Y223721D1*
X170933Y222262D1*
X168795D1*
X167352Y223721D1*
X165909Y226573D1*
X185961Y207347D2*
Y208773D1*
X185248Y211658D1*
X184535Y213084D1*
X183093Y214510D1*
X180224D1*
X178798Y213084D1*
X178085Y211658D1*
X177356Y208773D1*
Y205922D1*
X178085Y203036D1*
X179511Y198759D1*
X186691Y184400D1*
X176643D1*
X172649Y187285D2*
X173362Y185826D1*
X172649Y184400D1*
X171919Y185826D1*
X172649Y187285D1*
X164328Y214510D2*
X166483Y213084D1*
X167926Y208773D1*
X168639Y201610D1*
Y197299D1*
X167926Y190137D1*
X166483Y185826D1*
X164328Y184400D1*
X162902D1*
X160746Y185826D1*
X159320Y190137D1*
X158591Y197299D1*
Y201610D1*
X159320Y208773D1*
X160746Y213084D1*
X162902Y214510D1*
X164328D1*
X159320Y208773D2*
X167926Y190137D1*
M02*
