G04 DipTrace 3.0.0.2*
G04 DRV2605L(1).gtl*
%MOIN*%
G04 #@! TF.FileFunction,Copper,L1,Top*
G04 #@! TF.Part,Single*
%AMOUTLINE9*
4,1,11,
0.023622,-0.001144,
0.023622,-0.018467,
-0.023622,-0.018467,
-0.023622,-0.001144,
-0.02126,0.005155,
-0.015748,0.013029,
-0.007874,0.016967,
0.0,0.018467,
0.007874,0.016966,
0.015748,0.013029,
0.02126,0.005155,
0.023622,-0.001144,
0*%
%AMOUTLINE12*
4,1,11,
-0.023622,0.001144,
-0.023622,0.018467,
0.023622,0.018467,
0.023622,0.001144,
0.02126,-0.005155,
0.015748,-0.013029,
0.007874,-0.016967,
0.0,-0.018467,
-0.007874,-0.016966,
-0.015748,-0.013029,
-0.02126,-0.005155,
-0.023622,0.001144,
0*%
G04 #@! TA.AperFunction,Conductor*
%ADD13C,0.008*%
%ADD14C,0.01*%
G04 #@! TA.AperFunction,CopperBalancing*
%ADD15C,0.006*%
%ADD16R,0.035433X0.027559*%
%ADD18R,0.017717X0.011811*%
G04 #@! TA.AperFunction,ComponentPad*
%ADD19R,0.062992X0.066929*%
%ADD20R,0.08X0.066929*%
%ADD21R,0.066929X0.062992*%
%ADD22R,0.066929X0.08*%
%ADD24R,0.047244X0.029*%
%ADD26R,0.015748X0.019685*%
%ADD28R,0.011811X0.05315*%
G04 #@! TA.AperFunction,ViaPad*
%ADD31C,0.027*%
%ADD66OUTLINE9*%
%ADD69OUTLINE12*%
%FSLAX26Y26*%
G04*
G70*
G90*
G75*
G01*
G04 Top*
%LPD*%
X400000Y250000D2*
D13*
X350000D1*
X158236Y188213D2*
Y175446D1*
X164113Y169570D1*
X0Y150000D2*
X50000D1*
X158236Y213409D2*
X177400Y232573D1*
Y253867D1*
X183059D1*
X259000Y284646D2*
Y257920D1*
X264488Y252432D1*
Y223234D1*
X266891D1*
X183059Y253867D2*
X184415D1*
Y267738D1*
X178282Y273870D1*
X186780Y137685D2*
D14*
Y147370D1*
X193049Y153639D1*
X116600Y223803D2*
X132336D1*
X149423Y240890D1*
X152396D1*
X116600Y137803D2*
X159102D1*
X159220Y137685D1*
X250000Y400000D2*
D15*
Y350000D1*
X278685Y284646D2*
Y321315D1*
X250000Y350000D1*
X150000Y400000D2*
D13*
Y350000D1*
X239315Y284646D2*
Y243075D1*
X240358D1*
X400000Y150000D2*
X350000D1*
X339801Y160199D1*
X187764Y188213D2*
X202773D1*
X204000Y186986D1*
X278685Y115354D2*
X278467Y156273D1*
X150000Y0D2*
Y50000D1*
X159220Y98315D2*
Y59220D1*
X150000Y50000D1*
X239315Y115354D2*
Y155722D1*
X240482Y156888D1*
X250000Y0D2*
D15*
Y50000D1*
X186780Y98315D2*
D13*
X188655D1*
X205882Y81088D1*
Y79550D1*
X234744Y50688D1*
X249312D1*
X250000Y50000D1*
X259000Y115354D2*
D15*
Y59000D1*
X250000Y50000D1*
X0Y250000D2*
X50000D1*
X116600Y180803D2*
D14*
X102785D1*
X89843Y193745D1*
X86676D1*
X50000Y230421D1*
Y250000D1*
X219630Y284646D2*
D15*
X217126D1*
Y233566D1*
X253465Y197227D1*
X280791D1*
X298370Y214806D1*
X300509Y216945D1*
Y282507D1*
X298370Y284646D1*
Y115354D2*
X301550D1*
X309425Y123230D1*
Y214806D1*
X298370D1*
X219630Y115354D2*
D13*
X216731D1*
Y166420D1*
X228980Y178669D1*
Y195293D1*
X211878Y212395D1*
X188778D1*
X187764Y213409D1*
D31*
X240358Y243075D3*
X240482Y156888D3*
X204000Y186986D3*
X164113Y169570D3*
X193049Y153639D3*
X183059Y253867D3*
X152396Y240890D3*
X266891Y223234D3*
X278467Y156273D3*
X193319Y365147D2*
D15*
X206744D1*
X193319Y359278D2*
X206744D1*
X193319Y353409D2*
X206744D1*
X193319Y347541D2*
X206744D1*
X99756Y341672D2*
X106713D1*
X193319D2*
X206744D1*
X293256D2*
X300213D1*
X93850Y335803D2*
X106713D1*
X193319D2*
X206744D1*
X293256D2*
X306118D1*
X88037Y329934D2*
X106713D1*
X193319D2*
X206744D1*
X293256D2*
X311932D1*
X82131Y324066D2*
X106713D1*
X193319D2*
X206744D1*
X293256D2*
X317837D1*
X76224Y318197D2*
X106713D1*
X193319D2*
X206744D1*
X294381D2*
X323744D1*
X70412Y312328D2*
X106713D1*
X193319D2*
X206744D1*
X294381D2*
X329556D1*
X64507Y306459D2*
X223618D1*
X294381D2*
X335462D1*
X58694Y300591D2*
X223618D1*
X294381D2*
X341274D1*
X52787Y294722D2*
X99588D1*
X205787D2*
X223618D1*
X294381D2*
X347181D1*
X46881Y288853D2*
X99588D1*
X205787D2*
X223618D1*
X294381D2*
X308650D1*
X41068Y282984D2*
X99588D1*
X205787D2*
X223618D1*
X294381D2*
X308650D1*
X35163Y277115D2*
X99588D1*
X205787D2*
X223618D1*
X294381D2*
X308650D1*
X29584Y271247D2*
X99588D1*
X205787D2*
X223618D1*
X294381D2*
X308650D1*
X29584Y265378D2*
X99588D1*
X205787D2*
X223618D1*
X294381D2*
X308650D1*
X29584Y259509D2*
X99588D1*
X205787D2*
X223618D1*
X294381D2*
X308650D1*
X29584Y253640D2*
X99588D1*
X206350D2*
X219681D1*
X294381D2*
X308650D1*
X29584Y247772D2*
X101462D1*
X205600D2*
X217525D1*
X278350D2*
X308650D1*
X29584Y241903D2*
X92556D1*
X202975D2*
X217056D1*
X280412D2*
X308650D1*
X29584Y236034D2*
X88432D1*
X197724D2*
X218181D1*
X286224D2*
X308650D1*
X29584Y230165D2*
X85337D1*
X190975D2*
X221088D1*
X289131D2*
X308650D1*
X29584Y224297D2*
X83274D1*
X218256D2*
X226993D1*
X290163D2*
X308650D1*
X29584Y218428D2*
X83181D1*
X225194D2*
X244056D1*
X289694D2*
X308650D1*
X29584Y212559D2*
X82432D1*
X231007D2*
X246213D1*
X287537D2*
X308650D1*
X29584Y206690D2*
X82432D1*
X236912D2*
X250713D1*
X283037D2*
X370432D1*
X29584Y200822D2*
X82432D1*
X241600D2*
X262525D1*
X271224D2*
X370432D1*
X29584Y194953D2*
X82432D1*
X242819D2*
X370432D1*
X242819Y189084D2*
X308650D1*
X242819Y183215D2*
X308650D1*
X250975Y177346D2*
X269369D1*
X287537D2*
X308650D1*
X295975Y171478D2*
X308650D1*
X299819Y165609D2*
X308650D1*
X301507Y159740D2*
X308650D1*
X301694Y153871D2*
X308650D1*
X300194Y148003D2*
X308650D1*
X296819Y142134D2*
X308650D1*
X294381Y136265D2*
X308650D1*
X294381Y130396D2*
X308650D1*
X294381Y124528D2*
X308650D1*
X294381Y118659D2*
X308650D1*
X294381Y112790D2*
X308650D1*
X294381Y106921D2*
X348869D1*
X294381Y101052D2*
X342962D1*
X294381Y95184D2*
X337056D1*
X294381Y89315D2*
X331244D1*
X294381Y83446D2*
X325337D1*
X293256Y77577D2*
X319525D1*
X293256Y71709D2*
X313618D1*
X293256Y65840D2*
X307713D1*
X293256Y59971D2*
X301900D1*
X100744Y296890D2*
X205239D1*
X205277Y258710D1*
X205799Y253867D1*
X205601Y250877D1*
X205012Y247937D1*
X204041Y245101D1*
X202706Y242417D1*
X201029Y239932D1*
X199039Y237689D1*
X196773Y235727D1*
X194266Y234081D1*
X190588Y232457D1*
X190270Y229510D1*
X190665Y228555D1*
X205862D1*
Y225648D1*
X211878Y225635D1*
X214852Y225297D1*
X217675Y224299D1*
X220266Y222626D1*
X221240Y221757D1*
X238341Y204655D1*
X240206Y202312D1*
X241496Y199612D1*
X242146Y196596D1*
X242219Y195293D1*
Y179531D1*
X244303Y179304D1*
X247219Y178608D1*
X250017Y177533D1*
X252651Y176098D1*
X255072Y174331D1*
X257239Y172260D1*
X259650Y169041D1*
X262890Y172840D1*
X265205Y174745D1*
X267751Y176329D1*
X270482Y177564D1*
X273352Y178430D1*
X276311Y178911D1*
X279307Y178997D1*
X282289Y178689D1*
X285205Y177992D1*
X288003Y176917D1*
X290636Y175483D1*
X293058Y173715D1*
X295224Y171644D1*
X297101Y169307D1*
X298654Y166743D1*
X299856Y163996D1*
X300685Y161115D1*
X301207Y156273D1*
X301009Y153282D1*
X300420Y150343D1*
X299449Y147507D1*
X298114Y144823D1*
X296437Y142337D1*
X293810Y139543D1*
X293831Y79539D1*
X292612D1*
X292705Y69736D1*
Y50142D1*
X349835Y107324D1*
X309264Y107295D1*
Y192705D1*
X371045D1*
X371016Y207231D1*
X342736Y207295D1*
X309264D1*
Y292705D1*
X349858D1*
X292676Y349835D1*
X292705Y320517D1*
X293831Y320461D1*
Y248831D1*
X277799D1*
X277728Y243150D1*
X281480Y240676D1*
X283648Y238605D1*
X285525Y236268D1*
X287077Y233703D1*
X288280Y230957D1*
X289109Y228076D1*
X289631Y223234D1*
X289433Y220243D1*
X288844Y217303D1*
X287873Y214467D1*
X286537Y211783D1*
X284861Y209298D1*
X282871Y207055D1*
X280604Y205094D1*
X278098Y203448D1*
X275399Y202146D1*
X272550Y201210D1*
X269604Y200656D1*
X266610Y200496D1*
X263622Y200730D1*
X260690Y201356D1*
X257866Y202361D1*
X255199Y203730D1*
X252735Y205437D1*
X250517Y207454D1*
X248583Y209745D1*
X246969Y212270D1*
X245699Y214987D1*
X244798Y217845D1*
X244298Y220706D1*
X240079Y220336D1*
X237089Y220571D1*
X234157Y221197D1*
X231333Y222202D1*
X228667Y223571D1*
X226202Y225278D1*
X223984Y227295D1*
X222051Y229587D1*
X220436Y232112D1*
X219167Y234827D1*
X218266Y237686D1*
X217749Y240639D1*
X217625Y243635D1*
X217896Y246621D1*
X218558Y249545D1*
X219598Y252356D1*
X221000Y255007D1*
X222738Y257449D1*
X224206Y259025D1*
X224169Y309299D1*
X207295Y309264D1*
Y371045D1*
X192769Y371016D1*
X192705Y342736D1*
Y309264D1*
X107295D1*
Y349858D1*
X28942Y271454D1*
X28984Y192769D1*
X57264Y192705D1*
X83045D1*
X82991Y217357D1*
X83835D1*
X83738Y222659D1*
X84325Y225903D1*
X86798Y232482D1*
X89491Y236714D1*
X93282Y242131D1*
X95018Y243997D1*
X99402Y246438D1*
X104592Y249034D1*
X106996Y249846D1*
X112058Y250850D1*
X100144D1*
Y296890D1*
X100744D1*
X127101Y296878D2*
Y273870D1*
X100156D2*
X127101D1*
D16*
D3*
X178282D3*
D18*
X187764Y188213D3*
Y213409D3*
X158236D3*
Y188213D3*
D19*
X350000Y150000D3*
Y250000D3*
D20*
X400000Y150000D3*
Y250000D3*
D21*
X250000Y50000D3*
X150000D3*
D22*
X250000Y0D3*
X150000D3*
D66*
X116600Y223803D3*
D69*
Y137803D3*
D24*
Y180803D3*
D21*
X150000Y350000D3*
X250000D3*
D22*
X150000Y400000D3*
X250000D3*
D19*
X50000Y150000D3*
Y250000D3*
D20*
X0Y150000D3*
Y250000D3*
D26*
X159220Y98315D3*
X186780D3*
Y137685D3*
X159220D3*
D28*
X219630Y115354D3*
X239315D3*
X259000D3*
X278685D3*
X298370D3*
Y284646D3*
X278685D3*
X259000D3*
X239315D3*
X219630D3*
M02*
