G04 DipTrace 3.0.0.2*
G04 DRV2605L(1).gto*
%MOIN*%
G04 #@! TF.FileFunction,Legend,Top*
G04 #@! TF.Part,Single*
%ADD10C,0.009843*%
%ADD17C,0.005906*%
%ADD25O,0.014827X0.012287*%
%ADD27O,0.015977X0.015753*%
%ADD55C,0.003281*%
%FSLAX26Y26*%
G04*
G70*
G90*
G75*
G01*
G04 TopSilk*
%LPD*%
X150167Y171283D2*
D17*
X195833D1*
Y230339D1*
X150167D1*
Y171283D1*
X90025Y221650D2*
G02X143175Y221650I26575J-3138D01*
G01*
Y139956D2*
G02X90025Y139956I-26575J3138D01*
G01*
X143175Y141439D2*
Y220168D1*
X90025Y141439D2*
Y220168D1*
X145438Y98313D2*
D10*
Y137686D1*
X200559Y98313D2*
Y137686D1*
D25*
X148524Y79787D3*
D27*
X202196Y96591D3*
X204469Y247250D2*
D10*
X313528D1*
Y152751D1*
X204469D1*
Y247250D1*
X205435Y214408D2*
G02X206772Y183858I718J-15273D01*
G01*
X97406Y275366D2*
D55*
X96693Y278218D1*
X95250Y281103D1*
X93824Y282529D1*
X90956D1*
X89513Y281103D1*
X88087Y278218D1*
X87358Y275366D1*
X86645Y271055D1*
Y263859D1*
X87358Y259581D1*
X88087Y256696D1*
X89513Y253844D1*
X90956Y252385D1*
X93824D1*
X95250Y253844D1*
X96693Y256696D1*
X97406Y259581D1*
X100686Y276759D2*
X102129Y278218D1*
X104284Y282496D1*
Y252385D1*
X158570Y170543D2*
X157857Y173395D1*
X156415Y176280D1*
X154989Y177706D1*
X152120D1*
X150678Y176280D1*
X149252Y173395D1*
X148522Y170543D1*
X147809Y166232D1*
Y159036D1*
X148522Y154758D1*
X149252Y151873D1*
X150678Y149021D1*
X152120Y147562D1*
X154989D1*
X156415Y149021D1*
X157857Y151873D1*
X158570Y154758D1*
X162581Y170510D2*
Y171936D1*
X163294Y174821D1*
X164007Y176247D1*
X165449Y177673D1*
X168318D1*
X169744Y176247D1*
X170457Y174821D1*
X171186Y171936D1*
Y169084D1*
X170457Y166199D1*
X169031Y161921D1*
X161851Y147562D1*
X171899D1*
X42090Y214484D2*
X42803Y213058D1*
X43533Y214484D1*
X42803Y215943D1*
X42090Y214484D1*
X42803Y204436D2*
Y184340D1*
X47543Y207288D2*
Y208714D1*
X48256Y211599D1*
X48969Y213025D1*
X50412Y214451D1*
X53280D1*
X54706Y213025D1*
X55419Y211599D1*
X56149Y208714D1*
Y205862D1*
X55419Y202977D1*
X53993Y198699D1*
X46814Y184340D1*
X56862D1*
X68765Y200125D2*
X67322Y203010D1*
X65880Y204436D1*
X63741D1*
X62298Y203010D1*
X60872Y200125D1*
X60143Y195814D1*
Y192962D1*
X60872Y188651D1*
X62298Y185799D1*
X63741Y184340D1*
X65880D1*
X67322Y185799D1*
X68765Y188651D1*
X72045Y200125D2*
X78495D1*
X80651Y201584D1*
X81380Y203010D1*
X82093Y205862D1*
Y208747D1*
X81380Y211599D1*
X80651Y213058D1*
X78495Y214484D1*
X72045D1*
Y184340D1*
X77069Y200125D2*
X82093Y184340D1*
X122502Y91067D2*
Y97517D1*
X121043Y99672D1*
X119617Y100402D1*
X116765Y101115D1*
X113880D1*
X111028Y100402D1*
X109569Y99672D1*
X108143Y97517D1*
Y91067D1*
X138287D1*
X122502Y96091D2*
X138287Y101115D1*
X113913Y104396D2*
X112454Y105838D1*
X108176Y107994D1*
X138287D1*
X322230Y191916D2*
X343752D1*
X348063Y192629D1*
X350915Y194071D1*
X352374Y196227D1*
Y197653D1*
X350915Y199808D1*
X348063Y201251D1*
X343752Y201964D1*
X322230D1*
X328000Y205245D2*
X326541Y206687D1*
X322263Y208843D1*
X352374D1*
X48551Y320019D2*
X54288Y289875D1*
X60025Y320019D1*
X63306D2*
Y289875D1*
X68330D1*
X70485Y291334D1*
X71928Y294186D1*
X72641Y297071D1*
X73354Y301349D1*
Y308545D1*
X72641Y312856D1*
X71928Y315708D1*
X70485Y318593D1*
X68330Y320019D1*
X63306D1*
X76635D2*
Y289875D1*
X81659D1*
X83814Y291334D1*
X85257Y294186D1*
X85970Y297071D1*
X86683Y301349D1*
Y308545D1*
X85970Y312856D1*
X85257Y315708D1*
X83814Y318593D1*
X81659Y320019D1*
X76635D1*
X56648Y103213D2*
X55935Y106065D1*
X54493Y108950D1*
X53067Y110376D1*
X50198D1*
X48756Y108950D1*
X47330Y106065D1*
X46600Y103213D1*
X45887Y98902D1*
Y91706D1*
X46600Y87428D1*
X47330Y84543D1*
X48756Y81691D1*
X50198Y80232D1*
X53067D1*
X54493Y81691D1*
X55935Y84543D1*
X56648Y87428D1*
Y91706D1*
X53067D1*
X69977Y110376D2*
Y80232D1*
X59929Y110376D1*
Y80232D1*
X73258Y110376D2*
Y80232D1*
X78282D1*
X80437Y81691D1*
X81880Y84543D1*
X82593Y87428D1*
X83306Y91706D1*
Y98902D1*
X82593Y103213D1*
X81880Y106065D1*
X80437Y108950D1*
X78282Y110376D1*
X73258D1*
X92063Y349524D2*
X90620Y348098D1*
X89195Y345213D1*
X88465Y342361D1*
X87752Y338050D1*
Y330854D1*
X88465Y326576D1*
X89195Y323691D1*
X90620Y320839D1*
X92063Y319380D1*
X94931D1*
X96357Y320839D1*
X97800Y323691D1*
X98513Y326576D1*
X99226Y330854D1*
Y338050D1*
X98513Y342361D1*
X97800Y345213D1*
X96357Y348098D1*
X94931Y349524D1*
X92063D1*
X102507Y334435D2*
X110797D1*
X294890Y351841D2*
X293447Y350416D1*
X292021Y347530D1*
X291292Y344679D1*
X290579Y340368D1*
Y333171D1*
X291292Y328894D1*
X292021Y326008D1*
X293447Y323157D1*
X294890Y321697D1*
X297758D1*
X299184Y323157D1*
X300627Y326008D1*
X301340Y328894D1*
X302053Y333171D1*
Y340368D1*
X301340Y344679D1*
X300627Y347530D1*
X299184Y350416D1*
X297758Y351841D1*
X294890D1*
X311783Y349669D2*
Y323836D1*
X305334Y336736D2*
X318250D1*
X309507Y96412D2*
X315973D1*
X318112Y97838D1*
X318842Y99297D1*
X319555Y102149D1*
Y106460D1*
X318842Y109312D1*
X318112Y110771D1*
X315973Y112197D1*
X309507D1*
Y82053D1*
X322835Y112197D2*
X326433Y82053D1*
X330015Y112197D1*
X333596Y82053D1*
X337194Y112197D1*
X351949Y82053D2*
Y112197D1*
X346212Y82053D1*
X340475Y112197D1*
Y82053D1*
X327180Y289141D2*
X321426Y319285D1*
X315689Y289141D1*
X317844Y299189D2*
X325024D1*
X340508Y319285D2*
Y289141D1*
X330460Y319285D1*
Y289141D1*
X355280D2*
X349526Y319285D1*
X343789Y289141D1*
X345945Y299189D2*
X353124D1*
X292796Y51118D2*
X289911Y49692D1*
X288485Y47536D1*
Y44668D1*
X289911Y42512D1*
X292796Y41070D1*
X295648D1*
X298533Y41799D1*
X299959Y42512D1*
X301385Y43938D1*
X304270Y48249D1*
X305696Y49692D1*
X307155Y50405D1*
X310007Y51118D1*
X314318D1*
X317170Y49692D1*
X318629Y47536D1*
Y44668D1*
X317170Y42512D1*
X314318Y41070D1*
X288485Y54399D2*
X318629Y54398D1*
Y59422D1*
X317170Y61578D1*
X314318Y63020D1*
X311433Y63733D1*
X307155Y64446D1*
X299959D1*
X295648Y63734D1*
X292796Y63021D1*
X289911Y61578D1*
X288485Y59423D1*
Y54399D1*
X318629Y79218D2*
X288485Y73464D1*
X318629Y67727D1*
X308581Y69883D2*
Y77062D1*
X84645Y56914D2*
X81760Y55488D1*
X80334Y53333D1*
Y50464D1*
X81760Y48309D1*
X84645Y46866D1*
X87497D1*
X90382Y47596D1*
X91808Y48309D1*
X93234Y49735D1*
X96119Y54046D1*
X97545Y55488D1*
X99004Y56201D1*
X101856Y56914D1*
X106167D1*
X109019Y55488D1*
X110478Y53333D1*
Y50464D1*
X109019Y48309D1*
X106167Y46866D1*
X87497Y70956D2*
X84645Y70243D1*
X81760Y68801D1*
X80334Y67375D1*
Y64506D1*
X81760Y63064D1*
X84645Y61638D1*
X87497Y60908D1*
X91808Y60195D1*
X99004D1*
X103282Y60908D1*
X106167Y61638D1*
X109019Y63064D1*
X110478Y64506D1*
Y67375D1*
X109019Y68800D1*
X106167Y70243D1*
X103282Y70956D1*
X80334Y74237D2*
X110478D1*
Y82842D1*
M02*
