G04 DipTrace 2.4.0.2*
%INQiUSBCharger.gtp*%
%MOMM*%
%ADD42R,0.7X0.9*%
%ADD43R,1.1X1.0*%
%ADD44R,0.9X0.7*%
%ADD45R,1.0X1.1*%
%ADD46R,3.7X0.98*%
%ADD49R,0.5X0.525*%
%ADD50R,0.5X0.25*%
%ADD52R,0.7X0.45*%
%ADD53R,1.5X1.3*%
%ADD55R,0.325X0.3*%
%ADD56R,0.95X0.613*%
%ADD59O,0.28X1.0*%
%ADD60O,1.0X0.28*%
%ADD62O,0.85X0.86*%
%ADD63O,0.96X0.973*%
%ADD67C,0.25*%
%ADD70R,0.25X0.5*%
%ADD72R,0.25X0.4*%
%ADD73R,0.45X0.25*%
%FSLAX53Y53*%
G04*
G71*
G90*
G75*
G01*
%LNTopPaste*%
%LPD*%
D42*
X13542Y20620D3*
Y19320D3*
D43*
X14477Y12757D3*
X12777D3*
X14455Y14096D3*
X12755D3*
D44*
X24477Y14623D3*
X25777D3*
X24489Y13593D3*
X25789D3*
D42*
X12548Y20593D3*
Y19293D3*
D44*
X24212Y16664D3*
X25512D3*
X23225Y12673D3*
X21925D3*
D42*
X14519Y20649D3*
Y19349D3*
X17452Y14938D3*
Y13638D3*
X18358Y12703D3*
Y14003D3*
D44*
X17198Y12585D3*
X15898D3*
D42*
X15612Y14976D3*
Y13676D3*
X16524Y14951D3*
Y13651D3*
D44*
X24232Y15602D3*
X25532D3*
X23577Y26748D3*
X22277D3*
X24381Y12671D3*
X25681D3*
D43*
X25229Y24815D3*
X23529D3*
D44*
X16777Y25079D3*
X15477D3*
D43*
X19876Y25881D3*
X18176D3*
D44*
X14640Y17308D3*
X15940D3*
D42*
X16952Y16984D3*
Y18284D3*
D45*
X29669Y22770D3*
Y21070D3*
D42*
X29859Y16399D3*
Y15099D3*
X29845Y12710D3*
Y14010D3*
X13479Y16550D3*
Y15250D3*
D44*
X14009Y22660D3*
X12709D3*
X13998Y21662D3*
X12698D3*
D46*
X28016Y24345D3*
Y26715D3*
D42*
X12563Y17433D3*
Y16133D3*
D44*
X24179Y17726D3*
X25479D3*
D42*
X15473Y21194D3*
Y19894D3*
X17887Y18263D3*
Y16963D3*
D44*
X15609Y18275D3*
X14309D3*
X15837Y16328D3*
X14537D3*
X16807Y26021D3*
X15507D3*
D49*
X16313Y21298D3*
D50*
Y20658D3*
Y20158D3*
D49*
Y19523D3*
X17213D3*
D50*
Y20158D3*
Y20658D3*
D49*
Y21298D3*
D52*
X15865Y23190D3*
Y22390D3*
X17365D3*
Y23190D3*
D44*
X15554Y24128D3*
X16854D3*
D42*
X14432Y24973D3*
Y23673D3*
X28940Y12711D3*
Y14011D3*
D53*
X29479Y17684D3*
Y19584D3*
D44*
X19386Y19173D3*
X18086D3*
D42*
X13413Y23618D3*
Y24918D3*
D55*
X23474Y20252D3*
Y19602D3*
Y18952D3*
X25304D3*
Y19602D3*
Y20252D3*
D56*
X24389Y20068D3*
Y19136D3*
G36*
X20123Y16087D2*
X20809D1*
Y17287D1*
X20123D1*
Y16087D1*
G37*
G36*
X21109D2*
X21833D1*
Y17287D1*
X21109D1*
Y16087D1*
G37*
G36*
X21118Y14587D2*
X21833D1*
Y15786D1*
X21118D1*
Y14587D1*
G37*
G36*
X20123D2*
X20823D1*
Y15786D1*
X20123D1*
Y14587D1*
G37*
G36*
X20634Y17686D2*
X20803D1*
Y18577D1*
X20634D1*
Y17686D1*
G37*
G36*
X21123Y17690D2*
X21293D1*
Y18577D1*
X21123D1*
Y17690D1*
G37*
G36*
Y13297D2*
X21293D1*
Y14187D1*
X21123D1*
Y13297D1*
G37*
G36*
X20634D2*
X20803D1*
Y14187D1*
X20634D1*
Y13297D1*
G37*
D59*
X21713Y13687D3*
X20213D3*
D60*
X19213Y14187D3*
Y14687D3*
Y15187D3*
Y15687D3*
Y16187D3*
Y16687D3*
Y17187D3*
Y17687D3*
D59*
X20213Y18187D3*
X21713D3*
D60*
X22713Y17687D3*
Y17187D3*
Y16687D3*
Y16187D3*
Y15687D3*
Y15187D3*
Y14687D3*
Y14187D3*
D62*
X20876Y22352D3*
D63*
X20138Y23126D3*
X20128Y21562D3*
X21671Y23116D3*
X21681Y21559D3*
D60*
X18848Y23599D3*
Y23099D3*
Y22599D3*
Y22099D3*
Y21599D3*
Y21099D3*
D59*
X19648Y20299D3*
X20148D3*
X20648D3*
X21148D3*
X21648D3*
X22148D3*
D60*
X22948Y21099D3*
Y21599D3*
Y22099D3*
Y22599D3*
Y23099D3*
Y23599D3*
D59*
X22148Y24399D3*
X21648D3*
X21148D3*
X20648D3*
X20148D3*
X19648D3*
D67*
X27084Y12993D3*
X27884D3*
X27084Y13393D3*
X27484D3*
X27884D3*
X27084Y13793D3*
X27884D3*
X27084Y14193D3*
X27484D3*
X27884D3*
D50*
X27996Y17754D3*
Y18254D3*
Y18754D3*
D70*
X27396Y18854D3*
D50*
X26796Y18754D3*
Y18254D3*
Y17754D3*
D70*
X27396Y17654D3*
D72*
X28440Y16231D3*
X27940D3*
X27440D3*
D73*
X27365Y15626D3*
D72*
X27440Y15021D3*
X27940D3*
X28440D3*
D73*
X28515Y15626D3*
M02*
