G04 DipTrace 2.4.0.2*
%INQiUSBCharger.g3l*%
%MOMM*%
%ADD13C,0.127*%
%ADD14C,0.203*%
%ADD16C,0.533*%
%ADD17C,0.457*%
%ADD18C,1.016*%
%ADD19C,1.067*%
%ADD20C,0.254*%
%ADD22C,0.381*%
%ADD28C,0.711*%
%ADD38R,1.7X1.6*%
%ADD39R,1.7X2.0*%
%ADD40R,1.6X1.7*%
%ADD41R,2.032X1.7*%
%ADD47R,2.0X1.7*%
%ADD61C,0.711*%
%ADD74C,0.559*%
%ADD76C,0.61*%
%FSLAX53Y53*%
G04*
G71*
G90*
G75*
G01*
%LNInner2*%
%LPD*%
X25458Y18445D2*
D13*
X24252D1*
X23036Y19661D1*
X22904Y19529D1*
X13834Y17121D2*
Y17168D1*
X14082Y17416D1*
X18412D1*
X18505Y17324D1*
X19413D1*
X19608Y17519D1*
X21903D1*
X21986Y17435D1*
Y17366D1*
X24999D1*
X25128Y16164D2*
D18*
X22290Y13325D1*
Y13168D1*
D19*
X20403D1*
X19212Y14359D1*
Y15183D1*
X18658Y15737D1*
X14524D1*
D16*
Y15492D1*
X28148Y14403D2*
D22*
Y14342D1*
X29036D1*
X29781Y15088D1*
Y16289D1*
X29159Y16912D1*
X28396Y16561D2*
D13*
Y15279D1*
X27571Y14454D1*
X27128D1*
X26475Y15107D1*
Y16511D1*
X25722Y17264D1*
Y17627D1*
X25294Y18055D1*
X24245D1*
X23192Y19108D1*
X22293D1*
X22090Y18904D1*
X27199Y14983D2*
Y16175D1*
X26000Y17374D1*
Y18867D1*
X25439Y19428D1*
X24073D1*
X23023Y20478D1*
X22450D1*
X22193Y20221D1*
X21280D1*
X20923Y19864D1*
Y19707D1*
X20414Y19198D1*
X20062D1*
X19815Y19446D1*
Y20541D1*
X19628Y20727D1*
X18960D1*
X18542Y20310D1*
Y19153D1*
X19492Y18204D1*
X20005D1*
X28328Y17518D2*
X28617Y17263D1*
X28578Y16982D1*
G02X28774Y16053I-461J-582D01*
G01*
X28710Y14890D1*
X27390Y16605D2*
Y16773D1*
X27477Y16687D1*
Y17109D1*
X27815Y17446D1*
Y17811D1*
X28262Y18258D1*
X28356D1*
X25250Y18997D2*
Y19044D1*
X25329Y19123D1*
X23967D1*
X22958Y20132D1*
X22647D1*
Y20058D1*
X18597Y16742D2*
D17*
X18148Y16829D1*
D28*
X14561Y16805D1*
X15277Y18749D2*
D13*
Y18707D1*
X16117D1*
X16969Y19558D1*
X17401D1*
X17701Y19258D1*
Y19029D1*
X18718Y18012D1*
X19072D1*
X19395Y20303D2*
Y20173D1*
X19409D1*
Y19153D1*
X19625Y18938D1*
X20346D1*
X20807Y18476D1*
X23379D1*
X24059Y17796D1*
X25188D1*
X25438Y17546D1*
Y17170D1*
X26187Y16422D1*
Y11619D1*
X26510Y11295D1*
X28277Y19041D2*
Y18833D1*
X27650Y18205D1*
Y18123D1*
X27356Y17830D1*
Y17358D1*
X27086Y17087D1*
X26654D1*
X26335Y17406D1*
Y18927D1*
X25526Y19736D1*
X24138D1*
X23138Y20737D1*
X22294D1*
X22037Y20480D1*
X21117D1*
X20243Y19606D1*
Y19647D1*
X20245Y19649D1*
X17989Y23654D2*
X17898D1*
X16447Y22203D1*
Y20514D1*
X16032Y20099D1*
X14964D1*
X12285Y17420D1*
Y13828D1*
X13786Y12328D1*
X21413D1*
Y11313D1*
X21430Y11295D1*
X28171Y13782D2*
X29388D1*
X30167Y14560D1*
Y23004D1*
X31158Y23995D1*
X12766Y14987D2*
Y16601D1*
X13060Y16894D1*
Y17511D1*
X13783Y18234D1*
X16025D1*
X16396Y18605D1*
X17751D1*
X18775Y17580D1*
X19301D1*
X19501Y17780D1*
X20204D1*
X20449Y18026D1*
Y18443D1*
X20208Y18684D1*
X19383D1*
X18932Y19135D1*
Y19880D1*
X18965D1*
X16396Y18605D2*
X16920Y19129D1*
X17214D1*
X16640Y23128D2*
X16817D1*
X16999Y23310D1*
Y26077D1*
X16385Y26691D1*
X16178D1*
X21268Y26839D2*
X21456D1*
X25313Y22982D1*
X30205D1*
X31158Y23995D1*
X15174Y22063D2*
D20*
Y21849D1*
X12998D1*
X10850Y23996D1*
X11269D1*
X11270Y23995D1*
X27157Y18258D2*
D14*
Y19105D1*
X23101Y23161D1*
Y23547D1*
X22288Y24361D1*
X19829D1*
D13*
X19366Y23781D1*
X18910Y23497D1*
D14*
Y22296D1*
X18234Y21621D1*
X26644Y13188D2*
D20*
X27301D1*
X28337Y12152D1*
Y12008D1*
X29050Y11295D1*
X18415Y20838D2*
X18309D1*
X17710Y21436D1*
Y21804D1*
X18483Y22577D1*
Y23856D1*
X18122Y24218D1*
X17585D1*
X17322Y24481D1*
Y26406D1*
X16545Y27183D1*
X14287D1*
X13769Y26665D1*
Y26577D1*
X13810Y26535D1*
X26836Y17515D2*
D14*
X26699D1*
Y19082D1*
X22684Y23097D1*
Y23241D1*
X21952Y23972D1*
X19928D1*
D13*
X19280Y23324D1*
D14*
Y21703D1*
X18415Y20838D1*
D17*
X17824Y24706D3*
X14888Y23200D3*
D74*
X14902Y24916D3*
D17*
X28171Y13782D3*
D74*
X30661Y15109D3*
D17*
X26627Y14359D3*
X28396Y16561D3*
X27199Y14983D3*
X28710Y14890D3*
X18312Y14808D3*
X14744Y14749D3*
X13834Y17121D3*
X24999Y17366D3*
X16009Y13917D3*
X13033Y20635D3*
D76*
X22290Y13168D3*
D28*
X25128Y16164D3*
D17*
X22647Y20058D3*
X25250Y18997D3*
X22904Y19529D3*
X25458Y18445D3*
D28*
X24869Y14115D3*
X26679Y20543D3*
D17*
X17989Y23654D3*
X19395Y20303D3*
D28*
X22720Y17920D3*
D17*
X15941Y20963D3*
X18415Y20838D3*
X21243Y19135D3*
X20245Y19649D3*
D28*
X20078Y25210D3*
D17*
X20005Y18204D3*
X22090Y18904D3*
X26607Y13773D3*
X27157Y18258D3*
X26836Y17515D3*
X29223Y15772D3*
X27913Y16941D3*
X28328Y17518D3*
X28277Y19041D3*
X13293Y13424D3*
D28*
X18997Y24209D3*
X18358Y26547D3*
X23355Y24124D3*
X24275Y23238D3*
D17*
X25431Y13123D3*
X15174Y22063D3*
X18965Y19880D3*
X26644Y13188D3*
D76*
X14524Y15492D3*
D17*
X29159Y16912D3*
X28356Y18258D3*
X12766Y14987D3*
X17214Y19129D3*
D28*
X28222Y19963D3*
D17*
X19072Y18012D3*
X18597Y16742D3*
X15277Y18749D3*
X14561Y16805D3*
X16547Y17911D3*
X28148Y14403D3*
X21670Y19736D3*
X27390Y16605D3*
X28302Y21275D3*
X18234Y21621D3*
X16640Y23128D3*
X16178Y26691D3*
X15662Y19288D3*
X12181Y25561D3*
X11049Y22749D3*
Y20184D3*
X11152Y17649D3*
X11171Y15123D3*
X15079Y11271D3*
X11787Y12428D3*
X17667Y11254D3*
X20181D3*
X22683Y11192D3*
X25262Y11268D3*
X27797Y11362D3*
X30707Y12470D3*
X31169Y17638D3*
X31075Y20185D3*
X31131Y22723D3*
X21268Y26839D3*
D38*
X13810Y11295D3*
D39*
Y10025D3*
D40*
X31158Y18915D3*
Y21455D3*
D41*
X32428Y18915D3*
Y21455D3*
D38*
X23970Y11295D3*
D39*
Y10025D3*
D38*
X16350Y11295D3*
D39*
Y10025D3*
D38*
X26510Y11295D3*
D39*
Y10025D3*
D40*
X11270Y21455D3*
D47*
X10000D3*
D40*
X31158Y16375D3*
D47*
X32428D3*
D38*
X21430Y11295D3*
D39*
Y10025D3*
D40*
X11270Y18915D3*
Y16375D3*
D41*
X10000Y18915D3*
Y16375D3*
D40*
X11270Y13835D3*
D47*
X10000D3*
D40*
X31158Y23995D3*
D47*
X32428D3*
D40*
X11270D3*
D47*
X10000D3*
D40*
X31158Y13835D3*
D47*
X32428D3*
D38*
X13810Y26535D3*
D39*
Y27805D3*
D38*
X29050Y11295D3*
D39*
Y10025D3*
D61*
X20393Y16957D3*
X21533D3*
X20393Y15937D3*
X21533D3*
Y14887D3*
X20393D3*
X19998Y23249D3*
X20898D3*
X21798D3*
X19998Y22349D3*
X20898D3*
X21798D3*
X19998Y21449D3*
X20898D3*
X21798D3*
D38*
X18890Y11295D3*
D39*
Y10025D3*
M02*
