G04 DipTrace 2.4.0.2*
%INQiUSBCharger.gts*%
%MOMM*%
%ADD10C,0.25*%
%ADD46R,3.7X0.98*%
%ADD58C,0.165*%
%ADD68C,0.35*%
%ADD80R,0.5X0.3*%
%ADD81R,0.3X0.45*%
%ADD82R,0.3X0.55*%
%ADD86O,1.05X0.33*%
%ADD87O,0.33X1.05*%
%ADD88R,1.0X0.663*%
%ADD89R,0.375X0.35*%
%ADD90R,1.55X1.35*%
%ADD91R,0.75X0.5*%
%ADD92R,0.55X0.3*%
%ADD93R,0.55X0.575*%
%ADD94R,2.05X1.75*%
%ADD96R,1.05X1.15*%
%ADD97R,0.95X0.75*%
%ADD98R,1.15X1.05*%
%ADD99R,0.75X0.95*%
%ADD100R,2.082X1.75*%
%ADD101R,1.65X1.75*%
%ADD102R,1.75X2.05*%
%ADD103R,1.75X1.65*%
%FSLAX53Y53*%
G04*
G71*
G90*
G75*
G01*
%LNTopMask*%
%LPD*%
D103*
X13810Y11270D3*
D102*
Y10000D3*
D101*
X31590Y18890D3*
Y21430D3*
D100*
X32860Y18890D3*
Y21430D3*
D103*
X23970Y11270D3*
D102*
Y10000D3*
D99*
X13542Y20595D3*
Y19295D3*
D98*
X14477Y12732D3*
X12777D3*
X14455Y14071D3*
X12755D3*
D97*
X24477Y14598D3*
X25777D3*
X24489Y13568D3*
X25789D3*
D99*
X12548Y20568D3*
Y19268D3*
D97*
X24212Y16639D3*
X25512D3*
X23225Y12648D3*
X21925D3*
D99*
X14519Y20624D3*
Y19324D3*
X17452Y14912D3*
Y13612D3*
X18358Y12677D3*
Y13977D3*
D97*
X17198Y12559D3*
X15898D3*
D99*
X15612Y14950D3*
Y13650D3*
X16524Y14926D3*
Y13626D3*
D97*
X24232Y15577D3*
X25532D3*
X22870Y26015D3*
X21570D3*
X24381Y12646D3*
X25681D3*
D98*
X25143Y24798D3*
X23443D3*
D97*
X16777Y25053D3*
X15477D3*
D98*
X19876Y25856D3*
X18176D3*
D97*
X14640Y17282D3*
X15940D3*
D99*
X16952Y16958D3*
Y18258D3*
D96*
X29669Y22745D3*
Y21045D3*
D99*
X29859Y16373D3*
Y15073D3*
X29845Y12685D3*
Y13985D3*
X13479Y16525D3*
Y15225D3*
D97*
X14009Y22635D3*
X12709D3*
X13998Y21637D3*
X12698D3*
D103*
X16350Y11270D3*
D102*
Y10000D3*
D103*
X26510Y11270D3*
D102*
Y10000D3*
D46*
X27893Y24021D3*
Y26391D3*
D101*
X11270Y21430D3*
D94*
X10000D3*
D101*
X31590Y16350D3*
D94*
X32860D3*
D103*
X21430Y11270D3*
D102*
Y10000D3*
D101*
X11270Y18890D3*
Y16350D3*
D100*
X10000Y18890D3*
Y16350D3*
D99*
X12563Y17407D3*
Y16107D3*
D97*
X24179Y17701D3*
X25479D3*
D99*
X15473Y21169D3*
Y19869D3*
X17887Y18238D3*
Y16938D3*
D97*
X15609Y18250D3*
X14309D3*
X15837Y16303D3*
X14537D3*
X16807Y25996D3*
X15507D3*
D93*
X16313Y21273D3*
D92*
Y20633D3*
Y20133D3*
D93*
Y19498D3*
X17213D3*
D92*
Y20133D3*
Y20633D3*
D93*
Y21273D3*
D91*
X15865Y23164D3*
Y22364D3*
X17365D3*
Y23164D3*
D97*
X15554Y24102D3*
X16854D3*
D99*
X14432Y24948D3*
Y23648D3*
X28940Y12686D3*
Y13986D3*
D90*
X29479Y17658D3*
Y19558D3*
D101*
X11270Y13810D3*
D94*
X10000D3*
D101*
X31590Y23970D3*
D94*
X32860D3*
D101*
X11270D3*
D94*
X10000D3*
D101*
X31590Y13810D3*
D94*
X32860D3*
D103*
X13810Y26510D3*
D102*
Y27780D3*
D103*
X29050Y11270D3*
D102*
Y10000D3*
D97*
X19386Y19148D3*
X18086D3*
D99*
X13413Y23593D3*
Y24893D3*
D89*
X23474Y20227D3*
Y19577D3*
Y18927D3*
X25304D3*
Y19577D3*
Y20227D3*
D88*
X24389Y20043D3*
Y19111D3*
G36*
X21113Y17861D2*
X21383D1*
Y18581D1*
X21113D1*
Y17861D1*
G37*
G36*
X20544Y13241D2*
X20814D1*
Y13961D1*
X20544D1*
Y13241D1*
G37*
G36*
X21113D2*
X21383D1*
Y13961D1*
X21113D1*
Y13241D1*
G37*
X20117Y16924D2*
D58*
X20118Y16943D1*
X20120Y16961D1*
X20123Y16979D1*
X20128Y16997D1*
X20134Y17015D1*
X20142Y17032D1*
X20150Y17049D1*
X20160Y17065D1*
X20171Y17081D1*
X20183Y17095D1*
X20196Y17109D1*
X20210Y17122D1*
X20225Y17134D1*
X20240Y17145D1*
X20257Y17155D1*
X20274Y17163D1*
X20292Y17171D1*
X20310Y17177D1*
X20329Y17182D1*
X20348Y17186D1*
X20367Y17189D1*
X20387Y17190D1*
X20406D1*
X20426Y17189D1*
X20445Y17186D1*
X20464Y17182D1*
X20483Y17177D1*
X20501Y17171D1*
X20519Y17163D1*
X20536Y17155D1*
X20553Y17145D1*
X20569Y17134D1*
X20583Y17122D1*
X20597Y17109D1*
X20610Y17095D1*
X20622Y17081D1*
X20633Y17065D1*
X20643Y17049D1*
X20652Y17032D1*
X20659Y17015D1*
X20665Y16997D1*
X20670Y16979D1*
X20673Y16961D1*
X20675Y16943D1*
X20676Y16924D1*
X20675Y16905D1*
X20673Y16887D1*
X20670Y16869D1*
X20665Y16851D1*
X20659Y16833D1*
X20652Y16816D1*
X20643Y16799D1*
X20633Y16783D1*
X20622Y16767D1*
X20610Y16753D1*
X20597Y16739D1*
X20583Y16726D1*
X20569Y16714D1*
X20553Y16703D1*
X20536Y16693D1*
X20519Y16685D1*
X20501Y16677D1*
X20483Y16671D1*
X20464Y16665D1*
X20445Y16662D1*
X20426Y16659D1*
X20406Y16658D1*
X20387D1*
X20367Y16659D1*
X20348Y16662D1*
X20329Y16665D1*
X20310Y16671D1*
X20292Y16677D1*
X20274Y16685D1*
X20257Y16693D1*
X20240Y16703D1*
X20225Y16714D1*
X20210Y16726D1*
X20196Y16739D1*
X20183Y16753D1*
X20171Y16767D1*
X20160Y16783D1*
X20150Y16799D1*
X20142Y16816D1*
X20134Y16833D1*
X20128Y16851D1*
X20123Y16869D1*
X20120Y16887D1*
X20118Y16905D1*
X20117Y16924D1*
X21258D2*
Y16943D1*
X21260Y16961D1*
X21264Y16979D1*
X21268Y16997D1*
X21275Y17015D1*
X21282Y17032D1*
X21290Y17049D1*
X21300Y17065D1*
X21311Y17081D1*
X21323Y17095D1*
X21336Y17109D1*
X21350Y17122D1*
X21365Y17134D1*
X21381Y17145D1*
X21397Y17155D1*
X21414Y17163D1*
X21432Y17171D1*
X21451Y17177D1*
X21469Y17182D1*
X21488Y17186D1*
X21508Y17189D1*
X21527Y17190D1*
X21547D1*
X21566Y17189D1*
X21585Y17186D1*
X21604Y17182D1*
X21623Y17177D1*
X21641Y17171D1*
X21659Y17163D1*
X21677Y17155D1*
X21693Y17145D1*
X21709Y17134D1*
X21724Y17122D1*
X21738Y17109D1*
X21751Y17095D1*
X21763Y17081D1*
X21774Y17065D1*
X21783Y17049D1*
X21792Y17032D1*
X21799Y17015D1*
X21805Y16997D1*
X21810Y16979D1*
X21813Y16961D1*
X21815Y16943D1*
X21816Y16924D1*
X21815Y16905D1*
X21813Y16887D1*
X21810Y16869D1*
X21805Y16851D1*
X21799Y16833D1*
X21792Y16816D1*
X21783Y16799D1*
X21774Y16783D1*
X21763Y16767D1*
X21751Y16753D1*
X21738Y16739D1*
X21724Y16726D1*
X21709Y16714D1*
X21693Y16703D1*
X21677Y16693D1*
X21659Y16685D1*
X21641Y16677D1*
X21623Y16671D1*
X21604Y16665D1*
X21585Y16662D1*
X21566Y16659D1*
X21547Y16658D1*
X21527D1*
X21508Y16659D1*
X21488Y16662D1*
X21469Y16665D1*
X21451Y16671D1*
X21432Y16677D1*
X21414Y16685D1*
X21397Y16693D1*
X21381Y16703D1*
X21365Y16714D1*
X21350Y16726D1*
X21336Y16739D1*
X21323Y16753D1*
X21311Y16767D1*
X21300Y16783D1*
X21290Y16799D1*
X21282Y16816D1*
X21275Y16833D1*
X21268Y16851D1*
X21264Y16869D1*
X21260Y16887D1*
X21258Y16905D1*
Y16924D1*
X20063Y14501D2*
D10*
X21833D1*
Y17321D1*
X20063D1*
Y14501D1*
G36*
X20544Y13961D2*
X21383D1*
Y17861D1*
X20544D1*
Y13961D1*
G37*
G36*
Y17861D2*
X20814D1*
Y18581D1*
X20544D1*
Y17861D1*
G37*
G36*
X20023Y16151D2*
X21894D1*
Y16668D1*
X20023D1*
Y16151D1*
G37*
X20117Y15904D2*
D58*
X20118Y15923D1*
X20120Y15941D1*
X20123Y15959D1*
X20128Y15977D1*
X20134Y15995D1*
X20142Y16012D1*
X20150Y16029D1*
X20160Y16045D1*
X20171Y16061D1*
X20183Y16075D1*
X20196Y16089D1*
X20210Y16102D1*
X20225Y16114D1*
X20240Y16125D1*
X20257Y16135D1*
X20274Y16143D1*
X20292Y16151D1*
X20310Y16157D1*
X20329Y16162D1*
X20348Y16166D1*
X20367Y16169D1*
X20387Y16170D1*
X20406D1*
X20426Y16169D1*
X20445Y16166D1*
X20464Y16162D1*
X20483Y16157D1*
X20501Y16151D1*
X20519Y16143D1*
X20536Y16135D1*
X20553Y16125D1*
X20569Y16114D1*
X20583Y16102D1*
X20597Y16089D1*
X20610Y16075D1*
X20622Y16061D1*
X20633Y16045D1*
X20643Y16029D1*
X20652Y16012D1*
X20659Y15995D1*
X20665Y15977D1*
X20670Y15959D1*
X20673Y15941D1*
X20675Y15923D1*
X20676Y15904D1*
X20675Y15885D1*
X20673Y15867D1*
X20670Y15849D1*
X20665Y15831D1*
X20659Y15813D1*
X20652Y15796D1*
X20643Y15779D1*
X20633Y15763D1*
X20622Y15747D1*
X20610Y15733D1*
X20597Y15719D1*
X20583Y15706D1*
X20569Y15694D1*
X20553Y15683D1*
X20536Y15673D1*
X20519Y15664D1*
X20501Y15657D1*
X20483Y15651D1*
X20464Y15645D1*
X20445Y15642D1*
X20426Y15639D1*
X20406Y15638D1*
X20387D1*
X20367Y15639D1*
X20348Y15642D1*
X20329Y15645D1*
X20310Y15651D1*
X20292Y15657D1*
X20274Y15664D1*
X20257Y15673D1*
X20240Y15683D1*
X20225Y15694D1*
X20210Y15706D1*
X20196Y15719D1*
X20183Y15733D1*
X20171Y15747D1*
X20160Y15763D1*
X20150Y15779D1*
X20142Y15796D1*
X20134Y15813D1*
X20128Y15831D1*
X20123Y15849D1*
X20120Y15867D1*
X20118Y15885D1*
X20117Y15904D1*
X21258D2*
Y15923D1*
X21260Y15941D1*
X21264Y15959D1*
X21268Y15977D1*
X21275Y15995D1*
X21282Y16012D1*
X21290Y16029D1*
X21300Y16045D1*
X21311Y16061D1*
X21323Y16075D1*
X21336Y16089D1*
X21350Y16102D1*
X21365Y16114D1*
X21381Y16125D1*
X21397Y16135D1*
X21414Y16143D1*
X21432Y16151D1*
X21451Y16157D1*
X21469Y16162D1*
X21488Y16166D1*
X21508Y16169D1*
X21527Y16170D1*
X21547D1*
X21566Y16169D1*
X21585Y16166D1*
X21604Y16162D1*
X21623Y16157D1*
X21641Y16151D1*
X21659Y16143D1*
X21677Y16135D1*
X21693Y16125D1*
X21709Y16114D1*
X21724Y16102D1*
X21738Y16089D1*
X21751Y16075D1*
X21763Y16061D1*
X21774Y16045D1*
X21783Y16029D1*
X21792Y16012D1*
X21799Y15995D1*
X21805Y15977D1*
X21810Y15959D1*
X21813Y15941D1*
X21815Y15923D1*
X21816Y15904D1*
X21815Y15885D1*
X21813Y15867D1*
X21810Y15849D1*
X21805Y15831D1*
X21799Y15813D1*
X21792Y15796D1*
X21783Y15779D1*
X21774Y15763D1*
X21763Y15747D1*
X21751Y15733D1*
X21738Y15719D1*
X21724Y15706D1*
X21709Y15694D1*
X21693Y15683D1*
X21677Y15673D1*
X21659Y15664D1*
X21641Y15657D1*
X21623Y15651D1*
X21604Y15645D1*
X21585Y15642D1*
X21566Y15639D1*
X21547Y15638D1*
X21527D1*
X21508Y15639D1*
X21488Y15642D1*
X21469Y15645D1*
X21451Y15651D1*
X21432Y15657D1*
X21414Y15664D1*
X21397Y15673D1*
X21381Y15683D1*
X21365Y15694D1*
X21350Y15706D1*
X21336Y15719D1*
X21323Y15733D1*
X21311Y15747D1*
X21300Y15763D1*
X21290Y15779D1*
X21282Y15796D1*
X21275Y15813D1*
X21268Y15831D1*
X21264Y15849D1*
X21260Y15867D1*
X21258Y15885D1*
Y15904D1*
Y14854D2*
Y14873D1*
X21260Y14891D1*
X21264Y14909D1*
X21268Y14928D1*
X21275Y14945D1*
X21282Y14962D1*
X21290Y14979D1*
X21300Y14995D1*
X21311Y15011D1*
X21323Y15025D1*
X21336Y15039D1*
X21350Y15052D1*
X21365Y15064D1*
X21381Y15075D1*
X21397Y15085D1*
X21414Y15094D1*
X21432Y15101D1*
X21451Y15108D1*
X21469Y15113D1*
X21488Y15117D1*
X21508Y15119D1*
X21527Y15121D1*
X21547D1*
X21566Y15119D1*
X21585Y15117D1*
X21604Y15113D1*
X21623Y15108D1*
X21641Y15101D1*
X21659Y15094D1*
X21677Y15085D1*
X21693Y15075D1*
X21709Y15064D1*
X21724Y15052D1*
X21738Y15039D1*
X21751Y15025D1*
X21763Y15011D1*
X21774Y14995D1*
X21783Y14979D1*
X21792Y14962D1*
X21799Y14945D1*
X21805Y14928D1*
X21810Y14909D1*
X21813Y14891D1*
X21815Y14873D1*
X21816Y14854D1*
X21815Y14835D1*
X21813Y14817D1*
X21810Y14799D1*
X21805Y14780D1*
X21799Y14763D1*
X21792Y14746D1*
X21783Y14729D1*
X21774Y14713D1*
X21763Y14697D1*
X21751Y14683D1*
X21738Y14669D1*
X21724Y14656D1*
X21709Y14644D1*
X21693Y14633D1*
X21677Y14623D1*
X21659Y14614D1*
X21641Y14607D1*
X21623Y14600D1*
X21604Y14595D1*
X21585Y14591D1*
X21566Y14589D1*
X21547Y14587D1*
X21527D1*
X21508Y14589D1*
X21488Y14591D1*
X21469Y14595D1*
X21451Y14600D1*
X21432Y14607D1*
X21414Y14614D1*
X21397Y14623D1*
X21381Y14633D1*
X21365Y14644D1*
X21350Y14656D1*
X21336Y14669D1*
X21323Y14683D1*
X21311Y14697D1*
X21300Y14713D1*
X21290Y14729D1*
X21282Y14746D1*
X21275Y14763D1*
X21268Y14780D1*
X21264Y14799D1*
X21260Y14817D1*
X21258Y14835D1*
Y14854D1*
X20117D2*
X20118Y14873D1*
X20120Y14891D1*
X20123Y14909D1*
X20128Y14928D1*
X20134Y14945D1*
X20142Y14962D1*
X20150Y14979D1*
X20160Y14995D1*
X20171Y15011D1*
X20183Y15025D1*
X20196Y15039D1*
X20210Y15052D1*
X20225Y15064D1*
X20240Y15075D1*
X20257Y15085D1*
X20274Y15094D1*
X20292Y15101D1*
X20310Y15108D1*
X20329Y15113D1*
X20348Y15117D1*
X20367Y15119D1*
X20387Y15121D1*
X20406D1*
X20426Y15119D1*
X20445Y15117D1*
X20464Y15113D1*
X20483Y15108D1*
X20501Y15101D1*
X20519Y15094D1*
X20536Y15085D1*
X20553Y15075D1*
X20569Y15064D1*
X20583Y15052D1*
X20597Y15039D1*
X20610Y15025D1*
X20622Y15011D1*
X20633Y14995D1*
X20643Y14979D1*
X20652Y14962D1*
X20659Y14945D1*
X20665Y14928D1*
X20670Y14909D1*
X20673Y14891D1*
X20675Y14873D1*
X20676Y14854D1*
X20675Y14835D1*
X20673Y14817D1*
X20670Y14799D1*
X20665Y14780D1*
X20659Y14763D1*
X20652Y14746D1*
X20643Y14729D1*
X20633Y14713D1*
X20622Y14697D1*
X20610Y14683D1*
X20597Y14669D1*
X20583Y14656D1*
X20569Y14644D1*
X20553Y14633D1*
X20536Y14623D1*
X20519Y14614D1*
X20501Y14607D1*
X20483Y14600D1*
X20464Y14595D1*
X20445Y14591D1*
X20426Y14589D1*
X20406Y14587D1*
X20387D1*
X20367Y14589D1*
X20348Y14591D1*
X20329Y14595D1*
X20310Y14600D1*
X20292Y14607D1*
X20274Y14614D1*
X20257Y14623D1*
X20240Y14633D1*
X20225Y14644D1*
X20210Y14656D1*
X20196Y14669D1*
X20183Y14683D1*
X20171Y14697D1*
X20160Y14713D1*
X20150Y14729D1*
X20142Y14746D1*
X20134Y14763D1*
X20128Y14780D1*
X20123Y14799D1*
X20120Y14817D1*
X20118Y14835D1*
X20117Y14854D1*
G36*
X20053Y15131D2*
X21923D1*
Y15648D1*
X20053D1*
Y15131D1*
G37*
D87*
X21713Y13661D3*
X20213D3*
D86*
X19213Y14161D3*
Y14661D3*
Y15161D3*
Y15661D3*
Y16161D3*
Y16661D3*
Y17161D3*
Y17661D3*
D87*
X20213Y18161D3*
X21713D3*
D86*
X22713Y17661D3*
Y17161D3*
Y16661D3*
Y16161D3*
Y15661D3*
Y15161D3*
Y14661D3*
Y14161D3*
X20628Y23220D2*
D58*
Y23240D1*
X20630Y23259D1*
X20633Y23278D1*
X20638Y23297D1*
X20644Y23316D1*
X20651Y23334D1*
X20659Y23352D1*
X20668Y23368D1*
X20678Y23385D1*
X20690Y23400D1*
X20702Y23414D1*
X20716Y23428D1*
X20730Y23441D1*
X20745Y23452D1*
X20761Y23462D1*
X20777Y23472D1*
X20794Y23479D1*
X20812Y23486D1*
X20830Y23491D1*
X20848Y23496D1*
X20866Y23498D1*
X20885Y23500D1*
X20903D1*
X20922Y23498D1*
X20940Y23496D1*
X20959Y23491D1*
X20977Y23486D1*
X20994Y23479D1*
X21011Y23472D1*
X21027Y23462D1*
X21043Y23452D1*
X21058Y23441D1*
X21073Y23428D1*
X21086Y23414D1*
X21098Y23400D1*
X21110Y23385D1*
X21120Y23368D1*
X21130Y23352D1*
X21138Y23334D1*
X21145Y23316D1*
X21150Y23297D1*
X21155Y23278D1*
X21158Y23259D1*
X21160Y23240D1*
X21161Y23220D1*
X21160Y23201D1*
X21158Y23181D1*
X21155Y23162D1*
X21150Y23143D1*
X21145Y23125D1*
X21138Y23107D1*
X21130Y23089D1*
X21120Y23072D1*
X21110Y23056D1*
X21098Y23041D1*
X21086Y23026D1*
X21073Y23013D1*
X21058Y23000D1*
X21043Y22989D1*
X21027Y22978D1*
X21011Y22969D1*
X20994Y22961D1*
X20977Y22955D1*
X20959Y22949D1*
X20940Y22945D1*
X20922Y22942D1*
X20903Y22941D1*
X20885D1*
X20866Y22942D1*
X20848Y22945D1*
X20830Y22949D1*
X20812Y22955D1*
X20794Y22961D1*
X20777Y22969D1*
X20761Y22978D1*
X20745Y22989D1*
X20730Y23000D1*
X20716Y23013D1*
X20702Y23026D1*
X20690Y23041D1*
X20678Y23056D1*
X20668Y23072D1*
X20659Y23089D1*
X20651Y23107D1*
X20644Y23125D1*
X20638Y23143D1*
X20633Y23162D1*
X20630Y23181D1*
X20628Y23201D1*
Y23220D1*
X21531D2*
Y23240D1*
X21533Y23259D1*
X21537Y23278D1*
X21541Y23297D1*
X21547Y23316D1*
X21554Y23334D1*
X21562Y23352D1*
X21571Y23368D1*
X21582Y23385D1*
X21593Y23400D1*
X21606Y23414D1*
X21619Y23428D1*
X21633Y23441D1*
X21648Y23452D1*
X21664Y23462D1*
X21681Y23472D1*
X21698Y23479D1*
X21715Y23486D1*
X21733Y23491D1*
X21751Y23496D1*
X21770Y23498D1*
X21788Y23500D1*
X21807D1*
X21825Y23498D1*
X21844Y23496D1*
X21862Y23491D1*
X21880Y23486D1*
X21897Y23479D1*
X21914Y23472D1*
X21931Y23462D1*
X21946Y23452D1*
X21962Y23441D1*
X21976Y23428D1*
X21989Y23414D1*
X22002Y23400D1*
X22013Y23385D1*
X22023Y23368D1*
X22033Y23352D1*
X22041Y23334D1*
X22048Y23316D1*
X22054Y23297D1*
X22058Y23278D1*
X22061Y23259D1*
X22063Y23240D1*
X22064Y23220D1*
X22063Y23201D1*
X22061Y23181D1*
X22058Y23162D1*
X22054Y23143D1*
X22048Y23125D1*
X22041Y23107D1*
X22033Y23089D1*
X22023Y23072D1*
X22013Y23056D1*
X22002Y23041D1*
X21989Y23026D1*
X21976Y23013D1*
X21962Y23000D1*
X21946Y22989D1*
X21931Y22978D1*
X21914Y22969D1*
X21897Y22961D1*
X21880Y22955D1*
X21862Y22949D1*
X21844Y22945D1*
X21825Y22942D1*
X21807Y22941D1*
X21788D1*
X21770Y22942D1*
X21751Y22945D1*
X21733Y22949D1*
X21715Y22955D1*
X21698Y22961D1*
X21681Y22969D1*
X21664Y22978D1*
X21648Y22989D1*
X21633Y23000D1*
X21619Y23013D1*
X21606Y23026D1*
X21593Y23041D1*
X21582Y23056D1*
X21571Y23072D1*
X21562Y23089D1*
X21554Y23107D1*
X21547Y23125D1*
X21541Y23143D1*
X21537Y23162D1*
X21533Y23181D1*
X21531Y23201D1*
Y23220D1*
X19721Y22324D2*
Y22343D1*
X19723Y22363D1*
X19727Y22382D1*
X19731Y22401D1*
X19737Y22419D1*
X19744Y22437D1*
X19752Y22455D1*
X19761Y22472D1*
X19772Y22488D1*
X19783Y22503D1*
X19796Y22518D1*
X19809Y22531D1*
X19823Y22544D1*
X19838Y22555D1*
X19854Y22566D1*
X19871Y22575D1*
X19888Y22583D1*
X19905Y22590D1*
X19923Y22595D1*
X19941Y22599D1*
X19960Y22602D1*
X19978Y22603D1*
X19997D1*
X20015Y22602D1*
X20034Y22599D1*
X20052Y22595D1*
X20070Y22590D1*
X20087Y22583D1*
X20104Y22575D1*
X20121Y22566D1*
X20137Y22555D1*
X20152Y22544D1*
X20166Y22531D1*
X20179Y22518D1*
X20192Y22503D1*
X20203Y22488D1*
X20214Y22472D1*
X20223Y22455D1*
X20231Y22437D1*
X20238Y22419D1*
X20244Y22401D1*
X20248Y22382D1*
X20251Y22363D1*
X20253Y22343D1*
X20254Y22324D1*
X20253Y22304D1*
X20251Y22285D1*
X20248Y22266D1*
X20244Y22247D1*
X20238Y22228D1*
X20231Y22210D1*
X20223Y22193D1*
X20214Y22176D1*
X20203Y22159D1*
X20192Y22144D1*
X20179Y22130D1*
X20166Y22116D1*
X20152Y22104D1*
X20137Y22092D1*
X20121Y22082D1*
X20104Y22073D1*
X20087Y22065D1*
X20070Y22058D1*
X20052Y22053D1*
X20034Y22049D1*
X20015Y22046D1*
X19997Y22044D1*
X19978D1*
X19960Y22046D1*
X19941Y22049D1*
X19923Y22053D1*
X19905Y22058D1*
X19888Y22065D1*
X19871Y22073D1*
X19854Y22082D1*
X19838Y22092D1*
X19823Y22104D1*
X19809Y22116D1*
X19796Y22130D1*
X19783Y22144D1*
X19772Y22159D1*
X19761Y22176D1*
X19752Y22193D1*
X19744Y22210D1*
X19737Y22228D1*
X19731Y22247D1*
X19727Y22266D1*
X19723Y22285D1*
X19721Y22304D1*
Y22324D1*
X20621Y22320D2*
Y22340D1*
X20623Y22359D1*
X20627Y22378D1*
X20631Y22397D1*
X20637Y22416D1*
X20644Y22434D1*
X20652Y22452D1*
X20661Y22468D1*
X20672Y22485D1*
X20683Y22500D1*
X20696Y22514D1*
X20709Y22528D1*
X20723Y22540D1*
X20738Y22552D1*
X20754Y22562D1*
X20770Y22571D1*
X20787Y22579D1*
X20805Y22586D1*
X20823Y22591D1*
X20841Y22595D1*
X20859Y22598D1*
X20878Y22599D1*
X20897D1*
X20915Y22598D1*
X20934Y22595D1*
X20952Y22591D1*
X20970Y22586D1*
X20987Y22579D1*
X21004Y22571D1*
X21021Y22562D1*
X21036Y22552D1*
X21051Y22540D1*
X21066Y22528D1*
X21079Y22514D1*
X21092Y22500D1*
X21103Y22485D1*
X21113Y22468D1*
X21123Y22452D1*
X21131Y22434D1*
X21138Y22416D1*
X21144Y22397D1*
X21148Y22378D1*
X21151Y22359D1*
X21153Y22340D1*
X21154Y22320D1*
X21153Y22301D1*
X21151Y22282D1*
X21148Y22262D1*
X21144Y22243D1*
X21138Y22225D1*
X21131Y22207D1*
X21123Y22189D1*
X21113Y22172D1*
X21103Y22156D1*
X21092Y22141D1*
X21079Y22126D1*
X21066Y22113D1*
X21051Y22100D1*
X21036Y22089D1*
X21021Y22079D1*
X21004Y22069D1*
X20987Y22062D1*
X20970Y22055D1*
X20952Y22049D1*
X20934Y22045D1*
X20915Y22043D1*
X20897Y22041D1*
X20878D1*
X20859Y22043D1*
X20841Y22045D1*
X20823Y22049D1*
X20805Y22055D1*
X20787Y22062D1*
X20770Y22069D1*
X20754Y22079D1*
X20738Y22089D1*
X20723Y22100D1*
X20709Y22113D1*
X20696Y22126D1*
X20683Y22141D1*
X20672Y22156D1*
X20661Y22172D1*
X20652Y22189D1*
X20644Y22207D1*
X20637Y22225D1*
X20631Y22243D1*
X20627Y22262D1*
X20623Y22282D1*
X20621Y22301D1*
Y22320D1*
X20631D2*
X20632Y22340D1*
X20634Y22359D1*
X20637Y22378D1*
X20641Y22397D1*
X20647Y22416D1*
X20654Y22434D1*
X20662Y22452D1*
X20671Y22468D1*
X20682Y22485D1*
X20693Y22500D1*
X20706Y22514D1*
X20719Y22528D1*
X20733Y22540D1*
X20748Y22552D1*
X20764Y22562D1*
X20781Y22571D1*
X20798Y22579D1*
X20815Y22586D1*
X20833Y22591D1*
X20851Y22595D1*
X20870Y22598D1*
X20888Y22599D1*
X20907D1*
X20925Y22598D1*
X20944Y22595D1*
X20962Y22591D1*
X20980Y22586D1*
X20997Y22579D1*
X21014Y22571D1*
X21031Y22562D1*
X21047Y22552D1*
X21062Y22540D1*
X21076Y22528D1*
X21089Y22514D1*
X21102Y22500D1*
X21113Y22485D1*
X21124Y22468D1*
X21133Y22452D1*
X21141Y22434D1*
X21148Y22416D1*
X21154Y22397D1*
X21158Y22378D1*
X21162Y22359D1*
X21163Y22340D1*
X21164Y22320D1*
X21163Y22301D1*
X21162Y22282D1*
X21158Y22262D1*
X21154Y22243D1*
X21148Y22225D1*
X21141Y22207D1*
X21133Y22189D1*
X21124Y22172D1*
X21113Y22156D1*
X21102Y22141D1*
X21089Y22126D1*
X21076Y22113D1*
X21062Y22100D1*
X21047Y22089D1*
X21031Y22079D1*
X21014Y22069D1*
X20997Y22062D1*
X20980Y22055D1*
X20962Y22049D1*
X20944Y22045D1*
X20925Y22043D1*
X20907Y22041D1*
X20888D1*
X20870Y22043D1*
X20851Y22045D1*
X20833Y22049D1*
X20815Y22055D1*
X20798Y22062D1*
X20781Y22069D1*
X20764Y22079D1*
X20748Y22089D1*
X20733Y22100D1*
X20719Y22113D1*
X20706Y22126D1*
X20693Y22141D1*
X20682Y22156D1*
X20671Y22172D1*
X20662Y22189D1*
X20654Y22207D1*
X20647Y22225D1*
X20641Y22243D1*
X20637Y22262D1*
X20634Y22282D1*
X20632Y22301D1*
X20631Y22320D1*
X21527Y22327D2*
X21528Y22347D1*
X21530Y22366D1*
X21533Y22385D1*
X21538Y22404D1*
X21543Y22423D1*
X21550Y22441D1*
X21559Y22458D1*
X21568Y22475D1*
X21578Y22491D1*
X21590Y22507D1*
X21602Y22521D1*
X21616Y22535D1*
X21630Y22547D1*
X21645Y22559D1*
X21661Y22569D1*
X21677Y22578D1*
X21694Y22586D1*
X21712Y22593D1*
X21729Y22598D1*
X21748Y22602D1*
X21766Y22605D1*
X21785Y22606D1*
X21803D1*
X21822Y22605D1*
X21840Y22602D1*
X21858Y22598D1*
X21876Y22593D1*
X21894Y22586D1*
X21911Y22578D1*
X21927Y22569D1*
X21943Y22559D1*
X21958Y22547D1*
X21972Y22535D1*
X21986Y22521D1*
X21998Y22507D1*
X22010Y22491D1*
X22020Y22475D1*
X22029Y22458D1*
X22038Y22441D1*
X22045Y22423D1*
X22050Y22404D1*
X22055Y22385D1*
X22058Y22366D1*
X22060Y22347D1*
X22061Y22327D1*
X22060Y22308D1*
X22058Y22288D1*
X22055Y22269D1*
X22050Y22250D1*
X22045Y22232D1*
X22038Y22213D1*
X22029Y22196D1*
X22020Y22179D1*
X22010Y22163D1*
X21998Y22148D1*
X21986Y22133D1*
X21972Y22120D1*
X21958Y22107D1*
X21943Y22096D1*
X21927Y22085D1*
X21911Y22076D1*
X21894Y22068D1*
X21876Y22061D1*
X21858Y22056D1*
X21840Y22052D1*
X21822Y22049D1*
X21803Y22048D1*
X21785D1*
X21766Y22049D1*
X21748Y22052D1*
X21729Y22056D1*
X21712Y22061D1*
X21694Y22068D1*
X21677Y22076D1*
X21661Y22085D1*
X21645Y22096D1*
X21630Y22107D1*
X21616Y22120D1*
X21602Y22133D1*
X21590Y22148D1*
X21578Y22163D1*
X21568Y22179D1*
X21559Y22196D1*
X21550Y22213D1*
X21543Y22232D1*
X21538Y22250D1*
X21533Y22269D1*
X21530Y22288D1*
X21528Y22308D1*
X21527Y22327D1*
X20624Y21420D2*
X20625Y21440D1*
X20627Y21459D1*
X20630Y21478D1*
X20634Y21497D1*
X20640Y21516D1*
X20647Y21534D1*
X20655Y21551D1*
X20665Y21568D1*
X20675Y21584D1*
X20686Y21600D1*
X20699Y21614D1*
X20712Y21628D1*
X20727Y21640D1*
X20742Y21652D1*
X20757Y21662D1*
X20774Y21671D1*
X20791Y21679D1*
X20808Y21686D1*
X20826Y21691D1*
X20844Y21695D1*
X20863Y21698D1*
X20881Y21699D1*
X20900D1*
X20919Y21698D1*
X20937Y21695D1*
X20955Y21691D1*
X20973Y21686D1*
X20991Y21679D1*
X21008Y21671D1*
X21024Y21662D1*
X21040Y21652D1*
X21055Y21640D1*
X21069Y21628D1*
X21083Y21614D1*
X21095Y21600D1*
X21106Y21584D1*
X21117Y21568D1*
X21126Y21551D1*
X21134Y21534D1*
X21141Y21516D1*
X21147Y21497D1*
X21152Y21478D1*
X21155Y21459D1*
X21157Y21440D1*
Y21420D1*
Y21401D1*
X21155Y21381D1*
X21152Y21362D1*
X21147Y21343D1*
X21141Y21325D1*
X21134Y21307D1*
X21126Y21289D1*
X21117Y21272D1*
X21106Y21256D1*
X21095Y21241D1*
X21083Y21226D1*
X21069Y21213D1*
X21055Y21200D1*
X21040Y21189D1*
X21024Y21178D1*
X21008Y21169D1*
X20991Y21161D1*
X20973Y21155D1*
X20955Y21149D1*
X20937Y21145D1*
X20919Y21143D1*
X20900Y21141D1*
X20881D1*
X20863Y21143D1*
X20844Y21145D1*
X20826Y21149D1*
X20808Y21155D1*
X20791Y21161D1*
X20774Y21169D1*
X20757Y21178D1*
X20742Y21189D1*
X20727Y21200D1*
X20712Y21213D1*
X20699Y21226D1*
X20686Y21241D1*
X20675Y21256D1*
X20665Y21272D1*
X20655Y21289D1*
X20647Y21307D1*
X20640Y21325D1*
X20634Y21343D1*
X20630Y21362D1*
X20627Y21381D1*
X20625Y21401D1*
X20624Y21420D1*
X19728D2*
Y21440D1*
X19730Y21459D1*
X19733Y21478D1*
X19738Y21497D1*
X19744Y21516D1*
X19751Y21534D1*
X19759Y21551D1*
X19768Y21568D1*
X19779Y21584D1*
X19790Y21600D1*
X19802Y21614D1*
X19816Y21628D1*
X19830Y21640D1*
X19845Y21652D1*
X19861Y21662D1*
X19877Y21671D1*
X19894Y21679D1*
X19912Y21686D1*
X19930Y21691D1*
X19948Y21695D1*
X19966Y21698D1*
X19985Y21699D1*
X20004D1*
X20022Y21698D1*
X20041Y21695D1*
X20059Y21691D1*
X20077Y21686D1*
X20094Y21679D1*
X20111Y21671D1*
X20128Y21662D1*
X20143Y21652D1*
X20158Y21640D1*
X20173Y21628D1*
X20186Y21614D1*
X20198Y21600D1*
X20210Y21584D1*
X20220Y21568D1*
X20230Y21551D1*
X20238Y21534D1*
X20245Y21516D1*
X20251Y21497D1*
X20255Y21478D1*
X20258Y21459D1*
X20260Y21440D1*
X20261Y21420D1*
X20260Y21401D1*
X20258Y21381D1*
X20255Y21362D1*
X20251Y21343D1*
X20245Y21325D1*
X20238Y21307D1*
X20230Y21289D1*
X20220Y21272D1*
X20210Y21256D1*
X20198Y21241D1*
X20186Y21226D1*
X20173Y21213D1*
X20158Y21200D1*
X20143Y21189D1*
X20128Y21178D1*
X20111Y21169D1*
X20094Y21161D1*
X20077Y21155D1*
X20059Y21149D1*
X20041Y21145D1*
X20022Y21143D1*
X20004Y21141D1*
X19985D1*
X19966Y21143D1*
X19948Y21145D1*
X19930Y21149D1*
X19912Y21155D1*
X19894Y21161D1*
X19877Y21169D1*
X19861Y21178D1*
X19845Y21189D1*
X19830Y21200D1*
X19816Y21213D1*
X19802Y21226D1*
X19790Y21241D1*
X19779Y21256D1*
X19768Y21272D1*
X19759Y21289D1*
X19751Y21307D1*
X19744Y21325D1*
X19738Y21343D1*
X19733Y21362D1*
X19730Y21381D1*
X19728Y21401D1*
Y21420D1*
X21531D2*
Y21440D1*
X21533Y21459D1*
X21537Y21478D1*
X21541Y21497D1*
X21547Y21516D1*
X21554Y21534D1*
X21562Y21551D1*
X21571Y21568D1*
X21582Y21584D1*
X21593Y21600D1*
X21606Y21614D1*
X21619Y21628D1*
X21633Y21640D1*
X21648Y21652D1*
X21664Y21662D1*
X21681Y21671D1*
X21698Y21679D1*
X21715Y21686D1*
X21733Y21691D1*
X21751Y21695D1*
X21770Y21698D1*
X21788Y21699D1*
X21807D1*
X21825Y21698D1*
X21844Y21695D1*
X21862Y21691D1*
X21880Y21686D1*
X21897Y21679D1*
X21914Y21671D1*
X21931Y21662D1*
X21946Y21652D1*
X21962Y21640D1*
X21976Y21628D1*
X21989Y21614D1*
X22002Y21600D1*
X22013Y21584D1*
X22023Y21568D1*
X22033Y21551D1*
X22041Y21534D1*
X22048Y21516D1*
X22054Y21497D1*
X22058Y21478D1*
X22061Y21459D1*
X22063Y21440D1*
X22064Y21420D1*
X22063Y21401D1*
X22061Y21381D1*
X22058Y21362D1*
X22054Y21343D1*
X22048Y21325D1*
X22041Y21307D1*
X22033Y21289D1*
X22023Y21272D1*
X22013Y21256D1*
X22002Y21241D1*
X21989Y21226D1*
X21976Y21213D1*
X21962Y21200D1*
X21946Y21189D1*
X21931Y21178D1*
X21914Y21169D1*
X21897Y21161D1*
X21880Y21155D1*
X21862Y21149D1*
X21844Y21145D1*
X21825Y21143D1*
X21807Y21141D1*
X21788D1*
X21770Y21143D1*
X21751Y21145D1*
X21733Y21149D1*
X21715Y21155D1*
X21698Y21161D1*
X21681Y21169D1*
X21664Y21178D1*
X21648Y21189D1*
X21633Y21200D1*
X21619Y21213D1*
X21606Y21226D1*
X21593Y21241D1*
X21582Y21256D1*
X21571Y21272D1*
X21562Y21289D1*
X21554Y21307D1*
X21547Y21325D1*
X21541Y21343D1*
X21537Y21362D1*
X21533Y21381D1*
X21531Y21401D1*
Y21420D1*
X19638Y23591D2*
D10*
X22128D1*
Y21064D1*
X19638D1*
Y23591D1*
G36*
X20231Y23530D2*
X20711D1*
Y21147D1*
X20231D1*
Y23530D1*
G37*
G36*
X19674Y22124D2*
X22151D1*
Y21657D1*
X19674D1*
Y22124D1*
G37*
G36*
X19691Y22984D2*
X22051D1*
Y22517D1*
X19691D1*
Y22984D1*
G37*
G36*
X21121Y23624D2*
X21594D1*
Y21154D1*
X21121D1*
Y23624D1*
G37*
X19754Y23207D2*
D58*
X19755Y23227D1*
X19757Y23246D1*
X19760Y23265D1*
X19765Y23284D1*
X19770Y23303D1*
X19777Y23321D1*
X19785Y23338D1*
X19795Y23355D1*
X19805Y23371D1*
X19817Y23387D1*
X19829Y23401D1*
X19842Y23415D1*
X19857Y23427D1*
X19872Y23439D1*
X19888Y23449D1*
X19904Y23458D1*
X19921Y23466D1*
X19938Y23473D1*
X19956Y23478D1*
X19975Y23482D1*
X19993Y23485D1*
X20012Y23486D1*
X20030D1*
X20049Y23485D1*
X20067Y23482D1*
X20085Y23478D1*
X20103Y23473D1*
X20121Y23466D1*
X20138Y23458D1*
X20154Y23449D1*
X20170Y23439D1*
X20185Y23427D1*
X20199Y23415D1*
X20213Y23401D1*
X20225Y23387D1*
X20237Y23371D1*
X20247Y23355D1*
X20256Y23338D1*
X20264Y23321D1*
X20271Y23303D1*
X20277Y23284D1*
X20282Y23265D1*
X20285Y23246D1*
X20287Y23227D1*
X20288Y23207D1*
X20287Y23188D1*
X20285Y23168D1*
X20282Y23149D1*
X20277Y23130D1*
X20271Y23111D1*
X20264Y23093D1*
X20256Y23076D1*
X20247Y23059D1*
X20237Y23043D1*
X20225Y23027D1*
X20213Y23013D1*
X20199Y22999D1*
X20185Y22987D1*
X20170Y22975D1*
X20154Y22965D1*
X20138Y22956D1*
X20121Y22948D1*
X20103Y22941D1*
X20085Y22936D1*
X20067Y22932D1*
X20049Y22929D1*
X20030Y22928D1*
X20012D1*
X19993Y22929D1*
X19975Y22932D1*
X19956Y22936D1*
X19938Y22941D1*
X19921Y22948D1*
X19904Y22956D1*
X19888Y22965D1*
X19872Y22975D1*
X19857Y22987D1*
X19842Y22999D1*
X19829Y23013D1*
X19817Y23027D1*
X19805Y23043D1*
X19795Y23059D1*
X19785Y23076D1*
X19777Y23093D1*
X19770Y23111D1*
X19765Y23130D1*
X19760Y23149D1*
X19757Y23168D1*
X19755Y23188D1*
X19754Y23207D1*
D86*
X18848Y23574D3*
Y23074D3*
Y22574D3*
Y22074D3*
Y21574D3*
Y21074D3*
D87*
X19648Y20274D3*
X20148D3*
X20648D3*
X21148D3*
X21648D3*
X22148D3*
D86*
X22948Y21074D3*
Y21574D3*
Y22074D3*
Y22574D3*
Y23074D3*
Y23574D3*
D87*
X22148Y24374D3*
X21648D3*
X21148D3*
X20648D3*
X20148D3*
X19648D3*
D68*
X27084Y12967D3*
X27884D3*
X27084Y13367D3*
X27484D3*
X27884D3*
X27084Y13767D3*
X27884D3*
X27084Y14167D3*
X27484D3*
X27884D3*
D92*
X27996Y17729D3*
Y18229D3*
Y18729D3*
D82*
X27396Y18829D3*
D92*
X26796Y18729D3*
Y18229D3*
Y17729D3*
D82*
X27396Y17629D3*
D81*
X28440Y16205D3*
X27940D3*
X27440D3*
D80*
X27365Y15600D3*
D81*
X27440Y14995D3*
X27940D3*
X28440D3*
D80*
X28515Y15600D3*
D103*
X18890Y11270D3*
D102*
Y10000D3*
M02*
