G04 DipTrace 2.4.0.2*
%INQiUSBCharger.g2l*%
%MOMM*%
%ADD13C,0.127*%
%ADD16C,0.533*%
%ADD17C,0.457*%
%ADD28C,0.711*%
%ADD38R,1.7X1.6*%
%ADD39R,1.7X2.0*%
%ADD40R,1.6X1.7*%
%ADD41R,2.032X1.7*%
%ADD47R,2.0X1.7*%
%ADD61C,0.711*%
%ADD75C,0.559*%
%ADD77C,0.61*%
%FSLAX53Y53*%
G04*
G71*
G90*
G75*
G01*
%LNInner1*%
%LPD*%
X25431Y13098D2*
D17*
Y12982D1*
D16*
X25881Y12532D1*
X28141D1*
X29412Y13803D1*
Y14744D1*
X29648Y14980D1*
X29742D1*
X29836Y15074D1*
X31162D1*
D17*
X31172Y15084D1*
X28171Y13756D3*
X28148Y14378D3*
D75*
X31172Y15084D3*
D17*
X26627Y14334D3*
X17824Y24681D3*
X28396Y16536D3*
X27199Y14958D3*
X28710Y14865D3*
X18312Y14783D3*
X14744Y14723D3*
X13834Y17096D3*
X24999Y17340D3*
X16009Y13891D3*
X13033Y20609D3*
D77*
X22290Y13142D3*
D17*
X21243Y19110D3*
D28*
X25128Y16139D3*
D17*
X22916Y20128D3*
X25276Y18676D3*
X22904Y19504D3*
X25605Y19666D3*
D28*
X24869Y14090D3*
X26679Y20517D3*
D17*
X17989Y23629D3*
X19395Y20278D3*
D28*
X22720Y18014D3*
D17*
X15941Y20937D3*
X18415Y20812D3*
X21670Y19710D3*
X20245Y19624D3*
D28*
X20078Y25185D3*
D17*
X19931Y18179D3*
X22090Y18879D3*
X26607Y13748D3*
D28*
X24275Y23213D3*
D17*
X27157Y18232D3*
X26836Y17489D3*
X29223Y15747D3*
X27913Y16916D3*
X28328Y17492D3*
X28277Y19016D3*
X19072Y17987D3*
X13293Y13398D3*
D28*
X18997Y24184D3*
X18358Y26522D3*
X23355Y24014D3*
D77*
X14524Y15466D3*
D17*
X25431Y13098D3*
X15174Y22037D3*
X18965Y19855D3*
X26644Y13162D3*
X29159Y16886D3*
X28356Y18233D3*
X27390Y16579D3*
X28302Y21249D3*
X12766Y14962D3*
X17214Y19104D3*
D28*
X28222Y19937D3*
D17*
X18597Y16717D3*
X15277Y18724D3*
X14561Y16780D3*
X16547Y17885D3*
X14888Y23174D3*
D75*
X14902Y24891D3*
D17*
X18234Y21596D3*
X16640Y23103D3*
X16178Y26665D3*
X15662Y19263D3*
X12181Y25536D3*
X11049Y22723D3*
Y20158D3*
X11152Y17623D3*
X11171Y15098D3*
X15079Y11245D3*
X11787Y12403D3*
X17667Y11228D3*
X20181D3*
X22683Y11166D3*
X25262Y11242D3*
X27797Y11336D3*
X30707Y12444D3*
X31341Y17613D3*
X31075Y20159D3*
X31749Y22698D3*
X21268Y26814D3*
X14869Y26933D2*
D13*
X15837D1*
X16520D2*
X20848D1*
X21687D2*
X29712D1*
X14869Y26809D2*
X15766D1*
X16589D2*
X20830D1*
X21705D2*
X29835D1*
X14869Y26686D2*
X15742D1*
X16615D2*
X20850D1*
X21685D2*
X29960D1*
X14869Y26562D2*
X15754D1*
X16601D2*
X20913D1*
X21621D2*
X30083D1*
X12652Y26438D2*
X12752D1*
X14869D2*
X15808D1*
X16549D2*
X21058D1*
X21477D2*
X30206D1*
X12529Y26315D2*
X12752D1*
X14869D2*
X15927D1*
X16428D2*
X30331D1*
X12406Y26191D2*
X12752D1*
X14869D2*
X30454D1*
X12281Y26067D2*
X12752D1*
X14869D2*
X30577D1*
X12158Y25944D2*
X12752D1*
X14869D2*
X30702D1*
X12035Y25820D2*
X12752D1*
X14869D2*
X30825D1*
X11910Y25696D2*
X12752D1*
X14869D2*
X19862D1*
X20294D2*
X30948D1*
X11787Y25573D2*
X12752D1*
X14869D2*
X19673D1*
X20482D2*
X31073D1*
X11664Y25449D2*
X19582D1*
X20574D2*
X31197D1*
X11539Y25325D2*
X19532D1*
X20623D2*
X31320D1*
X11416Y25202D2*
X19514D1*
X20641D2*
X31443D1*
X11293Y25078D2*
X17663D1*
X17984D2*
X19524D1*
X20631D2*
X31568D1*
X12277Y24954D2*
X17486D1*
X18161D2*
X19564D1*
X20592D2*
X30581D1*
X12277Y24831D2*
X17415D1*
X18232D2*
X19643D1*
X20512D2*
X30581D1*
X12277Y24707D2*
X17387D1*
X18260D2*
X18812D1*
X19183D2*
X19790D1*
X20365D2*
X30581D1*
X12277Y24583D2*
X17399D1*
X18248D2*
X18606D1*
X19389D2*
X30581D1*
X12277Y24460D2*
X17449D1*
X18198D2*
X18508D1*
X19486D2*
X30581D1*
X12277Y24336D2*
X17564D1*
X18083D2*
X18455D1*
X19540D2*
X30581D1*
X12277Y24212D2*
X18435D1*
X19560D2*
X30581D1*
X12277Y24089D2*
X18443D1*
X19552D2*
X30581D1*
X12277Y23965D2*
X17719D1*
X18260D2*
X18479D1*
X19516D2*
X30581D1*
X12277Y23841D2*
X17609D1*
X18369D2*
X18554D1*
X19443D2*
X30581D1*
X12277Y23718D2*
X17562D1*
X18417D2*
X18691D1*
X19304D2*
X24041D1*
X24509D2*
X30581D1*
X12277Y23594D2*
X14815D1*
X14960D2*
X17554D1*
X18425D2*
X23864D1*
X24685D2*
X30581D1*
X12277Y23470D2*
X14571D1*
X15204D2*
X16417D1*
X16863D2*
X17584D1*
X18395D2*
X23775D1*
X24775D2*
X30581D1*
X12277Y23347D2*
X14488D1*
X15287D2*
X16280D1*
X17000D2*
X17659D1*
X18318D2*
X23727D1*
X24822D2*
X30581D1*
X12277Y23223D2*
X14454D1*
X15321D2*
X16220D1*
X17059D2*
X17854D1*
X18125D2*
X23711D1*
X24838D2*
X30581D1*
X12277Y23099D2*
X14458D1*
X15317D2*
X16203D1*
X17077D2*
X23723D1*
X24826D2*
X30581D1*
X12277Y22976D2*
X14500D1*
X15275D2*
X16222D1*
X17057D2*
X23765D1*
X24785D2*
X30581D1*
X10736Y22852D2*
X14599D1*
X15176D2*
X16286D1*
X16994D2*
X23846D1*
X24703D2*
X32123D1*
X10736Y22728D2*
X16429D1*
X16851D2*
X24001D1*
X24548D2*
X32123D1*
X10736Y22605D2*
X32123D1*
X10736Y22481D2*
X32123D1*
X12277Y22357D2*
X14883D1*
X15464D2*
X30581D1*
X12277Y22234D2*
X14786D1*
X15563D2*
X30581D1*
X12277Y22110D2*
X14744D1*
X15605D2*
X30581D1*
X12277Y21986D2*
X14740D1*
X15607D2*
X18056D1*
X18413D2*
X30581D1*
X12277Y21863D2*
X14776D1*
X15573D2*
X17893D1*
X18577D2*
X30581D1*
X12277Y21739D2*
X14861D1*
X15488D2*
X17822D1*
X18647D2*
X30581D1*
X12277Y21615D2*
X15125D1*
X15223D2*
X17798D1*
X18671D2*
X28075D1*
X28529D2*
X30581D1*
X12277Y21492D2*
X17812D1*
X18659D2*
X27942D1*
X28662D2*
X30581D1*
X12277Y21368D2*
X17863D1*
X18605D2*
X27883D1*
X28722D2*
X30581D1*
X12277Y21244D2*
X15637D1*
X16246D2*
X17985D1*
X18484D2*
X27865D1*
X28737D2*
X30581D1*
X12277Y21121D2*
X15546D1*
X16337D2*
X18112D1*
X18718D2*
X27885D1*
X28718D2*
X30581D1*
X12277Y20997D2*
X12849D1*
X13218D2*
X15508D1*
X16373D2*
X18020D1*
X18810D2*
X26394D1*
X26961D2*
X27948D1*
X28656D2*
X30581D1*
X12277Y20873D2*
X12688D1*
X13376D2*
X15510D1*
X16373D2*
X17983D1*
X18847D2*
X26245D1*
X27112D2*
X28093D1*
X28511D2*
X30581D1*
X12277Y20750D2*
X12621D1*
X13446D2*
X15548D1*
X16333D2*
X17983D1*
X18847D2*
X26166D1*
X27192D2*
X30581D1*
X12277Y20626D2*
X12597D1*
X13470D2*
X15641D1*
X16242D2*
X18022D1*
X18808D2*
X19141D1*
X19649D2*
X26126D1*
X27231D2*
X30581D1*
X12277Y20502D2*
X12611D1*
X13456D2*
X18114D1*
X18716D2*
X19022D1*
X19768D2*
X22703D1*
X23128D2*
X26115D1*
X27241D2*
X30581D1*
X10736Y20379D2*
X12664D1*
X13400D2*
X18971D1*
X19820D2*
X22561D1*
X23271D2*
X26132D1*
X27225D2*
X32123D1*
X10736Y20255D2*
X12787D1*
X13277D2*
X18814D1*
X19832D2*
X22499D1*
X23332D2*
X26182D1*
X27176D2*
X32123D1*
X10736Y20131D2*
X18631D1*
X19806D2*
X21606D1*
X21735D2*
X22479D1*
X23352D2*
X26273D1*
X27084D2*
X32123D1*
X10736Y20008D2*
X18558D1*
X19734D2*
X20052D1*
X20437D2*
X21354D1*
X21985D2*
X22497D1*
X23334D2*
X25341D1*
X25868D2*
X26456D1*
X26900D2*
X32123D1*
X12277Y19884D2*
X18530D1*
X19566D2*
X19897D1*
X20592D2*
X21271D1*
X22070D2*
X22557D1*
X23274D2*
X25228D1*
X25981D2*
X30581D1*
X12277Y19760D2*
X18540D1*
X19391D2*
X19832D1*
X20659D2*
X21237D1*
X22104D2*
X22555D1*
X23255D2*
X25178D1*
X26031D2*
X30581D1*
X12277Y19637D2*
X15449D1*
X15875D2*
X18590D1*
X19341D2*
X19808D1*
X20681D2*
X21239D1*
X22100D2*
X22489D1*
X23320D2*
X25170D1*
X26041D2*
X30581D1*
X12277Y19513D2*
X15308D1*
X16018D2*
X17090D1*
X17339D2*
X18701D1*
X19228D2*
X19824D1*
X20667D2*
X21100D1*
X22058D2*
X22467D1*
X23340D2*
X25198D1*
X26013D2*
X30581D1*
X12277Y19389D2*
X15244D1*
X16079D2*
X16889D1*
X17540D2*
X19880D1*
X20611D2*
X20911D1*
X21959D2*
X22483D1*
X23324D2*
X25271D1*
X25938D2*
X28063D1*
X28491D2*
X30581D1*
X12277Y19266D2*
X15224D1*
X16099D2*
X16810D1*
X17619D2*
X20005D1*
X20484D2*
X20836D1*
X21649D2*
X21904D1*
X22276D2*
X22541D1*
X23267D2*
X25454D1*
X25757D2*
X27922D1*
X28632D2*
X30581D1*
X12277Y19142D2*
X15196D1*
X16081D2*
X16780D1*
X17649D2*
X20808D1*
X21679D2*
X21745D1*
X22435D2*
X22672D1*
X23138D2*
X27861D1*
X28696D2*
X30581D1*
X12277Y19018D2*
X14960D1*
X16020D2*
X16786D1*
X17643D2*
X20816D1*
X22503D2*
X25013D1*
X25539D2*
X27841D1*
X28714D2*
X30581D1*
X12277Y18895D2*
X14877D1*
X15885D2*
X16834D1*
X17595D2*
X20866D1*
X22526D2*
X24900D1*
X25652D2*
X27859D1*
X28696D2*
X30581D1*
X12277Y18771D2*
X14843D1*
X15712D2*
X16939D1*
X17490D2*
X20975D1*
X21510D2*
X21668D1*
X22512D2*
X24850D1*
X25701D2*
X27918D1*
X28636D2*
X30581D1*
X12277Y18647D2*
X14847D1*
X15706D2*
X21721D1*
X22457D2*
X24841D1*
X25711D2*
X27059D1*
X27255D2*
X28055D1*
X28499D2*
X30581D1*
X12277Y18524D2*
X14891D1*
X15664D2*
X19673D1*
X20191D2*
X21846D1*
X22334D2*
X22497D1*
X22943D2*
X24868D1*
X25684D2*
X26837D1*
X27477D2*
X28035D1*
X28678D2*
X30581D1*
X12277Y18400D2*
X14992D1*
X15563D2*
X18965D1*
X19179D2*
X19558D1*
X20306D2*
X22314D1*
X23126D2*
X24942D1*
X25610D2*
X26755D1*
X27559D2*
X27954D1*
X28759D2*
X30581D1*
X12277Y18276D2*
X18751D1*
X19393D2*
X19507D1*
X20357D2*
X22223D1*
X23217D2*
X25122D1*
X25430D2*
X26724D1*
X27590D2*
X27922D1*
X28791D2*
X30581D1*
X12277Y18153D2*
X18669D1*
X20367D2*
X22174D1*
X23267D2*
X26728D1*
X27587D2*
X27928D1*
X28785D2*
X30581D1*
X12277Y18029D2*
X18637D1*
X20342D2*
X22158D1*
X23284D2*
X26773D1*
X27541D2*
X27972D1*
X28741D2*
X30581D1*
X12277Y17905D2*
X18643D1*
X19500D2*
X19595D1*
X20268D2*
X22168D1*
X23272D2*
X26740D1*
X27440D2*
X28075D1*
X28638D2*
X30581D1*
X10736Y17782D2*
X18689D1*
X19455D2*
X19770D1*
X20094D2*
X22209D1*
X23233D2*
X26515D1*
X27156D2*
X28006D1*
X28650D2*
X32123D1*
X10736Y17658D2*
X18792D1*
X19351D2*
X22289D1*
X23153D2*
X24706D1*
X25293D2*
X26434D1*
X27237D2*
X27924D1*
X28732D2*
X32123D1*
X10736Y17534D2*
X22437D1*
X23003D2*
X24610D1*
X25390D2*
X26402D1*
X27269D2*
X27893D1*
X28761D2*
X32123D1*
X10736Y17411D2*
X13538D1*
X14130D2*
X24569D1*
X25430D2*
X26406D1*
X27265D2*
X27898D1*
X28757D2*
X32123D1*
X12277Y17287D2*
X13442D1*
X14226D2*
X24567D1*
X25433D2*
X26450D1*
X27221D2*
X27696D1*
X28712D2*
X29008D1*
X29309D2*
X30581D1*
X12277Y17163D2*
X13403D1*
X14265D2*
X14369D1*
X14754D2*
X24602D1*
X25398D2*
X26553D1*
X27118D2*
X27557D1*
X28608D2*
X28825D1*
X29492D2*
X30581D1*
X12277Y17040D2*
X13401D1*
X14908D2*
X18310D1*
X18885D2*
X24688D1*
X25310D2*
X27496D1*
X28331D2*
X28752D1*
X29567D2*
X30581D1*
X12277Y16916D2*
X13438D1*
X14976D2*
X18211D1*
X18984D2*
X27121D1*
X28597D2*
X28724D1*
X29595D2*
X30581D1*
X12277Y16792D2*
X13526D1*
X14998D2*
X18167D1*
X19028D2*
X27011D1*
X29585D2*
X30581D1*
X12277Y16669D2*
X14139D1*
X14982D2*
X18163D1*
X19032D2*
X24966D1*
X25291D2*
X26964D1*
X29535D2*
X30581D1*
X12277Y16545D2*
X14194D1*
X14926D2*
X18197D1*
X18998D2*
X24743D1*
X25513D2*
X26956D1*
X29422D2*
X30581D1*
X12277Y16421D2*
X14321D1*
X14799D2*
X18280D1*
X18915D2*
X24642D1*
X25614D2*
X26984D1*
X27797D2*
X27976D1*
X28817D2*
X30581D1*
X12277Y16298D2*
X18520D1*
X18675D2*
X24589D1*
X25668D2*
X27061D1*
X27719D2*
X28033D1*
X28759D2*
X30581D1*
X12277Y16174D2*
X24565D1*
X25691D2*
X27254D1*
X27527D2*
X28162D1*
X28628D2*
X30581D1*
X12277Y16050D2*
X24573D1*
X25685D2*
X28914D1*
X29531D2*
X30581D1*
X12277Y15927D2*
X14315D1*
X14732D2*
X24606D1*
X25650D2*
X28827D1*
X29621D2*
X30581D1*
X12277Y15803D2*
X14143D1*
X14906D2*
X24678D1*
X25578D2*
X28789D1*
X29656D2*
X30581D1*
X12277Y15679D2*
X14059D1*
X14990D2*
X24811D1*
X25445D2*
X28791D1*
X29654D2*
X30581D1*
X12277Y15556D2*
X14020D1*
X15029D2*
X28831D1*
X29615D2*
X30581D1*
X12277Y15432D2*
X14012D1*
X15035D2*
X28926D1*
X29519D2*
X30581D1*
X12277Y15308D2*
X12510D1*
X13023D2*
X14038D1*
X15012D2*
X26948D1*
X27450D2*
X30581D1*
X10736Y15185D2*
X12393D1*
X13140D2*
X14099D1*
X14950D2*
X18163D1*
X18460D2*
X26829D1*
X27569D2*
X28418D1*
X29001D2*
X32123D1*
X10736Y15061D2*
X12341D1*
X13192D2*
X14218D1*
X15014D2*
X17979D1*
X18645D2*
X26775D1*
X27622D2*
X28321D1*
X29099D2*
X32123D1*
X10736Y14937D2*
X12331D1*
X13202D2*
X14365D1*
X15123D2*
X17905D1*
X18720D2*
X26763D1*
X27634D2*
X28279D1*
X29140D2*
X32123D1*
X12277Y14814D2*
X12357D1*
X13176D2*
X14317D1*
X15170D2*
X17877D1*
X18748D2*
X26787D1*
X27610D2*
X28277D1*
X29144D2*
X30581D1*
X12277Y14690D2*
X12428D1*
X13105D2*
X14309D1*
X15178D2*
X17885D1*
X18738D2*
X26857D1*
X27541D2*
X27849D1*
X29109D2*
X30581D1*
X12277Y14566D2*
X12601D1*
X12930D2*
X14337D1*
X15150D2*
X17935D1*
X18689D2*
X24579D1*
X25160D2*
X27023D1*
X27374D2*
X27756D1*
X29023D2*
X30581D1*
X12277Y14443D2*
X14413D1*
X15075D2*
X18046D1*
X18577D2*
X24434D1*
X25304D2*
X27716D1*
X28581D2*
X28660D1*
X28761D2*
X30581D1*
X12277Y14319D2*
X14603D1*
X14885D2*
X24356D1*
X25384D2*
X27716D1*
X28581D2*
X30581D1*
X12277Y14195D2*
X15701D1*
X16317D2*
X24317D1*
X25424D2*
X27754D1*
X28543D2*
X30581D1*
X12277Y14072D2*
X15613D1*
X16405D2*
X24307D1*
X25431D2*
X26321D1*
X26894D2*
X27843D1*
X28468D2*
X30581D1*
X12277Y13948D2*
X15576D1*
X16442D2*
X24325D1*
X25414D2*
X26220D1*
X26993D2*
X27779D1*
X28563D2*
X30581D1*
X12277Y13824D2*
X15577D1*
X16440D2*
X24374D1*
X25364D2*
X26178D1*
X27037D2*
X27740D1*
X28603D2*
X30581D1*
X12277Y13701D2*
X15617D1*
X16401D2*
X24467D1*
X25271D2*
X26172D1*
X27041D2*
X27738D1*
X28605D2*
X30581D1*
X12277Y13577D2*
X15712D1*
X16305D2*
X22029D1*
X22550D2*
X24656D1*
X25082D2*
X26206D1*
X27007D2*
X27773D1*
X28567D2*
X30581D1*
X12277Y13453D2*
X21886D1*
X22693D2*
X26289D1*
X26965D2*
X27863D1*
X28479D2*
X30581D1*
X12277Y13330D2*
X21812D1*
X22766D2*
X26242D1*
X27047D2*
X30581D1*
X12277Y13206D2*
X21781D1*
X22798D2*
X26210D1*
X27079D2*
X30581D1*
X12277Y13082D2*
X21781D1*
X22798D2*
X26216D1*
X27073D2*
X30581D1*
X12277Y12959D2*
X21812D1*
X22766D2*
X26259D1*
X27029D2*
X30581D1*
X12277Y12835D2*
X21882D1*
X22697D2*
X26363D1*
X26926D2*
X30581D1*
X11283Y12711D2*
X22023D1*
X22556D2*
X31576D1*
X11408Y12588D2*
X31452D1*
X11531Y12464D2*
X31329D1*
X11654Y12340D2*
X31204D1*
X11779Y12217D2*
X12752D1*
X14869D2*
X17832D1*
X19949D2*
X20372D1*
X22489D2*
X22912D1*
X25029D2*
X25452D1*
X27569D2*
X27992D1*
X30109D2*
X31081D1*
X11902Y12093D2*
X12752D1*
X14869D2*
X17832D1*
X19949D2*
X20372D1*
X22489D2*
X22912D1*
X25029D2*
X25452D1*
X27569D2*
X27992D1*
X30109D2*
X30958D1*
X12025Y11969D2*
X12752D1*
X14869D2*
X17832D1*
X19949D2*
X20372D1*
X22489D2*
X22912D1*
X25029D2*
X25452D1*
X27569D2*
X27992D1*
X30109D2*
X30833D1*
X12148Y11846D2*
X12752D1*
X14869D2*
X17832D1*
X19949D2*
X20372D1*
X22489D2*
X22912D1*
X25029D2*
X25452D1*
X27569D2*
X27992D1*
X30109D2*
X30710D1*
X12273Y11722D2*
X12752D1*
X14869D2*
X17832D1*
X19949D2*
X20372D1*
X22489D2*
X22912D1*
X25029D2*
X25452D1*
X27569D2*
X27992D1*
X30109D2*
X30587D1*
X12396Y11598D2*
X12752D1*
X14869D2*
X17832D1*
X19949D2*
X20372D1*
X22489D2*
X22912D1*
X25029D2*
X25452D1*
X27569D2*
X27992D1*
X30109D2*
X30462D1*
X12519Y11475D2*
X12752D1*
X14869D2*
X17832D1*
X19949D2*
X20372D1*
X22489D2*
X22912D1*
X25029D2*
X25452D1*
X27569D2*
X27992D1*
X30109D2*
X30339D1*
X12644Y11351D2*
X12752D1*
X14869D2*
X17832D1*
X19949D2*
X20372D1*
X22489D2*
X22912D1*
X25029D2*
X25452D1*
X27569D2*
X27992D1*
X30109D2*
X30216D1*
X14869Y11227D2*
X17832D1*
X19949D2*
X20372D1*
X22489D2*
X22912D1*
X25029D2*
X25452D1*
X27569D2*
X27992D1*
X14869Y11104D2*
X17832D1*
X19949D2*
X20372D1*
X22489D2*
X22912D1*
X25029D2*
X25452D1*
X27569D2*
X27992D1*
X14869Y10980D2*
X17832D1*
X19949D2*
X20372D1*
X22489D2*
X22912D1*
X25029D2*
X25452D1*
X27569D2*
X27992D1*
X14869Y10856D2*
X17832D1*
X19949D2*
X20372D1*
X22489D2*
X22912D1*
X25029D2*
X25452D1*
X27569D2*
X27992D1*
X14869Y10733D2*
X17832D1*
X19949D2*
X20372D1*
X22489D2*
X22912D1*
X25029D2*
X25452D1*
X27569D2*
X27992D1*
X12828Y12266D2*
X14856D1*
Y10721D1*
X15074Y10724D1*
X17846D1*
X17844Y11196D1*
Y12266D1*
X19936D1*
Y10721D1*
X20154Y10724D1*
X20386D1*
X20384Y11196D1*
Y12266D1*
X22476D1*
Y10721D1*
X22694Y10724D1*
X22926D1*
X22924Y11196D1*
Y12266D1*
X25016D1*
Y10721D1*
X25234Y10724D1*
X25466D1*
X25464Y11196D1*
Y12266D1*
X27556D1*
Y10721D1*
X27774Y10724D1*
X28006D1*
X28004Y11196D1*
Y12266D1*
X30096D1*
Y11216D1*
X30526Y11648D1*
X31644Y12766D1*
X31443Y12764D1*
X30594D1*
Y14856D1*
X32139D1*
X32137Y15074D1*
Y15306D1*
X31664Y15304D1*
X30594D1*
Y17396D1*
X32139D1*
X32137Y17614D1*
Y17846D1*
X31786Y17844D1*
X31648Y17846D1*
X31443Y17844D1*
X30594D1*
Y19936D1*
X32136D1*
X32137Y20386D1*
X31786Y20384D1*
X31648Y20386D1*
X31443Y20384D1*
X30594D1*
Y22476D1*
X32136D1*
X32137Y22926D1*
X31664Y22924D1*
X30594D1*
Y25016D1*
X31644D1*
X31212Y25446D1*
X29600Y27058D1*
X28866Y27057D1*
X21617D1*
X21650Y26996D1*
X21673Y26937D1*
X21687Y26875D1*
X21692Y26814D1*
X21687Y26751D1*
X21673Y26689D1*
X21650Y26630D1*
X21618Y26575D1*
X21578Y26525D1*
X21532Y26482D1*
X21479Y26446D1*
X21422Y26419D1*
X21362Y26400D1*
X21299Y26391D1*
X21235D1*
X21173Y26401D1*
X21112Y26419D1*
X21055Y26447D1*
X21003Y26483D1*
X20956Y26526D1*
X20917Y26576D1*
X20885Y26631D1*
X20862Y26690D1*
X20848Y26752D1*
X20843Y26815D1*
X20848Y26878D1*
X20862Y26940D1*
X20886Y26999D1*
X20919Y27055D1*
X19722Y27057D1*
X16342D1*
X16392Y27032D1*
X16444Y26996D1*
X16490Y26952D1*
X16530Y26903D1*
X16561Y26848D1*
X16584Y26788D1*
X16598Y26727D1*
X16602Y26665D1*
X16598Y26602D1*
X16583Y26540D1*
X16560Y26481D1*
X16529Y26426D1*
X16489Y26376D1*
X16442Y26333D1*
X16390Y26298D1*
X16333Y26270D1*
X16272Y26251D1*
X16209Y26242D1*
X16146D1*
X16083Y26252D1*
X16023Y26270D1*
X15966Y26298D1*
X15913Y26334D1*
X15867Y26377D1*
X15827Y26427D1*
X15796Y26482D1*
X15773Y26541D1*
X15759Y26603D1*
X15754Y26666D1*
X15759Y26729D1*
X15773Y26791D1*
X15796Y26850D1*
X15828Y26905D1*
X15868Y26954D1*
X15915Y26997D1*
X15967Y27033D1*
X16015Y27056D1*
X14854Y27057D1*
X14856Y26584D1*
Y25514D1*
X12764D1*
Y26564D1*
X12334Y26132D1*
X11216Y25014D1*
X11417Y25016D1*
X12266D1*
Y22924D1*
X10721D1*
X10724Y22706D1*
Y22474D1*
X11196Y22476D1*
X12266D1*
Y20384D1*
X10721D1*
X10724Y20166D1*
Y19934D1*
X11074Y19936D1*
X11212Y19934D1*
X11417Y19936D1*
X12266D1*
Y17844D1*
X10724D1*
Y17394D1*
X11074Y17396D1*
X11212Y17394D1*
X11417Y17396D1*
X12266D1*
Y15304D1*
X10724D1*
Y14854D1*
X11196Y14856D1*
X12266D1*
Y12764D1*
X11216D1*
X11648Y12334D1*
X12766Y11216D1*
X12764Y11417D1*
Y12266D1*
X12828D1*
X28591Y13693D2*
X28576Y13631D1*
X28553Y13572D1*
X28521Y13517D1*
X28482Y13468D1*
X28435Y13425D1*
X28383Y13389D1*
X28326Y13361D1*
X28265Y13343D1*
X28202Y13333D1*
X28139D1*
X28076Y13343D1*
X28016Y13362D1*
X27958Y13389D1*
X27906Y13425D1*
X27860Y13468D1*
X27820Y13518D1*
X27789Y13573D1*
X27765Y13632D1*
X27752Y13694D1*
X27747Y13757D1*
X27752Y13820D1*
X27766Y13882D1*
X27789Y13941D1*
X27821Y13996D1*
X27871Y14055D1*
X27797Y14140D1*
X27766Y14195D1*
X27743Y14254D1*
X27729Y14316D1*
X27724Y14379D1*
X27729Y14442D1*
X27743Y14504D1*
X27767Y14563D1*
X27798Y14618D1*
X27838Y14667D1*
X27885Y14710D1*
X27937Y14746D1*
X27994Y14773D1*
X28055Y14792D1*
X28118Y14801D1*
X28181D1*
X28244Y14791D1*
X28295Y14775D1*
X28286Y14866D1*
X28291Y14929D1*
X28305Y14991D1*
X28328Y15050D1*
X28360Y15105D1*
X28400Y15154D1*
X28447Y15197D1*
X28499Y15233D1*
X28556Y15260D1*
X28617Y15279D1*
X28680Y15288D1*
X28743D1*
X28806Y15278D1*
X28866Y15259D1*
X28924Y15231D1*
X28976Y15195D1*
X29022Y15152D1*
X29062Y15102D1*
X29093Y15047D1*
X29116Y14988D1*
X29130Y14926D1*
X29134Y14865D1*
X29130Y14801D1*
X29115Y14740D1*
X29092Y14681D1*
X29061Y14626D1*
X29021Y14576D1*
X28974Y14533D1*
X28922Y14497D1*
X28865Y14470D1*
X28804Y14451D1*
X28741Y14442D1*
X28678D1*
X28615Y14451D1*
X28564Y14467D1*
X28572Y14378D1*
X28568Y14315D1*
X28554Y14253D1*
X28530Y14194D1*
X28499Y14139D1*
X28446Y14077D1*
X28483Y14044D1*
X28522Y13994D1*
X28554Y13939D1*
X28577Y13880D1*
X28591Y13818D1*
X28595Y13756D1*
X28591Y13693D1*
X18243Y24618D2*
X18229Y24556D1*
X18206Y24497D1*
X18174Y24442D1*
X18134Y24392D1*
X18088Y24349D1*
X18035Y24313D1*
X17978Y24286D1*
X17918Y24267D1*
X17855Y24258D1*
X17791D1*
X17729Y24267D1*
X17668Y24286D1*
X17611Y24314D1*
X17559Y24350D1*
X17512Y24393D1*
X17473Y24442D1*
X17441Y24497D1*
X17418Y24557D1*
X17404Y24618D1*
X17399Y24682D1*
X17404Y24745D1*
X17419Y24807D1*
X17442Y24866D1*
X17474Y24921D1*
X17513Y24970D1*
X17560Y25013D1*
X17613Y25049D1*
X17670Y25076D1*
X17730Y25095D1*
X17793Y25104D1*
X17857D1*
X17919Y25094D1*
X17980Y25075D1*
X18037Y25047D1*
X18089Y25011D1*
X18136Y24968D1*
X18175Y24918D1*
X18206Y24863D1*
X18229Y24804D1*
X18243Y24742D1*
X18248Y24681D1*
X18243Y24618D1*
X28815Y16473D2*
X28801Y16411D1*
X28778Y16352D1*
X28746Y16297D1*
X28707Y16247D1*
X28660Y16204D1*
X28608Y16169D1*
X28550Y16141D1*
X28490Y16122D1*
X28427Y16113D1*
X28364D1*
X28301Y16123D1*
X28240Y16141D1*
X28183Y16169D1*
X28131Y16205D1*
X28084Y16248D1*
X28045Y16298D1*
X28013Y16353D1*
X27990Y16412D1*
X27975Y16495D1*
X27881Y16493D1*
X27809Y16505D1*
X27796Y16454D1*
X27773Y16395D1*
X27741Y16340D1*
X27701Y16290D1*
X27655Y16247D1*
X27602Y16212D1*
X27545Y16184D1*
X27484Y16166D1*
X27422Y16156D1*
X27358D1*
X27296Y16166D1*
X27235Y16185D1*
X27178Y16212D1*
X27125Y16248D1*
X27079Y16291D1*
X27040Y16341D1*
X27008Y16396D1*
X26985Y16455D1*
X26971Y16517D1*
X26966Y16580D1*
X26971Y16643D1*
X26985Y16705D1*
X27009Y16764D1*
X27041Y16819D1*
X27080Y16869D1*
X27127Y16912D1*
X27179Y16947D1*
X27237Y16974D1*
X27297Y16993D1*
X27360Y17002D1*
X27424D1*
X27496Y16989D1*
X27508Y17041D1*
X27532Y17100D1*
X27563Y17155D1*
X27603Y17205D1*
X27650Y17248D1*
X27702Y17283D1*
X27759Y17311D1*
X27820Y17329D1*
X27883Y17339D1*
X27932Y17338D1*
X27908Y17430D1*
X27904Y17493D1*
X27908Y17556D1*
X27923Y17618D1*
X27946Y17677D1*
X27978Y17732D1*
X28018Y17782D1*
X28064Y17825D1*
X28136Y17870D1*
X28091Y17902D1*
X28045Y17945D1*
X28005Y17994D1*
X27974Y18049D1*
X27951Y18109D1*
X27937Y18170D1*
X27932Y18234D1*
X27937Y18297D1*
X27951Y18359D1*
X27975Y18418D1*
X28006Y18473D1*
X28046Y18522D1*
X28093Y18565D1*
X28161Y18608D1*
X28122Y18621D1*
X28065Y18649D1*
X28012Y18685D1*
X27966Y18728D1*
X27927Y18778D1*
X27895Y18833D1*
X27872Y18892D1*
X27858Y18953D1*
X27853Y19017D1*
X27858Y19080D1*
X27872Y19142D1*
X27896Y19201D1*
X27928Y19256D1*
X27967Y19305D1*
X28014Y19348D1*
X28066Y19384D1*
X28124Y19411D1*
X28184Y19430D1*
X28247Y19439D1*
X28310D1*
X28373Y19429D1*
X28434Y19410D1*
X28491Y19382D1*
X28543Y19347D1*
X28589Y19303D1*
X28629Y19253D1*
X28660Y19198D1*
X28683Y19139D1*
X28697Y19077D1*
X28702Y19016D1*
X28697Y18953D1*
X28683Y18891D1*
X28660Y18832D1*
X28628Y18777D1*
X28588Y18727D1*
X28542Y18684D1*
X28473Y18641D1*
X28570Y18599D1*
X28622Y18564D1*
X28668Y18520D1*
X28708Y18470D1*
X28739Y18415D1*
X28762Y18356D1*
X28776Y18294D1*
X28780Y18233D1*
X28776Y18170D1*
X28762Y18108D1*
X28738Y18049D1*
X28707Y17994D1*
X28667Y17944D1*
X28621Y17901D1*
X28548Y17856D1*
X28593Y17823D1*
X28640Y17780D1*
X28679Y17730D1*
X28711Y17675D1*
X28734Y17616D1*
X28747Y17554D1*
X28752Y17492D1*
X28747Y17429D1*
X28733Y17367D1*
X28710Y17308D1*
X28678Y17253D1*
X28639Y17203D1*
X28592Y17160D1*
X28540Y17125D1*
X28482Y17097D1*
X28422Y17079D1*
X28359Y17069D1*
X28309D1*
X28333Y16977D1*
X28335Y16956D1*
X28429Y16959D1*
X28492Y16949D1*
X28552Y16930D1*
X28609Y16903D1*
X28661Y16867D1*
X28708Y16823D1*
X28754Y16762D1*
X28739Y16824D1*
X28735Y16887D1*
X28739Y16950D1*
X28754Y17012D1*
X28777Y17071D1*
X28809Y17126D1*
X28849Y17175D1*
X28895Y17218D1*
X28948Y17254D1*
X29005Y17281D1*
X29066Y17300D1*
X29128Y17309D1*
X29192D1*
X29255Y17299D1*
X29315Y17280D1*
X29372Y17253D1*
X29424Y17217D1*
X29471Y17173D1*
X29510Y17124D1*
X29542Y17069D1*
X29565Y17010D1*
X29578Y16948D1*
X29583Y16886D1*
X29578Y16823D1*
X29564Y16761D1*
X29541Y16702D1*
X29509Y16647D1*
X29470Y16597D1*
X29423Y16554D1*
X29371Y16519D1*
X29313Y16491D1*
X29253Y16473D1*
X29190Y16463D1*
X29127D1*
X29064Y16473D1*
X29003Y16491D1*
X28946Y16519D1*
X28894Y16555D1*
X28847Y16598D1*
X28801Y16660D1*
X28815Y16598D1*
X28820Y16536D1*
X28815Y16473D1*
X27618Y14894D2*
X27604Y14833D1*
X27581Y14774D1*
X27549Y14719D1*
X27510Y14669D1*
X27463Y14626D1*
X27411Y14590D1*
X27353Y14563D1*
X27293Y14544D1*
X27230Y14535D1*
X27167D1*
X27104Y14544D1*
X27043Y14563D1*
X26986Y14591D1*
X26934Y14627D1*
X26887Y14670D1*
X26848Y14719D1*
X26816Y14774D1*
X26793Y14833D1*
X26779Y14895D1*
X26775Y14959D1*
X26779Y15022D1*
X26794Y15084D1*
X26817Y15143D1*
X26849Y15198D1*
X26889Y15247D1*
X26935Y15290D1*
X26988Y15326D1*
X27045Y15353D1*
X27106Y15372D1*
X27168Y15381D1*
X27232D1*
X27295Y15371D1*
X27355Y15352D1*
X27412Y15324D1*
X27464Y15288D1*
X27511Y15245D1*
X27550Y15195D1*
X27582Y15140D1*
X27605Y15081D1*
X27618Y15019D1*
X27623Y14958D1*
X27618Y14894D1*
X18732Y14720D2*
X18717Y14658D1*
X18694Y14599D1*
X18663Y14544D1*
X18623Y14494D1*
X18576Y14451D1*
X18524Y14415D1*
X18467Y14388D1*
X18406Y14369D1*
X18343Y14360D1*
X18280D1*
X18217Y14369D1*
X18157Y14388D1*
X18100Y14416D1*
X18047Y14452D1*
X18001Y14495D1*
X17961Y14545D1*
X17930Y14600D1*
X17907Y14659D1*
X17893Y14721D1*
X17888Y14784D1*
X17893Y14847D1*
X17907Y14909D1*
X17930Y14968D1*
X17962Y15023D1*
X18002Y15072D1*
X18049Y15115D1*
X18101Y15151D1*
X18158Y15178D1*
X18219Y15197D1*
X18282Y15206D1*
X18345D1*
X18408Y15196D1*
X18468Y15177D1*
X18526Y15150D1*
X18578Y15114D1*
X18624Y15070D1*
X18664Y15021D1*
X18695Y14965D1*
X18718Y14906D1*
X18732Y14844D1*
X18736Y14783D1*
X18732Y14720D1*
X15163Y14660D2*
X15149Y14598D1*
X15126Y14539D1*
X15094Y14484D1*
X15055Y14434D1*
X15008Y14391D1*
X14956Y14356D1*
X14899Y14328D1*
X14838Y14310D1*
X14775Y14300D1*
X14712D1*
X14649Y14310D1*
X14588Y14329D1*
X14531Y14356D1*
X14479Y14392D1*
X14432Y14435D1*
X14393Y14485D1*
X14361Y14540D1*
X14338Y14599D1*
X14324Y14661D1*
X14320Y14724D1*
X14325Y14787D1*
X14339Y14849D1*
X14362Y14908D1*
X14408Y14980D1*
X14361Y14993D1*
X14302Y15018D1*
X14247Y15049D1*
X14197Y15088D1*
X14152Y15132D1*
X14112Y15182D1*
X14080Y15237D1*
X14054Y15295D1*
X14036Y15356D1*
X14026Y15418D1*
X14024Y15482D1*
X14030Y15545D1*
X14044Y15607D1*
X14066Y15666D1*
X14095Y15723D1*
X14131Y15775D1*
X14173Y15822D1*
X14221Y15864D1*
X14274Y15899D1*
X14330Y15927D1*
X14390Y15948D1*
X14453Y15961D1*
X14516Y15966D1*
X14579Y15963D1*
X14642Y15953D1*
X14702Y15934D1*
X14760Y15907D1*
X14814Y15874D1*
X14863Y15834D1*
X14907Y15788D1*
X14945Y15737D1*
X14976Y15682D1*
X14999Y15623D1*
X15015Y15562D1*
X15025Y15466D1*
X15021Y15403D1*
X15009Y15340D1*
X14989Y15280D1*
X14962Y15223D1*
X14927Y15170D1*
X14888Y15122D1*
X14957Y15090D1*
X15010Y15054D1*
X15056Y15011D1*
X15095Y14961D1*
X15127Y14906D1*
X15150Y14847D1*
X15164Y14785D1*
X15168Y14723D1*
X15163Y14660D1*
X14138Y16801D2*
X14098Y16764D1*
X14046Y16729D1*
X13989Y16701D1*
X13928Y16682D1*
X13865Y16673D1*
X13802D1*
X13739Y16683D1*
X13679Y16701D1*
X13622Y16729D1*
X13569Y16765D1*
X13523Y16808D1*
X13483Y16858D1*
X13452Y16913D1*
X13429Y16972D1*
X13415Y17034D1*
X13410Y17097D1*
X13415Y17160D1*
X13429Y17222D1*
X13452Y17281D1*
X13484Y17336D1*
X13524Y17385D1*
X13571Y17428D1*
X13623Y17464D1*
X13680Y17491D1*
X13741Y17510D1*
X13804Y17519D1*
X13867D1*
X13930Y17509D1*
X13991Y17490D1*
X14048Y17463D1*
X14100Y17427D1*
X14146Y17383D1*
X14186Y17334D1*
X14217Y17279D1*
X14240Y17219D1*
X14254Y17158D1*
X14257Y17074D1*
X14297Y17112D1*
X14350Y17147D1*
X14407Y17175D1*
X14468Y17193D1*
X14530Y17203D1*
X14594Y17202D1*
X14657Y17193D1*
X14717Y17174D1*
X14774Y17146D1*
X14827Y17110D1*
X14873Y17067D1*
X14912Y17017D1*
X14944Y16962D1*
X14967Y16903D1*
X14981Y16841D1*
X14985Y16780D1*
X14980Y16716D1*
X14966Y16654D1*
X14943Y16595D1*
X14911Y16540D1*
X14872Y16491D1*
X14825Y16448D1*
X14773Y16412D1*
X14715Y16385D1*
X14655Y16366D1*
X14592Y16356D1*
X14529Y16357D1*
X14466Y16366D1*
X14405Y16385D1*
X14348Y16412D1*
X14296Y16448D1*
X14249Y16491D1*
X14210Y16541D1*
X14178Y16596D1*
X14155Y16655D1*
X14141Y16717D1*
X14138Y16802D1*
X25419Y17277D2*
X25405Y17215D1*
X25382Y17156D1*
X25350Y17101D1*
X25310Y17051D1*
X25264Y17008D1*
X25211Y16973D1*
X25154Y16945D1*
X25093Y16927D1*
X25031Y16917D1*
X24967D1*
X24905Y16927D1*
X24844Y16945D1*
X24787Y16973D1*
X24734Y17009D1*
X24688Y17052D1*
X24649Y17102D1*
X24617Y17157D1*
X24594Y17216D1*
X24580Y17278D1*
X24575Y17341D1*
X24580Y17404D1*
X24594Y17466D1*
X24618Y17525D1*
X24650Y17580D1*
X24689Y17629D1*
X24736Y17672D1*
X24788Y17708D1*
X24846Y17735D1*
X24906Y17754D1*
X24969Y17763D1*
X25033D1*
X25095Y17753D1*
X25156Y17734D1*
X25213Y17707D1*
X25265Y17671D1*
X25311Y17627D1*
X25351Y17578D1*
X25382Y17523D1*
X25405Y17464D1*
X25419Y17402D1*
X25424Y17340D1*
X25419Y17277D1*
X16428Y13828D2*
X16414Y13766D1*
X16391Y13707D1*
X16359Y13652D1*
X16319Y13603D1*
X16273Y13559D1*
X16220Y13524D1*
X16163Y13496D1*
X16103Y13478D1*
X16040Y13468D1*
X15976D1*
X15914Y13478D1*
X15853Y13497D1*
X15796Y13524D1*
X15744Y13560D1*
X15697Y13603D1*
X15658Y13653D1*
X15626Y13708D1*
X15603Y13767D1*
X15589Y13829D1*
X15584Y13892D1*
X15589Y13955D1*
X15603Y14017D1*
X15627Y14076D1*
X15659Y14131D1*
X15698Y14181D1*
X15745Y14224D1*
X15797Y14259D1*
X15855Y14287D1*
X15915Y14305D1*
X15978Y14314D1*
X16042D1*
X16104Y14304D1*
X16165Y14286D1*
X16222Y14258D1*
X16274Y14222D1*
X16321Y14179D1*
X16360Y14129D1*
X16391Y14074D1*
X16414Y14015D1*
X16428Y13953D1*
X16433Y13891D1*
X16428Y13828D1*
X13452Y20546D2*
X13438Y20484D1*
X13415Y20425D1*
X13383Y20370D1*
X13344Y20321D1*
X13297Y20277D1*
X13245Y20242D1*
X13187Y20214D1*
X13127Y20196D1*
X13064Y20186D1*
X13001D1*
X12938Y20196D1*
X12877Y20215D1*
X12820Y20242D1*
X12768Y20278D1*
X12721Y20321D1*
X12682Y20371D1*
X12650Y20426D1*
X12627Y20485D1*
X12613Y20547D1*
X12609Y20610D1*
X12613Y20673D1*
X12628Y20735D1*
X12651Y20794D1*
X12683Y20849D1*
X12723Y20899D1*
X12769Y20942D1*
X12822Y20977D1*
X12879Y21005D1*
X12940Y21023D1*
X13002Y21032D1*
X13066D1*
X13129Y21023D1*
X13189Y21004D1*
X13246Y20976D1*
X13298Y20940D1*
X13345Y20897D1*
X13384Y20847D1*
X13416Y20792D1*
X13439Y20733D1*
X13452Y20671D1*
X13457Y20609D1*
X13452Y20546D1*
X22786Y13079D2*
X22774Y13017D1*
X22754Y12956D1*
X22727Y12899D1*
X22693Y12846D1*
X22652Y12797D1*
X22605Y12754D1*
X22553Y12717D1*
X22498Y12687D1*
X22438Y12665D1*
X22377Y12650D1*
X22314Y12643D1*
X22250Y12644D1*
X22187Y12653D1*
X22126Y12669D1*
X22068Y12694D1*
X22013Y12726D1*
X21962Y12764D1*
X21917Y12809D1*
X21878Y12858D1*
X21845Y12913D1*
X21819Y12971D1*
X21802Y13032D1*
X21791Y13094D1*
X21789Y13158D1*
X21795Y13221D1*
X21809Y13283D1*
X21831Y13343D1*
X21860Y13399D1*
X21896Y13451D1*
X21938Y13499D1*
X21986Y13540D1*
X22039Y13576D1*
X22096Y13604D1*
X22156Y13625D1*
X22218Y13638D1*
X22281Y13643D1*
X22344Y13640D1*
X22407Y13629D1*
X22468Y13610D1*
X22525Y13584D1*
X22579Y13550D1*
X22629Y13510D1*
X22672Y13465D1*
X22710Y13413D1*
X22741Y13358D1*
X22765Y13299D1*
X22781Y13238D1*
X22790Y13142D1*
X22786Y13079D1*
X21662Y19046D2*
X21648Y18985D1*
X21625Y18926D1*
X21593Y18871D1*
X21554Y18821D1*
X21507Y18778D1*
X21455Y18742D1*
X21397Y18715D1*
X21337Y18696D1*
X21274Y18687D1*
X21211D1*
X21148Y18696D1*
X21087Y18715D1*
X21030Y18743D1*
X20978Y18778D1*
X20931Y18822D1*
X20892Y18871D1*
X20860Y18926D1*
X20837Y18985D1*
X20823Y19047D1*
X20819Y19111D1*
X20824Y19174D1*
X20838Y19236D1*
X20861Y19295D1*
X20893Y19350D1*
X20933Y19399D1*
X20979Y19442D1*
X21032Y19478D1*
X21089Y19505D1*
X21150Y19524D1*
X21212Y19533D1*
X21286Y19531D1*
X21264Y19586D1*
X21250Y19648D1*
X21246Y19711D1*
X21250Y19775D1*
X21265Y19836D1*
X21288Y19895D1*
X21320Y19950D1*
X21360Y20000D1*
X21406Y20043D1*
X21459Y20078D1*
X21516Y20106D1*
X21577Y20124D1*
X21639Y20134D1*
X21703Y20133D1*
X21766Y20124D1*
X21826Y20105D1*
X21883Y20077D1*
X21935Y20041D1*
X21982Y19998D1*
X22021Y19948D1*
X22053Y19893D1*
X22076Y19834D1*
X22089Y19772D1*
X22094Y19710D1*
X22089Y19647D1*
X22075Y19585D1*
X22052Y19526D1*
X22020Y19471D1*
X21981Y19422D1*
X21934Y19379D1*
X21882Y19343D1*
X21824Y19315D1*
X21764Y19297D1*
X21701Y19287D1*
X21628Y19289D1*
X21649Y19233D1*
X21663Y19171D1*
X21667Y19110D1*
X21662Y19046D1*
X25676Y16075D2*
X25665Y16013D1*
X25647Y15952D1*
X25622Y15893D1*
X25590Y15838D1*
X25553Y15787D1*
X25510Y15741D1*
X25461Y15699D1*
X25409Y15664D1*
X25352Y15635D1*
X25293Y15613D1*
X25231Y15597D1*
X25168Y15589D1*
X25105Y15588D1*
X25042Y15594D1*
X24980Y15608D1*
X24920Y15628D1*
X24862Y15656D1*
X24809Y15689D1*
X24759Y15729D1*
X24715Y15774D1*
X24675Y15824D1*
X24642Y15878D1*
X24616Y15936D1*
X24596Y15996D1*
X24583Y16058D1*
X24577Y16121D1*
X24579Y16185D1*
X24588Y16248D1*
X24604Y16309D1*
X24627Y16368D1*
X24657Y16424D1*
X24693Y16477D1*
X24735Y16524D1*
X24781Y16567D1*
X24833Y16604D1*
X24889Y16635D1*
X24947Y16659D1*
X25008Y16677D1*
X25071Y16687D1*
X25134Y16690D1*
X25198Y16685D1*
X25260Y16674D1*
X25321Y16655D1*
X25379Y16629D1*
X25433Y16597D1*
X25484Y16559D1*
X25530Y16516D1*
X25571Y16467D1*
X25606Y16414D1*
X25634Y16357D1*
X25656Y16297D1*
X25671Y16236D1*
X25679Y16139D1*
X25676Y16075D1*
X23335Y20065D2*
X23321Y20003D1*
X23298Y19944D1*
X23266Y19889D1*
X23226Y19840D1*
X23196Y19811D1*
X23255Y19741D1*
X23287Y19686D1*
X23310Y19627D1*
X23324Y19565D1*
X23328Y19504D1*
X23323Y19441D1*
X23309Y19379D1*
X23286Y19320D1*
X23254Y19265D1*
X23215Y19215D1*
X23168Y19172D1*
X23116Y19136D1*
X23059Y19109D1*
X22998Y19090D1*
X22935Y19081D1*
X22872D1*
X22809Y19090D1*
X22749Y19109D1*
X22691Y19137D1*
X22639Y19173D1*
X22593Y19216D1*
X22553Y19265D1*
X22521Y19320D1*
X22498Y19380D1*
X22484Y19441D1*
X22480Y19505D1*
X22485Y19568D1*
X22499Y19630D1*
X22522Y19689D1*
X22554Y19744D1*
X22594Y19793D1*
X22624Y19821D1*
X22565Y19890D1*
X22533Y19945D1*
X22510Y20004D1*
X22496Y20066D1*
X22491Y20129D1*
X22496Y20193D1*
X22510Y20254D1*
X22534Y20313D1*
X22566Y20368D1*
X22605Y20418D1*
X22652Y20461D1*
X22704Y20496D1*
X22762Y20524D1*
X22822Y20542D1*
X22885Y20552D1*
X22949Y20551D1*
X23011Y20542D1*
X23072Y20523D1*
X23129Y20495D1*
X23181Y20459D1*
X23228Y20416D1*
X23267Y20366D1*
X23298Y20311D1*
X23321Y20252D1*
X23335Y20190D1*
X23340Y20128D1*
X23335Y20065D1*
X25695Y18613D2*
X25681Y18551D1*
X25658Y18492D1*
X25626Y18437D1*
X25586Y18387D1*
X25540Y18344D1*
X25487Y18308D1*
X25430Y18281D1*
X25370Y18262D1*
X25307Y18253D1*
X25243D1*
X25181Y18263D1*
X25120Y18281D1*
X25063Y18309D1*
X25011Y18345D1*
X24964Y18388D1*
X24925Y18438D1*
X24893Y18493D1*
X24870Y18552D1*
X24856Y18614D1*
X24851Y18677D1*
X24856Y18740D1*
X24871Y18802D1*
X24894Y18861D1*
X24926Y18916D1*
X24965Y18965D1*
X25012Y19008D1*
X25065Y19044D1*
X25122Y19071D1*
X25182Y19090D1*
X25245Y19099D1*
X25309D1*
X25371Y19089D1*
X25432Y19070D1*
X25489Y19043D1*
X25541Y19007D1*
X25588Y18963D1*
X25627Y18914D1*
X25658Y18859D1*
X25681Y18799D1*
X25695Y18737D1*
X25700Y18676D1*
X25695Y18613D1*
X26024Y19603D2*
X26010Y19541D1*
X25987Y19482D1*
X25955Y19427D1*
X25916Y19377D1*
X25869Y19334D1*
X25817Y19299D1*
X25759Y19271D1*
X25699Y19252D1*
X25636Y19243D1*
X25573D1*
X25510Y19253D1*
X25449Y19271D1*
X25392Y19299D1*
X25340Y19335D1*
X25293Y19378D1*
X25254Y19428D1*
X25222Y19483D1*
X25199Y19542D1*
X25185Y19604D1*
X25181Y19667D1*
X25185Y19730D1*
X25200Y19792D1*
X25223Y19851D1*
X25255Y19906D1*
X25295Y19955D1*
X25341Y19998D1*
X25394Y20034D1*
X25451Y20061D1*
X25512Y20080D1*
X25574Y20089D1*
X25638D1*
X25701Y20079D1*
X25761Y20060D1*
X25818Y20033D1*
X25870Y19997D1*
X25917Y19953D1*
X25956Y19904D1*
X25988Y19849D1*
X26011Y19789D1*
X26024Y19728D1*
X26029Y19666D1*
X26024Y19603D1*
X25417Y14027D2*
X25406Y13964D1*
X25388Y13903D1*
X25363Y13845D1*
X25331Y13790D1*
X25294Y13739D1*
X25251Y13692D1*
X25202Y13651D1*
X25150Y13616D1*
X25093Y13586D1*
X25034Y13564D1*
X24972Y13549D1*
X24909Y13540D1*
X24846Y13539D1*
X24783Y13546D1*
X24721Y13559D1*
X24661Y13580D1*
X24604Y13607D1*
X24550Y13641D1*
X24500Y13681D1*
X24456Y13726D1*
X24416Y13776D1*
X24383Y13830D1*
X24357Y13887D1*
X24337Y13948D1*
X24324Y14010D1*
X24318Y14073D1*
X24320Y14136D1*
X24329Y14199D1*
X24345Y14261D1*
X24368Y14320D1*
X24398Y14376D1*
X24434Y14428D1*
X24476Y14476D1*
X24523Y14519D1*
X24574Y14556D1*
X24630Y14586D1*
X24688Y14611D1*
X24749Y14628D1*
X24812Y14638D1*
X24875Y14641D1*
X24939Y14637D1*
X25001Y14625D1*
X25062Y14606D1*
X25120Y14581D1*
X25175Y14549D1*
X25225Y14511D1*
X25271Y14467D1*
X25312Y14418D1*
X25347Y14365D1*
X25375Y14309D1*
X25397Y14249D1*
X25412Y14187D1*
X25420Y14090D1*
X25417Y14027D1*
X27226Y20454D2*
X27215Y20391D1*
X27197Y20330D1*
X27172Y20272D1*
X27141Y20217D1*
X27103Y20166D1*
X27060Y20119D1*
X27012Y20078D1*
X26959Y20043D1*
X26903Y20014D1*
X26843Y19991D1*
X26782Y19976D1*
X26719Y19967D1*
X26655Y19966D1*
X26592Y19973D1*
X26530Y19986D1*
X26470Y20007D1*
X26413Y20034D1*
X26359Y20068D1*
X26310Y20108D1*
X26265Y20153D1*
X26226Y20203D1*
X26193Y20257D1*
X26166Y20314D1*
X26146Y20375D1*
X26133Y20437D1*
X26128Y20500D1*
X26129Y20563D1*
X26138Y20626D1*
X26155Y20688D1*
X26178Y20747D1*
X26207Y20803D1*
X26243Y20855D1*
X26285Y20903D1*
X26332Y20946D1*
X26384Y20983D1*
X26439Y21013D1*
X26498Y21038D1*
X26559Y21055D1*
X26621Y21065D1*
X26685Y21068D1*
X26748Y21064D1*
X26810Y21052D1*
X26871Y21034D1*
X26929Y21008D1*
X26984Y20976D1*
X27035Y20938D1*
X27081Y20894D1*
X27121Y20845D1*
X27156Y20792D1*
X27185Y20736D1*
X27206Y20676D1*
X27221Y20614D1*
X27230Y20517D1*
X27226Y20454D1*
X18408Y23565D2*
X18394Y23503D1*
X18371Y23444D1*
X18339Y23389D1*
X18300Y23340D1*
X18253Y23297D1*
X18201Y23261D1*
X18144Y23234D1*
X18083Y23215D1*
X18020Y23206D1*
X17957D1*
X17894Y23215D1*
X17834Y23234D1*
X17776Y23261D1*
X17724Y23297D1*
X17678Y23341D1*
X17638Y23390D1*
X17607Y23445D1*
X17583Y23504D1*
X17569Y23566D1*
X17565Y23629D1*
X17570Y23693D1*
X17584Y23755D1*
X17607Y23814D1*
X17639Y23868D1*
X17679Y23918D1*
X17725Y23961D1*
X17778Y23996D1*
X17835Y24024D1*
X17896Y24042D1*
X17959Y24052D1*
X18022Y24051D1*
X18085Y24042D1*
X18145Y24023D1*
X18202Y23995D1*
X18255Y23959D1*
X18301Y23916D1*
X18340Y23866D1*
X18372Y23811D1*
X18395Y23752D1*
X18409Y23690D1*
X18413Y23629D1*
X18408Y23565D1*
X19815Y20214D2*
X19801Y20153D1*
X19777Y20093D1*
X19746Y20039D1*
X19706Y19989D1*
X19660Y19946D1*
X19607Y19910D1*
X19550Y19883D1*
X19489Y19864D1*
X19427Y19855D1*
X19389D1*
X19385Y19791D1*
X19371Y19729D1*
X19347Y19670D1*
X19316Y19615D1*
X19276Y19566D1*
X19230Y19523D1*
X19177Y19487D1*
X19120Y19460D1*
X19059Y19441D1*
X18997Y19431D1*
X18933Y19432D1*
X18870Y19441D1*
X18810Y19460D1*
X18753Y19487D1*
X18700Y19523D1*
X18654Y19566D1*
X18614Y19616D1*
X18583Y19671D1*
X18560Y19730D1*
X18546Y19792D1*
X18541Y19855D1*
X18546Y19919D1*
X18560Y19980D1*
X18584Y20039D1*
X18616Y20094D1*
X18655Y20144D1*
X18702Y20187D1*
X18754Y20222D1*
X18812Y20250D1*
X18872Y20268D1*
X18935Y20278D1*
X18971Y20279D1*
X18976Y20342D1*
X18990Y20404D1*
X19014Y20463D1*
X19046Y20517D1*
X19085Y20567D1*
X19132Y20610D1*
X19184Y20646D1*
X19242Y20673D1*
X19302Y20691D1*
X19365Y20701D1*
X19428D1*
X19491Y20691D1*
X19552Y20672D1*
X19609Y20644D1*
X19661Y20608D1*
X19707Y20565D1*
X19747Y20515D1*
X19778Y20460D1*
X19801Y20401D1*
X19815Y20339D1*
X19820Y20278D1*
X19815Y20214D1*
X23268Y17951D2*
X23257Y17889D1*
X23239Y17828D1*
X23214Y17769D1*
X23182Y17714D1*
X23145Y17663D1*
X23102Y17617D1*
X23053Y17575D1*
X23001Y17540D1*
X22944Y17511D1*
X22885Y17488D1*
X22823Y17473D1*
X22760Y17465D1*
X22697Y17464D1*
X22634Y17470D1*
X22572Y17484D1*
X22512Y17504D1*
X22455Y17532D1*
X22401Y17565D1*
X22351Y17605D1*
X22307Y17650D1*
X22267Y17700D1*
X22234Y17754D1*
X22208Y17812D1*
X22188Y17872D1*
X22175Y17934D1*
X22169Y17997D1*
X22171Y18061D1*
X22180Y18124D1*
X22196Y18185D1*
X22219Y18244D1*
X22249Y18300D1*
X22285Y18352D1*
X22327Y18400D1*
X22374Y18443D1*
X22425Y18480D1*
X22481Y18511D1*
X22539Y18535D1*
X22600Y18552D1*
X22663Y18563D1*
X22726Y18566D1*
X22790Y18561D1*
X22852Y18550D1*
X22913Y18531D1*
X22971Y18505D1*
X23026Y18473D1*
X23076Y18435D1*
X23122Y18391D1*
X23163Y18343D1*
X23198Y18290D1*
X23226Y18233D1*
X23248Y18173D1*
X23263Y18112D1*
X23271Y18014D1*
X23268Y17951D1*
X16361Y20874D2*
X16347Y20812D1*
X16323Y20753D1*
X16292Y20698D1*
X16252Y20648D1*
X16206Y20605D1*
X16153Y20570D1*
X16096Y20542D1*
X16035Y20523D1*
X15973Y20514D1*
X15909D1*
X15846Y20524D1*
X15786Y20542D1*
X15729Y20570D1*
X15676Y20606D1*
X15630Y20649D1*
X15590Y20699D1*
X15559Y20754D1*
X15536Y20813D1*
X15522Y20875D1*
X15517Y20938D1*
X15522Y21001D1*
X15536Y21063D1*
X15560Y21122D1*
X15591Y21177D1*
X15631Y21226D1*
X15678Y21269D1*
X15730Y21305D1*
X15787Y21332D1*
X15848Y21351D1*
X15911Y21360D1*
X15974D1*
X16037Y21350D1*
X16098Y21331D1*
X16155Y21304D1*
X16207Y21268D1*
X16253Y21224D1*
X16293Y21175D1*
X16324Y21120D1*
X16347Y21060D1*
X16361Y20999D1*
X16365Y20937D1*
X16361Y20874D1*
X18834Y20749D2*
X18820Y20687D1*
X18797Y20628D1*
X18765Y20573D1*
X18726Y20523D1*
X18679Y20480D1*
X18627Y20445D1*
X18570Y20417D1*
X18509Y20399D1*
X18446Y20389D1*
X18383D1*
X18320Y20399D1*
X18260Y20418D1*
X18202Y20445D1*
X18150Y20481D1*
X18104Y20524D1*
X18064Y20574D1*
X18032Y20629D1*
X18009Y20688D1*
X17995Y20750D1*
X17991Y20813D1*
X17996Y20876D1*
X18010Y20938D1*
X18033Y20997D1*
X18065Y21052D1*
X18105Y21102D1*
X18151Y21145D1*
X18196Y21175D1*
X18140Y21182D1*
X18079Y21201D1*
X18022Y21229D1*
X17969Y21265D1*
X17923Y21308D1*
X17884Y21357D1*
X17852Y21412D1*
X17829Y21472D1*
X17815Y21533D1*
X17810Y21597D1*
X17815Y21660D1*
X17829Y21722D1*
X17853Y21781D1*
X17885Y21836D1*
X17924Y21885D1*
X17971Y21928D1*
X18023Y21964D1*
X18081Y21991D1*
X18141Y22010D1*
X18204Y22019D1*
X18268D1*
X18330Y22009D1*
X18391Y21990D1*
X18448Y21962D1*
X18500Y21926D1*
X18546Y21883D1*
X18586Y21833D1*
X18617Y21778D1*
X18640Y21719D1*
X18654Y21657D1*
X18659Y21596D1*
X18654Y21533D1*
X18640Y21471D1*
X18617Y21412D1*
X18585Y21357D1*
X18545Y21307D1*
X18499Y21264D1*
X18454Y21234D1*
X18511Y21225D1*
X18571Y21206D1*
X18628Y21179D1*
X18681Y21143D1*
X18727Y21100D1*
X18766Y21050D1*
X18798Y20995D1*
X18821Y20936D1*
X18835Y20874D1*
X18839Y20812D1*
X18834Y20749D1*
X20665Y19560D2*
X20650Y19498D1*
X20627Y19439D1*
X20595Y19384D1*
X20556Y19335D1*
X20509Y19292D1*
X20457Y19256D1*
X20400Y19229D1*
X20339Y19210D1*
X20276Y19201D1*
X20213D1*
X20150Y19210D1*
X20090Y19229D1*
X20032Y19256D1*
X19980Y19292D1*
X19934Y19336D1*
X19894Y19385D1*
X19863Y19440D1*
X19839Y19499D1*
X19826Y19561D1*
X19821Y19624D1*
X19826Y19688D1*
X19840Y19750D1*
X19863Y19809D1*
X19895Y19863D1*
X19935Y19913D1*
X19982Y19956D1*
X20034Y19991D1*
X20091Y20019D1*
X20152Y20037D1*
X20215Y20047D1*
X20278Y20046D1*
X20341Y20037D1*
X20401Y20018D1*
X20458Y19990D1*
X20511Y19954D1*
X20557Y19911D1*
X20596Y19861D1*
X20628Y19806D1*
X20651Y19747D1*
X20665Y19685D1*
X20669Y19624D1*
X20665Y19560D1*
X20625Y25121D2*
X20614Y25059D1*
X20596Y24998D1*
X20572Y24939D1*
X20540Y24884D1*
X20503Y24833D1*
X20459Y24787D1*
X20411Y24745D1*
X20358Y24710D1*
X20302Y24681D1*
X20243Y24659D1*
X20181Y24643D1*
X20118Y24635D1*
X20055Y24634D1*
X19992Y24640D1*
X19930Y24654D1*
X19869Y24674D1*
X19812Y24702D1*
X19758Y24735D1*
X19709Y24775D1*
X19664Y24820D1*
X19625Y24870D1*
X19592Y24924D1*
X19565Y24982D1*
X19545Y25042D1*
X19533Y25104D1*
X19527Y25167D1*
X19529Y25231D1*
X19538Y25294D1*
X19554Y25355D1*
X19577Y25414D1*
X19607Y25470D1*
X19643Y25523D1*
X19684Y25570D1*
X19731Y25613D1*
X19783Y25650D1*
X19838Y25681D1*
X19897Y25705D1*
X19958Y25722D1*
X20021Y25733D1*
X20084Y25736D1*
X20147Y25731D1*
X20210Y25720D1*
X20270Y25701D1*
X20328Y25675D1*
X20383Y25643D1*
X20434Y25605D1*
X20480Y25562D1*
X20521Y25513D1*
X20555Y25460D1*
X20584Y25403D1*
X20606Y25343D1*
X20620Y25282D1*
X20629Y25185D1*
X20625Y25121D1*
X20351Y18115D2*
X20337Y18053D1*
X20314Y17994D1*
X20282Y17939D1*
X20242Y17890D1*
X20196Y17847D1*
X20143Y17811D1*
X20086Y17784D1*
X20025Y17765D1*
X19963Y17755D1*
X19899Y17756D1*
X19837Y17765D1*
X19776Y17784D1*
X19719Y17811D1*
X19666Y17847D1*
X19620Y17890D1*
X19581Y17940D1*
X19549Y17995D1*
X19526Y18054D1*
X19512Y18116D1*
X19507Y18179D1*
X19512Y18243D1*
X19526Y18304D1*
X19550Y18363D1*
X19582Y18418D1*
X19621Y18468D1*
X19668Y18511D1*
X19720Y18546D1*
X19778Y18574D1*
X19838Y18592D1*
X19901Y18602D1*
X19964Y18601D1*
X20027Y18592D1*
X20088Y18573D1*
X20145Y18545D1*
X20197Y18509D1*
X20243Y18466D1*
X20283Y18416D1*
X20314Y18361D1*
X20337Y18302D1*
X20351Y18240D1*
X20356Y18179D1*
X20351Y18115D1*
X22509Y18815D2*
X22495Y18754D1*
X22472Y18695D1*
X22440Y18640D1*
X22400Y18590D1*
X22354Y18547D1*
X22301Y18511D1*
X22244Y18484D1*
X22184Y18465D1*
X22121Y18456D1*
X22057D1*
X21995Y18465D1*
X21934Y18484D1*
X21877Y18512D1*
X21825Y18547D1*
X21778Y18591D1*
X21739Y18640D1*
X21707Y18695D1*
X21684Y18754D1*
X21670Y18816D1*
X21665Y18880D1*
X21670Y18943D1*
X21685Y19005D1*
X21708Y19064D1*
X21740Y19119D1*
X21779Y19168D1*
X21826Y19211D1*
X21879Y19247D1*
X21936Y19274D1*
X21997Y19293D1*
X22059Y19302D1*
X22123D1*
X22185Y19292D1*
X22246Y19273D1*
X22303Y19245D1*
X22355Y19209D1*
X22402Y19166D1*
X22441Y19116D1*
X22473Y19061D1*
X22495Y19002D1*
X22509Y18940D1*
X22514Y18879D1*
X22509Y18815D1*
X27026Y13685D2*
X27012Y13623D1*
X26989Y13564D1*
X26957Y13509D1*
X26931Y13476D1*
X26995Y13400D1*
X27027Y13345D1*
X27049Y13286D1*
X27063Y13224D1*
X27068Y13162D1*
X27063Y13099D1*
X27049Y13037D1*
X27026Y12978D1*
X26994Y12923D1*
X26954Y12874D1*
X26908Y12831D1*
X26855Y12795D1*
X26798Y12767D1*
X26738Y12749D1*
X26675Y12739D1*
X26611D1*
X26549Y12749D1*
X26488Y12768D1*
X26431Y12795D1*
X26379Y12831D1*
X26332Y12874D1*
X26293Y12924D1*
X26261Y12979D1*
X26238Y13038D1*
X26224Y13100D1*
X26219Y13163D1*
X26224Y13226D1*
X26239Y13288D1*
X26262Y13347D1*
X26294Y13402D1*
X26320Y13435D1*
X26256Y13510D1*
X26224Y13565D1*
X26201Y13624D1*
X26187Y13686D1*
X26183Y13749D1*
X26187Y13812D1*
X26202Y13874D1*
X26225Y13933D1*
X26257Y13988D1*
X26297Y14037D1*
X26343Y14080D1*
X26396Y14116D1*
X26453Y14143D1*
X26514Y14162D1*
X26576Y14171D1*
X26640D1*
X26702Y14161D1*
X26763Y14142D1*
X26820Y14115D1*
X26872Y14079D1*
X26919Y14035D1*
X26958Y13986D1*
X26990Y13931D1*
X27013Y13871D1*
X27026Y13809D1*
X27031Y13748D1*
X27026Y13685D1*
X24822Y23150D2*
X24811Y23087D1*
X24793Y23026D1*
X24768Y22968D1*
X24737Y22913D1*
X24699Y22862D1*
X24656Y22815D1*
X24608Y22774D1*
X24555Y22739D1*
X24499Y22709D1*
X24439Y22687D1*
X24378Y22672D1*
X24315Y22663D1*
X24251Y22662D1*
X24188Y22669D1*
X24126Y22682D1*
X24066Y22703D1*
X24009Y22730D1*
X23955Y22764D1*
X23906Y22804D1*
X23861Y22849D1*
X23822Y22899D1*
X23789Y22953D1*
X23762Y23010D1*
X23742Y23071D1*
X23729Y23133D1*
X23724Y23196D1*
X23725Y23259D1*
X23734Y23322D1*
X23751Y23384D1*
X23774Y23443D1*
X23803Y23499D1*
X23839Y23551D1*
X23881Y23599D1*
X23928Y23642D1*
X23980Y23679D1*
X24035Y23709D1*
X24094Y23734D1*
X24155Y23751D1*
X24217Y23761D1*
X24281Y23764D1*
X24344Y23760D1*
X24406Y23748D1*
X24467Y23729D1*
X24525Y23704D1*
X24580Y23672D1*
X24631Y23634D1*
X24677Y23590D1*
X24717Y23541D1*
X24752Y23488D1*
X24781Y23432D1*
X24802Y23372D1*
X24817Y23310D1*
X24826Y23213D1*
X24822Y23150D1*
X27576Y18169D2*
X27562Y18107D1*
X27539Y18048D1*
X27507Y17993D1*
X27468Y17943D1*
X27421Y17900D1*
X27369Y17865D1*
X27312Y17837D1*
X27251Y17819D1*
X27188Y17809D1*
X27111Y17811D1*
X27148Y17777D1*
X27187Y17727D1*
X27218Y17672D1*
X27241Y17613D1*
X27255Y17551D1*
X27260Y17489D1*
X27255Y17426D1*
X27241Y17364D1*
X27218Y17305D1*
X27186Y17250D1*
X27146Y17201D1*
X27100Y17158D1*
X27047Y17122D1*
X26990Y17094D1*
X26930Y17076D1*
X26867Y17066D1*
X26803Y17067D1*
X26741Y17076D1*
X26680Y17095D1*
X26623Y17122D1*
X26571Y17158D1*
X26524Y17201D1*
X26485Y17251D1*
X26453Y17306D1*
X26430Y17365D1*
X26416Y17427D1*
X26411Y17490D1*
X26416Y17554D1*
X26430Y17615D1*
X26454Y17674D1*
X26486Y17729D1*
X26525Y17779D1*
X26572Y17822D1*
X26624Y17857D1*
X26682Y17885D1*
X26742Y17903D1*
X26805Y17913D1*
X26882Y17910D1*
X26846Y17944D1*
X26806Y17994D1*
X26775Y18049D1*
X26751Y18108D1*
X26737Y18170D1*
X26733Y18233D1*
X26738Y18296D1*
X26752Y18358D1*
X26775Y18417D1*
X26807Y18472D1*
X26847Y18521D1*
X26893Y18564D1*
X26946Y18600D1*
X27003Y18627D1*
X27064Y18646D1*
X27127Y18655D1*
X27190D1*
X27253Y18645D1*
X27313Y18626D1*
X27370Y18599D1*
X27423Y18563D1*
X27469Y18519D1*
X27508Y18470D1*
X27540Y18415D1*
X27563Y18356D1*
X27577Y18294D1*
X27581Y18232D1*
X27576Y18169D1*
X29642Y15684D2*
X29628Y15622D1*
X29605Y15563D1*
X29573Y15508D1*
X29534Y15458D1*
X29487Y15415D1*
X29435Y15379D1*
X29378Y15352D1*
X29317Y15333D1*
X29254Y15324D1*
X29191D1*
X29128Y15334D1*
X29067Y15352D1*
X29010Y15380D1*
X28958Y15416D1*
X28912Y15459D1*
X28872Y15509D1*
X28840Y15564D1*
X28817Y15623D1*
X28803Y15685D1*
X28799Y15748D1*
X28804Y15811D1*
X28818Y15873D1*
X28841Y15932D1*
X28873Y15987D1*
X28913Y16036D1*
X28959Y16079D1*
X29012Y16115D1*
X29069Y16142D1*
X29130Y16161D1*
X29193Y16170D1*
X29256D1*
X29319Y16160D1*
X29379Y16141D1*
X29436Y16114D1*
X29489Y16078D1*
X29535Y16034D1*
X29574Y15985D1*
X29606Y15930D1*
X29629Y15870D1*
X29643Y15808D1*
X29647Y15747D1*
X29642Y15684D1*
X19491Y17923D2*
X19477Y17861D1*
X19454Y17802D1*
X19422Y17747D1*
X19383Y17698D1*
X19336Y17655D1*
X19284Y17619D1*
X19226Y17592D1*
X19166Y17573D1*
X19103Y17563D1*
X19040Y17564D1*
X18977Y17573D1*
X18916Y17592D1*
X18859Y17619D1*
X18807Y17655D1*
X18760Y17698D1*
X18721Y17748D1*
X18689Y17803D1*
X18666Y17862D1*
X18652Y17924D1*
X18648Y17987D1*
X18652Y18051D1*
X18667Y18112D1*
X18690Y18171D1*
X18722Y18226D1*
X18762Y18276D1*
X18808Y18319D1*
X18861Y18354D1*
X18918Y18382D1*
X18979Y18400D1*
X19041Y18410D1*
X19105Y18409D1*
X19168Y18400D1*
X19228Y18381D1*
X19285Y18353D1*
X19337Y18317D1*
X19384Y18274D1*
X19423Y18224D1*
X19455Y18169D1*
X19478Y18110D1*
X19491Y18048D1*
X19496Y17987D1*
X19491Y17923D1*
X19545Y24120D2*
X19534Y24058D1*
X19516Y23997D1*
X19491Y23938D1*
X19460Y23883D1*
X19422Y23832D1*
X19379Y23786D1*
X19331Y23744D1*
X19278Y23709D1*
X19222Y23680D1*
X19162Y23658D1*
X19101Y23642D1*
X19038Y23634D1*
X18974Y23633D1*
X18911Y23639D1*
X18849Y23653D1*
X18789Y23673D1*
X18732Y23701D1*
X18678Y23734D1*
X18629Y23774D1*
X18584Y23819D1*
X18545Y23869D1*
X18512Y23923D1*
X18485Y23981D1*
X18465Y24041D1*
X18452Y24103D1*
X18447Y24166D1*
X18448Y24230D1*
X18457Y24293D1*
X18473Y24354D1*
X18496Y24413D1*
X18526Y24469D1*
X18562Y24522D1*
X18604Y24569D1*
X18651Y24612D1*
X18702Y24649D1*
X18758Y24680D1*
X18817Y24704D1*
X18878Y24722D1*
X18940Y24732D1*
X19004Y24735D1*
X19067Y24730D1*
X19129Y24719D1*
X19190Y24700D1*
X19248Y24674D1*
X19303Y24642D1*
X19354Y24604D1*
X19400Y24561D1*
X19440Y24512D1*
X19475Y24459D1*
X19503Y24402D1*
X19525Y24342D1*
X19540Y24281D1*
X19549Y24184D1*
X19545Y24120D1*
X15593Y21974D2*
X15579Y21912D1*
X15556Y21853D1*
X15524Y21798D1*
X15485Y21749D1*
X15438Y21706D1*
X15386Y21670D1*
X15328Y21642D1*
X15268Y21624D1*
X15205Y21614D1*
X15142D1*
X15079Y21624D1*
X15018Y21643D1*
X14961Y21670D1*
X14909Y21706D1*
X14862Y21749D1*
X14823Y21799D1*
X14791Y21854D1*
X14768Y21913D1*
X14754Y21975D1*
X14750Y22038D1*
X14755Y22102D1*
X14769Y22163D1*
X14792Y22222D1*
X14824Y22277D1*
X14864Y22327D1*
X14910Y22370D1*
X14963Y22405D1*
X15020Y22433D1*
X15081Y22451D1*
X15143Y22460D1*
X15207D1*
X15270Y22451D1*
X15330Y22432D1*
X15387Y22404D1*
X15439Y22368D1*
X15486Y22325D1*
X15525Y22275D1*
X15557Y22220D1*
X15580Y22161D1*
X15594Y22099D1*
X15598Y22037D1*
X15593Y21974D1*
X28721Y21186D2*
X28707Y21124D1*
X28684Y21065D1*
X28652Y21010D1*
X28613Y20960D1*
X28566Y20917D1*
X28514Y20882D1*
X28457Y20854D1*
X28396Y20836D1*
X28333Y20826D1*
X28270D1*
X28207Y20836D1*
X28146Y20854D1*
X28089Y20882D1*
X28037Y20918D1*
X27990Y20961D1*
X27951Y21011D1*
X27919Y21066D1*
X27896Y21125D1*
X27882Y21187D1*
X27878Y21250D1*
X27883Y21313D1*
X27897Y21375D1*
X27920Y21434D1*
X27952Y21489D1*
X27992Y21538D1*
X28038Y21581D1*
X28091Y21617D1*
X28148Y21644D1*
X28209Y21663D1*
X28271Y21672D1*
X28335D1*
X28398Y21662D1*
X28458Y21643D1*
X28515Y21616D1*
X28568Y21580D1*
X28614Y21536D1*
X28653Y21487D1*
X28685Y21432D1*
X28708Y21373D1*
X28722Y21311D1*
X28726Y21249D1*
X28721Y21186D1*
X13186Y14899D2*
X13171Y14837D1*
X13148Y14778D1*
X13117Y14723D1*
X13077Y14673D1*
X13030Y14630D1*
X12978Y14594D1*
X12921Y14567D1*
X12860Y14548D1*
X12797Y14539D1*
X12734D1*
X12671Y14548D1*
X12611Y14567D1*
X12554Y14595D1*
X12501Y14631D1*
X12455Y14674D1*
X12415Y14724D1*
X12384Y14779D1*
X12361Y14838D1*
X12347Y14899D1*
X12342Y14963D1*
X12347Y15026D1*
X12361Y15088D1*
X12384Y15147D1*
X12416Y15202D1*
X12456Y15251D1*
X12503Y15294D1*
X12555Y15330D1*
X12612Y15357D1*
X12673Y15376D1*
X12736Y15385D1*
X12799D1*
X12862Y15375D1*
X12922Y15356D1*
X12980Y15328D1*
X13032Y15293D1*
X13078Y15249D1*
X13118Y15199D1*
X13149Y15144D1*
X13172Y15085D1*
X13186Y15023D1*
X13190Y14962D1*
X13186Y14899D1*
X17634Y19041D2*
X17620Y18979D1*
X17597Y18920D1*
X17565Y18865D1*
X17525Y18815D1*
X17479Y18772D1*
X17426Y18736D1*
X17369Y18709D1*
X17308Y18690D1*
X17246Y18681D1*
X17182D1*
X17120Y18690D1*
X17059Y18709D1*
X17002Y18737D1*
X16949Y18773D1*
X16903Y18816D1*
X16864Y18866D1*
X16832Y18921D1*
X16809Y18980D1*
X16795Y19042D1*
X16790Y19105D1*
X16795Y19168D1*
X16809Y19230D1*
X16833Y19289D1*
X16865Y19344D1*
X16904Y19393D1*
X16951Y19436D1*
X17003Y19472D1*
X17061Y19499D1*
X17121Y19518D1*
X17184Y19527D1*
X17248D1*
X17310Y19517D1*
X17371Y19498D1*
X17428Y19471D1*
X17480Y19435D1*
X17526Y19391D1*
X17566Y19342D1*
X17597Y19286D1*
X17620Y19227D1*
X17634Y19165D1*
X17639Y19104D1*
X17634Y19041D1*
X19017Y16653D2*
X19003Y16591D1*
X18979Y16532D1*
X18948Y16477D1*
X18908Y16428D1*
X18861Y16385D1*
X18809Y16349D1*
X18752Y16322D1*
X18691Y16303D1*
X18628Y16293D1*
X18565Y16294D1*
X18502Y16303D1*
X18442Y16322D1*
X18385Y16349D1*
X18332Y16385D1*
X18286Y16428D1*
X18246Y16478D1*
X18215Y16533D1*
X18192Y16592D1*
X18178Y16654D1*
X18173Y16717D1*
X18178Y16781D1*
X18192Y16842D1*
X18215Y16901D1*
X18247Y16956D1*
X18287Y17006D1*
X18334Y17049D1*
X18386Y17084D1*
X18443Y17112D1*
X18504Y17130D1*
X18567Y17140D1*
X18630Y17139D1*
X18693Y17130D1*
X18754Y17111D1*
X18811Y17083D1*
X18863Y17047D1*
X18909Y17004D1*
X18949Y16954D1*
X18980Y16899D1*
X19003Y16840D1*
X19017Y16778D1*
X19021Y16717D1*
X19017Y16653D1*
X15697Y18660D2*
X15683Y18598D1*
X15660Y18539D1*
X15628Y18485D1*
X15588Y18435D1*
X15542Y18392D1*
X15489Y18356D1*
X15432Y18329D1*
X15371Y18310D1*
X15309Y18301D1*
X15245D1*
X15183Y18310D1*
X15122Y18329D1*
X15065Y18357D1*
X15012Y18392D1*
X14966Y18436D1*
X14927Y18485D1*
X14895Y18540D1*
X14872Y18599D1*
X14858Y18661D1*
X14853Y18725D1*
X14858Y18788D1*
X14872Y18850D1*
X14896Y18909D1*
X14928Y18963D1*
X14967Y19013D1*
X15014Y19056D1*
X15066Y19092D1*
X15124Y19119D1*
X15184Y19137D1*
X15253Y19147D1*
X15242Y19201D1*
X15238Y19264D1*
X15242Y19327D1*
X15257Y19389D1*
X15280Y19448D1*
X15312Y19503D1*
X15352Y19552D1*
X15398Y19595D1*
X15451Y19631D1*
X15508Y19658D1*
X15569Y19677D1*
X15631Y19686D1*
X15695D1*
X15758Y19676D1*
X15818Y19657D1*
X15875Y19630D1*
X15927Y19594D1*
X15974Y19550D1*
X16013Y19501D1*
X16045Y19445D1*
X16068Y19386D1*
X16081Y19324D1*
X16086Y19263D1*
X16081Y19200D1*
X16067Y19138D1*
X16044Y19079D1*
X16012Y19024D1*
X15973Y18974D1*
X15926Y18931D1*
X15874Y18895D1*
X15816Y18868D1*
X15756Y18849D1*
X15683Y18840D1*
X15697Y18785D1*
X15702Y18724D1*
X15697Y18660D1*
X15307Y23111D2*
X15293Y23049D1*
X15270Y22990D1*
X15238Y22935D1*
X15199Y22885D1*
X15152Y22842D1*
X15100Y22807D1*
X15043Y22779D1*
X14982Y22761D1*
X14919Y22751D1*
X14856D1*
X14793Y22761D1*
X14732Y22780D1*
X14675Y22807D1*
X14623Y22843D1*
X14577Y22886D1*
X14537Y22936D1*
X14505Y22991D1*
X14482Y23050D1*
X14468Y23112D1*
X14464Y23175D1*
X14469Y23238D1*
X14483Y23300D1*
X14506Y23359D1*
X14538Y23414D1*
X14578Y23464D1*
X14624Y23507D1*
X14677Y23542D1*
X14734Y23569D1*
X14795Y23588D1*
X14858Y23597D1*
X14921D1*
X14984Y23587D1*
X15044Y23568D1*
X15101Y23541D1*
X15154Y23505D1*
X15200Y23462D1*
X15239Y23412D1*
X15271Y23357D1*
X15294Y23298D1*
X15308Y23236D1*
X15312Y23174D1*
X15307Y23111D1*
X17059Y23039D2*
X17045Y22977D1*
X17022Y22918D1*
X16990Y22863D1*
X16951Y22814D1*
X16904Y22771D1*
X16852Y22735D1*
X16794Y22708D1*
X16734Y22689D1*
X16671Y22680D1*
X16608D1*
X16545Y22689D1*
X16484Y22708D1*
X16427Y22736D1*
X16375Y22771D1*
X16328Y22815D1*
X16289Y22864D1*
X16257Y22919D1*
X16234Y22978D1*
X16220Y23040D1*
X16216Y23103D1*
X16221Y23167D1*
X16235Y23229D1*
X16258Y23288D1*
X16290Y23342D1*
X16330Y23392D1*
X16376Y23435D1*
X16429Y23471D1*
X16486Y23498D1*
X16547Y23516D1*
X16609Y23526D1*
X16673Y23525D1*
X16736Y23516D1*
X16796Y23497D1*
X16853Y23469D1*
X16905Y23433D1*
X16952Y23390D1*
X16991Y23340D1*
X17023Y23285D1*
X17046Y23226D1*
X17060Y23164D1*
X17064Y23103D1*
X17059Y23039D1*
D38*
X13810Y11270D3*
D39*
Y10000D3*
D40*
X31590Y18890D3*
Y21430D3*
D41*
X32860Y18890D3*
Y21430D3*
D38*
X23970Y11270D3*
D39*
Y10000D3*
D38*
X16350Y11270D3*
D39*
Y10000D3*
D38*
X26510Y11270D3*
D39*
Y10000D3*
D40*
X11270Y21430D3*
D47*
X10000D3*
D40*
X31590Y16350D3*
D47*
X32860D3*
D38*
X21430Y11270D3*
D39*
Y10000D3*
D40*
X11270Y18890D3*
Y16350D3*
D41*
X10000Y18890D3*
Y16350D3*
D40*
X11270Y13810D3*
D47*
X10000D3*
D40*
X31590Y23970D3*
D47*
X32860D3*
D40*
X11270D3*
D47*
X10000D3*
D40*
X31590Y13810D3*
D47*
X32860D3*
D38*
X13810Y26510D3*
D39*
Y27780D3*
D38*
X29050Y11270D3*
D39*
Y10000D3*
D61*
X20393Y16931D3*
X21533D3*
X20393Y15911D3*
X21533D3*
Y14861D3*
X20393D3*
X19998Y23224D3*
X20898D3*
X21798D3*
X19998Y22324D3*
X20898D3*
X21798D3*
X19998Y21424D3*
X20898D3*
X21798D3*
D38*
X18890Y11270D3*
D39*
Y10000D3*
M02*
