G04 DipTrace 2.4.0.2*
%INQiUSBCharger.gts*%
%MOMM*%
%ADD10C,0.25*%
%ADD46R,3.7X0.98*%
%ADD58C,0.165*%
%ADD68C,0.35*%
%ADD79R,0.5X0.3*%
%ADD80R,0.3X0.45*%
%ADD81R,0.3X0.55*%
%ADD85O,1.05X0.33*%
%ADD86O,0.33X1.05*%
%ADD87R,1.0X0.663*%
%ADD88R,0.375X0.35*%
%ADD89R,1.55X1.35*%
%ADD90R,0.75X0.5*%
%ADD91R,0.55X0.3*%
%ADD92R,0.55X0.575*%
%ADD93R,2.05X1.75*%
%ADD95R,1.05X1.15*%
%ADD96R,0.95X0.75*%
%ADD97R,1.15X1.05*%
%ADD98R,0.75X0.95*%
%ADD99R,2.082X1.75*%
%ADD100R,1.65X1.75*%
%ADD101R,1.75X2.05*%
%ADD102R,1.75X1.65*%
%FSLAX53Y53*%
G04*
G71*
G90*
G75*
G01*
%LNTopMask*%
%LPD*%
D102*
X13810Y11295D3*
D101*
Y10025D3*
D100*
X31158Y18915D3*
Y21455D3*
D99*
X32428Y18915D3*
Y21455D3*
D102*
X23970Y11295D3*
D101*
Y10025D3*
D98*
X13542Y20620D3*
Y19320D3*
D97*
X14477Y12757D3*
X12777D3*
X14455Y14096D3*
X12755D3*
D96*
X24477Y14623D3*
X25777D3*
X24489Y13593D3*
X25789D3*
D98*
X12548Y20593D3*
Y19293D3*
D96*
X24212Y16664D3*
X25512D3*
X23225Y12673D3*
X21925D3*
D98*
X14519Y20649D3*
Y19349D3*
X17452Y14938D3*
Y13638D3*
X18358Y12703D3*
Y14003D3*
D96*
X17198Y12585D3*
X15898D3*
D98*
X15612Y14976D3*
Y13676D3*
X16524Y14951D3*
Y13651D3*
D96*
X24232Y15602D3*
X25532D3*
X23577Y26748D3*
X22277D3*
X24381Y12671D3*
X25681D3*
D97*
X25229Y24815D3*
X23529D3*
D96*
X16777Y25079D3*
X15477D3*
D97*
X19876Y25881D3*
X18176D3*
D96*
X14640Y17308D3*
X15940D3*
D98*
X16952Y16984D3*
Y18284D3*
D95*
X29669Y22770D3*
Y21070D3*
D98*
X29859Y16399D3*
Y15099D3*
X29845Y12710D3*
Y14010D3*
X13479Y16550D3*
Y15250D3*
D96*
X14009Y22660D3*
X12709D3*
X13998Y21662D3*
X12698D3*
D102*
X16350Y11295D3*
D101*
Y10025D3*
D102*
X26510Y11295D3*
D101*
Y10025D3*
D46*
X28016Y24345D3*
Y26715D3*
D100*
X11270Y21455D3*
D93*
X10000D3*
D100*
X31158Y16375D3*
D93*
X32428D3*
D102*
X21430Y11295D3*
D101*
Y10025D3*
D100*
X11270Y18915D3*
Y16375D3*
D99*
X10000Y18915D3*
Y16375D3*
D98*
X12563Y17433D3*
Y16133D3*
D96*
X24179Y17726D3*
X25479D3*
D98*
X15473Y21194D3*
Y19894D3*
X17887Y18263D3*
Y16963D3*
D96*
X15609Y18275D3*
X14309D3*
X15837Y16328D3*
X14537D3*
X16807Y26021D3*
X15507D3*
D92*
X16313Y21298D3*
D91*
Y20658D3*
Y20158D3*
D92*
Y19523D3*
X17213D3*
D91*
Y20158D3*
Y20658D3*
D92*
Y21298D3*
D90*
X15865Y23190D3*
Y22390D3*
X17365D3*
Y23190D3*
D96*
X15554Y24128D3*
X16854D3*
D98*
X14432Y24973D3*
Y23673D3*
X28940Y12711D3*
Y14011D3*
D89*
X29479Y17684D3*
Y19584D3*
D100*
X11270Y13835D3*
D93*
X10000D3*
D100*
X31158Y23995D3*
D93*
X32428D3*
D100*
X11270D3*
D93*
X10000D3*
D100*
X31158Y13835D3*
D93*
X32428D3*
D102*
X13810Y26535D3*
D101*
Y27805D3*
D102*
X29050Y11295D3*
D101*
Y10025D3*
D96*
X19386Y19173D3*
X18086D3*
D98*
X13413Y23618D3*
Y24918D3*
D88*
X23474Y20252D3*
Y19602D3*
Y18952D3*
X25304D3*
Y19602D3*
Y20252D3*
D87*
X24389Y20068D3*
Y19136D3*
G36*
X21113Y17887D2*
X21383D1*
Y18606D1*
X21113D1*
Y17887D1*
G37*
G36*
X20544Y13266D2*
X20814D1*
Y13987D1*
X20544D1*
Y13266D1*
G37*
G36*
X21113D2*
X21383D1*
Y13987D1*
X21113D1*
Y13266D1*
G37*
X20117Y16949D2*
D58*
X20118Y16968D1*
X20120Y16986D1*
X20123Y17005D1*
X20128Y17023D1*
X20134Y17040D1*
X20142Y17058D1*
X20150Y17074D1*
X20160Y17091D1*
X20171Y17106D1*
X20183Y17121D1*
X20196Y17134D1*
X20210Y17147D1*
X20225Y17159D1*
X20240Y17170D1*
X20257Y17180D1*
X20274Y17189D1*
X20292Y17196D1*
X20310Y17203D1*
X20329Y17208D1*
X20348Y17212D1*
X20367Y17214D1*
X20387Y17216D1*
X20406D1*
X20426Y17214D1*
X20445Y17212D1*
X20464Y17208D1*
X20483Y17203D1*
X20501Y17196D1*
X20519Y17189D1*
X20536Y17180D1*
X20553Y17170D1*
X20569Y17159D1*
X20583Y17147D1*
X20597Y17134D1*
X20610Y17121D1*
X20622Y17106D1*
X20633Y17091D1*
X20643Y17074D1*
X20652Y17058D1*
X20659Y17040D1*
X20665Y17023D1*
X20670Y17005D1*
X20673Y16986D1*
X20675Y16968D1*
X20676Y16949D1*
X20675Y16931D1*
X20673Y16912D1*
X20670Y16894D1*
X20665Y16876D1*
X20659Y16858D1*
X20652Y16841D1*
X20643Y16824D1*
X20633Y16808D1*
X20622Y16793D1*
X20610Y16778D1*
X20597Y16764D1*
X20583Y16751D1*
X20569Y16739D1*
X20553Y16728D1*
X20536Y16719D1*
X20519Y16710D1*
X20501Y16702D1*
X20483Y16696D1*
X20464Y16691D1*
X20445Y16687D1*
X20426Y16684D1*
X20406Y16683D1*
X20387D1*
X20367Y16684D1*
X20348Y16687D1*
X20329Y16691D1*
X20310Y16696D1*
X20292Y16702D1*
X20274Y16710D1*
X20257Y16719D1*
X20240Y16728D1*
X20225Y16739D1*
X20210Y16751D1*
X20196Y16764D1*
X20183Y16778D1*
X20171Y16793D1*
X20160Y16808D1*
X20150Y16824D1*
X20142Y16841D1*
X20134Y16858D1*
X20128Y16876D1*
X20123Y16894D1*
X20120Y16912D1*
X20118Y16931D1*
X20117Y16949D1*
X21258D2*
Y16968D1*
X21260Y16986D1*
X21264Y17005D1*
X21268Y17023D1*
X21275Y17040D1*
X21282Y17058D1*
X21290Y17074D1*
X21300Y17091D1*
X21311Y17106D1*
X21323Y17121D1*
X21336Y17134D1*
X21350Y17147D1*
X21365Y17159D1*
X21381Y17170D1*
X21397Y17180D1*
X21414Y17189D1*
X21432Y17196D1*
X21451Y17203D1*
X21469Y17208D1*
X21488Y17212D1*
X21508Y17214D1*
X21527Y17216D1*
X21547D1*
X21566Y17214D1*
X21585Y17212D1*
X21604Y17208D1*
X21623Y17203D1*
X21641Y17196D1*
X21659Y17189D1*
X21677Y17180D1*
X21693Y17170D1*
X21709Y17159D1*
X21724Y17147D1*
X21738Y17134D1*
X21751Y17121D1*
X21763Y17106D1*
X21774Y17091D1*
X21783Y17074D1*
X21792Y17058D1*
X21799Y17040D1*
X21805Y17023D1*
X21810Y17005D1*
X21813Y16986D1*
X21815Y16968D1*
X21816Y16949D1*
X21815Y16931D1*
X21813Y16912D1*
X21810Y16894D1*
X21805Y16876D1*
X21799Y16858D1*
X21792Y16841D1*
X21783Y16824D1*
X21774Y16808D1*
X21763Y16793D1*
X21751Y16778D1*
X21738Y16764D1*
X21724Y16751D1*
X21709Y16739D1*
X21693Y16728D1*
X21677Y16719D1*
X21659Y16710D1*
X21641Y16702D1*
X21623Y16696D1*
X21604Y16691D1*
X21585Y16687D1*
X21566Y16684D1*
X21547Y16683D1*
X21527D1*
X21508Y16684D1*
X21488Y16687D1*
X21469Y16691D1*
X21451Y16696D1*
X21432Y16702D1*
X21414Y16710D1*
X21397Y16719D1*
X21381Y16728D1*
X21365Y16739D1*
X21350Y16751D1*
X21336Y16764D1*
X21323Y16778D1*
X21311Y16793D1*
X21300Y16808D1*
X21290Y16824D1*
X21282Y16841D1*
X21275Y16858D1*
X21268Y16876D1*
X21264Y16894D1*
X21260Y16912D1*
X21258Y16931D1*
Y16949D1*
X20063Y14526D2*
D10*
X21833D1*
Y17347D1*
X20063D1*
Y14526D1*
G36*
X20544Y13987D2*
X21383D1*
Y17887D1*
X20544D1*
Y13987D1*
G37*
G36*
Y17887D2*
X20814D1*
Y18606D1*
X20544D1*
Y17887D1*
G37*
G36*
X20023Y16177D2*
X21894D1*
Y16693D1*
X20023D1*
Y16177D1*
G37*
X20117Y15929D2*
D58*
X20118Y15948D1*
X20120Y15966D1*
X20123Y15985D1*
X20128Y16003D1*
X20134Y16020D1*
X20142Y16038D1*
X20150Y16054D1*
X20160Y16071D1*
X20171Y16086D1*
X20183Y16101D1*
X20196Y16114D1*
X20210Y16127D1*
X20225Y16139D1*
X20240Y16150D1*
X20257Y16160D1*
X20274Y16169D1*
X20292Y16176D1*
X20310Y16183D1*
X20329Y16188D1*
X20348Y16192D1*
X20367Y16194D1*
X20387Y16196D1*
X20406D1*
X20426Y16194D1*
X20445Y16192D1*
X20464Y16188D1*
X20483Y16183D1*
X20501Y16176D1*
X20519Y16169D1*
X20536Y16160D1*
X20553Y16150D1*
X20569Y16139D1*
X20583Y16127D1*
X20597Y16114D1*
X20610Y16101D1*
X20622Y16086D1*
X20633Y16071D1*
X20643Y16054D1*
X20652Y16038D1*
X20659Y16020D1*
X20665Y16003D1*
X20670Y15985D1*
X20673Y15966D1*
X20675Y15948D1*
X20676Y15929D1*
X20675Y15911D1*
X20673Y15892D1*
X20670Y15874D1*
X20665Y15856D1*
X20659Y15838D1*
X20652Y15821D1*
X20643Y15804D1*
X20633Y15788D1*
X20622Y15773D1*
X20610Y15758D1*
X20597Y15744D1*
X20583Y15731D1*
X20569Y15719D1*
X20553Y15708D1*
X20536Y15699D1*
X20519Y15690D1*
X20501Y15682D1*
X20483Y15676D1*
X20464Y15671D1*
X20445Y15667D1*
X20426Y15664D1*
X20406Y15663D1*
X20387D1*
X20367Y15664D1*
X20348Y15667D1*
X20329Y15671D1*
X20310Y15676D1*
X20292Y15682D1*
X20274Y15690D1*
X20257Y15699D1*
X20240Y15708D1*
X20225Y15719D1*
X20210Y15731D1*
X20196Y15744D1*
X20183Y15758D1*
X20171Y15773D1*
X20160Y15788D1*
X20150Y15804D1*
X20142Y15821D1*
X20134Y15838D1*
X20128Y15856D1*
X20123Y15874D1*
X20120Y15892D1*
X20118Y15911D1*
X20117Y15929D1*
X21258D2*
Y15948D1*
X21260Y15966D1*
X21264Y15985D1*
X21268Y16003D1*
X21275Y16020D1*
X21282Y16038D1*
X21290Y16054D1*
X21300Y16071D1*
X21311Y16086D1*
X21323Y16101D1*
X21336Y16114D1*
X21350Y16127D1*
X21365Y16139D1*
X21381Y16150D1*
X21397Y16160D1*
X21414Y16169D1*
X21432Y16176D1*
X21451Y16183D1*
X21469Y16188D1*
X21488Y16192D1*
X21508Y16194D1*
X21527Y16196D1*
X21547D1*
X21566Y16194D1*
X21585Y16192D1*
X21604Y16188D1*
X21623Y16183D1*
X21641Y16176D1*
X21659Y16169D1*
X21677Y16160D1*
X21693Y16150D1*
X21709Y16139D1*
X21724Y16127D1*
X21738Y16114D1*
X21751Y16101D1*
X21763Y16086D1*
X21774Y16071D1*
X21783Y16054D1*
X21792Y16038D1*
X21799Y16020D1*
X21805Y16003D1*
X21810Y15985D1*
X21813Y15966D1*
X21815Y15948D1*
X21816Y15929D1*
X21815Y15911D1*
X21813Y15892D1*
X21810Y15874D1*
X21805Y15856D1*
X21799Y15838D1*
X21792Y15821D1*
X21783Y15804D1*
X21774Y15788D1*
X21763Y15773D1*
X21751Y15758D1*
X21738Y15744D1*
X21724Y15731D1*
X21709Y15719D1*
X21693Y15708D1*
X21677Y15699D1*
X21659Y15690D1*
X21641Y15682D1*
X21623Y15676D1*
X21604Y15671D1*
X21585Y15667D1*
X21566Y15664D1*
X21547Y15663D1*
X21527D1*
X21508Y15664D1*
X21488Y15667D1*
X21469Y15671D1*
X21451Y15676D1*
X21432Y15682D1*
X21414Y15690D1*
X21397Y15699D1*
X21381Y15708D1*
X21365Y15719D1*
X21350Y15731D1*
X21336Y15744D1*
X21323Y15758D1*
X21311Y15773D1*
X21300Y15788D1*
X21290Y15804D1*
X21282Y15821D1*
X21275Y15838D1*
X21268Y15856D1*
X21264Y15874D1*
X21260Y15892D1*
X21258Y15911D1*
Y15929D1*
Y14879D2*
Y14898D1*
X21260Y14917D1*
X21264Y14935D1*
X21268Y14953D1*
X21275Y14971D1*
X21282Y14988D1*
X21290Y15005D1*
X21300Y15021D1*
X21311Y15036D1*
X21323Y15051D1*
X21336Y15065D1*
X21350Y15078D1*
X21365Y15090D1*
X21381Y15101D1*
X21397Y15110D1*
X21414Y15119D1*
X21432Y15127D1*
X21451Y15133D1*
X21469Y15138D1*
X21488Y15142D1*
X21508Y15145D1*
X21527Y15146D1*
X21547D1*
X21566Y15145D1*
X21585Y15142D1*
X21604Y15138D1*
X21623Y15133D1*
X21641Y15127D1*
X21659Y15119D1*
X21677Y15110D1*
X21693Y15101D1*
X21709Y15090D1*
X21724Y15078D1*
X21738Y15065D1*
X21751Y15051D1*
X21763Y15036D1*
X21774Y15021D1*
X21783Y15005D1*
X21792Y14988D1*
X21799Y14971D1*
X21805Y14953D1*
X21810Y14935D1*
X21813Y14917D1*
X21815Y14898D1*
X21816Y14879D1*
X21815Y14861D1*
X21813Y14842D1*
X21810Y14824D1*
X21805Y14806D1*
X21799Y14788D1*
X21792Y14771D1*
X21783Y14754D1*
X21774Y14738D1*
X21763Y14723D1*
X21751Y14708D1*
X21738Y14694D1*
X21724Y14681D1*
X21709Y14669D1*
X21693Y14658D1*
X21677Y14648D1*
X21659Y14640D1*
X21641Y14632D1*
X21623Y14626D1*
X21604Y14621D1*
X21585Y14617D1*
X21566Y14614D1*
X21547Y14613D1*
X21527D1*
X21508Y14614D1*
X21488Y14617D1*
X21469Y14621D1*
X21451Y14626D1*
X21432Y14632D1*
X21414Y14640D1*
X21397Y14648D1*
X21381Y14658D1*
X21365Y14669D1*
X21350Y14681D1*
X21336Y14694D1*
X21323Y14708D1*
X21311Y14723D1*
X21300Y14738D1*
X21290Y14754D1*
X21282Y14771D1*
X21275Y14788D1*
X21268Y14806D1*
X21264Y14824D1*
X21260Y14842D1*
X21258Y14861D1*
Y14879D1*
X20117D2*
X20118Y14898D1*
X20120Y14917D1*
X20123Y14935D1*
X20128Y14953D1*
X20134Y14971D1*
X20142Y14988D1*
X20150Y15005D1*
X20160Y15021D1*
X20171Y15036D1*
X20183Y15051D1*
X20196Y15065D1*
X20210Y15078D1*
X20225Y15090D1*
X20240Y15101D1*
X20257Y15110D1*
X20274Y15119D1*
X20292Y15127D1*
X20310Y15133D1*
X20329Y15138D1*
X20348Y15142D1*
X20367Y15145D1*
X20387Y15146D1*
X20406D1*
X20426Y15145D1*
X20445Y15142D1*
X20464Y15138D1*
X20483Y15133D1*
X20501Y15127D1*
X20519Y15119D1*
X20536Y15110D1*
X20553Y15101D1*
X20569Y15090D1*
X20583Y15078D1*
X20597Y15065D1*
X20610Y15051D1*
X20622Y15036D1*
X20633Y15021D1*
X20643Y15005D1*
X20652Y14988D1*
X20659Y14971D1*
X20665Y14953D1*
X20670Y14935D1*
X20673Y14917D1*
X20675Y14898D1*
X20676Y14879D1*
X20675Y14861D1*
X20673Y14842D1*
X20670Y14824D1*
X20665Y14806D1*
X20659Y14788D1*
X20652Y14771D1*
X20643Y14754D1*
X20633Y14738D1*
X20622Y14723D1*
X20610Y14708D1*
X20597Y14694D1*
X20583Y14681D1*
X20569Y14669D1*
X20553Y14658D1*
X20536Y14648D1*
X20519Y14640D1*
X20501Y14632D1*
X20483Y14626D1*
X20464Y14621D1*
X20445Y14617D1*
X20426Y14614D1*
X20406Y14613D1*
X20387D1*
X20367Y14614D1*
X20348Y14617D1*
X20329Y14621D1*
X20310Y14626D1*
X20292Y14632D1*
X20274Y14640D1*
X20257Y14648D1*
X20240Y14658D1*
X20225Y14669D1*
X20210Y14681D1*
X20196Y14694D1*
X20183Y14708D1*
X20171Y14723D1*
X20160Y14738D1*
X20150Y14754D1*
X20142Y14771D1*
X20134Y14788D1*
X20128Y14806D1*
X20123Y14824D1*
X20120Y14842D1*
X20118Y14861D1*
X20117Y14879D1*
G36*
X20053Y15157D2*
X21923D1*
Y15673D1*
X20053D1*
Y15157D1*
G37*
D86*
X21713Y13687D3*
X20213D3*
D85*
X19213Y14187D3*
Y14687D3*
Y15187D3*
Y15687D3*
Y16187D3*
Y16687D3*
Y17187D3*
Y17687D3*
D86*
X20213Y18187D3*
X21713D3*
D85*
X22713Y17687D3*
Y17187D3*
Y16687D3*
Y16187D3*
Y15687D3*
Y15187D3*
Y14687D3*
Y14187D3*
X20628Y23246D2*
D58*
Y23265D1*
X20630Y23285D1*
X20633Y23304D1*
X20638Y23323D1*
X20644Y23341D1*
X20651Y23359D1*
X20659Y23377D1*
X20668Y23394D1*
X20678Y23410D1*
X20690Y23425D1*
X20702Y23440D1*
X20716Y23453D1*
X20730Y23466D1*
X20745Y23477D1*
X20761Y23488D1*
X20777Y23497D1*
X20794Y23505D1*
X20812Y23512D1*
X20830Y23517D1*
X20848Y23521D1*
X20866Y23524D1*
X20885Y23525D1*
X20903D1*
X20922Y23524D1*
X20940Y23521D1*
X20959Y23517D1*
X20977Y23512D1*
X20994Y23505D1*
X21011Y23497D1*
X21027Y23488D1*
X21043Y23477D1*
X21058Y23466D1*
X21073Y23453D1*
X21086Y23440D1*
X21098Y23425D1*
X21110Y23410D1*
X21120Y23394D1*
X21130Y23377D1*
X21138Y23359D1*
X21145Y23341D1*
X21150Y23323D1*
X21155Y23304D1*
X21158Y23285D1*
X21160Y23265D1*
X21161Y23246D1*
X21160Y23226D1*
X21158Y23207D1*
X21155Y23188D1*
X21150Y23169D1*
X21145Y23150D1*
X21138Y23132D1*
X21130Y23115D1*
X21120Y23098D1*
X21110Y23081D1*
X21098Y23066D1*
X21086Y23052D1*
X21073Y23038D1*
X21058Y23025D1*
X21043Y23014D1*
X21027Y23004D1*
X21011Y22995D1*
X20994Y22987D1*
X20977Y22980D1*
X20959Y22975D1*
X20940Y22970D1*
X20922Y22968D1*
X20903Y22966D1*
X20885D1*
X20866Y22968D1*
X20848Y22970D1*
X20830Y22975D1*
X20812Y22980D1*
X20794Y22987D1*
X20777Y22995D1*
X20761Y23004D1*
X20745Y23014D1*
X20730Y23025D1*
X20716Y23038D1*
X20702Y23052D1*
X20690Y23066D1*
X20678Y23081D1*
X20668Y23098D1*
X20659Y23115D1*
X20651Y23132D1*
X20644Y23150D1*
X20638Y23169D1*
X20633Y23188D1*
X20630Y23207D1*
X20628Y23226D1*
Y23246D1*
X21531D2*
Y23265D1*
X21533Y23285D1*
X21537Y23304D1*
X21541Y23323D1*
X21547Y23341D1*
X21554Y23359D1*
X21562Y23377D1*
X21571Y23394D1*
X21582Y23410D1*
X21593Y23425D1*
X21606Y23440D1*
X21619Y23453D1*
X21633Y23466D1*
X21648Y23477D1*
X21664Y23488D1*
X21681Y23497D1*
X21698Y23505D1*
X21715Y23512D1*
X21733Y23517D1*
X21751Y23521D1*
X21770Y23524D1*
X21788Y23525D1*
X21807D1*
X21825Y23524D1*
X21844Y23521D1*
X21862Y23517D1*
X21880Y23512D1*
X21897Y23505D1*
X21914Y23497D1*
X21931Y23488D1*
X21946Y23477D1*
X21962Y23466D1*
X21976Y23453D1*
X21989Y23440D1*
X22002Y23425D1*
X22013Y23410D1*
X22023Y23394D1*
X22033Y23377D1*
X22041Y23359D1*
X22048Y23341D1*
X22054Y23323D1*
X22058Y23304D1*
X22061Y23285D1*
X22063Y23265D1*
X22064Y23246D1*
X22063Y23226D1*
X22061Y23207D1*
X22058Y23188D1*
X22054Y23169D1*
X22048Y23150D1*
X22041Y23132D1*
X22033Y23115D1*
X22023Y23098D1*
X22013Y23081D1*
X22002Y23066D1*
X21989Y23052D1*
X21976Y23038D1*
X21962Y23025D1*
X21946Y23014D1*
X21931Y23004D1*
X21914Y22995D1*
X21897Y22987D1*
X21880Y22980D1*
X21862Y22975D1*
X21844Y22970D1*
X21825Y22968D1*
X21807Y22966D1*
X21788D1*
X21770Y22968D1*
X21751Y22970D1*
X21733Y22975D1*
X21715Y22980D1*
X21698Y22987D1*
X21681Y22995D1*
X21664Y23004D1*
X21648Y23014D1*
X21633Y23025D1*
X21619Y23038D1*
X21606Y23052D1*
X21593Y23066D1*
X21582Y23081D1*
X21571Y23098D1*
X21562Y23115D1*
X21554Y23132D1*
X21547Y23150D1*
X21541Y23169D1*
X21537Y23188D1*
X21533Y23207D1*
X21531Y23226D1*
Y23246D1*
X19721Y22349D2*
Y22369D1*
X19723Y22388D1*
X19727Y22407D1*
X19731Y22426D1*
X19737Y22445D1*
X19744Y22463D1*
X19752Y22480D1*
X19761Y22497D1*
X19772Y22513D1*
X19783Y22529D1*
X19796Y22543D1*
X19809Y22557D1*
X19823Y22569D1*
X19838Y22581D1*
X19854Y22591D1*
X19871Y22600D1*
X19888Y22608D1*
X19905Y22615D1*
X19923Y22620D1*
X19941Y22624D1*
X19960Y22627D1*
X19978Y22628D1*
X19997D1*
X20015Y22627D1*
X20034Y22624D1*
X20052Y22620D1*
X20070Y22615D1*
X20087Y22608D1*
X20104Y22600D1*
X20121Y22591D1*
X20137Y22581D1*
X20152Y22569D1*
X20166Y22557D1*
X20179Y22543D1*
X20192Y22529D1*
X20203Y22513D1*
X20214Y22497D1*
X20223Y22480D1*
X20231Y22463D1*
X20238Y22445D1*
X20244Y22426D1*
X20248Y22407D1*
X20251Y22388D1*
X20253Y22369D1*
X20254Y22349D1*
X20253Y22330D1*
X20251Y22310D1*
X20248Y22291D1*
X20244Y22272D1*
X20238Y22254D1*
X20231Y22235D1*
X20223Y22218D1*
X20214Y22201D1*
X20203Y22185D1*
X20192Y22169D1*
X20179Y22155D1*
X20166Y22141D1*
X20152Y22129D1*
X20137Y22117D1*
X20121Y22107D1*
X20104Y22098D1*
X20087Y22090D1*
X20070Y22083D1*
X20052Y22078D1*
X20034Y22074D1*
X20015Y22071D1*
X19997Y22070D1*
X19978D1*
X19960Y22071D1*
X19941Y22074D1*
X19923Y22078D1*
X19905Y22083D1*
X19888Y22090D1*
X19871Y22098D1*
X19854Y22107D1*
X19838Y22117D1*
X19823Y22129D1*
X19809Y22141D1*
X19796Y22155D1*
X19783Y22169D1*
X19772Y22185D1*
X19761Y22201D1*
X19752Y22218D1*
X19744Y22235D1*
X19737Y22254D1*
X19731Y22272D1*
X19727Y22291D1*
X19723Y22310D1*
X19721Y22330D1*
Y22349D1*
X20621Y22346D2*
Y22365D1*
X20623Y22385D1*
X20627Y22404D1*
X20631Y22423D1*
X20637Y22441D1*
X20644Y22459D1*
X20652Y22477D1*
X20661Y22494D1*
X20672Y22510D1*
X20683Y22525D1*
X20696Y22540D1*
X20709Y22553D1*
X20723Y22566D1*
X20738Y22577D1*
X20754Y22588D1*
X20770Y22597D1*
X20787Y22605D1*
X20805Y22611D1*
X20823Y22617D1*
X20841Y22621D1*
X20859Y22624D1*
X20878Y22625D1*
X20897D1*
X20915Y22624D1*
X20934Y22621D1*
X20952Y22617D1*
X20970Y22611D1*
X20987Y22605D1*
X21004Y22597D1*
X21021Y22588D1*
X21036Y22577D1*
X21051Y22566D1*
X21066Y22553D1*
X21079Y22540D1*
X21092Y22525D1*
X21103Y22510D1*
X21113Y22494D1*
X21123Y22477D1*
X21131Y22459D1*
X21138Y22441D1*
X21144Y22423D1*
X21148Y22404D1*
X21151Y22385D1*
X21153Y22365D1*
X21154Y22346D1*
X21153Y22326D1*
X21151Y22307D1*
X21148Y22288D1*
X21144Y22269D1*
X21138Y22250D1*
X21131Y22232D1*
X21123Y22215D1*
X21113Y22198D1*
X21103Y22182D1*
X21092Y22166D1*
X21079Y22152D1*
X21066Y22138D1*
X21051Y22126D1*
X21036Y22114D1*
X21021Y22104D1*
X21004Y22095D1*
X20987Y22087D1*
X20970Y22080D1*
X20952Y22075D1*
X20934Y22071D1*
X20915Y22068D1*
X20897Y22067D1*
X20878D1*
X20859Y22068D1*
X20841Y22071D1*
X20823Y22075D1*
X20805Y22080D1*
X20787Y22087D1*
X20770Y22095D1*
X20754Y22104D1*
X20738Y22114D1*
X20723Y22126D1*
X20709Y22138D1*
X20696Y22152D1*
X20683Y22166D1*
X20672Y22182D1*
X20661Y22198D1*
X20652Y22215D1*
X20644Y22232D1*
X20637Y22250D1*
X20631Y22269D1*
X20627Y22288D1*
X20623Y22307D1*
X20621Y22326D1*
Y22346D1*
X20631D2*
X20632Y22365D1*
X20634Y22385D1*
X20637Y22404D1*
X20641Y22423D1*
X20647Y22441D1*
X20654Y22459D1*
X20662Y22477D1*
X20671Y22494D1*
X20682Y22510D1*
X20693Y22525D1*
X20706Y22540D1*
X20719Y22553D1*
X20733Y22566D1*
X20748Y22577D1*
X20764Y22588D1*
X20781Y22597D1*
X20798Y22605D1*
X20815Y22611D1*
X20833Y22617D1*
X20851Y22621D1*
X20870Y22624D1*
X20888Y22625D1*
X20907D1*
X20925Y22624D1*
X20944Y22621D1*
X20962Y22617D1*
X20980Y22611D1*
X20997Y22605D1*
X21014Y22597D1*
X21031Y22588D1*
X21047Y22577D1*
X21062Y22566D1*
X21076Y22553D1*
X21089Y22540D1*
X21102Y22525D1*
X21113Y22510D1*
X21124Y22494D1*
X21133Y22477D1*
X21141Y22459D1*
X21148Y22441D1*
X21154Y22423D1*
X21158Y22404D1*
X21162Y22385D1*
X21163Y22365D1*
X21164Y22346D1*
X21163Y22326D1*
X21162Y22307D1*
X21158Y22288D1*
X21154Y22269D1*
X21148Y22250D1*
X21141Y22232D1*
X21133Y22215D1*
X21124Y22198D1*
X21113Y22182D1*
X21102Y22166D1*
X21089Y22152D1*
X21076Y22138D1*
X21062Y22126D1*
X21047Y22114D1*
X21031Y22104D1*
X21014Y22095D1*
X20997Y22087D1*
X20980Y22080D1*
X20962Y22075D1*
X20944Y22071D1*
X20925Y22068D1*
X20907Y22067D1*
X20888D1*
X20870Y22068D1*
X20851Y22071D1*
X20833Y22075D1*
X20815Y22080D1*
X20798Y22087D1*
X20781Y22095D1*
X20764Y22104D1*
X20748Y22114D1*
X20733Y22126D1*
X20719Y22138D1*
X20706Y22152D1*
X20693Y22166D1*
X20682Y22182D1*
X20671Y22198D1*
X20662Y22215D1*
X20654Y22232D1*
X20647Y22250D1*
X20641Y22269D1*
X20637Y22288D1*
X20634Y22307D1*
X20632Y22326D1*
X20631Y22346D1*
X21527Y22352D2*
X21528Y22372D1*
X21530Y22391D1*
X21533Y22411D1*
X21538Y22429D1*
X21543Y22448D1*
X21550Y22466D1*
X21559Y22484D1*
X21568Y22500D1*
X21578Y22517D1*
X21590Y22532D1*
X21602Y22546D1*
X21616Y22560D1*
X21630Y22572D1*
X21645Y22584D1*
X21661Y22594D1*
X21677Y22603D1*
X21694Y22611D1*
X21712Y22618D1*
X21729Y22623D1*
X21748Y22627D1*
X21766Y22630D1*
X21785Y22632D1*
X21803D1*
X21822Y22630D1*
X21840Y22627D1*
X21858Y22623D1*
X21876Y22618D1*
X21894Y22611D1*
X21911Y22603D1*
X21927Y22594D1*
X21943Y22584D1*
X21958Y22572D1*
X21972Y22560D1*
X21986Y22546D1*
X21998Y22532D1*
X22010Y22517D1*
X22020Y22500D1*
X22029Y22484D1*
X22038Y22466D1*
X22045Y22448D1*
X22050Y22429D1*
X22055Y22411D1*
X22058Y22391D1*
X22060Y22372D1*
X22061Y22352D1*
X22060Y22333D1*
X22058Y22314D1*
X22055Y22294D1*
X22050Y22275D1*
X22045Y22257D1*
X22038Y22239D1*
X22029Y22221D1*
X22020Y22204D1*
X22010Y22188D1*
X21998Y22173D1*
X21986Y22158D1*
X21972Y22145D1*
X21958Y22132D1*
X21943Y22121D1*
X21927Y22111D1*
X21911Y22101D1*
X21894Y22094D1*
X21876Y22087D1*
X21858Y22082D1*
X21840Y22077D1*
X21822Y22075D1*
X21803Y22073D1*
X21785D1*
X21766Y22075D1*
X21748Y22077D1*
X21729Y22082D1*
X21712Y22087D1*
X21694Y22094D1*
X21677Y22101D1*
X21661Y22111D1*
X21645Y22121D1*
X21630Y22132D1*
X21616Y22145D1*
X21602Y22158D1*
X21590Y22173D1*
X21578Y22188D1*
X21568Y22204D1*
X21559Y22221D1*
X21550Y22239D1*
X21543Y22257D1*
X21538Y22275D1*
X21533Y22294D1*
X21530Y22314D1*
X21528Y22333D1*
X21527Y22352D1*
X20624Y21446D2*
X20625Y21465D1*
X20627Y21485D1*
X20630Y21504D1*
X20634Y21523D1*
X20640Y21541D1*
X20647Y21559D1*
X20655Y21577D1*
X20665Y21594D1*
X20675Y21610D1*
X20686Y21625D1*
X20699Y21640D1*
X20712Y21653D1*
X20727Y21666D1*
X20742Y21677D1*
X20757Y21687D1*
X20774Y21697D1*
X20791Y21705D1*
X20808Y21711D1*
X20826Y21717D1*
X20844Y21721D1*
X20863Y21723D1*
X20881Y21725D1*
X20900D1*
X20919Y21723D1*
X20937Y21721D1*
X20955Y21717D1*
X20973Y21711D1*
X20991Y21705D1*
X21008Y21697D1*
X21024Y21687D1*
X21040Y21677D1*
X21055Y21666D1*
X21069Y21653D1*
X21083Y21640D1*
X21095Y21625D1*
X21106Y21610D1*
X21117Y21594D1*
X21126Y21577D1*
X21134Y21559D1*
X21141Y21541D1*
X21147Y21523D1*
X21152Y21504D1*
X21155Y21485D1*
X21157Y21465D1*
Y21446D1*
Y21426D1*
X21155Y21407D1*
X21152Y21388D1*
X21147Y21369D1*
X21141Y21350D1*
X21134Y21332D1*
X21126Y21315D1*
X21117Y21298D1*
X21106Y21282D1*
X21095Y21266D1*
X21083Y21252D1*
X21069Y21238D1*
X21055Y21226D1*
X21040Y21214D1*
X21024Y21204D1*
X21008Y21195D1*
X20991Y21187D1*
X20973Y21180D1*
X20955Y21175D1*
X20937Y21171D1*
X20919Y21168D1*
X20900Y21167D1*
X20881D1*
X20863Y21168D1*
X20844Y21171D1*
X20826Y21175D1*
X20808Y21180D1*
X20791Y21187D1*
X20774Y21195D1*
X20757Y21204D1*
X20742Y21214D1*
X20727Y21226D1*
X20712Y21238D1*
X20699Y21252D1*
X20686Y21266D1*
X20675Y21282D1*
X20665Y21298D1*
X20655Y21315D1*
X20647Y21332D1*
X20640Y21350D1*
X20634Y21369D1*
X20630Y21388D1*
X20627Y21407D1*
X20625Y21426D1*
X20624Y21446D1*
X19728D2*
Y21465D1*
X19730Y21485D1*
X19733Y21504D1*
X19738Y21523D1*
X19744Y21541D1*
X19751Y21559D1*
X19759Y21577D1*
X19768Y21594D1*
X19779Y21610D1*
X19790Y21625D1*
X19802Y21640D1*
X19816Y21653D1*
X19830Y21666D1*
X19845Y21677D1*
X19861Y21687D1*
X19877Y21697D1*
X19894Y21705D1*
X19912Y21711D1*
X19930Y21717D1*
X19948Y21721D1*
X19966Y21723D1*
X19985Y21725D1*
X20004D1*
X20022Y21723D1*
X20041Y21721D1*
X20059Y21717D1*
X20077Y21711D1*
X20094Y21705D1*
X20111Y21697D1*
X20128Y21687D1*
X20143Y21677D1*
X20158Y21666D1*
X20173Y21653D1*
X20186Y21640D1*
X20198Y21625D1*
X20210Y21610D1*
X20220Y21594D1*
X20230Y21577D1*
X20238Y21559D1*
X20245Y21541D1*
X20251Y21523D1*
X20255Y21504D1*
X20258Y21485D1*
X20260Y21465D1*
X20261Y21446D1*
X20260Y21426D1*
X20258Y21407D1*
X20255Y21388D1*
X20251Y21369D1*
X20245Y21350D1*
X20238Y21332D1*
X20230Y21315D1*
X20220Y21298D1*
X20210Y21282D1*
X20198Y21266D1*
X20186Y21252D1*
X20173Y21238D1*
X20158Y21226D1*
X20143Y21214D1*
X20128Y21204D1*
X20111Y21195D1*
X20094Y21187D1*
X20077Y21180D1*
X20059Y21175D1*
X20041Y21171D1*
X20022Y21168D1*
X20004Y21167D1*
X19985D1*
X19966Y21168D1*
X19948Y21171D1*
X19930Y21175D1*
X19912Y21180D1*
X19894Y21187D1*
X19877Y21195D1*
X19861Y21204D1*
X19845Y21214D1*
X19830Y21226D1*
X19816Y21238D1*
X19802Y21252D1*
X19790Y21266D1*
X19779Y21282D1*
X19768Y21298D1*
X19759Y21315D1*
X19751Y21332D1*
X19744Y21350D1*
X19738Y21369D1*
X19733Y21388D1*
X19730Y21407D1*
X19728Y21426D1*
Y21446D1*
X21531D2*
Y21465D1*
X21533Y21485D1*
X21537Y21504D1*
X21541Y21523D1*
X21547Y21541D1*
X21554Y21559D1*
X21562Y21577D1*
X21571Y21594D1*
X21582Y21610D1*
X21593Y21625D1*
X21606Y21640D1*
X21619Y21653D1*
X21633Y21666D1*
X21648Y21677D1*
X21664Y21687D1*
X21681Y21697D1*
X21698Y21705D1*
X21715Y21711D1*
X21733Y21717D1*
X21751Y21721D1*
X21770Y21723D1*
X21788Y21725D1*
X21807D1*
X21825Y21723D1*
X21844Y21721D1*
X21862Y21717D1*
X21880Y21711D1*
X21897Y21705D1*
X21914Y21697D1*
X21931Y21687D1*
X21946Y21677D1*
X21962Y21666D1*
X21976Y21653D1*
X21989Y21640D1*
X22002Y21625D1*
X22013Y21610D1*
X22023Y21594D1*
X22033Y21577D1*
X22041Y21559D1*
X22048Y21541D1*
X22054Y21523D1*
X22058Y21504D1*
X22061Y21485D1*
X22063Y21465D1*
X22064Y21446D1*
X22063Y21426D1*
X22061Y21407D1*
X22058Y21388D1*
X22054Y21369D1*
X22048Y21350D1*
X22041Y21332D1*
X22033Y21315D1*
X22023Y21298D1*
X22013Y21282D1*
X22002Y21266D1*
X21989Y21252D1*
X21976Y21238D1*
X21962Y21226D1*
X21946Y21214D1*
X21931Y21204D1*
X21914Y21195D1*
X21897Y21187D1*
X21880Y21180D1*
X21862Y21175D1*
X21844Y21171D1*
X21825Y21168D1*
X21807Y21167D1*
X21788D1*
X21770Y21168D1*
X21751Y21171D1*
X21733Y21175D1*
X21715Y21180D1*
X21698Y21187D1*
X21681Y21195D1*
X21664Y21204D1*
X21648Y21214D1*
X21633Y21226D1*
X21619Y21238D1*
X21606Y21252D1*
X21593Y21266D1*
X21582Y21282D1*
X21571Y21298D1*
X21562Y21315D1*
X21554Y21332D1*
X21547Y21350D1*
X21541Y21369D1*
X21537Y21388D1*
X21533Y21407D1*
X21531Y21426D1*
Y21446D1*
X19638Y23616D2*
D10*
X22128D1*
Y21089D1*
X19638D1*
Y23616D1*
G36*
X20231Y23556D2*
X20711D1*
Y21173D1*
X20231D1*
Y23556D1*
G37*
G36*
X19674Y22149D2*
X22151D1*
Y21683D1*
X19674D1*
Y22149D1*
G37*
G36*
X19691Y23009D2*
X22051D1*
Y22542D1*
X19691D1*
Y23009D1*
G37*
G36*
X21121Y23649D2*
X21594D1*
Y21179D1*
X21121D1*
Y23649D1*
G37*
X19754Y23232D2*
D58*
X19755Y23252D1*
X19757Y23271D1*
X19760Y23291D1*
X19765Y23309D1*
X19770Y23328D1*
X19777Y23346D1*
X19785Y23364D1*
X19795Y23381D1*
X19805Y23397D1*
X19817Y23412D1*
X19829Y23427D1*
X19842Y23440D1*
X19857Y23453D1*
X19872Y23464D1*
X19888Y23474D1*
X19904Y23484D1*
X19921Y23492D1*
X19938Y23498D1*
X19956Y23504D1*
X19975Y23508D1*
X19993Y23510D1*
X20012Y23512D1*
X20030D1*
X20049Y23510D1*
X20067Y23508D1*
X20085Y23504D1*
X20103Y23498D1*
X20121Y23492D1*
X20138Y23484D1*
X20154Y23474D1*
X20170Y23464D1*
X20185Y23453D1*
X20199Y23440D1*
X20213Y23427D1*
X20225Y23412D1*
X20237Y23397D1*
X20247Y23381D1*
X20256Y23364D1*
X20264Y23346D1*
X20271Y23328D1*
X20277Y23309D1*
X20282Y23291D1*
X20285Y23271D1*
X20287Y23252D1*
X20288Y23232D1*
X20287Y23213D1*
X20285Y23194D1*
X20282Y23174D1*
X20277Y23155D1*
X20271Y23137D1*
X20264Y23119D1*
X20256Y23101D1*
X20247Y23084D1*
X20237Y23068D1*
X20225Y23053D1*
X20213Y23038D1*
X20199Y23025D1*
X20185Y23012D1*
X20170Y23001D1*
X20154Y22990D1*
X20138Y22981D1*
X20121Y22973D1*
X20103Y22967D1*
X20085Y22961D1*
X20067Y22957D1*
X20049Y22955D1*
X20030Y22953D1*
X20012D1*
X19993Y22955D1*
X19975Y22957D1*
X19956Y22961D1*
X19938Y22967D1*
X19921Y22973D1*
X19904Y22981D1*
X19888Y22990D1*
X19872Y23001D1*
X19857Y23012D1*
X19842Y23025D1*
X19829Y23038D1*
X19817Y23053D1*
X19805Y23068D1*
X19795Y23084D1*
X19785Y23101D1*
X19777Y23119D1*
X19770Y23137D1*
X19765Y23155D1*
X19760Y23174D1*
X19757Y23194D1*
X19755Y23213D1*
X19754Y23232D1*
D85*
X18848Y23599D3*
Y23099D3*
Y22599D3*
Y22099D3*
Y21599D3*
Y21099D3*
D86*
X19648Y20299D3*
X20148D3*
X20648D3*
X21148D3*
X21648D3*
X22148D3*
D85*
X22948Y21099D3*
Y21599D3*
Y22099D3*
Y22599D3*
Y23099D3*
Y23599D3*
D86*
X22148Y24399D3*
X21648D3*
X21148D3*
X20648D3*
X20148D3*
X19648D3*
D68*
X27084Y12993D3*
X27884D3*
X27084Y13393D3*
X27484D3*
X27884D3*
X27084Y13793D3*
X27884D3*
X27084Y14193D3*
X27484D3*
X27884D3*
D91*
X27996Y17754D3*
Y18254D3*
Y18754D3*
D81*
X27396Y18854D3*
D91*
X26796Y18754D3*
Y18254D3*
Y17754D3*
D81*
X27396Y17654D3*
D80*
X28440Y16231D3*
X27940D3*
X27440D3*
D79*
X27365Y15626D3*
D80*
X27440Y15021D3*
X27940D3*
X28440D3*
D79*
X28515Y15626D3*
D102*
X18890Y11295D3*
D101*
Y10025D3*
M02*
