M48
METRIC,0000.00
T01C0.254
T02C0.33
T03C0.381
T04C0.457
T05C1.1
%
T01
X+001782Y+002471
X+001799Y+002365
X+001664Y+002313
X+001489Y+002320
X+001517Y+002206
X+001594Y+002096
X+001566Y+001929
X+001528Y+001875
X+001655Y+001791
X+001721Y+001913
X+001897Y+001988
X+001940Y+002030
X+002025Y+001965
X+002124Y+001914
X+002167Y+001974
X+002209Y+001890
X+002290Y+001953
X+002265Y+002006
X+002525Y+001900
X+002546Y+001844
X+002500Y+001737
X+002684Y+001751
X+002716Y+001826
X+002836Y+001826
X+002833Y+001752
X+002791Y+001694
X+002840Y+001656
X+002916Y+001691
X+002922Y+001577
X+002871Y+001489
X+002815Y+001440
X+002817Y+001378
X+002720Y+001498
X+002663Y+001436
X+002661Y+001377
X+002664Y+001319
X+002543Y+001312
X+002526Y+001127
X+002780Y+001136
X+003071Y+001247
X+003117Y+001764
X+003108Y+002018
X+003113Y+002272
X+002830Y+002127
X+002828Y+001904
X+002739Y+001660
X+002268Y+001119
X+002018Y+001125
X+001767Y+001125
X+001508Y+001127
X+001329Y+001342
X+001277Y+001499
X+001117Y+001512
X+001115Y+001765
X+001105Y+002018
X+001303Y+002063
X+001105Y+002275
X+001218Y+002556
X+001618Y+002669
X+002127Y+002684
X+001823Y+002162
X+001842Y+002084
X+001907Y+001801
X+002001Y+001820
X+001860Y+001674
X+001831Y+001481
X+001601Y+001392
X+001474Y+001475
X+001456Y+001680
X+001383Y+001712
X+001179Y+001243
T02
X+002039Y+001696
X+002039Y+001594
X+002039Y+001489
X+002153Y+001489
X+002153Y+001594
X+002153Y+001696
X+002180Y+002145
X+002090Y+002145
X+002000Y+002145
X+002000Y+002235
X+002090Y+002235
X+002180Y+002235
X+002180Y+002325
X+002090Y+002325
X+002000Y+002325
X+001490Y+002492
X+003066Y+001511
T03
X+002229Y+001317
X+002487Y+001412
X+002513Y+001616
X+002272Y+001792
X+002336Y+002412
X+002008Y+002521
X+001900Y+002421
X+001836Y+002655
X+001452Y+001549
T04
X+002668Y+002054
X+002822Y+001996
X+002427Y+002324
T05
X+001381Y+001130
X+001381Y+001003
X+001635Y+001003
X+001635Y+001130
X+001889Y+001130
X+001889Y+001003
X+002143Y+001003
X+002143Y+001130
X+002397Y+001130
X+002397Y+001003
X+002651Y+001003
X+002651Y+001130
X+002905Y+001130
X+002905Y+001003
X+003116Y+001384
X+003243Y+001384
X+003243Y+001638
X+003116Y+001638
X+003116Y+001892
X+003243Y+001892
X+003243Y+002146
X+003116Y+002146
X+003116Y+002400
X+003243Y+002400
X+001381Y+002654
X+001381Y+002781
X+001127Y+002400
X+001000Y+002400
X+001000Y+002146
X+001127Y+002146
X+001127Y+001892
X+001000Y+001892
X+001000Y+001638
X+001127Y+001638
X+001127Y+001384
X+001000Y+001384
T00
M30
