G04 DipTrace 2.4.0.2*
%INECGADCBufferAry.gtl*%
%MOIN*%
%ADD13C,0.01*%
%ADD14C,0.012*%
%ADD15C,0.0118*%
%ADD16C,0.015*%
%ADD18C,0.006*%
%ADD19R,0.0276X0.0354*%
%ADD20R,0.08X0.0669*%
%ADD21R,0.0669X0.08*%
%ADD22R,0.0453X0.0173*%
%ADD25O,0.0118X0.0335*%
%ADD26O,0.0335X0.0118*%
%ADD27R,0.0591X0.0591*%
%ADD28C,0.028*%
%ADD29C,0.028*%
%FSLAX44Y44*%
G04*
G70*
G90*
G75*
G01*
%LNTop*%
%LPD*%
X6390Y6789D2*
D13*
X6688D1*
X6751Y6852D1*
X6390Y6593D2*
X6492D1*
X6751Y6852D1*
X6591Y6692D1*
X6533D1*
X5248Y6593D2*
D14*
X4915D1*
X4798Y6710D1*
X5248Y6789D2*
X4877D1*
X4798Y6710D1*
X4164D1*
X3937Y6937D1*
X5248Y6396D2*
X4930D1*
X4798Y6265D1*
X5248Y6199D2*
X4864D1*
X4798Y6265D1*
X4265D1*
X3937Y5937D1*
X6390Y6396D2*
X6526D1*
X6752Y6169D1*
X6390Y6199D2*
X6723D1*
X6752Y6169D1*
X6675D1*
X6409Y5904D1*
X7317Y8116D2*
Y7801D1*
Y7486D1*
X6873D1*
X6751Y7364D1*
X7317Y7171D2*
X7314Y7039D1*
Y6660D1*
Y6345D1*
X7491Y7039D2*
X7314D1*
X4798Y7222D2*
X4842D1*
Y8086D1*
X4782Y8146D1*
X5918Y5923D2*
Y5822D1*
X5906Y5811D1*
Y5372D1*
X5770Y5235D1*
X5755D1*
X5423Y4903D1*
X5770Y5235D2*
X5972D1*
X6304Y4904D1*
X5918Y5923D2*
Y6396D1*
X5976Y6338D1*
X4937Y3937D2*
Y4417D1*
X5423Y4903D1*
X5295Y8106D2*
Y8082D1*
X6291D1*
X6313Y8104D1*
X5812Y8103D2*
X6312D1*
X6313Y8104D1*
X5918Y5923D2*
D15*
Y6151D1*
D14*
Y6396D1*
X5819Y6494D1*
X7319Y4893D2*
Y4578D1*
Y4263D1*
X6752Y5658D2*
Y5252D1*
X7127Y4877D1*
X7303D1*
X7319Y4893D1*
X6304Y5416D2*
Y5596D1*
X6115Y5786D1*
Y5923D1*
X8027Y4263D2*
X8283D1*
X8317Y4297D1*
X6304Y5416D2*
X6308D1*
X6577Y5147D1*
Y4557D1*
X6876Y4258D1*
X5524Y5923D2*
Y5516D1*
X5423Y5415D1*
X8022Y5715D2*
Y5595D1*
X7947Y5519D1*
X5423Y5415D2*
X5335D1*
X5173Y5253D1*
X5295Y7594D2*
Y7294D1*
X5524Y7065D1*
X8022Y6345D2*
X7746D1*
X7741Y6340D1*
X5295Y7594D2*
Y7260D1*
X5314Y7242D1*
X6313Y7592D2*
Y7264D1*
X6115Y7065D1*
X8026Y8116D2*
X8205D1*
X8304Y8215D1*
X6313Y7592D2*
Y7552D1*
X6744Y7983D1*
Y8170D1*
X6706D1*
X7314Y6030D2*
Y5715D1*
Y5577D1*
X7429Y5461D1*
Y5318D1*
X7319Y5208D1*
X4798Y5753D2*
Y5289D1*
X4817Y5270D1*
X5918Y7065D2*
D16*
Y7281D1*
X5735Y7464D1*
X5675D1*
X8026Y7486D2*
Y7390D1*
X8089Y7327D1*
X8026Y7486D2*
Y7171D1*
X8027Y5208D2*
Y4893D1*
Y5208D2*
X8205D1*
X8313Y5100D1*
X8234D1*
X8027Y4893D1*
X8026Y7171D2*
Y7263D1*
X8089Y7327D1*
X5812Y7591D2*
X5802D1*
X5675Y7464D1*
X8026Y7801D2*
D14*
X8801D1*
X8937Y7937D1*
X8022Y6660D2*
X8056D1*
X8259Y6862D1*
X8862D1*
X8937Y6937D1*
X8022Y6030D2*
X8844D1*
X8937Y5937D1*
X8027Y4578D2*
X8578D1*
X8937Y4937D1*
D29*
X6533Y6692D3*
X6409Y5904D3*
X6876Y4258D3*
X5130Y4587D3*
X5536Y7943D3*
X5675Y7464D3*
X8304Y8215D3*
X8089Y7327D3*
X7741Y6340D3*
X7947Y5519D3*
X8313Y5100D3*
X8317Y4297D3*
X7491Y7039D3*
X7429Y5461D3*
X4782Y8146D3*
X5314Y7242D3*
X6706Y8170D3*
X5173Y5253D3*
X4817Y5270D3*
X4583Y4829D3*
X4311Y4285D3*
X4581Y7866D3*
X4435Y8356D2*
D18*
X4677D1*
X4886D2*
X5059D1*
X5531D2*
X5576D1*
X6850D2*
X8113D1*
X4435Y8298D2*
X4599D1*
X4964D2*
X5059D1*
X5531D2*
X5576D1*
X6906D2*
X8080D1*
X4435Y8239D2*
X4563D1*
X5001D2*
X5059D1*
X5531D2*
X5576D1*
X6934D2*
X6992D1*
X7641D2*
X7701D1*
X4435Y8180D2*
X4546D1*
X5017D2*
X5059D1*
X5531D2*
X5576D1*
X6944D2*
X6992D1*
X7641D2*
X7701D1*
X4435Y8122D2*
X4544D1*
X5018D2*
X5059D1*
X5531D2*
X5576D1*
X6939D2*
X6992D1*
X7641D2*
X7701D1*
X4435Y8063D2*
X4559D1*
X5004D2*
X5059D1*
X5531D2*
X5576D1*
X6919D2*
X6992D1*
X7641D2*
X7701D1*
X4435Y8004D2*
X4592D1*
X5000D2*
X5059D1*
X5531D2*
X5576D1*
X6903D2*
X6992D1*
X7641D2*
X7701D1*
X4435Y7946D2*
X4659D1*
X5000D2*
X5059D1*
X5531D2*
X5576D1*
X6898D2*
X6992D1*
X7641D2*
X7701D1*
X4435Y7887D2*
X4684D1*
X5000D2*
X5059D1*
X5531D2*
X5576D1*
X6868D2*
X6992D1*
X7641D2*
X7701D1*
X4435Y7828D2*
X4684D1*
X5000D2*
X5059D1*
X5531D2*
X5576D1*
X6811D2*
X6992D1*
X7641D2*
X7701D1*
X4435Y7770D2*
X4684D1*
X5000D2*
X5059D1*
X5531D2*
X5576D1*
X6752D2*
X6992D1*
X7641D2*
X7701D1*
X4435Y7711D2*
X4684D1*
X5000D2*
X5059D1*
X5531D2*
X5576D1*
X6694D2*
X6992D1*
X7641D2*
X7701D1*
X4435Y7652D2*
X4684D1*
X5000D2*
X5059D1*
X6635D2*
X6992D1*
X7641D2*
X7701D1*
X4435Y7594D2*
X4684D1*
X5000D2*
X5059D1*
X7641D2*
X7701D1*
X4435Y7535D2*
X4684D1*
X5000D2*
X5059D1*
X7641D2*
X7701D1*
X3993Y7476D2*
X4562D1*
X7641D2*
X7701D1*
X3993Y7417D2*
X4562D1*
X7641D2*
X7701D1*
X4435Y7359D2*
X4562D1*
X7641D2*
X7701D1*
X4435Y7300D2*
X4562D1*
X5033D2*
X5083D1*
X7641D2*
X7701D1*
X4435Y7241D2*
X4562D1*
X5033D2*
X5076D1*
X7641D2*
X7701D1*
X4435Y7183D2*
X4562D1*
X5033D2*
X5083D1*
X4435Y7124D2*
X4562D1*
X5033D2*
X5108D1*
X4435Y7065D2*
X4562D1*
X5033D2*
X5156D1*
X4435Y7007D2*
X4562D1*
X5033D2*
X5361D1*
X4435Y6948D2*
X4562D1*
X5033D2*
X5367D1*
X4435Y6889D2*
X4562D1*
X4435Y6068D2*
X4562D1*
X7639D2*
X7698D1*
X4435Y6009D2*
X4562D1*
X7639D2*
X7698D1*
X4435Y5950D2*
X4562D1*
X7639D2*
X7698D1*
X4435Y5892D2*
X4562D1*
X7639D2*
X7698D1*
X4435Y5833D2*
X4562D1*
X7639D2*
X7698D1*
X4435Y5774D2*
X4562D1*
X7639D2*
X7698D1*
X4435Y5715D2*
X4562D1*
X7639D2*
X7698D1*
X4435Y5657D2*
X4562D1*
X5682D2*
X6023D1*
X7639D2*
X7698D1*
X4435Y5598D2*
X4562D1*
X5682D2*
X6068D1*
X7639D2*
X7698D1*
X4435Y5539D2*
X4562D1*
X5682D2*
X6068D1*
X7654D2*
X7698D1*
X3981Y5481D2*
X4640D1*
X5678D2*
X6068D1*
X7667D2*
X7712D1*
X3981Y5422D2*
X4635D1*
X5659D2*
X6068D1*
X7664D2*
X7730D1*
X4435Y5363D2*
X4598D1*
X5659D2*
X6068D1*
X7645D2*
X7703D1*
X4435Y5305D2*
X4581D1*
X5659D2*
X6068D1*
X7643D2*
X7703D1*
X4435Y5246D2*
X4580D1*
X5659D2*
X6068D1*
X7643D2*
X7703D1*
X4435Y5187D2*
X4594D1*
X5659D2*
X6068D1*
X7643D2*
X7703D1*
X4435Y5129D2*
X4627D1*
X5659D2*
X6068D1*
X7643D2*
X7703D1*
X4435Y5070D2*
X4693D1*
X4941D2*
X5023D1*
X5659D2*
X6068D1*
X7643D2*
X7703D1*
X4435Y5011D2*
X5186D1*
X5659D2*
X6068D1*
X7643D2*
X7703D1*
X4435Y4953D2*
X5186D1*
X5659D2*
X6068D1*
X7643D2*
X7703D1*
X4435Y4894D2*
X5186D1*
X5659D2*
X6068D1*
X7643D2*
X7703D1*
X4435Y4835D2*
X5186D1*
X5659D2*
X6068D1*
X7643D2*
X7703D1*
X4435Y4776D2*
X5186D1*
X5659D2*
X6068D1*
X7643D2*
X7703D1*
X4435Y4718D2*
X5186D1*
X5659D2*
X6068D1*
X7643D2*
X7703D1*
X4435Y4659D2*
X5186D1*
X5659D2*
X6068D1*
X7643D2*
X7703D1*
X4435Y4600D2*
X6419D1*
X7643D2*
X7703D1*
X4435Y4542D2*
X6420D1*
X7643D2*
X7703D1*
X3976Y4483D2*
X6438D1*
X7643D2*
X7703D1*
X8705D2*
X8912D1*
X3975Y4424D2*
X4504D1*
X5370D2*
X5504D1*
X6370D2*
X6489D1*
X7643D2*
X7703D1*
X8517D2*
X8912D1*
X3975Y4366D2*
X4504D1*
X5370D2*
X5504D1*
X6370D2*
X6547D1*
X7643D2*
X7703D1*
X8544D2*
X8912D1*
X3975Y4307D2*
X4504D1*
X5370D2*
X5504D1*
X6370D2*
X6606D1*
X7643D2*
X7703D1*
X8555D2*
X8913D1*
X3974Y4248D2*
X4504D1*
X5370D2*
X5504D1*
X6370D2*
X6638D1*
X7643D2*
X7703D1*
X8550D2*
X8913D1*
X3974Y4190D2*
X4504D1*
X5370D2*
X5504D1*
X6370D2*
X6648D1*
X7643D2*
X7703D1*
X8529D2*
X8913D1*
X3974Y4131D2*
X4504D1*
X5370D2*
X5504D1*
X6370D2*
X6675D1*
X7643D2*
X7703D1*
X8486D2*
X8914D1*
X3973Y4072D2*
X4504D1*
X5370D2*
X5504D1*
X6370D2*
X6730D1*
X7022D2*
X8251D1*
X8383D2*
X8914D1*
X3973Y4014D2*
X4504D1*
X5370D2*
X5504D1*
X6370D2*
X8914D1*
X8653Y3955D2*
X8914D1*
X6610Y7633D2*
X6835D1*
X6873Y7638D1*
X6998D1*
Y7980D1*
Y8295D1*
X7636D1*
X7635Y7937D1*
X7636Y7950D1*
X7635Y7622D1*
X7636Y7635D1*
X7635Y7307D1*
X7636Y7320D1*
Y7221D1*
X7664Y7194D1*
X7683Y7171D1*
X7698Y7145D1*
X7707Y7125D1*
X7708Y7350D1*
X7707Y7337D1*
X7708Y7665D1*
X7707Y7652D1*
X7708Y7980D1*
X7707Y7967D1*
Y8295D1*
X8086D1*
X8097Y8320D1*
X8112Y8346D1*
X8131Y8370D1*
X8152Y8391D1*
X8187Y8415D1*
X3993D1*
X3992Y8363D1*
X4345Y8364D1*
X4429D1*
Y7510D1*
X3988D1*
X3986Y7364D1*
X4429D1*
Y6862D1*
X4568D1*
X4567Y6979D1*
Y7491D1*
X4689Y7492D1*
Y7933D1*
X4671Y7942D1*
X4646Y7958D1*
X4623Y7977D1*
X4602Y7998D1*
X4585Y8023D1*
X4570Y8049D1*
X4560Y8077D1*
X4553Y8106D1*
X4549Y8136D1*
X4550Y8166D1*
X4555Y8196D1*
X4563Y8224D1*
X4575Y8252D1*
X4590Y8278D1*
X4609Y8301D1*
X4630Y8322D1*
X4654Y8340D1*
X4680Y8355D1*
X4708Y8367D1*
X4737Y8374D1*
X4766Y8378D1*
X4796D1*
X4826Y8374D1*
X4855Y8367D1*
X4883Y8355D1*
X4909Y8341D1*
X4933Y8323D1*
X4954Y8302D1*
X4973Y8278D1*
X4988Y8252D1*
X5000Y8225D1*
X5009Y8196D1*
X5014Y8146D1*
X5012Y8116D1*
X5006Y8087D1*
X4994Y8052D1*
Y7491D1*
X5028D1*
X5027Y6952D1*
X5028Y6941D1*
X5248Y6942D1*
X5350Y6941D1*
X5357Y6940D1*
X5373Y6939D1*
X5372Y7001D1*
X5349Y7012D1*
X5319Y7009D1*
X5289Y7011D1*
X5259Y7016D1*
X5231Y7025D1*
X5203Y7037D1*
X5178Y7053D1*
X5155Y7072D1*
X5134Y7094D1*
X5117Y7118D1*
X5103Y7145D1*
X5092Y7173D1*
X5085Y7202D1*
X5082Y7232D1*
Y7262D1*
X5087Y7291D1*
X5097Y7324D1*
X5065D1*
X5066Y7864D1*
X5065Y7884D1*
Y8375D1*
X5525D1*
Y7641D1*
X5547Y7658D1*
X5581Y7676D1*
X5582Y7861D1*
Y8372D1*
X6042D1*
Y7393D1*
X6068Y7354D1*
X6080Y7321D1*
X6083Y7322D1*
X6084Y7862D1*
X6083Y7882D1*
Y8373D1*
X6543D1*
Y8336D1*
X6578Y8364D1*
X6604Y8379D1*
X6632Y8390D1*
X6661Y8398D1*
X6691Y8402D1*
X6721D1*
X6751Y8398D1*
X6780Y8390D1*
X6807Y8379D1*
X6833Y8364D1*
X6857Y8346D1*
X6879Y8325D1*
X6897Y8302D1*
X6913Y8276D1*
X6925Y8249D1*
X6933Y8220D1*
X6938Y8170D1*
X6937Y8140D1*
X6931Y8111D1*
X6921Y8082D1*
X6908Y8055D1*
X6896Y8037D1*
X6897Y7983D1*
X6894Y7953D1*
X6885Y7925D1*
X6871Y7898D1*
X6852Y7875D1*
X6610Y7633D1*
X4569Y5995D2*
X4568Y6112D1*
X4430D1*
X4429Y5554D1*
Y5510D1*
X3975D1*
Y5445D1*
Y5363D1*
X4255Y5364D1*
X4429D1*
Y4510D1*
X3969D1*
X3968Y4245D1*
X3967Y3973D1*
X4509Y3971D1*
X4510Y4429D1*
X5364D1*
Y3967D1*
X5511D1*
X5510Y4165D1*
Y4429D1*
X6364D1*
Y3963D1*
X6757Y3962D1*
X8919Y3954D1*
Y4254D1*
X8918Y4510D1*
X8725D1*
X8686Y4470D1*
X8662Y4451D1*
X8636Y4437D1*
X8607Y4428D1*
X8578Y4425D1*
X8509D1*
X8524Y4403D1*
X8536Y4375D1*
X8544Y4346D1*
X8549Y4297D1*
X8547Y4267D1*
X8542Y4237D1*
X8532Y4209D1*
X8519Y4182D1*
X8503Y4157D1*
X8483Y4134D1*
X8461Y4114D1*
X8436Y4097D1*
X8409Y4083D1*
X8381Y4073D1*
X8352Y4067D1*
X8322Y4064D1*
X8292Y4066D1*
X8263Y4071D1*
X8225Y4084D1*
X7709D1*
X7710Y4442D1*
X7709Y4429D1*
X7710Y4757D1*
X7709Y4744D1*
X7710Y5072D1*
X7709Y5059D1*
Y5387D1*
X7756D1*
X7735Y5422D1*
X7725Y5450D1*
X7718Y5479D1*
X7714Y5509D1*
X7715Y5536D1*
X7703D1*
X7704Y5894D1*
X7703Y5881D1*
Y6110D1*
X7658Y6123D1*
X7631Y6135D1*
X7632Y5999D1*
X7631Y5851D1*
X7632Y5864D1*
Y5574D1*
X7648Y5540D1*
X7656Y5511D1*
X7661Y5461D1*
X7659Y5431D1*
X7654Y5402D1*
X7637Y5359D1*
Y5029D1*
Y4714D1*
Y4399D1*
Y4084D1*
X7029D1*
X6995Y4058D1*
X6968Y4045D1*
X6940Y4035D1*
X6911Y4028D1*
X6881Y4026D1*
X6851Y4027D1*
X6822Y4032D1*
X6793Y4041D1*
X6766Y4053D1*
X6740Y4069D1*
X6717Y4088D1*
X6697Y4110D1*
X6679Y4134D1*
X6665Y4161D1*
X6654Y4189D1*
X6647Y4218D1*
X6644Y4248D1*
Y4275D1*
X6535Y4383D1*
X6469Y4449D1*
X6450Y4472D1*
X6436Y4498D1*
X6428Y4527D1*
X6425Y4557D1*
Y4634D1*
X6074D1*
Y5612D1*
X6005Y5679D1*
X5996Y5685D1*
X5969Y5672D1*
X5939Y5665D1*
X5910Y5664D1*
X5880Y5668D1*
X5852Y5679D1*
X5826Y5694D1*
X5819Y5700D1*
X5804Y5688D1*
X5777Y5675D1*
X5749Y5666D1*
X5719Y5664D1*
X5689Y5667D1*
X5676Y5671D1*
Y5516D1*
X5673Y5486D1*
X5653Y5414D1*
X5652Y5145D1*
X5653Y5125D1*
Y4633D1*
X5192D1*
Y5021D1*
X5148Y5022D1*
X5118Y5027D1*
X5090Y5036D1*
X5063Y5048D1*
X5037Y5064D1*
X5014Y5083D1*
X4987Y5113D1*
X4961Y5088D1*
X4936Y5071D1*
X4909Y5057D1*
X4881Y5047D1*
X4852Y5041D1*
X4822Y5038D1*
X4792Y5039D1*
X4762Y5044D1*
X4734Y5053D1*
X4706Y5066D1*
X4681Y5082D1*
X4658Y5101D1*
X4637Y5123D1*
X4620Y5147D1*
X4606Y5173D1*
X4595Y5201D1*
X4588Y5230D1*
X4585Y5260D1*
Y5290D1*
X4590Y5320D1*
X4598Y5349D1*
X4610Y5376D1*
X4625Y5402D1*
X4646Y5427D1*
Y5483D1*
X4568D1*
X4569Y6022D1*
X6083Y8373D2*
X6313Y8104D1*
X6543Y8373D2*
X6083Y7834D1*
X5065Y8375D2*
X5525Y7836D1*
Y8375D2*
X5065Y7836D1*
X5423Y4903D2*
X5653Y4633D1*
Y5172D2*
X5192Y4633D1*
X6074Y5173D2*
X6304Y4904D1*
X6074Y4634D1*
X5582Y8372D2*
X6042Y7833D1*
Y8372D2*
X5582Y7833D1*
X4510Y4429D2*
X4937Y3937D1*
X5364Y4429D2*
X4937Y3937D1*
D19*
X6751Y6852D3*
Y7364D3*
X4798Y6710D3*
Y7222D3*
X6313Y7592D3*
Y8104D3*
X4798Y6265D3*
Y5753D3*
X5295Y7594D3*
Y8106D3*
X6752Y6169D3*
Y5658D3*
X5423Y5415D3*
Y4903D3*
X6304Y5416D3*
Y4904D3*
X5812Y7591D3*
Y8103D3*
D20*
X8937Y7937D3*
Y6937D3*
Y5937D3*
Y4937D3*
X3937D3*
Y5937D3*
Y6937D3*
Y7937D3*
D21*
X5937Y3937D3*
X4937D3*
D22*
X8026Y7171D3*
Y7486D3*
Y7801D3*
Y8116D3*
X7317D3*
Y7801D3*
Y7486D3*
Y7171D3*
X8022Y5715D3*
Y6030D3*
Y6345D3*
Y6660D3*
X7314D3*
Y6345D3*
Y6030D3*
Y5715D3*
X8027Y4263D3*
Y4578D3*
Y4893D3*
Y5208D3*
X7319D3*
Y4893D3*
Y4578D3*
Y4263D3*
D25*
X6115Y7065D3*
X5918D3*
X5721D3*
X5524D3*
D26*
X5248Y6789D3*
Y6593D3*
Y6396D3*
Y6199D3*
D25*
X5524Y5923D3*
X5721D3*
X5918D3*
X6115D3*
D26*
X6390Y6199D3*
Y6396D3*
Y6593D3*
Y6789D3*
D27*
X5819Y6494D3*
D28*
X5976Y6651D3*
X5663D3*
Y6338D3*
X5976D3*
M02*
