M48
INCH
T01C0.013
T02C0.0433
%
T01
X+006533Y+006692
X+005976Y+006651
X+005663Y+006651
X+005663Y+006338
X+005976Y+006338
X+006409Y+005904
X+007429Y+005461
X+007947Y+005519
X+008313Y+005100
X+008317Y+004297
X+006876Y+004258
X+005130Y+004587
X+004583Y+004829
X+004817Y+005270
X+005173Y+005253
X+004311Y+004285
X+005314Y+007242
X+005675Y+007464
X+005536Y+007943
X+004782Y+008146
X+004581Y+007866
X+006706Y+008170
X+007491Y+007039
X+008089Y+007327
X+008304Y+008215
X+007741Y+006340
T02
X+008937Y+007937
X+008937Y+006937
X+008937Y+005937
X+008937Y+004937
X+005937Y+003937
X+004937Y+003937
X+003937Y+004937
X+003937Y+005937
X+003937Y+006937
X+003937Y+007937
T00
M30
