G04 DipTrace 2.4.0.2*
%INECGADCBufferAry.gtp*%
%MOIN*%
%ADD23C,0.0232*%
%ADD40O,0.0256X0.0039*%
%ADD42O,0.0039X0.0256*%
%ADD44R,0.0374X0.0094*%
%ADD50R,0.0197X0.0276*%
%FSLAX44Y44*%
G04*
G70*
G90*
G75*
G01*
%LNTopPaste*%
%LPD*%
D50*
X6751Y6852D3*
Y7364D3*
X4798Y6710D3*
Y7222D3*
X6313Y7592D3*
Y8104D3*
X4798Y6265D3*
Y5753D3*
X5295Y7594D3*
Y8106D3*
X6752Y6169D3*
Y5658D3*
X5423Y5415D3*
Y4903D3*
X6304Y5416D3*
Y4904D3*
X5812Y7591D3*
Y8103D3*
D44*
X8026Y7171D3*
Y7486D3*
Y7801D3*
Y8116D3*
X7317D3*
Y7801D3*
Y7486D3*
Y7171D3*
X8022Y5715D3*
Y6030D3*
Y6345D3*
Y6660D3*
X7314D3*
Y6345D3*
Y6030D3*
Y5715D3*
X8027Y4263D3*
Y4578D3*
Y4893D3*
Y5208D3*
X7319D3*
Y4893D3*
Y4578D3*
Y4263D3*
D23*
X5959Y6355D3*
Y6634D3*
X5680Y6355D3*
Y6634D3*
D42*
X6115Y7065D3*
X5918D3*
X5721D3*
X5524D3*
D40*
X5248Y6789D3*
Y6593D3*
Y6396D3*
Y6199D3*
D42*
X5524Y5923D3*
X5721D3*
X5918D3*
X6115D3*
D40*
X6390Y6199D3*
Y6396D3*
Y6593D3*
Y6789D3*
M02*
