G04 DipTrace 2.4.0.2*
%INECGADCBufferAry.gbo*%
%MOMM*%
%ADD49C,0.196*%
%ADD50C,0.083*%
%ADD51C,0.111*%
%FSLAX53Y53*%
G04*
G71*
G90*
G75*
G01*
%LNBotSilk*%
%LPD*%
X13869Y20548D2*
D49*
Y21337D1*
X15145D1*
Y20548D1*
X14477Y21337D2*
Y20851D1*
X14172Y19245D2*
X14052Y19305D1*
X13929Y19427D1*
X13869Y19548D1*
Y19791D1*
X13929Y19913D1*
X14052Y20034D1*
X14172Y20095D1*
X14355Y20156D1*
X14659D1*
X14841Y20095D1*
X14963Y20034D1*
X15083Y19913D1*
X15145Y19791D1*
Y19548D1*
X15083Y19427D1*
X14963Y19305D1*
X14841Y19245D1*
X14172Y17941D2*
X14052Y18002D1*
X13929Y18124D1*
X13869Y18245D1*
Y18487D1*
X13929Y18610D1*
X14052Y18730D1*
X14172Y18792D1*
X14355Y18852D1*
X14659D1*
X14841Y18792D1*
X14963Y18730D1*
X15083Y18610D1*
X15145Y18487D1*
Y18245D1*
X15083Y18124D1*
X14963Y18002D1*
X14841Y17941D1*
X14659D1*
Y18245D1*
X15145Y16576D2*
X13869Y17063D1*
X15145Y17549D1*
X14720Y17367D2*
Y16759D1*
X13869Y16184D2*
X15145D1*
Y15759D1*
X15083Y15576D1*
X14963Y15454D1*
X14841Y15394D1*
X14659Y15333D1*
X14355D1*
X14172Y15394D1*
X14052Y15454D1*
X13929Y15576D1*
X13869Y15759D1*
Y16184D1*
X14172Y14030D2*
X14052Y14091D1*
X13929Y14213D1*
X13869Y14333D1*
Y14576D1*
X13929Y14698D1*
X14052Y14819D1*
X14172Y14881D1*
X14355Y14941D1*
X14659D1*
X14841Y14881D1*
X14963Y14819D1*
X15083Y14698D1*
X15145Y14576D1*
Y14333D1*
X15083Y14213D1*
X14963Y14091D1*
X14841Y14030D1*
X17534Y22070D2*
Y21524D1*
X17472Y21341D1*
X17412Y21280D1*
X17291Y21219D1*
X17169D1*
X17048Y21280D1*
X16986Y21341D1*
X16926Y21524D1*
Y22070D1*
X18202D1*
X17534Y21645D2*
X18202Y21219D1*
X17170Y20827D2*
X17108Y20705D1*
X16927Y20523D1*
X18202D1*
X18080Y20070D2*
X18142Y20130D1*
X18202Y20070D1*
X18142Y20008D1*
X18080Y20070D1*
X16927Y19251D2*
X16988Y19434D1*
X17170Y19556D1*
X17473Y19616D1*
X17656D1*
X17959Y19556D1*
X18142Y19434D1*
X18202Y19251D1*
Y19130D1*
X18142Y18948D1*
X17959Y18827D1*
X17656Y18765D1*
X17473D1*
X17170Y18827D1*
X16988Y18948D1*
X16927Y19130D1*
Y19251D1*
X17170Y18827D2*
X17959Y19556D1*
X18927Y21851D2*
Y22641D1*
X20203D1*
X19535D2*
Y22155D1*
X19352Y21397D2*
X20203Y21033D1*
X20446Y21154D1*
X20568Y21276D1*
X20628Y21397D1*
Y21458D1*
X19352Y20668D2*
X20203Y21033D1*
X18927Y20276D2*
X20203D1*
X19535D2*
X19412Y20154D1*
X19352Y20033D1*
Y19850D1*
X19412Y19730D1*
X19535Y19608D1*
X19717Y19547D1*
X19838D1*
X20020Y19608D1*
X20141Y19730D1*
X20203Y19850D1*
Y20033D1*
X20141Y20154D1*
X20020Y20276D1*
X19717Y19155D2*
Y18427D1*
X19595D1*
X19473Y18487D1*
X19412Y18547D1*
X19352Y18669D1*
Y18852D1*
X19412Y18973D1*
X19535Y19095D1*
X19717Y19155D1*
X19838D1*
X20020Y19095D1*
X20141Y18973D1*
X20203Y18852D1*
Y18669D1*
X20141Y18547D1*
X20020Y18427D1*
X19352Y18034D2*
X20203D1*
X19717D2*
X19535Y17973D1*
X19412Y17852D1*
X19352Y17730D1*
Y17547D1*
X18927Y15921D2*
X20203D1*
Y15192D1*
X19352Y14071D2*
X20203D1*
X19535D2*
X19412Y14192D1*
X19352Y14314D1*
Y14495D1*
X19412Y14617D1*
X19535Y14738D1*
X19717Y14800D1*
X19838D1*
X20020Y14738D1*
X20141Y14617D1*
X20203Y14495D1*
Y14314D1*
X20141Y14192D1*
X20020Y14071D1*
X18927Y13679D2*
X20203D1*
X19535D2*
X19412Y13557D1*
X19352Y13436D1*
Y13254D1*
X19412Y13133D1*
X19535Y13011D1*
X19717Y12951D1*
X19838D1*
X20020Y13011D1*
X20141Y13133D1*
X20203Y13254D1*
Y13436D1*
X20141Y13557D1*
X20020Y13679D1*
X19535Y11890D2*
X19412Y11950D1*
X19352Y12133D1*
Y12315D1*
X19412Y12498D1*
X19535Y12558D1*
X19655Y12498D1*
X19717Y12376D1*
X19777Y12073D1*
X19838Y11950D1*
X19960Y11890D1*
X20020D1*
X20141Y11950D1*
X20203Y12133D1*
Y12315D1*
X20141Y12498D1*
X20020Y12558D1*
X17197Y18022D2*
X17137D1*
X17015Y17962D1*
X16954Y17901D1*
X16894Y17779D1*
Y17536D1*
X16954Y17416D1*
X17015Y17355D1*
X17137Y17293D1*
X17257D1*
X17380Y17355D1*
X17561Y17476D1*
X18169Y18084D1*
Y17233D1*
X16894Y16476D2*
X16954Y16658D1*
X17137Y16780D1*
X17440Y16841D1*
X17622D1*
X17926Y16780D1*
X18108Y16658D1*
X18169Y16476D1*
Y16355D1*
X18108Y16173D1*
X17926Y16052D1*
X17622Y15990D1*
X17440D1*
X17137Y16052D1*
X16954Y16173D1*
X16894Y16355D1*
Y16476D1*
X17137Y16052D2*
X17926Y16780D1*
X17137Y15598D2*
X17075Y15476D1*
X16894Y15293D1*
X18169D1*
Y14293D2*
X16894D1*
X17743Y14901D1*
Y13990D1*
X15715Y21546D2*
D50*
X15861Y22312D1*
X16007Y21546D1*
X16090D2*
Y22312D1*
X16217D1*
X16272Y22274D1*
X16309Y22202D1*
X16327Y22129D1*
X16345Y22020D1*
Y21837D1*
X16327Y21728D1*
X16309Y21655D1*
X16272Y21582D1*
X16217Y21546D1*
X16090D1*
X16428D2*
Y22312D1*
X16556D1*
X16611Y22274D1*
X16647Y22202D1*
X16666Y22129D1*
X16684Y22020D1*
Y21837D1*
X16666Y21728D1*
X16647Y21655D1*
X16611Y21582D1*
X16556Y21546D1*
X16428D1*
X16891Y13597D2*
X16746Y12831D1*
X16600Y13597D1*
X16516D2*
Y12831D1*
X16389D1*
X16334Y12868D1*
X16297Y12941D1*
X16279Y13014D1*
X16261Y13123D1*
Y13305D1*
X16279Y13415D1*
X16297Y13487D1*
X16334Y13561D1*
X16389Y13597D1*
X16516D1*
X16178D2*
Y12831D1*
X16050D1*
X15996Y12868D1*
X15959Y12941D1*
X15941Y13014D1*
X15923Y13123D1*
Y13305D1*
X15941Y13415D1*
X15959Y13487D1*
X15996Y13561D1*
X16050Y13597D1*
X16178D1*
X14067Y21706D2*
X14048Y21633D1*
X14012Y21560D1*
X13976Y21524D1*
X13903D1*
X13866Y21560D1*
X13830Y21633D1*
X13811Y21706D1*
X13793Y21815D1*
Y21998D1*
X13811Y22107D1*
X13830Y22180D1*
X13866Y22252D1*
X13903Y22289D1*
X13976D1*
X14012Y22252D1*
X14048Y22180D1*
X14067Y22107D1*
Y21998D1*
X13976D1*
X14405Y21524D2*
Y22289D1*
X14150Y21524D1*
Y22289D1*
X14488Y21524D2*
Y22289D1*
X14616D1*
X14671Y22252D1*
X14707Y22180D1*
X14726Y22107D1*
X14744Y21998D1*
Y21815D1*
X14726Y21706D1*
X14707Y21633D1*
X14671Y21560D1*
X14616Y21524D1*
X14488D1*
X15022Y13400D2*
X15040Y13472D1*
X15077Y13546D1*
X15113Y13582D1*
X15186D1*
X15223Y13546D1*
X15259Y13472D1*
X15278Y13400D1*
X15296Y13291D1*
Y13108D1*
X15278Y12999D1*
X15259Y12926D1*
X15223Y12853D1*
X15186Y12816D1*
X15113D1*
X15077Y12853D1*
X15040Y12926D1*
X15022Y12999D1*
Y13108D1*
X15113D1*
X14684Y13582D2*
Y12816D1*
X14939Y13582D1*
Y12816D1*
X14600Y13582D2*
Y12816D1*
X14473D1*
X14418Y12853D1*
X14381Y12926D1*
X14363Y12999D1*
X14345Y13108D1*
Y13291D1*
X14363Y13400D1*
X14381Y13472D1*
X14418Y13546D1*
X14473Y13582D1*
X14600D1*
X12763Y12889D2*
D51*
X12812Y12841D1*
X12860Y12743D1*
X12885Y12646D1*
X12909Y12500D1*
Y12257D1*
X12885Y12112D1*
X12860Y12014D1*
X12812Y11917D1*
X12763Y11868D1*
X12666D1*
X12618Y11917D1*
X12569Y12014D1*
X12545Y12112D1*
X12521Y12257D1*
Y12500D1*
X12545Y12646D1*
X12569Y12743D1*
X12618Y12841D1*
X12666Y12889D1*
X12763D1*
X12410D2*
Y12160D1*
X12385Y12014D1*
X12337Y11917D1*
X12264Y11868D1*
X12215D1*
X12142Y11917D1*
X12093Y12014D1*
X12069Y12160D1*
Y12889D1*
X11788D2*
Y11868D1*
X11958Y12889D2*
X11618D1*
X23579Y12852D2*
Y11831D1*
X23128Y12852D2*
Y11831D1*
X23468Y12852D1*
Y11831D1*
X13501Y21197D2*
D50*
X13538Y21234D1*
X13647Y21288D1*
X12882D1*
X13542Y18797D2*
X13578D1*
X13652Y18815D1*
X13688Y18833D1*
X13724Y18870D1*
Y18943D1*
X13688Y18979D1*
X13652Y18997D1*
X13578Y19016D1*
X13506D1*
X13433Y18997D1*
X13324Y18961D1*
X12959Y18779D1*
Y19034D1*
X13738Y16233D2*
Y16433D1*
X13447Y16324D1*
Y16379D1*
X13410Y16415D1*
X13374Y16433D1*
X13265Y16452D1*
X13192D1*
X13083Y16433D1*
X13010Y16397D1*
X12973Y16342D1*
Y16287D1*
X13010Y16233D1*
X13047Y16215D1*
X13119Y16196D1*
X13012Y13656D2*
X13777D1*
X13267Y13474D1*
Y13747D1*
X21609Y18940D2*
X21573D1*
X21499Y18922D1*
X21463Y18904D1*
X21427Y18867D1*
Y18794D1*
X21463Y18758D1*
X21499Y18740D1*
X21573Y18721D1*
X21645D1*
X21718Y18740D1*
X21827Y18776D1*
X22192Y18959D1*
Y18703D1*
X21600Y21501D2*
X21563Y21465D1*
X21454Y21410D1*
X22219D1*
X21421Y16463D2*
Y16263D1*
X21713Y16372D1*
Y16317D1*
X21749Y16281D1*
X21785Y16263D1*
X21895Y16244D1*
X21967D1*
X22077Y16263D1*
X22150Y16299D1*
X22186Y16354D1*
Y16409D1*
X22150Y16463D1*
X22113Y16481D1*
X22041Y16500D1*
X22186Y13663D2*
X21421D1*
X21931Y13846D1*
Y13572D1*
M02*
