G04 DipTrace 2.4.0.2*
%INECGADCBufferAry.gbo*%
%MOIN*%
%ADD43C,0.0077*%
%FSLAX44Y44*%
G04*
G70*
G90*
G75*
G01*
%LNBotSilk*%
%LPD*%
X7744Y8213D2*
D43*
X8054D1*
Y7711D1*
X7744D1*
X8054Y7974D2*
X7863D1*
X7231Y8094D2*
X7254Y8141D1*
X7302Y8190D1*
X7350Y8213D1*
X7446D1*
X7494Y8190D1*
X7541Y8141D1*
X7565Y8094D1*
X7589Y8022D1*
Y7902D1*
X7565Y7831D1*
X7541Y7783D1*
X7494Y7735D1*
X7446Y7711D1*
X7350D1*
X7302Y7735D1*
X7254Y7783D1*
X7231Y7831D1*
X6717Y8094D2*
X6741Y8141D1*
X6789Y8190D1*
X6837Y8213D1*
X6932D1*
X6981Y8190D1*
X7028Y8141D1*
X7052Y8094D1*
X7076Y8022D1*
Y7902D1*
X7052Y7831D1*
X7028Y7783D1*
X6981Y7735D1*
X6932Y7711D1*
X6837D1*
X6789Y7735D1*
X6741Y7783D1*
X6717Y7831D1*
Y7902D1*
X6837D1*
X6180Y7711D2*
X6372Y8213D1*
X6563Y7711D1*
X6491Y7878D2*
X6252D1*
X6026Y8213D2*
Y7711D1*
X5858D1*
X5786Y7735D1*
X5738Y7783D1*
X5714Y7831D1*
X5691Y7902D1*
Y8022D1*
X5714Y8094D1*
X5738Y8141D1*
X5786Y8190D1*
X5858Y8213D1*
X6026D1*
X5178Y8094D2*
X5201Y8141D1*
X5249Y8190D1*
X5297Y8213D1*
X5393D1*
X5441Y8190D1*
X5488Y8141D1*
X5513Y8094D1*
X5536Y8022D1*
Y7902D1*
X5513Y7831D1*
X5488Y7783D1*
X5441Y7735D1*
X5393Y7711D1*
X5297D1*
X5249Y7735D1*
X5201Y7783D1*
X5178Y7831D1*
X7348Y7188D2*
X7133D1*
X7061Y7212D1*
X7036Y7236D1*
X7013Y7284D1*
Y7332D1*
X7036Y7379D1*
X7061Y7404D1*
X7133Y7427D1*
X7348D1*
Y6925D1*
X7180Y7188D2*
X7013Y6925D1*
X6715Y7427D2*
X6786Y7403D1*
X6835Y7331D1*
X6858Y7212D1*
Y7140D1*
X6835Y7021D1*
X6786Y6949D1*
X6715Y6925D1*
X6667D1*
X6595Y6949D1*
X6548Y7021D1*
X6523Y7140D1*
Y7212D1*
X6548Y7331D1*
X6595Y7403D1*
X6667Y7427D1*
X6715D1*
X6548Y7331D2*
X6835Y7021D1*
X6345Y6973D2*
X6369Y6949D1*
X6345Y6925D1*
X6321Y6949D1*
X6345Y6973D1*
X5855Y7260D2*
X5880Y7188D1*
X5927Y7140D1*
X5999Y7116D1*
X6023D1*
X6095Y7140D1*
X6142Y7188D1*
X6166Y7260D1*
Y7284D1*
X6142Y7355D1*
X6095Y7403D1*
X6023Y7427D1*
X5999D1*
X5927Y7403D1*
X5880Y7355D1*
X5855Y7260D1*
Y7140D1*
X5880Y7021D1*
X5927Y6949D1*
X5999Y6925D1*
X6047D1*
X6118Y6949D1*
X6142Y6997D1*
X5318Y6925D2*
X5510Y7427D1*
X5701Y6925D1*
X5629Y7092D2*
X5390D1*
X8208Y4941D2*
X8519D1*
Y4438D1*
Y4702D2*
X8328D1*
X8029Y4773D2*
X7886Y4438D1*
X7934Y4343D1*
X7982Y4295D1*
X8029Y4271D1*
X8054D1*
X7743Y4773D2*
X7886Y4438D1*
X7588Y4941D2*
Y4438D1*
Y4702D2*
X7540Y4750D1*
X7493Y4773D1*
X7421D1*
X7373Y4750D1*
X7325Y4702D1*
X7301Y4630D1*
Y4582D1*
X7325Y4510D1*
X7373Y4463D1*
X7421Y4438D1*
X7493D1*
X7540Y4463D1*
X7588Y4510D1*
X7147Y4630D2*
X6860D1*
Y4678D1*
X6884Y4726D1*
X6908Y4750D1*
X6956Y4773D1*
X7028D1*
X7075Y4750D1*
X7123Y4702D1*
X7147Y4630D1*
Y4582D1*
X7123Y4510D1*
X7075Y4463D1*
X7028Y4438D1*
X6956D1*
X6908Y4463D1*
X6860Y4510D1*
X6706Y4773D2*
Y4438D1*
Y4630D2*
X6681Y4702D1*
X6634Y4750D1*
X6586Y4773D1*
X6514D1*
X5873Y4941D2*
Y4438D1*
X5587D1*
X5145Y4773D2*
Y4438D1*
Y4702D2*
X5193Y4750D1*
X5241Y4773D1*
X5312D1*
X5360Y4750D1*
X5408Y4702D1*
X5432Y4630D1*
Y4582D1*
X5408Y4510D1*
X5360Y4463D1*
X5312Y4438D1*
X5241D1*
X5193Y4463D1*
X5145Y4510D1*
X4991Y4941D2*
Y4438D1*
Y4702D2*
X4943Y4750D1*
X4895Y4773D1*
X4824D1*
X4776Y4750D1*
X4728Y4702D1*
X4704Y4630D1*
Y4582D1*
X4728Y4510D1*
X4776Y4463D1*
X4824Y4438D1*
X4895D1*
X4943Y4463D1*
X4991Y4510D1*
X4287Y4702D2*
X4310Y4750D1*
X4382Y4773D1*
X4454D1*
X4526Y4750D1*
X4550Y4702D1*
X4526Y4654D1*
X4478Y4630D1*
X4359Y4606D1*
X4310Y4582D1*
X4287Y4534D1*
Y4510D1*
X4310Y4463D1*
X4382Y4438D1*
X4454D1*
X4526Y4463D1*
X4550Y4510D1*
X8368Y6498D2*
Y6522D1*
X8344Y6570D1*
X8320Y6594D1*
X8272Y6617D1*
X8176D1*
X8129Y6594D1*
X8105Y6570D1*
X8081Y6522D1*
Y6474D1*
X8105Y6426D1*
X8153Y6355D1*
X8392Y6116D1*
X8057D1*
X7759Y6617D2*
X7831Y6594D1*
X7879Y6522D1*
X7903Y6402D1*
Y6331D1*
X7879Y6211D1*
X7831Y6139D1*
X7759Y6116D1*
X7711D1*
X7640Y6139D1*
X7592Y6211D1*
X7568Y6331D1*
Y6402D1*
X7592Y6522D1*
X7640Y6594D1*
X7711Y6617D1*
X7759D1*
X7592Y6522D2*
X7879Y6211D1*
X7413Y6522D2*
X7365Y6546D1*
X7293Y6617D1*
Y6116D1*
X6900D2*
Y6617D1*
X7139Y6283D1*
X6780D1*
M02*
