G04 DipTrace 2.4.0.2*
%INECGADCBufferAry.gtl*%
%MOIN*%
%ADD13C,0.01*%
%ADD14C,0.012*%
%ADD15C,0.0118*%
%ADD16C,0.015*%
%ADD18C,0.006*%
%ADD19R,0.0276X0.0354*%
%ADD20R,0.08X0.0669*%
%ADD21R,0.0669X0.08*%
%ADD22R,0.0453X0.0173*%
%ADD25O,0.0118X0.0335*%
%ADD26O,0.0335X0.0118*%
%ADD27R,0.0591X0.0591*%
%ADD28C,0.028*%
%ADD29C,0.028*%
%FSLAX44Y44*%
G04*
G70*
G90*
G75*
G01*
%LNTop*%
%LPD*%
X6390Y6789D2*
D13*
X6688D1*
X6751Y6852D1*
X6390Y6593D2*
X6492D1*
X6751Y6852D1*
X6591Y6692D1*
X6533D1*
X5248Y6593D2*
D14*
X4915D1*
X4798Y6710D1*
X5248Y6789D2*
X4877D1*
X4798Y6710D1*
X4164D1*
X3937Y6937D1*
X5248Y6396D2*
X4930D1*
X4798Y6265D1*
X5248Y6199D2*
X4864D1*
X4798Y6265D1*
X4265D1*
X3937Y5937D1*
X6390Y6396D2*
X6526D1*
X6752Y6169D1*
X6390Y6199D2*
X6723D1*
X6752Y6169D1*
X6675D1*
X6409Y5904D1*
X7317Y8116D2*
Y7801D1*
Y7486D1*
X6873D1*
X6751Y7364D1*
X7317Y7171D2*
X7314Y7067D1*
Y6660D1*
Y6345D1*
X7591Y7067D2*
X7314D1*
X4798Y7222D2*
X4842D1*
Y8086D1*
X4782Y8146D1*
X5918Y5923D2*
Y5822D1*
X5906Y5811D1*
Y5372D1*
X5770Y5235D1*
X5755D1*
X5423Y4903D1*
X5770Y5235D2*
X5972D1*
X6304Y4904D1*
X5918Y5923D2*
Y6396D1*
X5976Y6338D1*
X4937Y3937D2*
Y4417D1*
X5423Y4903D1*
X5295Y8106D2*
Y8082D1*
X6291D1*
X6313Y8104D1*
X5812Y8103D2*
X6312D1*
X6313Y8104D1*
X5918Y5923D2*
D15*
Y6151D1*
D14*
Y6396D1*
X5819Y6494D1*
X5295Y8106D2*
X5258D1*
X4939Y8425D1*
Y8935D1*
X4937Y8937D1*
X7319Y4893D2*
Y4578D1*
Y4263D1*
X6752Y5658D2*
Y5252D1*
X7127Y4877D1*
X7303D1*
X7319Y4893D1*
X6304Y5416D2*
Y5596D1*
X6115Y5786D1*
Y5923D1*
X8027Y4263D2*
X8283D1*
X8317Y4297D1*
X6304Y5416D2*
X6308D1*
X6577Y5147D1*
Y4557D1*
X6876Y4258D1*
X5524Y5923D2*
Y5516D1*
X5423Y5415D1*
X8022Y5715D2*
Y5595D1*
X7947Y5519D1*
X5423Y5415D2*
X5335D1*
X5173Y5253D1*
X5295Y7594D2*
Y7294D1*
X5524Y7065D1*
X8022Y6345D2*
X7746D1*
X7741Y6340D1*
X5295Y7594D2*
Y7260D1*
X5314Y7242D1*
X6313Y7592D2*
Y7264D1*
X6115Y7065D1*
X8026Y8116D2*
Y8193D1*
X7910Y8309D1*
X6313Y7592D2*
Y7552D1*
X6744Y7983D1*
Y8198D1*
X6725D1*
X7314Y6030D2*
Y5715D1*
Y5577D1*
X7429Y5461D1*
Y5318D1*
X7319Y5208D1*
X4798Y5753D2*
Y5289D1*
X4817Y5270D1*
X5918Y7065D2*
D16*
Y7281D1*
X5735Y7464D1*
X5675D1*
X8026Y7486D2*
Y7390D1*
X8089Y7327D1*
X8026Y7486D2*
Y7171D1*
X8027Y5208D2*
Y4893D1*
Y5208D2*
X8205D1*
X8313Y5100D1*
X8234D1*
X8027Y4893D1*
X8026Y7171D2*
Y7263D1*
X8089Y7327D1*
X5812Y7591D2*
X5802D1*
X5675Y7464D1*
X8026Y7801D2*
D14*
X8801D1*
X8937Y7937D1*
X8022Y6660D2*
X8056D1*
X8259Y6862D1*
X8862D1*
X8937Y6937D1*
X8022Y6030D2*
X8844D1*
X8937Y5937D1*
X8027Y4578D2*
X8578D1*
X8937Y4937D1*
D29*
X6533Y6692D3*
X6409Y5904D3*
X6876Y4258D3*
X5130Y4587D3*
X5536Y7943D3*
X5675Y7464D3*
X7910Y8309D3*
X8089Y7327D3*
X7741Y6340D3*
X7947Y5519D3*
X8313Y5100D3*
X8317Y4297D3*
X7591Y7067D3*
X7429Y5461D3*
X4782Y8146D3*
X5314Y7242D3*
X6725Y8198D3*
X5173Y5253D3*
X4817Y5270D3*
X4583Y4829D3*
X4311Y4285D3*
X4581Y7866D3*
X3982Y8863D2*
D18*
X4504D1*
X5370D2*
X5504D1*
X6370D2*
X8901D1*
X3982Y8805D2*
X4504D1*
X5370D2*
X5504D1*
X6370D2*
X8902D1*
X3982Y8746D2*
X4504D1*
X5370D2*
X5504D1*
X6370D2*
X8902D1*
X3982Y8687D2*
X4504D1*
X5370D2*
X5504D1*
X6370D2*
X8902D1*
X3982Y8629D2*
X4504D1*
X5370D2*
X5504D1*
X6370D2*
X8902D1*
X3982Y8570D2*
X4504D1*
X5370D2*
X5504D1*
X6370D2*
X8902D1*
X3982Y8511D2*
X4504D1*
X5370D2*
X5504D1*
X6370D2*
X7791D1*
X8029D2*
X8902D1*
X3981Y8453D2*
X4504D1*
X5370D2*
X5504D1*
X6370D2*
X7721D1*
X8098D2*
X8903D1*
X3981Y8394D2*
X6595D1*
X6856D2*
X7688D1*
X8132D2*
X8903D1*
X4435Y8335D2*
X4641D1*
X4923D2*
X5059D1*
X5531D2*
X5576D1*
X6919D2*
X7673D1*
X8147D2*
X8439D1*
X4435Y8277D2*
X4584D1*
X4980D2*
X5059D1*
X5531D2*
X5576D1*
X6950D2*
X6992D1*
X7641D2*
X7673D1*
X8350D2*
X8439D1*
X4435Y8218D2*
X4554D1*
X5009D2*
X5059D1*
X5531D2*
X5576D1*
X7641D2*
X7689D1*
X8350D2*
X8439D1*
X4435Y8159D2*
X4543D1*
X5019D2*
X5059D1*
X5531D2*
X5576D1*
X6961D2*
X6992D1*
X7641D2*
X7701D1*
X8350D2*
X8439D1*
X4435Y8100D2*
X4548D1*
X5016D2*
X5059D1*
X5531D2*
X5576D1*
X6942D2*
X6992D1*
X7641D2*
X7701D1*
X8350D2*
X8439D1*
X4435Y8042D2*
X4569D1*
X5000D2*
X5059D1*
X5531D2*
X5576D1*
X6904D2*
X6992D1*
X7641D2*
X7701D1*
X8350D2*
X8439D1*
X4435Y7983D2*
X4610D1*
X5000D2*
X5059D1*
X5531D2*
X5576D1*
X6903D2*
X6992D1*
X7641D2*
X7701D1*
X8350D2*
X8439D1*
X4435Y7924D2*
X4684D1*
X5000D2*
X5059D1*
X5531D2*
X5576D1*
X6891D2*
X6992D1*
X7641D2*
X7701D1*
X4435Y7866D2*
X4684D1*
X5000D2*
X5059D1*
X5531D2*
X5576D1*
X6848D2*
X6992D1*
X7641D2*
X7701D1*
X4435Y7807D2*
X4684D1*
X5000D2*
X5059D1*
X5531D2*
X5576D1*
X6789D2*
X6992D1*
X7641D2*
X7701D1*
X4435Y7748D2*
X4684D1*
X5000D2*
X5059D1*
X5531D2*
X5576D1*
X6730D2*
X6992D1*
X7641D2*
X7701D1*
X4435Y7690D2*
X4684D1*
X5000D2*
X5059D1*
X5531D2*
X5576D1*
X6672D2*
X6992D1*
X7641D2*
X7701D1*
X4435Y7631D2*
X4684D1*
X5000D2*
X5059D1*
X7641D2*
X7701D1*
X4435Y7572D2*
X4684D1*
X5000D2*
X5059D1*
X7641D2*
X7701D1*
X4435Y7514D2*
X4684D1*
X5000D2*
X5059D1*
X7641D2*
X7701D1*
X3980Y7455D2*
X4562D1*
X7641D2*
X7701D1*
X3980Y7396D2*
X4562D1*
X7641D2*
X7701D1*
X4435Y7338D2*
X4562D1*
X7641D2*
X7701D1*
X4435Y7279D2*
X4562D1*
X5033D2*
X5079D1*
X4435Y7220D2*
X4562D1*
X5033D2*
X5077D1*
X4435Y7161D2*
X4562D1*
X5033D2*
X5090D1*
X4435Y7103D2*
X4562D1*
X5033D2*
X5122D1*
X4435Y7044D2*
X4562D1*
X5033D2*
X5186D1*
X4435Y6985D2*
X4562D1*
X5033D2*
X5366D1*
X4435Y6927D2*
X4562D1*
X4435Y6868D2*
X4562D1*
X4435Y6105D2*
X4562D1*
X7639D2*
X7698D1*
X4435Y6046D2*
X4562D1*
X7639D2*
X7698D1*
X4435Y5988D2*
X4562D1*
X7639D2*
X7698D1*
X4435Y5929D2*
X4562D1*
X7639D2*
X7698D1*
X4435Y5870D2*
X4562D1*
X7639D2*
X7698D1*
X4435Y5812D2*
X4562D1*
X7639D2*
X7698D1*
X4435Y5753D2*
X4562D1*
X7639D2*
X7698D1*
X4435Y5694D2*
X4562D1*
X7639D2*
X7698D1*
X4435Y5636D2*
X4562D1*
X5682D2*
X6043D1*
X7639D2*
X7698D1*
X4435Y5577D2*
X4562D1*
X5682D2*
X6068D1*
X7639D2*
X7698D1*
X4435Y5518D2*
X4562D1*
X5682D2*
X6068D1*
X7660D2*
X7708D1*
X3976Y5460D2*
X4640D1*
X5671D2*
X6068D1*
X7667D2*
X7716D1*
X3976Y5401D2*
X4618D1*
X5659D2*
X6068D1*
X7659D2*
X7741D1*
X4435Y5342D2*
X4590D1*
X5659D2*
X6068D1*
X7643D2*
X7703D1*
X4435Y5283D2*
X4579D1*
X5659D2*
X6068D1*
X7643D2*
X7703D1*
X4435Y5225D2*
X4583D1*
X5659D2*
X6068D1*
X7643D2*
X7703D1*
X4435Y5166D2*
X4603D1*
X5659D2*
X6068D1*
X7643D2*
X7703D1*
X4435Y5107D2*
X4645D1*
X5659D2*
X6068D1*
X7643D2*
X7703D1*
X4435Y5049D2*
X4741D1*
X4893D2*
X5056D1*
X5659D2*
X6068D1*
X7643D2*
X7703D1*
X4435Y4990D2*
X5186D1*
X5659D2*
X6068D1*
X7643D2*
X7703D1*
X4435Y4931D2*
X5186D1*
X5659D2*
X6068D1*
X7643D2*
X7703D1*
X4435Y4873D2*
X5186D1*
X5659D2*
X6068D1*
X7643D2*
X7703D1*
X4435Y4814D2*
X5186D1*
X5659D2*
X6068D1*
X7643D2*
X7703D1*
X4435Y4755D2*
X5186D1*
X5659D2*
X6068D1*
X7643D2*
X7703D1*
X4435Y4697D2*
X5186D1*
X5659D2*
X6068D1*
X7643D2*
X7703D1*
X4435Y4638D2*
X5186D1*
X5659D2*
X6068D1*
X7643D2*
X7703D1*
X4435Y4579D2*
X6419D1*
X7643D2*
X7703D1*
X4435Y4521D2*
X6423D1*
X7643D2*
X7703D1*
X3974Y4462D2*
X6452D1*
X7643D2*
X7703D1*
X8682D2*
X8913D1*
X3973Y4403D2*
X4504D1*
X5370D2*
X5504D1*
X6370D2*
X6509D1*
X7643D2*
X7703D1*
X8529D2*
X8913D1*
X3973Y4344D2*
X4504D1*
X5370D2*
X5504D1*
X6370D2*
X6568D1*
X7643D2*
X7703D1*
X8550D2*
X8913D1*
X3973Y4286D2*
X4504D1*
X5370D2*
X5504D1*
X6370D2*
X6626D1*
X7643D2*
X7703D1*
X8555D2*
X8913D1*
X3973Y4227D2*
X4504D1*
X5370D2*
X5504D1*
X6370D2*
X6639D1*
X7643D2*
X7703D1*
X8544D2*
X8914D1*
X3973Y4168D2*
X4504D1*
X5370D2*
X5504D1*
X6370D2*
X6655D1*
X7643D2*
X7703D1*
X8517D2*
X8914D1*
X3973Y4110D2*
X4504D1*
X5370D2*
X5504D1*
X6370D2*
X6691D1*
X7643D2*
X7703D1*
X8461D2*
X8914D1*
X3973Y4051D2*
X4504D1*
X5370D2*
X5504D1*
X6370D2*
X6764D1*
X6988D2*
X8914D1*
X3973Y3992D2*
X4504D1*
X5370D2*
X5504D1*
X6370D2*
X8914D1*
X6610Y7633D2*
X6835D1*
X6873Y7638D1*
X6998D1*
Y7980D1*
Y8295D1*
X7636D1*
X7635Y7937D1*
X7636Y7950D1*
X7635Y7622D1*
X7636Y7635D1*
X7635Y7307D1*
X7636Y7295D1*
X7665Y7287D1*
X7706Y7268D1*
X7708Y7350D1*
X7707Y7337D1*
X7708Y7665D1*
X7707Y7652D1*
X7708Y7980D1*
X7707Y7967D1*
Y8196D1*
X7688Y8239D1*
X7681Y8269D1*
X7678Y8298D1*
Y8328D1*
X7683Y8358D1*
X7691Y8387D1*
X7703Y8414D1*
X7718Y8440D1*
X7737Y8464D1*
X7758Y8485D1*
X7782Y8503D1*
X7808Y8518D1*
X7836Y8529D1*
X7865Y8537D1*
X7895Y8540D1*
X7925D1*
X7954Y8537D1*
X7983Y8529D1*
X8011Y8518D1*
X8037Y8503D1*
X8061Y8485D1*
X8083Y8464D1*
X8101Y8440D1*
X8116Y8415D1*
X8128Y8387D1*
X8137Y8358D1*
X8142Y8309D1*
X8141Y8294D1*
X8344Y8295D1*
Y7953D1*
X8445D1*
Y8364D1*
X8909D1*
X8907Y8914D1*
X6363Y8918D1*
X6364Y8529D1*
Y8445D1*
X5510D1*
Y8920D1*
X5364Y8919D1*
Y8445D1*
X4510D1*
Y8921D1*
X3977Y8922D1*
X3976Y8364D1*
X4429D1*
Y7510D1*
X3975D1*
X3974Y7365D1*
X4135Y7364D1*
X4429D1*
Y6862D1*
X4568D1*
X4567Y6979D1*
Y7491D1*
X4689Y7492D1*
Y7933D1*
X4671Y7942D1*
X4646Y7958D1*
X4623Y7977D1*
X4602Y7998D1*
X4585Y8023D1*
X4570Y8049D1*
X4560Y8077D1*
X4553Y8106D1*
X4549Y8136D1*
X4550Y8166D1*
X4555Y8196D1*
X4563Y8224D1*
X4575Y8252D1*
X4590Y8278D1*
X4609Y8301D1*
X4630Y8322D1*
X4654Y8340D1*
X4680Y8355D1*
X4708Y8367D1*
X4737Y8374D1*
X4766Y8378D1*
X4796D1*
X4826Y8374D1*
X4855Y8367D1*
X4883Y8355D1*
X4909Y8341D1*
X4933Y8323D1*
X4954Y8302D1*
X4973Y8278D1*
X4988Y8252D1*
X5000Y8225D1*
X5009Y8196D1*
X5014Y8146D1*
X5012Y8116D1*
X5006Y8087D1*
X4994Y8052D1*
Y7491D1*
X5028D1*
X5027Y6952D1*
X5028Y6941D1*
X5248Y6942D1*
X5350Y6941D1*
X5357Y6940D1*
X5373Y6939D1*
X5372Y7001D1*
X5349Y7012D1*
X5319Y7009D1*
X5289Y7011D1*
X5259Y7016D1*
X5231Y7025D1*
X5203Y7037D1*
X5178Y7053D1*
X5155Y7072D1*
X5134Y7094D1*
X5117Y7118D1*
X5103Y7145D1*
X5092Y7173D1*
X5085Y7202D1*
X5082Y7232D1*
Y7262D1*
X5087Y7291D1*
X5097Y7324D1*
X5065D1*
X5066Y7864D1*
X5065Y7884D1*
Y8375D1*
X5525D1*
Y7641D1*
X5547Y7658D1*
X5581Y7676D1*
X5582Y7861D1*
Y8372D1*
X6042D1*
Y7393D1*
X6068Y7354D1*
X6080Y7321D1*
X6083Y7322D1*
X6084Y7862D1*
X6083Y7882D1*
Y8373D1*
X6543D1*
Y8342D1*
X6574Y8374D1*
X6598Y8392D1*
X6624Y8407D1*
X6652Y8418D1*
X6681Y8426D1*
X6710Y8430D1*
X6740D1*
X6770Y8426D1*
X6799Y8418D1*
X6827Y8407D1*
X6853Y8392D1*
X6877Y8374D1*
X6898Y8353D1*
X6917Y8330D1*
X6932Y8304D1*
X6944Y8276D1*
X6952Y8248D1*
X6958Y8198D1*
X6956Y8168D1*
X6950Y8138D1*
X6941Y8110D1*
X6928Y8083D1*
X6911Y8058D1*
X6897Y8042D1*
Y7983D1*
X6894Y7953D1*
X6885Y7925D1*
X6871Y7898D1*
X6852Y7875D1*
X6610Y7633D1*
X4569Y5995D2*
X4568Y6112D1*
X4430D1*
X4429Y5554D1*
Y5510D1*
X3969D1*
X3970Y5364D1*
X4429D1*
Y4510D1*
X3967D1*
Y3973D1*
X4509Y3971D1*
X4510Y4429D1*
X5364D1*
Y3967D1*
X5511D1*
X5510Y4165D1*
Y4429D1*
X6364D1*
Y3963D1*
X6757Y3962D1*
X8921Y3954D1*
X8920Y4104D1*
X8919Y4510D1*
X8725D1*
X8686Y4470D1*
X8662Y4451D1*
X8636Y4437D1*
X8607Y4428D1*
X8578Y4425D1*
X8509D1*
X8524Y4403D1*
X8536Y4375D1*
X8544Y4346D1*
X8549Y4297D1*
X8547Y4267D1*
X8542Y4237D1*
X8532Y4209D1*
X8519Y4182D1*
X8503Y4157D1*
X8483Y4134D1*
X8461Y4114D1*
X8436Y4097D1*
X8409Y4083D1*
X8381Y4073D1*
X8352Y4067D1*
X8322Y4064D1*
X8292Y4066D1*
X8263Y4071D1*
X8225Y4084D1*
X7709D1*
X7710Y4442D1*
X7709Y4429D1*
X7710Y4757D1*
X7709Y4744D1*
X7710Y5072D1*
X7709Y5059D1*
Y5387D1*
X7756D1*
X7735Y5422D1*
X7725Y5450D1*
X7718Y5479D1*
X7714Y5509D1*
X7715Y5536D1*
X7703D1*
X7704Y5894D1*
X7703Y5881D1*
Y6110D1*
X7658Y6123D1*
X7631Y6135D1*
X7632Y5999D1*
X7631Y5851D1*
X7632Y5864D1*
Y5574D1*
X7648Y5540D1*
X7656Y5511D1*
X7661Y5461D1*
X7659Y5431D1*
X7654Y5402D1*
X7637Y5359D1*
Y5029D1*
Y4714D1*
Y4399D1*
Y4084D1*
X7029D1*
X6995Y4058D1*
X6968Y4045D1*
X6940Y4035D1*
X6911Y4028D1*
X6881Y4026D1*
X6851Y4027D1*
X6822Y4032D1*
X6793Y4041D1*
X6766Y4053D1*
X6740Y4069D1*
X6717Y4088D1*
X6697Y4110D1*
X6679Y4134D1*
X6665Y4161D1*
X6654Y4189D1*
X6647Y4218D1*
X6644Y4248D1*
Y4275D1*
X6535Y4383D1*
X6469Y4449D1*
X6451Y4472D1*
X6436Y4498D1*
X6428Y4527D1*
X6425Y4557D1*
Y4634D1*
X6074D1*
Y5612D1*
X6006Y5679D1*
X5996Y5685D1*
X5969Y5672D1*
X5939Y5665D1*
X5910Y5664D1*
X5880Y5668D1*
X5852Y5679D1*
X5826Y5694D1*
X5819Y5700D1*
X5804Y5688D1*
X5777Y5675D1*
X5749Y5666D1*
X5719Y5664D1*
X5689Y5667D1*
X5676Y5671D1*
Y5516D1*
X5673Y5486D1*
X5653Y5414D1*
X5652Y5145D1*
X5653Y5125D1*
Y4633D1*
X5192D1*
Y5021D1*
X5148Y5022D1*
X5118Y5027D1*
X5090Y5036D1*
X5063Y5048D1*
X5037Y5064D1*
X5014Y5083D1*
X4987Y5113D1*
X4961Y5088D1*
X4936Y5071D1*
X4909Y5057D1*
X4881Y5047D1*
X4852Y5041D1*
X4822Y5038D1*
X4792Y5039D1*
X4762Y5044D1*
X4734Y5053D1*
X4706Y5066D1*
X4681Y5082D1*
X4658Y5101D1*
X4637Y5123D1*
X4620Y5147D1*
X4606Y5173D1*
X4595Y5201D1*
X4588Y5230D1*
X4585Y5260D1*
Y5290D1*
X4590Y5320D1*
X4598Y5349D1*
X4610Y5376D1*
X4625Y5402D1*
X4646Y5427D1*
Y5483D1*
X4568D1*
X4569Y6022D1*
X6083Y8373D2*
X6313Y8104D1*
X6543Y8373D2*
X6083Y7834D1*
X5065Y8375D2*
X5525Y7836D1*
Y8375D2*
X5065Y7836D1*
X5423Y4903D2*
X5653Y4633D1*
Y5172D2*
X5192Y4633D1*
X6074Y5173D2*
X6304Y4904D1*
X6074Y4634D1*
X4510Y4429D2*
X4937Y3937D1*
X5364Y4429D2*
X4937Y3937D1*
X5582Y8372D2*
X6042Y7833D1*
Y8372D2*
X5582Y7833D1*
X4937Y8937D2*
X5364Y8445D1*
X4937Y8937D2*
X4510Y8445D1*
D19*
X6751Y6852D3*
Y7364D3*
X4798Y6710D3*
Y7222D3*
X6313Y7592D3*
Y8104D3*
X4798Y6265D3*
Y5753D3*
X5295Y7594D3*
Y8106D3*
X6752Y6169D3*
Y5658D3*
X5423Y5415D3*
Y4903D3*
X6304Y5416D3*
Y4904D3*
D20*
X8937Y7937D3*
Y6937D3*
Y5937D3*
Y4937D3*
X3937D3*
Y5937D3*
Y6937D3*
Y7937D3*
D21*
X5937Y3937D3*
X4937D3*
D22*
X8026Y7171D3*
Y7486D3*
Y7801D3*
Y8116D3*
X7317D3*
Y7801D3*
Y7486D3*
Y7171D3*
X8022Y5715D3*
Y6030D3*
Y6345D3*
Y6660D3*
X7314D3*
Y6345D3*
Y6030D3*
Y5715D3*
X8027Y4263D3*
Y4578D3*
Y4893D3*
Y5208D3*
X7319D3*
Y4893D3*
Y4578D3*
Y4263D3*
D25*
X6115Y7065D3*
X5918D3*
X5721D3*
X5524D3*
D26*
X5248Y6789D3*
Y6593D3*
Y6396D3*
Y6199D3*
D25*
X5524Y5923D3*
X5721D3*
X5918D3*
X6115D3*
D26*
X6390Y6199D3*
Y6396D3*
Y6593D3*
Y6789D3*
D27*
X5819Y6494D3*
D28*
X5976Y6651D3*
X5663D3*
Y6338D3*
X5976D3*
D19*
X5812Y7591D3*
Y8103D3*
D21*
X5937Y8937D3*
X4937D3*
M02*
