G04 DipTrace 2.4.0.2*
%INECGADCBufferAry.gto*%
%MOIN*%
%ADD10C,0.0098*%
%ADD15C,0.0118*%
%ADD51C,0.0046*%
%ADD52C,0.0077*%
%ADD53C,0.0062*%
%ADD54C,0.0033*%
%FSLAX44Y44*%
G04*
G70*
G90*
G75*
G01*
%LNTopSilk*%
%LPD*%
X7986Y6974D2*
D10*
X7356D1*
X7986Y8313D2*
X7356D1*
D15*
X8355Y7171D3*
X7983Y5518D2*
D10*
X7353D1*
X7983Y6857D2*
X7353D1*
D15*
X8352Y5715D3*
X7988Y4066D2*
D10*
X7358D1*
X7988Y5405D2*
X7358D1*
D15*
X8357Y4263D3*
X6410Y6022D2*
D10*
Y5904D1*
X6292D1*
X5229Y6022D2*
Y5904D1*
X5347D2*
X5229D1*
Y7085D2*
Y6967D1*
X5347Y7085D2*
X5229D1*
D15*
X6115Y7341D3*
X6410Y6967D2*
D10*
X6292Y7085D1*
X6970Y6923D2*
D51*
X6941Y6915D1*
X6912Y6897D1*
X6898Y6880D1*
Y6846D1*
X6912Y6829D1*
X6941Y6811D1*
X6970Y6803D1*
X7013Y6794D1*
X7085D1*
X7128Y6803D1*
X7156Y6811D1*
X7185Y6829D1*
X7200Y6846D1*
Y6880D1*
X7185Y6897D1*
X7156Y6915D1*
X7128Y6923D1*
X6956Y6979D2*
X6941Y6996D1*
X6899Y7022D1*
X7200D1*
X4408Y6954D2*
X4379Y6946D1*
X4350Y6928D1*
X4336Y6911D1*
Y6877D1*
X4350Y6860D1*
X4379Y6843D1*
X4408Y6834D1*
X4451Y6825D1*
X4523D1*
X4566Y6834D1*
X4594Y6843D1*
X4623Y6860D1*
X4638Y6877D1*
Y6911D1*
X4623Y6928D1*
X4594Y6946D1*
X4566Y6954D1*
X4408Y7019D2*
X4394D1*
X4365Y7027D1*
X4351Y7036D1*
X4336Y7053D1*
Y7088D1*
X4351Y7105D1*
X4365Y7113D1*
X4394Y7122D1*
X4422D1*
X4451Y7113D1*
X4494Y7096D1*
X4638Y7010D1*
Y7131D1*
X6564Y7840D2*
X6535Y7831D1*
X6507Y7814D1*
X6492Y7797D1*
Y7763D1*
X6507Y7745D1*
X6535Y7728D1*
X6564Y7719D1*
X6607Y7711D1*
X6679D1*
X6722Y7719D1*
X6751Y7728D1*
X6779Y7745D1*
X6794Y7763D1*
Y7797D1*
X6779Y7814D1*
X6751Y7831D1*
X6722Y7840D1*
X6493Y7913D2*
Y8007D1*
X6607Y7956D1*
Y7982D1*
X6622Y7999D1*
X6636Y8007D1*
X6679Y8016D1*
X6708D1*
X6751Y8007D1*
X6780Y7990D1*
X6794Y7964D1*
Y7939D1*
X6780Y7913D1*
X6765Y7904D1*
X6736Y7896D1*
X4422Y5972D2*
X4393Y5964D1*
X4364Y5946D1*
X4350Y5929D1*
Y5895D1*
X4364Y5878D1*
X4393Y5860D1*
X4422Y5852D1*
X4465Y5843D1*
X4537D1*
X4579Y5852D1*
X4608Y5860D1*
X4637Y5878D1*
X4651Y5895D1*
Y5929D1*
X4637Y5946D1*
X4608Y5964D1*
X4579Y5972D1*
X4651Y6114D2*
X4350D1*
X4551Y6028D1*
Y6157D1*
X4912Y7831D2*
X4884Y7823D1*
X4855Y7805D1*
X4841Y7788D1*
Y7754D1*
X4855Y7737D1*
X4884Y7720D1*
X4912Y7711D1*
X4955Y7702D1*
X5027D1*
X5070Y7711D1*
X5099Y7720D1*
X5127Y7737D1*
X5142Y7754D1*
Y7788D1*
X5127Y7805D1*
X5099Y7823D1*
X5070Y7831D1*
X4841Y7990D2*
Y7904D1*
X4970Y7896D1*
X4956Y7904D1*
X4941Y7930D1*
Y7956D1*
X4956Y7982D1*
X4984Y7999D1*
X5027Y8008D1*
X5056D1*
X5099Y7999D1*
X5128Y7982D1*
X5142Y7956D1*
Y7930D1*
X5128Y7904D1*
X5113Y7896D1*
X5085Y7887D1*
X6281Y5811D2*
X6252Y5802D1*
X6224Y5785D1*
X6209Y5768D1*
Y5734D1*
X6224Y5716D1*
X6252Y5699D1*
X6281Y5690D1*
X6324Y5682D1*
X6396D1*
X6439Y5690D1*
X6468Y5699D1*
X6496Y5716D1*
X6511Y5734D1*
Y5768D1*
X6496Y5785D1*
X6468Y5802D1*
X6439Y5811D1*
X6252Y5970D2*
X6224Y5961D1*
X6210Y5935D1*
Y5918D1*
X6224Y5892D1*
X6267Y5875D1*
X6339Y5866D1*
X6410D1*
X6468Y5875D1*
X6496Y5892D1*
X6511Y5918D1*
Y5927D1*
X6496Y5952D1*
X6468Y5970D1*
X6424Y5978D1*
X6410D1*
X6367Y5970D1*
X6339Y5952D1*
X6324Y5927D1*
Y5918D1*
X6339Y5892D1*
X6367Y5875D1*
X6410Y5866D1*
X5673Y5126D2*
X5645Y5117D1*
X5616Y5100D1*
X5601Y5083D1*
Y5048D1*
X5616Y5031D1*
X5645Y5014D1*
X5673Y5005D1*
X5716Y4996D1*
X5788D1*
X5831Y5005D1*
X5860Y5014D1*
X5888Y5031D1*
X5903Y5048D1*
Y5083D1*
X5888Y5100D1*
X5860Y5117D1*
X5831Y5126D1*
X5903Y5216D2*
X5602Y5302D1*
Y5181D1*
X6520Y5126D2*
X6492Y5118D1*
X6463Y5101D1*
X6449Y5084D1*
Y5049D1*
X6463Y5032D1*
X6492Y5015D1*
X6520Y5006D1*
X6563Y4997D1*
X6635D1*
X6678Y5006D1*
X6707Y5015D1*
X6735Y5032D1*
X6750Y5049D1*
Y5084D1*
X6735Y5101D1*
X6707Y5118D1*
X6678Y5126D1*
X6449Y5225D2*
X6463Y5199D1*
X6492Y5191D1*
X6520D1*
X6549Y5199D1*
X6564Y5216D1*
X6578Y5251D1*
X6592Y5277D1*
X6621Y5294D1*
X6649Y5302D1*
X6693D1*
X6721Y5294D1*
X6736Y5285D1*
X6750Y5259D1*
Y5225D1*
X6736Y5199D1*
X6721Y5191D1*
X6693Y5182D1*
X6649D1*
X6621Y5191D1*
X6592Y5208D1*
X6578Y5234D1*
X6564Y5268D1*
X6549Y5285D1*
X6520Y5294D1*
X6492D1*
X6463Y5285D1*
X6449Y5259D1*
Y5225D1*
X6004Y7833D2*
X5975Y7824D1*
X5946Y7807D1*
X5932Y7790D1*
Y7755D1*
X5946Y7738D1*
X5975Y7721D1*
X6004Y7712D1*
X6047Y7703D1*
X6119D1*
X6161Y7712D1*
X6190Y7721D1*
X6219Y7738D1*
X6233Y7755D1*
Y7790D1*
X6219Y7807D1*
X6190Y7824D1*
X6161Y7833D1*
X6032Y8000D2*
X6076Y7991D1*
X6104Y7974D1*
X6119Y7948D1*
Y7940D1*
X6104Y7914D1*
X6076Y7897D1*
X6032Y7888D1*
X6018D1*
X5975Y7897D1*
X5947Y7914D1*
X5932Y7940D1*
Y7948D1*
X5947Y7974D1*
X5975Y7991D1*
X6032Y8000D1*
X6104D1*
X6176Y7991D1*
X6219Y7974D1*
X6233Y7948D1*
Y7931D1*
X6219Y7906D1*
X6190Y7897D1*
X8698Y4472D2*
Y4170D1*
X8874Y4472D2*
Y4170D1*
X8754Y4472D1*
Y4170D1*
X3999Y4489D2*
X3981Y4474D1*
X3964Y4446D1*
X3956Y4417D1*
X3947Y4374D1*
Y4302D1*
X3956Y4259D1*
X3964Y4230D1*
X3981Y4202D1*
X3999Y4187D1*
X4033D1*
X4050Y4202D1*
X4068Y4230D1*
X4076Y4259D1*
X4085Y4302D1*
Y4374D1*
X4076Y4417D1*
X4068Y4446D1*
X4050Y4474D1*
X4033Y4489D1*
X3999D1*
X4140D2*
Y4273D1*
X4149Y4230D1*
X4166Y4202D1*
X4192Y4187D1*
X4209D1*
X4235Y4202D1*
X4252Y4230D1*
X4261Y4273D1*
Y4489D1*
X4377D2*
Y4187D1*
X4316Y4489D2*
X4437D1*
X8405Y7352D2*
Y7429D1*
X8390Y7455D1*
X8376Y7464D1*
X8347Y7473D1*
X8319D1*
X8290Y7464D1*
X8275Y7455D1*
X8261Y7429D1*
Y7352D1*
X8563D1*
X8405Y7412D2*
X8563Y7473D1*
X8319Y7528D2*
X8304Y7545D1*
X8262Y7571D1*
X8563D1*
X8416Y6284D2*
Y6362D1*
X8402Y6388D1*
X8387Y6396D1*
X8359Y6405D1*
X8330D1*
X8301Y6396D1*
X8287Y6388D1*
X8273Y6362D1*
Y6284D1*
X8574D1*
X8416Y6345D2*
X8574Y6405D1*
X8345Y6469D2*
X8330D1*
X8301Y6478D1*
X8287Y6486D1*
X8273Y6504D1*
Y6538D1*
X8287Y6555D1*
X8301Y6564D1*
X8330Y6573D1*
X8359D1*
X8388Y6564D1*
X8430Y6547D1*
X8574Y6461D1*
Y6581D1*
X8421Y5284D2*
Y5361D1*
X8407Y5387D1*
X8392Y5396D1*
X8364Y5405D1*
X8335D1*
X8307Y5396D1*
X8292Y5387D1*
X8278Y5361D1*
Y5284D1*
X8579D1*
X8421Y5344D2*
X8579Y5405D1*
X8278Y5477D2*
Y5572D1*
X8393Y5520D1*
Y5546D1*
X8407Y5563D1*
X8421Y5572D1*
X8464Y5581D1*
X8493D1*
X8536Y5572D1*
X8565Y5555D1*
X8579Y5529D1*
Y5503D1*
X8565Y5477D1*
X8550Y5469D1*
X8522Y5460D1*
X6338Y7402D2*
Y7187D1*
X6346Y7144D1*
X6364Y7116D1*
X6390Y7101D1*
X6407D1*
X6433Y7116D1*
X6450Y7144D1*
X6458Y7187D1*
Y7402D1*
X6514Y7345D2*
X6531Y7359D1*
X6557Y7402D1*
Y7101D1*
X4665Y5204D2*
D52*
X4354D1*
Y4701D1*
X4665D1*
X4354Y4964D2*
X4545D1*
X5178Y5084D2*
X5154Y5132D1*
X5106Y5180D1*
X5058Y5204D1*
X4963D1*
X4915Y5180D1*
X4867Y5132D1*
X4843Y5084D1*
X4819Y5012D1*
Y4893D1*
X4843Y4821D1*
X4867Y4773D1*
X4915Y4726D1*
X4963Y4701D1*
X5058D1*
X5106Y4726D1*
X5154Y4773D1*
X5178Y4821D1*
X5691Y5084D2*
X5667Y5132D1*
X5619Y5180D1*
X5571Y5204D1*
X5476D1*
X5428Y5180D1*
X5380Y5132D1*
X5356Y5084D1*
X5332Y5012D1*
Y4893D1*
X5356Y4821D1*
X5380Y4773D1*
X5428Y4726D1*
X5476Y4701D1*
X5571D1*
X5619Y4726D1*
X5667Y4773D1*
X5691Y4821D1*
Y4893D1*
X5571D1*
X6385Y4376D2*
D53*
X6232Y4778D1*
X6079Y4376D1*
X6136Y4510D2*
X6328D1*
X6509Y4778D2*
Y4376D1*
X6643D1*
X6700Y4396D1*
X6739Y4434D1*
X6758Y4472D1*
X6777Y4529D1*
Y4625D1*
X6758Y4683D1*
X6739Y4721D1*
X6700Y4759D1*
X6643Y4778D1*
X6509D1*
X7187Y4683D2*
X7168Y4721D1*
X7130Y4759D1*
X7092Y4778D1*
X7015D1*
X6977Y4759D1*
X6939Y4721D1*
X6919Y4683D1*
X6900Y4625D1*
Y4529D1*
X6919Y4472D1*
X6939Y4434D1*
X6977Y4396D1*
X7015Y4376D1*
X7092D1*
X7130Y4396D1*
X7168Y4434D1*
X7187Y4472D1*
X4709Y4616D2*
D54*
X4701Y4644D1*
X4687Y4673D1*
X4673Y4687D1*
X4644D1*
X4630Y4673D1*
X4615Y4644D1*
X4608Y4616D1*
X4601Y4573D1*
Y4501D1*
X4608Y4458D1*
X4615Y4429D1*
X4630Y4400D1*
X4644Y4386D1*
X4673D1*
X4687Y4400D1*
X4701Y4429D1*
X4709Y4458D1*
Y4501D1*
X4673D1*
X4842Y4687D2*
Y4386D1*
X4741Y4687D1*
Y4386D1*
X4875Y4687D2*
Y4386D1*
X4925D1*
X4946Y4400D1*
X4961Y4429D1*
X4968Y4458D1*
X4975Y4501D1*
Y4573D1*
X4968Y4616D1*
X4961Y4644D1*
X4946Y4673D1*
X4925Y4687D1*
X4875D1*
X5606Y4692D2*
X5663Y4391D1*
X5720Y4692D1*
X5861Y4621D2*
X5854Y4649D1*
X5839Y4678D1*
X5825Y4692D1*
X5796D1*
X5782Y4678D1*
X5768Y4649D1*
X5760Y4621D1*
X5753Y4578D1*
Y4506D1*
X5760Y4463D1*
X5768Y4434D1*
X5782Y4406D1*
X5796Y4391D1*
X5825D1*
X5839Y4406D1*
X5854Y4434D1*
X5861Y4463D1*
X6001Y4621D2*
X5994Y4649D1*
X5980Y4678D1*
X5965Y4692D1*
X5937D1*
X5922Y4678D1*
X5908Y4649D1*
X5901Y4621D1*
X5894Y4578D1*
Y4506D1*
X5901Y4463D1*
X5908Y4434D1*
X5922Y4406D1*
X5937Y4391D1*
X5965D1*
X5980Y4406D1*
X5994Y4434D1*
X6001Y4463D1*
M02*
