G04 DipTrace 2.4.0.2*
%INSocialLightsmall.gbl*%
%MOMM*%
%ADD13C,0.254*%
%ADD14C,0.152*%
%ADD24R,1.7X1.6*%
%ADD25R,1.7X2.0*%
%ADD26R,1.7X2.032*%
%ADD31C,0.711*%
%ADD35C,0.711*%
%FSLAX53Y53*%
G04*
G71*
G90*
G75*
G01*
%LNBottom*%
%LPD*%
X20196Y17848D2*
D13*
Y18859D1*
X22592Y21254D1*
Y29321D1*
X21696Y30217D1*
X21219D1*
X21430Y30428D1*
Y31590D1*
Y32860D1*
X18890Y12433D2*
X19328D1*
X20960Y14064D1*
Y15763D1*
X20761Y15961D1*
X20223D1*
X18807Y17377D1*
Y17842D1*
X18840Y17875D1*
Y20016D1*
X18591Y20265D1*
X18890Y12433D2*
Y11270D1*
Y10000D1*
X13810Y11270D2*
Y17529D1*
X15554Y19274D1*
X16242D1*
X13810Y12433D2*
Y11270D1*
Y10000D1*
X23029Y20515D2*
Y29484D1*
X23970Y30425D1*
Y31590D1*
Y32860D1*
X21698Y19300D2*
Y12701D1*
X21430Y12433D1*
Y11270D1*
Y10000D1*
X22295Y20024D2*
X22418D1*
Y19102D1*
X22117Y18801D1*
Y13090D1*
X22775Y12433D1*
X23970D1*
Y11270D1*
Y10000D1*
X15586Y19971D2*
Y19956D1*
X14520D1*
X14122Y20354D1*
Y26939D1*
X15103Y27920D1*
Y29135D1*
X13810Y30428D1*
Y31590D1*
Y32860D1*
X16350Y12435D2*
X16481D1*
X18976Y14929D1*
X19169D1*
X19329Y14770D1*
X16350Y12435D2*
Y16789D1*
X15501Y17638D1*
X14396Y28473D2*
X14158D1*
X13580Y27895D1*
Y19946D1*
X12015Y18382D1*
X16350Y12435D2*
Y11270D1*
Y10000D1*
X24829Y28509D2*
Y15592D1*
X23870Y14632D1*
X16350Y30428D2*
Y31590D1*
Y32860D1*
Y30428D2*
X15536D1*
Y27691D1*
X14557Y26713D1*
Y20591D1*
X14973D1*
X21008Y18770D2*
Y17678D1*
X20521Y17191D1*
X19954D1*
X19541Y17604D1*
Y18783D1*
X22144Y21386D1*
Y28257D1*
X19975Y30425D1*
X18890D1*
Y31590D1*
Y32860D1*
D35*
X21698Y19300D3*
X22295Y20024D3*
X14973Y20591D3*
X18840Y17875D3*
X21008Y18770D3*
X20196Y17848D3*
X23029Y20515D3*
X16242Y19274D3*
X15586Y19971D3*
X19329Y14770D3*
X15501Y17638D3*
X14396Y28473D3*
X12015Y18382D3*
X24829Y28509D3*
X23870Y14632D3*
X12543Y31396D2*
D14*
X12710D1*
X12376Y31247D2*
X12710D1*
X12212Y31098D2*
X12710D1*
X12045Y30949D2*
X12710D1*
X11881Y30800D2*
X12710D1*
X11714Y30651D2*
X12710D1*
X11550Y30502D2*
X12710D1*
X11383Y30353D2*
X12710D1*
X11219Y30204D2*
X12748D1*
X11052Y30055D2*
X12967D1*
X10886Y29906D2*
X13258D1*
X10764Y29757D2*
X13956D1*
X10764Y29607D2*
X14103D1*
X10767Y29458D2*
X14253D1*
X10769Y29309D2*
X14401D1*
X10771Y29160D2*
X14551D1*
X10771Y29011D2*
X14701D1*
X10774Y28862D2*
X14710D1*
X10776Y28713D2*
X14720D1*
X10776Y28564D2*
X14727D1*
X10778Y28415D2*
X14727D1*
X10781Y28266D2*
X14727D1*
X10781Y28117D2*
X14727D1*
X10783Y27968D2*
X14625D1*
X10786Y27819D2*
X14475D1*
X10788Y27670D2*
X14327D1*
X10788Y27521D2*
X14177D1*
X10790Y27371D2*
X14027D1*
X10793Y27222D2*
X13879D1*
X10793Y27073D2*
X13772D1*
X10795Y26924D2*
X13746D1*
X10798Y26775D2*
X13746D1*
X10798Y26626D2*
X13746D1*
X10800Y26477D2*
X13746D1*
X10802Y26328D2*
X13746D1*
X10805Y26179D2*
X13746D1*
X10805Y26030D2*
X13746D1*
X10807Y25881D2*
X13746D1*
X10809Y25732D2*
X13746D1*
X10809Y25583D2*
X13746D1*
X10812Y25434D2*
X13746D1*
X10814Y25285D2*
X13746D1*
X10817Y25135D2*
X13746D1*
X10817Y24986D2*
X13746D1*
X10819Y24837D2*
X13746D1*
X10821Y24688D2*
X13746D1*
X10821Y24539D2*
X13746D1*
X10824Y24390D2*
X13746D1*
X10826Y24241D2*
X13746D1*
X10826Y24092D2*
X13746D1*
X10828Y23943D2*
X13746D1*
X10831Y23794D2*
X13746D1*
X10833Y23645D2*
X13746D1*
X10833Y23496D2*
X13746D1*
X10836Y23347D2*
X13746D1*
X10838Y23198D2*
X13746D1*
X10838Y23049D2*
X13746D1*
X10840Y22899D2*
X13746D1*
X10843Y22750D2*
X13746D1*
X10843Y22601D2*
X13746D1*
X10845Y22452D2*
X13746D1*
X10848Y22303D2*
X13746D1*
X10850Y22154D2*
X13746D1*
X10850Y22005D2*
X13746D1*
X10852Y21856D2*
X13746D1*
X10855Y21707D2*
X13746D1*
X10855Y21558D2*
X13746D1*
X10857Y21409D2*
X13746D1*
X10859Y21260D2*
X13746D1*
X10859Y21111D2*
X13746D1*
X10862Y20962D2*
X13746D1*
X10864Y20813D2*
X13746D1*
X10867Y20663D2*
X13746D1*
X10867Y20514D2*
X13746D1*
X10869Y20365D2*
X13746D1*
X10871Y20216D2*
X13772D1*
X10871Y20067D2*
X13882D1*
X10874Y19918D2*
X14032D1*
X10876Y19769D2*
X14182D1*
X10878Y19620D2*
X14372D1*
X10878Y19471D2*
X15225D1*
X10881Y19322D2*
X15077D1*
X10883Y19173D2*
X14927D1*
X10883Y19024D2*
X14779D1*
X10886Y18875D2*
X14629D1*
X15681D2*
X15791D1*
X10888Y18726D2*
X14479D1*
X15534D2*
X16008D1*
X16477D2*
X16594D1*
X10888Y18577D2*
X14332D1*
X15384D2*
X16694D1*
X10890Y18427D2*
X14182D1*
X15234D2*
X16794D1*
X10893Y18278D2*
X14034D1*
X15086D2*
X16894D1*
X10895Y18129D2*
X13884D1*
X14936D2*
X16994D1*
X10895Y17980D2*
X13734D1*
X14788D2*
X17096D1*
X10898Y17831D2*
X13586D1*
X14638D2*
X17196D1*
X10900Y17682D2*
X13467D1*
X14488D2*
X17296D1*
X10900Y17533D2*
X13434D1*
X14341D2*
X17396D1*
X10902Y17384D2*
X13434D1*
X14191D2*
X17496D1*
X10905Y17235D2*
X13434D1*
X14186D2*
X17596D1*
X10905Y17086D2*
X13434D1*
X14186D2*
X17699D1*
X10907Y16937D2*
X13434D1*
X14186D2*
X17799D1*
X10909Y16788D2*
X13434D1*
X14186D2*
X17899D1*
X10912Y16639D2*
X13434D1*
X14186D2*
X17999D1*
X10912Y16490D2*
X13434D1*
X14186D2*
X18099D1*
X10914Y16341D2*
X13434D1*
X14186D2*
X18199D1*
X10917Y16191D2*
X13434D1*
X14186D2*
X18301D1*
X10917Y16042D2*
X13434D1*
X14186D2*
X18401D1*
X10919Y15893D2*
X13434D1*
X14186D2*
X18501D1*
X10921Y15744D2*
X13434D1*
X14186D2*
X18601D1*
X10924Y15595D2*
X13434D1*
X14186D2*
X18701D1*
X10924Y15446D2*
X13434D1*
X14186D2*
X18801D1*
X10926Y15297D2*
X13434D1*
X14186D2*
X18904D1*
X10928Y15148D2*
X13434D1*
X14186D2*
X19004D1*
X10928Y14999D2*
X13434D1*
X14186D2*
X19104D1*
X10931Y14850D2*
X13434D1*
X14186D2*
X19204D1*
X10933Y14701D2*
X13434D1*
X14186D2*
X19013D1*
X10933Y14552D2*
X13434D1*
X14186D2*
X18813D1*
X10936Y14403D2*
X13434D1*
X14186D2*
X18616D1*
X10938Y14254D2*
X13434D1*
X14186D2*
X18416D1*
X10940Y14105D2*
X13434D1*
X14186D2*
X18216D1*
X10940Y13955D2*
X13434D1*
X14186D2*
X18016D1*
X10943Y13806D2*
X13434D1*
X14186D2*
X17816D1*
X10945Y13657D2*
X13434D1*
X14186D2*
X17632D1*
X10945Y13508D2*
X13434D1*
X14186D2*
X17585D1*
X10948Y13359D2*
X13434D1*
X14186D2*
X17587D1*
X10978Y13210D2*
X13434D1*
X14186D2*
X17592D1*
X11129Y13061D2*
X13434D1*
X14186D2*
X17594D1*
X11276Y12912D2*
X13174D1*
X14446D2*
X17596D1*
X11426Y12763D2*
X12886D1*
X14734D2*
X17601D1*
X11576Y12614D2*
X12727D1*
X14893D2*
X17604D1*
X11724Y12465D2*
X12710D1*
X14910D2*
X17608D1*
X11874Y12316D2*
X12710D1*
X14910D2*
X17611D1*
X12021Y12167D2*
X12710D1*
X14910D2*
X17616D1*
X12171Y12018D2*
X12710D1*
X14910D2*
X17618D1*
X12322Y11869D2*
X12710D1*
X14910D2*
X17623D1*
X12469Y11719D2*
X12710D1*
X14910D2*
X17625D1*
X12619Y11570D2*
X12712D1*
X14910D2*
X17627D1*
X14910Y11421D2*
X17632D1*
X12725Y30860D2*
Y31572D1*
X11513Y30483D1*
X10748Y29794D1*
X10934Y13240D1*
X12726Y11449D1*
X12728Y12305D1*
X12725Y12370D1*
Y12530D1*
X12738Y12605D1*
X12773Y12672D1*
X12830Y12725D1*
X12920Y12774D1*
X13380Y13009D1*
X13439Y13030D1*
X13448Y13099D1*
Y17529D1*
X13456Y17605D1*
X13480Y17677D1*
X13510Y17731D1*
X13608Y17839D1*
X15253Y19484D1*
X15182Y19540D1*
X15129Y19594D1*
X14520D1*
X14444Y19602D1*
X14372Y19626D1*
X14318Y19656D1*
X14210Y19754D1*
X13866Y20098D1*
X13818Y20158D1*
X13784Y20225D1*
X13767Y20285D1*
X13760Y20430D1*
Y26939D1*
X13768Y27015D1*
X13792Y27087D1*
X13822Y27141D1*
X13920Y27249D1*
X14741Y28072D1*
X14740Y28629D1*
X14717Y29007D1*
X13899Y29827D1*
X13485Y29825D1*
X13408Y29839D1*
X13310Y29886D1*
X12853Y30121D1*
X12792Y30166D1*
X12748Y30229D1*
X12727Y30304D1*
X12725Y30406D1*
Y30860D1*
X14895Y12000D2*
Y11269D1*
X15501Y11284D1*
X17651Y11328D1*
X17635Y11928D1*
X17599Y13511D1*
X17609Y13586D1*
X17643Y13654D1*
X17693Y13704D1*
X19222Y14845D1*
X16570Y18781D1*
X16476Y18732D1*
X16405Y18706D1*
X16330Y18690D1*
X16255Y18683D1*
X16178Y18687D1*
X16103Y18700D1*
X16031Y18722D1*
X15961Y18754D1*
X15897Y18794D1*
X15838Y18843D1*
X15776Y18912D1*
X15702Y18910D1*
X14172Y17377D1*
Y13031D1*
X14242Y13009D1*
X14767Y12739D1*
X14828Y12694D1*
X14872Y12631D1*
X14893Y12556D1*
X14895Y12454D1*
Y12000D1*
X17450Y31877D2*
X17791D1*
X17450Y31728D2*
X17791D1*
X17450Y31579D2*
X17791D1*
X17450Y31430D2*
X17791D1*
X17450Y31281D2*
X17791D1*
X17450Y31132D2*
X17791D1*
X17450Y30983D2*
X17791D1*
X17450Y30834D2*
X17791D1*
X17450Y30685D2*
X17791D1*
X17450Y30536D2*
X17791D1*
X17450Y30387D2*
X17791D1*
X17431Y30238D2*
X17810D1*
X17257Y30088D2*
X17982D1*
X16969Y29939D2*
X18272D1*
X19508D2*
X19934D1*
X15912Y29790D2*
X20084D1*
X15912Y29641D2*
X20232D1*
X15912Y29492D2*
X20382D1*
X15912Y29343D2*
X20532D1*
X15912Y29194D2*
X20680D1*
X15912Y29045D2*
X20830D1*
X15912Y28896D2*
X20977D1*
X15912Y28747D2*
X21127D1*
X15912Y28598D2*
X21277D1*
X15912Y28449D2*
X21425D1*
X15912Y28300D2*
X21575D1*
X15912Y28151D2*
X21723D1*
X15912Y28002D2*
X21768D1*
X15912Y27852D2*
X21768D1*
X15912Y27703D2*
X21768D1*
X15886Y27554D2*
X21768D1*
X15776Y27405D2*
X21768D1*
X15626Y27256D2*
X21768D1*
X15478Y27107D2*
X21768D1*
X15328Y26958D2*
X21768D1*
X15178Y26809D2*
X21768D1*
X15069Y26660D2*
X21768D1*
X15064Y26511D2*
X21768D1*
X15059Y26362D2*
X21768D1*
X15055Y26213D2*
X21768D1*
X15050Y26064D2*
X21768D1*
X15045Y25915D2*
X21768D1*
X15038Y25766D2*
X21768D1*
X15033Y25616D2*
X21768D1*
X15028Y25467D2*
X21768D1*
X15024Y25318D2*
X21768D1*
X15019Y25169D2*
X21768D1*
X15014Y25020D2*
X21768D1*
X15009Y24871D2*
X21768D1*
X15002Y24722D2*
X21768D1*
X14997Y24573D2*
X21768D1*
X14993Y24424D2*
X21768D1*
X14988Y24275D2*
X21768D1*
X14983Y24126D2*
X21768D1*
X14978Y23977D2*
X21768D1*
X14974Y23828D2*
X21768D1*
X14967Y23679D2*
X21768D1*
X14962Y23530D2*
X21768D1*
X14957Y23380D2*
X21768D1*
X14952Y23231D2*
X21768D1*
X14947Y23082D2*
X21768D1*
X14943Y22933D2*
X21768D1*
X14938Y22784D2*
X21768D1*
X14933Y22635D2*
X21768D1*
X14933Y22486D2*
X21768D1*
X14933Y22337D2*
X21768D1*
X14933Y22188D2*
X21768D1*
X14933Y22039D2*
X21768D1*
X14933Y21890D2*
X21768D1*
X14933Y21741D2*
X21768D1*
X14933Y21592D2*
X21768D1*
X14933Y21443D2*
X21675D1*
X14933Y21294D2*
X21525D1*
X15193Y21144D2*
X21377D1*
X15417Y20995D2*
X21227D1*
X15519Y20846D2*
X21077D1*
X15569Y20697D2*
X20930D1*
X15724Y20548D2*
X20780D1*
X16007Y20399D2*
X20632D1*
X16121Y20250D2*
X20482D1*
X16176Y20101D2*
X20332D1*
X16190Y19952D2*
X20184D1*
X16517Y19803D2*
X20034D1*
X16707Y19654D2*
X19887D1*
X16800Y19505D2*
X19737D1*
X16841Y19356D2*
X19587D1*
X16843Y19207D2*
X19439D1*
X16805Y19058D2*
X19289D1*
X16874Y18908D2*
X19187D1*
X16974Y18759D2*
X19165D1*
X17076Y18610D2*
X19165D1*
X17176Y18461D2*
X19165D1*
X17276Y18312D2*
X19165D1*
X17376Y18163D2*
X19165D1*
X17476Y18014D2*
X19165D1*
X17576Y17865D2*
X19165D1*
X17679Y17716D2*
X19165D1*
X17779Y17567D2*
X19168D1*
X17879Y17418D2*
X19215D1*
X17979Y17269D2*
X19351D1*
X21124D2*
X21323D1*
X18079Y17120D2*
X19499D1*
X20974D2*
X21323D1*
X18179Y16971D2*
X19649D1*
X20827D2*
X21323D1*
X18281Y16822D2*
X21323D1*
X18381Y16672D2*
X21323D1*
X18481Y16523D2*
X21323D1*
X18581Y16374D2*
X21323D1*
X18681Y16225D2*
X21323D1*
X18781Y16076D2*
X21323D1*
X18884Y15927D2*
X21323D1*
X18984Y15778D2*
X21323D1*
X19084Y15629D2*
X21323D1*
X19184Y15480D2*
X21323D1*
X19527Y15331D2*
X21323D1*
X19767Y15182D2*
X21323D1*
X19872Y15033D2*
X21323D1*
X19922Y14884D2*
X21323D1*
X19934Y14735D2*
X21323D1*
X19905Y14586D2*
X21323D1*
X19831Y14436D2*
X21323D1*
X19684Y14287D2*
X21323D1*
X18810Y14138D2*
X21323D1*
X18610Y13989D2*
X21323D1*
X18412Y13840D2*
X21323D1*
X18265Y13691D2*
X21323D1*
X18115Y13542D2*
X21323D1*
X17965Y13393D2*
X21323D1*
X17931Y13244D2*
X21323D1*
X17934Y13095D2*
X21323D1*
X17938Y12946D2*
X20861D1*
X17941Y12797D2*
X20570D1*
X17945Y12648D2*
X20363D1*
X17948Y12499D2*
X20330D1*
X17950Y12350D2*
X20330D1*
X17955Y12200D2*
X20330D1*
X17957Y12051D2*
X20330D1*
X17962Y11902D2*
X20330D1*
X17965Y11753D2*
X20330D1*
X17969Y11604D2*
X20330D1*
X17972Y11455D2*
X20330D1*
X17805Y30860D2*
Y31997D1*
X17436Y31996D1*
X17435Y31609D1*
Y30555D1*
Y30330D1*
X17422Y30255D1*
X17387Y30188D1*
X17330Y30135D1*
X17240Y30086D1*
X16782Y29851D1*
X16708Y29828D1*
X16599Y29825D1*
X16025D1*
X15948Y29839D1*
X15899Y29861D1*
X15897Y28675D1*
Y27691D1*
X15889Y27616D1*
X15866Y27543D1*
X15835Y27489D1*
X15737Y27382D1*
X15055Y26700D1*
X14919Y22674D1*
Y21181D1*
X15010Y21180D1*
X15086Y21171D1*
X15159Y21151D1*
X15230Y21123D1*
X15296Y21085D1*
X15357Y21039D1*
X15411Y20986D1*
X15459Y20926D1*
X15498Y20861D1*
X15528Y20791D1*
X15549Y20718D1*
X15563Y20591D1*
X15561Y20560D1*
X15623D1*
X15699Y20550D1*
X15773Y20531D1*
X15843Y20502D1*
X15909Y20465D1*
X15970Y20419D1*
X16025Y20366D1*
X16072Y20306D1*
X16111Y20241D1*
X16141Y20171D1*
X16162Y20098D1*
X16176Y19971D1*
X16164Y19860D1*
X16279Y19863D1*
X16355Y19853D1*
X16428Y19833D1*
X16499Y19805D1*
X16565Y19767D1*
X16626Y19721D1*
X16681Y19668D1*
X16728Y19608D1*
X16767Y19543D1*
X16797Y19473D1*
X16818Y19400D1*
X16832Y19274D1*
X16827Y19198D1*
X16812Y19123D1*
X16779Y19031D1*
X17039Y18642D1*
X19254Y15354D1*
X19366Y15359D1*
X19442Y15349D1*
X19516Y15330D1*
X19586Y15301D1*
X19652Y15263D1*
X19713Y15218D1*
X19768Y15164D1*
X19815Y15105D1*
X19854Y15039D1*
X19884Y14969D1*
X19905Y14896D1*
X19919Y14770D1*
X19914Y14694D1*
X19900Y14619D1*
X19875Y14547D1*
X19842Y14478D1*
X19800Y14415D1*
X19751Y14357D1*
X19694Y14306D1*
X19631Y14263D1*
X19564Y14228D1*
X19492Y14202D1*
X19418Y14186D1*
X19342Y14180D1*
X19266Y14183D1*
X19191Y14196D1*
X19118Y14218D1*
X19049Y14250D1*
X18990Y14287D1*
X18793Y14137D1*
X18402Y13845D1*
X17913Y13355D1*
X17960Y11401D1*
X20343D1*
X20345Y12064D1*
X20348Y12305D1*
X20345Y12370D1*
Y12530D1*
X20358Y12605D1*
X20393Y12672D1*
X20450Y12725D1*
X20540Y12774D1*
X20998Y13009D1*
X21072Y13032D1*
X21181Y13035D1*
X21336D1*
X21337Y17528D1*
X21308Y17476D1*
X21210Y17369D1*
X20777Y16935D1*
X20717Y16888D1*
X20650Y16853D1*
X20590Y16836D1*
X20445Y16830D1*
X19954D1*
X19878Y16838D1*
X19806Y16861D1*
X19752Y16891D1*
X19644Y16989D1*
X19285Y17348D1*
X19237Y17407D1*
X19203Y17475D1*
X19186Y17535D1*
X19179Y17680D1*
Y18783D1*
X19187Y18859D1*
X19211Y18931D1*
X19241Y18985D1*
X19339Y19093D1*
X21782Y21538D1*
X21780Y28109D1*
X19823Y30063D1*
X19735D1*
X19322Y29851D1*
X19248Y29828D1*
X19139Y29825D1*
X18565D1*
X18488Y29839D1*
X18390Y29886D1*
X17933Y30121D1*
X17872Y30166D1*
X17828Y30229D1*
X17807Y30304D1*
X17805Y30406D1*
Y30860D1*
X25070Y31404D2*
X25289D1*
X25070Y31255D2*
X25435D1*
X25070Y31106D2*
X25582D1*
X25070Y30957D2*
X25727D1*
X25070Y30808D2*
X25873D1*
X25070Y30659D2*
X26020D1*
X25070Y30510D2*
X26166D1*
X25070Y30361D2*
X26311D1*
X25036Y30211D2*
X26458D1*
X24827Y30062D2*
X26604D1*
X24536Y29913D2*
X26749D1*
X23836Y29764D2*
X26897D1*
X23686Y29615D2*
X26904D1*
X23539Y29466D2*
X26901D1*
X23405Y29317D2*
X26901D1*
X23405Y29168D2*
X26899D1*
X23405Y29019D2*
X26899D1*
X23405Y28870D2*
X26897D1*
X23405Y28721D2*
X26897D1*
X23405Y28572D2*
X26894D1*
X23405Y28423D2*
X26894D1*
X23405Y28274D2*
X26892D1*
X23405Y28125D2*
X26892D1*
X23405Y27975D2*
X26889D1*
X23405Y27826D2*
X26889D1*
X23405Y27677D2*
X26887D1*
X23405Y27528D2*
X26887D1*
X23405Y27379D2*
X26885D1*
X23405Y27230D2*
X26885D1*
X23405Y27081D2*
X26882D1*
X23405Y26932D2*
X26882D1*
X23405Y26783D2*
X26880D1*
X23405Y26634D2*
X26880D1*
X23405Y26485D2*
X26878D1*
X23405Y26336D2*
X26878D1*
X23405Y26187D2*
X26875D1*
X23405Y26038D2*
X26875D1*
X23405Y25889D2*
X26873D1*
X23405Y25739D2*
X26873D1*
X23405Y25590D2*
X26870D1*
X23405Y25441D2*
X26870D1*
X23405Y25292D2*
X26868D1*
X23405Y25143D2*
X26866D1*
X23405Y24994D2*
X26866D1*
X23405Y24845D2*
X26863D1*
X23405Y24696D2*
X26863D1*
X23405Y24547D2*
X26861D1*
X23405Y24398D2*
X26861D1*
X23405Y24249D2*
X26859D1*
X23405Y24100D2*
X26859D1*
X23405Y23951D2*
X26856D1*
X23405Y23802D2*
X26856D1*
X23405Y23653D2*
X26854D1*
X23405Y23503D2*
X26854D1*
X23405Y23354D2*
X26851D1*
X23405Y23205D2*
X26851D1*
X23405Y23056D2*
X26849D1*
X23405Y22907D2*
X26849D1*
X23405Y22758D2*
X26847D1*
X23405Y22609D2*
X26847D1*
X23405Y22460D2*
X26844D1*
X23405Y22311D2*
X26844D1*
X23405Y22162D2*
X26842D1*
X23405Y22013D2*
X26842D1*
X23405Y21864D2*
X26839D1*
X23405Y21715D2*
X26839D1*
X23405Y21566D2*
X26837D1*
X23405Y21417D2*
X26837D1*
X23405Y21267D2*
X26835D1*
X23405Y21118D2*
X26835D1*
X23420Y20969D2*
X26832D1*
X23548Y20820D2*
X26832D1*
X23612Y20671D2*
X26830D1*
X23634Y20522D2*
X26830D1*
X23617Y20373D2*
X26828D1*
X23558Y20224D2*
X26828D1*
X23439Y20075D2*
X26825D1*
X22893Y19926D2*
X22975D1*
X23083D2*
X26825D1*
X22846Y19777D2*
X26823D1*
X22796Y19628D2*
X26823D1*
X22796Y19479D2*
X26820D1*
X22796Y19330D2*
X26820D1*
X22796Y19181D2*
X26818D1*
X22788Y19031D2*
X26818D1*
X22719Y18882D2*
X26816D1*
X22577Y18733D2*
X26813D1*
X22493Y18584D2*
X26813D1*
X22493Y18435D2*
X26811D1*
X22493Y18286D2*
X26811D1*
X22493Y18137D2*
X26809D1*
X22493Y17988D2*
X26809D1*
X22493Y17839D2*
X26806D1*
X22493Y17690D2*
X26806D1*
X22493Y17541D2*
X26804D1*
X22493Y17392D2*
X26804D1*
X22493Y17243D2*
X26801D1*
X22493Y17094D2*
X26801D1*
X22493Y16945D2*
X26799D1*
X22493Y16795D2*
X26799D1*
X22493Y16646D2*
X26797D1*
X22493Y16497D2*
X26797D1*
X22493Y16348D2*
X26794D1*
X22493Y16199D2*
X26794D1*
X22493Y16050D2*
X26792D1*
X22493Y15901D2*
X26792D1*
X22493Y15752D2*
X26789D1*
X22493Y15603D2*
X26789D1*
X22493Y15454D2*
X26787D1*
X22493Y15305D2*
X26787D1*
X22493Y15156D2*
X26785D1*
X22493Y15007D2*
X26785D1*
X22493Y14858D2*
X26782D1*
X22493Y14709D2*
X26782D1*
X22493Y14559D2*
X26780D1*
X22493Y14410D2*
X26780D1*
X22493Y14261D2*
X26778D1*
X22493Y14112D2*
X26778D1*
X22493Y13963D2*
X26775D1*
X22493Y13814D2*
X26775D1*
X22493Y13665D2*
X26773D1*
X22493Y13516D2*
X26773D1*
X22493Y13367D2*
X26770D1*
X22517Y13218D2*
X26770D1*
X22665Y13069D2*
X26768D1*
X22815Y12920D2*
X23351D1*
X24591D2*
X26658D1*
X24879Y12771D2*
X26485D1*
X25051Y12622D2*
X26313D1*
X25070Y12473D2*
X26139D1*
X25070Y12323D2*
X25966D1*
X25070Y12174D2*
X25794D1*
X25070Y12025D2*
X25620D1*
X25070Y11876D2*
X25449D1*
X25070Y11727D2*
X25275D1*
X25055Y12000D2*
Y11521D1*
X25429Y11847D1*
X26784Y13016D1*
X26793Y14275D1*
X26920Y29756D1*
X25053Y31660D1*
X25055Y30555D1*
Y30330D1*
X25042Y30255D1*
X25007Y30188D1*
X24950Y30135D1*
X24860Y30086D1*
X24402Y29851D1*
X24328Y29828D1*
X24219Y29825D1*
X23883D1*
X23391Y29332D1*
Y20981D1*
X23468Y20909D1*
X23515Y20849D1*
X23554Y20784D1*
X23585Y20714D1*
X23606Y20641D1*
X23619Y20515D1*
X23615Y20439D1*
X23600Y20364D1*
X23576Y20292D1*
X23543Y20223D1*
X23501Y20159D1*
X23451Y20102D1*
X23394Y20051D1*
X23332Y20008D1*
X23264Y19973D1*
X23192Y19947D1*
X23118Y19931D1*
X23042Y19924D1*
X22966Y19928D1*
X22880Y19944D1*
X22866Y19874D1*
X22842Y19801D1*
X22809Y19733D1*
X22779Y19687D1*
X22780Y19102D1*
X22772Y19026D1*
X22748Y18954D1*
X22718Y18900D1*
X22620Y18792D1*
X22479Y18649D1*
X22481Y13238D1*
X22927Y12794D1*
X23120D1*
X23538Y13009D1*
X23612Y13032D1*
X23721Y13035D1*
X24295D1*
X24372Y13021D1*
X24470Y12974D1*
X24927Y12739D1*
X24988Y12694D1*
X25032Y12631D1*
X25053Y12556D1*
X25055Y12454D1*
Y12000D1*
D24*
X13810Y31590D3*
G36*
X12960Y30330D2*
Y30795D1*
X14660D1*
Y30330D1*
X14135Y30060D1*
X13485D1*
X12960Y30330D1*
G37*
D25*
X13810Y32860D3*
D24*
X18890Y31590D3*
X16350D3*
D26*
X18890Y32860D3*
X16350D3*
G36*
X15500Y30330D2*
Y30795D1*
X17200D1*
Y30330D1*
X16675Y30060D1*
X16025D1*
X15500Y30330D1*
G37*
G36*
X18040D2*
Y30790D1*
X19740D1*
Y30330D1*
X19215Y30060D1*
X18565D1*
X18040Y30330D1*
G37*
D24*
X23970Y11270D3*
X21430D3*
G36*
X22280Y12530D2*
Y12065D1*
X20580D1*
Y12530D1*
X21105Y12800D1*
X21755D1*
X22280Y12530D1*
G37*
G36*
X24820D2*
Y12065D1*
X23120D1*
Y12530D1*
X23645Y12800D1*
X24295D1*
X24820Y12530D1*
G37*
D26*
X23970Y10000D3*
X21430D3*
D24*
X23970Y31590D3*
X21430D3*
D26*
X23970Y32860D3*
X21430D3*
G36*
X20580Y30330D2*
Y30795D1*
X22280D1*
Y30330D1*
X21755Y30060D1*
X21105D1*
X20580Y30330D1*
G37*
G36*
X23120D2*
Y30790D1*
X24820D1*
Y30330D1*
X24295Y30060D1*
X23645D1*
X23120Y30330D1*
G37*
D24*
X16350Y11270D3*
X18890D3*
D26*
X16350Y10000D3*
X18890D3*
G36*
X19740Y12530D2*
Y12065D1*
X18040D1*
Y12530D1*
X18565Y12800D1*
X19215D1*
X19740Y12530D1*
G37*
G36*
X17200D2*
Y12070D1*
X15500D1*
Y12530D1*
X16025Y12800D1*
X16675D1*
X17200Y12530D1*
G37*
D24*
X13810Y11270D3*
G36*
X14660Y12530D2*
Y12065D1*
X12960D1*
Y12530D1*
X13485Y12800D1*
X14135D1*
X14660Y12530D1*
G37*
D25*
X13810Y10000D3*
D31*
X19356Y21032D3*
X18594D3*
X17832D3*
X20118D3*
X19353Y21792D3*
X18591D3*
X17829D3*
X20115D3*
X19353Y20265D3*
X18591D3*
X17829D3*
X20115D3*
X19353Y22555D3*
X18591D3*
X17829D3*
X20115D3*
G36*
X21225Y15242D2*
X21196Y15432D1*
X21136Y15580D1*
X21060Y15674D1*
X20984Y15750D1*
X20871Y15813D1*
X20806Y15839D1*
X20711Y15859D1*
X20660Y15869D1*
X20578Y15874D1*
X20513Y15851D1*
X20475Y15813D1*
X20449Y15788D1*
X20385Y15775D1*
X20360Y15780D1*
X20309Y15795D1*
X20282Y15826D1*
X20183Y15744D1*
X20233Y15668D1*
Y15650D1*
X20144Y15614D1*
X20132Y15559D1*
X20122Y15458D1*
X20374Y15564D1*
X20406D1*
X20449Y15557D1*
X20459Y15534D1*
X20439Y15483D1*
X20324Y15420D1*
X20152Y15349D1*
X20177Y15298D1*
X20241Y15244D1*
X20431Y15318D1*
X20425Y15280D1*
Y15242D1*
X21225D1*
G37*
M02*
