M48
METRIC,0000.00
T01C0.33
T02C1.1
%
T01
X+001848Y+002303
X+001758Y+002303
X+001668Y+002303
X+001668Y+002393
X+001758Y+002393
X+001848Y+002393
X+001848Y+002483
X+001758Y+002483
X+001668Y+002483
X+001568Y+002230
X+001501Y+002161
X+001615Y+002085
X+001783Y+002096
X+001715Y+001939
X+001793Y+001848
X+001864Y+001788
X+001942Y+001879
X+002017Y+001930
X+001977Y+002094
X+001969Y+002183
X+002096Y+002583
X+001762Y+002752
X+001222Y+002791
X+001431Y+001433
T02
X+001127Y+002143
X+001000Y+002143
X+001000Y+001889
X+001127Y+001889
X+001127Y+001635
X+001000Y+001635
X+001000Y+001381
X+001127Y+001381
X+001381Y+001127
X+001381Y+001000
X+001635Y+001000
X+001635Y+001127
X+001889Y+001127
X+001889Y+001000
X+002143Y+001000
X+002143Y+001127
X+002397Y+001381
X+002524Y+001381
X+002524Y+001635
X+002397Y+001635
X+002397Y+001889
X+002524Y+001889
X+002524Y+002143
X+002397Y+002143
X+002397Y+002397
X+002524Y+002397
X+002524Y+002651
X+002397Y+002651
X+002143Y+002905
X+002143Y+003032
X+001889Y+003032
X+001889Y+002905
X+001635Y+002905
X+001635Y+003032
X+001381Y+003032
X+001381Y+002905
X+001127Y+002651
X+001000Y+002651
X+001000Y+002397
X+001127Y+002397
T00
M30
