G04 DipTrace 2.4.0.2*
%INi2cswitch.gbs*%
%MOMM*%
%ADD53R,1.75X2.082*%
%ADD54R,1.75X1.65*%
%ADD55R,2.082X1.75*%
%ADD56R,1.65X1.75*%
%FSLAX53Y53*%
G04*
G71*
G90*
G75*
G01*
%LNBotMask*%
%LPD*%
D56*
X11270Y21430D3*
Y18890D3*
Y16350D3*
Y13810D3*
G36*
X12545Y18015D2*
X12040D1*
Y19765D1*
X12545D1*
X12825Y19221D1*
Y18559D1*
X12545Y18015D1*
G37*
G36*
Y20555D2*
X12040D1*
Y22305D1*
X12545D1*
X12825Y21761D1*
Y21099D1*
X12545Y20555D1*
G37*
G36*
Y12935D2*
X12040D1*
Y14685D1*
X12545D1*
X12825Y14141D1*
Y13479D1*
X12545Y12935D1*
G37*
G36*
Y15475D2*
X12040D1*
Y17225D1*
X12545D1*
X12825Y16681D1*
Y16019D1*
X12545Y15475D1*
G37*
D55*
X10000Y21430D3*
Y18890D3*
Y16350D3*
Y13810D3*
D56*
X23970D3*
Y16350D3*
Y18890D3*
Y21430D3*
G36*
X22695Y17225D2*
X23200D1*
Y15475D1*
X22695D1*
X22415Y16019D1*
Y16681D1*
X22695Y17225D1*
G37*
G36*
Y14685D2*
X23200D1*
Y12935D1*
X22695D1*
X22415Y13479D1*
Y14141D1*
X22695Y14685D1*
G37*
G36*
Y22305D2*
X23200D1*
Y20555D1*
X22695D1*
X22415Y21099D1*
Y21761D1*
X22695Y22305D1*
G37*
G36*
Y19765D2*
X23200D1*
Y18015D1*
X22695D1*
X22415Y18559D1*
Y19221D1*
X22695Y19765D1*
G37*
D55*
X25240Y13810D3*
Y16350D3*
Y18890D3*
Y21430D3*
D56*
X23970Y23970D3*
Y26510D3*
D55*
X25240Y23970D3*
Y26510D3*
G36*
X22695Y27385D2*
X23200D1*
Y25635D1*
X22695D1*
X22415Y26179D1*
Y26841D1*
X22695Y27385D1*
G37*
G36*
Y24845D2*
X23195D1*
Y23095D1*
X22695D1*
X22415Y23639D1*
Y24301D1*
X22695Y24845D1*
G37*
D54*
X16350Y29050D3*
X13810D3*
D53*
X16350Y30320D3*
X13810D3*
G36*
X12935Y27775D2*
Y28280D1*
X14685D1*
Y27775D1*
X14141Y27495D1*
X13479D1*
X12935Y27775D1*
G37*
G36*
X15475D2*
Y28275D1*
X17225D1*
Y27775D1*
X16681Y27495D1*
X16019D1*
X15475Y27775D1*
G37*
D54*
X16350Y11270D3*
X13810D3*
G36*
X14685Y12545D2*
Y12040D1*
X12935D1*
Y12545D1*
X13479Y12825D1*
X14141D1*
X14685Y12545D1*
G37*
G36*
X17225D2*
Y12040D1*
X15475D1*
Y12545D1*
X16019Y12825D1*
X16681D1*
X17225Y12545D1*
G37*
D53*
X16350Y10000D3*
X13810D3*
D54*
X18890Y11270D3*
X21430D3*
D53*
X18890Y10000D3*
X21430D3*
G36*
X22305Y12545D2*
Y12040D1*
X20555D1*
Y12545D1*
X21099Y12825D1*
X21761D1*
X22305Y12545D1*
G37*
G36*
X19765D2*
Y12045D1*
X18015D1*
Y12545D1*
X18559Y12825D1*
X19221D1*
X19765Y12545D1*
G37*
D54*
X21430Y29050D3*
X18890D3*
D53*
X21430Y30320D3*
X18890D3*
G36*
X18015Y27775D2*
Y28280D1*
X19765D1*
Y27775D1*
X19221Y27495D1*
X18559D1*
X18015Y27775D1*
G37*
G36*
X20555D2*
Y28275D1*
X22305D1*
Y27775D1*
X21761Y27495D1*
X21099D1*
X20555Y27775D1*
G37*
D56*
X11270Y26510D3*
Y23970D3*
D55*
X10000Y26510D3*
Y23970D3*
G36*
X12545Y23095D2*
X12040D1*
Y24845D1*
X12545D1*
X12825Y24301D1*
Y23639D1*
X12545Y23095D1*
G37*
G36*
Y25635D2*
X12045D1*
Y27385D1*
X12545D1*
X12825Y26841D1*
Y26179D1*
X12545Y25635D1*
G37*
G36*
X20162Y23858D2*
X20352Y23887D1*
X20499Y23947D1*
X20593Y24023D1*
X20670Y24099D1*
X20733Y24212D1*
X20759Y24277D1*
X20779Y24372D1*
X20789Y24423D1*
X20794Y24505D1*
X20771Y24570D1*
X20733Y24608D1*
X20708Y24634D1*
X20695Y24698D1*
X20700Y24723D1*
X20715Y24774D1*
X20746Y24801D1*
X20664Y24900D1*
X20588Y24850D1*
X20570D1*
X20534Y24939D1*
X20479Y24951D1*
X20378Y24961D1*
X20484Y24709D1*
Y24677D1*
X20477Y24634D1*
X20454Y24624D1*
X20403Y24644D1*
X20339Y24759D1*
X20269Y24931D1*
X20218Y24906D1*
X20163Y24842D1*
X20238Y24652D1*
X20200Y24658D1*
X20162D1*
Y23858D1*
G37*
M02*
