G04 DipTrace 2.4.0.2*
%INPCA9685.gbo*%
%MOIN*%
%ADD30C,0.0046*%
%ADD31C,0.0044*%
%ADD32C,0.0033*%
%FSLAX44Y44*%
G04*
G70*
G90*
G75*
G01*
%LNBotSilk*%
%LPD*%
X5047Y10362D2*
D32*
X5054Y10390D1*
X5069Y10419D1*
X5083Y10433D1*
X5112D1*
X5126Y10419D1*
X5140Y10390D1*
X5148Y10362D1*
X5155Y10318D1*
Y10247D1*
X5148Y10204D1*
X5140Y10175D1*
X5126Y10146D1*
X5112Y10132D1*
X5083D1*
X5069Y10146D1*
X5054Y10175D1*
X5047Y10204D1*
Y10247D1*
X5083D1*
X4914Y10433D2*
Y10132D1*
X5014Y10433D1*
Y10132D1*
X4881Y10433D2*
Y10132D1*
X4831D1*
X4809Y10146D1*
X4795Y10175D1*
X4788Y10204D1*
X4781Y10247D1*
Y10318D1*
X4788Y10362D1*
X4795Y10390D1*
X4809Y10419D1*
X4831Y10433D1*
X4881D1*
X6002Y10390D2*
X6016Y10418D1*
X6038Y10433D1*
X6067D1*
X6088Y10418D1*
X6103Y10390D1*
Y10361D1*
X6095Y10332D1*
X6088Y10318D1*
X6074Y10304D1*
X6031Y10275D1*
X6016Y10261D1*
X6009Y10246D1*
X6002Y10217D1*
Y10174D1*
X6016Y10146D1*
X6038Y10131D1*
X6067D1*
X6088Y10146D1*
X6103Y10174D1*
X5862Y10361D2*
X5869Y10390D1*
X5883Y10418D1*
X5897Y10433D1*
X5926D1*
X5941Y10418D1*
X5955Y10390D1*
X5962Y10361D1*
X5969Y10318D1*
Y10246D1*
X5962Y10203D1*
X5955Y10174D1*
X5941Y10146D1*
X5926Y10131D1*
X5897D1*
X5883Y10146D1*
X5869Y10174D1*
X5862Y10203D1*
X5829Y10433D2*
Y10131D1*
X5743D1*
X7011Y10388D2*
X7025Y10417D1*
X7047Y10431D1*
X7075D1*
X7097Y10417D1*
X7111Y10388D1*
Y10359D1*
X7104Y10330D1*
X7097Y10316D1*
X7083Y10302D1*
X7040Y10273D1*
X7025Y10259D1*
X7018Y10244D1*
X7011Y10216D1*
Y10172D1*
X7025Y10144D1*
X7047Y10129D1*
X7075D1*
X7097Y10144D1*
X7111Y10172D1*
X6978Y10431D2*
Y10129D1*
X6928D1*
X6906Y10144D1*
X6892Y10172D1*
X6885Y10201D1*
X6878Y10244D1*
Y10316D1*
X6885Y10359D1*
X6892Y10388D1*
X6906Y10417D1*
X6928Y10431D1*
X6978D1*
X6730Y10129D2*
X6787Y10431D1*
X6845Y10129D1*
X6823Y10230D2*
X6751D1*
X8098Y10429D2*
X8041Y10127D1*
X7984Y10429D1*
X7951D2*
Y10127D1*
X7900D1*
X7879Y10142D1*
X7864Y10171D1*
X7857Y10199D1*
X7850Y10242D1*
Y10314D1*
X7857Y10357D1*
X7864Y10386D1*
X7879Y10415D1*
X7900Y10429D1*
X7951D1*
X7817D2*
Y10127D1*
X7767D1*
X7746Y10142D1*
X7731Y10171D1*
X7724Y10199D1*
X7717Y10242D1*
Y10314D1*
X7724Y10357D1*
X7731Y10386D1*
X7746Y10415D1*
X7767Y10429D1*
X7817D1*
X4104Y9723D2*
X4090Y9708D1*
X4047Y9687D1*
X4348D1*
X4151Y8695D2*
X4137D1*
X4108Y8688D1*
X4094Y8681D1*
X4079Y8666D1*
Y8638D1*
X4094Y8624D1*
X4108Y8616D1*
X4137Y8609D1*
X4165D1*
X4194Y8616D1*
X4237Y8631D1*
X4381Y8702D1*
Y8602D1*
X4085Y7673D2*
Y7594D1*
X4200Y7637D1*
Y7615D1*
X4214Y7601D1*
X4228Y7594D1*
X4271Y7587D1*
X4300D1*
X4343Y7594D1*
X4372Y7608D1*
X4386Y7630D1*
Y7651D1*
X4372Y7673D1*
X4357Y7680D1*
X4329Y7687D1*
X4386Y6613D2*
X4085D1*
X4286Y6685D1*
Y6577D1*
X4085Y5588D2*
Y5659D1*
X4214Y5666D1*
X4200Y5659D1*
X4185Y5638D1*
Y5616D1*
X4200Y5595D1*
X4228Y5580D1*
X4271Y5573D1*
X4300D1*
X4343Y5580D1*
X4372Y5595D1*
X4386Y5616D1*
Y5638D1*
X4372Y5659D1*
X4357Y5666D1*
X4329Y5674D1*
X4174Y4592D2*
X4145Y4599D1*
X4131Y4621D1*
Y4635D1*
X4145Y4657D1*
X4188Y4671D1*
X4260Y4678D1*
X4331D1*
X4389Y4671D1*
X4418Y4657D1*
X4432Y4635D1*
Y4628D1*
X4418Y4607D1*
X4389Y4592D1*
X4346Y4585D1*
X4331D1*
X4288Y4592D1*
X4260Y4607D1*
X4246Y4628D1*
Y4635D1*
X4260Y4657D1*
X4288Y4671D1*
X4331Y4678D1*
X5471Y4286D2*
X5399Y4587D1*
X5500D1*
X6447Y4570D2*
X6468Y4556D1*
X6475Y4528D1*
Y4499D1*
X6468Y4470D1*
X6454Y4456D1*
X6425Y4441D1*
X6403Y4427D1*
X6389Y4398D1*
X6382Y4370D1*
Y4327D1*
X6389Y4298D1*
X6396Y4283D1*
X6418Y4269D1*
X6447D1*
X6468Y4283D1*
X6475Y4298D1*
X6482Y4327D1*
Y4370D1*
X6475Y4398D1*
X6461Y4427D1*
X6439Y4441D1*
X6411Y4456D1*
X6396Y4470D1*
X6389Y4499D1*
Y4528D1*
X6396Y4556D1*
X6418Y4570D1*
X6447D1*
X7397Y4470D2*
X7405Y4427D1*
X7419Y4398D1*
X7440Y4384D1*
X7448D1*
X7469Y4398D1*
X7483Y4427D1*
X7491Y4470D1*
Y4484D1*
X7483Y4527D1*
X7469Y4556D1*
X7448Y4570D1*
X7440D1*
X7419Y4556D1*
X7405Y4527D1*
X7397Y4470D1*
Y4398D1*
X7405Y4326D1*
X7419Y4283D1*
X7440Y4269D1*
X7455D1*
X7476Y4283D1*
X7483Y4312D1*
X8490Y4561D2*
X8476Y4576D1*
X8454Y4619D1*
Y4318D1*
X8378Y4619D2*
X8400Y4604D1*
X8414Y4561D1*
X8421Y4490D1*
Y4447D1*
X8414Y4375D1*
X8400Y4332D1*
X8378Y4318D1*
X8364D1*
X8342Y4332D1*
X8328Y4375D1*
X8321Y4447D1*
Y4490D1*
X8328Y4561D1*
X8342Y4604D1*
X8364Y4619D1*
X8378D1*
X8328Y4561D2*
X8414Y4375D1*
X8525Y5690D2*
X8511Y5676D1*
X8468Y5654D1*
X8769D1*
X8525Y5621D2*
X8511Y5607D1*
X8468Y5585D1*
X8769D1*
X8489Y6700D2*
X8474Y6685D1*
X8431Y6664D1*
X8733D1*
X8503Y6624D2*
X8489D1*
X8460Y6616D1*
X8446Y6609D1*
X8431Y6595D1*
Y6566D1*
X8446Y6552D1*
X8460Y6545D1*
X8489Y6537D1*
X8517D1*
X8546Y6545D1*
X8589Y6559D1*
X8733Y6631D1*
Y6530D1*
X8491Y7702D2*
X8476Y7688D1*
X8433Y7666D1*
X8734D1*
X8433Y7619D2*
Y7540D1*
X8548Y7583D1*
Y7562D1*
X8562Y7547D1*
X8577Y7540D1*
X8620Y7533D1*
X8648D1*
X8691Y7540D1*
X8720Y7554D1*
X8734Y7576D1*
Y7598D1*
X8720Y7619D1*
X8706Y7626D1*
X8677Y7633D1*
X8512Y8721D2*
X8497Y8707D1*
X8454Y8685D1*
X8755D1*
Y8581D2*
X8454D1*
X8655Y8653D1*
Y8545D1*
X8530Y9710D2*
X8516Y9696D1*
X8473Y9674D1*
X8774D1*
X8473Y9555D2*
Y9627D1*
X8602Y9634D1*
X8588Y9627D1*
X8573Y9605D1*
Y9584D1*
X8588Y9562D1*
X8616Y9548D1*
X8659Y9541D1*
X8688D1*
X8731Y9548D1*
X8760Y9562D1*
X8774Y9584D1*
Y9605D1*
X8760Y9627D1*
X8745Y9634D1*
X8717Y9641D1*
X8506Y10636D2*
X8492Y10621D1*
X8449Y10600D1*
X8750D1*
X8492Y10481D2*
X8463Y10488D1*
X8449Y10510D1*
Y10524D1*
X8463Y10545D1*
X8506Y10560D1*
X8578Y10567D1*
X8650D1*
X8707Y10560D1*
X8736Y10545D1*
X8750Y10524D1*
Y10517D1*
X8736Y10495D1*
X8707Y10481D1*
X8664Y10474D1*
X8650D1*
X8607Y10481D1*
X8578Y10495D1*
X8564Y10517D1*
Y10524D1*
X8578Y10545D1*
X8607Y10560D1*
X8650Y10567D1*
X7375Y9335D2*
D31*
X7500D1*
Y8933D1*
Y9144D2*
X7423D1*
X7322Y9201D2*
X7265Y8933D1*
X7284Y8857D1*
X7303Y8818D1*
X7322Y8799D1*
X7332D1*
X7207Y9201D2*
X7265Y8933D1*
X7163Y9335D2*
Y8933D1*
Y9144D2*
X7144Y9182D1*
X7125Y9201D1*
X7096D1*
X7077Y9182D1*
X7058Y9144D1*
X7049Y9086D1*
Y9048D1*
X7058Y8991D1*
X7077Y8953D1*
X7096Y8933D1*
X7125D1*
X7144Y8953D1*
X7163Y8991D1*
X7005Y9086D2*
X6890D1*
Y9125D1*
X6900Y9163D1*
X6909Y9182D1*
X6928Y9201D1*
X6957D1*
X6976Y9182D1*
X6995Y9144D1*
X7005Y9086D1*
Y9048D1*
X6995Y8991D1*
X6976Y8953D1*
X6957Y8933D1*
X6928D1*
X6909Y8953D1*
X6890Y8991D1*
X6846Y9201D2*
Y8933D1*
Y9086D2*
X6837Y9144D1*
X6818Y9182D1*
X6798Y9201D1*
X6770D1*
X6550Y9335D2*
Y8933D1*
X6435D1*
X6276Y9201D2*
Y8933D1*
Y9144D2*
X6295Y9182D1*
X6315Y9201D1*
X6343D1*
X6362Y9182D1*
X6381Y9144D1*
X6391Y9086D1*
Y9048D1*
X6381Y8991D1*
X6362Y8953D1*
X6343Y8933D1*
X6315D1*
X6295Y8953D1*
X6276Y8991D1*
X6233Y9335D2*
Y8933D1*
Y9144D2*
X6213Y9182D1*
X6194Y9201D1*
X6166D1*
X6147Y9182D1*
X6127Y9144D1*
X6118Y9086D1*
Y9048D1*
X6127Y8991D1*
X6147Y8953D1*
X6166Y8933D1*
X6194D1*
X6213Y8953D1*
X6233Y8991D1*
X5969Y9144D2*
X5978Y9182D1*
X6007Y9201D1*
X6036D1*
X6065Y9182D1*
X6074Y9144D1*
X6065Y9106D1*
X6045Y9086D1*
X5998Y9067D1*
X5978Y9048D1*
X5969Y9010D1*
Y8991D1*
X5978Y8953D1*
X6007Y8933D1*
X6036D1*
X6065Y8953D1*
X6074Y8991D1*
X5749Y9335D2*
Y8933D1*
X5705Y9201D2*
Y8933D1*
Y9125D2*
X5676Y9182D1*
X5657Y9201D1*
X5629D1*
X5609Y9182D1*
X5600Y9125D1*
Y8933D1*
X5441Y9144D2*
X5460Y9182D1*
X5480Y9201D1*
X5508D1*
X5527Y9182D1*
X5546Y9144D1*
X5556Y9086D1*
Y9048D1*
X5546Y8991D1*
X5527Y8953D1*
X5508Y8933D1*
X5480D1*
X5460Y8953D1*
X5441Y8991D1*
X5388Y8972D2*
X5397Y8952D1*
X5388Y8933D1*
X5378Y8952D1*
X5388Y8972D1*
X7499Y8513D2*
D30*
X7421D1*
X7395Y8527D1*
X7387Y8542D1*
X7378Y8570D1*
Y8613D1*
X7387Y8642D1*
X7395Y8656D1*
X7421Y8671D1*
X7499D1*
Y8369D1*
X7193Y8599D2*
X7202Y8628D1*
X7219Y8656D1*
X7236Y8671D1*
X7271D1*
X7288Y8656D1*
X7305Y8628D1*
X7314Y8599D1*
X7323Y8556D1*
Y8484D1*
X7314Y8441D1*
X7305Y8412D1*
X7288Y8384D1*
X7271Y8369D1*
X7236D1*
X7219Y8384D1*
X7202Y8412D1*
X7193Y8441D1*
X7000Y8369D2*
X7069Y8671D1*
X7138Y8369D1*
X7112Y8470D2*
X7026D1*
X6832Y8570D2*
X6841Y8527D1*
X6858Y8498D1*
X6884Y8484D1*
X6893D1*
X6919Y8498D1*
X6936Y8527D1*
X6944Y8570D1*
Y8584D1*
X6936Y8628D1*
X6919Y8656D1*
X6893Y8670D1*
X6884D1*
X6858Y8656D1*
X6841Y8628D1*
X6832Y8570D1*
Y8498D1*
X6841Y8427D1*
X6858Y8384D1*
X6884Y8369D1*
X6901D1*
X6927Y8384D1*
X6936Y8412D1*
X6674Y8628D2*
X6682Y8656D1*
X6708Y8670D1*
X6725D1*
X6751Y8656D1*
X6768Y8613D1*
X6777Y8541D1*
Y8470D1*
X6768Y8412D1*
X6751Y8384D1*
X6725Y8369D1*
X6717D1*
X6691Y8384D1*
X6674Y8412D1*
X6665Y8455D1*
Y8470D1*
X6674Y8513D1*
X6691Y8541D1*
X6717Y8556D1*
X6725D1*
X6751Y8541D1*
X6768Y8513D1*
X6777Y8470D1*
X6566Y8670D2*
X6592Y8656D1*
X6601Y8628D1*
Y8599D1*
X6592Y8570D1*
X6575Y8556D1*
X6541Y8541D1*
X6515Y8527D1*
X6498Y8498D1*
X6489Y8470D1*
Y8427D1*
X6498Y8398D1*
X6506Y8384D1*
X6532Y8369D1*
X6566D1*
X6592Y8384D1*
X6601Y8398D1*
X6609Y8427D1*
Y8470D1*
X6601Y8498D1*
X6584Y8527D1*
X6558Y8541D1*
X6523Y8556D1*
X6506Y8570D1*
X6498Y8599D1*
Y8628D1*
X6506Y8656D1*
X6532Y8670D1*
X6566D1*
X6330D2*
X6416D1*
X6425Y8541D1*
X6416Y8556D1*
X6390Y8570D1*
X6365D1*
X6339Y8556D1*
X6321Y8527D1*
X6313Y8484D1*
Y8455D1*
X6321Y8412D1*
X6339Y8384D1*
X6365Y8369D1*
X6390D1*
X6416Y8384D1*
X6425Y8398D1*
X6433Y8427D1*
X7374Y8229D2*
D31*
X7498D1*
Y7827D1*
Y8038D2*
X7422D1*
X7330Y8229D2*
Y7827D1*
X7286Y7980D2*
X7171D1*
Y8019D1*
X7181Y8057D1*
X7190Y8076D1*
X7210Y8095D1*
X7238D1*
X7257Y8076D1*
X7277Y8038D1*
X7286Y7980D1*
Y7942D1*
X7277Y7885D1*
X7257Y7847D1*
X7238Y7827D1*
X7210D1*
X7190Y7847D1*
X7171Y7885D1*
X7128Y8095D2*
X7022Y7827D1*
Y8095D2*
X7128Y7827D1*
X6649D2*
Y8229D1*
X6726Y7827D1*
X6802Y8229D1*
Y7827D1*
X6558Y8095D2*
X6577Y8076D1*
X6596Y8038D1*
X6606Y7980D1*
Y7942D1*
X6596Y7885D1*
X6577Y7847D1*
X6558Y7827D1*
X6529D1*
X6510Y7847D1*
X6491Y7885D1*
X6481Y7942D1*
Y7980D1*
X6491Y8038D1*
X6510Y8076D1*
X6529Y8095D1*
X6558D1*
X6323Y8229D2*
Y7827D1*
Y8038D2*
X6342Y8076D1*
X6361Y8095D1*
X6390D1*
X6409Y8076D1*
X6428Y8038D1*
X6437Y7980D1*
Y7942D1*
X6428Y7885D1*
X6409Y7847D1*
X6390Y7827D1*
X6361D1*
X6342Y7847D1*
X6323Y7885D1*
X6279Y8095D2*
Y7904D1*
X6269Y7847D1*
X6250Y7827D1*
X6221D1*
X6202Y7847D1*
X6174Y7904D1*
Y8095D2*
Y7827D1*
X6130Y8229D2*
Y7827D1*
X6086Y7980D2*
X5971D1*
Y8019D1*
X5981Y8057D1*
X5990Y8076D1*
X6010Y8095D1*
X6038D1*
X6057Y8076D1*
X6077Y8038D1*
X6086Y7980D1*
Y7942D1*
X6077Y7885D1*
X6057Y7847D1*
X6038Y7827D1*
X6010D1*
X5990Y7847D1*
X5971Y7885D1*
X7510Y7507D2*
D30*
X7433D1*
X7407Y7522D1*
X7398Y7536D1*
X7390Y7565D1*
Y7593D1*
X7398Y7622D1*
X7407Y7636D1*
X7433Y7651D1*
X7510D1*
Y7349D1*
X7450Y7507D2*
X7390Y7349D1*
X7334Y7464D2*
X7231D1*
Y7493D1*
X7239Y7522D1*
X7248Y7536D1*
X7265Y7550D1*
X7291D1*
X7308Y7536D1*
X7326Y7507D1*
X7334Y7464D1*
Y7436D1*
X7326Y7392D1*
X7308Y7364D1*
X7291Y7349D1*
X7265D1*
X7248Y7364D1*
X7231Y7392D1*
X7175Y7550D2*
X7123Y7349D1*
X7072Y7550D1*
X6841Y7593D2*
X6824Y7608D1*
X6798Y7650D1*
Y7349D1*
X6734Y7378D2*
X6743Y7364D1*
X6734Y7349D1*
X6725Y7364D1*
X6734Y7378D1*
X6618Y7650D2*
X6644Y7636D1*
X6661Y7593D1*
X6670Y7521D1*
Y7478D1*
X6661Y7407D1*
X6644Y7364D1*
X6618Y7349D1*
X6601D1*
X6575Y7364D1*
X6558Y7407D1*
X6549Y7478D1*
Y7521D1*
X6558Y7593D1*
X6575Y7636D1*
X6601Y7650D1*
X6618D1*
X6558Y7593D2*
X6661Y7407D1*
X6356Y7349D2*
X6425Y7651D1*
X6494Y7349D1*
X6468Y7450D2*
X6382D1*
X7491Y7094D2*
D31*
Y7113D1*
X7482Y7151D1*
X7472Y7170D1*
X7453Y7189D1*
X7415D1*
X7396Y7170D1*
X7386Y7151D1*
X7376Y7113D1*
Y7075D1*
X7386Y7036D1*
X7405Y6979D1*
X7501Y6788D1*
X7367D1*
X7266Y7189D2*
X7294Y7170D1*
X7314Y7113D1*
X7323Y7017D1*
Y6960D1*
X7314Y6864D1*
X7294Y6807D1*
X7266Y6788D1*
X7247D1*
X7218Y6807D1*
X7199Y6864D1*
X7189Y6960D1*
Y7017D1*
X7199Y7113D1*
X7218Y7170D1*
X7247Y7189D1*
X7266D1*
X7199Y7113D2*
X7314Y6864D1*
X7145Y7113D2*
X7126Y7132D1*
X7098Y7189D1*
Y6788D1*
X6958D2*
Y7189D1*
X7054Y6922D1*
X6910D1*
M02*
