G04 DipTrace 2.4.0.2*
%INPCA9685.gbs*%
%MOMM*%
%ADD28R,2.082X1.75*%
%ADD29R,1.65X1.75*%
%ADD30R,1.75X2.082*%
%ADD31R,1.75X1.65*%
%FSLAX53Y53*%
G04*
G71*
G90*
G75*
G01*
%LNBotMask*%
%LPD*%
D31*
X21438Y29058D3*
X18898D3*
X16358D3*
X13818D3*
G36*
X18023Y27783D2*
Y28288D1*
X19773D1*
Y27783D1*
X19229Y27503D1*
X18567D1*
X18023Y27783D1*
G37*
G36*
X20563D2*
Y28288D1*
X22313D1*
Y27783D1*
X21769Y27503D1*
X21107D1*
X20563Y27783D1*
G37*
G36*
X12943D2*
Y28288D1*
X14693D1*
Y27783D1*
X14149Y27503D1*
X13487D1*
X12943Y27783D1*
G37*
G36*
X15483D2*
Y28288D1*
X17233D1*
Y27783D1*
X16689Y27503D1*
X16027D1*
X15483Y27783D1*
G37*
D30*
X21438Y30328D3*
X18898D3*
X16358D3*
X13818D3*
D31*
Y11278D3*
X16358D3*
X18898D3*
X21438D3*
G36*
X17233Y12553D2*
Y12048D1*
X15483D1*
Y12553D1*
X16027Y12833D1*
X16689D1*
X17233Y12553D1*
G37*
G36*
X14693D2*
Y12048D1*
X12943D1*
Y12553D1*
X13487Y12833D1*
X14149D1*
X14693Y12553D1*
G37*
G36*
X22313D2*
Y12048D1*
X20563D1*
Y12553D1*
X21107Y12833D1*
X21769D1*
X22313Y12553D1*
G37*
G36*
X19773D2*
Y12048D1*
X18023D1*
Y12553D1*
X18567Y12833D1*
X19229D1*
X19773Y12553D1*
G37*
D30*
X13818Y10008D3*
X16358D3*
X18898D3*
X21438D3*
D29*
X11278Y26518D3*
Y23978D3*
Y21438D3*
Y18898D3*
Y16358D3*
Y13818D3*
G36*
X12553Y23103D2*
X12048D1*
Y24853D1*
X12553D1*
X12833Y24309D1*
Y23647D1*
X12553Y23103D1*
G37*
G36*
Y25643D2*
X12048D1*
Y27393D1*
X12553D1*
X12833Y26849D1*
Y26187D1*
X12553Y25643D1*
G37*
G36*
Y20563D2*
X12048D1*
Y22313D1*
X12553D1*
X12833Y21769D1*
Y21107D1*
X12553Y20563D1*
G37*
G36*
Y15483D2*
X12048D1*
Y17233D1*
X12553D1*
X12833Y16689D1*
Y16027D1*
X12553Y15483D1*
G37*
G36*
Y18023D2*
X12048D1*
Y19773D1*
X12553D1*
X12833Y19229D1*
Y18567D1*
X12553Y18023D1*
G37*
G36*
Y12943D2*
X12048D1*
Y14693D1*
X12553D1*
X12833Y14149D1*
Y13487D1*
X12553Y12943D1*
G37*
D28*
X10008Y26518D3*
Y23978D3*
Y21438D3*
Y18898D3*
Y16358D3*
Y13818D3*
D29*
X23978D3*
Y16358D3*
Y18898D3*
Y21438D3*
Y23978D3*
Y26518D3*
G36*
X22703Y17233D2*
X23208D1*
Y15483D1*
X22703D1*
X22423Y16027D1*
Y16689D1*
X22703Y17233D1*
G37*
G36*
Y14693D2*
X23208D1*
Y12943D1*
X22703D1*
X22423Y13487D1*
Y14149D1*
X22703Y14693D1*
G37*
G36*
Y19773D2*
X23208D1*
Y18023D1*
X22703D1*
X22423Y18567D1*
Y19229D1*
X22703Y19773D1*
G37*
G36*
Y24853D2*
X23208D1*
Y23103D1*
X22703D1*
X22423Y23647D1*
Y24309D1*
X22703Y24853D1*
G37*
G36*
Y22313D2*
X23208D1*
Y20563D1*
X22703D1*
X22423Y21107D1*
Y21769D1*
X22703Y22313D1*
G37*
G36*
Y27393D2*
X23208D1*
Y25643D1*
X22703D1*
X22423Y26187D1*
Y26849D1*
X22703Y27393D1*
G37*
D28*
X25248Y13818D3*
Y16358D3*
Y18898D3*
Y21438D3*
Y23978D3*
Y26518D3*
M02*
