G04 DipTrace 2.4.0.2*
%INPCA9685.gto*%
%MOIN*%
%ADD10C,0.0098*%
%ADD32C,0.0046*%
%ADD33C,0.0044*%
%FSLAX44Y44*%
G04*
G70*
G90*
G75*
G01*
%LNTopSilk*%
%LPD*%
X5807Y8866D2*
D10*
Y5008D1*
X7067Y8866D2*
Y5008D1*
X5807D2*
X7067D1*
X5807Y8866D2*
X6240D1*
X6634D2*
X7067D1*
X6240D2*
G03X6634Y8866I197J1D01*
G01*
X6432Y5521D2*
D32*
Y5650D1*
X6418Y5693D1*
X6403Y5707D1*
X6375Y5721D1*
X6332D1*
X6303Y5707D1*
X6289Y5693D1*
X6274Y5650D1*
Y5521D1*
X6576D1*
X6346Y6029D2*
X6318Y6015D1*
X6289Y5986D1*
X6274Y5958D1*
Y5900D1*
X6289Y5871D1*
X6318Y5843D1*
X6346Y5828D1*
X6389Y5814D1*
X6461D1*
X6504Y5828D1*
X6533Y5843D1*
X6561Y5871D1*
X6576Y5900D1*
Y5958D1*
X6561Y5986D1*
X6533Y6015D1*
X6504Y6029D1*
X6576Y6352D2*
X6274Y6237D1*
X6576Y6122D1*
X6475Y6165D2*
Y6309D1*
X6375Y6631D2*
X6418Y6617D1*
X6447Y6588D1*
X6461Y6545D1*
Y6531D1*
X6447Y6488D1*
X6418Y6459D1*
X6375Y6444D1*
X6361D1*
X6318Y6459D1*
X6289Y6488D1*
X6275Y6531D1*
Y6545D1*
X6289Y6588D1*
X6318Y6617D1*
X6375Y6631D1*
X6447D1*
X6519Y6617D1*
X6562Y6588D1*
X6576Y6545D1*
Y6516D1*
X6562Y6473D1*
X6533Y6459D1*
X6318Y6896D2*
X6289Y6882D1*
X6275Y6838D1*
Y6810D1*
X6289Y6767D1*
X6332Y6738D1*
X6404Y6724D1*
X6475D1*
X6533Y6738D1*
X6562Y6767D1*
X6576Y6810D1*
Y6824D1*
X6562Y6867D1*
X6533Y6896D1*
X6490Y6910D1*
X6475D1*
X6432Y6896D1*
X6404Y6867D1*
X6390Y6824D1*
Y6810D1*
X6404Y6767D1*
X6432Y6738D1*
X6475Y6724D1*
X6275Y7074D2*
X6289Y7032D1*
X6318Y7017D1*
X6346D1*
X6375Y7032D1*
X6390Y7060D1*
X6404Y7117D1*
X6418Y7161D1*
X6447Y7189D1*
X6475Y7203D1*
X6519D1*
X6547Y7189D1*
X6562Y7175D1*
X6576Y7132D1*
Y7074D1*
X6562Y7032D1*
X6547Y7017D1*
X6519Y7003D1*
X6475D1*
X6447Y7017D1*
X6418Y7046D1*
X6404Y7089D1*
X6390Y7146D1*
X6375Y7175D1*
X6346Y7189D1*
X6318D1*
X6289Y7175D1*
X6275Y7132D1*
Y7074D1*
Y7468D2*
Y7325D1*
X6404Y7311D1*
X6390Y7325D1*
X6375Y7368D1*
Y7411D1*
X6390Y7454D1*
X6418Y7483D1*
X6461Y7497D1*
X6490D1*
X6533Y7483D1*
X6562Y7454D1*
X6576Y7411D1*
Y7368D1*
X6562Y7325D1*
X6547Y7311D1*
X6519Y7296D1*
X6432Y7590D2*
Y7719D1*
X6418Y7762D1*
X6403Y7776D1*
X6375Y7791D1*
X6332D1*
X6303Y7776D1*
X6289Y7762D1*
X6274Y7719D1*
Y7590D1*
X6576D1*
X6274Y7883D2*
X6576Y7955D1*
X6274Y8027D1*
X6576Y8098D1*
X6274Y8170D1*
X5571Y4395D2*
Y4524D1*
X5556Y4567D1*
X5542Y4582D1*
X5513Y4596D1*
X5484D1*
X5456Y4582D1*
X5441Y4567D1*
X5427Y4524D1*
Y4395D1*
X5728D1*
X5571Y4496D2*
X5728Y4596D1*
X5485Y4689D2*
X5470Y4718D1*
X5427Y4761D1*
X5728D1*
X7472Y9235D2*
X7443Y9220D1*
X7414Y9191D1*
X7400Y9163D1*
Y9106D1*
X7414Y9077D1*
X7443Y9048D1*
X7472Y9034D1*
X7515Y9019D1*
X7587D1*
X7630Y9034D1*
X7658Y9048D1*
X7687Y9077D1*
X7702Y9106D1*
Y9163D1*
X7687Y9191D1*
X7658Y9220D1*
X7630Y9235D1*
X7458Y9327D2*
X7443Y9356D1*
X7400Y9399D1*
X7702D1*
X4365Y6585D2*
D33*
Y6460D1*
X4767D1*
X4556D2*
Y6537D1*
X4499Y6638D2*
X4767Y6695D1*
X4843Y6676D1*
X4882Y6657D1*
X4901Y6638D1*
Y6628D1*
X4499Y6753D2*
X4767Y6695D1*
X4365Y6797D2*
X4767D1*
X4556D2*
X4518Y6816D1*
X4499Y6835D1*
Y6864D1*
X4518Y6883D1*
X4556Y6902D1*
X4614Y6911D1*
X4652D1*
X4709Y6902D1*
X4747Y6883D1*
X4767Y6864D1*
Y6835D1*
X4747Y6816D1*
X4709Y6797D1*
X4614Y6955D2*
Y7070D1*
X4575D1*
X4537Y7060D1*
X4518Y7051D1*
X4499Y7032D1*
Y7003D1*
X4518Y6984D1*
X4556Y6965D1*
X4614Y6955D1*
X4652D1*
X4709Y6965D1*
X4747Y6984D1*
X4767Y7003D1*
Y7032D1*
X4747Y7051D1*
X4709Y7070D1*
X4499Y7114D2*
X4767D1*
X4614D2*
X4556Y7123D1*
X4518Y7142D1*
X4499Y7162D1*
Y7190D1*
X4365Y7410D2*
X4767D1*
Y7525D1*
X4499Y7684D2*
X4767D1*
X4556D2*
X4518Y7665D1*
X4499Y7645D1*
Y7617D1*
X4518Y7598D1*
X4556Y7579D1*
X4614Y7569D1*
X4652D1*
X4709Y7579D1*
X4747Y7598D1*
X4767Y7617D1*
Y7645D1*
X4747Y7665D1*
X4709Y7684D1*
X4365Y7727D2*
X4767D1*
X4556D2*
X4518Y7747D1*
X4499Y7766D1*
Y7794D1*
X4518Y7813D1*
X4556Y7833D1*
X4614Y7842D1*
X4652D1*
X4709Y7833D1*
X4747Y7813D1*
X4767Y7794D1*
Y7766D1*
X4747Y7747D1*
X4709Y7727D1*
X4556Y7991D2*
X4518Y7982D1*
X4499Y7953D1*
Y7924D1*
X4518Y7895D1*
X4556Y7886D1*
X4594Y7895D1*
X4614Y7915D1*
X4633Y7962D1*
X4652Y7982D1*
X4690Y7991D1*
X4709D1*
X4747Y7982D1*
X4767Y7953D1*
Y7924D1*
X4747Y7895D1*
X4709Y7886D1*
X4365Y8211D2*
X4767D1*
X4499Y8255D2*
X4767D1*
X4575D2*
X4518Y8284D1*
X4499Y8303D1*
Y8331D1*
X4518Y8351D1*
X4575Y8360D1*
X4767D1*
X4556Y8519D2*
X4518Y8500D1*
X4499Y8480D1*
Y8452D1*
X4518Y8433D1*
X4556Y8414D1*
X4614Y8404D1*
X4652D1*
X4709Y8414D1*
X4747Y8433D1*
X4767Y8452D1*
Y8480D1*
X4747Y8500D1*
X4709Y8519D1*
X4728Y8572D2*
X4748Y8563D1*
X4767Y8572D1*
X4748Y8582D1*
X4728Y8572D1*
X7077Y4789D2*
X6953D1*
Y4387D1*
Y4597D2*
X7029D1*
X7121Y4789D2*
Y4387D1*
X7165Y4540D2*
X7280D1*
Y4578D1*
X7270Y4617D1*
X7261Y4636D1*
X7241Y4655D1*
X7213D1*
X7194Y4636D1*
X7174Y4597D1*
X7165Y4540D1*
Y4502D1*
X7174Y4444D1*
X7194Y4406D1*
X7213Y4387D1*
X7241D1*
X7261Y4406D1*
X7280Y4444D1*
X7323Y4655D2*
X7429Y4387D1*
Y4655D2*
X7323Y4387D1*
X7802D2*
Y4789D1*
X7725Y4387D1*
X7649Y4789D1*
Y4387D1*
X7893Y4655D2*
X7874Y4636D1*
X7855Y4597D1*
X7845Y4540D1*
Y4502D1*
X7855Y4444D1*
X7874Y4406D1*
X7893Y4387D1*
X7922D1*
X7941Y4406D1*
X7960Y4444D1*
X7970Y4502D1*
Y4540D1*
X7960Y4597D1*
X7941Y4636D1*
X7922Y4655D1*
X7893D1*
X8128Y4789D2*
Y4387D1*
Y4597D2*
X8109Y4636D1*
X8090Y4655D1*
X8061D1*
X8042Y4636D1*
X8023Y4597D1*
X8014Y4540D1*
Y4502D1*
X8023Y4444D1*
X8042Y4406D1*
X8061Y4387D1*
X8090D1*
X8109Y4406D1*
X8128Y4444D1*
X8172Y4655D2*
Y4463D1*
X8182Y4406D1*
X8201Y4387D1*
X8230D1*
X8249Y4406D1*
X8277Y4463D1*
Y4655D2*
Y4387D1*
X8321Y4789D2*
Y4387D1*
X8365Y4540D2*
X8480D1*
Y4578D1*
X8470Y4617D1*
X8461Y4636D1*
X8441Y4655D1*
X8413D1*
X8394Y4636D1*
X8374Y4597D1*
X8365Y4540D1*
Y4502D1*
X8374Y4444D1*
X8394Y4406D1*
X8413Y4387D1*
X8441D1*
X8461Y4406D1*
X8480Y4444D1*
X4503Y4695D2*
Y4714D1*
X4513Y4752D1*
X4522Y4771D1*
X4541Y4790D1*
X4580D1*
X4599Y4771D1*
X4608Y4752D1*
X4618Y4714D1*
Y4676D1*
X4608Y4637D1*
X4589Y4580D1*
X4493Y4389D1*
X4627D1*
X4729Y4790D2*
X4700Y4771D1*
X4681Y4714D1*
X4671Y4618D1*
Y4561D1*
X4681Y4465D1*
X4700Y4408D1*
X4729Y4389D1*
X4748D1*
X4776Y4408D1*
X4795Y4465D1*
X4805Y4561D1*
Y4618D1*
X4795Y4714D1*
X4776Y4771D1*
X4748Y4790D1*
X4729D1*
X4795Y4714D2*
X4681Y4465D1*
X4849Y4714D2*
X4868Y4733D1*
X4897Y4790D1*
Y4389D1*
X5036D2*
Y4790D1*
X4941Y4523D1*
X5084D1*
X4517Y5003D2*
D32*
X4595D1*
X4621Y5017D1*
X4629Y5032D1*
X4638Y5060D1*
Y5089D1*
X4629Y5118D1*
X4621Y5132D1*
X4595Y5146D1*
X4517D1*
Y4845D1*
X4578Y5003D2*
X4638Y4845D1*
X4693Y4960D2*
X4797D1*
Y4989D1*
X4788Y5017D1*
X4780Y5032D1*
X4762Y5046D1*
X4736D1*
X4719Y5032D1*
X4702Y5003D1*
X4693Y4960D1*
Y4931D1*
X4702Y4888D1*
X4719Y4860D1*
X4736Y4845D1*
X4762D1*
X4780Y4860D1*
X4797Y4888D1*
X4852Y5046D2*
X4904Y4845D1*
X4956Y5046D1*
X5186Y5089D2*
X5203Y5103D1*
X5229Y5146D1*
Y4845D1*
X5293Y4874D2*
X5285Y4859D1*
X5293Y4845D1*
X5302Y4859D1*
X5293Y4874D1*
X5409Y5146D2*
X5384Y5132D1*
X5366Y5089D1*
X5358Y5017D1*
Y4974D1*
X5366Y4902D1*
X5384Y4859D1*
X5409Y4845D1*
X5427D1*
X5452Y4859D1*
X5470Y4902D1*
X5478Y4974D1*
Y5017D1*
X5470Y5089D1*
X5452Y5132D1*
X5427Y5146D1*
X5409D1*
X5470Y5089D2*
X5366Y4902D1*
X7242Y4997D2*
X7319D1*
X7345Y5011D1*
X7354Y5025D1*
X7362Y5054D1*
Y5097D1*
X7354Y5126D1*
X7345Y5140D1*
X7319Y5154D1*
X7242D1*
Y4853D1*
X7547Y5083D2*
X7538Y5111D1*
X7521Y5140D1*
X7504Y5154D1*
X7470D1*
X7452Y5140D1*
X7435Y5111D1*
X7426Y5083D1*
X7418Y5040D1*
Y4968D1*
X7426Y4925D1*
X7435Y4896D1*
X7452Y4868D1*
X7470Y4853D1*
X7504D1*
X7521Y4868D1*
X7538Y4896D1*
X7547Y4925D1*
X7741Y4853D2*
X7671Y5154D1*
X7603Y4853D1*
X7629Y4954D2*
X7715D1*
X7908Y5054D2*
X7899Y5011D1*
X7882Y4982D1*
X7856Y4968D1*
X7848D1*
X7822Y4982D1*
X7805Y5011D1*
X7796Y5054D1*
Y5068D1*
X7805Y5111D1*
X7822Y5140D1*
X7848Y5154D1*
X7856D1*
X7882Y5140D1*
X7899Y5111D1*
X7908Y5054D1*
Y4982D1*
X7899Y4910D1*
X7882Y4867D1*
X7856Y4853D1*
X7839D1*
X7813Y4867D1*
X7805Y4896D1*
X8067Y5111D2*
X8058Y5140D1*
X8033Y5154D1*
X8015D1*
X7990Y5140D1*
X7972Y5097D1*
X7964Y5025D1*
Y4954D1*
X7972Y4896D1*
X7990Y4867D1*
X8015Y4853D1*
X8024D1*
X8050Y4867D1*
X8067Y4896D1*
X8076Y4939D1*
Y4954D1*
X8067Y4997D1*
X8050Y5025D1*
X8024Y5039D1*
X8015D1*
X7990Y5025D1*
X7972Y4997D1*
X7964Y4954D1*
X8174Y5154D2*
X8148Y5140D1*
X8140Y5111D1*
Y5083D1*
X8148Y5054D1*
X8166Y5039D1*
X8200Y5025D1*
X8226Y5011D1*
X8243Y4982D1*
X8251Y4954D1*
Y4910D1*
X8243Y4882D1*
X8234Y4867D1*
X8209Y4853D1*
X8174D1*
X8148Y4867D1*
X8140Y4882D1*
X8131Y4910D1*
Y4954D1*
X8140Y4982D1*
X8157Y5011D1*
X8183Y5025D1*
X8217Y5039D1*
X8234Y5054D1*
X8243Y5083D1*
Y5111D1*
X8234Y5140D1*
X8209Y5154D1*
X8174D1*
X8410D2*
X8324D1*
X8316Y5025D1*
X8324Y5039D1*
X8350Y5054D1*
X8376D1*
X8402Y5039D1*
X8419Y5011D1*
X8428Y4968D1*
Y4939D1*
X8419Y4896D1*
X8402Y4867D1*
X8376Y4853D1*
X8350D1*
X8324Y4867D1*
X8316Y4882D1*
X8307Y4910D1*
M02*
