G04 DipTrace 2.4.0.2*
%INPCA9685.gbo*%
%MOMM*%
%ADD10C,0.25*%
%ADD30O,0.723X0.863*%
%ADD46C,0.118*%
%ADD47C,0.111*%
%FSLAX53Y53*%
G04*
G71*
G90*
G75*
G01*
%LNBotSilk*%
%LPD*%
G36*
X14366Y19607D2*
X13750Y20240D1*
X14233Y20587D1*
X14360Y20430D1*
X14366Y19607D1*
G37*
D30*
X14085Y20302D3*
X14370Y19723D2*
D10*
G02X13853Y20227I68J586D01*
G01*
X14383Y19747D2*
G03X14323Y20367I-970J219D01*
G01*
X13889Y26519D2*
D47*
X13865Y26422D1*
X13816Y26325D1*
X13768Y26276D1*
X13671D1*
X13622Y26325D1*
X13574Y26422D1*
X13549Y26519D1*
X13525Y26665D1*
Y26909D1*
X13549Y27054D1*
X13574Y27151D1*
X13622Y27248D1*
X13671Y27297D1*
X13768D1*
X13816Y27248D1*
X13865Y27151D1*
X13889Y27054D1*
Y26909D1*
X13768D1*
X14341Y26276D2*
Y27297D1*
X14000Y26276D1*
Y27297D1*
X14452Y26276D2*
Y27297D1*
X14622D1*
X14695Y27248D1*
X14744Y27151D1*
X14768Y27054D1*
X14792Y26909D1*
Y26665D1*
X14768Y26519D1*
X14744Y26422D1*
X14695Y26325D1*
X14622Y26276D1*
X14452D1*
X16100Y26443D2*
X16052Y26345D1*
X15979Y26297D1*
X15881D1*
X15808Y26345D1*
X15760Y26443D1*
Y26540D1*
X15784Y26637D1*
X15808Y26686D1*
X15857Y26734D1*
X16003Y26832D1*
X16052Y26880D1*
X16076Y26929D1*
X16100Y27026D1*
Y27172D1*
X16052Y27268D1*
X15979Y27318D1*
X15881D1*
X15808Y27268D1*
X15760Y27172D1*
X16575Y26540D2*
X16551Y26443D1*
X16502Y26345D1*
X16454Y26297D1*
X16357D1*
X16308Y26345D1*
X16260Y26443D1*
X16235Y26540D1*
X16211Y26686D1*
Y26929D1*
X16235Y27074D1*
X16260Y27172D1*
X16308Y27268D1*
X16357Y27318D1*
X16454D1*
X16502Y27268D1*
X16551Y27172D1*
X16575Y27074D1*
X16687Y26297D2*
Y27318D1*
X16978D1*
X18589Y26460D2*
X18540Y26363D1*
X18467Y26314D1*
X18370D1*
X18297Y26363D1*
X18248Y26460D1*
Y26557D1*
X18273Y26655D1*
X18297Y26703D1*
X18346Y26751D1*
X18492Y26849D1*
X18540Y26897D1*
X18565Y26947D1*
X18589Y27043D1*
Y27189D1*
X18540Y27286D1*
X18467Y27335D1*
X18370D1*
X18297Y27286D1*
X18248Y27189D1*
X18700Y26314D2*
Y27335D1*
X18870D1*
X18943Y27286D1*
X18992Y27189D1*
X19016Y27092D1*
X19040Y26947D1*
Y26703D1*
X19016Y26557D1*
X18992Y26460D1*
X18943Y26363D1*
X18870Y26314D1*
X18700D1*
X19540Y27335D2*
X19346Y26314D1*
X19151Y27335D1*
X19224Y26995D2*
X19467D1*
X20025Y26310D2*
X20219Y27331D1*
X20414Y26310D1*
X20525D2*
Y27331D1*
X20695D1*
X20768Y27281D1*
X20817Y27185D1*
X20841Y27087D1*
X20865Y26942D1*
Y26698D1*
X20841Y26552D1*
X20817Y26456D1*
X20768Y26358D1*
X20695Y26310D1*
X20525D1*
X20976D2*
Y27331D1*
X21146D1*
X21219Y27281D1*
X21268Y27185D1*
X21292Y27087D1*
X21316Y26942D1*
Y26698D1*
X21292Y26552D1*
X21268Y26456D1*
X21219Y26358D1*
X21146Y26310D1*
X20976D1*
X13734Y25695D2*
X13783Y25744D1*
X13928Y25817D1*
X12909D1*
X13816Y23805D2*
X13865D1*
X13962Y23829D1*
X14011Y23853D1*
X14059Y23902D1*
Y23999D1*
X14011Y24047D1*
X13962Y24072D1*
X13865Y24096D1*
X13768D1*
X13670Y24072D1*
X13525Y24023D1*
X13039Y23780D1*
Y24120D1*
X14045Y21263D2*
Y21530D1*
X13657Y21384D1*
Y21457D1*
X13608Y21506D1*
X13560Y21530D1*
X13414Y21554D1*
X13317D1*
X13171Y21530D1*
X13074Y21481D1*
X13025Y21408D1*
Y21335D1*
X13074Y21263D1*
X13123Y21239D1*
X13220Y21214D1*
X13013Y18882D2*
X14032D1*
X13353Y18639D1*
Y19003D1*
X13952Y16016D2*
Y15774D1*
X13515Y15749D1*
X13564Y15774D1*
X13613Y15847D1*
Y15919D1*
X13564Y15992D1*
X13467Y16041D1*
X13321Y16065D1*
X13224D1*
X13078Y16041D1*
X12981Y15992D1*
X12932Y15919D1*
Y15847D1*
X12981Y15774D1*
X13030Y15749D1*
X13127Y15725D1*
X13784Y13460D2*
X13880Y13436D1*
X13929Y13363D1*
Y13315D1*
X13880Y13242D1*
X13734Y13193D1*
X13492Y13169D1*
X13249D1*
X13055Y13193D1*
X12957Y13242D1*
X12909Y13315D1*
Y13339D1*
X12957Y13411D1*
X13055Y13460D1*
X13201Y13484D1*
X13249D1*
X13395Y13460D1*
X13492Y13411D1*
X13540Y13339D1*
Y13315D1*
X13492Y13242D1*
X13395Y13193D1*
X13249Y13169D1*
X14616Y12720D2*
X14373Y13740D1*
X14713D1*
X16303Y13869D2*
X16376Y13821D1*
X16400Y13724D1*
Y13626D1*
X16376Y13530D1*
X16327Y13480D1*
X16230Y13432D1*
X16157Y13384D1*
X16109Y13286D1*
X16085Y13189D1*
Y13043D1*
X16109Y12947D1*
X16133Y12897D1*
X16206Y12849D1*
X16303D1*
X16376Y12897D1*
X16400Y12947D1*
X16424Y13043D1*
Y13189D1*
X16400Y13286D1*
X16351Y13384D1*
X16279Y13432D1*
X16182Y13480D1*
X16133Y13530D1*
X16109Y13626D1*
Y13724D1*
X16133Y13821D1*
X16206Y13869D1*
X16303D1*
X19522Y13404D2*
X19547Y13258D1*
X19595Y13160D1*
X19668Y13112D1*
X19692D1*
X19765Y13160D1*
X19813Y13258D1*
X19838Y13404D1*
Y13452D1*
X19813Y13598D1*
X19765Y13695D1*
X19692Y13743D1*
X19668D1*
X19595Y13695D1*
X19547Y13598D1*
X19522Y13404D1*
Y13160D1*
X19547Y12918D1*
X19595Y12772D1*
X19668Y12723D1*
X19716D1*
X19789Y12772D1*
X19813Y12869D1*
X21785Y13748D2*
X21736Y13798D1*
X21663Y13943D1*
Y12923D1*
X21406Y13943D2*
X21479Y13894D1*
X21528Y13748D1*
X21552Y13506D1*
Y13360D1*
X21528Y13117D1*
X21479Y12971D1*
X21406Y12923D1*
X21358D1*
X21285Y12971D1*
X21236Y13117D1*
X21212Y13360D1*
Y13506D1*
X21236Y13748D1*
X21285Y13894D1*
X21358Y13943D1*
X21406D1*
X21236Y13748D2*
X21528Y13117D1*
X21449Y14563D2*
X21400Y14514D1*
X21255Y14441D1*
X22275D1*
X21449Y14330D2*
X21400Y14281D1*
X21255Y14208D1*
X22275D1*
X21372Y16695D2*
X21322Y16646D1*
X21178Y16573D1*
X22197D1*
X21420Y16438D2*
X21372D1*
X21274Y16413D1*
X21226Y16389D1*
X21178Y16340D1*
Y16243D1*
X21226Y16195D1*
X21274Y16171D1*
X21372Y16146D1*
X21468D1*
X21566Y16171D1*
X21711Y16219D1*
X22197Y16462D1*
Y16122D1*
X21377Y19272D2*
X21327Y19223D1*
X21182Y19150D1*
X22202D1*
X21182Y18990D2*
Y18723D1*
X21571Y18869D1*
Y18796D1*
X21619Y18747D1*
X21667Y18723D1*
X21813Y18699D1*
X21910D1*
X22056Y18723D1*
X22154Y18772D1*
X22202Y18845D1*
Y18918D1*
X22154Y18990D1*
X22104Y19014D1*
X22008Y19039D1*
X21369Y21822D2*
X21320Y21773D1*
X21175Y21700D1*
X22195D1*
Y21345D2*
X21175D1*
X21855Y21589D1*
Y21224D1*
X21417Y24327D2*
X21367Y24278D1*
X21222Y24205D1*
X22242D1*
X21222Y23802D2*
Y24045D1*
X21659Y24069D1*
X21611Y24045D1*
X21562Y23972D1*
Y23900D1*
X21611Y23827D1*
X21708Y23778D1*
X21854Y23754D1*
X21950D1*
X22096Y23778D1*
X22194Y23827D1*
X22242Y23900D1*
Y23972D1*
X22194Y24045D1*
X22144Y24069D1*
X22048Y24094D1*
X21567Y25957D2*
X21517Y25908D1*
X21372Y25835D1*
X22392D1*
X21517Y25432D2*
X21421Y25456D1*
X21372Y25529D1*
Y25578D1*
X21421Y25651D1*
X21567Y25699D1*
X21809Y25724D1*
X22052D1*
X22246Y25699D1*
X22344Y25651D1*
X22392Y25578D1*
Y25553D1*
X22344Y25481D1*
X22246Y25432D1*
X22100Y25408D1*
X22052D1*
X21906Y25432D1*
X21809Y25481D1*
X21761Y25553D1*
Y25578D1*
X21809Y25651D1*
X21906Y25699D1*
X22052Y25724D1*
X20003Y24966D2*
X20320D1*
Y23945D1*
Y24479D2*
X20125D1*
X19868Y24625D2*
X19722Y23945D1*
X19770Y23751D1*
X19819Y23653D1*
X19868Y23605D1*
X19892D1*
X19576Y24625D2*
X19722Y23945D1*
X19465Y24966D2*
Y23945D1*
Y24479D2*
X19416Y24577D1*
X19368Y24625D1*
X19295D1*
X19247Y24577D1*
X19198Y24479D1*
X19174Y24333D1*
Y24237D1*
X19198Y24091D1*
X19247Y23994D1*
X19295Y23945D1*
X19368D1*
X19416Y23994D1*
X19465Y24091D1*
X19063Y24333D2*
X18771D1*
Y24431D1*
X18795Y24529D1*
X18819Y24577D1*
X18868Y24625D1*
X18941D1*
X18990Y24577D1*
X19038Y24479D1*
X19063Y24333D1*
Y24237D1*
X19038Y24091D1*
X18990Y23994D1*
X18941Y23945D1*
X18868D1*
X18819Y23994D1*
X18771Y24091D1*
X18660Y24625D2*
Y23945D1*
Y24333D2*
X18635Y24479D1*
X18587Y24577D1*
X18538Y24625D1*
X18465D1*
X17906Y24966D2*
Y23945D1*
X17615D1*
X17212Y24625D2*
Y23945D1*
Y24479D2*
X17260Y24577D1*
X17309Y24625D1*
X17382D1*
X17430Y24577D1*
X17479Y24479D1*
X17503Y24333D1*
Y24237D1*
X17479Y24091D1*
X17430Y23994D1*
X17382Y23945D1*
X17309D1*
X17260Y23994D1*
X17212Y24091D1*
X17101Y24966D2*
Y23945D1*
Y24479D2*
X17052Y24577D1*
X17004Y24625D1*
X16931D1*
X16882Y24577D1*
X16834Y24479D1*
X16809Y24333D1*
Y24237D1*
X16834Y24091D1*
X16882Y23994D1*
X16931Y23945D1*
X17004D1*
X17052Y23994D1*
X17101Y24091D1*
X16431Y24479D2*
X16455Y24577D1*
X16528Y24625D1*
X16601D1*
X16674Y24577D1*
X16698Y24479D1*
X16674Y24383D1*
X16625Y24333D1*
X16504Y24285D1*
X16455Y24237D1*
X16431Y24139D1*
Y24091D1*
X16455Y23994D1*
X16528Y23945D1*
X16601D1*
X16674Y23994D1*
X16698Y24091D1*
X15872Y24966D2*
Y23945D1*
X15761Y24625D2*
Y23945D1*
Y24431D2*
X15688Y24577D1*
X15639Y24625D1*
X15567D1*
X15518Y24577D1*
X15494Y24431D1*
Y23945D1*
X15090Y24479D2*
X15139Y24577D1*
X15188Y24625D1*
X15261D1*
X15309Y24577D1*
X15358Y24479D1*
X15382Y24333D1*
Y24237D1*
X15358Y24091D1*
X15309Y23994D1*
X15261Y23945D1*
X15188D1*
X15139Y23994D1*
X15090Y24091D1*
X14955Y24043D2*
X14979Y23993D1*
X14955Y23945D1*
X14930Y23993D1*
X14955Y24043D1*
X20317Y23224D2*
D46*
X20120D1*
X20055Y23260D1*
X20032Y23297D1*
X20011Y23370D1*
Y23479D1*
X20032Y23552D1*
X20055Y23589D1*
X20120Y23625D1*
X20317D1*
Y22859D1*
X19541Y23443D2*
X19563Y23515D1*
X19607Y23589D1*
X19651Y23625D1*
X19738D1*
X19782Y23589D1*
X19825Y23515D1*
X19848Y23443D1*
X19869Y23333D1*
Y23151D1*
X19848Y23042D1*
X19825Y22969D1*
X19782Y22896D1*
X19738Y22859D1*
X19651D1*
X19607Y22896D1*
X19563Y22969D1*
X19541Y23042D1*
X19050Y22859D2*
X19225Y23625D1*
X19400Y22859D1*
X19335Y23114D2*
X19116D1*
X18624Y23370D2*
X18647Y23260D1*
X18690Y23187D1*
X18756Y23151D1*
X18777D1*
X18843Y23187D1*
X18887Y23260D1*
X18909Y23370D1*
Y23406D1*
X18887Y23515D1*
X18843Y23588D1*
X18777Y23624D1*
X18756D1*
X18690Y23588D1*
X18647Y23515D1*
X18624Y23370D1*
Y23187D1*
X18647Y23005D1*
X18690Y22895D1*
X18756Y22859D1*
X18799D1*
X18865Y22895D1*
X18887Y22969D1*
X18221Y23515D2*
X18243Y23588D1*
X18308Y23624D1*
X18352D1*
X18417Y23588D1*
X18461Y23478D1*
X18483Y23296D1*
Y23114D1*
X18461Y22969D1*
X18417Y22895D1*
X18352Y22859D1*
X18330D1*
X18265Y22895D1*
X18221Y22969D1*
X18199Y23078D1*
Y23114D1*
X18221Y23224D1*
X18265Y23296D1*
X18330Y23333D1*
X18352D1*
X18417Y23296D1*
X18461Y23224D1*
X18483Y23114D1*
X17949Y23624D2*
X18014Y23588D1*
X18036Y23515D1*
Y23442D1*
X18014Y23370D1*
X17970Y23333D1*
X17883Y23296D1*
X17817Y23260D1*
X17774Y23187D1*
X17752Y23114D1*
Y23005D1*
X17774Y22932D1*
X17796Y22895D1*
X17861Y22859D1*
X17949D1*
X18014Y22895D1*
X18036Y22932D1*
X18058Y23005D1*
Y23114D1*
X18036Y23187D1*
X17992Y23260D1*
X17927Y23296D1*
X17840Y23333D1*
X17796Y23370D1*
X17774Y23442D1*
Y23515D1*
X17796Y23588D1*
X17861Y23624D1*
X17949D1*
X17349D2*
X17567D1*
X17589Y23296D1*
X17567Y23333D1*
X17501Y23370D1*
X17436D1*
X17370Y23333D1*
X17326Y23260D1*
X17305Y23151D1*
Y23078D1*
X17326Y22969D1*
X17370Y22895D1*
X17436Y22859D1*
X17501D1*
X17567Y22895D1*
X17589Y22932D1*
X17611Y23005D1*
X19999Y20410D2*
D47*
X20315D1*
Y19389D1*
Y19923D2*
X20121D1*
X19888Y20410D2*
Y19389D1*
X19777Y19777D2*
X19485D1*
Y19875D1*
X19510Y19973D1*
X19534Y20021D1*
X19583Y20069D1*
X19656D1*
X19704Y20021D1*
X19753Y19923D1*
X19777Y19777D1*
Y19681D1*
X19753Y19535D1*
X19704Y19438D1*
X19656Y19389D1*
X19583D1*
X19534Y19438D1*
X19485Y19535D1*
X19374Y20069D2*
X19107Y19389D1*
Y20069D2*
X19374Y19389D1*
X18159D2*
Y20410D1*
X18354Y19389D1*
X18548Y20410D1*
Y19389D1*
X17927Y20069D2*
X17975Y20021D1*
X18024Y19923D1*
X18048Y19777D1*
Y19681D1*
X18024Y19535D1*
X17975Y19438D1*
X17927Y19389D1*
X17854D1*
X17805Y19438D1*
X17757Y19535D1*
X17732Y19681D1*
Y19777D1*
X17757Y19923D1*
X17805Y20021D1*
X17854Y20069D1*
X17927D1*
X17330Y20410D2*
Y19389D1*
Y19923D2*
X17378Y20021D1*
X17427Y20069D1*
X17500D1*
X17548Y20021D1*
X17597Y19923D1*
X17621Y19777D1*
Y19681D1*
X17597Y19535D1*
X17548Y19438D1*
X17500Y19389D1*
X17427D1*
X17378Y19438D1*
X17330Y19535D1*
X17218Y20069D2*
Y19583D1*
X17194Y19438D1*
X17145Y19389D1*
X17072D1*
X17024Y19438D1*
X16951Y19583D1*
Y20069D2*
Y19389D1*
X16840Y20410D2*
Y19389D1*
X16729Y19777D2*
X16437D1*
Y19875D1*
X16462Y19973D1*
X16486Y20021D1*
X16535Y20069D1*
X16608D1*
X16656Y20021D1*
X16705Y19923D1*
X16729Y19777D1*
Y19681D1*
X16705Y19535D1*
X16656Y19438D1*
X16608Y19389D1*
X16535D1*
X16486Y19438D1*
X16437Y19535D1*
X20302Y18575D2*
D46*
X20105D1*
X20040Y18612D1*
X20017Y18649D1*
X19996Y18721D1*
Y18794D1*
X20017Y18867D1*
X20040Y18904D1*
X20105Y18940D1*
X20302D1*
Y18174D1*
X20149Y18575D2*
X19996Y18174D1*
X19855Y18466D2*
X19592D1*
Y18539D1*
X19614Y18612D1*
X19636Y18649D1*
X19680Y18685D1*
X19745D1*
X19789Y18649D1*
X19833Y18575D1*
X19855Y18466D1*
Y18393D1*
X19833Y18284D1*
X19789Y18211D1*
X19745Y18174D1*
X19680D1*
X19636Y18211D1*
X19592Y18284D1*
X19451Y18685D2*
X19320Y18174D1*
X19189Y18685D1*
X18603Y18793D2*
X18559Y18831D1*
X18494Y18939D1*
Y18174D1*
X18331Y18248D2*
X18352Y18211D1*
X18331Y18174D1*
X18308Y18211D1*
X18331Y18248D1*
X18036Y18939D2*
X18102Y18903D1*
X18146Y18793D1*
X18167Y18612D1*
Y18502D1*
X18146Y18320D1*
X18102Y18211D1*
X18036Y18174D1*
X17992D1*
X17927Y18211D1*
X17883Y18320D1*
X17861Y18502D1*
Y18612D1*
X17883Y18793D1*
X17927Y18903D1*
X17992Y18939D1*
X18036D1*
X17883Y18793D2*
X18146Y18320D1*
X17720Y18940D2*
Y18174D1*
X17523D1*
X17457Y18211D1*
X17435Y18248D1*
X17414Y18320D1*
Y18430D1*
X17435Y18503D1*
X17457Y18539D1*
X17523Y18575D1*
X17457Y18612D1*
X17435Y18649D1*
X17414Y18721D1*
Y18794D1*
X17435Y18867D1*
X17457Y18904D1*
X17523Y18940D1*
X17720D1*
Y18575D2*
X17523D1*
X20298Y17525D2*
D47*
Y17573D1*
X20274Y17671D1*
X20249Y17719D1*
X20201Y17768D1*
X20103D1*
X20055Y17719D1*
X20031Y17671D1*
X20006Y17573D1*
Y17477D1*
X20031Y17379D1*
X20079Y17234D1*
X20322Y16748D1*
X19982D1*
X19725Y17768D2*
X19798Y17719D1*
X19847Y17573D1*
X19871Y17331D1*
Y17185D1*
X19847Y16942D1*
X19798Y16796D1*
X19725Y16748D1*
X19677D1*
X19604Y16796D1*
X19555Y16942D1*
X19531Y17185D1*
Y17331D1*
X19555Y17573D1*
X19604Y17719D1*
X19677Y17768D1*
X19725D1*
X19555Y17573D2*
X19847Y16942D1*
X19420Y17573D2*
X19371Y17623D1*
X19298Y17768D1*
Y16748D1*
X18943D2*
Y17768D1*
X19187Y17088D1*
X18822D1*
M02*
