G04 DipTrace 2.4.0.2*
%INcross.gbo*%
%MOMM*%
%ADD10C,0.25*%
%ADD56C,0.118*%
%ADD57C,0.314*%
%FSLAX53Y53*%
G04*
G71*
G90*
G75*
G01*
%LNBotSilk*%
%LPD*%
X32210Y37013D2*
D10*
X35210D1*
Y44013D1*
X32210D1*
Y37013D1*
X32279Y77056D2*
D56*
Y76290D1*
X32081D1*
X32016Y76327D1*
X31994Y76364D1*
X31972Y76436D1*
Y76545D1*
X31994Y76619D1*
X32016Y76655D1*
X32081Y76691D1*
X32016Y76728D1*
X31994Y76764D1*
X31972Y76837D1*
Y76910D1*
X31994Y76983D1*
X32016Y77020D1*
X32081Y77056D1*
X32279D1*
Y76691D2*
X32081D1*
X31831Y76909D2*
X31787Y76946D1*
X31721Y77055D1*
Y76290D1*
X33713Y45779D2*
Y45232D1*
X33691Y45123D1*
X33647Y45050D1*
X33581Y45013D1*
X33538D1*
X33472Y45050D1*
X33428Y45123D1*
X33407Y45232D1*
Y45779D1*
X33265Y45632D2*
X33221Y45669D1*
X33156Y45778D1*
Y45013D1*
X32752Y45778D2*
X32971D1*
X32992Y45450D1*
X32971Y45487D1*
X32905Y45524D1*
X32840D1*
X32774Y45487D1*
X32730Y45414D1*
X32708Y45305D1*
Y45232D1*
X32730Y45123D1*
X32774Y45049D1*
X32840Y45013D1*
X32905D1*
X32971Y45049D1*
X32992Y45086D1*
X33014Y45159D1*
X51606Y62181D2*
D57*
X52870D1*
Y60139D1*
Y61208D2*
X52093D1*
X50879Y61500D2*
X50298Y60139D1*
X50491Y59750D1*
X50686Y59555D1*
X50879Y59458D1*
X50978D1*
X49714Y61500D2*
X50298Y60139D1*
X49086Y62181D2*
Y60139D1*
Y61208D2*
X48891Y61404D1*
X48698Y61500D1*
X48406D1*
X48212Y61404D1*
X48017Y61208D1*
X47920Y60916D1*
Y60723D1*
X48017Y60431D1*
X48212Y60238D1*
X48406Y60139D1*
X48698D1*
X48891Y60238D1*
X49086Y60431D1*
X47293Y60916D2*
X46127D1*
Y61112D1*
X46224Y61307D1*
X46320Y61404D1*
X46516Y61500D1*
X46808D1*
X47001Y61404D1*
X47196Y61208D1*
X47293Y60916D1*
Y60723D1*
X47196Y60431D1*
X47001Y60238D1*
X46808Y60139D1*
X46516D1*
X46320Y60238D1*
X46127Y60431D1*
X45500Y61500D2*
Y60139D1*
Y60916D2*
X45401Y61208D1*
X45208Y61404D1*
X45012Y61500D1*
X44720D1*
X42118Y62181D2*
Y60139D1*
X40952D1*
X39159Y61500D2*
Y60139D1*
Y61208D2*
X39352Y61404D1*
X39547Y61500D1*
X39837D1*
X40033Y61404D1*
X40226Y61208D1*
X40325Y60916D1*
Y60723D1*
X40226Y60431D1*
X40033Y60238D1*
X39837Y60139D1*
X39547D1*
X39352Y60238D1*
X39159Y60431D1*
X38531Y62181D2*
Y60139D1*
Y61208D2*
X38336Y61404D1*
X38143Y61500D1*
X37851D1*
X37658Y61404D1*
X37462Y61208D1*
X37366Y60916D1*
Y60723D1*
X37462Y60431D1*
X37658Y60238D1*
X37851Y60139D1*
X38143D1*
X38336Y60238D1*
X38531Y60431D1*
X35669Y61208D2*
X35766Y61404D1*
X36058Y61500D1*
X36350D1*
X36642Y61404D1*
X36738Y61208D1*
X36642Y61015D1*
X36446Y60916D1*
X35961Y60820D1*
X35766Y60723D1*
X35669Y60528D1*
Y60431D1*
X35766Y60238D1*
X36058Y60139D1*
X36350D1*
X36642Y60238D1*
X36738Y60431D1*
X23473Y63671D2*
Y61629D1*
X24154Y63671D2*
X22793D1*
X22165D2*
X22069Y63574D1*
X21970Y63671D1*
X22069Y63770D1*
X22165Y63671D1*
X22069Y62990D2*
Y61629D1*
X21342Y62990D2*
Y61629D1*
Y62602D2*
X21050Y62894D1*
X20855Y62990D1*
X20565D1*
X20370Y62894D1*
X20273Y62602D1*
Y61629D1*
X19547Y62990D2*
X18965Y61629D1*
X19158Y61241D1*
X19354Y61045D1*
X19547Y60949D1*
X19646D1*
X18381Y62990D2*
X18965Y61629D1*
X17754Y63671D2*
Y61629D1*
X16588D1*
X14698Y63671D2*
X15961D1*
Y61629D1*
X14698D1*
X15961Y62698D2*
X15183D1*
X14071Y63671D2*
Y61629D1*
X13390D1*
X13098Y61728D1*
X12903Y61921D1*
X12806Y62117D1*
X12710Y62406D1*
Y62894D1*
X12806Y63186D1*
X12903Y63379D1*
X13098Y63574D1*
X13390Y63671D1*
X14071D1*
X31907Y35227D2*
Y34354D1*
X31808Y34062D1*
X31712Y33963D1*
X31519Y33866D1*
X31323D1*
X31130Y33963D1*
X31031Y34062D1*
X30935Y34354D1*
Y35227D1*
X32976D1*
X31907Y34547D2*
X32976Y33866D1*
X32199Y33239D2*
Y32073D1*
X32004D1*
X31808Y32170D1*
X31712Y32266D1*
X31615Y32462D1*
Y32754D1*
X31712Y32947D1*
X31907Y33142D1*
X32199Y33239D1*
X32392D1*
X32684Y33142D1*
X32877Y32947D1*
X32976Y32754D1*
Y32462D1*
X32877Y32266D1*
X32684Y32073D1*
X31615Y31446D2*
X32976Y30862D1*
X31615Y30280D1*
X32781Y29556D2*
X32880Y29652D1*
X32976Y29556D1*
X32880Y29457D1*
X32781Y29556D1*
X30937Y26270D2*
X31033Y26562D1*
X31325Y26758D1*
X31811Y26854D1*
X32103D1*
X32588Y26758D1*
X32880Y26562D1*
X32976Y26270D1*
Y26077D1*
X32880Y25785D1*
X32588Y25592D1*
X32103Y25493D1*
X31811D1*
X31325Y25592D1*
X31033Y25785D1*
X30937Y26077D1*
Y26270D1*
X31325Y25592D2*
X32588Y26758D1*
X32781Y24769D2*
X32880Y24866D1*
X32976Y24769D1*
X32880Y24670D1*
X32781Y24769D1*
X32976Y23070D2*
X30937D1*
X32296Y24043D1*
Y22585D1*
X31443Y20828D2*
X31347D1*
X31151Y20732D1*
X31055Y20635D1*
X30958Y20440D1*
Y20051D1*
X31055Y19858D1*
X31151Y19761D1*
X31347Y19662D1*
X31540D1*
X31735Y19761D1*
X32025Y19954D1*
X32998Y20927D1*
Y19566D1*
X30958Y18354D2*
X31055Y18646D1*
X31347Y18842D1*
X31832Y18938D1*
X32124D1*
X32609Y18842D1*
X32901Y18646D1*
X32998Y18354D1*
Y18161D1*
X32901Y17869D1*
X32609Y17676D1*
X32124Y17577D1*
X31832D1*
X31347Y17676D1*
X31055Y17869D1*
X30958Y18161D1*
Y18354D1*
X31347Y17676D2*
X32609Y18842D1*
X31347Y16950D2*
X31248Y16754D1*
X30958Y16462D1*
X32998D1*
X30958Y14669D2*
Y15640D1*
X31832Y15736D1*
X31735Y15640D1*
X31636Y15348D1*
Y15058D1*
X31735Y14766D1*
X31928Y14570D1*
X32220Y14474D1*
X32414D1*
X32706Y14570D1*
X32901Y14766D1*
X32998Y15058D1*
Y15348D1*
X32901Y15640D1*
X32802Y15736D1*
X32609Y15835D1*
X21107Y59853D2*
X21204Y60046D1*
X21399Y60241D1*
X21592Y60338D1*
X21981D1*
X22176Y60241D1*
X22369Y60046D1*
X22468Y59853D1*
X22565Y59561D1*
Y59073D1*
X22468Y58783D1*
X22369Y58588D1*
X22176Y58395D1*
X21981Y58296D1*
X21592D1*
X21399Y58395D1*
X21204Y58588D1*
X21107Y58783D1*
X20480Y59657D2*
Y58296D1*
Y59073D2*
X20381Y59365D1*
X20188Y59561D1*
X19992Y59657D1*
X19700D1*
X18588D2*
X18781Y59561D1*
X18976Y59365D1*
X19073Y59073D1*
Y58880D1*
X18976Y58588D1*
X18781Y58395D1*
X18588Y58296D1*
X18296D1*
X18100Y58395D1*
X17907Y58588D1*
X17808Y58880D1*
Y59073D1*
X17907Y59365D1*
X18100Y59561D1*
X18296Y59657D1*
X18588D1*
X16112Y59365D2*
X16208Y59561D1*
X16500Y59657D1*
X16792D1*
X17084Y59561D1*
X17181Y59365D1*
X17084Y59172D1*
X16889Y59073D1*
X16404Y58977D1*
X16208Y58880D1*
X16112Y58685D1*
Y58588D1*
X16208Y58395D1*
X16500Y58296D1*
X16792D1*
X17084Y58395D1*
X17181Y58588D1*
X14415Y59365D2*
X14511Y59561D1*
X14803Y59657D1*
X15095D1*
X15387Y59561D1*
X15484Y59365D1*
X15387Y59172D1*
X15192Y59073D1*
X14707Y58977D1*
X14511Y58880D1*
X14415Y58685D1*
Y58588D1*
X14511Y58395D1*
X14803Y58296D1*
X15095D1*
X15387Y58395D1*
X15484Y58588D1*
M02*
