G04 DipTrace 2.4.0.2*
%INcross.gtl*%
%MOMM*%
%ADD13C,0.4*%
%ADD14C,0.508*%
%ADD15C,0.305*%
%ADD16C,0.28*%
%ADD19R,1.1X1.0*%
%ADD20R,1.0X1.1*%
%ADD21R,0.85X2.0*%
%ADD26O,0.28X1.0*%
%ADD27O,1.0X0.28*%
%ADD28C,0.711*%
%ADD29R,2.7X2.7*%
%ADD31R,0.4X0.9*%
%ADD34O,1.0X1.5*%
%ADD36O,1.5X1.0*%
%ADD37C,0.711*%
%FSLAX53Y53*%
G04*
G71*
G90*
G75*
G01*
%LNTop*%
%LPD*%
X42367Y62696D2*
D13*
Y61992D1*
D14*
Y61200D1*
D13*
Y60496D1*
Y59792D1*
D14*
Y58493D1*
X42422Y58438D1*
X42367Y62696D2*
D13*
Y63400D1*
D14*
Y63661D1*
X41897Y64131D1*
X42808Y55976D2*
Y58051D1*
X42422Y58438D1*
X41897Y64131D2*
Y65141D1*
X42986Y66230D1*
X38585Y60758D2*
X39505D1*
D13*
X39767Y60496D1*
Y60813D1*
D14*
X41020Y62066D1*
Y62649D1*
D13*
X41067Y62696D1*
X40758Y14958D2*
D15*
Y14284D1*
X40865Y14177D1*
Y13752D1*
X39568Y11434D2*
D14*
X39667D1*
X39778Y11545D1*
X38585Y60758D2*
Y58222D1*
X40270Y56538D1*
X41024D1*
X42858Y54704D1*
Y54508D1*
X20508Y62858D2*
X22486D1*
Y59187D1*
X23636Y58038D1*
X33422D1*
X34446D1*
X35429Y57055D1*
Y56494D1*
X39261Y52662D1*
X41012D1*
X42858Y54508D1*
X11508Y62858D2*
X12798D1*
X14201Y61455D1*
Y59269D1*
X15433Y58038D1*
X23636D1*
X42858Y45508D2*
Y44283D1*
X41598Y43023D1*
X39558D1*
X37858Y44723D1*
Y51259D1*
X39261Y52662D1*
X37858Y44723D2*
X37773Y44808D1*
Y35514D1*
X39671Y33615D1*
X39965D1*
X42858Y36508D1*
X37773Y35514D2*
Y26613D1*
X39093Y25293D1*
X41321D1*
Y25530D1*
Y25971D1*
X42858Y27508D1*
X70508Y59158D2*
X68874D1*
X67826Y60206D1*
Y63672D1*
X67582Y63916D1*
X58448D1*
X48226D1*
Y64157D1*
X47935D1*
X42523Y69569D1*
Y72173D1*
X42858Y72508D1*
X52508Y59158D2*
X50873D1*
X48873Y61158D1*
Y63269D1*
X48226Y63916D1*
X61508Y59158D2*
X59693D1*
X59008Y59842D1*
Y63355D1*
X58448Y63916D1*
X42858Y72508D2*
X43373D1*
X43877Y73011D1*
Y80489D1*
X42858Y81508D1*
X29508Y62858D2*
X30616D1*
X31515Y61959D1*
Y59945D1*
X33422Y58038D1*
X43454Y55171D2*
X42858Y54575D1*
Y54508D1*
X48852Y61040D2*
X48873Y61061D1*
Y61158D1*
X41410Y25441D2*
X41321Y25530D1*
X39767Y62696D2*
D13*
Y63400D1*
D14*
Y63701D1*
X40197Y64131D1*
X39767Y62696D2*
D13*
X39313D1*
D14*
X38823D1*
X38585Y62458D1*
X41258Y14958D2*
D15*
Y14411D1*
X41821Y13848D1*
X42070D1*
X42505Y10896D2*
D14*
Y11358D1*
X42318Y11545D1*
X34508Y62858D2*
X38185D1*
X38585Y62458D1*
X34508Y62858D2*
Y63854D1*
X26504D1*
X25508Y62858D1*
X16508D2*
X18299D1*
X19295Y63854D1*
X26504D1*
X42858Y49508D2*
Y52953D1*
X44593Y54688D1*
Y58135D1*
X46485D1*
X47508Y59158D1*
X42858Y40508D2*
X42994D1*
X43978Y41492D1*
Y48388D1*
X42858Y49508D1*
Y31508D2*
X42920D1*
X43929Y32517D1*
Y39437D1*
X42858Y40508D1*
Y22508D2*
X43759D1*
X44088Y22837D1*
Y30278D1*
X42858Y31508D1*
X65508Y59158D2*
X64101D1*
X63068Y58125D1*
X53809D1*
X45169D1*
X47508Y59158D1*
X56508D2*
X54842D1*
X53809Y58125D1*
X42858Y67508D2*
Y67423D1*
X40197Y64763D1*
Y64131D1*
X42858Y67508D2*
X43260D1*
X41530Y69239D1*
X40044D1*
X37948Y71336D1*
Y77232D1*
X38817Y78101D1*
X41265D1*
X42858Y76508D1*
X44593Y58135D2*
Y61010D1*
X43906Y61697D1*
Y66460D1*
X42858Y67508D1*
X41908Y17908D2*
X41008Y17008D1*
X42858Y22508D2*
Y20939D1*
X42854Y20935D1*
X39310Y62698D2*
D13*
X39313Y62696D1*
X39814Y63491D2*
X39767Y63400D1*
X39814Y63491D2*
D14*
Y63749D1*
X40197Y64131D1*
X41067Y60496D2*
D13*
Y59792D1*
D14*
Y58783D1*
X40722Y58438D1*
X38958Y15758D2*
D15*
Y13635D1*
X39778Y12815D1*
X38958Y16758D2*
X38125D1*
X38011Y16872D1*
X39694Y13847D2*
X39764D1*
X41048Y12563D1*
Y12815D1*
X38958Y16258D2*
X38385D1*
X38043Y15916D1*
Y13123D1*
X37694Y12774D1*
Y11603D1*
X38524Y10773D1*
X40226D1*
X41048Y11595D1*
Y11545D1*
X39758Y19058D2*
D16*
X39555D1*
Y19359D1*
D14*
X37994Y20920D1*
Y23078D1*
X38694Y23778D1*
X39738D1*
X41008Y22508D1*
X40258Y19058D2*
D16*
Y20017D1*
D14*
Y21408D1*
X39158Y22508D1*
Y27508D2*
Y31508D1*
X41008Y27508D2*
Y31508D1*
X39158Y36508D2*
Y40508D1*
X41008Y36508D2*
Y40508D1*
X39158Y45508D2*
Y49508D1*
X41008Y45508D2*
Y49508D1*
X34508Y61008D2*
X34979Y61479D1*
X36532D1*
X36855Y61156D1*
Y60552D1*
X37893Y59514D1*
Y57937D1*
X41008Y54822D1*
Y54508D1*
X39158D2*
Y54680D1*
X36067Y57771D1*
X35895D1*
X34508Y59158D1*
X29508D2*
X25508D1*
X29508Y61008D2*
X25508D1*
X20508D2*
X16508D1*
X20508Y59158D2*
X16508D1*
X11508D2*
X12526Y59192D1*
X39158Y67508D2*
X38967D1*
X38045Y66586D1*
X11508Y61008D2*
X12896Y61025D1*
X41008Y67508D2*
Y66801D1*
X40139Y65932D1*
X39158Y81508D2*
Y79674D1*
X38830Y79347D1*
X47508Y62858D2*
X46158D1*
X45571Y63445D1*
X41008Y81508D2*
Y79692D1*
X40532Y79216D1*
X47508Y61008D2*
X45914D1*
X45440Y61482D1*
X52508Y61008D2*
X56508D1*
X52508Y62858D2*
X56508D1*
X61508D2*
X65508D1*
X61508Y61008D2*
X65508D1*
X39158Y76508D2*
Y73639D1*
Y72508D1*
X41008Y76508D2*
Y73639D1*
Y72508D1*
D37*
X38011Y16872D3*
X39694Y13847D3*
X42070Y13848D3*
X40865Y13752D3*
X39568Y11434D3*
X42505Y10896D3*
X12526Y59192D3*
X12896Y61025D3*
X40532Y79216D3*
X38830Y79347D3*
X45440Y61482D3*
X45571Y63445D3*
X38045Y66586D3*
X40139Y65932D3*
X43454Y55171D3*
X48852Y61040D3*
X42808Y55976D3*
X39310Y62698D3*
X42854Y20935D3*
X41410Y25441D3*
X39814Y63491D3*
X42986Y66230D3*
D19*
X41897Y64131D3*
X40197D3*
D20*
X38585Y60758D3*
Y62458D3*
G36*
X40172Y12815D2*
X40166Y12883D1*
X40148Y12950D1*
X40119Y13012D1*
X40080Y13068D1*
X40031Y13117D1*
X39975Y13156D1*
X39913Y13185D1*
X39846Y13203D1*
X39778Y13209D1*
D1*
X39710Y13203D1*
X39643Y13185D1*
X39581Y13156D1*
X39525Y13117D1*
X39476Y13068D1*
X39437Y13012D1*
X39408Y12950D1*
X39390Y12883D1*
X39384Y12815D1*
D1*
X39390Y12747D1*
X39408Y12680D1*
X39437Y12618D1*
X39476Y12562D1*
X39525Y12513D1*
X39581Y12474D1*
X39643Y12445D1*
X39710Y12427D1*
X39778Y12421D1*
D1*
X39846Y12427D1*
X39913Y12445D1*
X39975Y12474D1*
X40031Y12513D1*
X40080Y12562D1*
X40119Y12618D1*
X40148Y12680D1*
X40166Y12747D1*
X40172Y12815D1*
G37*
G36*
X41442D2*
X41436Y12883D1*
X41418Y12950D1*
X41389Y13012D1*
X41350Y13068D1*
X41301Y13117D1*
X41245Y13156D1*
X41183Y13185D1*
X41116Y13203D1*
X41048Y13209D1*
D1*
X40980Y13203D1*
X40913Y13185D1*
X40851Y13156D1*
X40795Y13117D1*
X40746Y13068D1*
X40707Y13012D1*
X40678Y12950D1*
X40660Y12883D1*
X40654Y12815D1*
D1*
X40660Y12747D1*
X40678Y12680D1*
X40707Y12618D1*
X40746Y12562D1*
X40795Y12513D1*
X40851Y12474D1*
X40913Y12445D1*
X40980Y12427D1*
X41048Y12421D1*
D1*
X41116Y12427D1*
X41183Y12445D1*
X41245Y12474D1*
X41301Y12513D1*
X41350Y12562D1*
X41389Y12618D1*
X41418Y12680D1*
X41436Y12747D1*
X41442Y12815D1*
G37*
G36*
X42712D2*
X42706Y12883D1*
X42688Y12950D1*
X42659Y13012D1*
X42620Y13068D1*
X42571Y13117D1*
X42515Y13156D1*
X42453Y13185D1*
X42386Y13203D1*
X42318Y13209D1*
D1*
X42250Y13203D1*
X42183Y13185D1*
X42121Y13156D1*
X42065Y13117D1*
X42016Y13068D1*
X41977Y13012D1*
X41948Y12950D1*
X41930Y12883D1*
X41924Y12815D1*
D1*
X41930Y12747D1*
X41948Y12680D1*
X41977Y12618D1*
X42016Y12562D1*
X42065Y12513D1*
X42121Y12474D1*
X42183Y12445D1*
X42250Y12427D1*
X42318Y12421D1*
D1*
X42386Y12427D1*
X42453Y12445D1*
X42515Y12474D1*
X42571Y12513D1*
X42620Y12562D1*
X42659Y12618D1*
X42688Y12680D1*
X42706Y12747D1*
X42712Y12815D1*
G37*
G36*
Y11545D2*
X42706Y11613D1*
X42688Y11680D1*
X42659Y11742D1*
X42620Y11798D1*
X42571Y11847D1*
X42515Y11886D1*
X42453Y11915D1*
X42386Y11933D1*
X42318Y11939D1*
D1*
X42250Y11933D1*
X42183Y11915D1*
X42121Y11886D1*
X42065Y11847D1*
X42016Y11798D1*
X41977Y11742D1*
X41948Y11680D1*
X41930Y11613D1*
X41924Y11545D1*
D1*
X41930Y11477D1*
X41948Y11410D1*
X41977Y11348D1*
X42016Y11292D1*
X42065Y11243D1*
X42121Y11204D1*
X42183Y11175D1*
X42250Y11157D1*
X42318Y11151D1*
D1*
X42386Y11157D1*
X42453Y11175D1*
X42515Y11204D1*
X42571Y11243D1*
X42620Y11292D1*
X42659Y11348D1*
X42688Y11410D1*
X42706Y11477D1*
X42712Y11545D1*
G37*
G36*
X41442D2*
X41436Y11613D1*
X41418Y11680D1*
X41389Y11742D1*
X41350Y11798D1*
X41301Y11847D1*
X41245Y11886D1*
X41183Y11915D1*
X41116Y11933D1*
X41048Y11939D1*
D1*
X40980Y11933D1*
X40913Y11915D1*
X40851Y11886D1*
X40795Y11847D1*
X40746Y11798D1*
X40707Y11742D1*
X40678Y11680D1*
X40660Y11613D1*
X40654Y11545D1*
D1*
X40660Y11477D1*
X40678Y11410D1*
X40707Y11348D1*
X40746Y11292D1*
X40795Y11243D1*
X40851Y11204D1*
X40913Y11175D1*
X40980Y11157D1*
X41048Y11151D1*
D1*
X41116Y11157D1*
X41183Y11175D1*
X41245Y11204D1*
X41301Y11243D1*
X41350Y11292D1*
X41389Y11348D1*
X41418Y11410D1*
X41436Y11477D1*
X41442Y11545D1*
G37*
G36*
X40172D2*
X40166Y11613D1*
X40148Y11680D1*
X40119Y11742D1*
X40080Y11798D1*
X40031Y11847D1*
X39975Y11886D1*
X39913Y11915D1*
X39846Y11933D1*
X39778Y11939D1*
D1*
X39710Y11933D1*
X39643Y11915D1*
X39581Y11886D1*
X39525Y11847D1*
X39476Y11798D1*
X39437Y11742D1*
X39408Y11680D1*
X39390Y11613D1*
X39384Y11545D1*
D1*
X39390Y11477D1*
X39408Y11410D1*
X39437Y11348D1*
X39476Y11292D1*
X39525Y11243D1*
X39581Y11204D1*
X39643Y11175D1*
X39710Y11157D1*
X39778Y11151D1*
D1*
X39846Y11157D1*
X39913Y11175D1*
X39975Y11204D1*
X40031Y11243D1*
X40080Y11292D1*
X40119Y11348D1*
X40148Y11410D1*
X40166Y11477D1*
X40172Y11545D1*
G37*
D21*
X42422Y58438D3*
X40722D3*
D26*
X39758Y14958D3*
X40258D3*
X40758D3*
X41258D3*
X41758D3*
X42258D3*
D27*
X43058Y15758D3*
Y16258D3*
Y16758D3*
Y17258D3*
Y17758D3*
Y18258D3*
D26*
X42258Y19058D3*
X41758D3*
X41258D3*
X40758D3*
X40258D3*
X39758D3*
D27*
X38958Y18258D3*
Y17758D3*
Y17258D3*
Y16758D3*
Y16258D3*
Y15758D3*
D28*
X40108Y16108D3*
Y17008D3*
Y17908D3*
X41008Y16108D3*
Y17008D3*
Y17908D3*
X41908Y16108D3*
Y17008D3*
Y17908D3*
D29*
X41008Y17008D3*
D31*
X42367Y62696D3*
X41067D3*
X39767D3*
Y60496D3*
X41067D3*
X42367D3*
D34*
X39158Y22508D3*
X41008D3*
X42858D3*
Y27508D3*
X41008D3*
X39158D3*
Y31508D3*
X41008D3*
X42858D3*
Y36508D3*
X41008D3*
X39158D3*
Y40508D3*
X41008D3*
X42858D3*
Y45508D3*
X41008D3*
X39158D3*
Y49508D3*
X41008D3*
X42858D3*
Y54508D3*
X41008D3*
X39158D3*
D36*
X34508Y59158D3*
Y61008D3*
Y62858D3*
X29508D3*
Y61008D3*
Y59158D3*
X25508D3*
Y61008D3*
Y62858D3*
X20508D3*
Y61008D3*
Y59158D3*
X16508D3*
Y61008D3*
Y62858D3*
X11508D3*
Y61008D3*
Y59158D3*
D34*
X39158Y67508D3*
X41008D3*
X42858D3*
Y72508D3*
X41008D3*
X39158D3*
Y76508D3*
X41008D3*
X42858D3*
Y81508D3*
X41008D3*
X39158D3*
D36*
X47508Y62858D3*
Y61008D3*
Y59158D3*
X52508D3*
Y61008D3*
Y62858D3*
X56508D3*
Y61008D3*
Y59158D3*
X61508D3*
Y61008D3*
Y62858D3*
X65508D3*
Y61008D3*
Y59158D3*
X70508D3*
Y61008D3*
Y62858D3*
M02*
