G04 DipTrace 2.4.0.2*
%INcross.gto*%
%MOMM*%
%ADD10C,0.25*%
%ADD20O,0.437X0.4*%
%ADD25O,0.5X0.5*%
%ADD28O,0.925X0.975*%
%ADD33O,0.975X0.925*%
%ADD56C,0.118*%
%FSLAX53Y53*%
G04*
G71*
G90*
G75*
G01*
%LNTopSilk*%
%LPD*%
D20*
X30645Y14083D3*
X30500Y15000D2*
D10*
X30000Y15500D1*
Y18500D2*
Y19000D1*
X30500D1*
X33500D2*
X34000D1*
Y18500D1*
X33500Y15000D2*
X34000D1*
Y15500D1*
X33759Y60588D2*
Y62588D1*
X30359Y60588D2*
Y62588D1*
D25*
X33934Y62838D3*
X29500Y27600D2*
D10*
Y25600D1*
X34500Y27600D2*
Y25600D1*
Y24400D2*
Y22400D1*
X29500Y24400D2*
Y22400D1*
D28*
X29138Y22537D3*
X33414Y57280D2*
D10*
X31714D1*
X33414Y59580D2*
X31714D1*
X29500Y36600D2*
Y34600D1*
X34500Y36600D2*
Y34600D1*
Y33400D2*
Y31400D1*
X29500Y33400D2*
Y31400D1*
D28*
X29138Y31537D3*
X29500Y45600D2*
D10*
Y43600D1*
X34500Y45600D2*
Y43600D1*
Y42400D2*
Y40400D1*
X29500Y42400D2*
Y40400D1*
D28*
X29138Y40537D3*
X29500Y54600D2*
D10*
Y52600D1*
X34500Y54600D2*
Y52600D1*
Y51400D2*
Y49400D1*
X29500Y51400D2*
Y49400D1*
D28*
X29138Y49537D3*
X20400Y58500D2*
D10*
X22400D1*
X20400Y63500D2*
X22400D1*
X23600D2*
X25600D1*
X23600Y58500D2*
X25600D1*
D33*
X25463Y58138D3*
X11400Y58500D2*
D10*
X13400D1*
X11400Y63500D2*
X13400D1*
X14600D2*
X16600D1*
X14600Y58500D2*
X16600D1*
D33*
X16463Y58138D3*
X29500Y72600D2*
D10*
Y70600D1*
X34500Y72600D2*
Y70600D1*
Y69400D2*
Y67400D1*
X29500Y69400D2*
Y67400D1*
D28*
X29138Y67537D3*
X29500Y81600D2*
D10*
Y79600D1*
X34500Y81600D2*
Y79600D1*
Y78400D2*
Y76400D1*
X29500Y78400D2*
Y76400D1*
D28*
X29138Y76537D3*
X43600Y63500D2*
D10*
X41600D1*
X43600Y58500D2*
X41600D1*
X40400D2*
X38400D1*
X40400Y63500D2*
X38400D1*
D33*
X38537Y63862D3*
X52600Y63500D2*
D10*
X50600D1*
X52600Y58500D2*
X50600D1*
X49400D2*
X47400D1*
X49400Y63500D2*
X47400D1*
D33*
X47537Y63862D3*
X31721Y20666D2*
D56*
Y20119D1*
X31743Y20010D1*
X31787Y19937D1*
X31853Y19900D1*
X31896D1*
X31962Y19937D1*
X32006Y20010D1*
X32028Y20119D1*
Y20666D1*
X32169Y20519D2*
X32213Y20556D1*
X32279Y20665D1*
Y19900D1*
X34120Y61770D2*
Y61223D1*
X34142Y61114D1*
X34186Y61041D1*
X34251Y61004D1*
X34295D1*
X34361Y61041D1*
X34405Y61114D1*
X34426Y61223D1*
Y61770D1*
X34590Y61587D2*
Y61624D1*
X34611Y61697D1*
X34633Y61733D1*
X34677Y61769D1*
X34765D1*
X34808Y61733D1*
X34830Y61697D1*
X34852Y61624D1*
Y61551D1*
X34830Y61478D1*
X34786Y61369D1*
X34567Y61004D1*
X34874D1*
X33860Y14619D2*
Y14036D1*
X33838Y13927D1*
X33816Y13891D1*
X33772Y13854D1*
X33728D1*
X33685Y13891D1*
X33663Y13927D1*
X33641Y14036D1*
Y14109D1*
X34001Y14473D2*
X34045Y14510D1*
X34110Y14618D1*
Y13854D1*
X31211Y29366D2*
Y28819D1*
X31232Y28710D1*
X31276Y28637D1*
X31342Y28600D1*
X31386D1*
X31451Y28637D1*
X31495Y28710D1*
X31517Y28819D1*
Y29366D1*
X31702Y29365D2*
X31942D1*
X31811Y29074D1*
X31877D1*
X31920Y29037D1*
X31942Y29001D1*
X31964Y28892D1*
Y28819D1*
X31942Y28710D1*
X31899Y28636D1*
X31833Y28600D1*
X31767D1*
X31702Y28636D1*
X31680Y28674D1*
X31658Y28746D1*
X32078Y65557D2*
X32056Y65630D1*
X32012Y65703D1*
X31968Y65739D1*
X31881D1*
X31837Y65703D1*
X31794Y65630D1*
X31771Y65557D1*
X31750Y65448D1*
Y65265D1*
X31771Y65156D1*
X31794Y65083D1*
X31837Y65011D1*
X31881Y64974D1*
X31968D1*
X32012Y65011D1*
X32056Y65083D1*
X32078Y65156D1*
X32219Y65593D2*
X32263Y65630D1*
X32328Y65738D1*
Y64974D1*
X29517Y63934D2*
X29496Y64007D1*
X29452Y64080D1*
X29408Y64116D1*
X29321D1*
X29277Y64080D1*
X29233Y64007D1*
X29211Y63934D1*
X29189Y63825D1*
Y63642D1*
X29211Y63533D1*
X29233Y63460D1*
X29277Y63388D1*
X29321Y63351D1*
X29408D1*
X29452Y63388D1*
X29496Y63460D1*
X29517Y63533D1*
X29681Y63934D2*
Y63970D1*
X29703Y64043D1*
X29724Y64079D1*
X29768Y64115D1*
X29856D1*
X29899Y64079D1*
X29921Y64043D1*
X29943Y63970D1*
Y63897D1*
X29921Y63824D1*
X29877Y63715D1*
X29659Y63351D1*
X29965D1*
X34222Y58988D2*
Y58222D1*
X34484D1*
X34626Y58841D2*
X34670Y58878D1*
X34735Y58987D1*
Y58222D1*
X31200Y38366D2*
Y37819D1*
X31222Y37710D1*
X31265Y37637D1*
X31331Y37600D1*
X31375D1*
X31440Y37637D1*
X31484Y37710D1*
X31506Y37819D1*
Y38366D1*
X31866Y37600D2*
Y38365D1*
X31647Y37855D1*
X31975D1*
X31211Y47366D2*
Y46819D1*
X31232Y46710D1*
X31276Y46637D1*
X31342Y46600D1*
X31386D1*
X31451Y46637D1*
X31495Y46710D1*
X31517Y46819D1*
Y47366D1*
X31920Y47365D2*
X31702D1*
X31680Y47037D1*
X31702Y47074D1*
X31768Y47111D1*
X31833D1*
X31899Y47074D1*
X31943Y47001D1*
X31964Y46892D1*
Y46819D1*
X31943Y46710D1*
X31899Y46636D1*
X31833Y46600D1*
X31768D1*
X31702Y46636D1*
X31680Y46674D1*
X31658Y46746D1*
X31222Y56366D2*
Y55819D1*
X31243Y55710D1*
X31287Y55637D1*
X31353Y55600D1*
X31397D1*
X31462Y55637D1*
X31506Y55710D1*
X31528Y55819D1*
Y56366D1*
X31932Y56256D2*
X31910Y56329D1*
X31844Y56365D1*
X31801D1*
X31735Y56329D1*
X31691Y56219D1*
X31669Y56037D1*
Y55855D1*
X31691Y55710D1*
X31735Y55636D1*
X31801Y55600D1*
X31822D1*
X31888Y55636D1*
X31932Y55710D1*
X31953Y55819D1*
Y55855D1*
X31932Y55965D1*
X31888Y56037D1*
X31822Y56074D1*
X31801D1*
X31735Y56037D1*
X31691Y55965D1*
X31669Y55855D1*
X22623Y64616D2*
Y64069D1*
X22645Y63960D1*
X22689Y63887D1*
X22755Y63850D1*
X22798D1*
X22864Y63887D1*
X22908Y63960D1*
X22929Y64069D1*
Y64616D1*
X23158Y63850D2*
X23377Y64615D1*
X23071D1*
X13623Y64616D2*
Y64069D1*
X13645Y63960D1*
X13689Y63887D1*
X13755Y63850D1*
X13798D1*
X13864Y63887D1*
X13908Y63960D1*
X13930Y64069D1*
Y64616D1*
X14180Y64615D2*
X14115Y64579D1*
X14093Y64506D1*
Y64433D1*
X14115Y64361D1*
X14158Y64324D1*
X14246Y64287D1*
X14311Y64251D1*
X14355Y64178D1*
X14377Y64105D1*
Y63996D1*
X14355Y63924D1*
X14333Y63886D1*
X14267Y63850D1*
X14180D1*
X14115Y63886D1*
X14093Y63924D1*
X14071Y63996D1*
Y64105D1*
X14093Y64178D1*
X14137Y64251D1*
X14202Y64287D1*
X14289Y64324D1*
X14333Y64361D1*
X14355Y64433D1*
Y64506D1*
X14333Y64579D1*
X14267Y64615D1*
X14180D1*
X31222Y74366D2*
Y73819D1*
X31243Y73710D1*
X31287Y73637D1*
X31353Y73600D1*
X31396D1*
X31462Y73637D1*
X31506Y73710D1*
X31528Y73819D1*
Y74366D1*
X31953Y74111D2*
X31931Y74001D1*
X31888Y73928D1*
X31822Y73892D1*
X31800D1*
X31735Y73928D1*
X31691Y74001D1*
X31669Y74111D1*
Y74147D1*
X31691Y74256D1*
X31735Y74329D1*
X31800Y74365D1*
X31822D1*
X31888Y74329D1*
X31931Y74256D1*
X31953Y74111D1*
Y73928D1*
X31931Y73746D1*
X31888Y73636D1*
X31822Y73600D1*
X31779D1*
X31713Y73636D1*
X31691Y73710D1*
X31085Y83366D2*
Y82819D1*
X31107Y82710D1*
X31151Y82637D1*
X31217Y82600D1*
X31260D1*
X31326Y82637D1*
X31370Y82710D1*
X31391Y82819D1*
Y83366D1*
X31533Y83219D2*
X31577Y83256D1*
X31642Y83365D1*
Y82600D1*
X31915Y83365D2*
X31849Y83329D1*
X31805Y83219D1*
X31784Y83037D1*
Y82928D1*
X31805Y82746D1*
X31849Y82636D1*
X31915Y82600D1*
X31958D1*
X32024Y82636D1*
X32068Y82746D1*
X32090Y82928D1*
Y83037D1*
X32068Y83219D1*
X32024Y83329D1*
X31958Y83365D1*
X31915D1*
X32068Y83219D2*
X31805Y82746D1*
X40596Y64594D2*
Y64047D1*
X40618Y63938D1*
X40662Y63865D1*
X40727Y63828D1*
X40771D1*
X40837Y63865D1*
X40881Y63938D1*
X40902Y64047D1*
Y64594D1*
X41043Y64448D2*
X41087Y64485D1*
X41153Y64593D1*
Y63828D1*
X41294Y64448D2*
X41338Y64485D1*
X41404Y64593D1*
Y63828D1*
X49560Y64689D2*
Y64142D1*
X49582Y64033D1*
X49626Y63961D1*
X49692Y63923D1*
X49735D1*
X49801Y63961D1*
X49845Y64033D1*
X49867Y64142D1*
Y64689D1*
X50008Y64543D2*
X50052Y64580D1*
X50117Y64688D1*
Y63923D1*
X50281Y64506D2*
Y64543D1*
X50303Y64616D1*
X50324Y64652D1*
X50368Y64688D1*
X50456D1*
X50499Y64652D1*
X50521Y64616D1*
X50543Y64543D1*
Y64470D1*
X50521Y64397D1*
X50477Y64288D1*
X50259Y63923D1*
X50565D1*
M02*
