G04 DipTrace 2.4.0.2*
%INMEMs.gbo*%
%MOIN*%
%ADD44C,0.0033*%
%FSLAX44Y44*%
G04*
G70*
G90*
G75*
G01*
%LNBotSilk*%
%LPD*%
X5173Y5553D2*
D44*
X5109D1*
X5087Y5568D1*
X5080Y5582D1*
X5073Y5611D1*
Y5640D1*
X5080Y5668D1*
X5087Y5683D1*
X5109Y5697D1*
X5173D1*
Y5396D1*
X5123Y5553D2*
X5073Y5396D1*
X4997Y5697D2*
X5018Y5682D1*
X5033Y5639D1*
X5040Y5568D1*
Y5525D1*
X5033Y5453D1*
X5018Y5410D1*
X4997Y5396D1*
X4982D1*
X4961Y5410D1*
X4947Y5453D1*
X4939Y5525D1*
Y5568D1*
X4947Y5639D1*
X4961Y5682D1*
X4982Y5697D1*
X4997D1*
X4947Y5639D2*
X5033Y5453D1*
X4899Y5424D2*
X4907Y5410D1*
X4899Y5396D1*
X4892Y5410D1*
X4899Y5424D1*
X4766Y5596D2*
X4773Y5553D1*
X4788Y5525D1*
X4809Y5510D1*
X4816D1*
X4838Y5525D1*
X4852Y5553D1*
X4859Y5596D1*
Y5611D1*
X4852Y5654D1*
X4838Y5682D1*
X4816Y5697D1*
X4809D1*
X4788Y5682D1*
X4773Y5654D1*
X4766Y5596D1*
Y5525D1*
X4773Y5453D1*
X4788Y5410D1*
X4809Y5396D1*
X4823D1*
X4845Y5410D1*
X4852Y5439D1*
X4733Y5697D2*
Y5396D1*
X4668D1*
X4647Y5410D1*
X4640Y5424D1*
X4633Y5453D1*
Y5496D1*
X4640Y5525D1*
X4647Y5539D1*
X4668Y5553D1*
X4647Y5568D1*
X4640Y5582D1*
X4633Y5611D1*
Y5640D1*
X4640Y5668D1*
X4647Y5683D1*
X4668Y5697D1*
X4733D1*
Y5553D2*
X4668D1*
X6701Y5391D2*
Y5692D1*
X6758Y5391D1*
X6816Y5692D1*
Y5391D1*
X6575Y5692D2*
X6668D1*
Y5391D1*
X6575D1*
X6668Y5548D2*
X6611D1*
X6427Y5391D2*
Y5692D1*
X6485Y5391D1*
X6542Y5692D1*
Y5391D1*
X6316Y5548D2*
X6323Y5577D1*
X6344Y5592D1*
X6366D1*
X6387Y5577D1*
X6395Y5548D1*
X6387Y5520D1*
X6373Y5505D1*
X6337Y5491D1*
X6323Y5477D1*
X6316Y5448D1*
Y5434D1*
X6323Y5405D1*
X6344Y5391D1*
X6366D1*
X6387Y5405D1*
X6395Y5434D1*
X6743Y6213D2*
X6837D1*
Y5911D1*
Y6069D2*
X6779D1*
X6703Y6112D2*
X6660Y5911D1*
X6675Y5854D1*
X6689Y5825D1*
X6703Y5811D1*
X6711D1*
X6617Y6112D2*
X6660Y5911D1*
X6584Y6213D2*
Y5911D1*
Y6069D2*
X6570Y6098D1*
X6556Y6112D1*
X6534D1*
X6520Y6098D1*
X6506Y6069D1*
X6498Y6026D1*
Y5998D1*
X6506Y5954D1*
X6520Y5926D1*
X6534Y5911D1*
X6556D1*
X6570Y5926D1*
X6584Y5954D1*
X6466Y6026D2*
X6380D1*
Y6055D1*
X6387Y6084D1*
X6394Y6098D1*
X6408Y6112D1*
X6430D1*
X6444Y6098D1*
X6458Y6069D1*
X6466Y6026D1*
Y5998D1*
X6458Y5954D1*
X6444Y5926D1*
X6430Y5911D1*
X6408D1*
X6394Y5926D1*
X6380Y5954D1*
X6347Y6112D2*
Y5911D1*
Y6026D2*
X6339Y6069D1*
X6325Y6098D1*
X6311Y6112D1*
X6289D1*
X6124Y6213D2*
Y5911D1*
X6038D1*
X5919Y6112D2*
Y5911D1*
Y6069D2*
X5933Y6098D1*
X5948Y6112D1*
X5969D1*
X5984Y6098D1*
X5998Y6069D1*
X6005Y6026D1*
Y5998D1*
X5998Y5954D1*
X5984Y5926D1*
X5969Y5911D1*
X5948D1*
X5933Y5926D1*
X5919Y5954D1*
X5886Y6213D2*
Y5911D1*
Y6069D2*
X5872Y6098D1*
X5858Y6112D1*
X5836D1*
X5822Y6098D1*
X5807Y6069D1*
X5800Y6026D1*
Y5998D1*
X5807Y5954D1*
X5822Y5926D1*
X5836Y5911D1*
X5858D1*
X5872Y5926D1*
X5886Y5954D1*
X5689Y6069D2*
X5696Y6098D1*
X5717Y6112D1*
X5739D1*
X5760Y6098D1*
X5768Y6069D1*
X5760Y6041D1*
X5746Y6026D1*
X5710Y6012D1*
X5696Y5998D1*
X5689Y5969D1*
Y5954D1*
X5696Y5926D1*
X5717Y5911D1*
X5739D1*
X5760Y5926D1*
X5768Y5954D1*
X5523Y6213D2*
Y5911D1*
X5491Y6112D2*
Y5911D1*
Y6055D2*
X5469Y6098D1*
X5455Y6112D1*
X5433D1*
X5419Y6098D1*
X5412Y6055D1*
Y5911D1*
X5293Y6069D2*
X5307Y6098D1*
X5322Y6112D1*
X5343D1*
X5357Y6098D1*
X5372Y6069D1*
X5379Y6026D1*
Y5998D1*
X5372Y5954D1*
X5357Y5926D1*
X5343Y5911D1*
X5322D1*
X5307Y5926D1*
X5293Y5954D1*
X5253Y5940D2*
X5260Y5926D1*
X5253Y5911D1*
X5245Y5926D1*
X5253Y5940D1*
X5073Y6141D2*
Y6155D1*
X5066Y6184D1*
X5059Y6198D1*
X5044Y6212D1*
X5016D1*
X5001Y6198D1*
X4994Y6184D1*
X4987Y6155D1*
Y6127D1*
X4994Y6098D1*
X5009Y6055D1*
X5080Y5911D1*
X4980D1*
X4904Y6212D2*
X4926Y6198D1*
X4940Y6155D1*
X4947Y6083D1*
Y6040D1*
X4940Y5969D1*
X4926Y5926D1*
X4904Y5911D1*
X4890D1*
X4868Y5926D1*
X4854Y5969D1*
X4847Y6040D1*
Y6083D1*
X4854Y6155D1*
X4868Y6198D1*
X4890Y6212D1*
X4904D1*
X4854Y6155D2*
X4940Y5969D1*
X4814Y6155D2*
X4799Y6170D1*
X4778Y6212D1*
Y5911D1*
X4673D2*
Y6212D1*
X4745Y6012D1*
X4637D1*
X5685Y5147D2*
X5778D1*
Y4845D1*
Y5003D2*
X5721D1*
X5652Y5147D2*
Y4845D1*
X5619Y4960D2*
X5533D1*
Y4989D1*
X5540Y5018D1*
X5548Y5032D1*
X5562Y5046D1*
X5584D1*
X5598Y5032D1*
X5612Y5003D1*
X5619Y4960D1*
Y4932D1*
X5612Y4888D1*
X5598Y4860D1*
X5584Y4845D1*
X5562D1*
X5548Y4860D1*
X5533Y4888D1*
X5500Y5046D2*
X5422Y4845D1*
Y5046D2*
X5500Y4845D1*
X5142D2*
Y5147D1*
X5199Y4845D1*
X5256Y5147D1*
Y4845D1*
X5073Y5046D2*
X5087Y5032D1*
X5102Y5003D1*
X5109Y4960D1*
Y4932D1*
X5102Y4888D1*
X5087Y4860D1*
X5073Y4845D1*
X5052D1*
X5037Y4860D1*
X5023Y4888D1*
X5016Y4932D1*
Y4960D1*
X5023Y5003D1*
X5037Y5032D1*
X5052Y5046D1*
X5073D1*
X4897Y5147D2*
Y4845D1*
Y5003D2*
X4911Y5032D1*
X4925Y5046D1*
X4947D1*
X4961Y5032D1*
X4976Y5003D1*
X4983Y4960D1*
Y4932D1*
X4976Y4888D1*
X4961Y4860D1*
X4947Y4845D1*
X4925D1*
X4911Y4860D1*
X4897Y4888D1*
X4864Y5046D2*
Y4903D1*
X4857Y4860D1*
X4842Y4845D1*
X4821D1*
X4806Y4860D1*
X4785Y4903D1*
Y5046D2*
Y4845D1*
X4752Y5147D2*
Y4845D1*
X4719Y4960D2*
X4633D1*
Y4989D1*
X4640Y5018D1*
X4648Y5032D1*
X4662Y5046D1*
X4684D1*
X4698Y5032D1*
X4712Y5003D1*
X4719Y4960D1*
Y4932D1*
X4712Y4888D1*
X4698Y4860D1*
X4684Y4845D1*
X4662D1*
X4648Y4860D1*
X4633Y4888D1*
M02*
