G04 DipTrace 2.4.0.2*
%INMEMs.gtl*%
%MOIN*%
%ADD13C,0.006*%
%ADD14C,0.02*%
%ADD15C,0.012*%
%ADD16R,0.0276X0.0354*%
%ADD17R,0.0354X0.0276*%
%ADD18R,0.08X0.0669*%
%ADD19R,0.0669X0.08*%
%ADD24O,0.0094X0.0236*%
%ADD25O,0.0236X0.0094*%
%ADD26C,0.028*%
%ADD28R,0.0197X0.0236*%
%ADD29R,0.0236X0.0197*%
%ADD30C,0.028*%
%FSLAX44Y44*%
G04*
G70*
G90*
G75*
G01*
%LNTop*%
%LPD*%
X7989Y5865D2*
D13*
X8865D1*
X8937Y5937D1*
X5785Y6047D2*
Y6278D1*
X5430D1*
X4839D1*
X4721Y6160D1*
X4506D1*
X4482Y6136D1*
Y4895D1*
X4715Y4663D1*
X4719D1*
Y4699D1*
X7989Y5550D2*
X8125D1*
X8321Y5354D1*
Y4418D1*
X8128Y4226D1*
X8084D1*
X7989Y5550D2*
X7478D1*
X7554Y5474D1*
X6806Y5865D2*
X7163D1*
X7554Y5474D1*
X7227Y5800D1*
X7264D1*
Y5764D1*
X7554Y5474D1*
X7005Y6219D2*
Y6278D1*
X5785D1*
X4719Y4699D2*
Y4603D1*
X5334D1*
X5396Y4541D1*
D14*
X5256D1*
X5699Y4097D1*
D13*
X5777D1*
X5937Y3937D1*
X5487Y4474D2*
X5462D1*
X5396Y4541D1*
X5430Y6421D2*
Y6278D1*
X5078Y6389D2*
X4848Y6160D1*
X4721D1*
X5785Y6278D2*
Y6421D1*
X5430D1*
X5785Y6047D2*
Y6245D1*
X5609Y6421D1*
X5430D1*
X8084Y4226D2*
Y4449D1*
X8177Y4543D1*
X7005Y6219D2*
X7020D1*
Y6008D1*
X7399Y5629D1*
X6806Y5865D2*
X7122D1*
X7513Y5474D1*
X7244D1*
X7019Y6008D2*
X7163Y5865D1*
X8330Y6559D2*
X8578D1*
X8585Y6551D1*
X8084Y4226D2*
X7853D1*
X7813Y4186D1*
X7989Y6022D2*
X8069D1*
X8135Y6088D1*
X8242D1*
X8249Y6095D1*
X7989Y5707D2*
X8170D1*
X8445Y5433D1*
Y4567D1*
X8596Y4415D1*
Y4226D1*
X6806Y5707D2*
X6695D1*
X6375Y6028D1*
X6356D1*
X7989Y5235D2*
X7931D1*
Y4913D1*
X7848Y4830D1*
X7336D1*
X7170Y4664D1*
Y4696D1*
X5975Y4910D2*
Y5039D1*
X6307Y5371D1*
Y5437D1*
X6356D1*
X6806Y5392D2*
X6688D1*
X6595Y5485D1*
Y5589D1*
X6455Y5730D1*
X6000D1*
X5972Y5702D1*
X6806Y5235D2*
Y5169D1*
X6707Y5070D1*
X6600Y5177D1*
X4721Y5648D2*
D15*
Y5211D1*
X4719D1*
X7793Y6219D2*
D13*
X7813D1*
D15*
X7818Y6225D1*
Y6559D1*
X7989Y5392D2*
D13*
Y5400D1*
X8092D1*
X8201Y5292D1*
Y4915D1*
X8072Y4786D1*
X7976D1*
X7800Y4610D1*
Y4543D1*
X7666D1*
Y4432D1*
D15*
X6902D1*
Y4827D1*
D13*
X7014Y4938D1*
Y5038D1*
X7005D1*
Y4906D1*
D15*
X6674Y4575D1*
X5838D1*
X5566Y4846D1*
X5215D1*
X6937Y3937D2*
D13*
Y4244D1*
X6902D1*
Y4432D1*
X5215Y5437D2*
D15*
X5128D1*
X4917Y5648D1*
X4721D1*
X4719Y5211D2*
X4975D1*
X5251Y4936D1*
Y4846D1*
X5215D1*
Y5437D2*
Y4846D1*
X7818Y6559D2*
D13*
Y6479D1*
X7975Y6322D1*
D30*
X5487Y4474D3*
X5430Y6421D3*
X5078Y6389D3*
X5116Y4375D3*
X7170Y4696D3*
X5975Y4910D3*
X8249Y6095D3*
X7975Y6322D3*
X5972Y5702D3*
X6600Y5177D3*
X8585Y6551D3*
X7813Y4186D3*
X4881Y6788D2*
D13*
X7543D1*
X8606D2*
X8841D1*
X4792Y6730D2*
X7543D1*
X8606D2*
X8841D1*
X4703Y6671D2*
X7543D1*
X8606D2*
X8841D1*
X4614Y6612D2*
X7543D1*
X8606D2*
X8841D1*
X4525Y6554D2*
X7543D1*
X8606D2*
X8841D1*
X4437Y6495D2*
X7543D1*
X8606D2*
X8841D1*
X4348Y6436D2*
X7543D1*
X8606D2*
X8841D1*
X4258Y6378D2*
X4485D1*
X4957D2*
X6890D1*
X8606D2*
X8841D1*
X4436Y6319D2*
X4485D1*
X4957D2*
X6863D1*
X4436Y6260D2*
X4485D1*
X4957D2*
X6859D1*
X4436Y6201D2*
X4485D1*
X4957D2*
X5018D1*
X5412D2*
X5569D1*
X6002D2*
X6160D1*
X6553D2*
X6859D1*
X4436Y6143D2*
X4485D1*
X4957D2*
X5018D1*
X5412D2*
X5569D1*
X6002D2*
X6160D1*
X6553D2*
X6659D1*
X4436Y6084D2*
X4485D1*
X4957D2*
X5018D1*
X5412D2*
X5569D1*
X6002D2*
X6160D1*
X6553D2*
X6604D1*
X4436Y6025D2*
X4485D1*
X4957D2*
X5018D1*
X5412D2*
X5569D1*
X6002D2*
X6160D1*
X6556D2*
X6589D1*
X4436Y5967D2*
X4485D1*
X4957D2*
X5018D1*
X5412D2*
X5569D1*
X6002D2*
X6160D1*
X4436Y5908D2*
X4485D1*
X4957D2*
X5018D1*
X5412D2*
X5569D1*
X6086D2*
X6160D1*
X4436Y5849D2*
X4485D1*
X4957D2*
X5018D1*
X5412D2*
X5786D1*
X4436Y5791D2*
X4485D1*
X4977D2*
X5751D1*
X4436Y5732D2*
X4485D1*
X5054D2*
X5736D1*
X4436Y5673D2*
X4485D1*
X5113D2*
X5735D1*
X4436Y5615D2*
X4485D1*
X5412D2*
X5751D1*
X4436Y5556D2*
X4485D1*
X5412D2*
X5786D1*
X4033Y5497D2*
X4485D1*
X5412D2*
X5857D1*
X6088D2*
X6160D1*
X4033Y5439D2*
X4484D1*
X5412D2*
X6160D1*
X4033Y5380D2*
X4484D1*
X5412D2*
X6136D1*
X4436Y5321D2*
X4484D1*
X5412D2*
X6078D1*
X4436Y5262D2*
X4484D1*
X5412D2*
X6019D1*
X4436Y5204D2*
X4484D1*
X5373D2*
X5961D1*
X4436Y5145D2*
X4484D1*
X5373D2*
X5902D1*
X4436Y5086D2*
X4484D1*
X5373D2*
X5818D1*
X4436Y5028D2*
X4484D1*
X5412D2*
X5769D1*
X4436Y4969D2*
X4484D1*
X4956D2*
X4996D1*
X5663D2*
X5744D1*
X4436Y4910D2*
X4484D1*
X4956D2*
X5018D1*
X4436Y4852D2*
X4484D1*
X4956D2*
X5018D1*
X4436Y4793D2*
X4484D1*
X4956D2*
X5018D1*
X4436Y4734D2*
X4484D1*
X4956D2*
X5018D1*
X4436Y4676D2*
X4484D1*
X4956D2*
X5018D1*
X5412D2*
X5516D1*
X4436Y4617D2*
X4484D1*
X4956D2*
X5551D1*
X4436Y4558D2*
X4484D1*
X4956D2*
X5557D1*
X4265Y4500D2*
X4484D1*
X4956D2*
X5571D1*
X4352Y4441D2*
X4484D1*
X4956D2*
X5628D1*
X4440Y4382D2*
X5504D1*
X4528Y4323D2*
X5504D1*
X4616Y4265D2*
X5504D1*
X4703Y4206D2*
X5504D1*
X4790Y4147D2*
X5504D1*
X4878Y4089D2*
X5504D1*
X4965Y4030D2*
X5504D1*
X4951Y5918D2*
Y5797D1*
X4975Y5789D1*
X5001Y5775D1*
X5024Y5756D1*
X5132Y5648D1*
X5405D1*
Y5226D1*
X5367D1*
Y5057D1*
X5405D1*
Y4998D1*
X5545Y4999D1*
X5596Y4996D1*
X5625Y4987D1*
X5651Y4973D1*
X5674Y4954D1*
X5692Y4936D1*
X5742Y4923D1*
X5748Y4959D1*
X5756Y4988D1*
X5768Y5016D1*
X5783Y5041D1*
X5802Y5065D1*
X5823Y5086D1*
X5847Y5104D1*
X5888Y5125D1*
X6166Y5403D1*
X6165Y5574D1*
X6138Y5540D1*
X6116Y5520D1*
X6091Y5503D1*
X6065Y5489D1*
X6036Y5479D1*
X6007Y5472D1*
X5977Y5470D1*
X5947Y5471D1*
X5918Y5476D1*
X5889Y5485D1*
X5862Y5498D1*
X5836Y5514D1*
X5813Y5533D1*
X5793Y5555D1*
X5775Y5579D1*
X5761Y5605D1*
X5750Y5633D1*
X5743Y5662D1*
X5740Y5692D1*
X5741Y5722D1*
X5745Y5752D1*
X5753Y5781D1*
X5765Y5808D1*
X5781Y5834D1*
X5798Y5856D1*
X5575D1*
Y6238D1*
X5996D1*
Y5933D1*
X6046Y5923D1*
X6073Y5911D1*
X6099Y5897D1*
X6123Y5879D1*
X6149Y5853D1*
X6165Y5877D1*
Y6238D1*
X6547D1*
Y6029D1*
X6607Y5969D1*
X6597Y6004D1*
X6596Y6034D1*
X6602Y6063D1*
X6614Y6091D1*
X6631Y6115D1*
X6653Y6135D1*
X6679Y6150D1*
X6708Y6159D1*
X6735Y6162D1*
X6866D1*
Y6301D1*
X6872Y6331D1*
X6883Y6358D1*
X6901Y6383D1*
X6923Y6403D1*
X6949Y6418D1*
X6977Y6427D1*
X7007Y6430D1*
X7037Y6426D1*
X7065Y6416D1*
X7084Y6405D1*
X7106Y6418D1*
X7135Y6427D1*
X7165Y6430D1*
X7194Y6426D1*
X7223Y6416D1*
X7241Y6405D1*
X7264Y6418D1*
X7292Y6427D1*
X7322Y6430D1*
X7352Y6426D1*
X7380Y6416D1*
X7398Y6405D1*
X7421Y6418D1*
X7450Y6427D1*
X7480Y6430D1*
X7509Y6426D1*
X7538Y6416D1*
X7548Y6410D1*
X7549Y6629D1*
Y6789D1*
X8088Y6788D1*
X8108Y6789D1*
X8600D1*
Y6364D1*
X8847D1*
Y6847D1*
X4964D1*
X4232Y6364D1*
X4429D1*
Y5510D1*
X4027D1*
Y5364D1*
X4429D1*
Y4510D1*
X4243D1*
X4965Y4027D1*
X5509D1*
X5510Y4429D1*
X5646D1*
X5594Y4477D1*
X5576Y4501D1*
X5565Y4537D1*
X5555Y4642D1*
X5503Y4694D1*
X5406D1*
X5405Y4636D1*
X5024D1*
Y4948D1*
X4950Y5021D1*
X4949Y4942D1*
X4950Y4921D1*
Y4430D1*
X4489D1*
X4490Y5481D1*
X4491Y5918D1*
Y6429D1*
X4951D1*
Y5890D1*
X5054Y6238D2*
X5405D1*
Y5817D1*
X5024D1*
Y6238D1*
X5054D1*
X4491Y6429D2*
X4951Y5890D1*
Y6429D2*
X4491Y5890D1*
X4489Y4969D2*
X4950Y4430D1*
Y4969D2*
X4489Y4430D1*
X8060Y6789D2*
X8330Y6559D1*
X8599Y6789D2*
X8330Y6559D1*
X6886Y6363D2*
X7005Y6219D1*
X5575Y6238D2*
X5785Y6047D1*
X5996Y6238D2*
X5575Y5856D1*
X6968Y4991D2*
X7017D1*
X6863Y4932D2*
X7022D1*
X6758Y4873D2*
X7014D1*
X6653Y4815D2*
X6965D1*
X5674Y4756D2*
X5795D1*
X6553D2*
X6939D1*
X5679Y4697D2*
X5875D1*
X6074D2*
X6159D1*
X6553D2*
X6932D1*
X5685Y4639D2*
X6159D1*
X6553D2*
X6939D1*
X5700Y4580D2*
X6963D1*
X5733Y4521D2*
X7012D1*
X5796Y4462D2*
X7299D1*
X6370Y4404D2*
X7393D1*
X6434Y4345D2*
X7275D1*
X6566Y4286D2*
X7275D1*
X6698Y4228D2*
X7276D1*
X6831Y4169D2*
X7276D1*
X6963Y4110D2*
X7276D1*
X7095Y4052D2*
X7277D1*
X7228Y3993D2*
X7277D1*
X5826Y4429D2*
X6364D1*
Y4374D1*
X7283Y3966D1*
X7281Y4357D1*
X7296Y4382D1*
X7306Y4386D1*
X7434Y4410D1*
X7258Y4482D1*
X7234Y4473D1*
X7205Y4467D1*
X7175Y4464D1*
X7145Y4465D1*
X7116Y4470D1*
X7087Y4479D1*
X7060Y4492D1*
X7034Y4508D1*
X7011Y4527D1*
X6991Y4549D1*
X6973Y4573D1*
X6959Y4599D1*
X6948Y4627D1*
X6941Y4656D1*
X6938Y4686D1*
X6939Y4716D1*
X6943Y4746D1*
X6951Y4775D1*
X6963Y4802D1*
X6979Y4828D1*
X6997Y4851D1*
X7031Y4882D1*
Y4921D1*
X7024Y4949D1*
X7023Y4967D1*
Y5024D1*
X6547Y4757D1*
Y4636D1*
X6165D1*
Y4717D1*
X6109Y4721D1*
X6067Y4697D1*
X6039Y4686D1*
X6010Y4680D1*
X5980Y4677D1*
X5950Y4679D1*
X5920Y4684D1*
X5892Y4693D1*
X5864Y4705D1*
X5839Y4721D1*
X5816Y4740D1*
X5795Y4762D1*
X5778Y4786D1*
X5662Y4818D1*
X5682Y4599D1*
X5694Y4580D1*
X5711Y4536D1*
X5827Y4429D1*
D16*
X4721Y5648D3*
Y6160D3*
X4719Y5211D3*
Y4699D3*
D17*
X7818Y6559D3*
X8330D3*
X7666Y4543D3*
X8177D3*
X8596Y4226D3*
X8084D3*
D18*
X8937Y4937D3*
Y5937D3*
X3937Y4937D3*
Y5937D3*
D19*
X6937Y3937D3*
X5937D3*
D24*
X7005Y5038D3*
X7163D3*
X7320D3*
X7478D3*
X7635D3*
X7793Y5040D3*
D25*
X7989Y5235D3*
Y5392D3*
Y5550D3*
Y5707D3*
Y5865D3*
Y6022D3*
D24*
X7793Y6219D3*
X7635D3*
X7478D3*
X7320D3*
X7163D3*
X7005D3*
D25*
X6806Y6022D3*
Y5865D3*
Y5707D3*
Y5550D3*
Y5392D3*
Y5235D3*
G36*
X7096Y5412D2*
X7214Y5294D1*
X7643D1*
X7659Y5298D1*
X7671Y5302D1*
X7682Y5312D1*
X7690Y5322D1*
X7698Y5337D1*
X7702Y5353D1*
Y5904D1*
X7698Y5920D1*
X7690Y5936D1*
X7682Y5946D1*
X7671Y5955D1*
X7659Y5959D1*
X7643Y5963D1*
X7155D1*
X7139Y5959D1*
X7127Y5955D1*
X7115Y5946D1*
X7108Y5936D1*
X7100Y5920D1*
X7096Y5904D1*
Y5412D1*
G37*
D26*
X7244Y5784D3*
X7554D3*
X7244Y5474D3*
X7554D3*
D28*
X5215Y6028D3*
Y5437D3*
Y4846D3*
X6356D3*
Y5437D3*
Y6028D3*
D29*
X5785Y6047D3*
M02*
