G04 DipTrace 2.4.0.2*
%INMEMs.gts*%
%MOIN*%
%ADD23C,0.0065*%
%ADD24C,0.0085*%
%ADD36R,0.0252X0.0213*%
%ADD37R,0.0213X0.0252*%
%ADD39O,0.0252X0.011*%
%ADD40O,0.011X0.0252*%
%ADD41R,0.0685X0.0816*%
%ADD42R,0.0816X0.0685*%
%ADD43R,0.037X0.0291*%
%ADD44R,0.0291X0.037*%
%FSLAX44Y44*%
G04*
G70*
G90*
G75*
G01*
%LNTopMask*%
%LPD*%
D44*
X4721Y5648D3*
Y6160D3*
X4719Y5211D3*
Y4699D3*
D43*
X7818Y6559D3*
X8330D3*
X7666Y4543D3*
X8177D3*
X8596Y4226D3*
X8084D3*
D42*
X8937Y4937D3*
Y5937D3*
X3937Y4937D3*
Y5937D3*
D41*
X6937Y3937D3*
X5937D3*
X7444Y5783D2*
D23*
Y5791D1*
X7445Y5798D1*
X7446Y5805D1*
X7448Y5812D1*
X7450Y5819D1*
X7453Y5826D1*
X7457Y5833D1*
X7460Y5839D1*
X7465Y5845D1*
X7469Y5851D1*
X7475Y5856D1*
X7480Y5861D1*
X7486Y5866D1*
X7492Y5870D1*
X7499Y5874D1*
X7506Y5878D1*
X7513Y5881D1*
X7520Y5883D1*
X7527Y5885D1*
X7535Y5887D1*
X7542Y5888D1*
X7550D1*
X7558D1*
X7565D1*
X7573Y5887D1*
X7580Y5885D1*
X7588Y5883D1*
X7595Y5881D1*
X7602Y5878D1*
X7609Y5874D1*
X7615Y5870D1*
X7621Y5866D1*
X7627Y5861D1*
X7633Y5856D1*
X7638Y5851D1*
X7643Y5845D1*
X7647Y5839D1*
X7651Y5833D1*
X7654Y5826D1*
X7657Y5819D1*
X7659Y5812D1*
X7661Y5805D1*
X7663Y5798D1*
Y5791D1*
X7664Y5783D1*
X7663Y5776D1*
Y5769D1*
X7661Y5762D1*
X7659Y5754D1*
X7657Y5748D1*
X7654Y5741D1*
X7651Y5734D1*
X7647Y5728D1*
X7643Y5722D1*
X7638Y5716D1*
X7633Y5710D1*
X7627Y5705D1*
X7621Y5701D1*
X7615Y5696D1*
X7609Y5693D1*
X7602Y5689D1*
X7595Y5686D1*
X7588Y5684D1*
X7580Y5682D1*
X7573Y5680D1*
X7565Y5679D1*
X7558D1*
X7550D1*
X7542D1*
X7535Y5680D1*
X7527Y5682D1*
X7520Y5684D1*
X7513Y5686D1*
X7506Y5689D1*
X7499Y5693D1*
X7492Y5696D1*
X7486Y5701D1*
X7480Y5705D1*
X7475Y5710D1*
X7469Y5716D1*
X7465Y5722D1*
X7460Y5728D1*
X7457Y5734D1*
X7453Y5741D1*
X7450Y5748D1*
X7448Y5754D1*
X7446Y5762D1*
X7445Y5769D1*
X7444Y5776D1*
Y5783D1*
X7133D2*
Y5791D1*
X7134Y5798D1*
X7135Y5805D1*
X7137Y5812D1*
X7139Y5819D1*
X7142Y5826D1*
X7146Y5833D1*
X7149Y5839D1*
X7154Y5845D1*
X7158Y5851D1*
X7164Y5856D1*
X7169Y5861D1*
X7175Y5866D1*
X7181Y5870D1*
X7188Y5874D1*
X7195Y5878D1*
X7202Y5881D1*
X7209Y5883D1*
X7216Y5885D1*
X7224Y5887D1*
X7231Y5888D1*
X7239D1*
X7247D1*
X7254D1*
X7262Y5887D1*
X7269Y5885D1*
X7277Y5883D1*
X7284Y5881D1*
X7291Y5878D1*
X7298Y5874D1*
X7304Y5870D1*
X7310Y5866D1*
X7316Y5861D1*
X7322Y5856D1*
X7327Y5851D1*
X7332Y5845D1*
X7336Y5839D1*
X7340Y5833D1*
X7343Y5826D1*
X7346Y5819D1*
X7348Y5812D1*
X7350Y5805D1*
X7352Y5798D1*
Y5791D1*
X7353Y5783D1*
X7352Y5776D1*
Y5769D1*
X7350Y5762D1*
X7348Y5754D1*
X7346Y5748D1*
X7343Y5741D1*
X7340Y5734D1*
X7336Y5728D1*
X7332Y5722D1*
X7327Y5716D1*
X7322Y5710D1*
X7316Y5705D1*
X7310Y5701D1*
X7304Y5696D1*
X7298Y5693D1*
X7291Y5689D1*
X7284Y5686D1*
X7277Y5684D1*
X7269Y5682D1*
X7262Y5680D1*
X7254Y5679D1*
X7247D1*
X7239D1*
X7231D1*
X7224Y5680D1*
X7216Y5682D1*
X7209Y5684D1*
X7202Y5686D1*
X7195Y5689D1*
X7188Y5693D1*
X7181Y5696D1*
X7175Y5701D1*
X7169Y5705D1*
X7164Y5710D1*
X7158Y5716D1*
X7154Y5722D1*
X7149Y5728D1*
X7146Y5734D1*
X7142Y5741D1*
X7139Y5748D1*
X7137Y5754D1*
X7135Y5762D1*
X7134Y5769D1*
X7133Y5776D1*
Y5783D1*
X7444Y5472D2*
Y5480D1*
X7445Y5487D1*
X7446Y5494D1*
X7448Y5501D1*
X7450Y5508D1*
X7453Y5515D1*
X7457Y5522D1*
X7460Y5528D1*
X7465Y5534D1*
X7469Y5540D1*
X7475Y5545D1*
X7480Y5550D1*
X7486Y5555D1*
X7492Y5559D1*
X7499Y5563D1*
X7506Y5567D1*
X7513Y5570D1*
X7520Y5572D1*
X7527Y5574D1*
X7535Y5576D1*
X7542Y5577D1*
X7550D1*
X7558D1*
X7565D1*
X7573Y5576D1*
X7580Y5574D1*
X7588Y5572D1*
X7595Y5570D1*
X7602Y5567D1*
X7609Y5563D1*
X7615Y5559D1*
X7621Y5555D1*
X7627Y5550D1*
X7633Y5545D1*
X7638Y5540D1*
X7643Y5534D1*
X7647Y5528D1*
X7651Y5522D1*
X7654Y5515D1*
X7657Y5508D1*
X7659Y5501D1*
X7661Y5494D1*
X7663Y5487D1*
Y5480D1*
X7664Y5472D1*
X7663Y5465D1*
Y5458D1*
X7661Y5451D1*
X7659Y5443D1*
X7657Y5436D1*
X7654Y5430D1*
X7651Y5423D1*
X7647Y5417D1*
X7643Y5411D1*
X7638Y5405D1*
X7633Y5399D1*
X7627Y5394D1*
X7621Y5390D1*
X7615Y5385D1*
X7609Y5381D1*
X7602Y5378D1*
X7595Y5375D1*
X7588Y5373D1*
X7580Y5370D1*
X7573Y5369D1*
X7565Y5368D1*
X7558Y5367D1*
X7550D1*
X7542Y5368D1*
X7535Y5369D1*
X7527Y5370D1*
X7520Y5373D1*
X7513Y5375D1*
X7506Y5378D1*
X7499Y5381D1*
X7492Y5385D1*
X7486Y5390D1*
X7480Y5394D1*
X7475Y5399D1*
X7469Y5405D1*
X7465Y5411D1*
X7460Y5417D1*
X7457Y5423D1*
X7453Y5430D1*
X7450Y5436D1*
X7448Y5443D1*
X7446Y5451D1*
X7445Y5458D1*
X7444Y5465D1*
Y5472D1*
X7134Y5474D2*
Y5481D1*
X7135Y5488D1*
X7136Y5495D1*
X7138Y5503D1*
X7141Y5510D1*
X7144Y5516D1*
X7147Y5523D1*
X7151Y5529D1*
X7155Y5535D1*
X7160Y5541D1*
X7165Y5547D1*
X7170Y5552D1*
X7176Y5556D1*
X7183Y5561D1*
X7189Y5565D1*
X7196Y5568D1*
X7203Y5571D1*
X7210Y5573D1*
X7217Y5575D1*
X7225Y5577D1*
X7233Y5578D1*
X7240Y5579D1*
X7248D1*
X7256Y5578D1*
X7263Y5577D1*
X7271Y5575D1*
X7278Y5573D1*
X7285Y5571D1*
X7292Y5568D1*
X7299Y5565D1*
X7306Y5561D1*
X7312Y5556D1*
X7318Y5552D1*
X7323Y5547D1*
X7328Y5541D1*
X7333Y5535D1*
X7337Y5529D1*
X7341Y5523D1*
X7345Y5516D1*
X7347Y5510D1*
X7350Y5503D1*
X7352Y5495D1*
X7353Y5488D1*
X7354Y5481D1*
Y5474D1*
Y5466D1*
X7353Y5459D1*
X7352Y5452D1*
X7350Y5445D1*
X7347Y5438D1*
X7345Y5431D1*
X7341Y5424D1*
X7337Y5418D1*
X7333Y5412D1*
X7328Y5406D1*
X7323Y5401D1*
X7318Y5396D1*
X7312Y5391D1*
X7306Y5387D1*
X7299Y5383D1*
X7292Y5379D1*
X7285Y5376D1*
X7278Y5374D1*
X7271Y5372D1*
X7263Y5370D1*
X7256Y5369D1*
X7248D1*
X7240D1*
X7233D1*
X7225Y5370D1*
X7217Y5372D1*
X7210Y5374D1*
X7203Y5376D1*
X7196Y5379D1*
X7189Y5383D1*
X7183Y5387D1*
X7176Y5391D1*
X7170Y5396D1*
X7165Y5401D1*
X7160Y5406D1*
X7155Y5412D1*
X7151Y5418D1*
X7147Y5424D1*
X7144Y5431D1*
X7141Y5438D1*
X7138Y5445D1*
X7136Y5452D1*
X7135Y5459D1*
X7134Y5466D1*
Y5474D1*
G36*
X7139Y5555D2*
X7668D1*
Y5693D1*
X7139D1*
Y5555D1*
G37*
G36*
X7331Y5352D2*
X7478D1*
Y5900D1*
X7331D1*
Y5352D1*
G37*
X7121Y5331D2*
D24*
X7673D1*
Y5934D1*
X7121D1*
Y5331D1*
D40*
X7005Y5038D3*
X7163D3*
X7320D3*
X7478D3*
X7635D3*
X7793Y5040D3*
D39*
X7989Y5235D3*
Y5392D3*
Y5550D3*
Y5707D3*
Y5865D3*
Y6022D3*
D40*
X7793Y6219D3*
X7635D3*
X7478D3*
X7320D3*
X7163D3*
X7005D3*
D39*
X6806Y6022D3*
Y5865D3*
Y5707D3*
Y5550D3*
Y5392D3*
Y5235D3*
D37*
X5215Y6028D3*
Y5437D3*
Y4846D3*
X6356D3*
Y5437D3*
Y6028D3*
D36*
X5785Y6047D3*
D41*
X6937Y6937D3*
X5937D3*
M02*
