M48
INCH
T01C0.013
T02C0.0433
%
T01
X+005281Y+004440
X+004774Y+004378
X+005609Y+005132
X+005615Y+005632
X+005088Y+006424
X+004230Y+006015
X+006391Y+005032
X+006902Y+005476
X+006902Y+005786
X+007212Y+005786
X+007212Y+005476
X+007389Y+004730
X+007907Y+006098
X+008250Y+006091
T02
X+007595Y+006940
X+006596Y+006940
X+005596Y+006940
X+008595Y+006940
X+006595Y+003940
X+005595Y+003940
T00
M30
