G04 DipTrace 2.4.0.2*
%INMEMs.gbl*%
%MOIN*%
%ADD13C,0.006*%
%ADD15C,0.012*%
%ADD18R,0.08X0.0669*%
%ADD19R,0.0669X0.08*%
%ADD26C,0.028*%
%ADD30C,0.028*%
%FSLAX44Y44*%
G04*
G70*
G90*
G75*
G01*
%LNBottom*%
%LPD*%
X5937Y3937D2*
D13*
Y4236D1*
X6304Y4603D1*
X5937Y3937D2*
Y4052D1*
X6488Y4603D1*
X5487Y4474D2*
X5215D1*
X5116Y4375D1*
X7244Y5784D2*
Y5474D1*
X7554D1*
Y5784D1*
X7244D2*
X7554D1*
Y5474D2*
X7244Y5784D1*
X8585Y6551D2*
X8577D1*
X8391Y6737D1*
X5745D1*
X5430Y6421D1*
X8249Y6095D2*
Y5590D1*
X8902Y4937D1*
X8937D1*
X5975Y4910D2*
X6289D1*
X6408Y4791D1*
X7076D1*
X7170Y4696D1*
X5972Y5702D2*
Y5658D1*
X5921D1*
X5721Y5858D1*
X4016D1*
X3937Y5937D1*
X6600Y5177D2*
Y5207D1*
X6490Y5317D1*
X4565D1*
X4185Y4937D1*
X3937D1*
X7975Y6322D2*
D15*
X7953D1*
Y4777D1*
X7113Y3937D1*
X6937D1*
D30*
X5487Y4474D3*
X5430Y6421D3*
X5078Y6389D3*
X5116Y4375D3*
X7170Y4696D3*
X5975Y4910D3*
X8249Y6095D3*
X7975Y6322D3*
X5972Y5702D3*
X6600Y5177D3*
X8585Y6551D3*
X7813Y4186D3*
X4863Y6848D2*
D13*
X8901D1*
X4774Y6790D2*
X8901D1*
X4685Y6731D2*
X8901D1*
X4596Y6672D2*
X8901D1*
X4507Y6614D2*
X8901D1*
X4418Y6555D2*
X8901D1*
X4330Y6496D2*
X7816D1*
X8135D2*
X8901D1*
X4241Y6438D2*
X7768D1*
X8183D2*
X8901D1*
X4152Y6379D2*
X7744D1*
X8206D2*
X8901D1*
X4436Y6320D2*
X7737D1*
X8312D2*
X8439D1*
X4436Y6261D2*
X7745D1*
X4436Y6203D2*
X7771D1*
X4436Y6144D2*
X7794D1*
X4436Y6085D2*
X7794D1*
X4436Y6027D2*
X7794D1*
X5780Y5968D2*
X7794D1*
X6083Y5909D2*
X7794D1*
X6157Y5851D2*
X7794D1*
X6193Y5792D2*
X7794D1*
X4436Y5733D2*
X5667D1*
X6208D2*
X7794D1*
X4436Y5675D2*
X5725D1*
X6208D2*
X7794D1*
X4436Y5616D2*
X5750D1*
X6193D2*
X7794D1*
X4436Y5557D2*
X5785D1*
X6160D2*
X7794D1*
X3973Y5499D2*
X5854D1*
X6089D2*
X7794D1*
X8111D2*
X8161D1*
X3973Y5440D2*
X7794D1*
X8111D2*
X8220D1*
X3973Y5381D2*
X4451D1*
X6716D2*
X7794D1*
X8111D2*
X8279D1*
X6787Y5322D2*
X7794D1*
X8111D2*
X8337D1*
X6821Y5264D2*
X7794D1*
X8111D2*
X8396D1*
X6837Y5205D2*
X7794D1*
X8111D2*
X8439D1*
X4573Y5146D2*
X6363D1*
X6836D2*
X7794D1*
X8111D2*
X8439D1*
X4514Y5088D2*
X5820D1*
X6130D2*
X6379D1*
X6820D2*
X7794D1*
X8111D2*
X8439D1*
X4456Y5029D2*
X5769D1*
X6322D2*
X6415D1*
X6785D2*
X7794D1*
X8111D2*
X8439D1*
X4436Y4970D2*
X5745D1*
X6407D2*
X6487D1*
X6712D2*
X7794D1*
X8111D2*
X8439D1*
X4436Y4912D2*
X5736D1*
X7263D2*
X7794D1*
X8111D2*
X8439D1*
X4436Y4853D2*
X5744D1*
X7348D2*
X7794D1*
X8111D2*
X8439D1*
X4436Y4794D2*
X5767D1*
X7387D2*
X7749D1*
X8111D2*
X8439D1*
X4436Y4736D2*
X5815D1*
X6134D2*
X6284D1*
X7405D2*
X7690D1*
X8105D2*
X8439D1*
X4436Y4677D2*
X6358D1*
X7408D2*
X7631D1*
X8073D2*
X8439D1*
X4436Y4618D2*
X6946D1*
X7395D2*
X7573D1*
X8015D2*
X8439D1*
X4436Y4560D2*
X6976D1*
X7363D2*
X7514D1*
X7957D2*
X8439D1*
X4155Y4501D2*
X7038D1*
X7302D2*
X7456D1*
X7898D2*
X8901D1*
X4243Y4442D2*
X7396D1*
X7839D2*
X8901D1*
X4331Y4383D2*
X6504D1*
X7781D2*
X8901D1*
X4418Y4325D2*
X6504D1*
X7722D2*
X8901D1*
X4506Y4266D2*
X6504D1*
X7663D2*
X8901D1*
X4593Y4207D2*
X6504D1*
X7604D2*
X8901D1*
X4680Y4149D2*
X6504D1*
X7545D2*
X8901D1*
X4768Y4090D2*
X6504D1*
X7487D2*
X8901D1*
X4856Y4031D2*
X6504D1*
X7428D2*
X8901D1*
X4944Y3973D2*
X6504D1*
X7370D2*
X8901D1*
X8907Y4510D2*
X8445D1*
Y5222D1*
X8162Y5503D1*
X8144Y5527D1*
X8132Y5554D1*
X8127Y5590D1*
Y5898D1*
X8105Y5913D1*
Y4972D1*
Y4777D1*
X8102Y4747D1*
X8093Y4718D1*
X8079Y4692D1*
X8060Y4669D1*
X7364Y3972D1*
X7367Y3967D1*
X8907D1*
Y4510D1*
X8475Y6364D2*
X8907D1*
Y6907D1*
X4946D1*
X4123Y6364D1*
X4429D1*
Y5981D1*
X4736Y5980D1*
X5721D1*
X5751Y5976D1*
X5779Y5966D1*
X5808Y5944D1*
X5851Y5901D1*
X5898Y5923D1*
X5927Y5930D1*
X5957Y5934D1*
X5987D1*
X6017Y5930D1*
X6046Y5923D1*
X6073Y5911D1*
X6099Y5897D1*
X6123Y5879D1*
X6145Y5858D1*
X6163Y5834D1*
X6179Y5808D1*
X6191Y5781D1*
X6199Y5752D1*
X6204Y5702D1*
X6203Y5672D1*
X6197Y5643D1*
X6187Y5614D1*
X6174Y5588D1*
X6158Y5562D1*
X6138Y5540D1*
X6116Y5520D1*
X6091Y5503D1*
X6065Y5489D1*
X6036Y5479D1*
X6007Y5472D1*
X5977Y5470D1*
X5947Y5471D1*
X5918Y5476D1*
X5889Y5485D1*
X5862Y5498D1*
X5836Y5514D1*
X5813Y5533D1*
X5793Y5555D1*
X5775Y5579D1*
X5761Y5605D1*
X5750Y5633D1*
X5743Y5663D1*
X5670Y5735D1*
X4429Y5734D1*
Y5510D1*
X3967D1*
Y5365D1*
X4165Y5364D1*
X4429D1*
Y5354D1*
X4479Y5404D1*
X4502Y5422D1*
X4530Y5434D1*
X4565Y5439D1*
X6490D1*
X6519Y5436D1*
X6547Y5425D1*
X6572Y5407D1*
X6614Y5409D1*
X6644Y5405D1*
X6673Y5397D1*
X6701Y5386D1*
X6727Y5371D1*
X6751Y5353D1*
X6772Y5332D1*
X6791Y5309D1*
X6806Y5283D1*
X6818Y5255D1*
X6827Y5227D1*
X6832Y5177D1*
X6830Y5147D1*
X6824Y5117D1*
X6815Y5089D1*
X6802Y5062D1*
X6785Y5037D1*
X6766Y5014D1*
X6743Y4994D1*
X6719Y4977D1*
X6692Y4964D1*
X6664Y4953D1*
X6635Y4947D1*
X6605Y4944D1*
X6575Y4946D1*
X6545Y4951D1*
X6517Y4960D1*
X6489Y4972D1*
X6464Y4988D1*
X6441Y5007D1*
X6420Y5029D1*
X6403Y5053D1*
X6388Y5080D1*
X6378Y5108D1*
X6371Y5137D1*
X6367Y5167D1*
X6368Y5196D1*
X6220Y5195D1*
X4616D1*
X4430Y5008D1*
X4429Y4510D1*
X4136D1*
X4947Y3967D1*
X6377D1*
X6509D1*
X6510Y4224D1*
Y4429D1*
X7364D1*
X7365Y4405D1*
X7801Y4841D1*
X7800Y5167D1*
Y6169D1*
X7779Y6199D1*
X7764Y6225D1*
X7754Y6253D1*
X7747Y6282D1*
X7743Y6312D1*
X7744Y6342D1*
X7748Y6372D1*
X7757Y6400D1*
X7769Y6428D1*
X7784Y6454D1*
X7802Y6477D1*
X7824Y6498D1*
X7848Y6516D1*
X7874Y6531D1*
X7902Y6543D1*
X7931Y6550D1*
X7960Y6554D1*
X7990D1*
X8020Y6550D1*
X8049Y6543D1*
X8077Y6531D1*
X8103Y6517D1*
X8127Y6499D1*
X8148Y6478D1*
X8167Y6454D1*
X8182Y6428D1*
X8194Y6401D1*
X8202Y6372D1*
X8208Y6324D1*
X8264Y6327D1*
X8294Y6323D1*
X8323Y6315D1*
X8350Y6304D1*
X8376Y6289D1*
X8400Y6271D1*
X8422Y6250D1*
X8445Y6220D1*
Y6364D1*
X8475D1*
X7401Y4666D2*
X7395Y4637D1*
X7385Y4609D1*
X7372Y4582D1*
X7356Y4556D1*
X7336Y4534D1*
X7314Y4514D1*
X7289Y4497D1*
X7263Y4483D1*
X7234Y4473D1*
X7205Y4467D1*
X7175Y4464D1*
X7145Y4465D1*
X7116Y4470D1*
X7087Y4479D1*
X7060Y4492D1*
X7034Y4508D1*
X7011Y4527D1*
X6991Y4549D1*
X6973Y4573D1*
X6959Y4599D1*
X6948Y4627D1*
X6940Y4668D1*
X6408Y4669D1*
X6378Y4672D1*
X6350Y4683D1*
X6321Y4704D1*
X6238Y4787D1*
X6172D1*
X6160Y4770D1*
X6141Y4747D1*
X6118Y4727D1*
X6094Y4710D1*
X6067Y4697D1*
X6039Y4686D1*
X6010Y4680D1*
X5980Y4677D1*
X5950Y4679D1*
X5920Y4684D1*
X5892Y4693D1*
X5864Y4705D1*
X5839Y4721D1*
X5816Y4740D1*
X5795Y4762D1*
X5778Y4786D1*
X5764Y4813D1*
X5753Y4841D1*
X5746Y4870D1*
X5743Y4900D1*
Y4930D1*
X5748Y4959D1*
X5756Y4988D1*
X5768Y5016D1*
X5783Y5041D1*
X5802Y5065D1*
X5823Y5086D1*
X5847Y5104D1*
X5873Y5119D1*
X5901Y5130D1*
X5930Y5138D1*
X5960Y5142D1*
X5990D1*
X6019Y5138D1*
X6048Y5130D1*
X6076Y5119D1*
X6102Y5104D1*
X6126Y5086D1*
X6147Y5065D1*
X6171Y5033D1*
X6289Y5032D1*
X6319Y5029D1*
X6346Y5018D1*
X6375Y4996D1*
X6458Y4913D1*
X7077D1*
X7125Y4924D1*
X7155Y4928D1*
X7185D1*
X7215Y4924D1*
X7244Y4917D1*
X7272Y4905D1*
X7298Y4891D1*
X7322Y4873D1*
X7343Y4852D1*
X7362Y4828D1*
X7377Y4802D1*
X7389Y4775D1*
X7397Y4746D1*
X7403Y4696D1*
X7401Y4666D1*
D18*
X8937Y4937D3*
Y5937D3*
X3937Y4937D3*
Y5937D3*
D19*
X6937Y3937D3*
X5937D3*
D26*
X7244Y5784D3*
X7554D3*
X7244Y5474D3*
X7554D3*
M02*
