M48
INCH
T01C0.013
T02C0.0433
%
T02
X+003498Y+001499
X+003498Y+002499
X+003998Y+001499
X+003998Y+002499
X+002498Y+000499
X+001498Y+000499
X+002498Y-000001
X+001498Y-000001
X+001498Y+003499
X+002498Y+003499
X+001498Y+003999
X+002498Y+003999
X+000498Y+001499
X+000498Y+002499
X-000002Y+001499
X-000002Y+002499
T01
X+002402Y+002430
X+002403Y+001568
X+002038Y+001869
X+001639Y+001695
X+001929Y+001535
X+001829Y+002538
X+001522Y+002408
X+002667Y+002231
X+002783Y+001562
T00
M30
