G04 DipTrace 2.4.0.2*
%INDRV2605L.gtl*%
%MOMM*%
%ADD13C,0.203*%
%ADD14C,0.254*%
%ADD15C,0.152*%
%ADD16R,0.9X0.7*%
%ADD17R,1.6X1.7*%
%ADD18R,2.032X1.7*%
%ADD19R,1.7X1.6*%
%ADD20R,1.7X2.032*%
%ADD22R,0.3X1.35*%
%ADD26R,0.4X0.5*%
%ADD27R,0.45X0.3*%
%ADD29R,1.2X0.737*%
%ADD30C,0.686*%
%FSLAX53Y53*%
G04*
G71*
G90*
G75*
G01*
%LNTop*%
%LPD*%
X20160Y16350D2*
D13*
X18890D1*
X14019Y14781D2*
Y14456D1*
X14168Y14307D1*
X10000Y13810D2*
X11270D1*
X14019Y15421D2*
X14506Y15907D1*
Y16448D1*
X14650D1*
X16579Y17230D2*
Y16551D1*
X16718Y16412D1*
Y15670D1*
X16779D1*
X14650Y16448D2*
X14684D1*
Y16801D1*
X14528Y16956D1*
X14744Y13497D2*
D14*
Y13743D1*
X14903Y13902D1*
X12962Y15685D2*
X13361D1*
X13795Y16119D1*
X13871D1*
X12962Y13500D2*
X14041D1*
X14044Y13497D1*
X16350Y20160D2*
D15*
Y18890D1*
X17079Y17230D2*
Y18161D1*
X16350Y18890D1*
X13810Y20160D2*
D13*
Y18890D1*
X16079Y17230D2*
Y16174D1*
X16105D1*
X20160Y13810D2*
X18890D1*
X18631Y14069D1*
X14769Y14781D2*
X15150D1*
X15182Y14749D1*
X17079Y12930D2*
X17073Y13969D1*
X13810Y10000D2*
Y11270D1*
X14044Y12497D2*
Y11504D1*
X13810Y11270D1*
X16079Y12930D2*
Y13955D1*
X16108Y13985D1*
X16350Y10000D2*
D15*
Y11270D1*
X14744Y12497D2*
D13*
X14792D1*
X15229Y12060D1*
Y12021D1*
X15963Y11287D1*
X16333D1*
X16350Y11270D1*
X16579Y12930D2*
D15*
Y11499D1*
X16350Y11270D1*
X10000Y16350D2*
X11270D1*
X12962Y14592D2*
D14*
X12611D1*
X12282Y14921D1*
X12202D1*
X11270Y15853D1*
Y16350D1*
X15579Y17230D2*
D15*
X15515D1*
Y15933D1*
X16438Y15010D1*
X17132D1*
X17579Y15456D1*
X17633Y15510D1*
Y17176D1*
X17579Y17230D1*
Y12930D2*
X17659D1*
X17859Y13130D1*
Y15456D1*
X17579D1*
X15579Y12930D2*
D13*
X15505D1*
Y14227D1*
X15816Y14538D1*
Y14960D1*
X15382Y15395D1*
X14795D1*
X14769Y15421D1*
D30*
X16108Y13985D3*
X15182Y14749D3*
X16105Y16174D3*
X14168Y14307D3*
X14903Y13902D3*
X14650Y16448D3*
X13871Y16119D3*
X16779Y15670D3*
X17073Y13969D3*
X14910Y19275D2*
D15*
X15251D1*
X14910Y19126D2*
X15251D1*
X14910Y18977D2*
X15251D1*
X14910Y18828D2*
X15251D1*
X12534Y18678D2*
X12711D1*
X14910D2*
X15251D1*
X17449D2*
X17625D1*
X12384Y18529D2*
X12711D1*
X14910D2*
X15251D1*
X17449D2*
X17775D1*
X12236Y18380D2*
X12711D1*
X14910D2*
X15251D1*
X17449D2*
X17923D1*
X12086Y18231D2*
X12711D1*
X14910D2*
X15251D1*
X17449D2*
X18073D1*
X11936Y18082D2*
X12711D1*
X14910D2*
X15251D1*
X17477D2*
X18223D1*
X11788Y17933D2*
X12711D1*
X14910D2*
X15251D1*
X17477D2*
X18371D1*
X11638Y17784D2*
X15680D1*
X17477D2*
X18521D1*
X11491Y17635D2*
X15680D1*
X17477D2*
X18668D1*
X11341Y17486D2*
X12530D1*
X15227D2*
X15680D1*
X17477D2*
X18818D1*
X11191Y17337D2*
X12530D1*
X15227D2*
X15680D1*
X17477D2*
X17840D1*
X11043Y17188D2*
X12530D1*
X15227D2*
X15680D1*
X17477D2*
X17840D1*
X10893Y17039D2*
X12530D1*
X15227D2*
X15680D1*
X17477D2*
X17840D1*
X10751Y16890D2*
X12530D1*
X15227D2*
X15680D1*
X17477D2*
X17840D1*
X10751Y16741D2*
X12530D1*
X15227D2*
X15680D1*
X17477D2*
X17840D1*
X10751Y16592D2*
X12530D1*
X15227D2*
X15680D1*
X17477D2*
X17840D1*
X10751Y16442D2*
X12530D1*
X15241D2*
X15580D1*
X17477D2*
X17840D1*
X10751Y16293D2*
X12577D1*
X15222D2*
X15525D1*
X17070D2*
X17840D1*
X10751Y16144D2*
X12351D1*
X15156D2*
X15513D1*
X17122D2*
X17840D1*
X10751Y15995D2*
X12246D1*
X15022D2*
X15542D1*
X17270D2*
X17840D1*
X10751Y15846D2*
X12168D1*
X14851D2*
X15616D1*
X17344D2*
X17840D1*
X10751Y15697D2*
X12115D1*
X15544D2*
X15766D1*
X17370D2*
X17840D1*
X10751Y15548D2*
X12113D1*
X15720D2*
X16199D1*
X17358D2*
X17840D1*
X10751Y15399D2*
X12094D1*
X15868D2*
X16254D1*
X17303D2*
X17840D1*
X10751Y15250D2*
X12094D1*
X16018D2*
X16368D1*
X17189D2*
X19409D1*
X10751Y15101D2*
X12094D1*
X16137D2*
X16668D1*
X16889D2*
X19409D1*
X10751Y14952D2*
X12094D1*
X16168D2*
X19409D1*
X16168Y14803D2*
X17840D1*
X16168Y14654D2*
X17840D1*
X16375Y14505D2*
X16842D1*
X17303D2*
X17840D1*
X17518Y14356D2*
X17840D1*
X17615Y14206D2*
X17840D1*
X17658Y14057D2*
X17840D1*
X17663Y13908D2*
X17840D1*
X17625Y13759D2*
X17840D1*
X17539Y13610D2*
X17840D1*
X17477Y13461D2*
X17840D1*
X17477Y13312D2*
X17840D1*
X17477Y13163D2*
X17840D1*
X17477Y13014D2*
X17840D1*
X17477Y12865D2*
X17840D1*
X17477Y12716D2*
X18861D1*
X17477Y12567D2*
X18711D1*
X17477Y12418D2*
X18561D1*
X17477Y12269D2*
X18414D1*
X17477Y12120D2*
X18264D1*
X17449Y11970D2*
X18116D1*
X17449Y11821D2*
X17966D1*
X17449Y11672D2*
X17816D1*
X17449Y11523D2*
X17668D1*
X12559Y17541D2*
X15213D1*
X15214Y16571D1*
X15227Y16448D1*
X15222Y16372D1*
X15207Y16298D1*
X15183Y16226D1*
X15149Y16157D1*
X15106Y16094D1*
X15056Y16037D1*
X14998Y15987D1*
X14934Y15946D1*
X14841Y15904D1*
X14833Y15830D1*
X14843Y15805D1*
X15229D1*
Y15731D1*
X15382D1*
X15457Y15723D1*
X15529Y15697D1*
X15595Y15655D1*
X15620Y15633D1*
X16054Y15198D1*
X16101Y15139D1*
X16134Y15070D1*
X16151Y14994D1*
X16152Y14960D1*
Y14560D1*
X16205Y14554D1*
X16279Y14537D1*
X16350Y14509D1*
X16417Y14473D1*
X16479Y14428D1*
X16534Y14375D1*
X16595Y14294D1*
X16677Y14390D1*
X16736Y14439D1*
X16801Y14479D1*
X16870Y14510D1*
X16943Y14532D1*
X17018Y14544D1*
X17094Y14547D1*
X17170Y14539D1*
X17244Y14521D1*
X17315Y14494D1*
X17382Y14457D1*
X17444Y14412D1*
X17499Y14360D1*
X17546Y14300D1*
X17586Y14235D1*
X17616Y14166D1*
X17637Y14092D1*
X17651Y13969D1*
X17646Y13893D1*
X17631Y13819D1*
X17606Y13747D1*
X17572Y13679D1*
X17530Y13615D1*
X17463Y13544D1*
Y12020D1*
X17432D1*
X17435Y11771D1*
Y11274D1*
X18886Y12726D1*
X17855Y12725D1*
Y14895D1*
X19425D1*
X19424Y15264D1*
X18706Y15265D1*
X17855D1*
Y17435D1*
X18886D1*
X17434Y18886D1*
X17435Y18141D1*
X17463Y18140D1*
Y16320D1*
X17056D1*
X17054Y16176D1*
X17150Y16113D1*
X17205Y16061D1*
X17252Y16001D1*
X17292Y15936D1*
X17322Y15866D1*
X17343Y15793D1*
X17357Y15670D1*
X17352Y15594D1*
X17337Y15520D1*
X17312Y15447D1*
X17278Y15379D1*
X17235Y15316D1*
X17185Y15259D1*
X17127Y15209D1*
X17064Y15168D1*
X16995Y15135D1*
X16923Y15111D1*
X16848Y15097D1*
X16772Y15093D1*
X16696Y15099D1*
X16622Y15114D1*
X16550Y15140D1*
X16482Y15175D1*
X16419Y15218D1*
X16363Y15269D1*
X16314Y15328D1*
X16273Y15392D1*
X16241Y15461D1*
X16218Y15533D1*
X16205Y15606D1*
X16098Y15597D1*
X16022Y15603D1*
X15948Y15618D1*
X15876Y15644D1*
X15808Y15679D1*
X15746Y15722D1*
X15689Y15773D1*
X15640Y15832D1*
X15599Y15896D1*
X15567Y15965D1*
X15544Y16037D1*
X15531Y16112D1*
X15528Y16188D1*
X15535Y16264D1*
X15551Y16338D1*
X15578Y16410D1*
X15613Y16477D1*
X15658Y16539D1*
X15695Y16579D1*
X15694Y17856D1*
X15265Y17855D1*
Y19425D1*
X14896Y19424D1*
X14895Y18706D1*
Y17855D1*
X12725D1*
Y18886D1*
X10735Y16895D1*
X10736Y14896D1*
X11455Y14895D1*
X12109D1*
X12108Y15521D1*
X12129D1*
X12127Y15656D1*
X12142Y15738D1*
X12205Y15905D1*
X12273Y16013D1*
X12369Y16150D1*
X12413Y16198D1*
X12525Y16260D1*
X12657Y16325D1*
X12718Y16346D1*
X12846Y16372D1*
X12544D1*
Y17541D1*
X12559D1*
X13228D2*
Y16956D1*
X12544D2*
X13228D1*
D16*
D3*
X14528D3*
D17*
X18890Y13810D3*
Y16350D3*
D18*
X20160Y13810D3*
Y16350D3*
D19*
X16350Y11270D3*
X13810D3*
D20*
X16350Y10000D3*
X13810D3*
D19*
Y18890D3*
X16350D3*
D20*
X13810Y20160D3*
X16350D3*
D17*
X11270Y13810D3*
Y16350D3*
D18*
X10000Y13810D3*
Y16350D3*
D22*
X15579Y12930D3*
X16079D3*
X16579D3*
X17079D3*
X17579D3*
Y17230D3*
X17079D3*
X16579D3*
X16079D3*
X15579D3*
D26*
X14044Y12497D3*
X14744D3*
Y13497D3*
X14044D3*
D27*
X14769Y14781D3*
Y15421D3*
X14019D3*
Y14781D3*
G36*
X13562Y15656D2*
Y15216D1*
X12362D1*
Y15656D1*
X12422Y15816D1*
X12562Y16016D1*
X12762Y16116D1*
X12962Y16154D1*
X13162Y16116D1*
X13362Y16016D1*
X13502Y15816D1*
X13562Y15656D1*
G37*
G36*
X12362Y13529D2*
Y13969D1*
X13562D1*
Y13529D1*
X13502Y13369D1*
X13362Y13169D1*
X13162Y13069D1*
X12962Y13031D1*
X12762Y13069D1*
X12562Y13169D1*
X12422Y13369D1*
X12362Y13529D1*
G37*
D29*
X12962Y14592D3*
M02*
