G04 DipTrace 2.4.0.2*
%INDRV2605L.gto*%
%MOMM*%
%ADD10C,0.25*%
%ADD24O,0.406X0.4*%
%ADD42C,0.118*%
%FSLAX53Y53*%
G04*
G71*
G90*
G75*
G01*
%LNTopSilk*%
%LPD*%
D24*
X17871Y17695D3*
X17813Y13868D2*
D10*
X15043D1*
Y16268D1*
X17813D1*
Y13868D1*
X17789Y14702D2*
G02X17755Y15478I-18J388D01*
G01*
X11554Y15112D2*
D42*
X11481Y15097D1*
X11408Y15068D1*
X11372Y15039D1*
Y14981D1*
X11408Y14951D1*
X11481Y14923D1*
X11554Y14908D1*
X11663Y14893D1*
X11846D1*
X11955Y14908D1*
X12028Y14923D1*
X12100Y14951D1*
X12137Y14981D1*
Y15039D1*
X12100Y15068D1*
X12028Y15097D1*
X11955Y15112D1*
X11518Y15206D2*
X11481Y15235D1*
X11373Y15279D1*
X12137D1*
X14577Y14479D2*
X14562Y14551D1*
X14533Y14624D1*
X14504Y14661D1*
X14445D1*
X14416Y14624D1*
X14387Y14551D1*
X14372Y14479D1*
X14358Y14369D1*
Y14186D1*
X14372Y14078D1*
X14387Y14004D1*
X14416Y13932D1*
X14445Y13895D1*
X14504D1*
X14533Y13932D1*
X14562Y14004D1*
X14577Y14078D1*
X14685Y14478D2*
Y14514D1*
X14700Y14587D1*
X14714Y14624D1*
X14744Y14660D1*
X14802D1*
X14831Y14624D1*
X14845Y14587D1*
X14860Y14514D1*
Y14442D1*
X14845Y14368D1*
X14817Y14260D1*
X14671Y13895D1*
X14875D1*
X14904Y12565D2*
X14890Y12637D1*
X14860Y12710D1*
X14831Y12747D1*
X14773D1*
X14744Y12710D1*
X14715Y12637D1*
X14700Y12565D1*
X14685Y12455D1*
Y12272D1*
X14700Y12164D1*
X14715Y12091D1*
X14744Y12018D1*
X14773Y11981D1*
X14831D1*
X14860Y12018D1*
X14890Y12091D1*
X14904Y12164D1*
X15028Y12746D2*
X15188D1*
X15100Y12454D1*
X15144D1*
X15173Y12418D1*
X15188Y12382D1*
X15202Y12272D1*
Y12200D1*
X15188Y12091D1*
X15159Y12017D1*
X15115Y11981D1*
X15071D1*
X15028Y12017D1*
X15013Y12054D1*
X14998Y12127D1*
X14048Y15705D2*
Y15836D1*
X14011Y15880D1*
X13975Y15895D1*
X13903Y15909D1*
X13829D1*
X13757Y15895D1*
X13720Y15880D1*
X13684Y15836D1*
Y15705D1*
X14449D1*
X14048Y15807D2*
X14449Y15909D1*
X13830Y16003D2*
X13793Y16032D1*
X13685Y16076D1*
X14449D1*
X14643Y17612D2*
X14774D1*
X14818Y17649D1*
X14833Y17685D1*
X14847Y17757D1*
Y17831D1*
X14833Y17903D1*
X14818Y17940D1*
X14774Y17976D1*
X14643D1*
Y17211D1*
X14745Y17612D2*
X14847Y17211D1*
X14956Y17794D2*
Y17830D1*
X14971Y17903D1*
X14985Y17939D1*
X15015Y17976D1*
X15073D1*
X15102Y17939D1*
X15116Y17903D1*
X15131Y17830D1*
Y17757D1*
X15116Y17684D1*
X15087Y17576D1*
X14941Y17211D1*
X15146D1*
X18013Y14927D2*
X18560D1*
X18670Y14941D1*
X18742Y14970D1*
X18779Y15014D1*
Y15043D1*
X18742Y15087D1*
X18670Y15116D1*
X18560Y15131D1*
X18013D1*
X18160Y15225D2*
X18123Y15254D1*
X18014Y15298D1*
X18779D1*
X11170Y18051D2*
X11316Y17285D1*
X11462Y18051D1*
X11579D2*
Y17285D1*
X11707D1*
X11762Y17322D1*
X11798Y17395D1*
X11816Y17468D1*
X11834Y17577D1*
Y17759D1*
X11816Y17869D1*
X11798Y17941D1*
X11762Y18015D1*
X11707Y18051D1*
X11579D1*
X11952D2*
Y17285D1*
X12080D1*
X12134Y17322D1*
X12171Y17395D1*
X12189Y17468D1*
X12207Y17577D1*
Y17759D1*
X12189Y17869D1*
X12171Y17941D1*
X12134Y18015D1*
X12080Y18051D1*
X11952D1*
X11478Y12710D2*
X11460Y12782D1*
X11423Y12856D1*
X11387Y12892D1*
X11314D1*
X11277Y12856D1*
X11241Y12782D1*
X11222Y12710D1*
X11204Y12600D1*
Y12418D1*
X11222Y12309D1*
X11241Y12236D1*
X11277Y12163D1*
X11314Y12126D1*
X11387D1*
X11423Y12163D1*
X11460Y12236D1*
X11478Y12309D1*
Y12418D1*
X11387D1*
X11851Y12892D2*
Y12126D1*
X11595Y12892D1*
Y12126D1*
X11968Y12892D2*
Y12126D1*
X12096D1*
X12151Y12163D1*
X12187Y12236D1*
X12205Y12309D1*
X12223Y12418D1*
Y12600D1*
X12205Y12710D1*
X12187Y12782D1*
X12151Y12856D1*
X12096Y12892D1*
X11968D1*
X17440Y12133D2*
X17404Y12096D1*
X17368Y12023D1*
X17349Y11951D1*
X17331Y11841D1*
Y11658D1*
X17349Y11550D1*
X17368Y11477D1*
X17404Y11404D1*
X17440Y11367D1*
X17513D1*
X17550Y11404D1*
X17586Y11477D1*
X17604Y11550D1*
X17622Y11658D1*
Y11841D1*
X17604Y11951D1*
X17586Y12023D1*
X17550Y12096D1*
X17513Y12133D1*
X17440D1*
X17740Y11749D2*
X17951D1*
X12355Y12160D2*
X12318Y12123D1*
X12282Y12050D1*
X12263Y11978D1*
X12245Y11868D1*
Y11685D1*
X12263Y11577D1*
X12282Y11503D1*
X12318Y11431D1*
X12355Y11394D1*
X12427D1*
X12464Y11431D1*
X12500Y11503D1*
X12518Y11577D1*
X12537Y11685D1*
Y11868D1*
X12518Y11978D1*
X12500Y12050D1*
X12464Y12123D1*
X12427Y12160D1*
X12355D1*
X12818Y12104D2*
Y11448D1*
X12654Y11776D2*
X12982D1*
X17759Y12474D2*
X17924D1*
X17978Y12511D1*
X17996Y12548D1*
X18015Y12620D1*
Y12730D1*
X17996Y12802D1*
X17978Y12839D1*
X17924Y12875D1*
X17759D1*
Y12110D1*
X18132Y12875D2*
X18224Y12110D1*
X18315Y12875D1*
X18406Y12110D1*
X18497Y12875D1*
X18906Y12110D2*
Y12875D1*
X18760Y12110D1*
X18615Y12875D1*
Y12110D1*
X18402Y17269D2*
X18255Y18035D1*
X18110Y17269D1*
X18164Y17524D2*
X18347D1*
X18774Y18035D2*
Y17269D1*
X18519Y18035D1*
Y17269D1*
X19184D2*
X19038Y18035D1*
X18892Y17269D1*
X18947Y17524D2*
X19129D1*
X17444Y18257D2*
X17371Y18221D1*
X17335Y18166D1*
Y18093D1*
X17371Y18038D1*
X17444Y18002D1*
X17517D1*
X17590Y18020D1*
X17626Y18038D1*
X17662Y18075D1*
X17736Y18184D1*
X17772Y18221D1*
X17809Y18239D1*
X17881Y18257D1*
X17991D1*
X18063Y18221D1*
X18100Y18166D1*
Y18093D1*
X18063Y18038D1*
X17991Y18002D1*
X17335Y18375D2*
X18100D1*
Y18502D1*
X18063Y18557D1*
X17991Y18594D1*
X17918Y18612D1*
X17809Y18630D1*
X17626D1*
X17517Y18612D1*
X17444Y18594D1*
X17371Y18557D1*
X17335Y18502D1*
Y18375D1*
X18100Y19039D2*
X17335Y18893D1*
X18100Y18747D1*
X17845Y18802D2*
Y18984D1*
X12222Y18410D2*
X12149Y18374D1*
X12113Y18319D1*
Y18246D1*
X12149Y18192D1*
X12222Y18155D1*
X12295D1*
X12368Y18174D1*
X12404Y18192D1*
X12441Y18228D1*
X12514Y18337D1*
X12550Y18374D1*
X12587Y18392D1*
X12660Y18410D1*
X12769D1*
X12842Y18374D1*
X12879Y18319D1*
Y18246D1*
X12842Y18192D1*
X12769Y18155D1*
X12295Y18801D2*
X12222Y18783D1*
X12149Y18747D1*
X12113Y18710D1*
Y18637D1*
X12149Y18601D1*
X12222Y18565D1*
X12295Y18546D1*
X12404Y18528D1*
X12587D1*
X12696Y18546D1*
X12769Y18565D1*
X12842Y18601D1*
X12879Y18637D1*
Y18710D1*
X12842Y18747D1*
X12769Y18783D1*
X12696Y18801D1*
X12113Y18919D2*
X12879D1*
Y19138D1*
M02*
