M48
METRIC,0000.00
T01C0.33
T02C1.1
%
T01
X+001611Y+001398
X+001707Y+001397
X+001678Y+001567
X+001611Y+001617
X+001465Y+001645
X+001387Y+001612
X+001417Y+001431
X+001490Y+001390
X+001518Y+001475
T02
X+001889Y+001381
X+002016Y+001381
X+002016Y+001635
X+001889Y+001635
X+001635Y+001889
X+001635Y+002016
X+001381Y+002016
X+001381Y+001889
X+001127Y+001635
X+001000Y+001635
X+001000Y+001381
X+001127Y+001381
X+001381Y+001127
X+001381Y+001000
X+001635Y+001000
X+001635Y+001127
T00
M30
