G04 DipTrace 2.4.0.2*
%INDRV2605L.gbo*%
%MOMM*%
%ADD10C,0.25*%
%ADD29O,0.723X0.863*%
%ADD44C,0.083*%
%ADD45C,0.111*%
%FSLAX53Y53*%
G04*
G71*
G90*
G75*
G01*
%LNBotSilk*%
%LPD*%
G36*
X17934Y11682D2*
X17317Y12315D1*
X17800Y12662D1*
X17927Y12505D1*
X17934Y11682D1*
G37*
D29*
X17652Y12377D3*
X17937Y11798D2*
D10*
G02X17420Y12302I68J586D01*
G01*
X17950Y11822D2*
G03X17890Y12442I-970J219D01*
G01*
X15831Y16422D2*
D45*
X15783Y16324D1*
X15710Y16276D1*
X15612D1*
X15539Y16324D1*
X15491Y16422D1*
Y16518D1*
X15515Y16616D1*
X15539Y16664D1*
X15588Y16713D1*
X15734Y16810D1*
X15783Y16859D1*
X15807Y16908D1*
X15831Y17005D1*
Y17151D1*
X15783Y17247D1*
X15710Y17297D1*
X15612D1*
X15539Y17247D1*
X15491Y17151D1*
X16306Y16518D2*
X16282Y16422D1*
X16233Y16324D1*
X16185Y16276D1*
X16088D1*
X16039Y16324D1*
X15991Y16422D1*
X15966Y16518D1*
X15942Y16664D1*
Y16908D1*
X15966Y17053D1*
X15991Y17151D1*
X16039Y17247D1*
X16088Y17297D1*
X16185D1*
X16233Y17247D1*
X16282Y17151D1*
X16306Y17053D1*
X16807Y17297D2*
X16612Y16276D1*
X16418Y17297D1*
X16491Y16956D2*
X16734D1*
X13962Y16396D2*
X13914Y16299D1*
X13841Y16250D1*
X13744D1*
X13671Y16299D1*
X13622Y16396D1*
Y16493D1*
X13646Y16591D1*
X13671Y16639D1*
X13719Y16687D1*
X13865Y16785D1*
X13914Y16833D1*
X13938Y16883D1*
X13962Y16979D1*
Y17125D1*
X13914Y17222D1*
X13841Y17271D1*
X13744D1*
X13671Y17222D1*
X13622Y17125D1*
X14437Y16493D2*
X14413Y16396D1*
X14364Y16299D1*
X14316Y16250D1*
X14219D1*
X14170Y16299D1*
X14122Y16396D1*
X14097Y16493D1*
X14073Y16639D1*
Y16883D1*
X14097Y17028D1*
X14122Y17125D1*
X14170Y17222D1*
X14219Y17271D1*
X14316D1*
X14364Y17222D1*
X14413Y17125D1*
X14437Y17028D1*
X14549Y16250D2*
Y17271D1*
X14840D1*
X13902Y12878D2*
X12881Y13073D1*
X13902Y13267D1*
Y13378D2*
X12881D1*
Y13548D1*
X12931Y13621D1*
X13027Y13670D1*
X13125Y13694D1*
X13270Y13718D1*
X13514D1*
X13660Y13694D1*
X13756Y13670D1*
X13854Y13621D1*
X13902Y13548D1*
Y13378D1*
Y13829D2*
X12881D1*
Y14000D1*
X12931Y14073D1*
X13027Y14121D1*
X13125Y14146D1*
X13270Y14170D1*
X13514D1*
X13660Y14146D1*
X13756Y14121D1*
X13854Y14073D1*
X13902Y14000D1*
Y13829D1*
X13645Y15188D2*
X13742Y15164D1*
X13839Y15115D1*
X13888Y15067D1*
Y14969D1*
X13839Y14921D1*
X13742Y14872D1*
X13645Y14848D1*
X13499Y14823D1*
X13255D1*
X13111Y14848D1*
X13013Y14872D1*
X12916Y14921D1*
X12867Y14969D1*
Y15067D1*
X12916Y15115D1*
X13013Y15164D1*
X13111Y15188D1*
X13255D1*
Y15067D1*
X13888Y15639D2*
X12867D1*
X13888Y15299D1*
X12867D1*
X13888Y15750D2*
X12867D1*
Y15921D1*
X12916Y15994D1*
X13013Y16042D1*
X13111Y16067D1*
X13255Y16091D1*
X13499D1*
X13645Y16067D1*
X13742Y16042D1*
X13839Y15994D1*
X13888Y15921D1*
Y15750D1*
X15472Y12636D2*
X15423Y12685D1*
X15375Y12782D1*
X15350Y12879D1*
X15326Y13025D1*
Y13269D1*
X15350Y13413D1*
X15375Y13511D1*
X15423Y13608D1*
X15472Y13657D1*
X15569D1*
X15617Y13608D1*
X15666Y13511D1*
X15690Y13413D1*
X15714Y13269D1*
Y13025D1*
X15690Y12879D1*
X15666Y12782D1*
X15617Y12685D1*
X15569Y12636D1*
X15472D1*
X15825Y13147D2*
X16106D1*
X14247Y12848D2*
X14198Y12896D1*
X14149Y12994D1*
X14125Y13091D1*
X14101Y13237D1*
Y13480D1*
X14125Y13625D1*
X14149Y13723D1*
X14198Y13820D1*
X14247Y13869D1*
X14344D1*
X14392Y13820D1*
X14441Y13723D1*
X14465Y13625D1*
X14489Y13480D1*
Y13237D1*
X14465Y13091D1*
X14441Y12994D1*
X14392Y12896D1*
X14344Y12848D1*
X14247D1*
X14819Y12922D2*
Y13797D1*
X14600Y13360D2*
X15038D1*
X16832Y14466D2*
Y14247D1*
X16783Y14174D1*
X16734Y14150D1*
X16637Y14125D1*
X16491D1*
X16395Y14150D1*
X16345Y14174D1*
X16297Y14247D1*
Y14466D1*
X17318D1*
X16297Y14014D2*
X17318Y13892D1*
X16297Y13771D1*
X17318Y13650D1*
X16297Y13528D1*
X17318Y13028D2*
X16297D1*
X17318Y13223D1*
X16297Y13417D1*
X17318D1*
X17336Y15810D2*
X16316Y16005D1*
X17336Y16199D1*
X16996Y16126D2*
Y15883D1*
X16316Y15358D2*
X17336D1*
X16316Y15699D1*
X17336D1*
Y14858D2*
X16316Y15053D1*
X17336Y15247D1*
X16996Y15174D2*
Y14931D1*
X15386Y16043D2*
D44*
Y15277D1*
X15167D1*
X15084Y15678D2*
X14920D1*
X14865Y15715D1*
X14847Y15752D1*
X14829Y15824D1*
Y15897D1*
X14847Y15970D1*
X14865Y16007D1*
X14920Y16043D1*
X15084D1*
Y15277D1*
X14956Y15678D2*
X14829Y15277D1*
X14453D2*
X14599Y16043D1*
X14745Y15277D1*
X14690Y15533D2*
X14508D1*
X12834Y12114D2*
Y12150D1*
X12816Y12223D1*
X12797Y12260D1*
X12761Y12296D1*
X12688D1*
X12652Y12260D1*
X12634Y12223D1*
X12615Y12150D1*
Y12078D1*
X12634Y12004D1*
X12670Y11896D1*
X12852Y11531D1*
X12597D1*
X12404Y12296D2*
X12459Y12260D1*
X12495Y12150D1*
X12514Y11968D1*
Y11859D1*
X12495Y11677D1*
X12459Y11567D1*
X12404Y11531D1*
X12368D1*
X12313Y11567D1*
X12277Y11677D1*
X12258Y11859D1*
Y11968D1*
X12277Y12150D1*
X12313Y12260D1*
X12368Y12296D1*
X12404D1*
X12277Y12150D2*
X12495Y11677D1*
X12175Y12150D2*
X12138Y12187D1*
X12084Y12296D1*
Y11531D1*
X11782Y12296D2*
X11964D1*
X11982Y11968D1*
X11964Y12004D1*
X11909Y12041D1*
X11855D1*
X11800Y12004D1*
X11763Y11932D1*
X11745Y11822D1*
Y11750D1*
X11763Y11640D1*
X11800Y11567D1*
X11855Y11531D1*
X11909D1*
X11964Y11567D1*
X11982Y11604D1*
X12000Y11677D1*
X17979Y18876D2*
X18216D1*
Y18110D1*
Y18511D2*
X18070D1*
X17895Y18876D2*
Y18110D1*
X17812Y18402D2*
X17593D1*
Y18475D1*
X17612Y18548D1*
X17630Y18585D1*
X17666Y18621D1*
X17721D1*
X17757Y18585D1*
X17794Y18511D1*
X17812Y18402D1*
Y18329D1*
X17794Y18220D1*
X17757Y18147D1*
X17721Y18110D1*
X17666D1*
X17630Y18147D1*
X17593Y18220D1*
X17510Y18621D2*
X17310Y18110D1*
Y18621D2*
X17510Y18110D1*
X12782Y17837D2*
X12618D1*
X12563Y17874D1*
X12544Y17910D1*
X12526Y17983D1*
Y18056D1*
X12544Y18129D1*
X12563Y18166D1*
X12618Y18202D1*
X12782D1*
Y17436D1*
X12654Y17837D2*
X12526Y17436D1*
X12443Y18055D2*
X12406Y18092D1*
X12352Y18201D1*
Y17436D1*
X12250Y17510D2*
X12268Y17472D1*
X12250Y17436D1*
X12232Y17472D1*
X12250Y17510D1*
X12039Y18201D2*
X12094Y18165D1*
X12130Y18055D1*
X12148Y17873D1*
Y17764D1*
X12130Y17582D1*
X12094Y17472D1*
X12039Y17436D1*
X12003D1*
X11948Y17472D1*
X11912Y17582D1*
X11893Y17764D1*
Y17873D1*
X11912Y18055D1*
X11948Y18165D1*
X12003Y18201D1*
X12039D1*
X11912Y18055D2*
X12130Y17582D1*
X11810Y18202D2*
Y17436D1*
X11645D1*
X11591Y17473D1*
X11573Y17510D1*
X11555Y17582D1*
Y17691D1*
X11573Y17765D1*
X11591Y17801D1*
X11645Y17837D1*
X11591Y17874D1*
X11573Y17910D1*
X11555Y17983D1*
Y18056D1*
X11573Y18129D1*
X11591Y18166D1*
X11645Y18202D1*
X11810D1*
Y17837D2*
X11645D1*
X18618Y17290D2*
Y18056D1*
X18763Y17290D1*
X18909Y18056D1*
Y17290D1*
X18443Y17801D2*
X18479Y17765D1*
X18516Y17691D1*
X18534Y17582D1*
Y17509D1*
X18516Y17400D1*
X18479Y17327D1*
X18443Y17290D1*
X18388D1*
X18352Y17327D1*
X18316Y17400D1*
X18297Y17509D1*
Y17582D1*
X18316Y17691D1*
X18352Y17765D1*
X18388Y17801D1*
X18443D1*
X17995Y18056D2*
Y17290D1*
Y17691D2*
X18031Y17765D1*
X18068Y17801D1*
X18123D1*
X18159Y17765D1*
X18196Y17691D1*
X18214Y17582D1*
Y17509D1*
X18196Y17400D1*
X18159Y17327D1*
X18123Y17290D1*
X18068D1*
X18031Y17327D1*
X17995Y17400D1*
X17912Y17801D2*
Y17436D1*
X17894Y17327D1*
X17857Y17290D1*
X17802D1*
X17766Y17327D1*
X17711Y17436D1*
Y17801D2*
Y17290D1*
X17628Y18056D2*
Y17290D1*
X17545Y17582D2*
X17326D1*
Y17655D1*
X17344Y17728D1*
X17362Y17765D1*
X17399Y17801D1*
X17454D1*
X17490Y17765D1*
X17527Y17691D1*
X17545Y17582D1*
Y17509D1*
X17527Y17400D1*
X17490Y17327D1*
X17454Y17290D1*
X17399D1*
X17362Y17327D1*
X17326Y17400D1*
X15379Y14920D2*
Y14154D1*
X15124Y14920D2*
Y14154D1*
X15379Y14555D2*
X15124D1*
X14822Y14665D2*
Y14154D1*
Y14555D2*
X14858Y14629D1*
X14895Y14665D1*
X14949D1*
X14986Y14629D1*
X15022Y14555D1*
X15040Y14446D1*
Y14373D1*
X15022Y14264D1*
X14986Y14192D1*
X14949Y14154D1*
X14895D1*
X14858Y14192D1*
X14822Y14264D1*
X14739Y14665D2*
Y13899D1*
Y14555D2*
X14702Y14628D1*
X14666Y14665D1*
X14611D1*
X14574Y14628D1*
X14538Y14555D1*
X14520Y14446D1*
Y14373D1*
X14538Y14264D1*
X14574Y14191D1*
X14611Y14154D1*
X14666D1*
X14702Y14191D1*
X14739Y14264D1*
X14381Y14920D2*
Y14300D1*
X14363Y14192D1*
X14327Y14154D1*
X14291D1*
X14436Y14665D2*
X14309D1*
X14207Y14920D2*
X14189Y14884D1*
X14171Y14920D1*
X14189Y14957D1*
X14207Y14920D1*
X14189Y14665D2*
Y14154D1*
X13868Y14555D2*
X13905Y14629D1*
X13941Y14665D1*
X13996D1*
X14032Y14629D1*
X14069Y14555D1*
X14087Y14446D1*
Y14373D1*
X14069Y14264D1*
X14032Y14192D1*
X13996Y14154D1*
X13941D1*
X13905Y14192D1*
X13868Y14264D1*
M02*
