G04 DipTrace 2.4.0.2*
%INDRV2605L.gto*%
%MOMM*%
%ADD10C,0.25*%
%ADD13C,0.152*%
%ADD19O,0.406X0.4*%
%ADD23O,0.312X0.377*%
%ADD42C,0.083*%
%FSLAX53Y53*%
G04*
G71*
G90*
G75*
G01*
%LNTopSilk*%
%LPD*%
D19*
X17996Y17687D3*
X17938Y13860D2*
D10*
X15168D1*
Y16260D1*
X17938D1*
Y13860D1*
X17914Y14694D2*
G02X17880Y15470I-18J388D01*
G01*
X14637Y16600D2*
X13637D1*
X14637Y18000D2*
X13637D1*
D23*
X15108Y16678D3*
X14973Y15873D2*
D13*
X13813D1*
Y14373D1*
X14973D1*
Y15873D1*
X12288Y16087D2*
G02X13638Y16087I675J-80D01*
G01*
Y14012D2*
G02X12288Y14012I-675J80D01*
G01*
X13638Y14049D2*
Y16049D1*
X12288Y14049D2*
Y16049D1*
X13741Y12951D2*
D42*
X13723Y13023D1*
X13686Y13097D1*
X13650Y13133D1*
X13577D1*
X13540Y13097D1*
X13504Y13023D1*
X13486Y12951D1*
X13467Y12841D1*
Y12659D1*
X13486Y12550D1*
X13504Y12477D1*
X13540Y12404D1*
X13577Y12367D1*
X13650D1*
X13686Y12404D1*
X13723Y12477D1*
X13741Y12550D1*
X13824Y12986D2*
X13861Y13023D1*
X13915Y13132D1*
Y12367D1*
X18156Y14889D2*
X18702D1*
X18812Y14907D1*
X18884Y14944D1*
X18921Y14999D1*
Y15035D1*
X18884Y15090D1*
X18812Y15126D1*
X18702Y15145D1*
X18156D1*
X18302Y15228D2*
X18265Y15265D1*
X18157Y15319D1*
X18921D1*
X12888Y17234D2*
X13052D1*
X13107Y17271D1*
X13125Y17307D1*
X13143Y17380D1*
Y17453D1*
X13125Y17525D1*
X13107Y17562D1*
X13052Y17599D1*
X12888D1*
Y16833D1*
X13016Y17234D2*
X13143Y16833D1*
X13227Y17452D2*
X13263Y17489D1*
X13318Y17598D1*
Y16833D1*
X14687Y16253D2*
X14669Y16326D1*
X14632Y16399D1*
X14596Y16435D1*
X14523D1*
X14486Y16399D1*
X14450Y16326D1*
X14432Y16253D1*
X14413Y16144D1*
Y15961D1*
X14432Y15852D1*
X14450Y15779D1*
X14486Y15707D1*
X14523Y15670D1*
X14596D1*
X14632Y15707D1*
X14669Y15779D1*
X14687Y15852D1*
X14789Y16252D2*
Y16289D1*
X14807Y16362D1*
X14825Y16398D1*
X14862Y16434D1*
X14934D1*
X14971Y16398D1*
X14989Y16362D1*
X15007Y16289D1*
Y16216D1*
X14989Y16143D1*
X14953Y16034D1*
X14770Y15670D1*
X15025D1*
X10896Y12885D2*
X11042Y12120D1*
X11188Y12885D1*
X11271D2*
Y12120D1*
X11398D1*
X11453Y12157D1*
X11490Y12229D1*
X11508Y12302D1*
X11526Y12411D1*
Y12594D1*
X11508Y12703D1*
X11490Y12776D1*
X11453Y12849D1*
X11398Y12885D1*
X11271D1*
X11609D2*
Y12120D1*
X11737D1*
X11792Y12157D1*
X11828Y12229D1*
X11847Y12302D1*
X11865Y12411D1*
Y12594D1*
X11847Y12703D1*
X11828Y12776D1*
X11792Y12849D1*
X11737Y12885D1*
X11609D1*
X11381Y17894D2*
X11363Y17966D1*
X11327Y18039D1*
X11290Y18076D1*
X11218D1*
X11181Y18039D1*
X11145Y17966D1*
X11126Y17894D1*
X11108Y17784D1*
Y17601D1*
X11126Y17493D1*
X11145Y17419D1*
X11181Y17347D1*
X11218Y17310D1*
X11290D1*
X11327Y17347D1*
X11363Y17419D1*
X11381Y17493D1*
Y17601D1*
X11290D1*
X11720Y18076D2*
Y17310D1*
X11465Y18076D1*
Y17310D1*
X11803Y18076D2*
Y17310D1*
X11931D1*
X11986Y17347D1*
X12022Y17419D1*
X12040Y17493D1*
X12059Y17601D1*
Y17784D1*
X12040Y17894D1*
X12022Y17966D1*
X11986Y18039D1*
X11931Y18076D1*
X11803D1*
X17415Y12142D2*
X17379Y12106D1*
X17342Y12032D1*
X17324Y11960D1*
X17306Y11850D1*
Y11668D1*
X17324Y11559D1*
X17342Y11486D1*
X17379Y11413D1*
X17415Y11376D1*
X17488D1*
X17524Y11413D1*
X17561Y11486D1*
X17579Y11559D1*
X17597Y11668D1*
Y11850D1*
X17579Y11960D1*
X17561Y12032D1*
X17524Y12106D1*
X17488Y12142D1*
X17415D1*
X17681Y11759D2*
X17891D1*
X12329Y12169D2*
X12293Y12132D1*
X12257Y12059D1*
X12238Y11987D1*
X12220Y11877D1*
Y11694D1*
X12238Y11586D1*
X12257Y11513D1*
X12293Y11440D1*
X12329Y11403D1*
X12402D1*
X12439Y11440D1*
X12475Y11513D1*
X12493Y11586D1*
X12511Y11694D1*
Y11877D1*
X12493Y11987D1*
X12475Y12059D1*
X12439Y12132D1*
X12402Y12169D1*
X12329D1*
X12759Y12114D2*
Y11457D1*
X12595Y11785D2*
X12923D1*
X17734Y12484D2*
X17898D1*
X17953Y12520D1*
X17971Y12557D1*
X17989Y12629D1*
Y12739D1*
X17971Y12811D1*
X17953Y12848D1*
X17898Y12884D1*
X17734D1*
Y12119D1*
X18073Y12884D2*
X18164Y12119D1*
X18255Y12884D1*
X18346Y12119D1*
X18437Y12884D1*
X18812Y12119D2*
Y12884D1*
X18667Y12119D1*
X18521Y12884D1*
Y12119D1*
X18376Y17278D2*
X18230Y18044D1*
X18085Y17278D1*
X18139Y17533D2*
X18322D1*
X18715Y18044D2*
Y17278D1*
X18460Y18044D1*
Y17278D1*
X19090D2*
X18944Y18044D1*
X18798Y17278D1*
X18853Y17533D2*
X19035D1*
X17419Y18232D2*
X17346Y18196D1*
X17310Y18141D1*
Y18068D1*
X17346Y18013D1*
X17419Y17977D1*
X17492D1*
X17565Y17995D1*
X17601Y18013D1*
X17637Y18049D1*
X17711Y18159D1*
X17747Y18196D1*
X17784Y18214D1*
X17856Y18232D1*
X17966D1*
X18038Y18196D1*
X18075Y18141D1*
Y18068D1*
X18038Y18013D1*
X17966Y17977D1*
X17310Y18315D2*
X18075D1*
Y18443D1*
X18038Y18497D1*
X17966Y18534D1*
X17893Y18552D1*
X17784Y18570D1*
X17601D1*
X17492Y18552D1*
X17419Y18534D1*
X17346Y18497D1*
X17310Y18443D1*
Y18315D1*
X18075Y18945D2*
X17310Y18799D1*
X18075Y18654D1*
X17820Y18708D2*
Y18891D1*
X12197Y18385D2*
X12124Y18349D1*
X12088Y18294D1*
Y18221D1*
X12124Y18167D1*
X12197Y18130D1*
X12270D1*
X12343Y18148D1*
X12379Y18167D1*
X12415Y18203D1*
X12489Y18312D1*
X12525Y18349D1*
X12562Y18367D1*
X12634Y18385D1*
X12744D1*
X12816Y18349D1*
X12853Y18294D1*
Y18221D1*
X12816Y18167D1*
X12744Y18130D1*
X12270Y18742D2*
X12197Y18724D1*
X12124Y18687D1*
X12088Y18651D1*
Y18578D1*
X12124Y18541D1*
X12197Y18505D1*
X12270Y18487D1*
X12379Y18468D1*
X12562D1*
X12671Y18487D1*
X12744Y18505D1*
X12816Y18541D1*
X12853Y18578D1*
Y18651D1*
X12816Y18687D1*
X12744Y18724D1*
X12671Y18742D1*
X12088Y18825D2*
X12853D1*
Y19044D1*
M02*
