G04 DipTrace 2.4.0.2*
%INDRV2605L.gbo*%
%MOMM*%
%ADD27O,0.75X0.71*%
%ADD42C,0.118*%
%FSLAX53Y53*%
G04*
G71*
G90*
G75*
G01*
%LNBotSilk*%
%LPD*%
G36*
X18018Y11643D2*
X17378Y12266D1*
X17885Y12623D1*
X18012Y12466D1*
X18018Y11643D1*
G37*
D27*
X17643Y12514D3*
X15849Y16621D2*
D42*
X15813Y16547D1*
X15758Y16511D1*
X15686D1*
X15631Y16547D1*
X15594Y16621D1*
Y16693D1*
X15613Y16766D1*
X15631Y16803D1*
X15667Y16839D1*
X15777Y16912D1*
X15813Y16948D1*
X15831Y16985D1*
X15849Y17058D1*
Y17167D1*
X15813Y17240D1*
X15758Y17277D1*
X15686D1*
X15631Y17240D1*
X15594Y17167D1*
X16240Y16693D2*
X16222Y16621D1*
X16186Y16547D1*
X16149Y16511D1*
X16077D1*
X16040Y16547D1*
X16004Y16621D1*
X15985Y16693D1*
X15967Y16803D1*
Y16985D1*
X15985Y17094D1*
X16004Y17167D1*
X16040Y17240D1*
X16077Y17277D1*
X16149D1*
X16186Y17240D1*
X16222Y17167D1*
X16240Y17094D1*
X16650Y17277D2*
X16504Y16511D1*
X16358Y17277D1*
X16413Y17022D2*
X16595D1*
X14057Y16628D2*
X14021Y16554D1*
X13966Y16518D1*
X13893D1*
X13839Y16554D1*
X13802Y16628D1*
Y16700D1*
X13821Y16773D1*
X13839Y16810D1*
X13875Y16846D1*
X13984Y16919D1*
X14021Y16955D1*
X14039Y16992D1*
X14057Y17065D1*
Y17174D1*
X14021Y17247D1*
X13966Y17284D1*
X13893D1*
X13839Y17247D1*
X13802Y17174D1*
X14448Y16700D2*
X14430Y16628D1*
X14393Y16554D1*
X14357Y16518D1*
X14284D1*
X14248Y16554D1*
X14211Y16628D1*
X14193Y16700D1*
X14175Y16810D1*
Y16992D1*
X14193Y17101D1*
X14211Y17174D1*
X14248Y17247D1*
X14284Y17284D1*
X14357D1*
X14393Y17247D1*
X14430Y17174D1*
X14448Y17101D1*
X14566Y16518D2*
Y17284D1*
X14784D1*
X13649Y15723D2*
X12883Y15868D1*
X13649Y16014D1*
Y16132D2*
X12883D1*
Y16259D1*
X12920Y16314D1*
X12993Y16351D1*
X13066Y16369D1*
X13175Y16387D1*
X13357D1*
X13467Y16369D1*
X13539Y16351D1*
X13613Y16314D1*
X13649Y16259D1*
Y16132D1*
Y16505D2*
X12883D1*
Y16632D1*
X12920Y16687D1*
X12993Y16724D1*
X13066Y16742D1*
X13175Y16760D1*
X13357D1*
X13467Y16742D1*
X13539Y16724D1*
X13613Y16687D1*
X13649Y16632D1*
Y16505D1*
X13475Y13154D2*
X13547Y13136D1*
X13620Y13099D1*
X13657Y13063D1*
Y12990D1*
X13620Y12953D1*
X13547Y12917D1*
X13475Y12899D1*
X13365Y12880D1*
X13182D1*
X13074Y12899D1*
X13000Y12917D1*
X12928Y12953D1*
X12891Y12990D1*
Y13063D1*
X12928Y13099D1*
X13000Y13136D1*
X13074Y13154D1*
X13182D1*
Y13063D1*
X13657Y13527D2*
X12891D1*
X13657Y13271D1*
X12891D1*
X13657Y13644D2*
X12891D1*
Y13772D1*
X12928Y13827D1*
X13000Y13863D1*
X13074Y13881D1*
X13182Y13900D1*
X13365D1*
X13475Y13881D1*
X13547Y13863D1*
X13620Y13827D1*
X13657Y13772D1*
Y13644D1*
X15601Y12743D2*
X15564Y12779D1*
X15528Y12852D1*
X15509Y12924D1*
X15491Y13034D1*
Y13217D1*
X15509Y13325D1*
X15528Y13399D1*
X15564Y13471D1*
X15601Y13508D1*
X15674D1*
X15710Y13471D1*
X15746Y13399D1*
X15765Y13325D1*
X15783Y13217D1*
Y13034D1*
X15765Y12924D1*
X15746Y12852D1*
X15710Y12779D1*
X15674Y12743D1*
X15601D1*
X15900Y13126D2*
X16111D1*
X13972Y12896D2*
X13936Y12932D1*
X13900Y13005D1*
X13881Y13078D1*
X13863Y13187D1*
Y13370D1*
X13881Y13479D1*
X13900Y13552D1*
X13936Y13625D1*
X13972Y13662D1*
X14045D1*
X14082Y13625D1*
X14118Y13552D1*
X14136Y13479D1*
X14154Y13370D1*
Y13187D1*
X14136Y13078D1*
X14118Y13005D1*
X14082Y12932D1*
X14045Y12896D1*
X13972D1*
X14436Y12951D2*
Y13607D1*
X14272Y13280D2*
X14600D1*
X16934Y14461D2*
Y14297D1*
X16897Y14242D1*
X16860Y14224D1*
X16788Y14206D1*
X16678D1*
X16606Y14224D1*
X16569Y14242D1*
X16533Y14297D1*
Y14461D1*
X17298D1*
X16533Y14088D2*
X17298Y13997D1*
X16533Y13906D1*
X17298Y13815D1*
X16533Y13723D1*
X17298Y13314D2*
X16533D1*
X17298Y13460D1*
X16533Y13606D1*
X17298D1*
X17317Y15878D2*
X16551Y16024D1*
X17317Y16170D1*
X17062Y16115D2*
Y15933D1*
X16551Y15505D2*
X17317D1*
X16551Y15760D1*
X17317D1*
Y15095D2*
X16551Y15242D1*
X17317Y15387D1*
X17062Y15333D2*
Y15150D1*
X16416Y15951D2*
Y15185D1*
X16289D1*
X16234Y15222D1*
X16197Y15294D1*
X16179Y15368D1*
X16161Y15476D1*
Y15659D1*
X16179Y15769D1*
X16197Y15841D1*
X16234Y15914D1*
X16289Y15951D1*
X16416D1*
X16043Y15586D2*
X15880D1*
X15825Y15623D1*
X15806Y15659D1*
X15788Y15732D1*
Y15805D1*
X15806Y15877D1*
X15825Y15914D1*
X15880Y15951D1*
X16043D1*
Y15185D1*
X15916Y15586D2*
X15788Y15185D1*
X15671Y15951D2*
X15525Y15185D1*
X15379Y15951D1*
X15243Y15768D2*
Y15804D1*
X15225Y15877D1*
X15207Y15914D1*
X15170Y15950D1*
X15097D1*
X15061Y15914D1*
X15043Y15877D1*
X15024Y15804D1*
Y15732D1*
X15043Y15658D1*
X15079Y15550D1*
X15262Y15185D1*
X15006D1*
X14670Y15841D2*
X14688Y15914D1*
X14743Y15950D1*
X14779D1*
X14834Y15914D1*
X14871Y15804D1*
X14889Y15622D1*
Y15440D1*
X14871Y15294D1*
X14834Y15221D1*
X14779Y15185D1*
X14761D1*
X14707Y15221D1*
X14670Y15294D1*
X14652Y15404D1*
Y15440D1*
X14670Y15550D1*
X14707Y15622D1*
X14761Y15658D1*
X14779D1*
X14834Y15622D1*
X14871Y15550D1*
X14889Y15440D1*
X14425Y15950D2*
X14480Y15914D1*
X14516Y15804D1*
X14534Y15622D1*
Y15513D1*
X14516Y15331D1*
X14480Y15221D1*
X14425Y15185D1*
X14389D1*
X14334Y15221D1*
X14298Y15331D1*
X14279Y15513D1*
Y15622D1*
X14298Y15804D1*
X14334Y15914D1*
X14389Y15950D1*
X14425D1*
X14298Y15804D2*
X14516Y15331D1*
X13943Y15950D2*
X14125D1*
X14143Y15622D1*
X14125Y15658D1*
X14070Y15695D1*
X14016D1*
X13961Y15658D1*
X13924Y15586D1*
X13906Y15476D1*
Y15404D1*
X13924Y15294D1*
X13961Y15221D1*
X14016Y15185D1*
X14070D1*
X14125Y15221D1*
X14143Y15258D1*
X14161Y15331D1*
X13789Y15951D2*
Y15185D1*
X13570D1*
X18548Y17928D2*
Y17964D1*
X18530Y18037D1*
X18512Y18073D1*
X18475Y18110D1*
X18402D1*
X18366Y18073D1*
X18348Y18037D1*
X18330Y17964D1*
Y17891D1*
X18348Y17818D1*
X18384Y17709D1*
X18567Y17345D1*
X18311D1*
X18084Y18110D2*
X18139Y18073D1*
X18176Y17964D1*
X18194Y17782D1*
Y17672D1*
X18176Y17490D1*
X18139Y17381D1*
X18084Y17345D1*
X18048D1*
X17993Y17381D1*
X17957Y17490D1*
X17939Y17672D1*
Y17782D1*
X17957Y17964D1*
X17993Y18073D1*
X18048Y18110D1*
X18084D1*
X17957Y17964D2*
X18176Y17490D1*
X17821Y17964D2*
X17784Y18001D1*
X17730Y18110D1*
Y17345D1*
X17430D2*
Y18110D1*
X17612Y17600D1*
X17339D1*
X16093Y14825D2*
X16330D1*
Y14059D1*
Y14460D2*
X16184D1*
X15975Y14825D2*
Y14059D1*
X15857Y14351D2*
X15639D1*
Y14424D1*
X15657Y14497D1*
X15675Y14533D1*
X15712Y14570D1*
X15766D1*
X15803Y14533D1*
X15839Y14460D1*
X15857Y14351D1*
Y14278D1*
X15839Y14169D1*
X15803Y14096D1*
X15766Y14059D1*
X15712D1*
X15675Y14096D1*
X15639Y14169D1*
X15521Y14570D2*
X15321Y14059D1*
Y14570D2*
X15521Y14059D1*
X14541D2*
Y14825D1*
X14687Y14059D1*
X14833Y14825D1*
Y14059D1*
X14333Y14570D2*
X14369Y14533D1*
X14406Y14460D1*
X14424Y14351D1*
Y14278D1*
X14406Y14169D1*
X14369Y14096D1*
X14333Y14059D1*
X14278D1*
X14241Y14096D1*
X14205Y14169D1*
X14187Y14278D1*
Y14351D1*
X14205Y14460D1*
X14241Y14533D1*
X14278Y14570D1*
X14333D1*
X13850Y14825D2*
Y14059D1*
Y14460D2*
X13886Y14533D1*
X13923Y14570D1*
X13978D1*
X14014Y14533D1*
X14051Y14460D1*
X14069Y14351D1*
Y14278D1*
X14051Y14169D1*
X14014Y14096D1*
X13978Y14059D1*
X13923D1*
X13886Y14096D1*
X13850Y14169D1*
X13733Y14570D2*
Y14205D1*
X13715Y14096D1*
X13678Y14059D1*
X13623D1*
X13587Y14096D1*
X13532Y14205D1*
Y14570D2*
Y14059D1*
X13415Y14825D2*
Y14059D1*
X13297Y14351D2*
X13078D1*
Y14424D1*
X13096Y14497D1*
X13115Y14533D1*
X13151Y14570D1*
X13206D1*
X13242Y14533D1*
X13279Y14460D1*
X13297Y14351D1*
Y14278D1*
X13279Y14169D1*
X13242Y14096D1*
X13206Y14059D1*
X13151D1*
X13115Y14096D1*
X13078Y14169D1*
X12863Y17735D2*
X12699D1*
X12644Y17772D1*
X12626Y17808D1*
X12608Y17881D1*
Y17954D1*
X12626Y18026D1*
X12644Y18063D1*
X12699Y18100D1*
X12863D1*
Y17334D1*
X12735Y17735D2*
X12608Y17334D1*
X12490Y17953D2*
X12453Y17990D1*
X12399Y18099D1*
Y17334D1*
X12263Y17407D2*
X12281Y17370D1*
X12263Y17334D1*
X12244Y17370D1*
X12263Y17407D1*
X12017Y18099D2*
X12072Y18063D1*
X12109Y17953D1*
X12127Y17771D1*
Y17662D1*
X12109Y17480D1*
X12072Y17370D1*
X12017Y17334D1*
X11981D1*
X11926Y17370D1*
X11890Y17480D1*
X11872Y17662D1*
Y17771D1*
X11890Y17953D1*
X11926Y18063D1*
X11981Y18099D1*
X12017D1*
X11890Y17953D2*
X12109Y17480D1*
X11462Y17334D2*
X11608Y18100D1*
X11754Y17334D1*
X11699Y17589D2*
X11517D1*
M02*
