G04 DipTrace 2.4.0.2*
%INDRV2605L.gbo*%
%MOMM*%
%ADD43C,0.083*%
%ADD44C,0.111*%
%FSLAX53Y53*%
G04*
G71*
G90*
G75*
G01*
%LNBotSilk*%
%LPD*%
X15831Y16422D2*
D44*
X15783Y16324D1*
X15710Y16276D1*
X15612D1*
X15539Y16324D1*
X15491Y16422D1*
Y16518D1*
X15515Y16616D1*
X15539Y16664D1*
X15588Y16713D1*
X15734Y16810D1*
X15783Y16859D1*
X15807Y16908D1*
X15831Y17005D1*
Y17151D1*
X15783Y17247D1*
X15710Y17297D1*
X15612D1*
X15539Y17247D1*
X15491Y17151D1*
X16306Y16518D2*
X16282Y16422D1*
X16233Y16324D1*
X16185Y16276D1*
X16088D1*
X16039Y16324D1*
X15991Y16422D1*
X15966Y16518D1*
X15942Y16664D1*
Y16908D1*
X15966Y17053D1*
X15991Y17151D1*
X16039Y17247D1*
X16088Y17297D1*
X16185D1*
X16233Y17247D1*
X16282Y17151D1*
X16306Y17053D1*
X16807Y17297D2*
X16612Y16276D1*
X16418Y17297D1*
X16491Y16956D2*
X16734D1*
X14225Y16396D2*
X14176Y16299D1*
X14103Y16250D1*
X14006D1*
X13933Y16299D1*
X13884Y16396D1*
Y16493D1*
X13909Y16591D1*
X13933Y16639D1*
X13982Y16687D1*
X14128Y16785D1*
X14176Y16833D1*
X14201Y16883D1*
X14225Y16979D1*
Y17125D1*
X14176Y17222D1*
X14103Y17271D1*
X14006D1*
X13933Y17222D1*
X13884Y17125D1*
X14700Y16493D2*
X14676Y16396D1*
X14627Y16299D1*
X14579Y16250D1*
X14482D1*
X14433Y16299D1*
X14385Y16396D1*
X14360Y16493D1*
X14336Y16639D1*
Y16883D1*
X14360Y17028D1*
X14385Y17125D1*
X14433Y17222D1*
X14482Y17271D1*
X14579D1*
X14627Y17222D1*
X14676Y17125D1*
X14700Y17028D1*
X14811Y16250D2*
Y17271D1*
X15103D1*
X13902Y12878D2*
X12881Y13073D1*
X13902Y13267D1*
Y13378D2*
X12881D1*
Y13548D1*
X12931Y13621D1*
X13027Y13670D1*
X13125Y13694D1*
X13270Y13718D1*
X13514D1*
X13660Y13694D1*
X13756Y13670D1*
X13854Y13621D1*
X13902Y13548D1*
Y13378D1*
Y13829D2*
X12881D1*
Y14000D1*
X12931Y14073D1*
X13027Y14121D1*
X13125Y14146D1*
X13270Y14170D1*
X13514D1*
X13660Y14146D1*
X13756Y14121D1*
X13854Y14073D1*
X13902Y14000D1*
Y13829D1*
X13540Y15516D2*
X13637Y15492D1*
X13734Y15443D1*
X13783Y15395D1*
Y15298D1*
X13734Y15249D1*
X13637Y15201D1*
X13540Y15176D1*
X13394Y15152D1*
X13150D1*
X13005Y15176D1*
X12908Y15201D1*
X12811Y15249D1*
X12762Y15298D1*
Y15395D1*
X12811Y15443D1*
X12908Y15492D1*
X13005Y15516D1*
X13150D1*
Y15395D1*
X13783Y15968D2*
X12762D1*
X13783Y15627D1*
X12762D1*
X13783Y16079D2*
X12762D1*
Y16249D1*
X12811Y16322D1*
X12908Y16371D1*
X13005Y16395D1*
X13150Y16419D1*
X13394D1*
X13540Y16395D1*
X13637Y16371D1*
X13734Y16322D1*
X13783Y16249D1*
Y16079D1*
X15472Y12636D2*
X15423Y12685D1*
X15375Y12782D1*
X15350Y12879D1*
X15326Y13025D1*
Y13269D1*
X15350Y13413D1*
X15375Y13511D1*
X15423Y13608D1*
X15472Y13657D1*
X15569D1*
X15617Y13608D1*
X15666Y13511D1*
X15690Y13413D1*
X15714Y13269D1*
Y13025D1*
X15690Y12879D1*
X15666Y12782D1*
X15617Y12685D1*
X15569Y12636D1*
X15472D1*
X15825Y13147D2*
X16106D1*
X14321Y12774D2*
X14272Y12822D1*
X14224Y12920D1*
X14199Y13016D1*
X14175Y13162D1*
Y13406D1*
X14199Y13551D1*
X14224Y13648D1*
X14272Y13745D1*
X14321Y13794D1*
X14418D1*
X14467Y13745D1*
X14515Y13648D1*
X14540Y13551D1*
X14564Y13406D1*
Y13162D1*
X14540Y13016D1*
X14515Y12920D1*
X14467Y12822D1*
X14418Y12774D1*
X14321D1*
X14893Y12847D2*
Y13722D1*
X14675Y13285D2*
X15112D1*
X16832Y14466D2*
Y14247D1*
X16783Y14174D1*
X16734Y14150D1*
X16637Y14125D1*
X16491D1*
X16395Y14150D1*
X16345Y14174D1*
X16297Y14247D1*
Y14466D1*
X17318D1*
X16297Y14014D2*
X17318Y13892D1*
X16297Y13771D1*
X17318Y13650D1*
X16297Y13528D1*
X17318Y13028D2*
X16297D1*
X17318Y13223D1*
X16297Y13417D1*
X17318D1*
X17336Y15810D2*
X16316Y16005D1*
X17336Y16199D1*
X16996Y16126D2*
Y15883D1*
X16316Y15358D2*
X17336D1*
X16316Y15699D1*
X17336D1*
Y14858D2*
X16316Y15053D1*
X17336Y15247D1*
X16996Y15174D2*
Y14931D1*
X16204Y16008D2*
D43*
Y15243D1*
X16077D1*
X16022Y15280D1*
X15985Y15352D1*
X15967Y15425D1*
X15949Y15534D1*
Y15717D1*
X15967Y15826D1*
X15985Y15899D1*
X16022Y15972D1*
X16077Y16008D1*
X16204D1*
X15866Y15644D2*
X15702D1*
X15647Y15681D1*
X15629Y15717D1*
X15611Y15789D1*
Y15863D1*
X15629Y15935D1*
X15647Y15972D1*
X15702Y16008D1*
X15866D1*
Y15243D1*
X15738Y15644D2*
X15611Y15243D1*
X15527Y16008D2*
X15382Y15243D1*
X15236Y16008D1*
X15134Y15825D2*
Y15862D1*
X15116Y15935D1*
X15098Y15971D1*
X15061Y16007D1*
X14988D1*
X14952Y15971D1*
X14934Y15935D1*
X14915Y15862D1*
Y15789D1*
X14934Y15716D1*
X14970Y15607D1*
X15153Y15243D1*
X14897D1*
X14595Y15899D2*
X14614Y15971D1*
X14668Y16007D1*
X14705D1*
X14759Y15971D1*
X14796Y15862D1*
X14814Y15680D1*
Y15498D1*
X14796Y15352D1*
X14759Y15279D1*
X14705Y15243D1*
X14686D1*
X14632Y15279D1*
X14595Y15352D1*
X14577Y15462D1*
Y15498D1*
X14595Y15607D1*
X14632Y15680D1*
X14686Y15716D1*
X14705D1*
X14759Y15680D1*
X14796Y15607D1*
X14814Y15498D1*
X14385Y16007D2*
X14439Y15971D1*
X14476Y15862D1*
X14494Y15680D1*
Y15570D1*
X14476Y15388D1*
X14439Y15279D1*
X14385Y15243D1*
X14348D1*
X14294Y15279D1*
X14257Y15388D1*
X14239Y15570D1*
Y15680D1*
X14257Y15862D1*
X14294Y15971D1*
X14348Y16007D1*
X14385D1*
X14257Y15862D2*
X14476Y15388D1*
X13937Y16007D2*
X14119D1*
X14137Y15680D1*
X14119Y15716D1*
X14064Y15753D1*
X14010D1*
X13955Y15716D1*
X13918Y15644D1*
X13900Y15534D1*
Y15462D1*
X13918Y15352D1*
X13955Y15279D1*
X14010Y15243D1*
X14064D1*
X14119Y15279D1*
X14137Y15316D1*
X14155Y15388D1*
X18385Y18005D2*
Y18042D1*
X18367Y18115D1*
X18349Y18151D1*
X18312Y18187D1*
X18239D1*
X18203Y18151D1*
X18185Y18115D1*
X18166Y18042D1*
Y17969D1*
X18185Y17896D1*
X18221Y17787D1*
X18403Y17423D1*
X18148D1*
X17955Y18187D2*
X18010Y18151D1*
X18047Y18042D1*
X18065Y17860D1*
Y17750D1*
X18047Y17568D1*
X18010Y17459D1*
X17955Y17423D1*
X17919D1*
X17864Y17459D1*
X17828Y17568D1*
X17810Y17750D1*
Y17860D1*
X17828Y18042D1*
X17864Y18151D1*
X17919Y18187D1*
X17955D1*
X17828Y18042D2*
X18047Y17568D1*
X17726Y18042D2*
X17690Y18079D1*
X17635Y18187D1*
Y17423D1*
X17333Y18187D2*
X17515D1*
X17533Y17860D1*
X17515Y17896D1*
X17460Y17933D1*
X17406D1*
X17351Y17896D1*
X17314Y17823D1*
X17296Y17714D1*
Y17642D1*
X17314Y17532D1*
X17351Y17459D1*
X17406Y17423D1*
X17460D1*
X17515Y17459D1*
X17533Y17496D1*
X17551Y17568D1*
X15918Y15044D2*
X16155D1*
Y14278D1*
Y14679D2*
X16010D1*
X15835Y15044D2*
Y14278D1*
X15752Y14570D2*
X15533D1*
Y14643D1*
X15551Y14716D1*
X15569Y14753D1*
X15606Y14789D1*
X15661D1*
X15697Y14753D1*
X15733Y14679D1*
X15752Y14570D1*
Y14497D1*
X15733Y14388D1*
X15697Y14315D1*
X15661Y14278D1*
X15606D1*
X15569Y14315D1*
X15533Y14388D1*
X15450Y14789D2*
X15249Y14278D1*
Y14789D2*
X15450Y14278D1*
X14538D2*
Y15044D1*
X14684Y14278D1*
X14830Y15044D1*
Y14278D1*
X14364Y14789D2*
X14400Y14753D1*
X14437Y14679D1*
X14455Y14570D1*
Y14497D1*
X14437Y14388D1*
X14400Y14315D1*
X14364Y14278D1*
X14309D1*
X14273Y14315D1*
X14236Y14388D1*
X14218Y14497D1*
Y14570D1*
X14236Y14679D1*
X14273Y14753D1*
X14309Y14789D1*
X14364D1*
X13916Y15044D2*
Y14278D1*
Y14679D2*
X13952Y14753D1*
X13989Y14789D1*
X14044D1*
X14080Y14753D1*
X14116Y14679D1*
X14135Y14570D1*
Y14497D1*
X14116Y14388D1*
X14080Y14315D1*
X14044Y14278D1*
X13989D1*
X13952Y14315D1*
X13916Y14388D1*
X13833Y14789D2*
Y14424D1*
X13815Y14315D1*
X13778Y14278D1*
X13723D1*
X13687Y14315D1*
X13632Y14424D1*
Y14789D2*
Y14278D1*
X13549Y15044D2*
Y14278D1*
X13466Y14570D2*
X13247D1*
Y14643D1*
X13265Y14716D1*
X13283Y14753D1*
X13320Y14789D1*
X13375D1*
X13411Y14753D1*
X13447Y14679D1*
X13466Y14570D1*
Y14497D1*
X13447Y14388D1*
X13411Y14315D1*
X13375Y14278D1*
X13320D1*
X13283Y14315D1*
X13247Y14388D1*
X12801Y17778D2*
X12637D1*
X12583Y17815D1*
X12564Y17852D1*
X12546Y17924D1*
Y17997D1*
X12564Y18070D1*
X12583Y18107D1*
X12637Y18143D1*
X12801D1*
Y17377D1*
X12674Y17778D2*
X12546Y17377D1*
X12463Y17996D2*
X12426Y18034D1*
X12371Y18142D1*
Y17377D1*
X12270Y17451D2*
X12288Y17414D1*
X12270Y17377D1*
X12251Y17414D1*
X12270Y17451D1*
X12058Y18142D2*
X12113Y18106D1*
X12150Y17996D1*
X12168Y17815D1*
Y17705D1*
X12150Y17523D1*
X12113Y17414D1*
X12058Y17377D1*
X12022D1*
X11967Y17414D1*
X11931Y17523D1*
X11913Y17705D1*
Y17815D1*
X11931Y17996D1*
X11967Y18106D1*
X12022Y18142D1*
X12058D1*
X11931Y17996D2*
X12150Y17523D1*
X11829Y18143D2*
Y17377D1*
X11665D1*
X11610Y17414D1*
X11592Y17451D1*
X11574Y17523D1*
Y17633D1*
X11592Y17706D1*
X11610Y17742D1*
X11665Y17778D1*
X11610Y17815D1*
X11592Y17852D1*
X11574Y17924D1*
Y17997D1*
X11592Y18070D1*
X11610Y18107D1*
X11665Y18143D1*
X11829D1*
Y17778D2*
X11665D1*
M02*
