G04 DipTrace 2.4.0.2*
%INDRV2605L.gto*%
%MOMM*%
%ADD10C,0.25*%
%ADD15C,0.152*%
%ADD21O,0.406X0.4*%
%ADD25O,0.377X0.312*%
%ADD43C,0.083*%
%FSLAX53Y53*%
G04*
G71*
G90*
G75*
G01*
%LNTopSilk*%
%LPD*%
D21*
X15136Y12453D3*
X15194Y16280D2*
D10*
X17964D1*
Y13880D1*
X15194D1*
Y16280D1*
X15218Y15446D2*
G02X15252Y14670I18J-388D01*
G01*
X13694Y12497D2*
Y13497D1*
X15094Y12497D2*
Y13497D1*
D25*
X13773Y12027D3*
X13814Y14351D2*
D15*
X14974D1*
Y15851D1*
X13814D1*
Y14351D1*
X12287Y15630D2*
G02X13637Y15630I675J-80D01*
G01*
Y13555D2*
G02X12287Y13555I-675J80D01*
G01*
X13637Y13593D2*
Y15592D1*
X12287Y13593D2*
Y15592D1*
X12474Y16994D2*
D43*
X12456Y17067D1*
X12419Y17140D1*
X12383Y17176D1*
X12310D1*
X12274Y17140D1*
X12237Y17067D1*
X12219Y16994D1*
X12201Y16885D1*
Y16702D1*
X12219Y16593D1*
X12237Y16520D1*
X12274Y16448D1*
X12310Y16411D1*
X12383D1*
X12419Y16448D1*
X12456Y16520D1*
X12474Y16593D1*
X12557Y17030D2*
X12594Y17067D1*
X12649Y17175D1*
Y16411D1*
X18185Y14875D2*
X18731D1*
X18841Y14893D1*
X18913Y14929D1*
X18950Y14984D1*
Y15020D1*
X18913Y15075D1*
X18841Y15112D1*
X18731Y15130D1*
X18185D1*
X18331Y15213D2*
X18294Y15250D1*
X18185Y15305D1*
X18950D1*
X13112Y12313D2*
Y12477D1*
X13075Y12532D1*
X13038Y12550D1*
X12966Y12568D1*
X12893D1*
X12820Y12550D1*
X12783Y12532D1*
X12747Y12477D1*
Y12313D1*
X13513D1*
X13112Y12441D2*
X13513Y12568D1*
X12893Y12652D2*
X12856Y12688D1*
X12748Y12743D1*
X13513D1*
X14028Y14332D2*
X14010Y14404D1*
X13973Y14478D1*
X13937Y14514D1*
X13864D1*
X13827Y14478D1*
X13791Y14404D1*
X13772Y14332D1*
X13754Y14222D1*
Y14040D1*
X13772Y13931D1*
X13791Y13858D1*
X13827Y13785D1*
X13864Y13748D1*
X13937D1*
X13973Y13785D1*
X14010Y13858D1*
X14028Y13931D1*
X14130Y14331D2*
Y14367D1*
X14148Y14440D1*
X14166Y14477D1*
X14202Y14513D1*
X14275D1*
X14311Y14477D1*
X14330Y14440D1*
X14348Y14367D1*
Y14295D1*
X14330Y14221D1*
X14293Y14113D1*
X14111Y13748D1*
X14366D1*
X11069Y15448D2*
X11087Y15412D1*
X11106Y15448D1*
X11087Y15485D1*
X11069Y15448D1*
X11087Y15193D2*
Y14682D1*
X11208Y15265D2*
Y15301D1*
X11226Y15375D1*
X11244Y15411D1*
X11280Y15447D1*
X11353D1*
X11390Y15411D1*
X11408Y15375D1*
X11426Y15301D1*
Y15229D1*
X11408Y15156D1*
X11371Y15047D1*
X11189Y14682D1*
X11444D1*
X11747Y15083D2*
X11710Y15156D1*
X11673Y15193D1*
X11619D1*
X11582Y15156D1*
X11546Y15083D1*
X11528Y14974D1*
Y14901D1*
X11546Y14792D1*
X11582Y14719D1*
X11619Y14682D1*
X11673D1*
X11710Y14719D1*
X11747Y14792D1*
X11830Y15083D2*
X11994D1*
X12049Y15120D1*
X12067Y15156D1*
X12085Y15229D1*
Y15302D1*
X12067Y15375D1*
X12049Y15412D1*
X11994Y15448D1*
X11830D1*
Y14682D1*
X11958Y15083D2*
X12085Y14682D1*
X11233Y18128D2*
X11379Y17363D1*
X11525Y18128D1*
X11608D2*
Y17363D1*
X11736D1*
X11790Y17400D1*
X11827Y17472D1*
X11845Y17546D1*
X11863Y17654D1*
Y17837D1*
X11845Y17947D1*
X11827Y18019D1*
X11790Y18092D1*
X11736Y18128D1*
X11608D1*
X11947D2*
Y17363D1*
X12074D1*
X12129Y17400D1*
X12166Y17472D1*
X12184Y17546D1*
X12202Y17654D1*
Y17837D1*
X12184Y17947D1*
X12166Y18019D1*
X12129Y18092D1*
X12074Y18128D1*
X11947D1*
X11439Y12622D2*
X11421Y12694D1*
X11384Y12767D1*
X11348Y12804D1*
X11275D1*
X11238Y12767D1*
X11202Y12694D1*
X11184Y12622D1*
X11166Y12512D1*
Y12329D1*
X11184Y12221D1*
X11202Y12147D1*
X11238Y12075D1*
X11275Y12038D1*
X11348D1*
X11384Y12075D1*
X11421Y12147D1*
X11439Y12221D1*
Y12329D1*
X11348D1*
X11777Y12804D2*
Y12038D1*
X11522Y12804D1*
Y12038D1*
X11861Y12804D2*
Y12038D1*
X11988D1*
X12043Y12075D1*
X12080Y12147D1*
X12098Y12221D1*
X12116Y12329D1*
Y12512D1*
X12098Y12622D1*
X12080Y12694D1*
X12043Y12767D1*
X11988Y12804D1*
X11861D1*
X12338Y18878D2*
X12302Y18842D1*
X12266Y18768D1*
X12247Y18696D1*
X12229Y18586D1*
Y18404D1*
X12247Y18295D1*
X12266Y18222D1*
X12302Y18149D1*
X12338Y18112D1*
X12411D1*
X12447Y18149D1*
X12484Y18222D1*
X12502Y18295D1*
X12520Y18404D1*
Y18586D1*
X12502Y18696D1*
X12484Y18768D1*
X12447Y18842D1*
X12411Y18878D1*
X12338D1*
X12604Y18495D2*
X12814D1*
X17490Y18937D2*
X17454Y18901D1*
X17417Y18827D1*
X17399Y18755D1*
X17381Y18645D1*
Y18463D1*
X17399Y18354D1*
X17417Y18281D1*
X17454Y18208D1*
X17490Y18171D1*
X17563D1*
X17599Y18208D1*
X17636Y18281D1*
X17654Y18354D1*
X17672Y18463D1*
Y18645D1*
X17654Y18755D1*
X17636Y18827D1*
X17599Y18901D1*
X17563Y18937D1*
X17490D1*
X17919Y18882D2*
Y18225D1*
X17755Y18553D2*
X18084D1*
X17861Y12449D2*
X18026D1*
X18080Y12485D1*
X18099Y12522D1*
X18117Y12595D1*
Y12704D1*
X18099Y12777D1*
X18080Y12814D1*
X18026Y12850D1*
X17861D1*
Y12084D1*
X18200Y12850D2*
X18291Y12084D1*
X18382Y12850D1*
X18473Y12084D1*
X18565Y12850D1*
X18940Y12084D2*
Y12850D1*
X18794Y12084D1*
X18648Y12850D1*
Y12084D1*
X18310Y17344D2*
X18164Y18110D1*
X18019Y17344D1*
X18073Y17599D2*
X18256D1*
X18649Y18110D2*
Y17344D1*
X18394Y18110D1*
Y17344D1*
X19024D2*
X18878Y18110D1*
X18732Y17344D1*
X18787Y17599D2*
X18969D1*
X17437Y11298D2*
X17364Y11262D1*
X17328Y11207D1*
Y11135D1*
X17364Y11080D1*
X17437Y11043D1*
X17509D1*
X17583Y11062D1*
X17619Y11080D1*
X17655Y11116D1*
X17728Y11226D1*
X17765Y11262D1*
X17802Y11280D1*
X17874Y11298D1*
X17984D1*
X18056Y11262D1*
X18093Y11207D1*
Y11135D1*
X18056Y11080D1*
X17984Y11043D1*
X17328Y11382D2*
X18093D1*
Y11509D1*
X18056Y11564D1*
X17984Y11601D1*
X17910Y11619D1*
X17802Y11637D1*
X17619D1*
X17509Y11619D1*
X17437Y11601D1*
X17364Y11564D1*
X17328Y11509D1*
Y11382D1*
X18093Y12012D2*
X17328Y11866D1*
X18093Y11720D1*
X17838Y11775D2*
Y11957D1*
X12150Y11446D2*
X12077Y11409D1*
X12040Y11355D1*
Y11282D1*
X12077Y11227D1*
X12150Y11190D1*
X12222D1*
X12296Y11209D1*
X12332Y11227D1*
X12368Y11263D1*
X12441Y11373D1*
X12478Y11409D1*
X12515Y11428D1*
X12587Y11446D1*
X12697D1*
X12769Y11409D1*
X12806Y11355D1*
Y11282D1*
X12769Y11227D1*
X12697Y11190D1*
X12222Y11802D2*
X12150Y11784D1*
X12077Y11748D1*
X12041Y11711D1*
Y11638D1*
X12077Y11602D1*
X12150Y11566D1*
X12222Y11547D1*
X12332Y11529D1*
X12515D1*
X12623Y11547D1*
X12697Y11566D1*
X12769Y11602D1*
X12806Y11638D1*
Y11711D1*
X12769Y11748D1*
X12697Y11784D1*
X12623Y11802D1*
X12041Y11886D2*
X12806D1*
Y12104D1*
M02*
