G04 DipTrace 2.4.0.2*
%INDRV2605L.gbl*%
%MOMM*%
%ADD13C,0.254*%
%ADD20R,1.6X1.7*%
%ADD22R,2.032X1.7*%
%ADD24R,1.7X1.6*%
%ADD25R,1.7X2.032*%
%ADD30C,0.457*%
%FSLAX53Y53*%
G04*
G71*
G90*
G75*
G01*
%LNBottom*%
%LPD*%
X17079Y14742D2*
D13*
X16626Y14288D1*
X15500D1*
X15149Y13938D1*
X14105D1*
X13178Y13010D1*
X13004D1*
X12604Y12610D1*
X12159D1*
Y12519D1*
X17079Y14742D2*
D3*
X18890Y16350D2*
X17728D1*
X12435D2*
X11270D1*
X10000D1*
X15928Y13721D2*
X15537D1*
X15323Y13507D1*
X14267D1*
X13805Y13046D1*
Y11275D1*
X13810Y11270D1*
Y12433D1*
X16350Y11270D2*
Y12433D1*
X18890Y13810D2*
X18783D1*
X17346Y15247D1*
X16920D1*
X15910Y16257D1*
X14741Y13001D2*
Y13058D1*
X18138D1*
X18890Y13810D1*
X17725D1*
X14881Y16826D2*
X14981D1*
X15058Y16903D1*
X16370D1*
X16869Y16404D1*
X16905D1*
X14881Y16826D2*
Y17053D1*
X13850Y18084D1*
Y18850D1*
X13810Y18890D1*
Y17728D1*
X16350Y18890D2*
Y17725D1*
X14709Y15003D2*
Y14921D1*
X10000Y13810D2*
X11270D1*
X12433D1*
D30*
X12159Y12519D3*
X16905Y16404D3*
X14741Y13001D3*
X15661Y14890D3*
X13458Y14038D3*
X14709Y14921D3*
X17079Y14742D3*
X15910Y16257D3*
X15928Y13721D3*
X14881Y16826D3*
D20*
X18890Y13810D3*
Y16350D3*
D22*
X20160Y13810D3*
Y16350D3*
G36*
X17630Y17200D2*
X18095D1*
Y15500D1*
X17630D1*
X17360Y16025D1*
Y16675D1*
X17630Y17200D1*
G37*
G36*
Y14660D2*
X18090D1*
Y12960D1*
X17630D1*
X17360Y13485D1*
Y14135D1*
X17630Y14660D1*
G37*
D24*
X16350Y18890D3*
X13810D3*
D25*
X16350Y20160D3*
X13810D3*
G36*
X12960Y17630D2*
Y18095D1*
X14660D1*
Y17630D1*
X14135Y17360D1*
X13485D1*
X12960Y17630D1*
G37*
G36*
X15500D2*
Y18090D1*
X17200D1*
Y17630D1*
X16675Y17360D1*
X16025D1*
X15500Y17630D1*
G37*
D24*
X16350Y11270D3*
X13810D3*
G36*
X14660Y12530D2*
Y12065D1*
X12960D1*
Y12530D1*
X13485Y12800D1*
X14135D1*
X14660Y12530D1*
G37*
G36*
X17200D2*
Y12065D1*
X15500D1*
Y12530D1*
X16025Y12800D1*
X16675D1*
X17200Y12530D1*
G37*
D25*
X16350Y10000D3*
X13810D3*
D20*
X11270Y16350D3*
Y13810D3*
D22*
X10000Y16350D3*
Y13810D3*
G36*
X12530Y12960D2*
X12065D1*
Y14660D1*
X12530D1*
X12800Y14135D1*
Y13485D1*
X12530Y12960D1*
G37*
G36*
Y15500D2*
X12070D1*
Y17200D1*
X12530D1*
X12800Y16675D1*
Y16025D1*
X12530Y15500D1*
G37*
G36*
X17932Y11678D2*
X18123Y11707D1*
X18270Y11767D1*
X18364Y11843D1*
X18440Y11920D1*
X18504Y12032D1*
X18529Y12097D1*
X18549Y12193D1*
X18559Y12243D1*
X18564Y12326D1*
X18542Y12391D1*
X18504Y12429D1*
X18478Y12454D1*
X18465Y12518D1*
X18470Y12544D1*
X18485Y12594D1*
X18516Y12622D1*
X18435Y12721D1*
X18358Y12671D1*
X18341D1*
X18305Y12759D1*
X18250Y12772D1*
X18148Y12782D1*
X18255Y12529D1*
Y12497D1*
X18247Y12454D1*
X18224Y12444D1*
X18173Y12464D1*
X18110Y12580D1*
X18039Y12751D1*
X17988Y12726D1*
X17934Y12662D1*
X18008Y12472D1*
X17970Y12478D1*
X17932D1*
Y11678D1*
G37*
M02*
