G04 DipTrace 2.4.0.2*
%INDRV2605L.gtl*%
%MOMM*%
%ADD13C,0.152*%
%ADD14R,1.1X1.0*%
%ADD15R,1.6X1.7*%
%ADD16R,2.032X1.7*%
%ADD17R,1.7X1.6*%
%ADD18R,1.7X2.032*%
%ADD20R,0.3X1.35*%
%ADD24R,0.5X0.4*%
%ADD25R,0.45X0.3*%
%ADD27R,1.2X0.737*%
%ADD28C,0.686*%
%FSLAX53Y53*%
G04*
G71*
G90*
G75*
G01*
%LNTop*%
%LPD*%
X14768Y15443D2*
D13*
X14894D1*
X15468Y14869D1*
X14440Y13586D2*
X14497D1*
X14122Y13210D1*
X14548Y12783D1*
X14440Y13586D2*
Y13742D1*
X14749Y14051D1*
Y14318D1*
Y14784D1*
X14768Y14803D1*
X14749Y14318D2*
X15621D1*
G02X16283Y14456I483J-660D01*
G01*
X16525Y14215D1*
Y14194D1*
X16642Y14077D1*
Y12999D1*
X16553Y12910D1*
X13637Y16950D2*
Y16815D1*
X12963Y16141D1*
X13637Y17650D2*
X12517D1*
X12486Y17680D1*
X12963Y13957D2*
X13447D1*
X13556Y13848D1*
X16053Y12910D2*
Y13903D1*
X17053Y12910D2*
Y11973D1*
X16350Y11270D1*
X16053Y17210D2*
X16026D1*
Y16788D1*
X15972Y16734D1*
Y16514D1*
X15519Y16061D1*
Y15596D1*
X15883Y15232D1*
X17779D1*
X18890Y14121D1*
Y13810D1*
X14018Y15443D2*
X14382Y15807D1*
X15307D1*
X15519Y15596D1*
X14637Y17650D2*
X14400D1*
X13160Y18890D1*
X13810D1*
X17053Y17210D2*
Y16551D1*
X16833Y16331D1*
X16564D1*
X16070Y15837D1*
X16553Y17210D2*
Y18687D1*
X16350Y18890D1*
X14637Y16950D2*
X14699D1*
X15132Y17382D1*
Y17957D1*
X15601Y18426D1*
X15886D1*
X16350Y18890D1*
X11270Y13810D2*
Y14143D1*
X12016Y14889D1*
X12803D1*
X12963Y15049D1*
X15553Y12910D2*
Y13461D1*
X15248Y13766D1*
X11270Y13810D2*
X11821D1*
X12848Y12783D1*
X17553Y12910D2*
Y13959D1*
X17006Y14507D1*
X15553Y17210D2*
Y16978D1*
X14940Y16364D1*
X14134D1*
X14063Y16293D1*
X17553Y17210D2*
Y16449D1*
X16888Y15784D1*
X14128Y14429D2*
Y14693D1*
X14018Y14803D1*
D28*
X16053Y13903D3*
X15248Y13766D3*
X15468Y14869D3*
X17006Y14507D3*
X14440Y13586D3*
X16888Y15784D3*
X16070Y15837D3*
X14128Y14429D3*
X12486Y17680D3*
X14063Y16293D3*
X13556Y13848D3*
X12617Y18988D2*
D13*
X12710D1*
X12467Y18838D2*
X12710D1*
X12319Y18689D2*
X12710D1*
X12169Y18540D2*
X12710D1*
X12019Y18391D2*
X12710D1*
X11871Y18242D2*
X12341D1*
X12633D2*
X12710D1*
X11721Y18093D2*
X12067D1*
X11574Y17944D2*
X11958D1*
X11424Y17795D2*
X11905D1*
X11274Y17646D2*
X11896D1*
X11126Y17497D2*
X11924D1*
X10976Y17348D2*
X11998D1*
X10828Y17199D2*
X12153D1*
X12819D2*
X13136D1*
X10678Y17050D2*
X13136D1*
X10591Y16901D2*
X13136D1*
X10591Y16752D2*
X12581D1*
X10591Y16602D2*
X12353D1*
X10591Y16453D2*
X12248D1*
X10591Y16304D2*
X12169D1*
X10591Y16155D2*
X12117D1*
X10591Y16006D2*
X12115D1*
X10591Y15857D2*
X12096D1*
X10591Y15708D2*
X12096D1*
X10591Y15559D2*
X12096D1*
X10591Y15410D2*
X12096D1*
X10591Y15261D2*
X12096D1*
X10591Y15112D2*
X11784D1*
X10591Y14963D2*
X11636D1*
X14493D2*
X14882D1*
X14574Y14814D2*
X14877D1*
X14669Y14665D2*
X14913D1*
X14715Y14516D2*
X14996D1*
X14717Y14366D2*
X15170D1*
X14681Y14217D2*
X14875D1*
X14593Y14068D2*
X14741D1*
X14415Y13919D2*
X14677D1*
X14143Y13770D2*
X14656D1*
X14103Y13621D2*
X14675D1*
X14010Y13472D2*
X14736D1*
X13810Y13323D2*
X14863D1*
X13648Y13174D2*
X15153D1*
X13648Y13025D2*
X15153D1*
X13648Y12876D2*
X15153D1*
X13648Y12727D2*
X15153D1*
X13648Y12578D2*
X15153D1*
X13648Y12429D2*
X15153D1*
X14910Y12280D2*
X15153D1*
X14910Y12130D2*
X15153D1*
X14910Y11981D2*
X15251D1*
X14910Y11832D2*
X15251D1*
X14910Y11683D2*
X15251D1*
X14910Y11534D2*
X15251D1*
X14910Y11385D2*
X15251D1*
X14910Y11236D2*
X15251D1*
X14910Y11087D2*
X15251D1*
X14910Y10938D2*
X15251D1*
X14910Y10789D2*
X15251D1*
X14910Y10640D2*
X15251D1*
X13633Y13277D2*
Y12306D1*
X14895Y12305D1*
Y10574D1*
X15071Y10576D1*
X15265Y10578D1*
X15268Y11251D1*
X15265Y11302D1*
Y12000D1*
X15168D1*
X15165Y13194D1*
X15091Y13210D1*
X15019Y13235D1*
X14951Y13270D1*
X14889Y13314D1*
X14832Y13365D1*
X14783Y13423D1*
X14742Y13487D1*
X14710Y13556D1*
X14687Y13629D1*
X14674Y13704D1*
X14671Y13780D1*
X14678Y13856D1*
X14695Y13930D1*
X14721Y14001D1*
X14757Y14069D1*
X14801Y14131D1*
X14853Y14186D1*
X14911Y14235D1*
X14976Y14275D1*
X15046Y14306D1*
X15118Y14328D1*
X15234Y14342D1*
X15171Y14374D1*
X15108Y14417D1*
X15052Y14469D1*
X15003Y14527D1*
X14962Y14591D1*
X14930Y14660D1*
X14907Y14733D1*
X14893Y14808D1*
X14890Y14884D1*
X14905Y14994D1*
X14839Y15059D1*
X14475Y15058D1*
X14478Y14890D1*
X14553Y14819D1*
X14601Y14760D1*
X14641Y14695D1*
X14671Y14625D1*
X14692Y14552D1*
X14705Y14429D1*
X14700Y14353D1*
X14685Y14278D1*
X14661Y14206D1*
X14627Y14138D1*
X14584Y14075D1*
X14534Y14018D1*
X14476Y13968D1*
X14413Y13926D1*
X14344Y13893D1*
X14272Y13869D1*
X14197Y13855D1*
X14134Y13848D1*
X14128Y13772D1*
X14114Y13698D1*
X14089Y13626D1*
X14055Y13557D1*
X14012Y13494D1*
X13962Y13437D1*
X13904Y13388D1*
X13841Y13346D1*
X13772Y13313D1*
X13700Y13289D1*
X13632Y13276D1*
X12725Y18205D2*
Y19112D1*
X10576Y16962D1*
X10578Y14895D1*
X11251Y14892D1*
X11302Y14895D1*
X11581D1*
X11796Y15109D1*
X11856Y15155D1*
X11925Y15186D1*
X12016Y15200D1*
X12109D1*
X12110Y15978D1*
X12131D1*
X12129Y16112D1*
X12144Y16195D1*
X12207Y16362D1*
X12275Y16469D1*
X12371Y16607D1*
X12415Y16654D1*
X12527Y16716D1*
X12658Y16782D1*
X12720Y16803D1*
X12920Y16841D1*
X13007D1*
X13155Y16813D1*
X13152Y16972D1*
Y17341D1*
X12953Y17339D1*
X12892Y17269D1*
X12835Y17219D1*
X12771Y17178D1*
X12702Y17144D1*
X12630Y17121D1*
X12555Y17107D1*
X12479Y17103D1*
X12403Y17108D1*
X12329Y17124D1*
X12257Y17150D1*
X12189Y17185D1*
X12127Y17228D1*
X12070Y17279D1*
X12021Y17337D1*
X11980Y17402D1*
X11948Y17471D1*
X11925Y17543D1*
X11912Y17618D1*
X11909Y17694D1*
X11916Y17770D1*
X11933Y17844D1*
X11959Y17916D1*
X11995Y17983D1*
X12039Y18045D1*
X12091Y18101D1*
X12149Y18149D1*
X12214Y18189D1*
X12283Y18221D1*
X12356Y18243D1*
X12432Y18255D1*
X12508Y18257D1*
X12583Y18249D1*
X12657Y18232D1*
X12726Y18205D1*
D14*
X12848Y12783D3*
X14548D3*
D15*
X18890Y13810D3*
Y16350D3*
D16*
X20160Y13810D3*
Y16350D3*
D17*
X16350Y18890D3*
X13810D3*
D18*
X16350Y20160D3*
X13810D3*
D17*
X16350Y11270D3*
X13810D3*
D18*
X16350Y10000D3*
X13810D3*
D15*
X11270Y16350D3*
Y13810D3*
D16*
X10000Y16350D3*
Y13810D3*
D20*
X17553Y17210D3*
X17053D3*
X16553D3*
X16053D3*
X15553D3*
Y12910D3*
X16053D3*
X16553D3*
X17053D3*
X17553D3*
D24*
X14637Y16950D3*
Y17650D3*
X13637D3*
Y16950D3*
D25*
X14018Y15443D3*
Y14803D3*
X14768D3*
Y15443D3*
G36*
X13563Y16112D2*
Y15672D1*
X12363D1*
Y16112D1*
X12423Y16272D1*
X12563Y16472D1*
X12763Y16572D1*
X12963Y16610D1*
X13163Y16572D1*
X13363Y16472D1*
X13503Y16272D1*
X13563Y16112D1*
G37*
G36*
X12363Y13986D2*
Y14426D1*
X13563D1*
Y13986D1*
X13503Y13826D1*
X13363Y13626D1*
X13163Y13526D1*
X12963Y13488D1*
X12763Y13526D1*
X12563Y13626D1*
X12423Y13826D1*
X12363Y13986D1*
G37*
D27*
X12963Y15049D3*
M02*
