G04 DipTrace 2.4.0.2*
%INDRV2605L.gto*%
%MOMM*%
%ADD10C,0.25*%
%ADD26O,0.406X0.4*%
%ADD43C,0.083*%
%FSLAX53Y53*%
G04*
G71*
G90*
G75*
G01*
%LNTopSilk*%
%LPD*%
D26*
X17863Y17687D3*
X17805Y13860D2*
D10*
X15035D1*
Y16260D1*
X17805D1*
Y13860D1*
X17781Y14694D2*
G02X17747Y15470I-18J388D01*
G01*
X11563Y15127D2*
D43*
X11490Y15109D1*
X11417Y15073D1*
X11381Y15036D1*
Y14964D1*
X11417Y14927D1*
X11490Y14891D1*
X11563Y14872D1*
X11672Y14854D1*
X11855D1*
X11964Y14872D1*
X12037Y14891D1*
X12110Y14927D1*
X12147Y14964D1*
Y15036D1*
X12110Y15073D1*
X12037Y15109D1*
X11964Y15127D1*
X11527Y15211D2*
X11490Y15247D1*
X11382Y15302D1*
X12147D1*
X14576Y14454D2*
X14558Y14526D1*
X14521Y14599D1*
X14485Y14635D1*
X14412D1*
X14375Y14599D1*
X14339Y14526D1*
X14321Y14454D1*
X14302Y14344D1*
Y14161D1*
X14321Y14053D1*
X14339Y13979D1*
X14375Y13907D1*
X14412Y13870D1*
X14485D1*
X14521Y13907D1*
X14558Y13979D1*
X14576Y14053D1*
X14678Y14453D2*
Y14489D1*
X14696Y14562D1*
X14714Y14598D1*
X14750Y14635D1*
X14823D1*
X14860Y14598D1*
X14878Y14562D1*
X14896Y14489D1*
Y14416D1*
X14878Y14343D1*
X14841Y14235D1*
X14659Y13870D1*
X14914D1*
X14903Y12540D2*
X14885Y12612D1*
X14849Y12685D1*
X14812Y12722D1*
X14739D1*
X14703Y12685D1*
X14667Y12612D1*
X14648Y12540D1*
X14630Y12430D1*
Y12247D1*
X14648Y12139D1*
X14667Y12065D1*
X14703Y11993D1*
X14739Y11956D1*
X14812D1*
X14849Y11993D1*
X14885Y12065D1*
X14903Y12139D1*
X15023Y12721D2*
X15223D1*
X15114Y12429D1*
X15169D1*
X15205Y12393D1*
X15223Y12357D1*
X15242Y12247D1*
Y12175D1*
X15223Y12065D1*
X15187Y11992D1*
X15132Y11956D1*
X15078D1*
X15023Y11992D1*
X15005Y12029D1*
X14987Y12102D1*
X14058Y15668D2*
Y15831D1*
X14021Y15886D1*
X13984Y15905D1*
X13912Y15923D1*
X13839D1*
X13766Y15905D1*
X13729Y15886D1*
X13693Y15831D1*
Y15668D1*
X14459D1*
X14058Y15795D2*
X14459Y15923D1*
X13839Y16006D2*
X13802Y16043D1*
X13694Y16098D1*
X14459D1*
X14590Y17587D2*
X14753D1*
X14808Y17624D1*
X14827Y17660D1*
X14845Y17732D1*
Y17806D1*
X14827Y17878D1*
X14808Y17915D1*
X14753Y17951D1*
X14590D1*
Y17186D1*
X14717Y17587D2*
X14845Y17186D1*
X14947Y17769D2*
Y17805D1*
X14965Y17878D1*
X14983Y17914D1*
X15019Y17950D1*
X15092D1*
X15129Y17914D1*
X15147Y17878D1*
X15165Y17805D1*
Y17732D1*
X15147Y17659D1*
X15110Y17550D1*
X14928Y17186D1*
X15183D1*
X18023Y14889D2*
X18569D1*
X18679Y14907D1*
X18751Y14944D1*
X18788Y14999D1*
Y15035D1*
X18751Y15090D1*
X18679Y15126D1*
X18569Y15145D1*
X18023D1*
X18169Y15228D2*
X18132Y15265D1*
X18023Y15319D1*
X18788D1*
X10896Y12885D2*
X11042Y12120D1*
X11188Y12885D1*
X11271D2*
Y12120D1*
X11398D1*
X11453Y12157D1*
X11490Y12229D1*
X11508Y12302D1*
X11526Y12411D1*
Y12594D1*
X11508Y12703D1*
X11490Y12776D1*
X11453Y12849D1*
X11398Y12885D1*
X11271D1*
X11609D2*
Y12120D1*
X11737D1*
X11792Y12157D1*
X11828Y12229D1*
X11847Y12302D1*
X11865Y12411D1*
Y12594D1*
X11847Y12703D1*
X11828Y12776D1*
X11792Y12849D1*
X11737Y12885D1*
X11609D1*
X11381Y17894D2*
X11363Y17966D1*
X11327Y18039D1*
X11290Y18076D1*
X11218D1*
X11181Y18039D1*
X11145Y17966D1*
X11126Y17894D1*
X11108Y17784D1*
Y17601D1*
X11126Y17493D1*
X11145Y17419D1*
X11181Y17347D1*
X11218Y17310D1*
X11290D1*
X11327Y17347D1*
X11363Y17419D1*
X11381Y17493D1*
Y17601D1*
X11290D1*
X11720Y18076D2*
Y17310D1*
X11465Y18076D1*
Y17310D1*
X11803Y18076D2*
Y17310D1*
X11931D1*
X11986Y17347D1*
X12022Y17419D1*
X12040Y17493D1*
X12059Y17601D1*
Y17784D1*
X12040Y17894D1*
X12022Y17966D1*
X11986Y18039D1*
X11931Y18076D1*
X11803D1*
X17415Y12142D2*
X17379Y12106D1*
X17342Y12032D1*
X17324Y11960D1*
X17306Y11850D1*
Y11668D1*
X17324Y11559D1*
X17342Y11486D1*
X17379Y11413D1*
X17415Y11376D1*
X17488D1*
X17524Y11413D1*
X17561Y11486D1*
X17579Y11559D1*
X17597Y11668D1*
Y11850D1*
X17579Y11960D1*
X17561Y12032D1*
X17524Y12106D1*
X17488Y12142D1*
X17415D1*
X17681Y11759D2*
X17891D1*
X12329Y12169D2*
X12293Y12132D1*
X12257Y12059D1*
X12238Y11987D1*
X12220Y11877D1*
Y11694D1*
X12238Y11586D1*
X12257Y11513D1*
X12293Y11440D1*
X12329Y11403D1*
X12402D1*
X12439Y11440D1*
X12475Y11513D1*
X12493Y11586D1*
X12511Y11694D1*
Y11877D1*
X12493Y11987D1*
X12475Y12059D1*
X12439Y12132D1*
X12402Y12169D1*
X12329D1*
X12759Y12114D2*
Y11457D1*
X12595Y11785D2*
X12923D1*
X17734Y12484D2*
X17898D1*
X17953Y12520D1*
X17971Y12557D1*
X17989Y12629D1*
Y12739D1*
X17971Y12811D1*
X17953Y12848D1*
X17898Y12884D1*
X17734D1*
Y12119D1*
X18073Y12884D2*
X18164Y12119D1*
X18255Y12884D1*
X18346Y12119D1*
X18437Y12884D1*
X18812Y12119D2*
Y12884D1*
X18667Y12119D1*
X18521Y12884D1*
Y12119D1*
X18376Y17278D2*
X18230Y18044D1*
X18085Y17278D1*
X18139Y17533D2*
X18322D1*
X18715Y18044D2*
Y17278D1*
X18460Y18044D1*
Y17278D1*
X19090D2*
X18944Y18044D1*
X18798Y17278D1*
X18853Y17533D2*
X19035D1*
X17419Y18232D2*
X17346Y18196D1*
X17310Y18141D1*
Y18068D1*
X17346Y18013D1*
X17419Y17977D1*
X17492D1*
X17565Y17995D1*
X17601Y18013D1*
X17637Y18049D1*
X17711Y18159D1*
X17747Y18196D1*
X17784Y18214D1*
X17856Y18232D1*
X17966D1*
X18038Y18196D1*
X18075Y18141D1*
Y18068D1*
X18038Y18013D1*
X17966Y17977D1*
X17310Y18315D2*
X18075D1*
Y18443D1*
X18038Y18497D1*
X17966Y18534D1*
X17893Y18552D1*
X17784Y18570D1*
X17601D1*
X17492Y18552D1*
X17419Y18534D1*
X17346Y18497D1*
X17310Y18443D1*
Y18315D1*
X18075Y18945D2*
X17310Y18799D1*
X18075Y18654D1*
X17820Y18708D2*
Y18891D1*
X12197Y18385D2*
X12124Y18349D1*
X12088Y18294D1*
Y18221D1*
X12124Y18167D1*
X12197Y18130D1*
X12270D1*
X12343Y18148D1*
X12379Y18167D1*
X12415Y18203D1*
X12489Y18312D1*
X12525Y18349D1*
X12562Y18367D1*
X12634Y18385D1*
X12744D1*
X12816Y18349D1*
X12853Y18294D1*
Y18221D1*
X12816Y18167D1*
X12744Y18130D1*
X12270Y18742D2*
X12197Y18724D1*
X12124Y18687D1*
X12088Y18651D1*
Y18578D1*
X12124Y18541D1*
X12197Y18505D1*
X12270Y18487D1*
X12379Y18468D1*
X12562D1*
X12671Y18487D1*
X12744Y18505D1*
X12816Y18541D1*
X12853Y18578D1*
Y18651D1*
X12816Y18687D1*
X12744Y18724D1*
X12671Y18742D1*
X12088Y18825D2*
X12853D1*
Y19044D1*
M02*
