M48
METRIC,0000.00
T01C0.254
T02C1.1
%
T01
X+001217Y+001253
X+001475Y+001301
X+001594Y+001373
X+001567Y+001490
X+001472Y+001493
X+001592Y+001627
X+001691Y+001641
X+001709Y+001475
X+001489Y+001683
T02
X+001890Y+001382
X+002017Y+001382
X+002017Y+001636
X+001890Y+001636
X+001636Y+001890
X+001636Y+002017
X+001382Y+002017
X+001382Y+001890
X+001128Y+001636
X+001001Y+001636
X+001001Y+001382
X+001128Y+001382
X+001382Y+001128
X+001382Y+001001
X+001636Y+001001
X+001636Y+001128
T00
M30
