G04 DipTrace 3.0.0.2*
G04 DRV2605L_ADJUSTED2.gtl*
%MOIN*%
G04 #@! TF.FileFunction,Copper,L1,Top*
G04 #@! TF.Part,Single*
%AMOUTLINE9*
4,1,11,
0.023622,-0.001144,
0.023622,-0.018467,
-0.023622,-0.018467,
-0.023622,-0.001144,
-0.02126,0.005155,
-0.015748,0.013029,
-0.007874,0.016967,
0.0,0.018467,
0.007874,0.016966,
0.015748,0.013029,
0.02126,0.005155,
0.023622,-0.001144,
0*%
%AMOUTLINE12*
4,1,11,
-0.023622,0.001144,
-0.023622,0.018467,
0.023622,0.018467,
0.023622,0.001144,
0.02126,-0.005155,
0.015748,-0.013029,
0.007874,-0.016967,
0.0,-0.018467,
-0.007874,-0.016966,
-0.015748,-0.013029,
-0.02126,-0.005155,
-0.023622,0.001144,
0*%
G04 #@! TA.AperFunction,Conductor*
%ADD13C,0.008*%
%ADD14C,0.01*%
G04 #@! TA.AperFunction,CopperBalancing*
%ADD15C,0.006*%
%ADD16R,0.035433X0.027559*%
%ADD18R,0.017717X0.011811*%
G04 #@! TA.AperFunction,ComponentPad*
%ADD19R,0.062992X0.066929*%
%ADD20R,0.08X0.066929*%
%ADD21R,0.066929X0.062992*%
%ADD22R,0.066929X0.08*%
%ADD24R,0.047244X0.029*%
%ADD26R,0.015748X0.019685*%
%ADD28R,0.011811X0.05315*%
%ADD31R,0.07874X0.066929*%
%ADD32R,0.066929X0.07874*%
G04 #@! TA.AperFunction,ViaPad*
%ADD33C,0.027*%
%ADD72OUTLINE9*%
%ADD75OUTLINE12*%
%FSLAX26Y26*%
G04*
G70*
G90*
G75*
G01*
G04 Top*
%LPD*%
X399822Y249894D2*
D13*
X349822D1*
X158058Y188106D2*
Y175340D1*
X163934Y169463D1*
X-178Y149894D2*
X49822D1*
X158058Y213303D2*
X177222Y232467D1*
Y253761D1*
X182881D1*
X258822Y284539D2*
Y257814D1*
X264310Y252325D1*
Y223127D1*
X266713D1*
X182881Y253761D2*
X184236D1*
Y267631D1*
X178104Y273764D1*
X186601Y137579D2*
D14*
Y147264D1*
X192870Y153533D1*
X116421Y223697D2*
X132157D1*
X149244Y240783D1*
X152218D1*
X116421Y137697D2*
X158924D1*
X159042Y137579D1*
X249822Y399894D2*
D15*
Y349894D1*
X278507Y284539D2*
Y321209D1*
X249822Y349894D1*
X149822Y399894D2*
D13*
Y349894D1*
X239136Y284539D2*
Y242969D1*
X240180D1*
X399822Y149894D2*
X349822D1*
X339622Y160093D1*
X187585Y188106D2*
X202594D1*
X203822Y186879D1*
X278507Y115248D2*
Y156167D1*
X278289D1*
X149822Y-106D2*
Y49894D1*
X159042Y98209D2*
Y59114D1*
X149822Y49894D1*
X239136Y115248D2*
Y155615D1*
X240303Y156782D1*
X249822Y-106D2*
D15*
Y49894D1*
X186601Y98209D2*
D13*
X188476D1*
X205703Y80982D1*
Y79444D1*
X234566Y50581D1*
X249134D1*
X249822Y49894D1*
X258822Y115248D2*
D15*
Y58894D1*
X249822Y49894D1*
X-178Y249894D2*
X49822D1*
X116421Y180697D2*
D14*
X102606D1*
X89664Y193639D1*
X86497D1*
X49822Y230315D1*
Y249894D1*
X219451Y284539D2*
D15*
X216948D1*
Y233459D1*
X253286Y197121D1*
X280613D1*
X298192Y214699D1*
X300331Y216839D1*
Y282400D1*
X298192Y284539D1*
Y115248D2*
X301371D1*
X309247Y123123D1*
Y214699D1*
X298192D1*
X219451Y115248D2*
D13*
X216552D1*
Y166314D1*
X228802Y178563D1*
Y195186D1*
X211699Y212289D1*
X188600D1*
X187585Y213303D1*
D33*
X240180Y242969D3*
X240303Y156782D3*
X203822Y186879D3*
X163934Y169463D3*
X192870Y153533D3*
X182881Y253761D3*
X152218Y240783D3*
X266713Y223127D3*
X278289Y156167D3*
X193140Y365041D2*
D15*
X206566D1*
X193140Y359172D2*
X206566D1*
X193140Y353303D2*
X206566D1*
X193140Y347434D2*
X206566D1*
X99577Y341566D2*
X106534D1*
X193140D2*
X206566D1*
X293077D2*
X300034D1*
X93672Y335697D2*
X106534D1*
X193140D2*
X206566D1*
X293077D2*
X305940D1*
X87858Y329828D2*
X106534D1*
X193140D2*
X206566D1*
X293077D2*
X311753D1*
X81953Y323959D2*
X106534D1*
X193140D2*
X206566D1*
X293077D2*
X317659D1*
X76046Y318091D2*
X106534D1*
X193140D2*
X206566D1*
X294202D2*
X323566D1*
X70234Y312222D2*
X106534D1*
X193140D2*
X206566D1*
X294202D2*
X329378D1*
X64328Y306353D2*
X223440D1*
X294202D2*
X335283D1*
X58516Y300484D2*
X223440D1*
X294202D2*
X341096D1*
X52609Y294615D2*
X99409D1*
X205609D2*
X223440D1*
X294202D2*
X347003D1*
X46702Y288747D2*
X99409D1*
X205609D2*
X223440D1*
X294202D2*
X308471D1*
X40890Y282878D2*
X99409D1*
X205609D2*
X223440D1*
X294202D2*
X308471D1*
X34984Y277009D2*
X99409D1*
X205609D2*
X223440D1*
X294202D2*
X308471D1*
X29406Y271140D2*
X99409D1*
X205609D2*
X223440D1*
X294202D2*
X308471D1*
X29406Y265272D2*
X99409D1*
X205609D2*
X223440D1*
X294202D2*
X308471D1*
X29406Y259403D2*
X99409D1*
X205609D2*
X223440D1*
X294202D2*
X308471D1*
X29406Y253534D2*
X99409D1*
X206172D2*
X219503D1*
X294202D2*
X308471D1*
X29406Y247665D2*
X101283D1*
X205421D2*
X217346D1*
X278172D2*
X308471D1*
X29406Y241797D2*
X92378D1*
X202797D2*
X216878D1*
X280234D2*
X308471D1*
X29406Y235928D2*
X88253D1*
X197546D2*
X218003D1*
X286046D2*
X308471D1*
X29406Y230059D2*
X85159D1*
X190797D2*
X220909D1*
X288953D2*
X308471D1*
X29406Y224190D2*
X83096D1*
X218077D2*
X226815D1*
X289984D2*
X308471D1*
X29406Y218322D2*
X83003D1*
X225016D2*
X243878D1*
X289516D2*
X308471D1*
X29406Y212453D2*
X82253D1*
X230828D2*
X246034D1*
X287358D2*
X308471D1*
X29406Y206584D2*
X82253D1*
X236734D2*
X250534D1*
X282858D2*
X370253D1*
X29406Y200715D2*
X82253D1*
X241421D2*
X262346D1*
X271046D2*
X370253D1*
X29406Y194846D2*
X82253D1*
X242640D2*
X370253D1*
X242640Y188978D2*
X308471D1*
X242640Y183109D2*
X308471D1*
X250797Y177240D2*
X269190D1*
X287358D2*
X308471D1*
X295797Y171371D2*
X308471D1*
X299640Y165503D2*
X308471D1*
X301328Y159634D2*
X308471D1*
X301516Y153765D2*
X308471D1*
X300016Y147896D2*
X308471D1*
X296640Y142028D2*
X308471D1*
X294202Y136159D2*
X308471D1*
X294202Y130290D2*
X308471D1*
X294202Y124421D2*
X308471D1*
X294202Y118552D2*
X308471D1*
X294202Y112684D2*
X308471D1*
X294202Y106815D2*
X348690D1*
X294202Y100946D2*
X342783D1*
X294202Y95077D2*
X336878D1*
X294202Y89209D2*
X331066D1*
X294202Y83340D2*
X325159D1*
X293077Y77471D2*
X319346D1*
X293077Y71602D2*
X313440D1*
X293077Y65734D2*
X307534D1*
X293077Y59865D2*
X301722D1*
X100566Y296783D2*
X205060D1*
X205098Y258604D1*
X205621Y253761D1*
X205423Y250770D1*
X204833Y247831D1*
X203862Y244995D1*
X202528Y242311D1*
X200850Y239825D1*
X198861Y237583D1*
X196594Y235621D1*
X194088Y233975D1*
X190409Y232350D1*
X190092Y229404D1*
X190487Y228449D1*
X205684D1*
Y225542D1*
X211699Y225529D1*
X214673Y225190D1*
X217496Y224193D1*
X220088Y222520D1*
X221062Y221651D1*
X238163Y204549D1*
X240028Y202206D1*
X241318Y199505D1*
X241967Y196490D1*
X242041Y195186D1*
Y179425D1*
X244125Y179198D1*
X247041Y178501D1*
X249839Y177427D1*
X252472Y175992D1*
X254894Y174224D1*
X257060Y172154D1*
X259471Y168934D1*
X262711Y172734D1*
X265026Y174639D1*
X267572Y176223D1*
X270303Y177458D1*
X273173Y178324D1*
X276133Y178804D1*
X279129Y178891D1*
X282110Y178583D1*
X285026Y177886D1*
X287824Y176811D1*
X290458Y175377D1*
X292879Y173609D1*
X295046Y171538D1*
X296923Y169201D1*
X298475Y166636D1*
X299677Y163890D1*
X300507Y161009D1*
X301029Y156167D1*
X300831Y153176D1*
X300241Y150236D1*
X299270Y147400D1*
X297936Y144717D1*
X296259Y142231D1*
X293631Y139437D1*
X293652Y79433D1*
X292433D1*
X292526Y69630D1*
Y50035D1*
X349656Y107218D1*
X309085Y107189D1*
Y192598D1*
X370866D1*
X370837Y207125D1*
X342558Y207189D1*
X309085D1*
Y292598D1*
X349680D1*
X292497Y349728D1*
X292526Y320411D1*
X293652Y320354D1*
Y248724D1*
X277621D1*
X277550Y243043D1*
X281302Y240570D1*
X283470Y238499D1*
X285346Y236161D1*
X286899Y233597D1*
X288101Y230850D1*
X288930Y227970D1*
X289453Y223127D1*
X289255Y220136D1*
X288665Y217197D1*
X287694Y214361D1*
X286358Y211677D1*
X284682Y209192D1*
X282693Y206949D1*
X280425Y204988D1*
X277920Y203341D1*
X275220Y202039D1*
X272371Y201104D1*
X269425Y200550D1*
X266432Y200390D1*
X263444Y200623D1*
X260512Y201249D1*
X257688Y202255D1*
X255021Y203623D1*
X252556Y205331D1*
X250339Y207348D1*
X248404Y209639D1*
X246790Y212164D1*
X245521Y214881D1*
X244619Y217739D1*
X244119Y220600D1*
X239900Y220230D1*
X236911Y220465D1*
X233979Y221091D1*
X231155Y222096D1*
X228488Y223465D1*
X226024Y225172D1*
X223806Y227189D1*
X221873Y229480D1*
X220257Y232005D1*
X218988Y234720D1*
X218088Y237580D1*
X217571Y240533D1*
X217446Y243529D1*
X217718Y246514D1*
X218379Y249438D1*
X219420Y252249D1*
X220822Y254900D1*
X222559Y257343D1*
X224028Y258919D1*
X223991Y309193D1*
X207117Y309157D1*
Y370938D1*
X192591Y370909D1*
X192526Y342630D1*
Y309157D1*
X107117D1*
Y349752D1*
X28764Y271348D1*
X28806Y192663D1*
X57085Y192598D1*
X82866D1*
X82812Y217251D1*
X83656D1*
X83559Y222552D1*
X84147Y225797D1*
X86619Y232375D1*
X89312Y236608D1*
X93104Y242025D1*
X94840Y243891D1*
X99223Y246332D1*
X104413Y248928D1*
X106818Y249740D1*
X111879Y250744D1*
X99966D1*
Y296783D1*
X100566D1*
X126923Y296772D2*
Y273764D1*
X99978D2*
X126923D1*
D16*
D3*
X178104D3*
D18*
X187585Y188106D3*
Y213303D3*
X158058D3*
Y188106D3*
D19*
X349822Y149894D3*
Y249894D3*
D20*
X399822Y149894D3*
Y249894D3*
D21*
X249822Y49894D3*
X149822D3*
D22*
X249822Y-106D3*
X149822D3*
D72*
X116421Y223697D3*
D75*
Y137697D3*
D24*
Y180697D3*
D21*
X149822Y349894D3*
X249822D3*
D22*
X149822Y399894D3*
X249822D3*
D19*
X49822Y149894D3*
Y249894D3*
D20*
X-178Y149894D3*
Y249894D3*
D26*
X159042Y98209D3*
X186601D3*
Y137579D3*
X159042D3*
D28*
X219451Y115248D3*
X239136D3*
X258822D3*
X278507D3*
X298192D3*
Y284539D3*
X278507D3*
X258822D3*
X239136D3*
X219451D3*
D31*
X39192Y149894D3*
Y249894D3*
D32*
X149822Y360524D3*
X249822D3*
D31*
X360451Y249894D3*
Y149894D3*
D32*
X149822Y39264D3*
X249822D3*
M02*
