M48
INCH
T01C0.013
T02C0.0433
%
T02
X+007837Y+005837
X+007837Y+006837
X+008337Y+005837
X+008337Y+006837
X+006837Y+004837
X+005837Y+004837
X+006837Y+004337
X+005837Y+004337
X+005837Y+007837
X+006837Y+007837
X+005837Y+008337
X+006837Y+008337
X+004837Y+005837
X+004837Y+006837
X+004337Y+005837
X+004337Y+006837
T01
X+006741Y+006768
X+006742Y+005906
X+006377Y+006207
X+005978Y+006033
X+006267Y+005873
X+006168Y+006876
X+005861Y+006746
X+007006Y+006569
X+007122Y+005900
T00
M30
