M48
INCH
T01C0.013
T02C0.0433
%
T02
X+003900Y+001900
X+003900Y+002900
X+004400Y+001900
X+004400Y+002900
X+002900Y+000900
X+001900Y+000900
X+002900Y+000400
X+001900Y+000400
X+001900Y+003900
X+002900Y+003900
X+001900Y+004400
X+002900Y+004400
X+000900Y+001900
X+000900Y+002900
X+000400Y+001900
X+000400Y+002900
T01
X+002804Y+002831
X+002805Y+001969
X+002440Y+002270
X+002041Y+002096
X+002330Y+001936
X+002231Y+002939
X+001924Y+002809
X+003069Y+002632
X+003185Y+001963
T00
M30
