G04 DipTrace 2.4.0.2*
%INFlexADCBufferAry.gbo*%
%MOMM*%
%ADD51C,0.196*%
%ADD53C,0.083*%
%FSLAX53Y53*%
G04*
G71*
G90*
G75*
G01*
%LNBotSilk*%
%LPD*%
X14145Y21000D2*
D51*
Y21791D1*
X15421D1*
X14753D2*
Y21305D1*
X14145Y20608D2*
X15421D1*
X14935Y20216D2*
Y19487D1*
X14813D1*
X14691Y19548D1*
X14630Y19608D1*
X14570Y19730D1*
Y19913D1*
X14630Y20034D1*
X14753Y20156D1*
X14935Y20216D1*
X15056D1*
X15238Y20156D1*
X15359Y20034D1*
X15421Y19913D1*
Y19730D1*
X15359Y19608D1*
X15238Y19487D1*
X14570Y19095D2*
X15421Y18427D1*
X14570D2*
X15421Y19095D1*
Y17062D2*
X14145Y17549D1*
X15421Y18035D1*
X14995Y17852D2*
Y17245D1*
X14145Y16670D2*
X15421D1*
Y16245D1*
X15359Y16062D1*
X15238Y15940D1*
X15116Y15880D1*
X14935Y15819D1*
X14630D1*
X14448Y15880D1*
X14327Y15940D1*
X14205Y16062D1*
X14145Y16245D1*
Y16670D1*
X14448Y14516D2*
X14327Y14576D1*
X14205Y14698D1*
X14145Y14819D1*
Y15062D1*
X14205Y15184D1*
X14327Y15305D1*
X14448Y15367D1*
X14630Y15427D1*
X14935D1*
X15116Y15367D1*
X15238Y15305D1*
X15359Y15184D1*
X15421Y15062D1*
Y14819D1*
X15359Y14698D1*
X15238Y14576D1*
X15116Y14516D1*
X17263Y21717D2*
Y21171D1*
X17202Y20988D1*
X17141Y20927D1*
X17021Y20866D1*
X16898D1*
X16778Y20927D1*
X16716Y20988D1*
X16656Y21171D1*
Y21717D1*
X17932D1*
X17263Y21292D2*
X17932Y20866D1*
X16900Y20474D2*
X16838Y20352D1*
X16657Y20169D1*
X17932D1*
X17810Y19717D2*
X17871Y19777D1*
X17932Y19717D1*
X17871Y19655D1*
X17810Y19717D1*
X16657Y18898D2*
X16717Y19081D1*
X16900Y19203D1*
X17203Y19263D1*
X17386D1*
X17689Y19203D1*
X17871Y19081D1*
X17932Y18898D1*
Y18777D1*
X17871Y18595D1*
X17689Y18474D1*
X17386Y18412D1*
X17203D1*
X16900Y18474D1*
X16717Y18595D1*
X16657Y18777D1*
Y18898D1*
X16900Y18474D2*
X17689Y19203D1*
X19767Y22237D2*
Y23027D1*
X21043D1*
X20375D2*
Y22541D1*
X20192Y21783D2*
X21043Y21419D1*
X21286Y21540D1*
X21408Y21662D1*
X21468Y21783D1*
Y21844D1*
X20192Y21054D2*
X21043Y21419D1*
X19767Y20662D2*
X21043D1*
X20375D2*
X20253Y20540D1*
X20192Y20419D1*
Y20237D1*
X20253Y20116D1*
X20375Y19994D1*
X20557Y19933D1*
X20678D1*
X20860Y19994D1*
X20981Y20116D1*
X21043Y20237D1*
Y20419D1*
X20981Y20540D1*
X20860Y20662D1*
X20557Y19541D2*
Y18813D1*
X20435D1*
X20313Y18873D1*
X20253Y18933D1*
X20192Y19055D1*
Y19238D1*
X20253Y19359D1*
X20375Y19481D1*
X20557Y19541D1*
X20678D1*
X20860Y19481D1*
X20981Y19359D1*
X21043Y19238D1*
Y19055D1*
X20981Y18933D1*
X20860Y18813D1*
X20192Y18420D2*
X21043D1*
X20557D2*
X20375Y18359D1*
X20253Y18238D1*
X20192Y18116D1*
Y17933D1*
X19767Y16307D2*
X21043D1*
Y15578D1*
X20192Y14457D2*
X21043D1*
X20375D2*
X20253Y14578D1*
X20192Y14700D1*
Y14881D1*
X20253Y15003D1*
X20375Y15124D1*
X20557Y15186D1*
X20678D1*
X20860Y15124D1*
X20981Y15003D1*
X21043Y14881D1*
Y14700D1*
X20981Y14578D1*
X20860Y14457D1*
X19767Y14065D2*
X21043D1*
X20375D2*
X20253Y13943D1*
X20192Y13822D1*
Y13640D1*
X20253Y13519D1*
X20375Y13397D1*
X20557Y13337D1*
X20678D1*
X20860Y13397D1*
X20981Y13519D1*
X21043Y13640D1*
Y13822D1*
X20981Y13943D1*
X20860Y14065D1*
X20375Y12276D2*
X20253Y12337D1*
X20192Y12519D1*
Y12702D1*
X20253Y12884D1*
X20375Y12944D1*
X20495Y12884D1*
X20557Y12762D1*
X20618Y12459D1*
X20678Y12337D1*
X20800Y12276D1*
X20860D1*
X20981Y12337D1*
X21043Y12519D1*
Y12702D1*
X20981Y12884D1*
X20860Y12944D1*
X17006Y17201D2*
X16946D1*
X16824Y17141D1*
X16763Y17081D1*
X16703Y16958D1*
Y16716D1*
X16763Y16595D1*
X16824Y16534D1*
X16946Y16473D1*
X17067D1*
X17189Y16534D1*
X17370Y16655D1*
X17978Y17263D1*
Y16412D1*
X16703Y15655D2*
X16763Y15838D1*
X16946Y15960D1*
X17249Y16020D1*
X17432D1*
X17735Y15960D1*
X17917Y15838D1*
X17978Y15655D1*
Y15534D1*
X17917Y15352D1*
X17735Y15231D1*
X17432Y15169D1*
X17249D1*
X16946Y15231D1*
X16763Y15352D1*
X16703Y15534D1*
Y15655D1*
X16946Y15231D2*
X17735Y15960D1*
X16946Y14777D2*
X16884Y14655D1*
X16703Y14473D1*
X17978D1*
Y13473D2*
X16703D1*
X17552Y14080D1*
Y13169D1*
X13326Y21808D2*
D53*
X13308Y21735D1*
X13271Y21662D1*
X13235Y21626D1*
X13162D1*
X13125Y21662D1*
X13089Y21735D1*
X13071Y21808D1*
X13053Y21917D1*
Y22100D1*
X13071Y22208D1*
X13089Y22282D1*
X13125Y22354D1*
X13162Y22391D1*
X13235D1*
X13271Y22354D1*
X13308Y22282D1*
X13326Y22208D1*
Y22100D1*
X13235D1*
X13664Y21626D2*
Y22391D1*
X13409Y21626D1*
Y22391D1*
X13748Y21626D2*
Y22391D1*
X13875D1*
X13930Y22354D1*
X13967Y22282D1*
X13985Y22208D1*
X14003Y22100D1*
Y21917D1*
X13985Y21808D1*
X13967Y21735D1*
X13930Y21662D1*
X13875Y21626D1*
X13748D1*
X13923Y13467D2*
X13941Y13539D1*
X13978Y13612D1*
X14014Y13649D1*
X14087D1*
X14124Y13612D1*
X14160Y13539D1*
X14178Y13467D1*
X14196Y13357D1*
Y13174D1*
X14178Y13066D1*
X14160Y12992D1*
X14124Y12920D1*
X14087Y12883D1*
X14014D1*
X13978Y12920D1*
X13941Y12992D1*
X13923Y13066D1*
Y13174D1*
X14014D1*
X13585Y13649D2*
Y12883D1*
X13840Y13649D1*
Y12883D1*
X13501Y13649D2*
Y12883D1*
X13374D1*
X13319Y12920D1*
X13282Y12992D1*
X13264Y13066D1*
X13246Y13174D1*
Y13357D1*
X13264Y13467D1*
X13282Y13539D1*
X13319Y13612D1*
X13374Y13649D1*
X13501D1*
X16474Y13600D2*
X16328Y12834D1*
X16183Y13600D1*
X16099D2*
Y12834D1*
X15972D1*
X15917Y12871D1*
X15880Y12944D1*
X15862Y13017D1*
X15844Y13126D1*
Y13309D1*
X15862Y13418D1*
X15880Y13490D1*
X15917Y13564D1*
X15972Y13600D1*
X16099D1*
X15761D2*
Y12834D1*
X15633D1*
X15578Y12871D1*
X15542Y12944D1*
X15524Y13017D1*
X15505Y13126D1*
Y13309D1*
X15524Y13418D1*
X15542Y13490D1*
X15578Y13564D1*
X15633Y13600D1*
X15761D1*
X15573Y21594D2*
X15719Y22359D1*
X15864Y21594D1*
X15948D2*
Y22359D1*
X16075D1*
X16130Y22322D1*
X16167Y22250D1*
X16185Y22176D1*
X16203Y22068D1*
Y21885D1*
X16185Y21775D1*
X16167Y21703D1*
X16130Y21630D1*
X16075Y21594D1*
X15948D1*
X16286D2*
Y22359D1*
X16414D1*
X16469Y22322D1*
X16505Y22250D1*
X16523Y22176D1*
X16541Y22068D1*
Y21885D1*
X16523Y21775D1*
X16505Y21703D1*
X16469Y21630D1*
X16414Y21594D1*
X16286D1*
X13467Y20755D2*
X13504Y20792D1*
X13613Y20847D1*
X12848D1*
X21699Y19017D2*
X21663D1*
X21590Y18999D1*
X21554Y18981D1*
X21518Y18944D1*
Y18872D1*
X21554Y18835D1*
X21590Y18817D1*
X21663Y18799D1*
X21736D1*
X21809Y18817D1*
X21918Y18853D1*
X22282Y19036D1*
Y18781D1*
X13574Y18749D2*
X13611D1*
X13684Y18767D1*
X13720Y18785D1*
X13756Y18822D1*
Y18895D1*
X13720Y18931D1*
X13684Y18949D1*
X13611Y18968D1*
X13538D1*
X13465Y18949D1*
X13356Y18913D1*
X12991Y18730D1*
Y18986D1*
X21706Y21405D2*
X21669Y21368D1*
X21561Y21313D1*
X22326D1*
X21498Y16426D2*
Y16226D1*
X21789Y16335D1*
Y16280D1*
X21826Y16244D1*
X21862Y16226D1*
X21971Y16207D1*
X22044D1*
X22153Y16226D1*
X22227Y16262D1*
X22263Y16317D1*
Y16372D1*
X22227Y16426D1*
X22189Y16444D1*
X22117Y16463D1*
X13717Y16262D2*
Y16462D1*
X13426Y16353D1*
Y16408D1*
X13390Y16444D1*
X13353Y16462D1*
X13244Y16481D1*
X13171D1*
X13062Y16462D1*
X12989Y16426D1*
X12952Y16371D1*
Y16317D1*
X12989Y16262D1*
X13026Y16244D1*
X13098Y16226D1*
X13008Y13971D2*
X13773D1*
X13263Y13789D1*
Y14062D1*
X22265Y13708D2*
X21500D1*
X22010Y13890D1*
Y13617D1*
M02*
