G04 DipTrace 2.4.0.2*
%INcardoid.gbl*%
%MOMM*%
%ADD13C,0.305*%
%ADD14C,0.152*%
%ADD20R,1.7X1.6*%
%ADD22R,1.7X2.032*%
%ADD24C,0.457*%
%FSLAX53Y53*%
G04*
G71*
G90*
G75*
G01*
%LNBottom*%
%LPD*%
X16265Y17100D2*
D13*
X18790D1*
X18793Y17103D1*
X16265Y17100D2*
X14694D1*
X13909Y16315D1*
Y13835D1*
X13751Y13677D1*
X13810Y10000D2*
Y11270D1*
Y12433D1*
X16350Y10000D2*
Y11270D1*
Y12433D1*
X20266Y15838D2*
Y15850D1*
X19683Y16433D1*
X18408D1*
X17683Y15708D1*
Y15251D1*
Y13639D1*
X18890Y12433D1*
X16274Y15908D2*
X17026D1*
X17683Y15251D1*
X18890Y10000D2*
Y11270D1*
Y12433D1*
X18786Y15923D2*
Y15076D1*
X21430Y12433D1*
X14790Y15912D2*
X14944D1*
X16644Y14212D1*
X21430Y10000D2*
Y11270D1*
Y12433D1*
D24*
X16644Y14212D3*
X13751Y13677D3*
X16265Y17100D3*
X14790Y15912D3*
X16274Y15908D3*
X18793Y17103D3*
X18786Y15923D3*
X20266Y15838D3*
X13129Y19275D2*
D14*
X22109D1*
X12981Y19126D2*
X22259D1*
X12831Y18977D2*
X22407D1*
X12681Y18828D2*
X22557D1*
X12534Y18678D2*
X15149D1*
X15910D2*
X19149D1*
X19911D2*
X22707D1*
X12384Y18529D2*
X14982D1*
X16077D2*
X18983D1*
X20078D2*
X22855D1*
X12236Y18380D2*
X14892D1*
X16170D2*
X18890D1*
X20170D2*
X23005D1*
X12086Y18231D2*
X14844D1*
X16218D2*
X18842D1*
X20218D2*
X23152D1*
X11936Y18082D2*
X14830D1*
X16230D2*
X18830D1*
X20230D2*
X23302D1*
X11788Y17933D2*
X14851D1*
X16208D2*
X18852D1*
X20209D2*
X23452D1*
X11638Y17784D2*
X14908D1*
X16153D2*
X18909D1*
X20151D2*
X23600D1*
X11491Y17635D2*
X15013D1*
X16049D2*
X19014D1*
X20047D2*
X23750D1*
X11341Y17486D2*
X15213D1*
X15849D2*
X19214D1*
X19847D2*
X23898D1*
X11191Y17337D2*
X24048D1*
X11043Y17188D2*
X24198D1*
X10893Y17039D2*
X24345D1*
X10751Y16890D2*
X24488D1*
X10751Y16741D2*
X18159D1*
X19932D2*
X24488D1*
X10751Y16592D2*
X18004D1*
X20087D2*
X24488D1*
X10751Y16442D2*
X17854D1*
X20235D2*
X24488D1*
X10751Y16293D2*
X14513D1*
X15067D2*
X16001D1*
X17072D2*
X17706D1*
X20385D2*
X24488D1*
X10751Y16144D2*
X14375D1*
X15275D2*
X15861D1*
X17351D2*
X17556D1*
X20628D2*
X24488D1*
X10751Y15995D2*
X14320D1*
X15422D2*
X15804D1*
X19258D2*
X19559D1*
X20716D2*
X24488D1*
X10751Y15846D2*
X14315D1*
X15572D2*
X15799D1*
X19258D2*
X19707D1*
X20744D2*
X24488D1*
X10751Y15697D2*
X14365D1*
X15722D2*
X15847D1*
X19206D2*
X19809D1*
X20723D2*
X24488D1*
X10751Y15548D2*
X14489D1*
X15870D2*
X15968D1*
X19189D2*
X19890D1*
X20642D2*
X24488D1*
X10751Y15399D2*
X14894D1*
X16020D2*
X16973D1*
X19189D2*
X20104D1*
X20428D2*
X24488D1*
X10751Y15250D2*
X15044D1*
X16168D2*
X17121D1*
X19189D2*
X24488D1*
X10751Y15101D2*
X15194D1*
X16318D2*
X17271D1*
X19323D2*
X24488D1*
X10751Y14952D2*
X15342D1*
X16468D2*
X17280D1*
X19473D2*
X24488D1*
X10751Y14803D2*
X15492D1*
X16615D2*
X17280D1*
X19623D2*
X24488D1*
X10751Y14654D2*
X15639D1*
X16799D2*
X17280D1*
X19770D2*
X24488D1*
X10751Y14505D2*
X15789D1*
X17018D2*
X17280D1*
X19920D2*
X24488D1*
X10751Y14356D2*
X15939D1*
X17099D2*
X17280D1*
X20068D2*
X24488D1*
X10751Y14206D2*
X16087D1*
X17122D2*
X17280D1*
X20218D2*
X24488D1*
X10751Y14057D2*
X16192D1*
X17096D2*
X17280D1*
X20368D2*
X24488D1*
X10751Y13908D2*
X16280D1*
X17008D2*
X17280D1*
X20516D2*
X24488D1*
X10751Y13759D2*
X16532D1*
X16753D2*
X17280D1*
X20666D2*
X24488D1*
X10751Y13610D2*
X17283D1*
X20813D2*
X24488D1*
X10751Y13461D2*
X17325D1*
X20963D2*
X24488D1*
X10751Y13312D2*
X17449D1*
X21113D2*
X24488D1*
X10853Y13163D2*
X17597D1*
X21261D2*
X24388D1*
X11000Y13014D2*
X15913D1*
X16787D2*
X17747D1*
X21866D2*
X24238D1*
X11150Y12865D2*
X15623D1*
X17077D2*
X17894D1*
X22156D2*
X24090D1*
X11300Y12716D2*
X15342D1*
X17358D2*
X17883D1*
X22437D2*
X23940D1*
X11448Y12567D2*
X15254D1*
X17446D2*
X17794D1*
X22526D2*
X23790D1*
X11598Y12418D2*
X15251D1*
X17449D2*
X17790D1*
X22530D2*
X23643D1*
X11746Y12269D2*
X15251D1*
X17449D2*
X17790D1*
X22530D2*
X23493D1*
X11896Y12120D2*
X15251D1*
X17449D2*
X17790D1*
X22530D2*
X23345D1*
X12046Y11970D2*
X15251D1*
X17449D2*
X17790D1*
X22530D2*
X23195D1*
X12193Y11821D2*
X15251D1*
X17449D2*
X17790D1*
X22530D2*
X23045D1*
X12343Y11672D2*
X15251D1*
X17449D2*
X17790D1*
X22530D2*
X22897D1*
X12491Y11523D2*
X15251D1*
X17449D2*
X17790D1*
X22530D2*
X22747D1*
X12641Y11374D2*
X15251D1*
X17449D2*
X17790D1*
X12791Y11225D2*
X15251D1*
X17449D2*
X17790D1*
X12939Y11076D2*
X15251D1*
X17449D2*
X17790D1*
X13089Y10927D2*
X15251D1*
X17449D2*
X17790D1*
X13236Y10778D2*
X15251D1*
X17449D2*
X17790D1*
X16211Y18024D2*
X16198Y17949D1*
X16177Y17876D1*
X16148Y17805D1*
X16112Y17738D1*
X16068Y17676D1*
X16017Y17619D1*
X15961Y17568D1*
X15899Y17523D1*
X15833Y17486D1*
X15763Y17456D1*
X15690Y17434D1*
X15615Y17421D1*
X15539Y17415D1*
X15463Y17419D1*
X15388Y17430D1*
X15314Y17450D1*
X15243Y17478D1*
X15176Y17514D1*
X15113Y17557D1*
X15055Y17607D1*
X15003Y17662D1*
X14958Y17724D1*
X14920Y17789D1*
X14889Y17859D1*
X14866Y17932D1*
X14852Y18007D1*
X14846Y18083D1*
X14848Y18159D1*
X14859Y18234D1*
X14878Y18308D1*
X14905Y18379D1*
X14940Y18447D1*
X14982Y18510D1*
X15031Y18568D1*
X15086Y18621D1*
X15147Y18667D1*
X15212Y18706D1*
X15281Y18738D1*
X15354Y18761D1*
X15428Y18777D1*
X15504Y18784D1*
X15580Y18783D1*
X15656Y18773D1*
X15730Y18755D1*
X15801Y18729D1*
X15869Y18695D1*
X15933Y18653D1*
X15992Y18605D1*
X16046Y18551D1*
X16092Y18491D1*
X16132Y18426D1*
X16165Y18357D1*
X16189Y18285D1*
X16206Y18211D1*
X16215Y18100D1*
X16211Y18024D1*
X20211D2*
X20198Y17949D1*
X20177Y17876D1*
X20148Y17805D1*
X20112Y17738D1*
X20068Y17676D1*
X20017Y17619D1*
X19961Y17568D1*
X19899Y17523D1*
X19833Y17486D1*
X19763Y17456D1*
X19690Y17434D1*
X19615Y17420D1*
X19539Y17415D1*
X19463Y17419D1*
X19388Y17430D1*
X19314Y17450D1*
X19243Y17478D1*
X19176Y17514D1*
X19113Y17557D1*
X19055Y17607D1*
X19003Y17662D1*
X18958Y17724D1*
X18920Y17789D1*
X18889Y17859D1*
X18866Y17932D1*
X18852Y18007D1*
X18846Y18082D1*
X18848Y18159D1*
X18859Y18234D1*
X18878Y18308D1*
X18905Y18379D1*
X18940Y18447D1*
X18982Y18510D1*
X19031Y18568D1*
X19086Y18621D1*
X19147Y18667D1*
X19212Y18706D1*
X19281Y18738D1*
X19354Y18761D1*
X19428Y18777D1*
X19504Y18784D1*
X19580Y18783D1*
X19656Y18773D1*
X19730Y18755D1*
X19801Y18729D1*
X19869Y18695D1*
X19933Y18653D1*
X19992Y18605D1*
X20046Y18551D1*
X20092Y18491D1*
X20132Y18426D1*
X20165Y18357D1*
X20189Y18285D1*
X20206Y18211D1*
X20215Y18100D1*
X20211Y18024D1*
X17101Y14136D2*
X17082Y14063D1*
X17052Y13993D1*
X17010Y13929D1*
X16959Y13873D1*
X16899Y13826D1*
X16833Y13789D1*
X16761Y13764D1*
X16686Y13751D1*
X16610Y13750D1*
X16534Y13762D1*
X16462Y13786D1*
X16395Y13822D1*
X16334Y13868D1*
X16282Y13923D1*
X16239Y13986D1*
X16208Y14055D1*
X16191Y14117D1*
X14856Y15452D1*
X14756Y15450D1*
X14681Y15462D1*
X14608Y15486D1*
X14541Y15521D1*
X14480Y15567D1*
X14428Y15622D1*
X14386Y15686D1*
X14354Y15755D1*
X14334Y15828D1*
X14327Y15904D1*
X14332Y15980D1*
X14349Y16054D1*
X14378Y16124D1*
X14419Y16189D1*
X14469Y16246D1*
X14528Y16294D1*
X14594Y16332D1*
X14666Y16358D1*
X14740Y16372D1*
X14817Y16374D1*
X14892Y16364D1*
X14965Y16341D1*
X15032Y16307D1*
X15073Y16277D1*
X15160Y16233D1*
X15218Y16186D1*
X16739Y14665D1*
X16818Y14642D1*
X16886Y14607D1*
X16948Y14562D1*
X17001Y14508D1*
X17044Y14445D1*
X17077Y14376D1*
X17098Y14303D1*
X17107Y14212D1*
X17101Y14136D1*
X22515Y12000D2*
Y11274D1*
X24505Y13265D1*
X24504Y16509D1*
Y16896D1*
X21975Y19425D1*
X18731Y19424D1*
X13261D1*
X12909Y19069D1*
X10735Y16895D1*
X10736Y13651D1*
Y13264D1*
X13265Y10735D1*
X15264Y10736D1*
X15265Y11455D1*
X15268Y12305D1*
X15265Y12370D1*
Y12530D1*
X15278Y12605D1*
X15313Y12672D1*
X15370Y12725D1*
X15460Y12774D1*
X15918Y13009D1*
X15992Y13032D1*
X16101Y13035D1*
X16675D1*
X16752Y13021D1*
X16850Y12974D1*
X17307Y12739D1*
X17368Y12694D1*
X17412Y12631D1*
X17433Y12556D1*
X17435Y12454D1*
Y10734D1*
X17807Y10736D1*
X17805Y11531D1*
X17808Y12305D1*
X17805Y12370D1*
Y12530D1*
X17818Y12605D1*
X17853Y12672D1*
X17910Y12725D1*
X18003Y12775D1*
X17409Y13366D1*
X17361Y13424D1*
X17325Y13492D1*
X17303Y13564D1*
X17296Y13639D1*
Y15089D1*
X16866Y15521D1*
X16528D1*
X16463Y15485D1*
X16391Y15460D1*
X16316Y15447D1*
X16240Y15446D1*
X16164Y15458D1*
X16092Y15482D1*
X16025Y15517D1*
X15964Y15563D1*
X15912Y15619D1*
X15870Y15682D1*
X15838Y15751D1*
X15818Y15825D1*
X15811Y15900D1*
X15816Y15976D1*
X15833Y16050D1*
X15862Y16121D1*
X15903Y16185D1*
X15953Y16242D1*
X16012Y16290D1*
X16078Y16328D1*
X16150Y16354D1*
X16224Y16369D1*
X16300Y16370D1*
X16376Y16360D1*
X16448Y16337D1*
X16526Y16296D1*
X17026Y16295D1*
X17102Y16288D1*
X17174Y16265D1*
X17241Y16229D1*
X17300Y16182D1*
X17456Y16025D1*
X17571Y16144D1*
X18134Y16707D1*
X18193Y16755D1*
X18260Y16791D1*
X18333Y16813D1*
X18408Y16820D1*
X19683D1*
X19759Y16812D1*
X19832Y16790D1*
X19899Y16754D1*
X19957Y16707D1*
X20376Y16287D1*
X20440Y16268D1*
X20508Y16233D1*
X20570Y16188D1*
X20623Y16134D1*
X20666Y16071D1*
X20699Y16003D1*
X20720Y15929D1*
X20729Y15838D1*
X20723Y15763D1*
X20704Y15689D1*
X20674Y15619D1*
X20632Y15555D1*
X20581Y15499D1*
X20521Y15452D1*
X20454Y15415D1*
X20383Y15390D1*
X20308Y15377D1*
X20232Y15376D1*
X20156Y15388D1*
X20084Y15412D1*
X20017Y15448D1*
X19956Y15494D1*
X19904Y15549D1*
X19861Y15612D1*
X19830Y15682D1*
X19810Y15757D1*
X19522Y16046D1*
X19233D1*
X19249Y15939D1*
X19243Y15848D1*
X19225Y15774D1*
X19194Y15704D1*
X19172Y15670D1*
X19173Y15235D1*
X21375Y13035D1*
X21755D1*
X21832Y13021D1*
X21930Y12974D1*
X22387Y12739D1*
X22448Y12694D1*
X22492Y12631D1*
X22513Y12556D1*
X22515Y12454D1*
Y12000D1*
D20*
X21430Y11270D3*
X18890D3*
X16350D3*
X13810D3*
G36*
X19740Y12530D2*
Y12065D1*
X18040D1*
Y12530D1*
X18565Y12800D1*
X19215D1*
X19740Y12530D1*
G37*
G36*
X22280D2*
Y12065D1*
X20580D1*
Y12530D1*
X21105Y12800D1*
X21755D1*
X22280Y12530D1*
G37*
G36*
X14660D2*
Y12065D1*
X12960D1*
Y12530D1*
X13485Y12800D1*
X14135D1*
X14660Y12530D1*
G37*
G36*
X17200D2*
Y12065D1*
X15500D1*
Y12530D1*
X16025Y12800D1*
X16675D1*
X17200Y12530D1*
G37*
D22*
X13810Y10000D3*
X16350D3*
X18890D3*
X21430D3*
M02*
