G04 DipTrace 2.4.0.2*
%INcardoid.g2l*%
%MOMM*%
%ADD15C,0.127*%
%ADD21C,1.6*%
%ADD23C,1.7*%
%ADD24C,0.457*%
%FSLAX53Y53*%
G04*
G71*
G90*
G75*
G01*
%LNInner2_Plane*%
%LPD*%
D24*
X16644Y14212D3*
X13751Y13677D3*
X16265Y17100D3*
X14790Y15912D3*
X16274Y15908D3*
X18793Y17103D3*
X18786Y15923D3*
X20266Y15838D3*
X13148Y19313D2*
D15*
X22092D1*
X13023Y19189D2*
X22215D1*
X12900Y19066D2*
X22340D1*
X12777Y18942D2*
X22463D1*
X12652Y18818D2*
X22586D1*
X12529Y18695D2*
X15216D1*
X15845D2*
X19217D1*
X19843D2*
X22711D1*
X12406Y18571D2*
X15046D1*
X16014D2*
X19046D1*
X20014D2*
X22834D1*
X12281Y18447D2*
X14948D1*
X16111D2*
X18949D1*
X20111D2*
X22957D1*
X12158Y18324D2*
X14889D1*
X16170D2*
X18889D1*
X20171D2*
X23082D1*
X12035Y18200D2*
X14859D1*
X16202D2*
X18858D1*
X20203D2*
X23205D1*
X11910Y18076D2*
X14851D1*
X16208D2*
X18852D1*
X20209D2*
X23328D1*
X11787Y17953D2*
X14867D1*
X16192D2*
X18868D1*
X20193D2*
X23453D1*
X11664Y17829D2*
X14909D1*
X16153D2*
X18909D1*
X20151D2*
X23576D1*
X11539Y17705D2*
X14980D1*
X16079D2*
X18981D1*
X20080D2*
X23700D1*
X11416Y17582D2*
X15099D1*
X15962D2*
X19098D1*
X19963D2*
X23823D1*
X11293Y17458D2*
X15339D1*
X15722D2*
X15980D1*
X16549D2*
X18504D1*
X19080D2*
X19338D1*
X19722D2*
X23948D1*
X11168Y17334D2*
X15869D1*
X16661D2*
X18395D1*
X19191D2*
X24071D1*
X11045Y17211D2*
X15816D1*
X16712D2*
X18344D1*
X19242D2*
X24194D1*
X10922Y17087D2*
X15804D1*
X16726D2*
X18332D1*
X19254D2*
X24319D1*
X10797Y16963D2*
X15824D1*
X16706D2*
X18354D1*
X19232D2*
X24442D1*
X10736Y16840D2*
X15885D1*
X16643D2*
X18415D1*
X19169D2*
X24503D1*
X10736Y16716D2*
X16018D1*
X16510D2*
X18552D1*
X19034D2*
X24503D1*
X10736Y16592D2*
X24503D1*
X10736Y16469D2*
X24503D1*
X10736Y16345D2*
X14659D1*
X14922D2*
X16157D1*
X16391D2*
X18618D1*
X18954D2*
X24503D1*
X10736Y16221D2*
X14452D1*
X15129D2*
X15939D1*
X16609D2*
X18437D1*
X19135D2*
X20019D1*
X20514D2*
X24503D1*
X10736Y16098D2*
X14369D1*
X15212D2*
X15853D1*
X16694D2*
X18360D1*
X19212D2*
X19886D1*
X20645D2*
X24503D1*
X10736Y15974D2*
X14333D1*
X15248D2*
X15818D1*
X16730D2*
X18328D1*
X19246D2*
X19824D1*
X20707D2*
X24503D1*
X10736Y15850D2*
X14333D1*
X15248D2*
X15816D1*
X16732D2*
X18330D1*
X19242D2*
X19804D1*
X20729D2*
X24503D1*
X10736Y15727D2*
X14369D1*
X15212D2*
X15849D1*
X16698D2*
X18369D1*
X19203D2*
X19818D1*
X20713D2*
X24503D1*
X10736Y15603D2*
X14450D1*
X15129D2*
X15931D1*
X16617D2*
X18459D1*
X19113D2*
X19870D1*
X20661D2*
X24503D1*
X10736Y15479D2*
X14657D1*
X14924D2*
X16127D1*
X16420D2*
X18707D1*
X18865D2*
X19983D1*
X20548D2*
X24503D1*
X10736Y15356D2*
X24503D1*
X10736Y15232D2*
X24503D1*
X10736Y15108D2*
X24503D1*
X10736Y14985D2*
X24503D1*
X10736Y14861D2*
X24503D1*
X10736Y14737D2*
X24503D1*
X10736Y14614D2*
X16429D1*
X16859D2*
X24503D1*
X10736Y14490D2*
X16278D1*
X17010D2*
X24503D1*
X10736Y14366D2*
X16209D1*
X17079D2*
X24503D1*
X10736Y14243D2*
X16183D1*
X17105D2*
X24503D1*
X10736Y14119D2*
X13655D1*
X13849D2*
X16193D1*
X17095D2*
X24503D1*
X10736Y13995D2*
X13420D1*
X14081D2*
X16238D1*
X17049D2*
X24503D1*
X10736Y13872D2*
X13333D1*
X14170D2*
X16337D1*
X16948D2*
X24503D1*
X10736Y13748D2*
X13295D1*
X14208D2*
X24503D1*
X10736Y13624D2*
X13293D1*
X14210D2*
X24503D1*
X10736Y13501D2*
X13325D1*
X14176D2*
X24503D1*
X10736Y13377D2*
X13405D1*
X14099D2*
X24503D1*
X10741Y13253D2*
X13591D1*
X13912D2*
X24497D1*
X10864Y13130D2*
X24374D1*
X10989Y13006D2*
X24251D1*
X11112Y12882D2*
X24128D1*
X11235Y12759D2*
X24003D1*
X11360Y12635D2*
X23880D1*
X11483Y12511D2*
X23757D1*
X11606Y12388D2*
X23632D1*
X11731Y12264D2*
X13565D1*
X14055D2*
X16105D1*
X16595D2*
X18645D1*
X19135D2*
X21185D1*
X21675D2*
X23509D1*
X11854Y12140D2*
X13264D1*
X14357D2*
X15804D1*
X16897D2*
X18344D1*
X19437D2*
X20884D1*
X21977D2*
X23386D1*
X11977Y12017D2*
X13101D1*
X14519D2*
X15641D1*
X17059D2*
X18181D1*
X19599D2*
X20721D1*
X22139D2*
X23261D1*
X12102Y11893D2*
X12988D1*
X14631D2*
X15528D1*
X17171D2*
X18068D1*
X19711D2*
X20608D1*
X22251D2*
X23138D1*
X12225Y11769D2*
X12907D1*
X14714D2*
X15447D1*
X17254D2*
X17987D1*
X19794D2*
X20527D1*
X22334D2*
X23015D1*
X12349Y11646D2*
X12849D1*
X14771D2*
X15389D1*
X17311D2*
X17929D1*
X19851D2*
X20469D1*
X22391D2*
X22890D1*
X12474Y11522D2*
X12807D1*
X14811D2*
X15347D1*
X17351D2*
X17887D1*
X19891D2*
X20427D1*
X22431D2*
X22767D1*
X12597Y11398D2*
X12785D1*
X14835D2*
X15325D1*
X17375D2*
X17865D1*
X19915D2*
X20405D1*
X22455D2*
X22644D1*
X14843Y11275D2*
X15318D1*
X17383D2*
X17858D1*
X19923D2*
X20398D1*
X14837Y11151D2*
X15323D1*
X17377D2*
X17863D1*
X19917D2*
X20403D1*
X14813Y11027D2*
X15345D1*
X17353D2*
X17885D1*
X19893D2*
X20425D1*
X14775Y10904D2*
X15385D1*
X17315D2*
X17925D1*
X19855D2*
X20465D1*
X14718Y10780D2*
X15443D1*
X17258D2*
X17983D1*
X19798D2*
X20523D1*
X16194Y18037D2*
X16170Y17912D1*
X16123Y17794D1*
X16054Y17688D1*
X15967Y17596D1*
X15863Y17522D1*
X15748Y17470D1*
X15625Y17440D1*
X15498Y17434D1*
X15373Y17452D1*
X15253Y17494D1*
X15143Y17557D1*
X15047Y17640D1*
X14969Y17740D1*
X14911Y17853D1*
X14875Y17974D1*
X14863Y18101D1*
X14875Y18227D1*
X14911Y18348D1*
X14970Y18461D1*
X15048Y18561D1*
X15144Y18644D1*
X15254Y18707D1*
X15374Y18748D1*
X15499Y18766D1*
X15626Y18760D1*
X15749Y18730D1*
X15864Y18677D1*
X15968Y18603D1*
X16055Y18511D1*
X16123Y18405D1*
X16170Y18287D1*
X16194Y18162D1*
Y18037D1*
X20194D2*
X20170Y17912D1*
X20123Y17794D1*
X20054Y17688D1*
X19967Y17596D1*
X19863Y17522D1*
X19748Y17470D1*
X19625Y17440D1*
X19498Y17434D1*
X19373Y17452D1*
X19253Y17493D1*
X19143Y17557D1*
X19047Y17640D1*
X18969Y17740D1*
X18911Y17853D1*
X18875Y17974D1*
X18863Y18100D1*
X18875Y18227D1*
X18911Y18348D1*
X18970Y18461D1*
X19048Y18561D1*
X19144Y18644D1*
X19254Y18707D1*
X19374Y18748D1*
X19499Y18766D1*
X19626Y18760D1*
X19749Y18730D1*
X19864Y18677D1*
X19968Y18603D1*
X20055Y18511D1*
X20123Y18405D1*
X20170Y18287D1*
X20194Y18162D1*
Y18037D1*
X17089Y14149D2*
X17076Y14087D1*
X17054Y14027D1*
X17024Y13972D1*
X16986Y13921D1*
X16941Y13875D1*
X16891Y13837D1*
X16836Y13806D1*
X16776Y13783D1*
X16715Y13768D1*
X16652Y13763D1*
X16588Y13766D1*
X16526Y13778D1*
X16466Y13799D1*
X16410Y13829D1*
X16358Y13865D1*
X16312Y13909D1*
X16273Y13959D1*
X16241Y14014D1*
X16217Y14072D1*
X16201Y14134D1*
X16194Y14197D1*
X16197Y14260D1*
X16208Y14323D1*
X16228Y14383D1*
X16256Y14440D1*
X16292Y14492D1*
X16335Y14539D1*
X16384Y14579D1*
X16438Y14612D1*
X16496Y14637D1*
X16558Y14654D1*
X16621Y14661D1*
X16684Y14660D1*
X16747Y14650D1*
X16807Y14631D1*
X16865Y14604D1*
X16918Y14569D1*
X16965Y14527D1*
X17006Y14478D1*
X17040Y14425D1*
X17066Y14367D1*
X17084Y14306D1*
X17093Y14212D1*
X17089Y14149D1*
X14196Y13614D2*
X14183Y13552D1*
X14161Y13493D1*
X14131Y13437D1*
X14093Y13386D1*
X14049Y13340D1*
X13999Y13302D1*
X13943Y13271D1*
X13884Y13248D1*
X13822Y13234D1*
X13759Y13228D1*
X13696Y13231D1*
X13633Y13244D1*
X13574Y13265D1*
X13517Y13294D1*
X13465Y13330D1*
X13419Y13374D1*
X13380Y13424D1*
X13348Y13479D1*
X13324Y13537D1*
X13309Y13599D1*
X13302Y13662D1*
X13304Y13725D1*
X13316Y13788D1*
X13335Y13848D1*
X13364Y13905D1*
X13399Y13957D1*
X13442Y14004D1*
X13491Y14044D1*
X13546Y14077D1*
X13604Y14102D1*
X13665Y14119D1*
X13728Y14126D1*
X13792Y14125D1*
X13854Y14115D1*
X13915Y14096D1*
X13972Y14069D1*
X14025Y14034D1*
X14073Y13992D1*
X14114Y13944D1*
X14148Y13890D1*
X14174Y13832D1*
X14191Y13771D1*
X14201Y13677D1*
X14196Y13614D1*
X22449Y11207D2*
X22447Y11189D1*
X24518Y13260D1*
X24517Y14058D1*
Y16902D1*
X21980Y19438D1*
X21182Y19437D1*
X13258D1*
X10722Y16900D1*
X10723Y16102D1*
Y13258D1*
X12791Y11191D1*
X12789Y11301D1*
X12801Y11427D1*
X12829Y11551D1*
X12871Y11671D1*
X12928Y11784D1*
X12999Y11890D1*
X13082Y11986D1*
X13176Y12070D1*
X13280Y12143D1*
X13393Y12202D1*
X13512Y12246D1*
X13635Y12276D1*
X13761Y12290D1*
X13888Y12288D1*
X14014Y12270D1*
X14136Y12237D1*
X14254Y12189D1*
X14365Y12127D1*
X14467Y12052D1*
X14559Y11964D1*
X14639Y11866D1*
X14706Y11759D1*
X14760Y11644D1*
X14799Y11523D1*
X14823Y11398D1*
X14831Y11270D1*
X14823Y11143D1*
X14800Y11019D1*
X14761Y10898D1*
X14707Y10783D1*
X14672Y10723D1*
X15489D1*
X15444Y10799D1*
X15397Y10903D1*
X15362Y11012D1*
X15340Y11124D1*
X15330Y11238D1*
X15332Y11352D1*
X15348Y11465D1*
X15376Y11576D1*
X15416Y11683D1*
X15468Y11784D1*
X15531Y11880D1*
X15604Y11967D1*
X15687Y12046D1*
X15778Y12115D1*
X15876Y12174D1*
X15980Y12221D1*
X16088Y12257D1*
X16200Y12280D1*
X16314Y12290D1*
X16428Y12288D1*
X16541Y12273D1*
X16652Y12245D1*
X16759Y12205D1*
X16861Y12154D1*
X16957Y12091D1*
X17045Y12018D1*
X17124Y11936D1*
X17193Y11845D1*
X17252Y11747D1*
X17300Y11644D1*
X17336Y11535D1*
X17359Y11423D1*
X17370Y11310D1*
X17368Y11194D1*
X17353Y11081D1*
X17326Y10970D1*
X17286Y10863D1*
X17235Y10761D1*
X17212Y10723D1*
X18029D1*
X17978Y10810D1*
X17928Y10927D1*
X17893Y11049D1*
X17874Y11174D1*
X17869Y11301D1*
X17881Y11427D1*
X17909Y11551D1*
X17951Y11671D1*
X18008Y11784D1*
X18079Y11890D1*
X18162Y11986D1*
X18256Y12070D1*
X18360Y12143D1*
X18473Y12202D1*
X18592Y12246D1*
X18715Y12276D1*
X18841Y12290D1*
X18968Y12288D1*
X19094Y12270D1*
X19216Y12237D1*
X19334Y12189D1*
X19445Y12127D1*
X19547Y12052D1*
X19639Y11964D1*
X19719Y11866D1*
X19786Y11759D1*
X19840Y11644D1*
X19879Y11523D1*
X19903Y11398D1*
X19911Y11270D1*
X19903Y11143D1*
X19880Y11019D1*
X19841Y10898D1*
X19787Y10783D1*
X19752Y10723D1*
X20569D1*
X20518Y10810D1*
X20468Y10927D1*
X20433Y11049D1*
X20414Y11174D1*
X20409Y11301D1*
X20421Y11427D1*
X20449Y11551D1*
X20491Y11671D1*
X20548Y11784D1*
X20619Y11890D1*
X20702Y11986D1*
X20796Y12070D1*
X20900Y12143D1*
X21013Y12202D1*
X21132Y12246D1*
X21255Y12276D1*
X21381Y12290D1*
X21508Y12288D1*
X21634Y12270D1*
X21756Y12237D1*
X21874Y12189D1*
X21985Y12127D1*
X22087Y12052D1*
X22179Y11964D1*
X22259Y11866D1*
X22326Y11759D1*
X22380Y11644D1*
X22419Y11523D1*
X22443Y11398D1*
X22451Y11270D1*
X22449Y11207D1*
X16710Y17036D2*
X16696Y16974D1*
X16674Y16915D1*
X16644Y16859D1*
X16607Y16808D1*
X16562Y16763D1*
X16512Y16724D1*
X16456Y16693D1*
X16397Y16670D1*
X16335Y16656D1*
X16272Y16650D1*
X16209Y16654D1*
X16147Y16666D1*
X16087Y16687D1*
X16030Y16716D1*
X15979Y16753D1*
X15933Y16796D1*
X15893Y16846D1*
X15861Y16901D1*
X15837Y16960D1*
X15822Y17021D1*
X15815Y17084D1*
X15818Y17148D1*
X15829Y17210D1*
X15849Y17270D1*
X15877Y17327D1*
X15913Y17380D1*
X15956Y17426D1*
X16005Y17467D1*
X16059Y17500D1*
X16117Y17524D1*
X16179Y17541D1*
X16241Y17549D1*
X16305Y17548D1*
X16368Y17537D1*
X16428Y17519D1*
X16485Y17491D1*
X16538Y17456D1*
X16586Y17414D1*
X16627Y17366D1*
X16661Y17312D1*
X16687Y17254D1*
X16704Y17193D1*
X16714Y17100D1*
X16710Y17036D1*
X15235Y15849D2*
X15222Y15786D1*
X15200Y15727D1*
X15170Y15671D1*
X15132Y15620D1*
X15088Y15575D1*
X15037Y15536D1*
X14982Y15505D1*
X14923Y15482D1*
X14861Y15468D1*
X14798Y15462D1*
X14734Y15466D1*
X14672Y15478D1*
X14612Y15499D1*
X14556Y15528D1*
X14504Y15565D1*
X14458Y15609D1*
X14419Y15658D1*
X14387Y15713D1*
X14363Y15772D1*
X14347Y15833D1*
X14341Y15896D1*
X14343Y15960D1*
X14354Y16022D1*
X14374Y16083D1*
X14402Y16139D1*
X14438Y16192D1*
X14481Y16238D1*
X14530Y16279D1*
X14584Y16312D1*
X14643Y16337D1*
X14704Y16353D1*
X14767Y16361D1*
X14830Y16360D1*
X14893Y16349D1*
X14954Y16331D1*
X15011Y16303D1*
X15064Y16268D1*
X15111Y16226D1*
X15152Y16178D1*
X15186Y16124D1*
X15212Y16066D1*
X15230Y16005D1*
X15240Y15912D1*
X15235Y15849D1*
X16719Y15845D2*
X16706Y15783D1*
X16684Y15723D1*
X16654Y15667D1*
X16616Y15616D1*
X16571Y15571D1*
X16521Y15532D1*
X16466Y15501D1*
X16407Y15478D1*
X16345Y15464D1*
X16282Y15458D1*
X16218Y15462D1*
X16156Y15474D1*
X16096Y15495D1*
X16040Y15524D1*
X15988Y15561D1*
X15942Y15605D1*
X15903Y15654D1*
X15871Y15709D1*
X15847Y15768D1*
X15831Y15829D1*
X15825Y15893D1*
X15827Y15956D1*
X15838Y16018D1*
X15858Y16079D1*
X15886Y16135D1*
X15922Y16188D1*
X15965Y16235D1*
X16014Y16275D1*
X16068Y16308D1*
X16127Y16333D1*
X16188Y16349D1*
X16251Y16357D1*
X16314Y16356D1*
X16377Y16346D1*
X16437Y16327D1*
X16495Y16300D1*
X16548Y16265D1*
X16595Y16222D1*
X16636Y16174D1*
X16670Y16120D1*
X16696Y16063D1*
X16714Y16002D1*
X16723Y15908D1*
X16719Y15845D1*
X19238Y17039D2*
X19224Y16977D1*
X19202Y16918D1*
X19172Y16862D1*
X19135Y16811D1*
X19090Y16766D1*
X19040Y16727D1*
X18984Y16696D1*
X18925Y16673D1*
X18863Y16659D1*
X18800Y16653D1*
X18737Y16657D1*
X18675Y16669D1*
X18615Y16690D1*
X18558Y16719D1*
X18507Y16756D1*
X18461Y16799D1*
X18421Y16849D1*
X18389Y16904D1*
X18365Y16963D1*
X18350Y17024D1*
X18343Y17087D1*
X18346Y17151D1*
X18357Y17213D1*
X18377Y17273D1*
X18405Y17330D1*
X18441Y17383D1*
X18484Y17429D1*
X18533Y17470D1*
X18587Y17502D1*
X18645Y17527D1*
X18707Y17544D1*
X18769Y17552D1*
X18833Y17550D1*
X18896Y17540D1*
X18956Y17521D1*
X19013Y17494D1*
X19066Y17459D1*
X19114Y17417D1*
X19155Y17369D1*
X19189Y17315D1*
X19215Y17257D1*
X19232Y17196D1*
X19242Y17103D1*
X19238Y17039D1*
X19231Y15860D2*
X19218Y15798D1*
X19196Y15739D1*
X19166Y15683D1*
X19128Y15632D1*
X19084Y15586D1*
X19033Y15548D1*
X18978Y15517D1*
X18919Y15494D1*
X18857Y15479D1*
X18794Y15474D1*
X18731Y15477D1*
X18668Y15490D1*
X18608Y15511D1*
X18552Y15540D1*
X18500Y15576D1*
X18454Y15620D1*
X18415Y15670D1*
X18383Y15725D1*
X18359Y15783D1*
X18344Y15845D1*
X18337Y15908D1*
X18339Y15971D1*
X18350Y16034D1*
X18370Y16094D1*
X18398Y16151D1*
X18434Y16203D1*
X18477Y16250D1*
X18526Y16290D1*
X18581Y16323D1*
X18639Y16348D1*
X18700Y16365D1*
X18763Y16372D1*
X18827Y16371D1*
X18889Y16361D1*
X18950Y16342D1*
X19007Y16315D1*
X19060Y16280D1*
X19107Y16238D1*
X19149Y16190D1*
X19182Y16136D1*
X19208Y16078D1*
X19226Y16017D1*
X19236Y15923D1*
X19231Y15860D1*
X20711Y15775D2*
X20697Y15713D1*
X20676Y15654D1*
X20645Y15598D1*
X20608Y15547D1*
X20563Y15501D1*
X20513Y15463D1*
X20458Y15432D1*
X20398Y15409D1*
X20337Y15394D1*
X20273Y15389D1*
X20210Y15392D1*
X20148Y15405D1*
X20088Y15426D1*
X20032Y15455D1*
X19980Y15491D1*
X19934Y15535D1*
X19894Y15585D1*
X19862Y15640D1*
X19839Y15698D1*
X19823Y15760D1*
X19816Y15823D1*
X19819Y15886D1*
X19830Y15949D1*
X19850Y16009D1*
X19878Y16066D1*
X19914Y16118D1*
X19957Y16165D1*
X20006Y16205D1*
X20060Y16238D1*
X20118Y16263D1*
X20180Y16280D1*
X20243Y16287D1*
X20306Y16286D1*
X20369Y16276D1*
X20429Y16257D1*
X20487Y16230D1*
X20540Y16195D1*
X20587Y16153D1*
X20628Y16105D1*
X20662Y16051D1*
X20688Y15993D1*
X20705Y15932D1*
X20715Y15838D1*
X20711Y15775D1*
X15628Y11992D2*
X16350Y11270D1*
X17072Y11992D2*
X16350Y11270D1*
D21*
X21430D3*
X18890D3*
X16350D3*
X13810D3*
D23*
Y10000D3*
X16350D3*
X18890D3*
X21430D3*
M02*
