G04 DipTrace 2.4.0.2*
%INcardoid.gbo*%
%MOMM*%
%ADD11C,0.14*%
%ADD39C,0.111*%
%FSLAX53Y53*%
G04*
G71*
G90*
G75*
G01*
%LNBotSilk*%
%LPD*%
X15314Y13899D2*
D39*
X15119Y12879D1*
X14925Y13899D1*
X14814D2*
Y12879D1*
X14644D1*
X14571Y12928D1*
X14522Y13025D1*
X14498Y13122D1*
X14474Y13267D1*
Y13511D1*
X14498Y13657D1*
X14522Y13753D1*
X14571Y13851D1*
X14644Y13899D1*
X14814D1*
X14363D2*
Y12879D1*
X14193D1*
X14120Y12928D1*
X14071Y13025D1*
X14047Y13122D1*
X14022Y13267D1*
Y13511D1*
X14047Y13657D1*
X14071Y13753D1*
X14120Y13851D1*
X14193Y13899D1*
X14363D1*
X16671Y13738D2*
X16695Y13835D1*
X16744Y13932D1*
X16792Y13981D1*
X16889D1*
X16938Y13932D1*
X16987Y13835D1*
X17011Y13738D1*
X17035Y13592D1*
Y13348D1*
X17011Y13204D1*
X16987Y13106D1*
X16938Y13009D1*
X16889Y12960D1*
X16792D1*
X16744Y13009D1*
X16695Y13106D1*
X16671Y13204D1*
Y13348D1*
X16792D1*
X16220Y13981D2*
Y12960D1*
X16560Y13981D1*
Y12960D1*
X16108Y13981D2*
Y12960D1*
X15938D1*
X15865Y13009D1*
X15816Y13106D1*
X15792Y13204D1*
X15768Y13348D1*
Y13592D1*
X15792Y13738D1*
X15816Y13835D1*
X15865Y13932D1*
X15938Y13981D1*
X16108D1*
X19177Y13738D2*
X19201Y13835D1*
X19250Y13932D1*
X19298Y13981D1*
X19395D1*
X19444Y13932D1*
X19493Y13835D1*
X19517Y13738D1*
X19541Y13592D1*
Y13348D1*
X19517Y13203D1*
X19493Y13106D1*
X19444Y13009D1*
X19395Y12960D1*
X19298D1*
X19250Y13009D1*
X19201Y13106D1*
X19177Y13203D1*
X19066Y13981D2*
Y12960D1*
X18774D1*
X18663Y13981D2*
Y12960D1*
X18323Y13981D2*
X18663Y13300D1*
X18542Y13544D2*
X18323Y12960D1*
X20810Y13799D2*
X20858Y13897D1*
X20931Y13945D1*
X21029D1*
X21102Y13897D1*
X21150Y13799D1*
Y13703D1*
X21126Y13605D1*
X21102Y13557D1*
X21053Y13509D1*
X20907Y13411D1*
X20858Y13363D1*
X20834Y13313D1*
X20810Y13217D1*
Y13071D1*
X20858Y12974D1*
X20931Y12925D1*
X21029D1*
X21102Y12974D1*
X21150Y13071D1*
X20699Y13945D2*
Y12925D1*
X20529D1*
X20456Y12974D1*
X20407Y13071D1*
X20383Y13168D1*
X20359Y13313D1*
Y13557D1*
X20383Y13703D1*
X20407Y13799D1*
X20456Y13897D1*
X20529Y13945D1*
X20699D1*
X12692Y17583D2*
D11*
X11416D1*
X12692Y17826D1*
X11416Y18069D1*
X12692D1*
X11416Y17049D2*
Y17444D1*
X12692D1*
Y17049D1*
X12024Y17444D2*
Y17201D1*
X12692Y16425D2*
X11416D1*
X12692Y16668D1*
X11416Y16911D1*
X12692D1*
X12024Y15952D2*
X11902Y15982D1*
X11842Y16073D1*
Y16164D1*
X11902Y16256D1*
X12024Y16286D1*
X12145Y16256D1*
X12207Y16195D1*
X12267Y16043D1*
X12327Y15982D1*
X12449Y15952D1*
X12510D1*
X12631Y15982D1*
X12692Y16073D1*
Y16164D1*
X12631Y16256D1*
X12510Y16286D1*
X11719Y14797D2*
X11599Y14828D1*
X11477Y14889D1*
X11416Y14949D1*
Y15070D1*
X11477Y15131D1*
X11599Y15192D1*
X11719Y15223D1*
X11902Y15253D1*
X12207D1*
X12388Y15223D1*
X12510Y15192D1*
X12631Y15131D1*
X12692Y15070D1*
Y14949D1*
X12631Y14889D1*
X12510Y14828D1*
X12388Y14797D1*
X11842Y14294D2*
X12692D1*
X12024D2*
X11902Y14354D1*
X11842Y14416D1*
Y14506D1*
X11902Y14567D1*
X12024Y14628D1*
X12207Y14658D1*
X12327D1*
X12510Y14628D1*
X12631Y14567D1*
X12692Y14506D1*
Y14416D1*
X12631Y14354D1*
X12510Y14294D1*
X11842Y14155D2*
X12692D1*
X12207D2*
X12024Y14124D1*
X11902Y14064D1*
X11842Y14003D1*
Y13912D1*
X11416Y13408D2*
X12692D1*
X12024D2*
X11902Y13469D1*
X11842Y13530D1*
Y13621D1*
X11902Y13682D1*
X12024Y13743D1*
X12207Y13773D1*
X12327D1*
X12510Y13743D1*
X12631Y13682D1*
X12692Y13621D1*
Y13530D1*
X12631Y13469D1*
X12510Y13408D1*
X11842Y13118D2*
X11902Y13178D1*
X12024Y13239D1*
X12207Y13270D1*
X12327D1*
X12510Y13239D1*
X12631Y13178D1*
X12692Y13118D1*
Y13027D1*
X12631Y12966D1*
X12510Y12905D1*
X12327Y12874D1*
X12207D1*
X12024Y12905D1*
X11902Y12966D1*
X11842Y13027D1*
Y13118D1*
X11416Y12736D2*
X11477Y12705D1*
X11416Y12674D1*
X11354Y12705D1*
X11416Y12736D1*
X11842Y12705D2*
X12692D1*
X11416Y12171D2*
X12692D1*
X12024D2*
X11902Y12232D1*
X11842Y12293D1*
Y12384D1*
X11902Y12444D1*
X12024Y12505D1*
X12207Y12536D1*
X12327D1*
X12510Y12505D1*
X12631Y12444D1*
X12692Y12384D1*
Y12293D1*
X12631Y12232D1*
X12510Y12171D1*
X13058Y18928D2*
Y19323D1*
X14334D1*
X13666D2*
Y19080D1*
X13058Y18789D2*
X14334D1*
X13848Y18650D2*
Y18285D1*
X13726D1*
X13604Y18316D1*
X13544Y18346D1*
X13483Y18407D1*
Y18498D1*
X13544Y18559D1*
X13666Y18620D1*
X13848Y18650D1*
X13969D1*
X14152Y18620D1*
X14272Y18559D1*
X14334Y18498D1*
Y18407D1*
X14272Y18346D1*
X14152Y18285D1*
X13483Y18147D2*
X14334Y17812D1*
X13483D2*
X14334Y18147D1*
Y16628D2*
X13058D1*
X14334Y16871D1*
X13058Y17114D1*
X14334D1*
X13483Y16337D2*
X13544Y16398D1*
X13666Y16459D1*
X13848Y16489D1*
X13969D1*
X14152Y16459D1*
X14272Y16398D1*
X14334Y16337D1*
Y16246D1*
X14272Y16185D1*
X14152Y16125D1*
X13969Y16094D1*
X13848D1*
X13666Y16125D1*
X13544Y16185D1*
X13483Y16246D1*
Y16337D1*
X13058Y15591D2*
X14334D1*
X13666D2*
X13544Y15651D1*
X13483Y15712D1*
Y15803D1*
X13544Y15864D1*
X13666Y15925D1*
X13848Y15955D1*
X13969D1*
X14152Y15925D1*
X14272Y15864D1*
X14334Y15803D1*
Y15712D1*
X14272Y15651D1*
X14152Y15591D1*
X13483Y15452D2*
X14091D1*
X14272Y15421D1*
X14334Y15360D1*
Y15269D1*
X14272Y15209D1*
X14091Y15118D1*
X13483D2*
X14334D1*
X13058Y14979D2*
X14334D1*
X13848Y14840D2*
Y14475D1*
X13726D1*
X13604Y14506D1*
X13544Y14536D1*
X13483Y14597D1*
Y14688D1*
X13544Y14749D1*
X13666Y14810D1*
X13848Y14840D1*
X13969D1*
X14152Y14810D1*
X14272Y14749D1*
X14334Y14688D1*
Y14597D1*
X14272Y14536D1*
X14152Y14475D1*
X23886Y14540D2*
Y14267D1*
X23825Y14175D1*
X23764Y14145D1*
X23644Y14114D1*
X23521D1*
X23401Y14145D1*
X23339Y14175D1*
X23279Y14267D1*
Y14540D1*
X24555D1*
X23886Y14327D2*
X24555Y14114D1*
X23280Y13793D2*
X23340Y13884D1*
X23523Y13945D1*
X23826Y13975D1*
X24009D1*
X24312Y13945D1*
X24494Y13884D1*
X24555Y13793D1*
Y13733D1*
X24494Y13641D1*
X24312Y13581D1*
X24009Y13550D1*
X23826D1*
X23523Y13581D1*
X23340Y13641D1*
X23280Y13733D1*
Y13793D1*
X23523Y13581D2*
X24312Y13945D1*
X24433Y13381D2*
X24494Y13411D1*
X24555Y13381D1*
X24494Y13350D1*
X24433Y13381D1*
X24555Y12907D2*
X23280D1*
X24129Y13211D1*
Y12756D1*
X23552Y17278D2*
X23491D1*
X23369Y17247D1*
X23309Y17217D1*
X23248Y17156D1*
Y17035D1*
X23309Y16974D1*
X23369Y16944D1*
X23491Y16913D1*
X23612D1*
X23734Y16944D1*
X23915Y17005D1*
X24523Y17308D1*
Y16883D1*
X23248Y16562D2*
X23309Y16653D1*
X23491Y16714D1*
X23794Y16744D1*
X23977D1*
X24280Y16714D1*
X24463Y16653D1*
X24523Y16562D1*
Y16501D1*
X24463Y16410D1*
X24280Y16350D1*
X23977Y16319D1*
X23794D1*
X23491Y16350D1*
X23309Y16410D1*
X23248Y16501D1*
Y16562D1*
X23491Y16350D2*
X24280Y16714D1*
X23491Y16180D2*
X23429Y16119D1*
X23248Y16028D1*
X24523D1*
X23248Y15524D2*
Y15828D1*
X23794Y15858D1*
X23734Y15828D1*
X23672Y15736D1*
Y15646D1*
X23734Y15555D1*
X23855Y15494D1*
X24037Y15463D1*
X24158D1*
X24341Y15494D1*
X24463Y15555D1*
X24523Y15646D1*
Y15736D1*
X24463Y15828D1*
X24401Y15858D1*
X24280Y15889D1*
X21463Y18856D2*
Y19251D1*
X22739D1*
X22071D2*
Y19008D1*
X21889Y18686D2*
X22739Y18504D1*
X22982Y18565D1*
X23104Y18626D1*
X23165Y18686D1*
Y18717D1*
X21889Y18322D2*
X22739Y18504D1*
X21463Y18183D2*
X22739D1*
X22071D2*
X21949Y18122D1*
X21889Y18061D1*
Y17970D1*
X21949Y17910D1*
X22071Y17849D1*
X22254Y17819D1*
X22374D1*
X22557Y17849D1*
X22678Y17910D1*
X22739Y17970D1*
Y18061D1*
X22678Y18122D1*
X22557Y18183D1*
X22254Y17680D2*
Y17315D1*
X22132D1*
X22009Y17346D1*
X21949Y17376D1*
X21889Y17437D1*
Y17528D1*
X21949Y17588D1*
X22071Y17650D1*
X22254Y17680D1*
X22374D1*
X22557Y17649D1*
X22678Y17588D1*
X22739Y17528D1*
Y17437D1*
X22678Y17376D1*
X22557Y17315D1*
X21889Y17176D2*
X22739D1*
X22254D2*
X22071Y17146D1*
X21949Y17085D1*
X21889Y17024D1*
Y16933D1*
X21463Y16234D2*
X22739D1*
Y15870D1*
X21889Y15367D2*
X22739D1*
X22071D2*
X21949Y15427D1*
X21889Y15488D1*
Y15578D1*
X21949Y15640D1*
X22071Y15700D1*
X22254Y15731D1*
X22374D1*
X22557Y15700D1*
X22678Y15640D1*
X22739Y15578D1*
Y15488D1*
X22678Y15427D1*
X22557Y15367D1*
X21463Y15228D2*
X22739D1*
X22071D2*
X21949Y15167D1*
X21889Y15106D1*
Y15015D1*
X21949Y14955D1*
X22071Y14894D1*
X22254Y14863D1*
X22374D1*
X22557Y14894D1*
X22678Y14955D1*
X22739Y15015D1*
Y15106D1*
X22678Y15167D1*
X22557Y15228D1*
X22071Y14390D2*
X21949Y14421D1*
X21889Y14512D1*
Y14603D1*
X21949Y14694D1*
X22071Y14724D1*
X22192Y14694D1*
X22254Y14633D1*
X22314Y14482D1*
X22374Y14421D1*
X22497Y14390D1*
X22557D1*
X22678Y14421D1*
X22739Y14512D1*
Y14603D1*
X22678Y14694D1*
X22557Y14724D1*
X21463Y13691D2*
X22739D1*
X21889Y13553D2*
X22739D1*
X22132D2*
X21949Y13461D1*
X21889Y13400D1*
Y13310D1*
X21949Y13249D1*
X22132Y13218D1*
X22739D1*
X22071Y12714D2*
X21949Y12776D1*
X21889Y12837D1*
Y12927D1*
X21949Y12988D1*
X22071Y13049D1*
X22254Y13079D1*
X22374D1*
X22557Y13049D1*
X22678Y12988D1*
X22739Y12927D1*
Y12837D1*
X22678Y12776D1*
X22557Y12714D1*
X22617Y12545D2*
X22679Y12576D1*
X22739Y12545D1*
X22679Y12515D1*
X22617Y12545D1*
M02*
