G04 DipTrace 2.4.0.2*
%INcardoid.gtp*%
%MOMM*%
%ADD10C,0.25*%
%ADD16R,0.6X0.4*%
%ADD17R,0.4X0.6*%
%ADD18R,0.9X0.7*%
%ADD19R,1.1X1.0*%
%FSLAX53Y53*%
G04*
G71*
G90*
G75*
G01*
%LNTopPaste*%
%LPD*%
X15880Y17450D2*
D10*
G02X14880Y18450I-370J631D01*
G01*
X16230Y17850D2*
G03X15280Y18800I-675J275D01*
G01*
G36*
X14030Y15100D2*
X14430D1*
Y16550D1*
X14030D1*
Y15100D1*
G37*
G36*
X15080D2*
X16030D1*
Y15550D1*
X15080D1*
Y15100D1*
G37*
G36*
X15180Y18700D2*
X16130D1*
Y19100D1*
X15180D1*
Y18700D1*
G37*
G36*
X14030Y17650D2*
X14430D1*
Y19100D1*
X14030D1*
Y17650D1*
G37*
G36*
X16630D2*
X17030D1*
Y19100D1*
X16630D1*
Y17650D1*
G37*
G36*
Y15100D2*
X17030D1*
Y16550D1*
X16630D1*
Y15100D1*
G37*
D16*
X15980Y16100D3*
Y16800D3*
X15080D3*
Y16100D3*
D17*
X14230Y16250D3*
X19880Y17450D2*
D10*
G02X18880Y18450I-370J631D01*
G01*
X20230Y17850D2*
G03X19280Y18800I-675J275D01*
G01*
G36*
X18030Y15100D2*
X18430D1*
Y16550D1*
X18030D1*
Y15100D1*
G37*
G36*
X19080D2*
X20030D1*
Y15550D1*
X19080D1*
Y15100D1*
G37*
G36*
X19180Y18700D2*
X20130D1*
Y19100D1*
X19180D1*
Y18700D1*
G37*
G36*
X18030Y17650D2*
X18430D1*
Y19100D1*
X18030D1*
Y17650D1*
G37*
G36*
X20630D2*
X21030D1*
Y19100D1*
X20630D1*
Y17650D1*
G37*
G36*
Y15100D2*
X21030D1*
Y16550D1*
X20630D1*
Y15100D1*
G37*
D16*
X19980Y16100D3*
Y16800D3*
X19080D3*
Y16100D3*
D17*
X18230Y16250D3*
D18*
X13998Y14225D3*
X15298D3*
D19*
X13587Y12963D3*
X15287D3*
M02*
