G04 DipTrace 2.4.0.2*
%INUSBBiPower.gtp*%
%MOIN*%
%ADD24R,0.0433X0.0394*%
%ADD25R,0.0394X0.0433*%
%ADD26R,0.0276X0.0354*%
%ADD27R,0.1772X0.0984*%
%ADD28R,0.0354X0.0276*%
%ADD30R,0.0276X0.013*%
%ADD31R,0.011X0.0276*%
%ADD32R,0.0094X0.0276*%
%ADD36O,0.0247X0.0248*%
%ADD37R,0.0094X0.0236*%
%ADD41O,0.0282X0.0286*%
%ADD42R,0.0236X0.0098*%
%ADD45R,0.0205X0.0118*%
%ADD47R,0.0433X0.0236*%
%ADD49R,0.0157X0.0531*%
%ADD50R,0.0945X0.063*%
%ADD51R,0.1063X0.063*%
%ADD52R,0.1476X0.0906*%
%FSLAX44Y44*%
G04*
G70*
G90*
G75*
G01*
%LNTopPaste*%
%LPD*%
D24*
X7446Y7280D3*
X8115D3*
X8160Y10441D3*
X8830D3*
X7645Y10196D3*
X6976D3*
D25*
X6883Y7171D3*
Y6502D3*
X6437Y9045D3*
Y8376D3*
D24*
X5096Y8344D3*
X5765D3*
X10172Y4371D3*
X9502D3*
X9369Y6130D3*
X10039D3*
D25*
X8592Y5217D3*
Y4547D3*
D26*
X6315Y10062D3*
Y10574D3*
D27*
X9453Y7011D3*
Y8586D3*
D24*
X8824Y9904D3*
X8155D3*
X9470Y9383D3*
X8801D3*
D25*
X9988Y10049D3*
Y9380D3*
D28*
X7416Y9310D3*
X6904D3*
D26*
X4994Y6984D3*
Y7496D3*
X5368Y7199D3*
Y7711D3*
X4558Y8217D3*
Y7705D3*
X4943Y10113D3*
Y10625D3*
X4564Y10121D3*
Y10633D3*
D28*
X5371Y10626D3*
X5883D3*
D30*
X5922Y9382D3*
D31*
X5823Y9678D3*
D32*
X5627D3*
X5430D3*
D31*
X5233D3*
D30*
X5134Y9382D3*
D31*
X5233Y9087D3*
D32*
X5430D3*
X5627D3*
D31*
X5823D3*
D36*
X6077Y7239D3*
X6403Y7237D3*
D37*
X6558Y7634D3*
X6401D3*
X6243D3*
X6086D3*
X5928D3*
Y6847D3*
X6086D3*
X6243D3*
X6401D3*
X6558D3*
D41*
X7653Y7733D3*
X7661Y8118D3*
D42*
X8045Y7623D3*
Y7820D3*
Y8017D3*
Y8214D3*
X7258D3*
Y8017D3*
Y7820D3*
Y7623D3*
D45*
X7165Y9025D3*
Y8828D3*
Y8632D3*
X7468D3*
Y8828D3*
Y9025D3*
D47*
X9121Y5650D3*
Y5276D3*
Y4902D3*
X10184D3*
Y5650D3*
D49*
X5822Y5763D3*
X6078D3*
X6333D3*
X6589D3*
X6845D3*
D50*
X5172Y5654D3*
X7495D3*
D51*
X4965Y4572D3*
X7702D3*
D52*
X6333Y4710D3*
M02*
