G04 DipTrace 2.4.0.2*
%INUSBBiPower.gbl*%
%MOIN*%
%ADD13C,0.006*%
%ADD14C,0.012*%
%ADD15C,0.02*%
%ADD16C,0.03*%
%ADD17C,0.008*%
%ADD18C,0.01*%
%ADD21C,0.015*%
%ADD23R,0.08X0.0669*%
%ADD24R,0.0669X0.08*%
%ADD40C,0.028*%
%ADD54C,0.028*%
%FSLAX44Y44*%
G04*
G70*
G90*
G75*
G01*
%LNBottom*%
%LPD*%
X6028Y7950D2*
D13*
Y7968D1*
X6386Y8326D1*
Y8522D1*
X6841Y8977D1*
X6849D1*
X4515Y6799D2*
D16*
Y6983D1*
X5921Y8390D1*
X6108D1*
D17*
Y8591D1*
X7072Y9555D1*
X7050D1*
X7136Y9641D1*
X4973Y9673D2*
D18*
Y9702D1*
X4381Y10293D1*
X3937D1*
X5726Y7020D2*
X5466D1*
X5227Y6782D1*
X4928Y7936D2*
Y7979D1*
X5706Y8757D1*
X8104Y8421D2*
Y8921D1*
X8514Y9331D1*
Y9346D1*
X6426Y7958D2*
X6406D1*
Y8013D1*
X8367Y8147D2*
D14*
Y8799D1*
X9316Y9747D1*
X9591D1*
Y9788D1*
X9557D1*
X3937Y4293D2*
X4270D1*
Y5398D1*
X5329Y6458D1*
X4572D1*
X5028D1*
X5317D1*
X5633D1*
X6243Y7068D1*
X6424Y7248D1*
Y7285D1*
X3937Y5293D2*
X4299D1*
Y5440D1*
X5317Y6458D1*
X4552Y5956D2*
Y6458D1*
X4572D1*
X5122Y6174D2*
X4572D1*
Y6458D1*
X5028Y6417D2*
Y6458D1*
X4419Y4140D2*
X4355D1*
Y4210D1*
X4272Y4293D1*
X4964Y8890D2*
X5431Y9357D1*
X6502D1*
X3937Y8293D2*
X3942D1*
X4476Y8827D1*
X4900D1*
X4964Y8890D1*
X7945Y6113D2*
Y5952D1*
X8514Y5383D1*
X8908D1*
X10026D1*
X10937Y6293D1*
Y7293D2*
Y7190D1*
X10744Y6997D1*
Y6486D1*
X10937Y6293D1*
X10026Y5383D2*
X10848D1*
X10937Y5293D1*
X9648Y5731D2*
D18*
X9256D1*
X8908Y5383D1*
X6421Y7186D2*
D14*
X6348D1*
X6243Y7291D1*
D18*
X6171D1*
X6066Y7186D1*
X6243Y7291D2*
Y7068D1*
X9557Y9788D2*
D14*
Y10913D1*
X9937Y11293D1*
X5772Y7678D2*
D18*
X5937D1*
X6069Y7546D1*
X6545D1*
X6677Y7414D1*
Y6438D1*
X6485Y6247D1*
X6677Y7414D2*
Y8443D1*
X6865Y8631D1*
X7206D1*
X8457Y9882D1*
Y10429D1*
X8105Y10781D1*
X7494D1*
X7281Y10993D1*
X7237D1*
X6937Y11293D1*
X5634Y10301D2*
X5650D1*
X6014Y10664D1*
X6602D1*
X6664Y10602D1*
X5292Y10078D2*
Y10017D1*
X5755D1*
X5920Y10181D1*
X6915D1*
X7266Y10532D1*
X7315D1*
X10944Y4293D2*
X10349D1*
X9535Y5107D1*
X6969Y8381D2*
X7192D1*
X8889Y10078D1*
X9267D1*
X5979Y9848D2*
Y9828D1*
X5180D1*
X4903Y10104D1*
Y11271D1*
X4984Y11190D1*
Y11293D1*
X4937D1*
X5493Y6175D2*
D15*
X5939D1*
X6286Y6523D1*
X6032Y9083D2*
D18*
X5646D1*
X5034Y8471D1*
X4643D1*
X4676Y8438D1*
X4889Y9341D2*
D21*
X5047D1*
X5278Y9571D1*
X6258D1*
X6619Y9932D1*
X7712D1*
X7740Y9904D1*
X10937Y10293D2*
D14*
Y10210D1*
X10510Y10638D1*
Y10819D1*
X10727Y11036D1*
X10937Y8293D2*
X10842D1*
X10408Y7859D1*
Y6390D1*
X10297Y6280D1*
X9019D1*
X8571Y5832D1*
D54*
X10727Y11036D3*
X6664Y10602D3*
X5634Y10301D3*
X5292Y10078D3*
X5979Y9848D3*
X4889Y9341D3*
X7193Y6885D3*
X7845Y6904D3*
X7275Y6172D3*
X8247Y6490D3*
X7945Y6113D3*
X7298Y5096D3*
X4851Y5132D3*
X4462Y5254D3*
X8571Y5832D3*
X9033Y4464D3*
X8467Y6264D3*
X7136Y9641D3*
X4964Y8890D3*
X9648Y5731D3*
X6032Y9083D3*
X4419Y4140D3*
X7873Y7577D3*
X7760Y8505D3*
X7486Y6870D3*
X8189Y6947D3*
X7566Y6572D3*
X7878Y6488D3*
X6502Y9357D3*
X4552Y5956D3*
X5122Y6174D3*
X5028Y6417D3*
X5543Y4640D3*
X7118Y4628D3*
X5706Y8757D3*
X4676Y8438D3*
X4928Y7936D3*
X7740Y9904D3*
X4973Y9673D3*
X7589Y8336D3*
X7876Y7301D3*
X6301Y5193D3*
X6735Y9655D3*
X7481Y9651D3*
X10514Y9795D3*
X9535Y5107D3*
X8104Y8421D3*
X8367Y8147D3*
X6286Y6523D3*
X8514Y9346D3*
X9557Y9788D3*
X6969Y8381D3*
X9267Y10078D3*
X5493Y6175D3*
X6485Y6247D3*
X5227Y6782D3*
X5726Y7020D3*
X5772Y7678D3*
X4515Y6799D3*
X6108Y8390D3*
X6028Y7950D3*
X6849Y8977D3*
X6426Y7958D3*
X7315Y10532D3*
X8369Y11209D2*
D13*
X8504D1*
X9370D2*
X10334D1*
X8369Y11151D2*
X8504D1*
X9370D2*
X10321D1*
X8369Y11092D2*
X8504D1*
X9370D2*
X10307D1*
X8369Y11033D2*
X8504D1*
X9370D2*
X10294D1*
X8369Y10975D2*
X8504D1*
X9370D2*
X10280D1*
X8369Y10916D2*
X8504D1*
X9370D2*
X10267D1*
X8369Y10858D2*
X8504D1*
X9370D2*
X10253D1*
X8294Y10799D2*
X10240D1*
X8352Y10741D2*
X10227D1*
X8411Y10682D2*
X10213D1*
X7534Y10624D2*
X8054D1*
X8469D2*
X10199D1*
X7551Y10565D2*
X8113D1*
X8527D2*
X10185D1*
X7552Y10507D2*
X8172D1*
X8582D2*
X10172D1*
X7538Y10448D2*
X8230D1*
X8603D2*
X10158D1*
X7505Y10390D2*
X8289D1*
X8605D2*
X10145D1*
X7438Y10331D2*
X8308D1*
X8605D2*
X10122D1*
X7214Y10273D2*
X8308D1*
X8605D2*
X9134D1*
X9400D2*
X10057D1*
X7155Y10214D2*
X8308D1*
X8605D2*
X8842D1*
X9462D2*
X9994D1*
X7097Y10155D2*
X8308D1*
X8605D2*
X8760D1*
X9492D2*
X9929D1*
X7875Y10097D2*
X8308D1*
X8605D2*
X8702D1*
X9505D2*
X9865D1*
X7935Y10038D2*
X8308D1*
X8605D2*
X8643D1*
X9502D2*
X9800D1*
X4435Y9980D2*
X4488D1*
X7965D2*
X8308D1*
X9484D2*
X9736D1*
X4435Y9921D2*
X4546D1*
X7977D2*
X8288D1*
X8940D2*
X9090D1*
X9445D2*
X9672D1*
X3978Y9863D2*
X4605D1*
X7974D2*
X8230D1*
X8881D2*
X9175D1*
X9361D2*
X9608D1*
X3978Y9804D2*
X4663D1*
X7955D2*
X8171D1*
X8823D2*
X9543D1*
X3979Y9746D2*
X4722D1*
X6675D2*
X6923D1*
X7349D2*
X7564D1*
X7915D2*
X8113D1*
X8764D2*
X9479D1*
X4435Y9687D2*
X4735D1*
X6617D2*
X6903D1*
X7370D2*
X7651D1*
X7828D2*
X8054D1*
X8705D2*
X9414D1*
X4435Y9629D2*
X4739D1*
X6558D2*
X6898D1*
X7374D2*
X7996D1*
X8647D2*
X9350D1*
X4435Y9570D2*
X4758D1*
X6499D2*
X6894D1*
X7363D2*
X7938D1*
X8588D2*
X9286D1*
X4435Y9512D2*
X4727D1*
X6441D2*
X6835D1*
X7334D2*
X7879D1*
X8682D2*
X9221D1*
X4435Y9453D2*
X4680D1*
X6382D2*
X6777D1*
X7278D2*
X7821D1*
X8726D2*
X9157D1*
X4435Y9395D2*
X4657D1*
X5344D2*
X6718D1*
X7104D2*
X7762D1*
X8747D2*
X9092D1*
X4435Y9336D2*
X4651D1*
X5285D2*
X6660D1*
X7045D2*
X7703D1*
X8752D2*
X9029D1*
X4435Y9278D2*
X4660D1*
X5227D2*
X5899D1*
X6166D2*
X6601D1*
X6987D2*
X7645D1*
X8742D2*
X8964D1*
X4435Y9219D2*
X4686D1*
X5168D2*
X5597D1*
X6226D2*
X6543D1*
X6929D2*
X7586D1*
X8714D2*
X8900D1*
X4435Y9160D2*
X4737D1*
X5042D2*
X5516D1*
X6257D2*
X6485D1*
X6998D2*
X7528D1*
X8660D2*
X8835D1*
X4435Y9102D2*
X5457D1*
X6269D2*
X6426D1*
X7051D2*
X7469D1*
X8492D2*
X8772D1*
X4435Y9043D2*
X5399D1*
X6266D2*
X6368D1*
X7078D2*
X7410D1*
X8434D2*
X8707D1*
X4435Y8985D2*
X5340D1*
X6249D2*
X6309D1*
X7087D2*
X7352D1*
X8375D2*
X8643D1*
X4435Y8926D2*
X5282D1*
X6209D2*
X6250D1*
X7082D2*
X7293D1*
X8316D2*
X8578D1*
X4435Y8868D2*
X5223D1*
X6124D2*
X6192D1*
X7060D2*
X7235D1*
X7886D2*
X7956D1*
X8258D2*
X8514D1*
X3983Y8809D2*
X5164D1*
X5937D2*
X6133D1*
X7015D2*
X7176D1*
X7828D2*
X7956D1*
X8253D2*
X8466D1*
X3984Y8751D2*
X5106D1*
X5944D2*
X6075D1*
X7769D2*
X7956D1*
X8253D2*
X8467D1*
X3984Y8692D2*
X5047D1*
X5935D2*
X6016D1*
X7710D2*
X7956D1*
X8253D2*
X8467D1*
X3984Y8634D2*
X4545D1*
X4807D2*
X4989D1*
X5908D2*
X5977D1*
X7652D2*
X7956D1*
X8253D2*
X8467D1*
X3985Y8575D2*
X4483D1*
X7593D2*
X7925D1*
X8283D2*
X8467D1*
X3985Y8517D2*
X4452D1*
X7535D2*
X7887D1*
X8322D2*
X8468D1*
X3985Y8458D2*
X4439D1*
X7476D2*
X7869D1*
X8339D2*
X8468D1*
X3986Y8400D2*
X4441D1*
X7418D2*
X7867D1*
X8341D2*
X8468D1*
X3986Y8341D2*
X4459D1*
X7360D2*
X7880D1*
X8328D2*
X8469D1*
X3986Y8283D2*
X4498D1*
X4855D2*
X5025D1*
X7301D2*
X7911D1*
X8296D2*
X8469D1*
X3987Y8224D2*
X4580D1*
X4772D2*
X4966D1*
X6463D2*
X6528D1*
X7146D2*
X7975D1*
X8234D2*
X8469D1*
X3987Y8165D2*
X4888D1*
X6405D2*
X6528D1*
X6825D2*
X6877D1*
X7060D2*
X8469D1*
X3987Y8107D2*
X4765D1*
X6346D2*
X6528D1*
X6825D2*
X8470D1*
X3987Y8048D2*
X4719D1*
X6287D2*
X6528D1*
X6825D2*
X8470D1*
X3988Y7990D2*
X4696D1*
X6263D2*
X6528D1*
X6825D2*
X8434D1*
X3988Y7931D2*
X4689D1*
X6266D2*
X6528D1*
X6825D2*
X8107D1*
X3988Y7873D2*
X4699D1*
X6253D2*
X6528D1*
X6825D2*
X7891D1*
X3989Y7814D2*
X4724D1*
X6223D2*
X6528D1*
X6825D2*
X7892D1*
X3989Y7756D2*
X4775D1*
X6162D2*
X6528D1*
X6825D2*
X7894D1*
X4435Y7697D2*
X4880D1*
X6124D2*
X6528D1*
X6825D2*
X8143D1*
X4435Y7639D2*
X4822D1*
X6825D2*
X8288D1*
X4435Y7580D2*
X4763D1*
X5460D2*
X5555D1*
X6825D2*
X8288D1*
X4435Y7522D2*
X4705D1*
X5402D2*
X5594D1*
X6825D2*
X8289D1*
X4435Y7463D2*
X4646D1*
X5344D2*
X5678D1*
X5866D2*
X5945D1*
X6825D2*
X8289D1*
X4435Y7405D2*
X4587D1*
X5285D2*
X6044D1*
X6825D2*
X8289D1*
X4435Y7346D2*
X4529D1*
X5226D2*
X6528D1*
X6825D2*
X8289D1*
X4435Y7288D2*
X4470D1*
X5168D2*
X6528D1*
X6825D2*
X8289D1*
X5109Y7229D2*
X5618D1*
X5834D2*
X6528D1*
X6825D2*
X8290D1*
X5051Y7170D2*
X5543D1*
X5908D2*
X6528D1*
X6825D2*
X8290D1*
X4992Y7112D2*
X5350D1*
X5945D2*
X6528D1*
X6825D2*
X8290D1*
X4933Y7053D2*
X5291D1*
X5962D2*
X6528D1*
X6825D2*
X8290D1*
X4875Y6995D2*
X5129D1*
X5963D2*
X6528D1*
X6825D2*
X8291D1*
X4816Y6936D2*
X5048D1*
X5948D2*
X6528D1*
X6825D2*
X8291D1*
X4763Y6878D2*
X5010D1*
X5915D2*
X6528D1*
X6825D2*
X8291D1*
X4763Y6819D2*
X4992D1*
X5472D2*
X5604D1*
X5848D2*
X6528D1*
X6825D2*
X8291D1*
X4760Y6761D2*
X4990D1*
X5464D2*
X6528D1*
X6825D2*
X8291D1*
X4743Y6702D2*
X5003D1*
X5451D2*
X6133D1*
X6439D2*
X6528D1*
X6825D2*
X8336D1*
X4707Y6644D2*
X5034D1*
X5420D2*
X6082D1*
X6491D2*
X6529D1*
X6825D2*
X8385D1*
X4635Y6585D2*
X5098D1*
X5357D2*
X6056D1*
X6825D2*
X8435D1*
X4435Y6527D2*
X6012D1*
X6825D2*
X8485D1*
X4435Y6468D2*
X5954D1*
X6825D2*
X10250D1*
X10566D2*
X10944D1*
X4435Y6410D2*
X5895D1*
X6822D2*
X8933D1*
X10566D2*
X10944D1*
X4435Y6351D2*
X5336D1*
X6795D2*
X8869D1*
X10560D2*
X10944D1*
X4435Y6292D2*
X5287D1*
X6738D2*
X8811D1*
X10530D2*
X10944D1*
X4435Y6234D2*
X5262D1*
X6723D2*
X8752D1*
X10472D2*
X10944D1*
X4435Y6175D2*
X5255D1*
X6217D2*
X6259D1*
X6712D2*
X8693D1*
X10414D2*
X10944D1*
X4435Y6117D2*
X5262D1*
X6158D2*
X6286D1*
X6684D2*
X8635D1*
X9077D2*
X10944D1*
X4435Y6058D2*
X5287D1*
X6100D2*
X6343D1*
X6626D2*
X8514D1*
X9019D2*
X10944D1*
X4435Y6000D2*
X5335D1*
X6023D2*
X8405D1*
X8960D2*
X10944D1*
X4435Y5941D2*
X8360D1*
X8901D2*
X10944D1*
X4435Y5883D2*
X8339D1*
X8843D2*
X10944D1*
X3998Y5824D2*
X8333D1*
X8810D2*
X10944D1*
X3999Y5766D2*
X8342D1*
X8800D2*
X10944D1*
X3999Y5707D2*
X8370D1*
X8773D2*
X10944D1*
X3999Y5649D2*
X8423D1*
X8720D2*
X10944D1*
X3999Y5590D2*
X10944D1*
X4000Y5532D2*
X10944D1*
X4000Y5473D2*
X10944D1*
X4000Y5415D2*
X10944D1*
X4001Y5356D2*
X10944D1*
X4001Y5297D2*
X9396D1*
X9675D2*
X10944D1*
X4001Y5239D2*
X9338D1*
X9733D2*
X10944D1*
X4002Y5180D2*
X9308D1*
X9762D2*
X10944D1*
X4002Y5122D2*
X9297D1*
X9773D2*
X10944D1*
X4002Y5063D2*
X9301D1*
X9786D2*
X10944D1*
X4003Y5005D2*
X9321D1*
X9845D2*
X10944D1*
X4003Y4946D2*
X9362D1*
X9903D2*
X10944D1*
X4003Y4888D2*
X9454D1*
X9962D2*
X10944D1*
X4003Y4829D2*
X9607D1*
X10021D2*
X10944D1*
X4004Y4771D2*
X9665D1*
X10079D2*
X10944D1*
X4004Y4712D2*
X9724D1*
X10138D2*
X10445D1*
X4004Y4654D2*
X9781D1*
X10196D2*
X10445D1*
X4005Y4595D2*
X9840D1*
X10254D2*
X10445D1*
X4005Y4537D2*
X9899D1*
X10313D2*
X10445D1*
X4005Y4478D2*
X9957D1*
X10371D2*
X10445D1*
X4006Y4420D2*
X10016D1*
X4006Y4361D2*
X10074D1*
X4006Y4302D2*
X10133D1*
X4007Y4244D2*
X10192D1*
X4007Y4185D2*
X10251D1*
X4007Y4127D2*
X10445D1*
X4007Y4068D2*
X10445D1*
X4007Y4010D2*
X10445D1*
X4007Y3951D2*
X4061D1*
X10481Y4720D2*
X10950D1*
X10949Y6477D1*
X10560Y6476D1*
Y6390D1*
X10557Y6361D1*
X10548Y6332D1*
X10534Y6306D1*
X10515Y6283D1*
X10405Y6172D1*
X10381Y6153D1*
X10355Y6139D1*
X10327Y6130D1*
X10297Y6127D1*
X9082D1*
X8803Y5849D1*
X8802Y5802D1*
X8796Y5773D1*
X8787Y5745D1*
X8774Y5718D1*
X8757Y5693D1*
X8738Y5670D1*
X8715Y5650D1*
X8691Y5633D1*
X8664Y5619D1*
X8636Y5609D1*
X8607Y5603D1*
X8577Y5600D1*
X8547Y5601D1*
X8518Y5606D1*
X8489Y5615D1*
X8462Y5627D1*
X8437Y5643D1*
X8413Y5662D1*
X8393Y5683D1*
X8375Y5708D1*
X8361Y5734D1*
X8350Y5762D1*
X8343Y5791D1*
X8339Y5820D1*
X8340Y5850D1*
X8344Y5880D1*
X8352Y5909D1*
X8364Y5936D1*
X8379Y5962D1*
X8397Y5986D1*
X8418Y6007D1*
X8442Y6025D1*
X8468Y6040D1*
X8495Y6052D1*
X8524Y6060D1*
X8554Y6064D1*
X8588D1*
X8718Y6194D1*
X8911Y6387D1*
X8934Y6406D1*
X8961Y6420D1*
X8989Y6429D1*
X9019Y6432D1*
X10234D1*
X10256Y6454D1*
X10231Y6476D1*
X8549Y6473D1*
X8530Y6480D1*
X8304Y6747D1*
X8297Y6765D1*
X8294Y7669D1*
X7923Y7741D1*
X7901Y7760D1*
X7899Y7769D1*
X7897Y7867D1*
X7911Y7893D1*
X7922Y7897D1*
X8477Y7996D1*
X8476Y8061D1*
X8473Y8812D1*
X8482Y8833D1*
X10140Y10342D1*
X10351Y11256D1*
X10209Y11255D1*
X9364Y11257D1*
Y10801D1*
X8510D1*
Y11260D1*
X8383D1*
X8364D1*
Y10801D1*
X8286D1*
X8557Y10530D1*
X8576Y10507D1*
X8589Y10480D1*
X8596Y10457D1*
X8599Y10399D1*
Y9989D1*
X8789Y10179D1*
X8812Y10197D1*
X8838Y10211D1*
X8861Y10218D1*
X8919Y10220D1*
X9085D1*
X9114Y10253D1*
X9138Y10271D1*
X9164Y10286D1*
X9191Y10298D1*
X9220Y10306D1*
X9250Y10310D1*
X9280D1*
X9309Y10307D1*
X9338Y10299D1*
X9366Y10288D1*
X9392Y10274D1*
X9416Y10256D1*
X9438Y10236D1*
X9457Y10212D1*
X9473Y10187D1*
X9485Y10160D1*
X9494Y10131D1*
X9498Y10101D1*
X9500Y10078D1*
X9498Y10048D1*
X9492Y10019D1*
X9482Y9991D1*
X9469Y9964D1*
X9453Y9939D1*
X9434Y9916D1*
X9411Y9896D1*
X9387Y9879D1*
X9360Y9865D1*
X9332Y9855D1*
X9303Y9849D1*
X9273Y9846D1*
X9243Y9847D1*
X9214Y9852D1*
X9185Y9861D1*
X9158Y9873D1*
X9133Y9889D1*
X9109Y9908D1*
X9084Y9936D1*
X8948Y9935D1*
X8581Y9568D1*
X8613Y9556D1*
X8639Y9541D1*
X8663Y9524D1*
X8685Y9503D1*
X8703Y9480D1*
X8719Y9454D1*
X8731Y9427D1*
X8740Y9398D1*
X8745Y9369D1*
X8746Y9346D1*
X8744Y9316D1*
X8738Y9286D1*
X8729Y9258D1*
X8716Y9231D1*
X8700Y9206D1*
X8680Y9183D1*
X8658Y9163D1*
X8633Y9146D1*
X8607Y9133D1*
X8579Y9122D1*
X8549Y9116D1*
X8520Y9113D1*
X8498Y9114D1*
X8246Y8861D1*
Y8604D1*
X8275Y8578D1*
X8294Y8555D1*
X8309Y8529D1*
X8322Y8502D1*
X8330Y8474D1*
X8335Y8444D1*
X8336Y8421D1*
X8335Y8391D1*
X8329Y8361D1*
X8319Y8333D1*
X8306Y8306D1*
X8290Y8281D1*
X8270Y8258D1*
X8248Y8238D1*
X8224Y8221D1*
X8197Y8208D1*
X8169Y8198D1*
X8140Y8191D1*
X8110Y8188D1*
X8080Y8190D1*
X8051Y8195D1*
X8022Y8203D1*
X7995Y8216D1*
X7969Y8231D1*
X7946Y8250D1*
X7926Y8272D1*
X7908Y8296D1*
X7894Y8322D1*
X7883Y8350D1*
X7876Y8379D1*
X7872Y8409D1*
X7873Y8439D1*
X7877Y8468D1*
X7885Y8497D1*
X7896Y8525D1*
X7912Y8551D1*
X7930Y8574D1*
X7962Y8604D1*
Y8921D1*
X7964Y8946D1*
X7953Y8941D1*
X7293Y8281D1*
X7270Y8262D1*
X7243Y8248D1*
X7221Y8242D1*
X7163Y8239D1*
X7152D1*
X7136Y8219D1*
X7113Y8199D1*
X7089Y8182D1*
X7062Y8168D1*
X7034Y8158D1*
X7005Y8152D1*
X6975Y8149D1*
X6945Y8150D1*
X6916Y8155D1*
X6887Y8164D1*
X6860Y8176D1*
X6834Y8192D1*
X6819Y8204D1*
Y6438D1*
X6816Y6409D1*
X6807Y6380D1*
X6795Y6360D1*
X6756Y6317D1*
X6716Y6276D1*
X6717Y6247D1*
X6716Y6217D1*
X6710Y6188D1*
X6700Y6159D1*
X6687Y6132D1*
X6671Y6107D1*
X6651Y6085D1*
X6629Y6065D1*
X6605Y6048D1*
X6578Y6034D1*
X6550Y6024D1*
X6521Y6017D1*
X6491Y6015D1*
X6461Y6016D1*
X6432Y6021D1*
X6403Y6030D1*
X6376Y6042D1*
X6350Y6058D1*
X6327Y6076D1*
X6307Y6098D1*
X6289Y6122D1*
X6275Y6149D1*
X6264Y6176D1*
X6255Y6219D1*
X6075Y6039D1*
X6052Y6020D1*
X6027Y6004D1*
X5999Y5992D1*
X5970Y5985D1*
X5909Y5983D1*
X5624D1*
X5586Y5962D1*
X5558Y5952D1*
X5529Y5945D1*
X5499Y5943D1*
X5469Y5944D1*
X5440Y5949D1*
X5411Y5958D1*
X5384Y5970D1*
X5359Y5986D1*
X5336Y6005D1*
X5315Y6026D1*
X5297Y6051D1*
X5283Y6077D1*
X5272Y6105D1*
X5265Y6134D1*
X5261Y6163D1*
X5262Y6193D1*
X5266Y6223D1*
X5274Y6252D1*
X5286Y6279D1*
X5301Y6305D1*
X5319Y6329D1*
X5340Y6350D1*
X5364Y6368D1*
X5390Y6383D1*
X5417Y6395D1*
X5446Y6403D1*
X5476Y6407D1*
X5506D1*
X5535Y6404D1*
X5564Y6396D1*
X5592Y6385D1*
X5624Y6367D1*
X5859D1*
X6059Y6567D1*
X6067Y6599D1*
X6079Y6627D1*
X6094Y6653D1*
X6112Y6676D1*
X6133Y6697D1*
X6157Y6716D1*
X6183Y6731D1*
X6210Y6742D1*
X6239Y6750D1*
X6269Y6754D1*
X6299Y6755D1*
X6328Y6751D1*
X6357Y6744D1*
X6385Y6733D1*
X6411Y6718D1*
X6435Y6701D1*
X6457Y6680D1*
X6476Y6657D1*
X6492Y6631D1*
X6504Y6604D1*
X6513Y6576D1*
X6517Y6546D1*
X6519Y6523D1*
X6514Y6477D1*
X6534Y6498D1*
Y7356D1*
X6485Y7403D1*
X6069D1*
X6040Y7406D1*
X6011Y7416D1*
X5990Y7427D1*
X5948Y7466D1*
X5916Y7495D1*
X5892Y7478D1*
X5865Y7465D1*
X5837Y7455D1*
X5808Y7448D1*
X5778Y7445D1*
X5748Y7447D1*
X5718Y7452D1*
X5690Y7460D1*
X5663Y7473D1*
X5637Y7488D1*
X5614Y7507D1*
X5593Y7529D1*
X5576Y7553D1*
X5561Y7579D1*
X5551Y7607D1*
X5543Y7636D1*
X5540Y7665D1*
X5098Y7224D1*
X4758Y6883D1*
X4757Y6799D1*
X4755Y6769D1*
X4750Y6740D1*
X4741Y6711D1*
X4728Y6684D1*
X4713Y6659D1*
X4694Y6635D1*
X4672Y6614D1*
X4648Y6596D1*
X4622Y6582D1*
X4595Y6570D1*
X4566Y6562D1*
X4536Y6557D1*
X4507D1*
X4477Y6559D1*
X4429Y6573D1*
Y5866D1*
X3993D1*
X3999Y4410D1*
X4002Y3951D1*
X10451Y3957D1*
Y4152D1*
X10349Y4151D1*
X10320Y4154D1*
X10291Y4163D1*
X10270Y4175D1*
X10227Y4214D1*
X9564Y4877D1*
X9541Y4875D1*
X9511Y4876D1*
X9482Y4881D1*
X9453Y4890D1*
X9426Y4902D1*
X9400Y4918D1*
X9377Y4937D1*
X9357Y4959D1*
X9339Y4983D1*
X9325Y5009D1*
X9314Y5037D1*
X9307Y5066D1*
X9303Y5096D1*
X9304Y5126D1*
X9308Y5155D1*
X9316Y5184D1*
X9328Y5211D1*
X9343Y5237D1*
X9361Y5261D1*
X9382Y5282D1*
X9406Y5300D1*
X9432Y5315D1*
X9459Y5327D1*
X9488Y5335D1*
X9518Y5339D1*
X9548D1*
X9577Y5336D1*
X9606Y5329D1*
X9634Y5318D1*
X9660Y5303D1*
X9684Y5286D1*
X9706Y5265D1*
X9725Y5242D1*
X9740Y5216D1*
X9753Y5189D1*
X9761Y5160D1*
X9766Y5131D1*
Y5078D1*
X10409Y4436D1*
X10451D1*
Y4720D1*
X10481D1*
X3973Y9720D2*
X4429D1*
Y8866D1*
X3978D1*
X3983Y7720D1*
X4429D1*
Y7241D1*
X4894Y7705D1*
X4846Y7718D1*
X4819Y7731D1*
X4793Y7746D1*
X4770Y7765D1*
X4749Y7787D1*
X4732Y7811D1*
X4717Y7837D1*
X4706Y7865D1*
X4699Y7894D1*
X4696Y7924D1*
Y7954D1*
X4700Y7984D1*
X4709Y8012D1*
X4720Y8040D1*
X4735Y8066D1*
X4754Y8089D1*
X4775Y8110D1*
X4798Y8129D1*
X4824Y8144D1*
X4852Y8155D1*
X4881Y8163D1*
X4915Y8167D1*
X5087Y8339D1*
X5062Y8332D1*
X5004Y8329D1*
X4881D1*
X4862Y8298D1*
X4842Y8276D1*
X4820Y8256D1*
X4796Y8239D1*
X4769Y8225D1*
X4741Y8215D1*
X4712Y8208D1*
X4682Y8206D1*
X4652Y8207D1*
X4623Y8212D1*
X4594Y8220D1*
X4567Y8233D1*
X4541Y8249D1*
X4518Y8267D1*
X4498Y8289D1*
X4480Y8313D1*
X4466Y8339D1*
X4455Y8367D1*
X4448Y8396D1*
X4444Y8426D1*
X4445Y8456D1*
X4449Y8486D1*
X4457Y8514D1*
X4468Y8542D1*
X4484Y8568D1*
X4502Y8591D1*
X4523Y8612D1*
X4547Y8631D1*
X4573Y8646D1*
X4600Y8657D1*
X4629Y8665D1*
X4659Y8669D1*
X4688Y8670D1*
X4718Y8666D1*
X4747Y8659D1*
X4775Y8648D1*
X4801Y8634D1*
X4827Y8614D1*
X4975D1*
X5545Y9184D1*
X5568Y9203D1*
X5595Y9216D1*
X5618Y9223D1*
X5676Y9226D1*
X5848D1*
X5879Y9258D1*
X5903Y9276D1*
X5928Y9291D1*
X5956Y9303D1*
X5985Y9311D1*
X6014Y9315D1*
X6044D1*
X6074Y9312D1*
X6103Y9304D1*
X6131Y9293D1*
X6157Y9279D1*
X6181Y9261D1*
X6203Y9241D1*
X6222Y9217D1*
X6237Y9192D1*
X6250Y9165D1*
X6258Y9136D1*
X6263Y9107D1*
X6264Y9083D1*
X6262Y9053D1*
X6257Y9024D1*
X6247Y8996D1*
X6234Y8969D1*
X6218Y8944D1*
X6198Y8921D1*
X6176Y8901D1*
X6152Y8884D1*
X6125Y8870D1*
X6097Y8860D1*
X6068Y8854D1*
X6038Y8851D1*
X6008Y8852D1*
X5979Y8857D1*
X5950Y8866D1*
X5923Y8878D1*
X5885Y8904D1*
X5911Y8865D1*
X5923Y8838D1*
X5932Y8809D1*
X5937Y8780D1*
X5938Y8757D1*
X5936Y8727D1*
X5930Y8697D1*
X5921Y8669D1*
X5900Y8630D1*
X5921Y8632D1*
X5982D1*
X5997Y8664D1*
X6035Y8705D1*
X6911Y9581D1*
X6904Y9629D1*
Y9659D1*
X6909Y9689D1*
X6917Y9718D1*
X6928Y9745D1*
X6939Y9764D1*
X6695D1*
X6688D1*
X6376Y9453D1*
X6354Y9434D1*
X6328Y9419D1*
X6299Y9409D1*
X6275Y9405D1*
X6109Y9404D1*
X5347D1*
X5166Y9222D1*
X5143Y9203D1*
X5117Y9188D1*
X5089Y9178D1*
X5061Y9174D1*
X5009Y9141D1*
X4982Y9128D1*
X4954Y9118D1*
X4925Y9111D1*
X4895Y9108D1*
X4865Y9110D1*
X4836Y9115D1*
X4807Y9123D1*
X4780Y9136D1*
X4755Y9151D1*
X4732Y9170D1*
X4711Y9192D1*
X4693Y9216D1*
X4679Y9242D1*
X4668Y9270D1*
X4661Y9299D1*
X4657Y9329D1*
X4658Y9359D1*
X4662Y9388D1*
X4670Y9417D1*
X4682Y9445D1*
X4697Y9471D1*
X4715Y9494D1*
X4736Y9515D1*
X4760Y9534D1*
X4780Y9545D1*
X4763Y9575D1*
X4752Y9603D1*
X4744Y9632D1*
X4741Y9661D1*
Y9691D1*
X4747Y9727D1*
X4661Y9813D1*
X4429Y10045D1*
Y9866D1*
X3972D1*
X3973Y9720D1*
X7366Y9611D2*
X7361Y9582D1*
X7351Y9554D1*
X7338Y9527D1*
X7322Y9502D1*
X7302Y9479D1*
X7280Y9459D1*
X7255Y9442D1*
X7229Y9428D1*
X7201Y9418D1*
X7172Y9411D1*
X7142Y9409D1*
X7113Y9410D1*
X6975Y9271D1*
X6907Y9203D1*
X6948Y9188D1*
X6974Y9173D1*
X6998Y9155D1*
X7020Y9135D1*
X7039Y9112D1*
X7055Y9086D1*
X7067Y9059D1*
X7076Y9030D1*
X7080Y9001D1*
X7082Y8977D1*
X7080Y8948D1*
X7074Y8918D1*
X7065Y8890D1*
X7051Y8863D1*
X7035Y8838D1*
X7016Y8815D1*
X6993Y8795D1*
X6960Y8773D1*
X7147Y8774D1*
X8314Y9942D1*
Y10371D1*
X8045Y10639D1*
X7522D1*
X7542Y10584D1*
X7546Y10555D1*
X7548Y10532D1*
X7546Y10502D1*
X7540Y10472D1*
X7530Y10444D1*
X7517Y10417D1*
X7501Y10392D1*
X7482Y10369D1*
X7459Y10349D1*
X7435Y10332D1*
X7408Y10319D1*
X7380Y10308D1*
X7351Y10302D1*
X7321Y10299D1*
X7291Y10301D1*
X7245Y10311D1*
X7155Y10219D1*
X7034Y10098D1*
X7277Y10099D1*
X7613D1*
X7636Y10112D1*
X7664Y10124D1*
X7692Y10132D1*
X7722Y10136D1*
X7752D1*
X7782Y10133D1*
X7811Y10125D1*
X7838Y10114D1*
X7865Y10100D1*
X7889Y10082D1*
X7910Y10062D1*
X7929Y10038D1*
X7945Y10013D1*
X7957Y9986D1*
X7966Y9957D1*
X7971Y9928D1*
X7972Y9904D1*
X7970Y9874D1*
X7964Y9845D1*
X7955Y9817D1*
X7942Y9790D1*
X7925Y9765D1*
X7906Y9742D1*
X7884Y9722D1*
X7859Y9705D1*
X7833Y9691D1*
X7804Y9681D1*
X7775Y9675D1*
X7745Y9672D1*
X7716Y9673D1*
X7686Y9678D1*
X7657Y9687D1*
X7630Y9699D1*
X7605Y9715D1*
X7582Y9734D1*
X7555Y9764D1*
X7333D1*
X7353Y9723D1*
X7362Y9694D1*
X7367Y9664D1*
X7368Y9641D1*
X7366Y9611D1*
X5458Y6752D2*
X5452Y6723D1*
X5442Y6694D1*
X5429Y6667D1*
X5413Y6642D1*
X5393Y6620D1*
X5371Y6599D1*
X5347Y6582D1*
X5320Y6569D1*
X5292Y6559D1*
X5263Y6552D1*
X5233Y6549D1*
X5203Y6551D1*
X5174Y6556D1*
X5145Y6564D1*
X5118Y6577D1*
X5092Y6592D1*
X5069Y6611D1*
X5049Y6633D1*
X5031Y6657D1*
X5017Y6683D1*
X5006Y6711D1*
X4999Y6740D1*
X4995Y6770D1*
X4996Y6800D1*
X5000Y6829D1*
X5008Y6858D1*
X5019Y6886D1*
X5035Y6912D1*
X5053Y6935D1*
X5074Y6956D1*
X5098Y6975D1*
X5124Y6990D1*
X5151Y7001D1*
X5180Y7009D1*
X5210Y7013D1*
X5255Y7012D1*
X5365Y7121D1*
X5388Y7140D1*
X5415Y7153D1*
X5438Y7160D1*
X5496Y7163D1*
X5542D1*
X5573Y7195D1*
X5596Y7213D1*
X5622Y7228D1*
X5650Y7240D1*
X5679Y7248D1*
X5708Y7252D1*
X5738D1*
X5768Y7249D1*
X5797Y7242D1*
X5825Y7231D1*
X5851Y7216D1*
X5875Y7198D1*
X5896Y7178D1*
X5915Y7155D1*
X5931Y7129D1*
X5943Y7102D1*
X5952Y7073D1*
X5957Y7044D1*
X5958Y7020D1*
X5956Y6991D1*
X5950Y6961D1*
X5941Y6933D1*
X5928Y6906D1*
X5911Y6881D1*
X5892Y6858D1*
X5870Y6838D1*
X5845Y6821D1*
X5819Y6807D1*
X5791Y6797D1*
X5761Y6791D1*
X5732Y6788D1*
X5702Y6789D1*
X5672Y6794D1*
X5644Y6803D1*
X5616Y6815D1*
X5591Y6831D1*
X5568Y6850D1*
X5542Y6878D1*
X5524Y6877D1*
X5457Y6811D1*
X5459Y6782D1*
X5458Y6752D1*
X6258Y7920D2*
X6253Y7890D1*
X6243Y7862D1*
X6230Y7835D1*
X6214Y7810D1*
X6194Y7787D1*
X6172Y7767D1*
X6147Y7750D1*
X6121Y7737D1*
X6090Y7726D1*
X6129Y7688D1*
X6534D1*
Y8443D1*
X6537Y8473D1*
X6545Y8496D1*
X6547Y8510D1*
X6508Y8471D1*
X6509Y8326D1*
X6505Y8297D1*
X6494Y8269D1*
X6473Y8240D1*
X6250Y8017D1*
X6259Y7973D1*
X6260Y7950D1*
X6258Y7920D1*
X10497Y11201D2*
X10943D1*
X10483Y11142D2*
X10943D1*
X10469Y11084D2*
X10943D1*
X10456Y11025D2*
X10942D1*
X10443Y10966D2*
X10942D1*
X10429Y10908D2*
X10942D1*
X10416Y10849D2*
X10942D1*
X10403Y10790D2*
X10942D1*
X10389Y10732D2*
X10942D1*
X10376Y10673D2*
X10942D1*
X10363Y10614D2*
X10942D1*
X10349Y10556D2*
X10941D1*
X10335Y10497D2*
X10941D1*
X10322Y10438D2*
X10941D1*
X10309Y10379D2*
X10941D1*
X10295Y10321D2*
X10941D1*
X10282Y10262D2*
X10941D1*
X10222Y10203D2*
X10941D1*
X10157Y10145D2*
X10941D1*
X10092Y10086D2*
X10940D1*
X10027Y10027D2*
X10940D1*
X9962Y9969D2*
X10940D1*
X9897Y9910D2*
X10940D1*
X9832Y9851D2*
X10940D1*
X9795Y9793D2*
X10940D1*
X9789Y9734D2*
X10940D1*
X9766Y9675D2*
X10940D1*
X9719Y9616D2*
X10939D1*
X9488Y9558D2*
X9520D1*
X9595D2*
X10939D1*
X9408Y9499D2*
X10939D1*
X9344Y9440D2*
X10939D1*
X9281Y9382D2*
X10939D1*
X9217Y9323D2*
X10939D1*
X9153Y9264D2*
X10939D1*
X9089Y9206D2*
X10939D1*
X9026Y9147D2*
X10938D1*
X8962Y9088D2*
X10938D1*
X8898Y9030D2*
X10938D1*
X8834Y8971D2*
X10938D1*
X8771Y8912D2*
X10938D1*
X8707Y8854D2*
X10938D1*
X8643Y8795D2*
X10938D1*
X8626Y8736D2*
X10938D1*
X8626Y8677D2*
X10937D1*
X8626Y8619D2*
X10937D1*
X8626Y8560D2*
X10937D1*
X8626Y8501D2*
X10937D1*
X8626Y8443D2*
X10937D1*
X8626Y8384D2*
X10937D1*
X8626Y8325D2*
X10937D1*
X8626Y8267D2*
X10937D1*
X8626Y8208D2*
X10937D1*
X8626Y8149D2*
X10937D1*
X8626Y8091D2*
X10937D1*
X8626Y8032D2*
X10937D1*
X9199Y7973D2*
X10937D1*
X9252Y7915D2*
X10937D1*
X9305Y7856D2*
X10937D1*
X9358Y7797D2*
X10937D1*
X9411Y7738D2*
X10937D1*
X9464Y7680D2*
X10439D1*
X10091Y7621D2*
X10439D1*
X10475Y7720D2*
X10942D1*
X10946Y9652D1*
X10949Y11260D1*
X10504Y11258D1*
X10429Y10930D1*
X10277Y10265D1*
X10268Y10250D1*
X9801Y9829D1*
X9789Y9808D1*
X9788Y9758D1*
X9782Y9729D1*
X9772Y9700D1*
X9759Y9673D1*
X9743Y9648D1*
X9723Y9625D1*
X9701Y9605D1*
X9676Y9588D1*
X9650Y9575D1*
X9621Y9565D1*
X9592Y9558D1*
X9562Y9556D1*
X9532Y9557D1*
X9501Y9562D1*
X9459Y9552D1*
X8620Y8779D1*
Y7990D1*
X8800Y7988D1*
X9174Y7981D1*
X9195Y7971D1*
X9482Y7653D1*
X10444Y7602D1*
X10445Y7720D1*
X10475D1*
D23*
X10944Y4293D3*
X3937Y9293D3*
X10937Y8293D3*
Y9293D3*
Y10293D3*
D24*
X9937Y11293D3*
D23*
X3937Y4293D3*
Y5293D3*
Y6293D3*
Y7293D3*
Y10293D3*
X10937Y5293D3*
Y6293D3*
Y7293D3*
X3937Y8293D3*
D40*
X6421Y7186D3*
X6243Y7291D3*
X6066Y7186D3*
X7590Y7679D3*
X7713Y7840D3*
X7590Y8001D3*
X7713Y8164D3*
G36*
X5602Y11693D2*
X6272D1*
Y10893D1*
X5602D1*
Y11693D1*
G37*
G36*
X4602D2*
X5272D1*
Y10893D1*
X4602D1*
Y11693D1*
G37*
D24*
X6937Y11293D3*
X7937D3*
X8937D3*
M02*
