G04 DipTrace 2.4.0.2*
%INUSBBiPower.gtl*%
%MOIN*%
%ADD13C,0.006*%
%ADD14C,0.012*%
%ADD15C,0.02*%
%ADD17C,0.008*%
%ADD18C,0.01*%
%ADD19C,0.0094*%
%ADD20C,0.011*%
%ADD22C,0.013*%
%ADD23R,0.08X0.0669*%
%ADD24R,0.0669X0.08*%
%ADD25R,0.0433X0.0394*%
%ADD26R,0.0394X0.0433*%
%ADD27R,0.0276X0.0354*%
%ADD28R,0.1772X0.0984*%
%ADD29R,0.0354X0.0276*%
%ADD31R,0.0276X0.013*%
%ADD32R,0.011X0.0276*%
%ADD33R,0.0094X0.0276*%
%ADD38R,0.0094X0.0236*%
%ADD39R,0.063X0.0394*%
%ADD40C,0.028*%
%ADD43R,0.0236X0.0098*%
%ADD44R,0.0354X0.063*%
%ADD46R,0.0205X0.0118*%
%ADD48R,0.0433X0.0236*%
%ADD50R,0.0157X0.0531*%
%ADD51R,0.0945X0.063*%
%ADD52R,0.1063X0.063*%
%ADD53R,0.1476X0.0906*%
%ADD54C,0.028*%
%FSLAX44Y44*%
G04*
G70*
G90*
G75*
G01*
%LNTop*%
%LPD*%
X6089Y7637D2*
D13*
Y7895D1*
X6031Y7953D1*
X6852Y8980D2*
Y9313D1*
X6907D1*
X6852Y8980D2*
Y9348D1*
X6875Y9370D1*
Y8831D1*
X7168D1*
X7261Y8217D2*
Y8380D1*
X7494Y8613D1*
X7450D1*
X7471Y8635D1*
X7449Y7283D2*
D14*
Y7390D1*
X7261Y7578D1*
Y7626D1*
Y7823D1*
X4561Y7708D2*
D15*
Y6845D1*
X4518Y6802D1*
X6440Y8379D2*
D14*
Y8449D1*
X6137D1*
Y8393D1*
X6111D1*
X6440Y8379D2*
X6695D1*
Y7961D1*
X7373Y7283D1*
X7449D1*
X3940Y6296D2*
D15*
X4445Y6802D1*
X4518D1*
X3940Y7296D2*
D14*
X4161D1*
D15*
X4561Y7696D1*
Y7708D1*
X6440Y8379D2*
D14*
X6124D1*
X6111Y8393D1*
X6397D1*
X6694Y8095D1*
Y7770D1*
X6561Y7637D1*
X4518Y6802D2*
Y7665D1*
X4561Y7708D1*
X6111Y8393D2*
X5814D1*
X5768Y8347D1*
X7471Y9028D2*
D17*
Y9261D1*
X7419Y9313D1*
Y9364D1*
X7139Y9644D1*
X4567Y10636D2*
D18*
X4280D1*
X3940Y10296D1*
X5236Y9681D2*
X4981D1*
X4976Y9676D1*
X5886Y10629D2*
Y11242D1*
X5940Y11296D1*
X6318Y10577D2*
X5938D1*
X5886Y10629D1*
X6318Y10577D2*
Y10918D1*
X5940Y11296D1*
X6318Y10065D2*
X6234D1*
Y9557D1*
X6073Y9396D1*
X5935D1*
X5925Y9385D1*
X6336Y5766D2*
X6307D1*
Y6077D1*
X6001Y6383D1*
X5417Y6967D1*
Y7156D1*
X5371Y7202D1*
X6089Y6850D2*
Y6686D1*
X6001Y6598D1*
Y6383D1*
X4997Y6987D2*
X4985D1*
Y7071D1*
X5301Y6754D1*
X5394D1*
X6081Y6068D1*
Y5766D1*
X5931Y6850D2*
D17*
Y6786D1*
X5831Y6887D1*
X5865D1*
X5729Y7023D1*
X5230Y6785D2*
D18*
X5301D1*
Y6754D1*
X5630Y9090D2*
D19*
Y8902D1*
D18*
Y8839D1*
X5709Y8760D1*
X4997Y7499D2*
Y7873D1*
X4931Y7939D1*
X5371Y7714D2*
X5433D1*
Y9090D1*
X8048Y8217D2*
Y8364D1*
X8107Y8424D1*
X8517Y9348D2*
X8767D1*
X8804Y9386D1*
Y9884D1*
X8827Y9907D1*
Y10438D1*
X8833Y10444D1*
X6246Y7637D2*
D17*
Y7804D1*
D18*
X6403Y7961D1*
X6429D1*
X6246Y7637D2*
D19*
Y7195D1*
D14*
X6228D1*
Y7242D1*
X8118Y7283D2*
X7876Y7525D1*
Y7626D1*
X8048D1*
X7876Y7525D2*
X7622Y7778D1*
Y8073D1*
X7716Y8167D1*
X8048Y8020D2*
X8240D1*
X8370Y8150D1*
X9560Y9791D2*
Y9473D1*
X9473Y9386D1*
X6979Y10168D2*
X7063D1*
X7554Y9677D1*
X7784Y9447D1*
Y8525D1*
X7727Y8468D1*
Y8339D1*
Y8177D1*
X7716Y8167D1*
X8048Y8020D2*
X7569D1*
X7716Y8167D1*
X5175Y5657D2*
Y5135D1*
X4872D1*
Y4671D1*
X4968Y4575D1*
X7705D2*
Y5099D1*
X7401D1*
Y5561D1*
X7498Y5657D1*
X6848Y5766D2*
X7390D1*
X7498Y5657D1*
X6427Y7288D2*
Y7237D1*
X6886D1*
Y7174D1*
X7498Y5657D2*
Y6010D1*
X7267Y6242D1*
Y6805D1*
X6823Y7249D1*
Y7237D1*
X6886Y7174D1*
X8118Y7283D2*
X8021D1*
Y7103D1*
Y6962D1*
X7569D1*
Y6873D1*
X7491Y6951D1*
X6886D1*
Y7174D1*
Y6886D1*
X7995D1*
X8173D1*
Y6950D1*
Y7283D1*
X8118D1*
X6440Y9048D2*
X6577D1*
Y9521D1*
X6717Y9662D1*
X7090Y10034D1*
Y10168D1*
X6979D1*
X3940Y4296D2*
Y4350D1*
X4273D1*
Y5278D1*
X4379Y5384D1*
X4653Y5657D1*
X5175D1*
X3940Y5296D2*
X4156D1*
X4767Y5907D1*
X4925D1*
X5175Y5657D1*
X7196Y6888D2*
Y6927D1*
X6886Y7237D1*
X7848Y6907D2*
X8021D1*
Y6962D1*
X7278Y6175D2*
Y6010D1*
X7498D1*
X7301Y5099D2*
X7401D1*
X4854Y5135D2*
X4872D1*
X8250Y6493D2*
X8319Y6562D1*
X7995Y6886D1*
X4465Y5257D2*
D18*
Y5384D1*
X4379D1*
X7876Y7580D2*
D14*
Y7525D1*
X7763Y8508D2*
X7727Y8468D1*
X7489Y6873D2*
X7491Y6951D1*
X8192Y6950D2*
X8173D1*
X7569Y6575D2*
Y6873D1*
X7881Y6491D2*
Y7103D1*
X8021D1*
X6505Y9360D2*
X6545Y9319D1*
Y9091D1*
X6440Y8986D1*
Y9048D1*
X7121Y4631D2*
Y4575D1*
X7705D1*
X7592Y8339D2*
X7727D1*
X7879Y7304D2*
X7881Y7103D1*
X5099Y8347D2*
Y8953D1*
X5154Y9009D1*
D20*
X5236Y9090D1*
X5099Y8347D2*
D14*
Y8761D1*
X4967Y8893D1*
X7168Y8635D2*
D17*
Y8648D1*
X6813D1*
X6574Y8886D1*
Y9009D1*
X6479D1*
X6440Y9048D1*
X6738Y9658D2*
D14*
X6717Y9662D1*
X7484Y9654D2*
X7508Y9677D1*
X7554D1*
X7705Y4574D2*
X8571D1*
X8595Y4550D1*
X10042Y6133D2*
X10776D1*
X10940Y6296D1*
Y6351D1*
X10614Y6677D1*
Y6970D1*
X10940Y7296D1*
X10187Y4905D2*
X10549D1*
X10940Y5296D1*
X7948Y6116D2*
Y6107D1*
X7498Y5657D1*
X8250Y6493D2*
Y6487D1*
X8470Y6267D1*
X9036Y4467D2*
D18*
X8966D1*
X8876Y4557D1*
X8602D1*
X8595Y4550D1*
X6246Y6850D2*
D19*
Y7028D1*
D14*
Y7244D1*
X6816D1*
X6246Y7637D2*
D19*
Y7459D1*
D14*
Y7244D1*
X7705Y4575D2*
X7178D1*
X7121Y4631D1*
X5546Y4643D2*
X6267D1*
X6336Y4713D1*
X5931Y7637D2*
D18*
X5888Y7681D1*
X5775D1*
X5630Y9681D2*
D19*
X5637Y9869D1*
D18*
Y10304D1*
X6667Y10605D2*
X6718D1*
X6898Y10785D1*
X7360D1*
X7872Y11296D1*
X7940D1*
X5433Y9681D2*
D19*
Y9869D1*
D18*
Y9943D1*
X5295Y10081D1*
X7318Y10535D2*
X7272D1*
Y10508D1*
X7654D1*
X7925Y10780D1*
X8424D1*
X8940Y11296D1*
X9505Y4374D2*
Y4524D1*
X9124Y4905D1*
X10187Y5653D2*
X10003D1*
X9856Y5507D1*
Y4693D1*
X10175Y4374D1*
X9124Y5653D2*
Y5884D1*
X9372Y6133D1*
X9124Y5653D2*
Y5643D1*
X9332D1*
X9458Y5517D1*
Y5110D1*
X9538D1*
X7261Y8020D2*
X7121D1*
X6996Y8145D1*
Y8361D1*
X6972Y8384D1*
X9991Y10052D2*
X9299D1*
X9270Y10081D1*
X9456Y7014D2*
D13*
X9385D1*
X8579Y7820D1*
X8051D1*
X8048Y7823D1*
X4946Y10628D2*
D18*
Y11290D1*
X4940Y11296D1*
X5826Y9681D2*
Y9696D1*
X5982Y9851D1*
X6404Y6850D2*
X6469D1*
D15*
X6753Y6566D1*
X6289D1*
Y6526D1*
X6561Y6850D2*
Y6809D1*
X6802Y6569D1*
X6289D1*
X6886Y6505D2*
Y6566D1*
X6289D1*
X5825Y5766D2*
Y6027D1*
X5673Y6178D1*
X5496D1*
X5826Y9090D2*
D18*
X6031D1*
X6035Y9086D1*
X4561Y8220D2*
Y8322D1*
X4679Y8441D1*
X4567Y10124D2*
D14*
X4961D1*
X5466Y10629D1*
X5374D1*
Y10544D1*
X4946Y10116D1*
Y10032D1*
X4684Y9769D1*
Y9530D1*
X4828Y9385D1*
X5137D1*
X4934D1*
X4892Y9344D1*
X8163Y10444D2*
Y10465D1*
X8186D1*
Y9935D1*
X8158Y9907D1*
X7909D1*
X7648Y10168D1*
X7752D1*
X8010Y10426D1*
X8187D1*
Y9264D1*
X8596Y8855D1*
X9189D1*
X9456Y8589D1*
X9991Y9383D2*
Y9124D1*
X9456Y8589D1*
X10648D1*
X10940Y8296D1*
X9991Y9383D2*
X10336D1*
X10853D1*
X10940Y9296D1*
X9991Y9383D2*
X10027D1*
X10473Y9829D1*
X10940Y10296D1*
X7743Y9907D2*
X8163D1*
Y10465D1*
X4892Y9344D2*
X3987D1*
X3940Y9296D1*
X10467Y9835D2*
X10473Y9829D1*
X10336Y9417D2*
Y9383D1*
X9124Y5279D2*
X8655D1*
X8595Y5220D1*
Y5814D1*
X8574Y5835D1*
D54*
X10730Y11039D3*
X6667Y10605D3*
X5637Y10304D3*
X5295Y10081D3*
X5982Y9851D3*
X4892Y9344D3*
X7196Y6888D3*
X7848Y6907D3*
X7278Y6175D3*
X8250Y6493D3*
X7948Y6116D3*
X7301Y5099D3*
X4854Y5135D3*
X4465Y5257D3*
X8574Y5835D3*
X9036Y4467D3*
X8470Y6267D3*
X7139Y9644D3*
X4967Y8893D3*
X9651Y5734D3*
X6035Y9086D3*
X4422Y4143D3*
X7876Y7580D3*
X7763Y8508D3*
X7489Y6873D3*
X8192Y6950D3*
X7569Y6575D3*
X7881Y6491D3*
X6505Y9360D3*
X4555Y5959D3*
X5125Y6177D3*
X5031Y6420D3*
X5546Y4643D3*
X7121Y4631D3*
X5709Y8760D3*
X4679Y8441D3*
X4931Y7939D3*
X7743Y9907D3*
X4976Y9676D3*
X7592Y8339D3*
X7879Y7304D3*
X6304Y5196D3*
X6738Y9658D3*
X7484Y9654D3*
X10467Y9835D3*
X10336Y9417D3*
X9538Y5110D3*
X8107Y8424D3*
X8370Y8150D3*
X6289Y6526D3*
X8517Y9348D3*
X9560Y9791D3*
X6972Y8384D3*
X9270Y10081D3*
X5496Y6178D3*
X6488Y6250D3*
X5230Y6785D3*
X5729Y7023D3*
X5775Y7681D3*
X4518Y6802D3*
X6111Y8393D3*
X6031Y7953D3*
X6852Y8980D3*
X6429Y7961D3*
X7318Y10535D3*
X8292Y7783D2*
D13*
X9097D1*
X8443Y7724D2*
X9147D1*
X8444Y7665D2*
X9197D1*
X8444Y7607D2*
X9247D1*
X8444Y7548D2*
X9297D1*
X8444Y7489D2*
X9325D1*
X8444Y7430D2*
X9275D1*
X8444Y7372D2*
X9225D1*
X8444Y7313D2*
X9176D1*
X8444Y7254D2*
X9126D1*
X8444Y7196D2*
X9076D1*
X8444Y7137D2*
X9027D1*
X8444Y7078D2*
X8977D1*
X8444Y7020D2*
X8927D1*
X8444Y6961D2*
X8877D1*
X8444Y6902D2*
X8828D1*
X8444Y6844D2*
X8778D1*
X8444Y6785D2*
X8728D1*
X8444Y6726D2*
X8679D1*
X8477Y6668D2*
X8629D1*
X8537Y6609D2*
X8579D1*
X9057Y7836D2*
X8209Y7841D1*
X8210Y7804D1*
X8304Y7778D1*
X8417Y7746D1*
X8437Y7724D1*
X8439Y7717D1*
Y6699D1*
X8560Y6581D1*
X8908Y6991D1*
X9342Y7502D1*
X9261Y7597D1*
X9057Y7836D1*
X9375Y11207D2*
X9507D1*
X10373D2*
X10951D1*
X9375Y11149D2*
X9507D1*
X10373D2*
X10951D1*
X9374Y11090D2*
X9507D1*
X10373D2*
X10951D1*
X9373Y11032D2*
X9507D1*
X10373D2*
X10951D1*
X9373Y10973D2*
X9507D1*
X10373D2*
X10951D1*
X9373Y10915D2*
X9507D1*
X10373D2*
X10951D1*
X9373Y10856D2*
X9507D1*
X10373D2*
X10951D1*
X9371Y10798D2*
X10951D1*
X9370Y10739D2*
X10951D1*
X9369Y10681D2*
X10951D1*
X9369Y10622D2*
X10951D1*
X9368Y10564D2*
X10951D1*
X9367Y10505D2*
X10950D1*
X9367Y10446D2*
X10950D1*
X9367Y10388D2*
X10950D1*
X9367Y10329D2*
X9696D1*
X10287D2*
X10950D1*
X9410Y10271D2*
X9696D1*
X10287D2*
X10950D1*
X9468Y10212D2*
X9696D1*
X10287D2*
X10950D1*
X10287Y10154D2*
X10950D1*
X10287Y10095D2*
X10950D1*
X10287Y10037D2*
X10950D1*
X10287Y9978D2*
X10950D1*
X10287Y9920D2*
X10950D1*
X10287Y9861D2*
X10950D1*
X10287Y9803D2*
X10950D1*
X10287Y9744D2*
X10950D1*
X10287Y9686D2*
X10950D1*
X10287Y9627D2*
X10950D1*
X10287Y9569D2*
X10950D1*
X10287Y9510D2*
X10950D1*
X10287Y9451D2*
X10950D1*
X10287Y9393D2*
X10950D1*
X10287Y9334D2*
X10950D1*
X10287Y9276D2*
X10950D1*
X10287Y9217D2*
X10950D1*
X10287Y9159D2*
X10950D1*
X10287Y9100D2*
X10950D1*
X9744Y9042D2*
X10950D1*
X9762Y8983D2*
X10950D1*
X9779Y8925D2*
X10950D1*
X9796Y8866D2*
X10950D1*
X9814Y8808D2*
X10950D1*
X9830Y8749D2*
X10950D1*
X9847Y8691D2*
X10950D1*
X9865Y8632D2*
X10950D1*
X9882Y8574D2*
X10950D1*
X9899Y8515D2*
X10950D1*
X9916Y8456D2*
X10950D1*
X9933Y8398D2*
X10950D1*
X9950Y8339D2*
X10950D1*
X9968Y8281D2*
X10950D1*
X9985Y8222D2*
X10950D1*
X10001Y8164D2*
X10950D1*
X10561Y8105D2*
X10949D1*
X10562Y8047D2*
X10949D1*
X10562Y7988D2*
X10949D1*
X10562Y7930D2*
X10949D1*
X10563Y7871D2*
X10949D1*
X10563Y7813D2*
X10949D1*
X10564Y7754D2*
X10949D1*
X10367Y11264D2*
Y10804D1*
X9513D1*
Y11263D1*
X9370Y11262D1*
X9367Y10804D1*
X9364D1*
X9363Y10634D1*
X9360Y10334D1*
X9373Y10289D1*
X9395Y10277D1*
X9419Y10259D1*
X9441Y10239D1*
X9460Y10215D1*
X9473Y10194D1*
X9598Y10195D1*
X9702D1*
Y10361D1*
X10280D1*
Y9743D1*
X9788D1*
X9775Y9703D1*
X9770Y9692D1*
X9846D1*
X10280D1*
Y9074D1*
X9729D1*
X10003Y8139D1*
X10190Y8143D1*
X10525Y8149D1*
X10550Y8134D1*
X10555Y8119D1*
X10559Y7723D1*
X10955D1*
X10957Y11266D1*
X10367Y11265D1*
X9991Y9692D2*
D22*
Y9074D1*
Y9383D2*
X10280D1*
X3984Y9857D2*
D13*
X4331D1*
X7601D2*
X7843D1*
X3984Y9799D2*
X4773D1*
X7671D2*
X7843D1*
X3984Y9740D2*
X4747D1*
X7712D2*
X7843D1*
X3985Y9682D2*
X4738D1*
X7771D2*
X7843D1*
X3985Y9623D2*
X4744D1*
X3986Y9565D2*
X4766D1*
X7887D2*
X8297D1*
X3986Y9506D2*
X4811D1*
X7930D2*
X8277D1*
X3986Y9448D2*
X4901D1*
X7942D2*
X8256D1*
X3986Y9389D2*
X4901D1*
X7942D2*
X8235D1*
X3986Y9331D2*
X4901D1*
X7942D2*
X8214D1*
X3987Y9272D2*
X4901D1*
X7942D2*
X8193D1*
X3987Y9213D2*
X5083D1*
X7942D2*
X8173D1*
X3987Y9155D2*
X5083D1*
X7942D2*
X8207D1*
X3988Y9096D2*
X4849D1*
X7942D2*
X8251D1*
X3988Y9038D2*
X4780D1*
X7942D2*
X8296D1*
X8583D2*
X8639D1*
X3988Y8979D2*
X4745D1*
X7942D2*
X8638D1*
X3989Y8921D2*
X4730D1*
X7942D2*
X8638D1*
X3989Y8862D2*
X4731D1*
X7953D2*
X8638D1*
X3990Y8804D2*
X4747D1*
X7968D2*
X8638D1*
X3990Y8745D2*
X4782D1*
X7983D2*
X8638D1*
X4438Y8687D2*
X4855D1*
X7998D2*
X8638D1*
X8223Y8628D2*
X8638D1*
X8293Y8570D2*
X8637D1*
X8328Y8511D2*
X8637D1*
X8344Y8453D2*
X8637D1*
X8344Y8394D2*
X8637D1*
X8515Y8336D2*
X8637D1*
X4338Y9869D2*
X3977D1*
X3980Y9467D1*
X3985Y8724D1*
X4432Y8723D1*
Y8659D1*
X4589Y8655D1*
X4632Y8668D1*
X4662Y8672D1*
X4691Y8673D1*
X4721Y8669D1*
X4750Y8662D1*
X4780Y8650D1*
X4947Y8646D1*
Y8662D1*
X4913Y8667D1*
X4885Y8676D1*
X4858Y8688D1*
X4832Y8704D1*
X4809Y8723D1*
X4788Y8745D1*
X4771Y8769D1*
X4756Y8795D1*
X4746Y8823D1*
X4738Y8852D1*
X4735Y8882D1*
Y8911D1*
X4740Y8941D1*
X4748Y8970D1*
X4759Y8997D1*
X4774Y9023D1*
X4793Y9047D1*
X4814Y9068D1*
X4838Y9086D1*
X4863Y9101D1*
X4891Y9113D1*
X4920Y9121D1*
X4949Y9125D1*
X4979D1*
X5009Y9122D1*
X5042Y9113D1*
X5076Y9139D1*
X5088Y9159D1*
Y9228D1*
X5038D1*
X4907D1*
Y9454D1*
X4867Y9471D1*
X4841Y9487D1*
X4818Y9506D1*
X4798Y9527D1*
X4780Y9552D1*
X4766Y9578D1*
X4755Y9606D1*
X4747Y9635D1*
X4744Y9664D1*
Y9694D1*
X4749Y9724D1*
X4757Y9753D1*
X4768Y9780D1*
X4783Y9806D1*
X4802Y9830D1*
X4817Y9847D1*
X4716D1*
Y9855D1*
X4337D1*
Y9870D1*
X7849Y9879D2*
X7567D1*
X7583Y9864D1*
X7609Y9849D1*
X7633Y9832D1*
X7655Y9811D1*
X7674Y9788D1*
X7694Y9751D1*
X7891Y9555D1*
X7910Y9532D1*
X7924Y9505D1*
X7933Y9477D1*
X7936Y9447D1*
Y8908D1*
X8000Y8654D1*
X8016Y8637D1*
X8060Y8651D1*
X8090Y8655D1*
X8119Y8656D1*
X8149Y8652D1*
X8178Y8645D1*
X8206Y8634D1*
X8232Y8619D1*
X8256Y8602D1*
X8278Y8581D1*
X8297Y8558D1*
X8312Y8532D1*
X8325Y8505D1*
X8333Y8477D1*
X8338Y8447D1*
X8339Y8424D1*
X8334Y8378D1*
X8352Y8381D1*
X8382Y8382D1*
X8412Y8378D1*
X8441Y8371D1*
X8469Y8360D1*
X8495Y8345D1*
X8530Y8317D1*
X8642Y8307D1*
X8643Y8634D1*
X8644Y9044D1*
X8338Y9014D1*
X8311Y9026D1*
X8186Y9192D1*
X8182Y9221D1*
X8322Y9618D1*
X7849D1*
Y9879D1*
X7648Y10168D2*
Y9879D1*
X8158Y9907D2*
Y9618D1*
X4567Y10124D2*
Y9855D1*
X4907Y9385D2*
X5137D1*
X6757Y10000D2*
X7208D1*
X6704Y9942D2*
X7263D1*
X6651Y9883D2*
X7319D1*
X6597Y9824D2*
X6986D1*
X7292D2*
X7374D1*
X6544Y9766D2*
X6935D1*
X7342D2*
X7431D1*
X6490Y9707D2*
X6909D1*
X7369D2*
X7487D1*
X6437Y9648D2*
X6901D1*
X7377D2*
X7542D1*
X6383Y9590D2*
X6907D1*
X7386D2*
X7599D1*
X6381Y9531D2*
X6632D1*
X6354Y9472D2*
X6632D1*
X6298Y9413D2*
X6632D1*
X7695D2*
X7765D1*
X6240Y9355D2*
X6632D1*
X7695D2*
X7775D1*
X6181Y9296D2*
X6632D1*
X7695D2*
X7779D1*
X6217Y9237D2*
X6632D1*
X7695D2*
X7783D1*
X6254Y9179D2*
X6632D1*
X7695D2*
X7788D1*
X6271Y9120D2*
X6632D1*
X7695D2*
X7792D1*
X6272Y9061D2*
X6628D1*
X7672D2*
X7796D1*
X6258Y9003D2*
X6615D1*
X7672D2*
X7801D1*
X6225Y8944D2*
X6433D1*
X7672D2*
X7805D1*
X6157Y8885D2*
X6384D1*
X7672D2*
X7809D1*
X6023Y8827D2*
X6337D1*
X7672D2*
X7814D1*
X6012Y8768D2*
X6288D1*
X7672D2*
X7818D1*
X6003Y8709D2*
X6239D1*
X7672D2*
X7823D1*
X6001Y8651D2*
X6144D1*
X7672D2*
X7827D1*
X7672Y8592D2*
X7833D1*
X7672Y8533D2*
X7840D1*
X7535Y8474D2*
X7849D1*
X7480Y8416D2*
X7857D1*
X7532Y8357D2*
X7577D1*
X7856Y7653D2*
X8253D1*
X7813Y7594D2*
X8299D1*
X7778Y7535D2*
X8298D1*
X7790Y7477D2*
X8298D1*
X7789Y7418D2*
X8298D1*
X7789Y7359D2*
X8298D1*
X7788Y7301D2*
X8297D1*
X7788Y7242D2*
X8297D1*
X7787Y7183D2*
X8297D1*
X7787Y7125D2*
X8297D1*
X7786Y7066D2*
X8296D1*
X7871Y7007D2*
X8296D1*
X7987Y6949D2*
X8296D1*
X8104Y6890D2*
X8296D1*
X8219Y6831D2*
X8295D1*
X6181Y8688D2*
X6229D1*
X6442Y8947D1*
X6460Y8957D1*
X6621Y8956D1*
Y9000D1*
X6625Y9030D1*
X6634Y9059D1*
X6644Y9084D1*
X6638Y9083D1*
Y9544D1*
X6929D1*
X6917Y9575D1*
X6910Y9604D1*
X6907Y9634D1*
Y9664D1*
X6912Y9694D1*
X6920Y9722D1*
X6932Y9750D1*
X6947Y9776D1*
X6966Y9799D1*
X6987Y9820D1*
X7011Y9838D1*
X7037Y9853D1*
X7065Y9864D1*
X7094Y9872D1*
X7124Y9876D1*
X7154D1*
X7183Y9872D1*
X7212Y9865D1*
X7240Y9853D1*
X7266Y9838D1*
X7290Y9820D1*
X7312Y9799D1*
X7330Y9776D1*
X7346Y9750D1*
X7358Y9723D1*
X7366Y9694D1*
X7371Y9644D1*
X7367Y9602D1*
X7427Y9543D1*
X7647Y9544D1*
X7212Y10002D1*
X6803Y10057D1*
X6376Y9588D1*
X6377Y9557D1*
X6374Y9527D1*
X6364Y9498D1*
X6352Y9477D1*
X6314Y9435D1*
X6177Y9298D1*
X6162Y9281D1*
X6186Y9263D1*
X6208Y9242D1*
X6226Y9218D1*
X6242Y9192D1*
X6254Y9165D1*
X6262Y9136D1*
X6267Y9086D1*
X6266Y9056D1*
X6260Y9027D1*
X6250Y8998D1*
X6237Y8971D1*
X6221Y8946D1*
X6201Y8924D1*
X6179Y8904D1*
X6154Y8887D1*
X6127Y8873D1*
X6099Y8863D1*
X6070Y8856D1*
X6022Y8855D1*
X5997Y8723D1*
X5994Y8637D1*
X6077Y8636D1*
Y8622D1*
X6095Y8625D1*
X6125D1*
X6150Y8621D1*
X6151Y8688D1*
X6181D1*
X7689Y9501D2*
Y9083D1*
X7665D1*
X7666Y8940D1*
X7665Y8877D1*
X7666Y8773D1*
X7665Y8680D1*
X7666Y8576D1*
Y8483D1*
X7538D1*
X7473Y8419D1*
X7550Y8330D1*
X7578Y8354D1*
X7609Y8373D1*
X7642Y8387D1*
X7677Y8396D1*
X7713Y8399D1*
X7749Y8397D1*
X7784Y8389D1*
X7817Y8376D1*
X7848Y8358D1*
X7872D1*
X7853Y8489D1*
X7835Y8626D1*
X7776Y9408D1*
X7689Y9501D1*
X7937Y7681D2*
X7882Y7680D1*
X7855Y7656D1*
X7825Y7637D1*
X7820Y7635D1*
X7810Y7600D1*
X7795Y7568D1*
X7775Y7538D1*
X7768Y7529D1*
X7784Y7502D1*
X7780Y7050D1*
X8301Y6787D1*
X8305Y7649D1*
X8063Y7668D1*
X7940Y7680D1*
X7939D1*
X7593Y7682D2*
X7757Y7518D1*
X7716Y7842D2*
X7880Y7678D1*
X7552Y8331D2*
X7716Y8167D1*
X6408Y8685D2*
X6583D1*
X6359Y8627D2*
X6642D1*
X6311Y8568D2*
X6700D1*
X6263Y8509D2*
X6770D1*
X6060Y8451D2*
X6744D1*
X5965Y8392D2*
X6734D1*
X5956Y8333D2*
X6740D1*
X6035Y8275D2*
X6762D1*
X6114Y8216D2*
X6807D1*
X6192Y8157D2*
X6299D1*
X6559D2*
X6848D1*
X6622Y8099D2*
X6855D1*
X6654Y8040D2*
X6861D1*
X6667Y7981D2*
X6864D1*
X6664Y7922D2*
X6889D1*
X6646Y7864D2*
X6914D1*
X6608Y7805D2*
X7378D1*
X6525Y7746D2*
X7363D1*
X6393Y7688D2*
X7354D1*
X6393Y7629D2*
X7361D1*
X6393Y7570D2*
X7378D1*
X6681Y7512D2*
X7356D1*
X7180Y7453D2*
X7260D1*
X6698Y7483D2*
X7175D1*
Y7430D1*
X7229D1*
X7385Y7525D1*
Y7579D1*
X7371Y7613D1*
X7364Y7642D1*
X7360Y7672D1*
X7361Y7702D1*
X7366Y7732D1*
X7374Y7761D1*
X7385Y7786D1*
Y7835D1*
X7245Y7829D1*
X6954Y7831D1*
X6929Y7845D1*
X6869Y7983D1*
X6866Y7994D1*
Y8085D1*
X6856Y8118D1*
X6853Y8175D1*
Y8185D1*
X6836Y8196D1*
X6813Y8215D1*
X6793Y8237D1*
X6775Y8261D1*
X6761Y8287D1*
X6750Y8315D1*
X6743Y8344D1*
X6740Y8374D1*
X6741Y8404D1*
X6745Y8434D1*
X6753Y8463D1*
X6765Y8490D1*
X6783Y8519D1*
X6755Y8529D1*
X6729Y8546D1*
X6719Y8555D1*
X6534Y8740D1*
X6444Y8736D1*
X6253Y8505D1*
X6238Y8495D1*
X5974Y8431D1*
X5942Y8339D1*
X6165Y8173D1*
X6236Y8120D1*
X6259D1*
X6301Y8155D1*
X6327Y8170D1*
X6355Y8181D1*
X6384Y8189D1*
X6414Y8193D1*
X6444D1*
X6474Y8189D1*
X6503Y8181D1*
X6530Y8170D1*
X6556Y8155D1*
X6580Y8137D1*
X6602Y8116D1*
X6620Y8092D1*
X6636Y8067D1*
X6648Y8039D1*
X6656Y8010D1*
X6661Y7961D1*
X6660Y7931D1*
X6654Y7901D1*
X6644Y7873D1*
X6631Y7846D1*
X6615Y7821D1*
X6595Y7798D1*
X6573Y7778D1*
X6548Y7761D1*
X6521Y7747D1*
X6493Y7737D1*
X6464Y7731D1*
X6434Y7728D1*
X6390Y7732D1*
X6387Y7712D1*
Y7546D1*
X6621Y7558D1*
X6646Y7545D1*
X6698Y7483D1*
X4017Y7837D2*
X4325D1*
X4017Y7779D2*
X4495D1*
X4017Y7720D2*
X4495D1*
X4017Y7662D2*
X4524D1*
X4017Y7603D2*
X4706D1*
X4017Y7545D2*
X4761D1*
X4017Y7486D2*
X4761D1*
X4017Y7428D2*
X4761D1*
X4017Y7369D2*
X4761D1*
X4017Y7310D2*
X4761D1*
X4017Y7252D2*
X4761D1*
X4017Y7193D2*
X4761D1*
X4017Y7135D2*
X4761D1*
X4017Y7076D2*
X4761D1*
X4017Y7018D2*
X4761D1*
X4017Y6959D2*
X4761D1*
X4017Y6901D2*
X4761D1*
X4017Y6842D2*
X4761D1*
X4017Y6784D2*
X4761D1*
X4017Y6725D2*
X4738D1*
X4017Y6667D2*
X4560D1*
X4017Y6608D2*
X4508D1*
X4017Y6550D2*
X4492D1*
X4017Y6491D2*
X4475D1*
X4017Y6433D2*
X4457D1*
X4017Y6374D2*
X4440D1*
X4017Y6315D2*
X4423D1*
X4017Y6257D2*
X4407D1*
X4017Y6198D2*
X4389D1*
X4017Y6140D2*
X4372D1*
X4017Y6081D2*
X4351D1*
X4017Y6023D2*
X4325D1*
X4767Y6732D2*
X4768Y7257D1*
X4767Y7319D1*
Y7601D1*
X4606Y7609D1*
X4590Y7615D1*
X4513Y7675D1*
X4502Y7702D1*
Y7829D1*
X4331D1*
Y7871D1*
X4073Y7870D1*
X4011D1*
Y7617D1*
Y5987D1*
X4324D1*
X4327Y6007D1*
X4335Y6036D1*
X4347Y6064D1*
X4365Y6093D1*
X4523Y6639D1*
X4545Y6659D1*
X4768Y6733D1*
X7180Y6741D2*
X8295D1*
X7180Y6682D2*
X8295D1*
X7180Y6624D2*
X8314D1*
X7180Y6565D2*
X8369D1*
X4633Y6507D2*
X5369D1*
X7180D2*
X8424D1*
X4616Y6448D2*
X5413D1*
X7180D2*
X8472D1*
X4601Y6390D2*
X5395D1*
X7180D2*
X9058D1*
X9687D2*
X9728D1*
X10357D2*
X10936D1*
X4584Y6331D2*
X5316D1*
X7180D2*
X9058D1*
X9687D2*
X9728D1*
X10357D2*
X10936D1*
X4567Y6273D2*
X5279D1*
X7180D2*
X9058D1*
X9687D2*
X9728D1*
X10357D2*
X10936D1*
X4550Y6214D2*
X5261D1*
X7180D2*
X9058D1*
X9687D2*
X9728D1*
X10357D2*
X10936D1*
X4534Y6156D2*
X5259D1*
X6764D2*
X9058D1*
X9687D2*
X9728D1*
X10357D2*
X10936D1*
X4517Y6097D2*
X5273D1*
X7025D2*
X9058D1*
X9687D2*
X9728D1*
X10357D2*
X10936D1*
X4500Y6039D2*
X4604D1*
X8069D2*
X8457D1*
X8692D2*
X9058D1*
X9687D2*
X9728D1*
X10357D2*
X10936D1*
X4484Y5980D2*
X4604D1*
X8069D2*
X8387D1*
X8761D2*
X9013D1*
X9687D2*
X9728D1*
X10357D2*
X10936D1*
X4467Y5922D2*
X4604D1*
X8069D2*
X8353D1*
X8796D2*
X8980D1*
X9687D2*
X9728D1*
X10357D2*
X10935D1*
X4451Y5863D2*
X4604D1*
X8069D2*
X8338D1*
X9687D2*
X9728D1*
X10502D2*
X10935D1*
X4434Y5804D2*
X4604D1*
X8069D2*
X8338D1*
X9438D2*
X9872D1*
X10502D2*
X10935D1*
X4004Y5746D2*
X4604D1*
X8069D2*
X8354D1*
X9438D2*
X9872D1*
X10502D2*
X10935D1*
X4004Y5687D2*
X4604D1*
X8069D2*
X8389D1*
X8760D2*
X8809D1*
X9495D2*
X9829D1*
X10502D2*
X10935D1*
X4005Y5629D2*
X4604D1*
X8069D2*
X8437D1*
X8753D2*
X8809D1*
X9553D2*
X9771D1*
X10502D2*
X10935D1*
X4005Y5570D2*
X4604D1*
X8069D2*
X8437D1*
X8753D2*
X8809D1*
X9596D2*
X9723D1*
X10502D2*
X10935D1*
X4005Y5512D2*
X4604D1*
X8069D2*
X8300D1*
X9607D2*
X9708D1*
X10502D2*
X10935D1*
X4006Y5453D2*
X4604D1*
X8069D2*
X8300D1*
X9607D2*
X9708D1*
X10502D2*
X10935D1*
X4006Y5395D2*
X4604D1*
X6760D2*
X6927D1*
X8069D2*
X8300D1*
X9607D2*
X9708D1*
X10004D2*
X10935D1*
X4007Y5336D2*
X4604D1*
X6757D2*
X6927D1*
X8069D2*
X8300D1*
X9607D2*
X9708D1*
X10004D2*
X10935D1*
X4007Y5278D2*
X4604D1*
X5746D2*
X6927D1*
X8069D2*
X8300D1*
X10004D2*
X10935D1*
X4007Y5219D2*
X5500D1*
X7173D2*
X8300D1*
X10004D2*
X10935D1*
X4008Y5161D2*
X5500D1*
X7173D2*
X8300D1*
X10004D2*
X10935D1*
X4008Y5102D2*
X5500D1*
X7173D2*
X8300D1*
X10502D2*
X10934D1*
X4009Y5044D2*
X5500D1*
X7173D2*
X8300D1*
X10502D2*
X10934D1*
X4009Y4985D2*
X5500D1*
X7173D2*
X8300D1*
X10502D2*
X10934D1*
X4010Y4926D2*
X4339D1*
X10502D2*
X10934D1*
X4010Y4868D2*
X4339D1*
X10502D2*
X10934D1*
X4010Y4809D2*
X4339D1*
X10502D2*
X10934D1*
X4010Y4751D2*
X4339D1*
X10502D2*
X10934D1*
X4010Y4692D2*
X4339D1*
X8890D2*
X9129D1*
X10064D2*
X10448D1*
X4011Y4634D2*
X4339D1*
X8890D2*
X9188D1*
X4011Y4575D2*
X4339D1*
X8890D2*
X9191D1*
X4011Y4517D2*
X4339D1*
X8890D2*
X9191D1*
X4012Y4458D2*
X4339D1*
X8890D2*
X9191D1*
X9820D2*
X9860D1*
X4012Y4400D2*
X4339D1*
X8890D2*
X9191D1*
X9820D2*
X9860D1*
X4013Y4341D2*
X4339D1*
X8890D2*
X9191D1*
X9820D2*
X9860D1*
X4013Y4283D2*
X4339D1*
X8890D2*
X9191D1*
X9820D2*
X9860D1*
X4014Y4224D2*
X4339D1*
X8334D2*
X9191D1*
X9820D2*
X9860D1*
X4014Y4166D2*
X9191D1*
X9820D2*
X9860D1*
X4014Y4107D2*
X9191D1*
X9820D2*
X9860D1*
X4015Y4049D2*
X10448D1*
X4015Y3990D2*
X10448D1*
X10495Y4723D2*
X10940D1*
X10942Y6442D1*
X10434D1*
Y6429D1*
X8478D1*
Y6456D1*
X8310Y6635D1*
X8301Y6655D1*
Y6798D1*
X7174Y6799D1*
X7175Y6196D1*
X7150Y6195D1*
X7127Y6178D1*
X6759Y6182D1*
X6758Y6124D1*
X7019D1*
Y6065D1*
X8063D1*
Y5250D1*
X7167D1*
Y4982D1*
X8306D1*
Y5529D1*
X8443D1*
Y5643D1*
X8416Y5665D1*
X8396Y5686D1*
X8378Y5711D1*
X8364Y5737D1*
X8353Y5765D1*
X8346Y5794D1*
X8342Y5823D1*
X8343Y5853D1*
X8347Y5883D1*
X8355Y5912D1*
X8367Y5939D1*
X8382Y5965D1*
X8400Y5989D1*
X8421Y6010D1*
X8445Y6028D1*
X8471Y6043D1*
X8498Y6055D1*
X8527Y6063D1*
X8557Y6067D1*
X8587D1*
X8616Y6064D1*
X8645Y6056D1*
X8673Y6045D1*
X8699Y6031D1*
X8723Y6013D1*
X8745Y5993D1*
X8764Y5969D1*
X8780Y5944D1*
X8792Y5917D1*
X8801Y5888D1*
X8805Y5858D1*
X8807Y5835D1*
X8805Y5805D1*
X8799Y5776D1*
X8790Y5748D1*
X8777Y5721D1*
X8760Y5696D1*
X8747Y5681D1*
Y5529D1*
X8815D1*
Y5652D1*
Y5864D1*
X8982D1*
X8981Y5884D1*
X8984Y5914D1*
X8994Y5942D1*
X9005Y5963D1*
X9044Y6006D1*
X9063Y6025D1*
X9064Y6422D1*
X9681D1*
Y5844D1*
X9432D1*
Y5743D1*
X9559Y5617D1*
X9578Y5594D1*
X9591Y5567D1*
X9598Y5545D1*
X9601Y5487D1*
Y5334D1*
X9637Y5321D1*
X9663Y5306D1*
X9687Y5288D1*
X9714Y5261D1*
Y5507D1*
X9717Y5537D1*
X9726Y5565D1*
X9738Y5586D1*
X9777Y5629D1*
X9878Y5730D1*
Y5844D1*
X9770D1*
X9733D1*
Y6422D1*
X10351D1*
Y5864D1*
X10495D1*
Y5443D1*
X9999D1*
Y5115D1*
X10087Y5116D1*
X10495D1*
Y4723D1*
X10454Y3969D2*
Y4085D1*
X9866D1*
Y4482D1*
X9814Y4533D1*
Y4085D1*
X9197D1*
Y4632D1*
X9133Y4695D1*
X8884D1*
Y4638D1*
Y4242D1*
X8328D1*
Y4168D1*
X4345D1*
Y4982D1*
X5506D1*
Y5250D1*
X4610D1*
Y6065D1*
X5294D1*
X5275Y6108D1*
X5268Y6137D1*
X5264Y6166D1*
X5265Y6196D1*
X5269Y6226D1*
X5277Y6255D1*
X5289Y6282D1*
X5304Y6308D1*
X5322Y6332D1*
X5343Y6353D1*
X5367Y6371D1*
X5393Y6386D1*
X5434Y6401D1*
X5431Y6433D1*
X5359Y6529D1*
X4632Y6525D1*
X4598Y6403D1*
X4425Y5793D1*
X4404Y5772D1*
X4396Y5771D1*
X3997D1*
X3999Y5591D1*
X4010Y3976D1*
X10455Y3970D1*
X10454Y4663D2*
Y4695D1*
X10055D1*
X10087Y4663D1*
X10454D1*
X6933Y5408D2*
X6754D1*
Y5349D1*
X6739Y5324D1*
X6724Y5319D1*
X5739D1*
X5740Y5281D1*
Y5257D1*
X6933Y5258D1*
Y5408D1*
X9733Y6133D2*
D22*
X10350D1*
X8595Y4550D2*
D14*
Y4242D1*
Y4550D2*
X8884D1*
X10187Y5116D2*
Y4695D1*
Y4905D2*
X10495D1*
X6848Y6124D2*
Y5408D1*
X5175Y6065D2*
Y5250D1*
X4610Y5657D2*
X5175D1*
X7498Y6065D2*
Y5250D1*
Y5657D2*
X8063D1*
X4968Y4982D2*
Y4168D1*
X4345Y4575D2*
X4968D1*
X7705Y4982D2*
Y4168D1*
X6336Y5258D2*
Y4168D1*
D23*
X10947Y4296D3*
X3940Y9296D3*
X10940Y8296D3*
Y9296D3*
Y10296D3*
D24*
X9940Y11296D3*
D23*
X3940Y4296D3*
Y5296D3*
Y6296D3*
Y7296D3*
Y10296D3*
D25*
X7449Y7283D3*
X8118D3*
X8163Y10444D3*
X8833D3*
X7648Y10168D3*
X6979D3*
D26*
X6886Y7174D3*
Y6505D3*
X6440Y9048D3*
Y8379D3*
D25*
X5099Y8347D3*
X5768D3*
X10175Y4374D3*
X9505D3*
X9372Y6133D3*
X10042D3*
D26*
X8595Y5220D3*
Y4550D3*
D27*
X6318Y10065D3*
Y10577D3*
D23*
X10940Y5296D3*
Y6296D3*
Y7296D3*
X3940Y8296D3*
D28*
X9456Y7014D3*
Y8589D3*
D25*
X8827Y9907D3*
X8158D3*
X9473Y9386D3*
X8804D3*
D26*
X9991Y10052D3*
Y9383D3*
D29*
X7419Y9313D3*
X6907D3*
D27*
X4997Y6987D3*
Y7499D3*
X5371Y7202D3*
Y7714D3*
X4561Y8220D3*
Y7708D3*
X4946Y10116D3*
Y10628D3*
X4567Y10124D3*
Y10636D3*
D29*
X5374Y10629D3*
X5886D3*
D31*
X5925Y9385D3*
D32*
X5826Y9681D3*
D33*
X5630D3*
X5433D3*
D32*
X5236D3*
D31*
X5137Y9385D3*
D32*
X5236Y9090D3*
D33*
X5433D3*
X5630D3*
D32*
X5826D3*
D38*
X6561Y7637D3*
X6404D3*
X6246D3*
X6089D3*
X5931D3*
Y6850D3*
X6089D3*
X6246D3*
X6404D3*
X6561D3*
D39*
X6246Y7244D3*
D40*
X6424Y7189D3*
X6246Y7294D3*
X6069Y7189D3*
D43*
X8048Y7626D3*
Y7823D3*
Y8020D3*
Y8217D3*
X7261D3*
Y8020D3*
Y7823D3*
Y7626D3*
D44*
X7654Y7921D3*
D40*
X7593Y7682D3*
X7716Y7842D3*
X7593Y8004D3*
X7716Y8167D3*
D46*
X7168Y9028D3*
Y8831D3*
Y8635D3*
X7471D3*
Y8831D3*
Y9028D3*
D48*
X9124Y5653D3*
Y5279D3*
Y4905D3*
X10187D3*
Y5653D3*
G36*
X5605Y11696D2*
X6275D1*
Y10896D1*
X5605D1*
Y11696D1*
G37*
G36*
X4605D2*
X5275D1*
Y10896D1*
X4605D1*
Y11696D1*
G37*
D50*
X5825Y5766D3*
X6081D3*
X6336D3*
X6592D3*
X6848D3*
D51*
X5175Y5657D3*
X7498D3*
D52*
X4968Y4575D3*
X7705D3*
D53*
X6336Y4713D3*
D24*
X6940Y11296D3*
X7940D3*
X8940D3*
M02*
