G04 DipTrace 2.4.0.2*
%INUSBBiPower.gbl*%
%MOIN*%
%ADD13C,0.006*%
%ADD14C,0.012*%
%ADD15C,0.02*%
%ADD16C,0.03*%
%ADD17C,0.008*%
%ADD18C,0.01*%
%ADD21C,0.015*%
%ADD23R,0.08X0.0669*%
%ADD24R,0.0669X0.08*%
%ADD40C,0.028*%
%ADD54C,0.028*%
%FSLAX44Y44*%
G04*
G70*
G90*
G75*
G01*
%LNBottom*%
%LPD*%
X6028Y7950D2*
D13*
Y7968D1*
X6386Y8326D1*
Y8522D1*
X6841Y8977D1*
X6849D1*
X4515Y6799D2*
D16*
Y6983D1*
X5921Y8390D1*
X6108D1*
D17*
Y8591D1*
X7072Y9555D1*
X7050D1*
X7136Y9641D1*
X4973Y9673D2*
D18*
Y9702D1*
X4381Y10293D1*
X3937D1*
X5726Y7020D2*
X5466D1*
X5227Y6782D1*
X4928Y7936D2*
Y7979D1*
X5706Y8757D1*
X8104Y8421D2*
Y8921D1*
X8514Y9331D1*
Y9346D1*
X6426Y7958D2*
X6406D1*
Y8013D1*
X8367Y8147D2*
D14*
Y8799D1*
X9316Y9747D1*
X9591D1*
Y9788D1*
X9557D1*
X3937Y4293D2*
X4270D1*
Y5398D1*
X5329Y6458D1*
X4572D1*
X5028D1*
X5317D1*
X5633D1*
X6243Y7068D1*
X6424Y7248D1*
Y7285D1*
X3937Y5293D2*
X4299D1*
Y5440D1*
X5317Y6458D1*
X4552Y5956D2*
Y6458D1*
X4572D1*
X5122Y6174D2*
X4572D1*
Y6458D1*
X5028Y6417D2*
Y6458D1*
X4419Y4140D2*
X4355D1*
Y4210D1*
X4272Y4293D1*
X4964Y8890D2*
X5431Y9357D1*
X6502D1*
X3937Y8293D2*
X3942D1*
X4476Y8827D1*
X4900D1*
X4964Y8890D1*
X7945Y6113D2*
Y5952D1*
X8514Y5383D1*
X8908D1*
X10026D1*
X10937Y6293D1*
Y7293D2*
Y7190D1*
X10611Y6864D1*
Y6619D1*
X10937Y6293D1*
X10026Y5383D2*
X10848D1*
X10937Y5293D1*
X9648Y5731D2*
D18*
X9256D1*
X8908Y5383D1*
X6421Y7186D2*
D14*
X6348D1*
X6243Y7291D1*
D18*
X6171D1*
X6066Y7186D1*
X6243Y7291D2*
Y7068D1*
X5772Y7678D2*
X5937D1*
X6069Y7546D1*
X6545D1*
X6677Y7414D1*
Y6438D1*
X6485Y6247D1*
X6677Y7414D2*
Y8443D1*
X6865Y8631D1*
X7206D1*
X8457Y9882D1*
Y10429D1*
X8105Y10781D1*
X7494D1*
X7281Y10993D1*
X7237D1*
X6937Y11293D1*
X5634Y10301D2*
X5650D1*
X6014Y10664D1*
X6602D1*
X6664Y10602D1*
X5292Y10078D2*
Y10017D1*
X5755D1*
X5920Y10181D1*
X6915D1*
X7266Y10532D1*
X7315D1*
X10944Y4293D2*
X10349D1*
X9535Y5107D1*
X6969Y8381D2*
X7192D1*
X8889Y10078D1*
X9267D1*
X5979Y9848D2*
Y9828D1*
X5180D1*
X4903Y10104D1*
Y11271D1*
X4984Y11190D1*
Y11293D1*
X4937D1*
X5493Y6175D2*
D15*
X5939D1*
X6286Y6523D1*
X6032Y9083D2*
D18*
X5646D1*
X5034Y8471D1*
X4643D1*
X4676Y8438D1*
X4889Y9341D2*
D21*
X5047D1*
X5278Y9571D1*
X6258D1*
X6619Y9932D1*
X7712D1*
X7740Y9904D1*
X10333Y9414D2*
D14*
Y7713D1*
X10413Y7633D1*
Y6398D1*
X10294Y6279D1*
X9018D1*
X8571Y5832D1*
D54*
X6664Y10602D3*
X5634Y10301D3*
X5292Y10078D3*
X5979Y9848D3*
X4889Y9341D3*
X7193Y6885D3*
X7845Y6904D3*
X7275Y6172D3*
X8247Y6490D3*
X7945Y6113D3*
X7298Y5096D3*
X4851Y5132D3*
X4462Y5254D3*
X8571Y5832D3*
X9033Y4464D3*
X8467Y6264D3*
X7136Y9641D3*
X4964Y8890D3*
X9648Y5731D3*
X6032Y9083D3*
X4419Y4140D3*
X7873Y7577D3*
X7760Y8505D3*
X7486Y6870D3*
X8189Y6947D3*
X7566Y6572D3*
X7878Y6488D3*
X6502Y9357D3*
X4552Y5956D3*
X5122Y6174D3*
X5028Y6417D3*
X5543Y4640D3*
X7118Y4628D3*
X5706Y8757D3*
X4676Y8438D3*
X4928Y7936D3*
X7740Y9904D3*
X4973Y9673D3*
X7589Y8336D3*
X7876Y7301D3*
X6301Y5193D3*
X6735Y9655D3*
X7481Y9651D3*
X9935Y10754D3*
X10464Y9832D3*
X10333Y9414D3*
X10405Y10819D3*
X9569Y10447D3*
X9535Y5107D3*
X8104Y8421D3*
X8367Y8147D3*
X6286Y6523D3*
X8514Y9346D3*
X9557Y9788D3*
X6969Y8381D3*
X9267Y10078D3*
X5493Y6175D3*
X6485Y6247D3*
X5227Y6782D3*
X5726Y7020D3*
X5772Y7678D3*
X4515Y6799D3*
X6108Y8390D3*
X6028Y7950D3*
X6849Y8977D3*
X6426Y7958D3*
X7315Y10532D3*
X7532Y10631D2*
D13*
X8048D1*
X7550Y10572D2*
X8107D1*
X7553Y10514D2*
X8165D1*
X7541Y10455D2*
X8224D1*
X7510Y10397D2*
X8282D1*
X7449Y10338D2*
X8308D1*
X7220Y10279D2*
X8308D1*
X7162Y10221D2*
X8308D1*
X7103Y10162D2*
X8308D1*
X7045Y10104D2*
X7615D1*
X7864D2*
X8308D1*
X7930Y10045D2*
X8308D1*
X4435Y9987D2*
X4481D1*
X7963D2*
X8308D1*
X4435Y9928D2*
X4540D1*
X7977D2*
X8296D1*
X4435Y9870D2*
X4598D1*
X7975D2*
X8237D1*
X3978Y9811D2*
X4657D1*
X7958D2*
X8179D1*
X3978Y9753D2*
X4715D1*
X6683D2*
X6927D1*
X7346D2*
X7558D1*
X7922D2*
X8120D1*
X4435Y9694D2*
X4736D1*
X6624D2*
X6903D1*
X7368D2*
X7635D1*
X7845D2*
X8061D1*
X4435Y9636D2*
X4738D1*
X6565D2*
X6898D1*
X7374D2*
X8003D1*
X4435Y9577D2*
X4756D1*
X6507D2*
X6901D1*
X7365D2*
X7944D1*
X4435Y9519D2*
X4734D1*
X6448D2*
X6843D1*
X7339D2*
X7886D1*
X4435Y9460D2*
X4685D1*
X6390D2*
X6784D1*
X7288D2*
X7827D1*
X4435Y9402D2*
X4659D1*
X5350D2*
X6726D1*
X7111D2*
X7768D1*
X4435Y9343D2*
X4651D1*
X5292D2*
X6667D1*
X7053D2*
X7710D1*
X4435Y9284D2*
X4658D1*
X5233D2*
X5910D1*
X6154D2*
X6608D1*
X6994D2*
X7651D1*
X4435Y9226D2*
X4682D1*
X5175D2*
X5843D1*
X6222D2*
X6550D1*
X6936D2*
X7594D1*
X4435Y9167D2*
X4729D1*
X5050D2*
X5522D1*
X6254D2*
X6491D1*
X6988D2*
X7535D1*
X4435Y9109D2*
X4870D1*
X4909D2*
X5464D1*
X6268D2*
X6433D1*
X7046D2*
X7476D1*
X4435Y9050D2*
X5406D1*
X6267D2*
X6374D1*
X7075D2*
X7418D1*
X4435Y8992D2*
X5348D1*
X6252D2*
X6315D1*
X7087D2*
X7359D1*
X4435Y8933D2*
X5289D1*
X6215D2*
X6257D1*
X7084D2*
X7301D1*
X4435Y8875D2*
X5230D1*
X6140D2*
X6198D1*
X7063D2*
X7242D1*
X7893D2*
X7956D1*
X3983Y8816D2*
X5172D1*
X5936D2*
X6140D1*
X7022D2*
X7183D1*
X7835D2*
X7956D1*
X3984Y8758D2*
X5113D1*
X5944D2*
X6082D1*
X7776D2*
X7956D1*
X3984Y8699D2*
X5055D1*
X5936D2*
X6023D1*
X7718D2*
X7956D1*
X3984Y8641D2*
X4557D1*
X4795D2*
X4996D1*
X5913D2*
X5980D1*
X7659D2*
X7956D1*
X3985Y8582D2*
X4488D1*
X7601D2*
X7931D1*
X3985Y8524D2*
X4455D1*
X7542D2*
X7890D1*
X3985Y8465D2*
X4440D1*
X7483D2*
X7870D1*
X3986Y8407D2*
X4441D1*
X7425D2*
X7867D1*
X3986Y8348D2*
X4456D1*
X7366D2*
X7878D1*
X3986Y8289D2*
X4492D1*
X4861D2*
X5031D1*
X7308D2*
X7907D1*
X3987Y8231D2*
X4565D1*
X4787D2*
X4973D1*
X6470D2*
X6528D1*
X7152D2*
X7965D1*
X3987Y8172D2*
X4915D1*
X6411D2*
X6528D1*
X6825D2*
X6862D1*
X7076D2*
X7993D1*
X3987Y8114D2*
X4772D1*
X6353D2*
X6528D1*
X6825D2*
X7993D1*
X3987Y8055D2*
X4723D1*
X6295D2*
X6528D1*
X6825D2*
X7993D1*
X3988Y7997D2*
X4698D1*
X6261D2*
X6528D1*
X6825D2*
X7993D1*
X3988Y7938D2*
X4689D1*
X6266D2*
X6528D1*
X6825D2*
X7993D1*
X3988Y7880D2*
X4697D1*
X6255D2*
X6528D1*
X6825D2*
X7993D1*
X3989Y7821D2*
X4720D1*
X6227D2*
X6528D1*
X6825D2*
X7993D1*
X3989Y7763D2*
X4767D1*
X6172D2*
X6528D1*
X6825D2*
X7993D1*
X4435Y7704D2*
X4888D1*
X6118D2*
X6528D1*
X6825D2*
X8178D1*
X4435Y7646D2*
X4829D1*
X6825D2*
X8288D1*
X4435Y7587D2*
X4771D1*
X5467D2*
X5552D1*
X6825D2*
X8288D1*
X4435Y7529D2*
X4712D1*
X5409D2*
X5588D1*
X6825D2*
X8288D1*
X4435Y7470D2*
X4653D1*
X5350D2*
X5662D1*
X5882D2*
X5938D1*
X6825D2*
X8289D1*
X4435Y7411D2*
X4595D1*
X5291D2*
X6016D1*
X6825D2*
X8289D1*
X4435Y7353D2*
X4536D1*
X5233D2*
X6528D1*
X6825D2*
X8289D1*
X4435Y7294D2*
X4478D1*
X5174D2*
X6528D1*
X6825D2*
X8289D1*
X5116Y7236D2*
X5634D1*
X5818D2*
X6528D1*
X6825D2*
X8290D1*
X5057Y7177D2*
X5549D1*
X5903D2*
X6528D1*
X6825D2*
X8290D1*
X4999Y7119D2*
X5357D1*
X5942D2*
X6528D1*
X6825D2*
X8290D1*
X4941Y7060D2*
X5299D1*
X5961D2*
X6528D1*
X6825D2*
X8290D1*
X4882Y7002D2*
X5147D1*
X5964D2*
X6528D1*
X6825D2*
X8291D1*
X4824Y6943D2*
X5054D1*
X5950D2*
X6528D1*
X6825D2*
X8291D1*
X4765Y6885D2*
X5013D1*
X5921D2*
X6528D1*
X6825D2*
X8291D1*
X4763Y6826D2*
X4993D1*
X5478D2*
X5593D1*
X5859D2*
X6528D1*
X6825D2*
X8291D1*
X4761Y6768D2*
X4989D1*
X5465D2*
X6528D1*
X6825D2*
X8291D1*
X4746Y6709D2*
X5001D1*
X5454D2*
X6142D1*
X6431D2*
X6528D1*
X6825D2*
X8329D1*
X4712Y6651D2*
X5030D1*
X5425D2*
X6086D1*
X6486D2*
X6528D1*
X6825D2*
X8379D1*
X4647Y6592D2*
X5088D1*
X5367D2*
X6059D1*
X6825D2*
X8428D1*
X4435Y6534D2*
X6020D1*
X6825D2*
X8478D1*
X4435Y6475D2*
X5961D1*
X6825D2*
X8528D1*
X9747D2*
X10255D1*
X10571D2*
X10944D1*
X4435Y6416D2*
X5902D1*
X6823D2*
X8947D1*
X10571D2*
X10944D1*
X4435Y6358D2*
X5345D1*
X6799D2*
X8876D1*
X10566D2*
X10944D1*
X4435Y6299D2*
X5291D1*
X6744D2*
X8817D1*
X10535D2*
X10944D1*
X4435Y6241D2*
X5265D1*
X6723D2*
X8759D1*
X10478D2*
X10944D1*
X4435Y6182D2*
X5255D1*
X6223D2*
X6256D1*
X6714D2*
X8701D1*
X10419D2*
X10944D1*
X4435Y6124D2*
X5261D1*
X6166D2*
X6283D1*
X6688D2*
X8642D1*
X9085D2*
X10944D1*
X4435Y6065D2*
X5283D1*
X6107D2*
X6334D1*
X6636D2*
X8584D1*
X9026D2*
X10944D1*
X4435Y6007D2*
X5328D1*
X6037D2*
X8413D1*
X8967D2*
X10944D1*
X4435Y5948D2*
X5438D1*
X5549D2*
X8364D1*
X8909D2*
X10944D1*
X4435Y5890D2*
X8341D1*
X8850D2*
X10944D1*
X3998Y5831D2*
X8333D1*
X8810D2*
X10944D1*
X3999Y5773D2*
X8341D1*
X8801D2*
X10944D1*
X3999Y5714D2*
X8365D1*
X8777D2*
X10944D1*
X3999Y5656D2*
X8414D1*
X8728D2*
X10944D1*
X3999Y5597D2*
X10944D1*
X4000Y5539D2*
X10944D1*
X4000Y5480D2*
X10944D1*
X4000Y5421D2*
X10944D1*
X4001Y5363D2*
X10944D1*
X4001Y5304D2*
X9407D1*
X9664D2*
X10944D1*
X4001Y5246D2*
X9343D1*
X9727D2*
X10944D1*
X4002Y5187D2*
X9311D1*
X9759D2*
X10944D1*
X4002Y5129D2*
X9298D1*
X9772D2*
X10944D1*
X4002Y5070D2*
X9300D1*
X9779D2*
X10944D1*
X4003Y5012D2*
X9318D1*
X9837D2*
X10944D1*
X4003Y4953D2*
X9355D1*
X9896D2*
X10944D1*
X4003Y4895D2*
X9436D1*
X9955D2*
X10944D1*
X4003Y4836D2*
X9599D1*
X10013D2*
X10944D1*
X4004Y4778D2*
X9658D1*
X10072D2*
X10944D1*
X4004Y4719D2*
X9716D1*
X10130D2*
X10445D1*
X4004Y4661D2*
X9775D1*
X10189D2*
X10445D1*
X4005Y4602D2*
X9834D1*
X10248D2*
X10445D1*
X4005Y4544D2*
X9892D1*
X10306D2*
X10445D1*
X4005Y4485D2*
X9951D1*
X10365D2*
X10445D1*
X4006Y4426D2*
X10009D1*
X4006Y4368D2*
X10068D1*
X4006Y4309D2*
X10127D1*
X4007Y4251D2*
X10185D1*
X4007Y4192D2*
X10243D1*
X4007Y4134D2*
X10445D1*
X4007Y4075D2*
X10445D1*
X4007Y4017D2*
X10445D1*
X4007Y3958D2*
X10445D1*
X10481Y4720D2*
X10950D1*
X10949Y6477D1*
X10565Y6476D1*
Y6398D1*
X10563Y6368D1*
X10554Y6339D1*
X10540Y6313D1*
X10521Y6290D1*
X10402Y6171D1*
X10379Y6152D1*
X10353Y6138D1*
X10324Y6129D1*
X10294Y6126D1*
X9082D1*
X8802Y5848D1*
Y5802D1*
X8796Y5773D1*
X8787Y5745D1*
X8774Y5718D1*
X8757Y5693D1*
X8738Y5670D1*
X8715Y5650D1*
X8691Y5633D1*
X8664Y5619D1*
X8636Y5609D1*
X8607Y5603D1*
X8577Y5600D1*
X8547Y5601D1*
X8518Y5606D1*
X8489Y5615D1*
X8462Y5627D1*
X8437Y5643D1*
X8413Y5662D1*
X8393Y5683D1*
X8375Y5708D1*
X8361Y5734D1*
X8350Y5762D1*
X8343Y5791D1*
X8339Y5820D1*
X8340Y5850D1*
X8344Y5880D1*
X8352Y5909D1*
X8364Y5936D1*
X8379Y5962D1*
X8397Y5986D1*
X8418Y6007D1*
X8442Y6025D1*
X8468Y6040D1*
X8495Y6052D1*
X8524Y6060D1*
X8554Y6064D1*
X8588D1*
X8718Y6194D1*
X8910Y6386D1*
X8933Y6405D1*
X8960Y6420D1*
X8988Y6428D1*
X9018Y6431D1*
X10231D1*
X10261Y6461D1*
X10231Y6476D1*
X8549Y6473D1*
X8530Y6480D1*
X8304Y6747D1*
X8297Y6765D1*
X8294Y7671D1*
X8020Y7752D1*
X8000Y7774D1*
X7999Y7781D1*
Y8214D1*
X7969Y8231D1*
X7946Y8250D1*
X7926Y8272D1*
X7908Y8296D1*
X7894Y8322D1*
X7883Y8350D1*
X7876Y8379D1*
X7872Y8409D1*
X7873Y8439D1*
X7877Y8468D1*
X7885Y8497D1*
X7896Y8525D1*
X7912Y8551D1*
X7930Y8574D1*
X7962Y8604D1*
Y8921D1*
X7964Y8946D1*
X7953Y8941D1*
X7293Y8281D1*
X7270Y8262D1*
X7243Y8248D1*
X7221Y8242D1*
X7163Y8239D1*
X7152D1*
X7136Y8219D1*
X7113Y8199D1*
X7089Y8182D1*
X7062Y8168D1*
X7034Y8158D1*
X7005Y8152D1*
X6975Y8149D1*
X6945Y8150D1*
X6916Y8155D1*
X6887Y8164D1*
X6860Y8176D1*
X6834Y8192D1*
X6819Y8204D1*
Y6438D1*
X6816Y6409D1*
X6807Y6380D1*
X6795Y6360D1*
X6756Y6317D1*
X6716Y6276D1*
X6717Y6247D1*
X6716Y6217D1*
X6710Y6188D1*
X6700Y6159D1*
X6687Y6132D1*
X6671Y6107D1*
X6651Y6085D1*
X6629Y6065D1*
X6605Y6048D1*
X6578Y6034D1*
X6550Y6024D1*
X6521Y6017D1*
X6491Y6015D1*
X6461Y6016D1*
X6432Y6021D1*
X6403Y6030D1*
X6376Y6042D1*
X6350Y6058D1*
X6327Y6076D1*
X6307Y6098D1*
X6289Y6122D1*
X6275Y6149D1*
X6264Y6176D1*
X6255Y6219D1*
X6075Y6039D1*
X6052Y6020D1*
X6027Y6004D1*
X5999Y5992D1*
X5970Y5985D1*
X5909Y5983D1*
X5624D1*
X5586Y5962D1*
X5558Y5952D1*
X5529Y5945D1*
X5499Y5943D1*
X5469Y5944D1*
X5440Y5949D1*
X5411Y5958D1*
X5384Y5970D1*
X5359Y5986D1*
X5336Y6005D1*
X5315Y6026D1*
X5297Y6051D1*
X5283Y6077D1*
X5272Y6105D1*
X5265Y6134D1*
X5261Y6163D1*
X5262Y6193D1*
X5266Y6223D1*
X5274Y6252D1*
X5286Y6279D1*
X5301Y6305D1*
X5319Y6329D1*
X5340Y6350D1*
X5364Y6368D1*
X5390Y6383D1*
X5417Y6395D1*
X5446Y6403D1*
X5476Y6407D1*
X5506D1*
X5535Y6404D1*
X5564Y6396D1*
X5592Y6385D1*
X5624Y6367D1*
X5859D1*
X6059Y6567D1*
X6067Y6599D1*
X6079Y6627D1*
X6094Y6653D1*
X6112Y6676D1*
X6133Y6697D1*
X6157Y6716D1*
X6183Y6731D1*
X6210Y6742D1*
X6239Y6750D1*
X6269Y6754D1*
X6299Y6755D1*
X6328Y6751D1*
X6357Y6744D1*
X6385Y6733D1*
X6411Y6718D1*
X6435Y6701D1*
X6457Y6680D1*
X6476Y6657D1*
X6492Y6631D1*
X6504Y6604D1*
X6513Y6576D1*
X6517Y6546D1*
X6519Y6523D1*
X6514Y6477D1*
X6534Y6498D1*
Y7356D1*
X6485Y7403D1*
X6069D1*
X6040Y7406D1*
X6011Y7416D1*
X5990Y7427D1*
X5948Y7466D1*
X5916Y7495D1*
X5892Y7478D1*
X5865Y7465D1*
X5837Y7455D1*
X5808Y7448D1*
X5778Y7445D1*
X5748Y7447D1*
X5718Y7452D1*
X5690Y7460D1*
X5663Y7473D1*
X5637Y7488D1*
X5614Y7507D1*
X5593Y7529D1*
X5576Y7553D1*
X5561Y7579D1*
X5551Y7607D1*
X5543Y7636D1*
X5540Y7665D1*
X5098Y7224D1*
X4758Y6883D1*
X4757Y6799D1*
X4755Y6769D1*
X4750Y6740D1*
X4741Y6711D1*
X4728Y6684D1*
X4713Y6659D1*
X4694Y6635D1*
X4672Y6614D1*
X4648Y6596D1*
X4622Y6582D1*
X4595Y6570D1*
X4566Y6562D1*
X4536Y6557D1*
X4507D1*
X4477Y6559D1*
X4429Y6573D1*
Y5866D1*
X3993D1*
X3999Y4410D1*
X4002Y3951D1*
X10451Y3957D1*
Y4152D1*
X10349Y4151D1*
X10320Y4154D1*
X10291Y4163D1*
X10270Y4175D1*
X10227Y4214D1*
X9564Y4877D1*
X9541Y4875D1*
X9511Y4876D1*
X9482Y4881D1*
X9453Y4890D1*
X9426Y4902D1*
X9400Y4918D1*
X9377Y4937D1*
X9357Y4959D1*
X9339Y4983D1*
X9325Y5009D1*
X9314Y5037D1*
X9307Y5066D1*
X9303Y5096D1*
X9304Y5126D1*
X9308Y5155D1*
X9316Y5184D1*
X9328Y5211D1*
X9343Y5237D1*
X9361Y5261D1*
X9382Y5282D1*
X9406Y5300D1*
X9432Y5315D1*
X9459Y5327D1*
X9488Y5335D1*
X9518Y5339D1*
X9548D1*
X9577Y5336D1*
X9606Y5329D1*
X9634Y5318D1*
X9660Y5303D1*
X9684Y5286D1*
X9706Y5265D1*
X9725Y5242D1*
X9740Y5216D1*
X9753Y5189D1*
X9761Y5160D1*
X9766Y5131D1*
Y5078D1*
X10409Y4436D1*
X10451D1*
Y4720D1*
X10481D1*
X3973Y9720D2*
X4429D1*
Y8866D1*
X3978D1*
X3983Y7720D1*
X4429D1*
Y7241D1*
X4894Y7705D1*
X4846Y7718D1*
X4819Y7731D1*
X4793Y7746D1*
X4770Y7765D1*
X4749Y7787D1*
X4732Y7811D1*
X4717Y7837D1*
X4706Y7865D1*
X4699Y7894D1*
X4696Y7924D1*
Y7954D1*
X4700Y7984D1*
X4709Y8012D1*
X4720Y8040D1*
X4735Y8066D1*
X4754Y8089D1*
X4775Y8110D1*
X4798Y8129D1*
X4824Y8144D1*
X4852Y8155D1*
X4881Y8163D1*
X4915Y8167D1*
X5087Y8339D1*
X5062Y8332D1*
X5004Y8329D1*
X4881D1*
X4862Y8298D1*
X4842Y8276D1*
X4820Y8256D1*
X4796Y8239D1*
X4769Y8225D1*
X4741Y8215D1*
X4712Y8208D1*
X4682Y8206D1*
X4652Y8207D1*
X4623Y8212D1*
X4594Y8220D1*
X4567Y8233D1*
X4541Y8249D1*
X4518Y8267D1*
X4498Y8289D1*
X4480Y8313D1*
X4466Y8339D1*
X4455Y8367D1*
X4448Y8396D1*
X4444Y8426D1*
X4445Y8456D1*
X4449Y8486D1*
X4457Y8514D1*
X4468Y8542D1*
X4484Y8568D1*
X4502Y8591D1*
X4523Y8612D1*
X4547Y8631D1*
X4573Y8646D1*
X4600Y8657D1*
X4629Y8665D1*
X4659Y8669D1*
X4688Y8670D1*
X4718Y8666D1*
X4747Y8659D1*
X4775Y8648D1*
X4801Y8634D1*
X4827Y8614D1*
X4975D1*
X5545Y9184D1*
X5568Y9203D1*
X5595Y9216D1*
X5618Y9223D1*
X5676Y9226D1*
X5848D1*
X5879Y9258D1*
X5903Y9276D1*
X5928Y9291D1*
X5956Y9303D1*
X5985Y9311D1*
X6014Y9315D1*
X6044D1*
X6074Y9312D1*
X6103Y9304D1*
X6131Y9293D1*
X6157Y9279D1*
X6181Y9261D1*
X6203Y9241D1*
X6222Y9217D1*
X6237Y9192D1*
X6250Y9165D1*
X6258Y9136D1*
X6263Y9107D1*
X6264Y9083D1*
X6262Y9053D1*
X6257Y9024D1*
X6247Y8996D1*
X6234Y8969D1*
X6218Y8944D1*
X6198Y8921D1*
X6176Y8901D1*
X6152Y8884D1*
X6125Y8870D1*
X6097Y8860D1*
X6068Y8854D1*
X6038Y8851D1*
X6008Y8852D1*
X5979Y8857D1*
X5950Y8866D1*
X5923Y8878D1*
X5885Y8904D1*
X5911Y8865D1*
X5923Y8838D1*
X5932Y8809D1*
X5937Y8780D1*
X5938Y8757D1*
X5936Y8727D1*
X5930Y8697D1*
X5921Y8669D1*
X5900Y8630D1*
X5921Y8632D1*
X5982D1*
X5997Y8664D1*
X6035Y8705D1*
X6911Y9581D1*
X6904Y9629D1*
Y9659D1*
X6909Y9689D1*
X6917Y9718D1*
X6928Y9745D1*
X6939Y9764D1*
X6695D1*
X6688D1*
X6376Y9453D1*
X6354Y9434D1*
X6328Y9419D1*
X6299Y9409D1*
X6275Y9405D1*
X6109Y9404D1*
X5347D1*
X5166Y9222D1*
X5143Y9203D1*
X5117Y9188D1*
X5089Y9178D1*
X5061Y9174D1*
X5009Y9141D1*
X4982Y9128D1*
X4954Y9118D1*
X4925Y9111D1*
X4895Y9108D1*
X4865Y9110D1*
X4836Y9115D1*
X4807Y9123D1*
X4780Y9136D1*
X4755Y9151D1*
X4732Y9170D1*
X4711Y9192D1*
X4693Y9216D1*
X4679Y9242D1*
X4668Y9270D1*
X4661Y9299D1*
X4657Y9329D1*
X4658Y9359D1*
X4662Y9388D1*
X4670Y9417D1*
X4682Y9445D1*
X4697Y9471D1*
X4715Y9494D1*
X4736Y9515D1*
X4760Y9534D1*
X4780Y9545D1*
X4763Y9575D1*
X4752Y9603D1*
X4744Y9632D1*
X4741Y9661D1*
Y9691D1*
X4747Y9727D1*
X4661Y9813D1*
X4429Y10045D1*
Y9866D1*
X3972D1*
X3973Y9720D1*
X7366Y9611D2*
X7361Y9582D1*
X7351Y9554D1*
X7338Y9527D1*
X7322Y9502D1*
X7302Y9479D1*
X7280Y9459D1*
X7255Y9442D1*
X7229Y9428D1*
X7201Y9418D1*
X7172Y9411D1*
X7142Y9409D1*
X7113Y9410D1*
X6975Y9271D1*
X6907Y9203D1*
X6948Y9188D1*
X6974Y9173D1*
X6998Y9155D1*
X7020Y9135D1*
X7039Y9112D1*
X7055Y9086D1*
X7067Y9059D1*
X7076Y9030D1*
X7080Y9001D1*
X7082Y8977D1*
X7080Y8948D1*
X7074Y8918D1*
X7065Y8890D1*
X7051Y8863D1*
X7035Y8838D1*
X7016Y8815D1*
X6993Y8795D1*
X6960Y8773D1*
X7147Y8774D1*
X8314Y9942D1*
Y10371D1*
X8045Y10639D1*
X7522D1*
X7542Y10584D1*
X7546Y10555D1*
X7548Y10532D1*
X7546Y10502D1*
X7540Y10472D1*
X7530Y10444D1*
X7517Y10417D1*
X7501Y10392D1*
X7482Y10369D1*
X7459Y10349D1*
X7435Y10332D1*
X7408Y10319D1*
X7380Y10308D1*
X7351Y10302D1*
X7321Y10299D1*
X7291Y10301D1*
X7245Y10311D1*
X7155Y10219D1*
X7034Y10098D1*
X7277Y10099D1*
X7613D1*
X7636Y10112D1*
X7664Y10124D1*
X7692Y10132D1*
X7722Y10136D1*
X7752D1*
X7782Y10133D1*
X7811Y10125D1*
X7838Y10114D1*
X7865Y10100D1*
X7889Y10082D1*
X7910Y10062D1*
X7929Y10038D1*
X7945Y10013D1*
X7957Y9986D1*
X7966Y9957D1*
X7971Y9928D1*
X7972Y9904D1*
X7970Y9874D1*
X7964Y9845D1*
X7955Y9817D1*
X7942Y9790D1*
X7925Y9765D1*
X7906Y9742D1*
X7884Y9722D1*
X7859Y9705D1*
X7833Y9691D1*
X7804Y9681D1*
X7775Y9675D1*
X7745Y9672D1*
X7716Y9673D1*
X7686Y9678D1*
X7657Y9687D1*
X7630Y9699D1*
X7605Y9715D1*
X7582Y9734D1*
X7555Y9764D1*
X7333D1*
X7353Y9723D1*
X7362Y9694D1*
X7367Y9664D1*
X7368Y9641D1*
X7366Y9611D1*
X5458Y6752D2*
X5452Y6723D1*
X5442Y6694D1*
X5429Y6667D1*
X5413Y6642D1*
X5393Y6620D1*
X5371Y6599D1*
X5347Y6582D1*
X5320Y6569D1*
X5292Y6559D1*
X5263Y6552D1*
X5233Y6549D1*
X5203Y6551D1*
X5174Y6556D1*
X5145Y6564D1*
X5118Y6577D1*
X5092Y6592D1*
X5069Y6611D1*
X5049Y6633D1*
X5031Y6657D1*
X5017Y6683D1*
X5006Y6711D1*
X4999Y6740D1*
X4995Y6770D1*
X4996Y6800D1*
X5000Y6829D1*
X5008Y6858D1*
X5019Y6886D1*
X5035Y6912D1*
X5053Y6935D1*
X5074Y6956D1*
X5098Y6975D1*
X5124Y6990D1*
X5151Y7001D1*
X5180Y7009D1*
X5210Y7013D1*
X5255Y7012D1*
X5365Y7121D1*
X5388Y7140D1*
X5415Y7153D1*
X5438Y7160D1*
X5496Y7163D1*
X5542D1*
X5573Y7195D1*
X5596Y7213D1*
X5622Y7228D1*
X5650Y7240D1*
X5679Y7248D1*
X5708Y7252D1*
X5738D1*
X5768Y7249D1*
X5797Y7242D1*
X5825Y7231D1*
X5851Y7216D1*
X5875Y7198D1*
X5896Y7178D1*
X5915Y7155D1*
X5931Y7129D1*
X5943Y7102D1*
X5952Y7073D1*
X5957Y7044D1*
X5958Y7020D1*
X5956Y6991D1*
X5950Y6961D1*
X5941Y6933D1*
X5928Y6906D1*
X5911Y6881D1*
X5892Y6858D1*
X5870Y6838D1*
X5845Y6821D1*
X5819Y6807D1*
X5791Y6797D1*
X5761Y6791D1*
X5732Y6788D1*
X5702Y6789D1*
X5672Y6794D1*
X5644Y6803D1*
X5616Y6815D1*
X5591Y6831D1*
X5568Y6850D1*
X5542Y6878D1*
X5524Y6877D1*
X5457Y6811D1*
X5459Y6782D1*
X5458Y6752D1*
X6258Y7920D2*
X6253Y7890D1*
X6243Y7862D1*
X6230Y7835D1*
X6214Y7810D1*
X6194Y7787D1*
X6172Y7767D1*
X6147Y7750D1*
X6121Y7737D1*
X6090Y7726D1*
X6129Y7688D1*
X6534D1*
Y8443D1*
X6537Y8473D1*
X6545Y8496D1*
X6547Y8510D1*
X6508Y8471D1*
X6509Y8326D1*
X6505Y8297D1*
X6494Y8269D1*
X6473Y8240D1*
X6250Y8017D1*
X6259Y7973D1*
X6260Y7950D1*
X6258Y7920D1*
X9370Y11203D2*
X9504D1*
X10370D2*
X10943D1*
X9370Y11144D2*
X9504D1*
X10370D2*
X10943D1*
X9370Y11086D2*
X9504D1*
X10370D2*
X10943D1*
X9370Y11027D2*
X9504D1*
X10370D2*
X10942D1*
X9370Y10968D2*
X9504D1*
X10370D2*
X10942D1*
X9370Y10910D2*
X9504D1*
X10370D2*
X10942D1*
X9370Y10851D2*
X9504D1*
X10370D2*
X10942D1*
X9367Y10792D2*
X10942D1*
X9367Y10733D2*
X10942D1*
X9367Y10675D2*
X10439D1*
X9367Y10616D2*
X10439D1*
X9367Y10557D2*
X10439D1*
X9367Y10499D2*
X10439D1*
X9367Y10440D2*
X10439D1*
X9367Y10381D2*
X10439D1*
X9366Y10323D2*
X10439D1*
X9420Y10264D2*
X10439D1*
X9474Y10205D2*
X10439D1*
X9528Y10147D2*
X10439D1*
X9582Y10088D2*
X10439D1*
X9636Y10029D2*
X10439D1*
X9706Y9971D2*
X10439D1*
X9760Y9912D2*
X10439D1*
X9798Y9853D2*
X10940D1*
X9826Y9794D2*
X10940D1*
X9790Y9736D2*
X10940D1*
X9767Y9677D2*
X10439D1*
X9722Y9618D2*
X10439D1*
X9349Y9560D2*
X9508D1*
X9606D2*
X10439D1*
X9290Y9501D2*
X10439D1*
X9232Y9442D2*
X10439D1*
X9173Y9384D2*
X10439D1*
X9115Y9325D2*
X10439D1*
X9056Y9266D2*
X10439D1*
X8997Y9208D2*
X10439D1*
X8939Y9149D2*
X10439D1*
X8879Y9090D2*
X10439D1*
X8821Y9032D2*
X10439D1*
X8762Y8973D2*
X10439D1*
X8703Y8914D2*
X10439D1*
X8645Y8855D2*
X10938D1*
X8586Y8797D2*
X10938D1*
X8528Y8738D2*
X10938D1*
X8525Y8679D2*
X10439D1*
X8525Y8621D2*
X10439D1*
X8525Y8562D2*
X10439D1*
X8525Y8503D2*
X10439D1*
X8548Y8445D2*
X10439D1*
X8575Y8386D2*
X10439D1*
X8590Y8327D2*
X10439D1*
X8605Y8269D2*
X10439D1*
X8620Y8210D2*
X10439D1*
X8624Y8151D2*
X10439D1*
X8626Y8093D2*
X10439D1*
X9186Y8034D2*
X10439D1*
X9233Y7975D2*
X10439D1*
X9280Y7916D2*
X10439D1*
X9327Y7858D2*
X10937D1*
X9374Y7799D2*
X10937D1*
X9419Y7740D2*
X10937D1*
X9466Y7682D2*
X10439D1*
X10056Y7623D2*
X10439D1*
X10451Y8720D2*
X10944D1*
X10943Y8866D1*
X10445D1*
Y9720D1*
X10946D1*
Y9867D1*
X10901Y9866D1*
X10445D1*
Y10720D1*
X10948D1*
X10949Y11260D1*
X10363D1*
X10364Y11126D1*
Y10801D1*
X9510D1*
X9509Y11261D1*
X9364Y11262D1*
Y10801D1*
X9361D1*
Y10322D1*
X9660Y9996D1*
X9685Y9982D1*
X9709Y9964D1*
X9730Y9943D1*
X9749Y9920D1*
X9764Y9894D1*
X9773Y9874D1*
X9815Y9828D1*
X9822Y9799D1*
X9816Y9788D1*
X9786Y9753D1*
X9782Y9729D1*
X9772Y9700D1*
X9759Y9673D1*
X9743Y9648D1*
X9723Y9625D1*
X9701Y9605D1*
X9676Y9588D1*
X9650Y9575D1*
X9621Y9565D1*
X9592Y9558D1*
X9562Y9556D1*
X9532Y9557D1*
X9503Y9562D1*
X9474Y9571D1*
X9447Y9583D1*
X9429Y9595D1*
X9378D1*
X9105Y9322D1*
X8519Y8735D1*
Y8464D1*
X8551Y8436D1*
X8559Y8422D1*
X8614Y8205D1*
X8624Y8052D1*
X9143Y8062D1*
X9169Y8047D1*
X9261Y7933D1*
X9483Y7653D1*
X10444Y7602D1*
X10445Y7720D1*
X10942D1*
Y7866D1*
X10445D1*
Y8720D1*
X10451D1*
X10445D2*
X10937Y8293D1*
X10445Y7866D1*
Y9720D2*
X10937Y9293D1*
X10445Y8866D1*
Y10720D2*
X10937Y10293D1*
X10445Y9866D1*
X9937Y11293D2*
X10364Y10801D1*
X9937Y11293D2*
X9510Y10801D1*
D23*
X10944Y4293D3*
X3937Y9293D3*
X10937Y8293D3*
Y9293D3*
Y10293D3*
D24*
X9937Y11293D3*
D23*
X3937Y4293D3*
Y5293D3*
Y6293D3*
Y7293D3*
Y10293D3*
X10937Y5293D3*
Y6293D3*
Y7293D3*
X3937Y8293D3*
D40*
X6421Y7186D3*
X6243Y7291D3*
X6066Y7186D3*
X7590Y7679D3*
X7713Y7840D3*
X7590Y8001D3*
X7713Y8164D3*
G36*
X5602Y11693D2*
X6272D1*
Y10893D1*
X5602D1*
Y11693D1*
G37*
G36*
X4602D2*
X5272D1*
Y10893D1*
X4602D1*
Y11693D1*
G37*
D24*
X6937Y11293D3*
X7937D3*
X8937D3*
M02*
