G04 DipTrace 2.4.0.2*
%INSocialLight.gbo*%
%MOIN*%
%ADD62C,0.0044*%
%FSLAX44Y44*%
G04*
G70*
G90*
G75*
G01*
%LNBotSilk*%
%LPD*%
X8665Y10313D2*
D62*
X8914D1*
Y9911D1*
Y10121D2*
X8761D1*
X8559Y10179D2*
X8444Y9911D1*
X8482Y9835D1*
X8521Y9796D1*
X8559Y9777D1*
X8578D1*
X8329Y10179D2*
X8444Y9911D1*
X8242Y10313D2*
Y9911D1*
Y10121D2*
X8203Y10160D1*
X8165Y10179D1*
X8108D1*
X8070Y10160D1*
X8031Y10121D1*
X8012Y10064D1*
Y10026D1*
X8031Y9968D1*
X8070Y9930D1*
X8108Y9911D1*
X8165D1*
X8203Y9930D1*
X8242Y9968D1*
X7925Y10064D2*
X7695D1*
Y10102D1*
X7714Y10141D1*
X7733Y10160D1*
X7772Y10179D1*
X7829D1*
X7867Y10160D1*
X7906Y10121D1*
X7925Y10064D1*
Y10026D1*
X7906Y9968D1*
X7867Y9930D1*
X7829Y9911D1*
X7772D1*
X7733Y9930D1*
X7695Y9968D1*
X7608Y10179D2*
Y9911D1*
Y10064D2*
X7588Y10121D1*
X7550Y10160D1*
X7512Y10179D1*
X7454D1*
X7014Y10313D2*
Y9911D1*
X6784D1*
X6467Y10179D2*
Y9911D1*
Y10121D2*
X6506Y10160D1*
X6544Y10179D1*
X6601D1*
X6639Y10160D1*
X6678Y10121D1*
X6697Y10064D1*
Y10026D1*
X6678Y9968D1*
X6639Y9930D1*
X6601Y9911D1*
X6544D1*
X6506Y9930D1*
X6467Y9968D1*
X6380Y10313D2*
Y9911D1*
Y10121D2*
X6342Y10160D1*
X6304Y10179D1*
X6246D1*
X6208Y10160D1*
X6170Y10121D1*
X6151Y10064D1*
Y10026D1*
X6170Y9968D1*
X6208Y9930D1*
X6246Y9911D1*
X6304D1*
X6342Y9930D1*
X6380Y9968D1*
X5853Y10121D2*
X5872Y10160D1*
X5929Y10179D1*
X5987D1*
X6044Y10160D1*
X6063Y10121D1*
X6044Y10083D1*
X6006Y10064D1*
X5910Y10045D1*
X5872Y10026D1*
X5853Y9988D1*
Y9968D1*
X5872Y9930D1*
X5929Y9911D1*
X5987D1*
X6044Y9930D1*
X6063Y9968D1*
X7028Y9557D2*
Y9576D1*
X7009Y9615D1*
X6990Y9634D1*
X6952Y9653D1*
X6875D1*
X6837Y9634D1*
X6818Y9615D1*
X6799Y9576D1*
Y9538D1*
X6818Y9500D1*
X6856Y9443D1*
X7047Y9251D1*
X6780D1*
X6577Y9653D2*
X6635Y9634D1*
X6673Y9576D1*
X6692Y9481D1*
Y9423D1*
X6673Y9328D1*
X6635Y9270D1*
X6577Y9251D1*
X6539D1*
X6482Y9270D1*
X6444Y9328D1*
X6424Y9423D1*
Y9481D1*
X6444Y9576D1*
X6482Y9634D1*
X6539Y9653D1*
X6577D1*
X6444Y9576D2*
X6673Y9328D1*
X6337Y9576D2*
X6298Y9596D1*
X6241Y9653D1*
Y9251D1*
X5962D2*
Y9653D1*
X6153Y9385D1*
X5866D1*
X8636Y10857D2*
X8674Y10896D1*
X8732Y10915D1*
X8808D1*
X8866Y10896D1*
X8904Y10857D1*
Y10819D1*
X8885Y10781D1*
X8866Y10762D1*
X8828Y10743D1*
X8713Y10704D1*
X8674Y10685D1*
X8655Y10666D1*
X8636Y10628D1*
Y10570D1*
X8674Y10532D1*
X8732Y10513D1*
X8808D1*
X8866Y10532D1*
X8904Y10570D1*
X8453Y10781D2*
X8491Y10762D1*
X8530Y10723D1*
X8549Y10666D1*
Y10628D1*
X8530Y10570D1*
X8491Y10532D1*
X8453Y10513D1*
X8396D1*
X8357Y10532D1*
X8319Y10570D1*
X8300Y10628D1*
Y10666D1*
X8319Y10723D1*
X8357Y10762D1*
X8396Y10781D1*
X8453D1*
X7982Y10723D2*
X8021Y10762D1*
X8059Y10781D1*
X8116D1*
X8155Y10762D1*
X8193Y10723D1*
X8212Y10666D1*
Y10628D1*
X8193Y10570D1*
X8155Y10532D1*
X8116Y10513D1*
X8059D1*
X8021Y10532D1*
X7982Y10570D1*
X7895Y10915D2*
X7876Y10896D1*
X7857Y10915D1*
X7876Y10934D1*
X7895Y10915D1*
X7876Y10781D2*
Y10513D1*
X7540Y10781D2*
Y10513D1*
Y10723D2*
X7578Y10762D1*
X7616Y10781D1*
X7673D1*
X7712Y10762D1*
X7750Y10723D1*
X7769Y10666D1*
Y10628D1*
X7750Y10570D1*
X7712Y10532D1*
X7673Y10513D1*
X7616D1*
X7578Y10532D1*
X7540Y10570D1*
X7452Y10915D2*
Y10513D1*
X7012Y10915D2*
Y10513D1*
X6782D1*
X6695Y10915D2*
X6676Y10896D1*
X6656Y10915D1*
X6676Y10934D1*
X6695Y10915D1*
X6676Y10781D2*
Y10513D1*
X6339Y10762D2*
Y10455D1*
X6358Y10398D1*
X6377Y10379D1*
X6416Y10360D1*
X6473D1*
X6511Y10379D1*
X6339Y10704D2*
X6377Y10742D1*
X6416Y10762D1*
X6473D1*
X6511Y10742D1*
X6550Y10704D1*
X6569Y10647D1*
Y10608D1*
X6550Y10551D1*
X6511Y10513D1*
X6473Y10494D1*
X6416D1*
X6377Y10513D1*
X6339Y10551D1*
X6252Y10915D2*
Y10513D1*
Y10704D2*
X6194Y10762D1*
X6156Y10781D1*
X6098D1*
X6060Y10762D1*
X6041Y10704D1*
Y10513D1*
X5896Y10915D2*
Y10589D1*
X5877Y10532D1*
X5839Y10513D1*
X5801D1*
X5954Y10781D2*
X5820D1*
X8890Y9446D2*
X8718D1*
X8660Y9465D1*
X8641Y9484D1*
X8622Y9522D1*
Y9561D1*
X8641Y9599D1*
X8660Y9618D1*
X8718Y9637D1*
X8890D1*
Y9235D1*
X8756Y9446D2*
X8622Y9235D1*
X8419Y9637D2*
X8477Y9618D1*
X8515Y9560D1*
X8534Y9465D1*
Y9407D1*
X8515Y9312D1*
X8477Y9254D1*
X8419Y9235D1*
X8381D1*
X8324Y9254D1*
X8286Y9312D1*
X8266Y9407D1*
Y9465D1*
X8286Y9560D1*
X8324Y9618D1*
X8381Y9637D1*
X8419D1*
X8286Y9560D2*
X8515Y9312D1*
X8160Y9274D2*
X8179Y9254D1*
X8160Y9235D1*
X8140Y9254D1*
X8160Y9274D1*
X7862Y9235D2*
Y9637D1*
X8053Y9369D1*
X7766D1*
M02*
