G04 DipTrace 2.4.0.2*
%INPCA9685.gtp*%
%MOMM*%
%ADD19R,1.1X1.0*%
%ADD20R,0.9X0.7*%
%ADD25R,0.7X0.9*%
%ADD28R,0.525X0.5*%
%ADD29R,0.25X0.5*%
%ADD31R,0.4X0.5*%
%ADD35O,1.39X1.413*%
%ADD36O,1.385X1.479*%
%ADD37O,1.2X0.3*%
%ADD38O,0.3X1.2*%
%FSLAX53Y53*%
G04*
G71*
G90*
G75*
G01*
%LNTopPaste*%
%LPD*%
D19*
X19659Y26730D3*
X21359D3*
D20*
X20117Y25604D3*
X21417D3*
D25*
X21536Y24196D3*
Y22896D3*
D28*
X15265Y16203D3*
D29*
X15905D3*
X16405D3*
D28*
X17040D3*
Y17103D3*
D29*
X16405D3*
X15905D3*
D28*
X15265D3*
D31*
X20164Y16184D3*
X20864D3*
Y17184D3*
X20164D3*
D35*
X17330Y21535D3*
D36*
X18441Y22632D3*
Y20412D3*
X16176Y20442D3*
X16191Y22662D3*
D37*
X14319Y23483D3*
Y22833D3*
Y22183D3*
Y21533D3*
Y20883D3*
Y20233D3*
Y19583D3*
D38*
X15369Y18533D3*
X16019D3*
X16669D3*
X17319D3*
X17969D3*
X18619D3*
X19269D3*
D37*
X20319Y19583D3*
Y20233D3*
Y20883D3*
Y21533D3*
Y22183D3*
Y22833D3*
Y23483D3*
D38*
X19269Y24533D3*
X18619D3*
X17969D3*
X17319D3*
X16669D3*
X16019D3*
X15369D3*
D31*
X18616Y26969D3*
X17916D3*
Y25969D3*
X18616D3*
M02*
