M48
METRIC,0000.00
T01C0.33
T02C1.1
%
T01
X+001898Y+001987
X+001897Y+002092
X+001792Y+002092
X+001793Y+001988
X+001672Y+001988
X+001567Y+001988
X+001567Y+002095
X+001669Y+002093
X+001670Y+002213
X+001568Y+002213
X+001567Y+002318
X+001672Y+002318
X+001790Y+002318
X+001790Y+002213
X+001897Y+002213
X+001898Y+002318
X+002068Y+002380
X+002074Y+002475
X+001892Y+002561
X+001790Y+002566
X+001538Y+002569
X+001430Y+002505
X+001424Y+002380
X+001394Y+002634
X+001328Y+002705
X+001665Y+001785
X+001815Y+001744
X+001852Y+001600
X+001750Y+001548
X+001577Y+001550
X+001400Y+001552
X+001421Y+001706
X+001989Y+001607
X+002121Y+001614
X+002131Y+001788
X+001997Y+001808
X+002282Y+001223
T02
X+002143Y+002905
X+002143Y+003032
X+001889Y+003032
X+001889Y+002905
X+001635Y+002905
X+001635Y+003032
X+001381Y+003032
X+001381Y+002905
X+001127Y+002651
X+001000Y+002651
X+001000Y+002397
X+001127Y+002397
X+001127Y+002143
X+001000Y+002143
X+001000Y+001889
X+001127Y+001889
X+001127Y+001635
X+001000Y+001635
X+001000Y+001381
X+001127Y+001381
X+001381Y+001127
X+001381Y+001000
X+001635Y+001000
X+001635Y+001127
X+001889Y+001127
X+001889Y+001000
X+002143Y+001000
X+002143Y+001127
X+002397Y+001381
X+002524Y+001381
X+002524Y+001635
X+002397Y+001635
X+002397Y+001889
X+002524Y+001889
X+002524Y+002143
X+002397Y+002143
X+002397Y+002397
X+002524Y+002397
X+002524Y+002651
X+002397Y+002651
T00
M30
