G04 DipTrace 2.4.0.2*
%INTAS2521.g3l*%
%MOMM*%
%ADD17C,0.457*%
%ADD18C,0.152*%
%ADD23C,1.6*%
%ADD25C,1.7*%
%ADD39C,0.711*%
%FSLAX53Y53*%
G04*
G71*
G90*
G75*
G01*
%LNInner2_Plane*%
%LPD*%
D17*
X16900Y21636D3*
X17685Y21684D3*
X18492Y16135D3*
X14601Y20206D3*
X23054Y19130D3*
X21790Y18077D3*
X23054Y20503D3*
X23061Y16223D3*
X14588Y19003D3*
X23067Y17612D3*
X15522Y16525D3*
X19981Y22308D3*
X16015Y21562D3*
X16086Y20518D3*
X14901Y14121D3*
X15536Y17612D3*
X12295Y22951D3*
X12273Y12284D3*
X25551Y12306D3*
X25617Y22951D3*
X14794Y24363D2*
D18*
X15383D1*
X17333D2*
X17922D1*
X19874D2*
X20462D1*
X22414D2*
X23003D1*
X14840Y24214D2*
X15336D1*
X17381D2*
X17876D1*
X19921D2*
X20415D1*
X22460D2*
X22956D1*
X14864Y24065D2*
X15312D1*
X17404D2*
X17852D1*
X19945D2*
X20391D1*
X22484D2*
X22932D1*
X12689Y23916D2*
X12768D1*
X14866D2*
X15309D1*
X17407D2*
X17850D1*
X19945D2*
X20391D1*
X22486D2*
X22929D1*
X25027D2*
X25103D1*
X12542Y23766D2*
X12790D1*
X14847D2*
X15331D1*
X17385D2*
X17869D1*
X19926D2*
X20410D1*
X22467D2*
X22951D1*
X25005D2*
X25253D1*
X12392Y23617D2*
X12833D1*
X14802D2*
X15374D1*
X17342D2*
X17914D1*
X19883D2*
X20453D1*
X22422D2*
X22994D1*
X24962D2*
X25403D1*
X12244Y23468D2*
X12902D1*
X14733D2*
X15443D1*
X17273D2*
X17983D1*
X19814D2*
X20522D1*
X22353D2*
X23063D1*
X24893D2*
X25551D1*
X12589Y23319D2*
X13004D1*
X14630D2*
X15545D1*
X17171D2*
X18086D1*
X19712D2*
X20624D1*
X22250D2*
X23165D1*
X24791D2*
X25322D1*
X12718Y23170D2*
X13157D1*
X14480D2*
X15697D1*
X17019D2*
X18236D1*
X19559D2*
X20777D1*
X22100D2*
X23317D1*
X24639D2*
X25194D1*
X12768Y23021D2*
X13409D1*
X14225D2*
X15950D1*
X16766D2*
X18491D1*
X19307D2*
X21029D1*
X21845D2*
X23570D1*
X24386D2*
X25144D1*
X11646Y22872D2*
X11823D1*
X12766D2*
X25146D1*
X11499Y22723D2*
X11878D1*
X12713D2*
X19760D1*
X20202D2*
X25199D1*
X26036D2*
X26296D1*
X11349Y22574D2*
X12011D1*
X12580D2*
X19586D1*
X20376D2*
X25332D1*
X25901D2*
X26446D1*
X11604Y22425D2*
X19517D1*
X20445D2*
X26194D1*
X11899Y22276D2*
X19505D1*
X20457D2*
X25896D1*
X12066Y22127D2*
X17533D1*
X17835D2*
X19541D1*
X20421D2*
X25732D1*
X12175Y21978D2*
X15797D1*
X16235D2*
X16571D1*
X17228D2*
X17312D1*
X18059D2*
X19641D1*
X20321D2*
X25620D1*
X12251Y21829D2*
X15621D1*
X18140D2*
X25544D1*
X12299Y21680D2*
X15552D1*
X18164D2*
X25496D1*
X12323Y21530D2*
X15538D1*
X18138D2*
X25472D1*
X12325Y21381D2*
X15574D1*
X18050D2*
X25470D1*
X12306Y21232D2*
X15674D1*
X16357D2*
X16657D1*
X17142D2*
X17569D1*
X17802D2*
X25489D1*
X12266Y21083D2*
X25532D1*
X12197Y20934D2*
X15867D1*
X16304D2*
X22870D1*
X23238D2*
X25599D1*
X12097Y20785D2*
X15693D1*
X16480D2*
X22672D1*
X23436D2*
X25701D1*
X11947Y20636D2*
X14414D1*
X14787D2*
X15624D1*
X16549D2*
X22596D1*
X23512D2*
X25849D1*
X10759Y20487D2*
X10856D1*
X11701D2*
X14219D1*
X14985D2*
X15609D1*
X16564D2*
X22577D1*
X23531D2*
X26096D1*
X26941D2*
X27037D1*
X10759Y20338D2*
X14142D1*
X15061D2*
X15645D1*
X16528D2*
X22605D1*
X23503D2*
X27037D1*
X10759Y20189D2*
X14123D1*
X15080D2*
X15745D1*
X16426D2*
X17931D1*
X18724D2*
X18831D1*
X19624D2*
X19731D1*
X20524D2*
X22698D1*
X23410D2*
X27037D1*
X10759Y20040D2*
X14154D1*
X15049D2*
X17805D1*
X20650D2*
X27037D1*
X10759Y19891D2*
X10973D1*
X11585D2*
X14247D1*
X14956D2*
X17743D1*
X20712D2*
X26213D1*
X26825D2*
X27037D1*
X11892Y19742D2*
X17722D1*
X20733D2*
X25903D1*
X12061Y19593D2*
X17741D1*
X20714D2*
X25737D1*
X12173Y19444D2*
X14431D1*
X14747D2*
X17802D1*
X20652D2*
X22698D1*
X23410D2*
X25625D1*
X12249Y19294D2*
X14214D1*
X14964D2*
X17924D1*
X20531D2*
X22605D1*
X23503D2*
X25546D1*
X12297Y19145D2*
X14133D1*
X15045D2*
X17807D1*
X20648D2*
X22577D1*
X23531D2*
X25499D1*
X12323Y18996D2*
X14109D1*
X15066D2*
X17743D1*
X20712D2*
X22596D1*
X23512D2*
X25472D1*
X12328Y18847D2*
X14138D1*
X15040D2*
X17722D1*
X20733D2*
X22672D1*
X23436D2*
X25470D1*
X12308Y18698D2*
X14226D1*
X14952D2*
X17738D1*
X20717D2*
X22872D1*
X23238D2*
X25487D1*
X12268Y18549D2*
X14483D1*
X14694D2*
X17798D1*
X20657D2*
X25530D1*
X12199Y18400D2*
X17919D1*
X20536D2*
X21443D1*
X22138D2*
X25596D1*
X12101Y18251D2*
X17812D1*
X20643D2*
X21346D1*
X22234D2*
X25696D1*
X11954Y18102D2*
X17745D1*
X20710D2*
X21312D1*
X22267D2*
X25842D1*
X10759Y17953D2*
X10842D1*
X11713D2*
X17722D1*
X20733D2*
X21329D1*
X22253D2*
X26082D1*
X26953D2*
X27037D1*
X10759Y17804D2*
X17738D1*
X20717D2*
X21401D1*
X22179D2*
X27037D1*
X10759Y17655D2*
X17795D1*
X20660D2*
X21584D1*
X21995D2*
X27037D1*
X10759Y17506D2*
X17912D1*
X20543D2*
X27037D1*
X10759Y17357D2*
X10992D1*
X11563D2*
X18219D1*
X18435D2*
X19119D1*
X19336D2*
X20019D1*
X20236D2*
X26232D1*
X26803D2*
X27037D1*
X11882Y17208D2*
X25913D1*
X12054Y17058D2*
X25742D1*
X12168Y16909D2*
X15250D1*
X15795D2*
X25627D1*
X12247Y16760D2*
X15109D1*
X15935D2*
X25549D1*
X12297Y16611D2*
X15052D1*
X15992D2*
X22794D1*
X23329D2*
X25501D1*
X12323Y16462D2*
X15047D1*
X15995D2*
X18150D1*
X18835D2*
X22651D1*
X23472D2*
X25472D1*
X12328Y16313D2*
X15095D1*
X15949D2*
X18050D1*
X18935D2*
X22591D1*
X23531D2*
X25470D1*
X12308Y16164D2*
X15216D1*
X15828D2*
X18014D1*
X18969D2*
X22586D1*
X23536D2*
X25487D1*
X12268Y16015D2*
X18029D1*
X18955D2*
X22632D1*
X23491D2*
X25527D1*
X12204Y15866D2*
X18100D1*
X18885D2*
X22751D1*
X23372D2*
X25594D1*
X12106Y15717D2*
X18279D1*
X18707D2*
X25692D1*
X11961Y15568D2*
X25834D1*
X11727Y15419D2*
X26070D1*
X10759Y15270D2*
X27037D1*
X10759Y15121D2*
X27037D1*
X10759Y14972D2*
X27037D1*
X10759Y14822D2*
X11016D1*
X11539D2*
X26256D1*
X26779D2*
X27037D1*
X11875Y14673D2*
X25920D1*
X12049Y14524D2*
X14659D1*
X15145D2*
X25746D1*
X12166Y14375D2*
X14500D1*
X15304D2*
X25632D1*
X12244Y14226D2*
X14435D1*
X15368D2*
X25553D1*
X12294Y14077D2*
X14426D1*
X15378D2*
X25501D1*
X12323Y13928D2*
X14466D1*
X15337D2*
X25475D1*
X12328Y13779D2*
X14574D1*
X15228D2*
X25470D1*
X12311Y13630D2*
X25487D1*
X12270Y13481D2*
X25525D1*
X12206Y13332D2*
X25589D1*
X12108Y13183D2*
X25687D1*
X11968Y13034D2*
X25827D1*
X11739Y12885D2*
X26056D1*
X11296Y12736D2*
X12154D1*
X12392D2*
X25361D1*
X25739D2*
X26501D1*
X11444Y12586D2*
X11907D1*
X12639D2*
X25168D1*
X25934D2*
X26351D1*
X11594Y12437D2*
X11821D1*
X12725D2*
X25091D1*
X26010D2*
X26201D1*
X12751Y12288D2*
X13581D1*
X14054D2*
X16121D1*
X16595D2*
X18662D1*
X19136D2*
X21201D1*
X21674D2*
X23741D1*
X24215D2*
X25072D1*
X12728Y12139D2*
X13230D1*
X14406D2*
X15769D1*
X16947D2*
X18310D1*
X19486D2*
X20850D1*
X22026D2*
X23389D1*
X24567D2*
X25103D1*
X12647Y11990D2*
X13052D1*
X14583D2*
X15593D1*
X17123D2*
X18133D1*
X19664D2*
X20672D1*
X22203D2*
X23213D1*
X24743D2*
X25196D1*
X12423Y11841D2*
X12935D1*
X14702D2*
X15476D1*
X17240D2*
X18014D1*
X19781D2*
X20555D1*
X22322D2*
X23096D1*
X24860D2*
X25606D1*
X12339Y11692D2*
X12854D1*
X14780D2*
X15395D1*
X17321D2*
X17936D1*
X19862D2*
X20474D1*
X22400D2*
X23015D1*
X24941D2*
X25456D1*
X12487Y11543D2*
X12802D1*
X14833D2*
X15343D1*
X17373D2*
X17883D1*
X19914D2*
X20422D1*
X22453D2*
X22963D1*
X24993D2*
X25308D1*
X12637Y11394D2*
X12776D1*
X14861D2*
X15314D1*
X17402D2*
X17855D1*
X19940D2*
X20396D1*
X22481D2*
X22934D1*
X25022D2*
X25158D1*
X14866Y11245D2*
X15309D1*
X17407D2*
X17850D1*
X19948D2*
X20389D1*
X22486D2*
X22929D1*
X14852Y11096D2*
X15324D1*
X17392D2*
X17864D1*
X19931D2*
X20405D1*
X22472D2*
X22944D1*
X14814Y10947D2*
X15364D1*
X17354D2*
X17902D1*
X19893D2*
X20443D1*
X22434D2*
X22984D1*
X14749Y10798D2*
X15426D1*
X17290D2*
X17967D1*
X19828D2*
X20508D1*
X22369D2*
X23046D1*
X18776Y17557D2*
X18693Y17475D1*
X18630Y17432D1*
X18562Y17398D1*
X18491Y17372D1*
X18416Y17356D1*
X18340Y17349D1*
X18264Y17352D1*
X18189Y17365D1*
X18116Y17388D1*
X18047Y17420D1*
X17983Y17460D1*
X17924Y17508D1*
X17872Y17564D1*
X17827Y17626D1*
X17791Y17693D1*
X17764Y17764D1*
X17746Y17838D1*
X17738Y17914D1*
X17739Y17990D1*
X17751Y18065D1*
X17772Y18138D1*
X17802Y18208D1*
X17841Y18273D1*
X17888Y18333D1*
X17944Y18388D1*
X17872Y18464D1*
X17827Y18526D1*
X17791Y18593D1*
X17764Y18664D1*
X17746Y18738D1*
X17738Y18814D1*
X17739Y18890D1*
X17751Y18965D1*
X17772Y19038D1*
X17802Y19108D1*
X17841Y19173D1*
X17888Y19233D1*
X17944Y19288D1*
X17872Y19364D1*
X17827Y19426D1*
X17791Y19493D1*
X17764Y19564D1*
X17746Y19638D1*
X17738Y19714D1*
X17739Y19790D1*
X17751Y19865D1*
X17772Y19938D1*
X17802Y20008D1*
X17841Y20073D1*
X17888Y20133D1*
X17942Y20187D1*
X18003Y20232D1*
X18069Y20270D1*
X18140Y20299D1*
X18213Y20318D1*
X18289Y20328D1*
X18365D1*
X18441Y20319D1*
X18514Y20299D1*
X18585Y20270D1*
X18651Y20233D1*
X18712Y20187D1*
X18777Y20121D1*
X18842Y20187D1*
X18903Y20232D1*
X18969Y20270D1*
X19040Y20299D1*
X19113Y20318D1*
X19189Y20328D1*
X19265D1*
X19341Y20319D1*
X19414Y20299D1*
X19485Y20270D1*
X19551Y20233D1*
X19612Y20187D1*
X19677Y20121D1*
X19742Y20187D1*
X19803Y20232D1*
X19869Y20270D1*
X19940Y20299D1*
X20013Y20318D1*
X20089Y20328D1*
X20165D1*
X20241Y20319D1*
X20314Y20299D1*
X20385Y20270D1*
X20451Y20233D1*
X20512Y20187D1*
X20566Y20134D1*
X20614Y20074D1*
X20653Y20009D1*
X20683Y19939D1*
X20704Y19866D1*
X20718Y19739D1*
X20713Y19663D1*
X20698Y19589D1*
X20674Y19516D1*
X20641Y19448D1*
X20599Y19384D1*
X20549Y19326D1*
X20509Y19290D1*
X20566Y19234D1*
X20614Y19174D1*
X20653Y19109D1*
X20683Y19039D1*
X20704Y18966D1*
X20718Y18839D1*
X20713Y18763D1*
X20698Y18689D1*
X20674Y18616D1*
X20641Y18548D1*
X20599Y18484D1*
X20549Y18426D1*
X20509Y18390D1*
X20566Y18334D1*
X20614Y18274D1*
X20653Y18209D1*
X20683Y18139D1*
X20704Y18066D1*
X20718Y17939D1*
X20713Y17863D1*
X20698Y17789D1*
X20674Y17716D1*
X20641Y17648D1*
X20599Y17584D1*
X20549Y17526D1*
X20493Y17475D1*
X20430Y17432D1*
X20362Y17398D1*
X20291Y17372D1*
X20216Y17356D1*
X20140Y17349D1*
X20064Y17352D1*
X19989Y17365D1*
X19916Y17388D1*
X19847Y17420D1*
X19783Y17460D1*
X19724Y17508D1*
X19677Y17559D1*
X19593Y17475D1*
X19530Y17432D1*
X19462Y17398D1*
X19391Y17372D1*
X19316Y17356D1*
X19240Y17349D1*
X19164Y17352D1*
X19089Y17365D1*
X19016Y17388D1*
X18947Y17420D1*
X18883Y17460D1*
X18824Y17508D1*
X18777Y17559D1*
X27052Y15472D2*
X26914Y15402D1*
X26769Y15354D1*
X26619Y15328D1*
X26467Y15325D1*
X26316Y15343D1*
X26169Y15384D1*
X26030Y15446D1*
X25901Y15527D1*
X25786Y15627D1*
X25687Y15742D1*
X25605Y15871D1*
X25544Y16010D1*
X25503Y16157D1*
X25485Y16308D1*
X25488Y16460D1*
X25514Y16610D1*
X25562Y16755D1*
X25631Y16891D1*
X25719Y17015D1*
X25824Y17125D1*
X25944Y17219D1*
X26076Y17294D1*
X26218Y17348D1*
X26367Y17382D1*
X26519Y17393D1*
X26671Y17381D1*
X26819Y17348D1*
X26961Y17293D1*
X27051Y17244D1*
X27050Y18010D1*
X26914Y17942D1*
X26769Y17894D1*
X26619Y17868D1*
X26467Y17865D1*
X26316Y17883D1*
X26169Y17924D1*
X26030Y17986D1*
X25901Y18067D1*
X25786Y18167D1*
X25687Y18282D1*
X25605Y18411D1*
X25544Y18550D1*
X25503Y18697D1*
X25485Y18848D1*
X25488Y19000D1*
X25514Y19150D1*
X25562Y19295D1*
X25631Y19431D1*
X25719Y19555D1*
X25824Y19665D1*
X25944Y19759D1*
X26076Y19834D1*
X26218Y19888D1*
X26367Y19922D1*
X26519Y19933D1*
X26671Y19921D1*
X26819Y19888D1*
X26961Y19833D1*
X27051Y19784D1*
X27050Y20550D1*
X26914Y20482D1*
X26769Y20434D1*
X26619Y20408D1*
X26467Y20405D1*
X26316Y20423D1*
X26169Y20464D1*
X26030Y20526D1*
X25901Y20607D1*
X25786Y20707D1*
X25687Y20822D1*
X25605Y20951D1*
X25544Y21090D1*
X25503Y21237D1*
X25485Y21388D1*
X25488Y21540D1*
X25514Y21690D1*
X25562Y21835D1*
X25631Y21971D1*
X25719Y22095D1*
X25824Y22205D1*
X25944Y22299D1*
X26076Y22374D1*
X26218Y22428D1*
X26367Y22462D1*
X26519Y22473D1*
X26564Y22471D1*
X26079Y22957D1*
X26074Y22875D1*
X26055Y22801D1*
X26025Y22731D1*
X25984Y22667D1*
X25932Y22611D1*
X25872Y22564D1*
X25806Y22527D1*
X25734Y22502D1*
X25659Y22489D1*
X25583D1*
X25508Y22500D1*
X25435Y22524D1*
X25368Y22560D1*
X25307Y22606D1*
X25255Y22661D1*
X25213Y22724D1*
X25181Y22794D1*
X25161Y22867D1*
X25154Y22943D1*
X25159Y23019D1*
X25176Y23093D1*
X25205Y23163D1*
X25246Y23228D1*
X25296Y23285D1*
X25355Y23333D1*
X25421Y23370D1*
X25493Y23397D1*
X25567Y23411D1*
X25622Y23413D1*
X25011Y24024D1*
X25010Y23902D1*
X24988Y23751D1*
X24943Y23606D1*
X24878Y23468D1*
X24794Y23341D1*
X24691Y23229D1*
X24574Y23132D1*
X24443Y23054D1*
X24302Y22995D1*
X24155Y22959D1*
X24003Y22944D1*
X23851Y22951D1*
X23702Y22981D1*
X23558Y23032D1*
X23424Y23104D1*
X23302Y23195D1*
X23194Y23303D1*
X23104Y23425D1*
X23032Y23559D1*
X22981Y23703D1*
X22951Y23852D1*
X22944Y24004D1*
X22959Y24156D1*
X22996Y24303D1*
X23054Y24444D1*
X23092Y24513D1*
X22324Y24512D1*
X22394Y24373D1*
X22442Y24228D1*
X22468Y24078D1*
X22473Y23978D1*
X22462Y23826D1*
X22428Y23678D1*
X22373Y23536D1*
X22298Y23403D1*
X22205Y23283D1*
X22094Y23178D1*
X21970Y23090D1*
X21834Y23022D1*
X21689Y22974D1*
X21539Y22948D1*
X21387Y22945D1*
X21236Y22963D1*
X21089Y23004D1*
X20950Y23066D1*
X20821Y23147D1*
X20706Y23247D1*
X20607Y23362D1*
X20525Y23491D1*
X20464Y23630D1*
X20423Y23777D1*
X20405Y23928D1*
X20408Y24080D1*
X20434Y24230D1*
X20482Y24375D1*
X20552Y24513D1*
X19786Y24512D1*
X19854Y24373D1*
X19902Y24228D1*
X19928Y24078D1*
X19933Y23978D1*
X19922Y23826D1*
X19888Y23678D1*
X19833Y23536D1*
X19758Y23403D1*
X19665Y23283D1*
X19554Y23178D1*
X19430Y23090D1*
X19294Y23022D1*
X19149Y22974D1*
X18999Y22948D1*
X18847Y22945D1*
X18696Y22963D1*
X18549Y23004D1*
X18410Y23066D1*
X18281Y23147D1*
X18166Y23247D1*
X18067Y23362D1*
X17985Y23491D1*
X17924Y23630D1*
X17883Y23777D1*
X17865Y23928D1*
X17868Y24080D1*
X17894Y24230D1*
X17942Y24375D1*
X18012Y24513D1*
X17243Y24512D1*
X17283Y24442D1*
X17341Y24301D1*
X17378Y24154D1*
X17392Y24002D1*
X17390Y23902D1*
X17368Y23751D1*
X17323Y23606D1*
X17258Y23468D1*
X17174Y23341D1*
X17071Y23229D1*
X16954Y23132D1*
X16823Y23054D1*
X16682Y22995D1*
X16535Y22959D1*
X16383Y22944D1*
X16231Y22951D1*
X16082Y22981D1*
X15938Y23032D1*
X15804Y23104D1*
X15682Y23195D1*
X15574Y23303D1*
X15484Y23425D1*
X15412Y23559D1*
X15361Y23703D1*
X15331Y23852D1*
X15324Y24004D1*
X15339Y24156D1*
X15376Y24303D1*
X15434Y24444D1*
X15472Y24513D1*
X14704Y24512D1*
X14774Y24373D1*
X14822Y24228D1*
X14848Y24078D1*
X14853Y23978D1*
X14842Y23826D1*
X14808Y23678D1*
X14753Y23536D1*
X14678Y23403D1*
X14585Y23283D1*
X14474Y23178D1*
X14350Y23090D1*
X14214Y23022D1*
X14069Y22974D1*
X13919Y22948D1*
X13767Y22945D1*
X13616Y22963D1*
X13469Y23004D1*
X13330Y23066D1*
X13201Y23147D1*
X13086Y23247D1*
X12987Y23362D1*
X12905Y23491D1*
X12844Y23630D1*
X12803Y23777D1*
X12785Y23928D1*
Y24025D1*
X12151Y23391D1*
X12246Y23411D1*
X12322Y23413D1*
X12397Y23402D1*
X12470Y23380D1*
X12538Y23345D1*
X12599Y23300D1*
X12652Y23246D1*
X12696Y23183D1*
X12729Y23115D1*
X12750Y23042D1*
X12759Y22951D1*
X12752Y22875D1*
X12734Y22801D1*
X12703Y22731D1*
X12662Y22667D1*
X12611Y22611D1*
X12551Y22564D1*
X12484Y22527D1*
X12412Y22502D1*
X12337Y22489D1*
X12261D1*
X12186Y22500D1*
X12114Y22524D1*
X12046Y22560D1*
X11986Y22606D1*
X11933Y22661D1*
X11891Y22724D1*
X11859Y22794D1*
X11840Y22867D1*
X11832Y22943D1*
X11837Y23019D1*
X11855Y23095D1*
X11232Y22471D1*
X11355Y22470D1*
X11506Y22447D1*
X11651Y22403D1*
X11789Y22338D1*
X11915Y22253D1*
X12028Y22151D1*
X12125Y22033D1*
X12203Y21902D1*
X12261Y21761D1*
X12298Y21614D1*
X12312Y21462D1*
X12310Y21362D1*
X12288Y21211D1*
X12243Y21066D1*
X12178Y20928D1*
X12094Y20801D1*
X11991Y20689D1*
X11874Y20592D1*
X11743Y20514D1*
X11602Y20455D1*
X11455Y20419D1*
X11303Y20404D1*
X11151Y20411D1*
X11002Y20441D1*
X10858Y20492D1*
X10743Y20553D1*
X10744Y19784D1*
X10836Y19834D1*
X10978Y19888D1*
X11127Y19922D1*
X11279Y19933D1*
X11431Y19921D1*
X11579Y19888D1*
X11721Y19833D1*
X11854Y19758D1*
X11974Y19664D1*
X12079Y19554D1*
X12166Y19429D1*
X12234Y19293D1*
X12282Y19148D1*
X12308Y18998D1*
X12313Y18898D1*
X12302Y18746D1*
X12268Y18598D1*
X12213Y18456D1*
X12138Y18323D1*
X12045Y18203D1*
X11934Y18098D1*
X11810Y18010D1*
X11674Y17942D1*
X11529Y17894D1*
X11379Y17868D1*
X11227Y17865D1*
X11076Y17883D1*
X10929Y17924D1*
X10790Y17986D1*
X10743Y18013D1*
X10744Y17246D1*
X10906Y17324D1*
X11052Y17368D1*
X11203Y17390D1*
X11355D1*
X11506Y17367D1*
X11651Y17323D1*
X11789Y17258D1*
X11915Y17173D1*
X12028Y17071D1*
X12125Y16953D1*
X12203Y16822D1*
X12261Y16681D1*
X12298Y16534D1*
X12312Y16382D1*
X12310Y16282D1*
X12288Y16131D1*
X12243Y15986D1*
X12178Y15848D1*
X12094Y15721D1*
X11991Y15609D1*
X11874Y15512D1*
X11743Y15434D1*
X11602Y15375D1*
X11455Y15339D1*
X11303Y15324D1*
X11151Y15331D1*
X11002Y15361D1*
X10858Y15412D1*
X10743Y15473D1*
X10744Y15005D1*
Y14703D1*
X10836Y14754D1*
X10978Y14808D1*
X11127Y14842D1*
X11279Y14853D1*
X11431Y14841D1*
X11579Y14808D1*
X11721Y14753D1*
X11854Y14678D1*
X11974Y14584D1*
X12079Y14474D1*
X12166Y14349D1*
X12234Y14213D1*
X12282Y14068D1*
X12308Y13918D1*
X12313Y13818D1*
X12302Y13666D1*
X12268Y13518D1*
X12213Y13376D1*
X12138Y13243D1*
X12045Y13123D1*
X11934Y13018D1*
X11810Y12930D1*
X11674Y12862D1*
X11529Y12814D1*
X11379Y12788D1*
X11229Y12785D1*
X11746Y12271D1*
X11817Y12201D1*
X11810Y12277D1*
X11815Y12353D1*
X11832Y12427D1*
X11862Y12497D1*
X11902Y12562D1*
X11952Y12619D1*
X12011Y12667D1*
X12077Y12704D1*
X12149Y12731D1*
X12224Y12745D1*
X12300Y12747D1*
X12375Y12736D1*
X12448Y12714D1*
X12516Y12679D1*
X12577Y12634D1*
X12630Y12580D1*
X12674Y12517D1*
X12706Y12449D1*
X12727Y12375D1*
X12736Y12284D1*
X12730Y12209D1*
X12712Y12135D1*
X12681Y12065D1*
X12640Y12001D1*
X12588Y11945D1*
X12529Y11898D1*
X12462Y11861D1*
X12390Y11836D1*
X12315Y11823D1*
X12239Y11822D1*
X12185Y11831D1*
X12785Y11232D1*
X12788Y11380D1*
X12814Y11530D1*
X12862Y11675D1*
X12931Y11811D1*
X13019Y11935D1*
X13124Y12045D1*
X13244Y12139D1*
X13376Y12214D1*
X13518Y12268D1*
X13667Y12302D1*
X13819Y12313D1*
X13971Y12301D1*
X14119Y12268D1*
X14261Y12213D1*
X14394Y12138D1*
X14514Y12044D1*
X14619Y11934D1*
X14706Y11809D1*
X14774Y11673D1*
X14822Y11528D1*
X14848Y11378D1*
X14853Y11278D1*
X14842Y11126D1*
X14808Y10978D1*
X14753Y10836D1*
X14705Y10746D1*
X15472Y10744D1*
X15412Y10859D1*
X15361Y11003D1*
X15331Y11152D1*
X15324Y11304D1*
X15339Y11456D1*
X15376Y11603D1*
X15434Y11744D1*
X15512Y11874D1*
X15609Y11992D1*
X15722Y12094D1*
X15849Y12179D1*
X15986Y12244D1*
X16132Y12288D1*
X16283Y12310D1*
X16435D1*
X16586Y12287D1*
X16731Y12243D1*
X16869Y12178D1*
X16995Y12093D1*
X17108Y11991D1*
X17205Y11873D1*
X17283Y11742D1*
X17341Y11601D1*
X17378Y11454D1*
X17392Y11302D1*
X17390Y11202D1*
X17368Y11051D1*
X17323Y10906D1*
X17258Y10768D1*
X17245Y10746D1*
X18010Y10744D1*
X17952Y10859D1*
X17901Y11003D1*
X17871Y11152D1*
X17864Y11304D1*
X17879Y11456D1*
X17916Y11603D1*
X17974Y11744D1*
X18052Y11874D1*
X18149Y11992D1*
X18262Y12094D1*
X18389Y12179D1*
X18526Y12244D1*
X18672Y12288D1*
X18823Y12310D1*
X18975D1*
X19126Y12287D1*
X19271Y12243D1*
X19409Y12178D1*
X19535Y12093D1*
X19648Y11991D1*
X19745Y11873D1*
X19823Y11742D1*
X19881Y11601D1*
X19918Y11454D1*
X19932Y11302D1*
X19930Y11202D1*
X19908Y11051D1*
X19863Y10906D1*
X19798Y10768D1*
X19785Y10746D1*
X20479Y10744D1*
X20553D1*
X20492Y10859D1*
X20441Y11003D1*
X20411Y11152D1*
X20404Y11304D1*
X20419Y11456D1*
X20456Y11603D1*
X20514Y11744D1*
X20592Y11874D1*
X20689Y11992D1*
X20802Y12094D1*
X20929Y12179D1*
X21066Y12244D1*
X21212Y12288D1*
X21363Y12310D1*
X21515D1*
X21666Y12287D1*
X21811Y12243D1*
X21949Y12178D1*
X22075Y12093D1*
X22188Y11991D1*
X22285Y11873D1*
X22363Y11742D1*
X22421Y11601D1*
X22458Y11454D1*
X22472Y11302D1*
X22470Y11202D1*
X22448Y11051D1*
X22403Y10906D1*
X22338Y10768D1*
X22325Y10746D1*
X23092Y10744D1*
X23032Y10859D1*
X22981Y11003D1*
X22951Y11152D1*
X22944Y11304D1*
X22959Y11456D1*
X22996Y11603D1*
X23054Y11744D1*
X23132Y11874D1*
X23229Y11992D1*
X23342Y12094D1*
X23469Y12179D1*
X23606Y12244D1*
X23752Y12288D1*
X23903Y12310D1*
X24055D1*
X24206Y12287D1*
X24351Y12243D1*
X24489Y12178D1*
X24615Y12093D1*
X24728Y11991D1*
X24825Y11873D1*
X24903Y11742D1*
X24961Y11601D1*
X24998Y11454D1*
X25012Y11302D1*
X25011Y11233D1*
X25631Y11852D1*
X25592Y11845D1*
X25516Y11844D1*
X25441Y11856D1*
X25369Y11880D1*
X25302Y11916D1*
X25241Y11962D1*
X25189Y12017D1*
X25146Y12080D1*
X25115Y12150D1*
X25095Y12223D1*
X25087Y12299D1*
X25092Y12375D1*
X25110Y12449D1*
X25139Y12519D1*
X25179Y12584D1*
X25230Y12641D1*
X25289Y12689D1*
X25355Y12726D1*
X25426Y12753D1*
X25501Y12767D1*
X25577Y12769D1*
X25652Y12758D1*
X25725Y12736D1*
X25793Y12701D1*
X25854Y12656D1*
X25908Y12602D1*
X25951Y12539D1*
X25984Y12471D1*
X26005Y12397D1*
X26014Y12306D1*
X26010Y12231D1*
X26564Y12785D1*
X26467D1*
X26316Y12803D1*
X26169Y12844D1*
X26030Y12906D1*
X25901Y12987D1*
X25786Y13087D1*
X25687Y13202D1*
X25605Y13331D1*
X25544Y13470D1*
X25503Y13617D1*
X25485Y13768D1*
X25488Y13920D1*
X25514Y14070D1*
X25562Y14215D1*
X25631Y14351D1*
X25719Y14475D1*
X25824Y14585D1*
X25944Y14679D1*
X26076Y14754D1*
X26218Y14808D1*
X26367Y14842D1*
X26519Y14853D1*
X26671Y14841D1*
X26819Y14808D1*
X26961Y14753D1*
X27051Y14704D1*
X27052Y15472D1*
X20438Y22232D2*
X20420Y22159D1*
X20389Y22089D1*
X20348Y22025D1*
X20296Y21969D1*
X20237Y21922D1*
X20170Y21885D1*
X20098Y21860D1*
X20023Y21847D1*
X19947Y21846D1*
X19872Y21858D1*
X19800Y21882D1*
X19732Y21918D1*
X19672Y21964D1*
X19619Y22019D1*
X19577Y22082D1*
X19545Y22151D1*
X19525Y22225D1*
X19518Y22301D1*
X19523Y22377D1*
X19540Y22451D1*
X19570Y22521D1*
X19610Y22585D1*
X19660Y22643D1*
X19719Y22691D1*
X19786Y22728D1*
X19857Y22755D1*
X19932Y22769D1*
X20008Y22771D1*
X20083Y22760D1*
X20156Y22737D1*
X20224Y22703D1*
X20285Y22658D1*
X20338Y22604D1*
X20382Y22541D1*
X20414Y22472D1*
X20435Y22399D1*
X20445Y22308D1*
X20438Y22232D1*
X23511Y19054D2*
X23493Y18980D1*
X23462Y18910D1*
X23421Y18846D1*
X23370Y18790D1*
X23310Y18743D1*
X23243Y18707D1*
X23171Y18681D1*
X23096Y18668D1*
X23020D1*
X22945Y18680D1*
X22873Y18704D1*
X22805Y18739D1*
X22745Y18785D1*
X22693Y18840D1*
X22650Y18904D1*
X22619Y18973D1*
X22599Y19046D1*
X22591Y19122D1*
X22596Y19198D1*
X22614Y19272D1*
X22643Y19342D1*
X22683Y19407D1*
X22734Y19464D1*
X22793Y19512D1*
X22859Y19550D1*
X22930Y19576D1*
X23005Y19590D1*
X23081Y19592D1*
X23156Y19582D1*
X23229Y19559D1*
X23297Y19525D1*
X23358Y19480D1*
X23411Y19425D1*
X23455Y19363D1*
X23488Y19294D1*
X23509Y19221D1*
X23518Y19130D1*
X23511Y19054D1*
X17307Y21415D2*
X17267Y21353D1*
X17215Y21297D1*
X17156Y21249D1*
X17089Y21213D1*
X17017Y21188D1*
X16942Y21175D1*
X16866Y21174D1*
X16791Y21186D1*
X16719Y21210D1*
X16651Y21245D1*
X16591Y21291D1*
X16538Y21347D1*
X16496Y21410D1*
X16469Y21468D1*
X16454Y21412D1*
X16423Y21342D1*
X16382Y21279D1*
X16331Y21222D1*
X16271Y21175D1*
X16204Y21139D1*
X16132Y21114D1*
X16057Y21100D1*
X15981D1*
X15906Y21112D1*
X15834Y21136D1*
X15766Y21171D1*
X15706Y21217D1*
X15653Y21272D1*
X15611Y21336D1*
X15579Y21405D1*
X15560Y21478D1*
X15552Y21554D1*
X15557Y21630D1*
X15574Y21704D1*
X15604Y21774D1*
X15644Y21839D1*
X15694Y21896D1*
X15753Y21944D1*
X15820Y21982D1*
X15891Y22008D1*
X15966Y22022D1*
X16042Y22024D1*
X16117Y22014D1*
X16190Y21991D1*
X16258Y21957D1*
X16319Y21912D1*
X16372Y21857D1*
X16416Y21795D1*
X16448Y21728D1*
X16459Y21778D1*
X16489Y21849D1*
X16529Y21913D1*
X16579Y21970D1*
X16638Y22018D1*
X16704Y22056D1*
X16776Y22082D1*
X16851Y22097D1*
X16927Y22099D1*
X17002Y22088D1*
X17075Y22065D1*
X17143Y22031D1*
X17204Y21986D1*
X17257Y21931D1*
X17278Y21902D1*
X17314Y21961D1*
X17364Y22018D1*
X17423Y22066D1*
X17489Y22104D1*
X17560Y22130D1*
X17635Y22145D1*
X17711Y22147D1*
X17787Y22136D1*
X17859Y22113D1*
X17927Y22079D1*
X17989Y22034D1*
X18042Y21979D1*
X18085Y21917D1*
X18118Y21848D1*
X18139Y21775D1*
X18148Y21684D1*
X18142Y21608D1*
X18123Y21534D1*
X18093Y21465D1*
X18051Y21401D1*
X18000Y21345D1*
X17940Y21298D1*
X17873Y21261D1*
X17802Y21236D1*
X17727Y21223D1*
X17651Y21222D1*
X17575Y21234D1*
X17503Y21258D1*
X17436Y21293D1*
X17375Y21339D1*
X17308Y21417D1*
X18949Y16059D2*
X18931Y15985D1*
X18900Y15915D1*
X18859Y15851D1*
X18808Y15795D1*
X18748Y15748D1*
X18681Y15712D1*
X18609Y15686D1*
X18534Y15673D1*
X18458D1*
X18383Y15684D1*
X18311Y15708D1*
X18243Y15744D1*
X18183Y15790D1*
X18130Y15845D1*
X18088Y15909D1*
X18056Y15978D1*
X18037Y16051D1*
X18029Y16127D1*
X18034Y16203D1*
X18051Y16277D1*
X18081Y16347D1*
X18121Y16412D1*
X18171Y16469D1*
X18230Y16517D1*
X18297Y16555D1*
X18368Y16581D1*
X18443Y16595D1*
X18519Y16597D1*
X18594Y16587D1*
X18667Y16564D1*
X18735Y16529D1*
X18796Y16484D1*
X18849Y16430D1*
X18893Y16368D1*
X18925Y16299D1*
X18947Y16226D1*
X18956Y16135D1*
X18949Y16059D1*
X15058Y20130D2*
X15040Y20056D1*
X15009Y19987D1*
X14968Y19923D1*
X14917Y19867D1*
X14857Y19820D1*
X14790Y19783D1*
X14718Y19758D1*
X14643Y19745D1*
X14567Y19744D1*
X14492Y19756D1*
X14420Y19780D1*
X14352Y19815D1*
X14292Y19861D1*
X14240Y19917D1*
X14197Y19980D1*
X14165Y20049D1*
X14146Y20123D1*
X14138Y20198D1*
X14143Y20274D1*
X14161Y20349D1*
X14190Y20419D1*
X14230Y20483D1*
X14281Y20540D1*
X14340Y20588D1*
X14406Y20626D1*
X14477Y20652D1*
X14552Y20667D1*
X14628Y20669D1*
X14703Y20658D1*
X14776Y20635D1*
X14844Y20601D1*
X14905Y20556D1*
X14958Y20501D1*
X15002Y20439D1*
X15035Y20370D1*
X15056Y20297D1*
X15065Y20206D1*
X15058Y20130D1*
X23511Y20428D2*
X23493Y20354D1*
X23462Y20284D1*
X23421Y20220D1*
X23370Y20164D1*
X23310Y20117D1*
X23243Y20080D1*
X23171Y20055D1*
X23096Y20042D1*
X23020Y20041D1*
X22945Y20053D1*
X22873Y20077D1*
X22805Y20113D1*
X22745Y20159D1*
X22692Y20214D1*
X22650Y20277D1*
X22618Y20346D1*
X22599Y20420D1*
X22591Y20496D1*
X22596Y20572D1*
X22613Y20646D1*
X22643Y20716D1*
X22683Y20781D1*
X22733Y20838D1*
X22792Y20886D1*
X22859Y20923D1*
X22930Y20950D1*
X23005Y20964D1*
X23081Y20966D1*
X23156Y20955D1*
X23229Y20933D1*
X23297Y20898D1*
X23358Y20853D1*
X23411Y20799D1*
X23455Y20736D1*
X23488Y20668D1*
X23509Y20594D1*
X23518Y20503D1*
X23511Y20428D1*
X23518Y16147D2*
X23499Y16073D1*
X23469Y16003D1*
X23428Y15939D1*
X23376Y15883D1*
X23316Y15836D1*
X23250Y15799D1*
X23178Y15774D1*
X23103Y15761D1*
X23027D1*
X22952Y15772D1*
X22879Y15796D1*
X22812Y15832D1*
X22751Y15878D1*
X22699Y15933D1*
X22657Y15996D1*
X22625Y16066D1*
X22605Y16139D1*
X22598Y16215D1*
X22603Y16291D1*
X22620Y16365D1*
X22649Y16435D1*
X22690Y16500D1*
X22740Y16557D1*
X22799Y16605D1*
X22865Y16643D1*
X22937Y16669D1*
X23011Y16683D1*
X23088Y16685D1*
X23163Y16675D1*
X23236Y16652D1*
X23303Y16617D1*
X23365Y16572D1*
X23418Y16518D1*
X23462Y16455D1*
X23494Y16387D1*
X23515Y16314D1*
X23524Y16223D1*
X23518Y16147D1*
X15045Y18927D2*
X15027Y18853D1*
X14996Y18784D1*
X14955Y18720D1*
X14904Y18664D1*
X14844Y18617D1*
X14777Y18580D1*
X14705Y18555D1*
X14630Y18542D1*
X14554Y18541D1*
X14479Y18553D1*
X14407Y18577D1*
X14339Y18612D1*
X14279Y18658D1*
X14227Y18714D1*
X14184Y18777D1*
X14152Y18846D1*
X14133Y18920D1*
X14125Y18995D1*
X14130Y19071D1*
X14148Y19146D1*
X14177Y19216D1*
X14217Y19280D1*
X14268Y19337D1*
X14327Y19385D1*
X14393Y19423D1*
X14464Y19449D1*
X14539Y19464D1*
X14615Y19466D1*
X14690Y19455D1*
X14763Y19432D1*
X14831Y19398D1*
X14892Y19353D1*
X14945Y19298D1*
X14989Y19236D1*
X15022Y19167D1*
X15043Y19094D1*
X15052Y19003D1*
X15045Y18927D1*
X15979Y16449D2*
X15960Y16375D1*
X15930Y16305D1*
X15888Y16241D1*
X15837Y16185D1*
X15777Y16138D1*
X15711Y16102D1*
X15639Y16076D1*
X15564Y16063D1*
X15488D1*
X15412Y16074D1*
X15340Y16098D1*
X15273Y16134D1*
X15212Y16180D1*
X15160Y16235D1*
X15118Y16298D1*
X15086Y16368D1*
X15066Y16441D1*
X15059Y16517D1*
X15064Y16593D1*
X15081Y16667D1*
X15110Y16737D1*
X15151Y16802D1*
X15201Y16859D1*
X15260Y16907D1*
X15326Y16945D1*
X15398Y16971D1*
X15472Y16985D1*
X15548Y16987D1*
X15624Y16977D1*
X15696Y16954D1*
X15764Y16919D1*
X15826Y16874D1*
X15879Y16820D1*
X15922Y16758D1*
X15955Y16689D1*
X15976Y16616D1*
X15985Y16525D1*
X15979Y16449D1*
X16543Y20443D2*
X16524Y20369D1*
X16494Y20299D1*
X16452Y20235D1*
X16401Y20179D1*
X16341Y20132D1*
X16274Y20095D1*
X16203Y20070D1*
X16128Y20057D1*
X16051Y20056D1*
X15976Y20068D1*
X15904Y20092D1*
X15837Y20128D1*
X15776Y20174D1*
X15724Y20229D1*
X15681Y20292D1*
X15650Y20362D1*
X15630Y20435D1*
X15622Y20511D1*
X15627Y20587D1*
X15645Y20661D1*
X15674Y20731D1*
X15714Y20796D1*
X15765Y20853D1*
X15824Y20901D1*
X15890Y20938D1*
X15961Y20965D1*
X16036Y20979D1*
X16112Y20981D1*
X16188Y20970D1*
X16260Y20948D1*
X16328Y20913D1*
X16390Y20868D1*
X16443Y20814D1*
X16486Y20751D1*
X16519Y20683D1*
X16540Y20609D1*
X16549Y20518D1*
X16543Y20443D1*
X15358Y14045D2*
X15340Y13971D1*
X15309Y13902D1*
X15268Y13838D1*
X15217Y13782D1*
X15157Y13735D1*
X15090Y13698D1*
X15018Y13673D1*
X14943Y13660D1*
X14867Y13659D1*
X14792Y13671D1*
X14720Y13695D1*
X14652Y13730D1*
X14592Y13776D1*
X14540Y13832D1*
X14497Y13895D1*
X14465Y13964D1*
X14446Y14038D1*
X14438Y14113D1*
X14443Y14189D1*
X14461Y14263D1*
X14490Y14334D1*
X14530Y14398D1*
X14581Y14455D1*
X14640Y14503D1*
X14706Y14541D1*
X14777Y14567D1*
X14852Y14582D1*
X14928Y14584D1*
X15003Y14573D1*
X15076Y14550D1*
X15144Y14516D1*
X15205Y14471D1*
X15258Y14416D1*
X15302Y14354D1*
X15335Y14285D1*
X15356Y14212D1*
X15365Y14121D1*
X15358Y14045D1*
X22247Y18001D2*
X22229Y17927D1*
X22198Y17857D1*
X22157Y17794D1*
X22106Y17737D1*
X22046Y17690D1*
X21979Y17654D1*
X21907Y17629D1*
X21832Y17615D1*
X21756D1*
X21681Y17627D1*
X21609Y17651D1*
X21541Y17686D1*
X21481Y17732D1*
X21429Y17787D1*
X21386Y17851D1*
X21355Y17920D1*
X21335Y17993D1*
X21327Y18069D1*
X21332Y18145D1*
X21350Y18219D1*
X21379Y18289D1*
X21419Y18354D1*
X21470Y18411D1*
X21529Y18459D1*
X21595Y18497D1*
X21666Y18523D1*
X21741Y18537D1*
X21817Y18539D1*
X21892Y18529D1*
X21965Y18506D1*
X22033Y18472D1*
X22094Y18427D1*
X22147Y18372D1*
X22191Y18310D1*
X22224Y18241D1*
X22245Y18168D1*
X22254Y18077D1*
X22247Y18001D1*
D23*
X11278Y21438D3*
Y18898D3*
D25*
X10008Y21438D3*
Y18898D3*
D23*
X13818Y11278D3*
D25*
Y10008D3*
D23*
X11278Y13818D3*
Y16358D3*
D25*
X10008Y13818D3*
Y16358D3*
D23*
X26518Y18898D3*
Y21438D3*
D25*
X27788Y18898D3*
Y21438D3*
D23*
X23978Y23978D3*
X21438D3*
X18898D3*
X16358D3*
D25*
X23978Y25248D3*
X21438D3*
X18898D3*
X16358D3*
D23*
X13818Y23978D3*
D25*
Y25248D3*
D23*
X26518Y16358D3*
Y13818D3*
D25*
X27788Y16358D3*
Y13818D3*
D23*
X18898Y11278D3*
X21438D3*
D25*
X18898Y10008D3*
X21438D3*
D23*
X16358Y11278D3*
D25*
Y10008D3*
D23*
X23978Y11278D3*
D25*
Y10008D3*
D39*
X18327Y17939D3*
Y18839D3*
Y19739D3*
X19227Y17939D3*
Y18839D3*
Y19739D3*
X20127Y17939D3*
Y18839D3*
Y19739D3*
M02*
