G04 DipTrace 2.4.0.2*
%INTAS2521.gbs*%
%MOMM*%
%ADD52R,1.75X2.082*%
%ADD53R,1.75X2.05*%
%ADD54R,1.75X1.65*%
%ADD56R,2.082X1.75*%
%ADD58R,1.65X1.75*%
%FSLAX53Y53*%
G04*
G71*
G90*
G75*
G01*
%LNBotMask*%
%LPD*%
D58*
X11278Y21438D3*
Y18898D3*
D56*
X10008Y21438D3*
Y18898D3*
G36*
X12553Y18023D2*
X12048D1*
Y19773D1*
X12553D1*
X12833Y19229D1*
Y18567D1*
X12553Y18023D1*
G37*
G36*
Y20563D2*
X12053D1*
Y22313D1*
X12553D1*
X12833Y21769D1*
Y21107D1*
X12553Y20563D1*
G37*
D54*
X13818Y11278D3*
G36*
X14693Y12553D2*
Y12048D1*
X12943D1*
Y12553D1*
X13487Y12833D1*
X14149D1*
X14693Y12553D1*
G37*
D53*
X13818Y10008D3*
D58*
X11278Y13818D3*
Y16358D3*
G36*
X12553Y15483D2*
X12048D1*
Y17233D1*
X12553D1*
X12833Y16689D1*
Y16027D1*
X12553Y15483D1*
G37*
G36*
Y12943D2*
X12048D1*
Y14693D1*
X12553D1*
X12833Y14149D1*
Y13487D1*
X12553Y12943D1*
G37*
D56*
X10008Y13818D3*
Y16358D3*
D58*
X26518Y18898D3*
Y21438D3*
D56*
X27788Y18898D3*
Y21438D3*
G36*
X25243Y22313D2*
X25748D1*
Y20563D1*
X25243D1*
X24963Y21107D1*
Y21769D1*
X25243Y22313D1*
G37*
G36*
Y19773D2*
X25743D1*
Y18023D1*
X25243D1*
X24963Y18567D1*
Y19229D1*
X25243Y19773D1*
G37*
D54*
X23978Y23978D3*
X21438D3*
X18898D3*
X16358D3*
G36*
X20563Y22703D2*
Y23208D1*
X22313D1*
Y22703D1*
X21769Y22423D1*
X21107D1*
X20563Y22703D1*
G37*
G36*
X23103D2*
Y23208D1*
X24853D1*
Y22703D1*
X24309Y22423D1*
X23647D1*
X23103Y22703D1*
G37*
G36*
X15483D2*
Y23208D1*
X17233D1*
Y22703D1*
X16689Y22423D1*
X16027D1*
X15483Y22703D1*
G37*
G36*
X18023D2*
Y23208D1*
X19773D1*
Y22703D1*
X19229Y22423D1*
X18567D1*
X18023Y22703D1*
G37*
D52*
X23978Y25248D3*
X21438D3*
X18898D3*
X16358D3*
D54*
X13818Y23978D3*
G36*
X12943Y22703D2*
Y23208D1*
X14693D1*
Y22703D1*
X14149Y22423D1*
X13487D1*
X12943Y22703D1*
G37*
D53*
X13818Y25248D3*
D58*
X26518Y16358D3*
Y13818D3*
G36*
X25243Y14693D2*
X25748D1*
Y12943D1*
X25243D1*
X24963Y13487D1*
Y14149D1*
X25243Y14693D1*
G37*
G36*
Y17233D2*
X25748D1*
Y15483D1*
X25243D1*
X24963Y16027D1*
Y16689D1*
X25243Y17233D1*
G37*
D56*
X27788Y16358D3*
Y13818D3*
D54*
X18898Y11278D3*
X21438D3*
D52*
X18898Y10008D3*
X21438D3*
G36*
X22313Y12553D2*
Y12048D1*
X20563D1*
Y12553D1*
X21107Y12833D1*
X21769D1*
X22313Y12553D1*
G37*
G36*
X19773D2*
Y12053D1*
X18023D1*
Y12553D1*
X18567Y12833D1*
X19229D1*
X19773Y12553D1*
G37*
D54*
X16358Y11278D3*
G36*
X17233Y12553D2*
Y12048D1*
X15483D1*
Y12553D1*
X16027Y12833D1*
X16689D1*
X17233Y12553D1*
G37*
D53*
X16358Y10008D3*
D54*
X23978Y11278D3*
G36*
X24853Y12553D2*
Y12048D1*
X23103D1*
Y12553D1*
X23647Y12833D1*
X24309D1*
X24853Y12553D1*
G37*
D53*
X23978Y10008D3*
G36*
X21511Y18672D2*
X21702Y18701D1*
X21849Y18761D1*
X21943Y18837D1*
X22019Y18913D1*
X22083Y19026D1*
X22108Y19091D1*
X22128Y19186D1*
X22139Y19237D1*
X22144Y19319D1*
X22121Y19384D1*
X22083Y19422D1*
X22057Y19448D1*
X22045Y19512D1*
X22050Y19537D1*
X22065Y19588D1*
X22095Y19615D1*
X22014Y19714D1*
X21938Y19664D1*
X21920D1*
X21884Y19753D1*
X21829Y19765D1*
X21727Y19775D1*
X21834Y19523D1*
Y19491D1*
X21826Y19448D1*
X21803Y19438D1*
X21752Y19458D1*
X21689Y19573D1*
X21618Y19745D1*
X21567Y19719D1*
X21513Y19656D1*
X21587Y19465D1*
X21549Y19472D1*
X21511D1*
Y18672D1*
G37*
M02*
