G04 DipTrace 2.4.0.2*
%INTAS2521.gbl*%
%MOMM*%
%ADD13C,0.254*%
%ADD15C,0.508*%
%ADD17C,0.457*%
%ADD18C,0.152*%
%ADD22R,1.6X1.7*%
%ADD24R,2.032X1.7*%
%ADD26R,1.7X1.6*%
%ADD27R,1.7X2.0*%
%ADD28R,1.7X2.032*%
%ADD38C,0.711*%
%FSLAX53Y53*%
G04*
G71*
G90*
G75*
G01*
%LNBottom*%
%LPD*%
X18492Y16135D2*
D13*
X18221D1*
X17479Y16877D1*
Y20752D1*
X18192Y21466D1*
Y21912D1*
X17935Y22170D1*
X14464D1*
X13818Y22816D1*
Y25248D2*
Y23978D1*
Y22816D1*
X18898Y10008D2*
Y11278D1*
Y12443D1*
X21438Y10008D2*
Y11278D1*
Y12441D1*
Y25248D2*
Y23978D1*
Y22816D1*
X23978Y25248D2*
Y23978D1*
Y22816D1*
X27788Y16358D2*
X26518D1*
X25356D1*
X12441Y18898D2*
X11278D1*
X10008D1*
X16900Y21636D2*
Y21714D1*
X16610Y21424D1*
Y14846D1*
X13954Y12189D1*
Y12441D1*
X13818D1*
Y10008D2*
Y11278D1*
Y12441D1*
X27788Y13818D2*
X26518D1*
X25356D1*
X16358Y25248D2*
Y23978D1*
Y22816D1*
X17685Y21684D2*
X17051Y21050D1*
Y13417D1*
X15770Y12137D1*
Y10690D1*
X16358Y11278D1*
Y10008D2*
Y11278D1*
Y12441D1*
X16015Y21562D2*
X14652D1*
X13679Y20589D1*
Y16966D1*
X13071Y16358D1*
X12441D1*
X10008D2*
X11278D1*
X12441D1*
X16086Y20518D2*
Y20468D1*
X15864Y20690D1*
X14391D1*
X14086Y20385D1*
Y15463D1*
X12441Y13818D1*
X10008D2*
X11278D1*
X12441D1*
X27788Y18898D2*
X26518D1*
X25353D1*
X27788Y21438D2*
X26518D1*
X25356D1*
X23978Y11278D2*
D15*
Y18206D1*
X23054Y19130D1*
D17*
X22843D1*
D15*
X22132Y18418D1*
D17*
X21790Y18077D1*
X23978Y12441D2*
D15*
Y11278D1*
Y10008D1*
X14588Y19003D2*
D13*
Y14434D1*
X14901Y14121D1*
X18898Y25248D2*
Y23978D1*
Y22816D1*
X19981Y22308D2*
Y22895D1*
X18898Y23978D1*
D17*
X16900Y21636D3*
X17685Y21684D3*
X18492Y16135D3*
X14601Y20206D3*
X23054Y19130D3*
X21790Y18077D3*
X23054Y20503D3*
X23061Y16223D3*
X14588Y19003D3*
X23067Y17612D3*
X15522Y16525D3*
X19981Y22308D3*
X16015Y21562D3*
X16086Y20518D3*
X14901Y14121D3*
X15536Y17612D3*
X12295Y22951D3*
X12273Y12284D3*
X25551Y12306D3*
X25617Y22951D3*
X19998Y24363D2*
D18*
X20339D1*
X22538D2*
X22879D1*
X19998Y24214D2*
X20339D1*
X22538D2*
X22879D1*
X19998Y24065D2*
X20339D1*
X22538D2*
X22879D1*
X19998Y23916D2*
X20339D1*
X22538D2*
X22879D1*
X12542Y23766D2*
X12719D1*
X19998D2*
X20339D1*
X22538D2*
X22879D1*
X25077D2*
X25253D1*
X12392Y23617D2*
X12719D1*
X19998D2*
X20339D1*
X22538D2*
X22879D1*
X25077D2*
X25403D1*
X12244Y23468D2*
X12719D1*
X19998D2*
X20339D1*
X22538D2*
X22879D1*
X25077D2*
X25551D1*
X12094Y23319D2*
X12719D1*
X20083D2*
X20339D1*
X22538D2*
X22879D1*
X25077D2*
X25701D1*
X11944Y23170D2*
X12719D1*
X20233D2*
X20339D1*
X22538D2*
X22879D1*
X25077D2*
X25851D1*
X11796Y23021D2*
X12719D1*
X22538D2*
X22879D1*
X25077D2*
X25999D1*
X11646Y22872D2*
X12719D1*
X22538D2*
X22879D1*
X25077D2*
X26149D1*
X11499Y22723D2*
X12719D1*
X22538D2*
X22879D1*
X25077D2*
X26296D1*
X11349Y22574D2*
X12769D1*
X22488D2*
X22927D1*
X25029D2*
X26446D1*
X12744Y22425D2*
X13011D1*
X20445D2*
X20631D1*
X22245D2*
X23170D1*
X24786D2*
X25053D1*
X12823Y22276D2*
X13300D1*
X19416D2*
X19505D1*
X20457D2*
X20920D1*
X21955D2*
X23460D1*
X24496D2*
X24972D1*
X12899Y22127D2*
X13981D1*
X18497D2*
X19541D1*
X20421D2*
X24896D1*
X12975Y21978D2*
X14131D1*
X18562D2*
X19641D1*
X20321D2*
X24820D1*
X13049Y21829D2*
X14328D1*
X18569D2*
X24749D1*
X13059Y21680D2*
X14243D1*
X18569D2*
X24739D1*
X13059Y21530D2*
X14095D1*
X18569D2*
X24739D1*
X13059Y21381D2*
X13945D1*
X18559D2*
X24739D1*
X13059Y21232D2*
X13797D1*
X18483D2*
X24739D1*
X13056Y21083D2*
X13647D1*
X18335D2*
X24741D1*
X12994Y20934D2*
X13497D1*
X18185D2*
X24801D1*
X12918Y20785D2*
X13361D1*
X18038D2*
X24877D1*
X12842Y20636D2*
X13304D1*
X17888D2*
X24953D1*
X12766Y20487D2*
X13302D1*
X17854D2*
X25032D1*
X10759Y20338D2*
X13302D1*
X17854D2*
X27037D1*
X10759Y20189D2*
X13302D1*
X17854D2*
X27037D1*
X10759Y20040D2*
X13302D1*
X17854D2*
X27037D1*
X10759Y19891D2*
X13302D1*
X17854D2*
X25056D1*
X10759Y19742D2*
X13302D1*
X17854D2*
X24975D1*
X10759Y19593D2*
X13302D1*
X17854D2*
X22672D1*
X23226D2*
X24899D1*
X10759Y19444D2*
X13302D1*
X17854D2*
X22451D1*
X23446D2*
X24822D1*
X10759Y19294D2*
X13302D1*
X17854D2*
X22303D1*
X23596D2*
X24749D1*
X10759Y19145D2*
X13302D1*
X17854D2*
X22153D1*
X23746D2*
X24739D1*
X10759Y18996D2*
X13302D1*
X17854D2*
X22003D1*
X23893D2*
X24739D1*
X10759Y18847D2*
X13302D1*
X17854D2*
X21855D1*
X24043D2*
X24739D1*
X10759Y18698D2*
X13302D1*
X17854D2*
X21717D1*
X24191D2*
X24739D1*
X10759Y18549D2*
X13302D1*
X17854D2*
X21593D1*
X24341D2*
X24739D1*
X10759Y18400D2*
X13302D1*
X17854D2*
X21443D1*
X22819D2*
X23079D1*
X24441D2*
X24799D1*
X10759Y18251D2*
X13302D1*
X17854D2*
X21346D1*
X22672D2*
X23227D1*
X24479D2*
X24875D1*
X10759Y18102D2*
X13302D1*
X17854D2*
X21312D1*
X22522D2*
X23377D1*
X24481D2*
X24951D1*
X10759Y17953D2*
X13302D1*
X17854D2*
X21329D1*
X22336D2*
X22739D1*
X23396D2*
X23475D1*
X24481D2*
X25027D1*
X10759Y17804D2*
X13302D1*
X17854D2*
X21401D1*
X22188D2*
X22629D1*
X24481D2*
X27037D1*
X10759Y17655D2*
X13302D1*
X17854D2*
X21584D1*
X21995D2*
X22591D1*
X24481D2*
X27037D1*
X10759Y17506D2*
X13302D1*
X17854D2*
X22601D1*
X24481D2*
X27037D1*
X12735Y17357D2*
X13302D1*
X17854D2*
X22665D1*
X24481D2*
X27037D1*
X12818Y17208D2*
X13302D1*
X17854D2*
X22827D1*
X23307D2*
X23475D1*
X24481D2*
X27037D1*
X12894Y17058D2*
X13245D1*
X17854D2*
X23475D1*
X24481D2*
X27037D1*
X12970Y16909D2*
X13095D1*
X17973D2*
X23475D1*
X24481D2*
X27037D1*
X18121Y16760D2*
X23475D1*
X24481D2*
X27037D1*
X18271Y16611D2*
X23475D1*
X24481D2*
X27037D1*
X18835Y16462D2*
X23475D1*
X24481D2*
X27037D1*
X17428Y16313D2*
X17517D1*
X18935D2*
X23475D1*
X24481D2*
X27037D1*
X17428Y16164D2*
X17664D1*
X18969D2*
X23475D1*
X24481D2*
X27037D1*
X17428Y16015D2*
X17814D1*
X18955D2*
X23475D1*
X24481D2*
X27037D1*
X17428Y15866D2*
X17964D1*
X18885D2*
X23475D1*
X24481D2*
X27037D1*
X17428Y15717D2*
X18279D1*
X18707D2*
X23475D1*
X24481D2*
X27037D1*
X17428Y15568D2*
X23475D1*
X24481D2*
X27037D1*
X17428Y15419D2*
X23475D1*
X24481D2*
X27037D1*
X17428Y15270D2*
X23475D1*
X24481D2*
X27037D1*
X17428Y15121D2*
X23475D1*
X24481D2*
X27037D1*
X14121Y14972D2*
X14214D1*
X17428D2*
X23475D1*
X24481D2*
X27037D1*
X13971Y14822D2*
X14212D1*
X17428D2*
X23475D1*
X24481D2*
X25068D1*
X13823Y14673D2*
X14212D1*
X17428D2*
X23475D1*
X24481D2*
X24982D1*
X13673Y14524D2*
X14212D1*
X17428D2*
X23475D1*
X24481D2*
X24906D1*
X13523Y14375D2*
X14216D1*
X17428D2*
X23475D1*
X24481D2*
X24830D1*
X13375Y14226D2*
X14278D1*
X16516D2*
X16674D1*
X17428D2*
X23475D1*
X24481D2*
X24753D1*
X13225Y14077D2*
X14419D1*
X16368D2*
X16674D1*
X17428D2*
X23475D1*
X24481D2*
X24739D1*
X13078Y13928D2*
X14466D1*
X16218D2*
X16674D1*
X17428D2*
X23475D1*
X24481D2*
X24739D1*
X13059Y13779D2*
X14574D1*
X16071D2*
X16674D1*
X17428D2*
X23475D1*
X24481D2*
X24739D1*
X13059Y13630D2*
X14869D1*
X15921D2*
X16674D1*
X17428D2*
X23475D1*
X24481D2*
X24739D1*
X13056Y13481D2*
X14719D1*
X15771D2*
X16588D1*
X17428D2*
X23475D1*
X24481D2*
X24739D1*
X13004Y13332D2*
X14571D1*
X15623D2*
X16438D1*
X17416D2*
X23475D1*
X24481D2*
X24791D1*
X12928Y13183D2*
X14421D1*
X15473D2*
X16290D1*
X17340D2*
X23475D1*
X24481D2*
X24868D1*
X12851Y13034D2*
X13414D1*
X15326D2*
X15955D1*
X17192D2*
X18495D1*
X19302D2*
X21034D1*
X21841D2*
X23475D1*
X24481D2*
X24946D1*
X12773Y12885D2*
X13114D1*
X15175D2*
X15655D1*
X17061D2*
X18195D1*
X19602D2*
X20734D1*
X22141D2*
X23275D1*
X24681D2*
X25022D1*
X12582Y12736D2*
X12826D1*
X15025D2*
X15366D1*
X17350D2*
X17907D1*
X19890D2*
X20446D1*
X22429D2*
X22986D1*
X24970D2*
X25213D1*
X11444Y12586D2*
X12723D1*
X14914D2*
X15264D1*
X17452D2*
X17802D1*
X19993D2*
X20343D1*
X22534D2*
X22884D1*
X25072D2*
X26351D1*
X11594Y12437D2*
X12719D1*
X14918D2*
X15259D1*
X17457D2*
X17798D1*
X19998D2*
X20339D1*
X22538D2*
X22879D1*
X25077D2*
X26201D1*
X11742Y12288D2*
X12719D1*
X14918D2*
X15259D1*
X17457D2*
X17798D1*
X19998D2*
X20339D1*
X22538D2*
X22879D1*
X25077D2*
X26054D1*
X11892Y12139D2*
X12719D1*
X14918D2*
X15259D1*
X17457D2*
X17798D1*
X19998D2*
X20339D1*
X22538D2*
X22879D1*
X25077D2*
X25903D1*
X12042Y11990D2*
X12719D1*
X14918D2*
X15259D1*
X17457D2*
X17798D1*
X19998D2*
X20339D1*
X22538D2*
X22879D1*
X25077D2*
X25756D1*
X12189Y11841D2*
X12719D1*
X14918D2*
X15259D1*
X17457D2*
X17798D1*
X19998D2*
X20339D1*
X22538D2*
X22879D1*
X25077D2*
X25606D1*
X12339Y11692D2*
X12719D1*
X14918D2*
X15259D1*
X17457D2*
X17798D1*
X19998D2*
X20339D1*
X22538D2*
X22879D1*
X25077D2*
X25456D1*
X12487Y11543D2*
X12719D1*
X14918D2*
X15259D1*
X17457D2*
X17798D1*
X19998D2*
X20339D1*
X22538D2*
X22879D1*
X25077D2*
X25308D1*
X12637Y11394D2*
X12719D1*
X14918D2*
X15259D1*
X17457D2*
X17798D1*
X19998D2*
X20339D1*
X22538D2*
X22879D1*
X25077D2*
X25158D1*
X14918Y11245D2*
X15259D1*
X17457D2*
X17798D1*
X19998D2*
X20339D1*
X22538D2*
X22879D1*
X14918Y11096D2*
X15259D1*
X17457D2*
X17798D1*
X19998D2*
X20339D1*
X22538D2*
X22879D1*
X14918Y10947D2*
X15259D1*
X17457D2*
X17798D1*
X19998D2*
X20339D1*
X22538D2*
X22879D1*
X14918Y10798D2*
X15259D1*
X17457D2*
X17798D1*
X19998D2*
X20339D1*
X22538D2*
X22879D1*
X17813Y10746D2*
X17816Y12313D1*
X17813Y12383D1*
Y12538D1*
X17826Y12613D1*
X17861Y12680D1*
X17918Y12733D1*
X18008Y12782D1*
X18466Y13017D1*
X18540Y13040D1*
X18649Y13043D1*
X19223D1*
X19300Y13029D1*
X19398Y12982D1*
X19855Y12747D1*
X19916Y12702D1*
X19960Y12639D1*
X19981Y12564D1*
X19983Y12462D1*
Y10743D1*
X20353Y10744D1*
X20356Y12313D1*
X20353Y12378D1*
Y12538D1*
X20366Y12613D1*
X20401Y12680D1*
X20458Y12733D1*
X20548Y12782D1*
X21006Y13017D1*
X21080Y13040D1*
X21189Y13043D1*
X21763D1*
X21840Y13029D1*
X21938Y12982D1*
X22395Y12747D1*
X22456Y12702D1*
X22500Y12639D1*
X22521Y12564D1*
X22523Y12462D1*
Y10743D1*
X22892Y10744D1*
X22893Y11243D1*
Y12313D1*
Y12538D1*
X22906Y12613D1*
X22941Y12680D1*
X22998Y12733D1*
X23088Y12782D1*
X23489Y12987D1*
Y17424D1*
X23434Y17329D1*
X23382Y17273D1*
X23323Y17226D1*
X23256Y17189D1*
X23184Y17164D1*
X23109Y17151D1*
X23033Y17150D1*
X22958Y17162D1*
X22886Y17186D1*
X22818Y17222D1*
X22758Y17268D1*
X22705Y17323D1*
X22663Y17386D1*
X22631Y17455D1*
X22611Y17529D1*
X22604Y17605D1*
X22609Y17681D1*
X22626Y17755D1*
X22656Y17825D1*
X22696Y17889D1*
X22746Y17946D1*
X22805Y17995D1*
X22871Y18032D1*
X22943Y18059D1*
X23018Y18073D1*
X23094Y18075D1*
X23169Y18064D1*
X23242Y18041D1*
X23310Y18007D1*
X23371Y17962D1*
X23424Y17908D1*
X23468Y17845D1*
X23489Y17800D1*
Y18005D1*
X22947Y18546D1*
X22758Y18353D1*
X22477Y18073D1*
X22419Y18023D1*
X22348Y17980D1*
X22118Y17749D1*
X22060Y17700D1*
X21995Y17661D1*
X21924Y17633D1*
X21849Y17617D1*
X21773Y17614D1*
X21698Y17623D1*
X21625Y17644D1*
X21556Y17677D1*
X21494Y17721D1*
X21440Y17774D1*
X21395Y17836D1*
X21361Y17904D1*
X21338Y17977D1*
X21328Y18052D1*
X21330Y18128D1*
X21345Y18203D1*
X21371Y18274D1*
X21409Y18340D1*
X21463Y18404D1*
X21694Y18635D1*
X21730Y18697D1*
X21786Y18764D1*
X22498Y19475D1*
X22556Y19525D1*
X22621Y19565D1*
X22691Y19594D1*
X22765Y19612D1*
X22841Y19618D1*
X22947Y19606D1*
X23046Y19618D1*
X23122Y19614D1*
X23196Y19597D1*
X23267Y19570D1*
X23333Y19531D1*
X23400Y19475D1*
X24324Y18552D1*
X24373Y18494D1*
X24413Y18429D1*
X24442Y18359D1*
X24460Y18285D1*
X24467Y18130D1*
Y12989D1*
X24935Y12747D1*
X24996Y12702D1*
X25040Y12639D1*
X25061Y12564D1*
X25063Y12462D1*
Y11282D1*
X26512Y12733D1*
X25483Y12736D1*
X25418Y12733D1*
X25258D1*
X25183Y12746D1*
X25116Y12781D1*
X25063Y12838D1*
X25014Y12928D1*
X24779Y13386D1*
X24756Y13460D1*
X24753Y13569D1*
Y14143D1*
X24767Y14220D1*
X24814Y14318D1*
X25049Y14775D1*
X25094Y14836D1*
X25157Y14880D1*
X25232Y14901D1*
X25334Y14903D1*
X27053D1*
X27052Y17815D1*
X26257Y17813D1*
X25483Y17816D1*
X25413Y17813D1*
X25258D1*
X25183Y17826D1*
X25116Y17861D1*
X25063Y17918D1*
X25014Y18008D1*
X24779Y18466D1*
X24756Y18540D1*
X24753Y18649D1*
Y19223D1*
X24767Y19300D1*
X24814Y19398D1*
X25049Y19855D1*
X25094Y19916D1*
X25157Y19960D1*
X25232Y19981D1*
X25334Y19983D1*
X27053D1*
X27052Y20353D1*
X25483Y20356D1*
X25418Y20353D1*
X25258D1*
X25183Y20366D1*
X25116Y20401D1*
X25063Y20458D1*
X25014Y20548D1*
X24779Y21006D1*
X24756Y21080D1*
X24753Y21189D1*
Y21763D1*
X24767Y21840D1*
X24814Y21938D1*
X25049Y22395D1*
X25094Y22456D1*
X25157Y22500D1*
X25232Y22521D1*
X25334Y22523D1*
X26514D1*
X25062Y23974D1*
X25063Y22943D1*
Y22718D1*
X25050Y22643D1*
X25015Y22576D1*
X24958Y22523D1*
X24868Y22474D1*
X24410Y22239D1*
X24336Y22216D1*
X24227Y22213D1*
X23653D1*
X23576Y22227D1*
X23478Y22274D1*
X23021Y22509D1*
X22960Y22554D1*
X22916Y22617D1*
X22895Y22692D1*
X22893Y22794D1*
Y24513D1*
X22524Y24512D1*
X22523Y23794D1*
X22520Y22943D1*
X22523Y22878D1*
Y22718D1*
X22510Y22643D1*
X22475Y22576D1*
X22418Y22523D1*
X22328Y22474D1*
X21870Y22239D1*
X21796Y22216D1*
X21687Y22213D1*
X21113D1*
X21036Y22227D1*
X20938Y22274D1*
X20481Y22509D1*
X20420Y22554D1*
X20376Y22617D1*
X20355Y22692D1*
X20353Y22794D1*
Y24514D1*
X19981Y24512D1*
X19983Y23717D1*
Y23405D1*
X20237Y23151D1*
X20285Y23091D1*
X20319Y23024D1*
X20339Y22948D1*
X20353Y22943D1*
Y23172D1*
X11284Y22523D2*
X12313Y22520D1*
X12383Y22523D1*
X12538D1*
X12613Y22510D1*
X12680Y22475D1*
X12733Y22418D1*
X12782Y22328D1*
X13017Y21870D1*
X13040Y21796D1*
X13043Y21687D1*
Y21113D1*
X13029Y21036D1*
X12982Y20938D1*
X12747Y20481D1*
X12702Y20420D1*
X12639Y20376D1*
X12564Y20355D1*
X12462Y20353D1*
X10743D1*
X10744Y17441D1*
X11539Y17443D1*
X12313Y17440D1*
X12378Y17443D1*
X12538D1*
X12613Y17430D1*
X12680Y17395D1*
X12733Y17338D1*
X12782Y17248D1*
X13008Y16808D1*
X13317Y17118D1*
Y20589D1*
X13325Y20664D1*
X13349Y20736D1*
X13379Y20791D1*
X13477Y20898D1*
X14394Y21815D1*
X14316Y21840D1*
X14262Y21870D1*
X14154Y21968D1*
X13907Y22215D1*
X13493Y22213D1*
X13416Y22227D1*
X13318Y22274D1*
X12861Y22509D1*
X12800Y22554D1*
X12756Y22617D1*
X12735Y22692D1*
X12733Y22794D1*
Y23974D1*
X11282Y22522D1*
X12008Y12733D2*
X11282D1*
X12734Y11282D1*
X12733Y12313D1*
Y12538D1*
X12746Y12613D1*
X12781Y12680D1*
X12838Y12733D1*
X12928Y12782D1*
X13386Y13017D1*
X13460Y13040D1*
X13569Y13043D1*
X14143D1*
X14220Y13029D1*
X14265Y13009D1*
X14614Y13361D1*
X14912Y13659D1*
X14867D1*
X14792Y13671D1*
X14720Y13695D1*
X14652Y13730D1*
X14592Y13776D1*
X14540Y13832D1*
X14497Y13895D1*
X14465Y13964D1*
X14443Y14068D1*
X14333Y14178D1*
X14285Y14237D1*
X14250Y14305D1*
X14233Y14365D1*
X14227Y14510D1*
Y15094D1*
X13043Y13909D1*
Y13493D1*
X13029Y13416D1*
X12982Y13318D1*
X12747Y12861D1*
X12702Y12800D1*
X12639Y12756D1*
X12564Y12735D1*
X12462Y12733D1*
X12008D1*
X14903Y12008D2*
Y10743D1*
X15272Y10744D1*
X15273Y11243D1*
Y12313D1*
Y12538D1*
X15286Y12613D1*
X15321Y12680D1*
X15378Y12733D1*
X15468Y12782D1*
X15926Y13017D1*
X16000Y13040D1*
X16109Y13043D1*
X16164D1*
X16689Y13570D1*
Y14415D1*
X16112Y13835D1*
X14891Y12615D1*
X14903Y12538D1*
Y12008D1*
X20343Y22819D2*
Y22597D1*
X20387D1*
X20359Y22667D1*
X20342Y22598D1*
X20382Y22541D1*
X20414Y22472D1*
X20435Y22399D1*
X20445Y22308D1*
X20438Y22232D1*
X20420Y22159D1*
X20389Y22089D1*
X20348Y22025D1*
X20296Y21969D1*
X20237Y21922D1*
X20170Y21885D1*
X20098Y21860D1*
X20023Y21847D1*
X19947Y21846D1*
X19872Y21858D1*
X19800Y21882D1*
X19732Y21918D1*
X19672Y21964D1*
X19619Y22019D1*
X19577Y22082D1*
X19545Y22151D1*
X19525Y22225D1*
X19518Y22301D1*
X19519Y22336D1*
X19330Y22239D1*
X19256Y22216D1*
X19147Y22213D1*
X18573D1*
X18496Y22227D1*
X18398Y22274D1*
X18281Y22334D1*
X18448Y22168D1*
X18496Y22109D1*
X18530Y22041D1*
X18547Y21981D1*
X18554Y21836D1*
Y21466D1*
X18546Y21390D1*
X18522Y21318D1*
X18492Y21264D1*
X18394Y21156D1*
X17840Y20600D1*
X17842Y17025D1*
X18308Y16559D1*
X18368Y16581D1*
X18443Y16595D1*
X18519Y16597D1*
X18594Y16587D1*
X18667Y16564D1*
X18735Y16529D1*
X18796Y16484D1*
X18849Y16430D1*
X18893Y16368D1*
X18925Y16299D1*
X18947Y16226D1*
X18956Y16135D1*
X18949Y16059D1*
X18931Y15985D1*
X18900Y15915D1*
X18859Y15851D1*
X18808Y15795D1*
X18748Y15748D1*
X18681Y15712D1*
X18609Y15686D1*
X18534Y15673D1*
X18458D1*
X18383Y15684D1*
X18311Y15708D1*
X18243Y15744D1*
X18203Y15774D1*
X18159Y15778D1*
X18086Y15799D1*
X18019Y15835D1*
X17911Y15933D1*
X17411Y16433D1*
X17412Y15107D1*
Y13417D1*
X17404Y13342D1*
X17381Y13269D1*
X17351Y13215D1*
X17253Y13108D1*
X17035Y12891D1*
X17315Y12747D1*
X17376Y12702D1*
X17420Y12639D1*
X17441Y12564D1*
X17443Y12462D1*
Y10745D1*
X17813Y10746D1*
X17816Y11259D1*
D22*
X11278Y21438D3*
Y18898D3*
D24*
X10008Y21438D3*
Y18898D3*
G36*
X12538Y18048D2*
X12073D1*
Y19748D1*
X12538D1*
X12808Y19223D1*
Y18573D1*
X12538Y18048D1*
G37*
G36*
Y20588D2*
X12078D1*
Y22288D1*
X12538D1*
X12808Y21763D1*
Y21113D1*
X12538Y20588D1*
G37*
D26*
X13818Y11278D3*
G36*
X14668Y12538D2*
Y12073D1*
X12968D1*
Y12538D1*
X13493Y12808D1*
X14143D1*
X14668Y12538D1*
G37*
D27*
X13818Y10008D3*
D22*
X11278Y13818D3*
Y16358D3*
G36*
X12538Y15508D2*
X12073D1*
Y17208D1*
X12538D1*
X12808Y16683D1*
Y16033D1*
X12538Y15508D1*
G37*
G36*
Y12968D2*
X12073D1*
Y14668D1*
X12538D1*
X12808Y14143D1*
Y13493D1*
X12538Y12968D1*
G37*
D24*
X10008Y13818D3*
Y16358D3*
D22*
X26518Y18898D3*
Y21438D3*
D24*
X27788Y18898D3*
Y21438D3*
G36*
X25258Y22288D2*
X25723D1*
Y20588D1*
X25258D1*
X24988Y21113D1*
Y21763D1*
X25258Y22288D1*
G37*
G36*
Y19748D2*
X25718D1*
Y18048D1*
X25258D1*
X24988Y18573D1*
Y19223D1*
X25258Y19748D1*
G37*
D26*
X23978Y23978D3*
X21438D3*
X18898D3*
X16358D3*
G36*
X20588Y22718D2*
Y23183D1*
X22288D1*
Y22718D1*
X21763Y22448D1*
X21113D1*
X20588Y22718D1*
G37*
G36*
X23128D2*
Y23183D1*
X24828D1*
Y22718D1*
X24303Y22448D1*
X23653D1*
X23128Y22718D1*
G37*
G36*
X15508D2*
Y23183D1*
X17208D1*
Y22718D1*
X16683Y22448D1*
X16033D1*
X15508Y22718D1*
G37*
G36*
X18048D2*
Y23183D1*
X19748D1*
Y22718D1*
X19223Y22448D1*
X18573D1*
X18048Y22718D1*
G37*
D28*
X23978Y25248D3*
X21438D3*
X18898D3*
X16358D3*
D26*
X13818Y23978D3*
G36*
X12968Y22718D2*
Y23183D1*
X14668D1*
Y22718D1*
X14143Y22448D1*
X13493D1*
X12968Y22718D1*
G37*
D27*
X13818Y25248D3*
D22*
X26518Y16358D3*
Y13818D3*
G36*
X25258Y14668D2*
X25723D1*
Y12968D1*
X25258D1*
X24988Y13493D1*
Y14143D1*
X25258Y14668D1*
G37*
G36*
Y17208D2*
X25723D1*
Y15508D1*
X25258D1*
X24988Y16033D1*
Y16683D1*
X25258Y17208D1*
G37*
D24*
X27788Y16358D3*
Y13818D3*
D26*
X18898Y11278D3*
X21438D3*
D28*
X18898Y10008D3*
X21438D3*
G36*
X22288Y12538D2*
Y12073D1*
X20588D1*
Y12538D1*
X21113Y12808D1*
X21763D1*
X22288Y12538D1*
G37*
G36*
X19748D2*
Y12078D1*
X18048D1*
Y12538D1*
X18573Y12808D1*
X19223D1*
X19748Y12538D1*
G37*
D26*
X16358Y11278D3*
G36*
X17208Y12538D2*
Y12073D1*
X15508D1*
Y12538D1*
X16033Y12808D1*
X16683D1*
X17208Y12538D1*
G37*
D27*
X16358Y10008D3*
D26*
X23978Y11278D3*
G36*
X24828Y12538D2*
Y12073D1*
X23128D1*
Y12538D1*
X23653Y12808D1*
X24303D1*
X24828Y12538D1*
G37*
D27*
X23978Y10008D3*
D38*
X18327Y17939D3*
Y18839D3*
Y19739D3*
X19227Y17939D3*
Y18839D3*
Y19739D3*
X20127Y17939D3*
Y18839D3*
Y19739D3*
G36*
X21511Y18672D2*
X21702Y18701D1*
X21849Y18761D1*
X21943Y18837D1*
X22019Y18913D1*
X22083Y19026D1*
X22108Y19091D1*
X22128Y19186D1*
X22139Y19237D1*
X22144Y19319D1*
X22121Y19384D1*
X22083Y19422D1*
X22057Y19448D1*
X22045Y19512D1*
X22050Y19537D1*
X22065Y19588D1*
X22095Y19615D1*
X22014Y19714D1*
X21938Y19664D1*
X21920D1*
X21884Y19753D1*
X21829Y19765D1*
X21727Y19775D1*
X21834Y19523D1*
Y19491D1*
X21826Y19448D1*
X21803Y19438D1*
X21752Y19458D1*
X21689Y19573D1*
X21618Y19745D1*
X21567Y19719D1*
X21513Y19656D1*
X21587Y19465D1*
X21549Y19472D1*
X21511D1*
Y18672D1*
G37*
M02*
