M48
METRIC,0000.00
T01C0.254
T02C0.33
T03C1.1
%
T01
X+001690Y+002164
X+001768Y+002168
X+001602Y+002156
X+001609Y+002052
X+001460Y+002021
X+001459Y+001900
X+001554Y+001761
X+001552Y+001652
X+001490Y+001412
X+001227Y+001228
X+001849Y+001613
X+002179Y+001808
X+002307Y+001761
X+002306Y+001622
X+002305Y+001913
X+002305Y+002050
X+002562Y+002295
X+001998Y+002231
X+001230Y+002295
X+002555Y+001231
T02
X+001833Y+001794
X+001833Y+001884
X+001833Y+001974
X+001923Y+001974
X+001923Y+001884
X+001923Y+001794
X+002013Y+001794
X+002013Y+001884
X+002013Y+001974
T03
X+001128Y+002144
X+001001Y+002144
X+001001Y+001890
X+001128Y+001890
X+001128Y+001636
X+001001Y+001636
X+001001Y+001382
X+001128Y+001382
X+001382Y+001128
X+001382Y+001001
X+001636Y+001001
X+001636Y+001128
X+001890Y+001128
X+001890Y+001001
X+002144Y+001001
X+002144Y+001128
X+002398Y+001128
X+002398Y+001001
X+002652Y+001382
X+002779Y+001382
X+002779Y+001636
X+002652Y+001636
X+002652Y+001890
X+002779Y+001890
X+002779Y+002144
X+002652Y+002144
X+002398Y+002398
X+002398Y+002525
X+002144Y+002525
X+002144Y+002398
X+001890Y+002398
X+001890Y+002525
X+001636Y+002525
X+001636Y+002398
X+001382Y+002398
X+001382Y+002525
T00
M30
