G04 DipTrace 2.4.0.2*
%INSocialLight.gto*%
%MOIN*%
%ADD10C,0.0098*%
%ADD14C,0.006*%
%ADD19O,0.0256X0.0272*%
%ADD21O,0.0447X0.0455*%
%ADD23O,0.0272X0.0256*%
%ADD25O,0.0455X0.0447*%
%ADD29O,0.0167X0.0163*%
%ADD49C,0.0033*%
%ADD50C,0.0044*%
%FSLAX44Y44*%
G04*
G70*
G90*
G75*
G01*
%LNTopSilk*%
%LPD*%
X9535Y6350D2*
D10*
X9437Y6547D1*
X9535Y4578D2*
Y4874D1*
Y4578D2*
X9240D1*
X8453D2*
X8157D1*
Y4874D1*
Y6251D2*
Y6547D1*
X8453D1*
D19*
X9282Y6873D3*
D21*
X10246Y6981D3*
X10841Y4890D2*
D10*
Y4594D1*
X9660D1*
Y4890D1*
X10841Y6268D2*
Y6563D1*
X9660D1*
Y6268D1*
X9164Y10352D2*
X9262Y10155D1*
X9164Y12124D2*
Y11829D1*
Y12124D2*
X9459D1*
X10246D2*
X10541D1*
Y11829D1*
Y10451D2*
Y10155D1*
X10246D1*
D19*
X9417Y9829D3*
D21*
X8446Y9791D3*
X7850Y11883D2*
D10*
Y12178D1*
X9031D1*
Y11883D1*
X7850Y10505D2*
Y10210D1*
X9031D1*
Y10505D1*
X5719Y10415D2*
X5817Y10218D1*
X5719Y12187D2*
Y11891D1*
Y12187D2*
X6014D1*
X6801D2*
X7097D1*
Y11891D1*
Y10514D2*
Y10218D1*
X6801D1*
D19*
X5973Y9892D3*
D21*
X4941Y9760D3*
X4346Y11852D2*
D10*
Y12147D1*
X5527D1*
Y11852D1*
X4346Y10474D2*
Y10179D1*
X5527D1*
Y10474D1*
X6099Y5358D2*
X6296Y5456D1*
X4328Y5358D2*
X4623D1*
X4328D2*
Y5653D1*
Y6440D2*
Y6736D1*
X4623D1*
X6001D2*
X6296D1*
Y6440D1*
D23*
X6623Y5611D3*
D25*
X6804Y4657D3*
X4713Y4062D2*
D10*
X4417D1*
Y5243D1*
X4713D1*
X6091Y4062D2*
X6386D1*
Y5243D1*
X6091D1*
D29*
X8794Y7813D3*
X8558Y7639D2*
D14*
X8361Y7442D1*
X6786D2*
X6589D1*
Y7639D1*
Y9214D2*
Y9411D1*
X6786D1*
X8361D2*
X8558D1*
Y9214D1*
X6557Y7060D2*
D49*
X6528Y7051D1*
X6500Y7034D1*
X6485Y7017D1*
Y6982D1*
X6500Y6965D1*
X6528Y6948D1*
X6557Y6939D1*
X6600Y6930D1*
X6672D1*
X6715Y6939D1*
X6744Y6948D1*
X6772Y6965D1*
X6787Y6982D1*
Y7017D1*
X6772Y7034D1*
X6744Y7051D1*
X6715Y7060D1*
X6543Y7099D2*
X6528Y7116D1*
X6486Y7142D1*
X6787D1*
X7538Y5978D2*
X7529Y6006D1*
X7512Y6035D1*
X7495Y6049D1*
X7461D1*
X7443Y6035D1*
X7426Y6006D1*
X7417Y5978D1*
X7409Y5934D1*
Y5862D1*
X7417Y5820D1*
X7426Y5791D1*
X7443Y5762D1*
X7461Y5748D1*
X7495D1*
X7512Y5762D1*
X7529Y5791D1*
X7538Y5820D1*
X7586Y5977D2*
Y5991D1*
X7595Y6020D1*
X7603Y6035D1*
X7621Y6049D1*
X7655D1*
X7672Y6035D1*
X7681Y6020D1*
X7689Y5991D1*
Y5963D1*
X7681Y5934D1*
X7663Y5891D1*
X7577Y5748D1*
X7698D1*
X8090Y5143D2*
X8082Y5172D1*
X8065Y5201D1*
X8047Y5215D1*
X8013D1*
X7996Y5201D1*
X7979Y5172D1*
X7970Y5143D1*
X7961Y5100D1*
Y5028D1*
X7970Y4985D1*
X7979Y4956D1*
X7996Y4928D1*
X8013Y4913D1*
X8047D1*
X8065Y4928D1*
X8082Y4956D1*
X8090Y4985D1*
X8147Y5214D2*
X8242D1*
X8190Y5100D1*
X8216D1*
X8233Y5085D1*
X8242Y5071D1*
X8250Y5028D1*
Y5000D1*
X8242Y4956D1*
X8225Y4928D1*
X8199Y4913D1*
X8173D1*
X8147Y4928D1*
X8139Y4942D1*
X8130Y4971D1*
X8488Y4454D2*
Y4152D1*
X8548D1*
X8574Y4167D1*
X8591Y4195D1*
X8600Y4224D1*
X8608Y4267D1*
Y4339D1*
X8600Y4382D1*
X8591Y4411D1*
X8574Y4439D1*
X8548Y4454D1*
X8488D1*
X8647Y4396D2*
X8665Y4411D1*
X8691Y4453D1*
Y4152D1*
X9942Y4477D2*
Y4175D1*
X10002D1*
X10028Y4190D1*
X10046Y4218D1*
X10054Y4247D1*
X10063Y4290D1*
Y4362D1*
X10054Y4405D1*
X10046Y4434D1*
X10028Y4462D1*
X10002Y4477D1*
X9942D1*
X10111Y4405D2*
Y4419D1*
X10119Y4448D1*
X10128Y4462D1*
X10145Y4476D1*
X10180D1*
X10197Y4462D1*
X10205Y4448D1*
X10214Y4419D1*
Y4391D1*
X10205Y4362D1*
X10188Y4319D1*
X10102Y4175D1*
X10223D1*
X10618Y11717D2*
Y11415D1*
X10678D1*
X10704Y11430D1*
X10721Y11458D1*
X10730Y11487D1*
X10738Y11530D1*
Y11602D1*
X10730Y11645D1*
X10721Y11674D1*
X10704Y11703D1*
X10678Y11717D1*
X10618D1*
X10795Y11716D2*
X10890D1*
X10838Y11602D1*
X10864D1*
X10881Y11587D1*
X10890Y11573D1*
X10898Y11530D1*
Y11502D1*
X10890Y11458D1*
X10873Y11430D1*
X10847Y11415D1*
X10821D1*
X10795Y11430D1*
X10787Y11444D1*
X10778Y11473D1*
X7588Y11572D2*
Y11270D1*
X7648D1*
X7674Y11285D1*
X7691Y11313D1*
X7700Y11342D1*
X7709Y11385D1*
Y11457D1*
X7700Y11500D1*
X7691Y11529D1*
X7674Y11557D1*
X7648Y11572D1*
X7588D1*
X7834Y11270D2*
Y11571D1*
X7748Y11371D1*
X7877D1*
X7102Y11577D2*
Y11275D1*
X7163D1*
X7188Y11290D1*
X7206Y11318D1*
X7214Y11347D1*
X7223Y11390D1*
Y11462D1*
X7214Y11505D1*
X7206Y11534D1*
X7188Y11562D1*
X7163Y11577D1*
X7102D1*
X7365Y11576D2*
X7280D1*
X7271Y11447D1*
X7280Y11462D1*
X7305Y11476D1*
X7331D1*
X7357Y11462D1*
X7374Y11433D1*
X7383Y11390D1*
Y11362D1*
X7374Y11318D1*
X7357Y11290D1*
X7331Y11275D1*
X7305D1*
X7280Y11290D1*
X7271Y11304D1*
X7262Y11333D1*
X4008Y11621D2*
Y11319D1*
X4069D1*
X4095Y11334D1*
X4112Y11362D1*
X4120Y11391D1*
X4129Y11434D1*
Y11506D1*
X4120Y11549D1*
X4112Y11577D1*
X4095Y11606D1*
X4069Y11621D1*
X4008D1*
X4272Y11577D2*
X4263Y11606D1*
X4237Y11620D1*
X4220D1*
X4194Y11606D1*
X4177Y11563D1*
X4168Y11491D1*
Y11420D1*
X4177Y11362D1*
X4194Y11333D1*
X4220Y11319D1*
X4229D1*
X4254Y11333D1*
X4272Y11362D1*
X4280Y11405D1*
Y11420D1*
X4272Y11463D1*
X4254Y11491D1*
X4229Y11506D1*
X4220D1*
X4194Y11491D1*
X4177Y11463D1*
X4168Y11420D1*
X3950Y6197D2*
Y5896D1*
X4010D1*
X4036Y5911D1*
X4054Y5939D1*
X4062Y5968D1*
X4071Y6011D1*
Y6083D1*
X4062Y6126D1*
X4054Y6154D1*
X4036Y6183D1*
X4010Y6197D1*
X3950D1*
X4144Y5896D2*
X4231Y6197D1*
X4110D1*
X4038Y4371D2*
Y4069D1*
X4098D1*
X4124Y4084D1*
X4141Y4113D1*
X4150Y4141D1*
X4159Y4184D1*
Y4256D1*
X4150Y4299D1*
X4141Y4328D1*
X4124Y4357D1*
X4098Y4371D1*
X4038D1*
X4241D2*
X4215Y4356D1*
X4206Y4328D1*
Y4299D1*
X4215Y4270D1*
X4232Y4256D1*
X4267Y4242D1*
X4293Y4227D1*
X4310Y4198D1*
X4318Y4170D1*
Y4127D1*
X4310Y4098D1*
X4301Y4084D1*
X4275Y4069D1*
X4241D1*
X4215Y4084D1*
X4206Y4098D1*
X4198Y4127D1*
Y4170D1*
X4206Y4198D1*
X4224Y4227D1*
X4249Y4242D1*
X4284Y4256D1*
X4301Y4270D1*
X4310Y4299D1*
Y4328D1*
X4301Y4356D1*
X4275Y4371D1*
X4241D1*
X7496Y6243D2*
Y6320D1*
X7481Y6346D1*
X7467Y6355D1*
X7438Y6363D1*
X7409D1*
X7381Y6355D1*
X7366Y6346D1*
X7352Y6320D1*
Y6243D1*
X7653D1*
X7496Y6303D2*
X7653Y6363D1*
X7410Y6402D2*
X7395Y6420D1*
X7352Y6446D1*
X7653D1*
X6214Y7899D2*
Y7976D1*
X6199Y8002D1*
X6185Y8011D1*
X6156Y8020D1*
X6127D1*
X6099Y8011D1*
X6084Y8002D1*
X6070Y7976D1*
Y7899D1*
X6371D1*
X6214Y7959D2*
X6371Y8020D1*
X6142Y8068D2*
X6128D1*
X6099Y8076D1*
X6085Y8085D1*
X6070Y8102D1*
Y8137D1*
X6085Y8154D1*
X6099Y8162D1*
X6128Y8171D1*
X6156D1*
X6185Y8162D1*
X6228Y8145D1*
X6371Y8059D1*
Y8180D1*
X7416Y10001D2*
Y9786D1*
X7425Y9743D1*
X7442Y9714D1*
X7468Y9699D1*
X7485D1*
X7511Y9714D1*
X7528Y9743D1*
X7537Y9786D1*
Y10001D1*
X7576Y9943D2*
X7594Y9958D1*
X7620Y10001D1*
Y9699D1*
X10282Y9930D2*
D50*
X10263Y9968D1*
X10234Y9987D1*
X10196D1*
X10167Y9968D1*
X10148Y9930D1*
Y9892D1*
X10158Y9853D1*
X10167Y9834D1*
X10186Y9815D1*
X10244Y9777D1*
X10263Y9758D1*
X10273Y9738D1*
X10282Y9700D1*
Y9643D1*
X10263Y9605D1*
X10234Y9585D1*
X10196D1*
X10167Y9605D1*
X10148Y9643D1*
X10326Y9987D2*
Y9585D1*
X10504Y9987D2*
Y9585D1*
X10370Y9987D1*
Y9585D1*
X9970Y9110D2*
X9951Y9149D1*
X9922Y9168D1*
X9884D1*
X9855Y9149D1*
X9836Y9110D1*
Y9072D1*
X9846Y9034D1*
X9855Y9015D1*
X9874Y8996D1*
X9932Y8957D1*
X9951Y8938D1*
X9960Y8919D1*
X9970Y8881D1*
Y8823D1*
X9951Y8785D1*
X9922Y8766D1*
X9884D1*
X9855Y8785D1*
X9836Y8823D1*
X10157Y9072D2*
X10148Y9110D1*
X10128Y9149D1*
X10109Y9168D1*
X10071D1*
X10052Y9149D1*
X10033Y9110D1*
X10023Y9072D1*
X10014Y9015D1*
Y8919D1*
X10023Y8862D1*
X10033Y8823D1*
X10052Y8785D1*
X10071Y8766D1*
X10109D1*
X10128Y8785D1*
X10148Y8823D1*
X10157Y8862D1*
X10201Y9168D2*
Y8766D1*
X10316D1*
X10359Y9168D2*
Y8766D1*
X10493Y9168D2*
X10359Y8900D1*
X10407Y8996D2*
X10493Y8766D1*
X9944Y7926D2*
Y8327D1*
X9868Y7926D1*
X9791Y8327D1*
Y7926D1*
X10045Y8327D2*
X10026Y8308D1*
X10007Y8270D1*
X9997Y8232D1*
X9988Y8174D1*
Y8079D1*
X9997Y8021D1*
X10007Y7983D1*
X10026Y7945D1*
X10045Y7926D1*
X10084D1*
X10103Y7945D1*
X10122Y7983D1*
X10131Y8021D1*
X10141Y8079D1*
Y8174D1*
X10131Y8232D1*
X10122Y8270D1*
X10103Y8308D1*
X10084Y8327D1*
X10045D1*
X10185D2*
Y7926D1*
X10252D1*
X10280Y7945D1*
X10299Y7983D1*
X10309Y8021D1*
X10319Y8079D1*
Y8174D1*
X10309Y8232D1*
X10299Y8270D1*
X10280Y8308D1*
X10252Y8327D1*
X10185D1*
X10486D2*
X10362D1*
Y7926D1*
X10486D1*
X10362Y8136D2*
X10439D1*
X9665Y7592D2*
Y7190D1*
X9751D1*
X9780Y7209D1*
X9790Y7228D1*
X9799Y7266D1*
Y7324D1*
X9790Y7362D1*
X9780Y7381D1*
X9751Y7400D1*
X9780Y7420D1*
X9790Y7439D1*
X9799Y7477D1*
Y7515D1*
X9790Y7553D1*
X9780Y7572D1*
X9751Y7592D1*
X9665D1*
Y7400D2*
X9751D1*
X9843Y7592D2*
Y7190D1*
X9958D1*
X10155D2*
X10078Y7592D1*
X10001Y7190D1*
X10030Y7324D2*
X10126D1*
X10332Y7592D2*
Y7190D1*
X10198Y7592D1*
Y7190D1*
X10376Y7592D2*
Y7190D1*
X10510Y7592D2*
X10376Y7324D1*
X10424Y7420D2*
X10510Y7190D1*
X4382Y9617D2*
X4516Y9215D1*
Y9617D2*
X4382Y9215D1*
X4684Y9617D2*
X4560D1*
Y9215D1*
X4684D1*
X4560Y9426D2*
X4636D1*
X4728D2*
X4814D1*
X4843Y9445D1*
X4852Y9464D1*
X4862Y9502D1*
Y9541D1*
X4852Y9579D1*
X4843Y9598D1*
X4814Y9617D1*
X4728D1*
Y9215D1*
X4795Y9426D2*
X4862Y9215D1*
X4906Y9426D2*
X4992D1*
X5020Y9445D1*
X5030Y9464D1*
X5040Y9502D1*
Y9541D1*
X5030Y9579D1*
X5020Y9598D1*
X4992Y9617D1*
X4906D1*
Y9215D1*
X4973Y9426D2*
X5040Y9215D1*
X4483Y9116D2*
X4617Y8714D1*
Y9116D2*
X4483Y8714D1*
X4661Y9116D2*
Y8714D1*
X4776D1*
X4973D2*
X4896Y9116D1*
X4819Y8714D1*
X4848Y8848D2*
X4944D1*
X5083Y9116D2*
Y8714D1*
X5016Y9116D2*
X5150D1*
X4583Y8056D2*
X4564Y8095D1*
X4535Y8114D1*
X4497D1*
X4468Y8095D1*
X4449Y8056D1*
Y8018D1*
X4459Y7980D1*
X4468Y7961D1*
X4487Y7942D1*
X4545Y7903D1*
X4564Y7884D1*
X4574Y7865D1*
X4583Y7827D1*
Y7769D1*
X4564Y7731D1*
X4535Y7712D1*
X4497D1*
X4468Y7731D1*
X4449Y7769D1*
X4684Y8114D2*
X4665Y8095D1*
X4646Y8056D1*
X4636Y8018D1*
X4627Y7961D1*
Y7865D1*
X4636Y7808D1*
X4646Y7769D1*
X4665Y7731D1*
X4684Y7712D1*
X4723D1*
X4742Y7731D1*
X4761Y7769D1*
X4770Y7808D1*
X4780Y7865D1*
Y7961D1*
X4770Y8018D1*
X4761Y8056D1*
X4742Y8095D1*
X4723Y8114D1*
X4684D1*
X4824D2*
Y7827D1*
X4833Y7769D1*
X4852Y7731D1*
X4881Y7712D1*
X4900D1*
X4929Y7731D1*
X4948Y7769D1*
X4958Y7827D1*
Y8114D1*
X5068D2*
Y7712D1*
X5001Y8114D2*
X5135D1*
X4604Y7156D2*
X4594Y7194D1*
X4575Y7233D1*
X4556Y7252D1*
X4518D1*
X4498Y7233D1*
X4479Y7194D1*
X4470Y7156D1*
X4460Y7099D1*
Y7003D1*
X4470Y6946D1*
X4479Y6907D1*
X4498Y6869D1*
X4518Y6850D1*
X4556D1*
X4575Y6869D1*
X4594Y6907D1*
X4604Y6946D1*
Y7003D1*
X4556D1*
X4781Y7194D2*
X4762Y7233D1*
X4734Y7252D1*
X4695D1*
X4667Y7233D1*
X4647Y7194D1*
Y7156D1*
X4657Y7118D1*
X4667Y7099D1*
X4686Y7080D1*
X4743Y7041D1*
X4762Y7022D1*
X4772Y7003D1*
X4781Y6965D1*
Y6907D1*
X4762Y6869D1*
X4734Y6850D1*
X4695D1*
X4667Y6869D1*
X4647Y6907D1*
X4969Y7156D2*
X4959Y7194D1*
X4940Y7233D1*
X4921Y7252D1*
X4883D1*
X4863Y7233D1*
X4844Y7194D1*
X4835Y7156D1*
X4825Y7099D1*
Y7003D1*
X4835Y6946D1*
X4844Y6907D1*
X4863Y6869D1*
X4883Y6850D1*
X4921D1*
X4940Y6869D1*
X4959Y6907D1*
X4969Y6946D1*
X5012Y7252D2*
Y6850D1*
X5127D1*
X5171Y7252D2*
Y6850D1*
X5305Y7252D2*
X5171Y6984D1*
X5219Y7080D2*
X5305Y6850D1*
X7561Y4833D2*
X7637Y4431D1*
X7714Y4833D1*
X7901Y4737D2*
X7892Y4775D1*
X7872Y4814D1*
X7853Y4833D1*
X7815D1*
X7796Y4814D1*
X7777Y4775D1*
X7767Y4737D1*
X7758Y4680D1*
Y4584D1*
X7767Y4527D1*
X7777Y4488D1*
X7796Y4450D1*
X7815Y4431D1*
X7853D1*
X7872Y4450D1*
X7892Y4488D1*
X7901Y4527D1*
X8088Y4737D2*
X8079Y4775D1*
X8060Y4814D1*
X8041Y4833D1*
X8002D1*
X7983Y4814D1*
X7964Y4775D1*
X7954Y4737D1*
X7945Y4680D1*
Y4584D1*
X7954Y4527D1*
X7964Y4488D1*
X7983Y4450D1*
X8002Y4431D1*
X8041D1*
X8060Y4450D1*
X8079Y4488D1*
X8088Y4527D1*
X7173Y4750D2*
X7163Y4788D1*
X7144Y4827D1*
X7125Y4846D1*
X7087D1*
X7067Y4827D1*
X7048Y4788D1*
X7039Y4750D1*
X7029Y4693D1*
Y4597D1*
X7039Y4540D1*
X7048Y4501D1*
X7067Y4463D1*
X7087Y4444D1*
X7125D1*
X7144Y4463D1*
X7163Y4501D1*
X7173Y4540D1*
Y4597D1*
X7125D1*
X7350Y4846D2*
Y4444D1*
X7216Y4846D1*
Y4444D1*
X7394Y4846D2*
Y4444D1*
X7461D1*
X7490Y4463D1*
X7509Y4501D1*
X7518Y4540D1*
X7528Y4597D1*
Y4693D1*
X7518Y4750D1*
X7509Y4788D1*
X7490Y4827D1*
X7461Y4846D1*
X7394D1*
X5346Y7158D2*
X5308Y7120D1*
X5289Y7063D1*
Y6986D1*
X5308Y6929D1*
X5346Y6890D1*
X5385D1*
X5423Y6910D1*
X5442Y6929D1*
X5461Y6967D1*
X5499Y7082D1*
X5518Y7120D1*
X5538Y7139D1*
X5576Y7158D1*
X5633D1*
X5671Y7120D1*
X5691Y7063D1*
Y6986D1*
X5671Y6929D1*
X5633Y6890D1*
X5423Y7341D2*
X5442Y7303D1*
X5480Y7265D1*
X5538Y7246D1*
X5576D1*
X5633Y7265D1*
X5671Y7303D1*
X5691Y7341D1*
Y7399D1*
X5671Y7437D1*
X5633Y7475D1*
X5576Y7495D1*
X5538D1*
X5480Y7475D1*
X5442Y7437D1*
X5423Y7399D1*
Y7341D1*
X5480Y7812D2*
X5442Y7773D1*
X5423Y7735D1*
Y7678D1*
X5442Y7640D1*
X5480Y7601D1*
X5538Y7582D1*
X5576D1*
X5633Y7601D1*
X5671Y7640D1*
X5691Y7678D1*
Y7735D1*
X5671Y7773D1*
X5633Y7812D1*
X5289Y7899D2*
X5308Y7918D1*
X5289Y7938D1*
X5270Y7918D1*
X5289Y7899D1*
X5423Y7918D2*
X5691D1*
X5423Y8255D2*
X5691D1*
X5480D2*
X5442Y8217D1*
X5423Y8178D1*
Y8121D1*
X5442Y8083D1*
X5480Y8045D1*
X5538Y8025D1*
X5576D1*
X5633Y8045D1*
X5671Y8083D1*
X5691Y8121D1*
Y8178D1*
X5671Y8217D1*
X5633Y8255D1*
X5289Y8342D2*
X5691D1*
X5289Y8783D2*
X5691D1*
Y9012D1*
X5289Y9100D2*
X5308Y9119D1*
X5289Y9138D1*
X5270Y9119D1*
X5289Y9100D1*
X5423Y9119D2*
X5691D1*
X5442Y9455D2*
X5748D1*
X5805Y9436D1*
X5825Y9417D1*
X5844Y9379D1*
Y9321D1*
X5825Y9283D1*
X5499Y9455D2*
X5461Y9417D1*
X5442Y9379D1*
Y9321D1*
X5461Y9283D1*
X5499Y9245D1*
X5557Y9226D1*
X5595D1*
X5652Y9245D1*
X5691Y9283D1*
X5710Y9321D1*
Y9379D1*
X5691Y9417D1*
X5652Y9455D1*
X5289Y9543D2*
X5691D1*
X5499D2*
X5442Y9600D1*
X5423Y9638D1*
Y9696D1*
X5442Y9734D1*
X5499Y9753D1*
X5691D1*
X5289Y9898D2*
X5614D1*
X5671Y9917D1*
X5691Y9955D1*
Y9993D1*
X5423Y9840D2*
Y9974D1*
X6253Y8453D2*
Y8625D1*
X6233Y8682D1*
X6214Y8702D1*
X6176Y8721D1*
X6138D1*
X6100Y8702D1*
X6080Y8682D1*
X6061Y8625D1*
Y8453D1*
X6463D1*
X6253Y8587D2*
X6463Y8721D1*
X6062Y8923D2*
X6081Y8866D1*
X6138Y8827D1*
X6234Y8808D1*
X6291D1*
X6386Y8827D1*
X6444Y8866D1*
X6463Y8923D1*
Y8961D1*
X6444Y9019D1*
X6386Y9057D1*
X6291Y9076D1*
X6234D1*
X6138Y9057D1*
X6081Y9019D1*
X6062Y8961D1*
Y8923D1*
X6138Y9057D2*
X6386Y8827D1*
X6425Y9183D2*
X6444Y9164D1*
X6463Y9183D1*
X6444Y9202D1*
X6425Y9183D1*
X6062Y9519D2*
Y9328D1*
X6234Y9309D1*
X6214Y9328D1*
X6195Y9385D1*
Y9442D1*
X6214Y9500D1*
X6253Y9538D1*
X6310Y9557D1*
X6348D1*
X6405Y9538D1*
X6444Y9500D1*
X6463Y9442D1*
Y9385D1*
X6444Y9328D1*
X6425Y9309D1*
X6386Y9290D1*
X8674Y7142D2*
Y6893D1*
X9076D1*
X8865D2*
Y7046D1*
X8808Y7249D2*
X9076Y7364D1*
X9152Y7326D1*
X9191Y7287D1*
X9210Y7249D1*
Y7230D1*
X8808Y7479D2*
X9076Y7364D1*
X8674Y7566D2*
X9076D1*
X8865D2*
X8827Y7605D1*
X8808Y7643D1*
Y7700D1*
X8827Y7738D1*
X8865Y7777D1*
X8923Y7796D1*
X8961D1*
X9018Y7777D1*
X9056Y7738D1*
X9076Y7700D1*
Y7643D1*
X9056Y7605D1*
X9018Y7566D1*
X8923Y7883D2*
Y8113D1*
X8884D1*
X8846Y8094D1*
X8827Y8075D1*
X8808Y8036D1*
Y7979D1*
X8827Y7941D1*
X8865Y7902D1*
X8923Y7883D1*
X8961D1*
X9018Y7902D1*
X9056Y7941D1*
X9076Y7979D1*
Y8036D1*
X9056Y8075D1*
X9018Y8113D1*
X8808Y8200D2*
X9076D1*
X8923D2*
X8865Y8220D1*
X8827Y8258D1*
X8808Y8296D1*
Y8354D1*
X8674Y8794D2*
X9076D1*
Y9023D1*
X8808Y9340D2*
X9076D1*
X8865D2*
X8827Y9302D1*
X8808Y9264D1*
Y9207D1*
X8827Y9168D1*
X8865Y9130D1*
X8923Y9111D1*
X8961D1*
X9018Y9130D1*
X9056Y9168D1*
X9076Y9207D1*
Y9264D1*
X9056Y9302D1*
X9018Y9340D1*
X8674Y9428D2*
X9076D1*
X8865D2*
X8827Y9466D1*
X8808Y9504D1*
Y9562D1*
X8827Y9600D1*
X8865Y9638D1*
X8923Y9657D1*
X8961D1*
X9018Y9638D1*
X9056Y9600D1*
X9076Y9562D1*
Y9504D1*
X9056Y9466D1*
X9018Y9428D1*
X8865Y9955D2*
X8827Y9936D1*
X8808Y9879D1*
Y9821D1*
X8827Y9764D1*
X8865Y9745D1*
X8904Y9764D1*
X8923Y9802D1*
X8942Y9898D1*
X8961Y9936D1*
X8999Y9955D1*
X9018D1*
X9056Y9936D1*
X9076Y9879D1*
Y9821D1*
X9056Y9764D1*
X9018Y9745D1*
X9356Y8326D2*
X9337D1*
X9298Y8345D1*
X9279Y8364D1*
X9260Y8402D1*
Y8479D1*
X9279Y8517D1*
X9298Y8536D1*
X9337Y8555D1*
X9375D1*
X9413Y8536D1*
X9470Y8498D1*
X9662Y8306D1*
Y8574D1*
X9260Y8777D2*
X9279Y8719D1*
X9337Y8681D1*
X9432Y8662D1*
X9490D1*
X9585Y8681D1*
X9643Y8719D1*
X9662Y8777D1*
Y8815D1*
X9643Y8872D1*
X9585Y8910D1*
X9490Y8930D1*
X9432D1*
X9337Y8910D1*
X9279Y8872D1*
X9260Y8815D1*
Y8777D1*
X9337Y8910D2*
X9585Y8681D1*
X9337Y9017D2*
X9317Y9056D1*
X9260Y9113D1*
X9662D1*
Y9392D2*
X9260D1*
X9528Y9201D1*
Y9488D1*
M02*
