G04 DipTrace 2.4.0.2*
%INSocialLight.gbl*%
%MOIN*%
%ADD13C,0.01*%
%ADD14C,0.006*%
%ADD15C,0.013*%
%ADD20C,0.028*%
%ADD32R,0.08X0.0669*%
%ADD33R,0.0669X0.08*%
%ADD34C,0.028*%
%FSLAX44Y44*%
G04*
G70*
G90*
G75*
G01*
%LNBottom*%
%LPD*%
X7375Y6131D2*
D13*
Y6568D1*
X7957Y7150D1*
X7132Y7969D2*
Y8269D1*
X7134Y8270D1*
X7375Y6131D2*
X7176D1*
X6742Y5697D1*
Y5184D1*
X6762Y5163D1*
X4425Y6032D2*
X5598D1*
X6622Y7056D1*
X7839Y5828D2*
Y4519D1*
X6402D1*
Y6836D1*
X6622Y7056D1*
X10150Y4616D2*
Y5554D1*
Y6667D1*
X10267Y6785D1*
X10216Y9687D2*
Y10610D1*
X9663Y11162D1*
X9168Y11658D1*
X7432D1*
X5632D1*
X4331D1*
X4324Y11665D1*
Y10632D1*
X4871Y10084D1*
X5107Y9848D1*
X5632Y11673D2*
Y11658D1*
X7432Y11673D2*
Y11658D1*
X9662Y11161D2*
X9663Y11162D1*
X10148Y5554D2*
X10150D1*
X4425Y6032D2*
Y5402D1*
X4361Y5339D1*
Y4565D1*
X4291Y4495D1*
X10150Y4616D2*
X9684D1*
X9347Y4278D1*
X8880D1*
X8852Y4306D1*
X8112D1*
X7853Y4565D1*
X6070Y8046D2*
X5185D1*
X4558Y8674D1*
X6389Y7784D2*
X4090D1*
X3937Y7937D1*
X6445Y7375D2*
X5921D1*
X5494Y6948D1*
X3948D1*
X3937Y6937D1*
X8493Y6900D2*
Y6826D1*
X8717Y7050D1*
X10824D1*
X10937Y6937D1*
X3937Y8937D2*
X5666D1*
X6750Y7853D1*
Y7694D1*
X6941Y7503D1*
X8334D1*
X8399Y7438D1*
X9222Y7634D2*
X9634D1*
X10937Y8937D1*
X8767Y7902D2*
Y8084D1*
X9109Y8426D1*
X9426D1*
X10937Y9937D1*
X9127Y8063D2*
Y7909D1*
X8958Y7740D1*
Y7435D1*
X9045Y7348D1*
X10348D1*
X10937Y7937D1*
D34*
X6389Y7784D3*
X6445Y7375D3*
X7957Y7150D3*
X8493Y6900D3*
X8399Y7438D3*
X9222Y7634D3*
X8767Y7902D3*
X9127Y8063D3*
X6070Y8046D3*
X4558Y8674D3*
X6622Y7056D3*
X4425Y6032D3*
X7839Y5828D3*
X7375Y6131D3*
X5107Y9848D3*
X10216Y9687D3*
X10267Y6785D3*
X10150Y4616D3*
X4324Y11665D3*
X9168Y11658D3*
X4361Y5339D3*
X4291Y4495D3*
X4681Y9704D3*
X5632Y11673D3*
X7432D3*
X9662Y11161D3*
X10148Y5554D3*
X9347Y4278D3*
X8852Y4306D3*
X7853Y4565D3*
X6742Y5697D3*
X6762Y5163D3*
X4876Y10090D3*
X5128Y9543D3*
X4185Y5712D3*
X4197Y4934D3*
X10304Y4258D3*
X9827Y4235D3*
X10711Y4242D3*
X3973Y12361D2*
D14*
X10893D1*
X3972Y12303D2*
X10893D1*
X3972Y12244D2*
X10893D1*
X3972Y12186D2*
X10893D1*
X3971Y12127D2*
X10893D1*
X3971Y12068D2*
X10894D1*
X3971Y12010D2*
X10894D1*
X3971Y11951D2*
X10894D1*
X3970Y11893D2*
X10895D1*
X3970Y11834D2*
X10895D1*
X3970Y11776D2*
X10895D1*
X3970Y11717D2*
X10896D1*
X3969Y11659D2*
X10896D1*
X3969Y11600D2*
X10896D1*
X3969Y11542D2*
X10897D1*
X3969Y11483D2*
X10897D1*
X3968Y11425D2*
X10897D1*
X3968Y11366D2*
X10898D1*
X3968Y11308D2*
X10898D1*
X3968Y11249D2*
X10898D1*
X3967Y11190D2*
X10899D1*
X3967Y11132D2*
X10899D1*
X3967Y11073D2*
X5060D1*
X9592D2*
X10899D1*
X3967Y11015D2*
X5060D1*
X9592D2*
X10900D1*
X3967Y10956D2*
X5060D1*
X9592D2*
X10900D1*
X3967Y10898D2*
X5059D1*
X9592D2*
X10900D1*
X3967Y10839D2*
X5059D1*
X9592D2*
X10901D1*
X3967Y10781D2*
X5058D1*
X9592D2*
X10901D1*
X3966Y10722D2*
X5058D1*
X9593D2*
X10901D1*
X3966Y10664D2*
X5058D1*
X9593D2*
X10902D1*
X3966Y10605D2*
X5057D1*
X9593D2*
X10902D1*
X3966Y10547D2*
X5057D1*
X9593D2*
X10902D1*
X3965Y10488D2*
X5057D1*
X9593D2*
X10902D1*
X3965Y10430D2*
X5056D1*
X9593D2*
X10903D1*
X3965Y10371D2*
X5056D1*
X9593D2*
X10903D1*
X4435Y10313D2*
X5055D1*
X9593D2*
X10439D1*
X4435Y10254D2*
X5078D1*
X9593D2*
X10439D1*
X4435Y10195D2*
X5110D1*
X9593D2*
X10439D1*
X4435Y10137D2*
X5141D1*
X9593D2*
X10439D1*
X4435Y10078D2*
X5173D1*
X9594D2*
X10439D1*
X4435Y10020D2*
X5204D1*
X9594D2*
X10439D1*
X4435Y9961D2*
X5236D1*
X9594D2*
X10439D1*
X4435Y9903D2*
X5266D1*
X9594D2*
X10439D1*
X4435Y9844D2*
X5298D1*
X9594D2*
X10439D1*
X4435Y9786D2*
X5330D1*
X9594D2*
X10439D1*
X4435Y9727D2*
X5361D1*
X9594D2*
X10439D1*
X4435Y9669D2*
X5393D1*
X9594D2*
X10439D1*
X4435Y9610D2*
X5424D1*
X9594D2*
X10404D1*
X4435Y9552D2*
X5455D1*
X9594D2*
X10345D1*
X3961Y9493D2*
X5486D1*
X9594D2*
X10286D1*
X3961Y9435D2*
X5518D1*
X9595D2*
X10228D1*
X9595Y9376D2*
X10169D1*
X9595Y9318D2*
X10111D1*
X9595Y9259D2*
X10052D1*
X9595Y9200D2*
X9993D1*
X9595Y9142D2*
X9935D1*
X9595Y9083D2*
X9876D1*
X9595Y9025D2*
X9818D1*
X9595Y8966D2*
X9759D1*
X9595Y8908D2*
X9700D1*
X9595Y8849D2*
X9642D1*
X3958Y10364D2*
X4429D1*
Y9510D1*
X3955D1*
Y9397D1*
X5527Y9427D1*
X5065Y10292D1*
X5061Y10305D1*
X5066Y11080D1*
X5081Y11105D1*
X5096Y11109D1*
X9556D1*
X9581Y11094D1*
X9586Y11079D1*
X9589Y8791D1*
X10256Y9458D1*
X10445Y9646D1*
Y10364D1*
X10909D1*
X10904Y11309D1*
X10898Y12395D1*
X3967Y12420D1*
X3959Y10363D1*
X6644Y7503D2*
X6734D1*
X6672Y7444D2*
X6793D1*
X6682Y7386D2*
X6854D1*
X6677Y7327D2*
X6953D1*
X6657Y7269D2*
X6908D1*
X5964Y7210D2*
X6275D1*
X6615D2*
X6864D1*
X5906Y7152D2*
X6373D1*
X6516D2*
X6819D1*
X5847Y7093D2*
X6775D1*
X5788Y7035D2*
X6730D1*
X5730Y6976D2*
X6686D1*
X5671Y6918D2*
X6641D1*
X5613Y6859D2*
X6597D1*
X8733D2*
X10438D1*
X4435Y6801D2*
X6552D1*
X8708D2*
X10438D1*
X4435Y6742D2*
X6507D1*
X8669D2*
X10438D1*
X4435Y6683D2*
X6464D1*
X8583D2*
X10438D1*
X4435Y6625D2*
X6419D1*
X8439D2*
X10438D1*
X4435Y6566D2*
X6412D1*
X8380D2*
X10438D1*
X3981Y6508D2*
X6412D1*
X8321D2*
X10906D1*
X3980Y6449D2*
X6412D1*
X8262D2*
X10906D1*
X3980Y6391D2*
X6411D1*
X8203D2*
X10906D1*
X3980Y6332D2*
X6411D1*
X8144D2*
X10907D1*
X3980Y6274D2*
X6411D1*
X8085D2*
X10907D1*
X3980Y6215D2*
X6410D1*
X8026D2*
X10907D1*
X3980Y6157D2*
X6410D1*
X7967D2*
X10907D1*
X3979Y6098D2*
X6410D1*
X7908D2*
X10907D1*
X3979Y6040D2*
X6409D1*
X7848D2*
X10907D1*
X3979Y5981D2*
X6409D1*
X7789D2*
X10908D1*
X3979Y5923D2*
X6409D1*
X7739D2*
X10908D1*
X3979Y5864D2*
X6409D1*
X7737D2*
X10908D1*
X3979Y5806D2*
X6408D1*
X7736D2*
X10908D1*
X3978Y5747D2*
X6408D1*
X7734D2*
X10908D1*
X3978Y5688D2*
X6408D1*
X7732D2*
X10908D1*
X3978Y5630D2*
X6407D1*
X7730D2*
X10909D1*
X3978Y5571D2*
X6407D1*
X7728D2*
X10909D1*
X3978Y5513D2*
X6407D1*
X7727D2*
X10909D1*
X3978Y5454D2*
X6406D1*
X7725D2*
X10909D1*
X3977Y5396D2*
X6406D1*
X7723D2*
X10909D1*
X3977Y5337D2*
X6406D1*
X7721D2*
X10909D1*
X3977Y5279D2*
X6406D1*
X7719D2*
X10910D1*
X3977Y5220D2*
X6406D1*
X7717D2*
X10910D1*
X3977Y5162D2*
X6406D1*
X7715D2*
X10910D1*
X3977Y5103D2*
X6405D1*
X7714D2*
X10910D1*
X3976Y5045D2*
X6405D1*
X7712D2*
X10910D1*
X3976Y4986D2*
X6405D1*
X7710D2*
X10910D1*
X3976Y4928D2*
X6405D1*
X7708D2*
X10910D1*
X3976Y4869D2*
X6404D1*
X7707D2*
X10911D1*
X3976Y4810D2*
X6404D1*
X7705D2*
X10911D1*
X3976Y4752D2*
X6404D1*
X7703D2*
X10911D1*
X3975Y4693D2*
X10911D1*
X3975Y4635D2*
X10911D1*
X3975Y4576D2*
X10911D1*
X3975Y4518D2*
X10912D1*
X3975Y4459D2*
X10912D1*
X3975Y4401D2*
X6504D1*
X7369D2*
X7504D1*
X8370D2*
X10912D1*
X3975Y4342D2*
X6504D1*
X7369D2*
X7504D1*
X8370D2*
X10912D1*
X3974Y4284D2*
X6504D1*
X7369D2*
X7504D1*
X8370D2*
X10912D1*
X3974Y4225D2*
X6504D1*
X7369D2*
X7504D1*
X8370D2*
X10912D1*
X3974Y4167D2*
X6504D1*
X7369D2*
X7504D1*
X8370D2*
X10912D1*
X3974Y4108D2*
X6504D1*
X7369D2*
X7504D1*
X8370D2*
X10912D1*
X3974Y4050D2*
X6504D1*
X7369D2*
X7504D1*
X8370D2*
X10912D1*
X3974Y3991D2*
X6504D1*
X7369D2*
X7504D1*
X8370D2*
X10912D1*
X4429Y6806D2*
Y6510D1*
X3974D1*
Y6195D1*
X3968Y3960D1*
X6510Y3958D1*
Y4429D1*
X7364D1*
Y3957D1*
X7511D1*
X7510Y4007D1*
Y4429D1*
X8364D1*
Y3956D1*
X10919Y3954D1*
X10912Y6511D1*
X10711Y6510D1*
X10445D1*
Y6907D1*
X8775D1*
X8720Y6852D1*
X8708Y6812D1*
X8695Y6785D1*
X8678Y6760D1*
X8659Y6737D1*
X8637Y6717D1*
X8612Y6700D1*
X8586Y6687D1*
X8558Y6677D1*
X8528Y6670D1*
X8499Y6667D1*
X8477Y6668D1*
X7734Y5932D1*
X7697Y4738D1*
X7681Y4713D1*
X7667Y4709D1*
X6439Y4702D1*
X6414Y4717D1*
X6409Y4732D1*
X6419Y6607D1*
X6425Y6624D1*
X6984Y7361D1*
X6941Y7360D1*
X6912Y7363D1*
X6883Y7373D1*
X6863Y7384D1*
X6820Y7423D1*
X6708Y7535D1*
X6632Y7513D1*
X6650Y7483D1*
X6662Y7456D1*
X6671Y7427D1*
X6676Y7398D1*
X6677Y7375D1*
X6675Y7345D1*
X6669Y7315D1*
X6660Y7287D1*
X6647Y7260D1*
X6630Y7235D1*
X6611Y7212D1*
X6589Y7192D1*
X6564Y7175D1*
X6537Y7162D1*
X6509Y7151D1*
X6480Y7145D1*
X6450Y7142D1*
X6420Y7143D1*
X6391Y7148D1*
X6362Y7157D1*
X6335Y7170D1*
X6310Y7185D1*
X6287Y7204D1*
X6261Y7233D1*
X5980Y7232D1*
X5595Y6847D1*
X5572Y6828D1*
X5545Y6815D1*
X5523Y6808D1*
X5465Y6805D1*
X4429D1*
X7510Y4429D2*
D15*
X7937Y3937D1*
X8364Y4429D2*
X7937Y3937D1*
X5208Y10916D2*
D14*
X9453D1*
X5208Y10858D2*
X9453D1*
X5209Y10799D2*
X9453D1*
X5210Y10741D2*
X9453D1*
X5210Y10682D2*
X9454D1*
X5211Y10624D2*
X9454D1*
X5212Y10565D2*
X9454D1*
X5212Y10507D2*
X9454D1*
X5212Y10448D2*
X9454D1*
X5212Y10389D2*
X9454D1*
X5213Y10331D2*
X9454D1*
X5226Y10272D2*
X9454D1*
X5257Y10214D2*
X9454D1*
X5289Y10155D2*
X9454D1*
X5322Y10097D2*
X9455D1*
X5354Y10038D2*
X9455D1*
X5386Y9980D2*
X9455D1*
X5418Y9921D2*
X9455D1*
X5450Y9863D2*
X9455D1*
X5483Y9804D2*
X9455D1*
X5514Y9746D2*
X9455D1*
X5547Y9687D2*
X9455D1*
X5579Y9629D2*
X9455D1*
X5611Y9570D2*
X9455D1*
X5644Y9512D2*
X9456D1*
X5666Y9453D2*
X9456D1*
X5683Y9394D2*
X9456D1*
X5699Y9336D2*
X9456D1*
X5307Y9277D2*
X9456D1*
X4442Y9219D2*
X9456D1*
X4442Y9160D2*
X9456D1*
X4442Y9102D2*
X9456D1*
X5767Y9043D2*
X9456D1*
X5826Y8985D2*
X9456D1*
X5884Y8926D2*
X9457D1*
X5943Y8868D2*
X9457D1*
X6002Y8809D2*
X9457D1*
X6060Y8751D2*
X9457D1*
X6119Y8692D2*
X9457D1*
X6176Y8634D2*
X9403D1*
X6235Y8575D2*
X9345D1*
X6293Y8517D2*
X8992D1*
X6352Y8458D2*
X8934D1*
X6411Y8399D2*
X8875D1*
X6469Y8341D2*
X8817D1*
X6528Y8282D2*
X8758D1*
X6586Y8224D2*
X8700D1*
X6645Y8165D2*
X8644D1*
X6704Y8107D2*
X8621D1*
X6762Y8048D2*
X8581D1*
X6821Y7990D2*
X8546D1*
X6875Y7931D2*
X8531D1*
X6897Y7873D2*
X8531D1*
X6898Y7814D2*
X8546D1*
X6910Y7756D2*
X8582D1*
X6968Y7697D2*
X8653D1*
X8522Y7639D2*
X8810D1*
X8589Y7580D2*
X8810D1*
X8622Y7522D2*
X8810D1*
X8636Y7463D2*
X8810D1*
X8635Y7404D2*
X8813D1*
X7147Y7346D2*
X8180D1*
X8619D2*
X8815D1*
X7102Y7287D2*
X8216D1*
X8582D2*
X8785D1*
X7058Y7229D2*
X8292D1*
X8507D2*
X8756D1*
X7013Y7170D2*
X8635D1*
X6969Y7112D2*
X8393D1*
X6925Y7053D2*
X8312D1*
X6881Y6995D2*
X8275D1*
X6836Y6936D2*
X8257D1*
X6792Y6878D2*
X8255D1*
X6747Y6819D2*
X8269D1*
X6703Y6761D2*
X8301D1*
X6658Y6702D2*
X8272D1*
X6614Y6644D2*
X8213D1*
X6569Y6585D2*
X8155D1*
X6562Y6526D2*
X8096D1*
X6561Y6468D2*
X8037D1*
X6560Y6409D2*
X7979D1*
X6559Y6351D2*
X7921D1*
X6557Y6292D2*
X7863D1*
X6556Y6234D2*
X7804D1*
X6555Y6175D2*
X7745D1*
X6554Y6117D2*
X7687D1*
X6552Y6058D2*
X7628D1*
X6551Y6000D2*
X7599D1*
X6550Y5941D2*
X7595D1*
X6550Y5883D2*
X7591D1*
X6550Y5824D2*
X7589D1*
X6550Y5766D2*
X7585D1*
X6550Y5707D2*
X7581D1*
X6550Y5649D2*
X7578D1*
X6550Y5590D2*
X7575D1*
X6550Y5531D2*
X7571D1*
X6550Y5473D2*
X7568D1*
X6550Y5414D2*
X7564D1*
X6550Y5356D2*
X7561D1*
X6550Y5297D2*
X7557D1*
X6550Y5239D2*
X7554D1*
X6550Y5180D2*
X7550D1*
X6550Y5122D2*
X7547D1*
X6550Y5063D2*
X7544D1*
X6550Y5005D2*
X7540D1*
X6550Y4946D2*
X7536D1*
X6550Y4888D2*
X7532D1*
X4436Y9256D2*
Y9081D1*
X4931D1*
X5665D1*
X5694Y9078D1*
X5723Y9069D1*
X5743Y9057D1*
X5786Y9018D1*
X6851Y7954D1*
X6870Y7930D1*
X6883Y7904D1*
X6890Y7881D1*
X6893Y7823D1*
Y7768D1*
X7013Y7644D1*
X7241Y7645D1*
X8296Y7646D1*
X8323Y7657D1*
X8352Y7665D1*
X8382Y7669D1*
X8411Y7670D1*
X8441Y7666D1*
X8470Y7659D1*
X8498Y7648D1*
X8524Y7633D1*
X8548Y7616D1*
X8570Y7595D1*
X8589Y7572D1*
X8604Y7546D1*
X8617Y7519D1*
X8625Y7491D1*
X8630Y7461D1*
X8631Y7438D1*
X8629Y7408D1*
X8624Y7378D1*
X8614Y7350D1*
X8601Y7323D1*
X8585Y7298D1*
X8565Y7275D1*
X8543Y7255D1*
X8519Y7238D1*
X8492Y7225D1*
X8464Y7215D1*
X8435Y7208D1*
X8405Y7205D1*
X8375Y7207D1*
X8346Y7212D1*
X8317Y7220D1*
X8290Y7233D1*
X8264Y7248D1*
X8241Y7267D1*
X8221Y7289D1*
X8203Y7313D1*
X8189Y7339D1*
X8180Y7361D1*
X7945Y7360D1*
X7151D1*
X6799Y6895D1*
X6557Y6577D1*
X6544Y5849D1*
Y4834D1*
X7538Y4850D1*
X7540Y4912D1*
X7606Y6020D1*
X7615Y6039D1*
X8320Y6744D1*
X8297Y6775D1*
X8282Y6801D1*
X8271Y6829D1*
X8264Y6858D1*
X8261Y6888D1*
Y6918D1*
X8265Y6947D1*
X8273Y6976D1*
X8285Y7004D1*
X8300Y7030D1*
X8318Y7053D1*
X8340Y7074D1*
X8363Y7093D1*
X8389Y7108D1*
X8417Y7119D1*
X8446Y7127D1*
X8475Y7131D1*
X8505Y7132D1*
X8535Y7128D1*
X8580Y7114D1*
X8616Y7150D1*
X8639Y7169D1*
X8666Y7183D1*
X8689Y7189D1*
X8744Y7192D1*
X8833Y7369D1*
X8827Y7379D1*
X8818Y7407D1*
X8815Y7465D1*
Y7676D1*
X8803Y7672D1*
X8773Y7670D1*
X8743Y7671D1*
X8714Y7676D1*
X8685Y7685D1*
X8658Y7697D1*
X8633Y7713D1*
X8609Y7732D1*
X8589Y7753D1*
X8571Y7778D1*
X8557Y7804D1*
X8546Y7832D1*
X8539Y7861D1*
X8535Y7890D1*
X8536Y7920D1*
X8540Y7950D1*
X8548Y7979D1*
X8560Y8006D1*
X8575Y8032D1*
X8593Y8056D1*
X8625Y8085D1*
X8627Y8108D1*
X8635Y8137D1*
X8649Y8163D1*
X8688Y8206D1*
X9009Y8527D1*
X9032Y8546D1*
X9058Y8559D1*
X9081Y8566D1*
X9139Y8568D1*
X9344Y8569D1*
X9462Y8687D1*
X9459Y10962D1*
X5202Y10975D1*
X5208Y10293D1*
X5650Y9488D1*
X5696Y9324D1*
X5689Y9296D1*
X5695Y9304D1*
X5672Y9287D1*
X4437Y9256D1*
D20*
X7734Y8270D3*
X7434D3*
X7134D3*
X8034D3*
X7732Y8570D3*
X7432D3*
X7132D3*
X8032D3*
X7732Y7969D3*
X7432D3*
X7132D3*
X8032D3*
X7732Y8870D3*
X7432D3*
X7132D3*
X8032D3*
D32*
X3937Y8937D3*
Y9937D3*
X10937D3*
Y8937D3*
X3937Y7937D3*
Y6937D3*
X10937Y7937D3*
Y6937D3*
D33*
X7937Y3937D3*
X6937D3*
M02*
