G04 DipTrace 2.4.0.2*
%IN2dB-SBLE.gbo*%
%MOIN*%
%ADD66C,0.0062*%
%FSLAX44Y44*%
G04*
G70*
G90*
G75*
G01*
%LNBotSilk*%
%LPD*%
X10200Y9408D2*
D66*
X10399D1*
Y9006D1*
Y9216D2*
X10276D1*
X10085Y9274D2*
X9994Y9006D1*
X10024Y8929D1*
X10055Y8891D1*
X10085Y8872D1*
X10101D1*
X9902Y9274D2*
X9994Y9006D1*
X9803Y9408D2*
Y9006D1*
Y9216D2*
X9772Y9255D1*
X9742Y9274D1*
X9696D1*
X9665Y9255D1*
X9634Y9216D1*
X9619Y9159D1*
Y9121D1*
X9634Y9063D1*
X9665Y9025D1*
X9696Y9006D1*
X9742D1*
X9772Y9025D1*
X9803Y9063D1*
X9520Y9159D2*
X9337D1*
Y9197D1*
X9352Y9236D1*
X9367Y9255D1*
X9398Y9274D1*
X9444D1*
X9474Y9255D1*
X9505Y9216D1*
X9520Y9159D1*
Y9121D1*
X9505Y9063D1*
X9474Y9025D1*
X9444Y9006D1*
X9398D1*
X9367Y9025D1*
X9337Y9063D1*
X9238Y9274D2*
Y9006D1*
Y9159D2*
X9222Y9216D1*
X9192Y9255D1*
X9161Y9274D1*
X9115D1*
X8705Y9408D2*
Y9006D1*
X8522D1*
X8239Y9274D2*
Y9006D1*
Y9216D2*
X8270Y9255D1*
X8301Y9274D1*
X8346D1*
X8377Y9255D1*
X8407Y9216D1*
X8423Y9159D1*
Y9121D1*
X8407Y9063D1*
X8377Y9025D1*
X8346Y9006D1*
X8301D1*
X8270Y9025D1*
X8239Y9063D1*
X8141Y9408D2*
Y9006D1*
Y9216D2*
X8110Y9255D1*
X8079Y9274D1*
X8033D1*
X8003Y9255D1*
X7972Y9216D1*
X7957Y9159D1*
Y9121D1*
X7972Y9063D1*
X8003Y9025D1*
X8033Y9006D1*
X8079D1*
X8110Y9025D1*
X8141Y9063D1*
X7690Y9216D2*
X7705Y9255D1*
X7751Y9274D1*
X7797D1*
X7843Y9255D1*
X7858Y9216D1*
X7843Y9178D1*
X7812Y9159D1*
X7736Y9140D1*
X7705Y9121D1*
X7690Y9082D1*
Y9063D1*
X7705Y9025D1*
X7751Y9006D1*
X7797D1*
X7843Y9025D1*
X7858Y9063D1*
X7280Y9408D2*
Y9006D1*
X7181Y9274D2*
Y9006D1*
Y9197D2*
X7135Y9255D1*
X7104Y9274D1*
X7059D1*
X7028Y9255D1*
X7013Y9197D1*
Y9006D1*
X6730Y9216D2*
X6761Y9255D1*
X6792Y9274D1*
X6837D1*
X6868Y9255D1*
X6898Y9216D1*
X6914Y9159D1*
Y9121D1*
X6898Y9063D1*
X6868Y9025D1*
X6837Y9006D1*
X6792D1*
X6761Y9025D1*
X6730Y9063D1*
X6616Y9044D2*
X6631Y9025D1*
X6616Y9006D1*
X6600Y9025D1*
X6616Y9044D1*
X11490Y8350D2*
X11471D1*
X11432Y8334D1*
X11413Y8319D1*
X11394Y8288D1*
Y8227D1*
X11413Y8197D1*
X11432Y8182D1*
X11471Y8166D1*
X11509D1*
X11547Y8182D1*
X11604Y8212D1*
X11796Y8365D1*
Y8151D1*
X11394Y7868D2*
X11796D1*
X11585D2*
X11547Y7899D1*
X11528Y7930D1*
Y7976D1*
X11547Y8006D1*
X11585Y8037D1*
X11643Y8052D1*
X11681D1*
X11738Y8037D1*
X11776Y8006D1*
X11796Y7976D1*
Y7930D1*
X11776Y7899D1*
X11738Y7868D1*
X11394Y7770D2*
X11796D1*
Y7632D1*
X11776Y7586D1*
X11757Y7570D1*
X11719Y7555D1*
X11662D1*
X11623Y7570D1*
X11604Y7586D1*
X11585Y7632D1*
X11566Y7586D1*
X11547Y7570D1*
X11509Y7555D1*
X11470D1*
X11432Y7570D1*
X11413Y7586D1*
X11394Y7632D1*
Y7770D1*
X11585D2*
Y7632D1*
X11595Y7456D2*
Y7280D1*
X11451Y6966D2*
X11413Y6997D1*
X11394Y7043D1*
Y7104D1*
X11413Y7150D1*
X11451Y7181D1*
X11489D1*
X11528Y7165D1*
X11547Y7150D1*
X11566Y7120D1*
X11604Y7028D1*
X11623Y6997D1*
X11643Y6982D1*
X11681Y6966D1*
X11738D1*
X11776Y6997D1*
X11796Y7043D1*
Y7104D1*
X11776Y7150D1*
X11738Y7181D1*
X11394Y6556D2*
X11796D1*
Y6419D1*
X11776Y6373D1*
X11757Y6357D1*
X11719Y6342D1*
X11662D1*
X11623Y6357D1*
X11604Y6373D1*
X11585Y6419D1*
X11566Y6373D1*
X11547Y6357D1*
X11509Y6342D1*
X11470D1*
X11432Y6357D1*
X11413Y6373D1*
X11394Y6419D1*
Y6556D1*
X11585D2*
Y6419D1*
X11394Y6243D2*
X11796D1*
Y6060D1*
X11394Y5762D2*
Y5961D1*
X11796D1*
Y5762D1*
X11585Y5961D2*
Y5839D1*
M02*
