G04 DipTrace 2.4.0.2*
%IN2dB-bBLE.gbo*%
%MOIN*%
%ADD66C,0.0062*%
%FSLAX44Y44*%
G04*
G70*
G90*
G75*
G01*
%LNBotSilk*%
%LPD*%
X10298Y9810D2*
D66*
X10497D1*
Y9408D1*
Y9619D2*
X10374D1*
X10183Y9676D2*
X10092Y9408D1*
X10122Y9332D1*
X10153Y9293D1*
X10183Y9274D1*
X10199D1*
X10000Y9676D2*
X10092Y9408D1*
X9901Y9810D2*
Y9408D1*
Y9619D2*
X9870Y9657D1*
X9840Y9676D1*
X9794D1*
X9763Y9657D1*
X9733Y9619D1*
X9717Y9561D1*
Y9523D1*
X9733Y9466D1*
X9763Y9428D1*
X9794Y9408D1*
X9840D1*
X9870Y9428D1*
X9901Y9466D1*
X9619Y9561D2*
X9435D1*
Y9600D1*
X9450Y9638D1*
X9465Y9657D1*
X9496Y9676D1*
X9542D1*
X9573Y9657D1*
X9603Y9619D1*
X9619Y9561D1*
Y9523D1*
X9603Y9466D1*
X9573Y9428D1*
X9542Y9408D1*
X9496D1*
X9465Y9428D1*
X9435Y9466D1*
X9336Y9676D2*
Y9408D1*
Y9561D2*
X9321Y9619D1*
X9290Y9657D1*
X9259Y9676D1*
X9213D1*
X8804Y9810D2*
Y9408D1*
X8620D1*
X8338Y9676D2*
Y9408D1*
Y9619D2*
X8368Y9657D1*
X8399Y9676D1*
X8444D1*
X8475Y9657D1*
X8506Y9619D1*
X8521Y9561D1*
Y9523D1*
X8506Y9466D1*
X8475Y9428D1*
X8444Y9408D1*
X8399D1*
X8368Y9428D1*
X8338Y9466D1*
X8239Y9810D2*
Y9408D1*
Y9619D2*
X8208Y9657D1*
X8178Y9676D1*
X8132D1*
X8101Y9657D1*
X8070Y9619D1*
X8055Y9561D1*
Y9523D1*
X8070Y9466D1*
X8101Y9428D1*
X8132Y9408D1*
X8178D1*
X8208Y9428D1*
X8239Y9466D1*
X7788Y9619D2*
X7803Y9657D1*
X7849Y9676D1*
X7895D1*
X7941Y9657D1*
X7956Y9619D1*
X7941Y9581D1*
X7910Y9561D1*
X7834Y9542D1*
X7803Y9523D1*
X7788Y9485D1*
Y9466D1*
X7803Y9428D1*
X7849Y9408D1*
X7895D1*
X7941Y9428D1*
X7956Y9466D1*
X7378Y9810D2*
Y9408D1*
X7279Y9676D2*
Y9408D1*
Y9600D2*
X7233Y9657D1*
X7203Y9676D1*
X7157D1*
X7126Y9657D1*
X7111Y9600D1*
Y9408D1*
X6828Y9619D2*
X6859Y9657D1*
X6890Y9676D1*
X6935D1*
X6966Y9657D1*
X6997Y9619D1*
X7012Y9561D1*
Y9523D1*
X6997Y9466D1*
X6966Y9428D1*
X6935Y9408D1*
X6890D1*
X6859Y9428D1*
X6828Y9466D1*
X6714Y9447D2*
X6729Y9427D1*
X6714Y9408D1*
X6699Y9427D1*
X6714Y9447D1*
X11338Y8252D2*
X11319D1*
X11280Y8237D1*
X11261Y8221D1*
X11242Y8191D1*
Y8129D1*
X11261Y8099D1*
X11280Y8084D1*
X11319Y8068D1*
X11357D1*
X11395Y8084D1*
X11452Y8114D1*
X11644Y8267D1*
Y8053D1*
X11242Y7771D2*
X11644D1*
X11433D2*
X11395Y7801D1*
X11376Y7832D1*
Y7878D1*
X11395Y7908D1*
X11433Y7939D1*
X11491Y7954D1*
X11529D1*
X11586Y7939D1*
X11624Y7908D1*
X11644Y7878D1*
Y7832D1*
X11624Y7801D1*
X11586Y7771D1*
X11242Y7672D2*
X11644D1*
Y7534D1*
X11624Y7488D1*
X11605Y7473D1*
X11567Y7457D1*
X11510D1*
X11471Y7473D1*
X11452Y7488D1*
X11433Y7534D1*
X11414Y7488D1*
X11395Y7473D1*
X11357Y7457D1*
X11318D1*
X11280Y7473D1*
X11261Y7488D1*
X11242Y7534D1*
Y7672D1*
X11433D2*
Y7534D1*
X11443Y7359D2*
Y7182D1*
X11242Y7083D2*
X11644D1*
X11433D2*
X11395Y7052D1*
X11376Y7022D1*
Y6976D1*
X11395Y6945D1*
X11433Y6915D1*
X11491Y6899D1*
X11529D1*
X11586Y6915D1*
X11624Y6945D1*
X11644Y6976D1*
Y7022D1*
X11624Y7052D1*
X11586Y7083D1*
X11242Y6489D2*
X11644D1*
Y6351D1*
X11624Y6305D1*
X11605Y6290D1*
X11567Y6275D1*
X11510D1*
X11471Y6290D1*
X11452Y6305D1*
X11433Y6351D1*
X11414Y6305D1*
X11395Y6290D1*
X11357Y6275D1*
X11318D1*
X11280Y6290D1*
X11261Y6305D1*
X11242Y6351D1*
Y6489D1*
X11433D2*
Y6351D1*
X11242Y6176D2*
X11644D1*
Y5993D1*
X11242Y5695D2*
Y5894D1*
X11644D1*
Y5695D1*
X11433Y5894D2*
Y5771D1*
M02*
