G04 DipTrace 2.4.0.2*
%INfemale.gbo*%
%MOMM*%
%ADD57C,0.118*%
%ADD58C,0.314*%
%FSLAX53Y53*%
G04*
G71*
G90*
G75*
G01*
%LNBotSilk*%
%LPD*%
X26905Y68228D2*
D57*
Y67462D1*
X26708D1*
X26642Y67499D1*
X26620Y67536D1*
X26599Y67608D1*
Y67717D1*
X26620Y67791D1*
X26642Y67827D1*
X26708Y67863D1*
X26642Y67900D1*
X26620Y67936D1*
X26599Y68009D1*
Y68082D1*
X26620Y68155D1*
X26642Y68192D1*
X26708Y68228D1*
X26905D1*
Y67863D2*
X26708D1*
X26458Y68081D2*
X26414Y68118D1*
X26348Y68227D1*
Y67462D1*
X39296Y45053D2*
D58*
Y43789D1*
X37254D1*
X38324D2*
Y44566D1*
X38616Y45780D2*
X37254Y46361D1*
X36866Y46168D1*
X36670Y45973D1*
X36574Y45780D1*
Y45681D1*
X38616Y46945D2*
X37254Y46361D1*
X39296Y47573D2*
X37254D1*
X38324D2*
X38519Y47768D1*
X38616Y47961D1*
Y48253D1*
X38519Y48447D1*
X38324Y48642D1*
X38032Y48739D1*
X37838D1*
X37546Y48642D1*
X37353Y48447D1*
X37254Y48253D1*
Y47961D1*
X37353Y47768D1*
X37546Y47573D1*
X38032Y49366D2*
Y50532D1*
X38227D1*
X38422Y50435D1*
X38519Y50339D1*
X38616Y50143D1*
Y49851D1*
X38519Y49658D1*
X38324Y49463D1*
X38032Y49366D1*
X37838D1*
X37546Y49463D1*
X37353Y49658D1*
X37254Y49851D1*
Y50143D1*
X37353Y50339D1*
X37546Y50532D1*
X38616Y51159D2*
X37254D1*
X38032D2*
X38324Y51258D1*
X38519Y51451D1*
X38616Y51647D1*
Y51939D1*
X39296Y54541D2*
X37254D1*
Y55707D1*
X38616Y57500D2*
X37254D1*
X38324D2*
X38519Y57307D1*
X38616Y57112D1*
Y56822D1*
X38519Y56627D1*
X38324Y56433D1*
X38032Y56335D1*
X37838D1*
X37546Y56433D1*
X37353Y56627D1*
X37254Y56822D1*
Y57112D1*
X37353Y57307D1*
X37546Y57500D1*
X39296Y58128D2*
X37254D1*
X38324D2*
X38519Y58323D1*
X38616Y58516D1*
Y58808D1*
X38519Y59001D1*
X38324Y59197D1*
X38032Y59293D1*
X37838D1*
X37546Y59197D1*
X37353Y59001D1*
X37254Y58808D1*
Y58516D1*
X37353Y58323D1*
X37546Y58128D1*
X38324Y60990D2*
X38519Y60894D1*
X38616Y60602D1*
Y60310D1*
X38519Y60018D1*
X38324Y59921D1*
X38130Y60018D1*
X38032Y60213D1*
X37935Y60698D1*
X37838Y60894D1*
X37643Y60990D1*
X37546D1*
X37353Y60894D1*
X37254Y60602D1*
Y60310D1*
X37353Y60018D1*
X37546Y59921D1*
X18682Y46420D2*
X16640D1*
X18682Y45739D2*
Y47100D1*
Y47728D2*
X18585Y47824D1*
X18682Y47923D1*
X18781Y47824D1*
X18682Y47728D1*
X18001Y47824D2*
X16640D1*
X18001Y48551D2*
X16640D1*
X17613D2*
X17905Y48843D1*
X18001Y49038D1*
Y49328D1*
X17905Y49523D1*
X17613Y49620D1*
X16640D1*
X18001Y50346D2*
X16640Y50928D1*
X16251Y50735D1*
X16056Y50539D1*
X15959Y50346D1*
Y50247D1*
X18001Y51512D2*
X16640Y50928D1*
X18682Y52139D2*
X16640D1*
Y53305D1*
X18682Y55195D2*
Y53933D1*
X16640D1*
Y55195D1*
X17709Y53933D2*
Y54710D1*
X18682Y55822D2*
X16640D1*
Y56503D1*
X16739Y56795D1*
X16932Y56990D1*
X17127Y57087D1*
X17417Y57184D1*
X17905D1*
X18197Y57087D1*
X18390Y56990D1*
X18585Y56795D1*
X18682Y56503D1*
Y55822D1*
X21653Y46253D2*
Y47127D1*
X21752Y47419D1*
X21849Y47518D1*
X22042Y47614D1*
X22237D1*
X22430Y47518D1*
X22529Y47419D1*
X22626Y47127D1*
Y46253D1*
X20584D1*
X21653Y46934D2*
X20584Y47614D1*
X21361Y48242D2*
Y49407D1*
X21557D1*
X21752Y49311D1*
X21849Y49214D1*
X21945Y49019D1*
Y48727D1*
X21849Y48534D1*
X21653Y48338D1*
X21361Y48242D1*
X21168D1*
X20876Y48338D1*
X20683Y48534D1*
X20584Y48727D1*
Y49019D1*
X20683Y49214D1*
X20876Y49407D1*
X21945Y50035D2*
X20584Y50619D1*
X21945Y51201D1*
X20779Y51925D2*
X20681Y51828D1*
X20584Y51925D1*
X20681Y52023D1*
X20779Y51925D1*
X22623Y55210D2*
X22527Y54918D1*
X22235Y54723D1*
X21750Y54626D1*
X21458D1*
X20973Y54723D1*
X20681Y54918D1*
X20584Y55210D1*
Y55403D1*
X20681Y55695D1*
X20973Y55888D1*
X21458Y55987D1*
X21750D1*
X22235Y55888D1*
X22527Y55695D1*
X22623Y55403D1*
Y55210D1*
X22235Y55888D2*
X20973Y54723D1*
X20779Y56711D2*
X20681Y56615D1*
X20584Y56711D1*
X20681Y56810D1*
X20779Y56711D1*
X20584Y58410D2*
X22623D1*
X21265Y57437D1*
Y58895D1*
X34971Y48971D2*
X35068D1*
X35263Y49067D1*
X35360Y49164D1*
X35456Y49359D1*
Y49748D1*
X35360Y49941D1*
X35263Y50037D1*
X35068Y50136D1*
X34875D1*
X34679Y50037D1*
X34389Y49844D1*
X33417Y48872D1*
Y50233D1*
X35456Y51444D2*
X35360Y51152D1*
X35068Y50957D1*
X34583Y50860D1*
X34291D1*
X33805Y50957D1*
X33513Y51152D1*
X33417Y51444D1*
Y51637D1*
X33513Y51929D1*
X33805Y52123D1*
X34291Y52221D1*
X34583D1*
X35068Y52123D1*
X35360Y51929D1*
X35456Y51637D1*
Y51444D1*
X35068Y52123D2*
X33805Y50957D1*
X35068Y52849D2*
X35167Y53044D1*
X35456Y53336D1*
X33417D1*
X35456Y55130D2*
Y54159D1*
X34583Y54063D1*
X34679Y54159D1*
X34778Y54451D1*
Y54741D1*
X34679Y55033D1*
X34486Y55228D1*
X34194Y55325D1*
X34001D1*
X33709Y55228D1*
X33513Y55033D1*
X33417Y54741D1*
Y54451D1*
X33513Y54159D1*
X33612Y54063D1*
X33805Y53964D1*
X15348Y46703D2*
Y45439D1*
X13307D1*
X14376D2*
Y46216D1*
X14084Y47331D2*
Y48496D1*
X14279D1*
X14475Y48400D1*
X14571Y48303D1*
X14668Y48108D1*
Y47816D1*
X14571Y47623D1*
X14376Y47427D1*
X14084Y47331D1*
X13891D1*
X13599Y47427D1*
X13406Y47623D1*
X13307Y47816D1*
Y48108D1*
X13406Y48303D1*
X13599Y48496D1*
X14668Y49124D2*
X13307D1*
X14279D2*
X14571Y49416D1*
X14668Y49611D1*
Y49901D1*
X14571Y50096D1*
X14279Y50193D1*
X13307D1*
X14279D2*
X14571Y50485D1*
X14668Y50680D1*
Y50970D1*
X14571Y51166D1*
X14279Y51264D1*
X13307D1*
X14668Y53058D2*
X13307D1*
X14376D2*
X14571Y52864D1*
X14668Y52669D1*
Y52379D1*
X14571Y52184D1*
X14376Y51991D1*
X14084Y51892D1*
X13891D1*
X13599Y51991D1*
X13406Y52184D1*
X13307Y52379D1*
Y52669D1*
X13406Y52864D1*
X13599Y53058D1*
X15348Y53685D2*
X13307D1*
X14084Y54313D2*
Y55478D1*
X14279D1*
X14475Y55382D1*
X14571Y55285D1*
X14668Y55090D1*
Y54798D1*
X14571Y54605D1*
X14376Y54409D1*
X14084Y54313D1*
X13891D1*
X13599Y54409D1*
X13406Y54605D1*
X13307Y54798D1*
Y55090D1*
X13406Y55285D1*
X13599Y55478D1*
M02*
