M48
METRIC,0000.00
T01C0.33
T02C0.9
T03C0.95
T04C2.54
%
T01
X+003228Y+005187
X+003254Y+005016
X+002981Y+005044
X+002606Y+004931
X+002651Y+004720
X+002741Y+004720
X+002741Y+004630
X+002741Y+004540
X+002651Y+004540
X+002651Y+004630
X+002561Y+004630
X+002561Y+004540
X+002561Y+004720
X+003012Y+004639
X+002526Y+005276
X+002509Y+005537
X+002224Y+005866
X+001987Y+005881
X+001894Y+005517
X+002036Y+005213
X+002230Y+004285
X+002470Y+003547
X+002360Y+002354
X+002184Y+002138
X+001760Y+002114
X+001574Y+002117
X+001570Y+002428
X+001760Y+002428
X+002706Y+002266
X+003268Y+002025
X+003559Y+002413
X+003749Y+002420
X+002848Y+001231
X+002658Y+001234
T02
X+002110Y+005370
X+002110Y+005070
T03
X+003126Y+005259
X+003228Y+004751
X+003024Y+004751
T04
X+002663Y+006995
T00
M30
