M48
METRIC,0000.00
T01C0.33
T02C1.1
%
T01
X+002064Y+001869
X+002039Y+002037
X+002133Y+002220
X+002376Y+002079
X+002491Y+002074
X+001860Y+002384
X+001633Y+002127
X+001417Y+001936
X+001473Y+001534
X+002133Y+001059
T02
X+001127Y+001635
X+001000Y+001635
X+001000Y+001381
X+001127Y+001381
X+001127Y+001889
X+001000Y+001889
X+001000Y+002143
X+001127Y+002143
X+002905Y+002143
X+003032Y+002143
X+003032Y+001889
X+002905Y+001889
X+002905Y+001635
X+003032Y+001635
X+003032Y+001381
X+002905Y+001381
T00
M30
