G04 DipTrace 2.4.0.2*
%IN4P-RGB-Strip.gto*%
%MOIN*%
%ADD25C,0.0077*%
%ADD26C,0.0062*%
%FSLAX44Y44*%
G04*
G70*
G90*
G75*
G01*
%LNTopSilk*%
%LPD*%
X4261Y4709D2*
D25*
Y4398D1*
X4764D1*
X4501D2*
Y4589D1*
X4429Y4888D2*
X4764Y5031D1*
X4859Y4984D1*
X4907Y4936D1*
X4931Y4888D1*
Y4864D1*
X4429Y5175D2*
X4764Y5031D1*
X4261Y5329D2*
X4764D1*
X4501D2*
X4452Y5377D1*
X4429Y5425D1*
Y5497D1*
X4452Y5544D1*
X4501Y5592D1*
X4572Y5616D1*
X4620D1*
X4692Y5592D1*
X4739Y5544D1*
X4764Y5497D1*
Y5425D1*
X4739Y5377D1*
X4692Y5329D1*
X4572Y5770D2*
Y6057D1*
X4524D1*
X4476Y6034D1*
X4452Y6010D1*
X4429Y5962D1*
Y5890D1*
X4452Y5842D1*
X4501Y5794D1*
X4572Y5770D1*
X4620D1*
X4692Y5794D1*
X4739Y5842D1*
X4764Y5890D1*
Y5962D1*
X4739Y6010D1*
X4692Y6057D1*
X4429Y6212D2*
X4764D1*
X4572D2*
X4501Y6236D1*
X4452Y6284D1*
X4429Y6332D1*
Y6403D1*
X4261Y7044D2*
X4764D1*
Y7331D1*
X4429Y7772D2*
X4764D1*
X4501D2*
X4452Y7724D1*
X4429Y7676D1*
Y7605D1*
X4452Y7557D1*
X4501Y7509D1*
X4572Y7485D1*
X4620D1*
X4692Y7509D1*
X4739Y7557D1*
X4764Y7605D1*
Y7676D1*
X4739Y7724D1*
X4692Y7772D1*
X4261Y7926D2*
X4764D1*
X4501D2*
X4452Y7974D1*
X4429Y8022D1*
Y8094D1*
X4452Y8141D1*
X4501Y8189D1*
X4572Y8213D1*
X4620D1*
X4692Y8189D1*
X4739Y8141D1*
X4764Y8094D1*
Y8022D1*
X4739Y7974D1*
X4692Y7926D1*
X4501Y8631D2*
X4452Y8607D1*
X4429Y8535D1*
Y8463D1*
X4452Y8391D1*
X4501Y8368D1*
X4548Y8391D1*
X4572Y8439D1*
X4596Y8559D1*
X4620Y8607D1*
X4668Y8631D1*
X4692D1*
X4739Y8607D1*
X4764Y8535D1*
Y8463D1*
X4739Y8391D1*
X4692Y8368D1*
X4261Y9271D2*
X4764D1*
X4429Y9425D2*
X4764D1*
X4524D2*
X4452Y9497D1*
X4429Y9545D1*
Y9617D1*
X4452Y9665D1*
X4524Y9689D1*
X4764D1*
X4501Y10130D2*
X4452Y10082D1*
X4429Y10034D1*
Y9963D1*
X4452Y9915D1*
X4501Y9867D1*
X4572Y9843D1*
X4620D1*
X4692Y9867D1*
X4739Y9915D1*
X4764Y9963D1*
Y10034D1*
X4739Y10082D1*
X4692Y10130D1*
X4716Y10309D2*
X4740Y10285D1*
X4764Y10309D1*
X4740Y10333D1*
X4716Y10309D1*
X8764Y5956D2*
D26*
X8363D1*
X8631Y5764D1*
Y6051D1*
X8573Y6175D2*
Y6347D1*
X8554Y6404D1*
X8535Y6424D1*
X8497Y6443D1*
X8439D1*
X8401Y6424D1*
X8382Y6404D1*
X8363Y6347D1*
Y6175D1*
X8764D1*
X8564Y6566D2*
Y6787D1*
X8554Y6911D2*
Y7083D1*
X8535Y7140D1*
X8516Y7160D1*
X8478Y7179D1*
X8439D1*
X8401Y7160D1*
X8382Y7140D1*
X8363Y7083D1*
Y6911D1*
X8764D1*
X8554Y7045D2*
X8764Y7179D1*
X8458Y7589D2*
X8420Y7570D1*
X8382Y7532D1*
X8363Y7494D1*
Y7417D1*
X8382Y7379D1*
X8420Y7341D1*
X8458Y7321D1*
X8516Y7302D1*
X8612D1*
X8669Y7321D1*
X8707Y7341D1*
X8745Y7379D1*
X8764Y7417D1*
Y7494D1*
X8745Y7532D1*
X8707Y7570D1*
X8669Y7589D1*
X8612D1*
Y7494D1*
X8363Y7713D2*
X8764D1*
Y7885D1*
X8745Y7943D1*
X8726Y7962D1*
X8688Y7981D1*
X8631D1*
X8592Y7962D1*
X8573Y7943D1*
X8554Y7885D1*
X8535Y7943D1*
X8516Y7962D1*
X8478Y7981D1*
X8439D1*
X8401Y7962D1*
X8382Y7943D1*
X8363Y7885D1*
Y7713D1*
X8554D2*
Y7885D1*
X8564Y8104D2*
Y8325D1*
X8420Y8717D2*
X8382Y8679D1*
X8363Y8621D1*
Y8545D1*
X8382Y8487D1*
X8420Y8449D1*
X8458D1*
X8497Y8468D1*
X8516Y8487D1*
X8535Y8525D1*
X8573Y8640D1*
X8592Y8679D1*
X8612Y8698D1*
X8650Y8717D1*
X8707D1*
X8745Y8679D1*
X8764Y8621D1*
Y8545D1*
X8745Y8487D1*
X8707Y8449D1*
X8363Y8898D2*
X8688D1*
X8745Y8917D1*
X8764Y8955D1*
Y8993D1*
X8497Y8840D2*
Y8974D1*
Y9117D2*
X8764D1*
X8612D2*
X8554Y9136D1*
X8516Y9174D1*
X8497Y9213D1*
Y9270D1*
X8363Y9394D2*
X8382Y9413D1*
X8363Y9432D1*
X8343Y9413D1*
X8363Y9394D1*
X8497Y9413D2*
X8764D1*
X8497Y9556D2*
X8898D1*
X8554D2*
X8516Y9594D1*
X8497Y9632D1*
Y9690D1*
X8516Y9728D1*
X8554Y9766D1*
X8612Y9786D1*
X8650D1*
X8707Y9766D1*
X8745Y9728D1*
X8764Y9690D1*
Y9632D1*
X8745Y9594D1*
X8707Y9556D1*
X5065Y4883D2*
D25*
X5280D1*
X5352Y4908D1*
X5376Y4932D1*
X5400Y4979D1*
Y5027D1*
X5376Y5075D1*
X5352Y5099D1*
X5280Y5123D1*
X5065D1*
Y4620D1*
X5232Y4883D2*
X5400Y4620D1*
X5698Y5122D2*
X5626Y5098D1*
X5578Y5027D1*
X5554Y4907D1*
Y4835D1*
X5578Y4716D1*
X5626Y4644D1*
X5698Y4620D1*
X5746D1*
X5817Y4644D1*
X5865Y4716D1*
X5889Y4835D1*
Y4907D1*
X5865Y5027D1*
X5817Y5098D1*
X5746Y5122D1*
X5698D1*
X5865Y5027D2*
X5578Y4716D1*
X6067Y4669D2*
X6044Y4644D1*
X6067Y4620D1*
X6092Y4644D1*
X6067Y4669D1*
X6533Y5122D2*
X6294D1*
X6270Y4907D1*
X6294Y4931D1*
X6366Y4955D1*
X6437D1*
X6509Y4931D1*
X6557Y4883D1*
X6581Y4812D1*
Y4764D1*
X6557Y4692D1*
X6509Y4644D1*
X6437Y4620D1*
X6366D1*
X6294Y4644D1*
X6270Y4669D1*
X6246Y4716D1*
X5111Y10305D2*
Y10329D1*
X5135Y10377D1*
X5159Y10401D1*
X5207Y10425D1*
X5302D1*
X5350Y10401D1*
X5374Y10377D1*
X5398Y10329D1*
Y10281D1*
X5374Y10233D1*
X5326Y10162D1*
X5087Y9923D1*
X5422D1*
X5720Y10425D2*
X5648Y10401D1*
X5600Y10329D1*
X5576Y10210D1*
Y10138D1*
X5600Y10018D1*
X5648Y9946D1*
X5720Y9923D1*
X5767D1*
X5839Y9946D1*
X5887Y10018D1*
X5911Y10138D1*
Y10210D1*
X5887Y10329D1*
X5839Y10401D1*
X5767Y10425D1*
X5720D1*
X5887Y10329D2*
X5600Y10018D1*
X6066Y10329D2*
X6114Y10353D1*
X6185Y10425D1*
Y9923D1*
X6579D2*
Y10425D1*
X6340Y10090D1*
X6699D1*
X5046Y4352D2*
D26*
X5008Y4333D1*
X4950Y4275D1*
Y4677D1*
X4717Y10840D2*
Y10859D1*
X4736Y10898D1*
X4755Y10917D1*
X4794Y10936D1*
X4870D1*
X4908Y10917D1*
X4927Y10898D1*
X4947Y10859D1*
Y10821D1*
X4927Y10783D1*
X4889Y10726D1*
X4698Y10534D1*
X4966D1*
X6896Y10979D2*
X7106D1*
X6991Y10826D1*
X7049D1*
X7087Y10807D1*
X7106Y10788D1*
X7125Y10731D1*
Y10693D1*
X7106Y10635D1*
X7068Y10597D1*
X7010Y10578D1*
X6953D1*
X6896Y10597D1*
X6877Y10616D1*
X6857Y10654D1*
X6927Y4688D2*
Y4286D1*
X7118Y4554D1*
X6831D1*
M02*
