G04 DipTrace 2.4.0.2*
%INUSBBiPower3.gto*%
%MOIN*%
%ADD10C,0.0098*%
%ADD23C,0.006*%
%ADD31O,0.0114X0.012*%
%ADD35O,0.0102X0.0108*%
%ADD37C,0.007*%
%ADD42C,0.0154*%
%ADD44C,0.0157*%
%ADD59O,0.0144X0.0163*%
%ADD88C,0.0046*%
%ADD89C,0.0033*%
%FSLAX44Y44*%
G04*
G70*
G90*
G75*
G01*
%LNTopSilk*%
%LPD*%
X6312Y8553D2*
D10*
X6509D1*
X5053Y8873D2*
D23*
Y8578D1*
Y9070D2*
Y9365D1*
X6037Y9070D2*
Y9365D1*
Y8578D2*
Y8873D1*
D31*
X5840Y9514D3*
X5053Y8578D2*
D23*
X5151D1*
X5939D2*
X6037D1*
Y9365D2*
X5939D1*
X5053D2*
X5151D1*
X5875Y6754D2*
X5816D1*
Y7541D1*
X5875D1*
X6721D2*
X6662D1*
X6721D2*
Y6754D1*
X6662D1*
D35*
X6585Y7780D3*
D42*
X8954Y5920D3*
X9495Y5867D2*
D10*
Y4686D1*
X9810Y5867D2*
Y4686D1*
X9495D2*
X9810D1*
X9495Y5867D2*
X9810D1*
X4786Y3863D2*
X7881D1*
X7790Y5056D2*
Y5170D1*
X4877Y5056D2*
Y5170D1*
Y3863D2*
Y4088D1*
X7790Y3863D2*
Y4088D1*
D44*
X5822Y6225D3*
X4786Y3627D2*
D10*
X7881D1*
X4786Y3863D2*
Y3627D1*
X7881Y3863D2*
Y3627D1*
X9941Y8944D2*
D23*
G02X9941Y8944I30J0D01*
G01*
X9861Y9789D2*
X8171D1*
Y8099D1*
X9861D1*
Y9789D1*
X9106Y6311D2*
D37*
Y6390D1*
Y7099D2*
Y7178D1*
X8200Y7099D2*
Y7178D1*
Y6311D2*
Y6508D1*
X8590Y7335D2*
D23*
X9068D1*
Y8045D2*
X8590D1*
X9719Y7464D2*
Y6986D1*
X10429D2*
Y7464D1*
X7905Y7522D2*
X7352D1*
Y6918D1*
X7905D1*
Y7522D1*
D59*
X7187Y7418D3*
X7238Y6593D2*
D88*
X7209Y6585D1*
X7181Y6567D1*
X7166Y6550D1*
Y6516D1*
X7181Y6498D1*
X7209Y6481D1*
X7238Y6473D1*
X7281Y6464D1*
X7353D1*
X7396Y6473D1*
X7425Y6481D1*
X7453Y6498D1*
X7468Y6516D1*
Y6550D1*
X7453Y6567D1*
X7425Y6585D1*
X7396Y6593D1*
X7167Y6692D2*
X7181Y6666D1*
X7209Y6657D1*
X7238D1*
X7267Y6666D1*
X7281Y6683D1*
X7296Y6718D1*
X7310Y6743D1*
X7339Y6761D1*
X7367Y6769D1*
X7410D1*
X7439Y6761D1*
X7454Y6752D1*
X7468Y6726D1*
Y6692D1*
X7454Y6666D1*
X7439Y6657D1*
X7410Y6649D1*
X7367D1*
X7339Y6657D1*
X7310Y6675D1*
X7296Y6700D1*
X7281Y6735D1*
X7267Y6752D1*
X7238Y6761D1*
X7209D1*
X7181Y6752D1*
X7167Y6726D1*
Y6692D1*
X6880Y7585D2*
X6871Y7614D1*
X6854Y7642D1*
X6837Y7657D1*
X6802D1*
X6785Y7642D1*
X6768Y7614D1*
X6759Y7585D1*
X6751Y7542D1*
Y7470D1*
X6759Y7427D1*
X6768Y7398D1*
X6785Y7370D1*
X6802Y7355D1*
X6837D1*
X6854Y7370D1*
X6871Y7398D1*
X6880Y7427D1*
X7039Y7614D2*
X7030Y7642D1*
X7004Y7656D1*
X6987D1*
X6961Y7642D1*
X6944Y7599D1*
X6935Y7527D1*
Y7456D1*
X6944Y7398D1*
X6961Y7369D1*
X6987Y7355D1*
X6996D1*
X7021Y7369D1*
X7039Y7398D1*
X7047Y7441D1*
Y7456D1*
X7039Y7499D1*
X7021Y7527D1*
X6996Y7542D1*
X6987D1*
X6961Y7527D1*
X6944Y7499D1*
X6935Y7456D1*
X5412Y8387D2*
X5403Y8416D1*
X5386Y8444D1*
X5369Y8459D1*
X5334D1*
X5317Y8444D1*
X5300Y8416D1*
X5291Y8387D1*
X5283Y8344D1*
Y8272D1*
X5291Y8229D1*
X5300Y8200D1*
X5317Y8172D1*
X5334Y8157D1*
X5369D1*
X5386Y8172D1*
X5403Y8200D1*
X5412Y8229D1*
X5502Y8157D2*
X5588Y8458D1*
X5467D1*
X8991Y4254D2*
X8962Y4245D1*
X8933Y4228D1*
X8919Y4211D1*
Y4176D1*
X8933Y4159D1*
X8962Y4142D1*
X8991Y4133D1*
X9034Y4124D1*
X9106D1*
X9149Y4133D1*
X9177Y4142D1*
X9206Y4159D1*
X9220Y4176D1*
Y4211D1*
X9206Y4228D1*
X9177Y4245D1*
X9149Y4254D1*
X8977Y4309D2*
X8962Y4327D1*
X8919Y4352D1*
X9220D1*
X8912Y6211D2*
X8904Y6240D1*
X8887Y6268D1*
X8869Y6283D1*
X8835D1*
X8818Y6268D1*
X8801Y6240D1*
X8792Y6211D1*
X8783Y6168D1*
Y6096D1*
X8792Y6053D1*
X8801Y6024D1*
X8818Y5996D1*
X8835Y5981D1*
X8869D1*
X8887Y5996D1*
X8904Y6024D1*
X8912Y6053D1*
X8985Y6282D2*
X9080D1*
X9028Y6168D1*
X9054D1*
X9071Y6153D1*
X9080Y6139D1*
X9089Y6096D1*
Y6068D1*
X9080Y6024D1*
X9063Y5996D1*
X9037Y5981D1*
X9011D1*
X8985Y5996D1*
X8977Y6010D1*
X8968Y6039D1*
X8526Y5574D2*
X8498Y5565D1*
X8469Y5548D1*
X8455Y5531D1*
Y5496D1*
X8469Y5479D1*
X8498Y5462D1*
X8526Y5453D1*
X8569Y5444D1*
X8641D1*
X8684Y5453D1*
X8713Y5462D1*
X8742Y5479D1*
X8756Y5496D1*
Y5531D1*
X8742Y5548D1*
X8713Y5565D1*
X8684Y5574D1*
X8455Y5732D2*
Y5646D1*
X8584Y5638D1*
X8570Y5646D1*
X8555Y5672D1*
Y5698D1*
X8570Y5724D1*
X8598Y5741D1*
X8641Y5750D1*
X8670D1*
X8713Y5741D1*
X8742Y5724D1*
X8756Y5698D1*
Y5672D1*
X8742Y5646D1*
X8727Y5638D1*
X8699Y5629D1*
X6556Y9044D2*
X6858D1*
Y9105D1*
X6843Y9130D1*
X6815Y9148D1*
X6786Y9156D1*
X6743Y9165D1*
X6671D1*
X6628Y9156D1*
X6599Y9148D1*
X6570Y9130D1*
X6556Y9105D1*
Y9044D1*
X6614Y9220D2*
X6599Y9238D1*
X6557Y9264D1*
X6858D1*
X4820Y6225D2*
X4897D1*
X4923Y6240D1*
X4932Y6254D1*
X4940Y6283D1*
Y6312D1*
X4932Y6340D1*
X4923Y6355D1*
X4897Y6369D1*
X4820D1*
Y6068D1*
X4880Y6225D2*
X4940Y6068D1*
X4996Y6311D2*
X5013Y6326D1*
X5039Y6369D1*
Y6068D1*
X5193Y6546D2*
X5270D1*
X5296Y6561D1*
X5305Y6575D1*
X5314Y6603D1*
Y6632D1*
X5305Y6661D1*
X5296Y6675D1*
X5270Y6690D1*
X5193D1*
Y6388D1*
X5253Y6546D2*
X5314Y6388D1*
X5378Y6618D2*
Y6632D1*
X5386Y6661D1*
X5395Y6675D1*
X5412Y6689D1*
X5447D1*
X5464Y6675D1*
X5472Y6661D1*
X5481Y6632D1*
Y6603D1*
X5472Y6575D1*
X5455Y6532D1*
X5369Y6388D1*
X5490D1*
X4417Y7182D2*
X4494D1*
X4520Y7197D1*
X4529Y7211D1*
X4537Y7240D1*
Y7269D1*
X4529Y7297D1*
X4520Y7312D1*
X4494Y7326D1*
X4417D1*
Y7025D1*
X4477Y7182D2*
X4537Y7025D1*
X4610Y7326D2*
X4705D1*
X4653Y7211D1*
X4679D1*
X4696Y7197D1*
X4705Y7182D1*
X4714Y7139D1*
Y7111D1*
X4705Y7068D1*
X4688Y7039D1*
X4662Y7025D1*
X4636D1*
X4610Y7039D1*
X4602Y7053D1*
X4593Y7082D1*
X4841Y8864D2*
Y8942D1*
X4826Y8967D1*
X4812Y8976D1*
X4783Y8985D1*
X4755D1*
X4726Y8976D1*
X4712Y8967D1*
X4697Y8942D1*
Y8864D1*
X4999D1*
X4841Y8924D2*
X4999Y8985D1*
Y9126D2*
X4698D1*
X4898Y9040D1*
Y9169D1*
X4631Y10147D2*
X4708D1*
X4734Y10161D1*
X4743Y10176D1*
X4751Y10204D1*
Y10233D1*
X4743Y10262D1*
X4734Y10276D1*
X4708Y10290D1*
X4631D1*
Y9989D1*
X4691Y10147D2*
X4751Y9989D1*
X4910Y10290D2*
X4824D1*
X4815Y10161D1*
X4824Y10175D1*
X4850Y10190D1*
X4876D1*
X4901Y10175D1*
X4919Y10147D1*
X4927Y10104D1*
Y10075D1*
X4919Y10032D1*
X4901Y10003D1*
X4876Y9989D1*
X4850D1*
X4824Y10003D1*
X4815Y10018D1*
X4807Y10046D1*
X5630Y9882D2*
Y9667D1*
X5639Y9624D1*
X5656Y9595D1*
X5682Y9581D1*
X5699D1*
X5725Y9595D1*
X5742Y9624D1*
X5751Y9667D1*
Y9882D1*
X5807Y9825D2*
X5824Y9839D1*
X5850Y9882D1*
Y9581D1*
X6217Y8091D2*
Y7875D1*
X6226Y7832D1*
X6243Y7804D1*
X6269Y7789D1*
X6286D1*
X6312Y7804D1*
X6329Y7832D1*
X6338Y7875D1*
Y8091D1*
X6402Y8019D2*
Y8033D1*
X6411Y8062D1*
X6419Y8076D1*
X6437Y8090D1*
X6471D1*
X6488Y8076D1*
X6497Y8062D1*
X6505Y8033D1*
Y8004D1*
X6497Y7976D1*
X6480Y7933D1*
X6393Y7789D1*
X6514D1*
X10028Y5430D2*
Y5215D1*
X10037Y5172D1*
X10054Y5143D1*
X10080Y5129D1*
X10097D1*
X10123Y5143D1*
X10140Y5172D1*
X10149Y5215D1*
Y5430D1*
X10308D2*
X10222D1*
X10213Y5301D1*
X10222Y5315D1*
X10248Y5330D1*
X10273D1*
X10299Y5315D1*
X10316Y5286D1*
X10325Y5243D1*
Y5215D1*
X10316Y5172D1*
X10299Y5143D1*
X10273Y5129D1*
X10248D1*
X10222Y5143D1*
X10213Y5157D1*
X10204Y5186D1*
X5545Y6524D2*
Y6309D1*
X5553Y6266D1*
X5570Y6237D1*
X5596Y6222D1*
X5613D1*
X5639Y6237D1*
X5657Y6266D1*
X5665Y6309D1*
Y6524D1*
X5841Y6481D2*
X5824Y6510D1*
X5798Y6524D1*
X5764D1*
X5738Y6510D1*
X5721Y6481D1*
Y6452D1*
X5729Y6423D1*
X5738Y6409D1*
X5755Y6395D1*
X5807Y6366D1*
X5824Y6352D1*
X5833Y6337D1*
X5841Y6309D1*
Y6266D1*
X5824Y6237D1*
X5798Y6222D1*
X5764D1*
X5738Y6237D1*
X5721Y6266D1*
X5897Y6524D2*
Y6222D1*
X5974D1*
X6000Y6237D1*
X6009Y6251D1*
X6017Y6280D1*
Y6323D1*
X6009Y6352D1*
X6000Y6366D1*
X5974Y6380D1*
X6000Y6395D1*
X6009Y6409D1*
X6017Y6438D1*
Y6466D1*
X6009Y6495D1*
X6000Y6510D1*
X5974Y6524D1*
X5897D1*
Y6380D2*
X5974D1*
X6073Y6423D2*
Y6222D1*
Y6366D2*
X6099Y6409D1*
X6116Y6423D1*
X6142D1*
X6159Y6409D1*
X6168Y6366D1*
Y6222D1*
Y6366D2*
X6194Y6409D1*
X6211Y6423D1*
X6237D1*
X6254Y6409D1*
X6263Y6366D1*
Y6222D1*
X6318Y6524D2*
X6327Y6510D1*
X6336Y6524D1*
X6327Y6538D1*
X6318Y6524D1*
X6327Y6423D2*
Y6222D1*
X6495Y6380D2*
X6477Y6409D1*
X6460Y6423D1*
X6434D1*
X6417Y6409D1*
X6400Y6380D1*
X6391Y6337D1*
Y6309D1*
X6400Y6266D1*
X6417Y6237D1*
X6434Y6222D1*
X6460D1*
X6477Y6237D1*
X6495Y6266D1*
X6550Y6524D2*
Y6222D1*
X6628D1*
X6654Y6237D1*
X6662Y6251D1*
X6671Y6280D1*
Y6323D1*
X6662Y6352D1*
X6654Y6366D1*
X6628Y6380D1*
X6654Y6395D1*
X6662Y6409D1*
X6671Y6438D1*
Y6466D1*
X6662Y6495D1*
X6654Y6510D1*
X6628Y6524D1*
X6550D1*
Y6380D2*
X6628D1*
X6726Y6466D2*
X6744Y6481D1*
X6770Y6524D1*
Y6222D1*
X9955Y8837D2*
Y8535D1*
X10059D1*
X10114Y8779D2*
X10132Y8794D1*
X10157Y8836D1*
Y8535D1*
X7852Y6493D2*
X8067D1*
X8110Y6502D1*
X8139Y6519D1*
X8153Y6545D1*
Y6562D1*
X8139Y6588D1*
X8110Y6605D1*
X8067Y6614D1*
X7852D1*
Y6687D2*
Y6781D1*
X7967Y6729D1*
Y6755D1*
X7981Y6772D1*
X7995Y6781D1*
X8038Y6790D1*
X8067D1*
X8110Y6781D1*
X8139Y6764D1*
X8153Y6738D1*
Y6712D1*
X8139Y6687D1*
X8124Y6678D1*
X8096Y6669D1*
X7811Y7952D2*
X7803Y7980D1*
X7785Y8009D1*
X7768Y8023D1*
X7734D1*
X7717Y8009D1*
X7699Y7980D1*
X7691Y7952D1*
X7682Y7909D1*
Y7837D1*
X7691Y7794D1*
X7699Y7765D1*
X7717Y7737D1*
X7734Y7722D1*
X7768D1*
X7785Y7737D1*
X7803Y7765D1*
X7811Y7794D1*
X7876Y7951D2*
Y7966D1*
X7884Y7995D1*
X7893Y8009D1*
X7910Y8023D1*
X7944D1*
X7962Y8009D1*
X7970Y7995D1*
X7979Y7966D1*
Y7937D1*
X7970Y7908D1*
X7953Y7866D1*
X7867Y7722D1*
X7987D1*
X9410Y7074D2*
X9382Y7065D1*
X9353Y7048D1*
X9339Y7031D1*
Y6996D1*
X9353Y6979D1*
X9382Y6962D1*
X9410Y6953D1*
X9453Y6945D1*
X9525D1*
X9568Y6953D1*
X9597Y6962D1*
X9625Y6979D1*
X9640Y6996D1*
Y7031D1*
X9625Y7048D1*
X9597Y7065D1*
X9568Y7074D1*
X9640Y7216D2*
X9339D1*
X9539Y7129D1*
Y7259D1*
X7247Y7955D2*
Y7740D1*
X7256Y7697D1*
X7273Y7668D1*
X7299Y7654D1*
X7316D1*
X7342Y7668D1*
X7359Y7697D1*
X7368Y7740D1*
Y7955D1*
X7510Y7654D2*
Y7955D1*
X7424Y7754D1*
X7553D1*
X10689Y6887D2*
D89*
X10682Y6916D1*
X10668Y6945D1*
X10654Y6959D1*
X10625D1*
X10610Y6945D1*
X10596Y6916D1*
X10589Y6887D1*
X10582Y6844D1*
Y6772D1*
X10589Y6729D1*
X10596Y6701D1*
X10610Y6672D1*
X10625Y6657D1*
X10654D1*
X10668Y6672D1*
X10682Y6701D1*
X10689Y6729D1*
Y6772D1*
X10654D1*
X10823Y6959D2*
Y6657D1*
X10722Y6959D1*
Y6657D1*
X10856Y6959D2*
Y6657D1*
X10906D1*
X10927Y6672D1*
X10942Y6701D1*
X10949Y6729D1*
X10956Y6772D1*
Y6844D1*
X10949Y6887D1*
X10942Y6916D1*
X10927Y6945D1*
X10906Y6959D1*
X10856D1*
X9356Y10945D2*
X9327Y10938D1*
X9298Y10923D1*
X9284Y10909D1*
Y10881D1*
X9298Y10866D1*
X9327Y10852D1*
X9356Y10845D1*
X9399Y10837D1*
X9471D1*
X9514Y10845D1*
X9542Y10852D1*
X9571Y10866D1*
X9586Y10881D1*
Y10909D1*
X9571Y10923D1*
X9542Y10938D1*
X9514Y10945D1*
X9471D1*
Y10909D1*
X9284Y11078D2*
X9586D1*
X9284Y10978D1*
X9586D1*
X9284Y11111D2*
X9586D1*
Y11161D1*
X9571Y11183D1*
X9542Y11197D1*
X9514Y11204D1*
X9471Y11212D1*
X9399D1*
X9356Y11204D1*
X9327Y11197D1*
X9298Y11183D1*
X9284Y11161D1*
Y11111D1*
X4144Y5868D2*
X4137Y5897D1*
X4123Y5926D1*
X4108Y5940D1*
X4080D1*
X4065Y5926D1*
X4051Y5897D1*
X4044Y5868D1*
X4037Y5825D1*
Y5753D1*
X4044Y5711D1*
X4051Y5682D1*
X4065Y5653D1*
X4080Y5639D1*
X4108D1*
X4123Y5653D1*
X4137Y5682D1*
X4144Y5711D1*
Y5753D1*
X4108D1*
X4277Y5940D2*
Y5639D1*
X4177Y5940D1*
Y5639D1*
X4310Y5940D2*
Y5639D1*
X4361D1*
X4382Y5653D1*
X4396Y5682D1*
X4404Y5711D1*
X4411Y5753D1*
Y5825D1*
X4404Y5868D1*
X4396Y5897D1*
X4382Y5926D1*
X4361Y5940D1*
X4310D1*
X5361Y10456D2*
X5333Y10449D1*
X5304Y10434D1*
X5290Y10420D1*
Y10392D1*
X5304Y10377D1*
X5333Y10363D1*
X5361Y10356D1*
X5405Y10348D1*
X5477D1*
X5519Y10356D1*
X5548Y10363D1*
X5577Y10377D1*
X5591Y10392D1*
Y10420D1*
X5577Y10434D1*
X5548Y10449D1*
X5519Y10456D1*
X5290Y10489D2*
X5591D1*
X5290Y10589D2*
X5591D1*
X5433Y10489D2*
Y10589D1*
X5361Y10730D2*
X5333Y10723D1*
X5304Y10708D1*
X5290Y10694D1*
Y10665D1*
X5304Y10651D1*
X5333Y10637D1*
X5361Y10629D1*
X5405Y10622D1*
X5477D1*
X5519Y10629D1*
X5548Y10637D1*
X5577Y10651D1*
X5591Y10665D1*
Y10694D1*
X5577Y10708D1*
X5548Y10723D1*
X5519Y10730D1*
X5477D1*
Y10694D1*
X5641Y10763D2*
Y10899D1*
X5290Y10932D2*
X5591D1*
Y10982D1*
X5577Y11003D1*
X5548Y11018D1*
X5519Y11025D1*
X5477Y11032D1*
X5405D1*
X5361Y11025D1*
X5333Y11018D1*
X5304Y11003D1*
X5290Y10982D1*
Y10932D1*
Y11158D2*
Y11065D1*
X5591D1*
Y11158D1*
X5433Y11065D2*
Y11122D1*
X5290Y11241D2*
X5591D1*
X5290Y11191D2*
Y11291D1*
X3996Y9948D2*
X4054Y9647D1*
X4111Y9948D1*
X4251Y9876D2*
X4244Y9905D1*
X4230Y9934D1*
X4216Y9948D1*
X4187D1*
X4173Y9934D1*
X4158Y9905D1*
X4151Y9876D1*
X4144Y9833D1*
Y9761D1*
X4151Y9719D1*
X4158Y9690D1*
X4173Y9661D1*
X4187Y9647D1*
X4216D1*
X4230Y9661D1*
X4244Y9690D1*
X4251Y9719D1*
X4392Y9876D2*
X4385Y9905D1*
X4370Y9934D1*
X4356Y9948D1*
X4327D1*
X4313Y9934D1*
X4299Y9905D1*
X4291Y9876D1*
X4284Y9833D1*
Y9761D1*
X4291Y9719D1*
X4299Y9690D1*
X4313Y9661D1*
X4327Y9647D1*
X4356D1*
X4370Y9661D1*
X4385Y9690D1*
X4392Y9719D1*
X6356Y11229D2*
Y10928D1*
X6389Y11229D2*
Y10928D1*
X6440D1*
X6461Y10943D1*
X6476Y10971D1*
X6483Y11000D1*
X6490Y11043D1*
Y11115D1*
X6483Y11158D1*
X6476Y11186D1*
X6461Y11215D1*
X6440Y11229D1*
X6389D1*
X7297Y11226D2*
Y10925D1*
X7347D1*
X7369Y10939D1*
X7383Y10968D1*
X7390Y10997D1*
X7397Y11040D1*
Y11112D1*
X7390Y11155D1*
X7383Y11183D1*
X7369Y11212D1*
X7347Y11226D1*
X7297D1*
X7545Y10925D2*
Y11226D1*
X7487Y10925D1*
X7430Y11226D1*
Y10925D1*
X8295Y11234D2*
Y10933D1*
X8345D1*
X8366Y10947D1*
X8381Y10976D1*
X8388Y11004D1*
X8395Y11047D1*
Y11119D1*
X8388Y11162D1*
X8381Y11191D1*
X8366Y11220D1*
X8345Y11234D1*
X8295D1*
X8428Y11076D2*
X8493D1*
X8514Y11090D1*
X8521Y11105D1*
X8528Y11133D1*
Y11177D1*
X8521Y11205D1*
X8514Y11220D1*
X8493Y11234D1*
X8428D1*
Y10933D1*
X5818Y10774D2*
D88*
Y10559D1*
X5827Y10516D1*
X5844Y10487D1*
X5870Y10473D1*
X5887D1*
X5913Y10487D1*
X5930Y10516D1*
X5939Y10559D1*
Y10774D1*
X6115Y10731D2*
X6098Y10760D1*
X6072Y10774D1*
X6037D1*
X6012Y10760D1*
X5994Y10731D1*
Y10703D1*
X6003Y10674D1*
X6012Y10659D1*
X6029Y10645D1*
X6080Y10616D1*
X6098Y10602D1*
X6106Y10587D1*
X6115Y10559D1*
Y10516D1*
X6098Y10487D1*
X6072Y10473D1*
X6037D1*
X6012Y10487D1*
X5994Y10516D1*
X6170Y10774D2*
Y10473D1*
X6248D1*
X6274Y10487D1*
X6282Y10502D1*
X6291Y10530D1*
Y10573D1*
X6282Y10602D1*
X6274Y10616D1*
X6248Y10631D1*
X6274Y10645D1*
X6282Y10659D1*
X6291Y10688D1*
Y10717D1*
X6282Y10745D1*
X6274Y10760D1*
X6248Y10774D1*
X6170D1*
Y10631D2*
X6248D1*
X6522Y10774D2*
Y10473D1*
X6599D1*
X6625Y10487D1*
X6634Y10502D1*
X6642Y10530D1*
Y10573D1*
X6634Y10602D1*
X6625Y10616D1*
X6599Y10631D1*
X6625Y10645D1*
X6634Y10659D1*
X6642Y10688D1*
Y10717D1*
X6634Y10745D1*
X6625Y10760D1*
X6599Y10774D1*
X6522D1*
Y10631D2*
X6599D1*
X6698Y10774D2*
X6706Y10760D1*
X6715Y10774D1*
X6706Y10789D1*
X6698Y10774D1*
X6706Y10674D2*
Y10473D1*
X6771Y10616D2*
X6848D1*
X6874Y10631D1*
X6883Y10645D1*
X6891Y10674D1*
Y10717D1*
X6883Y10745D1*
X6874Y10760D1*
X6848Y10774D1*
X6771D1*
Y10473D1*
X6990Y10674D2*
X6973Y10659D1*
X6955Y10631D1*
X6947Y10587D1*
Y10559D1*
X6955Y10516D1*
X6973Y10487D1*
X6990Y10473D1*
X7016D1*
X7033Y10487D1*
X7050Y10516D1*
X7059Y10559D1*
Y10587D1*
X7050Y10631D1*
X7033Y10659D1*
X7016Y10674D1*
X6990D1*
X7114D2*
X7149Y10473D1*
X7183Y10674D1*
X7218Y10473D1*
X7252Y10674D1*
X7308Y10587D2*
X7411D1*
Y10616D1*
X7402Y10645D1*
X7394Y10659D1*
X7376Y10674D1*
X7351D1*
X7333Y10659D1*
X7316Y10631D1*
X7308Y10587D1*
Y10559D1*
X7316Y10516D1*
X7333Y10487D1*
X7351Y10473D1*
X7376D1*
X7394Y10487D1*
X7411Y10516D1*
X7466Y10674D2*
Y10473D1*
Y10587D2*
X7475Y10631D1*
X7492Y10659D1*
X7510Y10674D1*
X7536D1*
X7608Y10774D2*
X7703D1*
X7651Y10659D1*
X7677D1*
X7694Y10645D1*
X7703Y10631D1*
X7712Y10587D1*
Y10559D1*
X7703Y10516D1*
X7686Y10487D1*
X7660Y10473D1*
X7634D1*
X7608Y10487D1*
X7600Y10502D1*
X7591Y10530D1*
X7877Y10646D2*
X8006D1*
X8049Y10660D1*
X8064Y10675D1*
X8078Y10703D1*
Y10732D1*
X8064Y10760D1*
X8049Y10775D1*
X8006Y10789D1*
X7877D1*
Y10488D1*
X7978Y10646D2*
X8078Y10488D1*
X8548Y10789D2*
X8505Y10775D1*
X8477Y10732D1*
X8462Y10660D1*
Y10617D1*
X8477Y10545D1*
X8505Y10502D1*
X8548Y10488D1*
X8577D1*
X8620Y10502D1*
X8649Y10545D1*
X8663Y10617D1*
Y10660D1*
X8649Y10732D1*
X8620Y10775D1*
X8577Y10789D1*
X8548D1*
X8649Y10732D2*
X8477Y10545D1*
X8770Y10517D2*
X8756Y10502D1*
X8770Y10488D1*
X8785Y10502D1*
X8770Y10517D1*
X9064Y10689D2*
X9049Y10646D1*
X9021Y10617D1*
X8978Y10603D1*
X8964D1*
X8920Y10617D1*
X8892Y10646D1*
X8877Y10689D1*
Y10703D1*
X8892Y10746D1*
X8920Y10775D1*
X8964Y10789D1*
X8978D1*
X9021Y10775D1*
X9049Y10746D1*
X9064Y10689D1*
Y10617D1*
X9049Y10545D1*
X9021Y10502D1*
X8978Y10488D1*
X8949D1*
X8906Y10502D1*
X8892Y10531D1*
X9343Y10789D2*
X9157D1*
Y10488D1*
X9343D1*
X9157Y10646D2*
X9271D1*
X5976Y10314D2*
X5864D1*
Y10013D1*
Y10171D2*
X5933D1*
X6041Y10214D2*
X6092Y10013D1*
X6075Y9956D1*
X6058Y9927D1*
X6041Y9913D1*
X6032D1*
X6144Y10214D2*
X6092Y10013D1*
X6200Y10314D2*
Y10013D1*
Y10171D2*
X6217Y10200D1*
X6234Y10214D1*
X6260D1*
X6277Y10200D1*
X6294Y10171D1*
X6303Y10128D1*
Y10099D1*
X6294Y10056D1*
X6277Y10028D1*
X6260Y10013D1*
X6234D1*
X6217Y10028D1*
X6200Y10056D1*
X6358Y10128D2*
X6462D1*
Y10157D1*
X6453Y10185D1*
X6445Y10200D1*
X6427Y10214D1*
X6401D1*
X6384Y10200D1*
X6367Y10171D1*
X6358Y10128D1*
Y10099D1*
X6367Y10056D1*
X6384Y10028D1*
X6401Y10013D1*
X6427D1*
X6445Y10028D1*
X6462Y10056D1*
X6517Y10214D2*
Y10013D1*
Y10128D2*
X6526Y10171D1*
X6543Y10200D1*
X6560Y10214D1*
X6586D1*
X6817Y10314D2*
Y10013D1*
X6920D1*
X7079Y10214D2*
Y10013D1*
Y10171D2*
X7062Y10200D1*
X7044Y10214D1*
X7019D1*
X7002Y10200D1*
X6984Y10171D1*
X6976Y10128D1*
Y10099D1*
X6984Y10056D1*
X7002Y10028D1*
X7019Y10013D1*
X7044D1*
X7062Y10028D1*
X7079Y10056D1*
X7134Y10314D2*
Y10013D1*
Y10171D2*
X7152Y10200D1*
X7169Y10214D1*
X7195D1*
X7212Y10200D1*
X7229Y10171D1*
X7238Y10128D1*
Y10099D1*
X7229Y10056D1*
X7212Y10028D1*
X7195Y10013D1*
X7169D1*
X7152Y10028D1*
X7134Y10056D1*
X7388Y10171D2*
X7379Y10200D1*
X7354Y10214D1*
X7328D1*
X7302Y10200D1*
X7293Y10171D1*
X7302Y10142D1*
X7319Y10128D1*
X7362Y10113D1*
X7379Y10099D1*
X7388Y10070D1*
Y10056D1*
X7379Y10028D1*
X7354Y10013D1*
X7328D1*
X7302Y10028D1*
X7293Y10056D1*
X7619Y10314D2*
Y10013D1*
X7674Y10214D2*
Y10013D1*
Y10157D2*
X7700Y10200D1*
X7717Y10214D1*
X7743D1*
X7760Y10200D1*
X7769Y10157D1*
Y10013D1*
X7928Y10171D2*
X7911Y10200D1*
X7893Y10214D1*
X7868D1*
X7850Y10200D1*
X7833Y10171D1*
X7824Y10128D1*
Y10099D1*
X7833Y10056D1*
X7850Y10028D1*
X7868Y10013D1*
X7893D1*
X7911Y10028D1*
X7928Y10056D1*
X7992Y10042D2*
X7984Y10027D1*
X7992Y10013D1*
X8001Y10027D1*
X7992Y10042D1*
X10501Y4802D2*
D89*
X10583D1*
X10631Y4952D2*
X10709D1*
X10666Y4838D1*
X10688D1*
X10702Y4823D1*
X10709Y4809D1*
X10717Y4766D1*
Y4737D1*
X10709Y4694D1*
X10695Y4665D1*
X10674Y4651D1*
X10652D1*
X10631Y4665D1*
X10624Y4680D1*
X10616Y4709D1*
X10750Y4852D2*
X10793Y4651D1*
X10836Y4852D1*
X10883Y4952D2*
X10962D1*
X10919Y4838D1*
X10940D1*
X10954Y4823D1*
X10962Y4809D1*
X10969Y4766D1*
Y4737D1*
X10962Y4694D1*
X10947Y4665D1*
X10926Y4651D1*
X10904D1*
X10883Y4665D1*
X10876Y4680D1*
X10868Y4709D1*
X10665Y5897D2*
X10658Y5925D1*
X10644Y5954D1*
X10629Y5968D1*
X10601D1*
X10586Y5954D1*
X10572Y5925D1*
X10565Y5897D1*
X10558Y5854D1*
Y5782D1*
X10565Y5739D1*
X10572Y5710D1*
X10586Y5682D1*
X10601Y5667D1*
X10629D1*
X10644Y5682D1*
X10658Y5710D1*
X10665Y5739D1*
Y5782D1*
X10629D1*
X10798Y5968D2*
Y5667D1*
X10698Y5968D1*
Y5667D1*
X10831Y5968D2*
Y5667D1*
X10882D1*
X10903Y5682D1*
X10918Y5710D1*
X10925Y5739D1*
X10932Y5782D1*
Y5854D1*
X10925Y5897D1*
X10918Y5925D1*
X10903Y5954D1*
X10882Y5968D1*
X10831D1*
X10306Y10985D2*
X10364Y10684D1*
X10421Y10985D1*
X10562Y10914D2*
X10554Y10942D1*
X10540Y10971D1*
X10526Y10985D1*
X10497D1*
X10483Y10971D1*
X10468Y10942D1*
X10461Y10914D1*
X10454Y10870D1*
Y10798D1*
X10461Y10756D1*
X10468Y10727D1*
X10483Y10698D1*
X10497Y10684D1*
X10526D1*
X10540Y10698D1*
X10554Y10727D1*
X10562Y10756D1*
X10702Y10914D2*
X10695Y10942D1*
X10680Y10971D1*
X10666Y10985D1*
X10637D1*
X10623Y10971D1*
X10609Y10942D1*
X10602Y10914D1*
X10594Y10870D1*
Y10798D1*
X10602Y10756D1*
X10609Y10727D1*
X10623Y10698D1*
X10637Y10684D1*
X10666D1*
X10680Y10698D1*
X10695Y10727D1*
X10702Y10756D1*
X10556Y9956D2*
X10614Y9654D1*
X10671Y9956D1*
X10811Y9884D2*
X10804Y9912D1*
X10790Y9941D1*
X10776Y9956D1*
X10747D1*
X10732Y9941D1*
X10718Y9912D1*
X10711Y9884D1*
X10704Y9841D1*
Y9769D1*
X10711Y9726D1*
X10718Y9697D1*
X10732Y9669D1*
X10747Y9654D1*
X10776D1*
X10790Y9669D1*
X10804Y9697D1*
X10811Y9726D1*
X10952Y9884D2*
X10945Y9912D1*
X10930Y9941D1*
X10916Y9956D1*
X10887D1*
X10873Y9941D1*
X10859Y9912D1*
X10851Y9884D1*
X10844Y9841D1*
Y9769D1*
X10851Y9726D1*
X10859Y9697D1*
X10873Y9669D1*
X10887Y9654D1*
X10916D1*
X10930Y9669D1*
X10945Y9697D1*
X10952Y9726D1*
X10566Y7959D2*
X10623Y7658D1*
X10681Y7959D1*
X10821Y7887D2*
X10814Y7916D1*
X10799Y7945D1*
X10785Y7959D1*
X10757D1*
X10742Y7945D1*
X10728Y7916D1*
X10721Y7887D1*
X10713Y7844D1*
Y7772D1*
X10721Y7729D1*
X10728Y7701D1*
X10742Y7672D1*
X10757Y7658D1*
X10785D1*
X10799Y7672D1*
X10814Y7701D1*
X10821Y7729D1*
X10961Y7887D2*
X10954Y7916D1*
X10940Y7945D1*
X10926Y7959D1*
X10897D1*
X10883Y7945D1*
X10868Y7916D1*
X10861Y7887D1*
X10854Y7844D1*
Y7772D1*
X10861Y7729D1*
X10868Y7701D1*
X10883Y7672D1*
X10897Y7658D1*
X10926D1*
X10940Y7672D1*
X10954Y7701D1*
X10961Y7729D1*
X8240Y10243D2*
Y10258D1*
X8254Y10287D1*
X8268Y10301D1*
X8297Y10315D1*
X8354D1*
X8383Y10301D1*
X8397Y10287D1*
X8412Y10258D1*
Y10229D1*
X8397Y10200D1*
X8369Y10158D1*
X8225Y10014D1*
X8426D1*
X8578Y10315D2*
X8535Y10301D1*
X8506Y10258D1*
X8492Y10186D1*
Y10143D1*
X8506Y10071D1*
X8535Y10028D1*
X8578Y10014D1*
X8606D1*
X8649Y10028D1*
X8678Y10071D1*
X8693Y10143D1*
Y10186D1*
X8678Y10258D1*
X8649Y10301D1*
X8606Y10315D1*
X8578D1*
X8678Y10258D2*
X8506Y10071D1*
X8758Y10258D2*
X8787Y10272D1*
X8830Y10315D1*
Y10014D1*
X9039D2*
Y10315D1*
X8896Y10114D1*
X9111D1*
X4118Y6908D2*
X4046D1*
X4039Y6779D1*
X4046Y6793D1*
X4068Y6808D1*
X4089D1*
X4111Y6793D1*
X4125Y6765D1*
X4132Y6722D1*
Y6693D1*
X4125Y6650D1*
X4111Y6621D1*
X4089Y6607D1*
X4068D1*
X4046Y6621D1*
X4039Y6636D1*
X4032Y6664D1*
X4165Y6908D2*
X4222Y6607D1*
X4280Y6908D1*
X4313D2*
Y6693D1*
X4320Y6650D1*
X4334Y6621D1*
X4356Y6607D1*
X4370D1*
X4392Y6621D1*
X4406Y6650D1*
X4413Y6693D1*
Y6908D1*
X4546Y6865D2*
X4532Y6894D1*
X4511Y6908D1*
X4482D1*
X4460Y6894D1*
X4446Y6865D1*
Y6837D1*
X4453Y6808D1*
X4460Y6794D1*
X4475Y6779D1*
X4518Y6750D1*
X4532Y6736D1*
X4539Y6722D1*
X4546Y6693D1*
Y6650D1*
X4532Y6621D1*
X4511Y6607D1*
X4482D1*
X4460Y6621D1*
X4446Y6650D1*
X4579Y6908D2*
Y6607D1*
X4644D1*
X4665Y6621D1*
X4673Y6636D1*
X4680Y6664D1*
Y6707D1*
X4673Y6736D1*
X4665Y6750D1*
X4644Y6765D1*
X4665Y6779D1*
X4673Y6794D1*
X4680Y6822D1*
Y6851D1*
X4673Y6879D1*
X4665Y6894D1*
X4644Y6908D1*
X4579D1*
Y6765D2*
X4644D1*
X4145Y4874D2*
X4138Y4903D1*
X4123Y4932D1*
X4109Y4946D1*
X4080D1*
X4066Y4932D1*
X4052Y4903D1*
X4045Y4874D1*
X4037Y4831D1*
Y4759D1*
X4045Y4716D1*
X4052Y4688D1*
X4066Y4659D1*
X4080Y4644D1*
X4109D1*
X4123Y4659D1*
X4138Y4688D1*
X4145Y4716D1*
Y4759D1*
X4109D1*
X4278Y4946D2*
Y4644D1*
X4178Y4946D1*
Y4644D1*
X4311Y4946D2*
Y4644D1*
X4361D1*
X4383Y4659D1*
X4397Y4688D1*
X4404Y4716D1*
X4412Y4759D1*
Y4831D1*
X4404Y4874D1*
X4397Y4903D1*
X4383Y4932D1*
X4361Y4946D1*
X4311D1*
X4131Y8864D2*
X4124Y8892D1*
X4110Y8921D1*
X4096Y8935D1*
X4067D1*
X4052Y8921D1*
X4038Y8892D1*
X4031Y8864D1*
X4024Y8821D1*
Y8749D1*
X4031Y8706D1*
X4038Y8677D1*
X4052Y8649D1*
X4067Y8634D1*
X4096D1*
X4110Y8649D1*
X4124Y8677D1*
X4131Y8706D1*
Y8749D1*
X4096D1*
X4265Y8935D2*
Y8634D1*
X4164Y8935D1*
Y8634D1*
X4297Y8935D2*
Y8634D1*
X4348D1*
X4369Y8649D1*
X4384Y8677D1*
X4391Y8706D1*
X4398Y8749D1*
Y8821D1*
X4391Y8864D1*
X4384Y8892D1*
X4369Y8921D1*
X4348Y8935D1*
X4297D1*
X3974Y10953D2*
X4032Y10652D1*
X4089Y10953D1*
X4229Y10882D2*
X4222Y10910D1*
X4208Y10939D1*
X4193Y10953D1*
X4165D1*
X4150Y10939D1*
X4136Y10910D1*
X4129Y10882D1*
X4122Y10838D1*
Y10766D1*
X4129Y10724D1*
X4136Y10695D1*
X4150Y10666D1*
X4165Y10652D1*
X4193D1*
X4208Y10666D1*
X4222Y10695D1*
X4229Y10724D1*
X4370Y10882D2*
X4363Y10910D1*
X4348Y10939D1*
X4334Y10953D1*
X4305D1*
X4291Y10939D1*
X4277Y10910D1*
X4269Y10882D1*
X4262Y10838D1*
Y10766D1*
X4269Y10724D1*
X4277Y10695D1*
X4291Y10666D1*
X4305Y10652D1*
X4334D1*
X4348Y10666D1*
X4363Y10695D1*
X4370Y10724D1*
X10582Y8975D2*
X10639Y8673D1*
X10696Y8975D1*
X10837Y8903D2*
X10830Y8932D1*
X10815Y8960D1*
X10801Y8975D1*
X10772D1*
X10758Y8960D1*
X10744Y8932D1*
X10736Y8903D1*
X10729Y8860D1*
Y8788D1*
X10736Y8745D1*
X10744Y8716D1*
X10758Y8688D1*
X10772Y8673D1*
X10801D1*
X10815Y8688D1*
X10830Y8716D1*
X10837Y8745D1*
X10977Y8903D2*
X10970Y8932D1*
X10956Y8960D1*
X10942Y8975D1*
X10913D1*
X10898Y8960D1*
X10884Y8932D1*
X10877Y8903D1*
X10870Y8860D1*
Y8788D1*
X10877Y8745D1*
X10884Y8716D1*
X10898Y8688D1*
X10913Y8673D1*
X10942D1*
X10956Y8688D1*
X10970Y8716D1*
X10977Y8745D1*
X4114Y7935D2*
X4042D1*
X4035Y7806D1*
X4042Y7821D1*
X4064Y7835D1*
X4085D1*
X4107Y7821D1*
X4121Y7792D1*
X4129Y7749D1*
Y7720D1*
X4121Y7677D1*
X4107Y7648D1*
X4085Y7634D1*
X4064D1*
X4042Y7648D1*
X4035Y7663D1*
X4028Y7692D1*
X4161Y7936D2*
X4219Y7634D1*
X4276Y7936D1*
X4309D2*
Y7720D1*
X4316Y7677D1*
X4330Y7649D1*
X4352Y7634D1*
X4366D1*
X4388Y7649D1*
X4402Y7677D1*
X4409Y7720D1*
Y7936D1*
X4543Y7893D2*
X4528Y7921D1*
X4507Y7936D1*
X4478D1*
X4457Y7921D1*
X4442Y7893D1*
Y7864D1*
X4449Y7835D1*
X4457Y7821D1*
X4471Y7807D1*
X4514Y7778D1*
X4528Y7764D1*
X4535Y7749D1*
X4543Y7720D1*
Y7677D1*
X4528Y7649D1*
X4507Y7634D1*
X4478D1*
X4457Y7649D1*
X4442Y7677D1*
X4575Y7936D2*
Y7634D1*
X4640D1*
X4662Y7649D1*
X4669Y7663D1*
X4676Y7692D1*
Y7735D1*
X4669Y7764D1*
X4662Y7778D1*
X4640Y7792D1*
X4662Y7807D1*
X4669Y7821D1*
X4676Y7849D1*
Y7878D1*
X4669Y7907D1*
X4662Y7921D1*
X4640Y7936D1*
X4575D1*
Y7792D2*
X4640D1*
M02*
