G04 DipTrace 2.4.0.2*
%IN3dBBLEnotune.gts*%
%MOMM*%
%ADD10C,0.25*%
%ADD24R,0.9X0.7*%
%ADD51R,0.762X1.397*%
%ADD52R,1.143X0.762*%
%ADD54C,0.95*%
%ADD60R,1.25X1.15*%
%ADD64O,0.25X0.7*%
%ADD65O,0.7X0.25*%
%ADD66R,1.05X2.45*%
%ADD67R,3.18X0.8*%
%ADD68R,0.61X0.62*%
%ADD69R,0.67X0.54*%
%ADD70R,0.8X0.95*%
%ADD71R,2.082X1.75*%
%ADD72R,1.75X2.05*%
%ADD73R,2.05X1.75*%
%ADD74R,1.65X1.75*%
%ADD76R,1.75X2.082*%
%ADD78R,1.75X1.65*%
%ADD79R,0.95X0.8*%
%ADD80R,0.95X0.75*%
%ADD81R,0.75X0.95*%
%FSLAX53Y53*%
G04*
G71*
G90*
G75*
G01*
%LNTopMask*%
%LPD*%
G36*
X30565Y21245D2*
X28975D1*
Y22835D1*
X30565D1*
Y21245D1*
G37*
G36*
X32505D2*
X30915D1*
Y22835D1*
X32505D1*
Y21245D1*
G37*
G36*
Y23185D2*
X30915D1*
Y24775D1*
X32505D1*
Y23185D1*
G37*
G36*
X30565D2*
X28975D1*
Y24775D1*
X30565D1*
Y23185D1*
G37*
G36*
X25241Y17107D2*
X24941D1*
Y17707D1*
X25241D1*
Y17107D1*
G37*
G36*
X24741D2*
X24441D1*
Y17707D1*
X24741D1*
Y17107D1*
G37*
G36*
X24241D2*
X23941D1*
Y17707D1*
X24241D1*
Y17107D1*
G37*
G36*
Y16257D2*
X23941D1*
Y16857D1*
X24241D1*
Y16257D1*
G37*
G36*
X24741D2*
X24441D1*
Y16857D1*
X24741D1*
Y16257D1*
G37*
G36*
X25241D2*
X24941D1*
Y16857D1*
X25241D1*
Y16257D1*
G37*
G36*
X24585Y24021D2*
X25335D1*
Y23071D1*
X24585D1*
Y24021D1*
G37*
G36*
Y22721D2*
X25335D1*
Y21771D1*
X24585D1*
Y22721D1*
G37*
D81*
X20956Y22380D3*
Y23680D3*
X25329Y15451D3*
Y14151D3*
D80*
X16572Y24017D3*
X15272D3*
D81*
X14196Y21574D3*
Y22874D3*
D80*
X15398Y20194D3*
X14098D3*
X19743Y21430D3*
X18443D3*
G36*
X23236Y19868D2*
X23986D1*
Y18918D1*
X23236D1*
Y19868D1*
G37*
G36*
Y21168D2*
X23986D1*
Y20218D1*
X23236D1*
Y21168D1*
G37*
D81*
X24467Y15335D3*
Y14035D3*
X15523Y13770D3*
Y15070D3*
X13624Y17738D3*
Y19038D3*
D24*
X19496Y23271D3*
Y24121D3*
X18046D3*
Y23271D3*
D79*
X14197Y13695D3*
Y15095D3*
D78*
X29050Y26510D3*
X26510D3*
X23970D3*
X21430D3*
X18890D3*
D76*
X29050Y27780D3*
X26510D3*
X23970D3*
X21430D3*
X18890D3*
D74*
X11270Y16350D3*
D73*
X10000D3*
D78*
X16350Y11270D3*
D72*
Y10000D3*
D78*
Y26510D3*
D72*
Y27780D3*
D78*
X13810Y26510D3*
D72*
Y27780D3*
D74*
X11270Y23970D3*
D73*
X10000D3*
D74*
X11270Y21430D3*
D73*
X10000D3*
D74*
X11270Y18890D3*
D73*
X10000D3*
D74*
X31590Y13810D3*
Y16350D3*
Y18890D3*
D71*
X32860Y13810D3*
Y16350D3*
Y18890D3*
D78*
X18890Y11270D3*
D72*
Y10000D3*
D74*
X11270Y13810D3*
D73*
X10000D3*
D78*
X13810Y11270D3*
D72*
Y10000D3*
D78*
X21430Y11270D3*
D72*
Y10000D3*
D78*
X29050Y11270D3*
D72*
Y10000D3*
D78*
X26510Y11270D3*
D72*
Y10000D3*
D78*
X23970Y11270D3*
D72*
Y10000D3*
D70*
X16059Y19027D3*
X14659D3*
D69*
X14697Y18110D3*
Y17250D3*
G36*
X25020Y20217D2*
X24270D1*
Y21167D1*
X25020D1*
Y20217D1*
G37*
G36*
Y18917D2*
X24270D1*
Y19867D1*
X25020D1*
Y18917D1*
G37*
D80*
X18161Y22349D3*
X19461D3*
D68*
X27506Y13963D3*
Y12803D3*
X30056D3*
Y13963D3*
D67*
X25178Y12743D3*
D66*
X26244Y13568D3*
D67*
X13850Y12743D3*
D66*
X12784Y13568D3*
D67*
X13850Y24993D3*
D66*
X12784Y24168D3*
D67*
X25178Y24993D3*
D66*
X26244Y24168D3*
G36*
X28232Y16892D2*
X28159Y16886D1*
X28089Y16867D1*
X28022Y16836D1*
X27963Y16794D1*
X27911Y16743D1*
X27869Y16683D1*
X27838Y16617D1*
X27819Y16546D1*
X27813Y16474D1*
D1*
X27819Y16401D1*
X27838Y16330D1*
X27869Y16264D1*
X27911Y16204D1*
X27963Y16153D1*
X28022Y16111D1*
X28089Y16080D1*
X28159Y16061D1*
X28232Y16055D1*
D1*
X28305Y16061D1*
X28375Y16080D1*
X28441Y16111D1*
X28501Y16153D1*
X28553Y16204D1*
X28595Y16264D1*
X28625Y16330D1*
X28644Y16401D1*
X28651Y16474D1*
D1*
X28644Y16546D1*
X28625Y16617D1*
X28595Y16683D1*
X28553Y16743D1*
X28501Y16794D1*
X28441Y16836D1*
X28375Y16867D1*
X28305Y16886D1*
X28232Y16892D1*
G37*
G36*
Y18162D2*
X28159Y18156D1*
X28089Y18137D1*
X28022Y18106D1*
X27963Y18064D1*
X27911Y18013D1*
X27869Y17953D1*
X27838Y17887D1*
X27819Y17816D1*
X27813Y17744D1*
D1*
X27819Y17671D1*
X27838Y17600D1*
X27869Y17534D1*
X27911Y17474D1*
X27963Y17423D1*
X28022Y17381D1*
X28089Y17350D1*
X28159Y17331D1*
X28232Y17325D1*
D1*
X28305Y17331D1*
X28375Y17350D1*
X28441Y17381D1*
X28501Y17423D1*
X28553Y17474D1*
X28595Y17534D1*
X28625Y17600D1*
X28644Y17671D1*
X28651Y17744D1*
D1*
X28644Y17816D1*
X28625Y17887D1*
X28595Y17953D1*
X28553Y18013D1*
X28501Y18064D1*
X28441Y18106D1*
X28375Y18137D1*
X28305Y18156D1*
X28232Y18162D1*
G37*
G36*
Y19432D2*
X28159Y19426D1*
X28089Y19407D1*
X28022Y19376D1*
X27963Y19334D1*
X27911Y19283D1*
X27869Y19223D1*
X27838Y19157D1*
X27819Y19086D1*
X27813Y19014D1*
D1*
X27819Y18941D1*
X27838Y18870D1*
X27869Y18804D1*
X27911Y18744D1*
X27963Y18693D1*
X28022Y18651D1*
X28089Y18620D1*
X28159Y18601D1*
X28232Y18595D1*
D1*
X28305Y18601D1*
X28375Y18620D1*
X28441Y18651D1*
X28501Y18693D1*
X28553Y18744D1*
X28595Y18804D1*
X28625Y18870D1*
X28644Y18941D1*
X28651Y19014D1*
D1*
X28644Y19086D1*
X28625Y19157D1*
X28595Y19223D1*
X28553Y19283D1*
X28501Y19334D1*
X28441Y19376D1*
X28375Y19407D1*
X28305Y19426D1*
X28232Y19432D1*
G37*
G36*
X29502D2*
X29429Y19426D1*
X29359Y19407D1*
X29292Y19376D1*
X29233Y19334D1*
X29181Y19283D1*
X29139Y19223D1*
X29108Y19157D1*
X29089Y19086D1*
X29083Y19014D1*
D1*
X29089Y18941D1*
X29108Y18870D1*
X29139Y18804D1*
X29181Y18744D1*
X29233Y18693D1*
X29292Y18651D1*
X29359Y18620D1*
X29429Y18601D1*
X29502Y18595D1*
D1*
X29575Y18601D1*
X29645Y18620D1*
X29711Y18651D1*
X29771Y18693D1*
X29823Y18744D1*
X29865Y18804D1*
X29895Y18870D1*
X29914Y18941D1*
X29921Y19014D1*
D1*
X29914Y19086D1*
X29895Y19157D1*
X29865Y19223D1*
X29823Y19283D1*
X29771Y19334D1*
X29711Y19376D1*
X29645Y19407D1*
X29575Y19426D1*
X29502Y19432D1*
G37*
G36*
Y18162D2*
X29429Y18156D1*
X29359Y18137D1*
X29292Y18106D1*
X29233Y18064D1*
X29181Y18013D1*
X29139Y17953D1*
X29108Y17887D1*
X29089Y17816D1*
X29083Y17744D1*
D1*
X29089Y17671D1*
X29108Y17600D1*
X29139Y17534D1*
X29181Y17474D1*
X29233Y17423D1*
X29292Y17381D1*
X29359Y17350D1*
X29429Y17331D1*
X29502Y17325D1*
D1*
X29575Y17331D1*
X29645Y17350D1*
X29711Y17381D1*
X29771Y17423D1*
X29823Y17474D1*
X29865Y17534D1*
X29895Y17600D1*
X29914Y17671D1*
X29921Y17744D1*
D1*
X29914Y17816D1*
X29895Y17887D1*
X29865Y17953D1*
X29823Y18013D1*
X29771Y18064D1*
X29711Y18106D1*
X29645Y18137D1*
X29575Y18156D1*
X29502Y18162D1*
G37*
G36*
Y16892D2*
X29429Y16886D1*
X29359Y16867D1*
X29292Y16836D1*
X29233Y16794D1*
X29181Y16743D1*
X29139Y16683D1*
X29108Y16617D1*
X29089Y16546D1*
X29083Y16474D1*
D1*
X29089Y16401D1*
X29108Y16330D1*
X29139Y16264D1*
X29181Y16204D1*
X29233Y16153D1*
X29292Y16111D1*
X29359Y16080D1*
X29429Y16061D1*
X29502Y16055D1*
D1*
X29575Y16061D1*
X29645Y16080D1*
X29711Y16111D1*
X29771Y16153D1*
X29823Y16204D1*
X29865Y16264D1*
X29895Y16330D1*
X29914Y16401D1*
X29921Y16474D1*
D1*
X29914Y16546D1*
X29895Y16617D1*
X29865Y16683D1*
X29823Y16743D1*
X29771Y16794D1*
X29711Y16836D1*
X29645Y16867D1*
X29575Y16886D1*
X29502Y16892D1*
G37*
D54*
X28867Y15204D3*
X27851Y20284D3*
X29883D3*
X20745Y17020D2*
D10*
X20746Y17042D1*
X20748Y17065D1*
X20751Y17087D1*
X20756Y17109D1*
X20762Y17131D1*
X20770Y17152D1*
X20779Y17172D1*
X20789Y17192D1*
X20800Y17211D1*
X20813Y17229D1*
X20826Y17245D1*
X20841Y17261D1*
X20857Y17276D1*
X20873Y17289D1*
X20890Y17301D1*
X20908Y17312D1*
X20927Y17321D1*
X20946Y17329D1*
X20965Y17335D1*
X20985Y17340D1*
X21005Y17343D1*
X21025Y17344D1*
X21046D1*
X21066Y17343D1*
X21086Y17340D1*
X21106Y17335D1*
X21125Y17329D1*
X21144Y17321D1*
X21163Y17312D1*
X21181Y17301D1*
X21198Y17289D1*
X21214Y17276D1*
X21230Y17261D1*
X21244Y17245D1*
X21258Y17229D1*
X21271Y17211D1*
X21282Y17192D1*
X21292Y17172D1*
X21301Y17152D1*
X21308Y17131D1*
X21315Y17109D1*
X21320Y17087D1*
X21323Y17065D1*
X21325Y17042D1*
X21326Y17020D1*
X21325Y16997D1*
X21323Y16975D1*
X21320Y16952D1*
X21315Y16930D1*
X21308Y16909D1*
X21301Y16888D1*
X21292Y16867D1*
X21282Y16848D1*
X21271Y16829D1*
X21258Y16811D1*
X21244Y16794D1*
X21230Y16779D1*
X21214Y16764D1*
X21198Y16751D1*
X21181Y16739D1*
X21163Y16728D1*
X21144Y16719D1*
X21125Y16711D1*
X21106Y16705D1*
X21086Y16700D1*
X21066Y16697D1*
X21046Y16695D1*
X21025D1*
X21005Y16697D1*
X20985Y16700D1*
X20965Y16705D1*
X20946Y16711D1*
X20927Y16719D1*
X20908Y16728D1*
X20890Y16739D1*
X20873Y16751D1*
X20857Y16764D1*
X20841Y16779D1*
X20826Y16794D1*
X20813Y16811D1*
X20800Y16829D1*
X20789Y16848D1*
X20779Y16867D1*
X20770Y16888D1*
X20762Y16909D1*
X20756Y16930D1*
X20751Y16952D1*
X20748Y16975D1*
X20746Y16997D1*
X20745Y17020D1*
X21553Y16978D2*
X21554Y16997D1*
X21556Y17017D1*
X21559Y17036D1*
X21563Y17055D1*
X21569Y17074D1*
X21576Y17092D1*
X21584Y17109D1*
X21594Y17126D1*
X21604Y17142D1*
X21616Y17158D1*
X21628Y17172D1*
X21641Y17186D1*
X21656Y17198D1*
X21671Y17210D1*
X21686Y17220D1*
X21703Y17229D1*
X21720Y17237D1*
X21737Y17244D1*
X21755Y17249D1*
X21773Y17253D1*
X21792Y17256D1*
X21810Y17257D1*
X21829D1*
X21848Y17256D1*
X21866Y17253D1*
X21884Y17249D1*
X21902Y17244D1*
X21920Y17237D1*
X21937Y17229D1*
X21953Y17220D1*
X21969Y17210D1*
X21984Y17198D1*
X21998Y17186D1*
X22012Y17172D1*
X22024Y17158D1*
X22035Y17142D1*
X22046Y17126D1*
X22055Y17109D1*
X22063Y17092D1*
X22070Y17074D1*
X22076Y17055D1*
X22081Y17036D1*
X22084Y17017D1*
X22086Y16997D1*
Y16978D1*
Y16958D1*
X22084Y16939D1*
X22081Y16920D1*
X22076Y16901D1*
X22070Y16882D1*
X22063Y16864D1*
X22055Y16847D1*
X22046Y16830D1*
X22035Y16814D1*
X22024Y16798D1*
X22012Y16784D1*
X21998Y16770D1*
X21984Y16758D1*
X21969Y16746D1*
X21953Y16736D1*
X21937Y16727D1*
X21920Y16719D1*
X21902Y16712D1*
X21884Y16707D1*
X21866Y16703D1*
X21848Y16700D1*
X21829Y16699D1*
X21810D1*
X21792Y16700D1*
X21773Y16703D1*
X21755Y16707D1*
X21737Y16712D1*
X21720Y16719D1*
X21703Y16727D1*
X21686Y16736D1*
X21671Y16746D1*
X21656Y16758D1*
X21641Y16770D1*
X21628Y16784D1*
X21616Y16798D1*
X21604Y16814D1*
X21594Y16830D1*
X21584Y16847D1*
X21576Y16864D1*
X21569Y16882D1*
X21563Y16901D1*
X21559Y16920D1*
X21556Y16939D1*
X21554Y16958D1*
X21553Y16978D1*
X19270Y16975D2*
X19271Y16994D1*
X19272Y17014D1*
X19276Y17033D1*
X19280Y17052D1*
X19286Y17070D1*
X19293Y17088D1*
X19301Y17106D1*
X19310Y17123D1*
X19321Y17139D1*
X19332Y17154D1*
X19345Y17169D1*
X19358Y17182D1*
X19372Y17195D1*
X19387Y17206D1*
X19403Y17217D1*
X19420Y17226D1*
X19437Y17234D1*
X19454Y17240D1*
X19472Y17246D1*
X19490Y17250D1*
X19509Y17252D1*
X19527Y17254D1*
X19546D1*
X19564Y17252D1*
X19583Y17250D1*
X19601Y17246D1*
X19619Y17240D1*
X19636Y17234D1*
X19653Y17226D1*
X19670Y17217D1*
X19686Y17206D1*
X19701Y17195D1*
X19715Y17182D1*
X19728Y17169D1*
X19741Y17154D1*
X19752Y17139D1*
X19763Y17123D1*
X19772Y17106D1*
X19780Y17088D1*
X19787Y17070D1*
X19793Y17052D1*
X19797Y17033D1*
X19800Y17014D1*
X19802Y16994D1*
X19803Y16975D1*
X19802Y16955D1*
X19800Y16936D1*
X19797Y16917D1*
X19793Y16898D1*
X19787Y16879D1*
X19780Y16861D1*
X19772Y16843D1*
X19763Y16827D1*
X19752Y16810D1*
X19741Y16795D1*
X19728Y16781D1*
X19715Y16767D1*
X19701Y16754D1*
X19686Y16743D1*
X19670Y16733D1*
X19653Y16724D1*
X19636Y16716D1*
X19619Y16709D1*
X19601Y16704D1*
X19583Y16699D1*
X19564Y16697D1*
X19546Y16695D1*
X19527D1*
X19509Y16697D1*
X19490Y16699D1*
X19472Y16704D1*
X19454Y16709D1*
X19437Y16716D1*
X19420Y16724D1*
X19403Y16733D1*
X19387Y16743D1*
X19372Y16754D1*
X19358Y16767D1*
X19345Y16781D1*
X19332Y16795D1*
X19321Y16810D1*
X19310Y16827D1*
X19301Y16843D1*
X19293Y16861D1*
X19286Y16879D1*
X19280Y16898D1*
X19276Y16917D1*
X19272Y16936D1*
X19271Y16955D1*
X19270Y16975D1*
X20029Y16978D2*
X20030Y16997D1*
X20032Y17017D1*
X20035Y17036D1*
X20040Y17055D1*
X20046Y17074D1*
X20053Y17092D1*
X20061Y17109D1*
X20070Y17126D1*
X20080Y17142D1*
X20092Y17158D1*
X20104Y17172D1*
X20118Y17186D1*
X20132Y17198D1*
X20147Y17210D1*
X20163Y17220D1*
X20179Y17229D1*
X20196Y17237D1*
X20214Y17244D1*
X20232Y17249D1*
X20250Y17253D1*
X20268Y17256D1*
X20287Y17257D1*
X20305D1*
X20324Y17256D1*
X20342Y17253D1*
X20361Y17249D1*
X20378Y17244D1*
X20396Y17237D1*
X20413Y17229D1*
X20429Y17220D1*
X20445Y17210D1*
X20460Y17198D1*
X20474Y17186D1*
X20488Y17172D1*
X20500Y17158D1*
X20512Y17142D1*
X20522Y17126D1*
X20531Y17109D1*
X20540Y17092D1*
X20547Y17074D1*
X20552Y17055D1*
X20557Y17036D1*
X20560Y17017D1*
X20562Y16997D1*
X20563Y16978D1*
X20562Y16958D1*
X20560Y16939D1*
X20557Y16920D1*
X20552Y16901D1*
X20547Y16882D1*
X20540Y16864D1*
X20531Y16847D1*
X20522Y16830D1*
X20512Y16814D1*
X20500Y16798D1*
X20488Y16784D1*
X20474Y16770D1*
X20460Y16758D1*
X20445Y16746D1*
X20429Y16736D1*
X20413Y16727D1*
X20396Y16719D1*
X20378Y16712D1*
X20361Y16707D1*
X20342Y16703D1*
X20324Y16700D1*
X20305Y16699D1*
X20287D1*
X20268Y16700D1*
X20250Y16703D1*
X20232Y16707D1*
X20214Y16712D1*
X20196Y16719D1*
X20179Y16727D1*
X20163Y16736D1*
X20147Y16746D1*
X20132Y16758D1*
X20118Y16770D1*
X20104Y16784D1*
X20092Y16798D1*
X20080Y16814D1*
X20070Y16830D1*
X20061Y16847D1*
X20053Y16864D1*
X20046Y16882D1*
X20040Y16901D1*
X20035Y16920D1*
X20032Y16939D1*
X20030Y16958D1*
X20029Y16978D1*
X18507D2*
Y16997D1*
X18509Y17017D1*
X18512Y17036D1*
X18517Y17055D1*
X18523Y17074D1*
X18530Y17092D1*
X18538Y17109D1*
X18547Y17126D1*
X18557Y17142D1*
X18569Y17158D1*
X18581Y17172D1*
X18595Y17186D1*
X18609Y17198D1*
X18624Y17210D1*
X18640Y17220D1*
X18656Y17229D1*
X18673Y17237D1*
X18691Y17244D1*
X18709Y17249D1*
X18727Y17253D1*
X18745Y17256D1*
X18764Y17257D1*
X18782D1*
X18801Y17256D1*
X18819Y17253D1*
X18838Y17249D1*
X18856Y17244D1*
X18873Y17237D1*
X18890Y17229D1*
X18906Y17220D1*
X18922Y17210D1*
X18937Y17198D1*
X18952Y17186D1*
X18965Y17172D1*
X18977Y17158D1*
X18989Y17142D1*
X18999Y17126D1*
X19009Y17109D1*
X19017Y17092D1*
X19024Y17074D1*
X19029Y17055D1*
X19034Y17036D1*
X19037Y17017D1*
X19039Y16997D1*
X19040Y16978D1*
X19039Y16958D1*
X19037Y16939D1*
X19034Y16920D1*
X19029Y16901D1*
X19024Y16882D1*
X19017Y16864D1*
X19009Y16847D1*
X18999Y16830D1*
X18989Y16814D1*
X18977Y16798D1*
X18965Y16784D1*
X18952Y16770D1*
X18937Y16758D1*
X18922Y16746D1*
X18906Y16736D1*
X18890Y16727D1*
X18873Y16719D1*
X18856Y16712D1*
X18838Y16707D1*
X18819Y16703D1*
X18801Y16700D1*
X18782Y16699D1*
X18764D1*
X18745Y16700D1*
X18727Y16703D1*
X18709Y16707D1*
X18691Y16712D1*
X18673Y16719D1*
X18656Y16727D1*
X18640Y16736D1*
X18624Y16746D1*
X18609Y16758D1*
X18595Y16770D1*
X18581Y16784D1*
X18569Y16798D1*
X18557Y16814D1*
X18547Y16830D1*
X18538Y16847D1*
X18530Y16864D1*
X18523Y16882D1*
X18517Y16901D1*
X18512Y16920D1*
X18509Y16939D1*
X18507Y16958D1*
Y16978D1*
X17743D2*
X17744Y16997D1*
X17746Y17017D1*
X17749Y17036D1*
X17754Y17055D1*
X17759Y17074D1*
X17766Y17092D1*
X17774Y17109D1*
X17784Y17126D1*
X17794Y17142D1*
X17806Y17158D1*
X17818Y17172D1*
X17831Y17186D1*
X17846Y17198D1*
X17861Y17210D1*
X17877Y17220D1*
X17893Y17229D1*
X17910Y17237D1*
X17927Y17244D1*
X17945Y17249D1*
X17964Y17253D1*
X17982Y17256D1*
X18001Y17257D1*
X18019D1*
X18038Y17256D1*
X18056Y17253D1*
X18074Y17249D1*
X18092Y17244D1*
X18110Y17237D1*
X18127Y17229D1*
X18143Y17220D1*
X18159Y17210D1*
X18174Y17198D1*
X18188Y17186D1*
X18202Y17172D1*
X18214Y17158D1*
X18226Y17142D1*
X18236Y17126D1*
X18245Y17109D1*
X18253Y17092D1*
X18260Y17074D1*
X18266Y17055D1*
X18271Y17036D1*
X18274Y17017D1*
X18276Y16997D1*
Y16978D1*
Y16958D1*
X18274Y16939D1*
X18271Y16920D1*
X18266Y16901D1*
X18260Y16882D1*
X18253Y16864D1*
X18245Y16847D1*
X18236Y16830D1*
X18226Y16814D1*
X18214Y16798D1*
X18202Y16784D1*
X18188Y16770D1*
X18174Y16758D1*
X18159Y16746D1*
X18143Y16736D1*
X18127Y16727D1*
X18110Y16719D1*
X18092Y16712D1*
X18074Y16707D1*
X18056Y16703D1*
X18038Y16700D1*
X18019Y16699D1*
X18001D1*
X17982Y16700D1*
X17964Y16703D1*
X17945Y16707D1*
X17927Y16712D1*
X17910Y16719D1*
X17893Y16727D1*
X17877Y16736D1*
X17861Y16746D1*
X17846Y16758D1*
X17831Y16770D1*
X17818Y16784D1*
X17806Y16798D1*
X17794Y16814D1*
X17784Y16830D1*
X17774Y16847D1*
X17766Y16864D1*
X17759Y16882D1*
X17754Y16901D1*
X17749Y16920D1*
X17746Y16939D1*
X17744Y16958D1*
X17743Y16978D1*
X20793Y16208D2*
Y16228D1*
X20795Y16247D1*
X20799Y16266D1*
X20803Y16285D1*
X20809Y16304D1*
X20816Y16322D1*
X20824Y16339D1*
X20833Y16356D1*
X20844Y16372D1*
X20855Y16388D1*
X20868Y16402D1*
X20881Y16416D1*
X20895Y16428D1*
X20910Y16440D1*
X20926Y16450D1*
X20943Y16459D1*
X20960Y16467D1*
X20977Y16474D1*
X20995Y16479D1*
X21013Y16483D1*
X21032Y16486D1*
X21050Y16487D1*
X21069D1*
X21087Y16486D1*
X21106Y16483D1*
X21124Y16479D1*
X21142Y16474D1*
X21159Y16467D1*
X21176Y16459D1*
X21193Y16450D1*
X21208Y16440D1*
X21224Y16428D1*
X21238Y16416D1*
X21251Y16402D1*
X21264Y16388D1*
X21275Y16372D1*
X21286Y16356D1*
X21295Y16339D1*
X21303Y16322D1*
X21310Y16304D1*
X21316Y16285D1*
X21320Y16266D1*
X21323Y16247D1*
X21325Y16228D1*
X21326Y16208D1*
X21325Y16189D1*
X21323Y16169D1*
X21320Y16150D1*
X21316Y16131D1*
X21310Y16113D1*
X21303Y16095D1*
X21295Y16077D1*
X21286Y16060D1*
X21275Y16044D1*
X21264Y16029D1*
X21251Y16014D1*
X21238Y16001D1*
X21224Y15988D1*
X21208Y15977D1*
X21193Y15966D1*
X21176Y15957D1*
X21159Y15949D1*
X21142Y15942D1*
X21124Y15937D1*
X21106Y15933D1*
X21087Y15930D1*
X21069Y15929D1*
X21050D1*
X21032Y15930D1*
X21013Y15933D1*
X20995Y15937D1*
X20977Y15942D1*
X20960Y15949D1*
X20943Y15957D1*
X20926Y15966D1*
X20910Y15977D1*
X20895Y15988D1*
X20881Y16001D1*
X20868Y16014D1*
X20855Y16029D1*
X20844Y16044D1*
X20833Y16060D1*
X20824Y16077D1*
X20816Y16095D1*
X20809Y16113D1*
X20803Y16131D1*
X20799Y16150D1*
X20795Y16169D1*
X20793Y16189D1*
Y16208D1*
X21553Y16211D2*
X21554Y16231D1*
X21556Y16250D1*
X21559Y16270D1*
X21563Y16289D1*
X21569Y16307D1*
X21576Y16325D1*
X21584Y16343D1*
X21594Y16360D1*
X21604Y16376D1*
X21616Y16391D1*
X21628Y16406D1*
X21641Y16419D1*
X21656Y16432D1*
X21671Y16443D1*
X21686Y16453D1*
X21703Y16463D1*
X21720Y16471D1*
X21737Y16477D1*
X21755Y16483D1*
X21773Y16487D1*
X21792Y16489D1*
X21810Y16491D1*
X21829D1*
X21848Y16489D1*
X21866Y16487D1*
X21884Y16483D1*
X21902Y16477D1*
X21920Y16471D1*
X21937Y16463D1*
X21953Y16453D1*
X21969Y16443D1*
X21984Y16432D1*
X21998Y16419D1*
X22012Y16406D1*
X22024Y16391D1*
X22035Y16376D1*
X22046Y16360D1*
X22055Y16343D1*
X22063Y16325D1*
X22070Y16307D1*
X22076Y16289D1*
X22081Y16270D1*
X22084Y16250D1*
X22086Y16231D1*
Y16211D1*
Y16192D1*
X22084Y16173D1*
X22081Y16153D1*
X22076Y16134D1*
X22070Y16116D1*
X22063Y16098D1*
X22055Y16080D1*
X22046Y16063D1*
X22035Y16047D1*
X22024Y16032D1*
X22012Y16017D1*
X21998Y16004D1*
X21984Y15991D1*
X21969Y15980D1*
X21953Y15970D1*
X21937Y15960D1*
X21920Y15952D1*
X21902Y15946D1*
X21884Y15940D1*
X21866Y15936D1*
X21848Y15934D1*
X21829Y15932D1*
X21810D1*
X21792Y15934D1*
X21773Y15936D1*
X21755Y15940D1*
X21737Y15946D1*
X21720Y15952D1*
X21703Y15960D1*
X21686Y15970D1*
X21671Y15980D1*
X21656Y15991D1*
X21641Y16004D1*
X21628Y16017D1*
X21616Y16032D1*
X21604Y16047D1*
X21594Y16063D1*
X21584Y16080D1*
X21576Y16098D1*
X21569Y16116D1*
X21563Y16134D1*
X21559Y16153D1*
X21556Y16173D1*
X21554Y16192D1*
X21553Y16211D1*
X19270Y16208D2*
X19271Y16228D1*
X19272Y16247D1*
X19276Y16266D1*
X19280Y16285D1*
X19286Y16304D1*
X19293Y16322D1*
X19301Y16339D1*
X19310Y16356D1*
X19321Y16372D1*
X19332Y16388D1*
X19345Y16402D1*
X19358Y16416D1*
X19372Y16428D1*
X19387Y16440D1*
X19403Y16450D1*
X19420Y16459D1*
X19437Y16467D1*
X19454Y16474D1*
X19472Y16479D1*
X19490Y16483D1*
X19509Y16486D1*
X19527Y16487D1*
X19546D1*
X19564Y16486D1*
X19583Y16483D1*
X19601Y16479D1*
X19619Y16474D1*
X19636Y16467D1*
X19653Y16459D1*
X19670Y16450D1*
X19686Y16440D1*
X19701Y16428D1*
X19715Y16416D1*
X19728Y16402D1*
X19741Y16388D1*
X19752Y16372D1*
X19763Y16356D1*
X19772Y16339D1*
X19780Y16322D1*
X19787Y16304D1*
X19793Y16285D1*
X19797Y16266D1*
X19800Y16247D1*
X19802Y16228D1*
X19803Y16208D1*
X19802Y16189D1*
X19800Y16169D1*
X19797Y16150D1*
X19793Y16131D1*
X19787Y16113D1*
X19780Y16095D1*
X19772Y16077D1*
X19763Y16060D1*
X19752Y16044D1*
X19741Y16029D1*
X19728Y16014D1*
X19715Y16001D1*
X19701Y15988D1*
X19686Y15977D1*
X19670Y15966D1*
X19653Y15957D1*
X19636Y15949D1*
X19619Y15942D1*
X19601Y15937D1*
X19583Y15933D1*
X19564Y15930D1*
X19546Y15929D1*
X19527D1*
X19509Y15930D1*
X19490Y15933D1*
X19472Y15937D1*
X19454Y15942D1*
X19437Y15949D1*
X19420Y15957D1*
X19403Y15966D1*
X19387Y15977D1*
X19372Y15988D1*
X19358Y16001D1*
X19345Y16014D1*
X19332Y16029D1*
X19321Y16044D1*
X19310Y16060D1*
X19301Y16077D1*
X19293Y16095D1*
X19286Y16113D1*
X19280Y16131D1*
X19276Y16150D1*
X19272Y16169D1*
X19271Y16189D1*
X19270Y16208D1*
X20029Y16211D2*
X20030Y16231D1*
X20032Y16250D1*
X20035Y16270D1*
X20040Y16289D1*
X20046Y16307D1*
X20053Y16325D1*
X20061Y16343D1*
X20070Y16360D1*
X20080Y16376D1*
X20092Y16391D1*
X20104Y16406D1*
X20118Y16419D1*
X20132Y16432D1*
X20147Y16443D1*
X20163Y16453D1*
X20179Y16463D1*
X20196Y16471D1*
X20214Y16477D1*
X20232Y16483D1*
X20250Y16487D1*
X20268Y16489D1*
X20287Y16491D1*
X20305D1*
X20324Y16489D1*
X20342Y16487D1*
X20361Y16483D1*
X20378Y16477D1*
X20396Y16471D1*
X20413Y16463D1*
X20429Y16453D1*
X20445Y16443D1*
X20460Y16432D1*
X20474Y16419D1*
X20488Y16406D1*
X20500Y16391D1*
X20512Y16376D1*
X20522Y16360D1*
X20531Y16343D1*
X20540Y16325D1*
X20547Y16307D1*
X20552Y16289D1*
X20557Y16270D1*
X20560Y16250D1*
X20562Y16231D1*
X20563Y16211D1*
X20562Y16192D1*
X20560Y16173D1*
X20557Y16153D1*
X20552Y16134D1*
X20547Y16116D1*
X20540Y16098D1*
X20531Y16080D1*
X20522Y16063D1*
X20512Y16047D1*
X20500Y16032D1*
X20488Y16017D1*
X20474Y16004D1*
X20460Y15991D1*
X20445Y15980D1*
X20429Y15970D1*
X20413Y15960D1*
X20396Y15952D1*
X20378Y15946D1*
X20361Y15940D1*
X20342Y15936D1*
X20324Y15934D1*
X20305Y15932D1*
X20287D1*
X20268Y15934D1*
X20250Y15936D1*
X20232Y15940D1*
X20214Y15946D1*
X20196Y15952D1*
X20179Y15960D1*
X20163Y15970D1*
X20147Y15980D1*
X20132Y15991D1*
X20118Y16004D1*
X20104Y16017D1*
X20092Y16032D1*
X20080Y16047D1*
X20070Y16063D1*
X20061Y16080D1*
X20053Y16098D1*
X20046Y16116D1*
X20040Y16134D1*
X20035Y16153D1*
X20032Y16173D1*
X20030Y16192D1*
X20029Y16211D1*
X18507D2*
Y16231D1*
X18509Y16250D1*
X18512Y16270D1*
X18517Y16289D1*
X18523Y16307D1*
X18530Y16325D1*
X18538Y16343D1*
X18547Y16360D1*
X18557Y16376D1*
X18569Y16391D1*
X18581Y16406D1*
X18595Y16419D1*
X18609Y16432D1*
X18624Y16443D1*
X18640Y16453D1*
X18656Y16463D1*
X18673Y16471D1*
X18691Y16477D1*
X18709Y16483D1*
X18727Y16487D1*
X18745Y16489D1*
X18764Y16491D1*
X18782D1*
X18801Y16489D1*
X18819Y16487D1*
X18838Y16483D1*
X18856Y16477D1*
X18873Y16471D1*
X18890Y16463D1*
X18906Y16453D1*
X18922Y16443D1*
X18937Y16432D1*
X18952Y16419D1*
X18965Y16406D1*
X18977Y16391D1*
X18989Y16376D1*
X18999Y16360D1*
X19009Y16343D1*
X19017Y16325D1*
X19024Y16307D1*
X19029Y16289D1*
X19034Y16270D1*
X19037Y16250D1*
X19039Y16231D1*
X19040Y16211D1*
X19039Y16192D1*
X19037Y16173D1*
X19034Y16153D1*
X19029Y16134D1*
X19024Y16116D1*
X19017Y16098D1*
X19009Y16080D1*
X18999Y16063D1*
X18989Y16047D1*
X18977Y16032D1*
X18965Y16017D1*
X18952Y16004D1*
X18937Y15991D1*
X18922Y15980D1*
X18906Y15970D1*
X18890Y15960D1*
X18873Y15952D1*
X18856Y15946D1*
X18838Y15940D1*
X18819Y15936D1*
X18801Y15934D1*
X18782Y15932D1*
X18764D1*
X18745Y15934D1*
X18727Y15936D1*
X18709Y15940D1*
X18691Y15946D1*
X18673Y15952D1*
X18656Y15960D1*
X18640Y15970D1*
X18624Y15980D1*
X18609Y15991D1*
X18595Y16004D1*
X18581Y16017D1*
X18569Y16032D1*
X18557Y16047D1*
X18547Y16063D1*
X18538Y16080D1*
X18530Y16098D1*
X18523Y16116D1*
X18517Y16134D1*
X18512Y16153D1*
X18509Y16173D1*
X18507Y16192D1*
Y16211D1*
X17743D2*
X17744Y16231D1*
X17746Y16250D1*
X17749Y16270D1*
X17754Y16289D1*
X17759Y16307D1*
X17766Y16325D1*
X17774Y16343D1*
X17784Y16360D1*
X17794Y16376D1*
X17806Y16391D1*
X17818Y16406D1*
X17831Y16419D1*
X17846Y16432D1*
X17861Y16443D1*
X17877Y16453D1*
X17893Y16463D1*
X17910Y16471D1*
X17927Y16477D1*
X17945Y16483D1*
X17964Y16487D1*
X17982Y16489D1*
X18001Y16491D1*
X18019D1*
X18038Y16489D1*
X18056Y16487D1*
X18074Y16483D1*
X18092Y16477D1*
X18110Y16471D1*
X18127Y16463D1*
X18143Y16453D1*
X18159Y16443D1*
X18174Y16432D1*
X18188Y16419D1*
X18202Y16406D1*
X18214Y16391D1*
X18226Y16376D1*
X18236Y16360D1*
X18245Y16343D1*
X18253Y16325D1*
X18260Y16307D1*
X18266Y16289D1*
X18271Y16270D1*
X18274Y16250D1*
X18276Y16231D1*
Y16211D1*
Y16192D1*
X18274Y16173D1*
X18271Y16153D1*
X18266Y16134D1*
X18260Y16116D1*
X18253Y16098D1*
X18245Y16080D1*
X18236Y16063D1*
X18226Y16047D1*
X18214Y16032D1*
X18202Y16017D1*
X18188Y16004D1*
X18174Y15991D1*
X18159Y15980D1*
X18143Y15970D1*
X18127Y15960D1*
X18110Y15952D1*
X18092Y15946D1*
X18074Y15940D1*
X18056Y15936D1*
X18038Y15934D1*
X18019Y15932D1*
X18001D1*
X17982Y15934D1*
X17964Y15936D1*
X17945Y15940D1*
X17927Y15946D1*
X17910Y15952D1*
X17893Y15960D1*
X17877Y15970D1*
X17861Y15980D1*
X17846Y15991D1*
X17831Y16004D1*
X17818Y16017D1*
X17806Y16032D1*
X17794Y16047D1*
X17784Y16063D1*
X17774Y16080D1*
X17766Y16098D1*
X17759Y16116D1*
X17754Y16134D1*
X17749Y16153D1*
X17746Y16173D1*
X17744Y16192D1*
X17743Y16211D1*
X20745Y17681D2*
X20746Y17704D1*
X20748Y17728D1*
X20751Y17751D1*
X20756Y17774D1*
X20763Y17796D1*
X20770Y17818D1*
X20779Y17839D1*
X20789Y17859D1*
X20801Y17879D1*
X20813Y17897D1*
X20827Y17914D1*
X20842Y17931D1*
X20857Y17946D1*
X20874Y17960D1*
X20891Y17972D1*
X20909Y17983D1*
X20928Y17993D1*
X20947Y18001D1*
X20967Y18007D1*
X20987Y18012D1*
X21007Y18015D1*
X21027Y18017D1*
X21047D1*
X21068Y18015D1*
X21088Y18012D1*
X21108Y18007D1*
X21128Y18001D1*
X21147Y17993D1*
X21165Y17983D1*
X21183Y17972D1*
X21201Y17960D1*
X21217Y17946D1*
X21233Y17931D1*
X21248Y17914D1*
X21261Y17897D1*
X21274Y17879D1*
X21285Y17859D1*
X21295Y17839D1*
X21304Y17818D1*
X21312Y17796D1*
X21318Y17774D1*
X21323Y17751D1*
X21327Y17728D1*
X21329Y17704D1*
X21330Y17681D1*
X21329Y17657D1*
X21327Y17634D1*
X21323Y17611D1*
X21318Y17588D1*
X21312Y17566D1*
X21304Y17544D1*
X21295Y17523D1*
X21285Y17503D1*
X21274Y17483D1*
X21261Y17465D1*
X21248Y17447D1*
X21233Y17431D1*
X21217Y17416D1*
X21201Y17402D1*
X21183Y17390D1*
X21165Y17379D1*
X21147Y17369D1*
X21128Y17361D1*
X21108Y17354D1*
X21088Y17350D1*
X21068Y17346D1*
X21047Y17345D1*
X21027D1*
X21007Y17346D1*
X20987Y17350D1*
X20967Y17354D1*
X20947Y17361D1*
X20928Y17369D1*
X20909Y17379D1*
X20891Y17390D1*
X20874Y17402D1*
X20857Y17416D1*
X20842Y17431D1*
X20827Y17447D1*
X20813Y17465D1*
X20801Y17483D1*
X20789Y17503D1*
X20779Y17523D1*
X20770Y17544D1*
X20763Y17566D1*
X20756Y17588D1*
X20751Y17611D1*
X20748Y17634D1*
X20746Y17657D1*
X20745Y17681D1*
X21556Y17741D2*
X21557Y17761D1*
X21559Y17780D1*
X21562Y17799D1*
X21566Y17818D1*
X21572Y17837D1*
X21579Y17855D1*
X21587Y17872D1*
X21597Y17889D1*
X21607Y17905D1*
X21618Y17921D1*
X21631Y17935D1*
X21644Y17949D1*
X21659Y17961D1*
X21674Y17973D1*
X21689Y17983D1*
X21706Y17992D1*
X21723Y18000D1*
X21740Y18007D1*
X21758Y18012D1*
X21776Y18016D1*
X21795Y18019D1*
X21813Y18020D1*
X21832D1*
X21851Y18019D1*
X21869Y18016D1*
X21887Y18012D1*
X21905Y18007D1*
X21923Y18000D1*
X21940Y17992D1*
X21956Y17983D1*
X21972Y17973D1*
X21987Y17961D1*
X22001Y17949D1*
X22014Y17935D1*
X22027Y17921D1*
X22038Y17905D1*
X22049Y17889D1*
X22058Y17872D1*
X22066Y17855D1*
X22073Y17837D1*
X22079Y17818D1*
X22083Y17799D1*
X22087Y17780D1*
X22089Y17761D1*
Y17741D1*
Y17722D1*
X22087Y17702D1*
X22083Y17683D1*
X22079Y17664D1*
X22073Y17646D1*
X22066Y17627D1*
X22058Y17610D1*
X22049Y17593D1*
X22038Y17577D1*
X22027Y17562D1*
X22014Y17547D1*
X22001Y17533D1*
X21987Y17521D1*
X21972Y17509D1*
X21956Y17499D1*
X21940Y17490D1*
X21923Y17482D1*
X21905Y17475D1*
X21887Y17470D1*
X21869Y17466D1*
X21851Y17463D1*
X21832Y17462D1*
X21813D1*
X21795Y17463D1*
X21776Y17466D1*
X21758Y17470D1*
X21740Y17475D1*
X21723Y17482D1*
X21706Y17490D1*
X21689Y17499D1*
X21674Y17509D1*
X21659Y17521D1*
X21644Y17533D1*
X21631Y17547D1*
X21618Y17562D1*
X21607Y17577D1*
X21597Y17593D1*
X21587Y17610D1*
X21579Y17627D1*
X21572Y17646D1*
X21566Y17664D1*
X21562Y17683D1*
X21559Y17702D1*
X21557Y17722D1*
X21556Y17741D1*
X19273Y17738D2*
Y17757D1*
X19275Y17777D1*
X19279Y17796D1*
X19283Y17815D1*
X19289Y17833D1*
X19296Y17851D1*
X19304Y17869D1*
X19313Y17886D1*
X19324Y17902D1*
X19335Y17917D1*
X19348Y17932D1*
X19361Y17945D1*
X19375Y17958D1*
X19390Y17969D1*
X19406Y17980D1*
X19423Y17989D1*
X19440Y17997D1*
X19457Y18003D1*
X19475Y18009D1*
X19493Y18013D1*
X19512Y18016D1*
X19530Y18017D1*
X19549D1*
X19567Y18016D1*
X19586Y18013D1*
X19604Y18009D1*
X19622Y18003D1*
X19639Y17997D1*
X19656Y17989D1*
X19673Y17980D1*
X19689Y17969D1*
X19704Y17958D1*
X19718Y17945D1*
X19731Y17932D1*
X19744Y17917D1*
X19755Y17902D1*
X19766Y17886D1*
X19775Y17869D1*
X19783Y17851D1*
X19790Y17833D1*
X19796Y17815D1*
X19800Y17796D1*
X19803Y17777D1*
X19805Y17757D1*
X19806Y17738D1*
X19805Y17718D1*
X19803Y17699D1*
X19800Y17680D1*
X19796Y17661D1*
X19790Y17642D1*
X19783Y17624D1*
X19775Y17607D1*
X19766Y17590D1*
X19755Y17574D1*
X19744Y17558D1*
X19731Y17544D1*
X19718Y17530D1*
X19704Y17518D1*
X19689Y17506D1*
X19673Y17496D1*
X19656Y17487D1*
X19639Y17479D1*
X19622Y17472D1*
X19604Y17467D1*
X19586Y17463D1*
X19567Y17460D1*
X19549Y17459D1*
X19530D1*
X19512Y17460D1*
X19493Y17463D1*
X19475Y17467D1*
X19457Y17472D1*
X19440Y17479D1*
X19423Y17487D1*
X19406Y17496D1*
X19390Y17506D1*
X19375Y17518D1*
X19361Y17530D1*
X19348Y17544D1*
X19335Y17558D1*
X19324Y17574D1*
X19313Y17590D1*
X19304Y17607D1*
X19296Y17624D1*
X19289Y17642D1*
X19283Y17661D1*
X19279Y17680D1*
X19275Y17699D1*
X19273Y17718D1*
Y17738D1*
X20033Y17741D2*
X20034Y17761D1*
X20036Y17780D1*
X20039Y17799D1*
X20044Y17818D1*
X20049Y17837D1*
X20056Y17855D1*
X20064Y17872D1*
X20074Y17889D1*
X20084Y17905D1*
X20096Y17921D1*
X20108Y17935D1*
X20121Y17949D1*
X20136Y17961D1*
X20151Y17973D1*
X20166Y17983D1*
X20183Y17992D1*
X20200Y18000D1*
X20217Y18007D1*
X20235Y18012D1*
X20253Y18016D1*
X20272Y18019D1*
X20290Y18020D1*
X20309D1*
X20328Y18019D1*
X20346Y18016D1*
X20364Y18012D1*
X20382Y18007D1*
X20400Y18000D1*
X20417Y17992D1*
X20433Y17983D1*
X20449Y17973D1*
X20464Y17961D1*
X20478Y17949D1*
X20492Y17935D1*
X20504Y17921D1*
X20515Y17905D1*
X20526Y17889D1*
X20535Y17872D1*
X20543Y17855D1*
X20550Y17837D1*
X20556Y17818D1*
X20561Y17799D1*
X20564Y17780D1*
X20566Y17761D1*
Y17741D1*
Y17722D1*
X20564Y17702D1*
X20561Y17683D1*
X20556Y17664D1*
X20550Y17646D1*
X20543Y17627D1*
X20535Y17610D1*
X20526Y17593D1*
X20515Y17577D1*
X20504Y17562D1*
X20492Y17547D1*
X20478Y17533D1*
X20464Y17521D1*
X20449Y17509D1*
X20433Y17499D1*
X20417Y17490D1*
X20400Y17482D1*
X20382Y17475D1*
X20364Y17470D1*
X20346Y17466D1*
X20328Y17463D1*
X20309Y17462D1*
X20290D1*
X20272Y17463D1*
X20253Y17466D1*
X20235Y17470D1*
X20217Y17475D1*
X20200Y17482D1*
X20183Y17490D1*
X20166Y17499D1*
X20151Y17509D1*
X20136Y17521D1*
X20121Y17533D1*
X20108Y17547D1*
X20096Y17562D1*
X20084Y17577D1*
X20074Y17593D1*
X20064Y17610D1*
X20056Y17627D1*
X20049Y17646D1*
X20044Y17664D1*
X20039Y17683D1*
X20036Y17702D1*
X20034Y17722D1*
X20033Y17741D1*
X18510D2*
Y17761D1*
X18512Y17780D1*
X18515Y17799D1*
X18520Y17818D1*
X18526Y17837D1*
X18533Y17855D1*
X18541Y17872D1*
X18550Y17889D1*
X18560Y17905D1*
X18572Y17921D1*
X18584Y17935D1*
X18598Y17949D1*
X18612Y17961D1*
X18627Y17973D1*
X18643Y17983D1*
X18659Y17992D1*
X18676Y18000D1*
X18694Y18007D1*
X18712Y18012D1*
X18730Y18016D1*
X18748Y18019D1*
X18767Y18020D1*
X18785D1*
X18804Y18019D1*
X18822Y18016D1*
X18841Y18012D1*
X18859Y18007D1*
X18876Y18000D1*
X18893Y17992D1*
X18909Y17983D1*
X18925Y17973D1*
X18940Y17961D1*
X18955Y17949D1*
X18968Y17935D1*
X18980Y17921D1*
X18992Y17905D1*
X19002Y17889D1*
X19012Y17872D1*
X19020Y17855D1*
X19027Y17837D1*
X19032Y17818D1*
X19037Y17799D1*
X19040Y17780D1*
X19042Y17761D1*
X19043Y17741D1*
X19042Y17722D1*
X19040Y17702D1*
X19037Y17683D1*
X19032Y17664D1*
X19027Y17646D1*
X19020Y17627D1*
X19012Y17610D1*
X19002Y17593D1*
X18992Y17577D1*
X18980Y17562D1*
X18968Y17547D1*
X18955Y17533D1*
X18940Y17521D1*
X18925Y17509D1*
X18909Y17499D1*
X18893Y17490D1*
X18876Y17482D1*
X18859Y17475D1*
X18841Y17470D1*
X18822Y17466D1*
X18804Y17463D1*
X18785Y17462D1*
X18767D1*
X18748Y17463D1*
X18730Y17466D1*
X18712Y17470D1*
X18694Y17475D1*
X18676Y17482D1*
X18659Y17490D1*
X18643Y17499D1*
X18627Y17509D1*
X18612Y17521D1*
X18598Y17533D1*
X18584Y17547D1*
X18572Y17562D1*
X18560Y17577D1*
X18550Y17593D1*
X18541Y17610D1*
X18533Y17627D1*
X18526Y17646D1*
X18520Y17664D1*
X18515Y17683D1*
X18512Y17702D1*
X18510Y17722D1*
Y17741D1*
X17746D2*
X17747Y17761D1*
X17749Y17780D1*
X17752Y17799D1*
X17757Y17818D1*
X17762Y17837D1*
X17769Y17855D1*
X17777Y17872D1*
X17787Y17889D1*
X17797Y17905D1*
X17809Y17921D1*
X17821Y17935D1*
X17834Y17949D1*
X17849Y17961D1*
X17864Y17973D1*
X17880Y17983D1*
X17896Y17992D1*
X17913Y18000D1*
X17930Y18007D1*
X17948Y18012D1*
X17967Y18016D1*
X17985Y18019D1*
X18004Y18020D1*
X18022D1*
X18041Y18019D1*
X18059Y18016D1*
X18077Y18012D1*
X18095Y18007D1*
X18113Y18000D1*
X18130Y17992D1*
X18146Y17983D1*
X18162Y17973D1*
X18177Y17961D1*
X18191Y17949D1*
X18205Y17935D1*
X18217Y17921D1*
X18228Y17905D1*
X18239Y17889D1*
X18248Y17872D1*
X18256Y17855D1*
X18263Y17837D1*
X18269Y17818D1*
X18274Y17799D1*
X18277Y17780D1*
X18279Y17761D1*
Y17741D1*
Y17722D1*
X18277Y17702D1*
X18274Y17683D1*
X18269Y17664D1*
X18263Y17646D1*
X18256Y17627D1*
X18248Y17610D1*
X18239Y17593D1*
X18228Y17577D1*
X18217Y17562D1*
X18205Y17547D1*
X18191Y17533D1*
X18177Y17521D1*
X18162Y17509D1*
X18146Y17499D1*
X18130Y17490D1*
X18113Y17482D1*
X18095Y17475D1*
X18077Y17470D1*
X18059Y17466D1*
X18041Y17463D1*
X18022Y17462D1*
X18004D1*
X17985Y17463D1*
X17967Y17466D1*
X17948Y17470D1*
X17930Y17475D1*
X17913Y17482D1*
X17896Y17490D1*
X17880Y17499D1*
X17864Y17509D1*
X17849Y17521D1*
X17834Y17533D1*
X17821Y17547D1*
X17809Y17562D1*
X17797Y17577D1*
X17787Y17593D1*
X17777Y17610D1*
X17769Y17627D1*
X17762Y17646D1*
X17757Y17664D1*
X17752Y17683D1*
X17749Y17702D1*
X17747Y17722D1*
X17746Y17741D1*
X20793Y15441D2*
Y15460D1*
X20795Y15480D1*
X20799Y15499D1*
X20803Y15518D1*
X20809Y15537D1*
X20816Y15555D1*
X20824Y15572D1*
X20833Y15589D1*
X20844Y15605D1*
X20855Y15621D1*
X20868Y15635D1*
X20881Y15649D1*
X20895Y15661D1*
X20910Y15673D1*
X20926Y15683D1*
X20943Y15692D1*
X20960Y15700D1*
X20977Y15707D1*
X20995Y15712D1*
X21013Y15716D1*
X21032Y15719D1*
X21050Y15720D1*
X21069D1*
X21087Y15719D1*
X21106Y15716D1*
X21124Y15712D1*
X21142Y15707D1*
X21159Y15700D1*
X21176Y15692D1*
X21193Y15683D1*
X21208Y15673D1*
X21224Y15661D1*
X21238Y15649D1*
X21251Y15635D1*
X21264Y15621D1*
X21275Y15605D1*
X21286Y15589D1*
X21295Y15572D1*
X21303Y15555D1*
X21310Y15537D1*
X21316Y15518D1*
X21320Y15499D1*
X21323Y15480D1*
X21325Y15460D1*
X21326Y15441D1*
X21325Y15422D1*
X21323Y15402D1*
X21320Y15383D1*
X21316Y15364D1*
X21310Y15345D1*
X21303Y15327D1*
X21295Y15310D1*
X21286Y15293D1*
X21275Y15277D1*
X21264Y15261D1*
X21251Y15247D1*
X21238Y15233D1*
X21224Y15221D1*
X21208Y15209D1*
X21193Y15199D1*
X21176Y15190D1*
X21159Y15182D1*
X21142Y15175D1*
X21124Y15170D1*
X21106Y15166D1*
X21087Y15163D1*
X21069Y15162D1*
X21050D1*
X21032Y15163D1*
X21013Y15166D1*
X20995Y15170D1*
X20977Y15175D1*
X20960Y15182D1*
X20943Y15190D1*
X20926Y15199D1*
X20910Y15209D1*
X20895Y15221D1*
X20881Y15233D1*
X20868Y15247D1*
X20855Y15261D1*
X20844Y15277D1*
X20833Y15293D1*
X20824Y15310D1*
X20816Y15327D1*
X20809Y15345D1*
X20803Y15364D1*
X20799Y15383D1*
X20795Y15402D1*
X20793Y15422D1*
Y15441D1*
X21553Y15444D2*
X21554Y15464D1*
X21556Y15483D1*
X21559Y15502D1*
X21563Y15521D1*
X21569Y15540D1*
X21576Y15558D1*
X21584Y15576D1*
X21594Y15592D1*
X21604Y15609D1*
X21616Y15624D1*
X21628Y15638D1*
X21641Y15652D1*
X21656Y15665D1*
X21671Y15676D1*
X21686Y15686D1*
X21703Y15695D1*
X21720Y15703D1*
X21737Y15710D1*
X21755Y15715D1*
X21773Y15719D1*
X21792Y15722D1*
X21810Y15724D1*
X21829D1*
X21848Y15722D1*
X21866Y15719D1*
X21884Y15715D1*
X21902Y15710D1*
X21920Y15703D1*
X21937Y15695D1*
X21953Y15686D1*
X21969Y15676D1*
X21984Y15665D1*
X21998Y15652D1*
X22012Y15638D1*
X22024Y15624D1*
X22035Y15609D1*
X22046Y15592D1*
X22055Y15576D1*
X22063Y15558D1*
X22070Y15540D1*
X22076Y15521D1*
X22081Y15502D1*
X22084Y15483D1*
X22086Y15464D1*
Y15444D1*
Y15425D1*
X22084Y15405D1*
X22081Y15386D1*
X22076Y15367D1*
X22070Y15349D1*
X22063Y15331D1*
X22055Y15313D1*
X22046Y15296D1*
X22035Y15280D1*
X22024Y15265D1*
X22012Y15250D1*
X21998Y15237D1*
X21984Y15224D1*
X21969Y15213D1*
X21953Y15202D1*
X21937Y15193D1*
X21920Y15185D1*
X21902Y15179D1*
X21884Y15173D1*
X21866Y15169D1*
X21848Y15166D1*
X21829Y15165D1*
X21810D1*
X21792Y15166D1*
X21773Y15169D1*
X21755Y15173D1*
X21737Y15179D1*
X21720Y15185D1*
X21703Y15193D1*
X21686Y15202D1*
X21671Y15213D1*
X21656Y15224D1*
X21641Y15237D1*
X21628Y15250D1*
X21616Y15265D1*
X21604Y15280D1*
X21594Y15296D1*
X21584Y15313D1*
X21576Y15331D1*
X21569Y15349D1*
X21563Y15367D1*
X21559Y15386D1*
X21556Y15405D1*
X21554Y15425D1*
X21553Y15444D1*
X19270Y15441D2*
X19271Y15460D1*
X19272Y15480D1*
X19276Y15499D1*
X19280Y15518D1*
X19286Y15537D1*
X19293Y15555D1*
X19301Y15572D1*
X19310Y15589D1*
X19321Y15605D1*
X19332Y15621D1*
X19345Y15635D1*
X19358Y15649D1*
X19372Y15661D1*
X19387Y15673D1*
X19403Y15683D1*
X19420Y15692D1*
X19437Y15700D1*
X19454Y15707D1*
X19472Y15712D1*
X19490Y15716D1*
X19509Y15719D1*
X19527Y15720D1*
X19546D1*
X19564Y15719D1*
X19583Y15716D1*
X19601Y15712D1*
X19619Y15707D1*
X19636Y15700D1*
X19653Y15692D1*
X19670Y15683D1*
X19686Y15673D1*
X19701Y15661D1*
X19715Y15649D1*
X19728Y15635D1*
X19741Y15621D1*
X19752Y15605D1*
X19763Y15589D1*
X19772Y15572D1*
X19780Y15555D1*
X19787Y15537D1*
X19793Y15518D1*
X19797Y15499D1*
X19800Y15480D1*
X19802Y15460D1*
X19803Y15441D1*
X19802Y15422D1*
X19800Y15402D1*
X19797Y15383D1*
X19793Y15364D1*
X19787Y15345D1*
X19780Y15327D1*
X19772Y15310D1*
X19763Y15293D1*
X19752Y15277D1*
X19741Y15261D1*
X19728Y15247D1*
X19715Y15233D1*
X19701Y15221D1*
X19686Y15209D1*
X19670Y15199D1*
X19653Y15190D1*
X19636Y15182D1*
X19619Y15175D1*
X19601Y15170D1*
X19583Y15166D1*
X19564Y15163D1*
X19546Y15162D1*
X19527D1*
X19509Y15163D1*
X19490Y15166D1*
X19472Y15170D1*
X19454Y15175D1*
X19437Y15182D1*
X19420Y15190D1*
X19403Y15199D1*
X19387Y15209D1*
X19372Y15221D1*
X19358Y15233D1*
X19345Y15247D1*
X19332Y15261D1*
X19321Y15277D1*
X19310Y15293D1*
X19301Y15310D1*
X19293Y15327D1*
X19286Y15345D1*
X19280Y15364D1*
X19276Y15383D1*
X19272Y15402D1*
X19271Y15422D1*
X19270Y15441D1*
X20029Y15444D2*
X20030Y15464D1*
X20032Y15483D1*
X20035Y15502D1*
X20040Y15521D1*
X20046Y15540D1*
X20053Y15558D1*
X20061Y15576D1*
X20070Y15592D1*
X20080Y15609D1*
X20092Y15624D1*
X20104Y15638D1*
X20118Y15652D1*
X20132Y15665D1*
X20147Y15676D1*
X20163Y15686D1*
X20179Y15695D1*
X20196Y15703D1*
X20214Y15710D1*
X20232Y15715D1*
X20250Y15719D1*
X20268Y15722D1*
X20287Y15724D1*
X20305D1*
X20324Y15722D1*
X20342Y15719D1*
X20361Y15715D1*
X20378Y15710D1*
X20396Y15703D1*
X20413Y15695D1*
X20429Y15686D1*
X20445Y15676D1*
X20460Y15665D1*
X20474Y15652D1*
X20488Y15638D1*
X20500Y15624D1*
X20512Y15609D1*
X20522Y15592D1*
X20531Y15576D1*
X20540Y15558D1*
X20547Y15540D1*
X20552Y15521D1*
X20557Y15502D1*
X20560Y15483D1*
X20562Y15464D1*
X20563Y15444D1*
X20562Y15425D1*
X20560Y15405D1*
X20557Y15386D1*
X20552Y15367D1*
X20547Y15349D1*
X20540Y15331D1*
X20531Y15313D1*
X20522Y15296D1*
X20512Y15280D1*
X20500Y15265D1*
X20488Y15250D1*
X20474Y15237D1*
X20460Y15224D1*
X20445Y15213D1*
X20429Y15202D1*
X20413Y15193D1*
X20396Y15185D1*
X20378Y15179D1*
X20361Y15173D1*
X20342Y15169D1*
X20324Y15166D1*
X20305Y15165D1*
X20287D1*
X20268Y15166D1*
X20250Y15169D1*
X20232Y15173D1*
X20214Y15179D1*
X20196Y15185D1*
X20179Y15193D1*
X20163Y15202D1*
X20147Y15213D1*
X20132Y15224D1*
X20118Y15237D1*
X20104Y15250D1*
X20092Y15265D1*
X20080Y15280D1*
X20070Y15296D1*
X20061Y15313D1*
X20053Y15331D1*
X20046Y15349D1*
X20040Y15367D1*
X20035Y15386D1*
X20032Y15405D1*
X20030Y15425D1*
X20029Y15444D1*
X18507D2*
Y15464D1*
X18509Y15483D1*
X18512Y15502D1*
X18517Y15521D1*
X18523Y15540D1*
X18530Y15558D1*
X18538Y15576D1*
X18547Y15592D1*
X18557Y15609D1*
X18569Y15624D1*
X18581Y15638D1*
X18595Y15652D1*
X18609Y15665D1*
X18624Y15676D1*
X18640Y15686D1*
X18656Y15695D1*
X18673Y15703D1*
X18691Y15710D1*
X18709Y15715D1*
X18727Y15719D1*
X18745Y15722D1*
X18764Y15724D1*
X18782D1*
X18801Y15722D1*
X18819Y15719D1*
X18838Y15715D1*
X18856Y15710D1*
X18873Y15703D1*
X18890Y15695D1*
X18906Y15686D1*
X18922Y15676D1*
X18937Y15665D1*
X18952Y15652D1*
X18965Y15638D1*
X18977Y15624D1*
X18989Y15609D1*
X18999Y15592D1*
X19009Y15576D1*
X19017Y15558D1*
X19024Y15540D1*
X19029Y15521D1*
X19034Y15502D1*
X19037Y15483D1*
X19039Y15464D1*
X19040Y15444D1*
X19039Y15425D1*
X19037Y15405D1*
X19034Y15386D1*
X19029Y15367D1*
X19024Y15349D1*
X19017Y15331D1*
X19009Y15313D1*
X18999Y15296D1*
X18989Y15280D1*
X18977Y15265D1*
X18965Y15250D1*
X18952Y15237D1*
X18937Y15224D1*
X18922Y15213D1*
X18906Y15202D1*
X18890Y15193D1*
X18873Y15185D1*
X18856Y15179D1*
X18838Y15173D1*
X18819Y15169D1*
X18801Y15166D1*
X18782Y15165D1*
X18764D1*
X18745Y15166D1*
X18727Y15169D1*
X18709Y15173D1*
X18691Y15179D1*
X18673Y15185D1*
X18656Y15193D1*
X18640Y15202D1*
X18624Y15213D1*
X18609Y15224D1*
X18595Y15237D1*
X18581Y15250D1*
X18569Y15265D1*
X18557Y15280D1*
X18547Y15296D1*
X18538Y15313D1*
X18530Y15331D1*
X18523Y15349D1*
X18517Y15367D1*
X18512Y15386D1*
X18509Y15405D1*
X18507Y15425D1*
Y15444D1*
X17743D2*
X17744Y15464D1*
X17746Y15483D1*
X17749Y15502D1*
X17754Y15521D1*
X17759Y15540D1*
X17766Y15558D1*
X17774Y15576D1*
X17784Y15592D1*
X17794Y15609D1*
X17806Y15624D1*
X17818Y15638D1*
X17831Y15652D1*
X17846Y15665D1*
X17861Y15676D1*
X17877Y15686D1*
X17893Y15695D1*
X17910Y15703D1*
X17927Y15710D1*
X17945Y15715D1*
X17964Y15719D1*
X17982Y15722D1*
X18001Y15724D1*
X18019D1*
X18038Y15722D1*
X18056Y15719D1*
X18074Y15715D1*
X18092Y15710D1*
X18110Y15703D1*
X18127Y15695D1*
X18143Y15686D1*
X18159Y15676D1*
X18174Y15665D1*
X18188Y15652D1*
X18202Y15638D1*
X18214Y15624D1*
X18226Y15609D1*
X18236Y15592D1*
X18245Y15576D1*
X18253Y15558D1*
X18260Y15540D1*
X18266Y15521D1*
X18271Y15502D1*
X18274Y15483D1*
X18276Y15464D1*
Y15444D1*
Y15425D1*
X18274Y15405D1*
X18271Y15386D1*
X18266Y15367D1*
X18260Y15349D1*
X18253Y15331D1*
X18245Y15313D1*
X18236Y15296D1*
X18226Y15280D1*
X18214Y15265D1*
X18202Y15250D1*
X18188Y15237D1*
X18174Y15224D1*
X18159Y15213D1*
X18143Y15202D1*
X18127Y15193D1*
X18110Y15185D1*
X18092Y15179D1*
X18074Y15173D1*
X18056Y15169D1*
X18038Y15166D1*
X18019Y15165D1*
X18001D1*
X17982Y15166D1*
X17964Y15169D1*
X17945Y15173D1*
X17927Y15179D1*
X17910Y15185D1*
X17893Y15193D1*
X17877Y15202D1*
X17861Y15213D1*
X17846Y15224D1*
X17831Y15237D1*
X17818Y15250D1*
X17806Y15265D1*
X17794Y15280D1*
X17784Y15296D1*
X17774Y15313D1*
X17766Y15331D1*
X17759Y15349D1*
X17754Y15367D1*
X17749Y15386D1*
X17746Y15405D1*
X17744Y15425D1*
X17743Y15444D1*
X20793Y14675D2*
Y14694D1*
X20795Y14713D1*
X20799Y14733D1*
X20803Y14752D1*
X20809Y14770D1*
X20816Y14788D1*
X20824Y14806D1*
X20833Y14823D1*
X20844Y14839D1*
X20855Y14854D1*
X20868Y14869D1*
X20881Y14882D1*
X20895Y14895D1*
X20910Y14906D1*
X20926Y14916D1*
X20943Y14926D1*
X20960Y14934D1*
X20977Y14940D1*
X20995Y14946D1*
X21013Y14950D1*
X21032Y14952D1*
X21050Y14954D1*
X21069D1*
X21087Y14952D1*
X21106Y14950D1*
X21124Y14946D1*
X21142Y14940D1*
X21159Y14934D1*
X21176Y14926D1*
X21193Y14916D1*
X21208Y14906D1*
X21224Y14895D1*
X21238Y14882D1*
X21251Y14869D1*
X21264Y14854D1*
X21275Y14839D1*
X21286Y14823D1*
X21295Y14806D1*
X21303Y14788D1*
X21310Y14770D1*
X21316Y14752D1*
X21320Y14733D1*
X21323Y14713D1*
X21325Y14694D1*
X21326Y14675D1*
X21325Y14655D1*
X21323Y14636D1*
X21320Y14616D1*
X21316Y14598D1*
X21310Y14579D1*
X21303Y14561D1*
X21295Y14543D1*
X21286Y14526D1*
X21275Y14510D1*
X21264Y14495D1*
X21251Y14480D1*
X21238Y14467D1*
X21224Y14454D1*
X21208Y14443D1*
X21193Y14433D1*
X21176Y14423D1*
X21159Y14415D1*
X21142Y14409D1*
X21124Y14403D1*
X21106Y14399D1*
X21087Y14397D1*
X21069Y14395D1*
X21050D1*
X21032Y14397D1*
X21013Y14399D1*
X20995Y14403D1*
X20977Y14409D1*
X20960Y14415D1*
X20943Y14423D1*
X20926Y14433D1*
X20910Y14443D1*
X20895Y14454D1*
X20881Y14467D1*
X20868Y14480D1*
X20855Y14495D1*
X20844Y14510D1*
X20833Y14526D1*
X20824Y14543D1*
X20816Y14561D1*
X20809Y14579D1*
X20803Y14598D1*
X20799Y14616D1*
X20795Y14636D1*
X20793Y14655D1*
Y14675D1*
X21553Y14678D2*
X21554Y14697D1*
X21556Y14717D1*
X21559Y14736D1*
X21563Y14755D1*
X21569Y14773D1*
X21576Y14792D1*
X21584Y14809D1*
X21594Y14826D1*
X21604Y14842D1*
X21616Y14857D1*
X21628Y14872D1*
X21641Y14885D1*
X21656Y14898D1*
X21671Y14909D1*
X21686Y14920D1*
X21703Y14929D1*
X21720Y14937D1*
X21737Y14944D1*
X21755Y14949D1*
X21773Y14953D1*
X21792Y14956D1*
X21810Y14957D1*
X21829D1*
X21848Y14956D1*
X21866Y14953D1*
X21884Y14949D1*
X21902Y14944D1*
X21920Y14937D1*
X21937Y14929D1*
X21953Y14920D1*
X21969Y14909D1*
X21984Y14898D1*
X21998Y14885D1*
X22012Y14872D1*
X22024Y14857D1*
X22035Y14842D1*
X22046Y14826D1*
X22055Y14809D1*
X22063Y14792D1*
X22070Y14773D1*
X22076Y14755D1*
X22081Y14736D1*
X22084Y14717D1*
X22086Y14697D1*
Y14678D1*
Y14658D1*
X22084Y14639D1*
X22081Y14620D1*
X22076Y14601D1*
X22070Y14582D1*
X22063Y14564D1*
X22055Y14547D1*
X22046Y14530D1*
X22035Y14514D1*
X22024Y14498D1*
X22012Y14484D1*
X21998Y14470D1*
X21984Y14458D1*
X21969Y14446D1*
X21953Y14436D1*
X21937Y14427D1*
X21920Y14419D1*
X21902Y14412D1*
X21884Y14407D1*
X21866Y14403D1*
X21848Y14400D1*
X21829Y14399D1*
X21810D1*
X21792Y14400D1*
X21773Y14403D1*
X21755Y14407D1*
X21737Y14412D1*
X21720Y14419D1*
X21703Y14427D1*
X21686Y14436D1*
X21671Y14446D1*
X21656Y14458D1*
X21641Y14470D1*
X21628Y14484D1*
X21616Y14498D1*
X21604Y14514D1*
X21594Y14530D1*
X21584Y14547D1*
X21576Y14564D1*
X21569Y14582D1*
X21563Y14601D1*
X21559Y14620D1*
X21556Y14639D1*
X21554Y14658D1*
X21553Y14678D1*
X19270Y14675D2*
X19271Y14694D1*
X19272Y14713D1*
X19276Y14733D1*
X19280Y14752D1*
X19286Y14770D1*
X19293Y14788D1*
X19301Y14806D1*
X19310Y14823D1*
X19321Y14839D1*
X19332Y14854D1*
X19345Y14869D1*
X19358Y14882D1*
X19372Y14895D1*
X19387Y14906D1*
X19403Y14916D1*
X19420Y14926D1*
X19437Y14934D1*
X19454Y14940D1*
X19472Y14946D1*
X19490Y14950D1*
X19509Y14952D1*
X19527Y14954D1*
X19546D1*
X19564Y14952D1*
X19583Y14950D1*
X19601Y14946D1*
X19619Y14940D1*
X19636Y14934D1*
X19653Y14926D1*
X19670Y14916D1*
X19686Y14906D1*
X19701Y14895D1*
X19715Y14882D1*
X19728Y14869D1*
X19741Y14854D1*
X19752Y14839D1*
X19763Y14823D1*
X19772Y14806D1*
X19780Y14788D1*
X19787Y14770D1*
X19793Y14752D1*
X19797Y14733D1*
X19800Y14713D1*
X19802Y14694D1*
X19803Y14675D1*
X19802Y14655D1*
X19800Y14636D1*
X19797Y14616D1*
X19793Y14598D1*
X19787Y14579D1*
X19780Y14561D1*
X19772Y14543D1*
X19763Y14526D1*
X19752Y14510D1*
X19741Y14495D1*
X19728Y14480D1*
X19715Y14467D1*
X19701Y14454D1*
X19686Y14443D1*
X19670Y14433D1*
X19653Y14423D1*
X19636Y14415D1*
X19619Y14409D1*
X19601Y14403D1*
X19583Y14399D1*
X19564Y14397D1*
X19546Y14395D1*
X19527D1*
X19509Y14397D1*
X19490Y14399D1*
X19472Y14403D1*
X19454Y14409D1*
X19437Y14415D1*
X19420Y14423D1*
X19403Y14433D1*
X19387Y14443D1*
X19372Y14454D1*
X19358Y14467D1*
X19345Y14480D1*
X19332Y14495D1*
X19321Y14510D1*
X19310Y14526D1*
X19301Y14543D1*
X19293Y14561D1*
X19286Y14579D1*
X19280Y14598D1*
X19276Y14616D1*
X19272Y14636D1*
X19271Y14655D1*
X19270Y14675D1*
X20029Y14678D2*
X20030Y14697D1*
X20032Y14717D1*
X20035Y14736D1*
X20040Y14755D1*
X20046Y14773D1*
X20053Y14792D1*
X20061Y14809D1*
X20070Y14826D1*
X20080Y14842D1*
X20092Y14857D1*
X20104Y14872D1*
X20118Y14885D1*
X20132Y14898D1*
X20147Y14909D1*
X20163Y14920D1*
X20179Y14929D1*
X20196Y14937D1*
X20214Y14944D1*
X20232Y14949D1*
X20250Y14953D1*
X20268Y14956D1*
X20287Y14957D1*
X20305D1*
X20324Y14956D1*
X20342Y14953D1*
X20361Y14949D1*
X20378Y14944D1*
X20396Y14937D1*
X20413Y14929D1*
X20429Y14920D1*
X20445Y14909D1*
X20460Y14898D1*
X20474Y14885D1*
X20488Y14872D1*
X20500Y14857D1*
X20512Y14842D1*
X20522Y14826D1*
X20531Y14809D1*
X20540Y14792D1*
X20547Y14773D1*
X20552Y14755D1*
X20557Y14736D1*
X20560Y14717D1*
X20562Y14697D1*
X20563Y14678D1*
X20562Y14658D1*
X20560Y14639D1*
X20557Y14620D1*
X20552Y14601D1*
X20547Y14582D1*
X20540Y14564D1*
X20531Y14547D1*
X20522Y14530D1*
X20512Y14514D1*
X20500Y14498D1*
X20488Y14484D1*
X20474Y14470D1*
X20460Y14458D1*
X20445Y14446D1*
X20429Y14436D1*
X20413Y14427D1*
X20396Y14419D1*
X20378Y14412D1*
X20361Y14407D1*
X20342Y14403D1*
X20324Y14400D1*
X20305Y14399D1*
X20287D1*
X20268Y14400D1*
X20250Y14403D1*
X20232Y14407D1*
X20214Y14412D1*
X20196Y14419D1*
X20179Y14427D1*
X20163Y14436D1*
X20147Y14446D1*
X20132Y14458D1*
X20118Y14470D1*
X20104Y14484D1*
X20092Y14498D1*
X20080Y14514D1*
X20070Y14530D1*
X20061Y14547D1*
X20053Y14564D1*
X20046Y14582D1*
X20040Y14601D1*
X20035Y14620D1*
X20032Y14639D1*
X20030Y14658D1*
X20029Y14678D1*
X18507D2*
Y14697D1*
X18509Y14717D1*
X18512Y14736D1*
X18517Y14755D1*
X18523Y14773D1*
X18530Y14792D1*
X18538Y14809D1*
X18547Y14826D1*
X18557Y14842D1*
X18569Y14857D1*
X18581Y14872D1*
X18595Y14885D1*
X18609Y14898D1*
X18624Y14909D1*
X18640Y14920D1*
X18656Y14929D1*
X18673Y14937D1*
X18691Y14944D1*
X18709Y14949D1*
X18727Y14953D1*
X18745Y14956D1*
X18764Y14957D1*
X18782D1*
X18801Y14956D1*
X18819Y14953D1*
X18838Y14949D1*
X18856Y14944D1*
X18873Y14937D1*
X18890Y14929D1*
X18906Y14920D1*
X18922Y14909D1*
X18937Y14898D1*
X18952Y14885D1*
X18965Y14872D1*
X18977Y14857D1*
X18989Y14842D1*
X18999Y14826D1*
X19009Y14809D1*
X19017Y14792D1*
X19024Y14773D1*
X19029Y14755D1*
X19034Y14736D1*
X19037Y14717D1*
X19039Y14697D1*
X19040Y14678D1*
X19039Y14658D1*
X19037Y14639D1*
X19034Y14620D1*
X19029Y14601D1*
X19024Y14582D1*
X19017Y14564D1*
X19009Y14547D1*
X18999Y14530D1*
X18989Y14514D1*
X18977Y14498D1*
X18965Y14484D1*
X18952Y14470D1*
X18937Y14458D1*
X18922Y14446D1*
X18906Y14436D1*
X18890Y14427D1*
X18873Y14419D1*
X18856Y14412D1*
X18838Y14407D1*
X18819Y14403D1*
X18801Y14400D1*
X18782Y14399D1*
X18764D1*
X18745Y14400D1*
X18727Y14403D1*
X18709Y14407D1*
X18691Y14412D1*
X18673Y14419D1*
X18656Y14427D1*
X18640Y14436D1*
X18624Y14446D1*
X18609Y14458D1*
X18595Y14470D1*
X18581Y14484D1*
X18569Y14498D1*
X18557Y14514D1*
X18547Y14530D1*
X18538Y14547D1*
X18530Y14564D1*
X18523Y14582D1*
X18517Y14601D1*
X18512Y14620D1*
X18509Y14639D1*
X18507Y14658D1*
Y14678D1*
X17743D2*
X17744Y14697D1*
X17746Y14717D1*
X17749Y14736D1*
X17754Y14755D1*
X17759Y14773D1*
X17766Y14792D1*
X17774Y14809D1*
X17784Y14826D1*
X17794Y14842D1*
X17806Y14857D1*
X17818Y14872D1*
X17831Y14885D1*
X17846Y14898D1*
X17861Y14909D1*
X17877Y14920D1*
X17893Y14929D1*
X17910Y14937D1*
X17927Y14944D1*
X17945Y14949D1*
X17964Y14953D1*
X17982Y14956D1*
X18001Y14957D1*
X18019D1*
X18038Y14956D1*
X18056Y14953D1*
X18074Y14949D1*
X18092Y14944D1*
X18110Y14937D1*
X18127Y14929D1*
X18143Y14920D1*
X18159Y14909D1*
X18174Y14898D1*
X18188Y14885D1*
X18202Y14872D1*
X18214Y14857D1*
X18226Y14842D1*
X18236Y14826D1*
X18245Y14809D1*
X18253Y14792D1*
X18260Y14773D1*
X18266Y14755D1*
X18271Y14736D1*
X18274Y14717D1*
X18276Y14697D1*
Y14678D1*
Y14658D1*
X18274Y14639D1*
X18271Y14620D1*
X18266Y14601D1*
X18260Y14582D1*
X18253Y14564D1*
X18245Y14547D1*
X18236Y14530D1*
X18226Y14514D1*
X18214Y14498D1*
X18202Y14484D1*
X18188Y14470D1*
X18174Y14458D1*
X18159Y14446D1*
X18143Y14436D1*
X18127Y14427D1*
X18110Y14419D1*
X18092Y14412D1*
X18074Y14407D1*
X18056Y14403D1*
X18038Y14400D1*
X18019Y14399D1*
X18001D1*
X17982Y14400D1*
X17964Y14403D1*
X17945Y14407D1*
X17927Y14412D1*
X17910Y14419D1*
X17893Y14427D1*
X17877Y14436D1*
X17861Y14446D1*
X17846Y14458D1*
X17831Y14470D1*
X17818Y14484D1*
X17806Y14498D1*
X17794Y14514D1*
X17784Y14530D1*
X17774Y14547D1*
X17766Y14564D1*
X17759Y14582D1*
X17754Y14601D1*
X17749Y14620D1*
X17746Y14639D1*
X17744Y14658D1*
X17743Y14678D1*
X20790Y18505D2*
X20791Y18524D1*
X20792Y18544D1*
X20796Y18563D1*
X20800Y18582D1*
X20806Y18600D1*
X20813Y18619D1*
X20821Y18636D1*
X20830Y18653D1*
X20841Y18669D1*
X20852Y18684D1*
X20865Y18699D1*
X20878Y18713D1*
X20892Y18725D1*
X20907Y18737D1*
X20923Y18747D1*
X20940Y18756D1*
X20957Y18764D1*
X20974Y18771D1*
X20992Y18776D1*
X21010Y18780D1*
X21029Y18783D1*
X21047Y18784D1*
X21066D1*
X21084Y18783D1*
X21103Y18780D1*
X21121Y18776D1*
X21139Y18771D1*
X21156Y18764D1*
X21173Y18756D1*
X21190Y18747D1*
X21206Y18737D1*
X21221Y18725D1*
X21235Y18713D1*
X21248Y18699D1*
X21261Y18684D1*
X21272Y18669D1*
X21283Y18653D1*
X21292Y18636D1*
X21300Y18619D1*
X21307Y18600D1*
X21313Y18582D1*
X21317Y18563D1*
X21320Y18544D1*
X21322Y18524D1*
X21323Y18505D1*
X21322Y18485D1*
X21320Y18466D1*
X21317Y18447D1*
X21313Y18428D1*
X21307Y18409D1*
X21300Y18391D1*
X21292Y18374D1*
X21283Y18357D1*
X21272Y18341D1*
X21261Y18325D1*
X21248Y18311D1*
X21235Y18297D1*
X21221Y18285D1*
X21206Y18273D1*
X21190Y18263D1*
X21173Y18254D1*
X21156Y18246D1*
X21139Y18239D1*
X21121Y18234D1*
X21103Y18230D1*
X21084Y18227D1*
X21066Y18226D1*
X21047D1*
X21029Y18227D1*
X21010Y18230D1*
X20992Y18234D1*
X20974Y18239D1*
X20957Y18246D1*
X20940Y18254D1*
X20923Y18263D1*
X20907Y18273D1*
X20892Y18285D1*
X20878Y18297D1*
X20865Y18311D1*
X20852Y18325D1*
X20841Y18341D1*
X20830Y18357D1*
X20821Y18374D1*
X20813Y18391D1*
X20806Y18409D1*
X20800Y18428D1*
X20796Y18447D1*
X20792Y18466D1*
X20791Y18485D1*
X20790Y18505D1*
X21549Y18508D2*
X21550Y18527D1*
X21552Y18547D1*
X21555Y18566D1*
X21560Y18585D1*
X21566Y18603D1*
X21573Y18621D1*
X21581Y18639D1*
X21590Y18656D1*
X21600Y18672D1*
X21612Y18687D1*
X21624Y18702D1*
X21638Y18715D1*
X21652Y18728D1*
X21667Y18739D1*
X21683Y18750D1*
X21699Y18759D1*
X21716Y18767D1*
X21734Y18773D1*
X21752Y18779D1*
X21770Y18783D1*
X21788Y18785D1*
X21807Y18787D1*
X21825D1*
X21844Y18785D1*
X21862Y18783D1*
X21881Y18779D1*
X21898Y18773D1*
X21916Y18767D1*
X21933Y18759D1*
X21949Y18750D1*
X21965Y18739D1*
X21980Y18728D1*
X21994Y18715D1*
X22008Y18702D1*
X22020Y18687D1*
X22032Y18672D1*
X22042Y18656D1*
X22051Y18639D1*
X22060Y18621D1*
X22067Y18603D1*
X22072Y18585D1*
X22077Y18566D1*
X22080Y18547D1*
X22082Y18527D1*
X22083Y18508D1*
X22082Y18488D1*
X22080Y18469D1*
X22077Y18450D1*
X22072Y18431D1*
X22067Y18412D1*
X22060Y18394D1*
X22051Y18377D1*
X22042Y18360D1*
X22032Y18344D1*
X22020Y18329D1*
X22008Y18314D1*
X21994Y18301D1*
X21980Y18288D1*
X21965Y18277D1*
X21949Y18266D1*
X21933Y18257D1*
X21916Y18249D1*
X21898Y18243D1*
X21881Y18237D1*
X21862Y18233D1*
X21844Y18230D1*
X21825Y18229D1*
X21807D1*
X21788Y18230D1*
X21770Y18233D1*
X21752Y18237D1*
X21734Y18243D1*
X21716Y18249D1*
X21699Y18257D1*
X21683Y18266D1*
X21667Y18277D1*
X21652Y18288D1*
X21638Y18301D1*
X21624Y18314D1*
X21612Y18329D1*
X21600Y18344D1*
X21590Y18360D1*
X21581Y18377D1*
X21573Y18394D1*
X21566Y18412D1*
X21560Y18431D1*
X21555Y18450D1*
X21552Y18469D1*
X21550Y18488D1*
X21549Y18508D1*
X19266Y18505D2*
X19267Y18524D1*
X19269Y18544D1*
X19272Y18563D1*
X19277Y18582D1*
X19282Y18600D1*
X19289Y18619D1*
X19297Y18636D1*
X19307Y18653D1*
X19317Y18669D1*
X19329Y18684D1*
X19341Y18699D1*
X19354Y18713D1*
X19369Y18725D1*
X19384Y18737D1*
X19399Y18747D1*
X19416Y18756D1*
X19433Y18764D1*
X19450Y18771D1*
X19468Y18776D1*
X19486Y18780D1*
X19505Y18783D1*
X19523Y18784D1*
X19542D1*
X19561Y18783D1*
X19579Y18780D1*
X19597Y18776D1*
X19615Y18771D1*
X19633Y18764D1*
X19650Y18756D1*
X19666Y18747D1*
X19682Y18737D1*
X19697Y18725D1*
X19711Y18713D1*
X19725Y18699D1*
X19737Y18684D1*
X19748Y18669D1*
X19759Y18653D1*
X19768Y18636D1*
X19776Y18619D1*
X19783Y18600D1*
X19789Y18582D1*
X19794Y18563D1*
X19797Y18544D1*
X19799Y18524D1*
Y18505D1*
Y18485D1*
X19797Y18466D1*
X19794Y18447D1*
X19789Y18428D1*
X19783Y18409D1*
X19776Y18391D1*
X19768Y18374D1*
X19759Y18357D1*
X19748Y18341D1*
X19737Y18325D1*
X19725Y18311D1*
X19711Y18297D1*
X19697Y18285D1*
X19682Y18273D1*
X19666Y18263D1*
X19650Y18254D1*
X19633Y18246D1*
X19615Y18239D1*
X19597Y18234D1*
X19579Y18230D1*
X19561Y18227D1*
X19542Y18226D1*
X19523D1*
X19505Y18227D1*
X19486Y18230D1*
X19468Y18234D1*
X19450Y18239D1*
X19433Y18246D1*
X19416Y18254D1*
X19399Y18263D1*
X19384Y18273D1*
X19369Y18285D1*
X19354Y18297D1*
X19341Y18311D1*
X19329Y18325D1*
X19317Y18341D1*
X19307Y18357D1*
X19297Y18374D1*
X19289Y18391D1*
X19282Y18409D1*
X19277Y18428D1*
X19272Y18447D1*
X19269Y18466D1*
X19267Y18485D1*
X19266Y18505D1*
X20027Y18508D2*
Y18527D1*
X20029Y18547D1*
X20032Y18566D1*
X20037Y18585D1*
X20043Y18603D1*
X20050Y18621D1*
X20058Y18639D1*
X20067Y18656D1*
X20077Y18672D1*
X20089Y18687D1*
X20101Y18702D1*
X20115Y18715D1*
X20129Y18728D1*
X20144Y18739D1*
X20160Y18750D1*
X20176Y18759D1*
X20193Y18767D1*
X20211Y18773D1*
X20229Y18779D1*
X20247Y18783D1*
X20265Y18785D1*
X20284Y18787D1*
X20302D1*
X20321Y18785D1*
X20339Y18783D1*
X20358Y18779D1*
X20376Y18773D1*
X20393Y18767D1*
X20410Y18759D1*
X20426Y18750D1*
X20442Y18739D1*
X20457Y18728D1*
X20472Y18715D1*
X20485Y18702D1*
X20497Y18687D1*
X20509Y18672D1*
X20519Y18656D1*
X20529Y18639D1*
X20537Y18621D1*
X20544Y18603D1*
X20549Y18585D1*
X20554Y18566D1*
X20557Y18547D1*
X20559Y18527D1*
X20560Y18508D1*
X20559Y18488D1*
X20557Y18469D1*
X20554Y18450D1*
X20549Y18431D1*
X20544Y18412D1*
X20537Y18394D1*
X20529Y18377D1*
X20519Y18360D1*
X20509Y18344D1*
X20497Y18329D1*
X20485Y18314D1*
X20472Y18301D1*
X20457Y18288D1*
X20442Y18277D1*
X20426Y18266D1*
X20410Y18257D1*
X20393Y18249D1*
X20376Y18243D1*
X20358Y18237D1*
X20339Y18233D1*
X20321Y18230D1*
X20302Y18229D1*
X20284D1*
X20265Y18230D1*
X20247Y18233D1*
X20229Y18237D1*
X20211Y18243D1*
X20193Y18249D1*
X20176Y18257D1*
X20160Y18266D1*
X20144Y18277D1*
X20129Y18288D1*
X20115Y18301D1*
X20101Y18314D1*
X20089Y18329D1*
X20077Y18344D1*
X20067Y18360D1*
X20058Y18377D1*
X20050Y18394D1*
X20043Y18412D1*
X20037Y18431D1*
X20032Y18450D1*
X20029Y18469D1*
X20027Y18488D1*
Y18508D1*
X18503D2*
X18504Y18527D1*
X18505Y18547D1*
X18509Y18566D1*
X18513Y18585D1*
X18519Y18603D1*
X18526Y18621D1*
X18534Y18639D1*
X18543Y18656D1*
X18554Y18672D1*
X18565Y18687D1*
X18578Y18702D1*
X18591Y18715D1*
X18605Y18728D1*
X18620Y18739D1*
X18636Y18750D1*
X18653Y18759D1*
X18670Y18767D1*
X18687Y18773D1*
X18705Y18779D1*
X18723Y18783D1*
X18742Y18785D1*
X18760Y18787D1*
X18779D1*
X18797Y18785D1*
X18816Y18783D1*
X18834Y18779D1*
X18852Y18773D1*
X18869Y18767D1*
X18886Y18759D1*
X18903Y18750D1*
X18919Y18739D1*
X18934Y18728D1*
X18948Y18715D1*
X18961Y18702D1*
X18974Y18687D1*
X18985Y18672D1*
X18996Y18656D1*
X19005Y18639D1*
X19013Y18621D1*
X19020Y18603D1*
X19026Y18585D1*
X19030Y18566D1*
X19033Y18547D1*
X19035Y18527D1*
X19036Y18508D1*
X19035Y18488D1*
X19033Y18469D1*
X19030Y18450D1*
X19026Y18431D1*
X19020Y18412D1*
X19013Y18394D1*
X19005Y18377D1*
X18996Y18360D1*
X18985Y18344D1*
X18974Y18329D1*
X18961Y18314D1*
X18948Y18301D1*
X18934Y18288D1*
X18919Y18277D1*
X18903Y18266D1*
X18886Y18257D1*
X18869Y18249D1*
X18852Y18243D1*
X18834Y18237D1*
X18816Y18233D1*
X18797Y18230D1*
X18779Y18229D1*
X18760D1*
X18742Y18230D1*
X18723Y18233D1*
X18705Y18237D1*
X18687Y18243D1*
X18670Y18249D1*
X18653Y18257D1*
X18636Y18266D1*
X18620Y18277D1*
X18605Y18288D1*
X18591Y18301D1*
X18578Y18314D1*
X18565Y18329D1*
X18554Y18344D1*
X18543Y18360D1*
X18534Y18377D1*
X18526Y18394D1*
X18519Y18412D1*
X18513Y18431D1*
X18509Y18450D1*
X18505Y18469D1*
X18504Y18488D1*
X18503Y18508D1*
X17740D2*
Y18527D1*
X17742Y18547D1*
X17745Y18566D1*
X17750Y18585D1*
X17756Y18603D1*
X17763Y18621D1*
X17771Y18639D1*
X17780Y18656D1*
X17790Y18672D1*
X17802Y18687D1*
X17814Y18702D1*
X17828Y18715D1*
X17842Y18728D1*
X17857Y18739D1*
X17873Y18750D1*
X17889Y18759D1*
X17906Y18767D1*
X17924Y18773D1*
X17942Y18779D1*
X17960Y18783D1*
X17978Y18785D1*
X17997Y18787D1*
X18015D1*
X18034Y18785D1*
X18052Y18783D1*
X18071Y18779D1*
X18089Y18773D1*
X18106Y18767D1*
X18123Y18759D1*
X18139Y18750D1*
X18155Y18739D1*
X18170Y18728D1*
X18185Y18715D1*
X18198Y18702D1*
X18210Y18687D1*
X18222Y18672D1*
X18232Y18656D1*
X18242Y18639D1*
X18250Y18621D1*
X18257Y18603D1*
X18262Y18585D1*
X18267Y18566D1*
X18270Y18547D1*
X18272Y18527D1*
X18273Y18508D1*
X18272Y18488D1*
X18270Y18469D1*
X18267Y18450D1*
X18262Y18431D1*
X18257Y18412D1*
X18250Y18394D1*
X18242Y18377D1*
X18232Y18360D1*
X18222Y18344D1*
X18210Y18329D1*
X18198Y18314D1*
X18185Y18301D1*
X18170Y18288D1*
X18155Y18277D1*
X18139Y18266D1*
X18123Y18257D1*
X18106Y18249D1*
X18089Y18243D1*
X18071Y18237D1*
X18052Y18233D1*
X18034Y18230D1*
X18015Y18229D1*
X17997D1*
X17978Y18230D1*
X17960Y18233D1*
X17942Y18237D1*
X17924Y18243D1*
X17906Y18249D1*
X17889Y18257D1*
X17873Y18266D1*
X17857Y18277D1*
X17842Y18288D1*
X17828Y18301D1*
X17814Y18314D1*
X17802Y18329D1*
X17790Y18344D1*
X17780Y18360D1*
X17771Y18377D1*
X17763Y18394D1*
X17756Y18412D1*
X17750Y18431D1*
X17745Y18450D1*
X17742Y18469D1*
X17740Y18488D1*
Y18508D1*
G36*
X18203Y18782D2*
X18574D1*
Y14378D1*
X18203D1*
Y18782D1*
G37*
G36*
X18984Y18878D2*
X19307D1*
Y14372D1*
X18984D1*
Y18878D1*
G37*
G36*
X19740D2*
X20074D1*
Y14362D1*
X19740D1*
Y18878D1*
G37*
G36*
X20504Y18885D2*
X20853D1*
Y14368D1*
X20504D1*
Y18885D1*
G37*
G36*
X21260Y18848D2*
X21607D1*
Y14365D1*
X21260D1*
Y18848D1*
G37*
G36*
X17706Y18305D2*
X22134D1*
Y17925D1*
X17706D1*
Y18305D1*
G37*
G36*
X17723Y17548D2*
X22134D1*
Y17162D1*
X17723D1*
Y17548D1*
G37*
G36*
X17730Y16788D2*
X22134D1*
Y16388D1*
X17730D1*
Y16788D1*
G37*
G36*
Y15998D2*
X22134D1*
Y15638D1*
X17730D1*
Y15998D1*
G37*
G36*
X17714Y15238D2*
X22134D1*
Y14875D1*
X17714D1*
Y15238D1*
G37*
X17640Y18875D2*
D10*
X22193D1*
Y14315D1*
X17640D1*
Y18875D1*
D65*
X16895Y18795D3*
Y18395D3*
Y17995D3*
Y17595D3*
Y17195D3*
Y16795D3*
Y16395D3*
Y15995D3*
Y15595D3*
Y15195D3*
Y14795D3*
Y14395D3*
D64*
X17720Y13570D3*
X18120D3*
X18520D3*
X18920D3*
X19320D3*
X19720D3*
X20120D3*
X20520D3*
X20920D3*
X21320D3*
X21720D3*
X22120D3*
D65*
X22945Y14395D3*
Y14795D3*
Y15195D3*
Y15595D3*
Y15995D3*
Y16395D3*
Y16795D3*
Y17195D3*
Y17595D3*
Y17995D3*
Y18395D3*
Y18795D3*
D64*
X22120Y19620D3*
X21720D3*
X21320D3*
X20920D3*
X20520D3*
X20120D3*
X19720D3*
X19320D3*
X18920D3*
X18520D3*
X18120D3*
X17720D3*
D60*
X23835Y23662D3*
X22134D3*
Y22262D3*
X23835D3*
G36*
X16233Y21462D2*
X15703Y20932D1*
X14677Y21957D1*
X15208Y22488D1*
X16233Y21462D1*
G37*
G36*
X17294Y22523D2*
X16763Y21993D1*
X15738Y23018D1*
X16268Y23548D1*
X17294Y22523D1*
G37*
D51*
X26745Y17962D3*
D52*
X20020Y25022D3*
G36*
X18491Y12911D2*
Y12301D1*
X17221D1*
Y13165D1*
X18237D1*
X18491Y12911D1*
G37*
G36*
X12869Y20096D2*
X13428D1*
Y21366D1*
X12488D1*
Y20426D1*
X12869Y20096D1*
G37*
M02*
