M48
INCH
T01C0.013
T02C0.0374
T03C0.0433
%
T01
X+006372Y+006183
X+006672Y+006183
X+006972Y+006183
X+007272Y+006183
X+007572Y+006183
X+007872Y+006183
X+007874Y+006483
X+007574Y+006483
X+007274Y+006483
X+006974Y+006483
X+006674Y+006483
X+006374Y+006483
X+006371Y+006785
X+006671Y+006785
X+006971Y+006785
X+007271Y+006785
X+007571Y+006785
X+007871Y+006785
X+008269Y+007270
X+008774Y+008034
X+008564Y+008763
X+008192Y+009565
X+007725Y+009088
X+007414Y+008550
X+007677Y+008270
X+006828Y+007739
X+005902Y+007195
X+005592Y+007530
X+004929Y+007326
X+004986Y+006613
X+005600Y+006324
X+005357Y+005891
X+004711Y+005454
X+004830Y+005054
X+004545Y+004868
X+004736Y+004549
X+005910Y+004480
X+006028Y+004846
X+006372Y+005277
X+006672Y+005277
X+006972Y+005277
X+007272Y+005277
X+007572Y+005277
X+007872Y+005277
X+007872Y+005579
X+007572Y+005579
X+007272Y+005579
X+006972Y+005579
X+006672Y+005579
X+006372Y+005579
X+006372Y+005881
X+006672Y+005881
X+006972Y+005881
X+007272Y+005881
X+007572Y+005881
X+007872Y+005881
X+008199Y+004911
X+008993Y+005339
X+009478Y+005989
X+009963Y+005506
X+010815Y+005982
X+011631Y+005804
X+011517Y+005080
X+010854Y+004909
X+010332Y+004547
X+009830Y+004508
X+010075Y+006862
X+010891Y+006830
X+011604Y+006922
X+009557Y+007570
X+009087Y+006814
X+009708Y+008671
X+009267Y+009571
X+007111Y+009578
X+005738Y+009304
X+005438Y+009106
X+005285Y+008768
X+005659Y+008427
X+004702Y+008175
X+004593Y+008669
X+004575Y+009240
T02
X+009184Y+004988
X+011184Y+005388
X+011184Y+004588
T03
X+003937Y+008937
X+003937Y+007937
X+003937Y+006937
X+003937Y+005937
X+003937Y+004937
X+004937Y+003937
X+005937Y+003937
X+006937Y+003937
X+007937Y+003937
X+008937Y+003937
X+009937Y+003937
X+010937Y+003937
X+005937Y+009937
X+004937Y+009937
T00
M30
