M48
METRIC,0000.00
T01C0.254
T02C0.33
T03C0.95
T04C1.1
%
T01
X+001863Y+002309
X+001871Y+002387
X+001891Y+002441
X+002017Y+002603
X+001766Y+002605
X+001539Y+002482
X+001477Y+002339
X+001246Y+002551
X+001164Y+002264
X+001373Y+001968
X+001421Y+001734
X+001569Y+001783
X+001579Y+001724
X+001635Y+001800
X+001720Y+001902
X+001746Y+001956
X+001731Y+002013
X+001654Y+002011
X+001791Y+002179
X+001919Y+002074
X+001976Y+002053
X+002034Y+002063
X+002012Y+002006
X+002092Y+002083
X+002265Y+001860
X+002436Y+001882
X+002459Y+001780
X+002535Y+001664
X+002672Y+001715
X+002725Y+001611
X+002643Y+001522
X+002710Y+001460
X+002773Y+001468
X+002957Y+001599
X+002970Y+001817
X+002911Y+001934
X+002876Y+002018
X+002845Y+002115
X+002761Y+002251
X+002653Y+002213
X+002651Y+002380
X+002733Y+002385
X+002520Y+002571
X+002271Y+002598
X+002140Y+002384
X+002454Y+002169
X+002412Y+002072
X+002541Y+001989
X+002679Y+001956
X+002720Y+001902
X+003069Y+002070
X+003196Y+002040
X+003103Y+002546
X+002362Y+001536
X+002377Y+001479
X+002358Y+001412
X+002298Y+001393
X+002237Y+001390
X+002276Y+001259
X+002049Y+001289
X+001982Y+001289
X+002014Y+001167
X+001764Y+001167
X+001725Y+001316
X+001624Y+001512
X+001502Y+001379
X+001407Y+001459
X+001228Y+001252
X+001168Y+001766
X+002523Y+001222
X+002778Y+001240
T02
X+001802Y+001697
X+001878Y+001697
X+001954Y+001697
X+002030Y+001697
X+002107Y+001697
X+002183Y+001697
X+002183Y+001774
X+002107Y+001774
X+002031Y+001774
X+001954Y+001774
X+001878Y+001774
X+001802Y+001774
X+001801Y+001850
X+001878Y+001850
X+001954Y+001850
X+002030Y+001850
X+002106Y+001850
X+002182Y+001850
X+002183Y+001621
X+002107Y+001621
X+002030Y+001621
X+001954Y+001621
X+001878Y+001621
X+001802Y+001621
X+001802Y+001544
X+001878Y+001544
X+001954Y+001544
X+002030Y+001544
X+002107Y+001544
X+002183Y+001544
X+002183Y+001467
X+002107Y+001467
X+002030Y+001467
X+001954Y+001467
X+001878Y+001467
X+001802Y+001467
T03
X+002887Y+001520
X+002785Y+002028
X+002988Y+002028
T04
X+002905Y+002651
X+002905Y+002778
X+002651Y+002778
X+002651Y+002651
X+002397Y+002651
X+002397Y+002778
X+002143Y+002778
X+002143Y+002651
X+001889Y+002651
X+001889Y+002778
X+001635Y+002778
X+001635Y+002651
X+001381Y+002651
X+001381Y+002778
X+001127Y+002397
X+001000Y+002397
X+001000Y+002143
X+001127Y+002143
X+001127Y+001889
X+001000Y+001889
X+001000Y+001635
X+001127Y+001635
X+001127Y+001381
X+001000Y+001381
X+001381Y+001127
X+001381Y+001000
X+001635Y+001000
X+001635Y+001127
X+001889Y+001127
X+001889Y+001000
X+002143Y+001000
X+002143Y+001127
X+002397Y+001127
X+002397Y+001000
X+002651Y+001000
X+002651Y+001127
X+002905Y+001127
X+002905Y+001000
X+003159Y+001381
X+003286Y+001381
X+003286Y+001635
X+003159Y+001635
X+003159Y+001889
X+003286Y+001889
T00
M30
