G04 DipTrace 2.4.0.2*
%IN3dBBLE.gbo*%
%MOMM*%
%ADD85C,0.083*%
%ADD86C,0.157*%
%FSLAX53Y53*%
G04*
G71*
G90*
G75*
G01*
%LNBotSilk*%
%LPD*%
X29705Y23631D2*
D86*
X30211D1*
Y22610D1*
Y23145D2*
X29900D1*
X29414Y23291D2*
X29182Y22610D1*
X29259Y22416D1*
X29337Y22318D1*
X29414Y22270D1*
X29454D1*
X28948Y23291D2*
X29182Y22610D1*
X28697Y23631D2*
Y22610D1*
Y23145D2*
X28619Y23243D1*
X28542Y23291D1*
X28425D1*
X28348Y23243D1*
X28270Y23145D1*
X28231Y22999D1*
Y22902D1*
X28270Y22756D1*
X28348Y22660D1*
X28425Y22610D1*
X28542D1*
X28619Y22660D1*
X28697Y22756D1*
X27980Y22999D2*
X27514D1*
Y23097D1*
X27552Y23194D1*
X27591Y23243D1*
X27669Y23291D1*
X27786D1*
X27863Y23243D1*
X27941Y23145D1*
X27980Y22999D1*
Y22902D1*
X27941Y22756D1*
X27863Y22660D1*
X27786Y22610D1*
X27669D1*
X27591Y22660D1*
X27514Y22756D1*
X27263Y23291D2*
Y22610D1*
Y22999D2*
X27223Y23145D1*
X27146Y23243D1*
X27068Y23291D1*
X26951D1*
X25910Y23631D2*
Y22610D1*
X25444D1*
X24726Y23291D2*
Y22610D1*
Y23145D2*
X24804Y23243D1*
X24882Y23291D1*
X24998D1*
X25076Y23243D1*
X25153Y23145D1*
X25193Y22999D1*
Y22902D1*
X25153Y22756D1*
X25076Y22660D1*
X24998Y22610D1*
X24882D1*
X24804Y22660D1*
X24726Y22756D1*
X24475Y23631D2*
Y22610D1*
Y23145D2*
X24397Y23243D1*
X24320Y23291D1*
X24203D1*
X24126Y23243D1*
X24048Y23145D1*
X24009Y22999D1*
Y22902D1*
X24048Y22756D1*
X24126Y22660D1*
X24203Y22610D1*
X24320D1*
X24397Y22660D1*
X24475Y22756D1*
X23330Y23145D2*
X23369Y23243D1*
X23486Y23291D1*
X23603D1*
X23719Y23243D1*
X23758Y23145D1*
X23719Y23048D1*
X23641Y22999D1*
X23447Y22951D1*
X23369Y22902D1*
X23330Y22805D1*
Y22756D1*
X23369Y22660D1*
X23486Y22610D1*
X23603D1*
X23719Y22660D1*
X23758Y22756D1*
X22289Y23631D2*
Y22610D1*
X22038Y23291D2*
Y22610D1*
Y23097D2*
X21921Y23243D1*
X21843Y23291D1*
X21727D1*
X21649Y23243D1*
X21611Y23097D1*
Y22610D1*
X20892Y23145D2*
X20971Y23243D1*
X21049Y23291D1*
X21165D1*
X21243Y23243D1*
X21320Y23145D1*
X21360Y22999D1*
Y22902D1*
X21320Y22756D1*
X21243Y22660D1*
X21165Y22610D1*
X21049D1*
X20971Y22660D1*
X20892Y22756D1*
X20603Y22708D2*
X20641Y22659D1*
X20603Y22610D1*
X20563Y22659D1*
X20603Y22708D1*
X30255Y22012D2*
X29828D1*
X30061Y21623D1*
X29944D1*
X29867Y21575D1*
X29828Y21527D1*
X29788Y21381D1*
Y21284D1*
X29828Y21138D1*
X29905Y21041D1*
X30022Y20992D1*
X30139D1*
X30255Y21041D1*
X30293Y21090D1*
X30333Y21187D1*
X29071Y22013D2*
Y20992D1*
Y21527D2*
X29148Y21625D1*
X29227Y21673D1*
X29343D1*
X29421Y21625D1*
X29499Y21527D1*
X29537Y21381D1*
Y21284D1*
X29499Y21138D1*
X29421Y21042D1*
X29343Y20992D1*
X29227D1*
X29148Y21042D1*
X29071Y21138D1*
X28820Y22013D2*
Y20992D1*
X28470D1*
X28353Y21042D1*
X28314Y21090D1*
X28276Y21187D1*
Y21333D1*
X28314Y21430D1*
X28353Y21479D1*
X28470Y21527D1*
X28353Y21576D1*
X28314Y21625D1*
X28276Y21721D1*
Y21819D1*
X28314Y21915D1*
X28353Y21965D1*
X28470Y22013D1*
X28820D1*
Y21527D2*
X28470D1*
X27235Y22013D2*
Y20992D1*
X26884D1*
X26767Y21042D1*
X26729Y21090D1*
X26690Y21187D1*
Y21333D1*
X26729Y21430D1*
X26767Y21479D1*
X26884Y21527D1*
X26767Y21576D1*
X26729Y21625D1*
X26690Y21721D1*
Y21819D1*
X26729Y21915D1*
X26767Y21965D1*
X26884Y22013D1*
X27235D1*
Y21527D2*
X26884D1*
X26439Y22013D2*
Y20992D1*
X25973D1*
X25217Y22013D2*
X25722D1*
Y20992D1*
X25217D1*
X25722Y21527D2*
X25411D1*
X14998Y13567D2*
D85*
X14852Y12801D1*
X14706Y13567D1*
X14350Y13385D2*
X14368Y13457D1*
X14404Y13530D1*
X14441Y13567D1*
X14513D1*
X14550Y13530D1*
X14586Y13457D1*
X14605Y13385D1*
X14623Y13275D1*
Y13092D1*
X14605Y12984D1*
X14586Y12910D1*
X14550Y12838D1*
X14513Y12801D1*
X14441D1*
X14404Y12838D1*
X14368Y12910D1*
X14350Y12984D1*
X13993Y13385D2*
X14011Y13457D1*
X14048Y13530D1*
X14084Y13567D1*
X14157D1*
X14193Y13530D1*
X14230Y13457D1*
X14248Y13385D1*
X14266Y13275D1*
Y13092D1*
X14248Y12984D1*
X14230Y12910D1*
X14193Y12838D1*
X14157Y12801D1*
X14084D1*
X14048Y12838D1*
X14011Y12910D1*
X13993Y12984D1*
X13452Y13869D2*
X13525Y13851D1*
X13598Y13814D1*
X13634Y13778D1*
Y13705D1*
X13598Y13668D1*
X13525Y13632D1*
X13452Y13614D1*
X13343Y13596D1*
X13160D1*
X13052Y13614D1*
X12978Y13632D1*
X12906Y13668D1*
X12869Y13705D1*
Y13778D1*
X12906Y13814D1*
X12978Y13851D1*
X13052Y13869D1*
X13160D1*
Y13778D1*
X13634Y14207D2*
X12869D1*
X13634Y13952D1*
X12869D1*
X13634Y14291D2*
X12869D1*
Y14418D1*
X12906Y14473D1*
X12978Y14510D1*
X13052Y14528D1*
X13160Y14546D1*
X13343D1*
X13452Y14528D1*
X13525Y14510D1*
X13598Y14473D1*
X13634Y14418D1*
Y14291D1*
X23990Y20080D2*
D86*
X23640D1*
X23524Y20130D1*
X23484Y20178D1*
X23445Y20275D1*
Y20372D1*
X23484Y20469D1*
X23524Y20518D1*
X23640Y20567D1*
X23990D1*
Y19546D1*
X23718Y20080D2*
X23445Y19546D1*
X23194Y20371D2*
X23116Y20421D1*
X22999Y20565D1*
Y19546D1*
X22710Y19643D2*
X22748Y19594D1*
X22710Y19546D1*
X22670Y19594D1*
X22710Y19643D1*
X22186Y20565D2*
X22303Y20517D1*
X22381Y20371D1*
X22419Y20129D1*
Y19983D1*
X22381Y19740D1*
X22303Y19594D1*
X22186Y19546D1*
X22108D1*
X21992Y19594D1*
X21914Y19740D1*
X21875Y19983D1*
Y20129D1*
X21914Y20371D1*
X21992Y20517D1*
X22108Y20565D1*
X22186D1*
X21914Y20371D2*
X22381Y19740D1*
X26759Y19012D2*
Y19060D1*
X26720Y19158D1*
X26682Y19206D1*
X26603Y19255D1*
X26448D1*
X26371Y19206D1*
X26332Y19158D1*
X26293Y19060D1*
Y18964D1*
X26332Y18866D1*
X26409Y18721D1*
X26798Y18235D1*
X26254D1*
X25769Y19255D2*
X25886Y19206D1*
X25964Y19060D1*
X26003Y18818D1*
Y18672D1*
X25964Y18429D1*
X25886Y18283D1*
X25769Y18235D1*
X25692D1*
X25575Y18283D1*
X25498Y18429D1*
X25458Y18672D1*
Y18818D1*
X25498Y19060D1*
X25575Y19206D1*
X25692Y19255D1*
X25769D1*
X25498Y19060D2*
X25964Y18429D1*
X25208Y19060D2*
X25129Y19110D1*
X25013Y19255D1*
Y18235D1*
X24295Y19255D2*
X24683D1*
X24722Y18818D1*
X24683Y18866D1*
X24567Y18915D1*
X24451D1*
X24334Y18866D1*
X24256Y18769D1*
X24217Y18623D1*
Y18527D1*
X24256Y18381D1*
X24334Y18283D1*
X24451Y18235D1*
X24567D1*
X24683Y18283D1*
X24722Y18333D1*
X24762Y18429D1*
X21016Y24540D2*
D85*
X21180D1*
X21235Y24504D1*
X21253Y24467D1*
X21271Y24394D1*
Y24285D1*
X21253Y24213D1*
X21235Y24175D1*
X21180Y24139D1*
X21016D1*
Y24905D1*
X21464Y24140D2*
X21410Y24176D1*
X21373Y24286D1*
X21355Y24468D1*
Y24577D1*
X21373Y24759D1*
X21410Y24869D1*
X21464Y24905D1*
X21500D1*
X21555Y24869D1*
X21591Y24759D1*
X21610Y24577D1*
Y24468D1*
X21591Y24286D1*
X21555Y24176D1*
X21500Y24140D1*
X21464D1*
X21591Y24286D2*
X21373Y24759D1*
X21711Y24832D2*
X21693Y24869D1*
X21711Y24905D1*
X21730Y24869D1*
X21711Y24832D1*
X21832Y24322D2*
Y24286D1*
X21850Y24213D1*
X21868Y24176D1*
X21905Y24140D1*
X21978D1*
X22014Y24176D1*
X22032Y24213D1*
X22050Y24286D1*
Y24358D1*
X22032Y24432D1*
X21996Y24540D1*
X21813Y24905D1*
X22069D1*
X22370Y24249D2*
X22352Y24176D1*
X22298Y24140D1*
X22261D1*
X22207Y24176D1*
X22170Y24286D1*
X22152Y24468D1*
Y24650D1*
X22170Y24795D1*
X22207Y24869D1*
X22261Y24905D1*
X22279D1*
X22334Y24869D1*
X22370Y24795D1*
X22389Y24686D1*
Y24650D1*
X22370Y24540D1*
X22334Y24468D1*
X22279Y24432D1*
X22261D1*
X22207Y24468D1*
X22170Y24540D1*
X22152Y24650D1*
X18179Y24523D2*
X18343D1*
X18397Y24486D1*
X18416Y24449D1*
X18434Y24377D1*
Y24267D1*
X18416Y24195D1*
X18397Y24158D1*
X18343Y24122D1*
X18179D1*
Y24887D1*
X18627Y24123D2*
X18572Y24159D1*
X18536Y24268D1*
X18517Y24450D1*
Y24560D1*
X18536Y24742D1*
X18572Y24851D1*
X18627Y24887D1*
X18663D1*
X18718Y24851D1*
X18754Y24742D1*
X18773Y24560D1*
Y24450D1*
X18754Y24268D1*
X18718Y24159D1*
X18663Y24123D1*
X18627D1*
X18754Y24268D2*
X18536Y24742D1*
X18874Y24814D2*
X18856Y24851D1*
X18874Y24887D1*
X18893Y24851D1*
X18874Y24814D1*
X18994Y24305D2*
Y24268D1*
X19013Y24195D1*
X19031Y24159D1*
X19067Y24123D1*
X19140D1*
X19176Y24159D1*
X19195Y24195D1*
X19213Y24268D1*
Y24341D1*
X19195Y24414D1*
X19158Y24523D1*
X18976Y24887D1*
X19231D1*
X19387D2*
X19570Y24123D1*
X19314D1*
X13717Y24513D2*
X13881D1*
X13936Y24477D1*
X13954Y24440D1*
X13972Y24368D1*
Y24258D1*
X13954Y24186D1*
X13936Y24149D1*
X13881Y24112D1*
X13717D1*
Y24878D1*
X14165Y24113D2*
X14110Y24149D1*
X14074Y24259D1*
X14056Y24441D1*
Y24550D1*
X14074Y24732D1*
X14110Y24842D1*
X14165Y24878D1*
X14201D1*
X14256Y24842D1*
X14292Y24732D1*
X14311Y24550D1*
Y24441D1*
X14292Y24259D1*
X14256Y24149D1*
X14201Y24113D1*
X14165D1*
X14292Y24259D2*
X14074Y24732D1*
X14412Y24805D2*
X14394Y24842D1*
X14412Y24878D1*
X14431Y24842D1*
X14412Y24805D1*
X14624Y24113D2*
X14569Y24149D1*
X14532Y24259D1*
X14514Y24441D1*
Y24550D1*
X14532Y24732D1*
X14569Y24842D1*
X14624Y24878D1*
X14660D1*
X14715Y24842D1*
X14751Y24732D1*
X14769Y24550D1*
Y24441D1*
X14751Y24259D1*
X14715Y24149D1*
X14660Y24113D1*
X14624D1*
X14751Y24259D2*
X14532Y24732D1*
X14853Y24259D2*
X14889Y24222D1*
X14944Y24113D1*
Y24878D1*
X13247Y22647D2*
Y22811D1*
X13284Y22865D1*
X13321Y22884D1*
X13393Y22902D1*
X13503D1*
X13575Y22884D1*
X13612Y22865D1*
X13648Y22811D1*
Y22647D1*
X12883D1*
X13647Y23095D2*
X13611Y23040D1*
X13502Y23003D1*
X13320Y22985D1*
X13210D1*
X13028Y23003D1*
X12919Y23040D1*
X12883Y23095D1*
Y23131D1*
X12919Y23186D1*
X13028Y23222D1*
X13210Y23240D1*
X13320D1*
X13502Y23222D1*
X13611Y23186D1*
X13647Y23131D1*
Y23095D1*
X13502Y23222D2*
X13028Y23003D1*
X12956Y23342D2*
X12919Y23324D1*
X12883Y23342D1*
X12919Y23360D1*
X12956Y23342D1*
X13647Y23553D2*
X13611Y23498D1*
X13502Y23462D1*
X13320Y23444D1*
X13210D1*
X13028Y23462D1*
X12919Y23498D1*
X12883Y23553D1*
Y23589D1*
X12919Y23644D1*
X13028Y23680D1*
X13210Y23699D1*
X13320D1*
X13502Y23680D1*
X13611Y23644D1*
X13647Y23589D1*
Y23553D1*
X13502Y23680D2*
X13028Y23462D1*
X13465Y23801D2*
X13502D1*
X13575Y23819D1*
X13611Y23837D1*
X13647Y23874D1*
Y23946D1*
X13611Y23983D1*
X13575Y24001D1*
X13502Y24019D1*
X13429D1*
X13356Y24001D1*
X13247Y23965D1*
X12883Y23782D1*
Y24037D1*
X13282Y20696D2*
Y20860D1*
X13318Y20915D1*
X13355Y20933D1*
X13428Y20951D1*
X13537D1*
X13610Y20933D1*
X13647Y20915D1*
X13683Y20860D1*
Y20696D1*
X12917D1*
X13682Y21144D2*
X13646Y21089D1*
X13537Y21053D1*
X13355Y21035D1*
X13245D1*
X13063Y21053D1*
X12954Y21089D1*
X12917Y21144D1*
Y21180D1*
X12954Y21235D1*
X13063Y21271D1*
X13245Y21290D1*
X13355D1*
X13537Y21271D1*
X13646Y21235D1*
X13682Y21180D1*
Y21144D1*
X13537Y21271D2*
X13063Y21053D1*
X12991Y21391D2*
X12954Y21373D1*
X12917Y21391D1*
X12954Y21410D1*
X12991Y21391D1*
X13682Y21603D2*
X13646Y21548D1*
X13537Y21511D1*
X13355Y21493D1*
X13245D1*
X13063Y21511D1*
X12954Y21548D1*
X12917Y21603D1*
Y21639D1*
X12954Y21694D1*
X13063Y21730D1*
X13245Y21748D1*
X13355D1*
X13537Y21730D1*
X13646Y21694D1*
X13682Y21639D1*
Y21603D1*
X13537Y21730D2*
X13063Y21511D1*
X13682Y21868D2*
Y22068D1*
X13391Y21959D1*
Y22014D1*
X13355Y22050D1*
X13318Y22068D1*
X13209Y22087D1*
X13136D1*
X13027Y22068D1*
X12954Y22032D1*
X12917Y21977D1*
Y21923D1*
X12954Y21868D1*
X12991Y21850D1*
X13063Y21832D1*
X13261Y15688D2*
Y15852D1*
X13297Y15906D1*
X13334Y15925D1*
X13407Y15943D1*
X13516D1*
X13589Y15925D1*
X13626Y15906D1*
X13662Y15852D1*
Y15688D1*
X12896D1*
X13661Y16136D2*
X13625Y16081D1*
X13515Y16044D1*
X13333Y16026D1*
X13224D1*
X13042Y16044D1*
X12933Y16081D1*
X12896Y16136D1*
Y16172D1*
X12933Y16227D1*
X13042Y16263D1*
X13224Y16282D1*
X13333D1*
X13515Y16263D1*
X13625Y16227D1*
X13661Y16172D1*
Y16136D1*
X13515Y16263D2*
X13042Y16044D1*
X12970Y16383D2*
X12933Y16365D1*
X12896Y16383D1*
X12933Y16402D1*
X12970Y16383D1*
X13661Y16594D2*
X13625Y16540D1*
X13515Y16503D1*
X13333Y16485D1*
X13224D1*
X13042Y16503D1*
X12933Y16540D1*
X12896Y16594D1*
Y16631D1*
X12933Y16685D1*
X13042Y16722D1*
X13224Y16740D1*
X13333D1*
X13515Y16722D1*
X13625Y16685D1*
X13661Y16631D1*
Y16594D1*
X13515Y16722D2*
X13042Y16503D1*
X13661Y17042D2*
Y16860D1*
X13333Y16842D1*
X13370Y16860D1*
X13407Y16915D1*
Y16969D1*
X13370Y17024D1*
X13297Y17061D1*
X13188Y17079D1*
X13115D1*
X13006Y17061D1*
X12933Y17024D1*
X12896Y16969D1*
Y16915D1*
X12933Y16860D1*
X12970Y16842D1*
X13042Y16823D1*
X16991Y13232D2*
X16827D1*
X16772Y13268D1*
X16754Y13305D1*
X16736Y13378D1*
Y13487D1*
X16754Y13560D1*
X16772Y13597D1*
X16827Y13633D1*
X16991D1*
Y12867D1*
X16543Y13632D2*
X16598Y13596D1*
X16634Y13487D1*
X16652Y13305D1*
Y13195D1*
X16634Y13013D1*
X16598Y12904D1*
X16543Y12867D1*
X16507D1*
X16452Y12904D1*
X16416Y13013D1*
X16397Y13195D1*
Y13305D1*
X16416Y13487D1*
X16452Y13596D1*
X16507Y13632D1*
X16543D1*
X16416Y13487D2*
X16634Y13013D1*
X16296Y12941D2*
X16314Y12904D1*
X16296Y12867D1*
X16277Y12904D1*
X16296Y12941D1*
X16084Y13632D2*
X16139Y13596D1*
X16176Y13487D1*
X16194Y13305D1*
Y13195D1*
X16176Y13013D1*
X16139Y12904D1*
X16084Y12867D1*
X16048D1*
X15993Y12904D1*
X15957Y13013D1*
X15939Y13195D1*
Y13305D1*
X15957Y13487D1*
X15993Y13596D1*
X16048Y13632D1*
X16084D1*
X15957Y13487D2*
X16176Y13013D1*
X15637Y13524D2*
X15655Y13596D1*
X15710Y13632D1*
X15746D1*
X15801Y13596D1*
X15837Y13487D1*
X15855Y13305D1*
Y13123D1*
X15837Y12977D1*
X15801Y12904D1*
X15746Y12867D1*
X15728D1*
X15673Y12904D1*
X15637Y12977D1*
X15619Y13086D1*
Y13123D1*
X15637Y13232D1*
X15673Y13305D1*
X15728Y13341D1*
X15746D1*
X15801Y13305D1*
X15837Y13232D1*
X15855Y13123D1*
X13267Y18176D2*
Y18340D1*
X13303Y18394D1*
X13340Y18413D1*
X13413Y18431D1*
X13522D1*
X13595Y18413D1*
X13632Y18394D1*
X13668Y18340D1*
Y18176D1*
X12902D1*
X13667Y18624D2*
X13631Y18569D1*
X13522Y18533D1*
X13340Y18514D1*
X13230D1*
X13048Y18533D1*
X12939Y18569D1*
X12902Y18624D1*
Y18660D1*
X12939Y18715D1*
X13048Y18751D1*
X13230Y18770D1*
X13340D1*
X13522Y18751D1*
X13631Y18715D1*
X13667Y18660D1*
Y18624D1*
X13522Y18751D2*
X13048Y18533D1*
X12976Y18871D2*
X12939Y18853D1*
X12902Y18871D1*
X12939Y18890D1*
X12976Y18871D1*
X13667Y19082D2*
X13631Y19028D1*
X13522Y18991D1*
X13340Y18973D1*
X13230D1*
X13048Y18991D1*
X12939Y19028D1*
X12902Y19082D1*
Y19119D1*
X12939Y19173D1*
X13048Y19210D1*
X13230Y19228D1*
X13340D1*
X13522Y19210D1*
X13631Y19173D1*
X13667Y19119D1*
Y19082D1*
X13522Y19210D2*
X13048Y18991D1*
X12902Y19494D2*
X13667D1*
X13158Y19311D1*
Y19585D1*
X27127Y13257D2*
X26962D1*
X26908Y13293D1*
X26889Y13330D1*
X26871Y13402D1*
Y13512D1*
X26889Y13584D1*
X26908Y13621D1*
X26962Y13658D1*
X27127D1*
Y12892D1*
X26679Y13657D2*
X26733Y13621D1*
X26770Y13511D1*
X26788Y13329D1*
Y13220D1*
X26770Y13038D1*
X26733Y12928D1*
X26679Y12892D1*
X26642D1*
X26588Y12928D1*
X26551Y13038D1*
X26533Y13220D1*
Y13329D1*
X26551Y13511D1*
X26588Y13621D1*
X26642Y13657D1*
X26679D1*
X26551Y13511D2*
X26770Y13038D1*
X26431Y12965D2*
X26449Y12928D1*
X26431Y12892D1*
X26413Y12928D1*
X26431Y12965D1*
X26329Y13511D2*
X26293Y13548D1*
X26238Y13657D1*
Y12892D1*
X25936Y13657D2*
X26118D1*
X26136Y13329D1*
X26118Y13365D1*
X26063Y13402D1*
X26009D1*
X25954Y13365D1*
X25918Y13293D1*
X25900Y13183D1*
Y13111D1*
X25918Y13001D1*
X25954Y12928D1*
X26009Y12892D1*
X26063D1*
X26118Y12928D1*
X26136Y12965D1*
X26155Y13038D1*
X19607Y13270D2*
X19442D1*
X19388Y13306D1*
X19369Y13343D1*
X19351Y13415D1*
Y13525D1*
X19369Y13597D1*
X19388Y13634D1*
X19442Y13670D1*
X19607D1*
Y12905D1*
X19159Y13670D2*
X19213Y13633D1*
X19250Y13524D1*
X19268Y13342D1*
Y13232D1*
X19250Y13051D1*
X19213Y12941D1*
X19159Y12905D1*
X19122D1*
X19068Y12941D1*
X19031Y13051D1*
X19013Y13232D1*
Y13342D1*
X19031Y13524D1*
X19068Y13633D1*
X19122Y13670D1*
X19159D1*
X19031Y13524D2*
X19250Y13051D1*
X18911Y12978D2*
X18929Y12941D1*
X18911Y12905D1*
X18893Y12941D1*
X18911Y12978D1*
X18700Y13670D2*
X18755Y13633D1*
X18791Y13524D1*
X18810Y13342D1*
Y13232D1*
X18791Y13051D1*
X18755Y12941D1*
X18700Y12905D1*
X18664D1*
X18609Y12941D1*
X18573Y13051D1*
X18554Y13232D1*
Y13342D1*
X18573Y13524D1*
X18609Y13633D1*
X18664Y13670D1*
X18700D1*
X18573Y13524D2*
X18791Y13051D1*
X18234Y13415D2*
X18252Y13306D1*
X18289Y13232D1*
X18343Y13196D1*
X18361D1*
X18416Y13232D1*
X18452Y13306D1*
X18471Y13415D1*
Y13451D1*
X18452Y13561D1*
X18416Y13633D1*
X18361Y13670D1*
X18343D1*
X18289Y13633D1*
X18252Y13561D1*
X18234Y13415D1*
Y13232D1*
X18252Y13051D1*
X18289Y12941D1*
X18343Y12905D1*
X18380D1*
X18434Y12941D1*
X18452Y13014D1*
X21972Y13268D2*
X21808D1*
X21754Y13304D1*
X21735Y13341D1*
X21717Y13414D1*
Y13523D1*
X21735Y13595D1*
X21754Y13633D1*
X21808Y13669D1*
X21972D1*
Y12903D1*
X21524Y13668D2*
X21579Y13632D1*
X21616Y13522D1*
X21634Y13340D1*
Y13231D1*
X21616Y13049D1*
X21579Y12939D1*
X21524Y12903D1*
X21488D1*
X21433Y12939D1*
X21397Y13049D1*
X21379Y13231D1*
Y13340D1*
X21397Y13522D1*
X21433Y13632D1*
X21488Y13668D1*
X21524D1*
X21397Y13522D2*
X21616Y13049D1*
X21277Y12976D2*
X21295Y12939D1*
X21277Y12903D1*
X21259Y12939D1*
X21277Y12976D1*
X21175Y13522D2*
X21139Y13559D1*
X21084Y13668D1*
Y12903D1*
X20891Y13668D2*
X20946Y13632D1*
X20982Y13522D1*
X21001Y13340D1*
Y13231D1*
X20982Y13049D1*
X20946Y12939D1*
X20891Y12903D1*
X20855D1*
X20800Y12939D1*
X20764Y13049D1*
X20745Y13231D1*
Y13340D1*
X20764Y13522D1*
X20800Y13632D1*
X20855Y13668D1*
X20891D1*
X20764Y13522D2*
X20982Y13049D1*
X24464Y13256D2*
X24300D1*
X24246Y13293D1*
X24227Y13330D1*
X24209Y13402D1*
Y13512D1*
X24227Y13584D1*
X24246Y13621D1*
X24300Y13657D1*
X24464D1*
Y12892D1*
X24016Y13656D2*
X24071Y13620D1*
X24108Y13511D1*
X24126Y13329D1*
Y13219D1*
X24108Y13037D1*
X24071Y12928D1*
X24016Y12892D1*
X23980D1*
X23925Y12928D1*
X23889Y13037D1*
X23871Y13219D1*
Y13329D1*
X23889Y13511D1*
X23925Y13620D1*
X23980Y13656D1*
X24016D1*
X23889Y13511D2*
X24108Y13037D1*
X23769Y12965D2*
X23787Y12928D1*
X23769Y12892D1*
X23751Y12928D1*
X23769Y12965D1*
X23667Y13511D2*
X23631Y13548D1*
X23576Y13656D1*
Y12892D1*
X23274Y13548D2*
X23292Y13620D1*
X23347Y13656D1*
X23383D1*
X23438Y13620D1*
X23474Y13511D1*
X23493Y13329D1*
Y13147D1*
X23474Y13001D1*
X23438Y12928D1*
X23383Y12892D1*
X23365D1*
X23311Y12928D1*
X23274Y13001D1*
X23256Y13111D1*
Y13147D1*
X23274Y13256D1*
X23311Y13329D1*
X23365Y13365D1*
X23383D1*
X23438Y13329D1*
X23474Y13256D1*
X23493Y13147D1*
X15607Y24523D2*
X15771D1*
X15826Y24487D1*
X15844Y24450D1*
X15862Y24378D1*
Y24268D1*
X15844Y24196D1*
X15826Y24159D1*
X15771Y24122D1*
X15607D1*
Y24888D1*
X16055Y24123D2*
X16000Y24159D1*
X15964Y24269D1*
X15946Y24451D1*
Y24560D1*
X15964Y24742D1*
X16000Y24852D1*
X16055Y24888D1*
X16091D1*
X16146Y24852D1*
X16182Y24742D1*
X16201Y24560D1*
Y24451D1*
X16182Y24269D1*
X16146Y24159D1*
X16091Y24123D1*
X16055D1*
X16182Y24269D2*
X15964Y24742D1*
X16302Y24815D2*
X16284Y24852D1*
X16302Y24888D1*
X16321Y24852D1*
X16302Y24815D1*
X16514Y24123D2*
X16459Y24159D1*
X16422Y24269D1*
X16404Y24451D1*
Y24560D1*
X16422Y24742D1*
X16459Y24852D1*
X16514Y24888D1*
X16550D1*
X16605Y24852D1*
X16641Y24742D1*
X16659Y24560D1*
Y24451D1*
X16641Y24269D1*
X16605Y24159D1*
X16550Y24123D1*
X16514D1*
X16641Y24269D2*
X16422Y24742D1*
X16852Y24123D2*
X16798Y24159D1*
X16761Y24269D1*
X16743Y24451D1*
Y24560D1*
X16761Y24742D1*
X16798Y24852D1*
X16852Y24888D1*
X16888D1*
X16943Y24852D1*
X16979Y24742D1*
X16998Y24560D1*
Y24451D1*
X16979Y24269D1*
X16943Y24159D1*
X16888Y24123D1*
X16852D1*
X16979Y24269D2*
X16761Y24742D1*
X26032Y24520D2*
X26197D1*
X26251Y24484D1*
X26270Y24447D1*
X26288Y24375D1*
Y24265D1*
X26270Y24193D1*
X26251Y24156D1*
X26197Y24119D1*
X26032D1*
Y24885D1*
X26481Y24120D2*
X26426Y24156D1*
X26389Y24266D1*
X26371Y24448D1*
Y24557D1*
X26389Y24739D1*
X26426Y24849D1*
X26481Y24885D1*
X26517D1*
X26572Y24849D1*
X26608Y24739D1*
X26626Y24557D1*
Y24448D1*
X26608Y24266D1*
X26571Y24156D1*
X26517Y24120D1*
X26481D1*
X26608Y24266D2*
X26389Y24739D1*
X26728Y24812D2*
X26710Y24849D1*
X26728Y24885D1*
X26746Y24849D1*
X26728Y24812D1*
X26848Y24302D2*
Y24266D1*
X26866Y24193D1*
X26884Y24156D1*
X26921Y24120D1*
X26994D1*
X27030Y24156D1*
X27048Y24193D1*
X27067Y24266D1*
Y24338D1*
X27048Y24412D1*
X27012Y24520D1*
X26830Y24885D1*
X27085D1*
X27350D2*
Y24120D1*
X27168Y24630D1*
X27441D1*
X28550Y24500D2*
X28714D1*
X28769Y24464D1*
X28787Y24427D1*
X28805Y24355D1*
Y24245D1*
X28787Y24173D1*
X28769Y24136D1*
X28714Y24099D1*
X28550D1*
Y24865D1*
X28998Y24100D2*
X28943Y24137D1*
X28907Y24246D1*
X28889Y24428D1*
Y24537D1*
X28907Y24719D1*
X28943Y24829D1*
X28998Y24865D1*
X29034D1*
X29089Y24829D1*
X29125Y24719D1*
X29144Y24537D1*
Y24428D1*
X29125Y24246D1*
X29089Y24137D1*
X29034Y24100D1*
X28998D1*
X29125Y24246D2*
X28907Y24719D1*
X29245Y24792D2*
X29227Y24829D1*
X29245Y24865D1*
X29264Y24829D1*
X29245Y24792D1*
X29366Y24282D2*
Y24246D1*
X29384Y24173D1*
X29402Y24137D1*
X29439Y24100D1*
X29511D1*
X29548Y24137D1*
X29566Y24173D1*
X29584Y24246D1*
Y24318D1*
X29566Y24392D1*
X29530Y24500D1*
X29347Y24865D1*
X29602D1*
X29722Y24100D2*
X29922D1*
X29813Y24392D1*
X29868D1*
X29904Y24428D1*
X29922Y24464D1*
X29941Y24574D1*
Y24646D1*
X29922Y24756D1*
X29886Y24829D1*
X29831Y24865D1*
X29777D1*
X29722Y24829D1*
X29704Y24792D1*
X29686Y24719D1*
X23274Y24521D2*
X23438D1*
X23492Y24485D1*
X23511Y24448D1*
X23529Y24376D1*
Y24266D1*
X23511Y24194D1*
X23492Y24157D1*
X23438Y24120D1*
X23274D1*
Y24886D1*
X23722Y24121D2*
X23667Y24157D1*
X23631Y24267D1*
X23612Y24449D1*
Y24558D1*
X23631Y24740D1*
X23667Y24850D1*
X23722Y24886D1*
X23758D1*
X23813Y24850D1*
X23849Y24740D1*
X23868Y24558D1*
Y24449D1*
X23849Y24267D1*
X23813Y24157D1*
X23758Y24121D1*
X23722D1*
X23849Y24267D2*
X23631Y24740D1*
X23969Y24813D2*
X23951Y24850D1*
X23969Y24886D1*
X23988Y24850D1*
X23969Y24813D1*
X24089Y24303D2*
Y24267D1*
X24108Y24194D1*
X24126Y24157D1*
X24162Y24121D1*
X24235D1*
X24271Y24157D1*
X24290Y24194D1*
X24308Y24267D1*
Y24339D1*
X24290Y24413D1*
X24253Y24521D1*
X24071Y24886D1*
X24326D1*
X24628Y24121D2*
X24446D1*
X24428Y24449D1*
X24446Y24413D1*
X24501Y24376D1*
X24555D1*
X24610Y24413D1*
X24647Y24485D1*
X24665Y24595D1*
Y24667D1*
X24647Y24776D1*
X24610Y24850D1*
X24555Y24886D1*
X24501D1*
X24446Y24850D1*
X24428Y24813D1*
X24409Y24740D1*
X28999Y13200D2*
X28834D1*
X28780Y13236D1*
X28762Y13273D1*
X28743Y13346D1*
Y13455D1*
X28762Y13528D1*
X28780Y13565D1*
X28834Y13601D1*
X28999D1*
Y12835D1*
X28551Y13600D2*
X28605Y13564D1*
X28642Y13454D1*
X28660Y13272D1*
Y13163D1*
X28642Y12981D1*
X28605Y12872D1*
X28551Y12835D1*
X28514D1*
X28460Y12872D1*
X28423Y12981D1*
X28405Y13163D1*
Y13272D1*
X28423Y13454D1*
X28460Y13564D1*
X28514Y13600D1*
X28551D1*
X28423Y13454D2*
X28642Y12981D1*
X28303Y12909D2*
X28322Y12872D1*
X28303Y12835D1*
X28285Y12872D1*
X28303Y12909D1*
X28202Y13454D2*
X28165Y13491D1*
X28110Y13600D1*
Y12835D1*
X27990Y13600D2*
X27790D1*
X27899Y13309D1*
X27845D1*
X27808Y13272D1*
X27790Y13236D1*
X27772Y13127D1*
Y13054D1*
X27790Y12945D1*
X27826Y12872D1*
X27881Y12835D1*
X27936D1*
X27990Y12872D1*
X28008Y12909D1*
X28027Y12981D1*
X29541Y14794D2*
Y14630D1*
X29505Y14575D1*
X29468Y14557D1*
X29395Y14539D1*
X29286D1*
X29214Y14557D1*
X29176Y14575D1*
X29140Y14630D1*
Y14794D1*
X29906D1*
X29141Y14346D2*
X29177Y14401D1*
X29287Y14437D1*
X29469Y14455D1*
X29578D1*
X29760Y14437D1*
X29870Y14401D1*
X29906Y14346D1*
Y14310D1*
X29870Y14255D1*
X29760Y14219D1*
X29578Y14200D1*
X29469D1*
X29287Y14219D1*
X29177Y14255D1*
X29141Y14310D1*
Y14346D1*
X29287Y14219D2*
X29760Y14437D1*
X29833Y14099D2*
X29870Y14117D1*
X29906Y14099D1*
X29870Y14080D1*
X29833Y14099D1*
X29287Y13997D2*
X29250Y13960D1*
X29141Y13905D1*
X29906D1*
X29141Y13731D2*
X29177Y13785D1*
X29250Y13804D1*
X29323D1*
X29395Y13785D1*
X29433Y13749D1*
X29469Y13676D1*
X29505Y13622D1*
X29578Y13585D1*
X29651Y13567D1*
X29760D1*
X29833Y13585D1*
X29870Y13603D1*
X29906Y13658D1*
Y13731D1*
X29870Y13785D1*
X29833Y13804D1*
X29760Y13822D1*
X29651D1*
X29578Y13804D1*
X29505Y13767D1*
X29469Y13713D1*
X29433Y13640D1*
X29395Y13603D1*
X29323Y13585D1*
X29250D1*
X29177Y13603D1*
X29141Y13658D1*
Y13731D1*
X29559Y16687D2*
Y16523D1*
X29523Y16468D1*
X29486Y16450D1*
X29413Y16432D1*
X29304D1*
X29232Y16450D1*
X29194Y16468D1*
X29158Y16523D1*
Y16687D1*
X29924D1*
X29159Y16239D2*
X29195Y16294D1*
X29305Y16330D1*
X29487Y16348D1*
X29596D1*
X29778Y16330D1*
X29888Y16294D1*
X29924Y16239D1*
Y16203D1*
X29888Y16148D1*
X29778Y16112D1*
X29596Y16093D1*
X29487D1*
X29305Y16112D1*
X29195Y16148D1*
X29159Y16203D1*
Y16239D1*
X29305Y16112D2*
X29778Y16330D1*
X29851Y15992D2*
X29888Y16010D1*
X29924Y15992D1*
X29888Y15973D1*
X29851Y15992D1*
X29305Y15890D2*
X29268Y15853D1*
X29159Y15799D1*
X29924D1*
X29413Y15478D2*
X29523Y15497D1*
X29596Y15533D1*
X29632Y15588D1*
Y15606D1*
X29596Y15660D1*
X29523Y15697D1*
X29413Y15715D1*
X29377D1*
X29268Y15697D1*
X29195Y15660D1*
X29159Y15606D1*
Y15588D1*
X29195Y15533D1*
X29268Y15497D1*
X29413Y15478D1*
X29596D1*
X29778Y15497D1*
X29888Y15533D1*
X29924Y15588D1*
Y15624D1*
X29888Y15679D1*
X29814Y15697D1*
X30877Y21175D2*
Y21011D1*
X30841Y20957D1*
X30804Y20938D1*
X30732Y20920D1*
X30622D1*
X30550Y20938D1*
X30513Y20957D1*
X30476Y21011D1*
Y21175D1*
X31242D1*
X30477Y20727D2*
X30514Y20782D1*
X30623Y20818D1*
X30805Y20837D1*
X30914D1*
X31096Y20818D1*
X31206Y20782D1*
X31242Y20727D1*
Y20691D1*
X31206Y20636D1*
X31096Y20600D1*
X30914Y20581D1*
X30805D1*
X30623Y20600D1*
X30514Y20636D1*
X30477Y20691D1*
Y20727D1*
X30623Y20600D2*
X31096Y20818D1*
X31169Y20480D2*
X31206Y20498D1*
X31242Y20480D1*
X31206Y20461D1*
X31169Y20480D1*
X30659Y20359D2*
X30623D1*
X30550Y20341D1*
X30514Y20323D1*
X30477Y20287D1*
Y20214D1*
X30514Y20178D1*
X30550Y20159D1*
X30623Y20141D1*
X30695D1*
X30769Y20159D1*
X30877Y20196D1*
X31242Y20378D1*
Y20123D1*
X30477Y19930D2*
X30514Y19985D1*
X30623Y20021D1*
X30805Y20039D1*
X30914D1*
X31096Y20021D1*
X31206Y19985D1*
X31242Y19930D1*
Y19894D1*
X31206Y19839D1*
X31096Y19803D1*
X30914Y19784D1*
X30805D1*
X30623Y19803D1*
X30514Y19839D1*
X30477Y19894D1*
Y19930D1*
X30623Y19803D2*
X31096Y20021D1*
X24216Y22018D2*
D86*
X24722D1*
Y20997D1*
Y21532D2*
X24411D1*
X23965Y22018D2*
Y20997D1*
X23714Y21386D2*
X23248D1*
Y21483D1*
X23286Y21581D1*
X23325Y21629D1*
X23403Y21678D1*
X23520D1*
X23597Y21629D1*
X23675Y21532D1*
X23714Y21386D1*
Y21289D1*
X23675Y21143D1*
X23597Y21047D1*
X23520Y20997D1*
X23403D1*
X23325Y21047D1*
X23248Y21143D1*
X22997Y21678D2*
X22569Y20997D1*
Y21678D2*
X22997Y20997D1*
X20906D2*
Y22018D1*
X21217Y20997D1*
X21528Y22018D1*
Y20997D1*
X20461Y21678D2*
X20538Y21629D1*
X20617Y21532D1*
X20655Y21386D1*
Y21289D1*
X20617Y21143D1*
X20538Y21047D1*
X20461Y20997D1*
X20344D1*
X20266Y21047D1*
X20189Y21143D1*
X20149Y21289D1*
Y21386D1*
X20189Y21532D1*
X20266Y21629D1*
X20344Y21678D1*
X20461D1*
X19432Y22018D2*
Y20997D1*
Y21532D2*
X19509Y21629D1*
X19587Y21678D1*
X19704D1*
X19782Y21629D1*
X19860Y21532D1*
X19898Y21386D1*
Y21289D1*
X19860Y21143D1*
X19782Y21047D1*
X19704Y20997D1*
X19587D1*
X19509Y21047D1*
X19432Y21143D1*
X19181Y21678D2*
Y21191D1*
X19142Y21047D1*
X19064Y20997D1*
X18947D1*
X18870Y21047D1*
X18753Y21191D1*
Y21678D2*
Y20997D1*
X18502Y22018D2*
Y20997D1*
X18251Y21386D2*
X17785D1*
Y21483D1*
X17824Y21581D1*
X17862Y21629D1*
X17941Y21678D1*
X18057D1*
X18135Y21629D1*
X18213Y21532D1*
X18251Y21386D1*
Y21289D1*
X18213Y21143D1*
X18135Y21047D1*
X18057Y20997D1*
X17941D1*
X17862Y21047D1*
X17785Y21143D1*
M02*
