G04 DipTrace 2.4.0.2*
%IN3dBBLE.gto*%
%MOMM*%
%ADD10C,0.25*%
%ADD13C,0.203*%
%ADD19C,0.152*%
%ADD22O,0.794X0.794*%
%ADD26O,0.317X0.318*%
%ADD50O,0.48X0.525*%
%ADD84C,0.118*%
%ADD85C,0.083*%
%FSLAX53Y53*%
G04*
G71*
G90*
G75*
G01*
%LNTopSilk*%
%LPD*%
X28835Y24915D2*
D10*
X32645D1*
Y21105D1*
X28835D1*
Y24915D1*
D22*
X27961Y22137D3*
X25461Y16202D2*
D19*
X23721D1*
Y17762D1*
X25461D1*
Y16202D1*
G36*
X25525Y16776D2*
X25246D1*
Y17179D1*
X25525D1*
Y16776D1*
G37*
X17571Y22696D2*
D19*
X19971D1*
Y24696D1*
X17571D1*
Y22696D1*
D26*
X17266Y23193D3*
X30481Y14383D2*
D19*
X27081D1*
Y12383D1*
X30481D1*
Y14383D1*
X15895Y18795D2*
D10*
Y18803D1*
X15896Y18812D1*
X15898Y18821D1*
X15900Y18829D1*
X15903Y18837D1*
X15906Y18846D1*
X15910Y18853D1*
X15914Y18861D1*
X15919Y18868D1*
X15924Y18875D1*
X15930Y18881D1*
X15936Y18888D1*
X15943Y18893D1*
X15950Y18898D1*
X15958Y18903D1*
X15965Y18907D1*
X15973Y18911D1*
X15981Y18914D1*
X15990Y18916D1*
X15998Y18918D1*
X16007Y18919D1*
X16016Y18920D1*
X16024D1*
X16033Y18919D1*
X16042Y18918D1*
X16050Y18916D1*
X16059Y18914D1*
X16067Y18911D1*
X16075Y18907D1*
X16083Y18903D1*
X16090Y18898D1*
X16097Y18893D1*
X16104Y18888D1*
X16110Y18881D1*
X16116Y18875D1*
X16121Y18868D1*
X16126Y18861D1*
X16130Y18853D1*
X16134Y18846D1*
X16138Y18837D1*
X16140Y18829D1*
X16142Y18821D1*
X16144Y18812D1*
X16145Y18803D1*
Y18795D1*
Y18786D1*
X16144Y18777D1*
X16142Y18769D1*
X16140Y18760D1*
X16138Y18752D1*
X16134Y18744D1*
X16130Y18736D1*
X16126Y18728D1*
X16121Y18721D1*
X16116Y18714D1*
X16110Y18708D1*
X16104Y18702D1*
X16097Y18696D1*
X16090Y18691D1*
X16083Y18686D1*
X16075Y18682D1*
X16067Y18679D1*
X16059Y18676D1*
X16050Y18673D1*
X16042Y18672D1*
X16033Y18670D1*
X16024D1*
X16016D1*
X16007D1*
X15998Y18672D1*
X15990Y18673D1*
X15981Y18676D1*
X15973Y18679D1*
X15965Y18682D1*
X15958Y18686D1*
X15950Y18691D1*
X15943Y18696D1*
X15936Y18702D1*
X15930Y18708D1*
X15924Y18714D1*
X15919Y18721D1*
X15914Y18728D1*
X15910Y18736D1*
X15906Y18744D1*
X15903Y18752D1*
X15900Y18760D1*
X15898Y18769D1*
X15896Y18777D1*
X15895Y18786D1*
Y18795D1*
X16920Y13594D2*
D13*
Y14095D1*
Y13594D2*
X17420D1*
X22420D2*
X22920D1*
Y14095D1*
Y19095D2*
Y19595D1*
X22420D2*
X22920D1*
X16920Y19095D2*
X17420Y19595D1*
D50*
X24209Y24544D3*
G36*
X21990Y21187D2*
X21555D1*
Y21617D1*
X21990D1*
Y21187D1*
G37*
G36*
X22094Y24317D2*
X21809Y24677D1*
X21549Y24317D1*
X21539D1*
D1*
X22094D1*
G37*
X23725Y21637D2*
D19*
X22234D1*
X21460Y22787D2*
Y23157D1*
X23734Y24287D2*
X22234D1*
X24535Y23137D2*
Y22787D1*
X14876Y22290D2*
X15961Y23375D1*
X16038Y21114D2*
X17130Y22206D1*
X31046Y20127D2*
D84*
X30871Y20893D1*
X30696Y20127D1*
X30762Y20383D2*
X30981D1*
X31188Y20747D2*
X31232Y20784D1*
X31297Y20892D1*
Y20127D1*
X25404Y17904D2*
X26169D1*
Y18102D1*
X26132Y18167D1*
X26096Y18189D1*
X26024Y18211D1*
X25914D1*
X25841Y18189D1*
X25805Y18167D1*
X25768Y18102D1*
X25731Y18167D1*
X25695Y18189D1*
X25623Y18211D1*
X25549D1*
X25477Y18189D1*
X25440Y18167D1*
X25404Y18102D1*
Y17904D1*
X25768D2*
Y18102D1*
X26169Y18702D2*
X25404Y18527D1*
X26169Y18352D1*
X25914Y18418D2*
Y18636D1*
X25404Y18843D2*
X26169D1*
Y19106D1*
X25550Y19247D2*
X25513Y19291D1*
X25405Y19356D1*
X26169D1*
X25693Y22490D2*
X25671Y22563D1*
X25627Y22636D1*
X25584Y22672D1*
X25496D1*
X25452Y22636D1*
X25409Y22563D1*
X25386Y22490D1*
X25365Y22381D1*
Y22198D1*
X25386Y22090D1*
X25409Y22016D1*
X25452Y21944D1*
X25496Y21907D1*
X25584D1*
X25627Y21944D1*
X25671Y22016D1*
X25693Y22090D1*
X25834Y22526D2*
X25878Y22563D1*
X25944Y22672D1*
Y21907D1*
X20901Y21693D2*
X20880Y21765D1*
X20836Y21838D1*
X20792Y21875D1*
X20705D1*
X20661Y21838D1*
X20617Y21765D1*
X20595Y21693D1*
X20573Y21583D1*
Y21400D1*
X20595Y21292D1*
X20617Y21218D1*
X20661Y21146D1*
X20705Y21109D1*
X20792D1*
X20836Y21146D1*
X20880Y21218D1*
X20901Y21292D1*
X21065Y21692D2*
Y21728D1*
X21086Y21801D1*
X21108Y21838D1*
X21152Y21874D1*
X21240D1*
X21283Y21838D1*
X21305Y21801D1*
X21327Y21728D1*
Y21656D1*
X21305Y21582D1*
X21261Y21474D1*
X21042Y21109D1*
X21349D1*
X26111Y15551D2*
X26089Y15623D1*
X26045Y15697D1*
X26002Y15733D1*
X25915D1*
X25871Y15697D1*
X25827Y15623D1*
X25805Y15551D1*
X25783Y15442D1*
Y15259D1*
X25805Y15150D1*
X25827Y15077D1*
X25871Y15004D1*
X25915Y14967D1*
X26002D1*
X26045Y15004D1*
X26089Y15077D1*
X26111Y15150D1*
X26296Y15732D2*
X26536D1*
X26405Y15441D1*
X26471D1*
X26515Y15404D1*
X26536Y15368D1*
X26559Y15259D1*
Y15186D1*
X26536Y15077D1*
X26493Y15004D1*
X26427Y14967D1*
X26362D1*
X26296Y15004D1*
X26275Y15041D1*
X26252Y15113D1*
X14239Y24202D2*
X14218Y24274D1*
X14174Y24348D1*
X14130Y24384D1*
X14043D1*
X13999Y24348D1*
X13955Y24274D1*
X13933Y24202D1*
X13911Y24092D1*
Y23910D1*
X13933Y23801D1*
X13955Y23728D1*
X13999Y23655D1*
X14043Y23618D1*
X14130D1*
X14174Y23655D1*
X14218Y23728D1*
X14239Y23801D1*
X14599Y23618D2*
Y24383D1*
X14381Y23873D1*
X14709D1*
X13339Y22474D2*
X13317Y22546D1*
X13273Y22620D1*
X13230Y22656D1*
X13142D1*
X13098Y22620D1*
X13055Y22546D1*
X13032Y22474D1*
X13011Y22364D1*
Y22182D1*
X13032Y22073D1*
X13055Y22000D1*
X13098Y21927D1*
X13142Y21890D1*
X13230D1*
X13273Y21927D1*
X13317Y22000D1*
X13339Y22073D1*
X13742Y22655D2*
X13524D1*
X13502Y22327D1*
X13524Y22363D1*
X13590Y22401D1*
X13655D1*
X13720Y22363D1*
X13764Y22291D1*
X13786Y22182D1*
Y22109D1*
X13764Y22000D1*
X13720Y21926D1*
X13655Y21890D1*
X13590D1*
X13524Y21926D1*
X13502Y21963D1*
X13480Y22036D1*
X28039Y23220D2*
X28017Y23293D1*
X27973Y23366D1*
X27930Y23402D1*
X27842D1*
X27798Y23366D1*
X27755Y23293D1*
X27732Y23220D1*
X27711Y23111D1*
Y22928D1*
X27732Y22820D1*
X27755Y22746D1*
X27798Y22674D1*
X27842Y22637D1*
X27930D1*
X27973Y22674D1*
X28017Y22746D1*
X28039Y22820D1*
X28442Y23293D2*
X28420Y23365D1*
X28355Y23402D1*
X28311D1*
X28246Y23365D1*
X28202Y23256D1*
X28180Y23074D1*
Y22892D1*
X28202Y22746D1*
X28246Y22673D1*
X28311Y22637D1*
X28333D1*
X28398Y22673D1*
X28442Y22746D1*
X28464Y22856D1*
Y22892D1*
X28442Y23001D1*
X28398Y23074D1*
X28333Y23110D1*
X28311D1*
X28246Y23074D1*
X28202Y23001D1*
X28180Y22892D1*
X14874Y21096D2*
X14852Y21168D1*
X14808Y21241D1*
X14765Y21278D1*
X14678D1*
X14634Y21241D1*
X14590Y21168D1*
X14568Y21096D1*
X14546Y20986D1*
Y20803D1*
X14568Y20695D1*
X14590Y20621D1*
X14634Y20549D1*
X14678Y20512D1*
X14765D1*
X14808Y20549D1*
X14852Y20621D1*
X14874Y20695D1*
X15103Y20512D2*
X15322Y21277D1*
X15015D1*
X18244Y20793D2*
X18222Y20865D1*
X18178Y20939D1*
X18135Y20975D1*
X18047D1*
X18003Y20939D1*
X17960Y20865D1*
X17938Y20793D1*
X17916Y20683D1*
Y20501D1*
X17938Y20392D1*
X17960Y20319D1*
X18003Y20246D1*
X18047Y20209D1*
X18135D1*
X18178Y20246D1*
X18222Y20319D1*
X18244Y20392D1*
X18494Y20974D2*
X18429Y20938D1*
X18407Y20865D1*
Y20792D1*
X18429Y20720D1*
X18473Y20682D1*
X18560Y20646D1*
X18626Y20610D1*
X18669Y20537D1*
X18691Y20464D1*
Y20355D1*
X18669Y20282D1*
X18647Y20245D1*
X18582Y20209D1*
X18494D1*
X18429Y20245D1*
X18407Y20282D1*
X18385Y20355D1*
Y20464D1*
X18407Y20537D1*
X18451Y20610D1*
X18516Y20646D1*
X18603Y20682D1*
X18647Y20720D1*
X18669Y20792D1*
Y20865D1*
X18647Y20938D1*
X18582Y20974D1*
X18494D1*
X23660Y18661D2*
X23638Y18734D1*
X23594Y18807D1*
X23550Y18843D1*
X23463D1*
X23419Y18807D1*
X23376Y18734D1*
X23353Y18661D1*
X23332Y18552D1*
Y18369D1*
X23353Y18260D1*
X23376Y18187D1*
X23419Y18115D1*
X23463Y18078D1*
X23550D1*
X23594Y18115D1*
X23638Y18187D1*
X23660Y18260D1*
X24085Y18588D2*
X24063Y18479D1*
X24020Y18405D1*
X23954Y18369D1*
X23932D1*
X23866Y18405D1*
X23823Y18479D1*
X23801Y18588D1*
Y18624D1*
X23823Y18734D1*
X23866Y18806D1*
X23932Y18842D1*
X23954D1*
X24020Y18806D1*
X24063Y18734D1*
X24085Y18588D1*
Y18405D1*
X24063Y18223D1*
X24020Y18114D1*
X23954Y18078D1*
X23910D1*
X23845Y18114D1*
X23823Y18187D1*
X23460Y13635D2*
X23438Y13708D1*
X23394Y13781D1*
X23351Y13817D1*
X23263D1*
X23219Y13781D1*
X23176Y13708D1*
X23154Y13635D1*
X23132Y13526D1*
Y13343D1*
X23154Y13234D1*
X23176Y13161D1*
X23219Y13089D1*
X23263Y13052D1*
X23351D1*
X23394Y13089D1*
X23438Y13161D1*
X23460Y13234D1*
X23601Y13671D2*
X23645Y13708D1*
X23711Y13817D1*
Y13052D1*
X23983Y13817D2*
X23918Y13780D1*
X23874Y13671D1*
X23852Y13489D1*
Y13379D1*
X23874Y13197D1*
X23918Y13088D1*
X23983Y13052D1*
X24027D1*
X24092Y13088D1*
X24136Y13197D1*
X24158Y13379D1*
Y13489D1*
X24136Y13671D1*
X24092Y13780D1*
X24027Y13817D1*
X23983D1*
X24136Y13671D2*
X23874Y13197D1*
X16125Y13825D2*
X16052Y13804D1*
X15979Y13760D1*
X15943Y13716D1*
Y13629D1*
X15979Y13585D1*
X16052Y13541D1*
X16125Y13519D1*
X16234Y13497D1*
X16417D1*
X16526Y13519D1*
X16599Y13541D1*
X16671Y13585D1*
X16708Y13629D1*
Y13716D1*
X16671Y13760D1*
X16599Y13804D1*
X16526Y13825D1*
X16089Y13967D2*
X16052Y14011D1*
X15943Y14076D1*
X16708D1*
X16089Y14218D2*
X16052Y14261D1*
X15943Y14327D1*
X16708D1*
X12517Y17794D2*
X12495Y17867D1*
X12451Y17940D1*
X12407Y17976D1*
X12320D1*
X12276Y17940D1*
X12233Y17867D1*
X12210Y17794D1*
X12189Y17685D1*
Y17502D1*
X12210Y17393D1*
X12233Y17320D1*
X12276Y17248D1*
X12320Y17211D1*
X12407D1*
X12451Y17248D1*
X12495Y17320D1*
X12517Y17393D1*
X12658Y17830D2*
X12702Y17867D1*
X12768Y17975D1*
Y17211D1*
X12931Y17793D2*
Y17830D1*
X12953Y17903D1*
X12974Y17939D1*
X13018Y17975D1*
X13106D1*
X13149Y17939D1*
X13171Y17903D1*
X13193Y17830D1*
Y17757D1*
X13171Y17684D1*
X13128Y17575D1*
X12909Y17211D1*
X13215D1*
X26782Y21727D2*
X26761Y21800D1*
X26717Y21873D1*
X26673Y21909D1*
X26586D1*
X26542Y21873D1*
X26498Y21800D1*
X26476Y21727D1*
X26454Y21618D1*
Y21435D1*
X26476Y21326D1*
X26498Y21253D1*
X26542Y21181D1*
X26586Y21143D1*
X26673D1*
X26717Y21181D1*
X26761Y21253D1*
X26782Y21326D1*
X26923Y21763D2*
X26967Y21800D1*
X27033Y21908D1*
Y21143D1*
X27218Y21908D2*
X27458D1*
X27327Y21617D1*
X27393D1*
X27437Y21581D1*
X27458Y21544D1*
X27481Y21435D1*
Y21362D1*
X27458Y21253D1*
X27415Y21180D1*
X27349Y21143D1*
X27283D1*
X27218Y21180D1*
X27197Y21217D1*
X27174Y21289D1*
X20126Y22703D2*
Y21938D1*
X20279D1*
X20345Y21975D1*
X20389Y22047D1*
X20411Y22120D1*
X20433Y22229D1*
Y22412D1*
X20411Y22521D1*
X20389Y22594D1*
X20345Y22667D1*
X20279Y22703D1*
X20126D1*
X20574Y22557D2*
X20618Y22594D1*
X20683Y22702D1*
Y21938D1*
X14092Y16427D2*
X13807D1*
Y15662D1*
Y16063D2*
X13982D1*
X14233Y16281D2*
X14277Y16318D1*
X14343Y16426D1*
Y15662D1*
X15273Y18523D2*
Y17757D1*
X15535D1*
X15895D2*
Y18522D1*
X15676Y18012D1*
X16004D1*
X14718Y16902D2*
Y16136D1*
X14981D1*
X15384Y16901D2*
X15166D1*
X15144Y16574D1*
X15166Y16610D1*
X15231Y16647D1*
X15297D1*
X15362Y16610D1*
X15406Y16537D1*
X15428Y16428D1*
Y16355D1*
X15406Y16246D1*
X15362Y16173D1*
X15297Y16136D1*
X15231D1*
X15166Y16173D1*
X15144Y16210D1*
X15122Y16282D1*
X25089Y20308D2*
X25285D1*
X25351Y20345D1*
X25373Y20381D1*
X25395Y20454D1*
Y20527D1*
X25373Y20600D1*
X25351Y20637D1*
X25285Y20673D1*
X25089D1*
Y19907D1*
X25242Y20308D2*
X25395Y19907D1*
X25536Y20526D2*
X25580Y20563D1*
X25646Y20672D1*
Y19907D1*
X16953Y21802D2*
X17150D1*
X17216Y21839D1*
X17238Y21875D1*
X17260Y21947D1*
Y22021D1*
X17238Y22093D1*
X17216Y22130D1*
X17150Y22166D1*
X16953D1*
Y21401D1*
X17107Y21802D2*
X17260Y21401D1*
X17423Y21984D2*
Y22020D1*
X17445Y22093D1*
X17467Y22129D1*
X17511Y22166D1*
X17598D1*
X17641Y22129D1*
X17663Y22093D1*
X17685Y22020D1*
Y21947D1*
X17663Y21874D1*
X17620Y21765D1*
X17401Y21401D1*
X17707D1*
X29354Y14974D2*
X29550D1*
X29616Y15011D1*
X29638Y15048D1*
X29660Y15120D1*
Y15193D1*
X29638Y15266D1*
X29616Y15303D1*
X29550Y15339D1*
X29354D1*
Y14573D1*
X29507Y14974D2*
X29660Y14573D1*
X30107Y15230D2*
X30064Y15303D1*
X29998Y15339D1*
X29911D1*
X29845Y15303D1*
X29801Y15230D1*
Y15157D1*
X29823Y15084D1*
X29845Y15048D1*
X29889Y15011D1*
X30020Y14938D1*
X30064Y14902D1*
X30086Y14865D1*
X30107Y14792D1*
Y14683D1*
X30064Y14610D1*
X29998Y14573D1*
X29911D1*
X29845Y14610D1*
X29801Y14683D1*
X30402Y15339D2*
Y14573D1*
X30249Y15339D2*
X30555D1*
X12354Y26535D2*
X12311Y26608D1*
X12245Y26645D1*
X12158D1*
X12092Y26608D1*
X12048Y26535D1*
Y26463D1*
X12070Y26389D1*
X12092Y26353D1*
X12136Y26317D1*
X12267Y26244D1*
X12311Y26208D1*
X12333Y26170D1*
X12354Y26098D1*
Y25989D1*
X12311Y25916D1*
X12245Y25879D1*
X12158D1*
X12092Y25916D1*
X12048Y25989D1*
X12496Y26498D2*
X12540Y26535D1*
X12605Y26644D1*
Y25879D1*
X27515Y14979D2*
X27442Y14936D1*
X27406Y14870D1*
Y14783D1*
X27442Y14717D1*
X27515Y14673D1*
X27588D1*
X27661Y14695D1*
X27697Y14717D1*
X27733Y14760D1*
X27807Y14892D1*
X27843Y14936D1*
X27880Y14957D1*
X27952Y14979D1*
X28062D1*
X28134Y14936D1*
X28171Y14870D1*
Y14783D1*
X28134Y14717D1*
X28062Y14673D1*
X27406Y15120D2*
X28171Y15230D1*
X27406Y15339D1*
X28171Y15448D1*
X27406Y15558D1*
Y15699D2*
X28171D1*
Y15852D1*
X28134Y15918D1*
X28062Y15962D1*
X27989Y15984D1*
X27880Y16005D1*
X27697D1*
X27588Y15984D1*
X27515Y15962D1*
X27442Y15918D1*
X27406Y15852D1*
Y15699D1*
X22267Y20525D2*
Y19979D1*
X22289Y19869D1*
X22333Y19797D1*
X22399Y19760D1*
X22442D1*
X22508Y19797D1*
X22552Y19869D1*
X22574Y19979D1*
Y20525D1*
X22715Y20379D2*
X22759Y20416D1*
X22825Y20524D1*
Y19760D1*
X22286Y21462D2*
X22593Y20697D1*
Y21462D2*
X22286Y20697D1*
X22734Y21316D2*
X22778Y21353D1*
X22843Y21462D1*
Y20697D1*
X16209Y21128D2*
X16515Y20362D1*
Y21128D2*
X16209Y20362D1*
X16678Y20945D2*
Y20981D1*
X16700Y21055D1*
X16722Y21091D1*
X16766Y21127D1*
X16853D1*
X16897Y21091D1*
X16918Y21055D1*
X16941Y20981D1*
Y20909D1*
X16918Y20836D1*
X16875Y20727D1*
X16656Y20362D1*
X16962D1*
X12064Y11220D2*
D85*
X12830Y11366D1*
X12064Y11511D1*
X12246Y11868D2*
X12174Y11850D1*
X12101Y11813D1*
X12065Y11777D1*
Y11704D1*
X12101Y11668D1*
X12174Y11631D1*
X12246Y11613D1*
X12356Y11595D1*
X12539D1*
X12647Y11613D1*
X12721Y11631D1*
X12793Y11668D1*
X12830Y11704D1*
Y11777D1*
X12793Y11813D1*
X12721Y11850D1*
X12647Y11868D1*
X12246Y12225D2*
X12174Y12207D1*
X12101Y12170D1*
X12065Y12134D1*
Y12061D1*
X12101Y12024D1*
X12174Y11988D1*
X12246Y11969D1*
X12356Y11951D1*
X12539D1*
X12647Y11969D1*
X12721Y11988D1*
X12793Y12024D1*
X12830Y12061D1*
Y12134D1*
X12793Y12170D1*
X12721Y12207D1*
X12647Y12225D1*
X11169Y15276D2*
X11151Y15348D1*
X11114Y15422D1*
X11078Y15458D1*
X11005D1*
X10968Y15422D1*
X10932Y15348D1*
X10914Y15276D1*
X10896Y15167D1*
Y14984D1*
X10914Y14875D1*
X10932Y14802D1*
X10968Y14729D1*
X11005Y14692D1*
X11078D1*
X11114Y14729D1*
X11151Y14802D1*
X11169Y14875D1*
Y14984D1*
X11078D1*
X11507Y15458D2*
Y14692D1*
X11252Y15458D1*
Y14692D1*
X11591Y15458D2*
Y14692D1*
X11718D1*
X11773Y14729D1*
X11810Y14802D1*
X11828Y14875D1*
X11846Y14984D1*
Y15167D1*
X11828Y15276D1*
X11810Y15348D1*
X11773Y15422D1*
X11718Y15458D1*
X11591D1*
X22059Y25262D2*
X21895D1*
X21840Y25225D1*
X21822Y25188D1*
X21804Y25116D1*
Y25006D1*
X21822Y24934D1*
X21840Y24897D1*
X21895Y24861D1*
X22059D1*
Y25626D1*
X21611Y24861D2*
X21665Y24898D1*
X21702Y25007D1*
X21720Y25189D1*
Y25299D1*
X21702Y25481D1*
X21666Y25590D1*
X21611Y25626D1*
X21575D1*
X21520Y25590D1*
X21484Y25481D1*
X21465Y25299D1*
Y25189D1*
X21484Y25007D1*
X21520Y24898D1*
X21575Y24861D1*
X21611D1*
X21484Y25007D2*
X21702Y25481D1*
X21364Y25553D2*
X21382Y25590D1*
X21364Y25626D1*
X21345Y25590D1*
X21364Y25553D1*
X21243Y25043D2*
Y25007D1*
X21225Y24934D1*
X21207Y24898D1*
X21170Y24861D1*
X21097D1*
X21061Y24898D1*
X21043Y24934D1*
X21025Y25007D1*
Y25080D1*
X21043Y25153D1*
X21079Y25262D1*
X21262Y25626D1*
X21007D1*
X20686Y25116D2*
X20705Y25225D1*
X20741Y25299D1*
X20796Y25335D1*
X20814D1*
X20868Y25299D1*
X20905Y25225D1*
X20923Y25116D1*
Y25080D1*
X20905Y24970D1*
X20868Y24898D1*
X20814Y24861D1*
X20796D1*
X20741Y24898D1*
X20705Y24970D1*
X20686Y25116D1*
Y25299D1*
X20705Y25481D1*
X20741Y25590D1*
X20796Y25626D1*
X20832D1*
X20887Y25590D1*
X20905Y25517D1*
X19366Y25231D2*
X19202D1*
X19148Y25194D1*
X19129Y25157D1*
X19111Y25085D1*
Y24975D1*
X19129Y24903D1*
X19148Y24866D1*
X19202Y24830D1*
X19366D1*
Y25595D1*
X18918Y24831D2*
X18973Y24867D1*
X19010Y24976D1*
X19028Y25158D1*
Y25268D1*
X19010Y25450D1*
X18973Y25559D1*
X18918Y25595D1*
X18882D1*
X18827Y25559D1*
X18791Y25450D1*
X18772Y25268D1*
Y25158D1*
X18791Y24976D1*
X18827Y24867D1*
X18882Y24831D1*
X18918D1*
X18791Y24976D2*
X19010Y25450D1*
X18671Y25522D2*
X18689Y25559D1*
X18671Y25595D1*
X18652Y25559D1*
X18671Y25522D1*
X18532Y24831D2*
X18332D1*
X18441Y25122D1*
X18387D1*
X18351Y25158D1*
X18332Y25194D1*
X18314Y25304D1*
Y25376D1*
X18332Y25486D1*
X18369Y25559D1*
X18423Y25595D1*
X18478D1*
X18532Y25559D1*
X18551Y25522D1*
X18569Y25450D1*
X18121Y24831D2*
X18176Y24867D1*
X18212Y24976D1*
X18231Y25158D1*
Y25268D1*
X18212Y25450D1*
X18176Y25559D1*
X18121Y25595D1*
X18085D1*
X18030Y25559D1*
X17994Y25450D1*
X17975Y25268D1*
Y25158D1*
X17994Y24976D1*
X18030Y24867D1*
X18085Y24831D1*
X18121D1*
X17994Y24976D2*
X18212Y25450D1*
X10839Y25255D2*
X11003D1*
X11057Y25292D1*
X11076Y25329D1*
X11094Y25401D1*
Y25511D1*
X11076Y25583D1*
X11057Y25620D1*
X11003Y25656D1*
X10839D1*
Y24891D1*
X11287Y25655D2*
X11232Y25619D1*
X11195Y25510D1*
X11177Y25328D1*
Y25218D1*
X11195Y25036D1*
X11232Y24927D1*
X11287Y24891D1*
X11323D1*
X11378Y24927D1*
X11414Y25036D1*
X11432Y25218D1*
Y25328D1*
X11414Y25510D1*
X11378Y25619D1*
X11323Y25655D1*
X11287D1*
X11414Y25510D2*
X11195Y25036D1*
X11534Y24964D2*
X11516Y24927D1*
X11534Y24891D1*
X11552Y24927D1*
X11534Y24964D1*
X11745Y25655D2*
X11690Y25619D1*
X11654Y25510D1*
X11636Y25328D1*
Y25218D1*
X11654Y25036D1*
X11690Y24927D1*
X11745Y24891D1*
X11781D1*
X11836Y24927D1*
X11872Y25036D1*
X11891Y25218D1*
Y25328D1*
X11872Y25510D1*
X11836Y25619D1*
X11781Y25655D1*
X11745D1*
X11872Y25510D2*
X11654Y25036D1*
X11993Y25473D2*
Y25510D1*
X12011Y25583D1*
X12029Y25619D1*
X12066Y25655D1*
X12139D1*
X12175Y25619D1*
X12193Y25583D1*
X12211Y25510D1*
Y25437D1*
X12193Y25364D1*
X12157Y25255D1*
X11974Y24891D1*
X12229D1*
X12531Y22080D2*
Y21916D1*
X12567Y21862D1*
X12604Y21843D1*
X12677Y21825D1*
X12786D1*
X12859Y21843D1*
X12896Y21862D1*
X12932Y21916D1*
Y22080D1*
X12166D1*
X12931Y21632D2*
X12895Y21687D1*
X12785Y21723D1*
X12603Y21742D1*
X12494D1*
X12312Y21723D1*
X12202Y21687D1*
X12166Y21632D1*
Y21596D1*
X12202Y21541D1*
X12312Y21505D1*
X12494Y21486D1*
X12603D1*
X12785Y21505D1*
X12895Y21541D1*
X12931Y21596D1*
Y21632D1*
X12785Y21505D2*
X12312Y21723D1*
X12240Y21385D2*
X12202Y21403D1*
X12166Y21385D1*
X12202Y21366D1*
X12240Y21385D1*
X12931Y21174D2*
X12895Y21228D1*
X12785Y21265D1*
X12603Y21283D1*
X12494D1*
X12312Y21265D1*
X12202Y21228D1*
X12166Y21174D1*
Y21137D1*
X12202Y21083D1*
X12312Y21046D1*
X12494Y21028D1*
X12603D1*
X12785Y21046D1*
X12895Y21083D1*
X12931Y21137D1*
Y21174D1*
X12785Y21046D2*
X12312Y21265D1*
X12931Y20908D2*
Y20708D1*
X12640Y20817D1*
Y20762D1*
X12603Y20726D1*
X12567Y20708D1*
X12458Y20689D1*
X12385D1*
X12276Y20708D1*
X12202Y20744D1*
X12166Y20799D1*
Y20854D1*
X12202Y20908D1*
X12240Y20926D1*
X12312Y20944D1*
X12520Y16240D2*
Y16076D1*
X12556Y16022D1*
X12593Y16003D1*
X12665Y15985D1*
X12775D1*
X12847Y16003D1*
X12884Y16022D1*
X12921Y16076D1*
Y16240D1*
X12155D1*
X12920Y15792D2*
X12884Y15847D1*
X12774Y15883D1*
X12592Y15902D1*
X12483D1*
X12301Y15883D1*
X12191Y15847D1*
X12155Y15792D1*
Y15756D1*
X12191Y15701D1*
X12301Y15665D1*
X12483Y15646D1*
X12592D1*
X12774Y15665D1*
X12884Y15701D1*
X12920Y15756D1*
Y15792D1*
X12774Y15665D2*
X12301Y15883D1*
X12228Y15545D2*
X12191Y15563D1*
X12155Y15545D1*
X12191Y15526D1*
X12228Y15545D1*
X12920Y15334D2*
X12884Y15388D1*
X12774Y15425D1*
X12592Y15443D1*
X12483D1*
X12301Y15425D1*
X12191Y15388D1*
X12155Y15334D1*
Y15297D1*
X12191Y15243D1*
X12301Y15206D1*
X12483Y15188D1*
X12592D1*
X12774Y15206D1*
X12884Y15243D1*
X12920Y15297D1*
Y15334D1*
X12774Y15206D2*
X12301Y15425D1*
X12920Y14886D2*
Y15068D1*
X12592Y15086D1*
X12628Y15068D1*
X12665Y15013D1*
Y14959D1*
X12628Y14904D1*
X12556Y14867D1*
X12446Y14849D1*
X12374D1*
X12265Y14867D1*
X12191Y14904D1*
X12155Y14959D1*
Y15013D1*
X12191Y15068D1*
X12228Y15086D1*
X12301Y15105D1*
X15775Y12544D2*
X15939D1*
X15993Y12580D1*
X16012Y12617D1*
X16030Y12690D1*
Y12799D1*
X16012Y12872D1*
X15993Y12909D1*
X15939Y12945D1*
X15775D1*
Y12179D1*
X16223Y12944D2*
X16168Y12908D1*
X16131Y12798D1*
X16113Y12616D1*
Y12507D1*
X16131Y12325D1*
X16168Y12215D1*
X16223Y12179D1*
X16259D1*
X16314Y12215D1*
X16350Y12325D1*
X16368Y12507D1*
Y12616D1*
X16350Y12798D1*
X16314Y12908D1*
X16259Y12944D1*
X16223D1*
X16350Y12798D2*
X16131Y12325D1*
X16470Y12253D2*
X16452Y12215D1*
X16470Y12179D1*
X16488Y12215D1*
X16470Y12253D1*
X16681Y12944D2*
X16626Y12908D1*
X16590Y12798D1*
X16572Y12616D1*
Y12507D1*
X16590Y12325D1*
X16626Y12215D1*
X16681Y12179D1*
X16717D1*
X16772Y12215D1*
X16808Y12325D1*
X16827Y12507D1*
Y12616D1*
X16808Y12798D1*
X16772Y12908D1*
X16717Y12944D1*
X16681D1*
X16808Y12798D2*
X16590Y12325D1*
X17129Y12835D2*
X17111Y12908D1*
X17056Y12944D1*
X17020D1*
X16965Y12908D1*
X16928Y12798D1*
X16910Y12616D1*
Y12434D1*
X16928Y12289D1*
X16965Y12215D1*
X17020Y12179D1*
X17038D1*
X17092Y12215D1*
X17129Y12289D1*
X17147Y12398D1*
Y12434D1*
X17129Y12544D1*
X17092Y12616D1*
X17038Y12653D1*
X17020D1*
X16965Y12616D1*
X16928Y12544D1*
X16910Y12434D1*
X12516Y19525D2*
Y19361D1*
X12552Y19307D1*
X12589Y19288D1*
X12662Y19270D1*
X12771D1*
X12844Y19288D1*
X12881Y19307D1*
X12917Y19361D1*
Y19525D1*
X12151D1*
X12916Y19077D2*
X12880Y19132D1*
X12770Y19169D1*
X12588Y19187D1*
X12479D1*
X12297Y19169D1*
X12187Y19132D1*
X12151Y19077D1*
Y19041D1*
X12187Y18986D1*
X12297Y18950D1*
X12479Y18932D1*
X12588D1*
X12770Y18950D1*
X12880Y18986D1*
X12916Y19041D1*
Y19077D1*
X12770Y18950D2*
X12297Y19169D1*
X12225Y18830D2*
X12187Y18848D1*
X12151Y18830D1*
X12187Y18812D1*
X12225Y18830D1*
X12916Y18619D2*
X12880Y18674D1*
X12770Y18710D1*
X12588Y18728D1*
X12479D1*
X12297Y18710D1*
X12187Y18674D1*
X12151Y18619D1*
Y18583D1*
X12187Y18528D1*
X12297Y18492D1*
X12479Y18473D1*
X12588D1*
X12770Y18492D1*
X12880Y18528D1*
X12916Y18583D1*
Y18619D1*
X12770Y18492D2*
X12297Y18710D1*
X12151Y18207D2*
X12916D1*
X12406Y18390D1*
Y18116D1*
X25246Y10720D2*
Y10884D1*
X25210Y10939D1*
X25173Y10957D1*
X25100Y10975D1*
X24991D1*
X24918Y10957D1*
X24881Y10939D1*
X24845Y10884D1*
Y10720D1*
X25611D1*
X24846Y11168D2*
X24882Y11113D1*
X24992Y11077D1*
X25174Y11059D1*
X25283D1*
X25465Y11077D1*
X25575Y11113D1*
X25611Y11168D1*
Y11204D1*
X25575Y11259D1*
X25465Y11295D1*
X25283Y11314D1*
X25174D1*
X24992Y11295D1*
X24882Y11259D1*
X24846Y11204D1*
Y11168D1*
X24992Y11295D2*
X25465Y11077D1*
X25537Y11415D2*
X25575Y11397D1*
X25611Y11415D1*
X25575Y11434D1*
X25537Y11415D1*
X24992Y11517D2*
X24955Y11554D1*
X24846Y11609D1*
X25611D1*
X24846Y11910D2*
Y11728D1*
X25174Y11710D1*
X25137Y11728D1*
X25100Y11783D1*
Y11838D1*
X25137Y11892D1*
X25210Y11929D1*
X25319Y11947D1*
X25392D1*
X25501Y11929D1*
X25575Y11892D1*
X25611Y11838D1*
Y11783D1*
X25575Y11728D1*
X25537Y11710D1*
X25465Y11692D1*
X18552Y12633D2*
X18717D1*
X18771Y12669D1*
X18789Y12706D1*
X18807Y12778D1*
Y12888D1*
X18789Y12960D1*
X18771Y12997D1*
X18717Y13034D1*
X18552D1*
Y12268D1*
X19000Y13033D2*
X18946Y12997D1*
X18909Y12887D1*
X18891Y12705D1*
Y12596D1*
X18909Y12414D1*
X18946Y12304D1*
X19000Y12268D1*
X19037D1*
X19091Y12304D1*
X19128Y12414D1*
X19146Y12596D1*
Y12705D1*
X19128Y12887D1*
X19091Y12997D1*
X19037Y13033D1*
X19000D1*
X19128Y12887D2*
X18909Y12414D1*
X19247Y12341D2*
X19229Y12304D1*
X19247Y12268D1*
X19266Y12304D1*
X19247Y12341D1*
X19459Y13033D2*
X19404Y12997D1*
X19367Y12887D1*
X19349Y12705D1*
Y12596D1*
X19367Y12414D1*
X19404Y12304D1*
X19459Y12268D1*
X19495D1*
X19550Y12304D1*
X19586Y12414D1*
X19605Y12596D1*
Y12705D1*
X19586Y12887D1*
X19550Y12997D1*
X19495Y13033D1*
X19459D1*
X19586Y12887D2*
X19367Y12414D1*
X19925Y12778D2*
X19906Y12669D1*
X19870Y12596D1*
X19816Y12559D1*
X19797D1*
X19743Y12596D1*
X19706Y12669D1*
X19688Y12778D1*
Y12815D1*
X19706Y12924D1*
X19743Y12997D1*
X19797Y13033D1*
X19816D1*
X19870Y12997D1*
X19906Y12924D1*
X19925Y12778D1*
Y12596D1*
X19906Y12414D1*
X19870Y12304D1*
X19816Y12268D1*
X19779D1*
X19725Y12304D1*
X19706Y12377D1*
X20853Y12580D2*
X21017D1*
X21071Y12616D1*
X21090Y12653D1*
X21108Y12725D1*
Y12835D1*
X21090Y12907D1*
X21071Y12944D1*
X21017Y12981D1*
X20853D1*
Y12215D1*
X21301Y12980D2*
X21246Y12943D1*
X21209Y12834D1*
X21191Y12652D1*
Y12543D1*
X21209Y12361D1*
X21246Y12251D1*
X21301Y12215D1*
X21337D1*
X21392Y12251D1*
X21428Y12361D1*
X21447Y12543D1*
Y12652D1*
X21428Y12834D1*
X21392Y12943D1*
X21337Y12980D1*
X21301D1*
X21428Y12834D2*
X21209Y12361D1*
X21548Y12288D2*
X21530Y12251D1*
X21548Y12215D1*
X21567Y12251D1*
X21548Y12288D1*
X21650Y12834D2*
X21686Y12871D1*
X21741Y12980D1*
Y12215D1*
X21934Y12980D2*
X21879Y12943D1*
X21843Y12834D1*
X21825Y12652D1*
Y12543D1*
X21843Y12361D1*
X21879Y12251D1*
X21934Y12215D1*
X21970D1*
X22025Y12251D1*
X22061Y12361D1*
X22080Y12543D1*
Y12652D1*
X22061Y12834D1*
X22025Y12943D1*
X21970Y12980D1*
X21934D1*
X22061Y12834D2*
X21843Y12361D1*
X22328Y12568D2*
X22493D1*
X22547Y12604D1*
X22565Y12641D1*
X22584Y12714D1*
Y12823D1*
X22565Y12896D1*
X22547Y12933D1*
X22493Y12969D1*
X22328D1*
Y12203D1*
X22776Y12968D2*
X22722Y12932D1*
X22685Y12822D1*
X22667Y12641D1*
Y12531D1*
X22685Y12349D1*
X22722Y12240D1*
X22776Y12203D1*
X22813D1*
X22867Y12240D1*
X22904Y12349D1*
X22922Y12531D1*
Y12641D1*
X22904Y12822D1*
X22867Y12932D1*
X22813Y12968D1*
X22776D1*
X22904Y12822D2*
X22685Y12349D1*
X23024Y12277D2*
X23005Y12240D1*
X23024Y12203D1*
X23042Y12240D1*
X23024Y12277D1*
X23125Y12822D2*
X23162Y12860D1*
X23217Y12968D1*
Y12203D1*
X23519Y12860D2*
X23501Y12932D1*
X23446Y12968D1*
X23410D1*
X23355Y12932D1*
X23318Y12822D1*
X23300Y12641D1*
Y12459D1*
X23318Y12313D1*
X23355Y12240D1*
X23410Y12203D1*
X23428D1*
X23482Y12240D1*
X23519Y12313D1*
X23537Y12422D1*
Y12459D1*
X23519Y12568D1*
X23482Y12641D1*
X23428Y12677D1*
X23410D1*
X23355Y12641D1*
X23318Y12568D1*
X23300Y12459D1*
X15022Y26989D2*
Y26824D1*
X15059Y26770D1*
X15096Y26752D1*
X15168Y26733D1*
X15278D1*
X15350Y26752D1*
X15387Y26770D1*
X15423Y26824D1*
Y26989D1*
X14658D1*
X15422Y26541D2*
X15386Y26595D1*
X15277Y26632D1*
X15095Y26650D1*
X14985D1*
X14803Y26632D1*
X14694Y26595D1*
X14658Y26541D1*
Y26504D1*
X14694Y26450D1*
X14803Y26413D1*
X14985Y26395D1*
X15095D1*
X15277Y26413D1*
X15386Y26450D1*
X15422Y26504D1*
Y26541D1*
X15277Y26413D2*
X14803Y26632D1*
X14731Y26293D2*
X14694Y26312D1*
X14658Y26293D1*
X14694Y26275D1*
X14731Y26293D1*
X15422Y26082D2*
X15386Y26137D1*
X15277Y26173D1*
X15095Y26192D1*
X14985D1*
X14803Y26173D1*
X14694Y26137D1*
X14658Y26082D1*
Y26046D1*
X14694Y25991D1*
X14803Y25955D1*
X14985Y25936D1*
X15095D1*
X15277Y25955D1*
X15386Y25991D1*
X15422Y26046D1*
Y26082D1*
X15277Y25955D2*
X14803Y26173D1*
X15277Y25853D2*
X15314Y25816D1*
X15422Y25762D1*
X14658D1*
X17042Y25221D2*
X16878D1*
X16824Y25185D1*
X16805Y25148D1*
X16787Y25075D1*
Y24966D1*
X16805Y24893D1*
X16824Y24856D1*
X16878Y24820D1*
X17042D1*
Y25586D1*
X16594Y24821D2*
X16649Y24857D1*
X16686Y24966D1*
X16704Y25148D1*
Y25258D1*
X16686Y25440D1*
X16649Y25549D1*
X16594Y25586D1*
X16558D1*
X16503Y25549D1*
X16467Y25440D1*
X16448Y25258D1*
Y25148D1*
X16467Y24966D1*
X16503Y24857D1*
X16558Y24821D1*
X16594D1*
X16467Y24966D2*
X16686Y25440D1*
X16347Y25512D2*
X16365Y25549D1*
X16347Y25586D1*
X16328Y25549D1*
X16347Y25512D1*
X16136Y24821D2*
X16190Y24857D1*
X16227Y24966D1*
X16245Y25148D1*
Y25258D1*
X16227Y25440D1*
X16190Y25549D1*
X16136Y25586D1*
X16099D1*
X16045Y25549D1*
X16008Y25440D1*
X15990Y25258D1*
Y25148D1*
X16008Y24966D1*
X16045Y24857D1*
X16099Y24821D1*
X16136D1*
X16008Y24966D2*
X16227Y25440D1*
X15797Y24821D2*
X15852Y24857D1*
X15888Y24966D1*
X15907Y25148D1*
Y25258D1*
X15888Y25440D1*
X15852Y25549D1*
X15797Y25586D1*
X15761D1*
X15706Y25549D1*
X15670Y25440D1*
X15651Y25258D1*
Y25148D1*
X15670Y24966D1*
X15706Y24857D1*
X15761Y24821D1*
X15797D1*
X15670Y24966D2*
X15888Y25440D1*
X27754Y27066D2*
Y26902D1*
X27790Y26847D1*
X27827Y26829D1*
X27900Y26811D1*
X28009D1*
X28082Y26829D1*
X28119Y26847D1*
X28155Y26902D1*
Y27066D1*
X27389D1*
X28154Y26618D2*
X28118Y26673D1*
X28009Y26709D1*
X27827Y26727D1*
X27717D1*
X27535Y26709D1*
X27426Y26673D1*
X27389Y26618D1*
Y26582D1*
X27426Y26527D1*
X27535Y26491D1*
X27717Y26472D1*
X27827D1*
X28009Y26491D1*
X28118Y26527D1*
X28154Y26582D1*
Y26618D1*
X28009Y26491D2*
X27535Y26709D1*
X27463Y26371D2*
X27426Y26389D1*
X27389Y26371D1*
X27426Y26352D1*
X27463Y26371D1*
X27972Y26250D2*
X28009D1*
X28082Y26232D1*
X28118Y26214D1*
X28154Y26177D1*
Y26105D1*
X28118Y26068D1*
X28082Y26050D1*
X28009Y26032D1*
X27936D1*
X27863Y26050D1*
X27754Y26086D1*
X27389Y26269D1*
Y26014D1*
X27972Y25912D2*
X28009D1*
X28082Y25894D1*
X28118Y25876D1*
X28154Y25839D1*
Y25766D1*
X28118Y25730D1*
X28082Y25712D1*
X28009Y25693D1*
X27936D1*
X27863Y25712D1*
X27754Y25748D1*
X27389Y25930D1*
Y25675D1*
X30323Y26847D2*
Y26683D1*
X30359Y26628D1*
X30396Y26610D1*
X30469Y26592D1*
X30578D1*
X30651Y26610D1*
X30688Y26628D1*
X30724Y26683D1*
Y26847D1*
X29958D1*
X30723Y26399D2*
X30687Y26454D1*
X30577Y26490D1*
X30395Y26508D1*
X30286D1*
X30104Y26490D1*
X29995Y26454D1*
X29958Y26399D1*
Y26363D1*
X29995Y26308D1*
X30104Y26272D1*
X30286Y26253D1*
X30395D1*
X30577Y26272D1*
X30687Y26308D1*
X30723Y26363D1*
Y26399D1*
X30577Y26272D2*
X30104Y26490D1*
X30032Y26152D2*
X29995Y26170D1*
X29958Y26152D1*
X29995Y26133D1*
X30032Y26152D1*
X30541Y26031D2*
X30577D1*
X30651Y26013D1*
X30687Y25995D1*
X30723Y25959D1*
Y25886D1*
X30687Y25849D1*
X30651Y25831D1*
X30577Y25813D1*
X30505D1*
X30432Y25831D1*
X30323Y25868D1*
X29958Y26050D1*
Y25795D1*
X30577Y25711D2*
X30614Y25675D1*
X30723Y25620D1*
X29958D1*
X25244Y27077D2*
Y26913D1*
X25280Y26859D1*
X25317Y26840D1*
X25389Y26822D1*
X25499D1*
X25571Y26840D1*
X25608Y26859D1*
X25644Y26913D1*
Y27077D1*
X24879D1*
X25644Y26629D2*
X25607Y26684D1*
X25498Y26721D1*
X25316Y26739D1*
X25206D1*
X25025Y26721D1*
X24915Y26684D1*
X24879Y26629D1*
Y26593D1*
X24915Y26538D1*
X25025Y26502D1*
X25206Y26484D1*
X25316D1*
X25498Y26502D1*
X25607Y26538D1*
X25644Y26593D1*
Y26629D1*
X25498Y26502D2*
X25025Y26721D1*
X24952Y26382D2*
X24915Y26400D1*
X24879Y26382D1*
X24915Y26364D1*
X24952Y26382D1*
X25462Y26262D2*
X25498D1*
X25571Y26244D1*
X25607Y26226D1*
X25644Y26189D1*
Y26116D1*
X25607Y26080D1*
X25571Y26062D1*
X25498Y26043D1*
X25425D1*
X25352Y26062D1*
X25244Y26098D1*
X24879Y26280D1*
Y26025D1*
X25644Y25851D2*
X25607Y25905D1*
X25535Y25924D1*
X25462D1*
X25389Y25905D1*
X25352Y25869D1*
X25316Y25796D1*
X25280Y25741D1*
X25206Y25705D1*
X25134Y25687D1*
X25025D1*
X24952Y25705D1*
X24915Y25723D1*
X24879Y25778D1*
Y25851D1*
X24915Y25905D1*
X24952Y25924D1*
X25025Y25942D1*
X25134D1*
X25206Y25924D1*
X25280Y25887D1*
X25316Y25833D1*
X25352Y25760D1*
X25389Y25723D1*
X25462Y25705D1*
X25535D1*
X25607Y25723D1*
X25644Y25778D1*
Y25851D1*
X27820Y10782D2*
Y10947D1*
X27784Y11001D1*
X27746Y11020D1*
X27674Y11038D1*
X27565D1*
X27492Y11020D1*
X27455Y11001D1*
X27419Y10947D1*
Y10782D1*
X28184D1*
X27420Y11231D2*
X27456Y11176D1*
X27565Y11139D1*
X27747Y11121D1*
X27857D1*
X28039Y11139D1*
X28148Y11176D1*
X28184Y11231D1*
Y11267D1*
X28148Y11321D1*
X28039Y11358D1*
X27857Y11376D1*
X27747D1*
X27565Y11358D1*
X27456Y11321D1*
X27420Y11267D1*
Y11231D1*
X27565Y11358D2*
X28039Y11139D1*
X28111Y11478D2*
X28148Y11460D1*
X28184Y11478D1*
X28148Y11496D1*
X28111Y11478D1*
X27565Y11580D2*
X27528Y11616D1*
X27420Y11671D1*
X28184D1*
X27420Y11791D2*
Y11991D1*
X27711Y11882D1*
Y11937D1*
X27747Y11973D1*
X27784Y11991D1*
X27893Y12009D1*
X27965D1*
X28075Y11991D1*
X28148Y11955D1*
X28184Y11900D1*
Y11845D1*
X28148Y11791D1*
X28111Y11773D1*
X28039Y11754D1*
X31819Y12435D2*
X31655D1*
X31601Y12399D1*
X31582Y12362D1*
X31564Y12290D1*
Y12180D1*
X31582Y12108D1*
X31601Y12071D1*
X31655Y12034D1*
X31819D1*
Y12800D1*
X31371Y12035D2*
X31426Y12071D1*
X31463Y12181D1*
X31481Y12363D1*
Y12472D1*
X31463Y12654D1*
X31426Y12764D1*
X31371Y12800D1*
X31335D1*
X31280Y12764D1*
X31244Y12654D1*
X31226Y12472D1*
Y12363D1*
X31244Y12181D1*
X31280Y12071D1*
X31335Y12035D1*
X31371D1*
X31244Y12181D2*
X31463Y12654D1*
X31124Y12727D2*
X31142Y12764D1*
X31124Y12800D1*
X31106Y12764D1*
X31124Y12727D1*
X31022Y12181D2*
X30986Y12144D1*
X30931Y12035D1*
Y12800D1*
X30757Y12035D2*
X30811Y12071D1*
X30830Y12144D1*
Y12217D1*
X30811Y12290D1*
X30775Y12327D1*
X30702Y12363D1*
X30647Y12399D1*
X30611Y12472D1*
X30593Y12545D1*
Y12654D1*
X30611Y12727D1*
X30629Y12764D1*
X30684Y12800D1*
X30757D1*
X30811Y12764D1*
X30830Y12727D1*
X30848Y12654D1*
Y12545D1*
X30830Y12472D1*
X30793Y12399D1*
X30739Y12363D1*
X30666Y12327D1*
X30629Y12290D1*
X30611Y12217D1*
Y12144D1*
X30629Y12071D1*
X30684Y12035D1*
X30757D1*
X30296Y15773D2*
Y15937D1*
X30260Y15992D1*
X30223Y16010D1*
X30150Y16028D1*
X30041D1*
X29969Y16010D1*
X29931Y15992D1*
X29895Y15937D1*
Y15773D1*
X30661D1*
X29896Y16221D2*
X29932Y16166D1*
X30042Y16130D1*
X30224Y16112D1*
X30333D1*
X30515Y16130D1*
X30625Y16166D1*
X30661Y16221D1*
Y16257D1*
X30625Y16312D1*
X30515Y16348D1*
X30333Y16367D1*
X30224D1*
X30042Y16348D1*
X29932Y16312D1*
X29896Y16257D1*
Y16221D1*
X30042Y16348D2*
X30515Y16130D1*
X30588Y16468D2*
X30625Y16450D1*
X30661Y16468D1*
X30625Y16487D1*
X30588Y16468D1*
X30042Y16570D2*
X30005Y16607D1*
X29896Y16661D1*
X30661D1*
X30150Y16982D2*
X30260Y16963D1*
X30333Y16927D1*
X30369Y16872D1*
Y16854D1*
X30333Y16800D1*
X30260Y16763D1*
X30150Y16745D1*
X30114D1*
X30005Y16763D1*
X29932Y16800D1*
X29896Y16854D1*
Y16872D1*
X29932Y16927D1*
X30005Y16963D1*
X30150Y16982D1*
X30333D1*
X30515Y16963D1*
X30625Y16927D1*
X30661Y16872D1*
Y16836D1*
X30625Y16781D1*
X30551Y16763D1*
X30344Y17858D2*
Y18023D1*
X30307Y18077D1*
X30270Y18095D1*
X30198Y18113D1*
X30088D1*
X30016Y18095D1*
X29979Y18077D1*
X29943Y18023D1*
Y17858D1*
X30708D1*
X29943Y18306D2*
X29980Y18252D1*
X30089Y18215D1*
X30271Y18197D1*
X30381D1*
X30563Y18215D1*
X30672Y18252D1*
X30708Y18306D1*
Y18343D1*
X30672Y18397D1*
X30563Y18434D1*
X30381Y18452D1*
X30271D1*
X30089Y18434D1*
X29980Y18397D1*
X29943Y18343D1*
Y18306D1*
X30089Y18434D2*
X30563Y18215D1*
X30635Y18553D2*
X30672Y18535D1*
X30708Y18553D1*
X30672Y18572D1*
X30635Y18553D1*
X30125Y18674D2*
X30089D1*
X30016Y18692D1*
X29980Y18710D1*
X29943Y18747D1*
Y18820D1*
X29980Y18856D1*
X30016Y18874D1*
X30089Y18892D1*
X30162D1*
X30235Y18874D1*
X30344Y18838D1*
X30708Y18655D1*
Y18911D1*
X29943Y19103D2*
X29980Y19049D1*
X30089Y19012D1*
X30271Y18994D1*
X30381D1*
X30563Y19012D1*
X30672Y19049D1*
X30708Y19103D1*
Y19140D1*
X30672Y19194D1*
X30563Y19231D1*
X30381Y19249D1*
X30271D1*
X30089Y19231D1*
X29980Y19194D1*
X29943Y19140D1*
Y19103D1*
X30089Y19231D2*
X30563Y19012D1*
M02*
