G04 DipTrace 2.4.0.2*
%IN3dBBLE.gtp*%
%MOMM*%
%ADD23R,0.7X0.9*%
%ADD24R,0.9X0.7*%
%ADD25R,0.3X0.25*%
%ADD27R,0.85X0.65*%
%ADD28R,0.9X0.75*%
%ADD37R,0.75X0.9*%
%ADD38R,0.62X0.49*%
%ADD39R,0.56X0.57*%
%ADD40R,3.13X0.75*%
%ADD41R,1.0X2.4*%
%ADD43O,1.501X1.53*%
%ADD44O,1.44X1.414*%
%ADD45C,1.444*%
%ADD46O,1.429X1.429*%
%ADD51O,0.75X0.2*%
%ADD52O,0.2X0.75*%
%ADD55R,1.2X1.1*%
%ADD56R,0.762X1.397*%
%ADD57R,1.143X0.762*%
%FSLAX53Y53*%
G04*
G71*
G90*
G75*
G01*
%LNTopPaste*%
%LPD*%
G36*
X30540Y21270D2*
X29000D1*
Y22810D1*
X30540D1*
Y21270D1*
G37*
G36*
X32480D2*
X30940D1*
Y22810D1*
X32480D1*
Y21270D1*
G37*
G36*
Y23210D2*
X30940D1*
Y24750D1*
X32480D1*
Y23210D1*
G37*
G36*
X30540D2*
X29000D1*
Y24750D1*
X30540D1*
Y23210D1*
G37*
G36*
X25216Y17132D2*
X24966D1*
Y17682D1*
X25216D1*
Y17132D1*
G37*
G36*
X24716D2*
X24466D1*
Y17682D1*
X24716D1*
Y17132D1*
G37*
G36*
X24216D2*
X23966D1*
Y17682D1*
X24216D1*
Y17132D1*
G37*
G36*
Y16282D2*
X23966D1*
Y16832D1*
X24216D1*
Y16282D1*
G37*
G36*
X24716D2*
X24466D1*
Y16832D1*
X24716D1*
Y16282D1*
G37*
G36*
X25216D2*
X24966D1*
Y16832D1*
X25216D1*
Y16282D1*
G37*
G36*
X24610Y23996D2*
X25310D1*
Y23096D1*
X24610D1*
Y23996D1*
G37*
G36*
Y22696D2*
X25310D1*
Y21796D1*
X24610D1*
Y22696D1*
G37*
D23*
X20956Y22380D3*
Y23680D3*
X25329Y15451D3*
Y14151D3*
D24*
X16572Y24017D3*
X15272D3*
D23*
X14196Y21574D3*
Y22874D3*
D25*
X28542Y21737D3*
Y22287D3*
D24*
X15398Y20194D3*
X14098D3*
X19743Y21430D3*
X18443D3*
G36*
X23261Y19843D2*
X23961D1*
Y18943D1*
X23261D1*
Y19843D1*
G37*
G36*
Y21143D2*
X23961D1*
Y20243D1*
X23261D1*
Y21143D1*
G37*
D23*
X24467Y15335D3*
Y14035D3*
X15523Y13770D3*
Y15070D3*
X13624Y17738D3*
Y19038D3*
G36*
X27841Y21860D2*
Y21560D1*
X27591D1*
Y21860D1*
X27841D1*
G37*
G36*
X28391D2*
Y21560D1*
X28141D1*
Y21860D1*
X28391D1*
G37*
D27*
X19496Y23271D3*
Y24121D3*
X18046D3*
Y23271D3*
D28*
X14197Y13695D3*
Y15095D3*
D37*
X16059Y19027D3*
X14659D3*
D38*
X14697Y18110D3*
Y17250D3*
G36*
X24995Y20242D2*
X24295D1*
Y21142D1*
X24995D1*
Y20242D1*
G37*
G36*
Y18942D2*
X24295D1*
Y19842D1*
X24995D1*
Y18942D1*
G37*
D24*
X18161Y22349D3*
X19461D3*
D39*
X27506Y13963D3*
Y12803D3*
X30056D3*
Y13963D3*
D40*
X25178Y12743D3*
D41*
X26244Y13568D3*
D40*
X13850Y12743D3*
D41*
X12784Y13568D3*
D40*
X13850Y24993D3*
D41*
X12784Y24168D3*
D40*
X25178Y24993D3*
D41*
X26244Y24168D3*
D43*
X19920Y16610D3*
D44*
X18720Y17748D3*
D45*
X21118Y17763D3*
D46*
X21110Y15404D3*
X18729Y15374D3*
D51*
X16945Y18795D3*
Y18395D3*
Y17995D3*
Y17595D3*
Y17195D3*
Y16795D3*
Y16395D3*
Y15995D3*
Y15595D3*
Y15195D3*
Y14795D3*
Y14395D3*
D52*
X17720Y13620D3*
X18120D3*
X18520D3*
X18920D3*
X19320D3*
X19720D3*
X20120D3*
X20520D3*
X20920D3*
X21320D3*
X21720D3*
X22120D3*
D51*
X22895Y14395D3*
Y14795D3*
Y15195D3*
Y15595D3*
Y15995D3*
Y16395D3*
Y16795D3*
Y17195D3*
Y17595D3*
Y17995D3*
Y18395D3*
Y18795D3*
D52*
X22120Y19570D3*
X21720D3*
X21320D3*
X20920D3*
X20520D3*
X20120D3*
X19720D3*
X19320D3*
X18920D3*
X18520D3*
X18120D3*
X17720D3*
D55*
X23835Y23662D3*
X22134D3*
Y22262D3*
X23835D3*
G36*
X16198Y21462D2*
X15703Y20967D1*
X14713Y21957D1*
X15208Y22452D1*
X16198Y21462D1*
G37*
G36*
X17258Y22523D2*
X16763Y22028D1*
X15773Y23018D1*
X16268Y23513D1*
X17258Y22523D1*
G37*
D56*
X26745Y17962D3*
D57*
X20020Y25022D3*
G36*
X18491Y12911D2*
Y12301D1*
X17221D1*
Y13165D1*
X18237D1*
X18491Y12911D1*
G37*
G36*
X12869Y20096D2*
X13428D1*
Y21366D1*
X12488D1*
Y20426D1*
X12869Y20096D1*
G37*
M02*
