G04 DipTrace 2.4.0.2*
%IN3dBBLEnotune.gtp*%
%MOMM*%
%ADD22R,0.7X0.9*%
%ADD23R,1.0X1.1*%
%ADD24R,0.9X0.7*%
%ADD26R,0.85X0.65*%
%ADD27R,0.9X0.75*%
%ADD36R,0.75X0.9*%
%ADD37R,0.62X0.49*%
%ADD38R,0.56X0.57*%
%ADD39R,3.13X0.75*%
%ADD40R,1.0X2.4*%
%ADD42O,1.501X1.53*%
%ADD43O,1.44X1.414*%
%ADD44C,1.444*%
%ADD45O,1.429X1.429*%
%ADD50O,0.75X0.2*%
%ADD51O,0.2X0.75*%
%ADD53R,1.2X1.1*%
%ADD54R,0.7X1.4*%
%ADD56R,0.762X1.397*%
%ADD57R,1.143X0.762*%
%FSLAX53Y53*%
G04*
G71*
G90*
G75*
G01*
%LNTopPaste*%
%LPD*%
G36*
X30540Y21270D2*
X29000D1*
Y22810D1*
X30540D1*
Y21270D1*
G37*
G36*
X32480D2*
X30940D1*
Y22810D1*
X32480D1*
Y21270D1*
G37*
G36*
Y23210D2*
X30940D1*
Y24750D1*
X32480D1*
Y23210D1*
G37*
G36*
X30540D2*
X29000D1*
Y24750D1*
X30540D1*
Y23210D1*
G37*
G36*
X25216Y17132D2*
X24966D1*
Y17682D1*
X25216D1*
Y17132D1*
G37*
G36*
X24716D2*
X24466D1*
Y17682D1*
X24716D1*
Y17132D1*
G37*
G36*
X24216D2*
X23966D1*
Y17682D1*
X24216D1*
Y17132D1*
G37*
G36*
Y16282D2*
X23966D1*
Y16832D1*
X24216D1*
Y16282D1*
G37*
G36*
X24716D2*
X24466D1*
Y16832D1*
X24716D1*
Y16282D1*
G37*
G36*
X25216D2*
X24966D1*
Y16832D1*
X25216D1*
Y16282D1*
G37*
G36*
X24610Y23996D2*
X25310D1*
Y23096D1*
X24610D1*
Y23996D1*
G37*
G36*
Y22696D2*
X25310D1*
Y21796D1*
X24610D1*
Y22696D1*
G37*
D22*
X20956Y22380D3*
Y23680D3*
X25329Y15451D3*
Y14151D3*
X18950Y22928D3*
Y24228D3*
X17484Y22888D3*
Y24188D3*
D23*
X15967Y20151D3*
Y21851D3*
D24*
X21455Y21212D3*
X20155D3*
G36*
X23024Y19843D2*
X23724D1*
Y18943D1*
X23024D1*
Y19843D1*
G37*
G36*
Y21143D2*
X23724D1*
Y20243D1*
X23024D1*
Y21143D1*
G37*
D22*
X24467Y15335D3*
Y14035D3*
X15523Y13770D3*
Y15070D3*
D23*
X14678Y20194D3*
Y21894D3*
D26*
X14270Y23962D3*
Y23112D3*
X15720D3*
Y23962D3*
D27*
X14192Y13751D3*
Y15151D3*
D36*
X15988Y18911D3*
X14588D3*
D37*
X13675Y18977D3*
Y19837D3*
G36*
X24693Y20242D2*
X23993D1*
Y21142D1*
X24693D1*
Y20242D1*
G37*
G36*
Y18942D2*
X23993D1*
Y19842D1*
X24693D1*
Y18942D1*
G37*
D22*
X13575Y20735D3*
Y22035D3*
D38*
X27506Y13963D3*
Y12803D3*
X30056D3*
Y13963D3*
D39*
X25178Y12743D3*
D40*
X26244Y13568D3*
D39*
X13850Y12743D3*
D40*
X12784Y13568D3*
D39*
X13850Y24993D3*
D40*
X12784Y24168D3*
D39*
X25178Y24993D3*
D40*
X26244Y24168D3*
D42*
X19920Y16610D3*
D43*
X18720Y17748D3*
D44*
X21118Y17763D3*
D45*
X21110Y15404D3*
X18729Y15374D3*
D50*
X16945Y18795D3*
Y18395D3*
Y17995D3*
Y17595D3*
Y17195D3*
Y16795D3*
Y16395D3*
Y15995D3*
Y15595D3*
Y15195D3*
Y14795D3*
Y14395D3*
D51*
X17720Y13620D3*
X18120D3*
X18520D3*
X18920D3*
X19320D3*
X19720D3*
X20120D3*
X20520D3*
X20920D3*
X21320D3*
X21720D3*
X22120D3*
D50*
X22895Y14395D3*
Y14795D3*
Y15195D3*
Y15595D3*
Y15995D3*
Y16395D3*
Y16795D3*
Y17195D3*
Y17595D3*
Y17995D3*
Y18395D3*
Y18795D3*
D51*
X22120Y19570D3*
X21720D3*
X21320D3*
X20920D3*
X20520D3*
X20120D3*
X19720D3*
X19320D3*
X18920D3*
X18520D3*
X18120D3*
X17720D3*
D53*
X23835Y23662D3*
X22134D3*
Y22262D3*
X23835D3*
D54*
X17416Y21590D3*
X18916D3*
D56*
X26745Y17962D3*
D57*
X20020Y25022D3*
G36*
X18491Y12911D2*
Y12301D1*
X17221D1*
Y13165D1*
X18237D1*
X18491Y12911D1*
G37*
G36*
X12823Y17635D2*
X12264D1*
Y16365D1*
X13204D1*
Y17305D1*
X12823Y17635D1*
G37*
M02*
