G04 DipTrace 2.4.0.2*
%IN3dBBLE.gtl*%
%MOMM*%
%ADD10C,0.25*%
%ADD13C,0.381*%
%ADD14C,0.203*%
%ADD15C,0.178*%
%ADD16C,0.334*%
%ADD18C,0.127*%
%ADD21R,0.7X0.9*%
%ADD22R,1.0X1.1*%
%ADD23R,0.9X0.7*%
%ADD24R,0.9X0.75*%
%ADD25R,1.7X1.6*%
%ADD27R,1.7X2.032*%
%ADD29R,1.7X2.0*%
%ADD30R,1.6X1.7*%
%ADD31R,2.0X1.7*%
%ADD32R,2.032X1.7*%
%ADD33R,0.75X0.9*%
%ADD34R,0.62X0.49*%
%ADD35R,3.13X0.75*%
%ADD36R,1.0X2.4*%
%ADD39O,0.65X0.2*%
%ADD40O,0.2X0.65*%
%ADD41R,4.7X4.7*%
%ADD42C,0.711*%
%ADD45R,1.2X1.1*%
%ADD46R,0.56X0.57*%
%ADD48R,0.85X0.65*%
%ADD49R,0.7X1.4*%
%ADD51C,0.457*%
%FSLAX53Y53*%
G04*
G71*
G90*
G75*
G01*
%LNTop*%
%LPD*%
X13665Y19619D2*
D13*
Y19666D1*
X13885D1*
X14047Y19828D1*
X14820D1*
Y20064D1*
X14958Y20203D1*
X22953Y18803D2*
D14*
Y18403D1*
Y18803D2*
D13*
Y19164D1*
Y20540D1*
X23432Y21019D1*
X15419Y20879D2*
X15285Y20744D1*
Y19828D1*
X14820D1*
X22999Y19164D2*
X22953D1*
X18928Y19628D2*
D14*
Y19878D1*
D15*
X18862Y19944D1*
Y20107D1*
X18487Y20482D1*
D14*
Y21337D1*
X18951Y21801D1*
Y23619D1*
X19169D1*
X19806D1*
X20064Y23877D1*
X17669Y23619D2*
Y22376D1*
X17555Y22262D1*
X18528Y19628D2*
Y19991D1*
D15*
X18137Y20382D1*
D14*
Y23151D1*
X17669Y23619D1*
X25386Y17415D2*
D10*
X25440D1*
D16*
G03X26076Y19507I-7177J3326D01*
G01*
G02X28323Y21789I2848J-557D01*
G01*
X28742Y22336D1*
D14*
Y21473D1*
X29052Y21162D1*
X30746D1*
X22953Y16803D2*
X24148D1*
X24386Y16565D1*
X22953Y17203D2*
X24173D1*
X24386Y17415D1*
X18128Y19628D2*
Y19915D1*
X17847Y20196D1*
X17233D1*
X17193Y20156D1*
X14591Y23120D2*
X15103D1*
X15181Y23042D1*
X16903Y18403D2*
X16599D1*
X16083Y18919D1*
X15996D1*
X14596D2*
Y18775D1*
X13681D1*
X13665Y18759D1*
X21328Y19628D2*
X21354D1*
Y21133D1*
X21181Y21305D1*
X24351Y15297D2*
Y15424D1*
X23699Y16030D1*
X23401Y16055D1*
X22953Y16003D1*
X17728Y19628D2*
X17401D1*
Y19526D1*
X16635Y23130D2*
X16050D1*
X16041Y23120D1*
X22953Y14403D2*
X22438D1*
D13*
X22128D1*
X19928Y16603D1*
X24351Y13997D2*
X24801D1*
X25233D1*
X25248Y14012D1*
X24810Y13887D2*
X24801Y13997D1*
X19728Y13578D2*
D14*
X19531D1*
X19328D1*
X19531D2*
D13*
Y16205D1*
X19928Y16603D1*
X20528Y13578D2*
D14*
Y14093D1*
D13*
Y16003D1*
X19928Y16603D1*
X18528Y13578D2*
D14*
Y14093D1*
D13*
Y15203D1*
X19928Y16603D1*
X17728Y13578D2*
D14*
Y14093D1*
D13*
Y14403D1*
X19928Y16603D1*
X18128Y14803D2*
X19928Y16603D1*
X22953Y17603D2*
D14*
Y17809D1*
Y17839D1*
Y18003D1*
Y17839D2*
D13*
X21164D1*
X19928Y16603D1*
X14958Y21903D2*
Y21948D1*
X15630D1*
X15908D1*
Y21903D1*
X16259D1*
Y21924D1*
X20993Y23682D2*
X21457D1*
X22052D1*
X22179Y23809D1*
X25115Y22329D2*
X23959D1*
X23879Y22409D1*
X24732Y21019D2*
Y20307D1*
X24374Y19949D1*
X25161Y25001D2*
X25262D1*
X25718Y24545D1*
X13833Y25001D2*
Y24826D1*
X13625Y24618D1*
X13833Y12751D2*
X12605D1*
X12289Y13068D1*
X25161Y12751D2*
X26136D1*
Y14942D1*
X26105Y14911D1*
X29311Y19022D2*
Y19085D1*
X28987Y19408D1*
X24623Y20535D2*
X24774D1*
Y21081D1*
X24732D1*
Y21019D1*
X15630Y21922D2*
Y21948D1*
X24886Y17415D2*
D10*
Y17878D1*
D13*
X24892Y17884D1*
X25386Y16565D2*
D10*
X25779D1*
D13*
X26176Y16963D1*
X25115Y22329D2*
X24587D1*
X24586Y22327D1*
X25718Y24545D2*
X25858D1*
X26227Y24176D1*
X12767D2*
X13183D1*
X13625Y24618D1*
X26227Y13576D2*
Y14789D1*
X26105Y14911D1*
X12289Y13068D2*
Y13098D1*
X12767Y13576D1*
X10008Y13818D2*
X11278D1*
X15531Y15078D2*
Y14892D1*
D14*
Y15048D1*
X14795Y15784D1*
X13675D1*
X12965Y15073D1*
D13*
X12202D1*
X11278Y14149D1*
Y13818D1*
X20035Y21745D2*
X19738Y21448D1*
X19881Y21305D1*
X25161Y12751D2*
X25402D1*
X26227Y13576D1*
X16903Y14803D2*
D14*
X16608D1*
X16454Y14649D1*
X15976D1*
X15653Y14972D1*
Y15196D1*
X15534Y15078D1*
X15531D1*
X22953Y17809D2*
X23365D1*
X23514Y17958D1*
X24818D1*
X24892Y17884D1*
X26105Y14911D2*
D13*
Y13602D1*
X26896Y12811D1*
X27514D1*
X21457Y23696D2*
Y23682D1*
X20064Y21745D2*
X20035D1*
X17555Y20962D2*
X17221D1*
X16874Y21309D1*
X16265Y21918D1*
X24732Y21019D2*
Y21556D1*
X23879Y22409D1*
X13621Y20658D2*
X14578Y21615D1*
X14671D1*
X14958Y21903D1*
X16874Y21309D2*
X17042D1*
X17180Y21447D1*
X20064Y22577D2*
X19700D1*
X19584Y22462D1*
X14591Y23970D2*
D14*
X13889D1*
X13585Y23666D1*
Y21994D1*
X13621Y21958D1*
X28742Y24276D2*
X30682D1*
Y22336D1*
X16903Y17603D2*
X16016D1*
X15865Y17754D1*
X16358Y26518D2*
Y27788D1*
X16903Y17203D2*
X15755D1*
X15199Y17759D1*
X13818Y26518D2*
Y27788D1*
X16903Y16803D2*
X16658D1*
X16593Y16868D1*
X15620D1*
X15284Y17204D1*
X13417D1*
X12723Y17897D1*
Y21996D1*
X11953Y22767D1*
Y23303D1*
X11278Y23978D1*
X10008D2*
X11278D1*
X16903Y16403D2*
X16574D1*
X16440Y16537D1*
X15465D1*
X15141Y16860D1*
X13279D1*
X12380Y17760D1*
Y19791D1*
X11278Y20893D1*
Y21438D1*
X10008D2*
X11278D1*
X16903Y16003D2*
X16309D1*
X16125Y16187D1*
X15337D1*
X15030Y16494D1*
X13119D1*
X10715Y18898D1*
X11278D1*
X10008D2*
X11278D1*
X10008Y16358D2*
X11278D1*
X16903Y15603D2*
X16160D1*
X15915Y15847D1*
X15208D1*
X14928Y16127D1*
X11047D1*
X11278Y16358D1*
X16903Y15203D2*
X16252D1*
Y15127D1*
X16358Y10008D2*
Y11278D1*
X18128Y13578D2*
Y12963D1*
X18485Y12606D1*
Y11691D1*
X18898Y11278D1*
X18928Y13578D2*
Y12968D1*
X19578Y12318D1*
X20398D1*
X21438Y11278D1*
X20128Y13578D2*
Y13197D1*
X19828Y12898D1*
X20928Y13578D2*
Y13287D1*
X20537Y12896D1*
X20495D1*
X21328Y13578D2*
Y13040D1*
X21765Y12603D1*
X22653D1*
X23978Y11278D1*
X22953Y14803D2*
X23195Y14760D1*
X23377Y14672D1*
X23643Y14443D1*
X32766Y13720D2*
X31496D1*
X23646Y15042D2*
X23490D1*
X23415Y15117D1*
X23135Y15192D1*
X23253Y15157D1*
X22953Y15203D1*
X32766Y16260D2*
X31496D1*
X22953Y15603D2*
X23444Y15591D1*
X26750Y15483D2*
Y15300D1*
X26956Y15094D1*
Y13637D1*
X27166Y13427D1*
X28453D1*
X30433Y15407D1*
Y17736D1*
X31496Y18800D1*
X32766D2*
X31496D1*
X29058Y26518D2*
Y27788D1*
X20928Y19628D2*
Y20122D1*
X20894Y20156D1*
X26518Y26518D2*
Y27788D1*
X20528Y19628D2*
D15*
Y19869D1*
X20448Y19949D1*
Y20537D1*
X20552Y20641D1*
X23978Y26518D2*
D14*
Y27788D1*
X20128Y19628D2*
Y19852D1*
X20080Y19900D1*
Y20346D1*
X19988D1*
X21438Y26518D2*
Y27788D1*
X19728Y19628D2*
D15*
Y19976D1*
X19532Y20173D1*
Y20499D1*
X19432Y20598D1*
X18898Y26518D2*
D14*
Y27788D1*
X19328Y19628D2*
D15*
Y19894D1*
X19220Y20002D1*
Y20182D1*
X18970Y20432D1*
Y21032D1*
X18950Y21052D1*
X16903Y18003D2*
D14*
X16454D1*
X16241Y18216D1*
X14714D1*
X14569Y18072D1*
X16618Y23986D2*
X16057D1*
X16041Y23970D1*
X22128Y13578D2*
X22401D1*
X22712Y13888D1*
X24374Y18649D2*
X23974D1*
X23848Y18523D1*
X28041Y17752D2*
Y17661D1*
X27724Y17344D1*
X21728Y13578D2*
Y13282D1*
X21994Y13015D1*
X23112D1*
X23441Y13344D1*
Y13884D1*
X28041Y16482D2*
X27822D1*
X27568Y16228D1*
X29311Y17752D2*
Y17908D1*
X29586Y18184D1*
X27568Y16228D2*
Y15191D1*
X28401Y14358D1*
X28837D1*
X30080Y15600D1*
Y17536D1*
X29586Y18030D1*
Y18184D1*
X27514Y13971D2*
Y15191D1*
X27568D1*
X14200Y15159D2*
D13*
X14077Y15036D1*
Y14628D1*
X29311Y16482D2*
Y16644D1*
X29597Y16931D1*
X16903Y18803D2*
D14*
Y19292D1*
D13*
X15977Y20218D1*
X16265D1*
X16895Y19192D2*
X16903Y19292D1*
X15032Y13801D2*
X15055Y13778D1*
X15531D1*
X16903Y14403D2*
D14*
Y14037D1*
X16548Y13682D1*
X14277D1*
X14200Y13759D1*
X15032Y13801D2*
D13*
X14713D1*
X14642Y13730D1*
X14229D1*
X14200Y13759D1*
X22953Y16403D2*
D14*
X23821Y16371D1*
X24161Y16066D1*
X24737Y16026D1*
X24886Y16174D1*
Y16565D1*
X24737Y16026D2*
X24930D1*
X25327Y15628D1*
Y15312D1*
X25248D1*
X25115Y23629D2*
X24059D1*
X23879Y23809D1*
X22128Y19628D2*
Y19883D1*
X22506Y20260D1*
Y21257D1*
X23032Y21784D1*
Y23542D1*
X23299Y23809D1*
X23879D1*
X20993Y22382D2*
X22152D1*
X22179Y22409D1*
X21728Y19628D2*
Y20038D1*
X22060Y20370D1*
Y22290D1*
X22179Y22409D1*
D51*
X23444Y15591D3*
X23646Y15042D3*
X23643Y14443D3*
X22712Y13888D3*
X23441Y13884D3*
X17193Y20156D3*
X20495Y12896D3*
X24810Y13887D3*
X13625Y24618D3*
X12289Y13068D3*
X26105Y14911D3*
X25718Y24545D3*
X16252Y15127D3*
X14077Y14628D3*
X17401Y19526D3*
X16895Y19192D3*
X15865Y17754D3*
X15199Y17759D3*
X15419Y20879D3*
X22999Y19164D3*
X23848Y18523D3*
X27724Y17344D3*
X27568Y16228D3*
X29586Y18184D3*
X26750Y15483D3*
X29597Y16931D3*
X28987Y19408D3*
X24623Y20535D3*
X21457Y23696D3*
X15032Y13801D3*
X15630Y21922D3*
X18950Y21052D3*
X19432Y20598D3*
X26176Y16963D3*
X20894Y20156D3*
X20552Y20641D3*
X19988Y20346D3*
X24892Y17884D3*
X24586Y22327D3*
X14569Y18072D3*
X15181Y23042D3*
X17180Y21447D3*
X27338Y23854D3*
X19584Y22462D3*
X16635Y23130D3*
X16618Y23986D3*
X22623Y24928D3*
X20035Y21745D3*
X26877Y17895D3*
X19828Y12898D3*
X26948Y19405D3*
X30695Y20268D3*
X26575Y21642D3*
X25418Y19660D3*
X31970Y22210D3*
Y24035D3*
X28548Y20129D3*
X31035Y25472D3*
X27769D3*
X13590Y18006D3*
X17258Y13164D3*
X27575Y26909D2*
D18*
X28000D1*
X27575Y26786D2*
X28000D1*
X27575Y26662D2*
X28000D1*
X27575Y26538D2*
X28000D1*
X27575Y26415D2*
X28000D1*
X30115D2*
X30255D1*
X27575Y26291D2*
X28000D1*
X30115D2*
X30386D1*
X27575Y26167D2*
X28000D1*
X30115D2*
X30515D1*
X27575Y26044D2*
X28000D1*
X30115D2*
X30646D1*
X27575Y25920D2*
X28000D1*
X30115D2*
X30777D1*
X27575Y25796D2*
X28000D1*
X30115D2*
X30908D1*
X27575Y25673D2*
X28000D1*
X30115D2*
X31039D1*
X27575Y25549D2*
X28000D1*
X30115D2*
X31170D1*
X27036Y25425D2*
X31301D1*
X27034Y25302D2*
X31429D1*
X27034Y25178D2*
X27814D1*
X29669D2*
X29754D1*
X27034Y25054D2*
X27764D1*
X27032Y24931D2*
X27764D1*
X31659D2*
X31822D1*
X27032Y24807D2*
X27764D1*
X31659D2*
X31953D1*
X27032Y24683D2*
X27764D1*
X31659D2*
X32084D1*
X27030Y24560D2*
X27764D1*
X31659D2*
X32144D1*
X27030Y24436D2*
X27764D1*
X31659D2*
X32146D1*
X27030Y24312D2*
X27764D1*
X31659D2*
X32146D1*
X27028Y24189D2*
X27764D1*
X31659D2*
X32146D1*
X27028Y24065D2*
X27764D1*
X31659D2*
X32146D1*
X27028Y23941D2*
X27764D1*
X31659D2*
X32146D1*
X27026Y23818D2*
X27764D1*
X31659D2*
X32146D1*
X27026Y23694D2*
X27764D1*
X31659D2*
X32146D1*
X27026Y23570D2*
X27764D1*
X31659D2*
X32146D1*
X27024Y23447D2*
X27772D1*
X31649D2*
X32146D1*
X27024Y23323D2*
X27891D1*
X29592D2*
X29832D1*
X31532D2*
X32146D1*
X27024Y23199D2*
X27788D1*
X31635D2*
X32146D1*
X27022Y23076D2*
X27764D1*
X31659D2*
X32146D1*
X27022Y22952D2*
X27764D1*
X31659D2*
X32146D1*
X26996Y22828D2*
X27764D1*
X31659D2*
X32146D1*
X26216Y22705D2*
X27764D1*
X31659D2*
X32146D1*
X26216Y22581D2*
X27764D1*
X31659D2*
X32146D1*
X26216Y22457D2*
X27764D1*
X31659D2*
X32146D1*
X26216Y22334D2*
X27764D1*
X31659D2*
X32146D1*
X26216Y22210D2*
X27764D1*
X31659D2*
X32146D1*
X26216Y22086D2*
X27764D1*
X31659D2*
X32146D1*
X26216Y21963D2*
X27671D1*
X31659D2*
X32146D1*
X26216Y21839D2*
X27397D1*
X31659D2*
X32146D1*
X26216Y21715D2*
X27187D1*
X31659D2*
X32146D1*
X26216Y21592D2*
X27000D1*
X31659D2*
X32148D1*
X26216Y21468D2*
X26842D1*
X31633D2*
X32148D1*
X26214Y21344D2*
X26697D1*
X28093D2*
X28171D1*
X31312D2*
X32148D1*
X26137Y21221D2*
X26576D1*
X27804D2*
X28268D1*
X31312D2*
X32148D1*
X26051Y21097D2*
X26453D1*
X27589D2*
X28383D1*
X31312D2*
X32148D1*
X25966Y20973D2*
X26357D1*
X27411D2*
X28501D1*
X31312D2*
X32148D1*
X25879Y20850D2*
X26264D1*
X28044D2*
X28616D1*
X31312D2*
X32148D1*
X25793Y20726D2*
X26173D1*
X28183D2*
X28733D1*
X31294D2*
X32148D1*
X25708Y20602D2*
X26103D1*
X28266D2*
X29086D1*
X30298D2*
X32148D1*
X25621Y20479D2*
X26032D1*
X26917D2*
X27004D1*
X28316D2*
X29036D1*
X30348D2*
X32148D1*
X25536Y20355D2*
X25967D1*
X26823D2*
X26981D1*
X28339D2*
X29013D1*
X30371D2*
X32148D1*
X25450Y20231D2*
X25915D1*
X26752D2*
X26981D1*
X28339D2*
X29013D1*
X30371D2*
X32148D1*
X25365Y20108D2*
X25865D1*
X26680D2*
X27002D1*
X28318D2*
X29034D1*
X30350D2*
X32148D1*
X25278Y19984D2*
X25816D1*
X26623D2*
X27052D1*
X28268D2*
X29084D1*
X30300D2*
X32148D1*
X25192Y19860D2*
X25782D1*
X26571D2*
X27133D1*
X28187D2*
X29165D1*
X30219D2*
X32148D1*
X25107Y19737D2*
X25750D1*
X26524D2*
X27270D1*
X28048D2*
X28780D1*
X29222D2*
X29302D1*
X30080D2*
X30489D1*
X25020Y19613D2*
X25716D1*
X26492D2*
X28655D1*
X29407D2*
X30489D1*
X24934Y19489D2*
X25693D1*
X26458D2*
X27673D1*
X28409D2*
X28530D1*
X29594D2*
X30489D1*
X24849Y19366D2*
X25669D1*
X26430D2*
X27552D1*
X29778D2*
X30489D1*
X24869Y19242D2*
X25645D1*
X26409D2*
X27483D1*
X29842D2*
X30489D1*
X24930Y19118D2*
X25621D1*
X26385D2*
X27447D1*
X29887D2*
X30489D1*
X24932Y18995D2*
X25589D1*
X26361D2*
X27441D1*
X29931D2*
X30489D1*
X24932Y18871D2*
X25560D1*
X26331D2*
X27461D1*
X24932Y18747D2*
X25530D1*
X26301D2*
X27508D1*
X24932Y18624D2*
X25492D1*
X26272D2*
X27596D1*
X24932Y18500D2*
X25455D1*
X26238D2*
X27534D1*
X24932Y18376D2*
X25417D1*
X26200D2*
X27510D1*
X24932Y18253D2*
X25373D1*
X26163D2*
X27506D1*
X24918Y18129D2*
X25330D1*
X26125D2*
X27504D1*
X23902Y18005D2*
X23983D1*
X24764D2*
X25284D1*
X26081D2*
X27498D1*
X23817Y17882D2*
X24210D1*
X24561D2*
X25210D1*
X26036D2*
X27455D1*
X23732Y17758D2*
X24065D1*
X24706D2*
X25066D1*
X25990D2*
X27439D1*
X23644Y17634D2*
X24054D1*
X24718D2*
X25054D1*
X25942D2*
X27403D1*
X23559Y17511D2*
X24050D1*
X24718D2*
X25054D1*
X25889D2*
X27322D1*
X24718Y17387D2*
X25054D1*
X25835D2*
X27290D1*
X24718Y17263D2*
X25054D1*
X25782D2*
X27294D1*
X24718Y17140D2*
X25054D1*
X25718D2*
X27340D1*
X25674Y17016D2*
X27443D1*
X25212Y16892D2*
X27475D1*
X25218Y16769D2*
X27471D1*
X25218Y16645D2*
X27465D1*
X25218Y16521D2*
X27250D1*
X28035Y23302D2*
X29512D1*
X29574Y23292D1*
X29630Y23262D1*
X29673Y23216D1*
X29700Y23159D1*
X29706Y23094D1*
X29716Y23090D1*
X29726Y23169D1*
X29756Y23225D1*
X29802Y23268D1*
X29859Y23295D1*
X29924Y23301D1*
X29928Y23311D1*
X29849Y23321D1*
X29793Y23351D1*
X29750Y23396D1*
X29723Y23454D1*
X29717Y23519D1*
X29707Y23522D1*
X29697Y23444D1*
X29667Y23388D1*
X29621Y23345D1*
X29564Y23318D1*
X29512Y23311D1*
X27988D1*
X27005Y20612D2*
X26806Y20349D1*
X26643Y20063D1*
X26518Y19758D1*
X26431Y19431D1*
X26348Y18990D1*
X26239Y18544D1*
X26105Y18106D1*
X25946Y17675D1*
X25773Y17272D1*
X25743Y17216D1*
X25705Y17168D1*
X25706Y17140D1*
X25696Y17078D1*
X25667Y17022D1*
X25621Y16978D1*
X25563Y16952D1*
X25511Y16945D1*
X25261D1*
X25198Y16955D1*
X25143Y16984D1*
X25099Y17030D1*
X25072Y17088D1*
X25065Y17140D1*
Y17690D1*
X25075Y17753D1*
X25105Y17809D1*
X25151Y17852D1*
X25222Y17882D1*
X25257Y17909D1*
X25316Y18062D1*
X25436Y18397D1*
X25555Y18798D1*
X25651Y19205D1*
X25726Y19600D1*
X25819Y19952D1*
X25861Y20068D1*
X26000Y20400D1*
X26180Y20716D1*
X26251Y20817D1*
X26470Y21102D1*
X26726Y21361D1*
X26820Y21441D1*
X27106Y21660D1*
X27419Y21845D1*
X27530Y21898D1*
X27776Y22001D1*
Y23106D1*
X27786Y23169D1*
X27816Y23225D1*
X27862Y23268D1*
X27919Y23295D1*
X27984Y23301D1*
X27988Y23311D1*
X27909Y23321D1*
X27853Y23351D1*
X27810Y23396D1*
X27783Y23454D1*
X27776Y23506D1*
Y25046D1*
X27786Y25109D1*
X27816Y25165D1*
X27862Y25208D1*
X27919Y25235D1*
X27972Y25242D1*
X29512D1*
X29574Y25232D1*
X29630Y25202D1*
X29673Y25156D1*
X29700Y25099D1*
X29706Y25034D1*
X29716Y25030D1*
X29726Y25109D1*
X29756Y25165D1*
X29802Y25208D1*
X29859Y25235D1*
X29912Y25242D1*
X31452D1*
X31516Y25231D1*
X31209Y25524D1*
X30103Y26570D1*
X30104Y25522D1*
X28012D1*
Y27023D1*
X27562Y27019D1*
X27564Y26879D1*
Y25522D1*
X27022D1*
X27021Y25128D1*
X27009Y22884D1*
X26978Y22831D1*
X26946Y22821D1*
X26203D1*
X26202Y21351D1*
X26192Y21317D1*
X24780Y19285D1*
X24842Y19255D1*
X24886Y19209D1*
X24912Y19152D1*
X24919Y19099D1*
Y18199D1*
X24909Y18137D1*
X24880Y18081D1*
X24834Y18037D1*
X24776Y18011D1*
X24724Y18003D1*
X24024D1*
X23950Y18018D1*
X23909Y18031D1*
X23539Y17499D1*
X24050Y17500D1*
X24066Y17515D1*
X24065Y17690D1*
X24075Y17753D1*
X24105Y17809D1*
X24151Y17852D1*
X24208Y17879D1*
X24261Y17886D1*
X24511D1*
X24573Y17876D1*
X24629Y17846D1*
X24673Y17800D1*
X24699Y17743D1*
X24706Y17690D1*
Y17140D1*
X24696Y17078D1*
X24659Y17013D1*
X24660Y17008D1*
X24718Y17031D1*
X24824Y17036D1*
X25011D1*
X25073Y17026D1*
X25129Y16996D1*
X25173Y16950D1*
X25199Y16893D1*
X25206Y16840D1*
Y16441D1*
X26474Y16453D1*
X27214Y16460D1*
X27258Y16518D1*
X27305Y16561D1*
X27357Y16596D1*
X27415Y16623D1*
X27476Y16645D1*
X27483Y16668D1*
X27490Y16990D1*
X27412Y17056D1*
X27373Y17105D1*
X27341Y17160D1*
X27318Y17219D1*
X27304Y17281D1*
X27300Y17345D1*
X27304Y17408D1*
X27319Y17470D1*
X27342Y17529D1*
X27374Y17584D1*
X27414Y17633D1*
X27459Y17675D1*
X27452Y17769D1*
X27464Y17871D1*
X27494Y17969D1*
X27514Y18012D1*
X27525Y18454D1*
X27543Y18496D1*
X27640Y18593D1*
X27579Y18656D1*
X27523Y18742D1*
X27482Y18836D1*
X27458Y18936D1*
X27452Y19039D1*
X27464Y19141D1*
X27494Y19239D1*
X27540Y19331D1*
X27601Y19413D1*
X27676Y19483D1*
X27761Y19540D1*
X27856Y19580D1*
X27956Y19604D1*
X28058Y19610D1*
X28160Y19598D1*
X28258Y19569D1*
X28350Y19523D1*
X28432Y19461D1*
X28474Y19420D1*
X28796Y19738D1*
X28838Y19756D1*
X29154Y19761D1*
X29189Y19751D1*
X29773Y19361D1*
X29796Y19331D1*
X29921Y18990D1*
X30257Y18993D1*
X30501Y18994D1*
Y19845D1*
X32160D1*
Y21096D1*
X32157Y24626D1*
X31631Y25124D1*
X31640Y25099D1*
X31647Y25046D1*
Y23506D1*
X31637Y23444D1*
X31607Y23388D1*
X31561Y23345D1*
X31504Y23318D1*
X31439Y23311D1*
X31436Y23302D1*
X31514Y23292D1*
X31570Y23262D1*
X31613Y23216D1*
X31640Y23159D1*
X31647Y23106D1*
Y21566D1*
X31637Y21504D1*
X31607Y21448D1*
X31561Y21405D1*
X31504Y21378D1*
X31452Y21371D1*
X31299D1*
X31300Y20909D1*
Y20808D1*
X31290Y20746D1*
X31260Y20690D1*
X31214Y20646D1*
X31157Y20620D1*
X31105Y20613D1*
X30281Y20612D1*
X30329Y20501D1*
X30357Y20377D1*
X30362Y20292D1*
X30350Y20165D1*
X30315Y20044D1*
X30257Y19931D1*
X30179Y19831D1*
X30084Y19747D1*
X29974Y19683D1*
X29855Y19641D1*
X29729Y19622D1*
X29602Y19627D1*
X29479Y19656D1*
X29363Y19707D1*
X29259Y19780D1*
X29170Y19870D1*
X29100Y19976D1*
X29051Y20093D1*
X29025Y20217D1*
X29023Y20344D1*
X29045Y20469D1*
X29090Y20587D1*
X29103Y20610D1*
X28939D1*
X28876Y20620D1*
X28828Y20644D1*
X28752Y20718D1*
X28222Y21283D1*
X28186Y21338D1*
X28196Y21318D1*
X28116Y21354D1*
X28045Y21329D1*
X27775Y21214D1*
X27492Y21046D1*
X27232Y20843D1*
X27259Y20829D1*
X27368Y20895D1*
X27486Y20939D1*
X27611Y20960D1*
X27738Y20958D1*
X27862Y20931D1*
X27979Y20881D1*
X28084Y20811D1*
X28174Y20722D1*
X28246Y20617D1*
X28297Y20501D1*
X28325Y20377D1*
X28330Y20292D1*
X28318Y20165D1*
X28283Y20044D1*
X28225Y19931D1*
X28147Y19831D1*
X28052Y19747D1*
X27942Y19683D1*
X27823Y19641D1*
X27697Y19622D1*
X27570Y19627D1*
X27447Y19656D1*
X27331Y19707D1*
X27227Y19780D1*
X27138Y19870D1*
X27068Y19976D1*
X27019Y20093D1*
X26993Y20217D1*
X26991Y20344D1*
X27013Y20469D1*
X27058Y20587D1*
X27125Y20695D1*
X27210Y20789D1*
X27259Y20829D1*
X27236Y20846D1*
X27002Y20608D1*
G36*
X29512Y21566D2*
X27972D1*
Y23106D1*
X29512D1*
Y21566D1*
G37*
G36*
X31452D2*
X29912D1*
Y23106D1*
X31452D1*
Y21566D1*
G37*
G36*
Y23506D2*
X29912D1*
Y25046D1*
X31452D1*
Y23506D1*
G37*
G36*
X29512D2*
X27972D1*
Y25046D1*
X29512D1*
Y23506D1*
G37*
G36*
X25511Y17140D2*
X25261D1*
Y17690D1*
X25511D1*
Y17140D1*
G37*
G36*
X25011D2*
X24761D1*
Y17690D1*
X25011D1*
Y17140D1*
G37*
G36*
X24511D2*
X24261D1*
Y17690D1*
X24511D1*
Y17140D1*
G37*
G36*
Y16290D2*
X24261D1*
Y16840D1*
X24511D1*
Y16290D1*
G37*
G36*
X25011D2*
X24761D1*
Y16840D1*
X25011D1*
Y16290D1*
G37*
G36*
X25511D2*
X25261D1*
Y16840D1*
X25511D1*
Y16290D1*
G37*
G36*
X24765Y24079D2*
X25465D1*
Y23179D1*
X24765D1*
Y24079D1*
G37*
G36*
Y22779D2*
X25465D1*
Y21879D1*
X24765D1*
Y22779D1*
G37*
D21*
X20993Y22382D3*
Y23682D3*
X25248Y15312D3*
Y14012D3*
D22*
X16265Y20218D3*
Y21918D3*
D23*
X21181Y21305D3*
X19881D3*
G36*
X23882Y21369D2*
Y20669D1*
X22982D1*
Y21369D1*
X23882D1*
G37*
G36*
X25182D2*
Y20669D1*
X24282D1*
Y21369D1*
X25182D1*
G37*
D21*
X24351Y15297D3*
Y13997D3*
X15531Y13778D3*
Y15078D3*
D22*
X14958Y20203D3*
Y21903D3*
D24*
X14200Y13759D3*
Y15159D3*
D25*
X29058Y26518D3*
X26518D3*
X23978D3*
X21438D3*
X18898D3*
D27*
X29058Y27788D3*
X26518D3*
X23978D3*
X21438D3*
X18898D3*
D25*
Y11278D3*
D29*
Y10008D3*
D30*
X11278Y16358D3*
D31*
X10008D3*
D25*
X16358Y11278D3*
D29*
Y10008D3*
D25*
Y26518D3*
D29*
Y27788D3*
D25*
X13818Y26518D3*
D29*
Y27788D3*
D30*
X11278Y23978D3*
D31*
X10008D3*
D30*
X11278Y21438D3*
D31*
X10008D3*
D30*
X11278Y18898D3*
D31*
X10008D3*
D30*
X31496Y13720D3*
Y16260D3*
Y18800D3*
D32*
X32766Y13720D3*
Y16260D3*
Y18800D3*
D25*
X21438Y11278D3*
D29*
Y10008D3*
D33*
X15996Y18919D3*
X14596D3*
D34*
X13665Y18759D3*
Y19619D3*
G36*
X24724Y19499D2*
X24024D1*
Y20399D1*
X24724D1*
Y19499D1*
G37*
G36*
Y18199D2*
X24024D1*
Y19099D1*
X24724D1*
Y18199D1*
G37*
D35*
X25161Y12751D3*
D36*
X26227Y13576D3*
D35*
X13833Y12751D3*
D36*
X12767Y13576D3*
D35*
X13833Y25001D3*
D36*
X12767Y24176D3*
D35*
X25161Y25001D3*
D36*
X26227Y24176D3*
G36*
X28041Y16875D2*
X27973Y16869D1*
X27906Y16852D1*
X27844Y16823D1*
X27788Y16783D1*
X27739Y16735D1*
X27700Y16678D1*
X27671Y16616D1*
X27653Y16550D1*
X27647Y16482D1*
D1*
X27653Y16413D1*
X27671Y16347D1*
X27700Y16285D1*
X27739Y16229D1*
X27788Y16180D1*
X27844Y16141D1*
X27906Y16112D1*
X27973Y16094D1*
X28041Y16088D1*
D1*
X28109Y16094D1*
X28176Y16112D1*
X28238Y16141D1*
X28294Y16180D1*
X28342Y16229D1*
X28382Y16285D1*
X28411Y16347D1*
X28429Y16413D1*
X28435Y16482D1*
D1*
X28429Y16550D1*
X28411Y16616D1*
X28382Y16678D1*
X28342Y16735D1*
X28294Y16783D1*
X28238Y16823D1*
X28176Y16852D1*
X28109Y16869D1*
X28041Y16875D1*
G37*
G36*
Y18145D2*
X27973Y18139D1*
X27906Y18122D1*
X27844Y18093D1*
X27788Y18053D1*
X27739Y18005D1*
X27700Y17948D1*
X27671Y17886D1*
X27653Y17820D1*
X27647Y17752D1*
D1*
X27653Y17683D1*
X27671Y17617D1*
X27700Y17555D1*
X27739Y17499D1*
X27788Y17450D1*
X27844Y17411D1*
X27906Y17382D1*
X27973Y17364D1*
X28041Y17358D1*
D1*
X28109Y17364D1*
X28176Y17382D1*
X28238Y17411D1*
X28294Y17450D1*
X28342Y17499D1*
X28382Y17555D1*
X28411Y17617D1*
X28429Y17683D1*
X28435Y17752D1*
D1*
X28429Y17820D1*
X28411Y17886D1*
X28382Y17948D1*
X28342Y18005D1*
X28294Y18053D1*
X28238Y18093D1*
X28176Y18122D1*
X28109Y18139D1*
X28041Y18145D1*
G37*
G36*
Y19415D2*
X27973Y19409D1*
X27906Y19392D1*
X27844Y19363D1*
X27788Y19323D1*
X27739Y19275D1*
X27700Y19218D1*
X27671Y19156D1*
X27653Y19090D1*
X27647Y19022D1*
D1*
X27653Y18953D1*
X27671Y18887D1*
X27700Y18825D1*
X27739Y18769D1*
X27788Y18720D1*
X27844Y18681D1*
X27906Y18652D1*
X27973Y18634D1*
X28041Y18628D1*
D1*
X28109Y18634D1*
X28176Y18652D1*
X28238Y18681D1*
X28294Y18720D1*
X28342Y18769D1*
X28382Y18825D1*
X28411Y18887D1*
X28429Y18953D1*
X28435Y19022D1*
D1*
X28429Y19090D1*
X28411Y19156D1*
X28382Y19218D1*
X28342Y19275D1*
X28294Y19323D1*
X28238Y19363D1*
X28176Y19392D1*
X28109Y19409D1*
X28041Y19415D1*
G37*
G36*
X29311D2*
X29243Y19409D1*
X29176Y19392D1*
X29114Y19363D1*
X29058Y19323D1*
X29009Y19275D1*
X28970Y19218D1*
X28941Y19156D1*
X28923Y19090D1*
X28917Y19022D1*
D1*
X28923Y18953D1*
X28941Y18887D1*
X28970Y18825D1*
X29009Y18769D1*
X29058Y18720D1*
X29114Y18681D1*
X29176Y18652D1*
X29243Y18634D1*
X29311Y18628D1*
D1*
X29379Y18634D1*
X29446Y18652D1*
X29508Y18681D1*
X29564Y18720D1*
X29612Y18769D1*
X29652Y18825D1*
X29681Y18887D1*
X29699Y18953D1*
X29705Y19022D1*
D1*
X29699Y19090D1*
X29681Y19156D1*
X29652Y19218D1*
X29612Y19275D1*
X29564Y19323D1*
X29508Y19363D1*
X29446Y19392D1*
X29379Y19409D1*
X29311Y19415D1*
G37*
G36*
Y18145D2*
X29243Y18139D1*
X29176Y18122D1*
X29114Y18093D1*
X29058Y18053D1*
X29009Y18005D1*
X28970Y17948D1*
X28941Y17886D1*
X28923Y17820D1*
X28917Y17752D1*
D1*
X28923Y17683D1*
X28941Y17617D1*
X28970Y17555D1*
X29009Y17499D1*
X29058Y17450D1*
X29114Y17411D1*
X29176Y17382D1*
X29243Y17364D1*
X29311Y17358D1*
D1*
X29379Y17364D1*
X29446Y17382D1*
X29508Y17411D1*
X29564Y17450D1*
X29612Y17499D1*
X29652Y17555D1*
X29681Y17617D1*
X29699Y17683D1*
X29705Y17752D1*
D1*
X29699Y17820D1*
X29681Y17886D1*
X29652Y17948D1*
X29612Y18005D1*
X29564Y18053D1*
X29508Y18093D1*
X29446Y18122D1*
X29379Y18139D1*
X29311Y18145D1*
G37*
G36*
Y16875D2*
X29243Y16869D1*
X29176Y16852D1*
X29114Y16823D1*
X29058Y16783D1*
X29009Y16735D1*
X28970Y16678D1*
X28941Y16616D1*
X28923Y16550D1*
X28917Y16482D1*
D1*
X28923Y16413D1*
X28941Y16347D1*
X28970Y16285D1*
X29009Y16229D1*
X29058Y16180D1*
X29114Y16141D1*
X29176Y16112D1*
X29243Y16094D1*
X29311Y16088D1*
D1*
X29379Y16094D1*
X29446Y16112D1*
X29508Y16141D1*
X29564Y16180D1*
X29612Y16229D1*
X29652Y16285D1*
X29681Y16347D1*
X29699Y16413D1*
X29705Y16482D1*
D1*
X29699Y16550D1*
X29681Y16616D1*
X29652Y16678D1*
X29612Y16735D1*
X29564Y16783D1*
X29508Y16823D1*
X29446Y16852D1*
X29379Y16869D1*
X29311Y16875D1*
G37*
D39*
X16903Y18803D3*
Y18403D3*
Y18003D3*
Y17603D3*
Y17203D3*
Y16803D3*
Y16403D3*
Y16003D3*
Y15603D3*
Y15203D3*
Y14803D3*
Y14403D3*
D40*
X17728Y13578D3*
X18128D3*
X18528D3*
X18928D3*
X19328D3*
X19728D3*
X20128D3*
X20528D3*
X20928D3*
X21328D3*
X21728D3*
X22128D3*
D39*
X22953Y14403D3*
Y14803D3*
Y15203D3*
Y15603D3*
Y16003D3*
Y16403D3*
Y16803D3*
Y17203D3*
Y17603D3*
Y18003D3*
Y18403D3*
Y18803D3*
D40*
X22128Y19628D3*
X21728D3*
X21328D3*
X20928D3*
X20528D3*
X20128D3*
X19728D3*
X19328D3*
X18928D3*
X18528D3*
X18128D3*
X17728D3*
D41*
X19928Y16603D3*
D42*
X18019Y16983D3*
X18781D3*
X19543D3*
X20305D3*
X21067D3*
X21829D3*
X18019Y16216D3*
X18781D3*
X19543D3*
X20305D3*
X21067D3*
X21829D3*
X18022Y17746D3*
X18784D3*
X19546D3*
X20308D3*
X21070D3*
X21832D3*
X18019Y15449D3*
X18781D3*
X19543D3*
X20305D3*
X21067D3*
X21829D3*
X18019Y14683D3*
X18781D3*
X19543D3*
X20305D3*
X21067D3*
X21829D3*
X18015Y18513D3*
X18777D3*
X19539D3*
X20301D3*
X21063D3*
X21825D3*
D45*
X23879Y23809D3*
X22179D3*
Y22409D3*
X23879D3*
D30*
X11278Y13818D3*
D31*
X10008D3*
D25*
X13818Y11278D3*
D29*
Y10008D3*
D25*
X29058Y11278D3*
D29*
Y10008D3*
D25*
X26518Y11278D3*
D29*
Y10008D3*
D25*
X23978Y11278D3*
D29*
Y10008D3*
D46*
X27514Y13971D3*
Y12811D3*
X30064D3*
Y13971D3*
D48*
X14591Y23970D3*
Y23120D3*
X16041D3*
Y23970D3*
D21*
X13621Y20658D3*
Y21958D3*
X20064Y23877D3*
Y22577D3*
X17555Y22262D3*
Y20962D3*
D49*
X19169Y23619D3*
X17669D3*
M02*
