G04 DipTrace 2.4.0.2*
%IN3dBBLEnotune.gbo*%
%MOMM*%
%ADD10C,0.25*%
%ADD55O,0.723X0.863*%
%ADD91C,0.157*%
%ADD92C,0.111*%
%FSLAX53Y53*%
G04*
G71*
G90*
G75*
G01*
%LNBotSilk*%
%LPD*%
G36*
X15757Y22017D2*
X15140Y22651D1*
X15624Y22997D1*
X15750Y22841D1*
X15757Y22017D1*
G37*
D55*
X15475Y22712D3*
X15760Y22134D2*
D10*
G02X15244Y22637I68J586D01*
G01*
X15774Y22157D2*
G03X15714Y22777I-970J219D01*
G01*
X29721Y23623D2*
D91*
X30227D1*
Y22602D1*
Y23137D2*
X29916D1*
X29430Y23283D2*
X29198Y22602D1*
X29275Y22408D1*
X29353Y22310D1*
X29430Y22262D1*
X29470D1*
X28964Y23283D2*
X29198Y22602D1*
X28713Y23623D2*
Y22602D1*
Y23137D2*
X28635Y23235D1*
X28558Y23283D1*
X28441D1*
X28364Y23235D1*
X28286Y23137D1*
X28247Y22991D1*
Y22894D1*
X28286Y22748D1*
X28364Y22652D1*
X28441Y22602D1*
X28558D1*
X28635Y22652D1*
X28713Y22748D1*
X27996Y22991D2*
X27530D1*
Y23089D1*
X27568Y23186D1*
X27607Y23235D1*
X27685Y23283D1*
X27802D1*
X27879Y23235D1*
X27957Y23137D1*
X27996Y22991D1*
Y22894D1*
X27957Y22748D1*
X27879Y22652D1*
X27802Y22602D1*
X27685D1*
X27607Y22652D1*
X27530Y22748D1*
X27279Y23283D2*
Y22602D1*
Y22991D2*
X27239Y23137D1*
X27162Y23235D1*
X27084Y23283D1*
X26967D1*
X25926Y23623D2*
Y22602D1*
X25460D1*
X24742Y23283D2*
Y22602D1*
Y23137D2*
X24820Y23235D1*
X24898Y23283D1*
X25014D1*
X25092Y23235D1*
X25169Y23137D1*
X25209Y22991D1*
Y22894D1*
X25169Y22748D1*
X25092Y22652D1*
X25014Y22602D1*
X24898D1*
X24820Y22652D1*
X24742Y22748D1*
X24491Y23623D2*
Y22602D1*
Y23137D2*
X24413Y23235D1*
X24336Y23283D1*
X24219D1*
X24142Y23235D1*
X24064Y23137D1*
X24025Y22991D1*
Y22894D1*
X24064Y22748D1*
X24142Y22652D1*
X24219Y22602D1*
X24336D1*
X24413Y22652D1*
X24491Y22748D1*
X23346Y23137D2*
X23385Y23235D1*
X23502Y23283D1*
X23619D1*
X23735Y23235D1*
X23774Y23137D1*
X23735Y23040D1*
X23657Y22991D1*
X23463Y22943D1*
X23385Y22894D1*
X23346Y22797D1*
Y22748D1*
X23385Y22652D1*
X23502Y22602D1*
X23619D1*
X23735Y22652D1*
X23774Y22748D1*
X22305Y23623D2*
Y22602D1*
X22054Y23283D2*
Y22602D1*
Y23089D2*
X21937Y23235D1*
X21859Y23283D1*
X21743D1*
X21665Y23235D1*
X21627Y23089D1*
Y22602D1*
X20908Y23137D2*
X20987Y23235D1*
X21065Y23283D1*
X21181D1*
X21259Y23235D1*
X21336Y23137D1*
X21376Y22991D1*
Y22894D1*
X21336Y22748D1*
X21259Y22652D1*
X21181Y22602D1*
X21065D1*
X20987Y22652D1*
X20908Y22748D1*
X20619Y22700D2*
X20657Y22651D1*
X20619Y22602D1*
X20579Y22651D1*
X20619Y22700D1*
X30247Y22004D2*
X29820D1*
X30053Y21615D1*
X29936D1*
X29859Y21567D1*
X29820Y21519D1*
X29780Y21373D1*
Y21276D1*
X29820Y21130D1*
X29897Y21033D1*
X30014Y20984D1*
X30131D1*
X30247Y21033D1*
X30285Y21082D1*
X30325Y21179D1*
X29063Y22005D2*
Y20984D1*
Y21519D2*
X29140Y21617D1*
X29219Y21665D1*
X29335D1*
X29413Y21617D1*
X29491Y21519D1*
X29529Y21373D1*
Y21276D1*
X29491Y21130D1*
X29413Y21034D1*
X29335Y20984D1*
X29219D1*
X29140Y21034D1*
X29063Y21130D1*
X28812Y22005D2*
Y20984D1*
X28462D1*
X28345Y21034D1*
X28306Y21082D1*
X28268Y21179D1*
Y21325D1*
X28306Y21422D1*
X28345Y21471D1*
X28462Y21519D1*
X28345Y21568D1*
X28306Y21617D1*
X28268Y21713D1*
Y21811D1*
X28306Y21907D1*
X28345Y21957D1*
X28462Y22005D1*
X28812D1*
Y21519D2*
X28462D1*
X27227Y22005D2*
Y20984D1*
X26876D1*
X26759Y21034D1*
X26721Y21082D1*
X26682Y21179D1*
Y21325D1*
X26721Y21422D1*
X26759Y21471D1*
X26876Y21519D1*
X26759Y21568D1*
X26721Y21617D1*
X26682Y21713D1*
Y21811D1*
X26721Y21907D1*
X26759Y21957D1*
X26876Y22005D1*
X27227D1*
Y21519D2*
X26876D1*
X26431Y22005D2*
Y20984D1*
X25965D1*
X25209Y22005D2*
X25714D1*
Y20984D1*
X25209D1*
X25714Y21519D2*
X25403D1*
X15439Y13831D2*
D92*
X15245Y12810D1*
X15051Y13831D1*
X14575Y13588D2*
X14599Y13685D1*
X14648Y13783D1*
X14696Y13831D1*
X14794D1*
X14842Y13783D1*
X14891Y13685D1*
X14915Y13588D1*
X14940Y13442D1*
Y13199D1*
X14915Y13054D1*
X14891Y12956D1*
X14842Y12860D1*
X14794Y12810D1*
X14696D1*
X14648Y12860D1*
X14599Y12956D1*
X14575Y13054D1*
X14100Y13588D2*
X14124Y13685D1*
X14173Y13783D1*
X14221Y13831D1*
X14318D1*
X14367Y13783D1*
X14415Y13685D1*
X14440Y13588D1*
X14464Y13442D1*
Y13199D1*
X14440Y13054D1*
X14415Y12956D1*
X14367Y12860D1*
X14318Y12810D1*
X14221D1*
X14173Y12860D1*
X14124Y12956D1*
X14100Y13054D1*
X13632Y13495D2*
X13728Y13471D1*
X13826Y13422D1*
X13874Y13374D1*
Y13277D1*
X13826Y13228D1*
X13728Y13179D1*
X13632Y13155D1*
X13486Y13131D1*
X13242D1*
X13097Y13155D1*
X12999Y13179D1*
X12903Y13228D1*
X12853Y13277D1*
Y13374D1*
X12903Y13422D1*
X12999Y13471D1*
X13097Y13495D1*
X13242D1*
Y13374D1*
X13874Y13946D2*
X12853D1*
X13874Y13606D1*
X12853D1*
X13874Y14057D2*
X12853D1*
Y14228D1*
X12903Y14301D1*
X12999Y14349D1*
X13097Y14374D1*
X13242Y14398D1*
X13486D1*
X13632Y14374D1*
X13728Y14349D1*
X13826Y14301D1*
X13874Y14228D1*
Y14057D1*
X23982Y20072D2*
D91*
X23632D1*
X23516Y20122D1*
X23476Y20170D1*
X23437Y20267D1*
Y20364D1*
X23476Y20461D1*
X23516Y20510D1*
X23632Y20559D1*
X23982D1*
Y19538D1*
X23710Y20072D2*
X23437Y19538D1*
X23186Y20363D2*
X23108Y20413D1*
X22991Y20557D1*
Y19538D1*
X22702Y19635D2*
X22740Y19586D1*
X22702Y19538D1*
X22662Y19586D1*
X22702Y19635D1*
X22178Y20557D2*
X22295Y20509D1*
X22373Y20363D1*
X22411Y20121D1*
Y19975D1*
X22373Y19732D1*
X22295Y19586D1*
X22178Y19538D1*
X22100D1*
X21984Y19586D1*
X21906Y19732D1*
X21867Y19975D1*
Y20121D1*
X21906Y20363D1*
X21984Y20509D1*
X22100Y20557D1*
X22178D1*
X21906Y20363D2*
X22373Y19732D1*
X26751Y19004D2*
Y19052D1*
X26712Y19150D1*
X26674Y19198D1*
X26595Y19247D1*
X26440D1*
X26363Y19198D1*
X26324Y19150D1*
X26285Y19052D1*
Y18956D1*
X26324Y18858D1*
X26401Y18713D1*
X26790Y18227D1*
X26246D1*
X25761Y19247D2*
X25878Y19198D1*
X25956Y19052D1*
X25995Y18810D1*
Y18664D1*
X25956Y18421D1*
X25878Y18275D1*
X25761Y18227D1*
X25684D1*
X25567Y18275D1*
X25490Y18421D1*
X25450Y18664D1*
Y18810D1*
X25490Y19052D1*
X25567Y19198D1*
X25684Y19247D1*
X25761D1*
X25490Y19052D2*
X25956Y18421D1*
X25200Y19052D2*
X25121Y19102D1*
X25005Y19247D1*
Y18227D1*
X24287Y19247D2*
X24675D1*
X24714Y18810D1*
X24675Y18858D1*
X24559Y18907D1*
X24443D1*
X24326Y18858D1*
X24248Y18761D1*
X24209Y18615D1*
Y18519D1*
X24248Y18373D1*
X24326Y18275D1*
X24443Y18227D1*
X24559D1*
X24675Y18275D1*
X24714Y18325D1*
X24754Y18421D1*
X20696Y24401D2*
D92*
X20915D1*
X20988Y24352D1*
X21013Y24303D1*
X21037Y24206D1*
Y24060D1*
X21013Y23964D1*
X20988Y23914D1*
X20915Y23866D1*
X20696D1*
Y24887D1*
X21294Y23867D2*
X21221Y23916D1*
X21172Y24062D1*
X21148Y24304D1*
Y24450D1*
X21172Y24693D1*
X21221Y24839D1*
X21294Y24887D1*
X21342D1*
X21415Y24839D1*
X21463Y24693D1*
X21488Y24450D1*
Y24304D1*
X21463Y24062D1*
X21415Y23916D1*
X21342Y23867D1*
X21294D1*
X21463Y24062D2*
X21172Y24693D1*
X21623Y24789D2*
X21599Y24839D1*
X21623Y24887D1*
X21648Y24839D1*
X21623Y24789D1*
X21784Y24110D2*
Y24062D1*
X21808Y23964D1*
X21832Y23916D1*
X21881Y23867D1*
X21978D1*
X22026Y23916D1*
X22051Y23964D1*
X22075Y24062D1*
Y24158D1*
X22051Y24256D1*
X22002Y24401D1*
X21759Y24887D1*
X22099D1*
X22502Y24012D2*
X22478Y23916D1*
X22405Y23867D1*
X22357D1*
X22284Y23916D1*
X22235Y24062D1*
X22211Y24304D1*
Y24547D1*
X22235Y24741D1*
X22284Y24839D1*
X22357Y24887D1*
X22381D1*
X22453Y24839D1*
X22502Y24741D1*
X22526Y24595D1*
Y24547D1*
X22502Y24401D1*
X22453Y24304D1*
X22381Y24256D1*
X22357D1*
X22284Y24304D1*
X22235Y24401D1*
X22211Y24547D1*
X17975Y24397D2*
X18194D1*
X18267Y24349D1*
X18292Y24299D1*
X18316Y24203D1*
Y24057D1*
X18292Y23960D1*
X18267Y23911D1*
X18194Y23862D1*
X17975D1*
Y24883D1*
X18573Y23863D2*
X18500Y23912D1*
X18451Y24058D1*
X18427Y24300D1*
Y24446D1*
X18451Y24689D1*
X18500Y24835D1*
X18573Y24883D1*
X18621D1*
X18694Y24835D1*
X18742Y24689D1*
X18767Y24446D1*
Y24300D1*
X18742Y24058D1*
X18694Y23912D1*
X18621Y23863D1*
X18573D1*
X18742Y24058D2*
X18451Y24689D1*
X18902Y24785D2*
X18878Y24835D1*
X18902Y24883D1*
X18927Y24835D1*
X18902Y24785D1*
X19063Y24106D2*
Y24058D1*
X19087Y23960D1*
X19111Y23912D1*
X19160Y23863D1*
X19257D1*
X19305Y23912D1*
X19330Y23960D1*
X19354Y24058D1*
Y24154D1*
X19330Y24252D1*
X19281Y24397D1*
X19038Y24883D1*
X19378D1*
X19587D2*
X19830Y23863D1*
X19490D1*
X13419Y24427D2*
X13638D1*
X13710Y24379D1*
X13735Y24329D1*
X13759Y24233D1*
Y24087D1*
X13735Y23990D1*
X13710Y23941D1*
X13638Y23892D1*
X13419D1*
Y24913D1*
X14016Y23894D2*
X13943Y23942D1*
X13895Y24088D1*
X13870Y24330D1*
Y24476D1*
X13895Y24719D1*
X13943Y24865D1*
X14016Y24913D1*
X14065D1*
X14138Y24865D1*
X14186Y24719D1*
X14211Y24476D1*
Y24330D1*
X14186Y24088D1*
X14138Y23942D1*
X14065Y23894D1*
X14016D1*
X14186Y24088D2*
X13895Y24719D1*
X14346Y24816D2*
X14322Y24865D1*
X14346Y24913D1*
X14371Y24865D1*
X14346Y24816D1*
X14628Y23894D2*
X14555Y23942D1*
X14506Y24088D1*
X14482Y24330D1*
Y24476D1*
X14506Y24719D1*
X14555Y24865D1*
X14628Y24913D1*
X14676D1*
X14749Y24865D1*
X14797Y24719D1*
X14822Y24476D1*
Y24330D1*
X14797Y24088D1*
X14749Y23942D1*
X14676Y23894D1*
X14628D1*
X14797Y24088D2*
X14506Y24719D1*
X14933Y24088D2*
X14982Y24038D1*
X15055Y23894D1*
Y24913D1*
X13344Y21903D2*
Y22122D1*
X13393Y22195D1*
X13442Y22219D1*
X13539Y22244D1*
X13685D1*
X13781Y22219D1*
X13831Y22195D1*
X13879Y22122D1*
Y21903D1*
X12858D1*
X13878Y22501D2*
X13829Y22428D1*
X13683Y22379D1*
X13441Y22355D1*
X13295D1*
X13052Y22379D1*
X12906Y22428D1*
X12858Y22501D1*
Y22549D1*
X12906Y22622D1*
X13052Y22670D1*
X13295Y22695D1*
X13441D1*
X13683Y22670D1*
X13829Y22622D1*
X13878Y22549D1*
Y22501D1*
X13683Y22670D2*
X13052Y22379D1*
X12956Y22830D2*
X12906Y22806D1*
X12858Y22830D1*
X12906Y22855D1*
X12956Y22830D1*
X13878Y23112D2*
X13829Y23039D1*
X13683Y22990D1*
X13441Y22966D1*
X13295D1*
X13052Y22990D1*
X12906Y23039D1*
X12858Y23112D1*
Y23160D1*
X12906Y23233D1*
X13052Y23282D1*
X13295Y23306D1*
X13441D1*
X13683Y23282D1*
X13829Y23233D1*
X13878Y23160D1*
Y23112D1*
X13683Y23282D2*
X13052Y22990D1*
X13635Y23442D2*
X13683D1*
X13781Y23466D1*
X13829Y23490D1*
X13878Y23539D1*
Y23636D1*
X13829Y23685D1*
X13781Y23709D1*
X13683Y23734D1*
X13587D1*
X13489Y23709D1*
X13344Y23661D1*
X12858Y23417D1*
Y23758D1*
X13363Y19884D2*
Y20103D1*
X13411Y20176D1*
X13460Y20200D1*
X13557Y20224D1*
X13703D1*
X13799Y20200D1*
X13849Y20176D1*
X13897Y20103D1*
Y19884D1*
X12876D1*
X13896Y20482D2*
X13848Y20409D1*
X13702Y20360D1*
X13459Y20336D1*
X13313D1*
X13071Y20360D1*
X12925Y20409D1*
X12876Y20482D1*
Y20530D1*
X12925Y20603D1*
X13071Y20651D1*
X13313Y20676D1*
X13459D1*
X13702Y20651D1*
X13848Y20603D1*
X13896Y20530D1*
Y20482D1*
X13702Y20651D2*
X13071Y20360D1*
X12974Y20811D2*
X12925Y20787D1*
X12876Y20811D1*
X12925Y20836D1*
X12974Y20811D1*
X13896Y21093D2*
X13848Y21020D1*
X13702Y20971D1*
X13459Y20947D1*
X13313D1*
X13071Y20971D1*
X12925Y21020D1*
X12876Y21093D1*
Y21141D1*
X12925Y21214D1*
X13071Y21263D1*
X13313Y21287D1*
X13459D1*
X13702Y21263D1*
X13848Y21214D1*
X13896Y21141D1*
Y21093D1*
X13702Y21263D2*
X13071Y20971D1*
X13896Y21447D2*
Y21714D1*
X13507Y21568D1*
Y21641D1*
X13459Y21690D1*
X13411Y21714D1*
X13265Y21739D1*
X13168D1*
X13022Y21714D1*
X12925Y21666D1*
X12876Y21593D1*
Y21520D1*
X12925Y21447D1*
X12974Y21423D1*
X13071Y21398D1*
X13389Y15353D2*
Y15572D1*
X13437Y15644D1*
X13486Y15669D1*
X13583Y15693D1*
X13729D1*
X13826Y15669D1*
X13875Y15644D1*
X13923Y15572D1*
Y15353D1*
X12902D1*
X13922Y15950D2*
X13874Y15877D1*
X13728Y15828D1*
X13485Y15804D1*
X13339D1*
X13097Y15828D1*
X12951Y15877D1*
X12902Y15950D1*
Y15998D1*
X12951Y16071D1*
X13097Y16120D1*
X13339Y16144D1*
X13485D1*
X13728Y16120D1*
X13874Y16071D1*
X13922Y15998D1*
Y15950D1*
X13728Y16120D2*
X13097Y15828D1*
X13000Y16280D2*
X12951Y16255D1*
X12902Y16280D1*
X12951Y16304D1*
X13000Y16280D1*
X13922Y16561D2*
X13874Y16488D1*
X13728Y16439D1*
X13485Y16415D1*
X13339D1*
X13097Y16439D1*
X12951Y16488D1*
X12902Y16561D1*
Y16610D1*
X12951Y16683D1*
X13097Y16731D1*
X13339Y16756D1*
X13485D1*
X13728Y16731D1*
X13874Y16683D1*
X13922Y16610D1*
Y16561D1*
X13728Y16731D2*
X13097Y16439D1*
X13922Y17158D2*
Y16916D1*
X13485Y16891D1*
X13534Y16916D1*
X13583Y16989D1*
Y17061D1*
X13534Y17134D1*
X13437Y17183D1*
X13291Y17207D1*
X13194D1*
X13048Y17183D1*
X12951Y17134D1*
X12902Y17061D1*
Y16989D1*
X12951Y16916D1*
X13000Y16891D1*
X13097Y16867D1*
X17478Y13345D2*
X17259D1*
X17187Y13393D1*
X17162Y13442D1*
X17138Y13539D1*
Y13685D1*
X17162Y13781D1*
X17187Y13831D1*
X17259Y13879D1*
X17478D1*
Y12858D1*
X16881Y13878D2*
X16954Y13830D1*
X17003Y13684D1*
X17027Y13441D1*
Y13295D1*
X17003Y13053D1*
X16954Y12907D1*
X16881Y12858D1*
X16833D1*
X16760Y12907D1*
X16711Y13053D1*
X16687Y13295D1*
Y13441D1*
X16711Y13684D1*
X16760Y13830D1*
X16833Y13878D1*
X16881D1*
X16711Y13684D2*
X17003Y13053D1*
X16551Y12956D2*
X16575Y12907D1*
X16551Y12858D1*
X16527Y12907D1*
X16551Y12956D1*
X16269Y13878D2*
X16342Y13830D1*
X16391Y13684D1*
X16415Y13441D1*
Y13295D1*
X16391Y13053D1*
X16342Y12907D1*
X16269Y12858D1*
X16221D1*
X16148Y12907D1*
X16100Y13053D1*
X16075Y13295D1*
Y13441D1*
X16100Y13684D1*
X16148Y13830D1*
X16221Y13878D1*
X16269D1*
X16100Y13684D2*
X16391Y13053D1*
X15673Y13733D2*
X15697Y13830D1*
X15770Y13878D1*
X15818D1*
X15891Y13830D1*
X15940Y13684D1*
X15964Y13441D1*
Y13199D1*
X15940Y13004D1*
X15891Y12907D1*
X15818Y12858D1*
X15794D1*
X15721Y12907D1*
X15673Y13004D1*
X15648Y13150D1*
Y13199D1*
X15673Y13345D1*
X15721Y13441D1*
X15794Y13489D1*
X15818D1*
X15891Y13441D1*
X15940Y13345D1*
X15964Y13199D1*
X13376Y17763D2*
Y17982D1*
X13424Y18055D1*
X13474Y18079D1*
X13570Y18103D1*
X13716D1*
X13813Y18079D1*
X13862Y18055D1*
X13911Y17982D1*
Y17763D1*
X12890D1*
X13909Y18361D2*
X13861Y18288D1*
X13715Y18239D1*
X13473Y18215D1*
X13327D1*
X13084Y18239D1*
X12938Y18288D1*
X12890Y18361D1*
Y18409D1*
X12938Y18482D1*
X13084Y18530D1*
X13327Y18555D1*
X13473D1*
X13715Y18530D1*
X13861Y18482D1*
X13909Y18409D1*
Y18361D1*
X13715Y18530D2*
X13084Y18239D1*
X12987Y18690D2*
X12938Y18666D1*
X12890Y18690D1*
X12938Y18715D1*
X12987Y18690D1*
X13909Y18972D2*
X13861Y18899D1*
X13715Y18850D1*
X13473Y18826D1*
X13327D1*
X13084Y18850D1*
X12938Y18899D1*
X12890Y18972D1*
Y19020D1*
X12938Y19093D1*
X13084Y19141D1*
X13327Y19166D1*
X13473D1*
X13715Y19141D1*
X13861Y19093D1*
X13909Y19020D1*
Y18972D1*
X13715Y19141D2*
X13084Y18850D1*
X12890Y19520D2*
X13909D1*
X13230Y19277D1*
Y19642D1*
X26910Y13360D2*
X26691D1*
X26618Y13409D1*
X26593Y13458D1*
X26569Y13555D1*
Y13701D1*
X26593Y13797D1*
X26618Y13847D1*
X26691Y13895D1*
X26910D1*
Y12874D1*
X26312Y13894D2*
X26385Y13845D1*
X26434Y13699D1*
X26458Y13457D1*
Y13311D1*
X26434Y13068D1*
X26385Y12922D1*
X26312Y12874D1*
X26264D1*
X26191Y12922D1*
X26143Y13068D1*
X26118Y13311D1*
Y13457D1*
X26143Y13699D1*
X26191Y13845D1*
X26264Y13894D1*
X26312D1*
X26143Y13699D2*
X26434Y13068D1*
X25983Y12972D2*
X26007Y12922D1*
X25983Y12874D1*
X25958Y12922D1*
X25983Y12972D1*
X25847Y13699D2*
X25798Y13749D1*
X25725Y13894D1*
Y12874D1*
X25322Y13894D2*
X25565D1*
X25589Y13457D1*
X25565Y13505D1*
X25492Y13555D1*
X25420D1*
X25347Y13505D1*
X25298Y13409D1*
X25274Y13263D1*
Y13166D1*
X25298Y13020D1*
X25347Y12922D1*
X25420Y12874D1*
X25492D1*
X25565Y12922D1*
X25589Y12972D1*
X25614Y13068D1*
X19831Y13382D2*
X19612D1*
X19540Y13430D1*
X19515Y13480D1*
X19491Y13576D1*
Y13722D1*
X19515Y13819D1*
X19540Y13868D1*
X19612Y13916D1*
X19831D1*
Y12896D1*
X19234Y13915D2*
X19307Y13867D1*
X19356Y13721D1*
X19380Y13478D1*
Y13332D1*
X19356Y13090D1*
X19307Y12944D1*
X19234Y12896D1*
X19185D1*
X19112Y12944D1*
X19064Y13090D1*
X19039Y13332D1*
Y13478D1*
X19064Y13721D1*
X19112Y13867D1*
X19185Y13915D1*
X19234D1*
X19064Y13721D2*
X19356Y13090D1*
X18904Y12993D2*
X18928Y12944D1*
X18904Y12896D1*
X18879Y12944D1*
X18904Y12993D1*
X18622Y13915D2*
X18695Y13867D1*
X18744Y13721D1*
X18768Y13478D1*
Y13332D1*
X18744Y13090D1*
X18695Y12944D1*
X18622Y12896D1*
X18574D1*
X18501Y12944D1*
X18453Y13090D1*
X18428Y13332D1*
Y13478D1*
X18453Y13721D1*
X18501Y13867D1*
X18574Y13915D1*
X18622D1*
X18453Y13721D2*
X18744Y13090D1*
X18001Y13576D2*
X18026Y13430D1*
X18074Y13332D1*
X18147Y13284D1*
X18171D1*
X18244Y13332D1*
X18292Y13430D1*
X18317Y13576D1*
Y13624D1*
X18292Y13770D1*
X18244Y13867D1*
X18171Y13915D1*
X18147D1*
X18074Y13867D1*
X18026Y13770D1*
X18001Y13576D1*
Y13332D1*
X18026Y13090D1*
X18074Y12944D1*
X18147Y12896D1*
X18195D1*
X18268Y12944D1*
X18292Y13042D1*
X22387Y13356D2*
X22168D1*
X22096Y13405D1*
X22071Y13454D1*
X22047Y13551D1*
Y13697D1*
X22071Y13793D1*
X22096Y13843D1*
X22168Y13891D1*
X22387D1*
Y12870D1*
X21790Y13890D2*
X21863Y13841D1*
X21912Y13695D1*
X21936Y13453D1*
Y13307D1*
X21912Y13064D1*
X21863Y12918D1*
X21790Y12870D1*
X21742D1*
X21669Y12918D1*
X21620Y13064D1*
X21596Y13307D1*
Y13453D1*
X21620Y13695D1*
X21669Y13841D1*
X21742Y13890D1*
X21790D1*
X21620Y13695D2*
X21912Y13064D1*
X21460Y12968D2*
X21484Y12918D1*
X21460Y12870D1*
X21436Y12918D1*
X21460Y12968D1*
X21325Y13695D2*
X21276Y13745D1*
X21203Y13890D1*
Y12870D1*
X20946Y13890D2*
X21019Y13841D1*
X21067Y13695D1*
X21092Y13453D1*
Y13307D1*
X21067Y13064D1*
X21019Y12918D1*
X20946Y12870D1*
X20897D1*
X20824Y12918D1*
X20776Y13064D1*
X20751Y13307D1*
Y13453D1*
X20776Y13695D1*
X20824Y13841D1*
X20897Y13890D1*
X20946D1*
X20776Y13695D2*
X21067Y13064D1*
X25069Y13338D2*
X24850D1*
X24777Y13387D1*
X24753Y13436D1*
X24728Y13533D1*
Y13679D1*
X24753Y13775D1*
X24777Y13825D1*
X24850Y13873D1*
X25069D1*
Y12852D1*
X24471Y13872D2*
X24544Y13824D1*
X24593Y13678D1*
X24617Y13435D1*
Y13289D1*
X24593Y13046D1*
X24544Y12900D1*
X24471Y12852D1*
X24423D1*
X24350Y12900D1*
X24302Y13046D1*
X24277Y13289D1*
Y13435D1*
X24302Y13678D1*
X24350Y13824D1*
X24423Y13872D1*
X24471D1*
X24302Y13678D2*
X24593Y13046D1*
X24142Y12950D2*
X24166Y12900D1*
X24142Y12852D1*
X24117Y12900D1*
X24142Y12950D1*
X24006Y13678D2*
X23957Y13727D1*
X23884Y13872D1*
Y12852D1*
X23481Y13727D2*
X23506Y13824D1*
X23579Y13872D1*
X23627D1*
X23700Y13824D1*
X23749Y13678D1*
X23773Y13435D1*
Y13192D1*
X23749Y12998D1*
X23700Y12900D1*
X23627Y12852D1*
X23603D1*
X23530Y12900D1*
X23481Y12998D1*
X23457Y13144D1*
Y13192D1*
X23481Y13338D1*
X23530Y13435D1*
X23603Y13483D1*
X23627D1*
X23700Y13435D1*
X23749Y13338D1*
X23773Y13192D1*
X15651Y24404D2*
X15870D1*
X15942Y24356D1*
X15967Y24306D1*
X15991Y24210D1*
Y24064D1*
X15967Y23967D1*
X15942Y23918D1*
X15870Y23870D1*
X15651D1*
Y24890D1*
X16248Y23871D2*
X16175Y23919D1*
X16126Y24065D1*
X16102Y24308D1*
Y24454D1*
X16126Y24696D1*
X16175Y24842D1*
X16248Y24890D1*
X16296D1*
X16369Y24842D1*
X16418Y24696D1*
X16442Y24454D1*
Y24308D1*
X16418Y24065D1*
X16369Y23919D1*
X16296Y23871D1*
X16248D1*
X16418Y24065D2*
X16126Y24696D1*
X16578Y24793D2*
X16553Y24842D1*
X16578Y24890D1*
X16602Y24842D1*
X16578Y24793D1*
X16859Y23871D2*
X16786Y23919D1*
X16738Y24065D1*
X16713Y24308D1*
Y24454D1*
X16738Y24696D1*
X16786Y24842D1*
X16859Y24890D1*
X16908D1*
X16981Y24842D1*
X17029Y24696D1*
X17054Y24454D1*
Y24308D1*
X17029Y24065D1*
X16981Y23919D1*
X16908Y23871D1*
X16859D1*
X17029Y24065D2*
X16738Y24696D1*
X17311Y23871D2*
X17238Y23919D1*
X17189Y24065D1*
X17165Y24308D1*
Y24454D1*
X17189Y24696D1*
X17238Y24842D1*
X17311Y24890D1*
X17359D1*
X17432Y24842D1*
X17480Y24696D1*
X17505Y24454D1*
Y24308D1*
X17480Y24065D1*
X17432Y23919D1*
X17359Y23871D1*
X17311D1*
X17480Y24065D2*
X17189Y24696D1*
X25808Y24437D2*
X26027D1*
X26100Y24388D1*
X26125Y24339D1*
X26149Y24242D1*
Y24096D1*
X26125Y24000D1*
X26100Y23950D1*
X26027Y23902D1*
X25808D1*
Y24923D1*
X26406Y23903D2*
X26333Y23951D1*
X26284Y24097D1*
X26260Y24340D1*
Y24486D1*
X26284Y24729D1*
X26333Y24875D1*
X26406Y24923D1*
X26454D1*
X26527Y24875D1*
X26575Y24729D1*
X26600Y24486D1*
Y24340D1*
X26575Y24097D1*
X26527Y23951D1*
X26454Y23903D1*
X26406D1*
X26575Y24097D2*
X26284Y24729D1*
X26735Y24825D2*
X26711Y24875D1*
X26735Y24923D1*
X26760Y24875D1*
X26735Y24825D1*
X26896Y24146D2*
Y24097D1*
X26920Y24000D1*
X26944Y23951D1*
X26993Y23903D1*
X27090D1*
X27139Y23951D1*
X27163Y24000D1*
X27187Y24097D1*
Y24194D1*
X27163Y24292D1*
X27114Y24437D1*
X26871Y24923D1*
X27212D1*
X27566D2*
Y23903D1*
X27323Y24583D1*
X27687D1*
X28065Y24450D2*
X28284D1*
X28356Y24402D1*
X28381Y24352D1*
X28405Y24256D1*
Y24110D1*
X28381Y24013D1*
X28356Y23964D1*
X28284Y23915D1*
X28065D1*
Y24936D1*
X28662Y23917D2*
X28589Y23965D1*
X28540Y24111D1*
X28516Y24353D1*
Y24499D1*
X28540Y24742D1*
X28589Y24888D1*
X28662Y24936D1*
X28710D1*
X28783Y24888D1*
X28832Y24742D1*
X28856Y24499D1*
Y24353D1*
X28832Y24111D1*
X28783Y23965D1*
X28710Y23917D1*
X28662D1*
X28832Y24111D2*
X28540Y24742D1*
X28992Y24839D2*
X28967Y24888D1*
X28992Y24936D1*
X29016Y24888D1*
X28992Y24839D1*
X29152Y24159D2*
Y24111D1*
X29176Y24013D1*
X29200Y23965D1*
X29249Y23917D1*
X29346D1*
X29395Y23965D1*
X29419Y24013D1*
X29443Y24111D1*
Y24207D1*
X29419Y24305D1*
X29370Y24450D1*
X29127Y24936D1*
X29468D1*
X29628Y23917D2*
X29894D1*
X29749Y24305D1*
X29822D1*
X29870Y24353D1*
X29894Y24402D1*
X29919Y24548D1*
Y24644D1*
X29894Y24790D1*
X29846Y24888D1*
X29773Y24936D1*
X29700D1*
X29628Y24888D1*
X29603Y24839D1*
X29579Y24742D1*
X23009Y24397D2*
X23228D1*
X23300Y24349D1*
X23325Y24299D1*
X23349Y24203D1*
Y24057D1*
X23325Y23960D1*
X23300Y23911D1*
X23228Y23862D1*
X23009D1*
Y24883D1*
X23606Y23864D2*
X23533Y23912D1*
X23484Y24058D1*
X23460Y24300D1*
Y24446D1*
X23484Y24689D1*
X23533Y24835D1*
X23606Y24883D1*
X23654D1*
X23727Y24835D1*
X23776Y24689D1*
X23800Y24446D1*
Y24300D1*
X23776Y24058D1*
X23727Y23912D1*
X23654Y23864D1*
X23606D1*
X23776Y24058D2*
X23484Y24689D1*
X23935Y24786D2*
X23911Y24835D1*
X23935Y24883D1*
X23960Y24835D1*
X23935Y24786D1*
X24096Y24106D2*
Y24058D1*
X24120Y23960D1*
X24144Y23912D1*
X24193Y23864D1*
X24290D1*
X24339Y23912D1*
X24363Y23960D1*
X24387Y24058D1*
Y24154D1*
X24363Y24252D1*
X24314Y24397D1*
X24071Y24883D1*
X24412D1*
X24814Y23864D2*
X24572D1*
X24547Y24300D1*
X24572Y24252D1*
X24645Y24203D1*
X24717D1*
X24790Y24252D1*
X24839Y24349D1*
X24863Y24495D1*
Y24591D1*
X24839Y24737D1*
X24790Y24835D1*
X24717Y24883D1*
X24645D1*
X24572Y24835D1*
X24547Y24786D1*
X24523Y24689D1*
X28748Y13375D2*
X28529D1*
X28457Y13423D1*
X28432Y13472D1*
X28408Y13569D1*
Y13715D1*
X28432Y13812D1*
X28457Y13861D1*
X28529Y13909D1*
X28748D1*
Y12888D1*
X28151Y13908D2*
X28224Y13860D1*
X28272Y13714D1*
X28297Y13471D1*
Y13325D1*
X28272Y13083D1*
X28224Y12937D1*
X28151Y12888D1*
X28102D1*
X28029Y12937D1*
X27981Y13083D1*
X27956Y13325D1*
Y13471D1*
X27981Y13714D1*
X28029Y13860D1*
X28102Y13908D1*
X28151D1*
X27981Y13714D2*
X28272Y13083D1*
X27821Y12986D2*
X27845Y12937D1*
X27821Y12888D1*
X27796Y12937D1*
X27821Y12986D1*
X27685Y13714D2*
X27636Y13763D1*
X27563Y13908D1*
Y12888D1*
X27403Y13908D2*
X27137D1*
X27282Y13520D1*
X27209D1*
X27161Y13471D1*
X27137Y13423D1*
X27112Y13277D1*
Y13180D1*
X27137Y13034D1*
X27185Y12937D1*
X27258Y12888D1*
X27331D1*
X27403Y12937D1*
X27428Y12986D1*
X27452Y13083D1*
X29421Y14622D2*
Y14403D1*
X29373Y14331D1*
X29324Y14306D1*
X29227Y14282D1*
X29081D1*
X28984Y14306D1*
X28935Y14331D1*
X28887Y14403D1*
Y14622D1*
X29908D1*
X28888Y14025D2*
X28936Y14098D1*
X29082Y14146D1*
X29325Y14171D1*
X29471D1*
X29713Y14146D1*
X29859Y14098D1*
X29908Y14025D1*
Y13976D1*
X29859Y13903D1*
X29713Y13855D1*
X29471Y13830D1*
X29325D1*
X29082Y13855D1*
X28936Y13903D1*
X28888Y13976D1*
Y14025D1*
X29082Y13855D2*
X29713Y14146D1*
X29810Y13695D2*
X29859Y13719D1*
X29908Y13695D1*
X29859Y13670D1*
X29810Y13695D1*
X29082Y13559D2*
X29033Y13510D1*
X28888Y13437D1*
X29908D1*
X28888Y13205D2*
X28936Y13277D1*
X29033Y13302D1*
X29130D1*
X29227Y13277D1*
X29276Y13229D1*
X29325Y13132D1*
X29373Y13059D1*
X29471Y13011D1*
X29567Y12986D1*
X29713D1*
X29810Y13011D1*
X29859Y13035D1*
X29908Y13108D1*
Y13205D1*
X29859Y13277D1*
X29810Y13302D1*
X29713Y13326D1*
X29567D1*
X29471Y13302D1*
X29373Y13253D1*
X29325Y13181D1*
X29276Y13084D1*
X29227Y13035D1*
X29130Y13011D1*
X29033D1*
X28936Y13035D1*
X28888Y13108D1*
Y13205D1*
X29396Y17204D2*
Y16985D1*
X29348Y16913D1*
X29298Y16888D1*
X29202Y16864D1*
X29056D1*
X28959Y16888D1*
X28910Y16913D1*
X28861Y16985D1*
Y17204D1*
X29882D1*
X28862Y16607D2*
X28911Y16680D1*
X29057Y16729D1*
X29299Y16753D1*
X29445D1*
X29688Y16729D1*
X29834Y16680D1*
X29882Y16607D1*
Y16559D1*
X29834Y16486D1*
X29688Y16437D1*
X29445Y16413D1*
X29299D1*
X29057Y16437D1*
X28911Y16486D1*
X28862Y16559D1*
Y16607D1*
X29057Y16437D2*
X29688Y16729D1*
X29784Y16278D2*
X29834Y16302D1*
X29882Y16278D1*
X29834Y16253D1*
X29784Y16278D1*
X29057Y16142D2*
X29007Y16093D1*
X28862Y16020D1*
X29882D1*
X29202Y15593D2*
X29348Y15617D1*
X29445Y15666D1*
X29494Y15739D1*
Y15763D1*
X29445Y15836D1*
X29348Y15884D1*
X29202Y15909D1*
X29153D1*
X29007Y15884D1*
X28911Y15836D1*
X28862Y15763D1*
Y15739D1*
X28911Y15666D1*
X29007Y15617D1*
X29202Y15593D1*
X29445D1*
X29688Y15617D1*
X29834Y15666D1*
X29882Y15739D1*
Y15787D1*
X29834Y15860D1*
X29736Y15884D1*
X31526Y21645D2*
Y21426D1*
X31478Y21353D1*
X31428Y21328D1*
X31332Y21304D1*
X31186D1*
X31089Y21328D1*
X31040Y21353D1*
X30992Y21426D1*
Y21645D1*
X32012D1*
X30993Y21047D2*
X31041Y21120D1*
X31187Y21169D1*
X31430Y21193D1*
X31576D1*
X31818Y21169D1*
X31964Y21120D1*
X32012Y21047D1*
Y20999D1*
X31964Y20926D1*
X31818Y20878D1*
X31576Y20853D1*
X31430D1*
X31187Y20878D1*
X31041Y20926D1*
X30993Y20999D1*
Y21047D1*
X31187Y20878D2*
X31818Y21169D1*
X31915Y20718D2*
X31964Y20742D1*
X32012Y20718D1*
X31964Y20693D1*
X31915Y20718D1*
X31235Y20557D2*
X31187D1*
X31089Y20533D1*
X31041Y20509D1*
X30993Y20460D1*
Y20363D1*
X31041Y20315D1*
X31089Y20290D1*
X31187Y20266D1*
X31284D1*
X31381Y20290D1*
X31526Y20339D1*
X32012Y20582D1*
Y20242D1*
X30993Y19984D2*
X31041Y20057D1*
X31187Y20106D1*
X31430Y20130D1*
X31576D1*
X31818Y20106D1*
X31964Y20057D1*
X32012Y19984D1*
Y19936D1*
X31964Y19863D1*
X31818Y19815D1*
X31576Y19790D1*
X31430D1*
X31187Y19815D1*
X31041Y19863D1*
X30993Y19936D1*
Y19984D1*
X31187Y19815D2*
X31818Y20106D1*
X24208Y22010D2*
D91*
X24714D1*
Y20989D1*
Y21524D2*
X24403D1*
X23957Y22010D2*
Y20989D1*
X23706Y21378D2*
X23240D1*
Y21475D1*
X23278Y21573D1*
X23317Y21621D1*
X23395Y21670D1*
X23512D1*
X23589Y21621D1*
X23667Y21524D1*
X23706Y21378D1*
Y21281D1*
X23667Y21135D1*
X23589Y21039D1*
X23512Y20989D1*
X23395D1*
X23317Y21039D1*
X23240Y21135D1*
X22989Y21670D2*
X22561Y20989D1*
Y21670D2*
X22989Y20989D1*
X20898D2*
Y22010D1*
X21209Y20989D1*
X21520Y22010D1*
Y20989D1*
X20453Y21670D2*
X20530Y21621D1*
X20609Y21524D1*
X20647Y21378D1*
Y21281D1*
X20609Y21135D1*
X20530Y21039D1*
X20453Y20989D1*
X20336D1*
X20258Y21039D1*
X20181Y21135D1*
X20141Y21281D1*
Y21378D1*
X20181Y21524D1*
X20258Y21621D1*
X20336Y21670D1*
X20453D1*
X19424Y22010D2*
Y20989D1*
Y21524D2*
X19501Y21621D1*
X19579Y21670D1*
X19696D1*
X19774Y21621D1*
X19852Y21524D1*
X19890Y21378D1*
Y21281D1*
X19852Y21135D1*
X19774Y21039D1*
X19696Y20989D1*
X19579D1*
X19501Y21039D1*
X19424Y21135D1*
X19173Y21670D2*
Y21183D1*
X19134Y21039D1*
X19056Y20989D1*
X18939D1*
X18862Y21039D1*
X18745Y21183D1*
Y21670D2*
Y20989D1*
X18494Y22010D2*
Y20989D1*
X18243Y21378D2*
X17777D1*
Y21475D1*
X17816Y21573D1*
X17854Y21621D1*
X17933Y21670D1*
X18049D1*
X18127Y21621D1*
X18205Y21524D1*
X18243Y21378D1*
Y21281D1*
X18205Y21135D1*
X18127Y21039D1*
X18049Y20989D1*
X17933D1*
X17854Y21039D1*
X17777Y21135D1*
M02*
