G04 DipTrace 2.4.0.2*
%IN3dBBLEnotune.g3l*%
%MOMM*%
%ADD14C,0.381*%
%ADD15C,0.457*%
%ADD18C,0.127*%
%ADD21C,0.584*%
%ADD29C,1.6*%
%ADD31C,1.7*%
%ADD47C,0.711*%
%FSLAX53Y53*%
G04*
G71*
G90*
G75*
G01*
%LNInner2_Plane*%
%LPD*%
X14206Y17338D2*
D15*
X13793D1*
X12984Y18147D1*
Y24995D1*
X13311Y25322D1*
X14751D1*
X14899Y25469D1*
X15703D1*
X16159Y25013D1*
X25480D1*
X25851Y24643D1*
Y21553D1*
X25537Y20947D1*
X24791Y20341D1*
X23294Y19736D1*
X22649Y19143D1*
Y18597D1*
X14069Y14590D2*
D21*
X13257D1*
X13080Y14413D1*
Y13451D1*
X13457Y13073D1*
X13810D1*
X14731D1*
X15299Y12505D1*
X17669D1*
X18862Y13697D1*
X21448D1*
X21895Y13251D1*
X28235D1*
X29955Y14970D1*
Y15599D1*
X29569Y15986D1*
X13810Y11270D2*
D14*
Y13073D1*
X17199Y19024D2*
X16995D1*
X16414Y19605D1*
Y19986D1*
X16543Y20114D1*
D15*
X13692Y22648D3*
X17217Y23185D3*
X18629Y23094D3*
X18709Y23866D3*
X18914Y24415D3*
X20174Y26031D3*
X23622Y15361D3*
X23772Y14795D3*
X23581Y14123D3*
X22375Y13900D3*
X22982Y13933D3*
X20487Y12888D3*
X12281Y12524D3*
X26426Y15222D3*
X25205Y25708D3*
X16244Y15119D3*
X14069Y14590D3*
X17199Y19024D3*
X15687Y17828D3*
X15792Y17236D3*
X14206Y17338D3*
X22649Y18597D3*
X24362Y18820D3*
X27252Y16109D3*
X27728Y14680D3*
X29704Y18168D3*
X27103Y14601D3*
X29569Y15986D3*
X29109Y19336D3*
X15024Y13793D3*
X19190Y20736D3*
X19762Y20529D3*
X25352Y16635D3*
X20921Y20831D3*
X20338Y20634D3*
X20119Y20064D3*
X24588Y17800D3*
X27330Y23846D3*
X22709Y25980D3*
X17908Y21790D3*
X27203Y19017D3*
X19820Y12890D3*
X26792Y19558D3*
X30687Y20696D3*
X26526Y22126D3*
X25412Y19889D3*
X31962Y20398D3*
X28454Y21151D3*
X28763Y20178D3*
X31027Y25464D3*
X17250Y13156D3*
X12463Y25513D3*
X15386Y24820D3*
X17665Y26046D3*
X22760Y12595D3*
X24544Y21691D3*
X21402Y23839D3*
X26717Y17154D3*
X27778Y12398D3*
X27612Y22511D3*
X26505Y23797D3*
X24117Y20717D3*
X11636Y22638D3*
X11679Y17664D3*
X17638Y11674D3*
X20144D3*
X25234Y12216D3*
X16353Y18004D3*
X17460Y19558D3*
X17312Y20127D3*
X16543Y20114D3*
X13730Y19677D3*
X14771Y23390D3*
X17739Y24586D2*
D18*
X18513D1*
X19315D2*
X19819D1*
X17739Y24462D2*
X18480D1*
X19348D2*
X19819D1*
X17741Y24339D2*
X18484D1*
X19344D2*
X19819D1*
X17741Y24215D2*
X18456D1*
X19301D2*
X19819D1*
X17741Y24091D2*
X18337D1*
X19199D2*
X19819D1*
X17741Y23968D2*
X18285D1*
X19134D2*
X19819D1*
X17741Y23844D2*
X18273D1*
X19146D2*
X19819D1*
X17743Y23720D2*
X18299D1*
X19120D2*
X19819D1*
X17743Y23597D2*
X18368D1*
X19049D2*
X19819D1*
X17743Y23473D2*
X18426D1*
X18880D2*
X19819D1*
X17743Y23349D2*
X18277D1*
X18979D2*
X19819D1*
X17745Y23226D2*
X18214D1*
X19045D2*
X19819D1*
X17745Y23102D2*
X18192D1*
X19065D2*
X19819D1*
X17745Y22978D2*
X18208D1*
X19049D2*
X19819D1*
X17745Y22855D2*
X18267D1*
X18991D2*
X19819D1*
X17745Y22731D2*
X18398D1*
X18860D2*
X19819D1*
X17747Y22607D2*
X19819D1*
X17747Y22484D2*
X19819D1*
X17747Y22360D2*
X19819D1*
X17747Y22236D2*
X19819D1*
X18197Y22113D2*
X19819D1*
X18295Y21989D2*
X19819D1*
X18338Y21865D2*
X19819D1*
X18342Y21742D2*
X19871D1*
X18309Y21618D2*
X19990D1*
X18225Y21494D2*
X20109D1*
X17979Y21371D2*
X20226D1*
X18013Y21247D2*
X20825D1*
X21017D2*
X21335D1*
X18122Y21123D2*
X19005D1*
X19374D2*
X20601D1*
X21241D2*
X21482D1*
X18267Y21000D2*
X18845D1*
X19535D2*
X20111D1*
X21323D2*
X21502D1*
X18412Y20876D2*
X18777D1*
X21357D2*
X21502D1*
X18555Y20752D2*
X18753D1*
X21351D2*
X21502D1*
X18699Y20629D2*
X18767D1*
X21307D2*
X21502D1*
X13421Y20505D2*
X16416D1*
X21204D2*
X21502D1*
X13421Y20381D2*
X16596D1*
X20690D2*
X21502D1*
X13421Y20258D2*
X16779D1*
X19134D2*
X19424D1*
X20545D2*
X21468D1*
X13421Y20134D2*
X16876D1*
X17749D2*
X17936D1*
X19198D2*
X19595D1*
X20551D2*
X21414D1*
X14004Y20010D2*
X16892D1*
X17731D2*
X18069D1*
X19198D2*
X19686D1*
X20553D2*
X21365D1*
X14112Y19887D2*
X16950D1*
X17741D2*
X18202D1*
X19198D2*
X19722D1*
X20517D2*
X21365D1*
X14157Y19763D2*
X17077D1*
X17844D2*
X18232D1*
X19198D2*
X19809D1*
X20430D2*
X21365D1*
X14165Y19639D2*
X17031D1*
X17888D2*
X18232D1*
X19198D2*
X21365D1*
X14133Y19516D2*
X17025D1*
X17894D2*
X18232D1*
X19198D2*
X21365D1*
X14056Y19392D2*
X17057D1*
X17862D2*
X18232D1*
X19198D2*
X21365D1*
X13421Y19268D2*
X13606D1*
X13854D2*
X17138D1*
X17783D2*
X18232D1*
X19198D2*
X21365D1*
X13421Y19145D2*
X17354D1*
X17564D2*
X22212D1*
X13421Y19021D2*
X17803D1*
X18213D2*
X18565D1*
X18975D2*
X19327D1*
X19737D2*
X20089D1*
X20499D2*
X20851D1*
X21261D2*
X21613D1*
X22023D2*
X22212D1*
X13421Y18897D2*
X17608D1*
X13421Y18774D2*
X17513D1*
X13421Y18650D2*
X17464D1*
X13421Y18526D2*
X17444D1*
X13421Y18403D2*
X16196D1*
X16511D2*
X17454D1*
X13465Y18279D2*
X16017D1*
X16689D2*
X17491D1*
X13588Y18155D2*
X15404D1*
X16763D2*
X17569D1*
X13711Y18032D2*
X15303D1*
X16788D2*
X17535D1*
X13836Y17908D2*
X15257D1*
X16779D2*
X17477D1*
X13959Y17784D2*
X15253D1*
X16727D2*
X17452D1*
X12784Y17661D2*
X12860D1*
X14493D2*
X15285D1*
X16614D2*
X17456D1*
X12784Y17537D2*
X12983D1*
X14594D2*
X15366D1*
X16104D2*
X17489D1*
X12784Y17413D2*
X13106D1*
X14635D2*
X15394D1*
X16189D2*
X17557D1*
X12784Y17290D2*
X13229D1*
X14639D2*
X15358D1*
X16225D2*
X17547D1*
X12784Y17166D2*
X13354D1*
X14606D2*
X15360D1*
X16223D2*
X17481D1*
X12784Y17042D2*
X13477D1*
X14522D2*
X15402D1*
X16181D2*
X17452D1*
X12784Y16919D2*
X13717D1*
X14282D2*
X15499D1*
X16086D2*
X17450D1*
X12782Y16795D2*
X17477D1*
X12782Y16671D2*
X17539D1*
X12782Y16548D2*
X17565D1*
X12782Y16424D2*
X17491D1*
X12782Y16300D2*
X17456D1*
X12782Y16177D2*
X17448D1*
X12782Y16053D2*
X17470D1*
X12780Y15929D2*
X17523D1*
X12780Y15806D2*
X17585D1*
X12780Y15682D2*
X17503D1*
X12780Y15558D2*
X17460D1*
X12780Y15435D2*
X15948D1*
X16538D2*
X17448D1*
X12780Y15311D2*
X15852D1*
X16634D2*
X17464D1*
X12780Y15187D2*
X15813D1*
X16675D2*
X17509D1*
X12780Y15064D2*
X13128D1*
X14197D2*
X15811D1*
X16677D2*
X17597D1*
X14580Y14940D2*
X15846D1*
X16640D2*
X17515D1*
X14578Y14816D2*
X15934D1*
X16552D2*
X17466D1*
X14578Y14693D2*
X17448D1*
X14578Y14569D2*
X17458D1*
X14578Y14445D2*
X17497D1*
X14578Y14322D2*
X17575D1*
X14578Y14198D2*
X17722D1*
X18299D2*
X18484D1*
X14576Y14074D2*
X18541D1*
X14576Y13951D2*
X17037D1*
X14576Y13827D2*
X16914D1*
X14576Y13703D2*
X16789D1*
X14576Y13580D2*
X16666D1*
X15046Y13456D2*
X16543D1*
X17615Y16592D2*
X17558Y16660D1*
X17525Y16714D1*
X17498Y16772D1*
X17478Y16832D1*
X17465Y16894D1*
X17460Y16958D1*
X17462Y17021D1*
X17470Y17084D1*
X17487Y17145D1*
X17510Y17204D1*
X17539Y17261D1*
X17575Y17313D1*
X17616Y17359D1*
X17561Y17424D1*
X17528Y17478D1*
X17502Y17535D1*
X17482Y17596D1*
X17469Y17658D1*
X17463Y17721D1*
X17465Y17784D1*
X17474Y17847D1*
X17490Y17909D1*
X17513Y17968D1*
X17543Y18024D1*
X17579Y18076D1*
X17614Y18116D1*
X17555Y18190D1*
X17522Y18244D1*
X17495Y18302D1*
X17475Y18362D1*
X17462Y18424D1*
X17457Y18488D1*
X17458Y18551D1*
X17467Y18614D1*
X17483Y18675D1*
X17506Y18734D1*
X17536Y18791D1*
X17572Y18843D1*
X17614Y18891D1*
X17661Y18933D1*
X17712Y18970D1*
X17768Y19001D1*
X17826Y19025D1*
X17888Y19043D1*
X17950Y19053D1*
X18014Y19056D1*
X18077Y19052D1*
X18139Y19040D1*
X18200Y19021D1*
X18258Y18996D1*
X18313Y18964D1*
X18388Y18902D1*
X18474Y18970D1*
X18530Y19001D1*
X18588Y19025D1*
X18650Y19043D1*
X18712Y19053D1*
X18776Y19056D1*
X18839Y19052D1*
X18901Y19040D1*
X18962Y19021D1*
X19020Y18996D1*
X19075Y18964D1*
X19150Y18902D1*
X19236Y18970D1*
X19292Y19001D1*
X19350Y19025D1*
X19412Y19043D1*
X19474Y19053D1*
X19538Y19056D1*
X19601Y19052D1*
X19663Y19040D1*
X19724Y19021D1*
X19782Y18996D1*
X19837Y18964D1*
X19912Y18902D1*
X19998Y18970D1*
X20054Y19001D1*
X20112Y19025D1*
X20174Y19043D1*
X20236Y19053D1*
X20300Y19056D1*
X20363Y19052D1*
X20425Y19040D1*
X20486Y19021D1*
X20544Y18996D1*
X20599Y18964D1*
X20674Y18902D1*
X20760Y18970D1*
X20816Y19001D1*
X20874Y19025D1*
X20936Y19043D1*
X20998Y19053D1*
X21062Y19056D1*
X21125Y19052D1*
X21187Y19040D1*
X21248Y19021D1*
X21306Y18996D1*
X21361Y18964D1*
X21436Y18902D1*
X21522Y18970D1*
X21578Y19001D1*
X21636Y19025D1*
X21698Y19043D1*
X21760Y19053D1*
X21824Y19056D1*
X21887Y19052D1*
X21949Y19040D1*
X22010Y19021D1*
X22068Y18996D1*
X22123Y18964D1*
X22173Y18925D1*
X22226Y18874D1*
X22225Y19162D1*
X21441Y19165D1*
X21387Y19196D1*
X21377Y19228D1*
X21379Y20017D1*
X21515Y20341D1*
Y21105D1*
X21212Y21363D1*
X20271Y21364D1*
X20227Y21383D1*
X19849Y21780D1*
X19832Y21822D1*
X19829Y24589D1*
X19299D1*
X19320Y24538D1*
X19334Y24476D1*
X19338Y24415D1*
X19333Y24352D1*
X19319Y24290D1*
X19296Y24231D1*
X19264Y24176D1*
X19225Y24126D1*
X19178Y24083D1*
X19099Y24035D1*
X19115Y23989D1*
X19129Y23927D1*
X19133Y23866D1*
X19128Y23803D1*
X19114Y23741D1*
X19091Y23682D1*
X19059Y23627D1*
X19020Y23577D1*
X18973Y23534D1*
X18921Y23498D1*
X18839Y23463D1*
X18894Y23425D1*
X18941Y23382D1*
X18980Y23332D1*
X19012Y23277D1*
X19034Y23218D1*
X19048Y23156D1*
X19053Y23094D1*
X19048Y23031D1*
X19034Y22969D1*
X19011Y22910D1*
X18979Y22855D1*
X18939Y22806D1*
X18893Y22762D1*
X18840Y22727D1*
X18783Y22699D1*
X18723Y22681D1*
X18660Y22671D1*
X18596D1*
X18534Y22681D1*
X18473Y22700D1*
X18416Y22727D1*
X18364Y22763D1*
X18317Y22806D1*
X18278Y22856D1*
X18246Y22911D1*
X18223Y22970D1*
X18209Y23032D1*
X18204Y23095D1*
X18209Y23158D1*
X18224Y23220D1*
X18247Y23279D1*
X18279Y23334D1*
X18318Y23384D1*
X18365Y23427D1*
X18418Y23462D1*
X18499Y23497D1*
X18444Y23535D1*
X18398Y23578D1*
X18358Y23628D1*
X18327Y23682D1*
X18303Y23742D1*
X18289Y23803D1*
X18285Y23867D1*
X18290Y23930D1*
X18304Y23992D1*
X18327Y24051D1*
X18359Y24106D1*
X18399Y24155D1*
X18445Y24198D1*
X18525Y24247D1*
X18508Y24291D1*
X18494Y24353D1*
X18490Y24416D1*
X18495Y24479D1*
X18509Y24541D1*
X18529Y24591D1*
X17987Y24589D1*
X17727D1*
X17735Y22176D1*
X17815Y22204D1*
X17878Y22213D1*
X17941D1*
X18004Y22204D1*
X18065Y22185D1*
X18122Y22157D1*
X18174Y22121D1*
X18220Y22078D1*
X18260Y22028D1*
X18291Y21973D1*
X18314Y21914D1*
X18328Y21852D1*
X18333Y21790D1*
X18328Y21727D1*
X18314Y21665D1*
X18290Y21606D1*
X18259Y21551D1*
X18219Y21502D1*
X18173Y21459D1*
X18120Y21423D1*
X18063Y21395D1*
X18002Y21377D1*
X17940Y21367D1*
X17898D1*
X18104Y21127D1*
X18836Y20502D1*
X18807Y20552D1*
X18784Y20611D1*
X18770Y20673D1*
X18766Y20736D1*
X18770Y20800D1*
X18785Y20861D1*
X18808Y20920D1*
X18840Y20975D1*
X18879Y21025D1*
X18926Y21068D1*
X18979Y21103D1*
X19036Y21131D1*
X19097Y21149D1*
X19159Y21159D1*
X19223Y21158D1*
X19285Y21149D1*
X19346Y21130D1*
X19403Y21102D1*
X19455Y21066D1*
X19502Y21023D1*
X19541Y20973D1*
X19576Y20909D1*
X19608Y20924D1*
X19669Y20943D1*
X19732Y20952D1*
X19795D1*
X19858Y20942D1*
X19918Y20923D1*
X19993Y20883D1*
X20028Y20924D1*
X20075Y20967D1*
X20127Y21002D1*
X20184Y21030D1*
X20245Y21048D1*
X20308Y21057D1*
X20371D1*
X20434Y21048D1*
X20494Y21029D1*
X20535Y21009D1*
X20571Y21071D1*
X20611Y21121D1*
X20658Y21164D1*
X20710Y21199D1*
X20768Y21227D1*
X20828Y21245D1*
X20891Y21254D1*
X20954D1*
X21017Y21245D1*
X21078Y21226D1*
X21135Y21198D1*
X21187Y21162D1*
X21233Y21119D1*
X21273Y21069D1*
X21304Y21014D1*
X21327Y20955D1*
X21341Y20893D1*
X21346Y20831D1*
X21341Y20768D1*
X21327Y20706D1*
X21303Y20647D1*
X21272Y20592D1*
X21232Y20543D1*
X21186Y20499D1*
X21133Y20464D1*
X21076Y20436D1*
X21015Y20418D1*
X20953Y20408D1*
X20889D1*
X20826Y20418D1*
X20766Y20437D1*
X20725Y20456D1*
X20688Y20395D1*
X20649Y20346D1*
X20602Y20303D1*
X20550Y20267D1*
X20502Y20244D1*
X20525Y20188D1*
X20539Y20126D1*
X20544Y20064D1*
X20539Y20001D1*
X20525Y19939D1*
X20501Y19880D1*
X20470Y19825D1*
X20430Y19776D1*
X20384Y19732D1*
X20331Y19697D1*
X20274Y19669D1*
X20213Y19651D1*
X20151Y19641D1*
X20087D1*
X20024Y19651D1*
X19964Y19670D1*
X19907Y19697D1*
X19854Y19733D1*
X19808Y19776D1*
X19768Y19826D1*
X19737Y19881D1*
X19714Y19940D1*
X19700Y20002D1*
X19695Y20065D1*
X19699Y20111D1*
X19606Y20134D1*
X19549Y20162D1*
X19497Y20198D1*
X19451Y20241D1*
X19411Y20291D1*
X19376Y20355D1*
X19284Y20322D1*
X19221Y20312D1*
X19158Y20313D1*
X19095Y20322D1*
X19011Y20352D1*
X19164Y20220D1*
X19185Y20183D1*
X19186Y19228D1*
X19155Y19175D1*
X19122Y19165D1*
X18308Y19168D1*
X18254Y19200D1*
X18244Y19232D1*
Y19861D1*
X17888Y20189D1*
X17725Y20222D1*
X17736Y20127D1*
X17731Y20064D1*
X17717Y20002D1*
X17681Y19921D1*
X17726Y19889D1*
X17772Y19846D1*
X17811Y19796D1*
X17843Y19741D1*
X17866Y19682D1*
X17880Y19620D1*
X17884Y19558D1*
X17879Y19495D1*
X17865Y19433D1*
X17842Y19374D1*
X17810Y19319D1*
X17771Y19270D1*
X17724Y19227D1*
X17672Y19191D1*
X17615Y19163D1*
X17554Y19145D1*
X17491Y19135D1*
X17428D1*
X17365Y19145D1*
X17304Y19164D1*
X17247Y19191D1*
X17195Y19227D1*
X17149Y19270D1*
X17109Y19320D1*
X17077Y19375D1*
X17054Y19434D1*
X17040Y19496D1*
X17036Y19559D1*
X17041Y19622D1*
X17055Y19684D1*
X17091Y19766D1*
X17047Y19796D1*
X17000Y19839D1*
X16961Y19889D1*
X16929Y19944D1*
X16906Y20003D1*
X16892Y20065D1*
X16888Y20128D1*
X16892Y20189D1*
X16253Y20626D1*
X13410Y20625D1*
X13408Y20042D1*
Y19953D1*
X13466Y20010D1*
X13519Y20045D1*
X13576Y20073D1*
X13637Y20091D1*
X13699Y20101D1*
X13763Y20100D1*
X13826Y20091D1*
X13886Y20072D1*
X13943Y20044D1*
X13995Y20008D1*
X14042Y19965D1*
X14081Y19915D1*
X14113Y19860D1*
X14136Y19801D1*
X14150Y19739D1*
X14154Y19677D1*
X14149Y19614D1*
X14135Y19552D1*
X14112Y19493D1*
X14080Y19438D1*
X14041Y19389D1*
X13994Y19346D1*
X13942Y19310D1*
X13884Y19283D1*
X13824Y19264D1*
X13761Y19254D1*
X13698Y19255D1*
X13635Y19264D1*
X13574Y19283D1*
X13517Y19310D1*
X13465Y19346D1*
X13407Y19403D1*
X13408Y18322D1*
X13970Y17761D1*
X14206Y17762D1*
X14269Y17757D1*
X14331Y17743D1*
X14390Y17720D1*
X14445Y17688D1*
X14495Y17649D1*
X14538Y17602D1*
X14574Y17550D1*
X14601Y17492D1*
X14620Y17432D1*
X14629Y17369D1*
Y17306D1*
X14620Y17243D1*
X14601Y17182D1*
X14573Y17125D1*
X14537Y17073D1*
X14494Y17026D1*
X14445Y16987D1*
X14390Y16955D1*
X14330Y16932D1*
X14269Y16918D1*
X14143Y16914D1*
X13793D1*
X13730Y16918D1*
X13668Y16932D1*
X13609Y16956D1*
X13554Y16987D1*
X13493Y17038D1*
X12774Y17758D1*
X12767Y15048D1*
X13086Y15046D1*
X13186Y15073D1*
X13320Y15078D1*
X14069D1*
X14132Y15074D1*
X14194Y15061D1*
X14256Y15040D1*
X14504Y15038D1*
X14557Y15007D1*
X14567Y14975D1*
X14563Y13560D1*
X14731Y13561D1*
X14794Y13557D1*
X14856Y13545D1*
X14916Y13524D1*
X14973Y13496D1*
X15026Y13461D1*
X15075Y13418D1*
X15122Y13372D1*
X16468Y13368D1*
X17142Y14042D1*
X17187Y14061D1*
X18542Y14064D1*
X18612Y14116D1*
X18623Y14122D1*
X18624Y14144D1*
X18564Y14164D1*
X18507Y14192D1*
X18453Y14226D1*
X18391Y14278D1*
X18344Y14236D1*
X18291Y14200D1*
X18235Y14171D1*
X18175Y14149D1*
X18114Y14133D1*
X18051Y14125D1*
X17988Y14124D1*
X17924Y14130D1*
X17862Y14144D1*
X17802Y14164D1*
X17745Y14192D1*
X17691Y14226D1*
X17642Y14265D1*
X17597Y14310D1*
X17558Y14360D1*
X17525Y14414D1*
X17498Y14472D1*
X17478Y14532D1*
X17465Y14594D1*
X17460Y14658D1*
X17462Y14721D1*
X17470Y14784D1*
X17487Y14845D1*
X17510Y14904D1*
X17539Y14961D1*
X17575Y15013D1*
X17616Y15059D1*
X17558Y15127D1*
X17525Y15181D1*
X17498Y15239D1*
X17478Y15299D1*
X17465Y15361D1*
X17460Y15424D1*
X17462Y15488D1*
X17470Y15551D1*
X17487Y15612D1*
X17510Y15671D1*
X17539Y15727D1*
X17575Y15779D1*
X17616Y15826D1*
X17558Y15894D1*
X17525Y15948D1*
X17498Y16005D1*
X17478Y16066D1*
X17465Y16128D1*
X17460Y16191D1*
X17462Y16254D1*
X17470Y16317D1*
X17487Y16379D1*
X17510Y16438D1*
X17539Y16494D1*
X17575Y16546D1*
X17616Y16592D1*
X16663Y15056D2*
X16649Y14994D1*
X16626Y14935D1*
X16594Y14880D1*
X16554Y14830D1*
X16508Y14787D1*
X16455Y14751D1*
X16398Y14724D1*
X16338Y14705D1*
X16275Y14696D1*
X16211D1*
X16149Y14705D1*
X16088Y14724D1*
X16031Y14752D1*
X15979Y14788D1*
X15932Y14831D1*
X15893Y14880D1*
X15861Y14935D1*
X15838Y14995D1*
X15824Y15056D1*
X15819Y15120D1*
X15824Y15183D1*
X15839Y15245D1*
X15862Y15304D1*
X15894Y15359D1*
X15933Y15408D1*
X15980Y15451D1*
X16032Y15487D1*
X16090Y15514D1*
X16150Y15533D1*
X16213Y15542D1*
X16277D1*
X16339Y15532D1*
X16400Y15513D1*
X16457Y15485D1*
X16509Y15449D1*
X16556Y15406D1*
X16595Y15356D1*
X16626Y15301D1*
X16649Y15242D1*
X16663Y15180D1*
X16668Y15119D1*
X16663Y15056D1*
X16083Y17679D2*
X16069Y17644D1*
X16033Y17584D1*
X16104Y17523D1*
X16143Y17474D1*
X16175Y17418D1*
X16198Y17359D1*
X16211Y17297D1*
X16216Y17236D1*
X16211Y17173D1*
X16197Y17111D1*
X16174Y17052D1*
X16142Y16997D1*
X16103Y16947D1*
X16056Y16904D1*
X16004Y16868D1*
X15946Y16841D1*
X15886Y16822D1*
X15823Y16813D1*
X15760D1*
X15697Y16823D1*
X15636Y16841D1*
X15579Y16869D1*
X15527Y16905D1*
X15480Y16948D1*
X15441Y16998D1*
X15409Y17053D1*
X15386Y17112D1*
X15372Y17174D1*
X15368Y17237D1*
X15372Y17300D1*
X15387Y17362D1*
X15410Y17421D1*
X15446Y17480D1*
X15375Y17540D1*
X15336Y17590D1*
X15304Y17645D1*
X15281Y17704D1*
X15267Y17766D1*
X15263Y17829D1*
X15267Y17892D1*
X15282Y17954D1*
X15305Y18013D1*
X15337Y18068D1*
X15377Y18117D1*
X15423Y18160D1*
X15476Y18196D1*
X15533Y18223D1*
X15594Y18242D1*
X15656Y18251D1*
X15720D1*
X15783Y18241D1*
X15843Y18222D1*
X15900Y18195D1*
X15957Y18155D1*
X16003Y18244D1*
X16043Y18294D1*
X16090Y18337D1*
X16142Y18372D1*
X16199Y18400D1*
X16260Y18418D1*
X16323Y18428D1*
X16386Y18427D1*
X16449Y18418D1*
X16509Y18399D1*
X16566Y18371D1*
X16619Y18335D1*
X16665Y18292D1*
X16704Y18242D1*
X16736Y18187D1*
X16759Y18128D1*
X16773Y18066D1*
X16777Y18004D1*
X16773Y17941D1*
X16758Y17879D1*
X16735Y17820D1*
X16703Y17765D1*
X16664Y17716D1*
X16617Y17673D1*
X16565Y17637D1*
X16508Y17610D1*
X16447Y17591D1*
X16384Y17581D1*
X16321Y17582D1*
X16258Y17591D1*
X16198Y17610D1*
X16140Y17637D1*
X16084Y17677D1*
D29*
X29050Y26510D3*
X26510D3*
X23970D3*
X21430D3*
X18890D3*
D31*
X29050Y27780D3*
X26510D3*
X23970D3*
X21430D3*
X18890D3*
D29*
X11270Y16350D3*
D31*
X10000D3*
D29*
X16350Y11270D3*
D31*
Y10000D3*
D29*
Y26510D3*
D31*
Y27780D3*
D29*
X13810Y26510D3*
D31*
Y27780D3*
D29*
X11270Y23970D3*
D31*
X10000D3*
D29*
X11270Y21430D3*
D31*
X10000D3*
D29*
X11270Y18890D3*
D31*
X10000D3*
D29*
X31590Y13810D3*
Y16350D3*
Y18890D3*
D31*
X32860Y13810D3*
Y16350D3*
Y18890D3*
D29*
X18890Y11270D3*
D31*
Y10000D3*
D29*
X11270Y13810D3*
D31*
X10000D3*
D29*
X13810Y11270D3*
D31*
Y10000D3*
D29*
X21430Y11270D3*
D31*
Y10000D3*
D29*
X29050Y11270D3*
D31*
Y10000D3*
D29*
X26510Y11270D3*
D31*
Y10000D3*
D29*
X23970Y11270D3*
D31*
Y10000D3*
D47*
X18011Y16975D3*
X18773D3*
X19535D3*
X20297D3*
X21059D3*
X21821D3*
X18011Y16208D3*
X18773D3*
X19535D3*
X20297D3*
X21059D3*
X21821D3*
X18014Y17738D3*
X18776D3*
X19538D3*
X20300D3*
X21062D3*
X21824D3*
X18011Y15441D3*
X18773D3*
X19535D3*
X20297D3*
X21059D3*
X21821D3*
X18011Y14675D3*
X18773D3*
X19535D3*
X20297D3*
X21059D3*
X21821D3*
X18007Y18505D3*
X18769D3*
X19531D3*
X20293D3*
X21055D3*
X21817D3*
M02*
