G04 DipTrace 2.4.0.2*
%IN3dBBLE.gts*%
%MOMM*%
%ADD10C,0.25*%
%ADD24R,0.9X0.7*%
%ADD47C,0.165*%
%ADD56R,0.762X1.397*%
%ADD57R,1.143X0.762*%
%ADD59C,0.95*%
%ADD65R,1.25X1.15*%
%ADD66O,0.25X0.8*%
%ADD67O,0.8X0.25*%
%ADD71R,1.05X2.45*%
%ADD72R,3.18X0.8*%
%ADD73R,0.61X0.62*%
%ADD74R,0.67X0.54*%
%ADD75R,0.8X0.95*%
%ADD76R,2.082X1.75*%
%ADD77R,1.75X2.05*%
%ADD78R,2.05X1.75*%
%ADD79R,1.65X1.75*%
%ADD81R,1.75X2.082*%
%ADD83R,1.75X1.65*%
%ADD84R,0.95X0.8*%
%ADD85R,0.35X0.3*%
%ADD86R,0.95X0.75*%
%ADD87R,0.75X0.95*%
%FSLAX53Y53*%
G04*
G71*
G90*
G75*
G01*
%LNTopMask*%
%LPD*%
G36*
X30565Y21245D2*
X28975D1*
Y22835D1*
X30565D1*
Y21245D1*
G37*
G36*
X32505D2*
X30915D1*
Y22835D1*
X32505D1*
Y21245D1*
G37*
G36*
Y23185D2*
X30915D1*
Y24775D1*
X32505D1*
Y23185D1*
G37*
G36*
X30565D2*
X28975D1*
Y24775D1*
X30565D1*
Y23185D1*
G37*
G36*
X25241Y17107D2*
X24941D1*
Y17707D1*
X25241D1*
Y17107D1*
G37*
G36*
X24741D2*
X24441D1*
Y17707D1*
X24741D1*
Y17107D1*
G37*
G36*
X24241D2*
X23941D1*
Y17707D1*
X24241D1*
Y17107D1*
G37*
G36*
Y16257D2*
X23941D1*
Y16857D1*
X24241D1*
Y16257D1*
G37*
G36*
X24741D2*
X24441D1*
Y16857D1*
X24741D1*
Y16257D1*
G37*
G36*
X25241D2*
X24941D1*
Y16857D1*
X25241D1*
Y16257D1*
G37*
G36*
X24585Y24021D2*
X25335D1*
Y23071D1*
X24585D1*
Y24021D1*
G37*
G36*
Y22721D2*
X25335D1*
Y21771D1*
X24585D1*
Y22721D1*
G37*
D87*
X20956Y22380D3*
Y23680D3*
X25329Y15451D3*
Y14151D3*
D86*
X16572Y24017D3*
X15272D3*
D87*
X14196Y21574D3*
Y22874D3*
D85*
X28542Y21737D3*
Y22287D3*
D86*
X15398Y20194D3*
X14098D3*
X19743Y21430D3*
X18443D3*
G36*
X23236Y19868D2*
X23986D1*
Y18918D1*
X23236D1*
Y19868D1*
G37*
G36*
Y21168D2*
X23986D1*
Y20218D1*
X23236D1*
Y21168D1*
G37*
D87*
X24467Y15335D3*
Y14035D3*
X15523Y13770D3*
Y15070D3*
X13624Y17738D3*
Y19038D3*
G36*
X27866Y21884D2*
Y21535D1*
X27566D1*
Y21884D1*
X27866D1*
G37*
G36*
X28416D2*
Y21535D1*
X28116D1*
Y21884D1*
X28416D1*
G37*
D24*
X19496Y23271D3*
Y24121D3*
X18046D3*
Y23271D3*
D84*
X14197Y13695D3*
Y15095D3*
D83*
X29050Y26510D3*
X26510D3*
X23970D3*
X21430D3*
X18890D3*
D81*
X29050Y27780D3*
X26510D3*
X23970D3*
X21430D3*
X18890D3*
D79*
X11270Y16350D3*
D78*
X10000D3*
D83*
X16350Y11270D3*
D77*
Y10000D3*
D83*
Y26510D3*
D77*
Y27780D3*
D83*
X13810Y26510D3*
D77*
Y27780D3*
D79*
X11270Y23970D3*
D78*
X10000D3*
D79*
X11270Y21430D3*
D78*
X10000D3*
D79*
X11270Y18890D3*
D78*
X10000D3*
D79*
X31590Y13810D3*
Y16350D3*
Y18890D3*
D76*
X32860Y13810D3*
Y16350D3*
Y18890D3*
D83*
X18890Y11270D3*
D77*
Y10000D3*
D79*
X11270Y13810D3*
D78*
X10000D3*
D83*
X13810Y11270D3*
D77*
Y10000D3*
D83*
X21430Y11270D3*
D77*
Y10000D3*
D83*
X29050Y11270D3*
D77*
Y10000D3*
D83*
X26510Y11270D3*
D77*
Y10000D3*
D83*
X23970Y11270D3*
D77*
Y10000D3*
D75*
X16059Y19027D3*
X14659D3*
D74*
X14697Y18110D3*
Y17250D3*
G36*
X25020Y20217D2*
X24270D1*
Y21167D1*
X25020D1*
Y20217D1*
G37*
G36*
Y18917D2*
X24270D1*
Y19867D1*
X25020D1*
Y18917D1*
G37*
D86*
X18161Y22349D3*
X19461D3*
D73*
X27506Y13963D3*
Y12803D3*
X30056D3*
Y13963D3*
D72*
X25178Y12743D3*
D71*
X26244Y13568D3*
D72*
X13850Y12743D3*
D71*
X12784Y13568D3*
D72*
X13850Y24993D3*
D71*
X12784Y24168D3*
D72*
X25178Y24993D3*
D71*
X26244Y24168D3*
G36*
X28232Y16892D2*
X28159Y16886D1*
X28089Y16867D1*
X28022Y16836D1*
X27963Y16794D1*
X27911Y16743D1*
X27869Y16683D1*
X27838Y16617D1*
X27819Y16546D1*
X27813Y16474D1*
D1*
X27819Y16401D1*
X27838Y16330D1*
X27869Y16264D1*
X27911Y16204D1*
X27963Y16153D1*
X28022Y16111D1*
X28089Y16080D1*
X28159Y16061D1*
X28232Y16055D1*
D1*
X28305Y16061D1*
X28375Y16080D1*
X28441Y16111D1*
X28501Y16153D1*
X28553Y16204D1*
X28595Y16264D1*
X28625Y16330D1*
X28644Y16401D1*
X28651Y16474D1*
D1*
X28644Y16546D1*
X28625Y16617D1*
X28595Y16683D1*
X28553Y16743D1*
X28501Y16794D1*
X28441Y16836D1*
X28375Y16867D1*
X28305Y16886D1*
X28232Y16892D1*
G37*
G36*
Y18162D2*
X28159Y18156D1*
X28089Y18137D1*
X28022Y18106D1*
X27963Y18064D1*
X27911Y18013D1*
X27869Y17953D1*
X27838Y17887D1*
X27819Y17816D1*
X27813Y17744D1*
D1*
X27819Y17671D1*
X27838Y17600D1*
X27869Y17534D1*
X27911Y17474D1*
X27963Y17423D1*
X28022Y17381D1*
X28089Y17350D1*
X28159Y17331D1*
X28232Y17325D1*
D1*
X28305Y17331D1*
X28375Y17350D1*
X28441Y17381D1*
X28501Y17423D1*
X28553Y17474D1*
X28595Y17534D1*
X28625Y17600D1*
X28644Y17671D1*
X28651Y17744D1*
D1*
X28644Y17816D1*
X28625Y17887D1*
X28595Y17953D1*
X28553Y18013D1*
X28501Y18064D1*
X28441Y18106D1*
X28375Y18137D1*
X28305Y18156D1*
X28232Y18162D1*
G37*
G36*
Y19432D2*
X28159Y19426D1*
X28089Y19407D1*
X28022Y19376D1*
X27963Y19334D1*
X27911Y19283D1*
X27869Y19223D1*
X27838Y19157D1*
X27819Y19086D1*
X27813Y19014D1*
D1*
X27819Y18941D1*
X27838Y18870D1*
X27869Y18804D1*
X27911Y18744D1*
X27963Y18693D1*
X28022Y18651D1*
X28089Y18620D1*
X28159Y18601D1*
X28232Y18595D1*
D1*
X28305Y18601D1*
X28375Y18620D1*
X28441Y18651D1*
X28501Y18693D1*
X28553Y18744D1*
X28595Y18804D1*
X28625Y18870D1*
X28644Y18941D1*
X28651Y19014D1*
D1*
X28644Y19086D1*
X28625Y19157D1*
X28595Y19223D1*
X28553Y19283D1*
X28501Y19334D1*
X28441Y19376D1*
X28375Y19407D1*
X28305Y19426D1*
X28232Y19432D1*
G37*
G36*
X29502D2*
X29429Y19426D1*
X29359Y19407D1*
X29292Y19376D1*
X29233Y19334D1*
X29181Y19283D1*
X29139Y19223D1*
X29108Y19157D1*
X29089Y19086D1*
X29083Y19014D1*
D1*
X29089Y18941D1*
X29108Y18870D1*
X29139Y18804D1*
X29181Y18744D1*
X29233Y18693D1*
X29292Y18651D1*
X29359Y18620D1*
X29429Y18601D1*
X29502Y18595D1*
D1*
X29575Y18601D1*
X29645Y18620D1*
X29711Y18651D1*
X29771Y18693D1*
X29823Y18744D1*
X29865Y18804D1*
X29895Y18870D1*
X29914Y18941D1*
X29921Y19014D1*
D1*
X29914Y19086D1*
X29895Y19157D1*
X29865Y19223D1*
X29823Y19283D1*
X29771Y19334D1*
X29711Y19376D1*
X29645Y19407D1*
X29575Y19426D1*
X29502Y19432D1*
G37*
G36*
Y18162D2*
X29429Y18156D1*
X29359Y18137D1*
X29292Y18106D1*
X29233Y18064D1*
X29181Y18013D1*
X29139Y17953D1*
X29108Y17887D1*
X29089Y17816D1*
X29083Y17744D1*
D1*
X29089Y17671D1*
X29108Y17600D1*
X29139Y17534D1*
X29181Y17474D1*
X29233Y17423D1*
X29292Y17381D1*
X29359Y17350D1*
X29429Y17331D1*
X29502Y17325D1*
D1*
X29575Y17331D1*
X29645Y17350D1*
X29711Y17381D1*
X29771Y17423D1*
X29823Y17474D1*
X29865Y17534D1*
X29895Y17600D1*
X29914Y17671D1*
X29921Y17744D1*
D1*
X29914Y17816D1*
X29895Y17887D1*
X29865Y17953D1*
X29823Y18013D1*
X29771Y18064D1*
X29711Y18106D1*
X29645Y18137D1*
X29575Y18156D1*
X29502Y18162D1*
G37*
G36*
Y16892D2*
X29429Y16886D1*
X29359Y16867D1*
X29292Y16836D1*
X29233Y16794D1*
X29181Y16743D1*
X29139Y16683D1*
X29108Y16617D1*
X29089Y16546D1*
X29083Y16474D1*
D1*
X29089Y16401D1*
X29108Y16330D1*
X29139Y16264D1*
X29181Y16204D1*
X29233Y16153D1*
X29292Y16111D1*
X29359Y16080D1*
X29429Y16061D1*
X29502Y16055D1*
D1*
X29575Y16061D1*
X29645Y16080D1*
X29711Y16111D1*
X29771Y16153D1*
X29823Y16204D1*
X29865Y16264D1*
X29895Y16330D1*
X29914Y16401D1*
X29921Y16474D1*
D1*
X29914Y16546D1*
X29895Y16617D1*
X29865Y16683D1*
X29823Y16743D1*
X29771Y16794D1*
X29711Y16836D1*
X29645Y16867D1*
X29575Y16886D1*
X29502Y16892D1*
G37*
D59*
X28867Y15204D3*
X27851Y20284D3*
X29883D3*
X20800Y16974D2*
D47*
Y16994D1*
X20802Y17013D1*
X20806Y17032D1*
X20810Y17051D1*
X20816Y17070D1*
X20823Y17088D1*
X20831Y17105D1*
X20840Y17122D1*
X20851Y17138D1*
X20862Y17154D1*
X20875Y17168D1*
X20888Y17182D1*
X20902Y17194D1*
X20917Y17206D1*
X20933Y17216D1*
X20949Y17225D1*
X20966Y17233D1*
X20984Y17240D1*
X21002Y17245D1*
X21020Y17249D1*
X21038Y17252D1*
X21057Y17253D1*
X21076D1*
X21094Y17252D1*
X21113Y17249D1*
X21131Y17245D1*
X21149Y17240D1*
X21166Y17233D1*
X21183Y17225D1*
X21199Y17216D1*
X21215Y17206D1*
X21230Y17194D1*
X21245Y17182D1*
X21258Y17168D1*
X21270Y17154D1*
X21282Y17138D1*
X21292Y17122D1*
X21302Y17105D1*
X21310Y17088D1*
X21317Y17070D1*
X21322Y17051D1*
X21327Y17032D1*
X21330Y17013D1*
X21332Y16994D1*
X21333Y16974D1*
X21332Y16955D1*
X21330Y16935D1*
X21327Y16916D1*
X21322Y16897D1*
X21317Y16879D1*
X21310Y16861D1*
X21302Y16843D1*
X21292Y16826D1*
X21282Y16810D1*
X21270Y16795D1*
X21258Y16780D1*
X21245Y16767D1*
X21230Y16754D1*
X21215Y16743D1*
X21199Y16733D1*
X21183Y16723D1*
X21166Y16716D1*
X21149Y16709D1*
X21131Y16704D1*
X21113Y16699D1*
X21094Y16697D1*
X21076Y16695D1*
X21057D1*
X21038Y16697D1*
X21020Y16699D1*
X21002Y16704D1*
X20984Y16709D1*
X20966Y16716D1*
X20949Y16723D1*
X20933Y16733D1*
X20917Y16743D1*
X20902Y16754D1*
X20888Y16767D1*
X20875Y16780D1*
X20862Y16795D1*
X20851Y16810D1*
X20840Y16826D1*
X20831Y16843D1*
X20823Y16861D1*
X20816Y16879D1*
X20810Y16897D1*
X20806Y16916D1*
X20802Y16935D1*
X20800Y16955D1*
Y16974D1*
X21560Y16978D2*
Y16997D1*
X21562Y17017D1*
X21566Y17036D1*
X21570Y17055D1*
X21576Y17074D1*
X21583Y17092D1*
X21591Y17109D1*
X21600Y17126D1*
X21611Y17142D1*
X21622Y17158D1*
X21635Y17172D1*
X21648Y17186D1*
X21662Y17198D1*
X21677Y17210D1*
X21693Y17220D1*
X21710Y17229D1*
X21727Y17237D1*
X21744Y17244D1*
X21762Y17249D1*
X21780Y17253D1*
X21799Y17256D1*
X21817Y17257D1*
X21836D1*
X21854Y17256D1*
X21873Y17253D1*
X21891Y17249D1*
X21909Y17244D1*
X21927Y17237D1*
X21944Y17229D1*
X21960Y17220D1*
X21976Y17210D1*
X21991Y17198D1*
X22005Y17186D1*
X22019Y17172D1*
X22031Y17158D1*
X22042Y17142D1*
X22053Y17126D1*
X22062Y17109D1*
X22070Y17092D1*
X22077Y17074D1*
X22083Y17055D1*
X22088Y17036D1*
X22091Y17017D1*
X22093Y16997D1*
Y16978D1*
Y16958D1*
X22091Y16939D1*
X22088Y16920D1*
X22083Y16901D1*
X22077Y16882D1*
X22070Y16864D1*
X22062Y16847D1*
X22053Y16830D1*
X22042Y16814D1*
X22031Y16798D1*
X22019Y16784D1*
X22005Y16770D1*
X21991Y16758D1*
X21976Y16746D1*
X21960Y16736D1*
X21944Y16727D1*
X21927Y16719D1*
X21909Y16712D1*
X21891Y16707D1*
X21873Y16703D1*
X21854Y16700D1*
X21836Y16699D1*
X21817D1*
X21799Y16700D1*
X21780Y16703D1*
X21762Y16707D1*
X21744Y16712D1*
X21727Y16719D1*
X21710Y16727D1*
X21693Y16736D1*
X21677Y16746D1*
X21662Y16758D1*
X21648Y16770D1*
X21635Y16784D1*
X21622Y16798D1*
X21611Y16814D1*
X21600Y16830D1*
X21591Y16847D1*
X21583Y16864D1*
X21576Y16882D1*
X21570Y16901D1*
X21566Y16920D1*
X21562Y16939D1*
X21560Y16958D1*
Y16978D1*
X19277Y16974D2*
X19278Y16994D1*
X19279Y17013D1*
X19283Y17032D1*
X19287Y17051D1*
X19293Y17070D1*
X19300Y17088D1*
X19308Y17105D1*
X19317Y17122D1*
X19328Y17138D1*
X19339Y17154D1*
X19352Y17168D1*
X19365Y17182D1*
X19379Y17194D1*
X19394Y17206D1*
X19410Y17216D1*
X19427Y17225D1*
X19444Y17233D1*
X19461Y17240D1*
X19479Y17245D1*
X19497Y17249D1*
X19516Y17252D1*
X19534Y17253D1*
X19553D1*
X19571Y17252D1*
X19590Y17249D1*
X19608Y17245D1*
X19626Y17240D1*
X19643Y17233D1*
X19660Y17225D1*
X19677Y17216D1*
X19692Y17206D1*
X19707Y17194D1*
X19722Y17182D1*
X19735Y17168D1*
X19748Y17154D1*
X19759Y17138D1*
X19769Y17122D1*
X19779Y17105D1*
X19787Y17088D1*
X19794Y17070D1*
X19800Y17051D1*
X19804Y17032D1*
X19807Y17013D1*
X19809Y16994D1*
X19810Y16974D1*
X19809Y16955D1*
X19807Y16935D1*
X19804Y16916D1*
X19800Y16897D1*
X19794Y16879D1*
X19787Y16861D1*
X19779Y16843D1*
X19769Y16826D1*
X19759Y16810D1*
X19748Y16795D1*
X19735Y16780D1*
X19722Y16767D1*
X19707Y16754D1*
X19692Y16743D1*
X19677Y16733D1*
X19660Y16723D1*
X19643Y16716D1*
X19626Y16709D1*
X19608Y16704D1*
X19590Y16699D1*
X19571Y16697D1*
X19553Y16695D1*
X19534D1*
X19516Y16697D1*
X19497Y16699D1*
X19479Y16704D1*
X19461Y16709D1*
X19444Y16716D1*
X19427Y16723D1*
X19410Y16733D1*
X19394Y16743D1*
X19379Y16754D1*
X19365Y16767D1*
X19352Y16780D1*
X19339Y16795D1*
X19328Y16810D1*
X19317Y16826D1*
X19308Y16843D1*
X19300Y16861D1*
X19293Y16879D1*
X19287Y16897D1*
X19283Y16916D1*
X19279Y16935D1*
X19278Y16955D1*
X19277Y16974D1*
X20036Y16978D2*
X20037Y16997D1*
X20039Y17017D1*
X20042Y17036D1*
X20046Y17055D1*
X20052Y17074D1*
X20059Y17092D1*
X20067Y17109D1*
X20077Y17126D1*
X20087Y17142D1*
X20099Y17158D1*
X20111Y17172D1*
X20124Y17186D1*
X20139Y17198D1*
X20154Y17210D1*
X20170Y17220D1*
X20186Y17229D1*
X20203Y17237D1*
X20221Y17244D1*
X20238Y17249D1*
X20257Y17253D1*
X20275Y17256D1*
X20294Y17257D1*
X20312D1*
X20331Y17256D1*
X20349Y17253D1*
X20368Y17249D1*
X20385Y17244D1*
X20403Y17237D1*
X20420Y17229D1*
X20436Y17220D1*
X20452Y17210D1*
X20467Y17198D1*
X20482Y17186D1*
X20495Y17172D1*
X20507Y17158D1*
X20519Y17142D1*
X20529Y17126D1*
X20539Y17109D1*
X20547Y17092D1*
X20554Y17074D1*
X20560Y17055D1*
X20564Y17036D1*
X20567Y17017D1*
X20569Y16997D1*
X20570Y16978D1*
X20569Y16958D1*
X20567Y16939D1*
X20564Y16920D1*
X20560Y16901D1*
X20554Y16882D1*
X20547Y16864D1*
X20539Y16847D1*
X20529Y16830D1*
X20519Y16814D1*
X20507Y16798D1*
X20495Y16784D1*
X20482Y16770D1*
X20467Y16758D1*
X20452Y16746D1*
X20436Y16736D1*
X20420Y16727D1*
X20403Y16719D1*
X20385Y16712D1*
X20368Y16707D1*
X20349Y16703D1*
X20331Y16700D1*
X20312Y16699D1*
X20294D1*
X20275Y16700D1*
X20257Y16703D1*
X20238Y16707D1*
X20221Y16712D1*
X20203Y16719D1*
X20186Y16727D1*
X20170Y16736D1*
X20154Y16746D1*
X20139Y16758D1*
X20124Y16770D1*
X20111Y16784D1*
X20099Y16798D1*
X20087Y16814D1*
X20077Y16830D1*
X20067Y16847D1*
X20059Y16864D1*
X20052Y16882D1*
X20046Y16901D1*
X20042Y16920D1*
X20039Y16939D1*
X20037Y16958D1*
X20036Y16978D1*
X18513D2*
Y16997D1*
X18515Y17017D1*
X18518Y17036D1*
X18523Y17055D1*
X18529Y17074D1*
X18536Y17092D1*
X18544Y17109D1*
X18553Y17126D1*
X18564Y17142D1*
X18575Y17158D1*
X18587Y17172D1*
X18601Y17186D1*
X18615Y17198D1*
X18630Y17210D1*
X18646Y17220D1*
X18662Y17229D1*
X18679Y17237D1*
X18697Y17244D1*
X18715Y17249D1*
X18733Y17253D1*
X18752Y17256D1*
X18770Y17257D1*
X18789D1*
X18807Y17256D1*
X18826Y17253D1*
X18844Y17249D1*
X18862Y17244D1*
X18879Y17237D1*
X18896Y17229D1*
X18913Y17220D1*
X18929Y17210D1*
X18944Y17198D1*
X18958Y17186D1*
X18971Y17172D1*
X18984Y17158D1*
X18995Y17142D1*
X19006Y17126D1*
X19015Y17109D1*
X19023Y17092D1*
X19030Y17074D1*
X19036Y17055D1*
X19040Y17036D1*
X19044Y17017D1*
X19046Y16997D1*
Y16978D1*
Y16958D1*
X19044Y16939D1*
X19040Y16920D1*
X19036Y16901D1*
X19030Y16882D1*
X19023Y16864D1*
X19015Y16847D1*
X19006Y16830D1*
X18995Y16814D1*
X18984Y16798D1*
X18971Y16784D1*
X18958Y16770D1*
X18944Y16758D1*
X18929Y16746D1*
X18913Y16736D1*
X18896Y16727D1*
X18879Y16719D1*
X18862Y16712D1*
X18844Y16707D1*
X18826Y16703D1*
X18807Y16700D1*
X18789Y16699D1*
X18770D1*
X18752Y16700D1*
X18733Y16703D1*
X18715Y16707D1*
X18697Y16712D1*
X18679Y16719D1*
X18662Y16727D1*
X18646Y16736D1*
X18630Y16746D1*
X18615Y16758D1*
X18601Y16770D1*
X18587Y16784D1*
X18575Y16798D1*
X18564Y16814D1*
X18553Y16830D1*
X18544Y16847D1*
X18536Y16864D1*
X18529Y16882D1*
X18523Y16901D1*
X18518Y16920D1*
X18515Y16939D1*
X18513Y16958D1*
Y16978D1*
X17750D2*
Y16997D1*
X17752Y17017D1*
X17756Y17036D1*
X17760Y17055D1*
X17766Y17074D1*
X17773Y17092D1*
X17781Y17109D1*
X17790Y17126D1*
X17801Y17142D1*
X17812Y17158D1*
X17824Y17172D1*
X17838Y17186D1*
X17852Y17198D1*
X17867Y17210D1*
X17883Y17220D1*
X17899Y17229D1*
X17916Y17237D1*
X17934Y17244D1*
X17952Y17249D1*
X17970Y17253D1*
X17988Y17256D1*
X18007Y17257D1*
X18025D1*
X18044Y17256D1*
X18062Y17253D1*
X18081Y17249D1*
X18099Y17244D1*
X18116Y17237D1*
X18133Y17229D1*
X18149Y17220D1*
X18165Y17210D1*
X18180Y17198D1*
X18195Y17186D1*
X18208Y17172D1*
X18220Y17158D1*
X18232Y17142D1*
X18242Y17126D1*
X18251Y17109D1*
X18260Y17092D1*
X18267Y17074D1*
X18272Y17055D1*
X18277Y17036D1*
X18280Y17017D1*
X18282Y16997D1*
X18283Y16978D1*
X18282Y16958D1*
X18280Y16939D1*
X18277Y16920D1*
X18272Y16901D1*
X18267Y16882D1*
X18260Y16864D1*
X18251Y16847D1*
X18242Y16830D1*
X18232Y16814D1*
X18220Y16798D1*
X18208Y16784D1*
X18195Y16770D1*
X18180Y16758D1*
X18165Y16746D1*
X18149Y16736D1*
X18133Y16727D1*
X18116Y16719D1*
X18099Y16712D1*
X18081Y16707D1*
X18062Y16703D1*
X18044Y16700D1*
X18025Y16699D1*
X18007D1*
X17988Y16700D1*
X17970Y16703D1*
X17952Y16707D1*
X17934Y16712D1*
X17916Y16719D1*
X17899Y16727D1*
X17883Y16736D1*
X17867Y16746D1*
X17852Y16758D1*
X17838Y16770D1*
X17824Y16784D1*
X17812Y16798D1*
X17801Y16814D1*
X17790Y16830D1*
X17781Y16847D1*
X17773Y16864D1*
X17766Y16882D1*
X17760Y16901D1*
X17756Y16920D1*
X17752Y16939D1*
X17750Y16958D1*
Y16978D1*
X20800Y16208D2*
Y16227D1*
X20802Y16247D1*
X20806Y16266D1*
X20810Y16285D1*
X20816Y16303D1*
X20823Y16322D1*
X20831Y16339D1*
X20840Y16356D1*
X20851Y16372D1*
X20862Y16388D1*
X20875Y16402D1*
X20888Y16416D1*
X20902Y16428D1*
X20917Y16440D1*
X20933Y16450D1*
X20949Y16459D1*
X20966Y16467D1*
X20984Y16474D1*
X21002Y16479D1*
X21020Y16483D1*
X21038Y16486D1*
X21057Y16487D1*
X21076D1*
X21094Y16486D1*
X21113Y16483D1*
X21131Y16479D1*
X21149Y16474D1*
X21166Y16467D1*
X21183Y16459D1*
X21199Y16450D1*
X21215Y16440D1*
X21230Y16428D1*
X21245Y16416D1*
X21258Y16402D1*
X21270Y16388D1*
X21282Y16372D1*
X21292Y16356D1*
X21302Y16339D1*
X21310Y16322D1*
X21317Y16303D1*
X21322Y16285D1*
X21327Y16266D1*
X21330Y16247D1*
X21332Y16227D1*
X21333Y16208D1*
X21332Y16188D1*
X21330Y16169D1*
X21327Y16150D1*
X21322Y16131D1*
X21317Y16112D1*
X21310Y16094D1*
X21302Y16076D1*
X21292Y16060D1*
X21282Y16043D1*
X21270Y16028D1*
X21258Y16014D1*
X21245Y16000D1*
X21230Y15987D1*
X21215Y15976D1*
X21199Y15966D1*
X21183Y15956D1*
X21166Y15948D1*
X21149Y15942D1*
X21131Y15936D1*
X21113Y15932D1*
X21094Y15930D1*
X21076Y15928D1*
X21057D1*
X21038Y15930D1*
X21020Y15932D1*
X21002Y15936D1*
X20984Y15942D1*
X20966Y15948D1*
X20949Y15956D1*
X20933Y15966D1*
X20917Y15976D1*
X20902Y15987D1*
X20888Y16000D1*
X20875Y16014D1*
X20862Y16028D1*
X20851Y16043D1*
X20840Y16060D1*
X20831Y16076D1*
X20823Y16094D1*
X20816Y16112D1*
X20810Y16131D1*
X20806Y16150D1*
X20802Y16169D1*
X20800Y16188D1*
Y16208D1*
X21560Y16211D2*
Y16231D1*
X21562Y16250D1*
X21566Y16269D1*
X21570Y16288D1*
X21576Y16307D1*
X21583Y16325D1*
X21591Y16342D1*
X21600Y16359D1*
X21611Y16376D1*
X21622Y16391D1*
X21635Y16405D1*
X21648Y16419D1*
X21662Y16432D1*
X21677Y16443D1*
X21693Y16453D1*
X21710Y16463D1*
X21727Y16471D1*
X21744Y16477D1*
X21762Y16483D1*
X21780Y16487D1*
X21799Y16489D1*
X21817Y16491D1*
X21836D1*
X21854Y16489D1*
X21873Y16487D1*
X21891Y16483D1*
X21909Y16477D1*
X21927Y16471D1*
X21944Y16463D1*
X21960Y16453D1*
X21976Y16443D1*
X21991Y16432D1*
X22005Y16419D1*
X22019Y16405D1*
X22031Y16391D1*
X22042Y16376D1*
X22053Y16359D1*
X22062Y16342D1*
X22070Y16325D1*
X22077Y16307D1*
X22083Y16288D1*
X22088Y16269D1*
X22091Y16250D1*
X22093Y16231D1*
Y16211D1*
Y16192D1*
X22091Y16172D1*
X22088Y16153D1*
X22083Y16134D1*
X22077Y16115D1*
X22070Y16097D1*
X22062Y16080D1*
X22053Y16063D1*
X22042Y16047D1*
X22031Y16031D1*
X22019Y16017D1*
X22005Y16003D1*
X21991Y15991D1*
X21976Y15979D1*
X21960Y15969D1*
X21944Y15960D1*
X21927Y15952D1*
X21909Y15945D1*
X21891Y15940D1*
X21873Y15936D1*
X21854Y15933D1*
X21836Y15932D1*
X21817D1*
X21799Y15933D1*
X21780Y15936D1*
X21762Y15940D1*
X21744Y15945D1*
X21727Y15952D1*
X21710Y15960D1*
X21693Y15969D1*
X21677Y15979D1*
X21662Y15991D1*
X21648Y16003D1*
X21635Y16017D1*
X21622Y16031D1*
X21611Y16047D1*
X21600Y16063D1*
X21591Y16080D1*
X21583Y16097D1*
X21576Y16115D1*
X21570Y16134D1*
X21566Y16153D1*
X21562Y16172D1*
X21560Y16192D1*
Y16211D1*
X19277Y16208D2*
X19278Y16227D1*
X19279Y16247D1*
X19283Y16266D1*
X19287Y16285D1*
X19293Y16303D1*
X19300Y16322D1*
X19308Y16339D1*
X19317Y16356D1*
X19328Y16372D1*
X19339Y16388D1*
X19352Y16402D1*
X19365Y16416D1*
X19379Y16428D1*
X19394Y16440D1*
X19410Y16450D1*
X19427Y16459D1*
X19444Y16467D1*
X19461Y16474D1*
X19479Y16479D1*
X19497Y16483D1*
X19516Y16486D1*
X19534Y16487D1*
X19553D1*
X19571Y16486D1*
X19590Y16483D1*
X19608Y16479D1*
X19626Y16474D1*
X19643Y16467D1*
X19660Y16459D1*
X19677Y16450D1*
X19692Y16440D1*
X19707Y16428D1*
X19722Y16416D1*
X19735Y16402D1*
X19748Y16388D1*
X19759Y16372D1*
X19769Y16356D1*
X19779Y16339D1*
X19787Y16322D1*
X19794Y16303D1*
X19800Y16285D1*
X19804Y16266D1*
X19807Y16247D1*
X19809Y16227D1*
X19810Y16208D1*
X19809Y16188D1*
X19807Y16169D1*
X19804Y16150D1*
X19800Y16131D1*
X19794Y16112D1*
X19787Y16094D1*
X19779Y16076D1*
X19769Y16060D1*
X19759Y16043D1*
X19748Y16028D1*
X19735Y16014D1*
X19722Y16000D1*
X19707Y15987D1*
X19692Y15976D1*
X19677Y15966D1*
X19660Y15956D1*
X19643Y15948D1*
X19626Y15942D1*
X19608Y15936D1*
X19590Y15932D1*
X19571Y15930D1*
X19553Y15928D1*
X19534D1*
X19516Y15930D1*
X19497Y15932D1*
X19479Y15936D1*
X19461Y15942D1*
X19444Y15948D1*
X19427Y15956D1*
X19410Y15966D1*
X19394Y15976D1*
X19379Y15987D1*
X19365Y16000D1*
X19352Y16014D1*
X19339Y16028D1*
X19328Y16043D1*
X19317Y16060D1*
X19308Y16076D1*
X19300Y16094D1*
X19293Y16112D1*
X19287Y16131D1*
X19283Y16150D1*
X19279Y16169D1*
X19278Y16188D1*
X19277Y16208D1*
X20036Y16211D2*
X20037Y16231D1*
X20039Y16250D1*
X20042Y16269D1*
X20046Y16288D1*
X20052Y16307D1*
X20059Y16325D1*
X20067Y16342D1*
X20077Y16359D1*
X20087Y16376D1*
X20099Y16391D1*
X20111Y16405D1*
X20124Y16419D1*
X20139Y16432D1*
X20154Y16443D1*
X20170Y16453D1*
X20186Y16463D1*
X20203Y16471D1*
X20221Y16477D1*
X20238Y16483D1*
X20257Y16487D1*
X20275Y16489D1*
X20294Y16491D1*
X20312D1*
X20331Y16489D1*
X20349Y16487D1*
X20368Y16483D1*
X20385Y16477D1*
X20403Y16471D1*
X20420Y16463D1*
X20436Y16453D1*
X20452Y16443D1*
X20467Y16432D1*
X20482Y16419D1*
X20495Y16405D1*
X20507Y16391D1*
X20519Y16376D1*
X20529Y16359D1*
X20539Y16342D1*
X20547Y16325D1*
X20554Y16307D1*
X20560Y16288D1*
X20564Y16269D1*
X20567Y16250D1*
X20569Y16231D1*
X20570Y16211D1*
X20569Y16192D1*
X20567Y16172D1*
X20564Y16153D1*
X20560Y16134D1*
X20554Y16115D1*
X20547Y16097D1*
X20539Y16080D1*
X20529Y16063D1*
X20519Y16047D1*
X20507Y16031D1*
X20495Y16017D1*
X20482Y16003D1*
X20467Y15991D1*
X20452Y15979D1*
X20436Y15969D1*
X20420Y15960D1*
X20403Y15952D1*
X20385Y15945D1*
X20368Y15940D1*
X20349Y15936D1*
X20331Y15933D1*
X20312Y15932D1*
X20294D1*
X20275Y15933D1*
X20257Y15936D1*
X20238Y15940D1*
X20221Y15945D1*
X20203Y15952D1*
X20186Y15960D1*
X20170Y15969D1*
X20154Y15979D1*
X20139Y15991D1*
X20124Y16003D1*
X20111Y16017D1*
X20099Y16031D1*
X20087Y16047D1*
X20077Y16063D1*
X20067Y16080D1*
X20059Y16097D1*
X20052Y16115D1*
X20046Y16134D1*
X20042Y16153D1*
X20039Y16172D1*
X20037Y16192D1*
X20036Y16211D1*
X18513D2*
Y16231D1*
X18515Y16250D1*
X18518Y16269D1*
X18523Y16288D1*
X18529Y16307D1*
X18536Y16325D1*
X18544Y16342D1*
X18553Y16359D1*
X18564Y16376D1*
X18575Y16391D1*
X18587Y16405D1*
X18601Y16419D1*
X18615Y16432D1*
X18630Y16443D1*
X18646Y16453D1*
X18662Y16463D1*
X18679Y16471D1*
X18697Y16477D1*
X18715Y16483D1*
X18733Y16487D1*
X18752Y16489D1*
X18770Y16491D1*
X18789D1*
X18807Y16489D1*
X18826Y16487D1*
X18844Y16483D1*
X18862Y16477D1*
X18879Y16471D1*
X18896Y16463D1*
X18913Y16453D1*
X18929Y16443D1*
X18944Y16432D1*
X18958Y16419D1*
X18971Y16405D1*
X18984Y16391D1*
X18995Y16376D1*
X19006Y16359D1*
X19015Y16342D1*
X19023Y16325D1*
X19030Y16307D1*
X19036Y16288D1*
X19040Y16269D1*
X19044Y16250D1*
X19046Y16231D1*
Y16211D1*
Y16192D1*
X19044Y16172D1*
X19040Y16153D1*
X19036Y16134D1*
X19030Y16115D1*
X19023Y16097D1*
X19015Y16080D1*
X19006Y16063D1*
X18995Y16047D1*
X18984Y16031D1*
X18971Y16017D1*
X18958Y16003D1*
X18944Y15991D1*
X18929Y15979D1*
X18913Y15969D1*
X18896Y15960D1*
X18879Y15952D1*
X18862Y15945D1*
X18844Y15940D1*
X18826Y15936D1*
X18807Y15933D1*
X18789Y15932D1*
X18770D1*
X18752Y15933D1*
X18733Y15936D1*
X18715Y15940D1*
X18697Y15945D1*
X18679Y15952D1*
X18662Y15960D1*
X18646Y15969D1*
X18630Y15979D1*
X18615Y15991D1*
X18601Y16003D1*
X18587Y16017D1*
X18575Y16031D1*
X18564Y16047D1*
X18553Y16063D1*
X18544Y16080D1*
X18536Y16097D1*
X18529Y16115D1*
X18523Y16134D1*
X18518Y16153D1*
X18515Y16172D1*
X18513Y16192D1*
Y16211D1*
X17750D2*
Y16231D1*
X17752Y16250D1*
X17756Y16269D1*
X17760Y16288D1*
X17766Y16307D1*
X17773Y16325D1*
X17781Y16342D1*
X17790Y16359D1*
X17801Y16376D1*
X17812Y16391D1*
X17824Y16405D1*
X17838Y16419D1*
X17852Y16432D1*
X17867Y16443D1*
X17883Y16453D1*
X17899Y16463D1*
X17916Y16471D1*
X17934Y16477D1*
X17952Y16483D1*
X17970Y16487D1*
X17988Y16489D1*
X18007Y16491D1*
X18025D1*
X18044Y16489D1*
X18062Y16487D1*
X18081Y16483D1*
X18099Y16477D1*
X18116Y16471D1*
X18133Y16463D1*
X18149Y16453D1*
X18165Y16443D1*
X18180Y16432D1*
X18195Y16419D1*
X18208Y16405D1*
X18220Y16391D1*
X18232Y16376D1*
X18242Y16359D1*
X18251Y16342D1*
X18260Y16325D1*
X18267Y16307D1*
X18272Y16288D1*
X18277Y16269D1*
X18280Y16250D1*
X18282Y16231D1*
X18283Y16211D1*
X18282Y16192D1*
X18280Y16172D1*
X18277Y16153D1*
X18272Y16134D1*
X18267Y16115D1*
X18260Y16097D1*
X18251Y16080D1*
X18242Y16063D1*
X18232Y16047D1*
X18220Y16031D1*
X18208Y16017D1*
X18195Y16003D1*
X18180Y15991D1*
X18165Y15979D1*
X18149Y15969D1*
X18133Y15960D1*
X18116Y15952D1*
X18099Y15945D1*
X18081Y15940D1*
X18062Y15936D1*
X18044Y15933D1*
X18025Y15932D1*
X18007D1*
X17988Y15933D1*
X17970Y15936D1*
X17952Y15940D1*
X17934Y15945D1*
X17916Y15952D1*
X17899Y15960D1*
X17883Y15969D1*
X17867Y15979D1*
X17852Y15991D1*
X17838Y16003D1*
X17824Y16017D1*
X17812Y16031D1*
X17801Y16047D1*
X17790Y16063D1*
X17781Y16080D1*
X17773Y16097D1*
X17766Y16115D1*
X17760Y16134D1*
X17756Y16153D1*
X17752Y16172D1*
X17750Y16192D1*
Y16211D1*
X20803Y17738D2*
Y17757D1*
X20805Y17777D1*
X20808Y17796D1*
X20813Y17815D1*
X20819Y17833D1*
X20826Y17851D1*
X20834Y17869D1*
X20843Y17886D1*
X20854Y17902D1*
X20865Y17917D1*
X20877Y17932D1*
X20891Y17945D1*
X20905Y17958D1*
X20920Y17969D1*
X20936Y17980D1*
X20952Y17989D1*
X20969Y17997D1*
X20987Y18003D1*
X21005Y18009D1*
X21023Y18013D1*
X21042Y18016D1*
X21060Y18017D1*
X21079D1*
X21097Y18016D1*
X21116Y18013D1*
X21134Y18009D1*
X21152Y18003D1*
X21169Y17997D1*
X21186Y17989D1*
X21203Y17980D1*
X21219Y17969D1*
X21234Y17958D1*
X21248Y17945D1*
X21261Y17932D1*
X21274Y17917D1*
X21285Y17902D1*
X21296Y17886D1*
X21305Y17869D1*
X21313Y17851D1*
X21320Y17833D1*
X21326Y17815D1*
X21330Y17796D1*
X21334Y17777D1*
X21336Y17757D1*
Y17738D1*
Y17718D1*
X21334Y17699D1*
X21330Y17680D1*
X21326Y17661D1*
X21320Y17642D1*
X21313Y17624D1*
X21305Y17607D1*
X21296Y17590D1*
X21285Y17574D1*
X21274Y17558D1*
X21261Y17544D1*
X21248Y17530D1*
X21234Y17518D1*
X21219Y17506D1*
X21203Y17496D1*
X21186Y17487D1*
X21169Y17479D1*
X21152Y17472D1*
X21134Y17467D1*
X21116Y17463D1*
X21097Y17460D1*
X21079Y17459D1*
X21060D1*
X21042Y17460D1*
X21023Y17463D1*
X21005Y17467D1*
X20987Y17472D1*
X20969Y17479D1*
X20952Y17487D1*
X20936Y17496D1*
X20920Y17506D1*
X20905Y17518D1*
X20891Y17530D1*
X20877Y17544D1*
X20865Y17558D1*
X20854Y17574D1*
X20843Y17590D1*
X20834Y17607D1*
X20826Y17624D1*
X20819Y17642D1*
X20813Y17661D1*
X20808Y17680D1*
X20805Y17699D1*
X20803Y17718D1*
Y17738D1*
X21563Y17741D2*
X21564Y17761D1*
X21566Y17780D1*
X21569Y17799D1*
X21574Y17818D1*
X21579Y17837D1*
X21586Y17855D1*
X21595Y17872D1*
X21604Y17889D1*
X21614Y17905D1*
X21626Y17921D1*
X21638Y17935D1*
X21651Y17949D1*
X21666Y17961D1*
X21681Y17973D1*
X21697Y17983D1*
X21713Y17992D1*
X21730Y18000D1*
X21747Y18007D1*
X21765Y18012D1*
X21784Y18016D1*
X21802Y18019D1*
X21821Y18020D1*
X21839D1*
X21858Y18019D1*
X21876Y18016D1*
X21894Y18012D1*
X21912Y18007D1*
X21930Y18000D1*
X21947Y17992D1*
X21963Y17983D1*
X21979Y17973D1*
X21994Y17961D1*
X22008Y17949D1*
X22022Y17935D1*
X22034Y17921D1*
X22045Y17905D1*
X22056Y17889D1*
X22065Y17872D1*
X22073Y17855D1*
X22080Y17837D1*
X22086Y17818D1*
X22090Y17799D1*
X22094Y17780D1*
X22096Y17761D1*
Y17741D1*
Y17722D1*
X22094Y17702D1*
X22090Y17683D1*
X22086Y17664D1*
X22080Y17646D1*
X22073Y17627D1*
X22065Y17610D1*
X22056Y17593D1*
X22045Y17577D1*
X22034Y17562D1*
X22022Y17547D1*
X22008Y17533D1*
X21994Y17521D1*
X21979Y17509D1*
X21963Y17499D1*
X21947Y17490D1*
X21930Y17482D1*
X21912Y17475D1*
X21894Y17470D1*
X21876Y17466D1*
X21858Y17463D1*
X21839Y17462D1*
X21821D1*
X21802Y17463D1*
X21784Y17466D1*
X21765Y17470D1*
X21747Y17475D1*
X21730Y17482D1*
X21713Y17490D1*
X21697Y17499D1*
X21681Y17509D1*
X21666Y17521D1*
X21651Y17533D1*
X21638Y17547D1*
X21626Y17562D1*
X21614Y17577D1*
X21604Y17593D1*
X21595Y17610D1*
X21586Y17627D1*
X21579Y17646D1*
X21574Y17664D1*
X21569Y17683D1*
X21566Y17702D1*
X21564Y17722D1*
X21563Y17741D1*
X19280Y17738D2*
Y17757D1*
X19282Y17777D1*
X19286Y17796D1*
X19290Y17815D1*
X19296Y17833D1*
X19303Y17851D1*
X19311Y17869D1*
X19320Y17886D1*
X19331Y17902D1*
X19342Y17917D1*
X19355Y17932D1*
X19368Y17945D1*
X19382Y17958D1*
X19397Y17969D1*
X19413Y17980D1*
X19429Y17989D1*
X19446Y17997D1*
X19464Y18003D1*
X19482Y18009D1*
X19500Y18013D1*
X19518Y18016D1*
X19537Y18017D1*
X19556D1*
X19574Y18016D1*
X19593Y18013D1*
X19611Y18009D1*
X19629Y18003D1*
X19646Y17997D1*
X19663Y17989D1*
X19679Y17980D1*
X19695Y17969D1*
X19710Y17958D1*
X19725Y17945D1*
X19738Y17932D1*
X19750Y17917D1*
X19762Y17902D1*
X19772Y17886D1*
X19782Y17869D1*
X19790Y17851D1*
X19797Y17833D1*
X19802Y17815D1*
X19807Y17796D1*
X19810Y17777D1*
X19812Y17757D1*
X19813Y17738D1*
X19812Y17718D1*
X19810Y17699D1*
X19807Y17680D1*
X19802Y17661D1*
X19797Y17642D1*
X19790Y17624D1*
X19782Y17607D1*
X19772Y17590D1*
X19762Y17574D1*
X19750Y17558D1*
X19738Y17544D1*
X19725Y17530D1*
X19710Y17518D1*
X19695Y17506D1*
X19679Y17496D1*
X19663Y17487D1*
X19646Y17479D1*
X19629Y17472D1*
X19611Y17467D1*
X19593Y17463D1*
X19574Y17460D1*
X19556Y17459D1*
X19537D1*
X19518Y17460D1*
X19500Y17463D1*
X19482Y17467D1*
X19464Y17472D1*
X19446Y17479D1*
X19429Y17487D1*
X19413Y17496D1*
X19397Y17506D1*
X19382Y17518D1*
X19368Y17530D1*
X19355Y17544D1*
X19342Y17558D1*
X19331Y17574D1*
X19320Y17590D1*
X19311Y17607D1*
X19303Y17624D1*
X19296Y17642D1*
X19290Y17661D1*
X19286Y17680D1*
X19282Y17699D1*
X19280Y17718D1*
Y17738D1*
X20040Y17741D2*
Y17761D1*
X20042Y17780D1*
X20046Y17799D1*
X20050Y17818D1*
X20056Y17837D1*
X20063Y17855D1*
X20071Y17872D1*
X20080Y17889D1*
X20091Y17905D1*
X20102Y17921D1*
X20115Y17935D1*
X20128Y17949D1*
X20142Y17961D1*
X20157Y17973D1*
X20173Y17983D1*
X20189Y17992D1*
X20206Y18000D1*
X20224Y18007D1*
X20242Y18012D1*
X20260Y18016D1*
X20278Y18019D1*
X20297Y18020D1*
X20316D1*
X20334Y18019D1*
X20353Y18016D1*
X20371Y18012D1*
X20389Y18007D1*
X20406Y18000D1*
X20423Y17992D1*
X20439Y17983D1*
X20455Y17973D1*
X20470Y17961D1*
X20485Y17949D1*
X20498Y17935D1*
X20510Y17921D1*
X20522Y17905D1*
X20532Y17889D1*
X20542Y17872D1*
X20550Y17855D1*
X20557Y17837D1*
X20562Y17818D1*
X20567Y17799D1*
X20570Y17780D1*
X20572Y17761D1*
X20573Y17741D1*
X20572Y17722D1*
X20570Y17702D1*
X20567Y17683D1*
X20562Y17664D1*
X20557Y17646D1*
X20550Y17627D1*
X20542Y17610D1*
X20532Y17593D1*
X20522Y17577D1*
X20510Y17562D1*
X20498Y17547D1*
X20485Y17533D1*
X20470Y17521D1*
X20455Y17509D1*
X20439Y17499D1*
X20423Y17490D1*
X20406Y17482D1*
X20389Y17475D1*
X20371Y17470D1*
X20353Y17466D1*
X20334Y17463D1*
X20316Y17462D1*
X20297D1*
X20278Y17463D1*
X20260Y17466D1*
X20242Y17470D1*
X20224Y17475D1*
X20206Y17482D1*
X20189Y17490D1*
X20173Y17499D1*
X20157Y17509D1*
X20142Y17521D1*
X20128Y17533D1*
X20115Y17547D1*
X20102Y17562D1*
X20091Y17577D1*
X20080Y17593D1*
X20071Y17610D1*
X20063Y17627D1*
X20056Y17646D1*
X20050Y17664D1*
X20046Y17683D1*
X20042Y17702D1*
X20040Y17722D1*
Y17741D1*
X18516D2*
X18517Y17761D1*
X18519Y17780D1*
X18522Y17799D1*
X18526Y17818D1*
X18532Y17837D1*
X18539Y17855D1*
X18547Y17872D1*
X18557Y17889D1*
X18567Y17905D1*
X18579Y17921D1*
X18591Y17935D1*
X18604Y17949D1*
X18619Y17961D1*
X18634Y17973D1*
X18650Y17983D1*
X18666Y17992D1*
X18683Y18000D1*
X18701Y18007D1*
X18718Y18012D1*
X18737Y18016D1*
X18755Y18019D1*
X18774Y18020D1*
X18792D1*
X18811Y18019D1*
X18829Y18016D1*
X18848Y18012D1*
X18865Y18007D1*
X18883Y18000D1*
X18900Y17992D1*
X18916Y17983D1*
X18932Y17973D1*
X18947Y17961D1*
X18962Y17949D1*
X18975Y17935D1*
X18987Y17921D1*
X18999Y17905D1*
X19009Y17889D1*
X19019Y17872D1*
X19027Y17855D1*
X19034Y17837D1*
X19040Y17818D1*
X19044Y17799D1*
X19047Y17780D1*
X19049Y17761D1*
X19050Y17741D1*
X19049Y17722D1*
X19047Y17702D1*
X19044Y17683D1*
X19040Y17664D1*
X19034Y17646D1*
X19027Y17627D1*
X19019Y17610D1*
X19009Y17593D1*
X18999Y17577D1*
X18987Y17562D1*
X18975Y17547D1*
X18962Y17533D1*
X18947Y17521D1*
X18932Y17509D1*
X18916Y17499D1*
X18900Y17490D1*
X18883Y17482D1*
X18865Y17475D1*
X18848Y17470D1*
X18829Y17466D1*
X18811Y17463D1*
X18792Y17462D1*
X18774D1*
X18755Y17463D1*
X18737Y17466D1*
X18718Y17470D1*
X18701Y17475D1*
X18683Y17482D1*
X18666Y17490D1*
X18650Y17499D1*
X18634Y17509D1*
X18619Y17521D1*
X18604Y17533D1*
X18591Y17547D1*
X18579Y17562D1*
X18567Y17577D1*
X18557Y17593D1*
X18547Y17610D1*
X18539Y17627D1*
X18532Y17646D1*
X18526Y17664D1*
X18522Y17683D1*
X18519Y17702D1*
X18517Y17722D1*
X18516Y17741D1*
X17753D2*
X17754Y17761D1*
X17756Y17780D1*
X17759Y17799D1*
X17764Y17818D1*
X17769Y17837D1*
X17776Y17855D1*
X17784Y17872D1*
X17794Y17889D1*
X17804Y17905D1*
X17816Y17921D1*
X17828Y17935D1*
X17841Y17949D1*
X17856Y17961D1*
X17871Y17973D1*
X17887Y17983D1*
X17903Y17992D1*
X17920Y18000D1*
X17937Y18007D1*
X17955Y18012D1*
X17973Y18016D1*
X17992Y18019D1*
X18010Y18020D1*
X18029D1*
X18048Y18019D1*
X18066Y18016D1*
X18084Y18012D1*
X18102Y18007D1*
X18120Y18000D1*
X18137Y17992D1*
X18153Y17983D1*
X18169Y17973D1*
X18184Y17961D1*
X18198Y17949D1*
X18211Y17935D1*
X18224Y17921D1*
X18235Y17905D1*
X18246Y17889D1*
X18255Y17872D1*
X18263Y17855D1*
X18270Y17837D1*
X18276Y17818D1*
X18280Y17799D1*
X18284Y17780D1*
X18286Y17761D1*
Y17741D1*
Y17722D1*
X18284Y17702D1*
X18280Y17683D1*
X18276Y17664D1*
X18270Y17646D1*
X18263Y17627D1*
X18255Y17610D1*
X18246Y17593D1*
X18235Y17577D1*
X18224Y17562D1*
X18211Y17547D1*
X18198Y17533D1*
X18184Y17521D1*
X18169Y17509D1*
X18153Y17499D1*
X18137Y17490D1*
X18120Y17482D1*
X18102Y17475D1*
X18084Y17470D1*
X18066Y17466D1*
X18048Y17463D1*
X18029Y17462D1*
X18010D1*
X17992Y17463D1*
X17973Y17466D1*
X17955Y17470D1*
X17937Y17475D1*
X17920Y17482D1*
X17903Y17490D1*
X17887Y17499D1*
X17871Y17509D1*
X17856Y17521D1*
X17841Y17533D1*
X17828Y17547D1*
X17816Y17562D1*
X17804Y17577D1*
X17794Y17593D1*
X17784Y17610D1*
X17776Y17627D1*
X17769Y17646D1*
X17764Y17664D1*
X17759Y17683D1*
X17756Y17702D1*
X17754Y17722D1*
X17753Y17741D1*
X20800Y15442D2*
Y15461D1*
X20802Y15481D1*
X20806Y15500D1*
X20810Y15519D1*
X20816Y15537D1*
X20823Y15555D1*
X20831Y15573D1*
X20840Y15590D1*
X20851Y15606D1*
X20862Y15621D1*
X20875Y15636D1*
X20888Y15649D1*
X20902Y15662D1*
X20917Y15673D1*
X20933Y15684D1*
X20949Y15693D1*
X20966Y15701D1*
X20984Y15707D1*
X21002Y15713D1*
X21020Y15717D1*
X21038Y15720D1*
X21057Y15721D1*
X21076D1*
X21094Y15720D1*
X21113Y15717D1*
X21131Y15713D1*
X21149Y15707D1*
X21166Y15701D1*
X21183Y15693D1*
X21199Y15684D1*
X21215Y15673D1*
X21230Y15662D1*
X21245Y15649D1*
X21258Y15636D1*
X21270Y15621D1*
X21282Y15606D1*
X21292Y15590D1*
X21302Y15573D1*
X21310Y15555D1*
X21317Y15537D1*
X21322Y15519D1*
X21327Y15500D1*
X21330Y15481D1*
X21332Y15461D1*
X21333Y15442D1*
X21332Y15422D1*
X21330Y15403D1*
X21327Y15384D1*
X21322Y15365D1*
X21317Y15346D1*
X21310Y15328D1*
X21302Y15311D1*
X21292Y15294D1*
X21282Y15277D1*
X21270Y15262D1*
X21258Y15248D1*
X21245Y15234D1*
X21230Y15222D1*
X21215Y15210D1*
X21199Y15200D1*
X21183Y15191D1*
X21166Y15183D1*
X21149Y15176D1*
X21131Y15171D1*
X21113Y15167D1*
X21094Y15164D1*
X21076Y15162D1*
X21057D1*
X21038Y15164D1*
X21020Y15167D1*
X21002Y15171D1*
X20984Y15176D1*
X20966Y15183D1*
X20949Y15191D1*
X20933Y15200D1*
X20917Y15210D1*
X20902Y15222D1*
X20888Y15234D1*
X20875Y15248D1*
X20862Y15262D1*
X20851Y15277D1*
X20840Y15294D1*
X20831Y15311D1*
X20823Y15328D1*
X20816Y15346D1*
X20810Y15365D1*
X20806Y15384D1*
X20802Y15403D1*
X20800Y15422D1*
Y15442D1*
X21560Y15445D2*
Y15464D1*
X21562Y15484D1*
X21566Y15503D1*
X21570Y15522D1*
X21576Y15540D1*
X21583Y15558D1*
X21591Y15576D1*
X21600Y15593D1*
X21611Y15609D1*
X21622Y15624D1*
X21635Y15639D1*
X21648Y15652D1*
X21662Y15665D1*
X21677Y15676D1*
X21693Y15686D1*
X21710Y15695D1*
X21727Y15703D1*
X21744Y15710D1*
X21762Y15715D1*
X21780Y15719D1*
X21799Y15722D1*
X21817Y15724D1*
X21836D1*
X21854Y15722D1*
X21873Y15719D1*
X21891Y15715D1*
X21909Y15710D1*
X21927Y15703D1*
X21944Y15695D1*
X21960Y15686D1*
X21976Y15676D1*
X21991Y15665D1*
X22005Y15652D1*
X22019Y15639D1*
X22031Y15624D1*
X22042Y15609D1*
X22053Y15593D1*
X22062Y15576D1*
X22070Y15558D1*
X22077Y15540D1*
X22083Y15522D1*
X22088Y15503D1*
X22091Y15484D1*
X22093Y15464D1*
Y15445D1*
Y15425D1*
X22091Y15406D1*
X22088Y15387D1*
X22083Y15368D1*
X22077Y15349D1*
X22070Y15331D1*
X22062Y15314D1*
X22053Y15297D1*
X22042Y15281D1*
X22031Y15265D1*
X22019Y15251D1*
X22005Y15237D1*
X21991Y15225D1*
X21976Y15213D1*
X21960Y15203D1*
X21944Y15194D1*
X21927Y15186D1*
X21909Y15179D1*
X21891Y15174D1*
X21873Y15170D1*
X21854Y15167D1*
X21836Y15166D1*
X21817D1*
X21799Y15167D1*
X21780Y15170D1*
X21762Y15174D1*
X21744Y15179D1*
X21727Y15186D1*
X21710Y15194D1*
X21693Y15203D1*
X21677Y15213D1*
X21662Y15225D1*
X21648Y15237D1*
X21635Y15251D1*
X21622Y15265D1*
X21611Y15281D1*
X21600Y15297D1*
X21591Y15314D1*
X21583Y15331D1*
X21576Y15349D1*
X21570Y15368D1*
X21566Y15387D1*
X21562Y15406D1*
X21560Y15425D1*
Y15445D1*
X19277Y15442D2*
X19278Y15461D1*
X19279Y15481D1*
X19283Y15500D1*
X19287Y15519D1*
X19293Y15537D1*
X19300Y15555D1*
X19308Y15573D1*
X19317Y15590D1*
X19328Y15606D1*
X19339Y15621D1*
X19352Y15636D1*
X19365Y15649D1*
X19379Y15662D1*
X19394Y15673D1*
X19410Y15684D1*
X19427Y15693D1*
X19444Y15701D1*
X19461Y15707D1*
X19479Y15713D1*
X19497Y15717D1*
X19516Y15720D1*
X19534Y15721D1*
X19553D1*
X19571Y15720D1*
X19590Y15717D1*
X19608Y15713D1*
X19626Y15707D1*
X19643Y15701D1*
X19660Y15693D1*
X19677Y15684D1*
X19692Y15673D1*
X19707Y15662D1*
X19722Y15649D1*
X19735Y15636D1*
X19748Y15621D1*
X19759Y15606D1*
X19769Y15590D1*
X19779Y15573D1*
X19787Y15555D1*
X19794Y15537D1*
X19800Y15519D1*
X19804Y15500D1*
X19807Y15481D1*
X19809Y15461D1*
X19810Y15442D1*
X19809Y15422D1*
X19807Y15403D1*
X19804Y15384D1*
X19800Y15365D1*
X19794Y15346D1*
X19787Y15328D1*
X19779Y15311D1*
X19769Y15294D1*
X19759Y15277D1*
X19748Y15262D1*
X19735Y15248D1*
X19722Y15234D1*
X19707Y15222D1*
X19692Y15210D1*
X19677Y15200D1*
X19660Y15191D1*
X19643Y15183D1*
X19626Y15176D1*
X19608Y15171D1*
X19590Y15167D1*
X19571Y15164D1*
X19553Y15162D1*
X19534D1*
X19516Y15164D1*
X19497Y15167D1*
X19479Y15171D1*
X19461Y15176D1*
X19444Y15183D1*
X19427Y15191D1*
X19410Y15200D1*
X19394Y15210D1*
X19379Y15222D1*
X19365Y15234D1*
X19352Y15248D1*
X19339Y15262D1*
X19328Y15277D1*
X19317Y15294D1*
X19308Y15311D1*
X19300Y15328D1*
X19293Y15346D1*
X19287Y15365D1*
X19283Y15384D1*
X19279Y15403D1*
X19278Y15422D1*
X19277Y15442D1*
X20036Y15445D2*
X20037Y15464D1*
X20039Y15484D1*
X20042Y15503D1*
X20046Y15522D1*
X20052Y15540D1*
X20059Y15558D1*
X20067Y15576D1*
X20077Y15593D1*
X20087Y15609D1*
X20099Y15624D1*
X20111Y15639D1*
X20124Y15652D1*
X20139Y15665D1*
X20154Y15676D1*
X20170Y15686D1*
X20186Y15695D1*
X20203Y15703D1*
X20221Y15710D1*
X20238Y15715D1*
X20257Y15719D1*
X20275Y15722D1*
X20294Y15724D1*
X20312D1*
X20331Y15722D1*
X20349Y15719D1*
X20368Y15715D1*
X20385Y15710D1*
X20403Y15703D1*
X20420Y15695D1*
X20436Y15686D1*
X20452Y15676D1*
X20467Y15665D1*
X20482Y15652D1*
X20495Y15639D1*
X20507Y15624D1*
X20519Y15609D1*
X20529Y15593D1*
X20539Y15576D1*
X20547Y15558D1*
X20554Y15540D1*
X20560Y15522D1*
X20564Y15503D1*
X20567Y15484D1*
X20569Y15464D1*
X20570Y15445D1*
X20569Y15425D1*
X20567Y15406D1*
X20564Y15387D1*
X20560Y15368D1*
X20554Y15349D1*
X20547Y15331D1*
X20539Y15314D1*
X20529Y15297D1*
X20519Y15281D1*
X20507Y15265D1*
X20495Y15251D1*
X20482Y15237D1*
X20467Y15225D1*
X20452Y15213D1*
X20436Y15203D1*
X20420Y15194D1*
X20403Y15186D1*
X20385Y15179D1*
X20368Y15174D1*
X20349Y15170D1*
X20331Y15167D1*
X20312Y15166D1*
X20294D1*
X20275Y15167D1*
X20257Y15170D1*
X20238Y15174D1*
X20221Y15179D1*
X20203Y15186D1*
X20186Y15194D1*
X20170Y15203D1*
X20154Y15213D1*
X20139Y15225D1*
X20124Y15237D1*
X20111Y15251D1*
X20099Y15265D1*
X20087Y15281D1*
X20077Y15297D1*
X20067Y15314D1*
X20059Y15331D1*
X20052Y15349D1*
X20046Y15368D1*
X20042Y15387D1*
X20039Y15406D1*
X20037Y15425D1*
X20036Y15445D1*
X18513D2*
Y15464D1*
X18515Y15484D1*
X18518Y15503D1*
X18523Y15522D1*
X18529Y15540D1*
X18536Y15558D1*
X18544Y15576D1*
X18553Y15593D1*
X18564Y15609D1*
X18575Y15624D1*
X18587Y15639D1*
X18601Y15652D1*
X18615Y15665D1*
X18630Y15676D1*
X18646Y15686D1*
X18662Y15695D1*
X18679Y15703D1*
X18697Y15710D1*
X18715Y15715D1*
X18733Y15719D1*
X18752Y15722D1*
X18770Y15724D1*
X18789D1*
X18807Y15722D1*
X18826Y15719D1*
X18844Y15715D1*
X18862Y15710D1*
X18879Y15703D1*
X18896Y15695D1*
X18913Y15686D1*
X18929Y15676D1*
X18944Y15665D1*
X18958Y15652D1*
X18971Y15639D1*
X18984Y15624D1*
X18995Y15609D1*
X19006Y15593D1*
X19015Y15576D1*
X19023Y15558D1*
X19030Y15540D1*
X19036Y15522D1*
X19040Y15503D1*
X19044Y15484D1*
X19046Y15464D1*
Y15445D1*
Y15425D1*
X19044Y15406D1*
X19040Y15387D1*
X19036Y15368D1*
X19030Y15349D1*
X19023Y15331D1*
X19015Y15314D1*
X19006Y15297D1*
X18995Y15281D1*
X18984Y15265D1*
X18971Y15251D1*
X18958Y15237D1*
X18944Y15225D1*
X18929Y15213D1*
X18913Y15203D1*
X18896Y15194D1*
X18879Y15186D1*
X18862Y15179D1*
X18844Y15174D1*
X18826Y15170D1*
X18807Y15167D1*
X18789Y15166D1*
X18770D1*
X18752Y15167D1*
X18733Y15170D1*
X18715Y15174D1*
X18697Y15179D1*
X18679Y15186D1*
X18662Y15194D1*
X18646Y15203D1*
X18630Y15213D1*
X18615Y15225D1*
X18601Y15237D1*
X18587Y15251D1*
X18575Y15265D1*
X18564Y15281D1*
X18553Y15297D1*
X18544Y15314D1*
X18536Y15331D1*
X18529Y15349D1*
X18523Y15368D1*
X18518Y15387D1*
X18515Y15406D1*
X18513Y15425D1*
Y15445D1*
X17750D2*
Y15464D1*
X17752Y15484D1*
X17756Y15503D1*
X17760Y15522D1*
X17766Y15540D1*
X17773Y15558D1*
X17781Y15576D1*
X17790Y15593D1*
X17801Y15609D1*
X17812Y15624D1*
X17824Y15639D1*
X17838Y15652D1*
X17852Y15665D1*
X17867Y15676D1*
X17883Y15686D1*
X17899Y15695D1*
X17916Y15703D1*
X17934Y15710D1*
X17952Y15715D1*
X17970Y15719D1*
X17988Y15722D1*
X18007Y15724D1*
X18025D1*
X18044Y15722D1*
X18062Y15719D1*
X18081Y15715D1*
X18099Y15710D1*
X18116Y15703D1*
X18133Y15695D1*
X18149Y15686D1*
X18165Y15676D1*
X18180Y15665D1*
X18195Y15652D1*
X18208Y15639D1*
X18220Y15624D1*
X18232Y15609D1*
X18242Y15593D1*
X18251Y15576D1*
X18260Y15558D1*
X18267Y15540D1*
X18272Y15522D1*
X18277Y15503D1*
X18280Y15484D1*
X18282Y15464D1*
X18283Y15445D1*
X18282Y15425D1*
X18280Y15406D1*
X18277Y15387D1*
X18272Y15368D1*
X18267Y15349D1*
X18260Y15331D1*
X18251Y15314D1*
X18242Y15297D1*
X18232Y15281D1*
X18220Y15265D1*
X18208Y15251D1*
X18195Y15237D1*
X18180Y15225D1*
X18165Y15213D1*
X18149Y15203D1*
X18133Y15194D1*
X18116Y15186D1*
X18099Y15179D1*
X18081Y15174D1*
X18062Y15170D1*
X18044Y15167D1*
X18025Y15166D1*
X18007D1*
X17988Y15167D1*
X17970Y15170D1*
X17952Y15174D1*
X17934Y15179D1*
X17916Y15186D1*
X17899Y15194D1*
X17883Y15203D1*
X17867Y15213D1*
X17852Y15225D1*
X17838Y15237D1*
X17824Y15251D1*
X17812Y15265D1*
X17801Y15281D1*
X17790Y15297D1*
X17781Y15314D1*
X17773Y15331D1*
X17766Y15349D1*
X17760Y15368D1*
X17756Y15387D1*
X17752Y15406D1*
X17750Y15425D1*
Y15445D1*
X20800Y14675D2*
Y14694D1*
X20802Y14713D1*
X20806Y14733D1*
X20810Y14752D1*
X20816Y14770D1*
X20823Y14788D1*
X20831Y14806D1*
X20840Y14823D1*
X20851Y14839D1*
X20862Y14854D1*
X20875Y14869D1*
X20888Y14882D1*
X20902Y14895D1*
X20917Y14906D1*
X20933Y14916D1*
X20949Y14926D1*
X20966Y14934D1*
X20984Y14940D1*
X21002Y14946D1*
X21020Y14950D1*
X21038Y14952D1*
X21057Y14954D1*
X21076D1*
X21094Y14952D1*
X21113Y14950D1*
X21131Y14946D1*
X21149Y14940D1*
X21166Y14934D1*
X21183Y14926D1*
X21199Y14916D1*
X21215Y14906D1*
X21230Y14895D1*
X21245Y14882D1*
X21258Y14869D1*
X21270Y14854D1*
X21282Y14839D1*
X21292Y14823D1*
X21302Y14806D1*
X21310Y14788D1*
X21317Y14770D1*
X21322Y14752D1*
X21327Y14733D1*
X21330Y14713D1*
X21332Y14694D1*
X21333Y14675D1*
X21332Y14655D1*
X21330Y14636D1*
X21327Y14616D1*
X21322Y14598D1*
X21317Y14579D1*
X21310Y14561D1*
X21302Y14543D1*
X21292Y14526D1*
X21282Y14510D1*
X21270Y14495D1*
X21258Y14480D1*
X21245Y14467D1*
X21230Y14454D1*
X21215Y14443D1*
X21199Y14433D1*
X21183Y14423D1*
X21166Y14415D1*
X21149Y14409D1*
X21131Y14403D1*
X21113Y14399D1*
X21094Y14397D1*
X21076Y14395D1*
X21057D1*
X21038Y14397D1*
X21020Y14399D1*
X21002Y14403D1*
X20984Y14409D1*
X20966Y14415D1*
X20949Y14423D1*
X20933Y14433D1*
X20917Y14443D1*
X20902Y14454D1*
X20888Y14467D1*
X20875Y14480D1*
X20862Y14495D1*
X20851Y14510D1*
X20840Y14526D1*
X20831Y14543D1*
X20823Y14561D1*
X20816Y14579D1*
X20810Y14598D1*
X20806Y14616D1*
X20802Y14636D1*
X20800Y14655D1*
Y14675D1*
X21560Y14678D2*
Y14697D1*
X21562Y14717D1*
X21566Y14736D1*
X21570Y14755D1*
X21576Y14773D1*
X21583Y14792D1*
X21591Y14809D1*
X21600Y14826D1*
X21611Y14842D1*
X21622Y14857D1*
X21635Y14872D1*
X21648Y14885D1*
X21662Y14898D1*
X21677Y14909D1*
X21693Y14920D1*
X21710Y14929D1*
X21727Y14937D1*
X21744Y14944D1*
X21762Y14949D1*
X21780Y14953D1*
X21799Y14956D1*
X21817Y14957D1*
X21836D1*
X21854Y14956D1*
X21873Y14953D1*
X21891Y14949D1*
X21909Y14944D1*
X21927Y14937D1*
X21944Y14929D1*
X21960Y14920D1*
X21976Y14909D1*
X21991Y14898D1*
X22005Y14885D1*
X22019Y14872D1*
X22031Y14857D1*
X22042Y14842D1*
X22053Y14826D1*
X22062Y14809D1*
X22070Y14792D1*
X22077Y14773D1*
X22083Y14755D1*
X22088Y14736D1*
X22091Y14717D1*
X22093Y14697D1*
Y14678D1*
Y14658D1*
X22091Y14639D1*
X22088Y14620D1*
X22083Y14601D1*
X22077Y14582D1*
X22070Y14564D1*
X22062Y14547D1*
X22053Y14530D1*
X22042Y14514D1*
X22031Y14498D1*
X22019Y14484D1*
X22005Y14470D1*
X21991Y14458D1*
X21976Y14446D1*
X21960Y14436D1*
X21944Y14427D1*
X21927Y14419D1*
X21909Y14412D1*
X21891Y14407D1*
X21873Y14403D1*
X21854Y14400D1*
X21836Y14399D1*
X21817D1*
X21799Y14400D1*
X21780Y14403D1*
X21762Y14407D1*
X21744Y14412D1*
X21727Y14419D1*
X21710Y14427D1*
X21693Y14436D1*
X21677Y14446D1*
X21662Y14458D1*
X21648Y14470D1*
X21635Y14484D1*
X21622Y14498D1*
X21611Y14514D1*
X21600Y14530D1*
X21591Y14547D1*
X21583Y14564D1*
X21576Y14582D1*
X21570Y14601D1*
X21566Y14620D1*
X21562Y14639D1*
X21560Y14658D1*
Y14678D1*
X19277Y14675D2*
X19278Y14694D1*
X19279Y14713D1*
X19283Y14733D1*
X19287Y14752D1*
X19293Y14770D1*
X19300Y14788D1*
X19308Y14806D1*
X19317Y14823D1*
X19328Y14839D1*
X19339Y14854D1*
X19352Y14869D1*
X19365Y14882D1*
X19379Y14895D1*
X19394Y14906D1*
X19410Y14916D1*
X19427Y14926D1*
X19444Y14934D1*
X19461Y14940D1*
X19479Y14946D1*
X19497Y14950D1*
X19516Y14952D1*
X19534Y14954D1*
X19553D1*
X19571Y14952D1*
X19590Y14950D1*
X19608Y14946D1*
X19626Y14940D1*
X19643Y14934D1*
X19660Y14926D1*
X19677Y14916D1*
X19692Y14906D1*
X19707Y14895D1*
X19722Y14882D1*
X19735Y14869D1*
X19748Y14854D1*
X19759Y14839D1*
X19769Y14823D1*
X19779Y14806D1*
X19787Y14788D1*
X19794Y14770D1*
X19800Y14752D1*
X19804Y14733D1*
X19807Y14713D1*
X19809Y14694D1*
X19810Y14675D1*
X19809Y14655D1*
X19807Y14636D1*
X19804Y14616D1*
X19800Y14598D1*
X19794Y14579D1*
X19787Y14561D1*
X19779Y14543D1*
X19769Y14526D1*
X19759Y14510D1*
X19748Y14495D1*
X19735Y14480D1*
X19722Y14467D1*
X19707Y14454D1*
X19692Y14443D1*
X19677Y14433D1*
X19660Y14423D1*
X19643Y14415D1*
X19626Y14409D1*
X19608Y14403D1*
X19590Y14399D1*
X19571Y14397D1*
X19553Y14395D1*
X19534D1*
X19516Y14397D1*
X19497Y14399D1*
X19479Y14403D1*
X19461Y14409D1*
X19444Y14415D1*
X19427Y14423D1*
X19410Y14433D1*
X19394Y14443D1*
X19379Y14454D1*
X19365Y14467D1*
X19352Y14480D1*
X19339Y14495D1*
X19328Y14510D1*
X19317Y14526D1*
X19308Y14543D1*
X19300Y14561D1*
X19293Y14579D1*
X19287Y14598D1*
X19283Y14616D1*
X19279Y14636D1*
X19278Y14655D1*
X19277Y14675D1*
X20036Y14678D2*
X20037Y14697D1*
X20039Y14717D1*
X20042Y14736D1*
X20046Y14755D1*
X20052Y14773D1*
X20059Y14792D1*
X20067Y14809D1*
X20077Y14826D1*
X20087Y14842D1*
X20099Y14857D1*
X20111Y14872D1*
X20124Y14885D1*
X20139Y14898D1*
X20154Y14909D1*
X20170Y14920D1*
X20186Y14929D1*
X20203Y14937D1*
X20221Y14944D1*
X20238Y14949D1*
X20257Y14953D1*
X20275Y14956D1*
X20294Y14957D1*
X20312D1*
X20331Y14956D1*
X20349Y14953D1*
X20368Y14949D1*
X20385Y14944D1*
X20403Y14937D1*
X20420Y14929D1*
X20436Y14920D1*
X20452Y14909D1*
X20467Y14898D1*
X20482Y14885D1*
X20495Y14872D1*
X20507Y14857D1*
X20519Y14842D1*
X20529Y14826D1*
X20539Y14809D1*
X20547Y14792D1*
X20554Y14773D1*
X20560Y14755D1*
X20564Y14736D1*
X20567Y14717D1*
X20569Y14697D1*
X20570Y14678D1*
X20569Y14658D1*
X20567Y14639D1*
X20564Y14620D1*
X20560Y14601D1*
X20554Y14582D1*
X20547Y14564D1*
X20539Y14547D1*
X20529Y14530D1*
X20519Y14514D1*
X20507Y14498D1*
X20495Y14484D1*
X20482Y14470D1*
X20467Y14458D1*
X20452Y14446D1*
X20436Y14436D1*
X20420Y14427D1*
X20403Y14419D1*
X20385Y14412D1*
X20368Y14407D1*
X20349Y14403D1*
X20331Y14400D1*
X20312Y14399D1*
X20294D1*
X20275Y14400D1*
X20257Y14403D1*
X20238Y14407D1*
X20221Y14412D1*
X20203Y14419D1*
X20186Y14427D1*
X20170Y14436D1*
X20154Y14446D1*
X20139Y14458D1*
X20124Y14470D1*
X20111Y14484D1*
X20099Y14498D1*
X20087Y14514D1*
X20077Y14530D1*
X20067Y14547D1*
X20059Y14564D1*
X20052Y14582D1*
X20046Y14601D1*
X20042Y14620D1*
X20039Y14639D1*
X20037Y14658D1*
X20036Y14678D1*
X18513D2*
Y14697D1*
X18515Y14717D1*
X18518Y14736D1*
X18523Y14755D1*
X18529Y14773D1*
X18536Y14792D1*
X18544Y14809D1*
X18553Y14826D1*
X18564Y14842D1*
X18575Y14857D1*
X18587Y14872D1*
X18601Y14885D1*
X18615Y14898D1*
X18630Y14909D1*
X18646Y14920D1*
X18662Y14929D1*
X18679Y14937D1*
X18697Y14944D1*
X18715Y14949D1*
X18733Y14953D1*
X18752Y14956D1*
X18770Y14957D1*
X18789D1*
X18807Y14956D1*
X18826Y14953D1*
X18844Y14949D1*
X18862Y14944D1*
X18879Y14937D1*
X18896Y14929D1*
X18913Y14920D1*
X18929Y14909D1*
X18944Y14898D1*
X18958Y14885D1*
X18971Y14872D1*
X18984Y14857D1*
X18995Y14842D1*
X19006Y14826D1*
X19015Y14809D1*
X19023Y14792D1*
X19030Y14773D1*
X19036Y14755D1*
X19040Y14736D1*
X19044Y14717D1*
X19046Y14697D1*
Y14678D1*
Y14658D1*
X19044Y14639D1*
X19040Y14620D1*
X19036Y14601D1*
X19030Y14582D1*
X19023Y14564D1*
X19015Y14547D1*
X19006Y14530D1*
X18995Y14514D1*
X18984Y14498D1*
X18971Y14484D1*
X18958Y14470D1*
X18944Y14458D1*
X18929Y14446D1*
X18913Y14436D1*
X18896Y14427D1*
X18879Y14419D1*
X18862Y14412D1*
X18844Y14407D1*
X18826Y14403D1*
X18807Y14400D1*
X18789Y14399D1*
X18770D1*
X18752Y14400D1*
X18733Y14403D1*
X18715Y14407D1*
X18697Y14412D1*
X18679Y14419D1*
X18662Y14427D1*
X18646Y14436D1*
X18630Y14446D1*
X18615Y14458D1*
X18601Y14470D1*
X18587Y14484D1*
X18575Y14498D1*
X18564Y14514D1*
X18553Y14530D1*
X18544Y14547D1*
X18536Y14564D1*
X18529Y14582D1*
X18523Y14601D1*
X18518Y14620D1*
X18515Y14639D1*
X18513Y14658D1*
Y14678D1*
X17750D2*
Y14697D1*
X17752Y14717D1*
X17756Y14736D1*
X17760Y14755D1*
X17766Y14773D1*
X17773Y14792D1*
X17781Y14809D1*
X17790Y14826D1*
X17801Y14842D1*
X17812Y14857D1*
X17824Y14872D1*
X17838Y14885D1*
X17852Y14898D1*
X17867Y14909D1*
X17883Y14920D1*
X17899Y14929D1*
X17916Y14937D1*
X17934Y14944D1*
X17952Y14949D1*
X17970Y14953D1*
X17988Y14956D1*
X18007Y14957D1*
X18025D1*
X18044Y14956D1*
X18062Y14953D1*
X18081Y14949D1*
X18099Y14944D1*
X18116Y14937D1*
X18133Y14929D1*
X18149Y14920D1*
X18165Y14909D1*
X18180Y14898D1*
X18195Y14885D1*
X18208Y14872D1*
X18220Y14857D1*
X18232Y14842D1*
X18242Y14826D1*
X18251Y14809D1*
X18260Y14792D1*
X18267Y14773D1*
X18272Y14755D1*
X18277Y14736D1*
X18280Y14717D1*
X18282Y14697D1*
X18283Y14678D1*
X18282Y14658D1*
X18280Y14639D1*
X18277Y14620D1*
X18272Y14601D1*
X18267Y14582D1*
X18260Y14564D1*
X18251Y14547D1*
X18242Y14530D1*
X18232Y14514D1*
X18220Y14498D1*
X18208Y14484D1*
X18195Y14470D1*
X18180Y14458D1*
X18165Y14446D1*
X18149Y14436D1*
X18133Y14427D1*
X18116Y14419D1*
X18099Y14412D1*
X18081Y14407D1*
X18062Y14403D1*
X18044Y14400D1*
X18025Y14399D1*
X18007D1*
X17988Y14400D1*
X17970Y14403D1*
X17952Y14407D1*
X17934Y14412D1*
X17916Y14419D1*
X17899Y14427D1*
X17883Y14436D1*
X17867Y14446D1*
X17852Y14458D1*
X17838Y14470D1*
X17824Y14484D1*
X17812Y14498D1*
X17801Y14514D1*
X17790Y14530D1*
X17781Y14547D1*
X17773Y14564D1*
X17766Y14582D1*
X17760Y14601D1*
X17756Y14620D1*
X17752Y14639D1*
X17750Y14658D1*
Y14678D1*
X20796Y18505D2*
X20797Y18524D1*
X20799Y18543D1*
X20802Y18563D1*
X20806Y18581D1*
X20812Y18600D1*
X20819Y18618D1*
X20827Y18636D1*
X20837Y18652D1*
X20847Y18669D1*
X20858Y18684D1*
X20871Y18698D1*
X20884Y18712D1*
X20899Y18724D1*
X20914Y18736D1*
X20929Y18746D1*
X20946Y18755D1*
X20963Y18763D1*
X20980Y18770D1*
X20998Y18775D1*
X21016Y18779D1*
X21035Y18782D1*
X21053Y18783D1*
X21072D1*
X21090Y18782D1*
X21109Y18779D1*
X21127Y18775D1*
X21145Y18770D1*
X21162Y18763D1*
X21179Y18755D1*
X21196Y18746D1*
X21212Y18736D1*
X21227Y18724D1*
X21241Y18712D1*
X21254Y18698D1*
X21267Y18684D1*
X21278Y18669D1*
X21289Y18652D1*
X21298Y18636D1*
X21306Y18618D1*
X21313Y18600D1*
X21319Y18581D1*
X21323Y18563D1*
X21327Y18543D1*
X21328Y18524D1*
X21329Y18505D1*
X21328Y18485D1*
X21327Y18466D1*
X21323Y18447D1*
X21319Y18428D1*
X21313Y18409D1*
X21306Y18391D1*
X21298Y18374D1*
X21289Y18357D1*
X21278Y18341D1*
X21267Y18325D1*
X21254Y18311D1*
X21241Y18297D1*
X21227Y18285D1*
X21212Y18273D1*
X21196Y18263D1*
X21179Y18254D1*
X21162Y18246D1*
X21145Y18239D1*
X21127Y18234D1*
X21109Y18230D1*
X21090Y18227D1*
X21072Y18226D1*
X21053D1*
X21035Y18227D1*
X21016Y18230D1*
X20998Y18234D1*
X20980Y18239D1*
X20963Y18246D1*
X20946Y18254D1*
X20929Y18263D1*
X20914Y18273D1*
X20899Y18285D1*
X20884Y18297D1*
X20871Y18311D1*
X20858Y18325D1*
X20847Y18341D1*
X20837Y18357D1*
X20827Y18374D1*
X20819Y18391D1*
X20812Y18409D1*
X20806Y18428D1*
X20802Y18447D1*
X20799Y18466D1*
X20797Y18485D1*
X20796Y18505D1*
X21557Y18508D2*
Y18527D1*
X21559Y18547D1*
X21563Y18566D1*
X21567Y18585D1*
X21573Y18603D1*
X21580Y18621D1*
X21588Y18639D1*
X21597Y18656D1*
X21608Y18672D1*
X21619Y18687D1*
X21632Y18702D1*
X21645Y18715D1*
X21659Y18728D1*
X21674Y18739D1*
X21690Y18750D1*
X21707Y18759D1*
X21724Y18767D1*
X21741Y18773D1*
X21759Y18779D1*
X21777Y18783D1*
X21795Y18785D1*
X21814Y18787D1*
X21833D1*
X21851Y18785D1*
X21870Y18783D1*
X21888Y18779D1*
X21906Y18773D1*
X21923Y18767D1*
X21940Y18759D1*
X21957Y18750D1*
X21972Y18739D1*
X21987Y18728D1*
X22002Y18715D1*
X22015Y18702D1*
X22028Y18687D1*
X22039Y18672D1*
X22049Y18656D1*
X22059Y18639D1*
X22067Y18621D1*
X22074Y18603D1*
X22080Y18585D1*
X22084Y18566D1*
X22087Y18547D1*
X22089Y18527D1*
X22090Y18508D1*
X22089Y18488D1*
X22087Y18469D1*
X22084Y18450D1*
X22080Y18431D1*
X22074Y18412D1*
X22067Y18394D1*
X22059Y18377D1*
X22049Y18360D1*
X22039Y18344D1*
X22028Y18329D1*
X22015Y18314D1*
X22002Y18301D1*
X21987Y18288D1*
X21972Y18277D1*
X21957Y18266D1*
X21940Y18257D1*
X21923Y18249D1*
X21906Y18243D1*
X21888Y18237D1*
X21870Y18233D1*
X21851Y18230D1*
X21833Y18229D1*
X21814D1*
X21795Y18230D1*
X21777Y18233D1*
X21759Y18237D1*
X21741Y18243D1*
X21724Y18249D1*
X21707Y18257D1*
X21690Y18266D1*
X21674Y18277D1*
X21659Y18288D1*
X21645Y18301D1*
X21632Y18314D1*
X21619Y18329D1*
X21608Y18344D1*
X21597Y18360D1*
X21588Y18377D1*
X21580Y18394D1*
X21573Y18412D1*
X21567Y18431D1*
X21563Y18450D1*
X21559Y18469D1*
X21557Y18488D1*
Y18508D1*
X19273Y18505D2*
X19274Y18524D1*
X19276Y18543D1*
X19279Y18563D1*
X19284Y18581D1*
X19289Y18600D1*
X19296Y18618D1*
X19304Y18636D1*
X19314Y18652D1*
X19324Y18669D1*
X19336Y18684D1*
X19348Y18698D1*
X19361Y18712D1*
X19376Y18724D1*
X19391Y18736D1*
X19407Y18746D1*
X19423Y18755D1*
X19440Y18763D1*
X19457Y18770D1*
X19475Y18775D1*
X19493Y18779D1*
X19512Y18782D1*
X19530Y18783D1*
X19549D1*
X19568Y18782D1*
X19586Y18779D1*
X19604Y18775D1*
X19622Y18770D1*
X19640Y18763D1*
X19657Y18755D1*
X19673Y18746D1*
X19689Y18736D1*
X19704Y18724D1*
X19718Y18712D1*
X19731Y18698D1*
X19744Y18684D1*
X19755Y18669D1*
X19766Y18652D1*
X19775Y18636D1*
X19783Y18618D1*
X19790Y18600D1*
X19796Y18581D1*
X19800Y18563D1*
X19804Y18543D1*
X19806Y18524D1*
Y18505D1*
Y18485D1*
X19804Y18466D1*
X19800Y18447D1*
X19796Y18428D1*
X19790Y18409D1*
X19783Y18391D1*
X19775Y18374D1*
X19766Y18357D1*
X19755Y18341D1*
X19744Y18325D1*
X19731Y18311D1*
X19718Y18297D1*
X19704Y18285D1*
X19689Y18273D1*
X19673Y18263D1*
X19657Y18254D1*
X19640Y18246D1*
X19622Y18239D1*
X19604Y18234D1*
X19586Y18230D1*
X19568Y18227D1*
X19549Y18226D1*
X19530D1*
X19512Y18227D1*
X19493Y18230D1*
X19475Y18234D1*
X19457Y18239D1*
X19440Y18246D1*
X19423Y18254D1*
X19407Y18263D1*
X19391Y18273D1*
X19376Y18285D1*
X19361Y18297D1*
X19348Y18311D1*
X19336Y18325D1*
X19324Y18341D1*
X19314Y18357D1*
X19304Y18374D1*
X19296Y18391D1*
X19289Y18409D1*
X19284Y18428D1*
X19279Y18447D1*
X19276Y18466D1*
X19274Y18485D1*
X19273Y18505D1*
X20033Y18508D2*
X20034Y18527D1*
X20036Y18547D1*
X20039Y18566D1*
X20044Y18585D1*
X20049Y18603D1*
X20056Y18621D1*
X20064Y18639D1*
X20074Y18656D1*
X20084Y18672D1*
X20096Y18687D1*
X20108Y18702D1*
X20121Y18715D1*
X20136Y18728D1*
X20151Y18739D1*
X20167Y18750D1*
X20183Y18759D1*
X20200Y18767D1*
X20217Y18773D1*
X20235Y18779D1*
X20253Y18783D1*
X20272Y18785D1*
X20290Y18787D1*
X20309D1*
X20328Y18785D1*
X20346Y18783D1*
X20364Y18779D1*
X20382Y18773D1*
X20400Y18767D1*
X20417Y18759D1*
X20433Y18750D1*
X20449Y18739D1*
X20464Y18728D1*
X20478Y18715D1*
X20491Y18702D1*
X20504Y18687D1*
X20515Y18672D1*
X20526Y18656D1*
X20535Y18639D1*
X20543Y18621D1*
X20550Y18603D1*
X20556Y18585D1*
X20560Y18566D1*
X20564Y18547D1*
X20566Y18527D1*
Y18508D1*
Y18488D1*
X20564Y18469D1*
X20560Y18450D1*
X20556Y18431D1*
X20550Y18412D1*
X20543Y18394D1*
X20535Y18377D1*
X20526Y18360D1*
X20515Y18344D1*
X20504Y18329D1*
X20491Y18314D1*
X20478Y18301D1*
X20464Y18288D1*
X20449Y18277D1*
X20433Y18266D1*
X20417Y18257D1*
X20400Y18249D1*
X20382Y18243D1*
X20364Y18237D1*
X20346Y18233D1*
X20328Y18230D1*
X20309Y18229D1*
X20290D1*
X20272Y18230D1*
X20253Y18233D1*
X20235Y18237D1*
X20217Y18243D1*
X20200Y18249D1*
X20183Y18257D1*
X20167Y18266D1*
X20151Y18277D1*
X20136Y18288D1*
X20121Y18301D1*
X20108Y18314D1*
X20096Y18329D1*
X20084Y18344D1*
X20074Y18360D1*
X20064Y18377D1*
X20056Y18394D1*
X20049Y18412D1*
X20044Y18431D1*
X20039Y18450D1*
X20036Y18469D1*
X20034Y18488D1*
X20033Y18508D1*
X18510D2*
Y18527D1*
X18512Y18547D1*
X18516Y18566D1*
X18520Y18585D1*
X18526Y18603D1*
X18533Y18621D1*
X18541Y18639D1*
X18550Y18656D1*
X18561Y18672D1*
X18572Y18687D1*
X18584Y18702D1*
X18598Y18715D1*
X18612Y18728D1*
X18627Y18739D1*
X18643Y18750D1*
X18659Y18759D1*
X18676Y18767D1*
X18694Y18773D1*
X18712Y18779D1*
X18730Y18783D1*
X18748Y18785D1*
X18767Y18787D1*
X18785D1*
X18804Y18785D1*
X18822Y18783D1*
X18841Y18779D1*
X18859Y18773D1*
X18876Y18767D1*
X18893Y18759D1*
X18909Y18750D1*
X18925Y18739D1*
X18940Y18728D1*
X18955Y18715D1*
X18968Y18702D1*
X18980Y18687D1*
X18992Y18672D1*
X19002Y18656D1*
X19011Y18639D1*
X19020Y18621D1*
X19027Y18603D1*
X19032Y18585D1*
X19037Y18566D1*
X19040Y18547D1*
X19042Y18527D1*
X19043Y18508D1*
X19042Y18488D1*
X19040Y18469D1*
X19037Y18450D1*
X19032Y18431D1*
X19027Y18412D1*
X19020Y18394D1*
X19011Y18377D1*
X19002Y18360D1*
X18992Y18344D1*
X18980Y18329D1*
X18968Y18314D1*
X18955Y18301D1*
X18940Y18288D1*
X18925Y18277D1*
X18909Y18266D1*
X18893Y18257D1*
X18876Y18249D1*
X18859Y18243D1*
X18841Y18237D1*
X18822Y18233D1*
X18804Y18230D1*
X18785Y18229D1*
X18767D1*
X18748Y18230D1*
X18730Y18233D1*
X18712Y18237D1*
X18694Y18243D1*
X18676Y18249D1*
X18659Y18257D1*
X18643Y18266D1*
X18627Y18277D1*
X18612Y18288D1*
X18598Y18301D1*
X18584Y18314D1*
X18572Y18329D1*
X18561Y18344D1*
X18550Y18360D1*
X18541Y18377D1*
X18533Y18394D1*
X18526Y18412D1*
X18520Y18431D1*
X18516Y18450D1*
X18512Y18469D1*
X18510Y18488D1*
Y18508D1*
X17746D2*
X17747Y18527D1*
X17749Y18547D1*
X17752Y18566D1*
X17756Y18585D1*
X17762Y18603D1*
X17769Y18621D1*
X17777Y18639D1*
X17787Y18656D1*
X17797Y18672D1*
X17809Y18687D1*
X17821Y18702D1*
X17834Y18715D1*
X17849Y18728D1*
X17864Y18739D1*
X17880Y18750D1*
X17896Y18759D1*
X17913Y18767D1*
X17930Y18773D1*
X17948Y18779D1*
X17967Y18783D1*
X17985Y18785D1*
X18004Y18787D1*
X18022D1*
X18041Y18785D1*
X18059Y18783D1*
X18078Y18779D1*
X18095Y18773D1*
X18113Y18767D1*
X18130Y18759D1*
X18146Y18750D1*
X18162Y18739D1*
X18177Y18728D1*
X18192Y18715D1*
X18205Y18702D1*
X18217Y18687D1*
X18229Y18672D1*
X18239Y18656D1*
X18249Y18639D1*
X18257Y18621D1*
X18264Y18603D1*
X18269Y18585D1*
X18274Y18566D1*
X18277Y18547D1*
X18279Y18527D1*
X18280Y18508D1*
X18279Y18488D1*
X18277Y18469D1*
X18274Y18450D1*
X18269Y18431D1*
X18264Y18412D1*
X18257Y18394D1*
X18249Y18377D1*
X18239Y18360D1*
X18229Y18344D1*
X18217Y18329D1*
X18205Y18314D1*
X18192Y18301D1*
X18177Y18288D1*
X18162Y18277D1*
X18146Y18266D1*
X18130Y18257D1*
X18113Y18249D1*
X18095Y18243D1*
X18078Y18237D1*
X18059Y18233D1*
X18041Y18230D1*
X18022Y18229D1*
X18004D1*
X17985Y18230D1*
X17967Y18233D1*
X17948Y18237D1*
X17930Y18243D1*
X17913Y18249D1*
X17896Y18257D1*
X17880Y18266D1*
X17864Y18277D1*
X17849Y18288D1*
X17834Y18301D1*
X17821Y18314D1*
X17809Y18329D1*
X17797Y18344D1*
X17787Y18360D1*
X17777Y18377D1*
X17769Y18394D1*
X17762Y18412D1*
X17756Y18431D1*
X17752Y18450D1*
X17749Y18469D1*
X17747Y18488D1*
X17746Y18508D1*
G36*
X18209Y18782D2*
X18580D1*
Y14378D1*
X18209D1*
Y18782D1*
G37*
G36*
X18990Y18878D2*
X19313D1*
Y14371D1*
X18990D1*
Y18878D1*
G37*
G36*
X19747D2*
X20080D1*
Y14362D1*
X19747D1*
Y18878D1*
G37*
G36*
X20510Y18885D2*
X20860D1*
Y14368D1*
X20510D1*
Y18885D1*
G37*
G36*
X21267Y18848D2*
X21614D1*
Y14365D1*
X21267D1*
Y18848D1*
G37*
G36*
X17714Y18305D2*
X22140D1*
Y17925D1*
X17714D1*
Y18305D1*
G37*
G36*
X17730Y17548D2*
X22140D1*
Y17161D1*
X17730D1*
Y17548D1*
G37*
G36*
X17737Y16788D2*
X22140D1*
Y16388D1*
X17737D1*
Y16788D1*
G37*
G36*
Y15998D2*
X22140D1*
Y15638D1*
X17737D1*
Y15998D1*
G37*
G36*
X17720Y15238D2*
X22140D1*
Y14875D1*
X17720D1*
Y15238D1*
G37*
X17663Y18881D2*
D10*
X22153D1*
Y14301D1*
X17663D1*
Y18881D1*
D67*
X16945Y18795D3*
Y18395D3*
Y17995D3*
Y17595D3*
Y17195D3*
Y16795D3*
Y16395D3*
Y15995D3*
Y15595D3*
Y15195D3*
Y14795D3*
Y14395D3*
D66*
X17720Y13620D3*
X18120D3*
X18520D3*
X18920D3*
X19320D3*
X19720D3*
X20120D3*
X20520D3*
X20920D3*
X21320D3*
X21720D3*
X22120D3*
D67*
X22895Y14395D3*
Y14795D3*
Y15195D3*
Y15595D3*
Y15995D3*
Y16395D3*
Y16795D3*
Y17195D3*
Y17595D3*
Y17995D3*
Y18395D3*
Y18795D3*
D66*
X22120Y19570D3*
X21720D3*
X21320D3*
X20920D3*
X20520D3*
X20120D3*
X19720D3*
X19320D3*
X18920D3*
X18520D3*
X18120D3*
X17720D3*
D65*
X23835Y23662D3*
X22134D3*
Y22262D3*
X23835D3*
G36*
X16233Y21462D2*
X15703Y20932D1*
X14677Y21957D1*
X15208Y22488D1*
X16233Y21462D1*
G37*
G36*
X17294Y22523D2*
X16763Y21993D1*
X15738Y23018D1*
X16268Y23548D1*
X17294Y22523D1*
G37*
D56*
X26745Y17962D3*
D57*
X20020Y25022D3*
G36*
X18491Y12911D2*
Y12301D1*
X17221D1*
Y13165D1*
X18237D1*
X18491Y12911D1*
G37*
G36*
X12869Y20096D2*
X13428D1*
Y21366D1*
X12488D1*
Y20426D1*
X12869Y20096D1*
G37*
M02*
