G04 DipTrace 2.4.0.2*
%IN3dBBLEnotune.gbs*%
%MOMM*%
%ADD59C,0.95*%
%ADD77R,2.082X1.75*%
%ADD78R,1.75X2.05*%
%ADD79R,2.05X1.75*%
%ADD80R,1.65X1.75*%
%ADD82R,1.75X2.082*%
%ADD84R,1.75X1.65*%
%FSLAX53Y53*%
G04*
G71*
G90*
G75*
G01*
%LNBotMask*%
%LPD*%
D84*
X29050Y26510D3*
X26510D3*
X23970D3*
X21430D3*
X18890D3*
G36*
X25635Y25235D2*
Y25740D1*
X27385D1*
Y25235D1*
X26841Y24955D1*
X26179D1*
X25635Y25235D1*
G37*
G36*
X28175D2*
Y25740D1*
X29925D1*
Y25235D1*
X29381Y24955D1*
X28719D1*
X28175Y25235D1*
G37*
G36*
X23095D2*
Y25740D1*
X24845D1*
Y25235D1*
X24301Y24955D1*
X23639D1*
X23095Y25235D1*
G37*
G36*
X18015D2*
Y25740D1*
X19765D1*
Y25235D1*
X19221Y24955D1*
X18559D1*
X18015Y25235D1*
G37*
G36*
X20555D2*
Y25740D1*
X22305D1*
Y25235D1*
X21761Y24955D1*
X21099D1*
X20555Y25235D1*
G37*
D82*
X29050Y27780D3*
X26510D3*
X23970D3*
X21430D3*
X18890D3*
D80*
X11270Y16350D3*
G36*
X12545Y15475D2*
X12040D1*
Y17225D1*
X12545D1*
X12825Y16681D1*
Y16019D1*
X12545Y15475D1*
G37*
D79*
X10000Y16350D3*
D84*
X16350Y11270D3*
G36*
X17225Y12545D2*
Y12040D1*
X15475D1*
Y12545D1*
X16019Y12825D1*
X16681D1*
X17225Y12545D1*
G37*
D78*
X16350Y10000D3*
D84*
Y26510D3*
G36*
X15475Y25235D2*
Y25740D1*
X17225D1*
Y25235D1*
X16681Y24955D1*
X16019D1*
X15475Y25235D1*
G37*
D78*
X16350Y27780D3*
D84*
X13810Y26510D3*
G36*
X12935Y25235D2*
Y25740D1*
X14685D1*
Y25235D1*
X14141Y24955D1*
X13479D1*
X12935Y25235D1*
G37*
D78*
X13810Y27780D3*
D80*
X11270Y23970D3*
G36*
X12545Y23095D2*
X12040D1*
Y24845D1*
X12545D1*
X12825Y24301D1*
Y23639D1*
X12545Y23095D1*
G37*
D79*
X10000Y23970D3*
D80*
X11270Y21430D3*
G36*
X12545Y20555D2*
X12040D1*
Y22305D1*
X12545D1*
X12825Y21761D1*
Y21099D1*
X12545Y20555D1*
G37*
D79*
X10000Y21430D3*
D80*
X11270Y18890D3*
G36*
X12545Y18015D2*
X12040D1*
Y19765D1*
X12545D1*
X12825Y19221D1*
Y18559D1*
X12545Y18015D1*
G37*
D79*
X10000Y18890D3*
D80*
X31590Y13810D3*
Y16350D3*
Y18890D3*
G36*
X30315Y17225D2*
X30820D1*
Y15475D1*
X30315D1*
X30035Y16019D1*
Y16681D1*
X30315Y17225D1*
G37*
G36*
Y14685D2*
X30815D1*
Y12935D1*
X30315D1*
X30035Y13479D1*
Y14141D1*
X30315Y14685D1*
G37*
D77*
X32860Y13810D3*
G36*
X30315Y19765D2*
X30820D1*
Y18015D1*
X30315D1*
X30035Y18559D1*
Y19221D1*
X30315Y19765D1*
G37*
D77*
X32860Y16350D3*
Y18890D3*
D84*
X18890Y11270D3*
G36*
X19765Y12545D2*
Y12040D1*
X18015D1*
Y12545D1*
X18559Y12825D1*
X19221D1*
X19765Y12545D1*
G37*
D78*
X18890Y10000D3*
D80*
X11270Y13810D3*
G36*
X12545Y12935D2*
X12040D1*
Y14685D1*
X12545D1*
X12825Y14141D1*
Y13479D1*
X12545Y12935D1*
G37*
D79*
X10000Y13810D3*
D84*
X13810Y11270D3*
G36*
X14685Y12545D2*
Y12040D1*
X12935D1*
Y12545D1*
X13479Y12825D1*
X14141D1*
X14685Y12545D1*
G37*
D78*
X13810Y10000D3*
D84*
X21430Y11270D3*
G36*
X22305Y12545D2*
Y12040D1*
X20555D1*
Y12545D1*
X21099Y12825D1*
X21761D1*
X22305Y12545D1*
G37*
D78*
X21430Y10000D3*
D84*
X29050Y11270D3*
G36*
X29925Y12545D2*
Y12040D1*
X28175D1*
Y12545D1*
X28719Y12825D1*
X29381D1*
X29925Y12545D1*
G37*
D78*
X29050Y10000D3*
D84*
X26510Y11270D3*
G36*
X27385Y12545D2*
Y12040D1*
X25635D1*
Y12545D1*
X26179Y12825D1*
X26841D1*
X27385Y12545D1*
G37*
D78*
X26510Y10000D3*
D84*
X23970Y11270D3*
G36*
X24845Y12545D2*
Y12040D1*
X23095D1*
Y12545D1*
X23639Y12825D1*
X24301D1*
X24845Y12545D1*
G37*
D78*
X23970Y10000D3*
D59*
X28867Y15204D3*
X27851Y20284D3*
X29883D3*
G36*
X15755Y22014D2*
X15946Y22043D1*
X16093Y22103D1*
X16187Y22179D1*
X16263Y22255D1*
X16327Y22368D1*
X16352Y22433D1*
X16373Y22528D1*
X16383Y22579D1*
X16388Y22662D1*
X16365Y22726D1*
X16327Y22764D1*
X16302Y22790D1*
X16289Y22854D1*
X16294Y22879D1*
X16309Y22930D1*
X16340Y22957D1*
X16258Y23056D1*
X16182Y23006D1*
X16164D1*
X16128Y23095D1*
X16073Y23107D1*
X15971Y23117D1*
X16078Y22865D1*
Y22833D1*
X16070Y22790D1*
X16048Y22780D1*
X15997Y22800D1*
X15933Y22916D1*
X15862Y23087D1*
X15812Y23062D1*
X15757Y22998D1*
X15832Y22808D1*
X15794Y22814D1*
X15755D1*
Y22014D1*
G37*
M02*
