M48
METRIC,0000.00
T01C0.33
T02C0.9
T03C0.95
T04C2.54
%
T01
X+002693Y+003215
X+002864Y+003240
X+002836Y+002968
X+002949Y+002593
X+003160Y+002637
X+003250Y+002637
X+003250Y+002727
X+003160Y+002727
X+003340Y+002727
X+003340Y+002637
X+003340Y+002547
X+003250Y+002547
X+003160Y+002547
X+003241Y+002999
X+002604Y+002513
X+002343Y+002496
X+002014Y+002211
X+001999Y+001974
X+002363Y+001881
X+002667Y+002022
X+004729Y+003680
X+004867Y+003671
X+003741Y+004696
X+003746Y+004861
T02
X+002510Y+002097
X+002810Y+002097
T03
X+002621Y+003113
X+003129Y+003214
X+003129Y+003011
T04
X+002879Y+004427
T00
M30
