G04 DipTrace 2.4.0.2*
%IN3dBBLE.gts*%
%MOIN*%
%ADD10C,0.0098*%
%ADD37C,0.0374*%
%ADD45O,0.0094X0.0272*%
%ADD47O,0.0272X0.0094*%
%ADD49R,0.0213X0.0252*%
%ADD51R,0.0311X0.037*%
%ADD53R,0.0685X0.0816*%
%ADD55R,0.0816X0.0685*%
%ADD57R,0.037X0.0311*%
%ADD59R,0.0291X0.037*%
%ADD61R,0.0409X0.0449*%
%ADD63R,0.037X0.0291*%
%FSLAX44Y44*%
G04*
G70*
G90*
G75*
G01*
%LNTopMask*%
%LPD*%
G36*
X10741Y7739D2*
X10119D1*
Y8361D1*
X10741D1*
Y7739D1*
G37*
G36*
X11505D2*
X10883D1*
Y8361D1*
X11505D1*
Y7739D1*
G37*
G36*
Y8503D2*
X10883D1*
Y9125D1*
X11505D1*
Y8503D1*
G37*
G36*
X10741D2*
X10119D1*
Y9125D1*
X10741D1*
Y8503D1*
G37*
G36*
X9203Y6237D2*
X9089D1*
Y6469D1*
X9203D1*
Y6237D1*
G37*
G36*
X9007D2*
X8892D1*
Y6469D1*
X9007D1*
Y6237D1*
G37*
G36*
X8810D2*
X8696D1*
Y6469D1*
X8810D1*
Y6237D1*
G37*
G36*
Y5902D2*
X8696D1*
Y6135D1*
X8810D1*
Y5902D1*
G37*
G36*
X9007D2*
X8892D1*
Y6135D1*
X9007D1*
Y5902D1*
G37*
G36*
X9203D2*
X9089D1*
Y6135D1*
X9203D1*
Y5902D1*
G37*
G36*
X6245Y9024D2*
X6039Y9230D1*
X6301Y9491D1*
X6507Y9285D1*
X6245Y9024D1*
G37*
G36*
X5884Y8662D2*
X5678Y8868D1*
X5939Y9130D1*
X6145Y8924D1*
X5884Y8662D1*
G37*
G36*
X6371Y7915D2*
X6165Y7709D1*
X5903Y7970D1*
X6109Y8176D1*
X6371Y7915D1*
G37*
G36*
X6009Y8276D2*
X5803Y8070D1*
X5541Y8332D1*
X5747Y8538D1*
X6009Y8276D1*
G37*
D63*
X9025Y5680D3*
X9537D3*
D61*
X5348Y6895D3*
Y7564D3*
D63*
X7484Y7550D3*
X6972D3*
G36*
X8100Y7769D2*
X8391D1*
Y7398D1*
X8100D1*
Y7769D1*
G37*
G36*
Y8280D2*
X8391D1*
Y7910D1*
X8100D1*
Y8280D1*
G37*
D59*
X8645Y5535D3*
Y5023D3*
X5007Y5041D3*
Y4529D3*
D61*
X4862Y7073D3*
Y7742D3*
D57*
X5612Y5058D3*
Y4507D3*
D55*
X3937Y8937D3*
Y7937D3*
Y6937D3*
Y5937D3*
Y4937D3*
D53*
X4937Y9937D3*
X5937D3*
X6937Y3937D3*
X7937D3*
X8937D3*
D51*
X5250Y6273D3*
X4699D3*
D49*
X4520Y6642D3*
Y7036D3*
D53*
X4937Y3937D3*
X5937D3*
X9937D3*
X10937D3*
G36*
X10288Y5893D2*
X10082Y5687D1*
X9820Y5949D1*
X10026Y6155D1*
X10288Y5893D1*
G37*
G36*
X10650Y5531D2*
X10444Y5325D1*
X10182Y5587D1*
X10388Y5793D1*
X10650Y5531D1*
G37*
G36*
X9847Y5238D2*
X9845Y5267D1*
X9837Y5294D1*
X9825Y5320D1*
X9809Y5343D1*
X9789Y5363D1*
X9766Y5379D1*
X9740Y5391D1*
X9713Y5399D1*
X9684Y5401D1*
D1*
X9656Y5399D1*
X9629Y5391D1*
X9603Y5379D1*
X9580Y5363D1*
X9560Y5343D1*
X9543Y5320D1*
X9531Y5294D1*
X9524Y5267D1*
X9521Y5238D1*
D1*
X9524Y5210D1*
X9531Y5183D1*
X9543Y5157D1*
X9560Y5134D1*
X9580Y5113D1*
X9603Y5097D1*
X9629Y5085D1*
X9656Y5078D1*
X9684Y5075D1*
D1*
X9713Y5078D1*
X9740Y5085D1*
X9766Y5097D1*
X9789Y5113D1*
X9809Y5134D1*
X9825Y5157D1*
X9837Y5183D1*
X9845Y5210D1*
X9847Y5238D1*
G37*
G36*
X10347D2*
X10345Y5267D1*
X10337Y5294D1*
X10325Y5320D1*
X10309Y5343D1*
X10289Y5363D1*
X10266Y5379D1*
X10240Y5391D1*
X10213Y5399D1*
X10184Y5401D1*
D1*
X10156Y5399D1*
X10129Y5391D1*
X10103Y5379D1*
X10080Y5363D1*
X10060Y5343D1*
X10043Y5320D1*
X10031Y5294D1*
X10024Y5267D1*
X10021Y5238D1*
D1*
X10024Y5210D1*
X10031Y5183D1*
X10043Y5157D1*
X10060Y5134D1*
X10080Y5113D1*
X10103Y5097D1*
X10129Y5085D1*
X10156Y5078D1*
X10184Y5075D1*
D1*
X10213Y5078D1*
X10240Y5085D1*
X10266Y5097D1*
X10289Y5113D1*
X10309Y5134D1*
X10325Y5157D1*
X10337Y5183D1*
X10345Y5210D1*
X10347Y5238D1*
G37*
G36*
X10847D2*
X10845Y5267D1*
X10837Y5294D1*
X10825Y5320D1*
X10809Y5343D1*
X10789Y5363D1*
X10766Y5379D1*
X10740Y5391D1*
X10713Y5399D1*
X10684Y5401D1*
D1*
X10656Y5399D1*
X10629Y5391D1*
X10603Y5379D1*
X10580Y5363D1*
X10560Y5343D1*
X10543Y5320D1*
X10531Y5294D1*
X10524Y5267D1*
X10521Y5238D1*
D1*
X10524Y5210D1*
X10531Y5183D1*
X10543Y5157D1*
X10560Y5134D1*
X10580Y5113D1*
X10603Y5097D1*
X10629Y5085D1*
X10656Y5078D1*
X10684Y5075D1*
D1*
X10713Y5078D1*
X10740Y5085D1*
X10766Y5097D1*
X10789Y5113D1*
X10809Y5134D1*
X10825Y5157D1*
X10837Y5183D1*
X10845Y5210D1*
X10847Y5238D1*
G37*
G36*
Y4738D2*
X10845Y4767D1*
X10837Y4794D1*
X10825Y4820D1*
X10809Y4843D1*
X10789Y4863D1*
X10766Y4879D1*
X10740Y4891D1*
X10713Y4899D1*
X10684Y4901D1*
D1*
X10656Y4899D1*
X10629Y4891D1*
X10603Y4879D1*
X10580Y4863D1*
X10560Y4843D1*
X10543Y4820D1*
X10531Y4794D1*
X10524Y4767D1*
X10521Y4738D1*
D1*
X10524Y4710D1*
X10531Y4683D1*
X10543Y4657D1*
X10560Y4634D1*
X10580Y4613D1*
X10603Y4597D1*
X10629Y4585D1*
X10656Y4578D1*
X10684Y4575D1*
D1*
X10713Y4578D1*
X10740Y4585D1*
X10766Y4597D1*
X10789Y4613D1*
X10809Y4634D1*
X10825Y4657D1*
X10837Y4683D1*
X10845Y4710D1*
X10847Y4738D1*
G37*
G36*
X10347D2*
X10345Y4767D1*
X10337Y4794D1*
X10325Y4820D1*
X10309Y4843D1*
X10289Y4863D1*
X10266Y4879D1*
X10240Y4891D1*
X10213Y4899D1*
X10184Y4901D1*
D1*
X10156Y4899D1*
X10129Y4891D1*
X10103Y4879D1*
X10080Y4863D1*
X10060Y4843D1*
X10043Y4820D1*
X10031Y4794D1*
X10024Y4767D1*
X10021Y4738D1*
D1*
X10024Y4710D1*
X10031Y4683D1*
X10043Y4657D1*
X10060Y4634D1*
X10080Y4613D1*
X10103Y4597D1*
X10129Y4585D1*
X10156Y4578D1*
X10184Y4575D1*
D1*
X10213Y4578D1*
X10240Y4585D1*
X10266Y4597D1*
X10289Y4613D1*
X10309Y4634D1*
X10325Y4657D1*
X10337Y4683D1*
X10345Y4710D1*
X10347Y4738D1*
G37*
G36*
X9847D2*
X9845Y4767D1*
X9837Y4794D1*
X9825Y4820D1*
X9809Y4843D1*
X9789Y4863D1*
X9766Y4879D1*
X9740Y4891D1*
X9713Y4899D1*
X9684Y4901D1*
D1*
X9656Y4899D1*
X9629Y4891D1*
X9603Y4879D1*
X9580Y4863D1*
X9560Y4843D1*
X9543Y4820D1*
X9531Y4794D1*
X9524Y4767D1*
X9521Y4738D1*
D1*
X9524Y4710D1*
X9531Y4683D1*
X9543Y4657D1*
X9560Y4634D1*
X9580Y4613D1*
X9603Y4597D1*
X9629Y4585D1*
X9656Y4578D1*
X9684Y4575D1*
D1*
X9713Y4578D1*
X9740Y4585D1*
X9766Y4597D1*
X9789Y4613D1*
X9809Y4634D1*
X9825Y4657D1*
X9837Y4683D1*
X9845Y4710D1*
X9847Y4738D1*
G37*
D37*
X9184Y4988D3*
X11184Y5388D3*
Y4588D3*
X7468Y6183D2*
D10*
Y6191D1*
X7469Y6198D1*
X7470Y6206D1*
X7472Y6213D1*
X7474Y6221D1*
X7477Y6228D1*
X7480Y6235D1*
X7484Y6241D1*
X7488Y6248D1*
X7492Y6254D1*
X7497Y6259D1*
X7502Y6265D1*
X7508Y6270D1*
X7514Y6274D1*
X7520Y6278D1*
X7527Y6282D1*
X7533Y6285D1*
X7540Y6288D1*
X7547Y6290D1*
X7554Y6291D1*
X7562Y6292D1*
X7569Y6293D1*
X7576D1*
X7584Y6292D1*
X7591Y6291D1*
X7598Y6290D1*
X7605Y6288D1*
X7612Y6285D1*
X7619Y6282D1*
X7625Y6278D1*
X7631Y6274D1*
X7637Y6270D1*
X7643Y6265D1*
X7648Y6259D1*
X7653Y6254D1*
X7658Y6248D1*
X7662Y6241D1*
X7665Y6235D1*
X7669Y6228D1*
X7671Y6221D1*
X7674Y6213D1*
X7675Y6206D1*
X7677Y6198D1*
Y6191D1*
X7678Y6183D1*
X7677Y6175D1*
Y6168D1*
X7675Y6160D1*
X7674Y6153D1*
X7671Y6145D1*
X7669Y6138D1*
X7665Y6131D1*
X7662Y6125D1*
X7658Y6118D1*
X7653Y6112D1*
X7648Y6107D1*
X7643Y6101D1*
X7637Y6096D1*
X7631Y6092D1*
X7625Y6088D1*
X7619Y6084D1*
X7612Y6081D1*
X7605Y6078D1*
X7598Y6076D1*
X7591Y6075D1*
X7584Y6074D1*
X7576Y6073D1*
X7569D1*
X7562Y6074D1*
X7554Y6075D1*
X7547Y6076D1*
X7540Y6078D1*
X7533Y6081D1*
X7527Y6084D1*
X7520Y6088D1*
X7514Y6092D1*
X7508Y6096D1*
X7502Y6101D1*
X7497Y6107D1*
X7492Y6112D1*
X7488Y6118D1*
X7484Y6125D1*
X7480Y6131D1*
X7477Y6138D1*
X7474Y6145D1*
X7472Y6153D1*
X7470Y6160D1*
X7469Y6168D1*
X7468Y6175D1*
Y6183D1*
X7767Y6184D2*
Y6192D1*
X7768Y6200D1*
X7769Y6207D1*
X7771Y6215D1*
X7773Y6222D1*
X7776Y6229D1*
X7779Y6236D1*
X7783Y6243D1*
X7787Y6249D1*
X7792Y6255D1*
X7797Y6261D1*
X7802Y6266D1*
X7807Y6271D1*
X7813Y6275D1*
X7820Y6280D1*
X7826Y6283D1*
X7833Y6286D1*
X7840Y6289D1*
X7847Y6291D1*
X7854Y6293D1*
X7861Y6294D1*
X7868D1*
X7876D1*
X7883D1*
X7890Y6293D1*
X7897Y6291D1*
X7904Y6289D1*
X7911Y6286D1*
X7918Y6283D1*
X7925Y6280D1*
X7931Y6275D1*
X7937Y6271D1*
X7942Y6266D1*
X7948Y6261D1*
X7952Y6255D1*
X7957Y6249D1*
X7961Y6243D1*
X7965Y6236D1*
X7968Y6229D1*
X7971Y6222D1*
X7973Y6215D1*
X7975Y6207D1*
X7976Y6200D1*
X7977Y6192D1*
Y6184D1*
Y6177D1*
X7976Y6169D1*
X7975Y6161D1*
X7973Y6154D1*
X7971Y6147D1*
X7968Y6140D1*
X7965Y6133D1*
X7961Y6126D1*
X7957Y6120D1*
X7952Y6114D1*
X7948Y6108D1*
X7942Y6102D1*
X7937Y6098D1*
X7931Y6093D1*
X7925Y6089D1*
X7918Y6085D1*
X7911Y6082D1*
X7904Y6080D1*
X7897Y6078D1*
X7890Y6076D1*
X7883Y6075D1*
X7876Y6074D1*
X7868D1*
X7861Y6075D1*
X7854Y6076D1*
X7847Y6078D1*
X7840Y6080D1*
X7833Y6082D1*
X7826Y6085D1*
X7820Y6089D1*
X7813Y6093D1*
X7807Y6098D1*
X7802Y6102D1*
X7797Y6108D1*
X7792Y6114D1*
X7787Y6120D1*
X7783Y6126D1*
X7779Y6133D1*
X7776Y6140D1*
X7773Y6147D1*
X7771Y6154D1*
X7769Y6161D1*
X7768Y6169D1*
X7767Y6177D1*
Y6184D1*
X6868Y6183D2*
Y6191D1*
X6869Y6198D1*
X6870Y6206D1*
X6872Y6213D1*
X6874Y6221D1*
X6877Y6228D1*
X6880Y6235D1*
X6884Y6241D1*
X6888Y6248D1*
X6893Y6254D1*
X6898Y6259D1*
X6903Y6265D1*
X6908Y6270D1*
X6914Y6274D1*
X6921Y6278D1*
X6927Y6282D1*
X6934Y6285D1*
X6941Y6288D1*
X6948Y6290D1*
X6955Y6291D1*
X6962Y6292D1*
X6969Y6293D1*
X6977D1*
X6984Y6292D1*
X6991Y6291D1*
X6998Y6290D1*
X7006Y6288D1*
X7012Y6285D1*
X7019Y6282D1*
X7026Y6278D1*
X7032Y6274D1*
X7038Y6270D1*
X7043Y6265D1*
X7049Y6259D1*
X7053Y6254D1*
X7058Y6248D1*
X7062Y6241D1*
X7066Y6235D1*
X7069Y6228D1*
X7072Y6221D1*
X7074Y6213D1*
X7076Y6206D1*
X7077Y6198D1*
X7078Y6191D1*
Y6183D1*
Y6175D1*
X7077Y6168D1*
X7076Y6160D1*
X7074Y6153D1*
X7072Y6145D1*
X7069Y6138D1*
X7066Y6131D1*
X7062Y6125D1*
X7058Y6118D1*
X7053Y6112D1*
X7049Y6107D1*
X7043Y6101D1*
X7038Y6096D1*
X7032Y6092D1*
X7026Y6088D1*
X7019Y6084D1*
X7012Y6081D1*
X7006Y6078D1*
X6998Y6076D1*
X6991Y6075D1*
X6984Y6074D1*
X6977Y6073D1*
X6969D1*
X6962Y6074D1*
X6955Y6075D1*
X6948Y6076D1*
X6941Y6078D1*
X6934Y6081D1*
X6927Y6084D1*
X6921Y6088D1*
X6914Y6092D1*
X6908Y6096D1*
X6903Y6101D1*
X6898Y6107D1*
X6893Y6112D1*
X6888Y6118D1*
X6884Y6125D1*
X6880Y6131D1*
X6877Y6138D1*
X6874Y6145D1*
X6872Y6153D1*
X6870Y6160D1*
X6869Y6168D1*
X6868Y6175D1*
Y6183D1*
X7167Y6184D2*
Y6192D1*
X7168Y6200D1*
X7169Y6207D1*
X7171Y6215D1*
X7174Y6222D1*
X7176Y6229D1*
X7179Y6236D1*
X7183Y6243D1*
X7187Y6249D1*
X7192Y6255D1*
X7197Y6261D1*
X7202Y6266D1*
X7208Y6271D1*
X7213Y6275D1*
X7220Y6280D1*
X7226Y6283D1*
X7233Y6286D1*
X7240Y6289D1*
X7247Y6291D1*
X7254Y6293D1*
X7261Y6294D1*
X7268D1*
X7276D1*
X7283D1*
X7290Y6293D1*
X7298Y6291D1*
X7305Y6289D1*
X7311Y6286D1*
X7318Y6283D1*
X7325Y6280D1*
X7331Y6275D1*
X7337Y6271D1*
X7342Y6266D1*
X7348Y6261D1*
X7353Y6255D1*
X7357Y6249D1*
X7361Y6243D1*
X7365Y6236D1*
X7368Y6229D1*
X7371Y6222D1*
X7373Y6215D1*
X7375Y6207D1*
X7376Y6200D1*
X7377Y6192D1*
Y6184D1*
Y6177D1*
X7376Y6169D1*
X7375Y6161D1*
X7373Y6154D1*
X7371Y6147D1*
X7368Y6140D1*
X7365Y6133D1*
X7361Y6126D1*
X7357Y6120D1*
X7353Y6114D1*
X7348Y6108D1*
X7342Y6102D1*
X7337Y6098D1*
X7331Y6093D1*
X7325Y6089D1*
X7318Y6085D1*
X7311Y6082D1*
X7305Y6080D1*
X7298Y6078D1*
X7290Y6076D1*
X7283Y6075D1*
X7276Y6074D1*
X7268D1*
X7261Y6075D1*
X7254Y6076D1*
X7247Y6078D1*
X7240Y6080D1*
X7233Y6082D1*
X7226Y6085D1*
X7220Y6089D1*
X7213Y6093D1*
X7208Y6098D1*
X7202Y6102D1*
X7197Y6108D1*
X7192Y6114D1*
X7187Y6120D1*
X7183Y6126D1*
X7179Y6133D1*
X7176Y6140D1*
X7174Y6147D1*
X7171Y6154D1*
X7169Y6161D1*
X7168Y6169D1*
X7167Y6177D1*
Y6184D1*
X6568D2*
Y6192D1*
X6569Y6200D1*
X6570Y6207D1*
X6572Y6215D1*
X6574Y6222D1*
X6577Y6229D1*
X6580Y6236D1*
X6584Y6243D1*
X6588Y6249D1*
X6592Y6255D1*
X6597Y6261D1*
X6602Y6266D1*
X6608Y6271D1*
X6614Y6275D1*
X6620Y6280D1*
X6627Y6283D1*
X6633Y6286D1*
X6640Y6289D1*
X6647Y6291D1*
X6654Y6293D1*
X6662Y6294D1*
X6669D1*
X6676D1*
X6684D1*
X6691Y6293D1*
X6698Y6291D1*
X6705Y6289D1*
X6712Y6286D1*
X6719Y6283D1*
X6725Y6280D1*
X6731Y6275D1*
X6737Y6271D1*
X6743Y6266D1*
X6748Y6261D1*
X6753Y6255D1*
X6757Y6249D1*
X6762Y6243D1*
X6765Y6236D1*
X6768Y6229D1*
X6771Y6222D1*
X6773Y6215D1*
X6775Y6207D1*
X6777Y6200D1*
Y6192D1*
X6778Y6184D1*
X6777Y6177D1*
Y6169D1*
X6775Y6161D1*
X6773Y6154D1*
X6771Y6147D1*
X6768Y6140D1*
X6765Y6133D1*
X6762Y6126D1*
X6757Y6120D1*
X6753Y6114D1*
X6748Y6108D1*
X6743Y6102D1*
X6737Y6098D1*
X6731Y6093D1*
X6725Y6089D1*
X6719Y6085D1*
X6712Y6082D1*
X6705Y6080D1*
X6698Y6078D1*
X6691Y6076D1*
X6684Y6075D1*
X6676Y6074D1*
X6669D1*
X6662Y6075D1*
X6654Y6076D1*
X6647Y6078D1*
X6640Y6080D1*
X6633Y6082D1*
X6627Y6085D1*
X6620Y6089D1*
X6614Y6093D1*
X6608Y6098D1*
X6602Y6102D1*
X6597Y6108D1*
X6592Y6114D1*
X6588Y6120D1*
X6584Y6126D1*
X6580Y6133D1*
X6577Y6140D1*
X6574Y6147D1*
X6572Y6154D1*
X6570Y6161D1*
X6569Y6169D1*
X6568Y6177D1*
Y6184D1*
X6267D2*
Y6192D1*
X6268Y6200D1*
X6269Y6207D1*
X6271Y6215D1*
X6273Y6222D1*
X6276Y6229D1*
X6279Y6236D1*
X6283Y6243D1*
X6287Y6249D1*
X6292Y6255D1*
X6297Y6261D1*
X6302Y6266D1*
X6307Y6271D1*
X6313Y6275D1*
X6320Y6280D1*
X6326Y6283D1*
X6333Y6286D1*
X6340Y6289D1*
X6347Y6291D1*
X6354Y6293D1*
X6361Y6294D1*
X6368D1*
X6376D1*
X6383D1*
X6390Y6293D1*
X6397Y6291D1*
X6404Y6289D1*
X6411Y6286D1*
X6418Y6283D1*
X6425Y6280D1*
X6431Y6275D1*
X6437Y6271D1*
X6442Y6266D1*
X6448Y6261D1*
X6452Y6255D1*
X6457Y6249D1*
X6461Y6243D1*
X6465Y6236D1*
X6468Y6229D1*
X6471Y6222D1*
X6473Y6215D1*
X6475Y6207D1*
X6476Y6200D1*
X6477Y6192D1*
Y6184D1*
Y6177D1*
X6476Y6169D1*
X6475Y6161D1*
X6473Y6154D1*
X6471Y6147D1*
X6468Y6140D1*
X6465Y6133D1*
X6461Y6126D1*
X6457Y6120D1*
X6452Y6114D1*
X6448Y6108D1*
X6442Y6102D1*
X6437Y6098D1*
X6431Y6093D1*
X6425Y6089D1*
X6418Y6085D1*
X6411Y6082D1*
X6404Y6080D1*
X6397Y6078D1*
X6390Y6076D1*
X6383Y6075D1*
X6376Y6074D1*
X6368D1*
X6361Y6075D1*
X6354Y6076D1*
X6347Y6078D1*
X6340Y6080D1*
X6333Y6082D1*
X6326Y6085D1*
X6320Y6089D1*
X6313Y6093D1*
X6307Y6098D1*
X6302Y6102D1*
X6297Y6108D1*
X6292Y6114D1*
X6287Y6120D1*
X6283Y6126D1*
X6279Y6133D1*
X6276Y6140D1*
X6273Y6147D1*
X6271Y6154D1*
X6269Y6161D1*
X6268Y6169D1*
X6267Y6177D1*
Y6184D1*
X7468Y5881D2*
Y5889D1*
X7469Y5896D1*
X7470Y5904D1*
X7472Y5911D1*
X7474Y5919D1*
X7477Y5926D1*
X7480Y5933D1*
X7484Y5939D1*
X7488Y5946D1*
X7492Y5952D1*
X7497Y5958D1*
X7502Y5963D1*
X7508Y5968D1*
X7514Y5972D1*
X7520Y5976D1*
X7527Y5980D1*
X7533Y5983D1*
X7540Y5986D1*
X7547Y5988D1*
X7554Y5989D1*
X7562Y5991D1*
X7569D1*
X7576D1*
X7584D1*
X7591Y5989D1*
X7598Y5988D1*
X7605Y5986D1*
X7612Y5983D1*
X7619Y5980D1*
X7625Y5976D1*
X7631Y5972D1*
X7637Y5968D1*
X7643Y5963D1*
X7648Y5958D1*
X7653Y5952D1*
X7658Y5946D1*
X7662Y5939D1*
X7665Y5933D1*
X7669Y5926D1*
X7671Y5919D1*
X7674Y5911D1*
X7675Y5904D1*
X7677Y5896D1*
Y5889D1*
X7678Y5881D1*
X7677Y5873D1*
Y5866D1*
X7675Y5858D1*
X7674Y5851D1*
X7671Y5844D1*
X7669Y5836D1*
X7665Y5830D1*
X7662Y5823D1*
X7658Y5817D1*
X7653Y5810D1*
X7648Y5805D1*
X7643Y5799D1*
X7637Y5794D1*
X7631Y5790D1*
X7625Y5786D1*
X7619Y5782D1*
X7612Y5779D1*
X7605Y5777D1*
X7598Y5774D1*
X7591Y5773D1*
X7584Y5772D1*
X7576Y5771D1*
X7569D1*
X7562Y5772D1*
X7554Y5773D1*
X7547Y5774D1*
X7540Y5777D1*
X7533Y5779D1*
X7527Y5782D1*
X7520Y5786D1*
X7514Y5790D1*
X7508Y5794D1*
X7502Y5799D1*
X7497Y5805D1*
X7492Y5810D1*
X7488Y5817D1*
X7484Y5823D1*
X7480Y5830D1*
X7477Y5836D1*
X7474Y5844D1*
X7472Y5851D1*
X7470Y5858D1*
X7469Y5866D1*
X7468Y5873D1*
Y5881D1*
X7767Y5882D2*
Y5890D1*
X7768Y5898D1*
X7769Y5905D1*
X7771Y5913D1*
X7773Y5920D1*
X7776Y5927D1*
X7779Y5934D1*
X7783Y5941D1*
X7787Y5947D1*
X7792Y5953D1*
X7797Y5959D1*
X7802Y5964D1*
X7807Y5969D1*
X7813Y5974D1*
X7820Y5978D1*
X7826Y5981D1*
X7833Y5984D1*
X7840Y5987D1*
X7847Y5989D1*
X7854Y5991D1*
X7861Y5992D1*
X7868D1*
X7876D1*
X7883D1*
X7890Y5991D1*
X7897Y5989D1*
X7904Y5987D1*
X7911Y5984D1*
X7918Y5981D1*
X7925Y5978D1*
X7931Y5974D1*
X7937Y5969D1*
X7942Y5964D1*
X7948Y5959D1*
X7952Y5953D1*
X7957Y5947D1*
X7961Y5941D1*
X7965Y5934D1*
X7968Y5927D1*
X7971Y5920D1*
X7973Y5913D1*
X7975Y5905D1*
X7976Y5898D1*
X7977Y5890D1*
Y5882D1*
Y5875D1*
X7976Y5867D1*
X7975Y5860D1*
X7973Y5852D1*
X7971Y5845D1*
X7968Y5838D1*
X7965Y5831D1*
X7961Y5824D1*
X7957Y5818D1*
X7952Y5812D1*
X7948Y5806D1*
X7942Y5801D1*
X7937Y5796D1*
X7931Y5791D1*
X7925Y5787D1*
X7918Y5784D1*
X7911Y5780D1*
X7904Y5778D1*
X7897Y5776D1*
X7890Y5774D1*
X7883Y5773D1*
X7876D1*
X7868D1*
X7861D1*
X7854Y5774D1*
X7847Y5776D1*
X7840Y5778D1*
X7833Y5780D1*
X7826Y5784D1*
X7820Y5787D1*
X7813Y5791D1*
X7807Y5796D1*
X7802Y5801D1*
X7797Y5806D1*
X7792Y5812D1*
X7787Y5818D1*
X7783Y5824D1*
X7779Y5831D1*
X7776Y5838D1*
X7773Y5845D1*
X7771Y5852D1*
X7769Y5860D1*
X7768Y5867D1*
X7767Y5875D1*
Y5882D1*
X6868Y5881D2*
Y5889D1*
X6869Y5896D1*
X6870Y5904D1*
X6872Y5911D1*
X6874Y5919D1*
X6877Y5926D1*
X6880Y5933D1*
X6884Y5939D1*
X6888Y5946D1*
X6893Y5952D1*
X6898Y5958D1*
X6903Y5963D1*
X6908Y5968D1*
X6914Y5972D1*
X6921Y5976D1*
X6927Y5980D1*
X6934Y5983D1*
X6941Y5986D1*
X6948Y5988D1*
X6955Y5989D1*
X6962Y5991D1*
X6969D1*
X6977D1*
X6984D1*
X6991Y5989D1*
X6998Y5988D1*
X7006Y5986D1*
X7012Y5983D1*
X7019Y5980D1*
X7026Y5976D1*
X7032Y5972D1*
X7038Y5968D1*
X7043Y5963D1*
X7049Y5958D1*
X7053Y5952D1*
X7058Y5946D1*
X7062Y5939D1*
X7066Y5933D1*
X7069Y5926D1*
X7072Y5919D1*
X7074Y5911D1*
X7076Y5904D1*
X7077Y5896D1*
X7078Y5889D1*
Y5881D1*
Y5873D1*
X7077Y5866D1*
X7076Y5858D1*
X7074Y5851D1*
X7072Y5844D1*
X7069Y5836D1*
X7066Y5830D1*
X7062Y5823D1*
X7058Y5817D1*
X7053Y5810D1*
X7049Y5805D1*
X7043Y5799D1*
X7038Y5794D1*
X7032Y5790D1*
X7026Y5786D1*
X7019Y5782D1*
X7012Y5779D1*
X7006Y5777D1*
X6998Y5774D1*
X6991Y5773D1*
X6984Y5772D1*
X6977Y5771D1*
X6969D1*
X6962Y5772D1*
X6955Y5773D1*
X6948Y5774D1*
X6941Y5777D1*
X6934Y5779D1*
X6927Y5782D1*
X6921Y5786D1*
X6914Y5790D1*
X6908Y5794D1*
X6903Y5799D1*
X6898Y5805D1*
X6893Y5810D1*
X6888Y5817D1*
X6884Y5823D1*
X6880Y5830D1*
X6877Y5836D1*
X6874Y5844D1*
X6872Y5851D1*
X6870Y5858D1*
X6869Y5866D1*
X6868Y5873D1*
Y5881D1*
X7167Y5882D2*
Y5890D1*
X7168Y5898D1*
X7169Y5905D1*
X7171Y5913D1*
X7174Y5920D1*
X7176Y5927D1*
X7179Y5934D1*
X7183Y5941D1*
X7187Y5947D1*
X7192Y5953D1*
X7197Y5959D1*
X7202Y5964D1*
X7208Y5969D1*
X7213Y5974D1*
X7220Y5978D1*
X7226Y5981D1*
X7233Y5984D1*
X7240Y5987D1*
X7247Y5989D1*
X7254Y5991D1*
X7261Y5992D1*
X7268D1*
X7276D1*
X7283D1*
X7290Y5991D1*
X7298Y5989D1*
X7305Y5987D1*
X7311Y5984D1*
X7318Y5981D1*
X7325Y5978D1*
X7331Y5974D1*
X7337Y5969D1*
X7342Y5964D1*
X7348Y5959D1*
X7353Y5953D1*
X7357Y5947D1*
X7361Y5941D1*
X7365Y5934D1*
X7368Y5927D1*
X7371Y5920D1*
X7373Y5913D1*
X7375Y5905D1*
X7376Y5898D1*
X7377Y5890D1*
Y5882D1*
Y5875D1*
X7376Y5867D1*
X7375Y5860D1*
X7373Y5852D1*
X7371Y5845D1*
X7368Y5838D1*
X7365Y5831D1*
X7361Y5824D1*
X7357Y5818D1*
X7353Y5812D1*
X7348Y5806D1*
X7342Y5801D1*
X7337Y5796D1*
X7331Y5791D1*
X7325Y5787D1*
X7318Y5784D1*
X7311Y5780D1*
X7305Y5778D1*
X7298Y5776D1*
X7290Y5774D1*
X7283Y5773D1*
X7276D1*
X7268D1*
X7261D1*
X7254Y5774D1*
X7247Y5776D1*
X7240Y5778D1*
X7233Y5780D1*
X7226Y5784D1*
X7220Y5787D1*
X7213Y5791D1*
X7208Y5796D1*
X7202Y5801D1*
X7197Y5806D1*
X7192Y5812D1*
X7187Y5818D1*
X7183Y5824D1*
X7179Y5831D1*
X7176Y5838D1*
X7174Y5845D1*
X7171Y5852D1*
X7169Y5860D1*
X7168Y5867D1*
X7167Y5875D1*
Y5882D1*
X6568D2*
Y5890D1*
X6569Y5898D1*
X6570Y5905D1*
X6572Y5913D1*
X6574Y5920D1*
X6577Y5927D1*
X6580Y5934D1*
X6584Y5941D1*
X6588Y5947D1*
X6592Y5953D1*
X6597Y5959D1*
X6602Y5964D1*
X6608Y5969D1*
X6614Y5974D1*
X6620Y5978D1*
X6627Y5981D1*
X6633Y5984D1*
X6640Y5987D1*
X6647Y5989D1*
X6654Y5991D1*
X6662Y5992D1*
X6669D1*
X6676D1*
X6684D1*
X6691Y5991D1*
X6698Y5989D1*
X6705Y5987D1*
X6712Y5984D1*
X6719Y5981D1*
X6725Y5978D1*
X6731Y5974D1*
X6737Y5969D1*
X6743Y5964D1*
X6748Y5959D1*
X6753Y5953D1*
X6757Y5947D1*
X6762Y5941D1*
X6765Y5934D1*
X6768Y5927D1*
X6771Y5920D1*
X6773Y5913D1*
X6775Y5905D1*
X6777Y5898D1*
Y5890D1*
X6778Y5882D1*
X6777Y5875D1*
Y5867D1*
X6775Y5860D1*
X6773Y5852D1*
X6771Y5845D1*
X6768Y5838D1*
X6765Y5831D1*
X6762Y5824D1*
X6757Y5818D1*
X6753Y5812D1*
X6748Y5806D1*
X6743Y5801D1*
X6737Y5796D1*
X6731Y5791D1*
X6725Y5787D1*
X6719Y5784D1*
X6712Y5780D1*
X6705Y5778D1*
X6698Y5776D1*
X6691Y5774D1*
X6684Y5773D1*
X6676D1*
X6669D1*
X6662D1*
X6654Y5774D1*
X6647Y5776D1*
X6640Y5778D1*
X6633Y5780D1*
X6627Y5784D1*
X6620Y5787D1*
X6614Y5791D1*
X6608Y5796D1*
X6602Y5801D1*
X6597Y5806D1*
X6592Y5812D1*
X6588Y5818D1*
X6584Y5824D1*
X6580Y5831D1*
X6577Y5838D1*
X6574Y5845D1*
X6572Y5852D1*
X6570Y5860D1*
X6569Y5867D1*
X6568Y5875D1*
Y5882D1*
X6267D2*
Y5890D1*
X6268Y5898D1*
X6269Y5905D1*
X6271Y5913D1*
X6273Y5920D1*
X6276Y5927D1*
X6279Y5934D1*
X6283Y5941D1*
X6287Y5947D1*
X6292Y5953D1*
X6297Y5959D1*
X6302Y5964D1*
X6307Y5969D1*
X6313Y5974D1*
X6320Y5978D1*
X6326Y5981D1*
X6333Y5984D1*
X6340Y5987D1*
X6347Y5989D1*
X6354Y5991D1*
X6361Y5992D1*
X6368D1*
X6376D1*
X6383D1*
X6390Y5991D1*
X6397Y5989D1*
X6404Y5987D1*
X6411Y5984D1*
X6418Y5981D1*
X6425Y5978D1*
X6431Y5974D1*
X6437Y5969D1*
X6442Y5964D1*
X6448Y5959D1*
X6452Y5953D1*
X6457Y5947D1*
X6461Y5941D1*
X6465Y5934D1*
X6468Y5927D1*
X6471Y5920D1*
X6473Y5913D1*
X6475Y5905D1*
X6476Y5898D1*
X6477Y5890D1*
Y5882D1*
Y5875D1*
X6476Y5867D1*
X6475Y5860D1*
X6473Y5852D1*
X6471Y5845D1*
X6468Y5838D1*
X6465Y5831D1*
X6461Y5824D1*
X6457Y5818D1*
X6452Y5812D1*
X6448Y5806D1*
X6442Y5801D1*
X6437Y5796D1*
X6431Y5791D1*
X6425Y5787D1*
X6418Y5784D1*
X6411Y5780D1*
X6404Y5778D1*
X6397Y5776D1*
X6390Y5774D1*
X6383Y5773D1*
X6376D1*
X6368D1*
X6361D1*
X6354Y5774D1*
X6347Y5776D1*
X6340Y5778D1*
X6333Y5780D1*
X6326Y5784D1*
X6320Y5787D1*
X6313Y5791D1*
X6307Y5796D1*
X6302Y5801D1*
X6297Y5806D1*
X6292Y5812D1*
X6287Y5818D1*
X6283Y5824D1*
X6279Y5831D1*
X6276Y5838D1*
X6273Y5845D1*
X6271Y5852D1*
X6269Y5860D1*
X6268Y5867D1*
X6267Y5875D1*
Y5882D1*
X7469Y6483D2*
Y6491D1*
X7470Y6499D1*
X7471Y6506D1*
X7473Y6514D1*
X7475Y6521D1*
X7478Y6528D1*
X7481Y6535D1*
X7485Y6542D1*
X7489Y6548D1*
X7494Y6554D1*
X7499Y6560D1*
X7504Y6565D1*
X7509Y6570D1*
X7515Y6575D1*
X7522Y6579D1*
X7528Y6582D1*
X7535Y6585D1*
X7542Y6588D1*
X7549Y6590D1*
X7556Y6592D1*
X7563Y6593D1*
X7570D1*
X7578D1*
X7585D1*
X7592Y6592D1*
X7600Y6590D1*
X7607Y6588D1*
X7613Y6585D1*
X7620Y6582D1*
X7627Y6579D1*
X7633Y6575D1*
X7639Y6570D1*
X7644Y6565D1*
X7650Y6560D1*
X7655Y6554D1*
X7659Y6548D1*
X7663Y6542D1*
X7667Y6535D1*
X7670Y6528D1*
X7673Y6521D1*
X7675Y6514D1*
X7677Y6506D1*
X7678Y6499D1*
X7679Y6491D1*
Y6483D1*
Y6476D1*
X7678Y6468D1*
X7677Y6460D1*
X7675Y6453D1*
X7673Y6446D1*
X7670Y6439D1*
X7667Y6432D1*
X7663Y6425D1*
X7659Y6419D1*
X7655Y6413D1*
X7650Y6407D1*
X7644Y6402D1*
X7639Y6397D1*
X7633Y6392D1*
X7627Y6388D1*
X7620Y6385D1*
X7613Y6381D1*
X7607Y6379D1*
X7600Y6377D1*
X7592Y6375D1*
X7585Y6374D1*
X7578Y6373D1*
X7570D1*
X7563Y6374D1*
X7556Y6375D1*
X7549Y6377D1*
X7542Y6379D1*
X7535Y6381D1*
X7528Y6385D1*
X7522Y6388D1*
X7515Y6392D1*
X7509Y6397D1*
X7504Y6402D1*
X7499Y6407D1*
X7494Y6413D1*
X7489Y6419D1*
X7485Y6425D1*
X7481Y6432D1*
X7478Y6439D1*
X7475Y6446D1*
X7473Y6453D1*
X7471Y6460D1*
X7470Y6468D1*
X7469Y6476D1*
Y6483D1*
X7768Y6485D2*
Y6492D1*
X7769Y6500D1*
X7771Y6508D1*
X7772Y6515D1*
X7775Y6522D1*
X7777Y6529D1*
X7781Y6536D1*
X7784Y6543D1*
X7788Y6549D1*
X7793Y6555D1*
X7798Y6561D1*
X7803Y6566D1*
X7809Y6571D1*
X7814Y6576D1*
X7821Y6580D1*
X7827Y6584D1*
X7834Y6587D1*
X7841Y6589D1*
X7848Y6591D1*
X7855Y6593D1*
X7862Y6594D1*
X7870Y6595D1*
X7877D1*
X7884Y6594D1*
X7891Y6593D1*
X7899Y6591D1*
X7906Y6589D1*
X7913Y6587D1*
X7919Y6584D1*
X7926Y6580D1*
X7932Y6576D1*
X7938Y6571D1*
X7943Y6566D1*
X7949Y6561D1*
X7954Y6555D1*
X7958Y6549D1*
X7962Y6543D1*
X7966Y6536D1*
X7969Y6529D1*
X7972Y6522D1*
X7974Y6515D1*
X7976Y6508D1*
X7977Y6500D1*
X7978Y6492D1*
Y6485D1*
Y6477D1*
X7977Y6469D1*
X7976Y6462D1*
X7974Y6454D1*
X7972Y6447D1*
X7969Y6440D1*
X7966Y6433D1*
X7962Y6426D1*
X7958Y6420D1*
X7954Y6414D1*
X7949Y6408D1*
X7943Y6403D1*
X7938Y6398D1*
X7932Y6393D1*
X7926Y6389D1*
X7919Y6386D1*
X7913Y6383D1*
X7906Y6380D1*
X7899Y6378D1*
X7891Y6376D1*
X7884Y6375D1*
X7877D1*
X7870D1*
X7862D1*
X7855Y6376D1*
X7848Y6378D1*
X7841Y6380D1*
X7834Y6383D1*
X7827Y6386D1*
X7821Y6389D1*
X7814Y6393D1*
X7809Y6398D1*
X7803Y6403D1*
X7798Y6408D1*
X7793Y6414D1*
X7788Y6420D1*
X7784Y6426D1*
X7781Y6433D1*
X7777Y6440D1*
X7775Y6447D1*
X7772Y6454D1*
X7771Y6462D1*
X7769Y6469D1*
X7768Y6477D1*
Y6485D1*
X6869Y6483D2*
X6870Y6491D1*
Y6499D1*
X6872Y6506D1*
X6873Y6514D1*
X6876Y6521D1*
X6878Y6528D1*
X6882Y6535D1*
X6885Y6542D1*
X6889Y6548D1*
X6894Y6554D1*
X6899Y6560D1*
X6904Y6565D1*
X6910Y6570D1*
X6916Y6575D1*
X6922Y6579D1*
X6928Y6582D1*
X6935Y6585D1*
X6942Y6588D1*
X6949Y6590D1*
X6956Y6592D1*
X6963Y6593D1*
X6971D1*
X6978D1*
X6985D1*
X6992Y6592D1*
X7000Y6590D1*
X7007Y6588D1*
X7014Y6585D1*
X7020Y6582D1*
X7027Y6579D1*
X7033Y6575D1*
X7039Y6570D1*
X7044Y6565D1*
X7050Y6560D1*
X7055Y6554D1*
X7059Y6548D1*
X7063Y6542D1*
X7067Y6535D1*
X7070Y6528D1*
X7073Y6521D1*
X7075Y6514D1*
X7077Y6506D1*
X7078Y6499D1*
X7079Y6491D1*
Y6483D1*
Y6476D1*
X7078Y6468D1*
X7077Y6460D1*
X7075Y6453D1*
X7073Y6446D1*
X7070Y6439D1*
X7067Y6432D1*
X7063Y6425D1*
X7059Y6419D1*
X7055Y6413D1*
X7050Y6407D1*
X7044Y6402D1*
X7039Y6397D1*
X7033Y6392D1*
X7027Y6388D1*
X7020Y6385D1*
X7014Y6381D1*
X7007Y6379D1*
X7000Y6377D1*
X6992Y6375D1*
X6985Y6374D1*
X6978Y6373D1*
X6971D1*
X6963Y6374D1*
X6956Y6375D1*
X6949Y6377D1*
X6942Y6379D1*
X6935Y6381D1*
X6928Y6385D1*
X6922Y6388D1*
X6916Y6392D1*
X6910Y6397D1*
X6904Y6402D1*
X6899Y6407D1*
X6894Y6413D1*
X6889Y6419D1*
X6885Y6425D1*
X6882Y6432D1*
X6878Y6439D1*
X6876Y6446D1*
X6873Y6453D1*
X6872Y6460D1*
X6870Y6468D1*
Y6476D1*
X6869Y6483D1*
X7169Y6485D2*
Y6492D1*
X7170Y6500D1*
X7171Y6508D1*
X7173Y6515D1*
X7175Y6522D1*
X7178Y6529D1*
X7181Y6536D1*
X7185Y6543D1*
X7189Y6549D1*
X7193Y6555D1*
X7198Y6561D1*
X7203Y6566D1*
X7209Y6571D1*
X7215Y6576D1*
X7221Y6580D1*
X7228Y6584D1*
X7234Y6587D1*
X7241Y6589D1*
X7248Y6591D1*
X7255Y6593D1*
X7263Y6594D1*
X7270Y6595D1*
X7277D1*
X7285Y6594D1*
X7292Y6593D1*
X7299Y6591D1*
X7306Y6589D1*
X7313Y6587D1*
X7320Y6584D1*
X7326Y6580D1*
X7332Y6576D1*
X7338Y6571D1*
X7344Y6566D1*
X7349Y6561D1*
X7354Y6555D1*
X7359Y6549D1*
X7363Y6543D1*
X7366Y6536D1*
X7369Y6529D1*
X7372Y6522D1*
X7374Y6515D1*
X7376Y6508D1*
X7378Y6500D1*
Y6492D1*
X7379Y6485D1*
X7378Y6477D1*
Y6469D1*
X7376Y6462D1*
X7374Y6454D1*
X7372Y6447D1*
X7369Y6440D1*
X7366Y6433D1*
X7363Y6426D1*
X7359Y6420D1*
X7354Y6414D1*
X7349Y6408D1*
X7344Y6403D1*
X7338Y6398D1*
X7332Y6393D1*
X7326Y6389D1*
X7320Y6386D1*
X7313Y6383D1*
X7306Y6380D1*
X7299Y6378D1*
X7292Y6376D1*
X7285Y6375D1*
X7277D1*
X7270D1*
X7263D1*
X7255Y6376D1*
X7248Y6378D1*
X7241Y6380D1*
X7234Y6383D1*
X7228Y6386D1*
X7221Y6389D1*
X7215Y6393D1*
X7209Y6398D1*
X7203Y6403D1*
X7198Y6408D1*
X7193Y6414D1*
X7189Y6420D1*
X7185Y6426D1*
X7181Y6433D1*
X7178Y6440D1*
X7175Y6447D1*
X7173Y6454D1*
X7171Y6462D1*
X7170Y6469D1*
X7169Y6477D1*
Y6485D1*
X6569D2*
Y6492D1*
X6570Y6500D1*
X6571Y6508D1*
X6573Y6515D1*
X6575Y6522D1*
X6578Y6529D1*
X6581Y6536D1*
X6585Y6543D1*
X6589Y6549D1*
X6593Y6555D1*
X6598Y6561D1*
X6603Y6566D1*
X6609Y6571D1*
X6615Y6576D1*
X6621Y6580D1*
X6628Y6584D1*
X6634Y6587D1*
X6641Y6589D1*
X6648Y6591D1*
X6656Y6593D1*
X6663Y6594D1*
X6670Y6595D1*
X6677D1*
X6685Y6594D1*
X6692Y6593D1*
X6699Y6591D1*
X6706Y6589D1*
X6713Y6587D1*
X6720Y6584D1*
X6726Y6580D1*
X6732Y6576D1*
X6738Y6571D1*
X6744Y6566D1*
X6749Y6561D1*
X6754Y6555D1*
X6759Y6549D1*
X6763Y6543D1*
X6766Y6536D1*
X6770Y6529D1*
X6772Y6522D1*
X6775Y6515D1*
X6776Y6508D1*
X6778Y6500D1*
Y6492D1*
X6779Y6485D1*
X6778Y6477D1*
Y6469D1*
X6776Y6462D1*
X6775Y6454D1*
X6772Y6447D1*
X6770Y6440D1*
X6766Y6433D1*
X6763Y6426D1*
X6759Y6420D1*
X6754Y6414D1*
X6749Y6408D1*
X6744Y6403D1*
X6738Y6398D1*
X6732Y6393D1*
X6726Y6389D1*
X6720Y6386D1*
X6713Y6383D1*
X6706Y6380D1*
X6699Y6378D1*
X6692Y6376D1*
X6685Y6375D1*
X6677D1*
X6670D1*
X6663D1*
X6656Y6376D1*
X6648Y6378D1*
X6641Y6380D1*
X6634Y6383D1*
X6628Y6386D1*
X6621Y6389D1*
X6615Y6393D1*
X6609Y6398D1*
X6603Y6403D1*
X6598Y6408D1*
X6593Y6414D1*
X6589Y6420D1*
X6585Y6426D1*
X6581Y6433D1*
X6578Y6440D1*
X6575Y6447D1*
X6573Y6454D1*
X6571Y6462D1*
X6570Y6469D1*
X6569Y6477D1*
Y6485D1*
X6268D2*
X6269Y6492D1*
Y6500D1*
X6271Y6508D1*
X6272Y6515D1*
X6275Y6522D1*
X6277Y6529D1*
X6281Y6536D1*
X6284Y6543D1*
X6288Y6549D1*
X6293Y6555D1*
X6298Y6561D1*
X6303Y6566D1*
X6309Y6571D1*
X6315Y6576D1*
X6321Y6580D1*
X6327Y6584D1*
X6334Y6587D1*
X6341Y6589D1*
X6348Y6591D1*
X6355Y6593D1*
X6362Y6594D1*
X6370Y6595D1*
X6377D1*
X6384Y6594D1*
X6391Y6593D1*
X6399Y6591D1*
X6406Y6589D1*
X6413Y6587D1*
X6419Y6584D1*
X6426Y6580D1*
X6432Y6576D1*
X6438Y6571D1*
X6443Y6566D1*
X6449Y6561D1*
X6454Y6555D1*
X6458Y6549D1*
X6462Y6543D1*
X6466Y6536D1*
X6469Y6529D1*
X6472Y6522D1*
X6474Y6515D1*
X6476Y6508D1*
X6477Y6500D1*
X6478Y6492D1*
Y6485D1*
Y6477D1*
X6477Y6469D1*
X6476Y6462D1*
X6474Y6454D1*
X6472Y6447D1*
X6469Y6440D1*
X6466Y6433D1*
X6462Y6426D1*
X6458Y6420D1*
X6454Y6414D1*
X6449Y6408D1*
X6443Y6403D1*
X6438Y6398D1*
X6432Y6393D1*
X6426Y6389D1*
X6419Y6386D1*
X6413Y6383D1*
X6406Y6380D1*
X6399Y6378D1*
X6391Y6376D1*
X6384Y6375D1*
X6377D1*
X6370D1*
X6362D1*
X6355Y6376D1*
X6348Y6378D1*
X6341Y6380D1*
X6334Y6383D1*
X6327Y6386D1*
X6321Y6389D1*
X6315Y6393D1*
X6309Y6398D1*
X6303Y6403D1*
X6298Y6408D1*
X6293Y6414D1*
X6288Y6420D1*
X6284Y6426D1*
X6281Y6433D1*
X6277Y6440D1*
X6275Y6447D1*
X6272Y6454D1*
X6271Y6462D1*
X6269Y6469D1*
Y6477D1*
X6268Y6485D1*
X7468Y5579D2*
Y5587D1*
X7469Y5594D1*
X7470Y5602D1*
X7472Y5609D1*
X7474Y5617D1*
X7477Y5624D1*
X7480Y5631D1*
X7484Y5637D1*
X7488Y5644D1*
X7492Y5650D1*
X7497Y5656D1*
X7502Y5661D1*
X7508Y5666D1*
X7514Y5670D1*
X7520Y5674D1*
X7527Y5678D1*
X7533Y5681D1*
X7540Y5684D1*
X7547Y5686D1*
X7554Y5687D1*
X7562Y5689D1*
X7569D1*
X7576D1*
X7584D1*
X7591Y5687D1*
X7598Y5686D1*
X7605Y5684D1*
X7612Y5681D1*
X7619Y5678D1*
X7625Y5674D1*
X7631Y5670D1*
X7637Y5666D1*
X7643Y5661D1*
X7648Y5656D1*
X7653Y5650D1*
X7658Y5644D1*
X7662Y5637D1*
X7665Y5631D1*
X7669Y5624D1*
X7671Y5617D1*
X7674Y5609D1*
X7675Y5602D1*
X7677Y5594D1*
Y5587D1*
X7678Y5579D1*
X7677Y5571D1*
Y5564D1*
X7675Y5556D1*
X7674Y5549D1*
X7671Y5542D1*
X7669Y5534D1*
X7665Y5527D1*
X7662Y5521D1*
X7658Y5514D1*
X7653Y5508D1*
X7648Y5503D1*
X7643Y5497D1*
X7637Y5492D1*
X7631Y5488D1*
X7625Y5484D1*
X7619Y5480D1*
X7612Y5477D1*
X7605Y5475D1*
X7598Y5472D1*
X7591Y5471D1*
X7584Y5470D1*
X7576Y5469D1*
X7569D1*
X7562Y5470D1*
X7554Y5471D1*
X7547Y5472D1*
X7540Y5475D1*
X7533Y5477D1*
X7527Y5480D1*
X7520Y5484D1*
X7514Y5488D1*
X7508Y5492D1*
X7502Y5497D1*
X7497Y5503D1*
X7492Y5508D1*
X7488Y5514D1*
X7484Y5521D1*
X7480Y5527D1*
X7477Y5534D1*
X7474Y5542D1*
X7472Y5549D1*
X7470Y5556D1*
X7469Y5564D1*
X7468Y5571D1*
Y5579D1*
X7767Y5580D2*
Y5588D1*
X7768Y5596D1*
X7769Y5603D1*
X7771Y5611D1*
X7773Y5618D1*
X7776Y5625D1*
X7779Y5632D1*
X7783Y5639D1*
X7787Y5645D1*
X7792Y5651D1*
X7797Y5657D1*
X7802Y5662D1*
X7807Y5667D1*
X7813Y5672D1*
X7820Y5676D1*
X7826Y5679D1*
X7833Y5682D1*
X7840Y5685D1*
X7847Y5687D1*
X7854Y5689D1*
X7861Y5690D1*
X7868D1*
X7876D1*
X7883D1*
X7890Y5689D1*
X7897Y5687D1*
X7904Y5685D1*
X7911Y5682D1*
X7918Y5679D1*
X7925Y5676D1*
X7931Y5672D1*
X7937Y5667D1*
X7942Y5662D1*
X7948Y5657D1*
X7952Y5651D1*
X7957Y5645D1*
X7961Y5639D1*
X7965Y5632D1*
X7968Y5625D1*
X7971Y5618D1*
X7973Y5611D1*
X7975Y5603D1*
X7976Y5596D1*
X7977Y5588D1*
Y5580D1*
Y5573D1*
X7976Y5565D1*
X7975Y5558D1*
X7973Y5550D1*
X7971Y5543D1*
X7968Y5536D1*
X7965Y5529D1*
X7961Y5522D1*
X7957Y5516D1*
X7952Y5510D1*
X7948Y5504D1*
X7942Y5499D1*
X7937Y5494D1*
X7931Y5489D1*
X7925Y5485D1*
X7918Y5482D1*
X7911Y5478D1*
X7904Y5476D1*
X7897Y5474D1*
X7890Y5472D1*
X7883Y5471D1*
X7876D1*
X7868D1*
X7861D1*
X7854Y5472D1*
X7847Y5474D1*
X7840Y5476D1*
X7833Y5478D1*
X7826Y5482D1*
X7820Y5485D1*
X7813Y5489D1*
X7807Y5494D1*
X7802Y5499D1*
X7797Y5504D1*
X7792Y5510D1*
X7787Y5516D1*
X7783Y5522D1*
X7779Y5529D1*
X7776Y5536D1*
X7773Y5543D1*
X7771Y5550D1*
X7769Y5558D1*
X7768Y5565D1*
X7767Y5573D1*
Y5580D1*
X6868Y5579D2*
Y5587D1*
X6869Y5594D1*
X6870Y5602D1*
X6872Y5609D1*
X6874Y5617D1*
X6877Y5624D1*
X6880Y5631D1*
X6884Y5637D1*
X6888Y5644D1*
X6893Y5650D1*
X6898Y5656D1*
X6903Y5661D1*
X6908Y5666D1*
X6914Y5670D1*
X6921Y5674D1*
X6927Y5678D1*
X6934Y5681D1*
X6941Y5684D1*
X6948Y5686D1*
X6955Y5687D1*
X6962Y5689D1*
X6969D1*
X6977D1*
X6984D1*
X6991Y5687D1*
X6998Y5686D1*
X7006Y5684D1*
X7012Y5681D1*
X7019Y5678D1*
X7026Y5674D1*
X7032Y5670D1*
X7038Y5666D1*
X7043Y5661D1*
X7049Y5656D1*
X7053Y5650D1*
X7058Y5644D1*
X7062Y5637D1*
X7066Y5631D1*
X7069Y5624D1*
X7072Y5617D1*
X7074Y5609D1*
X7076Y5602D1*
X7077Y5594D1*
X7078Y5587D1*
Y5579D1*
Y5571D1*
X7077Y5564D1*
X7076Y5556D1*
X7074Y5549D1*
X7072Y5542D1*
X7069Y5534D1*
X7066Y5527D1*
X7062Y5521D1*
X7058Y5514D1*
X7053Y5508D1*
X7049Y5503D1*
X7043Y5497D1*
X7038Y5492D1*
X7032Y5488D1*
X7026Y5484D1*
X7019Y5480D1*
X7012Y5477D1*
X7006Y5475D1*
X6998Y5472D1*
X6991Y5471D1*
X6984Y5470D1*
X6977Y5469D1*
X6969D1*
X6962Y5470D1*
X6955Y5471D1*
X6948Y5472D1*
X6941Y5475D1*
X6934Y5477D1*
X6927Y5480D1*
X6921Y5484D1*
X6914Y5488D1*
X6908Y5492D1*
X6903Y5497D1*
X6898Y5503D1*
X6893Y5508D1*
X6888Y5514D1*
X6884Y5521D1*
X6880Y5527D1*
X6877Y5534D1*
X6874Y5542D1*
X6872Y5549D1*
X6870Y5556D1*
X6869Y5564D1*
X6868Y5571D1*
Y5579D1*
X7167Y5580D2*
Y5588D1*
X7168Y5596D1*
X7169Y5603D1*
X7171Y5611D1*
X7174Y5618D1*
X7176Y5625D1*
X7179Y5632D1*
X7183Y5639D1*
X7187Y5645D1*
X7192Y5651D1*
X7197Y5657D1*
X7202Y5662D1*
X7208Y5667D1*
X7213Y5672D1*
X7220Y5676D1*
X7226Y5679D1*
X7233Y5682D1*
X7240Y5685D1*
X7247Y5687D1*
X7254Y5689D1*
X7261Y5690D1*
X7268D1*
X7276D1*
X7283D1*
X7290Y5689D1*
X7298Y5687D1*
X7305Y5685D1*
X7311Y5682D1*
X7318Y5679D1*
X7325Y5676D1*
X7331Y5672D1*
X7337Y5667D1*
X7342Y5662D1*
X7348Y5657D1*
X7353Y5651D1*
X7357Y5645D1*
X7361Y5639D1*
X7365Y5632D1*
X7368Y5625D1*
X7371Y5618D1*
X7373Y5611D1*
X7375Y5603D1*
X7376Y5596D1*
X7377Y5588D1*
Y5580D1*
Y5573D1*
X7376Y5565D1*
X7375Y5558D1*
X7373Y5550D1*
X7371Y5543D1*
X7368Y5536D1*
X7365Y5529D1*
X7361Y5522D1*
X7357Y5516D1*
X7353Y5510D1*
X7348Y5504D1*
X7342Y5499D1*
X7337Y5494D1*
X7331Y5489D1*
X7325Y5485D1*
X7318Y5482D1*
X7311Y5478D1*
X7305Y5476D1*
X7298Y5474D1*
X7290Y5472D1*
X7283Y5471D1*
X7276D1*
X7268D1*
X7261D1*
X7254Y5472D1*
X7247Y5474D1*
X7240Y5476D1*
X7233Y5478D1*
X7226Y5482D1*
X7220Y5485D1*
X7213Y5489D1*
X7208Y5494D1*
X7202Y5499D1*
X7197Y5504D1*
X7192Y5510D1*
X7187Y5516D1*
X7183Y5522D1*
X7179Y5529D1*
X7176Y5536D1*
X7174Y5543D1*
X7171Y5550D1*
X7169Y5558D1*
X7168Y5565D1*
X7167Y5573D1*
Y5580D1*
X6568D2*
Y5588D1*
X6569Y5596D1*
X6570Y5603D1*
X6572Y5611D1*
X6574Y5618D1*
X6577Y5625D1*
X6580Y5632D1*
X6584Y5639D1*
X6588Y5645D1*
X6592Y5651D1*
X6597Y5657D1*
X6602Y5662D1*
X6608Y5667D1*
X6614Y5672D1*
X6620Y5676D1*
X6627Y5679D1*
X6633Y5682D1*
X6640Y5685D1*
X6647Y5687D1*
X6654Y5689D1*
X6662Y5690D1*
X6669D1*
X6676D1*
X6684D1*
X6691Y5689D1*
X6698Y5687D1*
X6705Y5685D1*
X6712Y5682D1*
X6719Y5679D1*
X6725Y5676D1*
X6731Y5672D1*
X6737Y5667D1*
X6743Y5662D1*
X6748Y5657D1*
X6753Y5651D1*
X6757Y5645D1*
X6762Y5639D1*
X6765Y5632D1*
X6768Y5625D1*
X6771Y5618D1*
X6773Y5611D1*
X6775Y5603D1*
X6777Y5596D1*
Y5588D1*
X6778Y5580D1*
X6777Y5573D1*
Y5565D1*
X6775Y5558D1*
X6773Y5550D1*
X6771Y5543D1*
X6768Y5536D1*
X6765Y5529D1*
X6762Y5522D1*
X6757Y5516D1*
X6753Y5510D1*
X6748Y5504D1*
X6743Y5499D1*
X6737Y5494D1*
X6731Y5489D1*
X6725Y5485D1*
X6719Y5482D1*
X6712Y5478D1*
X6705Y5476D1*
X6698Y5474D1*
X6691Y5472D1*
X6684Y5471D1*
X6676D1*
X6669D1*
X6662D1*
X6654Y5472D1*
X6647Y5474D1*
X6640Y5476D1*
X6633Y5478D1*
X6627Y5482D1*
X6620Y5485D1*
X6614Y5489D1*
X6608Y5494D1*
X6602Y5499D1*
X6597Y5504D1*
X6592Y5510D1*
X6588Y5516D1*
X6584Y5522D1*
X6580Y5529D1*
X6577Y5536D1*
X6574Y5543D1*
X6572Y5550D1*
X6570Y5558D1*
X6569Y5565D1*
X6568Y5573D1*
Y5580D1*
X6267D2*
Y5588D1*
X6268Y5596D1*
X6269Y5603D1*
X6271Y5611D1*
X6273Y5618D1*
X6276Y5625D1*
X6279Y5632D1*
X6283Y5639D1*
X6287Y5645D1*
X6292Y5651D1*
X6297Y5657D1*
X6302Y5662D1*
X6307Y5667D1*
X6313Y5672D1*
X6320Y5676D1*
X6326Y5679D1*
X6333Y5682D1*
X6340Y5685D1*
X6347Y5687D1*
X6354Y5689D1*
X6361Y5690D1*
X6368D1*
X6376D1*
X6383D1*
X6390Y5689D1*
X6397Y5687D1*
X6404Y5685D1*
X6411Y5682D1*
X6418Y5679D1*
X6425Y5676D1*
X6431Y5672D1*
X6437Y5667D1*
X6442Y5662D1*
X6448Y5657D1*
X6452Y5651D1*
X6457Y5645D1*
X6461Y5639D1*
X6465Y5632D1*
X6468Y5625D1*
X6471Y5618D1*
X6473Y5611D1*
X6475Y5603D1*
X6476Y5596D1*
X6477Y5588D1*
Y5580D1*
Y5573D1*
X6476Y5565D1*
X6475Y5558D1*
X6473Y5550D1*
X6471Y5543D1*
X6468Y5536D1*
X6465Y5529D1*
X6461Y5522D1*
X6457Y5516D1*
X6452Y5510D1*
X6448Y5504D1*
X6442Y5499D1*
X6437Y5494D1*
X6431Y5489D1*
X6425Y5485D1*
X6418Y5482D1*
X6411Y5478D1*
X6404Y5476D1*
X6397Y5474D1*
X6390Y5472D1*
X6383Y5471D1*
X6376D1*
X6368D1*
X6361D1*
X6354Y5472D1*
X6347Y5474D1*
X6340Y5476D1*
X6333Y5478D1*
X6326Y5482D1*
X6320Y5485D1*
X6313Y5489D1*
X6307Y5494D1*
X6302Y5499D1*
X6297Y5504D1*
X6292Y5510D1*
X6287Y5516D1*
X6283Y5522D1*
X6279Y5529D1*
X6276Y5536D1*
X6273Y5543D1*
X6271Y5550D1*
X6269Y5558D1*
X6268Y5565D1*
X6267Y5573D1*
Y5580D1*
X7468Y5277D2*
Y5285D1*
X7469Y5293D1*
X7470Y5300D1*
X7472Y5308D1*
X7474Y5315D1*
X7477Y5322D1*
X7480Y5329D1*
X7484Y5336D1*
X7488Y5342D1*
X7492Y5348D1*
X7497Y5354D1*
X7502Y5359D1*
X7508Y5364D1*
X7514Y5369D1*
X7520Y5373D1*
X7527Y5376D1*
X7533Y5379D1*
X7540Y5382D1*
X7547Y5384D1*
X7554Y5386D1*
X7562Y5387D1*
X7569D1*
X7576D1*
X7584D1*
X7591Y5386D1*
X7598Y5384D1*
X7605Y5382D1*
X7612Y5379D1*
X7619Y5376D1*
X7625Y5373D1*
X7631Y5369D1*
X7637Y5364D1*
X7643Y5359D1*
X7648Y5354D1*
X7653Y5348D1*
X7658Y5342D1*
X7662Y5336D1*
X7665Y5329D1*
X7669Y5322D1*
X7671Y5315D1*
X7674Y5308D1*
X7675Y5300D1*
X7677Y5293D1*
Y5285D1*
X7678Y5277D1*
X7677Y5270D1*
Y5262D1*
X7675Y5254D1*
X7674Y5247D1*
X7671Y5240D1*
X7669Y5233D1*
X7665Y5226D1*
X7662Y5219D1*
X7658Y5213D1*
X7653Y5207D1*
X7648Y5201D1*
X7643Y5196D1*
X7637Y5191D1*
X7631Y5186D1*
X7625Y5182D1*
X7619Y5179D1*
X7612Y5175D1*
X7605Y5173D1*
X7598Y5171D1*
X7591Y5169D1*
X7584Y5168D1*
X7576Y5167D1*
X7569D1*
X7562Y5168D1*
X7554Y5169D1*
X7547Y5171D1*
X7540Y5173D1*
X7533Y5175D1*
X7527Y5179D1*
X7520Y5182D1*
X7514Y5186D1*
X7508Y5191D1*
X7502Y5196D1*
X7497Y5201D1*
X7492Y5207D1*
X7488Y5213D1*
X7484Y5219D1*
X7480Y5226D1*
X7477Y5233D1*
X7474Y5240D1*
X7472Y5247D1*
X7470Y5254D1*
X7469Y5262D1*
X7468Y5270D1*
Y5277D1*
X7767Y5279D2*
Y5286D1*
X7768Y5294D1*
X7769Y5302D1*
X7771Y5309D1*
X7773Y5316D1*
X7776Y5323D1*
X7779Y5330D1*
X7783Y5337D1*
X7787Y5343D1*
X7792Y5349D1*
X7797Y5355D1*
X7802Y5360D1*
X7807Y5365D1*
X7813Y5370D1*
X7820Y5374D1*
X7826Y5378D1*
X7833Y5381D1*
X7840Y5383D1*
X7847Y5385D1*
X7854Y5387D1*
X7861Y5388D1*
X7868Y5389D1*
X7876D1*
X7883Y5388D1*
X7890Y5387D1*
X7897Y5385D1*
X7904Y5383D1*
X7911Y5381D1*
X7918Y5378D1*
X7925Y5374D1*
X7931Y5370D1*
X7937Y5365D1*
X7942Y5360D1*
X7948Y5355D1*
X7952Y5349D1*
X7957Y5343D1*
X7961Y5337D1*
X7965Y5330D1*
X7968Y5323D1*
X7971Y5316D1*
X7973Y5309D1*
X7975Y5302D1*
X7976Y5294D1*
X7977Y5286D1*
Y5279D1*
Y5271D1*
X7976Y5263D1*
X7975Y5256D1*
X7973Y5248D1*
X7971Y5241D1*
X7968Y5234D1*
X7965Y5227D1*
X7961Y5220D1*
X7957Y5214D1*
X7952Y5208D1*
X7948Y5202D1*
X7942Y5197D1*
X7937Y5192D1*
X7931Y5187D1*
X7925Y5183D1*
X7918Y5180D1*
X7911Y5177D1*
X7904Y5174D1*
X7897Y5172D1*
X7890Y5170D1*
X7883Y5169D1*
X7876D1*
X7868D1*
X7861D1*
X7854Y5170D1*
X7847Y5172D1*
X7840Y5174D1*
X7833Y5177D1*
X7826Y5180D1*
X7820Y5183D1*
X7813Y5187D1*
X7807Y5192D1*
X7802Y5197D1*
X7797Y5202D1*
X7792Y5208D1*
X7787Y5214D1*
X7783Y5220D1*
X7779Y5227D1*
X7776Y5234D1*
X7773Y5241D1*
X7771Y5248D1*
X7769Y5256D1*
X7768Y5263D1*
X7767Y5271D1*
Y5279D1*
X6868Y5277D2*
Y5285D1*
X6869Y5293D1*
X6870Y5300D1*
X6872Y5308D1*
X6874Y5315D1*
X6877Y5322D1*
X6880Y5329D1*
X6884Y5336D1*
X6888Y5342D1*
X6893Y5348D1*
X6898Y5354D1*
X6903Y5359D1*
X6908Y5364D1*
X6914Y5369D1*
X6921Y5373D1*
X6927Y5376D1*
X6934Y5379D1*
X6941Y5382D1*
X6948Y5384D1*
X6955Y5386D1*
X6962Y5387D1*
X6969D1*
X6977D1*
X6984D1*
X6991Y5386D1*
X6998Y5384D1*
X7006Y5382D1*
X7012Y5379D1*
X7019Y5376D1*
X7026Y5373D1*
X7032Y5369D1*
X7038Y5364D1*
X7043Y5359D1*
X7049Y5354D1*
X7053Y5348D1*
X7058Y5342D1*
X7062Y5336D1*
X7066Y5329D1*
X7069Y5322D1*
X7072Y5315D1*
X7074Y5308D1*
X7076Y5300D1*
X7077Y5293D1*
X7078Y5285D1*
Y5277D1*
Y5270D1*
X7077Y5262D1*
X7076Y5254D1*
X7074Y5247D1*
X7072Y5240D1*
X7069Y5233D1*
X7066Y5226D1*
X7062Y5219D1*
X7058Y5213D1*
X7053Y5207D1*
X7049Y5201D1*
X7043Y5196D1*
X7038Y5191D1*
X7032Y5186D1*
X7026Y5182D1*
X7019Y5179D1*
X7012Y5175D1*
X7006Y5173D1*
X6998Y5171D1*
X6991Y5169D1*
X6984Y5168D1*
X6977Y5167D1*
X6969D1*
X6962Y5168D1*
X6955Y5169D1*
X6948Y5171D1*
X6941Y5173D1*
X6934Y5175D1*
X6927Y5179D1*
X6921Y5182D1*
X6914Y5186D1*
X6908Y5191D1*
X6903Y5196D1*
X6898Y5201D1*
X6893Y5207D1*
X6888Y5213D1*
X6884Y5219D1*
X6880Y5226D1*
X6877Y5233D1*
X6874Y5240D1*
X6872Y5247D1*
X6870Y5254D1*
X6869Y5262D1*
X6868Y5270D1*
Y5277D1*
X7167Y5279D2*
Y5286D1*
X7168Y5294D1*
X7169Y5302D1*
X7171Y5309D1*
X7174Y5316D1*
X7176Y5323D1*
X7179Y5330D1*
X7183Y5337D1*
X7187Y5343D1*
X7192Y5349D1*
X7197Y5355D1*
X7202Y5360D1*
X7208Y5365D1*
X7213Y5370D1*
X7220Y5374D1*
X7226Y5378D1*
X7233Y5381D1*
X7240Y5383D1*
X7247Y5385D1*
X7254Y5387D1*
X7261Y5388D1*
X7268Y5389D1*
X7276D1*
X7283Y5388D1*
X7290Y5387D1*
X7298Y5385D1*
X7305Y5383D1*
X7311Y5381D1*
X7318Y5378D1*
X7325Y5374D1*
X7331Y5370D1*
X7337Y5365D1*
X7342Y5360D1*
X7348Y5355D1*
X7353Y5349D1*
X7357Y5343D1*
X7361Y5337D1*
X7365Y5330D1*
X7368Y5323D1*
X7371Y5316D1*
X7373Y5309D1*
X7375Y5302D1*
X7376Y5294D1*
X7377Y5286D1*
Y5279D1*
Y5271D1*
X7376Y5263D1*
X7375Y5256D1*
X7373Y5248D1*
X7371Y5241D1*
X7368Y5234D1*
X7365Y5227D1*
X7361Y5220D1*
X7357Y5214D1*
X7353Y5208D1*
X7348Y5202D1*
X7342Y5197D1*
X7337Y5192D1*
X7331Y5187D1*
X7325Y5183D1*
X7318Y5180D1*
X7311Y5177D1*
X7305Y5174D1*
X7298Y5172D1*
X7290Y5170D1*
X7283Y5169D1*
X7276D1*
X7268D1*
X7261D1*
X7254Y5170D1*
X7247Y5172D1*
X7240Y5174D1*
X7233Y5177D1*
X7226Y5180D1*
X7220Y5183D1*
X7213Y5187D1*
X7208Y5192D1*
X7202Y5197D1*
X7197Y5202D1*
X7192Y5208D1*
X7187Y5214D1*
X7183Y5220D1*
X7179Y5227D1*
X7176Y5234D1*
X7174Y5241D1*
X7171Y5248D1*
X7169Y5256D1*
X7168Y5263D1*
X7167Y5271D1*
Y5279D1*
X6568D2*
Y5286D1*
X6569Y5294D1*
X6570Y5302D1*
X6572Y5309D1*
X6574Y5316D1*
X6577Y5323D1*
X6580Y5330D1*
X6584Y5337D1*
X6588Y5343D1*
X6592Y5349D1*
X6597Y5355D1*
X6602Y5360D1*
X6608Y5365D1*
X6614Y5370D1*
X6620Y5374D1*
X6627Y5378D1*
X6633Y5381D1*
X6640Y5383D1*
X6647Y5385D1*
X6654Y5387D1*
X6662Y5388D1*
X6669Y5389D1*
X6676D1*
X6684Y5388D1*
X6691Y5387D1*
X6698Y5385D1*
X6705Y5383D1*
X6712Y5381D1*
X6719Y5378D1*
X6725Y5374D1*
X6731Y5370D1*
X6737Y5365D1*
X6743Y5360D1*
X6748Y5355D1*
X6753Y5349D1*
X6757Y5343D1*
X6762Y5337D1*
X6765Y5330D1*
X6768Y5323D1*
X6771Y5316D1*
X6773Y5309D1*
X6775Y5302D1*
X6777Y5294D1*
Y5286D1*
X6778Y5279D1*
X6777Y5271D1*
Y5263D1*
X6775Y5256D1*
X6773Y5248D1*
X6771Y5241D1*
X6768Y5234D1*
X6765Y5227D1*
X6762Y5220D1*
X6757Y5214D1*
X6753Y5208D1*
X6748Y5202D1*
X6743Y5197D1*
X6737Y5192D1*
X6731Y5187D1*
X6725Y5183D1*
X6719Y5180D1*
X6712Y5177D1*
X6705Y5174D1*
X6698Y5172D1*
X6691Y5170D1*
X6684Y5169D1*
X6676D1*
X6669D1*
X6662D1*
X6654Y5170D1*
X6647Y5172D1*
X6640Y5174D1*
X6633Y5177D1*
X6627Y5180D1*
X6620Y5183D1*
X6614Y5187D1*
X6608Y5192D1*
X6602Y5197D1*
X6597Y5202D1*
X6592Y5208D1*
X6588Y5214D1*
X6584Y5220D1*
X6580Y5227D1*
X6577Y5234D1*
X6574Y5241D1*
X6572Y5248D1*
X6570Y5256D1*
X6569Y5263D1*
X6568Y5271D1*
Y5279D1*
X6267D2*
Y5286D1*
X6268Y5294D1*
X6269Y5302D1*
X6271Y5309D1*
X6273Y5316D1*
X6276Y5323D1*
X6279Y5330D1*
X6283Y5337D1*
X6287Y5343D1*
X6292Y5349D1*
X6297Y5355D1*
X6302Y5360D1*
X6307Y5365D1*
X6313Y5370D1*
X6320Y5374D1*
X6326Y5378D1*
X6333Y5381D1*
X6340Y5383D1*
X6347Y5385D1*
X6354Y5387D1*
X6361Y5388D1*
X6368Y5389D1*
X6376D1*
X6383Y5388D1*
X6390Y5387D1*
X6397Y5385D1*
X6404Y5383D1*
X6411Y5381D1*
X6418Y5378D1*
X6425Y5374D1*
X6431Y5370D1*
X6437Y5365D1*
X6442Y5360D1*
X6448Y5355D1*
X6452Y5349D1*
X6457Y5343D1*
X6461Y5337D1*
X6465Y5330D1*
X6468Y5323D1*
X6471Y5316D1*
X6473Y5309D1*
X6475Y5302D1*
X6476Y5294D1*
X6477Y5286D1*
Y5279D1*
Y5271D1*
X6476Y5263D1*
X6475Y5256D1*
X6473Y5248D1*
X6471Y5241D1*
X6468Y5234D1*
X6465Y5227D1*
X6461Y5220D1*
X6457Y5214D1*
X6452Y5208D1*
X6448Y5202D1*
X6442Y5197D1*
X6437Y5192D1*
X6431Y5187D1*
X6425Y5183D1*
X6418Y5180D1*
X6411Y5177D1*
X6404Y5174D1*
X6397Y5172D1*
X6390Y5170D1*
X6383Y5169D1*
X6376D1*
X6368D1*
X6361D1*
X6354Y5170D1*
X6347Y5172D1*
X6340Y5174D1*
X6333Y5177D1*
X6326Y5180D1*
X6320Y5183D1*
X6313Y5187D1*
X6307Y5192D1*
X6302Y5197D1*
X6297Y5202D1*
X6292Y5208D1*
X6287Y5214D1*
X6283Y5220D1*
X6279Y5227D1*
X6276Y5234D1*
X6273Y5241D1*
X6271Y5248D1*
X6269Y5256D1*
X6268Y5263D1*
X6267Y5271D1*
Y5279D1*
X7467Y6785D2*
Y6793D1*
X7468Y6801D1*
X7469Y6808D1*
X7471Y6816D1*
X7473Y6823D1*
X7476Y6830D1*
X7479Y6837D1*
X7482Y6844D1*
X7487Y6850D1*
X7491Y6856D1*
X7496Y6862D1*
X7501Y6867D1*
X7507Y6872D1*
X7513Y6877D1*
X7519Y6881D1*
X7525Y6884D1*
X7532Y6887D1*
X7539Y6890D1*
X7546Y6892D1*
X7553Y6894D1*
X7561Y6895D1*
X7568D1*
X7575D1*
X7582D1*
X7590Y6894D1*
X7597Y6892D1*
X7604Y6890D1*
X7611Y6887D1*
X7618Y6884D1*
X7624Y6881D1*
X7630Y6877D1*
X7636Y6872D1*
X7642Y6867D1*
X7647Y6862D1*
X7652Y6856D1*
X7656Y6850D1*
X7661Y6844D1*
X7664Y6837D1*
X7667Y6830D1*
X7670Y6823D1*
X7672Y6816D1*
X7674Y6808D1*
X7675Y6801D1*
X7676Y6793D1*
Y6785D1*
Y6778D1*
X7675Y6770D1*
X7674Y6763D1*
X7672Y6755D1*
X7670Y6748D1*
X7667Y6741D1*
X7664Y6734D1*
X7661Y6727D1*
X7656Y6721D1*
X7652Y6715D1*
X7647Y6709D1*
X7642Y6704D1*
X7636Y6699D1*
X7630Y6694D1*
X7624Y6690D1*
X7618Y6687D1*
X7611Y6683D1*
X7604Y6681D1*
X7597Y6679D1*
X7590Y6677D1*
X7582Y6676D1*
X7575Y6675D1*
X7568D1*
X7561Y6676D1*
X7553Y6677D1*
X7546Y6679D1*
X7539Y6681D1*
X7532Y6683D1*
X7525Y6687D1*
X7519Y6690D1*
X7513Y6694D1*
X7507Y6699D1*
X7501Y6704D1*
X7496Y6709D1*
X7491Y6715D1*
X7487Y6721D1*
X7482Y6727D1*
X7479Y6734D1*
X7476Y6741D1*
X7473Y6748D1*
X7471Y6755D1*
X7469Y6763D1*
X7468Y6770D1*
X7467Y6778D1*
Y6785D1*
X7766Y6787D2*
Y6794D1*
X7767Y6802D1*
X7768Y6809D1*
X7770Y6817D1*
X7772Y6824D1*
X7775Y6831D1*
X7778Y6838D1*
X7782Y6845D1*
X7786Y6851D1*
X7790Y6857D1*
X7795Y6863D1*
X7800Y6868D1*
X7806Y6873D1*
X7812Y6878D1*
X7818Y6882D1*
X7825Y6885D1*
X7831Y6888D1*
X7838Y6891D1*
X7845Y6893D1*
X7852Y6895D1*
X7860Y6896D1*
X7867D1*
X7874D1*
X7882D1*
X7889Y6895D1*
X7896Y6893D1*
X7903Y6891D1*
X7910Y6888D1*
X7917Y6885D1*
X7923Y6882D1*
X7929Y6878D1*
X7935Y6873D1*
X7941Y6868D1*
X7946Y6863D1*
X7951Y6857D1*
X7955Y6851D1*
X7960Y6845D1*
X7963Y6838D1*
X7966Y6831D1*
X7969Y6824D1*
X7971Y6817D1*
X7973Y6809D1*
X7975Y6802D1*
Y6794D1*
X7976Y6787D1*
X7975Y6779D1*
Y6771D1*
X7973Y6764D1*
X7971Y6756D1*
X7969Y6749D1*
X7966Y6742D1*
X7963Y6735D1*
X7960Y6728D1*
X7955Y6722D1*
X7951Y6716D1*
X7946Y6710D1*
X7941Y6705D1*
X7935Y6700D1*
X7929Y6696D1*
X7923Y6691D1*
X7917Y6688D1*
X7910Y6685D1*
X7903Y6682D1*
X7896Y6680D1*
X7889Y6678D1*
X7882Y6677D1*
X7874D1*
X7867D1*
X7860D1*
X7852Y6678D1*
X7845Y6680D1*
X7838Y6682D1*
X7831Y6685D1*
X7825Y6688D1*
X7818Y6691D1*
X7812Y6696D1*
X7806Y6700D1*
X7800Y6705D1*
X7795Y6710D1*
X7790Y6716D1*
X7786Y6722D1*
X7782Y6728D1*
X7778Y6735D1*
X7775Y6742D1*
X7772Y6749D1*
X7770Y6756D1*
X7768Y6764D1*
X7767Y6771D1*
X7766Y6779D1*
Y6787D1*
X6867Y6785D2*
Y6793D1*
X6868Y6801D1*
X6869Y6808D1*
X6871Y6816D1*
X6873Y6823D1*
X6876Y6830D1*
X6879Y6837D1*
X6883Y6844D1*
X6887Y6850D1*
X6891Y6856D1*
X6896Y6862D1*
X6901Y6867D1*
X6907Y6872D1*
X6913Y6877D1*
X6919Y6881D1*
X6926Y6884D1*
X6932Y6887D1*
X6939Y6890D1*
X6946Y6892D1*
X6953Y6894D1*
X6961Y6895D1*
X6968D1*
X6975D1*
X6983D1*
X6990Y6894D1*
X6997Y6892D1*
X7004Y6890D1*
X7011Y6887D1*
X7018Y6884D1*
X7024Y6881D1*
X7030Y6877D1*
X7036Y6872D1*
X7042Y6867D1*
X7047Y6862D1*
X7052Y6856D1*
X7057Y6850D1*
X7061Y6844D1*
X7064Y6837D1*
X7068Y6830D1*
X7070Y6823D1*
X7073Y6816D1*
X7074Y6808D1*
X7076Y6801D1*
Y6793D1*
X7077Y6785D1*
X7076Y6778D1*
Y6770D1*
X7074Y6763D1*
X7073Y6755D1*
X7070Y6748D1*
X7068Y6741D1*
X7064Y6734D1*
X7061Y6727D1*
X7057Y6721D1*
X7052Y6715D1*
X7047Y6709D1*
X7042Y6704D1*
X7036Y6699D1*
X7030Y6694D1*
X7024Y6690D1*
X7018Y6687D1*
X7011Y6683D1*
X7004Y6681D1*
X6997Y6679D1*
X6990Y6677D1*
X6983Y6676D1*
X6975Y6675D1*
X6968D1*
X6961Y6676D1*
X6953Y6677D1*
X6946Y6679D1*
X6939Y6681D1*
X6932Y6683D1*
X6926Y6687D1*
X6919Y6690D1*
X6913Y6694D1*
X6907Y6699D1*
X6901Y6704D1*
X6896Y6709D1*
X6891Y6715D1*
X6887Y6721D1*
X6883Y6727D1*
X6879Y6734D1*
X6876Y6741D1*
X6873Y6748D1*
X6871Y6755D1*
X6869Y6763D1*
X6868Y6770D1*
X6867Y6778D1*
Y6785D1*
X7166Y6787D2*
Y6794D1*
X7167Y6802D1*
X7168Y6809D1*
X7170Y6817D1*
X7172Y6824D1*
X7175Y6831D1*
X7178Y6838D1*
X7182Y6845D1*
X7186Y6851D1*
X7191Y6857D1*
X7195Y6863D1*
X7201Y6868D1*
X7206Y6873D1*
X7212Y6878D1*
X7219Y6882D1*
X7225Y6885D1*
X7232Y6888D1*
X7239Y6891D1*
X7246Y6893D1*
X7253Y6895D1*
X7260Y6896D1*
X7267D1*
X7275D1*
X7282D1*
X7289Y6895D1*
X7296Y6893D1*
X7303Y6891D1*
X7310Y6888D1*
X7317Y6885D1*
X7323Y6882D1*
X7330Y6878D1*
X7336Y6873D1*
X7341Y6868D1*
X7346Y6863D1*
X7351Y6857D1*
X7356Y6851D1*
X7360Y6845D1*
X7364Y6838D1*
X7367Y6831D1*
X7370Y6824D1*
X7372Y6817D1*
X7374Y6809D1*
X7375Y6802D1*
X7376Y6794D1*
Y6787D1*
Y6779D1*
X7375Y6771D1*
X7374Y6764D1*
X7372Y6756D1*
X7370Y6749D1*
X7367Y6742D1*
X7364Y6735D1*
X7360Y6728D1*
X7356Y6722D1*
X7351Y6716D1*
X7346Y6710D1*
X7341Y6705D1*
X7336Y6700D1*
X7330Y6696D1*
X7323Y6691D1*
X7317Y6688D1*
X7310Y6685D1*
X7303Y6682D1*
X7296Y6680D1*
X7289Y6678D1*
X7282Y6677D1*
X7275D1*
X7267D1*
X7260D1*
X7253Y6678D1*
X7246Y6680D1*
X7239Y6682D1*
X7232Y6685D1*
X7225Y6688D1*
X7219Y6691D1*
X7212Y6696D1*
X7206Y6700D1*
X7201Y6705D1*
X7195Y6710D1*
X7191Y6716D1*
X7186Y6722D1*
X7182Y6728D1*
X7178Y6735D1*
X7175Y6742D1*
X7172Y6749D1*
X7170Y6756D1*
X7168Y6764D1*
X7167Y6771D1*
X7166Y6779D1*
Y6787D1*
X6566D2*
Y6794D1*
X6567Y6802D1*
X6568Y6809D1*
X6570Y6817D1*
X6572Y6824D1*
X6575Y6831D1*
X6578Y6838D1*
X6582Y6845D1*
X6586Y6851D1*
X6591Y6857D1*
X6596Y6863D1*
X6601Y6868D1*
X6606Y6873D1*
X6612Y6878D1*
X6619Y6882D1*
X6625Y6885D1*
X6632Y6888D1*
X6639Y6891D1*
X6646Y6893D1*
X6653Y6895D1*
X6660Y6896D1*
X6667D1*
X6675D1*
X6682D1*
X6689Y6895D1*
X6697Y6893D1*
X6704Y6891D1*
X6710Y6888D1*
X6717Y6885D1*
X6724Y6882D1*
X6730Y6878D1*
X6736Y6873D1*
X6741Y6868D1*
X6747Y6863D1*
X6752Y6857D1*
X6756Y6851D1*
X6760Y6845D1*
X6764Y6838D1*
X6767Y6831D1*
X6770Y6824D1*
X6772Y6817D1*
X6774Y6809D1*
X6775Y6802D1*
X6776Y6794D1*
Y6787D1*
Y6779D1*
X6775Y6771D1*
X6774Y6764D1*
X6772Y6756D1*
X6770Y6749D1*
X6767Y6742D1*
X6764Y6735D1*
X6760Y6728D1*
X6756Y6722D1*
X6752Y6716D1*
X6747Y6710D1*
X6741Y6705D1*
X6736Y6700D1*
X6730Y6696D1*
X6724Y6691D1*
X6717Y6688D1*
X6710Y6685D1*
X6704Y6682D1*
X6697Y6680D1*
X6689Y6678D1*
X6682Y6677D1*
X6675D1*
X6667D1*
X6660D1*
X6653Y6678D1*
X6646Y6680D1*
X6639Y6682D1*
X6632Y6685D1*
X6625Y6688D1*
X6619Y6691D1*
X6612Y6696D1*
X6606Y6700D1*
X6601Y6705D1*
X6596Y6710D1*
X6591Y6716D1*
X6586Y6722D1*
X6582Y6728D1*
X6578Y6735D1*
X6575Y6742D1*
X6572Y6749D1*
X6570Y6756D1*
X6568Y6764D1*
X6567Y6771D1*
X6566Y6779D1*
Y6787D1*
X6266D2*
Y6794D1*
X6267Y6802D1*
X6268Y6809D1*
X6270Y6817D1*
X6272Y6824D1*
X6275Y6831D1*
X6278Y6838D1*
X6282Y6845D1*
X6286Y6851D1*
X6290Y6857D1*
X6295Y6863D1*
X6300Y6868D1*
X6306Y6873D1*
X6312Y6878D1*
X6318Y6882D1*
X6325Y6885D1*
X6331Y6888D1*
X6338Y6891D1*
X6345Y6893D1*
X6352Y6895D1*
X6360Y6896D1*
X6367D1*
X6374D1*
X6382D1*
X6389Y6895D1*
X6396Y6893D1*
X6403Y6891D1*
X6410Y6888D1*
X6417Y6885D1*
X6423Y6882D1*
X6429Y6878D1*
X6435Y6873D1*
X6441Y6868D1*
X6446Y6863D1*
X6451Y6857D1*
X6456Y6851D1*
X6460Y6845D1*
X6463Y6838D1*
X6466Y6831D1*
X6469Y6824D1*
X6472Y6817D1*
X6473Y6809D1*
X6475Y6802D1*
Y6794D1*
X6476Y6787D1*
X6475Y6779D1*
Y6771D1*
X6473Y6764D1*
X6472Y6756D1*
X6469Y6749D1*
X6466Y6742D1*
X6463Y6735D1*
X6460Y6728D1*
X6456Y6722D1*
X6451Y6716D1*
X6446Y6710D1*
X6441Y6705D1*
X6435Y6700D1*
X6429Y6696D1*
X6423Y6691D1*
X6417Y6688D1*
X6410Y6685D1*
X6403Y6682D1*
X6396Y6680D1*
X6389Y6678D1*
X6382Y6677D1*
X6374D1*
X6367D1*
X6360D1*
X6352Y6678D1*
X6345Y6680D1*
X6338Y6682D1*
X6331Y6685D1*
X6325Y6688D1*
X6318Y6691D1*
X6312Y6696D1*
X6306Y6700D1*
X6300Y6705D1*
X6295Y6710D1*
X6290Y6716D1*
X6286Y6722D1*
X6282Y6728D1*
X6278Y6735D1*
X6275Y6742D1*
X6272Y6749D1*
X6270Y6756D1*
X6268Y6764D1*
X6267Y6771D1*
X6266Y6779D1*
Y6787D1*
G36*
X6448Y6894D2*
X6594D1*
Y5161D1*
X6448D1*
Y6894D1*
G37*
G36*
X6755Y6932D2*
X6883D1*
Y5158D1*
X6755D1*
Y6932D1*
G37*
G36*
X7053D2*
X7185D1*
Y5154D1*
X7053D1*
Y6932D1*
G37*
G36*
X7354Y6935D2*
X7492D1*
Y5157D1*
X7354D1*
Y6935D1*
G37*
G36*
X7652Y6920D2*
X7788D1*
Y5156D1*
X7652D1*
Y6920D1*
G37*
G36*
X6253Y6707D2*
X7996D1*
Y6557D1*
X6253D1*
Y6707D1*
G37*
G36*
X6259Y6409D2*
X7996D1*
Y6257D1*
X6259D1*
Y6409D1*
G37*
G36*
X6262Y6110D2*
X7996D1*
Y5952D1*
X6262D1*
Y6110D1*
G37*
G36*
Y5798D2*
X7996D1*
Y5657D1*
X6262D1*
Y5798D1*
G37*
G36*
X6255Y5499D2*
X7996D1*
Y5356D1*
X6255D1*
Y5499D1*
G37*
X6226Y6931D2*
D10*
X8019D1*
Y5136D1*
X6226D1*
Y6931D1*
D47*
X5933Y6900D3*
Y6742D3*
Y6585D3*
Y6427D3*
Y6270D3*
Y6112D3*
Y5955D3*
Y5797D3*
Y5640D3*
Y5482D3*
Y5325D3*
Y5167D3*
D45*
X6258Y4842D3*
X6415D3*
X6573D3*
X6730D3*
X6888D3*
X7045D3*
X7203D3*
X7360D3*
X7518D3*
X7675D3*
X7833D3*
X7990D3*
D47*
X8315Y5167D3*
Y5325D3*
Y5482D3*
Y5640D3*
Y5797D3*
Y5955D3*
Y6112D3*
Y6270D3*
Y6427D3*
Y6585D3*
Y6742D3*
Y6900D3*
D45*
X7990Y7224D3*
X7833D3*
X7675D3*
X7518D3*
X7360D3*
X7203D3*
X7045D3*
X6888D3*
X6730D3*
X6573D3*
X6415D3*
X6258D3*
G36*
X6972Y9028D2*
X6627Y8683D1*
X6310Y9000D1*
X6655Y9345D1*
X6972Y9028D1*
G37*
G36*
X6499Y8555D2*
X6154Y8209D1*
X5836Y8527D1*
X6181Y8872D1*
X6499Y8555D1*
G37*
G36*
X6889Y8165D2*
X6543Y7820D1*
X6226Y8137D1*
X6571Y8482D1*
X6889Y8165D1*
G37*
G36*
X7362Y8638D2*
X7017Y8293D1*
X6699Y8610D1*
X7044Y8955D1*
X7362Y8638D1*
G37*
M02*
