G04 DipTrace 2.4.0.2*
%IN3dBBLE.gtp*%
%MOIN*%
%ADD28C,0.075*%
%ADD29C,0.0562*%
%ADD46O,0.0X0.0177*%
%ADD48O,0.0177X0.0*%
%ADD50R,0.0118X0.0157*%
%ADD52R,0.0217X0.0276*%
%ADD58R,0.0276X0.0217*%
%ADD60R,0.0197X0.0276*%
%ADD62R,0.0315X0.0354*%
%ADD64R,0.0276X0.0197*%
%FSLAX44Y44*%
G04*
G70*
G90*
G75*
G01*
%LNTopPaste*%
%LPD*%
G36*
X10694Y7787D2*
X10166D1*
Y8314D1*
X10694D1*
Y7787D1*
G37*
G36*
X11457D2*
X10930D1*
Y8314D1*
X11457D1*
Y7787D1*
G37*
G36*
Y8550D2*
X10930D1*
Y9078D1*
X11457D1*
Y8550D1*
G37*
G36*
X10694D2*
X10166D1*
Y9078D1*
X10694D1*
Y8550D1*
G37*
G36*
X9156Y6284D2*
X9137D1*
Y6422D1*
X9156D1*
Y6284D1*
G37*
G36*
X8959D2*
X8940D1*
Y6422D1*
X8959D1*
Y6284D1*
G37*
G36*
X8762D2*
X8743D1*
Y6422D1*
X8762D1*
Y6284D1*
G37*
G36*
Y5950D2*
X8743D1*
Y6087D1*
X8762D1*
Y5950D1*
G37*
G36*
X8959D2*
X8940D1*
Y6087D1*
X8959D1*
Y5950D1*
G37*
G36*
X9156D2*
X9137D1*
Y6087D1*
X9156D1*
Y5950D1*
G37*
G36*
X6245Y9091D2*
X6106Y9230D1*
X6301Y9425D1*
X6440Y9285D1*
X6245Y9091D1*
G37*
G36*
X5884Y8729D2*
X5744Y8868D1*
X5939Y9063D1*
X6078Y8924D1*
X5884Y8729D1*
G37*
G36*
X6304Y7915D2*
X6165Y7775D1*
X5970Y7970D1*
X6109Y8109D1*
X6304Y7915D1*
G37*
G36*
X5942Y8276D2*
X5803Y8137D1*
X5608Y8332D1*
X5747Y8471D1*
X5942Y8276D1*
G37*
D64*
X9025Y5680D3*
X9537D3*
D62*
X5348Y6895D3*
Y7564D3*
D64*
X7484Y7550D3*
X6972D3*
G36*
X8147Y7721D2*
X8344D1*
Y7446D1*
X8147D1*
Y7721D1*
G37*
G36*
Y8233D2*
X8344D1*
Y7958D1*
X8147D1*
Y8233D1*
G37*
D60*
X8645Y5535D3*
Y5023D3*
X5007Y5041D3*
Y4529D3*
D62*
X4862Y7073D3*
Y7742D3*
D58*
X5612Y5058D3*
Y4507D3*
D52*
X5250Y6273D3*
X4699D3*
D50*
X4520Y6642D3*
Y7036D3*
G36*
X10221Y5893D2*
X10082Y5754D1*
X9887Y5949D1*
X10026Y6088D1*
X10221Y5893D1*
G37*
G36*
X10583Y5531D2*
X10444Y5392D1*
X10249Y5587D1*
X10388Y5726D1*
X10583Y5531D1*
G37*
D28*
X7124Y6033D3*
D29*
X6655Y6502D3*
X7593D3*
Y5565D3*
X6655D3*
D48*
X5933Y6900D3*
Y6742D3*
Y6585D3*
Y6427D3*
Y6270D3*
Y6112D3*
Y5955D3*
Y5797D3*
Y5640D3*
Y5482D3*
Y5325D3*
Y5167D3*
D46*
X6258Y4842D3*
X6415D3*
X6573D3*
X6730D3*
X6888D3*
X7045D3*
X7203D3*
X7360D3*
X7518D3*
X7675D3*
X7833D3*
X7990D3*
D48*
X8315Y5167D3*
Y5325D3*
Y5482D3*
Y5640D3*
Y5797D3*
Y5955D3*
Y6112D3*
Y6270D3*
Y6427D3*
Y6585D3*
Y6742D3*
Y6900D3*
D46*
X7990Y7224D3*
X7833D3*
X7675D3*
X7518D3*
X7360D3*
X7203D3*
X7045D3*
X6888D3*
X6730D3*
X6573D3*
X6415D3*
X6258D3*
G36*
X6905Y9028D2*
X6627Y8749D1*
X6376Y9000D1*
X6655Y9278D1*
X6905Y9028D1*
G37*
G36*
X6432Y8555D2*
X6154Y8276D1*
X5903Y8527D1*
X6181Y8805D1*
X6432Y8555D1*
G37*
G36*
X6822Y8165D2*
X6543Y7886D1*
X6293Y8137D1*
X6571Y8415D1*
X6822Y8165D1*
G37*
G36*
X7295Y8638D2*
X7017Y8360D1*
X6766Y8610D1*
X7044Y8889D1*
X7295Y8638D1*
G37*
M02*
