G04 DipTrace 2.4.0.2*
%INFlexADCBufferAry.gts*%
%MOIN*%
%ADD18C,0.006*%
%ADD24C,0.0065*%
%ADD39O,0.035X0.0134*%
%ADD41O,0.0134X0.035*%
%ADD43R,0.0468X0.0189*%
%ADD45R,0.0685X0.0816*%
%ADD47R,0.0816X0.0685*%
%ADD49R,0.0291X0.037*%
%FSLAX44Y44*%
G04*
G70*
G90*
G75*
G01*
%LNTopMask*%
%LPD*%
D49*
X6751Y6852D3*
Y7364D3*
X4798Y6710D3*
Y7222D3*
X6313Y7592D3*
Y8104D3*
X4798Y6265D3*
Y5753D3*
X5295Y7594D3*
Y8106D3*
X6752Y6169D3*
Y5658D3*
X5423Y5415D3*
Y4903D3*
X6304Y5416D3*
Y4904D3*
X5812Y7591D3*
Y8103D3*
D47*
X8937Y7937D3*
Y6937D3*
Y5937D3*
Y4937D3*
X3937D3*
Y5937D3*
Y6937D3*
Y7937D3*
D45*
X5937Y3937D3*
X4937D3*
D43*
X8021Y6927D3*
Y7242D3*
Y7557D3*
Y7872D3*
X7313D3*
Y7557D3*
Y7242D3*
Y6927D3*
X8022Y4943D3*
Y5258D3*
Y5573D3*
Y5888D3*
X7314D3*
Y5573D3*
Y5258D3*
Y4943D3*
X6097Y6775D2*
D18*
X5541D1*
Y6216D1*
X6097D1*
Y6775D1*
G36*
X5903Y6587D2*
X5717D1*
Y6401D1*
X5903D1*
Y6587D1*
G37*
G36*
X6111Y6560D2*
X5901D1*
Y6435D1*
X6111D1*
Y6560D1*
G37*
G36*
X5903Y6419D2*
X5750D1*
Y6205D1*
X5903D1*
Y6419D1*
G37*
G36*
X5881Y6790D2*
X5759D1*
Y6586D1*
X5881D1*
Y6790D1*
G37*
G36*
X5721Y6557D2*
X5528D1*
Y6431D1*
X5721D1*
Y6557D1*
G37*
X5867Y6340D2*
D24*
Y6347D1*
X5868Y6354D1*
X5869Y6361D1*
X5871Y6368D1*
X5873Y6375D1*
X5876Y6382D1*
X5879Y6389D1*
X5883Y6395D1*
X5888Y6401D1*
X5892Y6407D1*
X5897Y6412D1*
X5903Y6418D1*
X5909Y6422D1*
X5915Y6427D1*
X5922Y6430D1*
X5928Y6434D1*
X5935Y6437D1*
X5943Y6439D1*
X5950Y6441D1*
X5958Y6443D1*
X5965Y6444D1*
X5973D1*
X5980D1*
X5988D1*
X5996Y6443D1*
X6003Y6441D1*
X6011Y6439D1*
X6018Y6437D1*
X6025Y6434D1*
X6032Y6430D1*
X6038Y6427D1*
X6044Y6422D1*
X6050Y6418D1*
X6056Y6412D1*
X6061Y6407D1*
X6066Y6401D1*
X6070Y6395D1*
X6074Y6389D1*
X6077Y6382D1*
X6080Y6375D1*
X6082Y6368D1*
X6084Y6361D1*
X6086Y6354D1*
Y6347D1*
X6087Y6340D1*
X6086Y6332D1*
Y6325D1*
X6084Y6318D1*
X6082Y6311D1*
X6080Y6304D1*
X6077Y6297D1*
X6074Y6290D1*
X6070Y6284D1*
X6066Y6278D1*
X6061Y6272D1*
X6056Y6267D1*
X6050Y6262D1*
X6044Y6257D1*
X6038Y6252D1*
X6032Y6249D1*
X6025Y6245D1*
X6018Y6242D1*
X6011Y6240D1*
X6003Y6238D1*
X5996Y6236D1*
X5988Y6235D1*
X5980D1*
X5973D1*
X5965D1*
X5958Y6236D1*
X5950Y6238D1*
X5943Y6240D1*
X5935Y6242D1*
X5928Y6245D1*
X5922Y6249D1*
X5915Y6252D1*
X5909Y6257D1*
X5903Y6262D1*
X5897Y6267D1*
X5892Y6272D1*
X5888Y6278D1*
X5883Y6284D1*
X5879Y6290D1*
X5876Y6297D1*
X5873Y6304D1*
X5871Y6311D1*
X5869Y6318D1*
X5868Y6325D1*
X5867Y6332D1*
Y6340D1*
X5553Y6338D2*
Y6346D1*
X5554Y6353D1*
X5555Y6360D1*
X5557Y6367D1*
X5560Y6374D1*
X5563Y6381D1*
X5566Y6387D1*
X5570Y6394D1*
X5574Y6400D1*
X5579Y6406D1*
X5584Y6411D1*
X5589Y6416D1*
X5595Y6421D1*
X5602Y6425D1*
X5608Y6429D1*
X5615Y6433D1*
X5622Y6436D1*
X5629Y6438D1*
X5636Y6440D1*
X5644Y6442D1*
X5652Y6443D1*
X5659D1*
X5667D1*
X5675D1*
X5682Y6442D1*
X5690Y6440D1*
X5697Y6438D1*
X5704Y6436D1*
X5711Y6433D1*
X5718Y6429D1*
X5725Y6425D1*
X5731Y6421D1*
X5737Y6416D1*
X5742Y6411D1*
X5747Y6406D1*
X5752Y6400D1*
X5756Y6394D1*
X5760Y6387D1*
X5764Y6381D1*
X5766Y6374D1*
X5769Y6367D1*
X5771Y6360D1*
X5772Y6353D1*
X5773Y6346D1*
Y6338D1*
Y6331D1*
X5772Y6324D1*
X5771Y6316D1*
X5769Y6309D1*
X5766Y6302D1*
X5764Y6296D1*
X5760Y6289D1*
X5756Y6283D1*
X5752Y6277D1*
X5747Y6271D1*
X5742Y6265D1*
X5737Y6260D1*
X5731Y6255D1*
X5725Y6251D1*
X5718Y6247D1*
X5711Y6244D1*
X5704Y6241D1*
X5697Y6238D1*
X5690Y6236D1*
X5682Y6235D1*
X5675Y6234D1*
X5667Y6233D1*
X5659D1*
X5652Y6234D1*
X5644Y6235D1*
X5636Y6236D1*
X5629Y6238D1*
X5622Y6241D1*
X5615Y6244D1*
X5608Y6247D1*
X5602Y6251D1*
X5595Y6255D1*
X5589Y6260D1*
X5584Y6265D1*
X5579Y6271D1*
X5574Y6277D1*
X5570Y6283D1*
X5566Y6289D1*
X5563Y6296D1*
X5560Y6302D1*
X5557Y6309D1*
X5555Y6316D1*
X5554Y6324D1*
X5553Y6331D1*
Y6338D1*
X5865Y6651D2*
X5866Y6658D1*
X5867Y6665D1*
X5868Y6672D1*
X5870Y6679D1*
X5872Y6686D1*
X5875Y6693D1*
X5878Y6700D1*
X5882Y6706D1*
X5886Y6712D1*
X5891Y6718D1*
X5896Y6723D1*
X5902Y6729D1*
X5908Y6733D1*
X5914Y6738D1*
X5920Y6741D1*
X5927Y6745D1*
X5934Y6748D1*
X5941Y6750D1*
X5949Y6752D1*
X5956Y6754D1*
X5964Y6755D1*
X5972D1*
X5979D1*
X5987D1*
X5994Y6754D1*
X6002Y6752D1*
X6009Y6750D1*
X6017Y6748D1*
X6024Y6745D1*
X6030Y6741D1*
X6037Y6738D1*
X6043Y6733D1*
X6049Y6729D1*
X6054Y6723D1*
X6060Y6718D1*
X6064Y6712D1*
X6069Y6706D1*
X6072Y6700D1*
X6076Y6693D1*
X6079Y6686D1*
X6081Y6679D1*
X6083Y6672D1*
X6084Y6665D1*
X6085Y6658D1*
Y6651D1*
Y6643D1*
X6084Y6636D1*
X6083Y6629D1*
X6081Y6622D1*
X6079Y6615D1*
X6076Y6608D1*
X6072Y6601D1*
X6069Y6595D1*
X6064Y6589D1*
X6060Y6583D1*
X6054Y6578D1*
X6049Y6573D1*
X6043Y6568D1*
X6037Y6564D1*
X6030Y6560D1*
X6024Y6556D1*
X6017Y6553D1*
X6009Y6551D1*
X6002Y6549D1*
X5994Y6547D1*
X5987Y6546D1*
X5979D1*
X5972D1*
X5964D1*
X5956Y6547D1*
X5949Y6549D1*
X5941Y6551D1*
X5934Y6553D1*
X5927Y6556D1*
X5920Y6560D1*
X5914Y6564D1*
X5908Y6568D1*
X5902Y6573D1*
X5896Y6578D1*
X5891Y6583D1*
X5886Y6589D1*
X5882Y6595D1*
X5878Y6601D1*
X5875Y6608D1*
X5872Y6615D1*
X5870Y6622D1*
X5868Y6629D1*
X5867Y6636D1*
X5866Y6643D1*
X5865Y6651D1*
X5554D2*
X5555Y6658D1*
Y6665D1*
X5557Y6672D1*
X5559Y6679D1*
X5561Y6686D1*
X5564Y6693D1*
X5567Y6700D1*
X5571Y6706D1*
X5575Y6712D1*
X5580Y6718D1*
X5585Y6723D1*
X5591Y6729D1*
X5597Y6733D1*
X5603Y6738D1*
X5609Y6741D1*
X5616Y6745D1*
X5623Y6748D1*
X5630Y6750D1*
X5638Y6752D1*
X5645Y6754D1*
X5653Y6755D1*
X5661D1*
X5668D1*
X5676D1*
X5683Y6754D1*
X5691Y6752D1*
X5698Y6750D1*
X5706Y6748D1*
X5713Y6745D1*
X5719Y6741D1*
X5726Y6738D1*
X5732Y6733D1*
X5738Y6729D1*
X5743Y6723D1*
X5749Y6718D1*
X5753Y6712D1*
X5758Y6706D1*
X5761Y6700D1*
X5765Y6693D1*
X5768Y6686D1*
X5770Y6679D1*
X5772Y6672D1*
X5773Y6665D1*
X5774Y6658D1*
Y6651D1*
Y6643D1*
X5773Y6636D1*
X5772Y6629D1*
X5770Y6622D1*
X5768Y6615D1*
X5765Y6608D1*
X5761Y6601D1*
X5758Y6595D1*
X5753Y6589D1*
X5749Y6583D1*
X5743Y6578D1*
X5738Y6573D1*
X5732Y6568D1*
X5726Y6564D1*
X5719Y6560D1*
X5713Y6556D1*
X5706Y6553D1*
X5698Y6551D1*
X5691Y6549D1*
X5683Y6547D1*
X5676Y6546D1*
X5668D1*
X5661D1*
X5653D1*
X5645Y6547D1*
X5638Y6549D1*
X5630Y6551D1*
X5623Y6553D1*
X5616Y6556D1*
X5609Y6560D1*
X5603Y6564D1*
X5597Y6568D1*
X5591Y6573D1*
X5585Y6578D1*
X5580Y6583D1*
X5575Y6589D1*
X5571Y6595D1*
X5567Y6601D1*
X5564Y6608D1*
X5561Y6615D1*
X5559Y6622D1*
X5557Y6629D1*
X5555Y6636D1*
Y6643D1*
X5554Y6651D1*
D41*
X6115Y7065D3*
X5918D3*
X5721D3*
X5524D3*
D39*
X5248Y6789D3*
Y6593D3*
Y6396D3*
Y6199D3*
D41*
X5524Y5923D3*
X5721D3*
X5918D3*
X6115D3*
D39*
X6390Y6199D3*
Y6396D3*
Y6593D3*
Y6789D3*
M02*
