G04 DipTrace 3.0.0.2*
G04 BottomAssy.gbr*
%MOIN*%
G04 #@! TF.FileFunction,Drawing,Bot*
G04 #@! TF.Part,Single*
%ADD10C,0.009843*%
%ADD16C,0.001312*%
%FSLAX26Y26*%
G04*
G70*
G90*
G75*
G01*
G04 BotAssy*
%LPD*%
X916811Y588946D2*
D10*
G02X916661Y656826I20261J33985D01*
G01*
X916811Y688944D2*
G02X916661Y756824I20261J33985D01*
G01*
X795306Y467441D2*
G03X727426Y467591I-33985J-20261D01*
G01*
X695308Y467441D2*
G03X627428Y467591I-33985J-20261D01*
G01*
X628316Y877441D2*
G03X696196Y877291I33985J20261D01*
G01*
X728314Y877441D2*
G03X796194Y877291I33985J20261D01*
G01*
X506811Y588946D2*
G03X506961Y656826I-20261J33985D01*
G01*
X506811Y688944D2*
G03X506961Y756824I-20261J33985D01*
G01*
X628546Y879892D2*
D16*
X628929Y915122D1*
X796651D1*
Y877978D1*
X698353Y878873D2*
X726206D1*
X918688Y755844D2*
X954568Y755339D1*
X954063Y589077D1*
X919193Y589583D1*
X918671Y658173D2*
Y688698D1*
X628407Y464634D2*
X628751Y430609D1*
X795438D1*
X795782Y465322D1*
X697820Y466949D2*
X725856Y466594D1*
X505251Y588152D2*
X469969Y587777D1*
Y758184D1*
X505251Y757807D1*
X505043Y656959D2*
X504818Y686837D1*
X393724Y4301896D2*
X4326365D1*
Y393915D1*
X393724D1*
Y4301896D1*
X1387677Y588946D2*
D10*
G02X1387527Y656826I20261J33985D01*
G01*
X1387677Y688944D2*
G02X1387527Y756824I20261J33985D01*
G01*
X1266172Y467441D2*
G03X1198292Y467591I-33985J-20261D01*
G01*
X1166174Y467441D2*
G03X1098294Y467591I-33985J-20261D01*
G01*
X1099182Y877441D2*
G03X1167062Y877291I33985J20261D01*
G01*
X1199180Y877441D2*
G03X1267060Y877291I33985J20261D01*
G01*
X977677Y588946D2*
G03X977827Y656826I-20261J33985D01*
G01*
X977677Y688944D2*
G03X977827Y756824I-20261J33985D01*
G01*
X1099412Y879892D2*
D16*
X1099795Y915122D1*
X1267517D1*
Y877978D1*
X1169219Y878873D2*
X1197072D1*
X1389554Y755844D2*
X1425434Y755339D1*
X1424929Y589077D1*
X1390059Y589583D1*
X1389537Y658173D2*
Y688698D1*
X1099273Y464634D2*
X1099617Y430609D1*
X1266304D1*
X1266648Y465322D1*
X1168686Y466949D2*
X1196722Y466594D1*
X976117Y588152D2*
X940835Y587777D1*
Y758184D1*
X976117Y757807D1*
X975909Y656959D2*
X975684Y686837D1*
X1858543Y588946D2*
D10*
G02X1858393Y656826I20261J33985D01*
G01*
X1858543Y688944D2*
G02X1858393Y756824I20261J33985D01*
G01*
X1737038Y467441D2*
G03X1669158Y467591I-33985J-20261D01*
G01*
X1637040Y467441D2*
G03X1569160Y467591I-33985J-20261D01*
G01*
X1570048Y877441D2*
G03X1637929Y877291I33985J20261D01*
G01*
X1670046Y877441D2*
G03X1737927Y877291I33985J20261D01*
G01*
X1448543Y588946D2*
G03X1448693Y656826I-20261J33985D01*
G01*
X1448543Y688944D2*
G03X1448693Y756824I-20261J33985D01*
G01*
X1570278Y879892D2*
D16*
X1570661Y915122D1*
X1738383D1*
Y877978D1*
X1640085Y878873D2*
X1667938D1*
X1860420Y755844D2*
X1896301Y755339D1*
X1895795Y589077D1*
X1860925Y589583D1*
X1860403Y658173D2*
Y688698D1*
X1570139Y464634D2*
X1570483Y430609D1*
X1737171D1*
X1737514Y465322D1*
X1639552Y466949D2*
X1667588Y466594D1*
X1446983Y588152D2*
X1411701Y587777D1*
Y758184D1*
X1446983Y757807D1*
X1446776Y656959D2*
X1446550Y686837D1*
X2329409Y588946D2*
D10*
G02X2329260Y656826I20261J33985D01*
G01*
X2329409Y688944D2*
G02X2329260Y756824I20261J33985D01*
G01*
X2207904Y467441D2*
G03X2140024Y467591I-33985J-20261D01*
G01*
X2107907Y467441D2*
G03X2040026Y467591I-33985J-20261D01*
G01*
X2040914Y877441D2*
G03X2108795Y877291I33985J20261D01*
G01*
X2140912Y877441D2*
G03X2208793Y877291I33985J20261D01*
G01*
X1919409Y588946D2*
G03X1919559Y656826I-20261J33985D01*
G01*
X1919409Y688944D2*
G03X1919559Y756824I-20261J33985D01*
G01*
X2041144Y879892D2*
D16*
X2041528Y915122D1*
X2209249D1*
Y877978D1*
X2110951Y878873D2*
X2138804D1*
X2331286Y755844D2*
X2367167Y755339D1*
X2366661Y589077D1*
X2331791Y589583D1*
X2331269Y658173D2*
Y688698D1*
X2041005Y464634D2*
X2041349Y430609D1*
X2208037D1*
X2208381Y465322D1*
X2110419Y466949D2*
X2138454Y466594D1*
X1917849Y588152D2*
X1882567Y587777D1*
Y758184D1*
X1917849Y757807D1*
X1917642Y656959D2*
X1917416Y686837D1*
X2800276Y588946D2*
D10*
G02X2800126Y656826I20261J33985D01*
G01*
X2800276Y688944D2*
G02X2800126Y756824I20261J33985D01*
G01*
X2678771Y467441D2*
G03X2610890Y467591I-33985J-20261D01*
G01*
X2578773Y467441D2*
G03X2510892Y467591I-33985J-20261D01*
G01*
X2511781Y877441D2*
G03X2579661Y877291I33985J20261D01*
G01*
X2611778Y877441D2*
G03X2679659Y877291I33985J20261D01*
G01*
X2390276Y588946D2*
G03X2390425Y656826I-20261J33985D01*
G01*
X2390276Y688944D2*
G03X2390425Y756824I-20261J33985D01*
G01*
X2512010Y879892D2*
D16*
X2512394Y915122D1*
X2680115D1*
Y877978D1*
X2581818Y878873D2*
X2609671D1*
X2802152Y755844D2*
X2838033Y755339D1*
X2837528Y589077D1*
X2802657Y589583D1*
X2802135Y658173D2*
Y688698D1*
X2511871Y464634D2*
X2512215Y430609D1*
X2678903D1*
X2679247Y465322D1*
X2581285Y466949D2*
X2609320Y466594D1*
X2388715Y588152D2*
X2353433Y587777D1*
Y758184D1*
X2388715Y757807D1*
X2388508Y656959D2*
X2388282Y686837D1*
X3271142Y588946D2*
D10*
G02X3270992Y656826I20261J33985D01*
G01*
X3271142Y688944D2*
G02X3270992Y756824I20261J33985D01*
G01*
X3149637Y467441D2*
G03X3081756Y467591I-33985J-20261D01*
G01*
X3049639Y467441D2*
G03X2981759Y467591I-33985J-20261D01*
G01*
X2982647Y877441D2*
G03X3050527Y877291I33985J20261D01*
G01*
X3082645Y877441D2*
G03X3150525Y877291I33985J20261D01*
G01*
X2861142Y588946D2*
G03X2861292Y656826I-20261J33985D01*
G01*
X2861142Y688944D2*
G03X2861292Y756824I-20261J33985D01*
G01*
X2982877Y879892D2*
D16*
X2983260Y915122D1*
X3150982D1*
Y877978D1*
X3052684Y878873D2*
X3080537D1*
X3273018Y755844D2*
X3308899Y755339D1*
X3308394Y589077D1*
X3273524Y589583D1*
X3273001Y658173D2*
Y688698D1*
X2982738Y464634D2*
X2983081Y430609D1*
X3149769D1*
X3150113Y465322D1*
X3052151Y466949D2*
X3080186Y466594D1*
X2859581Y588152D2*
X2824299Y587777D1*
Y758184D1*
X2859581Y757807D1*
X2859374Y656959D2*
X2859148Y686837D1*
X3742008Y588946D2*
D10*
G02X3741858Y656826I20261J33985D01*
G01*
X3742008Y688944D2*
G02X3741858Y756824I20261J33985D01*
G01*
X3620503Y467441D2*
G03X3552623Y467591I-33985J-20261D01*
G01*
X3520505Y467441D2*
G03X3452625Y467591I-33985J-20261D01*
G01*
X3453513Y877441D2*
G03X3521393Y877291I33985J20261D01*
G01*
X3553511Y877441D2*
G03X3621391Y877291I33985J20261D01*
G01*
X3332008Y588946D2*
G03X3332158Y656826I-20261J33985D01*
G01*
X3332008Y688944D2*
G03X3332158Y756824I-20261J33985D01*
G01*
X3453743Y879892D2*
D16*
X3454126Y915122D1*
X3621848D1*
Y877978D1*
X3523550Y878873D2*
X3551403D1*
X3743885Y755844D2*
X3779765Y755339D1*
X3779260Y589077D1*
X3744390Y589583D1*
X3743867Y658173D2*
Y688698D1*
X3453604Y464634D2*
X3453948Y430609D1*
X3620635D1*
X3620979Y465322D1*
X3523017Y466949D2*
X3551052Y466594D1*
X3330448Y588152D2*
X3295165Y587777D1*
Y758184D1*
X3330448Y757807D1*
X3330240Y656959D2*
X3330014Y686837D1*
X4212874Y588946D2*
D10*
G02X4212724Y656826I20261J33985D01*
G01*
X4212874Y688944D2*
G02X4212724Y756824I20261J33985D01*
G01*
X4091369Y467441D2*
G03X4023489Y467591I-33985J-20261D01*
G01*
X3991371Y467441D2*
G03X3923491Y467591I-33985J-20261D01*
G01*
X3924379Y877441D2*
G03X3992259Y877291I33985J20261D01*
G01*
X4024377Y877441D2*
G03X4092257Y877291I33985J20261D01*
G01*
X3802874Y588946D2*
G03X3803024Y656826I-20261J33985D01*
G01*
X3802874Y688944D2*
G03X3803024Y756824I-20261J33985D01*
G01*
X3924609Y879892D2*
D16*
X3924992Y915122D1*
X4092714D1*
Y877978D1*
X3994416Y878873D2*
X4022269D1*
X4214751Y755844D2*
X4250631Y755339D1*
X4250126Y589077D1*
X4215256Y589583D1*
X4214734Y658173D2*
Y688698D1*
X3924470Y464634D2*
X3924814Y430609D1*
X4091501D1*
X4091845Y465322D1*
X3993883Y466949D2*
X4021919Y466594D1*
X3801314Y588152D2*
X3766031Y587777D1*
Y758184D1*
X3801314Y757807D1*
X3801106Y656959D2*
X3800881Y686837D1*
X916811Y1067686D2*
D10*
G02X916661Y1135566I20261J33985D01*
G01*
X916811Y1167684D2*
G02X916661Y1235564I20261J33985D01*
G01*
X795306Y946181D2*
G03X727426Y946331I-33985J-20261D01*
G01*
X695308Y946181D2*
G03X627428Y946331I-33985J-20261D01*
G01*
X628316Y1356181D2*
G03X696196Y1356031I33985J20261D01*
G01*
X728314Y1356181D2*
G03X796194Y1356031I33985J20261D01*
G01*
X506811Y1067686D2*
G03X506961Y1135566I-20261J33985D01*
G01*
X506811Y1167684D2*
G03X506961Y1235564I-20261J33985D01*
G01*
X628546Y1358633D2*
D16*
X628929Y1393862D1*
X796651D1*
Y1356718D1*
X698353Y1357613D2*
X726206D1*
X918688Y1234584D2*
X954568Y1234079D1*
X954063Y1067818D1*
X919193Y1068323D1*
X918671Y1136913D2*
Y1167438D1*
X628407Y943374D2*
X628751Y909349D1*
X795438D1*
X795782Y944062D1*
X697820Y945689D2*
X725856Y945335D1*
X505251Y1066892D2*
X469969Y1066517D1*
Y1236924D1*
X505251Y1236547D1*
X505043Y1135699D2*
X504818Y1165577D1*
X1387677Y1067686D2*
D10*
G02X1387527Y1135566I20261J33985D01*
G01*
X1387677Y1167684D2*
G02X1387527Y1235564I20261J33985D01*
G01*
X1266172Y946181D2*
G03X1198292Y946331I-33985J-20261D01*
G01*
X1166174Y946181D2*
G03X1098294Y946331I-33985J-20261D01*
G01*
X1099182Y1356181D2*
G03X1167062Y1356031I33985J20261D01*
G01*
X1199180Y1356181D2*
G03X1267060Y1356031I33985J20261D01*
G01*
X977677Y1067686D2*
G03X977827Y1135566I-20261J33985D01*
G01*
X977677Y1167684D2*
G03X977827Y1235564I-20261J33985D01*
G01*
X1099412Y1358633D2*
D16*
X1099795Y1393862D1*
X1267517D1*
Y1356718D1*
X1169219Y1357613D2*
X1197072D1*
X1389554Y1234584D2*
X1425434Y1234079D1*
X1424929Y1067818D1*
X1390059Y1068323D1*
X1389537Y1136913D2*
Y1167438D1*
X1099273Y943374D2*
X1099617Y909349D1*
X1266304D1*
X1266648Y944062D1*
X1168686Y945689D2*
X1196722Y945335D1*
X976117Y1066892D2*
X940835Y1066517D1*
Y1236924D1*
X976117Y1236547D1*
X975909Y1135699D2*
X975684Y1165577D1*
X1858543Y1067686D2*
D10*
G02X1858393Y1135566I20261J33985D01*
G01*
X1858543Y1167684D2*
G02X1858393Y1235564I20261J33985D01*
G01*
X1737038Y946181D2*
G03X1669158Y946331I-33985J-20261D01*
G01*
X1637040Y946181D2*
G03X1569160Y946331I-33985J-20261D01*
G01*
X1570048Y1356181D2*
G03X1637929Y1356031I33985J20261D01*
G01*
X1670046Y1356181D2*
G03X1737927Y1356031I33985J20261D01*
G01*
X1448543Y1067686D2*
G03X1448693Y1135566I-20261J33985D01*
G01*
X1448543Y1167684D2*
G03X1448693Y1235564I-20261J33985D01*
G01*
X1570278Y1358633D2*
D16*
X1570661Y1393862D1*
X1738383D1*
Y1356718D1*
X1640085Y1357613D2*
X1667938D1*
X1860420Y1234584D2*
X1896301Y1234079D1*
X1895795Y1067818D1*
X1860925Y1068323D1*
X1860403Y1136913D2*
Y1167438D1*
X1570139Y943374D2*
X1570483Y909349D1*
X1737171D1*
X1737514Y944062D1*
X1639552Y945689D2*
X1667588Y945335D1*
X1446983Y1066892D2*
X1411701Y1066517D1*
Y1236924D1*
X1446983Y1236547D1*
X1446776Y1135699D2*
X1446550Y1165577D1*
X2329409Y1067686D2*
D10*
G02X2329260Y1135566I20261J33985D01*
G01*
X2329409Y1167684D2*
G02X2329260Y1235564I20261J33985D01*
G01*
X2207904Y946181D2*
G03X2140024Y946331I-33985J-20261D01*
G01*
X2107907Y946181D2*
G03X2040026Y946331I-33985J-20261D01*
G01*
X2040914Y1356181D2*
G03X2108795Y1356031I33985J20261D01*
G01*
X2140912Y1356181D2*
G03X2208793Y1356031I33985J20261D01*
G01*
X1919409Y1067686D2*
G03X1919559Y1135566I-20261J33985D01*
G01*
X1919409Y1167684D2*
G03X1919559Y1235564I-20261J33985D01*
G01*
X2041144Y1358633D2*
D16*
X2041528Y1393862D1*
X2209249D1*
Y1356718D1*
X2110951Y1357613D2*
X2138804D1*
X2331286Y1234584D2*
X2367167Y1234079D1*
X2366661Y1067818D1*
X2331791Y1068323D1*
X2331269Y1136913D2*
Y1167438D1*
X2041005Y943374D2*
X2041349Y909349D1*
X2208037D1*
X2208381Y944062D1*
X2110419Y945689D2*
X2138454Y945335D1*
X1917849Y1066892D2*
X1882567Y1066517D1*
Y1236924D1*
X1917849Y1236547D1*
X1917642Y1135699D2*
X1917416Y1165577D1*
X2800276Y1067686D2*
D10*
G02X2800126Y1135566I20261J33985D01*
G01*
X2800276Y1167684D2*
G02X2800126Y1235564I20261J33985D01*
G01*
X2678771Y946181D2*
G03X2610890Y946331I-33985J-20261D01*
G01*
X2578773Y946181D2*
G03X2510892Y946331I-33985J-20261D01*
G01*
X2511781Y1356181D2*
G03X2579661Y1356031I33985J20261D01*
G01*
X2611778Y1356181D2*
G03X2679659Y1356031I33985J20261D01*
G01*
X2390276Y1067686D2*
G03X2390425Y1135566I-20261J33985D01*
G01*
X2390276Y1167684D2*
G03X2390425Y1235564I-20261J33985D01*
G01*
X2512010Y1358633D2*
D16*
X2512394Y1393862D1*
X2680115D1*
Y1356718D1*
X2581818Y1357613D2*
X2609671D1*
X2802152Y1234584D2*
X2838033Y1234079D1*
X2837528Y1067818D1*
X2802657Y1068323D1*
X2802135Y1136913D2*
Y1167438D1*
X2511871Y943374D2*
X2512215Y909349D1*
X2678903D1*
X2679247Y944062D1*
X2581285Y945689D2*
X2609320Y945335D1*
X2388715Y1066892D2*
X2353433Y1066517D1*
Y1236924D1*
X2388715Y1236547D1*
X2388508Y1135699D2*
X2388282Y1165577D1*
X3271142Y1067686D2*
D10*
G02X3270992Y1135566I20261J33985D01*
G01*
X3271142Y1167684D2*
G02X3270992Y1235564I20261J33985D01*
G01*
X3149637Y946181D2*
G03X3081756Y946331I-33985J-20261D01*
G01*
X3049639Y946181D2*
G03X2981759Y946331I-33985J-20261D01*
G01*
X2982647Y1356181D2*
G03X3050527Y1356031I33985J20261D01*
G01*
X3082645Y1356181D2*
G03X3150525Y1356031I33985J20261D01*
G01*
X2861142Y1067686D2*
G03X2861292Y1135566I-20261J33985D01*
G01*
X2861142Y1167684D2*
G03X2861292Y1235564I-20261J33985D01*
G01*
X2982877Y1358633D2*
D16*
X2983260Y1393862D1*
X3150982D1*
Y1356718D1*
X3052684Y1357613D2*
X3080537D1*
X3273018Y1234584D2*
X3308899Y1234079D1*
X3308394Y1067818D1*
X3273524Y1068323D1*
X3273001Y1136913D2*
Y1167438D1*
X2982738Y943374D2*
X2983081Y909349D1*
X3149769D1*
X3150113Y944062D1*
X3052151Y945689D2*
X3080186Y945335D1*
X2859581Y1066892D2*
X2824299Y1066517D1*
Y1236924D1*
X2859581Y1236547D1*
X2859374Y1135699D2*
X2859148Y1165577D1*
X3742008Y1067686D2*
D10*
G02X3741858Y1135566I20261J33985D01*
G01*
X3742008Y1167684D2*
G02X3741858Y1235564I20261J33985D01*
G01*
X3620503Y946181D2*
G03X3552623Y946331I-33985J-20261D01*
G01*
X3520505Y946181D2*
G03X3452625Y946331I-33985J-20261D01*
G01*
X3453513Y1356181D2*
G03X3521393Y1356031I33985J20261D01*
G01*
X3553511Y1356181D2*
G03X3621391Y1356031I33985J20261D01*
G01*
X3332008Y1067686D2*
G03X3332158Y1135566I-20261J33985D01*
G01*
X3332008Y1167684D2*
G03X3332158Y1235564I-20261J33985D01*
G01*
X3453743Y1358633D2*
D16*
X3454126Y1393862D1*
X3621848D1*
Y1356718D1*
X3523550Y1357613D2*
X3551403D1*
X3743885Y1234584D2*
X3779765Y1234079D1*
X3779260Y1067818D1*
X3744390Y1068323D1*
X3743867Y1136913D2*
Y1167438D1*
X3453604Y943374D2*
X3453948Y909349D1*
X3620635D1*
X3620979Y944062D1*
X3523017Y945689D2*
X3551052Y945335D1*
X3330448Y1066892D2*
X3295165Y1066517D1*
Y1236924D1*
X3330448Y1236547D1*
X3330240Y1135699D2*
X3330014Y1165577D1*
X4212874Y1067686D2*
D10*
G02X4212724Y1135566I20261J33985D01*
G01*
X4212874Y1167684D2*
G02X4212724Y1235564I20261J33985D01*
G01*
X4091369Y946181D2*
G03X4023489Y946331I-33985J-20261D01*
G01*
X3991371Y946181D2*
G03X3923491Y946331I-33985J-20261D01*
G01*
X3924379Y1356181D2*
G03X3992259Y1356031I33985J20261D01*
G01*
X4024377Y1356181D2*
G03X4092257Y1356031I33985J20261D01*
G01*
X3802874Y1067686D2*
G03X3803024Y1135566I-20261J33985D01*
G01*
X3802874Y1167684D2*
G03X3803024Y1235564I-20261J33985D01*
G01*
X3924609Y1358633D2*
D16*
X3924992Y1393862D1*
X4092714D1*
Y1356718D1*
X3994416Y1357613D2*
X4022269D1*
X4214751Y1234584D2*
X4250631Y1234079D1*
X4250126Y1067818D1*
X4215256Y1068323D1*
X4214734Y1136913D2*
Y1167438D1*
X3924470Y943374D2*
X3924814Y909349D1*
X4091501D1*
X4091845Y944062D1*
X3993883Y945689D2*
X4021919Y945335D1*
X3801314Y1066892D2*
X3766031Y1066517D1*
Y1236924D1*
X3801314Y1236547D1*
X3801106Y1135699D2*
X3800881Y1165577D1*
X916811Y1546426D2*
D10*
G02X916661Y1614307I20261J33985D01*
G01*
X916811Y1646424D2*
G02X916661Y1714304I20261J33985D01*
G01*
X795306Y1424921D2*
G03X727426Y1425071I-33985J-20261D01*
G01*
X695308Y1424921D2*
G03X627428Y1425071I-33985J-20261D01*
G01*
X628316Y1834921D2*
G03X696196Y1834771I33985J20261D01*
G01*
X728314Y1834921D2*
G03X796194Y1834771I33985J20261D01*
G01*
X506811Y1546426D2*
G03X506961Y1614307I-20261J33985D01*
G01*
X506811Y1646424D2*
G03X506961Y1714304I-20261J33985D01*
G01*
X628546Y1837373D2*
D16*
X628929Y1872602D1*
X796651D1*
Y1835458D1*
X698353Y1836353D2*
X726206D1*
X918688Y1713324D2*
X954568Y1712819D1*
X954063Y1546558D1*
X919193Y1547063D1*
X918671Y1615654D2*
Y1646178D1*
X628407Y1422114D2*
X628751Y1388089D1*
X795438D1*
X795782Y1422802D1*
X697820Y1424429D2*
X725856Y1424075D1*
X505251Y1545633D2*
X469969Y1545257D1*
Y1715664D1*
X505251Y1715287D1*
X505043Y1614440D2*
X504818Y1644318D1*
X1387677Y1546426D2*
D10*
G02X1387527Y1614307I20261J33985D01*
G01*
X1387677Y1646424D2*
G02X1387527Y1714304I20261J33985D01*
G01*
X1266172Y1424921D2*
G03X1198292Y1425071I-33985J-20261D01*
G01*
X1166174Y1424921D2*
G03X1098294Y1425071I-33985J-20261D01*
G01*
X1099182Y1834921D2*
G03X1167062Y1834771I33985J20261D01*
G01*
X1199180Y1834921D2*
G03X1267060Y1834771I33985J20261D01*
G01*
X977677Y1546426D2*
G03X977827Y1614307I-20261J33985D01*
G01*
X977677Y1646424D2*
G03X977827Y1714304I-20261J33985D01*
G01*
X1099412Y1837373D2*
D16*
X1099795Y1872602D1*
X1267517D1*
Y1835458D1*
X1169219Y1836353D2*
X1197072D1*
X1389554Y1713324D2*
X1425434Y1712819D1*
X1424929Y1546558D1*
X1390059Y1547063D1*
X1389537Y1615654D2*
Y1646178D1*
X1099273Y1422114D2*
X1099617Y1388089D1*
X1266304D1*
X1266648Y1422802D1*
X1168686Y1424429D2*
X1196722Y1424075D1*
X976117Y1545633D2*
X940835Y1545257D1*
Y1715664D1*
X976117Y1715287D1*
X975909Y1614440D2*
X975684Y1644318D1*
X1858543Y1546426D2*
D10*
G02X1858393Y1614307I20261J33985D01*
G01*
X1858543Y1646424D2*
G02X1858393Y1714304I20261J33985D01*
G01*
X1737038Y1424921D2*
G03X1669158Y1425071I-33985J-20261D01*
G01*
X1637040Y1424921D2*
G03X1569160Y1425071I-33985J-20261D01*
G01*
X1570048Y1834921D2*
G03X1637929Y1834771I33985J20261D01*
G01*
X1670046Y1834921D2*
G03X1737927Y1834771I33985J20261D01*
G01*
X1448543Y1546426D2*
G03X1448693Y1614307I-20261J33985D01*
G01*
X1448543Y1646424D2*
G03X1448693Y1714304I-20261J33985D01*
G01*
X1570278Y1837373D2*
D16*
X1570661Y1872602D1*
X1738383D1*
Y1835458D1*
X1640085Y1836353D2*
X1667938D1*
X1860420Y1713324D2*
X1896301Y1712819D1*
X1895795Y1546558D1*
X1860925Y1547063D1*
X1860403Y1615654D2*
Y1646178D1*
X1570139Y1422114D2*
X1570483Y1388089D1*
X1737171D1*
X1737514Y1422802D1*
X1639552Y1424429D2*
X1667588Y1424075D1*
X1446983Y1545633D2*
X1411701Y1545257D1*
Y1715664D1*
X1446983Y1715287D1*
X1446776Y1614440D2*
X1446550Y1644318D1*
X2329409Y1546426D2*
D10*
G02X2329260Y1614307I20261J33985D01*
G01*
X2329409Y1646424D2*
G02X2329260Y1714304I20261J33985D01*
G01*
X2207904Y1424921D2*
G03X2140024Y1425071I-33985J-20261D01*
G01*
X2107907Y1424921D2*
G03X2040026Y1425071I-33985J-20261D01*
G01*
X2040914Y1834921D2*
G03X2108795Y1834771I33985J20261D01*
G01*
X2140912Y1834921D2*
G03X2208793Y1834771I33985J20261D01*
G01*
X1919409Y1546426D2*
G03X1919559Y1614307I-20261J33985D01*
G01*
X1919409Y1646424D2*
G03X1919559Y1714304I-20261J33985D01*
G01*
X2041144Y1837373D2*
D16*
X2041528Y1872602D1*
X2209249D1*
Y1835458D1*
X2110951Y1836353D2*
X2138804D1*
X2331286Y1713324D2*
X2367167Y1712819D1*
X2366661Y1546558D1*
X2331791Y1547063D1*
X2331269Y1615654D2*
Y1646178D1*
X2041005Y1422114D2*
X2041349Y1388089D1*
X2208037D1*
X2208381Y1422802D1*
X2110419Y1424429D2*
X2138454Y1424075D1*
X1917849Y1545633D2*
X1882567Y1545257D1*
Y1715664D1*
X1917849Y1715287D1*
X1917642Y1614440D2*
X1917416Y1644318D1*
X2800276Y1546426D2*
D10*
G02X2800126Y1614307I20261J33985D01*
G01*
X2800276Y1646424D2*
G02X2800126Y1714304I20261J33985D01*
G01*
X2678771Y1424921D2*
G03X2610890Y1425071I-33985J-20261D01*
G01*
X2578773Y1424921D2*
G03X2510892Y1425071I-33985J-20261D01*
G01*
X2511781Y1834921D2*
G03X2579661Y1834771I33985J20261D01*
G01*
X2611778Y1834921D2*
G03X2679659Y1834771I33985J20261D01*
G01*
X2390276Y1546426D2*
G03X2390425Y1614307I-20261J33985D01*
G01*
X2390276Y1646424D2*
G03X2390425Y1714304I-20261J33985D01*
G01*
X2512010Y1837373D2*
D16*
X2512394Y1872602D1*
X2680115D1*
Y1835458D1*
X2581818Y1836353D2*
X2609671D1*
X2802152Y1713324D2*
X2838033Y1712819D1*
X2837528Y1546558D1*
X2802657Y1547063D1*
X2802135Y1615654D2*
Y1646178D1*
X2511871Y1422114D2*
X2512215Y1388089D1*
X2678903D1*
X2679247Y1422802D1*
X2581285Y1424429D2*
X2609320Y1424075D1*
X2388715Y1545633D2*
X2353433Y1545257D1*
Y1715664D1*
X2388715Y1715287D1*
X2388508Y1614440D2*
X2388282Y1644318D1*
X3271142Y1546426D2*
D10*
G02X3270992Y1614307I20261J33985D01*
G01*
X3271142Y1646424D2*
G02X3270992Y1714304I20261J33985D01*
G01*
X3149637Y1424921D2*
G03X3081756Y1425071I-33985J-20261D01*
G01*
X3049639Y1424921D2*
G03X2981759Y1425071I-33985J-20261D01*
G01*
X2982647Y1834921D2*
G03X3050527Y1834771I33985J20261D01*
G01*
X3082645Y1834921D2*
G03X3150525Y1834771I33985J20261D01*
G01*
X2861142Y1546426D2*
G03X2861292Y1614307I-20261J33985D01*
G01*
X2861142Y1646424D2*
G03X2861292Y1714304I-20261J33985D01*
G01*
X2982877Y1837373D2*
D16*
X2983260Y1872602D1*
X3150982D1*
Y1835458D1*
X3052684Y1836353D2*
X3080537D1*
X3273018Y1713324D2*
X3308899Y1712819D1*
X3308394Y1546558D1*
X3273524Y1547063D1*
X3273001Y1615654D2*
Y1646178D1*
X2982738Y1422114D2*
X2983081Y1388089D1*
X3149769D1*
X3150113Y1422802D1*
X3052151Y1424429D2*
X3080186Y1424075D1*
X2859581Y1545633D2*
X2824299Y1545257D1*
Y1715664D1*
X2859581Y1715287D1*
X2859374Y1614440D2*
X2859148Y1644318D1*
X3742008Y1546426D2*
D10*
G02X3741858Y1614307I20261J33985D01*
G01*
X3742008Y1646424D2*
G02X3741858Y1714304I20261J33985D01*
G01*
X3620503Y1424921D2*
G03X3552623Y1425071I-33985J-20261D01*
G01*
X3520505Y1424921D2*
G03X3452625Y1425071I-33985J-20261D01*
G01*
X3453513Y1834921D2*
G03X3521393Y1834771I33985J20261D01*
G01*
X3553511Y1834921D2*
G03X3621391Y1834771I33985J20261D01*
G01*
X3332008Y1546426D2*
G03X3332158Y1614307I-20261J33985D01*
G01*
X3332008Y1646424D2*
G03X3332158Y1714304I-20261J33985D01*
G01*
X3453743Y1837373D2*
D16*
X3454126Y1872602D1*
X3621848D1*
Y1835458D1*
X3523550Y1836353D2*
X3551403D1*
X3743885Y1713324D2*
X3779765Y1712819D1*
X3779260Y1546558D1*
X3744390Y1547063D1*
X3743867Y1615654D2*
Y1646178D1*
X3453604Y1422114D2*
X3453948Y1388089D1*
X3620635D1*
X3620979Y1422802D1*
X3523017Y1424429D2*
X3551052Y1424075D1*
X3330448Y1545633D2*
X3295165Y1545257D1*
Y1715664D1*
X3330448Y1715287D1*
X3330240Y1614440D2*
X3330014Y1644318D1*
X4212874Y1546426D2*
D10*
G02X4212724Y1614307I20261J33985D01*
G01*
X4212874Y1646424D2*
G02X4212724Y1714304I20261J33985D01*
G01*
X4091369Y1424921D2*
G03X4023489Y1425071I-33985J-20261D01*
G01*
X3991371Y1424921D2*
G03X3923491Y1425071I-33985J-20261D01*
G01*
X3924379Y1834921D2*
G03X3992259Y1834771I33985J20261D01*
G01*
X4024377Y1834921D2*
G03X4092257Y1834771I33985J20261D01*
G01*
X3802874Y1546426D2*
G03X3803024Y1614307I-20261J33985D01*
G01*
X3802874Y1646424D2*
G03X3803024Y1714304I-20261J33985D01*
G01*
X3924609Y1837373D2*
D16*
X3924992Y1872602D1*
X4092714D1*
Y1835458D1*
X3994416Y1836353D2*
X4022269D1*
X4214751Y1713324D2*
X4250631Y1712819D1*
X4250126Y1546558D1*
X4215256Y1547063D1*
X4214734Y1615654D2*
Y1646178D1*
X3924470Y1422114D2*
X3924814Y1388089D1*
X4091501D1*
X4091845Y1422802D1*
X3993883Y1424429D2*
X4021919Y1424075D1*
X3801314Y1545633D2*
X3766031Y1545257D1*
Y1715664D1*
X3801314Y1715287D1*
X3801106Y1614440D2*
X3800881Y1644318D1*
X916811Y2025166D2*
D10*
G02X916661Y2093047I20261J33985D01*
G01*
X916811Y2125164D2*
G02X916661Y2193045I20261J33985D01*
G01*
X795306Y1903661D2*
G03X727426Y1903811I-33985J-20261D01*
G01*
X695308Y1903661D2*
G03X627428Y1903811I-33985J-20261D01*
G01*
X628316Y2313661D2*
G03X696196Y2313512I33985J20261D01*
G01*
X728314Y2313661D2*
G03X796194Y2313512I33985J20261D01*
G01*
X506811Y2025166D2*
G03X506961Y2093047I-20261J33985D01*
G01*
X506811Y2125164D2*
G03X506961Y2193045I-20261J33985D01*
G01*
X628546Y2316113D2*
D16*
X628929Y2351343D1*
X796651D1*
Y2314198D1*
X698353Y2315093D2*
X726206D1*
X918688Y2192064D2*
X954568Y2191559D1*
X954063Y2025298D1*
X919193Y2025803D1*
X918671Y2094394D2*
Y2124919D1*
X628407Y1900854D2*
X628751Y1866829D1*
X795438D1*
X795782Y1901542D1*
X697820Y1903169D2*
X725856Y1902815D1*
X505251Y2024373D2*
X469969Y2023997D1*
Y2194404D1*
X505251Y2194028D1*
X505043Y2093180D2*
X504818Y2123058D1*
X1387677Y2025166D2*
D10*
G02X1387527Y2093047I20261J33985D01*
G01*
X1387677Y2125164D2*
G02X1387527Y2193045I20261J33985D01*
G01*
X1266172Y1903661D2*
G03X1198292Y1903811I-33985J-20261D01*
G01*
X1166174Y1903661D2*
G03X1098294Y1903811I-33985J-20261D01*
G01*
X1099182Y2313661D2*
G03X1167062Y2313512I33985J20261D01*
G01*
X1199180Y2313661D2*
G03X1267060Y2313512I33985J20261D01*
G01*
X977677Y2025166D2*
G03X977827Y2093047I-20261J33985D01*
G01*
X977677Y2125164D2*
G03X977827Y2193045I-20261J33985D01*
G01*
X1099412Y2316113D2*
D16*
X1099795Y2351343D1*
X1267517D1*
Y2314198D1*
X1169219Y2315093D2*
X1197072D1*
X1389554Y2192064D2*
X1425434Y2191559D1*
X1424929Y2025298D1*
X1390059Y2025803D1*
X1389537Y2094394D2*
Y2124919D1*
X1099273Y1900854D2*
X1099617Y1866829D1*
X1266304D1*
X1266648Y1901542D1*
X1168686Y1903169D2*
X1196722Y1902815D1*
X976117Y2024373D2*
X940835Y2023997D1*
Y2194404D1*
X976117Y2194028D1*
X975909Y2093180D2*
X975684Y2123058D1*
X1858543Y2025166D2*
D10*
G02X1858393Y2093047I20261J33985D01*
G01*
X1858543Y2125164D2*
G02X1858393Y2193045I20261J33985D01*
G01*
X1737038Y1903661D2*
G03X1669158Y1903811I-33985J-20261D01*
G01*
X1637040Y1903661D2*
G03X1569160Y1903811I-33985J-20261D01*
G01*
X1570048Y2313661D2*
G03X1637929Y2313512I33985J20261D01*
G01*
X1670046Y2313661D2*
G03X1737927Y2313512I33985J20261D01*
G01*
X1448543Y2025166D2*
G03X1448693Y2093047I-20261J33985D01*
G01*
X1448543Y2125164D2*
G03X1448693Y2193045I-20261J33985D01*
G01*
X1570278Y2316113D2*
D16*
X1570661Y2351343D1*
X1738383D1*
Y2314198D1*
X1640085Y2315093D2*
X1667938D1*
X1860420Y2192064D2*
X1896301Y2191559D1*
X1895795Y2025298D1*
X1860925Y2025803D1*
X1860403Y2094394D2*
Y2124919D1*
X1570139Y1900854D2*
X1570483Y1866829D1*
X1737171D1*
X1737514Y1901542D1*
X1639552Y1903169D2*
X1667588Y1902815D1*
X1446983Y2024373D2*
X1411701Y2023997D1*
Y2194404D1*
X1446983Y2194028D1*
X1446776Y2093180D2*
X1446550Y2123058D1*
X2329409Y2025166D2*
D10*
G02X2329260Y2093047I20261J33985D01*
G01*
X2329409Y2125164D2*
G02X2329260Y2193045I20261J33985D01*
G01*
X2207904Y1903661D2*
G03X2140024Y1903811I-33985J-20261D01*
G01*
X2107907Y1903661D2*
G03X2040026Y1903811I-33985J-20261D01*
G01*
X2040914Y2313661D2*
G03X2108795Y2313512I33985J20261D01*
G01*
X2140912Y2313661D2*
G03X2208793Y2313512I33985J20261D01*
G01*
X1919409Y2025166D2*
G03X1919559Y2093047I-20261J33985D01*
G01*
X1919409Y2125164D2*
G03X1919559Y2193045I-20261J33985D01*
G01*
X2041144Y2316113D2*
D16*
X2041528Y2351343D1*
X2209249D1*
Y2314198D1*
X2110951Y2315093D2*
X2138804D1*
X2331286Y2192064D2*
X2367167Y2191559D1*
X2366661Y2025298D1*
X2331791Y2025803D1*
X2331269Y2094394D2*
Y2124919D1*
X2041005Y1900854D2*
X2041349Y1866829D1*
X2208037D1*
X2208381Y1901542D1*
X2110419Y1903169D2*
X2138454Y1902815D1*
X1917849Y2024373D2*
X1882567Y2023997D1*
Y2194404D1*
X1917849Y2194028D1*
X1917642Y2093180D2*
X1917416Y2123058D1*
X2800276Y2025166D2*
D10*
G02X2800126Y2093047I20261J33985D01*
G01*
X2800276Y2125164D2*
G02X2800126Y2193045I20261J33985D01*
G01*
X2678771Y1903661D2*
G03X2610890Y1903811I-33985J-20261D01*
G01*
X2578773Y1903661D2*
G03X2510892Y1903811I-33985J-20261D01*
G01*
X2511781Y2313661D2*
G03X2579661Y2313512I33985J20261D01*
G01*
X2611778Y2313661D2*
G03X2679659Y2313512I33985J20261D01*
G01*
X2390276Y2025166D2*
G03X2390425Y2093047I-20261J33985D01*
G01*
X2390276Y2125164D2*
G03X2390425Y2193045I-20261J33985D01*
G01*
X2512010Y2316113D2*
D16*
X2512394Y2351343D1*
X2680115D1*
Y2314198D1*
X2581818Y2315093D2*
X2609671D1*
X2802152Y2192064D2*
X2838033Y2191559D1*
X2837528Y2025298D1*
X2802657Y2025803D1*
X2802135Y2094394D2*
Y2124919D1*
X2511871Y1900854D2*
X2512215Y1866829D1*
X2678903D1*
X2679247Y1901542D1*
X2581285Y1903169D2*
X2609320Y1902815D1*
X2388715Y2024373D2*
X2353433Y2023997D1*
Y2194404D1*
X2388715Y2194028D1*
X2388508Y2093180D2*
X2388282Y2123058D1*
X3271142Y2025166D2*
D10*
G02X3270992Y2093047I20261J33985D01*
G01*
X3271142Y2125164D2*
G02X3270992Y2193045I20261J33985D01*
G01*
X3149637Y1903661D2*
G03X3081756Y1903811I-33985J-20261D01*
G01*
X3049639Y1903661D2*
G03X2981759Y1903811I-33985J-20261D01*
G01*
X2982647Y2313661D2*
G03X3050527Y2313512I33985J20261D01*
G01*
X3082645Y2313661D2*
G03X3150525Y2313512I33985J20261D01*
G01*
X2861142Y2025166D2*
G03X2861292Y2093047I-20261J33985D01*
G01*
X2861142Y2125164D2*
G03X2861292Y2193045I-20261J33985D01*
G01*
X2982877Y2316113D2*
D16*
X2983260Y2351343D1*
X3150982D1*
Y2314198D1*
X3052684Y2315093D2*
X3080537D1*
X3273018Y2192064D2*
X3308899Y2191559D1*
X3308394Y2025298D1*
X3273524Y2025803D1*
X3273001Y2094394D2*
Y2124919D1*
X2982738Y1900854D2*
X2983081Y1866829D1*
X3149769D1*
X3150113Y1901542D1*
X3052151Y1903169D2*
X3080186Y1902815D1*
X2859581Y2024373D2*
X2824299Y2023997D1*
Y2194404D1*
X2859581Y2194028D1*
X2859374Y2093180D2*
X2859148Y2123058D1*
X3742008Y2025166D2*
D10*
G02X3741858Y2093047I20261J33985D01*
G01*
X3742008Y2125164D2*
G02X3741858Y2193045I20261J33985D01*
G01*
X3620503Y1903661D2*
G03X3552623Y1903811I-33985J-20261D01*
G01*
X3520505Y1903661D2*
G03X3452625Y1903811I-33985J-20261D01*
G01*
X3453513Y2313661D2*
G03X3521393Y2313512I33985J20261D01*
G01*
X3553511Y2313661D2*
G03X3621391Y2313512I33985J20261D01*
G01*
X3332008Y2025166D2*
G03X3332158Y2093047I-20261J33985D01*
G01*
X3332008Y2125164D2*
G03X3332158Y2193045I-20261J33985D01*
G01*
X3453743Y2316113D2*
D16*
X3454126Y2351343D1*
X3621848D1*
Y2314198D1*
X3523550Y2315093D2*
X3551403D1*
X3743885Y2192064D2*
X3779765Y2191559D1*
X3779260Y2025298D1*
X3744390Y2025803D1*
X3743867Y2094394D2*
Y2124919D1*
X3453604Y1900854D2*
X3453948Y1866829D1*
X3620635D1*
X3620979Y1901542D1*
X3523017Y1903169D2*
X3551052Y1902815D1*
X3330448Y2024373D2*
X3295165Y2023997D1*
Y2194404D1*
X3330448Y2194028D1*
X3330240Y2093180D2*
X3330014Y2123058D1*
X4212874Y2025166D2*
D10*
G02X4212724Y2093047I20261J33985D01*
G01*
X4212874Y2125164D2*
G02X4212724Y2193045I20261J33985D01*
G01*
X4091369Y1903661D2*
G03X4023489Y1903811I-33985J-20261D01*
G01*
X3991371Y1903661D2*
G03X3923491Y1903811I-33985J-20261D01*
G01*
X3924379Y2313661D2*
G03X3992259Y2313512I33985J20261D01*
G01*
X4024377Y2313661D2*
G03X4092257Y2313512I33985J20261D01*
G01*
X3802874Y2025166D2*
G03X3803024Y2093047I-20261J33985D01*
G01*
X3802874Y2125164D2*
G03X3803024Y2193045I-20261J33985D01*
G01*
X3924609Y2316113D2*
D16*
X3924992Y2351343D1*
X4092714D1*
Y2314198D1*
X3994416Y2315093D2*
X4022269D1*
X4214751Y2192064D2*
X4250631Y2191559D1*
X4250126Y2025298D1*
X4215256Y2025803D1*
X4214734Y2094394D2*
Y2124919D1*
X3924470Y1900854D2*
X3924814Y1866829D1*
X4091501D1*
X4091845Y1901542D1*
X3993883Y1903169D2*
X4021919Y1902815D1*
X3801314Y2024373D2*
X3766031Y2023997D1*
Y2194404D1*
X3801314Y2194028D1*
X3801106Y2093180D2*
X3800881Y2123058D1*
X916811Y2503907D2*
D10*
G02X916661Y2571787I20261J33985D01*
G01*
X916811Y2603904D2*
G02X916661Y2671785I20261J33985D01*
G01*
X795306Y2382402D2*
G03X727426Y2382551I-33985J-20261D01*
G01*
X695308Y2382402D2*
G03X627428Y2382551I-33985J-20261D01*
G01*
X628316Y2792402D2*
G03X696196Y2792252I33985J20261D01*
G01*
X728314Y2792402D2*
G03X796194Y2792252I33985J20261D01*
G01*
X506811Y2503907D2*
G03X506961Y2571787I-20261J33985D01*
G01*
X506811Y2603904D2*
G03X506961Y2671785I-20261J33985D01*
G01*
X628546Y2794853D2*
D16*
X628929Y2830083D1*
X796651D1*
Y2792938D1*
X698353Y2793833D2*
X726206D1*
X918688Y2670804D2*
X954568Y2670299D1*
X954063Y2504038D1*
X919193Y2504543D1*
X918671Y2573134D2*
Y2603659D1*
X628407Y2379594D2*
X628751Y2345570D1*
X795438D1*
X795782Y2380282D1*
X697820Y2381909D2*
X725856Y2381555D1*
X505251Y2503113D2*
X469969Y2502738D1*
Y2673144D1*
X505251Y2672768D1*
X505043Y2571920D2*
X504818Y2601798D1*
X1387677Y2503907D2*
D10*
G02X1387527Y2571787I20261J33985D01*
G01*
X1387677Y2603904D2*
G02X1387527Y2671785I20261J33985D01*
G01*
X1266172Y2382402D2*
G03X1198292Y2382551I-33985J-20261D01*
G01*
X1166174Y2382402D2*
G03X1098294Y2382551I-33985J-20261D01*
G01*
X1099182Y2792402D2*
G03X1167062Y2792252I33985J20261D01*
G01*
X1199180Y2792402D2*
G03X1267060Y2792252I33985J20261D01*
G01*
X977677Y2503907D2*
G03X977827Y2571787I-20261J33985D01*
G01*
X977677Y2603904D2*
G03X977827Y2671785I-20261J33985D01*
G01*
X1099412Y2794853D2*
D16*
X1099795Y2830083D1*
X1267517D1*
Y2792938D1*
X1169219Y2793833D2*
X1197072D1*
X1389554Y2670804D2*
X1425434Y2670299D1*
X1424929Y2504038D1*
X1390059Y2504543D1*
X1389537Y2573134D2*
Y2603659D1*
X1099273Y2379594D2*
X1099617Y2345570D1*
X1266304D1*
X1266648Y2380282D1*
X1168686Y2381909D2*
X1196722Y2381555D1*
X976117Y2503113D2*
X940835Y2502738D1*
Y2673144D1*
X976117Y2672768D1*
X975909Y2571920D2*
X975684Y2601798D1*
X1858543Y2503907D2*
D10*
G02X1858393Y2571787I20261J33985D01*
G01*
X1858543Y2603904D2*
G02X1858393Y2671785I20261J33985D01*
G01*
X1737038Y2382402D2*
G03X1669158Y2382551I-33985J-20261D01*
G01*
X1637040Y2382402D2*
G03X1569160Y2382551I-33985J-20261D01*
G01*
X1570048Y2792402D2*
G03X1637929Y2792252I33985J20261D01*
G01*
X1670046Y2792402D2*
G03X1737927Y2792252I33985J20261D01*
G01*
X1448543Y2503907D2*
G03X1448693Y2571787I-20261J33985D01*
G01*
X1448543Y2603904D2*
G03X1448693Y2671785I-20261J33985D01*
G01*
X1570278Y2794853D2*
D16*
X1570661Y2830083D1*
X1738383D1*
Y2792938D1*
X1640085Y2793833D2*
X1667938D1*
X1860420Y2670804D2*
X1896301Y2670299D1*
X1895795Y2504038D1*
X1860925Y2504543D1*
X1860403Y2573134D2*
Y2603659D1*
X1570139Y2379594D2*
X1570483Y2345570D1*
X1737171D1*
X1737514Y2380282D1*
X1639552Y2381909D2*
X1667588Y2381555D1*
X1446983Y2503113D2*
X1411701Y2502738D1*
Y2673144D1*
X1446983Y2672768D1*
X1446776Y2571920D2*
X1446550Y2601798D1*
X2329409Y2503907D2*
D10*
G02X2329260Y2571787I20261J33985D01*
G01*
X2329409Y2603904D2*
G02X2329260Y2671785I20261J33985D01*
G01*
X2207904Y2382402D2*
G03X2140024Y2382551I-33985J-20261D01*
G01*
X2107907Y2382402D2*
G03X2040026Y2382551I-33985J-20261D01*
G01*
X2040914Y2792402D2*
G03X2108795Y2792252I33985J20261D01*
G01*
X2140912Y2792402D2*
G03X2208793Y2792252I33985J20261D01*
G01*
X1919409Y2503907D2*
G03X1919559Y2571787I-20261J33985D01*
G01*
X1919409Y2603904D2*
G03X1919559Y2671785I-20261J33985D01*
G01*
X2041144Y2794853D2*
D16*
X2041528Y2830083D1*
X2209249D1*
Y2792938D1*
X2110951Y2793833D2*
X2138804D1*
X2331286Y2670804D2*
X2367167Y2670299D1*
X2366661Y2504038D1*
X2331791Y2504543D1*
X2331269Y2573134D2*
Y2603659D1*
X2041005Y2379594D2*
X2041349Y2345570D1*
X2208037D1*
X2208381Y2380282D1*
X2110419Y2381909D2*
X2138454Y2381555D1*
X1917849Y2503113D2*
X1882567Y2502738D1*
Y2673144D1*
X1917849Y2672768D1*
X1917642Y2571920D2*
X1917416Y2601798D1*
X2800276Y2503907D2*
D10*
G02X2800126Y2571787I20261J33985D01*
G01*
X2800276Y2603904D2*
G02X2800126Y2671785I20261J33985D01*
G01*
X2678771Y2382402D2*
G03X2610890Y2382551I-33985J-20261D01*
G01*
X2578773Y2382402D2*
G03X2510892Y2382551I-33985J-20261D01*
G01*
X2511781Y2792402D2*
G03X2579661Y2792252I33985J20261D01*
G01*
X2611778Y2792402D2*
G03X2679659Y2792252I33985J20261D01*
G01*
X2390276Y2503907D2*
G03X2390425Y2571787I-20261J33985D01*
G01*
X2390276Y2603904D2*
G03X2390425Y2671785I-20261J33985D01*
G01*
X2512010Y2794853D2*
D16*
X2512394Y2830083D1*
X2680115D1*
Y2792938D1*
X2581818Y2793833D2*
X2609671D1*
X2802152Y2670804D2*
X2838033Y2670299D1*
X2837528Y2504038D1*
X2802657Y2504543D1*
X2802135Y2573134D2*
Y2603659D1*
X2511871Y2379594D2*
X2512215Y2345570D1*
X2678903D1*
X2679247Y2380282D1*
X2581285Y2381909D2*
X2609320Y2381555D1*
X2388715Y2503113D2*
X2353433Y2502738D1*
Y2673144D1*
X2388715Y2672768D1*
X2388508Y2571920D2*
X2388282Y2601798D1*
X3271142Y2503907D2*
D10*
G02X3270992Y2571787I20261J33985D01*
G01*
X3271142Y2603904D2*
G02X3270992Y2671785I20261J33985D01*
G01*
X3149637Y2382402D2*
G03X3081756Y2382551I-33985J-20261D01*
G01*
X3049639Y2382402D2*
G03X2981759Y2382551I-33985J-20261D01*
G01*
X2982647Y2792402D2*
G03X3050527Y2792252I33985J20261D01*
G01*
X3082645Y2792402D2*
G03X3150525Y2792252I33985J20261D01*
G01*
X2861142Y2503907D2*
G03X2861292Y2571787I-20261J33985D01*
G01*
X2861142Y2603904D2*
G03X2861292Y2671785I-20261J33985D01*
G01*
X2982877Y2794853D2*
D16*
X2983260Y2830083D1*
X3150982D1*
Y2792938D1*
X3052684Y2793833D2*
X3080537D1*
X3273018Y2670804D2*
X3308899Y2670299D1*
X3308394Y2504038D1*
X3273524Y2504543D1*
X3273001Y2573134D2*
Y2603659D1*
X2982738Y2379594D2*
X2983081Y2345570D1*
X3149769D1*
X3150113Y2380282D1*
X3052151Y2381909D2*
X3080186Y2381555D1*
X2859581Y2503113D2*
X2824299Y2502738D1*
Y2673144D1*
X2859581Y2672768D1*
X2859374Y2571920D2*
X2859148Y2601798D1*
X3742008Y2503907D2*
D10*
G02X3741858Y2571787I20261J33985D01*
G01*
X3742008Y2603904D2*
G02X3741858Y2671785I20261J33985D01*
G01*
X3620503Y2382402D2*
G03X3552623Y2382551I-33985J-20261D01*
G01*
X3520505Y2382402D2*
G03X3452625Y2382551I-33985J-20261D01*
G01*
X3453513Y2792402D2*
G03X3521393Y2792252I33985J20261D01*
G01*
X3553511Y2792402D2*
G03X3621391Y2792252I33985J20261D01*
G01*
X3332008Y2503907D2*
G03X3332158Y2571787I-20261J33985D01*
G01*
X3332008Y2603904D2*
G03X3332158Y2671785I-20261J33985D01*
G01*
X3453743Y2794853D2*
D16*
X3454126Y2830083D1*
X3621848D1*
Y2792938D1*
X3523550Y2793833D2*
X3551403D1*
X3743885Y2670804D2*
X3779765Y2670299D1*
X3779260Y2504038D1*
X3744390Y2504543D1*
X3743867Y2573134D2*
Y2603659D1*
X3453604Y2379594D2*
X3453948Y2345570D1*
X3620635D1*
X3620979Y2380282D1*
X3523017Y2381909D2*
X3551052Y2381555D1*
X3330448Y2503113D2*
X3295165Y2502738D1*
Y2673144D1*
X3330448Y2672768D1*
X3330240Y2571920D2*
X3330014Y2601798D1*
X4212874Y2503907D2*
D10*
G02X4212724Y2571787I20261J33985D01*
G01*
X4212874Y2603904D2*
G02X4212724Y2671785I20261J33985D01*
G01*
X4091369Y2382402D2*
G03X4023489Y2382551I-33985J-20261D01*
G01*
X3991371Y2382402D2*
G03X3923491Y2382551I-33985J-20261D01*
G01*
X3924379Y2792402D2*
G03X3992259Y2792252I33985J20261D01*
G01*
X4024377Y2792402D2*
G03X4092257Y2792252I33985J20261D01*
G01*
X3802874Y2503907D2*
G03X3803024Y2571787I-20261J33985D01*
G01*
X3802874Y2603904D2*
G03X3803024Y2671785I-20261J33985D01*
G01*
X3924609Y2794853D2*
D16*
X3924992Y2830083D1*
X4092714D1*
Y2792938D1*
X3994416Y2793833D2*
X4022269D1*
X4214751Y2670804D2*
X4250631Y2670299D1*
X4250126Y2504038D1*
X4215256Y2504543D1*
X4214734Y2573134D2*
Y2603659D1*
X3924470Y2379594D2*
X3924814Y2345570D1*
X4091501D1*
X4091845Y2380282D1*
X3993883Y2381909D2*
X4021919Y2381555D1*
X3801314Y2503113D2*
X3766031Y2502738D1*
Y2673144D1*
X3801314Y2672768D1*
X3801106Y2571920D2*
X3800881Y2601798D1*
X916811Y2982647D2*
D10*
G02X916661Y3050527I20261J33985D01*
G01*
X916811Y3082645D2*
G02X916661Y3150525I20261J33985D01*
G01*
X795306Y2861142D2*
G03X727426Y2861292I-33985J-20261D01*
G01*
X695308Y2861142D2*
G03X627428Y2861292I-33985J-20261D01*
G01*
X628316Y3271142D2*
G03X696196Y3270992I33985J20261D01*
G01*
X728314Y3271142D2*
G03X796194Y3270992I33985J20261D01*
G01*
X506811Y2982647D2*
G03X506961Y3050527I-20261J33985D01*
G01*
X506811Y3082645D2*
G03X506961Y3150525I-20261J33985D01*
G01*
X628546Y3273593D2*
D16*
X628929Y3308823D1*
X796651D1*
Y3271678D1*
X698353Y3272573D2*
X726206D1*
X918688Y3149545D2*
X954568Y3149039D1*
X954063Y2982778D1*
X919193Y2983283D1*
X918671Y3051874D2*
Y3082399D1*
X628407Y2858335D2*
X628751Y2824310D1*
X795438D1*
X795782Y2859022D1*
X697820Y2860650D2*
X725856Y2860295D1*
X505251Y2981853D2*
X469969Y2981478D1*
Y3151885D1*
X505251Y3151508D1*
X505043Y3050660D2*
X504818Y3080538D1*
X1387677Y2982647D2*
D10*
G02X1387527Y3050527I20261J33985D01*
G01*
X1387677Y3082645D2*
G02X1387527Y3150525I20261J33985D01*
G01*
X1266172Y2861142D2*
G03X1198292Y2861292I-33985J-20261D01*
G01*
X1166174Y2861142D2*
G03X1098294Y2861292I-33985J-20261D01*
G01*
X1099182Y3271142D2*
G03X1167062Y3270992I33985J20261D01*
G01*
X1199180Y3271142D2*
G03X1267060Y3270992I33985J20261D01*
G01*
X977677Y2982647D2*
G03X977827Y3050527I-20261J33985D01*
G01*
X977677Y3082645D2*
G03X977827Y3150525I-20261J33985D01*
G01*
X1099412Y3273593D2*
D16*
X1099795Y3308823D1*
X1267517D1*
Y3271678D1*
X1169219Y3272573D2*
X1197072D1*
X1389554Y3149545D2*
X1425434Y3149039D1*
X1424929Y2982778D1*
X1390059Y2983283D1*
X1389537Y3051874D2*
Y3082399D1*
X1099273Y2858335D2*
X1099617Y2824310D1*
X1266304D1*
X1266648Y2859022D1*
X1168686Y2860650D2*
X1196722Y2860295D1*
X976117Y2981853D2*
X940835Y2981478D1*
Y3151885D1*
X976117Y3151508D1*
X975909Y3050660D2*
X975684Y3080538D1*
X1858543Y2982647D2*
D10*
G02X1858393Y3050527I20261J33985D01*
G01*
X1858543Y3082645D2*
G02X1858393Y3150525I20261J33985D01*
G01*
X1737038Y2861142D2*
G03X1669158Y2861292I-33985J-20261D01*
G01*
X1637040Y2861142D2*
G03X1569160Y2861292I-33985J-20261D01*
G01*
X1570048Y3271142D2*
G03X1637929Y3270992I33985J20261D01*
G01*
X1670046Y3271142D2*
G03X1737927Y3270992I33985J20261D01*
G01*
X1448543Y2982647D2*
G03X1448693Y3050527I-20261J33985D01*
G01*
X1448543Y3082645D2*
G03X1448693Y3150525I-20261J33985D01*
G01*
X1570278Y3273593D2*
D16*
X1570661Y3308823D1*
X1738383D1*
Y3271678D1*
X1640085Y3272573D2*
X1667938D1*
X1860420Y3149545D2*
X1896301Y3149039D1*
X1895795Y2982778D1*
X1860925Y2983283D1*
X1860403Y3051874D2*
Y3082399D1*
X1570139Y2858335D2*
X1570483Y2824310D1*
X1737171D1*
X1737514Y2859022D1*
X1639552Y2860650D2*
X1667588Y2860295D1*
X1446983Y2981853D2*
X1411701Y2981478D1*
Y3151885D1*
X1446983Y3151508D1*
X1446776Y3050660D2*
X1446550Y3080538D1*
X2329409Y2982647D2*
D10*
G02X2329260Y3050527I20261J33985D01*
G01*
X2329409Y3082645D2*
G02X2329260Y3150525I20261J33985D01*
G01*
X2207904Y2861142D2*
G03X2140024Y2861292I-33985J-20261D01*
G01*
X2107907Y2861142D2*
G03X2040026Y2861292I-33985J-20261D01*
G01*
X2040914Y3271142D2*
G03X2108795Y3270992I33985J20261D01*
G01*
X2140912Y3271142D2*
G03X2208793Y3270992I33985J20261D01*
G01*
X1919409Y2982647D2*
G03X1919559Y3050527I-20261J33985D01*
G01*
X1919409Y3082645D2*
G03X1919559Y3150525I-20261J33985D01*
G01*
X2041144Y3273593D2*
D16*
X2041528Y3308823D1*
X2209249D1*
Y3271678D1*
X2110951Y3272573D2*
X2138804D1*
X2331286Y3149545D2*
X2367167Y3149039D1*
X2366661Y2982778D1*
X2331791Y2983283D1*
X2331269Y3051874D2*
Y3082399D1*
X2041005Y2858335D2*
X2041349Y2824310D1*
X2208037D1*
X2208381Y2859022D1*
X2110419Y2860650D2*
X2138454Y2860295D1*
X1917849Y2981853D2*
X1882567Y2981478D1*
Y3151885D1*
X1917849Y3151508D1*
X1917642Y3050660D2*
X1917416Y3080538D1*
X2800276Y2982647D2*
D10*
G02X2800126Y3050527I20261J33985D01*
G01*
X2800276Y3082645D2*
G02X2800126Y3150525I20261J33985D01*
G01*
X2678771Y2861142D2*
G03X2610890Y2861292I-33985J-20261D01*
G01*
X2578773Y2861142D2*
G03X2510892Y2861292I-33985J-20261D01*
G01*
X2511781Y3271142D2*
G03X2579661Y3270992I33985J20261D01*
G01*
X2611778Y3271142D2*
G03X2679659Y3270992I33985J20261D01*
G01*
X2390276Y2982647D2*
G03X2390425Y3050527I-20261J33985D01*
G01*
X2390276Y3082645D2*
G03X2390425Y3150525I-20261J33985D01*
G01*
X2512010Y3273593D2*
D16*
X2512394Y3308823D1*
X2680115D1*
Y3271678D1*
X2581818Y3272573D2*
X2609671D1*
X2802152Y3149545D2*
X2838033Y3149039D1*
X2837528Y2982778D1*
X2802657Y2983283D1*
X2802135Y3051874D2*
Y3082399D1*
X2511871Y2858335D2*
X2512215Y2824310D1*
X2678903D1*
X2679247Y2859022D1*
X2581285Y2860650D2*
X2609320Y2860295D1*
X2388715Y2981853D2*
X2353433Y2981478D1*
Y3151885D1*
X2388715Y3151508D1*
X2388508Y3050660D2*
X2388282Y3080538D1*
X3271142Y2982647D2*
D10*
G02X3270992Y3050527I20261J33985D01*
G01*
X3271142Y3082645D2*
G02X3270992Y3150525I20261J33985D01*
G01*
X3149637Y2861142D2*
G03X3081756Y2861292I-33985J-20261D01*
G01*
X3049639Y2861142D2*
G03X2981759Y2861292I-33985J-20261D01*
G01*
X2982647Y3271142D2*
G03X3050527Y3270992I33985J20261D01*
G01*
X3082645Y3271142D2*
G03X3150525Y3270992I33985J20261D01*
G01*
X2861142Y2982647D2*
G03X2861292Y3050527I-20261J33985D01*
G01*
X2861142Y3082645D2*
G03X2861292Y3150525I-20261J33985D01*
G01*
X2982877Y3273593D2*
D16*
X2983260Y3308823D1*
X3150982D1*
Y3271678D1*
X3052684Y3272573D2*
X3080537D1*
X3273018Y3149545D2*
X3308899Y3149039D1*
X3308394Y2982778D1*
X3273524Y2983283D1*
X3273001Y3051874D2*
Y3082399D1*
X2982738Y2858335D2*
X2983081Y2824310D1*
X3149769D1*
X3150113Y2859022D1*
X3052151Y2860650D2*
X3080186Y2860295D1*
X2859581Y2981853D2*
X2824299Y2981478D1*
Y3151885D1*
X2859581Y3151508D1*
X2859374Y3050660D2*
X2859148Y3080538D1*
X3742008Y2982647D2*
D10*
G02X3741858Y3050527I20261J33985D01*
G01*
X3742008Y3082645D2*
G02X3741858Y3150525I20261J33985D01*
G01*
X3620503Y2861142D2*
G03X3552623Y2861292I-33985J-20261D01*
G01*
X3520505Y2861142D2*
G03X3452625Y2861292I-33985J-20261D01*
G01*
X3453513Y3271142D2*
G03X3521393Y3270992I33985J20261D01*
G01*
X3553511Y3271142D2*
G03X3621391Y3270992I33985J20261D01*
G01*
X3332008Y2982647D2*
G03X3332158Y3050527I-20261J33985D01*
G01*
X3332008Y3082645D2*
G03X3332158Y3150525I-20261J33985D01*
G01*
X3453743Y3273593D2*
D16*
X3454126Y3308823D1*
X3621848D1*
Y3271678D1*
X3523550Y3272573D2*
X3551403D1*
X3743885Y3149545D2*
X3779765Y3149039D1*
X3779260Y2982778D1*
X3744390Y2983283D1*
X3743867Y3051874D2*
Y3082399D1*
X3453604Y2858335D2*
X3453948Y2824310D1*
X3620635D1*
X3620979Y2859022D1*
X3523017Y2860650D2*
X3551052Y2860295D1*
X3330448Y2981853D2*
X3295165Y2981478D1*
Y3151885D1*
X3330448Y3151508D1*
X3330240Y3050660D2*
X3330014Y3080538D1*
X4212874Y2982647D2*
D10*
G02X4212724Y3050527I20261J33985D01*
G01*
X4212874Y3082645D2*
G02X4212724Y3150525I20261J33985D01*
G01*
X4091369Y2861142D2*
G03X4023489Y2861292I-33985J-20261D01*
G01*
X3991371Y2861142D2*
G03X3923491Y2861292I-33985J-20261D01*
G01*
X3924379Y3271142D2*
G03X3992259Y3270992I33985J20261D01*
G01*
X4024377Y3271142D2*
G03X4092257Y3270992I33985J20261D01*
G01*
X3802874Y2982647D2*
G03X3803024Y3050527I-20261J33985D01*
G01*
X3802874Y3082645D2*
G03X3803024Y3150525I-20261J33985D01*
G01*
X3924609Y3273593D2*
D16*
X3924992Y3308823D1*
X4092714D1*
Y3271678D1*
X3994416Y3272573D2*
X4022269D1*
X4214751Y3149545D2*
X4250631Y3149039D1*
X4250126Y2982778D1*
X4215256Y2983283D1*
X4214734Y3051874D2*
Y3082399D1*
X3924470Y2858335D2*
X3924814Y2824310D1*
X4091501D1*
X4091845Y2859022D1*
X3993883Y2860650D2*
X4021919Y2860295D1*
X3801314Y2981853D2*
X3766031Y2981478D1*
Y3151885D1*
X3801314Y3151508D1*
X3801106Y3050660D2*
X3800881Y3080538D1*
X916811Y3461387D2*
D10*
G02X916661Y3529267I20261J33985D01*
G01*
X916811Y3561385D2*
G02X916661Y3629265I20261J33985D01*
G01*
X795306Y3339882D2*
G03X727426Y3340032I-33985J-20261D01*
G01*
X695308Y3339882D2*
G03X627428Y3340032I-33985J-20261D01*
G01*
X628316Y3749882D2*
G03X696196Y3749732I33985J20261D01*
G01*
X728314Y3749882D2*
G03X796194Y3749732I33985J20261D01*
G01*
X506811Y3461387D2*
G03X506961Y3529267I-20261J33985D01*
G01*
X506811Y3561385D2*
G03X506961Y3629265I-20261J33985D01*
G01*
X628546Y3752333D2*
D16*
X628929Y3787563D1*
X796651D1*
Y3750419D1*
X698353Y3751314D2*
X726206D1*
X918688Y3628285D2*
X954568Y3627780D1*
X954063Y3461518D1*
X919193Y3462024D1*
X918671Y3530614D2*
Y3561139D1*
X628407Y3337075D2*
X628751Y3303050D1*
X795438D1*
X795782Y3337762D1*
X697820Y3339390D2*
X725856Y3339035D1*
X505251Y3460593D2*
X469969Y3460218D1*
Y3630625D1*
X505251Y3630248D1*
X505043Y3529400D2*
X504818Y3559278D1*
X1387677Y3461387D2*
D10*
G02X1387527Y3529267I20261J33985D01*
G01*
X1387677Y3561385D2*
G02X1387527Y3629265I20261J33985D01*
G01*
X1266172Y3339882D2*
G03X1198292Y3340032I-33985J-20261D01*
G01*
X1166174Y3339882D2*
G03X1098294Y3340032I-33985J-20261D01*
G01*
X1099182Y3749882D2*
G03X1167062Y3749732I33985J20261D01*
G01*
X1199180Y3749882D2*
G03X1267060Y3749732I33985J20261D01*
G01*
X977677Y3461387D2*
G03X977827Y3529267I-20261J33985D01*
G01*
X977677Y3561385D2*
G03X977827Y3629265I-20261J33985D01*
G01*
X1099412Y3752333D2*
D16*
X1099795Y3787563D1*
X1267517D1*
Y3750419D1*
X1169219Y3751314D2*
X1197072D1*
X1389554Y3628285D2*
X1425434Y3627780D1*
X1424929Y3461518D1*
X1390059Y3462024D1*
X1389537Y3530614D2*
Y3561139D1*
X1099273Y3337075D2*
X1099617Y3303050D1*
X1266304D1*
X1266648Y3337762D1*
X1168686Y3339390D2*
X1196722Y3339035D1*
X976117Y3460593D2*
X940835Y3460218D1*
Y3630625D1*
X976117Y3630248D1*
X975909Y3529400D2*
X975684Y3559278D1*
X1858543Y3461387D2*
D10*
G02X1858393Y3529267I20261J33985D01*
G01*
X1858543Y3561385D2*
G02X1858393Y3629265I20261J33985D01*
G01*
X1737038Y3339882D2*
G03X1669158Y3340032I-33985J-20261D01*
G01*
X1637040Y3339882D2*
G03X1569160Y3340032I-33985J-20261D01*
G01*
X1570048Y3749882D2*
G03X1637929Y3749732I33985J20261D01*
G01*
X1670046Y3749882D2*
G03X1737927Y3749732I33985J20261D01*
G01*
X1448543Y3461387D2*
G03X1448693Y3529267I-20261J33985D01*
G01*
X1448543Y3561385D2*
G03X1448693Y3629265I-20261J33985D01*
G01*
X1570278Y3752333D2*
D16*
X1570661Y3787563D1*
X1738383D1*
Y3750419D1*
X1640085Y3751314D2*
X1667938D1*
X1860420Y3628285D2*
X1896301Y3627780D1*
X1895795Y3461518D1*
X1860925Y3462024D1*
X1860403Y3530614D2*
Y3561139D1*
X1570139Y3337075D2*
X1570483Y3303050D1*
X1737171D1*
X1737514Y3337762D1*
X1639552Y3339390D2*
X1667588Y3339035D1*
X1446983Y3460593D2*
X1411701Y3460218D1*
Y3630625D1*
X1446983Y3630248D1*
X1446776Y3529400D2*
X1446550Y3559278D1*
X2329409Y3461387D2*
D10*
G02X2329260Y3529267I20261J33985D01*
G01*
X2329409Y3561385D2*
G02X2329260Y3629265I20261J33985D01*
G01*
X2207904Y3339882D2*
G03X2140024Y3340032I-33985J-20261D01*
G01*
X2107907Y3339882D2*
G03X2040026Y3340032I-33985J-20261D01*
G01*
X2040914Y3749882D2*
G03X2108795Y3749732I33985J20261D01*
G01*
X2140912Y3749882D2*
G03X2208793Y3749732I33985J20261D01*
G01*
X1919409Y3461387D2*
G03X1919559Y3529267I-20261J33985D01*
G01*
X1919409Y3561385D2*
G03X1919559Y3629265I-20261J33985D01*
G01*
X2041144Y3752333D2*
D16*
X2041528Y3787563D1*
X2209249D1*
Y3750419D1*
X2110951Y3751314D2*
X2138804D1*
X2331286Y3628285D2*
X2367167Y3627780D1*
X2366661Y3461518D1*
X2331791Y3462024D1*
X2331269Y3530614D2*
Y3561139D1*
X2041005Y3337075D2*
X2041349Y3303050D1*
X2208037D1*
X2208381Y3337762D1*
X2110419Y3339390D2*
X2138454Y3339035D1*
X1917849Y3460593D2*
X1882567Y3460218D1*
Y3630625D1*
X1917849Y3630248D1*
X1917642Y3529400D2*
X1917416Y3559278D1*
X2800276Y3461387D2*
D10*
G02X2800126Y3529267I20261J33985D01*
G01*
X2800276Y3561385D2*
G02X2800126Y3629265I20261J33985D01*
G01*
X2678771Y3339882D2*
G03X2610890Y3340032I-33985J-20261D01*
G01*
X2578773Y3339882D2*
G03X2510892Y3340032I-33985J-20261D01*
G01*
X2511781Y3749882D2*
G03X2579661Y3749732I33985J20261D01*
G01*
X2611778Y3749882D2*
G03X2679659Y3749732I33985J20261D01*
G01*
X2390276Y3461387D2*
G03X2390425Y3529267I-20261J33985D01*
G01*
X2390276Y3561385D2*
G03X2390425Y3629265I-20261J33985D01*
G01*
X2512010Y3752333D2*
D16*
X2512394Y3787563D1*
X2680115D1*
Y3750419D1*
X2581818Y3751314D2*
X2609671D1*
X2802152Y3628285D2*
X2838033Y3627780D1*
X2837528Y3461518D1*
X2802657Y3462024D1*
X2802135Y3530614D2*
Y3561139D1*
X2511871Y3337075D2*
X2512215Y3303050D1*
X2678903D1*
X2679247Y3337762D1*
X2581285Y3339390D2*
X2609320Y3339035D1*
X2388715Y3460593D2*
X2353433Y3460218D1*
Y3630625D1*
X2388715Y3630248D1*
X2388508Y3529400D2*
X2388282Y3559278D1*
X3271142Y3461387D2*
D10*
G02X3270992Y3529267I20261J33985D01*
G01*
X3271142Y3561385D2*
G02X3270992Y3629265I20261J33985D01*
G01*
X3149637Y3339882D2*
G03X3081756Y3340032I-33985J-20261D01*
G01*
X3049639Y3339882D2*
G03X2981759Y3340032I-33985J-20261D01*
G01*
X2982647Y3749882D2*
G03X3050527Y3749732I33985J20261D01*
G01*
X3082645Y3749882D2*
G03X3150525Y3749732I33985J20261D01*
G01*
X2861142Y3461387D2*
G03X2861292Y3529267I-20261J33985D01*
G01*
X2861142Y3561385D2*
G03X2861292Y3629265I-20261J33985D01*
G01*
X2982877Y3752333D2*
D16*
X2983260Y3787563D1*
X3150982D1*
Y3750419D1*
X3052684Y3751314D2*
X3080537D1*
X3273018Y3628285D2*
X3308899Y3627780D1*
X3308394Y3461518D1*
X3273524Y3462024D1*
X3273001Y3530614D2*
Y3561139D1*
X2982738Y3337075D2*
X2983081Y3303050D1*
X3149769D1*
X3150113Y3337762D1*
X3052151Y3339390D2*
X3080186Y3339035D1*
X2859581Y3460593D2*
X2824299Y3460218D1*
Y3630625D1*
X2859581Y3630248D1*
X2859374Y3529400D2*
X2859148Y3559278D1*
X3742008Y3461387D2*
D10*
G02X3741858Y3529267I20261J33985D01*
G01*
X3742008Y3561385D2*
G02X3741858Y3629265I20261J33985D01*
G01*
X3620503Y3339882D2*
G03X3552623Y3340032I-33985J-20261D01*
G01*
X3520505Y3339882D2*
G03X3452625Y3340032I-33985J-20261D01*
G01*
X3453513Y3749882D2*
G03X3521393Y3749732I33985J20261D01*
G01*
X3553511Y3749882D2*
G03X3621391Y3749732I33985J20261D01*
G01*
X3332008Y3461387D2*
G03X3332158Y3529267I-20261J33985D01*
G01*
X3332008Y3561385D2*
G03X3332158Y3629265I-20261J33985D01*
G01*
X3453743Y3752333D2*
D16*
X3454126Y3787563D1*
X3621848D1*
Y3750419D1*
X3523550Y3751314D2*
X3551403D1*
X3743885Y3628285D2*
X3779765Y3627780D1*
X3779260Y3461518D1*
X3744390Y3462024D1*
X3743867Y3530614D2*
Y3561139D1*
X3453604Y3337075D2*
X3453948Y3303050D1*
X3620635D1*
X3620979Y3337762D1*
X3523017Y3339390D2*
X3551052Y3339035D1*
X3330448Y3460593D2*
X3295165Y3460218D1*
Y3630625D1*
X3330448Y3630248D1*
X3330240Y3529400D2*
X3330014Y3559278D1*
X4212874Y3461387D2*
D10*
G02X4212724Y3529267I20261J33985D01*
G01*
X4212874Y3561385D2*
G02X4212724Y3629265I20261J33985D01*
G01*
X4091369Y3339882D2*
G03X4023489Y3340032I-33985J-20261D01*
G01*
X3991371Y3339882D2*
G03X3923491Y3340032I-33985J-20261D01*
G01*
X3924379Y3749882D2*
G03X3992259Y3749732I33985J20261D01*
G01*
X4024377Y3749882D2*
G03X4092257Y3749732I33985J20261D01*
G01*
X3802874Y3461387D2*
G03X3803024Y3529267I-20261J33985D01*
G01*
X3802874Y3561385D2*
G03X3803024Y3629265I-20261J33985D01*
G01*
X3924609Y3752333D2*
D16*
X3924992Y3787563D1*
X4092714D1*
Y3750419D1*
X3994416Y3751314D2*
X4022269D1*
X4214751Y3628285D2*
X4250631Y3627780D1*
X4250126Y3461518D1*
X4215256Y3462024D1*
X4214734Y3530614D2*
Y3561139D1*
X3924470Y3337075D2*
X3924814Y3303050D1*
X4091501D1*
X4091845Y3337762D1*
X3993883Y3339390D2*
X4021919Y3339035D1*
X3801314Y3460593D2*
X3766031Y3460218D1*
Y3630625D1*
X3801314Y3630248D1*
X3801106Y3529400D2*
X3800881Y3559278D1*
X916811Y3940127D2*
D10*
G02X916661Y4008007I20261J33985D01*
G01*
X916811Y4040125D2*
G02X916661Y4108005I20261J33985D01*
G01*
X795306Y3818622D2*
G03X727426Y3818772I-33985J-20261D01*
G01*
X695308Y3818622D2*
G03X627428Y3818772I-33985J-20261D01*
G01*
X628316Y4228622D2*
G03X696196Y4228472I33985J20261D01*
G01*
X728314Y4228622D2*
G03X796194Y4228472I33985J20261D01*
G01*
X506811Y3940127D2*
G03X506961Y4008007I-20261J33985D01*
G01*
X506811Y4040125D2*
G03X506961Y4108005I-20261J33985D01*
G01*
X628546Y4231073D2*
D16*
X628929Y4266303D1*
X796651D1*
Y4229159D1*
X698353Y4230054D2*
X726206D1*
X918688Y4107025D2*
X954568Y4106520D1*
X954063Y3940259D1*
X919193Y3940764D1*
X918671Y4009354D2*
Y4039879D1*
X628407Y3815815D2*
X628751Y3781790D1*
X795438D1*
X795782Y3816503D1*
X697820Y3818130D2*
X725856Y3817776D1*
X505251Y3939333D2*
X469969Y3938958D1*
Y4109365D1*
X505251Y4108988D1*
X505043Y4008140D2*
X504818Y4038018D1*
X1387677Y3940127D2*
D10*
G02X1387527Y4008007I20261J33985D01*
G01*
X1387677Y4040125D2*
G02X1387527Y4108005I20261J33985D01*
G01*
X1266172Y3818622D2*
G03X1198292Y3818772I-33985J-20261D01*
G01*
X1166174Y3818622D2*
G03X1098294Y3818772I-33985J-20261D01*
G01*
X1099182Y4228622D2*
G03X1167062Y4228472I33985J20261D01*
G01*
X1199180Y4228622D2*
G03X1267060Y4228472I33985J20261D01*
G01*
X977677Y3940127D2*
G03X977827Y4008007I-20261J33985D01*
G01*
X977677Y4040125D2*
G03X977827Y4108005I-20261J33985D01*
G01*
X1099412Y4231073D2*
D16*
X1099795Y4266303D1*
X1267517D1*
Y4229159D1*
X1169219Y4230054D2*
X1197072D1*
X1389554Y4107025D2*
X1425434Y4106520D1*
X1424929Y3940259D1*
X1390059Y3940764D1*
X1389537Y4009354D2*
Y4039879D1*
X1099273Y3815815D2*
X1099617Y3781790D1*
X1266304D1*
X1266648Y3816503D1*
X1168686Y3818130D2*
X1196722Y3817776D1*
X976117Y3939333D2*
X940835Y3938958D1*
Y4109365D1*
X976117Y4108988D1*
X975909Y4008140D2*
X975684Y4038018D1*
X1858543Y3940127D2*
D10*
G02X1858393Y4008007I20261J33985D01*
G01*
X1858543Y4040125D2*
G02X1858393Y4108005I20261J33985D01*
G01*
X1737038Y3818622D2*
G03X1669158Y3818772I-33985J-20261D01*
G01*
X1637040Y3818622D2*
G03X1569160Y3818772I-33985J-20261D01*
G01*
X1570048Y4228622D2*
G03X1637929Y4228472I33985J20261D01*
G01*
X1670046Y4228622D2*
G03X1737927Y4228472I33985J20261D01*
G01*
X1448543Y3940127D2*
G03X1448693Y4008007I-20261J33985D01*
G01*
X1448543Y4040125D2*
G03X1448693Y4108005I-20261J33985D01*
G01*
X1570278Y4231073D2*
D16*
X1570661Y4266303D1*
X1738383D1*
Y4229159D1*
X1640085Y4230054D2*
X1667938D1*
X1860420Y4107025D2*
X1896301Y4106520D1*
X1895795Y3940259D1*
X1860925Y3940764D1*
X1860403Y4009354D2*
Y4039879D1*
X1570139Y3815815D2*
X1570483Y3781790D1*
X1737171D1*
X1737514Y3816503D1*
X1639552Y3818130D2*
X1667588Y3817776D1*
X1446983Y3939333D2*
X1411701Y3938958D1*
Y4109365D1*
X1446983Y4108988D1*
X1446776Y4008140D2*
X1446550Y4038018D1*
X2329409Y3940127D2*
D10*
G02X2329260Y4008007I20261J33985D01*
G01*
X2329409Y4040125D2*
G02X2329260Y4108005I20261J33985D01*
G01*
X2207904Y3818622D2*
G03X2140024Y3818772I-33985J-20261D01*
G01*
X2107907Y3818622D2*
G03X2040026Y3818772I-33985J-20261D01*
G01*
X2040914Y4228622D2*
G03X2108795Y4228472I33985J20261D01*
G01*
X2140912Y4228622D2*
G03X2208793Y4228472I33985J20261D01*
G01*
X1919409Y3940127D2*
G03X1919559Y4008007I-20261J33985D01*
G01*
X1919409Y4040125D2*
G03X1919559Y4108005I-20261J33985D01*
G01*
X2041144Y4231073D2*
D16*
X2041528Y4266303D1*
X2209249D1*
Y4229159D1*
X2110951Y4230054D2*
X2138804D1*
X2331286Y4107025D2*
X2367167Y4106520D1*
X2366661Y3940259D1*
X2331791Y3940764D1*
X2331269Y4009354D2*
Y4039879D1*
X2041005Y3815815D2*
X2041349Y3781790D1*
X2208037D1*
X2208381Y3816503D1*
X2110419Y3818130D2*
X2138454Y3817776D1*
X1917849Y3939333D2*
X1882567Y3938958D1*
Y4109365D1*
X1917849Y4108988D1*
X1917642Y4008140D2*
X1917416Y4038018D1*
X2800276Y3940127D2*
D10*
G02X2800126Y4008007I20261J33985D01*
G01*
X2800276Y4040125D2*
G02X2800126Y4108005I20261J33985D01*
G01*
X2678771Y3818622D2*
G03X2610890Y3818772I-33985J-20261D01*
G01*
X2578773Y3818622D2*
G03X2510892Y3818772I-33985J-20261D01*
G01*
X2511781Y4228622D2*
G03X2579661Y4228472I33985J20261D01*
G01*
X2611778Y4228622D2*
G03X2679659Y4228472I33985J20261D01*
G01*
X2390276Y3940127D2*
G03X2390425Y4008007I-20261J33985D01*
G01*
X2390276Y4040125D2*
G03X2390425Y4108005I-20261J33985D01*
G01*
X2512010Y4231073D2*
D16*
X2512394Y4266303D1*
X2680115D1*
Y4229159D1*
X2581818Y4230054D2*
X2609671D1*
X2802152Y4107025D2*
X2838033Y4106520D1*
X2837528Y3940259D1*
X2802657Y3940764D1*
X2802135Y4009354D2*
Y4039879D1*
X2511871Y3815815D2*
X2512215Y3781790D1*
X2678903D1*
X2679247Y3816503D1*
X2581285Y3818130D2*
X2609320Y3817776D1*
X2388715Y3939333D2*
X2353433Y3938958D1*
Y4109365D1*
X2388715Y4108988D1*
X2388508Y4008140D2*
X2388282Y4038018D1*
X3271142Y3940127D2*
D10*
G02X3270992Y4008007I20261J33985D01*
G01*
X3271142Y4040125D2*
G02X3270992Y4108005I20261J33985D01*
G01*
X3149637Y3818622D2*
G03X3081756Y3818772I-33985J-20261D01*
G01*
X3049639Y3818622D2*
G03X2981759Y3818772I-33985J-20261D01*
G01*
X2982647Y4228622D2*
G03X3050527Y4228472I33985J20261D01*
G01*
X3082645Y4228622D2*
G03X3150525Y4228472I33985J20261D01*
G01*
X2861142Y3940127D2*
G03X2861292Y4008007I-20261J33985D01*
G01*
X2861142Y4040125D2*
G03X2861292Y4108005I-20261J33985D01*
G01*
X2982877Y4231073D2*
D16*
X2983260Y4266303D1*
X3150982D1*
Y4229159D1*
X3052684Y4230054D2*
X3080537D1*
X3273018Y4107025D2*
X3308899Y4106520D1*
X3308394Y3940259D1*
X3273524Y3940764D1*
X3273001Y4009354D2*
Y4039879D1*
X2982738Y3815815D2*
X2983081Y3781790D1*
X3149769D1*
X3150113Y3816503D1*
X3052151Y3818130D2*
X3080186Y3817776D1*
X2859581Y3939333D2*
X2824299Y3938958D1*
Y4109365D1*
X2859581Y4108988D1*
X2859374Y4008140D2*
X2859148Y4038018D1*
X3742008Y3940127D2*
D10*
G02X3741858Y4008007I20261J33985D01*
G01*
X3742008Y4040125D2*
G02X3741858Y4108005I20261J33985D01*
G01*
X3620503Y3818622D2*
G03X3552623Y3818772I-33985J-20261D01*
G01*
X3520505Y3818622D2*
G03X3452625Y3818772I-33985J-20261D01*
G01*
X3453513Y4228622D2*
G03X3521393Y4228472I33985J20261D01*
G01*
X3553511Y4228622D2*
G03X3621391Y4228472I33985J20261D01*
G01*
X3332008Y3940127D2*
G03X3332158Y4008007I-20261J33985D01*
G01*
X3332008Y4040125D2*
G03X3332158Y4108005I-20261J33985D01*
G01*
X3453743Y4231073D2*
D16*
X3454126Y4266303D1*
X3621848D1*
Y4229159D1*
X3523550Y4230054D2*
X3551403D1*
X3743885Y4107025D2*
X3779765Y4106520D1*
X3779260Y3940259D1*
X3744390Y3940764D1*
X3743867Y4009354D2*
Y4039879D1*
X3453604Y3815815D2*
X3453948Y3781790D1*
X3620635D1*
X3620979Y3816503D1*
X3523017Y3818130D2*
X3551052Y3817776D1*
X3330448Y3939333D2*
X3295165Y3938958D1*
Y4109365D1*
X3330448Y4108988D1*
X3330240Y4008140D2*
X3330014Y4038018D1*
X4212874Y3940127D2*
D10*
G02X4212724Y4008007I20261J33985D01*
G01*
X4212874Y4040125D2*
G02X4212724Y4108005I20261J33985D01*
G01*
X4091369Y3818622D2*
G03X4023489Y3818772I-33985J-20261D01*
G01*
X3991371Y3818622D2*
G03X3923491Y3818772I-33985J-20261D01*
G01*
X3924379Y4228622D2*
G03X3992259Y4228472I33985J20261D01*
G01*
X4024377Y4228622D2*
G03X4092257Y4228472I33985J20261D01*
G01*
X3802874Y3940127D2*
G03X3803024Y4008007I-20261J33985D01*
G01*
X3802874Y4040125D2*
G03X3803024Y4108005I-20261J33985D01*
G01*
X3924609Y4231073D2*
D16*
X3924992Y4266303D1*
X4092714D1*
Y4229159D1*
X3994416Y4230054D2*
X4022269D1*
X4214751Y4107025D2*
X4250631Y4106520D1*
X4250126Y3940259D1*
X4215256Y3940764D1*
X4214734Y4009354D2*
Y4039879D1*
X3924470Y3815815D2*
X3924814Y3781790D1*
X4091501D1*
X4091845Y3816503D1*
X3993883Y3818130D2*
X4021919Y3817776D1*
X3801314Y3939333D2*
X3766031Y3938958D1*
Y4109365D1*
X3801314Y4108988D1*
X3801106Y4008140D2*
X3800881Y4038018D1*
M02*
