M48
INCH
T01C0.013
T02C0.0197
T03C0.0433
%
T01
X+007522Y+007155
X+007787Y+006957
X+007903Y+006287
X+007523Y+006293
X+007158Y+006594
X+007049Y+006261
X+006759Y+006420
X+006642Y+007133
X+006949Y+007263
X+007049Y+011048
X+006759Y+011208
X+007158Y+011382
X+007523Y+011081
X+007903Y+011075
X+007787Y+011744
X+007522Y+011943
X+006949Y+012050
X+006642Y+011921
X+007049Y+015836
X+006759Y+015995
X+007158Y+016169
X+007523Y+015868
X+007903Y+015862
X+007787Y+016532
X+007522Y+016730
X+006949Y+016838
X+006642Y+016708
X+007049Y+020623
X+006759Y+020782
X+007158Y+020956
X+007523Y+020655
X+007903Y+020649
X+007787Y+021319
X+007522Y+021517
X+006949Y+021625
X+006642Y+021496
X+007049Y+025410
X+006759Y+025570
X+007158Y+025744
X+007523Y+025443
X+007903Y+025437
X+007787Y+026106
X+007522Y+026305
X+006949Y+026413
X+006642Y+026283
X+007049Y+030198
X+006759Y+030357
X+007158Y+030531
X+007523Y+030230
X+007903Y+030224
X+007787Y+030894
X+007522Y+031092
X+006949Y+031200
X+006642Y+031070
X+007049Y+034985
X+006759Y+035145
X+007158Y+035319
X+007523Y+035018
X+007903Y+035012
X+007787Y+035681
X+007522Y+035880
X+006949Y+035987
X+006642Y+035858
X+007049Y+039773
X+006759Y+039932
X+007158Y+040106
X+007523Y+039805
X+007903Y+039799
X+007787Y+040469
X+007522Y+040667
X+006949Y+040775
X+006642Y+040645
X+011351Y+040645
X+011657Y+040775
X+012230Y+040667
X+012496Y+040469
X+012611Y+039799
X+012232Y+039805
X+011867Y+040106
X+011757Y+039773
X+011468Y+039932
X+011657Y+035987
X+011351Y+035858
X+011468Y+035145
X+011757Y+034985
X+011867Y+035319
X+012232Y+035018
X+012611Y+035012
X+012496Y+035681
X+012230Y+035880
X+016059Y+035858
X+016366Y+035987
X+016939Y+035880
X+017204Y+035681
X+017320Y+035012
X+016940Y+035018
X+016575Y+035319
X+016466Y+034985
X+016177Y+035145
X+016366Y+031200
X+016059Y+031070
X+016177Y+030357
X+016466Y+030198
X+016575Y+030531
X+016940Y+030230
X+017320Y+030224
X+017204Y+030894
X+016939Y+031092
X+020768Y+031070
X+021075Y+031200
X+021648Y+031092
X+021913Y+030894
X+022029Y+030224
X+021649Y+030230
X+021284Y+030531
X+021175Y+030198
X+020885Y+030357
X+021075Y+026413
X+020768Y+026283
X+020885Y+025570
X+021175Y+025410
X+021284Y+025744
X+021649Y+025443
X+022029Y+025437
X+021913Y+026106
X+021648Y+026305
X+025477Y+026283
X+025783Y+026413
X+026356Y+026305
X+026622Y+026106
X+026737Y+025437
X+026358Y+025443
X+025993Y+025744
X+025883Y+025410
X+025594Y+025570
X+025783Y+021625
X+025477Y+021496
X+025594Y+020782
X+025883Y+020623
X+025993Y+020956
X+026358Y+020655
X+026737Y+020649
X+026622Y+021319
X+026356Y+021517
X+030185Y+021496
X+030492Y+021625
X+031065Y+021517
X+031330Y+021319
X+031446Y+020649
X+031066Y+020655
X+030701Y+020956
X+030592Y+020623
X+030303Y+020782
X+030492Y+016838
X+030185Y+016708
X+030303Y+015995
X+030592Y+015836
X+030701Y+016169
X+031066Y+015868
X+031446Y+015862
X+031330Y+016532
X+031065Y+016730
X+034894Y+016708
X+035201Y+016838
X+035774Y+016730
X+036039Y+016532
X+036155Y+015862
X+035775Y+015868
X+035410Y+016169
X+035301Y+015836
X+035011Y+015995
X+035201Y+012050
X+034894Y+011921
X+035011Y+011208
X+035301Y+011048
X+035410Y+011382
X+035775Y+011081
X+036155Y+011075
X+036039Y+011744
X+035774Y+011943
X+039603Y+011921
X+039909Y+012050
X+040482Y+011943
X+040748Y+011744
X+040863Y+011075
X+040484Y+011081
X+040119Y+011382
X+040009Y+011048
X+039720Y+011208
X+039909Y+007263
X+039603Y+007133
X+039720Y+006420
X+040009Y+006261
X+040119Y+006594
X+040484Y+006293
X+040863Y+006287
X+040748Y+006957
X+040482Y+007155
X+036155Y+006287
X+035775Y+006293
X+035410Y+006594
X+035301Y+006261
X+035011Y+006420
X+034894Y+007133
X+035201Y+007263
X+035774Y+007155
X+036039Y+006957
X+031446Y+006287
X+031066Y+006293
X+030701Y+006594
X+030592Y+006261
X+030303Y+006420
X+030185Y+007133
X+030492Y+007263
X+031065Y+007155
X+031330Y+006957
X+031446Y+011075
X+031066Y+011081
X+030701Y+011382
X+030592Y+011048
X+030303Y+011208
X+030185Y+011921
X+030492Y+012050
X+031065Y+011943
X+031330Y+011744
X+026737Y+011075
X+026358Y+011081
X+025993Y+011382
X+025883Y+011048
X+025594Y+011208
X+025477Y+011921
X+025783Y+012050
X+026356Y+011943
X+026622Y+011744
X+026737Y+015862
X+026358Y+015868
X+025993Y+016169
X+025883Y+015836
X+025594Y+015995
X+025477Y+016708
X+025783Y+016838
X+026356Y+016730
X+026622Y+016532
X+022029Y+015862
X+021649Y+015868
X+021284Y+016169
X+021175Y+015836
X+020885Y+015995
X+020768Y+016708
X+021075Y+016838
X+021648Y+016730
X+021913Y+016532
X+022029Y+020649
X+021649Y+020655
X+021284Y+020956
X+021175Y+020623
X+020885Y+020782
X+020768Y+021496
X+021075Y+021625
X+021648Y+021517
X+021913Y+021319
X+017320Y+020649
X+016940Y+020655
X+016575Y+020956
X+016466Y+020623
X+016177Y+020782
X+016059Y+021496
X+016366Y+021625
X+016939Y+021517
X+017204Y+021319
X+017320Y+025437
X+016940Y+025443
X+016575Y+025744
X+016466Y+025410
X+016177Y+025570
X+016059Y+026283
X+016366Y+026413
X+016939Y+026305
X+017204Y+026106
X+012611Y+025437
X+012232Y+025443
X+011867Y+025744
X+011757Y+025410
X+011468Y+025570
X+011351Y+026283
X+011657Y+026413
X+012230Y+026305
X+012496Y+026106
X+012611Y+030224
X+012232Y+030230
X+011867Y+030531
X+011757Y+030198
X+011468Y+030357
X+011351Y+031070
X+011657Y+031200
X+012230Y+031092
X+012496Y+030894
X+011657Y+021625
X+011351Y+021496
X+011468Y+020782
X+011757Y+020623
X+011867Y+020956
X+012232Y+020655
X+012611Y+020649
X+012496Y+021319
X+012230Y+021517
X+011657Y+016838
X+011351Y+016708
X+011468Y+015995
X+011757Y+015836
X+011867Y+016169
X+012232Y+015868
X+012611Y+015862
X+012496Y+016532
X+012230Y+016730
X+016059Y+016708
X+016366Y+016838
X+016939Y+016730
X+017204Y+016532
X+017320Y+015862
X+016940Y+015868
X+016575Y+016169
X+016466Y+015836
X+016177Y+015995
X+016366Y+012050
X+016059Y+011921
X+016177Y+011208
X+016466Y+011048
X+016575Y+011382
X+016940Y+011081
X+017320Y+011075
X+017204Y+011744
X+016939Y+011943
X+020768Y+011921
X+021075Y+012050
X+021648Y+011943
X+021913Y+011744
X+022029Y+011075
X+021649Y+011081
X+021284Y+011382
X+021175Y+011048
X+020885Y+011208
X+021075Y+007263
X+020768Y+007133
X+020885Y+006420
X+021175Y+006261
X+021284Y+006594
X+021649Y+006293
X+022029Y+006287
X+021913Y+006957
X+021648Y+007155
X+025477Y+007133
X+025783Y+007263
X+026356Y+007155
X+026622Y+006957
X+026737Y+006287
X+026358Y+006293
X+025993Y+006594
X+025883Y+006261
X+025594Y+006420
X+017320Y+006287
X+016940Y+006293
X+016575Y+006594
X+016466Y+006261
X+016177Y+006420
X+016059Y+007133
X+016366Y+007263
X+016939Y+007155
X+017204Y+006957
X+012611Y+006287
X+012232Y+006293
X+011867Y+006594
X+011757Y+006261
X+011468Y+006420
X+011351Y+007133
X+011657Y+007263
X+012230Y+007155
X+012496Y+006957
X+012611Y+011075
X+012232Y+011081
X+011867Y+011382
X+011757Y+011048
X+011468Y+011208
X+011351Y+011921
X+011657Y+012050
X+012230Y+011943
X+012496Y+011744
X+030303Y+025570
X+030592Y+025410
X+030701Y+025744
X+031066Y+025443
X+031446Y+025437
X+031330Y+026106
X+031065Y+026305
X+030492Y+026413
X+030185Y+026283
X+030592Y+030198
X+030303Y+030357
X+030701Y+030531
X+031066Y+030230
X+031446Y+030224
X+031330Y+030894
X+031065Y+031092
X+030492Y+031200
X+030185Y+031070
X+026737Y+030224
X+026358Y+030230
X+025993Y+030531
X+025883Y+030198
X+025594Y+030357
X+025477Y+031070
X+025783Y+031200
X+026356Y+031092
X+026622Y+030894
X+026737Y+035012
X+026358Y+035018
X+025993Y+035319
X+025883Y+034985
X+025594Y+035145
X+025477Y+035858
X+025783Y+035987
X+026356Y+035880
X+026622Y+035681
X+030185Y+035858
X+030492Y+035987
X+031065Y+035880
X+031330Y+035681
X+031446Y+035012
X+031066Y+035018
X+030701Y+035319
X+030592Y+034985
X+030303Y+035145
X+030592Y+039773
X+030303Y+039932
X+030701Y+040106
X+031066Y+039805
X+031446Y+039799
X+031330Y+040469
X+031065Y+040667
X+030492Y+040775
X+030185Y+040645
X+026737Y+039799
X+026358Y+039805
X+025993Y+040106
X+025883Y+039773
X+025594Y+039932
X+025477Y+040645
X+025783Y+040775
X+026356Y+040667
X+026622Y+040469
X+022029Y+039799
X+021649Y+039805
X+021284Y+040106
X+021175Y+039773
X+020885Y+039932
X+020768Y+040645
X+021075Y+040775
X+021648Y+040667
X+021913Y+040469
X+021075Y+035987
X+020768Y+035858
X+020885Y+035145
X+021175Y+034985
X+021284Y+035319
X+021649Y+035018
X+022029Y+035012
X+021913Y+035681
X+021648Y+035880
X+017320Y+039799
X+016940Y+039805
X+016575Y+040106
X+016466Y+039773
X+016177Y+039932
X+016059Y+040645
X+016366Y+040775
X+016939Y+040667
X+017204Y+040469
X+034894Y+040645
X+035201Y+040775
X+035774Y+040667
X+036039Y+040469
X+036155Y+039799
X+035775Y+039805
X+035410Y+040106
X+035301Y+039773
X+035011Y+039932
X+035201Y+035987
X+034894Y+035858
X+035011Y+035145
X+035301Y+034985
X+035410Y+035319
X+035775Y+035018
X+036155Y+035012
X+036039Y+035681
X+035774Y+035880
X+039603Y+035858
X+039909Y+035987
X+040482Y+035880
X+040748Y+035681
X+040863Y+035012
X+040484Y+035018
X+040119Y+035319
X+040009Y+034985
X+039720Y+035145
X+039909Y+031200
X+039603Y+031070
X+039720Y+030357
X+040009Y+030198
X+040119Y+030531
X+040484Y+030230
X+040863Y+030224
X+040748Y+030894
X+040482Y+031092
X+036155Y+030224
X+035775Y+030230
X+035410Y+030531
X+035301Y+030198
X+035011Y+030357
X+034894Y+031070
X+035201Y+031200
X+035774Y+031092
X+036039Y+030894
X+035201Y+026413
X+034894Y+026283
X+035011Y+025570
X+035301Y+025410
X+035410Y+025744
X+035775Y+025443
X+036155Y+025437
X+036039Y+026106
X+035774Y+026305
X+039603Y+026283
X+039909Y+026413
X+040482Y+026305
X+040748Y+026106
X+040863Y+025437
X+040484Y+025443
X+040119Y+025744
X+040009Y+025410
X+039720Y+025570
X+039909Y+021625
X+039603Y+021496
X+039720Y+020782
X+040009Y+020623
X+040119Y+020956
X+040484Y+020655
X+040863Y+020649
X+040748Y+021319
X+040482Y+021517
X+036155Y+020649
X+035775Y+020655
X+035410Y+020956
X+035301Y+020623
X+035011Y+020782
X+034894Y+021496
X+035201Y+021625
X+035774Y+021517
X+036039Y+021319
X+039603Y+016708
X+039909Y+016838
X+040482Y+016730
X+040748Y+016532
X+040863Y+015862
X+040484Y+015868
X+040119Y+016169
X+040009Y+015836
X+039720Y+015995
X+040009Y+039773
X+039720Y+039932
X+040119Y+040106
X+040484Y+039805
X+040863Y+039799
X+040748Y+040469
X+040482Y+040667
X+039909Y+040775
X+039603Y+040645
T02
X+008218Y+004756
X+008505Y+005039
X+008789Y+005331
X+009081Y+005612
X+009861Y+005629
X+010142Y+005337
X+010434Y+005052
X+010717Y+004765
X+012926Y+004756
X+013213Y+005039
X+013498Y+005331
X+013790Y+005612
X+014570Y+005629
X+014851Y+005337
X+015143Y+005052
X+015425Y+004765
X+017635Y+004756
X+017922Y+005039
X+018207Y+005331
X+018498Y+005612
X+019279Y+005629
X+019560Y+005337
X+019852Y+005052
X+020134Y+004765
X+022344Y+004756
X+022631Y+005039
X+022915Y+005331
X+023207Y+005612
X+023987Y+005629
X+024268Y+005337
X+024560Y+005052
X+024843Y+004765
X+027052Y+004756
X+027339Y+005039
X+027624Y+005331
X+027916Y+005612
X+028696Y+005629
X+028977Y+005337
X+029269Y+005052
X+029551Y+004765
X+031761Y+004756
X+032048Y+005039
X+032332Y+005331
X+032624Y+005612
X+033405Y+005629
X+033686Y+005337
X+033978Y+005052
X+034260Y+004765
X+036470Y+004756
X+036757Y+005039
X+037041Y+005331
X+037333Y+005612
X+038113Y+005629
X+038394Y+005337
X+038686Y+005052
X+038969Y+004765
X+041178Y+004756
X+041465Y+005039
X+041750Y+005331
X+042042Y+005612
X+042040Y+007830
X+041758Y+008117
X+041466Y+008402
X+041185Y+008693
X+041178Y+009544
X+041465Y+009826
X+041750Y+010118
X+042042Y+010399
X+042040Y+012617
X+041758Y+012904
X+041466Y+013189
X+041185Y+013481
X+041178Y+014331
X+041465Y+014614
X+041750Y+014905
X+042042Y+015186
X+042040Y+017405
X+041758Y+017692
X+041466Y+017976
X+041185Y+018268
X+041178Y+019118
X+041465Y+019401
X+041750Y+019693
X+042042Y+019974
X+042040Y+022192
X+041758Y+022479
X+041466Y+022764
X+041185Y+023056
X+041178Y+023906
X+041465Y+024188
X+041750Y+024480
X+042042Y+024761
X+042040Y+026980
X+041758Y+027267
X+041466Y+027551
X+041185Y+027843
X+041178Y+028693
X+041465Y+028976
X+041750Y+029268
X+042042Y+029549
X+042040Y+031767
X+041758Y+032054
X+041466Y+032339
X+041185Y+032630
X+041178Y+033481
X+041465Y+033763
X+041750Y+034055
X+042042Y+034336
X+042040Y+036554
X+041758Y+036841
X+041466Y+037126
X+041185Y+037418
X+041178Y+038268
X+041465Y+038551
X+041750Y+038842
X+042042Y+039123
X+042040Y+041342
X+041758Y+041629
X+041466Y+041913
X+041185Y+042205
X+038979Y+042205
X+038688Y+041924
X+038403Y+041632
X+038116Y+041349
X+037331Y+041342
X+037049Y+041629
X+036757Y+041913
X+036476Y+042205
X+034271Y+042205
X+033979Y+041924
X+033694Y+041632
X+033407Y+041349
X+032623Y+041342
X+032340Y+041629
X+032048Y+041913
X+031767Y+042205
X+029562Y+042205
X+029270Y+041924
X+028986Y+041632
X+028699Y+041349
X+027914Y+041342
X+027632Y+041629
X+027340Y+041913
X+027059Y+042205
X+024853Y+042205
X+024562Y+041924
X+024277Y+041632
X+023990Y+041349
X+023205Y+041342
X+022923Y+041629
X+022631Y+041913
X+022350Y+042205
X+020145Y+042205
X+019853Y+041924
X+019568Y+041632
X+019281Y+041349
X+018497Y+041342
X+018214Y+041629
X+017922Y+041913
X+017641Y+042205
X+015436Y+042205
X+015144Y+041924
X+014860Y+041632
X+014573Y+041349
X+013788Y+041342
X+013506Y+041629
X+013214Y+041913
X+012933Y+042205
X+010727Y+042205
X+010436Y+041924
X+010151Y+041632
X+009864Y+041349
X+009079Y+041342
X+008797Y+041629
X+008505Y+041913
X+008224Y+042205
X+006019Y+042205
X+005727Y+041924
X+005442Y+041632
X+005155Y+041349
X+005153Y+039140
X+005434Y+038849
X+005726Y+038564
X+006008Y+038277
X+006019Y+037417
X+005727Y+037136
X+005442Y+036845
X+005155Y+036562
X+005153Y+034353
X+005434Y+034061
X+005726Y+033777
X+006008Y+033490
X+006019Y+032630
X+005727Y+032349
X+005442Y+032057
X+005155Y+031775
X+005153Y+029566
X+005434Y+029274
X+005726Y+028989
X+006008Y+028702
X+006019Y+027843
X+005727Y+027562
X+005442Y+027270
X+005155Y+026987
X+005153Y+024778
X+005434Y+024486
X+005726Y+024202
X+006008Y+023915
X+006019Y+023055
X+005727Y+022774
X+005442Y+022482
X+005155Y+022200
X+005153Y+019991
X+005434Y+019699
X+005726Y+019414
X+006008Y+019127
X+006019Y+018268
X+005727Y+017987
X+005442Y+017695
X+005155Y+017412
X+005153Y+015203
X+005434Y+014912
X+005726Y+014627
X+006008Y+014340
X+006019Y+013480
X+005727Y+013199
X+005442Y+012908
X+005155Y+012625
X+005153Y+010416
X+005434Y+010124
X+005726Y+009840
X+006008Y+009553
X+006019Y+008693
X+005727Y+008412
X+005442Y+008120
X+005155Y+007838
X+005153Y+005629
X+005434Y+005337
X+005726Y+005052
X+006008Y+004765
X+009079Y+007830
X+008797Y+008117
X+008505Y+008402
X+008224Y+008693
X+008218Y+009544
X+008505Y+009826
X+008789Y+010118
X+009081Y+010399
X+009861Y+010416
X+010142Y+010124
X+010434Y+009840
X+010717Y+009553
X+010727Y+008693
X+010436Y+008412
X+010151Y+008120
X+009864Y+007838
X+012933Y+008693
X+013214Y+008402
X+013506Y+008117
X+013788Y+007830
X+014573Y+007838
X+014860Y+008120
X+015144Y+008412
X+015436Y+008693
X+015425Y+009553
X+015143Y+009840
X+014851Y+010124
X+014570Y+010416
X+013790Y+010399
X+013498Y+010118
X+013213Y+009826
X+012926Y+009544
X+013788Y+012617
X+013506Y+012904
X+013214Y+013189
X+012933Y+013481
X+012926Y+014331
X+013213Y+014614
X+013498Y+014905
X+013790Y+015186
X+014570Y+015203
X+014851Y+014912
X+015143Y+014627
X+015425Y+014340
X+015436Y+013480
X+015144Y+013199
X+014860Y+012908
X+014573Y+012625
X+017641Y+013481
X+017922Y+013189
X+018214Y+012904
X+018497Y+012617
X+019281Y+012625
X+019568Y+012908
X+019853Y+013199
X+020145Y+013480
X+020134Y+014340
X+019852Y+014627
X+019560Y+014912
X+019279Y+015203
X+018498Y+015186
X+018207Y+014905
X+017922Y+014614
X+017635Y+014331
X+018497Y+017405
X+018214Y+017692
X+017922Y+017976
X+017641Y+018268
X+017635Y+019118
X+017922Y+019401
X+018207Y+019693
X+018498Y+019974
X+019279Y+019991
X+019560Y+019699
X+019852Y+019414
X+020134Y+019127
X+020145Y+018268
X+019853Y+017987
X+019568Y+017695
X+019281Y+017412
X+022350Y+018268
X+022631Y+017976
X+022923Y+017692
X+023205Y+017405
X+023990Y+017412
X+024277Y+017695
X+024562Y+017987
X+024853Y+018268
X+024843Y+019127
X+024560Y+019414
X+024268Y+019699
X+023987Y+019991
X+023207Y+019974
X+022915Y+019693
X+022631Y+019401
X+022344Y+019118
X+023205Y+022192
X+022923Y+022479
X+022631Y+022764
X+022350Y+023056
X+022344Y+023906
X+022631Y+024188
X+022915Y+024480
X+023207Y+024761
X+023987Y+024778
X+024268Y+024486
X+024560Y+024202
X+024843Y+023915
X+024853Y+023055
X+024562Y+022774
X+024277Y+022482
X+023990Y+022200
X+027059Y+023056
X+027340Y+022764
X+027632Y+022479
X+027914Y+022192
X+028699Y+022200
X+028986Y+022482
X+029270Y+022774
X+029562Y+023055
X+029551Y+023915
X+029269Y+024202
X+028977Y+024486
X+028696Y+024778
X+027916Y+024761
X+027624Y+024480
X+027339Y+024188
X+027052Y+023906
X+027914Y+026980
X+027632Y+027267
X+027340Y+027551
X+027059Y+027843
X+027052Y+028693
X+027339Y+028976
X+027624Y+029268
X+027916Y+029549
X+028696Y+029566
X+028977Y+029274
X+029269Y+028989
X+029551Y+028702
X+029562Y+027843
X+029270Y+027562
X+028986Y+027270
X+028699Y+026987
X+031767Y+027843
X+032048Y+027551
X+032340Y+027267
X+032623Y+026980
X+033407Y+026987
X+033694Y+027270
X+033979Y+027562
X+034271Y+027843
X+034260Y+028702
X+033978Y+028989
X+033686Y+029274
X+033405Y+029566
X+032624Y+029549
X+032332Y+029268
X+032048Y+028976
X+031761Y+028693
X+032623Y+031767
X+032340Y+032054
X+032048Y+032339
X+031767Y+032630
X+031761Y+033481
X+032048Y+033763
X+032332Y+034055
X+032624Y+034336
X+033405Y+034353
X+033686Y+034061
X+033978Y+033777
X+034260Y+033490
X+034271Y+032630
X+033979Y+032349
X+033694Y+032057
X+033407Y+031775
X+036476Y+032630
X+036757Y+032339
X+037049Y+032054
X+037331Y+031767
X+038116Y+031775
X+038403Y+032057
X+038688Y+032349
X+038979Y+032630
X+038969Y+033490
X+038686Y+033777
X+038394Y+034061
X+038113Y+034353
X+037333Y+034336
X+037041Y+034055
X+036757Y+033763
X+036470Y+033481
X+037331Y+036554
X+037049Y+036841
X+036757Y+037126
X+036476Y+037418
X+036470Y+038268
X+036757Y+038551
X+037041Y+038842
X+037333Y+039123
X+038113Y+039140
X+038394Y+038849
X+038686Y+038564
X+038969Y+038277
X+038979Y+037417
X+038688Y+037136
X+038403Y+036845
X+038116Y+036562
X+034271Y+037417
X+033979Y+037136
X+033694Y+036845
X+033407Y+036562
X+032623Y+036554
X+032340Y+036841
X+032048Y+037126
X+031767Y+037418
X+031761Y+038268
X+032048Y+038551
X+032332Y+038842
X+032624Y+039123
X+033405Y+039140
X+033686Y+038849
X+033978Y+038564
X+034260Y+038277
X+029551Y+038277
X+029269Y+038564
X+028977Y+038849
X+028696Y+039140
X+027916Y+039123
X+027624Y+038842
X+027339Y+038551
X+027052Y+038268
X+027059Y+037418
X+027340Y+037126
X+027632Y+036841
X+027914Y+036554
X+028699Y+036562
X+028986Y+036845
X+029270Y+037136
X+029562Y+037417
X+028696Y+034353
X+028977Y+034061
X+029269Y+033777
X+029551Y+033490
X+029562Y+032630
X+029270Y+032349
X+028986Y+032057
X+028699Y+031775
X+027914Y+031767
X+027632Y+032054
X+027340Y+032339
X+027059Y+032630
X+027052Y+033481
X+027339Y+033763
X+027624Y+034055
X+027916Y+034336
X+024843Y+033490
X+024560Y+033777
X+024268Y+034061
X+023987Y+034353
X+023207Y+034336
X+022915Y+034055
X+022631Y+033763
X+022344Y+033481
X+022350Y+032630
X+022631Y+032339
X+022923Y+032054
X+023205Y+031767
X+023990Y+031775
X+024277Y+032057
X+024562Y+032349
X+024853Y+032630
X+023987Y+029566
X+024268Y+029274
X+024560Y+028989
X+024843Y+028702
X+024853Y+027843
X+024562Y+027562
X+024277Y+027270
X+023990Y+026987
X+023205Y+026980
X+022923Y+027267
X+022631Y+027551
X+022350Y+027843
X+022344Y+028693
X+022631Y+028976
X+022915Y+029268
X+023207Y+029549
X+020134Y+028702
X+019852Y+028989
X+019560Y+029274
X+019279Y+029566
X+018498Y+029549
X+018207Y+029268
X+017922Y+028976
X+017635Y+028693
X+017641Y+027843
X+017922Y+027551
X+018214Y+027267
X+018497Y+026980
X+019281Y+026987
X+019568Y+027270
X+019853Y+027562
X+020145Y+027843
X+019279Y+024778
X+019560Y+024486
X+019852Y+024202
X+020134Y+023915
X+020145Y+023055
X+019853Y+022774
X+019568Y+022482
X+019281Y+022200
X+018497Y+022192
X+018214Y+022479
X+017922Y+022764
X+017641Y+023056
X+017635Y+023906
X+017922Y+024188
X+018207Y+024480
X+018498Y+024761
X+015425Y+023915
X+015143Y+024202
X+014851Y+024486
X+014570Y+024778
X+013790Y+024761
X+013498Y+024480
X+013213Y+024188
X+012926Y+023906
X+012933Y+023056
X+013214Y+022764
X+013506Y+022479
X+013788Y+022192
X+014573Y+022200
X+014860Y+022482
X+015144Y+022774
X+015436Y+023055
X+014570Y+019991
X+014851Y+019699
X+015143Y+019414
X+015425Y+019127
X+015436Y+018268
X+015144Y+017987
X+014860Y+017695
X+014573Y+017412
X+013788Y+017405
X+013506Y+017692
X+013214Y+017976
X+012933Y+018268
X+012926Y+019118
X+013213Y+019401
X+013498Y+019693
X+013790Y+019974
X+010717Y+019127
X+010434Y+019414
X+010142Y+019699
X+009861Y+019991
X+009081Y+019974
X+008789Y+019693
X+008505Y+019401
X+008218Y+019118
X+008224Y+018268
X+008505Y+017976
X+008797Y+017692
X+009079Y+017405
X+009864Y+017412
X+010151Y+017695
X+010436Y+017987
X+010727Y+018268
X+009861Y+015203
X+010142Y+014912
X+010434Y+014627
X+010717Y+014340
X+010727Y+013480
X+010436Y+013199
X+010151Y+012908
X+009864Y+012625
X+009079Y+012617
X+008797Y+012904
X+008505Y+013189
X+008224Y+013481
X+008218Y+014331
X+008505Y+014614
X+008789Y+014905
X+009081Y+015186
X+009079Y+022192
X+008797Y+022479
X+008505Y+022764
X+008224Y+023056
X+008218Y+023906
X+008505Y+024188
X+008789Y+024480
X+009081Y+024761
X+009861Y+024778
X+010142Y+024486
X+010434Y+024202
X+010717Y+023915
X+010727Y+023055
X+010436Y+022774
X+010151Y+022482
X+009864Y+022200
X+009864Y+026987
X+010151Y+027270
X+010436Y+027562
X+010727Y+027843
X+010717Y+028702
X+010434Y+028989
X+010142Y+029274
X+009861Y+029566
X+009081Y+029549
X+008789Y+029268
X+008505Y+028976
X+008218Y+028693
X+008224Y+027843
X+008505Y+027551
X+008797Y+027267
X+009079Y+026980
X+012933Y+027843
X+013214Y+027551
X+013506Y+027267
X+013788Y+026980
X+014573Y+026987
X+014860Y+027270
X+015144Y+027562
X+015436Y+027843
X+015425Y+028702
X+015143Y+028989
X+014851Y+029274
X+014570Y+029566
X+013790Y+029549
X+013498Y+029268
X+013213Y+028976
X+012926Y+028693
X+013788Y+031767
X+013506Y+032054
X+013214Y+032339
X+012933Y+032630
X+012926Y+033481
X+013213Y+033763
X+013498Y+034055
X+013790Y+034336
X+014570Y+034353
X+014851Y+034061
X+015143Y+033777
X+015425Y+033490
X+015436Y+032630
X+015144Y+032349
X+014860Y+032057
X+014573Y+031775
X+017641Y+032630
X+017922Y+032339
X+018214Y+032054
X+018497Y+031767
X+019281Y+031775
X+019568Y+032057
X+019853Y+032349
X+020145Y+032630
X+020134Y+033490
X+019852Y+033777
X+019560Y+034061
X+019279Y+034353
X+018498Y+034336
X+018207Y+034055
X+017922Y+033763
X+017635Y+033481
X+018497Y+036554
X+018214Y+036841
X+017922Y+037126
X+017641Y+037418
X+017635Y+038268
X+017922Y+038551
X+018207Y+038842
X+018498Y+039123
X+019279Y+039140
X+019560Y+038849
X+019852Y+038564
X+020134Y+038277
X+020145Y+037417
X+019853Y+037136
X+019568Y+036845
X+019281Y+036562
X+022350Y+037418
X+022631Y+037126
X+022923Y+036841
X+023205Y+036554
X+023990Y+036562
X+024277Y+036845
X+024562Y+037136
X+024853Y+037417
X+024843Y+038277
X+024560Y+038564
X+024268Y+038849
X+023987Y+039140
X+023207Y+039123
X+022915Y+038842
X+022631Y+038551
X+022344Y+038268
X+015425Y+038277
X+015143Y+038564
X+014851Y+038849
X+014570Y+039140
X+013790Y+039123
X+013498Y+038842
X+013213Y+038551
X+012926Y+038268
X+012933Y+037418
X+013214Y+037126
X+013506Y+036841
X+013788Y+036554
X+014573Y+036562
X+014860Y+036845
X+015144Y+037136
X+015436Y+037417
X+010727Y+037417
X+010436Y+037136
X+010151Y+036845
X+009864Y+036562
X+009079Y+036554
X+008797Y+036841
X+008505Y+037126
X+008224Y+037418
X+008218Y+038268
X+008505Y+038551
X+008789Y+038842
X+009081Y+039123
X+009861Y+039140
X+010142Y+038849
X+010434Y+038564
X+010717Y+038277
X+009861Y+034353
X+010142Y+034061
X+010434Y+033777
X+010717Y+033490
X+010727Y+032630
X+010436Y+032349
X+010151Y+032057
X+009864Y+031775
X+009079Y+031767
X+008797Y+032054
X+008505Y+032339
X+008224Y+032630
X+008218Y+033481
X+008505Y+033763
X+008789Y+034055
X+009081Y+034336
X+027052Y+019118
X+027339Y+019401
X+027624Y+019693
X+027916Y+019974
X+028696Y+019991
X+028977Y+019699
X+029269Y+019414
X+029551Y+019127
X+029562Y+018268
X+029270Y+017987
X+028986Y+017695
X+028699Y+017412
X+027914Y+017405
X+027632Y+017692
X+027340Y+017976
X+027059Y+018268
X+027916Y+015186
X+027624Y+014905
X+027339Y+014614
X+027052Y+014331
X+027059Y+013481
X+027340Y+013189
X+027632Y+012904
X+027914Y+012617
X+028699Y+012625
X+028986Y+012908
X+029270Y+013199
X+029562Y+013480
X+029551Y+014340
X+029269Y+014627
X+028977Y+014912
X+028696Y+015203
X+031761Y+014331
X+032048Y+014614
X+032332Y+014905
X+032624Y+015186
X+033405Y+015203
X+033686Y+014912
X+033978Y+014627
X+034260Y+014340
X+034271Y+013480
X+033979Y+013199
X+033694Y+012908
X+033407Y+012625
X+032623Y+012617
X+032340Y+012904
X+032048Y+013189
X+031767Y+013481
X+032624Y+010399
X+032332Y+010118
X+032048Y+009826
X+031761Y+009544
X+031767Y+008693
X+032048Y+008402
X+032340Y+008117
X+032623Y+007830
X+033407Y+007838
X+033694Y+008120
X+033979Y+008412
X+034271Y+008693
X+034260Y+009553
X+033978Y+009840
X+033686Y+010124
X+033405Y+010416
X+036470Y+009544
X+036757Y+009826
X+037041Y+010118
X+037333Y+010399
X+038113Y+010416
X+038394Y+010124
X+038686Y+009840
X+038969Y+009553
X+038979Y+008693
X+038688Y+008412
X+038403Y+008120
X+038116Y+007838
X+037331Y+007830
X+037049Y+008117
X+036757Y+008402
X+036476Y+008693
X+037331Y+012617
X+037049Y+012904
X+036757Y+013189
X+036476Y+013481
X+036470Y+014331
X+036757Y+014614
X+037041Y+014905
X+037333Y+015186
X+038113Y+015203
X+038394Y+014912
X+038686Y+014627
X+038969Y+014340
X+038979Y+013480
X+038688Y+013199
X+038403Y+012908
X+038116Y+012625
X+038116Y+017412
X+038403Y+017695
X+038688Y+017987
X+038979Y+018268
X+038969Y+019127
X+038686Y+019414
X+038394Y+019699
X+038113Y+019991
X+037333Y+019974
X+037041Y+019693
X+036757Y+019401
X+036470Y+019118
X+036476Y+018268
X+036757Y+017976
X+037049Y+017692
X+037331Y+017405
X+034271Y+018268
X+033979Y+017987
X+033694Y+017695
X+033407Y+017412
X+032623Y+017405
X+032340Y+017692
X+032048Y+017976
X+031767Y+018268
X+031761Y+019118
X+032048Y+019401
X+032332Y+019693
X+032624Y+019974
X+033405Y+019991
X+033686Y+019699
X+033978Y+019414
X+034260Y+019127
X+033407Y+022200
X+033694Y+022482
X+033979Y+022774
X+034271Y+023055
X+034260Y+023915
X+033978Y+024202
X+033686Y+024486
X+033405Y+024778
X+032624Y+024761
X+032332Y+024480
X+032048Y+024188
X+031761Y+023906
X+031767Y+023056
X+032048Y+022764
X+032340Y+022479
X+032623Y+022192
X+036476Y+023056
X+036757Y+022764
X+037049Y+022479
X+037331Y+022192
X+038116Y+022200
X+038403Y+022482
X+038688Y+022774
X+038979Y+023055
X+038969Y+023915
X+038686Y+024202
X+038394Y+024486
X+038113Y+024778
X+037333Y+024761
X+037041Y+024480
X+036757Y+024188
X+036470Y+023906
X+037331Y+026980
X+037049Y+027267
X+036757Y+027551
X+036476Y+027843
X+036470Y+028693
X+036757Y+028976
X+037041Y+029268
X+037333Y+029549
X+038113Y+029566
X+038394Y+029274
X+038686Y+028989
X+038969Y+028702
X+038979Y+027843
X+038688Y+027562
X+038403Y+027270
X+038116Y+026987
X+024843Y+014340
X+024560Y+014627
X+024268Y+014912
X+023987Y+015203
X+023207Y+015186
X+022915Y+014905
X+022631Y+014614
X+022344Y+014331
X+022350Y+013481
X+022631Y+013189
X+022923Y+012904
X+023205Y+012617
X+023990Y+012625
X+024277Y+012908
X+024562Y+013199
X+024853Y+013480
X+023987Y+010416
X+024268Y+010124
X+024560Y+009840
X+024843Y+009553
X+024853Y+008693
X+024562Y+008412
X+024277Y+008120
X+023990Y+007838
X+023205Y+007830
X+022923Y+008117
X+022631Y+008402
X+022350Y+008693
X+022344Y+009544
X+022631Y+009826
X+022915Y+010118
X+023207Y+010399
X+020134Y+009553
X+019852Y+009840
X+019560Y+010124
X+019279Y+010416
X+018498Y+010399
X+018207Y+010118
X+017922Y+009826
X+017635Y+009544
X+017641Y+008693
X+017922Y+008402
X+018214Y+008117
X+018497Y+007830
X+019281Y+007838
X+019568Y+008120
X+019853Y+008412
X+020145Y+008693
X+027059Y+008693
X+027340Y+008402
X+027632Y+008117
X+027914Y+007830
X+028699Y+007838
X+028986Y+008120
X+029270Y+008412
X+029562Y+008693
X+029551Y+009553
X+029269Y+009840
X+028977Y+010124
X+028696Y+010416
X+027916Y+010399
X+027624Y+010118
X+027339Y+009826
X+027052Y+009544
T03
X+008618Y+006224
X+008618Y+007224
X+007618Y+008224
X+006618Y+008224
X+005618Y+007224
X+005618Y+006224
X+006618Y+005224
X+007618Y+005224
X+010327Y+006224
X+010327Y+007224
X+011327Y+008224
X+012327Y+008224
X+013327Y+007224
X+013327Y+006224
X+012327Y+005224
X+011327Y+005224
X+015035Y+006224
X+015035Y+007224
X+016035Y+008224
X+017035Y+008224
X+018035Y+007224
X+018035Y+006224
X+017035Y+005224
X+016035Y+005224
X+019744Y+006224
X+019744Y+007224
X+020744Y+008224
X+021744Y+008224
X+022744Y+007224
X+022744Y+006224
X+021744Y+005224
X+020744Y+005224
X+024453Y+006224
X+024453Y+007224
X+025453Y+008224
X+026453Y+008224
X+027453Y+007224
X+027453Y+006224
X+026453Y+005224
X+025453Y+005224
X+029161Y+006224
X+029161Y+007224
X+030161Y+008224
X+031161Y+008224
X+032161Y+007224
X+032161Y+006224
X+031161Y+005224
X+030161Y+005224
X+033870Y+006224
X+033870Y+007224
X+034870Y+008224
X+035870Y+008224
X+036870Y+007224
X+036870Y+006224
X+035870Y+005224
X+034870Y+005224
X+038579Y+006224
X+038579Y+007224
X+039579Y+008224
X+040579Y+008224
X+041579Y+007224
X+041579Y+006224
X+040579Y+005224
X+039579Y+005224
X+039579Y+010012
X+040579Y+010012
X+041579Y+011012
X+041579Y+012012
X+040579Y+013012
X+039579Y+013012
X+038579Y+012012
X+038579Y+011012
X+036870Y+011012
X+036870Y+012012
X+035870Y+013012
X+034870Y+013012
X+033870Y+012012
X+033870Y+011012
X+034870Y+010012
X+035870Y+010012
X+032161Y+011012
X+032161Y+012012
X+031161Y+013012
X+030161Y+013012
X+029161Y+012012
X+029161Y+011012
X+030161Y+010012
X+031161Y+010012
X+027453Y+011012
X+027453Y+012012
X+026453Y+013012
X+025453Y+013012
X+024453Y+012012
X+024453Y+011012
X+025453Y+010012
X+026453Y+010012
X+022744Y+011012
X+022744Y+012012
X+021744Y+013012
X+020744Y+013012
X+019744Y+012012
X+019744Y+011012
X+020744Y+010012
X+021744Y+010012
X+018035Y+011012
X+018035Y+012012
X+017035Y+013012
X+016035Y+013012
X+015035Y+012012
X+015035Y+011012
X+016035Y+010012
X+017035Y+010012
X+013327Y+011012
X+013327Y+012012
X+012327Y+013012
X+011327Y+013012
X+010327Y+012012
X+010327Y+011012
X+011327Y+010012
X+012327Y+010012
X+008618Y+011012
X+008618Y+012012
X+007618Y+013012
X+006618Y+013012
X+005618Y+012012
X+005618Y+011012
X+006618Y+010012
X+007618Y+010012
X+007618Y+014799
X+006618Y+014799
X+005618Y+015799
X+005618Y+016799
X+006618Y+017799
X+007618Y+017799
X+008618Y+016799
X+008618Y+015799
X+010327Y+015799
X+010327Y+016799
X+011327Y+017799
X+012327Y+017799
X+013327Y+016799
X+013327Y+015799
X+012327Y+014799
X+011327Y+014799
X+015035Y+015799
X+015035Y+016799
X+016035Y+017799
X+017035Y+017799
X+018035Y+016799
X+018035Y+015799
X+017035Y+014799
X+016035Y+014799
X+019744Y+015799
X+019744Y+016799
X+020744Y+017799
X+021744Y+017799
X+022744Y+016799
X+022744Y+015799
X+021744Y+014799
X+020744Y+014799
X+024453Y+015799
X+024453Y+016799
X+025453Y+017799
X+026453Y+017799
X+027453Y+016799
X+027453Y+015799
X+026453Y+014799
X+025453Y+014799
X+029161Y+015799
X+029161Y+016799
X+030161Y+017799
X+031161Y+017799
X+032161Y+016799
X+032161Y+015799
X+031161Y+014799
X+030161Y+014799
X+033870Y+015799
X+033870Y+016799
X+034870Y+017799
X+035870Y+017799
X+036870Y+016799
X+036870Y+015799
X+035870Y+014799
X+034870Y+014799
X+038579Y+015799
X+038579Y+016799
X+039579Y+017799
X+040579Y+017799
X+041579Y+016799
X+041579Y+015799
X+040579Y+014799
X+039579Y+014799
X+039579Y+019587
X+040579Y+019587
X+041579Y+020587
X+041579Y+021587
X+040579Y+022587
X+039579Y+022587
X+038579Y+021587
X+038579Y+020587
X+036870Y+020587
X+036870Y+021587
X+035870Y+022587
X+034870Y+022587
X+033870Y+021587
X+033870Y+020587
X+034870Y+019587
X+035870Y+019587
X+032161Y+020587
X+032161Y+021587
X+031161Y+022587
X+030161Y+022587
X+029161Y+021587
X+029161Y+020587
X+030161Y+019587
X+031161Y+019587
X+027453Y+020587
X+027453Y+021587
X+026453Y+022587
X+025453Y+022587
X+024453Y+021587
X+024453Y+020587
X+025453Y+019587
X+026453Y+019587
X+022744Y+020587
X+022744Y+021587
X+021744Y+022587
X+020744Y+022587
X+019744Y+021587
X+019744Y+020587
X+020744Y+019587
X+021744Y+019587
X+018035Y+020587
X+018035Y+021587
X+017035Y+022587
X+016035Y+022587
X+015035Y+021587
X+015035Y+020587
X+016035Y+019587
X+017035Y+019587
X+013327Y+020587
X+013327Y+021587
X+012327Y+022587
X+011327Y+022587
X+010327Y+021587
X+010327Y+020587
X+011327Y+019587
X+012327Y+019587
X+008618Y+020587
X+008618Y+021587
X+007618Y+022587
X+006618Y+022587
X+005618Y+021587
X+005618Y+020587
X+006618Y+019587
X+007618Y+019587
X+007618Y+024374
X+006618Y+024374
X+005618Y+025374
X+005618Y+026374
X+006618Y+027374
X+007618Y+027374
X+008618Y+026374
X+008618Y+025374
X+010327Y+025374
X+010327Y+026374
X+011327Y+027374
X+012327Y+027374
X+013327Y+026374
X+013327Y+025374
X+012327Y+024374
X+011327Y+024374
X+015035Y+025374
X+015035Y+026374
X+016035Y+027374
X+017035Y+027374
X+018035Y+026374
X+018035Y+025374
X+017035Y+024374
X+016035Y+024374
X+019744Y+025374
X+019744Y+026374
X+020744Y+027374
X+021744Y+027374
X+022744Y+026374
X+022744Y+025374
X+021744Y+024374
X+020744Y+024374
X+024453Y+025374
X+024453Y+026374
X+025453Y+027374
X+026453Y+027374
X+027453Y+026374
X+027453Y+025374
X+026453Y+024374
X+025453Y+024374
X+029161Y+025374
X+029161Y+026374
X+030161Y+027374
X+031161Y+027374
X+032161Y+026374
X+032161Y+025374
X+031161Y+024374
X+030161Y+024374
X+033870Y+025374
X+033870Y+026374
X+034870Y+027374
X+035870Y+027374
X+036870Y+026374
X+036870Y+025374
X+035870Y+024374
X+034870Y+024374
X+038579Y+025374
X+038579Y+026374
X+039579Y+027374
X+040579Y+027374
X+041579Y+026374
X+041579Y+025374
X+040579Y+024374
X+039579Y+024374
X+039579Y+029161
X+040579Y+029161
X+041579Y+030161
X+041579Y+031161
X+040579Y+032161
X+039579Y+032161
X+038579Y+031161
X+038579Y+030161
X+036870Y+030161
X+036870Y+031161
X+035870Y+032161
X+034870Y+032161
X+033870Y+031161
X+033870Y+030161
X+034870Y+029161
X+035870Y+029161
X+032161Y+030161
X+032161Y+031161
X+031161Y+032161
X+030161Y+032161
X+029161Y+031161
X+029161Y+030161
X+030161Y+029161
X+031161Y+029161
X+027453Y+030161
X+027453Y+031161
X+026453Y+032161
X+025453Y+032161
X+024453Y+031161
X+024453Y+030161
X+025453Y+029161
X+026453Y+029161
X+022744Y+030161
X+022744Y+031161
X+021744Y+032161
X+020744Y+032161
X+019744Y+031161
X+019744Y+030161
X+020744Y+029161
X+021744Y+029161
X+018035Y+030161
X+018035Y+031161
X+017035Y+032161
X+016035Y+032161
X+015035Y+031161
X+015035Y+030161
X+016035Y+029161
X+017035Y+029161
X+013327Y+030161
X+013327Y+031161
X+012327Y+032161
X+011327Y+032161
X+010327Y+031161
X+010327Y+030161
X+011327Y+029161
X+012327Y+029161
X+008618Y+030161
X+008618Y+031161
X+007618Y+032161
X+006618Y+032161
X+005618Y+031161
X+005618Y+030161
X+006618Y+029161
X+007618Y+029161
X+007618Y+033949
X+006618Y+033949
X+005618Y+034949
X+005618Y+035949
X+006618Y+036949
X+007618Y+036949
X+008618Y+035949
X+008618Y+034949
X+010327Y+034949
X+010327Y+035949
X+011327Y+036949
X+012327Y+036949
X+013327Y+035949
X+013327Y+034949
X+012327Y+033949
X+011327Y+033949
X+015035Y+034949
X+015035Y+035949
X+016035Y+036949
X+017035Y+036949
X+018035Y+035949
X+018035Y+034949
X+017035Y+033949
X+016035Y+033949
X+019744Y+034949
X+019744Y+035949
X+020744Y+036949
X+021744Y+036949
X+022744Y+035949
X+022744Y+034949
X+021744Y+033949
X+020744Y+033949
X+024453Y+034949
X+024453Y+035949
X+025453Y+036949
X+026453Y+036949
X+027453Y+035949
X+027453Y+034949
X+026453Y+033949
X+025453Y+033949
X+029161Y+034949
X+029161Y+035949
X+030161Y+036949
X+031161Y+036949
X+032161Y+035949
X+032161Y+034949
X+031161Y+033949
X+030161Y+033949
X+033870Y+034949
X+033870Y+035949
X+034870Y+036949
X+035870Y+036949
X+036870Y+035949
X+036870Y+034949
X+035870Y+033949
X+034870Y+033949
X+038579Y+034949
X+038579Y+035949
X+039579Y+036949
X+040579Y+036949
X+041579Y+035949
X+041579Y+034949
X+040579Y+033949
X+039579Y+033949
X+039579Y+038736
X+040579Y+038736
X+041579Y+039736
X+041579Y+040736
X+040579Y+041736
X+039579Y+041736
X+038579Y+040736
X+038579Y+039736
X+036870Y+039736
X+036870Y+040736
X+035870Y+041736
X+034870Y+041736
X+033870Y+040736
X+033870Y+039736
X+034870Y+038736
X+035870Y+038736
X+032161Y+039736
X+032161Y+040736
X+031161Y+041736
X+030161Y+041736
X+029161Y+040736
X+029161Y+039736
X+030161Y+038736
X+031161Y+038736
X+027453Y+039736
X+027453Y+040736
X+026453Y+041736
X+025453Y+041736
X+024453Y+040736
X+024453Y+039736
X+025453Y+038736
X+026453Y+038736
X+022744Y+039736
X+022744Y+040736
X+021744Y+041736
X+020744Y+041736
X+019744Y+040736
X+019744Y+039736
X+020744Y+038736
X+021744Y+038736
X+018035Y+039736
X+018035Y+040736
X+017035Y+041736
X+016035Y+041736
X+015035Y+040736
X+015035Y+039736
X+016035Y+038736
X+017035Y+038736
X+013327Y+039736
X+013327Y+040736
X+012327Y+041736
X+011327Y+041736
X+010327Y+040736
X+010327Y+039736
X+011327Y+038736
X+012327Y+038736
X+008618Y+039736
X+008618Y+040736
X+007618Y+041736
X+006618Y+041736
X+005618Y+040736
X+005618Y+039736
X+006618Y+038736
X+007618Y+038736
T00
M30
