G04 DipTrace 2.4.0.2*
%IN64xAPA102Crigid.gbs*%
%MOMM*%
%ADD21O,1.185X1.23*%
%ADD31C,2.05*%
%ADD33C,1.828*%
%FSLAX53Y53*%
G04*
G71*
G90*
G75*
G01*
%LNBotMask*%
%LPD*%
G36*
X32868Y44476D2*
X33918D1*
Y49126D1*
X32868D1*
Y44476D1*
G37*
G36*
X30868D2*
X31918D1*
Y49126D1*
X30868D1*
Y44476D1*
G37*
G36*
X34968Y53726D2*
Y50276D1*
X36618D1*
Y53726D1*
X34968D1*
G37*
G36*
X28168D2*
Y50276D1*
X29818D1*
Y53726D1*
X28168D1*
G37*
D21*
X22545Y62244D3*
G36*
X22771Y61629D2*
X20771D1*
Y62859D1*
X22771D1*
Y61629D1*
G37*
D21*
X20997Y62244D3*
G36*
X20900Y61619D2*
X21669D1*
Y62869D1*
X20900D1*
X20732Y62806D1*
X20525Y62661D1*
X20420Y62452D1*
X20383Y62244D1*
X20420Y62036D1*
X20525Y61827D1*
X20732Y61681D1*
X20900Y61619D1*
G37*
G36*
X22642Y62869D2*
X21872D1*
Y61619D1*
X22642D1*
X22809Y61681D1*
X23017Y61827D1*
X23121Y62036D1*
X23158Y62244D1*
X23121Y62452D1*
X23017Y62661D1*
X22809Y62806D1*
X22642Y62869D1*
G37*
D33*
X24197Y31959D3*
Y34499D3*
Y37039D3*
Y39579D3*
X11497Y31959D3*
Y34499D3*
Y37039D3*
Y39579D3*
D31*
X82758Y16738D3*
Y19278D3*
Y14198D3*
Y21818D3*
X11258Y16738D3*
Y19278D3*
Y14198D3*
Y21818D3*
D33*
X11496Y42118D3*
X24197D3*
D21*
X21025Y59271D3*
G36*
X20799Y59886D2*
X22799D1*
Y58656D1*
X20799D1*
Y59886D1*
G37*
D21*
X22572Y59271D3*
G36*
X22670Y59896D2*
X21900D1*
Y58646D1*
X22670D1*
X22837Y58708D1*
X23044Y58854D1*
X23149Y59063D1*
X23186Y59271D1*
X23149Y59479D1*
X23044Y59687D1*
X22837Y59833D1*
X22670Y59896D1*
G37*
G36*
X20928Y58646D2*
X21697D1*
Y59896D1*
X20928D1*
X20760Y59833D1*
X20553Y59687D1*
X20448Y59479D1*
X20411Y59271D1*
X20448Y59063D1*
X20553Y58854D1*
X20760Y58708D1*
X20928Y58646D1*
G37*
M02*
