G04 DipTrace 2.4.0.2*
%IN64xAPA102Crigid.gbl*%
%MOMM*%
%ADD13C,1.27*%
%ADD15C,0.508*%
%ADD17C,2.0*%
%ADD20C,1.143*%
%FSLAX53Y53*%
G04*
G71*
G90*
G75*
G01*
%LNBottom*%
%LPD*%
X73317Y30959D2*
D13*
X68776D1*
X60465Y22647D1*
X44251D1*
X44012Y22408D1*
X28218D1*
X15605D1*
X15314Y22699D1*
X28218Y22408D2*
X28011Y22615D1*
X21860Y16697D2*
Y14197D1*
X67011Y16322D2*
Y13822D1*
X73011Y16322D2*
D15*
Y13822D1*
X70011Y16322D2*
Y13822D1*
X15860Y16697D2*
Y14197D1*
X18860Y16697D2*
Y14197D1*
X67803Y78869D2*
D13*
X52929D1*
X52767Y79031D1*
X36370D1*
X36048Y78709D1*
X20888D1*
X20221Y79375D1*
X23856Y18296D2*
Y18497D1*
X22482Y19870D1*
X16033D1*
X12860Y16697D1*
Y14197D1*
X76011Y16322D2*
Y17005D1*
X73468Y19549D1*
X71163D1*
X68237Y22474D1*
X76011Y16322D2*
Y13822D1*
D20*
X15314Y22699D3*
X44012Y22408D3*
X73317Y30959D3*
X60465Y22647D3*
X20221Y79375D3*
X36048Y78709D3*
X52767Y79031D3*
X67803Y78869D3*
X28011Y22615D3*
X23856Y18296D3*
X68237Y22474D3*
D17*
X70011Y13822D3*
Y16322D3*
X73011Y13822D3*
Y16322D3*
X67011Y13822D3*
Y16322D3*
X76011Y13822D3*
Y16322D3*
X18860Y16697D3*
Y14197D3*
X15860Y16697D3*
Y14197D3*
X21860Y16697D3*
Y14197D3*
X12860Y16697D3*
Y14197D3*
M02*
