G04 DipTrace 2.4.0.2*
%IN64xAPA102Cx16mm.gtl*%
%MOMM*%
%ADD13C,1.27*%
%ADD14C,0.8*%
%ADD15C,0.711*%
%ADD17O,1.3X0.8*%
%ADD18O,4.5X2.0*%
%ADD19C,2.0*%
%ADD21O,0.8X1.3*%
%ADD22O,2.0X4.5*%
%FSLAX53Y53*%
G04*
G71*
G90*
G75*
G01*
%LNTop*%
%LPD*%
X10008Y22508D2*
D13*
X13508D1*
Y23656D1*
Y26008D1*
Y33091D1*
X13677Y33261D1*
Y35738D1*
Y36655D1*
X17048Y40025D1*
X24491D1*
X26008Y38508D1*
X38508Y26008D2*
Y27409D1*
X40689Y29590D1*
Y34694D1*
X38262Y37120D1*
X34398D1*
X33854Y37664D1*
X33010Y38508D1*
X26008D1*
X38508Y26008D2*
Y22508D1*
X39519D1*
X42008D1*
X45375D1*
Y23055D1*
Y26008D1*
X45508D1*
Y34308D1*
Y42008D1*
X42008Y45508D2*
X45508Y42008D1*
X26008Y45508D2*
X34824D1*
X42008D1*
X13508Y58008D2*
Y55424D1*
X11834Y53750D1*
Y49099D1*
X15389Y45543D1*
X18509D1*
X19247Y45508D1*
X19451D1*
X26008D1*
X13508Y58008D2*
X13796Y58296D1*
Y65023D1*
Y68196D1*
X18435Y72835D1*
X23681D1*
X26008Y70508D1*
X32917D1*
X42008D1*
X58008D2*
X48318D1*
X42008D1*
X58008D2*
X63809D1*
X64858D1*
X64986Y70380D1*
X68226D1*
X72233Y66373D1*
Y61868D1*
X70158Y59792D1*
Y58008D1*
X70508D1*
Y51381D1*
Y42008D1*
Y35389D1*
X70336Y35218D1*
Y26180D1*
X70508Y26008D1*
X74008Y22508D2*
X70508Y26008D1*
X74008Y22508D2*
X77508Y26008D1*
Y42008D2*
Y35840D1*
Y26008D1*
Y42008D2*
Y48984D1*
Y58008D1*
Y63616D1*
Y74008D1*
X74008Y77508D1*
X66739D1*
X58008D1*
X51311D1*
X42008D1*
X35622D1*
X26008D1*
X18778D1*
X18644Y77641D1*
X15773D1*
X11858Y81556D1*
Y88358D1*
X13508Y90008D1*
Y96363D1*
Y101768D1*
X15648Y103908D1*
X24608D1*
X26008Y102508D1*
X32756D1*
X42008D1*
X49042D1*
X58008D1*
X65178D1*
X74008D1*
X80578D1*
X90008D1*
Y102174D1*
X96701D1*
X100540D1*
X104039Y98675D1*
Y93617D1*
X102175Y91754D1*
Y90008D1*
X102508D1*
Y84192D1*
Y74008D1*
Y67335D1*
Y58008D1*
Y51752D1*
Y42008D1*
Y35525D1*
Y26008D1*
X106008Y22508D1*
X109508Y26008D1*
Y32766D1*
Y42008D1*
Y48820D1*
Y58008D1*
X134508Y26008D2*
Y35220D1*
Y42008D1*
Y51452D1*
Y58008D1*
X109508D2*
Y65265D1*
Y74008D1*
Y81072D1*
Y90008D1*
Y96354D1*
Y106008D1*
X134508Y58008D2*
Y66728D1*
Y74008D1*
Y82578D1*
Y90008D1*
Y98998D1*
Y106008D1*
Y115405D1*
Y122008D1*
X109508Y106008D2*
X106008Y109508D1*
X122008Y134508D2*
X128699D1*
X128834Y134373D1*
X132193D1*
X136152Y130414D1*
Y123652D1*
X134508Y122008D1*
X122008Y134508D2*
X112611D1*
X106008D1*
X96996D1*
X90008D1*
X80702D1*
X74008D1*
X65293D1*
X58008D1*
Y109508D2*
X67466D1*
X74008D1*
X83830D1*
X90008D1*
X99444D1*
X106008D1*
X58008D2*
X51457D1*
X42008D1*
X34932D1*
X26008D1*
X58008Y134508D2*
X48710D1*
X42008D1*
X33643D1*
X26008D1*
X23850D1*
X22202Y136155D1*
X17698D1*
X13488Y131946D1*
Y128852D1*
Y122028D1*
X13508Y122008D1*
Y119593D1*
X11773Y117858D1*
Y112223D1*
X14529Y109467D1*
X19055D1*
X25967D1*
X26008Y109508D1*
X134508Y26008D2*
Y22637D1*
X138008D1*
Y22508D1*
X68508Y83858D2*
D14*
X67735D1*
D13*
X65896Y82019D1*
Y78350D1*
X66739Y77508D1*
X15508Y16158D2*
D14*
X16369D1*
D13*
X18303Y18092D1*
Y19830D1*
X14477Y23656D1*
X13508D1*
X19858Y31508D2*
D14*
Y32137D1*
D13*
X17707Y34288D1*
X15127D1*
X13677Y35738D1*
X31508Y32158D2*
D14*
X32667D1*
D13*
X33854Y33344D1*
Y37664D1*
X32158Y20508D2*
D14*
Y19241D1*
D13*
X33556Y17843D1*
X35792D1*
X39270Y21321D1*
Y22259D1*
X39519Y22508D1*
X47508Y16158D2*
D14*
X48892D1*
D13*
X50200Y17466D1*
Y19433D1*
X47467Y22166D1*
X46264D1*
X45375Y23055D1*
X51858Y31508D2*
D14*
Y32400D1*
D13*
X49950Y34308D1*
X45508D1*
X64158Y36508D2*
D14*
Y35376D1*
D13*
X65444Y34089D1*
X69208D1*
X70336Y35218D1*
X64158Y20508D2*
D14*
Y19081D1*
D13*
X65372Y17868D1*
X67554D1*
X70464Y20778D1*
Y25964D1*
X70508Y26008D1*
X51858Y47508D2*
D14*
Y48820D1*
D13*
X50554Y50124D1*
X48330D1*
X44963Y46757D1*
Y42553D1*
X45508Y42008D1*
X36508Y51858D2*
D14*
X35693D1*
D13*
X33947Y50112D1*
Y46385D1*
X34824Y45508D1*
X20508Y51858D2*
D14*
X19931D1*
D13*
X18078Y50005D1*
Y46881D1*
X19451Y45508D1*
X19858Y63508D2*
D14*
Y63988D1*
D13*
X17546Y66300D1*
X15072D1*
X13796Y65023D1*
X31508Y64158D2*
D14*
X32124D1*
D13*
X34160Y66194D1*
Y69265D1*
X32917Y70508D1*
X47508Y64158D2*
D14*
X48206D1*
D13*
X50135Y66087D1*
Y68690D1*
X48318Y70508D1*
X63508Y64158D2*
D14*
X64395D1*
D13*
X65791Y65555D1*
Y68526D1*
X63809Y70508D1*
X64158Y52508D2*
D14*
Y51745D1*
D13*
X66004Y49899D1*
X69026D1*
X70508Y51381D1*
X79508Y16158D2*
D14*
X80256D1*
D13*
X82336Y18238D1*
Y19797D1*
X78438Y23696D1*
Y25078D1*
X77508Y26008D1*
X83858Y31508D2*
D14*
Y32793D1*
D13*
Y32933D1*
X82492Y34299D1*
X79049D1*
X77508Y35840D1*
X83858Y47508D2*
D14*
Y48370D1*
D13*
X81868Y50359D1*
X78884D1*
X77508Y48984D1*
X83858Y63508D2*
D14*
Y64742D1*
D13*
X82336Y66264D1*
X80156D1*
X77508Y63616D1*
X83858Y79508D2*
D14*
Y80335D1*
D13*
X82024Y82169D1*
X80621D1*
X77035Y78583D1*
Y74481D1*
X77508Y74008D1*
X52508Y83858D2*
D14*
X51904D1*
D13*
X49747Y81701D1*
Y79072D1*
X51311Y77508D1*
X36508Y83858D2*
D14*
X35531D1*
D13*
X33842Y82169D1*
Y79287D1*
X35622Y77508D1*
X20508Y83858D2*
D14*
X19938D1*
D13*
X17937Y81857D1*
Y78283D1*
X18644Y77641D1*
X19858Y95508D2*
D14*
Y95841D1*
D13*
X17781Y97918D1*
X15062D1*
X13508Y96363D1*
X31508Y96158D2*
D14*
X32238D1*
D13*
X34466Y98386D1*
Y100799D1*
X32756Y102508D1*
X47508Y96158D2*
D14*
X48455D1*
D13*
X50371Y98074D1*
Y101179D1*
X49042Y102508D1*
X63508Y96158D2*
D14*
X64048D1*
D13*
X65964Y98074D1*
Y101722D1*
X65178Y102508D1*
X79508Y96158D2*
D14*
X79953D1*
D13*
X82024Y98230D1*
Y101062D1*
X80578Y102508D1*
X95508Y96158D2*
D14*
X96325D1*
D13*
X98241Y98074D1*
Y100635D1*
X96701Y102174D1*
X96158Y84508D2*
D14*
Y83784D1*
D13*
X97929Y82013D1*
X100329D1*
X102508Y84192D1*
X96158Y68508D2*
D14*
Y67568D1*
D13*
X97929Y65796D1*
X100969D1*
X102508Y67335D1*
X96158Y52508D2*
D14*
Y51819D1*
D13*
X97929Y50048D1*
X100804D1*
X102508Y51752D1*
X96158Y36508D2*
D14*
Y36226D1*
D13*
X98553Y33831D1*
X100814D1*
X102508Y35525D1*
X96158Y20508D2*
D14*
Y20009D1*
D13*
X98241Y17926D1*
X99488D1*
X102607Y21045D1*
Y25909D1*
X102508Y26008D1*
X111508Y16158D2*
D14*
X111848D1*
D13*
X113927Y18237D1*
Y19935D1*
X110342Y23520D1*
X107020D1*
X106008Y22508D1*
X115858Y31508D2*
D14*
Y32532D1*
D13*
X114116Y34274D1*
X111017D1*
X109508Y32766D1*
X115858Y47508D2*
D14*
Y48381D1*
D13*
X113927Y50312D1*
X111000D1*
X109508Y48820D1*
X115858Y63508D2*
D14*
Y64418D1*
D13*
X113927Y66349D1*
X110592D1*
X109508Y65265D1*
X115858Y79508D2*
D14*
Y80833D1*
D13*
X113927Y82764D1*
X111200D1*
X109508Y81072D1*
X115858Y95508D2*
D14*
Y96304D1*
D13*
X114116Y98046D1*
X111200D1*
X109508Y96354D1*
X128158Y20508D2*
D14*
Y19855D1*
D13*
X129964Y18048D1*
X131662D1*
X134304Y20690D1*
Y23700D1*
X134508Y22637D1*
X128158Y36508D2*
D14*
Y35326D1*
D13*
X129398Y34086D1*
X133374D1*
X134508Y35220D1*
X128158Y52508D2*
D14*
Y51741D1*
D13*
X129964Y49934D1*
X132990D1*
X134508Y51452D1*
X128158Y68508D2*
D14*
Y67778D1*
D13*
X130342Y65594D1*
X133374D1*
X134508Y66728D1*
X128158Y84508D2*
D14*
Y83249D1*
D13*
X129964Y81443D1*
X133374D1*
X134508Y82578D1*
X128158Y100508D2*
D14*
Y99475D1*
D13*
X129776Y97858D1*
X133367D1*
X134508Y98998D1*
X128158Y116508D2*
D14*
Y116079D1*
D13*
X130153Y114084D1*
X133187D1*
X134508Y115405D1*
X127508Y128158D2*
D14*
X128233D1*
D13*
X129964Y129889D1*
Y133808D1*
X128834Y134373D1*
X111508Y128158D2*
D14*
X112252D1*
D13*
X114191Y130097D1*
Y132928D1*
X112611Y134508D1*
X115858Y111508D2*
D14*
Y112793D1*
D13*
Y113071D1*
X114606Y114323D1*
X112115D1*
X109002Y111210D1*
Y106514D1*
X109508Y106008D1*
X95508Y128158D2*
D14*
X96223D1*
D13*
X98141Y130077D1*
Y133363D1*
X96996Y134508D1*
X100508Y115858D2*
D14*
X100224D1*
D13*
X97999Y113633D1*
Y110953D1*
X99444Y109508D1*
X84508Y115858D2*
D14*
X83497D1*
D13*
X81556Y113917D1*
Y111782D1*
X83830Y109508D1*
X68508Y115858D2*
D14*
X68330D1*
D13*
X65963Y113491D1*
Y111011D1*
X67466Y109508D1*
X52508Y115858D2*
D14*
X51461D1*
D13*
X49803Y114200D1*
Y111161D1*
X51457Y109508D1*
X36508Y115858D2*
D14*
X35584D1*
D13*
X33501Y113775D1*
Y110939D1*
X34932Y109508D1*
X20508Y115858D2*
D14*
X19708D1*
D13*
X17200Y113350D1*
Y111322D1*
X19055Y109467D1*
X31508Y128158D2*
D14*
X32150D1*
D13*
X33643Y129651D1*
Y134508D1*
X47508Y128158D2*
D14*
X48026D1*
D13*
X49803Y129935D1*
Y133415D1*
X48710Y134508D1*
X63508Y128158D2*
D14*
X64470D1*
D13*
X66247Y129935D1*
Y133555D1*
X65293Y134508D1*
X79508Y128158D2*
D14*
X80204D1*
D13*
X82123Y130077D1*
Y133087D1*
X80702Y134508D1*
X19858Y127508D2*
D14*
Y128214D1*
D13*
X17793Y130279D1*
X14915D1*
X13488Y128852D1*
X20508Y19858D2*
D15*
Y20090D1*
X16020Y24578D1*
Y26008D1*
X16508D1*
X16158Y31508D2*
Y26358D1*
X16508Y26008D1*
X20508Y18008D2*
X20588D1*
X21756Y19176D1*
Y20997D1*
X19354Y23399D1*
Y25854D1*
X19508Y26008D1*
X18008Y31508D2*
Y31385D1*
X18846Y30547D1*
Y26670D1*
X19508Y26008D1*
X16158Y36508D2*
Y36838D1*
X18112Y38792D1*
X21611D1*
X24978Y35425D1*
Y35864D1*
X27190D1*
X27546Y35508D1*
X26008D1*
X31508Y35858D2*
X26358D1*
X26008Y35508D1*
X18008Y36508D2*
X19288Y37788D1*
X20923D1*
X23146Y35565D1*
Y33585D1*
X24223Y32508D1*
X26008D1*
X31508Y34008D2*
X31302D1*
X30272Y32978D1*
X26478D1*
X26008Y32508D1*
X36508Y35858D2*
X37558D1*
X39266Y34150D1*
Y30636D1*
X35334Y26703D1*
Y26182D1*
X35508Y26008D1*
X35858Y20508D2*
Y25658D1*
X35508Y26008D1*
X36508Y34008D2*
X37735D1*
X38179Y33564D1*
Y32100D1*
X35153Y29074D1*
X33426D1*
X32657Y28304D1*
Y26157D1*
X32508Y26008D1*
X34008Y20508D2*
Y20663D1*
X32919Y21752D1*
Y25597D1*
X32508Y26008D1*
X35858Y15508D2*
X36842D1*
X40653Y19318D1*
X41818D1*
X42008Y19508D1*
X47508Y19858D2*
X42358D1*
X42008Y19508D1*
X34008Y15508D2*
Y15010D1*
X34885Y14132D1*
X38205D1*
X40521Y16449D1*
X41949D1*
X42008Y16508D1*
X47508Y18008D2*
X47338D1*
X46489Y17159D1*
X42659D1*
X42008Y16508D1*
X52508Y19858D2*
X52309D1*
X48883Y23284D1*
Y25633D1*
X48508Y26008D1*
X48158Y31508D2*
Y26358D1*
X48508Y26008D1*
X52508Y18008D2*
X53574D1*
X53895Y18328D1*
Y22894D1*
X51556Y25233D1*
Y25960D1*
X51508Y26008D1*
X50008Y31508D2*
Y31268D1*
X50937Y30339D1*
Y26579D1*
X51508Y26008D1*
X48158Y36508D2*
Y41658D1*
X48508Y42008D1*
X48158Y47508D2*
Y42358D1*
X48508Y42008D1*
X50008Y36508D2*
Y39999D1*
X51417Y41408D1*
Y41917D1*
X51508Y42008D1*
X50008Y47508D2*
Y47332D1*
X51013Y46327D1*
Y42503D1*
X51508Y42008D1*
X48158Y52508D2*
X47357D1*
X43669Y48820D1*
X42320D1*
X42008Y48508D1*
X38826D1*
X38673Y48355D1*
X36705D1*
X36508Y48158D1*
X50008Y52508D2*
Y53059D1*
X48722Y54345D1*
X45488D1*
X42591Y51447D1*
X42069D1*
X42008Y51508D1*
X36508Y50008D2*
X38150D1*
X39551Y51409D1*
X41909D1*
X42008Y51508D1*
X15508Y48158D2*
Y48182D1*
X13202Y50487D1*
Y52731D1*
X16169Y55698D1*
Y57669D1*
X16508Y58008D1*
X16158Y63508D2*
Y58358D1*
X16508Y58008D1*
X15508Y50008D2*
X15127D1*
X14191Y50944D1*
Y52389D1*
X16853Y55051D1*
X18831D1*
X19325Y55546D1*
Y57825D1*
X19508Y58008D1*
X18008Y63508D2*
Y62096D1*
X19492Y60612D1*
Y58024D1*
X19508Y58008D1*
X31508Y112158D2*
X29271D1*
X28900Y112529D1*
X26029D1*
X26008Y112508D1*
X20508Y112158D2*
X21843D1*
X22296Y112611D1*
X25905D1*
X26008Y112508D1*
X31508Y114008D2*
X30437D1*
X29307Y115138D1*
X26378D1*
X26008Y115508D1*
X23644D1*
X22296Y114160D1*
X20660D1*
X20508Y114008D1*
X16158Y68508D2*
X16270D1*
X18711Y70949D1*
X20920D1*
X23727Y68141D1*
X25375D1*
X26008Y67508D1*
X31508Y67858D2*
X26358D1*
X26008Y67508D1*
X18008Y68508D2*
X18157D1*
X19447Y69798D1*
X20459D1*
X23036Y67221D1*
Y65058D1*
X23451Y64644D1*
X25872D1*
X26008Y64508D1*
X31508Y66008D2*
X30015D1*
X28559Y64552D1*
X26052D1*
X26008Y64508D1*
X36508Y67858D2*
X41658D1*
X42008Y67508D1*
X47508Y67858D2*
X42358D1*
X42008Y67508D1*
X36508Y66008D2*
X38002D1*
X39463Y64547D1*
X41969D1*
X42008Y64508D1*
X47508Y66008D2*
X46743D1*
X45343Y64608D1*
X42108D1*
X42008Y64508D1*
X52508Y67858D2*
X57658D1*
X58008Y67508D1*
X63508Y67858D2*
X58358D1*
X58008Y67508D1*
X52508Y66008D2*
X53499D1*
X55082Y64425D1*
X57925D1*
X58008Y64508D1*
X63508Y66008D2*
X62098D1*
X60641Y64551D1*
X58051D1*
X58008Y64508D1*
X68508Y67858D2*
X68673D1*
X70866Y65664D1*
Y63133D1*
X68133Y60400D1*
Y58633D1*
X67508Y58008D1*
X67858Y52508D2*
Y57658D1*
X67508Y58008D1*
X64508D2*
Y59255D1*
X66159Y60906D1*
X67171D1*
X69854Y63589D1*
Y64662D1*
X68508Y66008D1*
X66008Y52508D2*
Y53520D1*
X64460Y55068D1*
Y57960D1*
X64508Y58008D1*
X67858Y47508D2*
Y42358D1*
X67508Y42008D1*
Y36858D1*
X67858Y36508D1*
X66008Y47508D2*
Y45903D1*
X64527Y44423D1*
Y42027D1*
X64508Y42008D1*
X66008Y36508D2*
Y38069D1*
X64605Y39472D1*
Y41911D1*
X64508Y42008D1*
X67858Y31508D2*
Y26358D1*
X67508Y26008D1*
X67858Y20508D2*
Y23226D1*
X67479Y23605D1*
Y25979D1*
X67508Y26008D1*
X64508D2*
Y28883D1*
X66032Y30407D1*
Y31484D1*
X66008Y31508D1*
Y20508D2*
Y22089D1*
X64593Y23504D1*
Y25923D1*
X64508Y26008D1*
X84508Y19858D2*
X84455D1*
X80864Y23449D1*
Y25652D1*
X80508Y26008D1*
Y31158D1*
X80158Y31508D1*
X84508Y18008D2*
Y18184D1*
X85931Y19607D1*
Y20553D1*
X83426Y23059D1*
Y25926D1*
X83508Y26008D1*
Y29055D1*
X81971Y30593D1*
Y31471D1*
X82008Y31508D1*
X80158Y36508D2*
Y41658D1*
X80508Y42008D1*
X80158Y47508D2*
Y42358D1*
X80508Y42008D1*
X82008Y36508D2*
Y37839D1*
X83520Y39352D1*
Y41996D1*
X83508Y42008D1*
X82008Y47508D2*
Y45944D1*
X83335Y44618D1*
Y42181D1*
X83508Y42008D1*
X80158Y52508D2*
Y57658D1*
X80508Y58008D1*
Y61450D1*
X80238Y61720D1*
Y63428D1*
X80158Y63508D1*
X82008Y52508D2*
Y53146D1*
X83502Y54640D1*
Y58002D1*
X83508Y58008D1*
Y59665D1*
X81959Y61214D1*
Y63459D1*
X82008Y63508D1*
X80158Y68508D2*
Y73658D1*
X80508Y74008D1*
X80158Y79508D2*
Y74358D1*
X80508Y74008D1*
X82008Y68508D2*
Y69767D1*
X83528Y71287D1*
Y73988D1*
X83508Y74008D1*
X82008Y79508D2*
Y77823D1*
X83320Y76511D1*
Y74196D1*
X83508Y74008D1*
X80158Y84508D2*
Y84025D1*
X76509Y80377D1*
X74139D1*
X74008Y80508D1*
X68508Y80158D2*
X73658D1*
X74008Y80508D1*
X82008Y84508D2*
Y84726D1*
X80789Y85945D1*
X79040D1*
X76878Y83782D1*
X74282D1*
X74008Y83508D1*
X68508Y82008D2*
X68589D1*
X69999Y83419D1*
X73919D1*
X74008Y83508D1*
X63508Y80158D2*
X58358D1*
X58008Y80508D1*
X54961D1*
X54626Y80173D1*
X52523D1*
X52508Y80158D1*
X63508Y82008D2*
X62407D1*
X61057Y83358D1*
X58158D1*
X58008Y83508D1*
X56062D1*
X54564Y82010D1*
X52510D1*
X52508Y82008D1*
X47508Y80158D2*
X42358D1*
X42008Y80508D1*
X36858D1*
X36508Y80158D1*
X47508Y82008D2*
X46076D1*
X44666Y83419D1*
X42097D1*
X42008Y83508D1*
X38980D1*
X37639Y82167D1*
X36667D1*
X36508Y82008D1*
X15508Y80158D2*
Y80062D1*
X13209Y82361D1*
Y85165D1*
X16052Y88008D1*
Y89552D1*
X16508Y90008D1*
Y95158D1*
X16158Y95508D1*
X19508Y90008D2*
Y87960D1*
X18882Y87334D1*
X17265D1*
X14260Y84329D1*
Y83256D1*
X15508Y82008D1*
X19508Y90008D2*
Y92073D1*
X17955Y93626D1*
Y95455D1*
X18008Y95508D1*
X26008Y99508D2*
X25101D1*
X21914Y102696D1*
X18346D1*
X16158Y100508D1*
X31508Y99858D2*
X26358D1*
X26008Y99508D1*
X18008Y100508D2*
Y100609D1*
X19151Y101752D1*
X21038D1*
X22857Y99933D1*
Y97373D1*
X23463Y96766D1*
X25750D1*
X26008Y96508D1*
X31508Y98008D2*
X29970D1*
X28280Y96318D1*
X26198D1*
X26008Y96508D1*
X36508Y99858D2*
X41658D1*
X42008Y99508D1*
X47508Y99858D2*
X42358D1*
X42008Y99508D1*
X36508Y98008D2*
X38011D1*
X39241Y96779D1*
X41737D1*
X42008Y96508D1*
X44167D1*
X45735Y98076D1*
X47440D1*
X47508Y98008D1*
X52508Y99858D2*
X54829D1*
X55106Y99582D1*
X57934D1*
X58008Y99508D1*
X61213D1*
X61538Y99833D1*
X63483D1*
X63508Y99858D1*
X52508Y98008D2*
X53626D1*
X55064Y96569D1*
X57947D1*
X58008Y96508D1*
X60514D1*
X62040Y98034D1*
X63482D1*
X63508Y98008D1*
X68508Y99858D2*
X73658D1*
X74008Y99508D1*
X76656D1*
X77126Y99979D1*
X79387D1*
X79508Y99858D1*
X68508Y98008D2*
X69972D1*
X71118Y96862D1*
X73654D1*
X74008Y96508D1*
X76187D1*
X77587Y97908D1*
X79408D1*
X79508Y98008D1*
X84508Y99858D2*
X86267D1*
X86514Y99610D1*
X89906D1*
X90008Y99508D1*
X92808D1*
X93049Y99748D1*
X95398D1*
X95508Y99858D1*
X84508Y98008D2*
X85678D1*
X86790Y96895D1*
X89621D1*
X90008Y96508D1*
X92477D1*
X93923Y97954D1*
X95454D1*
X95508Y98008D1*
X100508Y99858D2*
X101038D1*
X102708Y98189D1*
Y94820D1*
X99437Y91549D1*
Y89937D1*
X99508Y90008D1*
X99858Y84508D2*
Y85665D1*
X99306Y86217D1*
Y89806D1*
X99508Y90008D1*
X100508Y98008D2*
Y97765D1*
X101757Y96516D1*
Y95250D1*
X99767Y93260D1*
X97236D1*
X96500Y92524D1*
Y90016D1*
X96508Y90008D1*
X98008Y84508D2*
Y84576D1*
X96401Y86183D1*
Y89901D1*
X96508Y90008D1*
X99858Y63508D2*
Y61110D1*
X99414Y60665D1*
Y58102D1*
X99508Y58008D1*
Y55017D1*
X99867Y54658D1*
Y52517D1*
X99858Y52508D1*
X98008Y63508D2*
Y62690D1*
X96527Y61209D1*
Y58027D1*
X96508Y58008D1*
Y56313D1*
X98014Y54806D1*
Y52514D1*
X98008Y52508D1*
X99858Y47508D2*
Y42358D1*
X99508Y42008D1*
Y38935D1*
X99867Y38576D1*
Y36517D1*
X99858Y36508D1*
X98008Y47508D2*
Y46277D1*
X96606Y44875D1*
Y42106D1*
X96508Y42008D1*
X98008Y36508D2*
Y37915D1*
X96680Y39243D1*
Y41836D1*
X96508Y42008D1*
X99858Y31508D2*
Y29154D1*
X99571Y28867D1*
Y26071D1*
X99508Y26008D1*
Y23412D1*
X99745Y23174D1*
Y20621D1*
X99858Y20508D1*
X98008Y31508D2*
Y30565D1*
X96236Y28793D1*
Y26280D1*
X96508Y26008D1*
X98008Y20508D2*
Y21738D1*
X96683Y23063D1*
Y25833D1*
X96508Y26008D1*
X99858Y15508D2*
Y15547D1*
X103643Y19332D1*
X105832D1*
X106008Y19508D1*
X111508Y19858D2*
X109714D1*
X109451Y19595D1*
X106095D1*
X106008Y19508D1*
X98008Y15508D2*
Y14610D1*
X98353Y14265D1*
X101973D1*
X103754Y16047D1*
X105547D1*
X106008Y16508D1*
X111508Y18008D2*
X110901D1*
X109502Y16608D1*
X106108D1*
X106008Y16508D1*
X116508Y19858D2*
Y20235D1*
X112508Y24235D1*
Y26008D1*
X112158Y31508D2*
Y29750D1*
X112543Y29364D1*
Y26043D1*
X112508Y26008D1*
X116508Y18008D2*
X117175D1*
X117746Y18579D1*
Y21633D1*
X115277Y24101D1*
Y26239D1*
X115508Y26008D1*
X114008Y31508D2*
Y30590D1*
X115315Y29283D1*
Y26201D1*
X115508Y26008D1*
X112158Y47508D2*
Y45647D1*
X112462Y45343D1*
Y42054D1*
X112508Y42008D1*
X112158Y36508D2*
Y37784D1*
X112625Y38251D1*
Y41891D1*
X112508Y42008D1*
X114008Y47508D2*
Y46487D1*
X115315Y45180D1*
Y42201D1*
X115508Y42008D1*
X114008Y36508D2*
Y37188D1*
X115560Y38740D1*
Y41956D1*
X115508Y42008D1*
X112158Y52508D2*
Y53844D1*
X112625Y54311D1*
Y57891D1*
X112508Y58008D1*
X112158Y63508D2*
Y62033D1*
X112462Y61730D1*
Y58054D1*
X112508Y58008D1*
X114008Y52508D2*
Y53248D1*
X115396Y54637D1*
Y57896D1*
X115508Y58008D1*
X114008Y63508D2*
Y62873D1*
X115396Y61485D1*
Y58120D1*
X115508Y58008D1*
X112158Y95508D2*
Y90358D1*
X112508Y90008D1*
X112158Y84508D2*
Y89658D1*
X112508Y90008D1*
X114008Y95508D2*
Y94720D1*
X115442Y93286D1*
Y90074D1*
X115508Y90008D1*
Y87862D1*
X113890Y86244D1*
Y84626D1*
X114008Y84508D1*
X112158Y100508D2*
Y105658D1*
X112508Y106008D1*
X112158Y111508D2*
Y110202D1*
X112556Y109805D1*
Y106056D1*
X112508Y106008D1*
X114008Y100508D2*
Y101401D1*
X115203Y102596D1*
Y105703D1*
X115508Y106008D1*
Y108320D1*
X114105Y109723D1*
Y111411D1*
X114008Y111508D1*
X112158Y116508D2*
X111800D1*
X108405Y113113D1*
X106613D1*
X106008Y112508D1*
X102906D1*
X102566Y112168D1*
X100518D1*
X100508Y112158D1*
X114008Y116508D2*
X112796Y117720D1*
X110379D1*
X108861Y116201D1*
X106701D1*
X106008Y115508D1*
X100508Y114008D2*
X101357D1*
X102566Y115217D1*
X105717D1*
X106008Y115508D1*
X84508Y112158D2*
X85865D1*
X86400Y112692D1*
X89824D1*
X90008Y112508D1*
X95508Y112158D2*
X93375D1*
X92840Y112692D1*
X90192D1*
X90008Y112508D1*
X95508Y114008D2*
X94133D1*
X92759Y115383D1*
X90133D1*
X90008Y115508D1*
X84508Y114008D2*
X85270D1*
X86726Y115464D1*
X89964D1*
X90008Y115508D1*
X79508Y112158D2*
X77151D1*
X76698Y112611D1*
X74111D1*
X74008Y112508D1*
X68508Y112158D2*
X70702D1*
X71073Y112529D1*
X73987D1*
X74008Y112508D1*
X79508Y114008D2*
X78155D1*
X76861Y115301D1*
X74215D1*
X74008Y115508D1*
X68508Y114008D2*
X69780D1*
X71318Y115546D1*
X73970D1*
X74008Y115508D1*
X63508Y112158D2*
X61962D1*
X61672Y112448D1*
X58068D1*
X58008Y112508D1*
X55048D1*
X54661Y112122D1*
X52544D1*
X52508Y112158D1*
X63508Y114008D2*
X62884D1*
X61672Y115220D1*
X58296D1*
X58008Y115508D1*
X52508Y114008D2*
X53531D1*
X54824Y115301D1*
X57801D1*
X58008Y115508D1*
X47508Y112158D2*
X45331D1*
X45041Y112448D1*
X42068D1*
X42008Y112508D1*
X36508Y112158D2*
X38882D1*
X39172Y112448D1*
X41948D1*
X42008Y112508D1*
X47508Y114008D2*
X46416D1*
X45041Y115383D1*
X42133D1*
X42008Y115508D1*
X36508Y114008D2*
X37552D1*
X39090Y115546D1*
X41970D1*
X42008Y115508D1*
X16158Y127508D2*
Y125784D1*
X16673Y125269D1*
Y122173D1*
X16508Y122008D1*
Y120572D1*
X13121Y117184D1*
Y114545D1*
X15508Y112158D1*
X18008Y127508D2*
Y126078D1*
X19429Y124657D1*
Y122087D1*
X19508Y122008D1*
Y119284D1*
X19184Y118960D1*
X16489D1*
X14162Y116633D1*
Y115354D1*
X15508Y114008D1*
X31508Y131858D2*
X29722D1*
X29226Y131361D1*
X26155D1*
X26008Y131508D1*
X24951D1*
X21600Y134858D1*
X18508D1*
X16158Y132508D1*
X31508Y130008D2*
X31296D1*
X29878Y128590D1*
X26090D1*
X26008Y128508D1*
X23847D1*
X23043Y129312D1*
Y131823D1*
X21054Y133813D1*
X19313D1*
X18008Y132508D1*
X47508Y131858D2*
X45619D1*
X45368Y131606D1*
X42106D1*
X42008Y131508D1*
X36508Y131858D2*
X38104D1*
X38356Y131606D1*
X41910D1*
X42008Y131508D1*
X47508Y130008D2*
X46867D1*
X45368Y128508D1*
X42008D1*
X36508Y130008D2*
X37835D1*
X38927Y128916D1*
X41600D1*
X42008Y128508D1*
X63508Y131858D2*
X61633D1*
X61218Y131443D1*
X58073D1*
X58008Y131508D1*
X52508Y131858D2*
X53594D1*
X54091Y131361D1*
X57861D1*
X58008Y131508D1*
X63508Y130008D2*
X62799D1*
X61544Y128753D1*
X58253D1*
X58008Y128508D1*
X52508Y130008D2*
X53406D1*
X54824Y128590D1*
X57926D1*
X58008Y128508D1*
X79508Y131858D2*
X77041D1*
X76789Y131606D1*
X74106D1*
X74008Y131508D1*
X68508Y131858D2*
X69689D1*
X70023Y131525D1*
X73991D1*
X74008Y131508D1*
X79508Y130008D2*
X78452D1*
X77034Y128590D1*
X74090D1*
X74008Y128508D1*
X68508Y130008D2*
X69909D1*
X71245Y128671D1*
X73845D1*
X74008Y128508D1*
X95508Y131858D2*
X93346D1*
X93176Y131688D1*
X90188D1*
X90008Y131508D1*
X84508Y131858D2*
X86402D1*
X86572Y131688D1*
X89828D1*
X90008Y131508D1*
X95508Y130008D2*
X94838D1*
X93420Y128590D1*
X90090D1*
X90008Y128508D1*
X84508Y130008D2*
X85398D1*
X86898Y128508D1*
X90008D1*
X111508Y131858D2*
X109814D1*
X109399Y131443D1*
X106073D1*
X106008Y131508D1*
X100508Y131858D2*
X102706D1*
X103121Y131443D1*
X105943D1*
X106008Y131508D1*
X111508Y130008D2*
X111143D1*
X109480Y128345D1*
X106171D1*
X106008Y128508D1*
X103855D1*
X102469Y129894D1*
X100622D1*
X100508Y130008D1*
X131858Y116508D2*
Y117988D1*
X131317Y118529D1*
Y121817D1*
X131508Y122008D1*
X132508Y131858D2*
X132591D1*
X134818Y129632D1*
Y126732D1*
X131508Y123423D1*
Y122008D1*
X130008Y116508D2*
Y117331D1*
X128571Y118768D1*
Y121945D1*
X128508Y122008D1*
X132508Y130008D2*
X133805Y128711D1*
Y127101D1*
X131872Y125168D1*
X129249D1*
X128697Y124616D1*
Y122197D1*
X128508Y122008D1*
X122008Y131508D2*
X124545D1*
X125016Y131979D1*
X127387D1*
X127508Y131858D1*
X116508D2*
X118278D1*
X118611Y131525D1*
X121991D1*
X122008Y131508D1*
Y128508D2*
X124674D1*
X126074Y129908D1*
X127408D1*
X127508Y130008D1*
X116508D2*
X117437D1*
X118774Y128671D1*
X121845D1*
X122008Y128508D1*
X131858Y100508D2*
Y101816D1*
X131436Y102238D1*
Y105936D1*
X131508Y106008D1*
X131858Y111508D2*
Y109464D1*
X131675Y109280D1*
Y106175D1*
X131508Y106008D1*
X130008Y100508D2*
Y101279D1*
X128571Y102715D1*
Y105945D1*
X128508Y106008D1*
X130008Y111508D2*
Y109881D1*
X128571Y108445D1*
Y106071D1*
X128508Y106008D1*
X131858Y84508D2*
Y86180D1*
X131436Y86602D1*
Y89936D1*
X131508Y90008D1*
Y92523D1*
X131675Y92689D1*
Y95691D1*
X131858Y95508D1*
X130008Y84508D2*
Y85165D1*
X128571Y86602D1*
Y89945D1*
X128508Y90008D1*
X130008Y95508D2*
Y94365D1*
X128571Y92928D1*
Y90071D1*
X128508Y90008D1*
X131858Y68508D2*
Y70544D1*
X131317Y71085D1*
Y73817D1*
X131508Y74008D1*
Y76528D1*
X131794Y76814D1*
Y79572D1*
X131858Y79508D1*
X130008Y68508D2*
Y69052D1*
X128452Y70608D1*
Y73952D1*
X128508Y74008D1*
Y76035D1*
X130004Y77531D1*
Y79504D1*
X130008Y79508D1*
X131508Y58008D2*
Y54749D1*
X131783Y54474D1*
Y52583D1*
X131858Y52508D1*
X131508Y58008D2*
Y60773D1*
X131794Y61059D1*
Y63444D1*
X131858Y63508D1*
X130008Y52508D2*
Y52988D1*
X128685Y54311D1*
Y57831D1*
X128508Y58008D1*
X130008Y63508D2*
Y62018D1*
X128333Y60343D1*
Y58183D1*
X128508Y58008D1*
X131858Y47508D2*
Y45255D1*
X131375Y44772D1*
Y42141D1*
X131508Y42008D1*
X131858Y36508D2*
Y37442D1*
X131375Y37924D1*
Y41875D1*
X131508Y42008D1*
X130008Y47508D2*
Y46177D1*
X128603Y44772D1*
Y42103D1*
X128508Y42008D1*
X130008Y36508D2*
Y37335D1*
X128766Y38577D1*
Y41750D1*
X128508Y42008D1*
X131858Y31508D2*
Y28869D1*
X131620Y28631D1*
Y26120D1*
X131508Y26008D1*
X131858Y20508D2*
Y21477D1*
X131652Y21683D1*
Y25864D1*
X131508Y26008D1*
X130008Y31508D2*
Y30606D1*
X128603Y29201D1*
Y26103D1*
X128508Y26008D1*
Y23197D1*
X129874Y21831D1*
Y20642D1*
X130008Y20508D1*
X31508Y50008D2*
X29699D1*
X28298Y51409D1*
X26107D1*
X26008Y51508D1*
X20508Y50008D2*
X21128D1*
X22628Y51508D1*
X26008D1*
X31508Y48158D2*
X26358D1*
X26008Y48508D1*
X20858D1*
X20508Y48158D1*
X31508Y80158D2*
X26358D1*
X26008Y80508D1*
X20858D1*
X20508Y80158D1*
X31508Y82008D2*
X30264D1*
X28880Y83392D1*
X26124D1*
X26008Y83508D1*
X23178D1*
X21898Y82228D1*
X20728D1*
X20508Y82008D1*
X114008Y79508D2*
Y78606D1*
X115322Y77292D1*
Y74194D1*
X115508Y74008D1*
Y71868D1*
X114009Y70369D1*
Y68509D1*
X114008Y68508D1*
X112158Y79508D2*
Y74358D1*
X112508Y74008D1*
X112158Y68508D2*
Y73658D1*
X112508Y74008D1*
X67858Y15508D2*
X68392D1*
X71680Y18796D1*
X73296D1*
X74008Y19508D1*
X79158D1*
X79508Y19858D1*
X66008Y15508D2*
X66059D1*
X67327Y14240D1*
X69605D1*
X71680Y16316D1*
X73816D1*
X74008Y16508D1*
X79508Y18008D2*
X78181D1*
X76742Y16569D1*
X74069D1*
X74008Y16508D1*
X99508Y74008D2*
Y77603D1*
X99859Y77954D1*
Y79507D1*
X99858Y79508D1*
Y68508D2*
Y69885D1*
X99539Y70204D1*
Y73977D1*
X99508Y74008D1*
X98008Y79508D2*
Y78212D1*
X96574Y76779D1*
Y74074D1*
X96508Y74008D1*
X98008Y68508D2*
Y69183D1*
X96569Y70622D1*
Y73947D1*
X96508Y74008D1*
X20508Y16158D2*
D14*
X22840D1*
D13*
X20327Y13646D1*
X10282D1*
Y13782D1*
X10008Y13508D1*
X20508Y16158D2*
D14*
X22096D1*
Y15386D1*
D13*
X23037Y16328D1*
Y23632D1*
X22348Y24321D1*
Y25848D1*
X22508Y26008D1*
X19858Y36508D2*
D14*
X20191D1*
D13*
X21731Y34968D1*
Y31951D1*
X24174Y29508D1*
X26008D1*
X28017D1*
X29001Y30491D1*
X34841D1*
X35776Y31426D1*
D14*
X36508Y32158D1*
X26008Y29508D2*
D13*
X27509D1*
X29561Y27456D1*
Y26061D1*
X29508Y26008D1*
Y18158D1*
X31426Y16240D1*
D14*
X32158Y15508D1*
Y14543D1*
D13*
X34194Y12507D1*
X41007D1*
X42008Y13508D1*
X49858D1*
X51776Y15426D1*
D14*
X52508Y16158D1*
X53862D1*
D13*
X55398Y17694D1*
Y26898D1*
X54508Y26008D1*
Y33858D1*
X52590Y35776D1*
D14*
X51858Y36508D1*
Y38145D1*
D13*
X54382Y40669D1*
Y41882D1*
X54508Y42008D1*
Y49858D1*
X52590Y51776D1*
D14*
X51858Y52508D1*
X42008Y54508D2*
D13*
X43293D1*
X44814Y56029D1*
X50137D1*
X51552Y54614D1*
Y52814D1*
D14*
X51858Y52508D1*
X42008Y54508D2*
D13*
X34158D1*
X32240Y52590D1*
D14*
X31508Y51858D1*
X34158Y54508D2*
D13*
X33931Y54281D1*
X26235D1*
X26008Y54508D1*
X22508Y58008D1*
X26008Y54508D2*
X24449D1*
X23471Y53530D1*
X17043D1*
X16280Y52767D1*
D14*
X16417D1*
X15508Y51858D1*
X22508Y58008D2*
D13*
X26008Y61508D1*
X22508Y58008D2*
Y59236D1*
X21840Y59904D1*
Y66526D1*
X20767Y67599D1*
D14*
X19858Y68508D1*
X26008Y61508D2*
D13*
X33858D1*
X35776Y63426D1*
D14*
X36508Y64158D1*
X42008Y61508D2*
D13*
X49858D1*
X51776Y63426D1*
D14*
X52508Y64158D1*
X33858Y61508D2*
D13*
X42008D1*
X49858D2*
X58008D1*
X60495D1*
X61502Y60501D1*
Y58014D1*
X61508Y58008D1*
X68508Y64158D2*
D14*
Y64116D1*
D13*
X66766Y62374D1*
X61630D1*
X60629Y61374D1*
X60495Y61508D1*
X61508Y58008D2*
Y49880D1*
Y42008D1*
X64158Y47508D2*
D14*
X63880D1*
D13*
X61508Y49880D1*
Y42008D2*
Y33968D1*
Y26008D1*
X64158Y31508D2*
D14*
X63968D1*
D13*
X61508Y33968D1*
Y26008D2*
Y18158D1*
X63426Y16240D1*
D14*
X64158Y15508D1*
X61508Y18158D2*
D13*
Y14896D1*
X63530Y12874D1*
X74642D1*
X74008Y13508D1*
X81858D1*
X83599Y15249D1*
D14*
X84508Y16158D1*
X85044D1*
D13*
X87490Y18605D1*
Y22057D1*
X86265Y23282D1*
Y26008D1*
X86508D1*
Y33858D1*
X84590Y35776D1*
D14*
X83858Y36508D1*
X86508Y33858D2*
D13*
X86276Y34090D1*
Y41776D1*
X86508Y42008D1*
X54508Y33858D2*
X54243Y34123D1*
Y41743D1*
X54508Y42008D1*
X20327Y13646D2*
X22096Y15386D1*
X22508Y26008D2*
X26008Y29508D1*
X86508Y42008D2*
Y50359D1*
Y58008D1*
X83858Y52508D2*
D14*
X84359D1*
D13*
X86508Y50359D1*
Y58008D2*
Y66534D1*
Y74008D1*
Y66534D2*
X85832D1*
X84590Y67776D1*
D14*
X83858Y68508D1*
X86508Y74008D2*
D13*
Y81858D1*
X84590Y83776D1*
D14*
X83858Y84508D1*
X86508Y81858D2*
D13*
X86220Y82146D1*
Y86220D1*
X85023Y87418D1*
X74918D1*
X74008Y86508D1*
X65325D1*
X58008D1*
X63508Y83858D2*
D14*
Y84691D1*
D13*
X65325Y86508D1*
X58008D2*
X49465D1*
X42008D1*
X47508Y83858D2*
D14*
Y84551D1*
D13*
X49465Y86508D1*
X42008D2*
X33535D1*
X26008D1*
X31508Y83858D2*
D14*
Y84481D1*
D13*
X33535Y86508D1*
X15508Y83858D2*
D14*
Y83758D1*
D13*
X17534Y85784D1*
X25284D1*
X26008Y86508D1*
X22508Y90008D1*
X26008Y93508D1*
X19858Y100508D2*
D14*
X20126D1*
D13*
X21577Y99057D1*
Y90939D1*
X22508Y90008D1*
X26008Y93508D2*
X34977D1*
X42008D1*
X34977D2*
Y94627D1*
X35776Y95426D1*
D14*
X36508Y96158D1*
X42008Y93508D2*
D13*
X50922D1*
X58008D1*
X52508Y96158D2*
D14*
Y95094D1*
D13*
X50922Y93508D1*
X58008D2*
X67116D1*
X74008D1*
X68508Y96158D2*
D14*
Y94900D1*
D13*
X67116Y93508D1*
X74008D2*
X82649D1*
X90008D1*
X82649D2*
Y94299D1*
X83776Y95426D1*
D14*
X84508Y96158D1*
X90008Y93508D2*
D13*
X93508Y90008D1*
X100508Y96158D2*
D14*
Y95979D1*
D13*
X99031Y94502D1*
X91002D1*
X90008Y93508D1*
X93508Y90008D2*
Y80609D1*
Y74008D1*
Y65557D1*
Y58008D1*
X96158Y79508D2*
D14*
X94609D1*
D13*
X93508Y80609D1*
X96158Y63508D2*
D14*
X95557D1*
D13*
X93508Y65557D1*
Y58008D2*
Y48949D1*
Y42008D1*
Y33007D1*
Y26008D1*
X96158Y31508D2*
D14*
X95007D1*
D13*
X93508Y33007D1*
X96158Y47508D2*
D14*
X94949D1*
D13*
X93508Y48949D1*
Y26008D2*
Y18158D1*
X95426Y16240D1*
D14*
X96158Y15508D1*
X93508Y18158D2*
D13*
Y16095D1*
X96619Y12984D1*
X105485D1*
X106008Y13508D1*
X114417D1*
X116275D1*
X119001Y16234D1*
Y24059D1*
X118331Y24729D1*
Y26008D1*
X118508D1*
X114417Y13508D2*
Y14067D1*
X115776Y15426D1*
D14*
X116508Y16158D1*
X118508Y42008D2*
D13*
Y50837D1*
Y58008D1*
Y26008D2*
Y34765D1*
Y42008D1*
X125508Y26008D2*
Y33114D1*
Y42008D1*
Y48527D1*
Y58008D1*
X115858Y52508D2*
D14*
X116837D1*
D13*
X118508Y50837D1*
X115858Y36508D2*
D14*
X116764D1*
D13*
X118508Y34765D1*
X128158Y31508D2*
D14*
X127115D1*
D13*
X125508Y33114D1*
X128158Y47508D2*
D14*
X126527D1*
D13*
X125508Y48527D1*
Y26008D2*
Y16504D1*
D14*
X126504Y15508D1*
X128158D1*
X118508Y58008D2*
D13*
Y66084D1*
Y74008D1*
Y82663D1*
Y90008D1*
Y98542D1*
Y106008D1*
X125508D2*
Y96976D1*
Y90008D1*
Y81348D1*
Y74008D1*
Y64992D1*
Y58008D1*
X115858Y84508D2*
D14*
X116663D1*
D13*
X118508Y82663D1*
X115858Y68508D2*
D14*
X116084D1*
D13*
X118508Y66084D1*
X115858Y100508D2*
D14*
X116542D1*
D13*
X118508Y98542D1*
X128158Y63508D2*
D14*
X126992D1*
D13*
X125508Y64992D1*
X128158Y79508D2*
D14*
X127348D1*
D13*
X125508Y81348D1*
X128158Y95508D2*
D14*
X126976D1*
D13*
X125508Y96976D1*
Y106008D2*
Y112800D1*
Y122008D1*
X128158Y111508D2*
D14*
X126800D1*
D13*
X125508Y112800D1*
Y122008D2*
X122008Y125508D1*
X118508Y106008D2*
Y116115D1*
X115638Y118985D1*
X114423D1*
X106485D1*
X106008Y118508D1*
X114423Y118985D2*
X115858Y117550D1*
D14*
Y116508D1*
X132508Y128158D2*
Y127552D1*
D13*
X131412Y126456D1*
X122956D1*
X122008Y125508D1*
X58008D2*
X66929D1*
X74008D1*
X83393D1*
X90008D1*
X98406D1*
X106008D1*
X114619D1*
X122008D1*
X106008Y118508D2*
X97322D1*
X90008D1*
X81172D1*
X74008D1*
X65339D1*
X58008D1*
X79508Y115858D2*
D14*
Y116844D1*
D13*
X81172Y118508D1*
X95508Y115858D2*
D14*
Y116694D1*
D13*
X97322Y118508D1*
X116508Y128158D2*
D14*
Y127397D1*
D13*
X114619Y125508D1*
X100508Y128158D2*
D14*
Y127610D1*
D13*
X98406Y125508D1*
X84508Y128158D2*
D14*
Y126623D1*
D13*
X83393Y125508D1*
X68508Y128158D2*
D14*
Y127087D1*
D13*
X66929Y125508D1*
X65339Y118508D2*
Y117689D1*
X64417Y116767D1*
D14*
X63508Y115858D1*
X58008Y118508D2*
D13*
X48465D1*
X42008D1*
X33218D1*
X26008D1*
X22508Y122008D1*
X26008Y125508D1*
X34280D1*
X42008D1*
X51156D1*
X58008D1*
X47508Y115858D2*
D14*
Y116893D1*
D13*
Y117551D1*
X48465Y118508D1*
X31508Y115858D2*
D14*
Y116798D1*
D13*
X33218Y118508D1*
X36508Y128158D2*
D14*
Y127736D1*
D13*
X34280Y125508D1*
X52508Y128158D2*
D14*
Y126860D1*
D13*
X51156Y125508D1*
X19858Y132508D2*
D14*
X20460D1*
D13*
X21696Y131272D1*
Y122820D1*
X22508Y122008D1*
X15508Y115858D2*
D14*
Y116019D1*
D13*
X17163Y117674D1*
X25174D1*
X26008Y118508D1*
X126504Y15508D2*
X125644D1*
X128301Y12851D1*
X136799D1*
X137455Y13508D1*
X138008D1*
X131858Y15508D2*
D15*
Y15431D1*
X132434D1*
X136512Y19508D1*
X138008D1*
X130008Y15508D2*
X131375Y14141D1*
X134253D1*
X136620Y16508D1*
X138008D1*
X10008Y19508D2*
X14002D1*
X14352Y19858D1*
X15508D1*
Y18008D2*
X14414D1*
X13136Y16730D1*
X9786D1*
X10008Y16508D1*
D17*
X15508Y19858D3*
Y18008D3*
Y16158D3*
X20508D3*
Y18008D3*
Y19858D3*
D18*
X10008Y16508D3*
D19*
X11258D3*
X8758D3*
D18*
X10008Y13508D3*
Y19508D3*
D19*
X11258D3*
X8758D3*
X11258Y13508D3*
X8758D3*
D18*
X10008Y22508D3*
D19*
X11258D3*
X8758D3*
D21*
X16158Y31508D3*
X18008D3*
X19858D3*
Y36508D3*
X18008D3*
X16158D3*
D22*
X19508Y26008D3*
D19*
Y27258D3*
Y24758D3*
D22*
X22508Y26008D3*
X16508D3*
D19*
Y27258D3*
Y24758D3*
X22508Y27258D3*
Y24758D3*
D22*
X13508Y26008D3*
D19*
Y27258D3*
Y24758D3*
D17*
X31508Y35858D3*
Y34008D3*
Y32158D3*
X36508D3*
Y34008D3*
Y35858D3*
D18*
X26008Y32508D3*
D19*
X27258D3*
X24758D3*
D18*
X26008Y29508D3*
Y35508D3*
D19*
X27258D3*
X24758D3*
X27258Y29508D3*
X24758D3*
D18*
X26008Y38508D3*
D19*
X27258D3*
X24758D3*
D21*
X35858Y20508D3*
X34008D3*
X32158D3*
Y15508D3*
X34008D3*
X35858D3*
D22*
X32508Y26008D3*
D19*
Y24758D3*
Y27258D3*
D22*
X29508Y26008D3*
X35508D3*
D19*
Y24758D3*
Y27258D3*
X29508Y24758D3*
Y27258D3*
D22*
X38508Y26008D3*
D19*
Y24758D3*
Y27258D3*
D17*
X47508Y19858D3*
Y18008D3*
Y16158D3*
X52508D3*
Y18008D3*
Y19858D3*
D18*
X42008Y16508D3*
D19*
X43258D3*
X40758D3*
D18*
X42008Y13508D3*
Y19508D3*
D19*
X43258D3*
X40758D3*
X43258Y13508D3*
X40758D3*
D18*
X42008Y22508D3*
D19*
X43258D3*
X40758D3*
D21*
X48158Y31508D3*
X50008D3*
X51858D3*
Y36508D3*
X50008D3*
X48158D3*
D22*
X51508Y26008D3*
D19*
Y27258D3*
Y24758D3*
D22*
X54508Y26008D3*
X48508D3*
D19*
Y27258D3*
Y24758D3*
X54508Y27258D3*
Y24758D3*
D22*
X45508Y26008D3*
D19*
Y27258D3*
Y24758D3*
D21*
X48158Y47508D3*
X50008D3*
X51858D3*
Y52508D3*
X50008D3*
X48158D3*
D22*
X51508Y42008D3*
D19*
Y43258D3*
Y40758D3*
D22*
X54508Y42008D3*
X48508D3*
D19*
Y43258D3*
Y40758D3*
X54508Y43258D3*
Y40758D3*
D22*
X45508Y42008D3*
D19*
Y43258D3*
Y40758D3*
D17*
X36508Y48158D3*
Y50008D3*
Y51858D3*
X31508D3*
Y50008D3*
Y48158D3*
D18*
X42008Y51508D3*
D19*
X40758D3*
X43258D3*
D18*
X42008Y54508D3*
Y48508D3*
D19*
X40758D3*
X43258D3*
X40758Y54508D3*
X43258D3*
D18*
X42008Y45508D3*
D19*
X40758D3*
X43258D3*
D17*
X20508Y48158D3*
Y50008D3*
Y51858D3*
X15508D3*
Y50008D3*
Y48158D3*
D18*
X26008Y51508D3*
D19*
X24758D3*
X27258D3*
D18*
X26008Y54508D3*
Y48508D3*
D19*
X24758D3*
X27258D3*
X24758Y54508D3*
X27258D3*
D18*
X26008Y45508D3*
D19*
X24758D3*
X27258D3*
D21*
X16158Y63508D3*
X18008D3*
X19858D3*
Y68508D3*
X18008D3*
X16158D3*
D22*
X19508Y58008D3*
D19*
Y59258D3*
Y56758D3*
D22*
X22508Y58008D3*
X16508D3*
D19*
Y59258D3*
Y56758D3*
X22508Y59258D3*
Y56758D3*
D22*
X13508Y58008D3*
D19*
Y59258D3*
Y56758D3*
D17*
X31508Y67858D3*
Y66008D3*
Y64158D3*
X36508D3*
Y66008D3*
Y67858D3*
D18*
X26008Y64508D3*
D19*
X27258D3*
X24758D3*
D18*
X26008Y61508D3*
Y67508D3*
D19*
X27258D3*
X24758D3*
X27258Y61508D3*
X24758D3*
D18*
X26008Y70508D3*
D19*
X27258D3*
X24758D3*
D17*
X47508Y67858D3*
Y66008D3*
Y64158D3*
X52508D3*
Y66008D3*
Y67858D3*
D18*
X42008Y64508D3*
D19*
X43258D3*
X40758D3*
D18*
X42008Y61508D3*
Y67508D3*
D19*
X43258D3*
X40758D3*
X43258Y61508D3*
X40758D3*
D18*
X42008Y70508D3*
D19*
X43258D3*
X40758D3*
D17*
X63508Y67858D3*
Y66008D3*
Y64158D3*
X68508D3*
Y66008D3*
Y67858D3*
D18*
X58008Y64508D3*
D19*
X59258D3*
X56758D3*
D18*
X58008Y61508D3*
Y67508D3*
D19*
X59258D3*
X56758D3*
X59258Y61508D3*
X56758D3*
D18*
X58008Y70508D3*
D19*
X59258D3*
X56758D3*
D21*
X67858Y52508D3*
X66008D3*
X64158D3*
Y47508D3*
X66008D3*
X67858D3*
D22*
X64508Y58008D3*
D19*
Y56758D3*
Y59258D3*
D22*
X61508Y58008D3*
X67508D3*
D19*
Y56758D3*
Y59258D3*
X61508Y56758D3*
Y59258D3*
D22*
X70508Y58008D3*
D19*
Y56758D3*
Y59258D3*
D21*
X67858Y36508D3*
X66008D3*
X64158D3*
Y31508D3*
X66008D3*
X67858D3*
D22*
X64508Y42008D3*
D19*
Y40758D3*
Y43258D3*
D22*
X61508Y42008D3*
X67508D3*
D19*
Y40758D3*
Y43258D3*
X61508Y40758D3*
Y43258D3*
D22*
X70508Y42008D3*
D19*
Y40758D3*
Y43258D3*
D21*
X67858Y20508D3*
X66008D3*
X64158D3*
Y15508D3*
X66008D3*
X67858D3*
D22*
X64508Y26008D3*
D19*
Y24758D3*
Y27258D3*
D22*
X61508Y26008D3*
X67508D3*
D19*
Y24758D3*
Y27258D3*
X61508Y24758D3*
Y27258D3*
D22*
X70508Y26008D3*
D19*
Y24758D3*
Y27258D3*
D17*
X79508Y19858D3*
Y18008D3*
Y16158D3*
X84508D3*
Y18008D3*
Y19858D3*
D18*
X74008Y16508D3*
D19*
X75258D3*
X72758D3*
D18*
X74008Y13508D3*
Y19508D3*
D19*
X75258D3*
X72758D3*
X75258Y13508D3*
X72758D3*
D18*
X74008Y22508D3*
D19*
X75258D3*
X72758D3*
D21*
X80158Y31508D3*
X82008D3*
X83858D3*
Y36508D3*
X82008D3*
X80158D3*
D22*
X83508Y26008D3*
D19*
Y27258D3*
Y24758D3*
D22*
X86508Y26008D3*
X80508D3*
D19*
Y27258D3*
Y24758D3*
X86508Y27258D3*
Y24758D3*
D22*
X77508Y26008D3*
D19*
Y27258D3*
Y24758D3*
D21*
X80158Y47508D3*
X82008D3*
X83858D3*
Y52508D3*
X82008D3*
X80158D3*
D22*
X83508Y42008D3*
D19*
Y43258D3*
Y40758D3*
D22*
X86508Y42008D3*
X80508D3*
D19*
Y43258D3*
Y40758D3*
X86508Y43258D3*
Y40758D3*
D22*
X77508Y42008D3*
D19*
Y43258D3*
Y40758D3*
D21*
X80158Y63508D3*
X82008D3*
X83858D3*
Y68508D3*
X82008D3*
X80158D3*
D22*
X83508Y58008D3*
D19*
Y59258D3*
Y56758D3*
D22*
X86508Y58008D3*
X80508D3*
D19*
Y59258D3*
Y56758D3*
X86508Y59258D3*
Y56758D3*
D22*
X77508Y58008D3*
D19*
Y59258D3*
Y56758D3*
D21*
X80158Y79508D3*
X82008D3*
X83858D3*
Y84508D3*
X82008D3*
X80158D3*
D22*
X83508Y74008D3*
D19*
Y75258D3*
Y72758D3*
D22*
X86508Y74008D3*
X80508D3*
D19*
Y75258D3*
Y72758D3*
X86508Y75258D3*
Y72758D3*
D22*
X77508Y74008D3*
D19*
Y75258D3*
Y72758D3*
D17*
X68508Y80158D3*
Y82008D3*
Y83858D3*
X63508D3*
Y82008D3*
Y80158D3*
D18*
X74008Y83508D3*
D19*
X72758D3*
X75258D3*
D18*
X74008Y86508D3*
Y80508D3*
D19*
X72758D3*
X75258D3*
X72758Y86508D3*
X75258D3*
D18*
X74008Y77508D3*
D19*
X72758D3*
X75258D3*
D17*
X52508Y80158D3*
Y82008D3*
Y83858D3*
X47508D3*
Y82008D3*
Y80158D3*
D18*
X58008Y83508D3*
D19*
X56758D3*
X59258D3*
D18*
X58008Y86508D3*
Y80508D3*
D19*
X56758D3*
X59258D3*
X56758Y86508D3*
X59258D3*
D18*
X58008Y77508D3*
D19*
X56758D3*
X59258D3*
D17*
X36508Y80158D3*
Y82008D3*
Y83858D3*
X31508D3*
Y82008D3*
Y80158D3*
D18*
X42008Y83508D3*
D19*
X40758D3*
X43258D3*
D18*
X42008Y86508D3*
Y80508D3*
D19*
X40758D3*
X43258D3*
X40758Y86508D3*
X43258D3*
D18*
X42008Y77508D3*
D19*
X40758D3*
X43258D3*
D17*
X20508Y80158D3*
Y82008D3*
Y83858D3*
X15508D3*
Y82008D3*
Y80158D3*
D18*
X26008Y83508D3*
D19*
X24758D3*
X27258D3*
D18*
X26008Y86508D3*
Y80508D3*
D19*
X24758D3*
X27258D3*
X24758Y86508D3*
X27258D3*
D18*
X26008Y77508D3*
D19*
X24758D3*
X27258D3*
D21*
X16158Y95508D3*
X18008D3*
X19858D3*
Y100508D3*
X18008D3*
X16158D3*
D22*
X19508Y90008D3*
D19*
Y91258D3*
Y88758D3*
D22*
X22508Y90008D3*
X16508D3*
D19*
Y91258D3*
Y88758D3*
X22508Y91258D3*
Y88758D3*
D22*
X13508Y90008D3*
D19*
Y91258D3*
Y88758D3*
D17*
X31508Y99858D3*
Y98008D3*
Y96158D3*
X36508D3*
Y98008D3*
Y99858D3*
D18*
X26008Y96508D3*
D19*
X27258D3*
X24758D3*
D18*
X26008Y93508D3*
Y99508D3*
D19*
X27258D3*
X24758D3*
X27258Y93508D3*
X24758D3*
D18*
X26008Y102508D3*
D19*
X27258D3*
X24758D3*
D17*
X47508Y99858D3*
Y98008D3*
Y96158D3*
X52508D3*
Y98008D3*
Y99858D3*
D18*
X42008Y96508D3*
D19*
X43258D3*
X40758D3*
D18*
X42008Y93508D3*
Y99508D3*
D19*
X43258D3*
X40758D3*
X43258Y93508D3*
X40758D3*
D18*
X42008Y102508D3*
D19*
X43258D3*
X40758D3*
D17*
X63508Y99858D3*
Y98008D3*
Y96158D3*
X68508D3*
Y98008D3*
Y99858D3*
D18*
X58008Y96508D3*
D19*
X59258D3*
X56758D3*
D18*
X58008Y93508D3*
Y99508D3*
D19*
X59258D3*
X56758D3*
X59258Y93508D3*
X56758D3*
D18*
X58008Y102508D3*
D19*
X59258D3*
X56758D3*
D17*
X79508Y99858D3*
Y98008D3*
Y96158D3*
X84508D3*
Y98008D3*
Y99858D3*
D18*
X74008Y96508D3*
D19*
X75258D3*
X72758D3*
D18*
X74008Y93508D3*
Y99508D3*
D19*
X75258D3*
X72758D3*
X75258Y93508D3*
X72758D3*
D18*
X74008Y102508D3*
D19*
X75258D3*
X72758D3*
D17*
X95508Y99858D3*
Y98008D3*
Y96158D3*
X100508D3*
Y98008D3*
Y99858D3*
D18*
X90008Y96508D3*
D19*
X91258D3*
X88758D3*
D18*
X90008Y93508D3*
Y99508D3*
D19*
X91258D3*
X88758D3*
X91258Y93508D3*
X88758D3*
D18*
X90008Y102508D3*
D19*
X91258D3*
X88758D3*
D21*
X99858Y84508D3*
X98008D3*
X96158D3*
Y79508D3*
X98008D3*
X99858D3*
D22*
X96508Y90008D3*
D19*
Y88758D3*
Y91258D3*
D22*
X93508Y90008D3*
X99508D3*
D19*
Y88758D3*
Y91258D3*
X93508Y88758D3*
Y91258D3*
D22*
X102508Y90008D3*
D19*
Y88758D3*
Y91258D3*
D21*
X99858Y68508D3*
X98008D3*
X96158D3*
Y63508D3*
X98008D3*
X99858D3*
D22*
X96508Y74008D3*
D19*
Y72758D3*
Y75258D3*
D22*
X93508Y74008D3*
X99508D3*
D19*
Y72758D3*
Y75258D3*
X93508Y72758D3*
Y75258D3*
D22*
X102508Y74008D3*
D19*
Y72758D3*
Y75258D3*
D21*
X99858Y52508D3*
X98008D3*
X96158D3*
Y47508D3*
X98008D3*
X99858D3*
D22*
X96508Y58008D3*
D19*
Y56758D3*
Y59258D3*
D22*
X93508Y58008D3*
X99508D3*
D19*
Y56758D3*
Y59258D3*
X93508Y56758D3*
Y59258D3*
D22*
X102508Y58008D3*
D19*
Y56758D3*
Y59258D3*
D21*
X99858Y36508D3*
X98008D3*
X96158D3*
Y31508D3*
X98008D3*
X99858D3*
D22*
X96508Y42008D3*
D19*
Y40758D3*
Y43258D3*
D22*
X93508Y42008D3*
X99508D3*
D19*
Y40758D3*
Y43258D3*
X93508Y40758D3*
Y43258D3*
D22*
X102508Y42008D3*
D19*
Y40758D3*
Y43258D3*
D21*
X99858Y20508D3*
X98008D3*
X96158D3*
Y15508D3*
X98008D3*
X99858D3*
D22*
X96508Y26008D3*
D19*
Y24758D3*
Y27258D3*
D22*
X93508Y26008D3*
X99508D3*
D19*
Y24758D3*
Y27258D3*
X93508Y24758D3*
Y27258D3*
D22*
X102508Y26008D3*
D19*
Y24758D3*
Y27258D3*
D17*
X111508Y19858D3*
Y18008D3*
Y16158D3*
X116508D3*
Y18008D3*
Y19858D3*
D18*
X106008Y16508D3*
D19*
X107258D3*
X104758D3*
D18*
X106008Y13508D3*
Y19508D3*
D19*
X107258D3*
X104758D3*
X107258Y13508D3*
X104758D3*
D18*
X106008Y22508D3*
D19*
X107258D3*
X104758D3*
D21*
X112158Y31508D3*
X114008D3*
X115858D3*
Y36508D3*
X114008D3*
X112158D3*
D22*
X115508Y26008D3*
D19*
Y27258D3*
Y24758D3*
D22*
X118508Y26008D3*
X112508D3*
D19*
Y27258D3*
Y24758D3*
X118508Y27258D3*
Y24758D3*
D22*
X109508Y26008D3*
D19*
Y27258D3*
Y24758D3*
D21*
X112158Y47508D3*
X114008D3*
X115858D3*
Y52508D3*
X114008D3*
X112158D3*
D22*
X115508Y42008D3*
D19*
Y43258D3*
Y40758D3*
D22*
X118508Y42008D3*
X112508D3*
D19*
Y43258D3*
Y40758D3*
X118508Y43258D3*
Y40758D3*
D22*
X109508Y42008D3*
D19*
Y43258D3*
Y40758D3*
D21*
X112158Y63508D3*
X114008D3*
X115858D3*
Y68508D3*
X114008D3*
X112158D3*
D22*
X115508Y58008D3*
D19*
Y59258D3*
Y56758D3*
D22*
X118508Y58008D3*
X112508D3*
D19*
Y59258D3*
Y56758D3*
X118508Y59258D3*
Y56758D3*
D22*
X109508Y58008D3*
D19*
Y59258D3*
Y56758D3*
D21*
X112158Y79508D3*
X114008D3*
X115858D3*
Y84508D3*
X114008D3*
X112158D3*
D22*
X115508Y74008D3*
D19*
Y75258D3*
Y72758D3*
D22*
X118508Y74008D3*
X112508D3*
D19*
Y75258D3*
Y72758D3*
X118508Y75258D3*
Y72758D3*
D22*
X109508Y74008D3*
D19*
Y75258D3*
Y72758D3*
D21*
X112158Y95508D3*
X114008D3*
X115858D3*
Y100508D3*
X114008D3*
X112158D3*
D22*
X115508Y90008D3*
D19*
Y91258D3*
Y88758D3*
D22*
X118508Y90008D3*
X112508D3*
D19*
Y91258D3*
Y88758D3*
X118508Y91258D3*
Y88758D3*
D22*
X109508Y90008D3*
D19*
Y91258D3*
Y88758D3*
D21*
X112158Y111508D3*
X114008D3*
X115858D3*
Y116508D3*
X114008D3*
X112158D3*
D22*
X115508Y106008D3*
D19*
Y107258D3*
Y104758D3*
D22*
X118508Y106008D3*
X112508D3*
D19*
Y107258D3*
Y104758D3*
X118508Y107258D3*
Y104758D3*
D22*
X109508Y106008D3*
D19*
Y107258D3*
Y104758D3*
D17*
X100508Y112158D3*
Y114008D3*
Y115858D3*
X95508D3*
Y114008D3*
Y112158D3*
D18*
X106008Y115508D3*
D19*
X104758D3*
X107258D3*
D18*
X106008Y118508D3*
Y112508D3*
D19*
X104758D3*
X107258D3*
X104758Y118508D3*
X107258D3*
D18*
X106008Y109508D3*
D19*
X104758D3*
X107258D3*
D17*
X84508Y112158D3*
Y114008D3*
Y115858D3*
X79508D3*
Y114008D3*
Y112158D3*
D18*
X90008Y115508D3*
D19*
X88758D3*
X91258D3*
D18*
X90008Y118508D3*
Y112508D3*
D19*
X88758D3*
X91258D3*
X88758Y118508D3*
X91258D3*
D18*
X90008Y109508D3*
D19*
X88758D3*
X91258D3*
D17*
X68508Y112158D3*
Y114008D3*
Y115858D3*
X63508D3*
Y114008D3*
Y112158D3*
D18*
X74008Y115508D3*
D19*
X72758D3*
X75258D3*
D18*
X74008Y118508D3*
Y112508D3*
D19*
X72758D3*
X75258D3*
X72758Y118508D3*
X75258D3*
D18*
X74008Y109508D3*
D19*
X72758D3*
X75258D3*
D17*
X52508Y112158D3*
Y114008D3*
Y115858D3*
X47508D3*
Y114008D3*
Y112158D3*
D18*
X58008Y115508D3*
D19*
X56758D3*
X59258D3*
D18*
X58008Y118508D3*
Y112508D3*
D19*
X56758D3*
X59258D3*
X56758Y118508D3*
X59258D3*
D18*
X58008Y109508D3*
D19*
X56758D3*
X59258D3*
D17*
X36508Y112158D3*
Y114008D3*
Y115858D3*
X31508D3*
Y114008D3*
Y112158D3*
D18*
X42008Y115508D3*
D19*
X40758D3*
X43258D3*
D18*
X42008Y118508D3*
Y112508D3*
D19*
X40758D3*
X43258D3*
X40758Y118508D3*
X43258D3*
D18*
X42008Y109508D3*
D19*
X40758D3*
X43258D3*
D17*
X20508Y112158D3*
Y114008D3*
Y115858D3*
X15508D3*
Y114008D3*
Y112158D3*
D18*
X26008Y115508D3*
D19*
X24758D3*
X27258D3*
D18*
X26008Y118508D3*
Y112508D3*
D19*
X24758D3*
X27258D3*
X24758Y118508D3*
X27258D3*
D18*
X26008Y109508D3*
D19*
X24758D3*
X27258D3*
D21*
X16158Y127508D3*
X18008D3*
X19858D3*
Y132508D3*
X18008D3*
X16158D3*
D22*
X19508Y122008D3*
D19*
Y123258D3*
Y120758D3*
D22*
X22508Y122008D3*
X16508D3*
D19*
Y123258D3*
Y120758D3*
X22508Y123258D3*
Y120758D3*
D22*
X13508Y122008D3*
D19*
Y123258D3*
Y120758D3*
D17*
X31508Y131858D3*
Y130008D3*
Y128158D3*
X36508D3*
Y130008D3*
Y131858D3*
D18*
X26008Y128508D3*
D19*
X27258D3*
X24758D3*
D18*
X26008Y125508D3*
Y131508D3*
D19*
X27258D3*
X24758D3*
X27258Y125508D3*
X24758D3*
D18*
X26008Y134508D3*
D19*
X27258D3*
X24758D3*
D17*
X47508Y131858D3*
Y130008D3*
Y128158D3*
X52508D3*
Y130008D3*
Y131858D3*
D18*
X42008Y128508D3*
D19*
X43258D3*
X40758D3*
D18*
X42008Y125508D3*
Y131508D3*
D19*
X43258D3*
X40758D3*
X43258Y125508D3*
X40758D3*
D18*
X42008Y134508D3*
D19*
X43258D3*
X40758D3*
D17*
X63508Y131858D3*
Y130008D3*
Y128158D3*
X68508D3*
Y130008D3*
Y131858D3*
D18*
X58008Y128508D3*
D19*
X59258D3*
X56758D3*
D18*
X58008Y125508D3*
Y131508D3*
D19*
X59258D3*
X56758D3*
X59258Y125508D3*
X56758D3*
D18*
X58008Y134508D3*
D19*
X59258D3*
X56758D3*
D17*
X79508Y131858D3*
Y130008D3*
Y128158D3*
X84508D3*
Y130008D3*
Y131858D3*
D18*
X74008Y128508D3*
D19*
X75258D3*
X72758D3*
D18*
X74008Y125508D3*
Y131508D3*
D19*
X75258D3*
X72758D3*
X75258Y125508D3*
X72758D3*
D18*
X74008Y134508D3*
D19*
X75258D3*
X72758D3*
D17*
X95508Y131858D3*
Y130008D3*
Y128158D3*
X100508D3*
Y130008D3*
Y131858D3*
D18*
X90008Y128508D3*
D19*
X91258D3*
X88758D3*
D18*
X90008Y125508D3*
Y131508D3*
D19*
X91258D3*
X88758D3*
X91258Y125508D3*
X88758D3*
D18*
X90008Y134508D3*
D19*
X91258D3*
X88758D3*
D17*
X111508Y131858D3*
Y130008D3*
Y128158D3*
X116508D3*
Y130008D3*
Y131858D3*
D18*
X106008Y128508D3*
D19*
X107258D3*
X104758D3*
D18*
X106008Y125508D3*
Y131508D3*
D19*
X107258D3*
X104758D3*
X107258Y125508D3*
X104758D3*
D18*
X106008Y134508D3*
D19*
X107258D3*
X104758D3*
D17*
X127508Y131858D3*
Y130008D3*
Y128158D3*
X132508D3*
Y130008D3*
Y131858D3*
D18*
X122008Y128508D3*
D19*
X123258D3*
X120758D3*
D18*
X122008Y125508D3*
Y131508D3*
D19*
X123258D3*
X120758D3*
X123258Y125508D3*
X120758D3*
D18*
X122008Y134508D3*
D19*
X123258D3*
X120758D3*
D21*
X131858Y116508D3*
X130008D3*
X128158D3*
Y111508D3*
X130008D3*
X131858D3*
D22*
X128508Y122008D3*
D19*
Y120758D3*
Y123258D3*
D22*
X125508Y122008D3*
X131508D3*
D19*
Y120758D3*
Y123258D3*
X125508Y120758D3*
Y123258D3*
D22*
X134508Y122008D3*
D19*
Y120758D3*
Y123258D3*
D21*
X131858Y100508D3*
X130008D3*
X128158D3*
Y95508D3*
X130008D3*
X131858D3*
D22*
X128508Y106008D3*
D19*
Y104758D3*
Y107258D3*
D22*
X125508Y106008D3*
X131508D3*
D19*
Y104758D3*
Y107258D3*
X125508Y104758D3*
Y107258D3*
D22*
X134508Y106008D3*
D19*
Y104758D3*
Y107258D3*
D21*
X131858Y84508D3*
X130008D3*
X128158D3*
Y79508D3*
X130008D3*
X131858D3*
D22*
X128508Y90008D3*
D19*
Y88758D3*
Y91258D3*
D22*
X125508Y90008D3*
X131508D3*
D19*
Y88758D3*
Y91258D3*
X125508Y88758D3*
Y91258D3*
D22*
X134508Y90008D3*
D19*
Y88758D3*
Y91258D3*
D21*
X131858Y68508D3*
X130008D3*
X128158D3*
Y63508D3*
X130008D3*
X131858D3*
D22*
X128508Y74008D3*
D19*
Y72758D3*
Y75258D3*
D22*
X125508Y74008D3*
X131508D3*
D19*
Y72758D3*
Y75258D3*
X125508Y72758D3*
Y75258D3*
D22*
X134508Y74008D3*
D19*
Y72758D3*
Y75258D3*
D21*
X131858Y52508D3*
X130008D3*
X128158D3*
Y47508D3*
X130008D3*
X131858D3*
D22*
X128508Y58008D3*
D19*
Y56758D3*
Y59258D3*
D22*
X125508Y58008D3*
X131508D3*
D19*
Y56758D3*
Y59258D3*
X125508Y56758D3*
Y59258D3*
D22*
X134508Y58008D3*
D19*
Y56758D3*
Y59258D3*
D21*
X131858Y36508D3*
X130008D3*
X128158D3*
Y31508D3*
X130008D3*
X131858D3*
D22*
X128508Y42008D3*
D19*
Y40758D3*
Y43258D3*
D22*
X125508Y42008D3*
X131508D3*
D19*
Y40758D3*
Y43258D3*
X125508Y40758D3*
Y43258D3*
D22*
X134508Y42008D3*
D19*
Y40758D3*
Y43258D3*
D21*
X131858Y20508D3*
X130008D3*
X128158D3*
Y15508D3*
X130008D3*
X131858D3*
D22*
X128508Y26008D3*
D19*
Y24758D3*
Y27258D3*
D22*
X125508Y26008D3*
X131508D3*
D19*
Y24758D3*
Y27258D3*
X125508Y24758D3*
Y27258D3*
D22*
X134508Y26008D3*
D19*
Y24758D3*
Y27258D3*
D18*
X138008Y19508D3*
D19*
X136758D3*
X139258D3*
D18*
X138008Y22508D3*
Y16508D3*
D19*
X136758D3*
X139258D3*
X136758Y22508D3*
X139258D3*
D18*
X138008Y13508D3*
D19*
X136758D3*
X139258D3*
M02*
