M48
METRIC,0000.00
T01C0.635
T02C0.75
%
T01
X+001531Y+002270
X+002386Y+001830
X+002801Y+002262
X+004401Y+002241
X+006046Y+002265
X+006824Y+002247
X+007332Y+003096
X+006780Y+007887
X+005277Y+007903
X+003605Y+007871
X+002022Y+007938
T02
X+007001Y+001382
X+007001Y+001632
X+007301Y+001632
X+007301Y+001382
X+007601Y+001382
X+007601Y+001632
X+006701Y+001632
X+006701Y+001382
X+002186Y+001420
X+002186Y+001670
X+001886Y+001670
X+001886Y+001420
X+001586Y+001420
X+001586Y+001670
X+001286Y+001670
X+001286Y+001420
T00
M30
