G04 DipTrace 2.4.0.2*
%IN64xAPA102Crigid.gtl*%
%MOMM*%
%ADD13C,1.27*%
%ADD14C,1.25*%
%ADD15C,1.0*%
%ADD16C,0.508*%
%ADD17C,0.711*%
%ADD22C,1.778*%
%ADD23R,1.25X2.0*%
%ADD24C,2.0*%
%ADD26O,1.0X1.5*%
%ADD27C,1.372*%
%FSLAX53Y53*%
G04*
G71*
G90*
G75*
G01*
%LNTop*%
%LPD*%
X21858Y15508D2*
D13*
Y16285D1*
X20240Y17902D1*
X18964D1*
X17990D1*
X16619Y19273D1*
Y21234D1*
Y24570D1*
X17795Y25746D1*
X20386D1*
X22241Y23891D1*
X21858Y23508D1*
X16619Y24570D2*
Y32399D1*
X18256Y34036D1*
X19695D1*
X21940Y31791D1*
Y31590D1*
X21858Y31508D1*
X16619Y32399D2*
Y40916D1*
X17741Y42038D1*
X19983D1*
X21998Y40023D1*
Y39648D1*
X21858Y39508D1*
X16619Y40916D2*
Y48915D1*
X17479Y49775D1*
X20674D1*
X21858Y48591D1*
Y47508D1*
X16619Y48915D2*
Y56582D1*
X17839Y57802D1*
X20554D1*
X21932Y56424D1*
Y55582D1*
X21858Y55508D1*
X16619Y56582D2*
Y60562D1*
Y64635D1*
X18301Y66317D1*
X19546D1*
X21986Y63877D1*
Y63636D1*
X21858Y63508D1*
X16619Y64635D2*
Y72484D1*
X17495Y73360D1*
X20674D1*
X21974Y72060D1*
Y71624D1*
X21858Y71508D1*
X26158Y20508D2*
Y18995D1*
X27236Y17917D1*
X31645D1*
X35963D1*
X37858Y16021D1*
Y15508D1*
X26158Y28508D2*
Y27165D1*
X26884Y26440D1*
X31478D1*
X31666D1*
X35868D1*
X37858Y24449D1*
Y23508D1*
X26158Y36508D2*
Y35759D1*
X27870Y34047D1*
X31355D1*
X31628D1*
X37265D1*
X37858Y33454D1*
Y31508D1*
X26158Y44508D2*
Y43855D1*
X27190Y42822D1*
X31360D1*
Y42570D1*
X31553D1*
X32743D1*
X35538D1*
X37858Y40249D1*
Y39508D1*
X26158Y52508D2*
Y51579D1*
X27477Y50260D1*
X31382D1*
X31769D1*
X36330D1*
X37858Y48732D1*
Y47508D1*
X26158Y60508D2*
Y59393D1*
X27558Y57992D1*
X31616D1*
X36754D1*
X37858Y56889D1*
Y55508D1*
X26158Y68508D2*
Y67695D1*
X27477Y66376D1*
X31618D1*
X32030D1*
X35702D1*
X37858Y64220D1*
Y63508D1*
X26158Y76508D2*
Y75753D1*
X28291Y73621D1*
X31693D1*
X36708D1*
X37858Y72470D1*
Y71508D1*
X31645Y17917D2*
X32577Y18849D1*
Y25340D1*
X31478Y26440D1*
X31666D2*
X32454Y27228D1*
Y32947D1*
X31355Y34047D1*
X31628D2*
X32638Y35057D1*
Y41544D1*
X31360Y42822D1*
X31553Y42570D2*
X32521Y43537D1*
Y49121D1*
X31382Y50260D1*
X31769D2*
X32713Y51205D1*
Y56895D1*
X31616Y57992D1*
X32556Y58933D1*
Y65438D1*
X31618Y66376D1*
X32030D2*
X32386Y66732D1*
Y72928D1*
X31693Y73621D1*
X53858Y15508D2*
Y15981D1*
X52204Y17635D1*
X47662D1*
X47459D1*
X44152D1*
X41280Y20508D1*
X42158D1*
Y28508D2*
Y27681D1*
X43172Y26668D1*
X47678D1*
X51918D1*
X53858Y24727D1*
Y23508D1*
Y31508D2*
Y32306D1*
X51936Y34228D1*
X47739D1*
X47509D1*
X43134D1*
X42158Y35204D1*
Y36508D1*
X53858Y39508D2*
Y41257D1*
X52859Y42256D1*
X47809D1*
X42865D1*
X42158Y42964D1*
Y44508D1*
X53858Y47508D2*
Y48208D1*
X52104Y49962D1*
X47573D1*
X43656D1*
X42158Y51460D1*
Y52508D1*
X53858Y55508D2*
Y56564D1*
X52215Y58207D1*
X47363D1*
X47172D1*
X43065D1*
X41802Y59470D1*
Y60508D1*
X42158D1*
X53858Y63508D2*
Y64175D1*
X52165Y65868D1*
X47620D1*
X42931D1*
X42158Y66641D1*
Y68508D1*
X53858Y71508D2*
Y72420D1*
X52457Y73820D1*
X47592D1*
X43954D1*
X42158Y75616D1*
Y76508D1*
X47592Y73820D2*
X48499Y72913D1*
Y66747D1*
X47620Y65868D1*
X48334Y65153D1*
Y59369D1*
X47172Y58207D1*
X47363D2*
X48417Y57152D1*
Y50806D1*
X47573Y49962D1*
X48620Y48916D1*
Y43067D1*
X47809Y42256D1*
X48620Y41446D1*
Y35109D1*
X47739Y34228D1*
X47509D2*
X48620Y33117D1*
Y27609D1*
X47678Y26668D1*
X48358Y25987D1*
Y18535D1*
X47459Y17635D1*
X69858Y15508D2*
Y16148D1*
X68244Y17762D1*
X64115D1*
X63799D1*
X60246D1*
X58158Y19850D1*
Y20508D1*
X69858Y23508D2*
Y23877D1*
X67541Y26193D1*
X63602D1*
X59770D1*
X58158Y27806D1*
Y28508D1*
X69858Y31508D2*
Y32420D1*
X68531Y33747D1*
X63602D1*
X59941D1*
X58158Y35530D1*
Y36508D1*
X69858Y39508D2*
Y40301D1*
X68332Y41827D1*
X63869D1*
X63513D1*
X59744D1*
X58012Y43559D1*
Y44508D1*
X58158D1*
X69858Y47508D2*
Y48469D1*
X68507Y49819D1*
X63837D1*
X63643D1*
X59610D1*
X58158Y51271D1*
Y52508D1*
X69858Y55508D2*
Y55935D1*
X68317Y57477D1*
X63944D1*
X63718D1*
X60109D1*
X58158Y59428D1*
Y60508D1*
X69858Y63508D2*
Y64228D1*
X68392Y65694D1*
X63869D1*
X63567D1*
X60098D1*
X58158Y67633D1*
Y68508D1*
X69858Y71508D2*
Y71841D1*
X68317Y73383D1*
X63417D1*
X60232D1*
X58158Y75457D1*
Y76508D1*
X63417Y73383D2*
X64397Y72403D1*
Y66523D1*
X63567Y65694D1*
X63869D2*
X64641Y64921D1*
Y58400D1*
X63718Y57477D1*
X63944D2*
X64774Y56648D1*
Y50950D1*
X63643Y49819D1*
X63837D2*
X64698Y48958D1*
Y42656D1*
X63869Y41827D1*
X63513D2*
X64454Y40886D1*
Y34598D1*
X63602Y33747D1*
X64515Y32834D1*
Y27106D1*
X63602Y26193D1*
X64781Y25015D1*
Y18744D1*
X63799Y17762D1*
X74158Y20508D2*
Y19893D1*
X75619Y18432D1*
X79025D1*
X80788Y20196D1*
Y24760D1*
X79496Y26053D1*
X76967D1*
X75559D1*
X74158Y27454D1*
Y28508D1*
X80788Y24760D2*
Y31949D1*
X78526Y34211D1*
X75244D1*
X74027Y35427D1*
Y36508D1*
X74158D1*
X80788Y31949D2*
Y40026D1*
X78688Y42126D1*
X75708D1*
X74158Y43676D1*
Y44508D1*
X80788Y40026D2*
Y47780D1*
X80522Y48046D1*
X78365Y50203D1*
X75271D1*
X74158Y51316D1*
Y52508D1*
X80522Y48046D2*
Y56180D1*
X78719Y57982D1*
X75791D1*
X74296Y59478D1*
Y60508D1*
X74158D1*
X80522Y56180D2*
Y64088D1*
X78589Y66021D1*
X75365D1*
X74296Y67090D1*
Y68508D1*
X74158D1*
X80522Y64088D2*
Y72126D1*
X78589Y74059D1*
X75574D1*
X74296Y75337D1*
Y76508D1*
X74158D1*
X18964Y17999D2*
Y17902D1*
X47662Y17708D2*
Y17635D1*
X76967Y26259D2*
Y26053D1*
X64115Y17947D2*
Y17762D1*
X31661Y17915D2*
X31645Y17917D1*
X11258Y21818D2*
X10633D1*
X16035D1*
X16619Y21234D1*
X82758Y21818D2*
Y22166D1*
X80788Y20196D1*
X83383Y21818D2*
D14*
X82758D1*
X11258D2*
X10633D1*
X16545Y60562D2*
D13*
X16619D1*
X32743Y42640D2*
Y42570D1*
X18158Y23508D2*
D16*
Y20508D1*
X20008Y23508D2*
Y20508D1*
X82758Y19278D2*
X82101D1*
X78331Y15508D1*
X77858D1*
X82758Y19278D2*
D17*
X83383D1*
X82758Y16738D2*
D16*
X82063D1*
X79414Y14090D1*
X77328D1*
X76045Y15373D1*
Y15545D1*
X76008Y15508D1*
X82758Y16738D2*
D17*
X83383D1*
X18158Y31508D2*
D16*
Y28508D1*
X20008Y31508D2*
Y28508D1*
X18158Y39508D2*
Y36508D1*
X20008Y39508D2*
Y36508D1*
X18158Y47508D2*
Y44508D1*
X20008Y47508D2*
Y44508D1*
X18158Y55508D2*
Y52508D1*
X20008Y55508D2*
Y52508D1*
X18158Y63508D2*
Y60508D1*
X20008Y63508D2*
Y60508D1*
X18158Y71508D2*
Y68508D1*
X20008Y71508D2*
Y68508D1*
X29858Y71508D2*
Y68508D1*
X28008Y71508D2*
Y68508D1*
X61858Y15508D2*
X66158D1*
X60008D2*
X60030D1*
X61444Y14094D1*
X66594D1*
X68008Y15508D1*
X29858Y63508D2*
Y60508D1*
X28008Y63508D2*
Y60508D1*
X29858Y52508D2*
Y55508D1*
X28008Y52508D2*
Y55508D1*
X29858Y44508D2*
Y47508D1*
X28008Y44508D2*
Y47508D1*
X29858Y36508D2*
Y39508D1*
X28008Y36508D2*
Y39508D1*
X29858Y28508D2*
Y31508D1*
X28008Y28508D2*
Y31508D1*
X29858Y20508D2*
Y23508D1*
X28008Y20508D2*
Y23508D1*
X34158Y20508D2*
Y23508D1*
X36008Y20508D2*
Y23508D1*
X10633Y19278D2*
X14388D1*
X18158Y15508D1*
X11258Y19278D2*
X10633D1*
X11258D2*
D17*
X10633D1*
X11497Y37039D2*
X13397D1*
X13968Y36468D1*
Y28718D1*
X14158Y28527D1*
X10633Y16738D2*
D16*
Y16804D1*
X13732D1*
X16581Y13956D1*
X18681D1*
X20176Y15451D1*
X20065D1*
X20008Y15508D1*
X11258Y16738D2*
X10633D1*
X11258D2*
D17*
X10633D1*
X34158Y28508D2*
D16*
Y31508D1*
X36008Y28508D2*
Y31508D1*
X34158Y36508D2*
Y39508D1*
X36008Y36508D2*
Y39508D1*
X34158Y44508D2*
Y47508D1*
X36008Y44508D2*
Y47508D1*
X34158Y52508D2*
Y55508D1*
X36008Y52508D2*
Y55508D1*
X34158Y60508D2*
Y63508D1*
X36008Y60508D2*
Y63508D1*
X34158Y71508D2*
Y68508D1*
X36008D2*
Y71508D1*
X45858Y68508D2*
Y71508D1*
X44008Y68508D2*
Y71508D1*
X45858Y60508D2*
Y63508D1*
X44008Y60508D2*
Y63508D1*
X45858Y52508D2*
Y55508D1*
X44008Y52508D2*
Y55508D1*
X45858Y44508D2*
Y47508D1*
X44008Y44508D2*
Y47508D1*
X45858Y36508D2*
Y39508D1*
X44008Y36508D2*
Y39508D1*
X45858Y28508D2*
Y31508D1*
X44008Y28508D2*
Y31508D1*
X45858Y20508D2*
Y23508D1*
X44008Y20508D2*
Y23508D1*
X50158Y20508D2*
Y23508D1*
X52008Y20508D2*
Y23508D1*
X50158Y28508D2*
Y31508D1*
X52008Y28508D2*
Y31508D1*
X50158Y36508D2*
Y39508D1*
X52008Y36508D2*
Y39508D1*
X50158Y44508D2*
Y47508D1*
X52008Y44508D2*
Y47508D1*
X50158Y52508D2*
Y55508D1*
X52008Y52508D2*
Y55508D1*
X50158Y60508D2*
Y63508D1*
X52008Y60508D2*
Y63508D1*
X50158Y68508D2*
Y71508D1*
X51942Y67843D2*
Y71442D1*
X52008Y71508D1*
X61858Y68508D2*
Y71508D1*
X60008Y68508D2*
Y71508D1*
X61858Y60508D2*
Y63508D1*
X60008Y60508D2*
Y63508D1*
X61858Y52508D2*
Y55508D1*
X60008Y52508D2*
Y55508D1*
X61858Y44508D2*
Y47508D1*
X60008Y44508D2*
Y47508D1*
X61858Y36508D2*
Y39508D1*
X60008Y36508D2*
Y39508D1*
X61858Y28508D2*
Y31508D1*
X60008Y28508D2*
Y31508D1*
X61858Y20508D2*
Y23508D1*
X60008Y20508D2*
Y23508D1*
X66158Y20508D2*
Y23508D1*
X68008Y20508D2*
Y23508D1*
X66158Y28508D2*
Y31508D1*
X68008Y28508D2*
Y31508D1*
X66158Y36508D2*
Y39508D1*
X68008Y36508D2*
Y39508D1*
X66158Y44508D2*
Y47508D1*
X68008Y44508D2*
Y47508D1*
X66158Y52508D2*
Y55508D1*
X68008Y52508D2*
Y55508D1*
X66158Y60508D2*
Y63508D1*
X68008Y60508D2*
Y63508D1*
X66158Y68508D2*
Y71508D1*
X68008Y68508D2*
Y71508D1*
X77858Y68508D2*
Y71508D1*
X76008Y68508D2*
Y71508D1*
X77858Y76508D2*
Y77316D1*
X76170Y79004D1*
X68654D1*
X66158Y76508D1*
X68008D2*
Y76717D1*
X69485Y78194D1*
X74322D1*
X76008Y76508D1*
X77858Y60508D2*
Y63508D1*
X76008Y60508D2*
Y63508D1*
X77858Y52508D2*
Y55508D1*
X76008Y52508D2*
Y55508D1*
X77858Y44508D2*
Y47508D1*
X76008Y44508D2*
Y47508D1*
X77858Y36508D2*
Y39508D1*
X76008Y36508D2*
Y39508D1*
X77858Y28508D2*
Y31508D1*
X76008Y28508D2*
Y31508D1*
X77858Y20508D2*
Y23508D1*
X76008Y20508D2*
Y23508D1*
X20008Y76508D2*
Y76793D1*
X21421Y78207D1*
X26309D1*
X28008Y76508D1*
X29858D2*
Y77836D1*
X28289Y79405D1*
X21055D1*
X18158Y76508D1*
X45858D2*
Y77738D1*
X44784Y78812D1*
X36462D1*
X34158Y76508D1*
X36008D2*
Y76627D1*
X37302Y77922D1*
X42594D1*
X44008Y76508D1*
X52008D2*
Y76951D1*
X53097Y78040D1*
X58476D1*
X60008Y76508D1*
X61858D2*
X61814D1*
X59391Y78931D1*
X52581D1*
X50158Y76508D1*
X29858Y15508D2*
X34158D1*
X28008D2*
Y15032D1*
X29138Y13902D1*
X34402D1*
X36008Y15508D1*
X50158D2*
X49729Y15079D1*
X46287D1*
X45858Y15508D1*
X44008D2*
Y15304D1*
X45077Y14235D1*
X50735D1*
X52008Y15508D1*
X26158D2*
D13*
Y16208D1*
X21858Y20508D1*
X23158D1*
X26158Y23508D1*
Y24208D1*
X21858Y28508D1*
X23553D1*
X26158Y31113D1*
Y31508D1*
Y39508D2*
Y40208D1*
X21858Y44508D2*
X22635D1*
X23158D1*
X26158Y47508D1*
Y48208D1*
X21858Y52508D1*
X23158D1*
X26158Y55508D1*
Y56208D1*
X21858Y60508D1*
X23158D1*
X26158Y63508D1*
Y64208D1*
X21858Y68508D1*
X23158D1*
X26158Y71508D1*
Y72208D1*
X23781Y74585D1*
X21858Y76508D1*
X37858D2*
Y75808D1*
X39678Y73988D1*
X42158Y71508D1*
X40858D1*
X37858Y68508D1*
Y67808D1*
X42158Y63508D1*
X40858D1*
X37858Y60508D1*
Y59808D1*
X42158Y55508D1*
X40858D1*
X37858Y52508D1*
Y51808D1*
X42158Y47508D1*
X40858D1*
X37858Y44508D1*
Y43808D1*
X42158Y39508D1*
X40858D1*
X37858Y36508D1*
Y35808D1*
X42158Y31508D1*
X40858D1*
X37858Y28508D1*
Y27808D1*
X42158Y23508D1*
X40858D1*
X37858Y20508D1*
Y19808D1*
X42158Y15508D1*
Y13986D1*
X43014Y13130D1*
X55780D1*
X58158Y15508D1*
Y16208D1*
X53858Y20508D1*
X55158D1*
X58158Y23508D1*
Y24208D1*
X53858Y28508D1*
X55158D1*
X58158Y31508D1*
Y32208D1*
X53858Y36508D1*
X55158D1*
X58158Y39508D1*
Y40208D1*
X53858Y44508D1*
X55158D1*
X58158Y47508D1*
Y48208D1*
X53858Y52508D1*
X55158D1*
X58158Y55508D1*
Y56208D1*
X53858Y60508D1*
X55158D1*
X58158Y63508D1*
Y64208D1*
X53858Y68508D1*
X55158D1*
X58158Y71508D1*
X69858Y76508D2*
Y75808D1*
X71475Y74191D1*
X74158Y71508D1*
X72858D1*
X69858Y68508D1*
Y67808D1*
X74158Y63508D1*
X72858D1*
X69858Y60508D1*
Y59808D1*
X74158Y55508D1*
X72858D1*
X69858Y52508D1*
Y51808D1*
X74158Y47508D1*
X72858D1*
X69858Y44508D1*
Y43808D1*
X74158Y39508D1*
X72858D1*
X69858Y36508D1*
Y35808D1*
X74158Y31508D1*
X72858D1*
X69858Y28508D1*
Y27808D1*
X74158Y23508D1*
X72858D1*
X69858Y20508D1*
Y19327D1*
X73677Y15508D1*
X74158D1*
X26158D2*
Y14950D1*
X28695Y12413D1*
X39063D1*
X42158Y15508D1*
X23871Y74675D2*
X23781Y74585D1*
X56417Y74331D2*
X56358Y74272D1*
X58158Y72472D1*
Y71508D1*
X56417Y74331D2*
X56035D1*
X53858Y76508D1*
X11258Y14198D2*
X10633D1*
Y12461D1*
X23111D1*
X25179Y14529D1*
D15*
X26158Y15508D1*
X82758Y14198D2*
D13*
Y14438D1*
X81143Y12823D1*
X75538D1*
X73677Y14685D1*
Y15508D1*
X82758Y14198D2*
D14*
X83383D1*
X11258D2*
X10633D1*
X23814Y29014D2*
D13*
X23553Y28508D1*
X21858Y36508D2*
D15*
Y35123D1*
D13*
Y35122D1*
X22040Y34941D1*
X22635Y44694D2*
Y44508D1*
X26158Y39508D2*
D15*
Y38780D1*
D13*
X26581Y38357D1*
D27*
X18964Y17999D3*
X47662Y17708D3*
X76967Y26259D3*
X64115Y17947D3*
X23871Y74675D3*
X39698Y74009D3*
X56417Y74331D3*
X71453Y74169D3*
X31661Y17915D3*
X23814Y29014D3*
X22040Y34941D3*
X22635Y44694D3*
X26581Y38357D3*
X16545Y60562D3*
X14158Y28527D3*
X32743Y42640D3*
D22*
X24197Y31959D3*
Y34499D3*
Y37039D3*
Y39579D3*
X11497Y31959D3*
Y34499D3*
Y37039D3*
Y39579D3*
D23*
X83383Y16738D3*
D24*
X82758D3*
D23*
X83383Y14198D3*
Y19278D3*
D24*
X82758D3*
Y14198D3*
D23*
X83383Y21818D3*
D24*
X82758D3*
D23*
X10633Y16738D3*
D24*
X11258D3*
D23*
X10633Y14198D3*
Y19278D3*
D24*
X11258D3*
Y14198D3*
D23*
X10633Y21818D3*
D24*
X11258D3*
D22*
X11496Y42118D3*
X24197D3*
D26*
X18158Y15508D3*
X20008D3*
X21858D3*
Y20508D3*
X20008D3*
X18158D3*
Y23508D3*
X20008D3*
X21858D3*
Y28508D3*
X20008D3*
X18158D3*
Y31508D3*
X20008D3*
X21858D3*
Y36508D3*
X20008D3*
X18158D3*
Y39508D3*
X20008D3*
X21858D3*
Y44508D3*
X20008D3*
X18158D3*
Y47508D3*
X20008D3*
X21858D3*
Y52508D3*
X20008D3*
X18158D3*
Y55508D3*
X20008D3*
X21858D3*
Y60508D3*
X20008D3*
X18158D3*
Y63508D3*
X20008D3*
X21858D3*
Y68508D3*
X20008D3*
X18158D3*
Y71508D3*
X20008D3*
X21858D3*
Y76508D3*
X20008D3*
X18158D3*
X29858D3*
X28008D3*
X26158D3*
Y71508D3*
X28008D3*
X29858D3*
Y68508D3*
X28008D3*
X26158D3*
Y63508D3*
X28008D3*
X29858D3*
Y60508D3*
X28008D3*
X26158D3*
Y55508D3*
X28008D3*
X29858D3*
Y52508D3*
X28008D3*
X26158D3*
Y47508D3*
X28008D3*
X29858D3*
Y44508D3*
X28008D3*
X26158D3*
Y39508D3*
X28008D3*
X29858D3*
Y36508D3*
X28008D3*
X26158D3*
Y31508D3*
X28008D3*
X29858D3*
Y28508D3*
X28008D3*
X26158D3*
Y23508D3*
X28008D3*
X29858D3*
Y20508D3*
X28008D3*
X26158D3*
Y15508D3*
X28008D3*
X29858D3*
X34158D3*
X36008D3*
X37858D3*
Y20508D3*
X36008D3*
X34158D3*
Y23508D3*
X36008D3*
X37858D3*
Y28508D3*
X36008D3*
X34158D3*
Y31508D3*
X36008D3*
X37858D3*
Y36508D3*
X36008D3*
X34158D3*
Y39508D3*
X36008D3*
X37858D3*
Y44508D3*
X36008D3*
X34158D3*
Y47508D3*
X36008D3*
X37858D3*
Y52508D3*
X36008D3*
X34158D3*
Y55508D3*
X36008D3*
X37858D3*
Y60508D3*
X36008D3*
X34158D3*
Y63508D3*
X36008D3*
X37858D3*
Y68508D3*
X36008D3*
X34158D3*
Y71508D3*
X36008D3*
X37858D3*
Y76508D3*
X36008D3*
X34158D3*
X45858D3*
X44008D3*
X42158D3*
Y71508D3*
X44008D3*
X45858D3*
Y68508D3*
X44008D3*
X42158D3*
Y63508D3*
X44008D3*
X45858D3*
Y60508D3*
X44008D3*
X42158D3*
Y55508D3*
X44008D3*
X45858D3*
Y52508D3*
X44008D3*
X42158D3*
Y47508D3*
X44008D3*
X45858D3*
Y44508D3*
X44008D3*
X42158D3*
Y39508D3*
X44008D3*
X45858D3*
Y36508D3*
X44008D3*
X42158D3*
Y31508D3*
X44008D3*
X45858D3*
Y28508D3*
X44008D3*
X42158D3*
Y23508D3*
X44008D3*
X45858D3*
Y20508D3*
X44008D3*
X42158D3*
Y15508D3*
X44008D3*
X45858D3*
X50158D3*
X52008D3*
X53858D3*
Y20508D3*
X52008D3*
X50158D3*
Y23508D3*
X52008D3*
X53858D3*
Y28508D3*
X52008D3*
X50158D3*
Y31508D3*
X52008D3*
X53858D3*
Y36508D3*
X52008D3*
X50158D3*
Y39508D3*
X52008D3*
X53858D3*
Y44508D3*
X52008D3*
X50158D3*
Y47508D3*
X52008D3*
X53858D3*
Y52508D3*
X52008D3*
X50158D3*
Y55508D3*
X52008D3*
X53858D3*
Y60508D3*
X52008D3*
X50158D3*
Y63508D3*
X52008D3*
X53858D3*
Y68508D3*
X52008D3*
X50158D3*
Y71508D3*
X52008D3*
X53858D3*
Y76508D3*
X52008D3*
X50158D3*
X61858D3*
X60008D3*
X58158D3*
Y71508D3*
X60008D3*
X61858D3*
Y68508D3*
X60008D3*
X58158D3*
Y63508D3*
X60008D3*
X61858D3*
Y60508D3*
X60008D3*
X58158D3*
Y55508D3*
X60008D3*
X61858D3*
Y52508D3*
X60008D3*
X58158D3*
Y47508D3*
X60008D3*
X61858D3*
Y44508D3*
X60008D3*
X58158D3*
Y39508D3*
X60008D3*
X61858D3*
Y36508D3*
X60008D3*
X58158D3*
Y31508D3*
X60008D3*
X61858D3*
Y28508D3*
X60008D3*
X58158D3*
Y23508D3*
X60008D3*
X61858D3*
Y20508D3*
X60008D3*
X58158D3*
Y15508D3*
X60008D3*
X61858D3*
X66158D3*
X68008D3*
X69858D3*
Y20508D3*
X68008D3*
X66158D3*
Y23508D3*
X68008D3*
X69858D3*
Y28508D3*
X68008D3*
X66158D3*
Y31508D3*
X68008D3*
X69858D3*
Y36508D3*
X68008D3*
X66158D3*
Y39508D3*
X68008D3*
X69858D3*
Y44508D3*
X68008D3*
X66158D3*
Y47508D3*
X68008D3*
X69858D3*
Y52508D3*
X68008D3*
X66158D3*
Y55508D3*
X68008D3*
X69858D3*
Y60508D3*
X68008D3*
X66158D3*
Y63508D3*
X68008D3*
X69858D3*
Y68508D3*
X68008D3*
X66158D3*
Y71508D3*
X68008D3*
X69858D3*
Y76508D3*
X68008D3*
X66158D3*
X77858D3*
X76008D3*
X74158D3*
Y71508D3*
X76008D3*
X77858D3*
Y68508D3*
X76008D3*
X74158D3*
Y63508D3*
X76008D3*
X77858D3*
Y60508D3*
X76008D3*
X74158D3*
Y55508D3*
X76008D3*
X77858D3*
Y52508D3*
X76008D3*
X74158D3*
Y47508D3*
X76008D3*
X77858D3*
Y44508D3*
X76008D3*
X74158D3*
Y39508D3*
X76008D3*
X77858D3*
Y36508D3*
X76008D3*
X74158D3*
Y31508D3*
X76008D3*
X77858D3*
Y28508D3*
X76008D3*
X74158D3*
Y23508D3*
X76008D3*
X77858D3*
Y20508D3*
X76008D3*
X74158D3*
Y15508D3*
X76008D3*
X77858D3*
M02*
