G04 DipTrace 2.4.0.2*
%IN64xAPA102x16mm.gto*%
%MOMM*%
%ADD10C,0.25*%
%ADD18O,0.925X0.974*%
%ADD20O,0.974X0.925*%
%ADD30C,0.235*%
%FSLAX53Y53*%
G04*
G71*
G90*
G75*
G01*
%LNTopSilk*%
%LPD*%
X15500Y20601D2*
D10*
Y18600D1*
X20500Y20601D2*
Y18600D1*
Y17401D2*
Y15400D1*
X15500Y17401D2*
Y15400D1*
D18*
X15137Y15537D3*
X15500Y36601D2*
D10*
Y34600D1*
X20500Y36601D2*
Y34600D1*
Y33401D2*
Y31400D1*
X15500Y33401D2*
Y31400D1*
D18*
X15137Y31537D3*
X36601Y36500D2*
D10*
X34600D1*
X36601Y31500D2*
X34600D1*
X33401D2*
X31400D1*
X33401Y36500D2*
X31400D1*
D20*
X31537Y36863D3*
X36500Y15399D2*
D10*
Y17400D1*
X31500Y15399D2*
Y17400D1*
Y18599D2*
Y20600D1*
X36500Y18599D2*
Y20600D1*
D18*
X36863Y20463D3*
X52601Y20500D2*
D10*
X50600D1*
X52601Y15500D2*
X50600D1*
X49401D2*
X47400D1*
X49401Y20500D2*
X47400D1*
D20*
X47537Y20863D3*
X47500Y36601D2*
D10*
Y34600D1*
X52500Y36601D2*
Y34600D1*
Y33401D2*
Y31400D1*
X47500Y33401D2*
Y31400D1*
D18*
X47137Y31537D3*
X47500Y52601D2*
D10*
Y50600D1*
X52500Y52601D2*
Y50600D1*
Y49401D2*
Y47400D1*
X47500Y49401D2*
Y47400D1*
D18*
X47137Y47537D3*
X31399Y47500D2*
D10*
X33400D1*
X31399Y52500D2*
X33400D1*
X34599D2*
X36600D1*
X34599Y47500D2*
X36600D1*
D20*
X36463Y47137D3*
X15399Y47500D2*
D10*
X17400D1*
X15399Y52500D2*
X17400D1*
X18599D2*
X20600D1*
X18599Y47500D2*
X20600D1*
D20*
X20463Y47137D3*
X15500Y68601D2*
D10*
Y66600D1*
X20500Y68601D2*
Y66600D1*
Y65401D2*
Y63400D1*
X15500Y65401D2*
Y63400D1*
D18*
X15137Y63537D3*
X36601Y68500D2*
D10*
X34600D1*
X36601Y63500D2*
X34600D1*
X33401D2*
X31400D1*
X33401Y68500D2*
X31400D1*
D20*
X31537Y68863D3*
X52601Y68500D2*
D10*
X50600D1*
X52601Y63500D2*
X50600D1*
X49401D2*
X47400D1*
X49401Y68500D2*
X47400D1*
D20*
X47537Y68863D3*
X68601Y68500D2*
D10*
X66600D1*
X68601Y63500D2*
X66600D1*
X65401D2*
X63400D1*
X65401Y68500D2*
X63400D1*
D20*
X63537Y68863D3*
X68500Y47399D2*
D10*
Y49400D1*
X63500Y47399D2*
Y49400D1*
Y50599D2*
Y52600D1*
X68500Y50599D2*
Y52600D1*
D18*
X68863Y52463D3*
X68500Y31399D2*
D10*
Y33400D1*
X63500Y31399D2*
Y33400D1*
Y34599D2*
Y36600D1*
X68500Y34599D2*
Y36600D1*
D18*
X68863Y36463D3*
X68500Y15399D2*
D10*
Y17400D1*
X63500Y15399D2*
Y17400D1*
Y18599D2*
Y20600D1*
X68500Y18599D2*
Y20600D1*
D18*
X68863Y20463D3*
X84601Y20500D2*
D10*
X82600D1*
X84601Y15500D2*
X82600D1*
X81401D2*
X79400D1*
X81401Y20500D2*
X79400D1*
D20*
X79537Y20863D3*
X79500Y36601D2*
D10*
Y34600D1*
X84500Y36601D2*
Y34600D1*
Y33401D2*
Y31400D1*
X79500Y33401D2*
Y31400D1*
D18*
X79137Y31537D3*
X79500Y52601D2*
D10*
Y50600D1*
X84500Y52601D2*
Y50600D1*
Y49401D2*
Y47400D1*
X79500Y49401D2*
Y47400D1*
D18*
X79137Y47537D3*
X79500Y68601D2*
D10*
Y66600D1*
X84500Y68601D2*
Y66600D1*
Y65401D2*
Y63400D1*
X79500Y65401D2*
Y63400D1*
D18*
X79137Y63537D3*
X79500Y84601D2*
D10*
Y82600D1*
X84500Y84601D2*
Y82600D1*
Y81401D2*
Y79400D1*
X79500Y81401D2*
Y79400D1*
D18*
X79137Y79537D3*
X63399Y79500D2*
D10*
X65400D1*
X63399Y84500D2*
X65400D1*
X66599D2*
X68600D1*
X66599Y79500D2*
X68600D1*
D20*
X68463Y79137D3*
X47399Y79500D2*
D10*
X49400D1*
X47399Y84500D2*
X49400D1*
X50599D2*
X52600D1*
X50599Y79500D2*
X52600D1*
D20*
X52463Y79137D3*
X31399Y79500D2*
D10*
X33400D1*
X31399Y84500D2*
X33400D1*
X34599D2*
X36600D1*
X34599Y79500D2*
X36600D1*
D20*
X36463Y79137D3*
X15399Y79500D2*
D10*
X17400D1*
X15399Y84500D2*
X17400D1*
X18599D2*
X20600D1*
X18599Y79500D2*
X20600D1*
D20*
X20463Y79137D3*
X15500Y100601D2*
D10*
Y98600D1*
X20500Y100601D2*
Y98600D1*
Y97401D2*
Y95400D1*
X15500Y97401D2*
Y95400D1*
D18*
X15137Y95537D3*
X36601Y100500D2*
D10*
X34600D1*
X36601Y95500D2*
X34600D1*
X33401D2*
X31400D1*
X33401Y100500D2*
X31400D1*
D20*
X31537Y100863D3*
X52601Y100500D2*
D10*
X50600D1*
X52601Y95500D2*
X50600D1*
X49401D2*
X47400D1*
X49401Y100500D2*
X47400D1*
D20*
X47537Y100863D3*
X68601Y100500D2*
D10*
X66600D1*
X68601Y95500D2*
X66600D1*
X65401D2*
X63400D1*
X65401Y100500D2*
X63400D1*
D20*
X63537Y100863D3*
X84601Y100500D2*
D10*
X82600D1*
X84601Y95500D2*
X82600D1*
X81401D2*
X79400D1*
X81401Y100500D2*
X79400D1*
D20*
X79537Y100863D3*
X100601Y100500D2*
D10*
X98600D1*
X100601Y95500D2*
X98600D1*
X97401D2*
X95400D1*
X97401Y100500D2*
X95400D1*
D20*
X95537Y100863D3*
X100500Y79399D2*
D10*
Y81400D1*
X95500Y79399D2*
Y81400D1*
Y82599D2*
Y84600D1*
X100500Y82599D2*
Y84600D1*
D18*
X100863Y84463D3*
X100500Y63399D2*
D10*
Y65400D1*
X95500Y63399D2*
Y65400D1*
Y66599D2*
Y68600D1*
X100500Y66599D2*
Y68600D1*
D18*
X100863Y68463D3*
X100500Y47399D2*
D10*
Y49400D1*
X95500Y47399D2*
Y49400D1*
Y50599D2*
Y52600D1*
X100500Y50599D2*
Y52600D1*
D18*
X100863Y52463D3*
X100500Y31399D2*
D10*
Y33400D1*
X95500Y31399D2*
Y33400D1*
Y34599D2*
Y36600D1*
X100500Y34599D2*
Y36600D1*
D18*
X100863Y36463D3*
X100500Y15399D2*
D10*
Y17400D1*
X95500Y15399D2*
Y17400D1*
Y18599D2*
Y20600D1*
X100500Y18599D2*
Y20600D1*
D18*
X100863Y20463D3*
X116601Y20500D2*
D10*
X114600D1*
X116601Y15500D2*
X114600D1*
X113401D2*
X111400D1*
X113401Y20500D2*
X111400D1*
D20*
X111537Y20863D3*
X111500Y36601D2*
D10*
Y34600D1*
X116500Y36601D2*
Y34600D1*
Y33401D2*
Y31400D1*
X111500Y33401D2*
Y31400D1*
D18*
X111137Y31537D3*
X111500Y52601D2*
D10*
Y50600D1*
X116500Y52601D2*
Y50600D1*
Y49401D2*
Y47400D1*
X111500Y49401D2*
Y47400D1*
D18*
X111137Y47537D3*
X111500Y68601D2*
D10*
Y66600D1*
X116500Y68601D2*
Y66600D1*
Y65401D2*
Y63400D1*
X111500Y65401D2*
Y63400D1*
D18*
X111137Y63537D3*
X111500Y84601D2*
D10*
Y82600D1*
X116500Y84601D2*
Y82600D1*
Y81401D2*
Y79400D1*
X111500Y81401D2*
Y79400D1*
D18*
X111137Y79537D3*
X111500Y100601D2*
D10*
Y98600D1*
X116500Y100601D2*
Y98600D1*
Y97401D2*
Y95400D1*
X111500Y97401D2*
Y95400D1*
D18*
X111137Y95537D3*
X111500Y116601D2*
D10*
Y114600D1*
X116500Y116601D2*
Y114600D1*
Y113401D2*
Y111400D1*
X111500Y113401D2*
Y111400D1*
D18*
X111137Y111537D3*
X95399Y111500D2*
D10*
X97400D1*
X95399Y116500D2*
X97400D1*
X98599D2*
X100600D1*
X98599Y111500D2*
X100600D1*
D20*
X100463Y111137D3*
X79399Y111500D2*
D10*
X81400D1*
X79399Y116500D2*
X81400D1*
X82599D2*
X84600D1*
X82599Y111500D2*
X84600D1*
D20*
X84463Y111137D3*
X63399Y111500D2*
D10*
X65400D1*
X63399Y116500D2*
X65400D1*
X66599D2*
X68600D1*
X66599Y111500D2*
X68600D1*
D20*
X68463Y111137D3*
X47399Y111500D2*
D10*
X49400D1*
X47399Y116500D2*
X49400D1*
X50599D2*
X52600D1*
X50599Y111500D2*
X52600D1*
D20*
X52463Y111137D3*
X31399Y111500D2*
D10*
X33400D1*
X31399Y116500D2*
X33400D1*
X34599D2*
X36600D1*
X34599Y111500D2*
X36600D1*
D20*
X36463Y111137D3*
X15399Y111500D2*
D10*
X17400D1*
X15399Y116500D2*
X17400D1*
X18599D2*
X20600D1*
X18599Y111500D2*
X20600D1*
D20*
X20463Y111137D3*
X15500Y132601D2*
D10*
Y130600D1*
X20500Y132601D2*
Y130600D1*
Y129401D2*
Y127400D1*
X15500Y129401D2*
Y127400D1*
D18*
X15137Y127537D3*
X36601Y132500D2*
D10*
X34600D1*
X36601Y127500D2*
X34600D1*
X33401D2*
X31400D1*
X33401Y132500D2*
X31400D1*
D20*
X31537Y132863D3*
X52601Y132500D2*
D10*
X50600D1*
X52601Y127500D2*
X50600D1*
X49401D2*
X47400D1*
X49401Y132500D2*
X47400D1*
D20*
X47537Y132863D3*
X68601Y132500D2*
D10*
X66600D1*
X68601Y127500D2*
X66600D1*
X65401D2*
X63400D1*
X65401Y132500D2*
X63400D1*
D20*
X63537Y132863D3*
X84601Y132500D2*
D10*
X82600D1*
X84601Y127500D2*
X82600D1*
X81401D2*
X79400D1*
X81401Y132500D2*
X79400D1*
D20*
X79537Y132863D3*
X100601Y132500D2*
D10*
X98600D1*
X100601Y127500D2*
X98600D1*
X97401D2*
X95400D1*
X97401Y132500D2*
X95400D1*
D20*
X95537Y132863D3*
X116601Y132500D2*
D10*
X114600D1*
X116601Y127500D2*
X114600D1*
X113401D2*
X111400D1*
X113401Y132500D2*
X111400D1*
D20*
X111537Y132863D3*
X132601Y132500D2*
D10*
X130600D1*
X132601Y127500D2*
X130600D1*
X129401D2*
X127400D1*
X129401Y132500D2*
X127400D1*
D20*
X127537Y132863D3*
X132500Y111399D2*
D10*
Y113400D1*
X127500Y111399D2*
Y113400D1*
Y114599D2*
Y116600D1*
X132500Y114599D2*
Y116600D1*
D18*
X132863Y116463D3*
X132500Y95399D2*
D10*
Y97400D1*
X127500Y95399D2*
Y97400D1*
Y98599D2*
Y100600D1*
X132500Y98599D2*
Y100600D1*
D18*
X132863Y100463D3*
X132500Y79399D2*
D10*
Y81400D1*
X127500Y79399D2*
Y81400D1*
Y82599D2*
Y84600D1*
X132500Y82599D2*
Y84600D1*
D18*
X132863Y84463D3*
X132500Y63399D2*
D10*
Y65400D1*
X127500Y63399D2*
Y65400D1*
Y66599D2*
Y68600D1*
X132500Y66599D2*
Y68600D1*
D18*
X132863Y68463D3*
X132500Y47399D2*
D10*
Y49400D1*
X127500Y47399D2*
Y49400D1*
Y50599D2*
Y52600D1*
X132500Y50599D2*
Y52600D1*
D18*
X132863Y52463D3*
X132500Y31399D2*
D10*
Y33400D1*
X127500Y31399D2*
Y33400D1*
Y34599D2*
Y36600D1*
X132500Y34599D2*
Y36600D1*
D18*
X132863Y36463D3*
X132500Y15399D2*
D10*
Y17400D1*
X127500Y15399D2*
Y17400D1*
Y18599D2*
Y20600D1*
X132500Y18599D2*
Y20600D1*
D18*
X132863Y20463D3*
X129968Y14482D2*
D30*
Y13316D1*
X129925Y13097D1*
X129880Y13025D1*
X129793Y12951D1*
X129705D1*
X129618Y13025D1*
X129575Y13097D1*
X129530Y13316D1*
Y13461D1*
X130250Y14189D2*
X130338Y14263D1*
X130470Y14480D1*
Y12951D1*
X17443Y23382D2*
Y22289D1*
X17486Y22070D1*
X17574Y21925D1*
X17706Y21851D1*
X17793D1*
X17924Y21925D1*
X18012Y22070D1*
X18055Y22289D1*
Y23382D1*
X18338Y23089D2*
X18426Y23163D1*
X18557Y23380D1*
Y21851D1*
X17246Y39382D2*
Y38289D1*
X17290Y38070D1*
X17378Y37925D1*
X17509Y37851D1*
X17596D1*
X17727Y37925D1*
X17815Y38070D1*
X17859Y38289D1*
Y39382D1*
X18186Y39016D2*
Y39089D1*
X18229Y39235D1*
X18273Y39308D1*
X18361Y39380D1*
X18535D1*
X18622Y39308D1*
X18666Y39235D1*
X18710Y39089D1*
Y38944D1*
X18666Y38797D1*
X18579Y38580D1*
X18141Y37851D1*
X18754D1*
X29696Y41732D2*
Y40639D1*
X29740Y40420D1*
X29828Y40275D1*
X29959Y40201D1*
X30046D1*
X30177Y40275D1*
X30265Y40420D1*
X30309Y40639D1*
Y41732D1*
X30679Y41730D2*
X31159D1*
X30897Y41147D1*
X31029D1*
X31116Y41075D1*
X31159Y41002D1*
X31204Y40783D1*
Y40639D1*
X31159Y40420D1*
X31072Y40273D1*
X30941Y40201D1*
X30810D1*
X30679Y40273D1*
X30636Y40347D1*
X30591Y40492D1*
X33225Y30482D2*
Y29389D1*
X33268Y29170D1*
X33356Y29025D1*
X33487Y28951D1*
X33574D1*
X33706Y29025D1*
X33794Y29170D1*
X33837Y29389D1*
Y30482D1*
X34557Y28951D2*
Y30480D1*
X34119Y29461D1*
X34775D1*
X45696Y25732D2*
Y24639D1*
X45740Y24420D1*
X45828Y24275D1*
X45959Y24201D1*
X46046D1*
X46177Y24275D1*
X46265Y24420D1*
X46309Y24639D1*
Y25732D1*
X47116Y25730D2*
X46679D1*
X46636Y25075D1*
X46679Y25147D1*
X46811Y25221D1*
X46941D1*
X47072Y25147D1*
X47160Y25002D1*
X47204Y24783D1*
Y24639D1*
X47160Y24420D1*
X47072Y24273D1*
X46941Y24201D1*
X46811D1*
X46679Y24273D1*
X46636Y24347D1*
X46591Y24492D1*
X49269Y39382D2*
Y38289D1*
X49312Y38070D1*
X49400Y37925D1*
X49531Y37851D1*
X49618D1*
X49750Y37925D1*
X49838Y38070D1*
X49881Y38289D1*
Y39382D1*
X50688Y39163D2*
X50645Y39308D1*
X50513Y39380D1*
X50426D1*
X50295Y39308D1*
X50207Y39089D1*
X50163Y38725D1*
Y38361D1*
X50207Y38070D1*
X50295Y37923D1*
X50426Y37851D1*
X50470D1*
X50600Y37923D1*
X50688Y38070D1*
X50731Y38289D1*
Y38361D1*
X50688Y38580D1*
X50600Y38725D1*
X50470Y38797D1*
X50426D1*
X50295Y38725D1*
X50207Y38580D1*
X50163Y38361D1*
X49246Y55382D2*
Y54289D1*
X49290Y54070D1*
X49378Y53925D1*
X49509Y53851D1*
X49596D1*
X49727Y53925D1*
X49815Y54070D1*
X49859Y54289D1*
Y55382D1*
X50316Y53851D2*
X50754Y55380D1*
X50141D1*
X36797Y57732D2*
Y56639D1*
X36840Y56420D1*
X36928Y56275D1*
X37060Y56201D1*
X37147D1*
X37278Y56275D1*
X37366Y56420D1*
X37409Y56639D1*
Y57732D1*
X37910Y57730D2*
X37780Y57658D1*
X37735Y57513D1*
Y57366D1*
X37780Y57221D1*
X37867Y57147D1*
X38041Y57075D1*
X38173Y57002D1*
X38260Y56856D1*
X38303Y56711D1*
Y56492D1*
X38260Y56347D1*
X38216Y56273D1*
X38085Y56201D1*
X37910D1*
X37780Y56273D1*
X37735Y56347D1*
X37692Y56492D1*
Y56711D1*
X37735Y56856D1*
X37823Y57002D1*
X37953Y57075D1*
X38128Y57147D1*
X38216Y57221D1*
X38260Y57366D1*
Y57513D1*
X38216Y57658D1*
X38085Y57730D1*
X37910D1*
X20818Y57732D2*
Y56639D1*
X20861Y56420D1*
X20949Y56275D1*
X21081Y56201D1*
X21168D1*
X21299Y56275D1*
X21387Y56420D1*
X21431Y56639D1*
Y57732D1*
X22282Y57221D2*
X22237Y57002D1*
X22151Y56856D1*
X22019Y56783D1*
X21976D1*
X21844Y56856D1*
X21757Y57002D1*
X21713Y57221D1*
Y57294D1*
X21757Y57513D1*
X21844Y57658D1*
X21976Y57730D1*
X22019D1*
X22151Y57658D1*
X22237Y57513D1*
X22282Y57221D1*
Y56856D1*
X22237Y56492D1*
X22151Y56273D1*
X22019Y56201D1*
X21932D1*
X21801Y56273D1*
X21757Y56420D1*
X16995Y71382D2*
Y70289D1*
X17039Y70070D1*
X17127Y69925D1*
X17258Y69851D1*
X17345D1*
X17477Y69925D1*
X17565Y70070D1*
X17608Y70289D1*
Y71382D1*
X17890Y71089D2*
X17978Y71163D1*
X18110Y71380D1*
Y69851D1*
X18655Y71380D2*
X18523Y71308D1*
X18435Y71089D1*
X18392Y70725D1*
Y70506D1*
X18435Y70142D1*
X18523Y69923D1*
X18655Y69851D1*
X18742D1*
X18873Y69923D1*
X18960Y70142D1*
X19005Y70506D1*
Y70725D1*
X18960Y71089D1*
X18873Y71308D1*
X18742Y71380D1*
X18655D1*
X18960Y71089D2*
X18435Y70142D1*
X29642Y73732D2*
Y72639D1*
X29686Y72420D1*
X29773Y72275D1*
X29905Y72201D1*
X29992D1*
X30123Y72275D1*
X30211Y72420D1*
X30255Y72639D1*
Y73732D1*
X30537Y73439D2*
X30625Y73513D1*
X30756Y73730D1*
Y72201D1*
X31039Y73439D2*
X31127Y73513D1*
X31258Y73730D1*
Y72201D1*
X45445Y73732D2*
Y72639D1*
X45489Y72420D1*
X45577Y72275D1*
X45708Y72201D1*
X45795D1*
X45927Y72275D1*
X46015Y72420D1*
X46058Y72639D1*
Y73732D1*
X46340Y73439D2*
X46428Y73513D1*
X46560Y73730D1*
Y72201D1*
X46886Y73366D2*
Y73439D1*
X46930Y73585D1*
X46973Y73658D1*
X47061Y73730D1*
X47236D1*
X47323Y73658D1*
X47367Y73585D1*
X47411Y73439D1*
Y73294D1*
X47367Y73147D1*
X47280Y72930D1*
X46842Y72201D1*
X47455D1*
X61445Y73732D2*
Y72639D1*
X61489Y72420D1*
X61577Y72275D1*
X61708Y72201D1*
X61795D1*
X61927Y72275D1*
X62015Y72420D1*
X62058Y72639D1*
Y73732D1*
X62340Y73439D2*
X62428Y73513D1*
X62560Y73730D1*
Y72201D1*
X62930Y73730D2*
X63410D1*
X63148Y73147D1*
X63280D1*
X63367Y73075D1*
X63410Y73002D1*
X63455Y72783D1*
Y72639D1*
X63410Y72420D1*
X63323Y72273D1*
X63192Y72201D1*
X63060D1*
X62930Y72273D1*
X62886Y72347D1*
X62842Y72492D1*
X64974Y62482D2*
Y61389D1*
X65017Y61170D1*
X65105Y61025D1*
X65237Y60951D1*
X65323D1*
X65455Y61025D1*
X65543Y61170D1*
X65586Y61389D1*
Y62482D1*
X65869Y62189D2*
X65957Y62263D1*
X66088Y62480D1*
Y60951D1*
X66808D2*
Y62480D1*
X66370Y61461D1*
X67026D1*
X64995Y46482D2*
Y45389D1*
X65039Y45170D1*
X65127Y45025D1*
X65258Y44951D1*
X65345D1*
X65477Y45025D1*
X65565Y45170D1*
X65608Y45389D1*
Y46482D1*
X65890Y46189D2*
X65978Y46263D1*
X66110Y46480D1*
Y44951D1*
X66917Y46480D2*
X66480D1*
X66436Y45825D1*
X66480Y45897D1*
X66611Y45971D1*
X66742D1*
X66873Y45897D1*
X66961Y45752D1*
X67005Y45533D1*
Y45389D1*
X66961Y45170D1*
X66873Y45023D1*
X66742Y44951D1*
X66611D1*
X66480Y45023D1*
X66436Y45097D1*
X66392Y45242D1*
X65018Y30482D2*
Y29389D1*
X65061Y29170D1*
X65149Y29025D1*
X65280Y28951D1*
X65367D1*
X65499Y29025D1*
X65587Y29170D1*
X65630Y29389D1*
Y30482D1*
X65913Y30189D2*
X66001Y30263D1*
X66132Y30480D1*
Y28951D1*
X66939Y30263D2*
X66895Y30408D1*
X66764Y30480D1*
X66677D1*
X66546Y30408D1*
X66458Y30189D1*
X66414Y29825D1*
Y29461D1*
X66458Y29170D1*
X66546Y29023D1*
X66677Y28951D1*
X66721D1*
X66851Y29023D1*
X66939Y29170D1*
X66982Y29389D1*
Y29461D1*
X66939Y29680D1*
X66851Y29825D1*
X66721Y29897D1*
X66677D1*
X66546Y29825D1*
X66458Y29680D1*
X66414Y29461D1*
X77445Y25732D2*
Y24639D1*
X77489Y24420D1*
X77577Y24275D1*
X77708Y24201D1*
X77795D1*
X77927Y24275D1*
X78015Y24420D1*
X78058Y24639D1*
Y25732D1*
X78340Y25439D2*
X78428Y25513D1*
X78560Y25730D1*
Y24201D1*
X79017D2*
X79455Y25730D1*
X78842D1*
X80996Y39382D2*
Y38289D1*
X81039Y38070D1*
X81127Y37925D1*
X81259Y37851D1*
X81346D1*
X81477Y37925D1*
X81565Y38070D1*
X81608Y38289D1*
Y39382D1*
X81891Y39089D2*
X81979Y39163D1*
X82110Y39380D1*
Y37851D1*
X82611Y39380D2*
X82480Y39308D1*
X82436Y39163D1*
Y39016D1*
X82480Y38871D1*
X82567Y38797D1*
X82742Y38725D1*
X82874Y38652D1*
X82961Y38506D1*
X83004Y38361D1*
Y38142D1*
X82961Y37997D1*
X82917Y37923D1*
X82786Y37851D1*
X82611D1*
X82480Y37923D1*
X82436Y37997D1*
X82393Y38142D1*
Y38361D1*
X82436Y38506D1*
X82524Y38652D1*
X82654Y38725D1*
X82829Y38797D1*
X82917Y38871D1*
X82961Y39016D1*
Y39163D1*
X82917Y39308D1*
X82786Y39380D1*
X82611D1*
X81017Y55382D2*
Y54289D1*
X81061Y54070D1*
X81149Y53925D1*
X81280Y53851D1*
X81367D1*
X81498Y53925D1*
X81586Y54070D1*
X81630Y54289D1*
Y55382D1*
X81912Y55089D2*
X82000Y55163D1*
X82131Y55380D1*
Y53851D1*
X82983Y54871D2*
X82938Y54652D1*
X82851Y54506D1*
X82720Y54433D1*
X82677D1*
X82545Y54506D1*
X82458Y54652D1*
X82414Y54871D1*
Y54944D1*
X82458Y55163D1*
X82545Y55308D1*
X82677Y55380D1*
X82720D1*
X82851Y55308D1*
X82938Y55163D1*
X82983Y54871D1*
Y54506D1*
X82938Y54142D1*
X82851Y53923D1*
X82720Y53851D1*
X82633D1*
X82502Y53923D1*
X82458Y54070D1*
X80799Y71382D2*
Y70289D1*
X80842Y70070D1*
X80930Y69925D1*
X81062Y69851D1*
X81149D1*
X81280Y69925D1*
X81368Y70070D1*
X81411Y70289D1*
Y71382D1*
X81738Y71016D2*
Y71089D1*
X81782Y71235D1*
X81825Y71308D1*
X81913Y71380D1*
X82088D1*
X82175Y71308D1*
X82218Y71235D1*
X82263Y71089D1*
Y70944D1*
X82218Y70797D1*
X82131Y70580D1*
X81694Y69851D1*
X82306D1*
X82851Y71380D2*
X82720Y71308D1*
X82632Y71089D1*
X82589Y70725D1*
Y70506D1*
X82632Y70142D1*
X82720Y69923D1*
X82851Y69851D1*
X82938D1*
X83070Y69923D1*
X83157Y70142D1*
X83201Y70506D1*
Y70725D1*
X83157Y71089D1*
X83070Y71308D1*
X82938Y71380D1*
X82851D1*
X83157Y71089D2*
X82632Y70142D1*
X80995Y87382D2*
Y86289D1*
X81039Y86070D1*
X81127Y85925D1*
X81258Y85851D1*
X81345D1*
X81477Y85925D1*
X81565Y86070D1*
X81608Y86289D1*
Y87382D1*
X81935Y87016D2*
Y87089D1*
X81978Y87235D1*
X82022Y87308D1*
X82110Y87380D1*
X82285D1*
X82371Y87308D1*
X82415Y87235D1*
X82459Y87089D1*
Y86944D1*
X82415Y86797D1*
X82328Y86580D1*
X81890Y85851D1*
X82503D1*
X82785Y87089D2*
X82873Y87163D1*
X83005Y87380D1*
Y85851D1*
X68349Y89732D2*
Y88639D1*
X68392Y88420D1*
X68480Y88275D1*
X68612Y88201D1*
X68699D1*
X68830Y88275D1*
X68918Y88420D1*
X68961Y88639D1*
Y89732D1*
X69288Y89366D2*
Y89439D1*
X69332Y89585D1*
X69375Y89658D1*
X69463Y89730D1*
X69638D1*
X69725Y89658D1*
X69768Y89585D1*
X69813Y89439D1*
Y89294D1*
X69768Y89147D1*
X69681Y88930D1*
X69244Y88201D1*
X69856D1*
X70183Y89366D2*
Y89439D1*
X70227Y89585D1*
X70270Y89658D1*
X70358Y89730D1*
X70533D1*
X70620Y89658D1*
X70663Y89585D1*
X70708Y89439D1*
Y89294D1*
X70663Y89147D1*
X70576Y88930D1*
X70139Y88201D1*
X70751D1*
X52349Y89732D2*
Y88639D1*
X52392Y88420D1*
X52480Y88275D1*
X52612Y88201D1*
X52699D1*
X52830Y88275D1*
X52918Y88420D1*
X52961Y88639D1*
Y89732D1*
X53288Y89366D2*
Y89439D1*
X53332Y89585D1*
X53375Y89658D1*
X53463Y89730D1*
X53638D1*
X53725Y89658D1*
X53768Y89585D1*
X53813Y89439D1*
Y89294D1*
X53768Y89147D1*
X53681Y88930D1*
X53244Y88201D1*
X53856D1*
X54227Y89730D2*
X54707D1*
X54445Y89147D1*
X54576D1*
X54663Y89075D1*
X54707Y89002D1*
X54751Y88783D1*
Y88639D1*
X54707Y88420D1*
X54620Y88273D1*
X54488Y88201D1*
X54357D1*
X54227Y88273D1*
X54183Y88347D1*
X54139Y88492D1*
X36327Y89732D2*
Y88639D1*
X36371Y88420D1*
X36459Y88275D1*
X36590Y88201D1*
X36677D1*
X36808Y88275D1*
X36896Y88420D1*
X36940Y88639D1*
Y89732D1*
X37266Y89366D2*
Y89439D1*
X37310Y89585D1*
X37353Y89658D1*
X37441Y89730D1*
X37616D1*
X37703Y89658D1*
X37747Y89585D1*
X37791Y89439D1*
Y89294D1*
X37747Y89147D1*
X37660Y88930D1*
X37222Y88201D1*
X37835D1*
X38555D2*
Y89730D1*
X38117Y88711D1*
X38773D1*
X20349Y89732D2*
Y88639D1*
X20392Y88420D1*
X20480Y88275D1*
X20612Y88201D1*
X20699D1*
X20830Y88275D1*
X20918Y88420D1*
X20961Y88639D1*
Y89732D1*
X21288Y89366D2*
Y89439D1*
X21332Y89585D1*
X21375Y89658D1*
X21463Y89730D1*
X21638D1*
X21725Y89658D1*
X21768Y89585D1*
X21813Y89439D1*
Y89294D1*
X21768Y89147D1*
X21681Y88930D1*
X21244Y88201D1*
X21856D1*
X22663Y89730D2*
X22227D1*
X22183Y89075D1*
X22227Y89147D1*
X22358Y89221D1*
X22488D1*
X22620Y89147D1*
X22708Y89002D1*
X22751Y88783D1*
Y88639D1*
X22708Y88420D1*
X22620Y88273D1*
X22488Y88201D1*
X22358D1*
X22227Y88273D1*
X22183Y88347D1*
X22139Y88492D1*
X16821Y103382D2*
Y102289D1*
X16865Y102070D1*
X16952Y101925D1*
X17084Y101851D1*
X17171D1*
X17302Y101925D1*
X17390Y102070D1*
X17434Y102289D1*
Y103382D1*
X17760Y103016D2*
Y103089D1*
X17804Y103235D1*
X17847Y103308D1*
X17935Y103380D1*
X18110D1*
X18197Y103308D1*
X18241Y103235D1*
X18285Y103089D1*
Y102944D1*
X18241Y102797D1*
X18154Y102580D1*
X17716Y101851D1*
X18329D1*
X19135Y103163D2*
X19092Y103308D1*
X18961Y103380D1*
X18874D1*
X18742Y103308D1*
X18654Y103089D1*
X18611Y102725D1*
Y102361D1*
X18654Y102070D1*
X18742Y101923D1*
X18874Y101851D1*
X18917D1*
X19048Y101923D1*
X19135Y102070D1*
X19179Y102289D1*
Y102361D1*
X19135Y102580D1*
X19048Y102725D1*
X18917Y102797D1*
X18874D1*
X18742Y102725D1*
X18654Y102580D1*
X18611Y102361D1*
X29249Y105732D2*
Y104639D1*
X29292Y104420D1*
X29380Y104275D1*
X29512Y104201D1*
X29599D1*
X29730Y104275D1*
X29818Y104420D1*
X29861Y104639D1*
Y105732D1*
X30188Y105366D2*
Y105439D1*
X30232Y105585D1*
X30275Y105658D1*
X30363Y105730D1*
X30538D1*
X30625Y105658D1*
X30668Y105585D1*
X30713Y105439D1*
Y105294D1*
X30668Y105147D1*
X30581Y104930D1*
X30144Y104201D1*
X30756D1*
X31213D2*
X31651Y105730D1*
X31039D1*
X45249Y105732D2*
Y104639D1*
X45293Y104420D1*
X45381Y104275D1*
X45512Y104201D1*
X45599D1*
X45730Y104275D1*
X45818Y104420D1*
X45862Y104639D1*
Y105732D1*
X46189Y105366D2*
Y105439D1*
X46232Y105585D1*
X46276Y105658D1*
X46364Y105730D1*
X46538D1*
X46625Y105658D1*
X46669Y105585D1*
X46713Y105439D1*
Y105294D1*
X46669Y105147D1*
X46582Y104930D1*
X46144Y104201D1*
X46757D1*
X47257Y105730D2*
X47127Y105658D1*
X47083Y105513D1*
Y105366D1*
X47127Y105221D1*
X47214Y105147D1*
X47389Y105075D1*
X47520Y105002D1*
X47607Y104856D1*
X47651Y104711D1*
Y104492D1*
X47607Y104347D1*
X47564Y104273D1*
X47432Y104201D1*
X47257D1*
X47127Y104273D1*
X47083Y104347D1*
X47039Y104492D1*
Y104711D1*
X47083Y104856D1*
X47171Y105002D1*
X47301Y105075D1*
X47476Y105147D1*
X47564Y105221D1*
X47607Y105366D1*
Y105513D1*
X47564Y105658D1*
X47432Y105730D1*
X47257D1*
X61271Y105732D2*
Y104639D1*
X61314Y104420D1*
X61402Y104275D1*
X61533Y104201D1*
X61620D1*
X61752Y104275D1*
X61840Y104420D1*
X61883Y104639D1*
Y105732D1*
X62210Y105366D2*
Y105439D1*
X62253Y105585D1*
X62297Y105658D1*
X62385Y105730D1*
X62560D1*
X62647Y105658D1*
X62690Y105585D1*
X62735Y105439D1*
Y105294D1*
X62690Y105147D1*
X62603Y104930D1*
X62165Y104201D1*
X62778D1*
X63629Y105221D2*
X63585Y105002D1*
X63498Y104856D1*
X63367Y104783D1*
X63323D1*
X63192Y104856D1*
X63105Y105002D1*
X63060Y105221D1*
Y105294D1*
X63105Y105513D1*
X63192Y105658D1*
X63323Y105730D1*
X63367D1*
X63498Y105658D1*
X63585Y105513D1*
X63629Y105221D1*
Y104856D1*
X63585Y104492D1*
X63498Y104273D1*
X63367Y104201D1*
X63280D1*
X63148Y104273D1*
X63105Y104420D1*
X77249Y105732D2*
Y104639D1*
X77292Y104420D1*
X77380Y104275D1*
X77512Y104201D1*
X77599D1*
X77730Y104275D1*
X77818Y104420D1*
X77861Y104639D1*
Y105732D1*
X78232Y105730D2*
X78712D1*
X78450Y105147D1*
X78581D1*
X78668Y105075D1*
X78712Y105002D1*
X78756Y104783D1*
Y104639D1*
X78712Y104420D1*
X78625Y104273D1*
X78493Y104201D1*
X78362D1*
X78232Y104273D1*
X78188Y104347D1*
X78144Y104492D1*
X79301Y105730D2*
X79170Y105658D1*
X79082Y105439D1*
X79039Y105075D1*
Y104856D1*
X79082Y104492D1*
X79170Y104273D1*
X79301Y104201D1*
X79388D1*
X79520Y104273D1*
X79607Y104492D1*
X79651Y104856D1*
Y105075D1*
X79607Y105439D1*
X79520Y105658D1*
X79388Y105730D1*
X79301D1*
X79607Y105439D2*
X79082Y104492D1*
X93445Y105732D2*
Y104639D1*
X93489Y104420D1*
X93577Y104275D1*
X93708Y104201D1*
X93795D1*
X93927Y104275D1*
X94015Y104420D1*
X94058Y104639D1*
Y105732D1*
X94428Y105730D2*
X94908D1*
X94647Y105147D1*
X94778D1*
X94865Y105075D1*
X94908Y105002D1*
X94953Y104783D1*
Y104639D1*
X94908Y104420D1*
X94821Y104273D1*
X94690Y104201D1*
X94559D1*
X94428Y104273D1*
X94385Y104347D1*
X94340Y104492D1*
X95235Y105439D2*
X95323Y105513D1*
X95455Y105730D1*
Y104201D1*
X96799Y94482D2*
Y93389D1*
X96842Y93170D1*
X96930Y93025D1*
X97062Y92951D1*
X97149D1*
X97280Y93025D1*
X97368Y93170D1*
X97411Y93389D1*
Y94482D1*
X97782Y94480D2*
X98262D1*
X98000Y93897D1*
X98131D1*
X98218Y93825D1*
X98262Y93752D1*
X98306Y93533D1*
Y93389D1*
X98262Y93170D1*
X98175Y93023D1*
X98043Y92951D1*
X97912D1*
X97782Y93023D1*
X97738Y93097D1*
X97694Y93242D1*
X98633Y94116D2*
Y94189D1*
X98677Y94335D1*
X98720Y94408D1*
X98808Y94480D1*
X98983D1*
X99070Y94408D1*
X99113Y94335D1*
X99158Y94189D1*
Y94044D1*
X99113Y93897D1*
X99026Y93680D1*
X98589Y92951D1*
X99201D1*
X96799Y78482D2*
Y77389D1*
X96842Y77170D1*
X96930Y77025D1*
X97062Y76951D1*
X97149D1*
X97280Y77025D1*
X97368Y77170D1*
X97411Y77389D1*
Y78482D1*
X97782Y78480D2*
X98262D1*
X98000Y77897D1*
X98131D1*
X98218Y77825D1*
X98262Y77752D1*
X98306Y77533D1*
Y77389D1*
X98262Y77170D1*
X98175Y77023D1*
X98043Y76951D1*
X97912D1*
X97782Y77023D1*
X97738Y77097D1*
X97694Y77242D1*
X98677Y78480D2*
X99157D1*
X98895Y77897D1*
X99026D1*
X99113Y77825D1*
X99157Y77752D1*
X99201Y77533D1*
Y77389D1*
X99157Y77170D1*
X99070Y77023D1*
X98938Y76951D1*
X98807D1*
X98677Y77023D1*
X98633Y77097D1*
X98589Y77242D1*
X96777Y62482D2*
Y61389D1*
X96821Y61170D1*
X96909Y61025D1*
X97040Y60951D1*
X97127D1*
X97258Y61025D1*
X97346Y61170D1*
X97390Y61389D1*
Y62482D1*
X97760Y62480D2*
X98240D1*
X97978Y61897D1*
X98110D1*
X98197Y61825D1*
X98240Y61752D1*
X98285Y61533D1*
Y61389D1*
X98240Y61170D1*
X98153Y61023D1*
X98022Y60951D1*
X97890D1*
X97760Y61023D1*
X97716Y61097D1*
X97672Y61242D1*
X99005Y60951D2*
Y62480D1*
X98567Y61461D1*
X99223D1*
X96799Y46482D2*
Y45389D1*
X96842Y45170D1*
X96930Y45025D1*
X97062Y44951D1*
X97149D1*
X97280Y45025D1*
X97368Y45170D1*
X97411Y45389D1*
Y46482D1*
X97782Y46480D2*
X98262D1*
X98000Y45897D1*
X98131D1*
X98218Y45825D1*
X98262Y45752D1*
X98306Y45533D1*
Y45389D1*
X98262Y45170D1*
X98175Y45023D1*
X98043Y44951D1*
X97912D1*
X97782Y45023D1*
X97738Y45097D1*
X97694Y45242D1*
X99113Y46480D2*
X98677D1*
X98633Y45825D1*
X98677Y45897D1*
X98808Y45971D1*
X98938D1*
X99070Y45897D1*
X99158Y45752D1*
X99201Y45533D1*
Y45389D1*
X99158Y45170D1*
X99070Y45023D1*
X98938Y44951D1*
X98808D1*
X98677Y45023D1*
X98633Y45097D1*
X98589Y45242D1*
X96821Y30482D2*
Y29389D1*
X96865Y29170D1*
X96952Y29025D1*
X97084Y28951D1*
X97171D1*
X97302Y29025D1*
X97390Y29170D1*
X97434Y29389D1*
Y30482D1*
X97804Y30480D2*
X98284D1*
X98022Y29897D1*
X98154D1*
X98241Y29825D1*
X98284Y29752D1*
X98329Y29533D1*
Y29389D1*
X98284Y29170D1*
X98197Y29023D1*
X98066Y28951D1*
X97934D1*
X97804Y29023D1*
X97760Y29097D1*
X97716Y29242D1*
X99135Y30263D2*
X99092Y30408D1*
X98961Y30480D1*
X98874D1*
X98742Y30408D1*
X98654Y30189D1*
X98611Y29825D1*
Y29461D1*
X98654Y29170D1*
X98742Y29023D1*
X98874Y28951D1*
X98917D1*
X99048Y29023D1*
X99135Y29170D1*
X99179Y29389D1*
Y29461D1*
X99135Y29680D1*
X99048Y29825D1*
X98917Y29897D1*
X98874D1*
X98742Y29825D1*
X98654Y29680D1*
X98611Y29461D1*
X109249Y25732D2*
Y24639D1*
X109292Y24420D1*
X109380Y24275D1*
X109512Y24201D1*
X109599D1*
X109730Y24275D1*
X109818Y24420D1*
X109861Y24639D1*
Y25732D1*
X110232Y25730D2*
X110712D1*
X110450Y25147D1*
X110581D1*
X110668Y25075D1*
X110712Y25002D1*
X110756Y24783D1*
Y24639D1*
X110712Y24420D1*
X110625Y24273D1*
X110493Y24201D1*
X110362D1*
X110232Y24273D1*
X110188Y24347D1*
X110144Y24492D1*
X111213Y24201D2*
X111651Y25730D1*
X111039D1*
X112799Y39382D2*
Y38289D1*
X112843Y38070D1*
X112931Y37925D1*
X113062Y37851D1*
X113149D1*
X113280Y37925D1*
X113368Y38070D1*
X113412Y38289D1*
Y39382D1*
X113782Y39380D2*
X114262D1*
X114001Y38797D1*
X114132D1*
X114219Y38725D1*
X114262Y38652D1*
X114307Y38433D1*
Y38289D1*
X114262Y38070D1*
X114175Y37923D1*
X114044Y37851D1*
X113913D1*
X113782Y37923D1*
X113739Y37997D1*
X113694Y38142D1*
X114807Y39380D2*
X114677Y39308D1*
X114633Y39163D1*
Y39016D1*
X114677Y38871D1*
X114764Y38797D1*
X114939Y38725D1*
X115070Y38652D1*
X115157Y38506D1*
X115201Y38361D1*
Y38142D1*
X115157Y37997D1*
X115114Y37923D1*
X114982Y37851D1*
X114807D1*
X114677Y37923D1*
X114633Y37997D1*
X114589Y38142D1*
Y38361D1*
X114633Y38506D1*
X114721Y38652D1*
X114851Y38725D1*
X115026Y38797D1*
X115114Y38871D1*
X115157Y39016D1*
Y39163D1*
X115114Y39308D1*
X114982Y39380D1*
X114807D1*
X112821Y55382D2*
Y54289D1*
X112864Y54070D1*
X112952Y53925D1*
X113083Y53851D1*
X113170D1*
X113302Y53925D1*
X113390Y54070D1*
X113433Y54289D1*
Y55382D1*
X113803Y55380D2*
X114284D1*
X114022Y54797D1*
X114153D1*
X114240Y54725D1*
X114284Y54652D1*
X114328Y54433D1*
Y54289D1*
X114284Y54070D1*
X114197Y53923D1*
X114065Y53851D1*
X113934D1*
X113803Y53923D1*
X113760Y53997D1*
X113715Y54142D1*
X115179Y54871D2*
X115135Y54652D1*
X115048Y54506D1*
X114917Y54433D1*
X114873D1*
X114742Y54506D1*
X114655Y54652D1*
X114610Y54871D1*
Y54944D1*
X114655Y55163D1*
X114742Y55308D1*
X114873Y55380D1*
X114917D1*
X115048Y55308D1*
X115135Y55163D1*
X115179Y54871D1*
Y54506D1*
X115135Y54142D1*
X115048Y53923D1*
X114917Y53851D1*
X114830D1*
X114698Y53923D1*
X114655Y54070D1*
X112777Y71382D2*
Y70289D1*
X112821Y70070D1*
X112909Y69925D1*
X113040Y69851D1*
X113127D1*
X113258Y69925D1*
X113346Y70070D1*
X113390Y70289D1*
Y71382D1*
X114110Y69851D2*
Y71380D1*
X113672Y70361D1*
X114328D1*
X114873Y71380D2*
X114742Y71308D1*
X114654Y71089D1*
X114610Y70725D1*
Y70506D1*
X114654Y70142D1*
X114742Y69923D1*
X114873Y69851D1*
X114960D1*
X115091Y69923D1*
X115178Y70142D1*
X115223Y70506D1*
Y70725D1*
X115178Y71089D1*
X115091Y71308D1*
X114960Y71380D1*
X114873D1*
X115178Y71089D2*
X114654Y70142D1*
X112974Y87382D2*
Y86289D1*
X113017Y86070D1*
X113105Y85925D1*
X113237Y85851D1*
X113323D1*
X113455Y85925D1*
X113543Y86070D1*
X113586Y86289D1*
Y87382D1*
X114306Y85851D2*
Y87380D1*
X113869Y86361D1*
X114525D1*
X114807Y87089D2*
X114895Y87163D1*
X115026Y87380D1*
Y85851D1*
X112777Y103382D2*
Y102289D1*
X112821Y102070D1*
X112909Y101925D1*
X113040Y101851D1*
X113127D1*
X113258Y101925D1*
X113346Y102070D1*
X113390Y102289D1*
Y103382D1*
X114110Y101851D2*
Y103380D1*
X113672Y102361D1*
X114328D1*
X114655Y103016D2*
Y103089D1*
X114698Y103235D1*
X114742Y103308D1*
X114830Y103380D1*
X115005D1*
X115091Y103308D1*
X115135Y103235D1*
X115179Y103089D1*
Y102944D1*
X115135Y102797D1*
X115048Y102580D1*
X114610Y101851D1*
X115223D1*
X112777Y119382D2*
Y118289D1*
X112821Y118070D1*
X112909Y117925D1*
X113040Y117851D1*
X113127D1*
X113258Y117925D1*
X113346Y118070D1*
X113390Y118289D1*
Y119382D1*
X114110Y117851D2*
Y119380D1*
X113672Y118361D1*
X114328D1*
X114698Y119380D2*
X115178D1*
X114917Y118797D1*
X115048D1*
X115135Y118725D1*
X115178Y118652D1*
X115223Y118433D1*
Y118289D1*
X115178Y118070D1*
X115091Y117923D1*
X114960Y117851D1*
X114829D1*
X114698Y117923D1*
X114655Y117997D1*
X114610Y118142D1*
X100305Y121732D2*
Y120639D1*
X100349Y120420D1*
X100437Y120275D1*
X100568Y120201D1*
X100655D1*
X100787Y120275D1*
X100874Y120420D1*
X100918Y120639D1*
Y121732D1*
X101638Y120201D2*
Y121730D1*
X101200Y120711D1*
X101856D1*
X102576Y120201D2*
Y121730D1*
X102139Y120711D1*
X102795D1*
X84327Y121732D2*
Y120639D1*
X84371Y120420D1*
X84459Y120275D1*
X84590Y120201D1*
X84677D1*
X84808Y120275D1*
X84896Y120420D1*
X84940Y120639D1*
Y121732D1*
X85660Y120201D2*
Y121730D1*
X85222Y120711D1*
X85878D1*
X86685Y121730D2*
X86248D1*
X86205Y121075D1*
X86248Y121147D1*
X86380Y121221D1*
X86510D1*
X86641Y121147D1*
X86729Y121002D1*
X86773Y120783D1*
Y120639D1*
X86729Y120420D1*
X86641Y120273D1*
X86510Y120201D1*
X86380D1*
X86248Y120273D1*
X86205Y120347D1*
X86160Y120492D1*
X68349Y121732D2*
Y120639D1*
X68393Y120420D1*
X68481Y120275D1*
X68612Y120201D1*
X68699D1*
X68830Y120275D1*
X68918Y120420D1*
X68962Y120639D1*
Y121732D1*
X69682Y120201D2*
Y121730D1*
X69244Y120711D1*
X69900D1*
X70707Y121513D2*
X70664Y121658D1*
X70532Y121730D1*
X70445D1*
X70314Y121658D1*
X70226Y121439D1*
X70183Y121075D1*
Y120711D1*
X70226Y120420D1*
X70314Y120273D1*
X70445Y120201D1*
X70489D1*
X70619Y120273D1*
X70707Y120420D1*
X70751Y120639D1*
Y120711D1*
X70707Y120930D1*
X70619Y121075D1*
X70489Y121147D1*
X70445D1*
X70314Y121075D1*
X70226Y120930D1*
X70183Y120711D1*
X52327Y121732D2*
Y120639D1*
X52371Y120420D1*
X52459Y120275D1*
X52590Y120201D1*
X52677D1*
X52808Y120275D1*
X52896Y120420D1*
X52940Y120639D1*
Y121732D1*
X53660Y120201D2*
Y121730D1*
X53222Y120711D1*
X53878D1*
X54335Y120201D2*
X54773Y121730D1*
X54160D1*
X36328Y121732D2*
Y120639D1*
X36371Y120420D1*
X36459Y120275D1*
X36590Y120201D1*
X36677D1*
X36809Y120275D1*
X36897Y120420D1*
X36940Y120639D1*
Y121732D1*
X37660Y120201D2*
Y121730D1*
X37223Y120711D1*
X37878D1*
X38379Y121730D2*
X38249Y121658D1*
X38204Y121513D1*
Y121366D1*
X38249Y121221D1*
X38336Y121147D1*
X38511Y121075D1*
X38642Y121002D1*
X38729Y120856D1*
X38772Y120711D1*
Y120492D1*
X38729Y120347D1*
X38685Y120273D1*
X38554Y120201D1*
X38379D1*
X38249Y120273D1*
X38204Y120347D1*
X38161Y120492D1*
Y120711D1*
X38204Y120856D1*
X38292Y121002D1*
X38423Y121075D1*
X38598Y121147D1*
X38685Y121221D1*
X38729Y121366D1*
Y121513D1*
X38685Y121658D1*
X38554Y121730D1*
X38379D1*
X20349Y121732D2*
Y120639D1*
X20392Y120420D1*
X20480Y120275D1*
X20612Y120201D1*
X20699D1*
X20830Y120275D1*
X20918Y120420D1*
X20961Y120639D1*
Y121732D1*
X21681Y120201D2*
Y121730D1*
X21244Y120711D1*
X21900D1*
X22751Y121221D2*
X22707Y121002D1*
X22620Y120856D1*
X22488Y120783D1*
X22445D1*
X22313Y120856D1*
X22227Y121002D1*
X22182Y121221D1*
Y121294D1*
X22227Y121513D1*
X22313Y121658D1*
X22445Y121730D1*
X22488D1*
X22620Y121658D1*
X22707Y121513D1*
X22751Y121221D1*
Y120856D1*
X22707Y120492D1*
X22620Y120273D1*
X22488Y120201D1*
X22401D1*
X22270Y120273D1*
X22227Y120420D1*
X16799Y135382D2*
Y134289D1*
X16842Y134070D1*
X16930Y133925D1*
X17062Y133851D1*
X17149D1*
X17280Y133925D1*
X17368Y134070D1*
X17411Y134289D1*
Y135382D1*
X18218Y135380D2*
X17782D1*
X17738Y134725D1*
X17782Y134797D1*
X17913Y134871D1*
X18043D1*
X18175Y134797D1*
X18263Y134652D1*
X18306Y134433D1*
Y134289D1*
X18263Y134070D1*
X18175Y133923D1*
X18043Y133851D1*
X17913D1*
X17782Y133923D1*
X17738Y133997D1*
X17694Y134142D1*
X18851Y135380D2*
X18720Y135308D1*
X18632Y135089D1*
X18589Y134725D1*
Y134506D1*
X18632Y134142D1*
X18720Y133923D1*
X18851Y133851D1*
X18938D1*
X19070Y133923D1*
X19157Y134142D1*
X19201Y134506D1*
Y134725D1*
X19157Y135089D1*
X19070Y135308D1*
X18938Y135380D1*
X18851D1*
X19157Y135089D2*
X18632Y134142D1*
X29445Y137732D2*
Y136639D1*
X29489Y136420D1*
X29577Y136275D1*
X29708Y136201D1*
X29795D1*
X29927Y136275D1*
X30015Y136420D1*
X30058Y136639D1*
Y137732D1*
X30865Y137730D2*
X30428D1*
X30385Y137075D1*
X30428Y137147D1*
X30560Y137221D1*
X30690D1*
X30821Y137147D1*
X30909Y137002D1*
X30953Y136783D1*
Y136639D1*
X30909Y136420D1*
X30821Y136273D1*
X30690Y136201D1*
X30560D1*
X30428Y136273D1*
X30385Y136347D1*
X30340Y136492D1*
X31235Y137439D2*
X31323Y137513D1*
X31455Y137730D1*
Y136201D1*
X45249Y137732D2*
Y136639D1*
X45292Y136420D1*
X45380Y136275D1*
X45512Y136201D1*
X45599D1*
X45730Y136275D1*
X45818Y136420D1*
X45861Y136639D1*
Y137732D1*
X46668Y137730D2*
X46232D1*
X46188Y137075D1*
X46232Y137147D1*
X46363Y137221D1*
X46493D1*
X46625Y137147D1*
X46713Y137002D1*
X46756Y136783D1*
Y136639D1*
X46713Y136420D1*
X46625Y136273D1*
X46493Y136201D1*
X46363D1*
X46232Y136273D1*
X46188Y136347D1*
X46144Y136492D1*
X47083Y137366D2*
Y137439D1*
X47127Y137585D1*
X47170Y137658D1*
X47258Y137730D1*
X47433D1*
X47520Y137658D1*
X47563Y137585D1*
X47608Y137439D1*
Y137294D1*
X47563Y137147D1*
X47476Y136930D1*
X47039Y136201D1*
X47651D1*
X61249Y137732D2*
Y136639D1*
X61292Y136420D1*
X61380Y136275D1*
X61512Y136201D1*
X61599D1*
X61730Y136275D1*
X61818Y136420D1*
X61861Y136639D1*
Y137732D1*
X62668Y137730D2*
X62232D1*
X62188Y137075D1*
X62232Y137147D1*
X62363Y137221D1*
X62493D1*
X62625Y137147D1*
X62713Y137002D1*
X62756Y136783D1*
Y136639D1*
X62713Y136420D1*
X62625Y136273D1*
X62493Y136201D1*
X62363D1*
X62232Y136273D1*
X62188Y136347D1*
X62144Y136492D1*
X63127Y137730D2*
X63607D1*
X63345Y137147D1*
X63476D1*
X63563Y137075D1*
X63607Y137002D1*
X63651Y136783D1*
Y136639D1*
X63607Y136420D1*
X63520Y136273D1*
X63388Y136201D1*
X63257D1*
X63127Y136273D1*
X63083Y136347D1*
X63039Y136492D1*
X77227Y137732D2*
Y136639D1*
X77271Y136420D1*
X77359Y136275D1*
X77490Y136201D1*
X77577D1*
X77708Y136275D1*
X77796Y136420D1*
X77840Y136639D1*
Y137732D1*
X78647Y137730D2*
X78210D1*
X78166Y137075D1*
X78210Y137147D1*
X78341Y137221D1*
X78472D1*
X78603Y137147D1*
X78691Y137002D1*
X78735Y136783D1*
Y136639D1*
X78691Y136420D1*
X78603Y136273D1*
X78472Y136201D1*
X78341D1*
X78210Y136273D1*
X78166Y136347D1*
X78122Y136492D1*
X79455Y136201D2*
Y137730D1*
X79017Y136711D1*
X79673D1*
X93249Y137732D2*
Y136639D1*
X93292Y136420D1*
X93380Y136275D1*
X93512Y136201D1*
X93599D1*
X93730Y136275D1*
X93818Y136420D1*
X93861Y136639D1*
Y137732D1*
X94668Y137730D2*
X94232D1*
X94188Y137075D1*
X94232Y137147D1*
X94363Y137221D1*
X94493D1*
X94625Y137147D1*
X94713Y137002D1*
X94756Y136783D1*
Y136639D1*
X94713Y136420D1*
X94625Y136273D1*
X94493Y136201D1*
X94363D1*
X94232Y136273D1*
X94188Y136347D1*
X94144Y136492D1*
X95563Y137730D2*
X95127D1*
X95083Y137075D1*
X95127Y137147D1*
X95258Y137221D1*
X95388D1*
X95520Y137147D1*
X95608Y137002D1*
X95651Y136783D1*
Y136639D1*
X95608Y136420D1*
X95520Y136273D1*
X95388Y136201D1*
X95258D1*
X95127Y136273D1*
X95083Y136347D1*
X95039Y136492D1*
X109271Y137732D2*
Y136639D1*
X109315Y136420D1*
X109402Y136275D1*
X109534Y136201D1*
X109621D1*
X109752Y136275D1*
X109840Y136420D1*
X109884Y136639D1*
Y137732D1*
X110691Y137730D2*
X110254D1*
X110210Y137075D1*
X110254Y137147D1*
X110385Y137221D1*
X110516D1*
X110647Y137147D1*
X110735Y137002D1*
X110779Y136783D1*
Y136639D1*
X110735Y136420D1*
X110647Y136273D1*
X110516Y136201D1*
X110385D1*
X110254Y136273D1*
X110210Y136347D1*
X110166Y136492D1*
X111585Y137513D2*
X111542Y137658D1*
X111411Y137730D1*
X111324D1*
X111192Y137658D1*
X111104Y137439D1*
X111061Y137075D1*
Y136711D1*
X111104Y136420D1*
X111192Y136273D1*
X111324Y136201D1*
X111367D1*
X111498Y136273D1*
X111585Y136420D1*
X111629Y136639D1*
Y136711D1*
X111585Y136930D1*
X111498Y137075D1*
X111367Y137147D1*
X111324D1*
X111192Y137075D1*
X111104Y136930D1*
X111061Y136711D1*
X125249Y137732D2*
Y136639D1*
X125292Y136420D1*
X125380Y136275D1*
X125512Y136201D1*
X125599D1*
X125730Y136275D1*
X125818Y136420D1*
X125861Y136639D1*
Y137732D1*
X126668Y137730D2*
X126232D1*
X126188Y137075D1*
X126232Y137147D1*
X126363Y137221D1*
X126493D1*
X126625Y137147D1*
X126713Y137002D1*
X126756Y136783D1*
Y136639D1*
X126713Y136420D1*
X126625Y136273D1*
X126493Y136201D1*
X126363D1*
X126232Y136273D1*
X126188Y136347D1*
X126144Y136492D1*
X127213Y136201D2*
X127651Y137730D1*
X127039D1*
X128799Y126482D2*
Y125389D1*
X128843Y125170D1*
X128931Y125025D1*
X129062Y124951D1*
X129149D1*
X129280Y125025D1*
X129368Y125170D1*
X129412Y125389D1*
Y126482D1*
X130219Y126480D2*
X129782D1*
X129739Y125825D1*
X129782Y125897D1*
X129914Y125971D1*
X130044D1*
X130175Y125897D1*
X130263Y125752D1*
X130307Y125533D1*
Y125389D1*
X130263Y125170D1*
X130175Y125023D1*
X130044Y124951D1*
X129914D1*
X129782Y125023D1*
X129739Y125097D1*
X129694Y125242D1*
X130807Y126480D2*
X130677Y126408D1*
X130633Y126263D1*
Y126116D1*
X130677Y125971D1*
X130764Y125897D1*
X130939Y125825D1*
X131070Y125752D1*
X131157Y125606D1*
X131201Y125461D1*
Y125242D1*
X131157Y125097D1*
X131114Y125023D1*
X130982Y124951D1*
X130807D1*
X130677Y125023D1*
X130633Y125097D1*
X130589Y125242D1*
Y125461D1*
X130633Y125606D1*
X130721Y125752D1*
X130851Y125825D1*
X131026Y125897D1*
X131114Y125971D1*
X131157Y126116D1*
Y126263D1*
X131114Y126408D1*
X130982Y126480D1*
X130807D1*
X128821Y110482D2*
Y109389D1*
X128864Y109170D1*
X128952Y109025D1*
X129083Y108951D1*
X129170D1*
X129302Y109025D1*
X129390Y109170D1*
X129433Y109389D1*
Y110482D1*
X130240Y110480D2*
X129803D1*
X129760Y109825D1*
X129803Y109897D1*
X129935Y109971D1*
X130065D1*
X130197Y109897D1*
X130285Y109752D1*
X130328Y109533D1*
Y109389D1*
X130285Y109170D1*
X130197Y109023D1*
X130065Y108951D1*
X129935D1*
X129803Y109023D1*
X129760Y109097D1*
X129715Y109242D1*
X131179Y109971D2*
X131135Y109752D1*
X131048Y109606D1*
X130917Y109533D1*
X130873D1*
X130742Y109606D1*
X130655Y109752D1*
X130610Y109971D1*
Y110044D1*
X130655Y110263D1*
X130742Y110408D1*
X130873Y110480D1*
X130917D1*
X131048Y110408D1*
X131135Y110263D1*
X131179Y109971D1*
Y109606D1*
X131135Y109242D1*
X131048Y109023D1*
X130917Y108951D1*
X130830D1*
X130698Y109023D1*
X130655Y109170D1*
X128821Y94482D2*
Y93389D1*
X128865Y93170D1*
X128952Y93025D1*
X129084Y92951D1*
X129171D1*
X129302Y93025D1*
X129390Y93170D1*
X129434Y93389D1*
Y94482D1*
X130241Y94263D2*
X130197Y94408D1*
X130066Y94480D1*
X129979D1*
X129847Y94408D1*
X129759Y94189D1*
X129716Y93825D1*
Y93461D1*
X129759Y93170D1*
X129847Y93023D1*
X129979Y92951D1*
X130022D1*
X130153Y93023D1*
X130241Y93170D1*
X130284Y93389D1*
Y93461D1*
X130241Y93680D1*
X130153Y93825D1*
X130022Y93897D1*
X129979D1*
X129847Y93825D1*
X129759Y93680D1*
X129716Y93461D1*
X130829Y94480D2*
X130698Y94408D1*
X130610Y94189D1*
X130566Y93825D1*
Y93606D1*
X130610Y93242D1*
X130698Y93023D1*
X130829Y92951D1*
X130916D1*
X131048Y93023D1*
X131134Y93242D1*
X131179Y93606D1*
Y93825D1*
X131134Y94189D1*
X131048Y94408D1*
X130916Y94480D1*
X130829D1*
X131134Y94189D2*
X130610Y93242D1*
X129018Y78482D2*
Y77389D1*
X129061Y77170D1*
X129149Y77025D1*
X129280Y76951D1*
X129367D1*
X129499Y77025D1*
X129587Y77170D1*
X129630Y77389D1*
Y78482D1*
X130437Y78263D2*
X130394Y78408D1*
X130262Y78480D1*
X130175D1*
X130044Y78408D1*
X129956Y78189D1*
X129913Y77825D1*
Y77461D1*
X129956Y77170D1*
X130044Y77023D1*
X130175Y76951D1*
X130219D1*
X130349Y77023D1*
X130437Y77170D1*
X130481Y77389D1*
Y77461D1*
X130437Y77680D1*
X130349Y77825D1*
X130219Y77897D1*
X130175D1*
X130044Y77825D1*
X129956Y77680D1*
X129913Y77461D1*
X130763Y78189D2*
X130851Y78263D1*
X130982Y78480D1*
Y76951D1*
X128821Y62482D2*
Y61389D1*
X128865Y61170D1*
X128952Y61025D1*
X129084Y60951D1*
X129171D1*
X129302Y61025D1*
X129390Y61170D1*
X129434Y61389D1*
Y62482D1*
X130241Y62263D2*
X130197Y62408D1*
X130066Y62480D1*
X129979D1*
X129847Y62408D1*
X129759Y62189D1*
X129716Y61825D1*
Y61461D1*
X129759Y61170D1*
X129847Y61023D1*
X129979Y60951D1*
X130022D1*
X130153Y61023D1*
X130241Y61170D1*
X130284Y61389D1*
Y61461D1*
X130241Y61680D1*
X130153Y61825D1*
X130022Y61897D1*
X129979D1*
X129847Y61825D1*
X129759Y61680D1*
X129716Y61461D1*
X130611Y62116D2*
Y62189D1*
X130654Y62335D1*
X130698Y62408D1*
X130786Y62480D1*
X130961D1*
X131048Y62408D1*
X131091Y62335D1*
X131135Y62189D1*
Y62044D1*
X131091Y61897D1*
X131004Y61680D1*
X130566Y60951D1*
X131179D1*
X128821Y46482D2*
Y45389D1*
X128865Y45170D1*
X128952Y45025D1*
X129084Y44951D1*
X129171D1*
X129302Y45025D1*
X129390Y45170D1*
X129434Y45389D1*
Y46482D1*
X130241Y46263D2*
X130197Y46408D1*
X130066Y46480D1*
X129979D1*
X129847Y46408D1*
X129759Y46189D1*
X129716Y45825D1*
Y45461D1*
X129759Y45170D1*
X129847Y45023D1*
X129979Y44951D1*
X130022D1*
X130153Y45023D1*
X130241Y45170D1*
X130284Y45389D1*
Y45461D1*
X130241Y45680D1*
X130153Y45825D1*
X130022Y45897D1*
X129979D1*
X129847Y45825D1*
X129759Y45680D1*
X129716Y45461D1*
X130654Y46480D2*
X131134D1*
X130873Y45897D1*
X131004D1*
X131091Y45825D1*
X131134Y45752D1*
X131179Y45533D1*
Y45389D1*
X131134Y45170D1*
X131048Y45023D1*
X130916Y44951D1*
X130785D1*
X130654Y45023D1*
X130611Y45097D1*
X130566Y45242D1*
X128799Y30482D2*
Y29389D1*
X128843Y29170D1*
X128931Y29025D1*
X129062Y28951D1*
X129149D1*
X129280Y29025D1*
X129368Y29170D1*
X129412Y29389D1*
Y30482D1*
X130219Y30263D2*
X130175Y30408D1*
X130044Y30480D1*
X129957D1*
X129826Y30408D1*
X129738Y30189D1*
X129694Y29825D1*
Y29461D1*
X129738Y29170D1*
X129826Y29023D1*
X129957Y28951D1*
X130001D1*
X130131Y29023D1*
X130219Y29170D1*
X130262Y29389D1*
Y29461D1*
X130219Y29680D1*
X130131Y29825D1*
X130001Y29897D1*
X129957D1*
X129826Y29825D1*
X129738Y29680D1*
X129694Y29461D1*
X130982Y28951D2*
Y30480D1*
X130545Y29461D1*
X131201D1*
M02*
