G04 DipTrace 2.4.0.2*
%IN64xAPA102Crigid.gto*%
%MOMM*%
%ADD10C,0.25*%
%ADD18O,0.925X0.975*%
%ADD28C,0.118*%
%ADD29C,0.157*%
%FSLAX53Y53*%
G04*
G71*
G90*
G75*
G01*
%LNTopSilk*%
%LPD*%
X13858Y25308D2*
D10*
Y23308D1*
X18858Y25308D2*
Y23308D1*
Y22108D2*
Y20108D1*
X13858Y22108D2*
Y20108D1*
D18*
X13496Y20245D3*
X13858Y33308D2*
D10*
Y31308D1*
X18858Y33308D2*
Y31308D1*
Y30108D2*
Y28108D1*
X13858Y30108D2*
Y28108D1*
D18*
X13496Y28245D3*
X13858Y41308D2*
D10*
Y39308D1*
X18858Y41308D2*
Y39308D1*
Y38108D2*
Y36108D1*
X13858Y38108D2*
Y36108D1*
D18*
X13496Y36245D3*
X13858Y49308D2*
D10*
Y47308D1*
X18858Y49308D2*
Y47308D1*
Y46108D2*
Y44108D1*
X13858Y46108D2*
Y44108D1*
D18*
X13496Y44245D3*
X13858Y57308D2*
D10*
Y55308D1*
X18858Y57308D2*
Y55308D1*
Y54108D2*
Y52108D1*
X13858Y54108D2*
Y52108D1*
D18*
X13496Y52245D3*
X13858Y65308D2*
D10*
Y63308D1*
X18858Y65308D2*
Y63308D1*
Y62108D2*
Y60108D1*
X13858Y62108D2*
Y60108D1*
D18*
X13496Y60245D3*
X13858Y73308D2*
D10*
Y71308D1*
X18858Y73308D2*
Y71308D1*
Y70108D2*
Y68108D1*
X13858Y70108D2*
Y68108D1*
D18*
X13496Y68245D3*
X13858Y81308D2*
D10*
Y79308D1*
X18858Y81308D2*
Y79308D1*
Y78108D2*
Y76108D1*
X13858Y78108D2*
Y76108D1*
D18*
X13496Y76245D3*
X26858Y76108D2*
D10*
Y78108D1*
X21858Y76108D2*
Y78108D1*
Y79308D2*
Y81308D1*
X26858Y79308D2*
Y81308D1*
D18*
X27221Y81171D3*
X26858Y68108D2*
D10*
Y70108D1*
X21858Y68108D2*
Y70108D1*
Y71308D2*
Y73308D1*
X26858Y71308D2*
Y73308D1*
D18*
X27221Y73171D3*
X26858Y60108D2*
D10*
Y62108D1*
X21858Y60108D2*
Y62108D1*
Y63308D2*
Y65308D1*
X26858Y63308D2*
Y65308D1*
D18*
X27221Y65171D3*
X26858Y52108D2*
D10*
Y54108D1*
X21858Y52108D2*
Y54108D1*
Y55308D2*
Y57308D1*
X26858Y55308D2*
Y57308D1*
D18*
X27221Y57171D3*
X26858Y44108D2*
D10*
Y46108D1*
X21858Y44108D2*
Y46108D1*
Y47308D2*
Y49308D1*
X26858Y47308D2*
Y49308D1*
D18*
X27221Y49171D3*
X26858Y36108D2*
D10*
Y38108D1*
X21858Y36108D2*
Y38108D1*
Y39308D2*
Y41308D1*
X26858Y39308D2*
Y41308D1*
D18*
X27221Y41171D3*
X26858Y28108D2*
D10*
Y30108D1*
X21858Y28108D2*
Y30108D1*
Y31308D2*
Y33308D1*
X26858Y31308D2*
Y33308D1*
D18*
X27221Y33171D3*
X26858Y20108D2*
D10*
Y22108D1*
X21858Y20108D2*
Y22108D1*
Y23308D2*
Y25308D1*
X26858Y23308D2*
Y25308D1*
D18*
X27221Y25171D3*
X29858Y25308D2*
D10*
Y23308D1*
X34858Y25308D2*
Y23308D1*
Y22108D2*
Y20108D1*
X29858Y22108D2*
Y20108D1*
D18*
X29496Y20245D3*
X29858Y33308D2*
D10*
Y31308D1*
X34858Y33308D2*
Y31308D1*
Y30108D2*
Y28108D1*
X29858Y30108D2*
Y28108D1*
D18*
X29496Y28245D3*
X29858Y41308D2*
D10*
Y39308D1*
X34858Y41308D2*
Y39308D1*
Y38108D2*
Y36108D1*
X29858Y38108D2*
Y36108D1*
D18*
X29496Y36245D3*
X29858Y49308D2*
D10*
Y47308D1*
X34858Y49308D2*
Y47308D1*
Y46108D2*
Y44108D1*
X29858Y46108D2*
Y44108D1*
D18*
X29496Y44245D3*
X29858Y57308D2*
D10*
Y55308D1*
X34858Y57308D2*
Y55308D1*
Y54108D2*
Y52108D1*
X29858Y54108D2*
Y52108D1*
D18*
X29496Y52245D3*
X29858Y65308D2*
D10*
Y63308D1*
X34858Y65308D2*
Y63308D1*
Y62108D2*
Y60108D1*
X29858Y62108D2*
Y60108D1*
D18*
X29496Y60245D3*
X29858Y73308D2*
D10*
Y71308D1*
X34858Y73308D2*
Y71308D1*
Y70108D2*
Y68108D1*
X29858Y70108D2*
Y68108D1*
D18*
X29496Y68245D3*
X29858Y81308D2*
D10*
Y79308D1*
X34858Y81308D2*
Y79308D1*
Y78108D2*
Y76108D1*
X29858Y78108D2*
Y76108D1*
D18*
X29496Y76245D3*
X42858Y76108D2*
D10*
Y78108D1*
X37858Y76108D2*
Y78108D1*
Y79308D2*
Y81308D1*
X42858Y79308D2*
Y81308D1*
D18*
X43221Y81171D3*
X42858Y68108D2*
D10*
Y70108D1*
X37858Y68108D2*
Y70108D1*
Y71308D2*
Y73308D1*
X42858Y71308D2*
Y73308D1*
D18*
X43221Y73171D3*
X42858Y60108D2*
D10*
Y62108D1*
X37858Y60108D2*
Y62108D1*
Y63308D2*
Y65308D1*
X42858Y63308D2*
Y65308D1*
D18*
X43221Y65171D3*
X42858Y52108D2*
D10*
Y54108D1*
X37858Y52108D2*
Y54108D1*
Y55308D2*
Y57308D1*
X42858Y55308D2*
Y57308D1*
D18*
X43221Y57171D3*
X42858Y44108D2*
D10*
Y46108D1*
X37858Y44108D2*
Y46108D1*
Y47308D2*
Y49308D1*
X42858Y47308D2*
Y49308D1*
D18*
X43221Y49171D3*
X42858Y36108D2*
D10*
Y38108D1*
X37858Y36108D2*
Y38108D1*
Y39308D2*
Y41308D1*
X42858Y39308D2*
Y41308D1*
D18*
X43221Y41171D3*
X42858Y28108D2*
D10*
Y30108D1*
X37858Y28108D2*
Y30108D1*
Y31308D2*
Y33308D1*
X42858Y31308D2*
Y33308D1*
D18*
X43221Y33171D3*
X42858Y20108D2*
D10*
Y22108D1*
X37858Y20108D2*
Y22108D1*
Y23308D2*
Y25308D1*
X42858Y23308D2*
Y25308D1*
D18*
X43221Y25171D3*
X45858Y25308D2*
D10*
Y23308D1*
X50858Y25308D2*
Y23308D1*
Y22108D2*
Y20108D1*
X45858Y22108D2*
Y20108D1*
D18*
X45496Y20245D3*
X45858Y33308D2*
D10*
Y31308D1*
X50858Y33308D2*
Y31308D1*
Y30108D2*
Y28108D1*
X45858Y30108D2*
Y28108D1*
D18*
X45496Y28245D3*
X45858Y41308D2*
D10*
Y39308D1*
X50858Y41308D2*
Y39308D1*
Y38108D2*
Y36108D1*
X45858Y38108D2*
Y36108D1*
D18*
X45496Y36245D3*
X45858Y49308D2*
D10*
Y47308D1*
X50858Y49308D2*
Y47308D1*
Y46108D2*
Y44108D1*
X45858Y46108D2*
Y44108D1*
D18*
X45496Y44245D3*
X45858Y57308D2*
D10*
Y55308D1*
X50858Y57308D2*
Y55308D1*
Y54108D2*
Y52108D1*
X45858Y54108D2*
Y52108D1*
D18*
X45496Y52245D3*
X45858Y65308D2*
D10*
Y63308D1*
X50858Y65308D2*
Y63308D1*
Y62108D2*
Y60108D1*
X45858Y62108D2*
Y60108D1*
D18*
X45496Y60245D3*
X45858Y73308D2*
D10*
Y71308D1*
X50858Y73308D2*
Y71308D1*
Y70108D2*
Y68108D1*
X45858Y70108D2*
Y68108D1*
D18*
X45496Y68245D3*
X45858Y81308D2*
D10*
Y79308D1*
X50858Y81308D2*
Y79308D1*
Y78108D2*
Y76108D1*
X45858Y78108D2*
Y76108D1*
D18*
X45496Y76245D3*
X58858Y76108D2*
D10*
Y78108D1*
X53858Y76108D2*
Y78108D1*
Y79308D2*
Y81308D1*
X58858Y79308D2*
Y81308D1*
D18*
X59221Y81171D3*
X58858Y68108D2*
D10*
Y70108D1*
X53858Y68108D2*
Y70108D1*
Y71308D2*
Y73308D1*
X58858Y71308D2*
Y73308D1*
D18*
X59221Y73171D3*
X58858Y60108D2*
D10*
Y62108D1*
X53858Y60108D2*
Y62108D1*
Y63308D2*
Y65308D1*
X58858Y63308D2*
Y65308D1*
D18*
X59221Y65171D3*
X58858Y52108D2*
D10*
Y54108D1*
X53858Y52108D2*
Y54108D1*
Y55308D2*
Y57308D1*
X58858Y55308D2*
Y57308D1*
D18*
X59221Y57171D3*
X58858Y44108D2*
D10*
Y46108D1*
X53858Y44108D2*
Y46108D1*
Y47308D2*
Y49308D1*
X58858Y47308D2*
Y49308D1*
D18*
X59221Y49171D3*
X58858Y36108D2*
D10*
Y38108D1*
X53858Y36108D2*
Y38108D1*
Y39308D2*
Y41308D1*
X58858Y39308D2*
Y41308D1*
D18*
X59221Y41171D3*
X58858Y28108D2*
D10*
Y30108D1*
X53858Y28108D2*
Y30108D1*
Y31308D2*
Y33308D1*
X58858Y31308D2*
Y33308D1*
D18*
X59221Y33171D3*
X58858Y20108D2*
D10*
Y22108D1*
X53858Y20108D2*
Y22108D1*
Y23308D2*
Y25308D1*
X58858Y23308D2*
Y25308D1*
D18*
X59221Y25171D3*
X61858Y25308D2*
D10*
Y23308D1*
X66858Y25308D2*
Y23308D1*
Y22108D2*
Y20108D1*
X61858Y22108D2*
Y20108D1*
D18*
X61496Y20245D3*
X61858Y33308D2*
D10*
Y31308D1*
X66858Y33308D2*
Y31308D1*
Y30108D2*
Y28108D1*
X61858Y30108D2*
Y28108D1*
D18*
X61496Y28245D3*
X61858Y41308D2*
D10*
Y39308D1*
X66858Y41308D2*
Y39308D1*
Y38108D2*
Y36108D1*
X61858Y38108D2*
Y36108D1*
D18*
X61496Y36245D3*
X61858Y49308D2*
D10*
Y47308D1*
X66858Y49308D2*
Y47308D1*
Y46108D2*
Y44108D1*
X61858Y46108D2*
Y44108D1*
D18*
X61496Y44245D3*
X61858Y57308D2*
D10*
Y55308D1*
X66858Y57308D2*
Y55308D1*
Y54108D2*
Y52108D1*
X61858Y54108D2*
Y52108D1*
D18*
X61496Y52245D3*
X61858Y65308D2*
D10*
Y63308D1*
X66858Y65308D2*
Y63308D1*
Y62108D2*
Y60108D1*
X61858Y62108D2*
Y60108D1*
D18*
X61496Y60245D3*
X61858Y73308D2*
D10*
Y71308D1*
X66858Y73308D2*
Y71308D1*
Y70108D2*
Y68108D1*
X61858Y70108D2*
Y68108D1*
D18*
X61496Y68245D3*
X61858Y81308D2*
D10*
Y79308D1*
X66858Y81308D2*
Y79308D1*
Y78108D2*
Y76108D1*
X61858Y78108D2*
Y76108D1*
D18*
X61496Y76245D3*
X74858Y76108D2*
D10*
Y78108D1*
X69858Y76108D2*
Y78108D1*
Y79308D2*
Y81308D1*
X74858Y79308D2*
Y81308D1*
D18*
X75221Y81171D3*
X74858Y68108D2*
D10*
Y70108D1*
X69858Y68108D2*
Y70108D1*
Y71308D2*
Y73308D1*
X74858Y71308D2*
Y73308D1*
D18*
X75221Y73171D3*
X74858Y60108D2*
D10*
Y62108D1*
X69858Y60108D2*
Y62108D1*
Y63308D2*
Y65308D1*
X74858Y63308D2*
Y65308D1*
D18*
X75221Y65171D3*
X74858Y52108D2*
D10*
Y54108D1*
X69858Y52108D2*
Y54108D1*
Y55308D2*
Y57308D1*
X74858Y55308D2*
Y57308D1*
D18*
X75221Y57171D3*
X74858Y44108D2*
D10*
Y46108D1*
X69858Y44108D2*
Y46108D1*
Y47308D2*
Y49308D1*
X74858Y47308D2*
Y49308D1*
D18*
X75221Y49171D3*
X74858Y36108D2*
D10*
Y38108D1*
X69858Y36108D2*
Y38108D1*
Y39308D2*
Y41308D1*
X74858Y39308D2*
Y41308D1*
D18*
X75221Y41171D3*
X74858Y28108D2*
D10*
Y30108D1*
X69858Y28108D2*
Y30108D1*
Y31308D2*
Y33308D1*
X74858Y31308D2*
Y33308D1*
D18*
X75221Y33171D3*
X74858Y20108D2*
D10*
Y22108D1*
X69858Y20108D2*
Y22108D1*
Y23308D2*
Y25308D1*
X74858Y23308D2*
Y25308D1*
D18*
X75221Y25171D3*
X71495Y20053D2*
D28*
Y19470D1*
X71474Y19360D1*
X71451Y19324D1*
X71408Y19287D1*
X71364D1*
X71320Y19324D1*
X71299Y19360D1*
X71277Y19470D1*
Y19542D1*
X71637Y19906D2*
X71680Y19943D1*
X71746Y20052D1*
Y19287D1*
X17246Y20111D2*
Y19529D1*
X17224Y19419D1*
X17202Y19383D1*
X17158Y19346D1*
X17115D1*
X17071Y19383D1*
X17049Y19419D1*
X17027Y19529D1*
Y19601D1*
X17409Y19929D2*
Y19965D1*
X17431Y20038D1*
X17453Y20074D1*
X17497Y20111D1*
X17584D1*
X17628Y20074D1*
X17649Y20038D1*
X17672Y19965D1*
Y19892D1*
X17649Y19819D1*
X17606Y19710D1*
X17387Y19346D1*
X17693D1*
X15667Y26974D2*
Y26427D1*
X15689Y26318D1*
X15733Y26245D1*
X15798Y26208D1*
X15842D1*
X15908Y26245D1*
X15951Y26318D1*
X15973Y26427D1*
Y26974D1*
X16114Y26827D2*
X16158Y26864D1*
X16224Y26973D1*
Y26208D1*
X15569Y34974D2*
Y34427D1*
X15590Y34318D1*
X15634Y34245D1*
X15700Y34208D1*
X15744D1*
X15809Y34245D1*
X15853Y34318D1*
X15875Y34427D1*
Y34974D1*
X16038Y34791D2*
Y34827D1*
X16060Y34901D1*
X16082Y34937D1*
X16126Y34973D1*
X16213D1*
X16257Y34937D1*
X16278Y34901D1*
X16301Y34827D1*
Y34755D1*
X16278Y34682D1*
X16235Y34573D1*
X16016Y34208D1*
X16322D1*
X15569Y42974D2*
Y42427D1*
X15590Y42318D1*
X15634Y42245D1*
X15700Y42208D1*
X15744D1*
X15809Y42245D1*
X15853Y42318D1*
X15875Y42427D1*
Y42974D1*
X16060Y42973D2*
X16300D1*
X16169Y42682D1*
X16235D1*
X16278Y42645D1*
X16300Y42609D1*
X16322Y42500D1*
Y42427D1*
X16300Y42318D1*
X16257Y42244D1*
X16191Y42208D1*
X16125D1*
X16060Y42244D1*
X16038Y42282D1*
X16016Y42354D1*
X15558Y50974D2*
Y50427D1*
X15580Y50318D1*
X15623Y50245D1*
X15689Y50208D1*
X15733D1*
X15798Y50245D1*
X15842Y50318D1*
X15864Y50427D1*
Y50974D1*
X16224Y50208D2*
Y50973D1*
X16005Y50463D1*
X16333D1*
X15569Y58974D2*
Y58427D1*
X15590Y58318D1*
X15634Y58245D1*
X15700Y58208D1*
X15744D1*
X15809Y58245D1*
X15853Y58318D1*
X15875Y58427D1*
Y58974D1*
X16278Y58973D2*
X16060D1*
X16038Y58645D1*
X16060Y58682D1*
X16126Y58719D1*
X16191D1*
X16257Y58682D1*
X16301Y58609D1*
X16322Y58500D1*
Y58427D1*
X16301Y58318D1*
X16257Y58244D1*
X16191Y58208D1*
X16126D1*
X16060Y58244D1*
X16038Y58282D1*
X16016Y58354D1*
X15580Y66974D2*
Y66427D1*
X15602Y66318D1*
X15645Y66245D1*
X15711Y66208D1*
X15755D1*
X15820Y66245D1*
X15864Y66318D1*
X15886Y66427D1*
Y66974D1*
X16290Y66864D2*
X16268Y66937D1*
X16202Y66973D1*
X16159D1*
X16093Y66937D1*
X16049Y66827D1*
X16027Y66645D1*
Y66463D1*
X16049Y66318D1*
X16093Y66244D1*
X16159Y66208D1*
X16180D1*
X16246Y66244D1*
X16290Y66318D1*
X16311Y66427D1*
Y66463D1*
X16290Y66573D1*
X16246Y66645D1*
X16180Y66682D1*
X16159D1*
X16093Y66645D1*
X16049Y66573D1*
X16027Y66463D1*
X15569Y74974D2*
Y74427D1*
X15590Y74318D1*
X15634Y74245D1*
X15700Y74208D1*
X15744D1*
X15809Y74245D1*
X15853Y74318D1*
X15875Y74427D1*
Y74974D1*
X16104Y74208D2*
X16322Y74973D1*
X16016D1*
X15569Y82974D2*
Y82427D1*
X15591Y82318D1*
X15635Y82245D1*
X15700Y82208D1*
X15744D1*
X15809Y82245D1*
X15853Y82318D1*
X15875Y82427D1*
Y82974D1*
X16126Y82973D2*
X16060Y82937D1*
X16038Y82864D1*
Y82791D1*
X16060Y82719D1*
X16104Y82682D1*
X16191Y82645D1*
X16257Y82609D1*
X16300Y82536D1*
X16322Y82463D1*
Y82354D1*
X16300Y82282D1*
X16279Y82244D1*
X16213Y82208D1*
X16126D1*
X16060Y82244D1*
X16038Y82282D1*
X16016Y82354D1*
Y82463D1*
X16038Y82536D1*
X16082Y82609D1*
X16147Y82645D1*
X16235Y82682D1*
X16279Y82719D1*
X16300Y82791D1*
Y82864D1*
X16279Y82937D1*
X16213Y82973D1*
X16126D1*
X24405Y82974D2*
Y82427D1*
X24426Y82318D1*
X24470Y82245D1*
X24536Y82208D1*
X24579D1*
X24645Y82245D1*
X24689Y82318D1*
X24711Y82427D1*
Y82974D1*
X25136Y82719D2*
X25114Y82609D1*
X25071Y82536D1*
X25005Y82500D1*
X24983D1*
X24918Y82536D1*
X24874Y82609D1*
X24852Y82719D1*
Y82755D1*
X24874Y82864D1*
X24918Y82937D1*
X24983Y82973D1*
X25005D1*
X25071Y82937D1*
X25114Y82864D1*
X25136Y82719D1*
Y82536D1*
X25114Y82354D1*
X25071Y82244D1*
X25005Y82208D1*
X24962D1*
X24896Y82244D1*
X24874Y82318D1*
X24268Y74974D2*
Y74427D1*
X24290Y74318D1*
X24334Y74245D1*
X24400Y74208D1*
X24443D1*
X24509Y74245D1*
X24553Y74318D1*
X24574Y74427D1*
Y74974D1*
X24716Y74827D2*
X24760Y74864D1*
X24825Y74973D1*
Y74208D1*
X25098Y74973D2*
X25032Y74937D1*
X24988Y74827D1*
X24967Y74645D1*
Y74536D1*
X24988Y74354D1*
X25032Y74244D1*
X25098Y74208D1*
X25141D1*
X25207Y74244D1*
X25251Y74354D1*
X25273Y74536D1*
Y74645D1*
X25251Y74827D1*
X25207Y74937D1*
X25141Y74973D1*
X25098D1*
X25251Y74827D2*
X24988Y74354D1*
X24367Y66974D2*
Y66427D1*
X24388Y66318D1*
X24432Y66245D1*
X24498Y66208D1*
X24541D1*
X24607Y66245D1*
X24651Y66318D1*
X24673Y66427D1*
Y66974D1*
X24814Y66827D2*
X24858Y66864D1*
X24924Y66973D1*
Y66208D1*
X25065Y66827D2*
X25109Y66864D1*
X25174Y66973D1*
Y66208D1*
X24268Y58974D2*
Y58427D1*
X24290Y58318D1*
X24334Y58245D1*
X24400Y58208D1*
X24443D1*
X24509Y58245D1*
X24553Y58318D1*
X24574Y58427D1*
Y58974D1*
X24716Y58827D2*
X24760Y58864D1*
X24825Y58973D1*
Y58208D1*
X24989Y58791D2*
Y58827D1*
X25010Y58901D1*
X25032Y58937D1*
X25076Y58973D1*
X25164D1*
X25207Y58937D1*
X25229Y58901D1*
X25251Y58827D1*
Y58755D1*
X25229Y58682D1*
X25185Y58573D1*
X24967Y58208D1*
X25273D1*
X24268Y50974D2*
Y50427D1*
X24290Y50318D1*
X24334Y50245D1*
X24400Y50208D1*
X24443D1*
X24509Y50245D1*
X24553Y50318D1*
X24574Y50427D1*
Y50974D1*
X24716Y50827D2*
X24760Y50864D1*
X24825Y50973D1*
Y50208D1*
X25010Y50973D2*
X25251D1*
X25120Y50682D1*
X25185D1*
X25229Y50645D1*
X25251Y50609D1*
X25273Y50500D1*
Y50427D1*
X25251Y50318D1*
X25207Y50244D1*
X25141Y50208D1*
X25076D1*
X25010Y50244D1*
X24989Y50282D1*
X24967Y50354D1*
X24257Y42974D2*
Y42427D1*
X24279Y42318D1*
X24323Y42245D1*
X24389Y42208D1*
X24432D1*
X24498Y42245D1*
X24542Y42318D1*
X24564Y42427D1*
Y42974D1*
X24705Y42827D2*
X24749Y42864D1*
X24814Y42973D1*
Y42208D1*
X25174D2*
Y42973D1*
X24956Y42463D1*
X25284D1*
X24268Y34974D2*
Y34427D1*
X24290Y34318D1*
X24334Y34245D1*
X24400Y34208D1*
X24443D1*
X24509Y34245D1*
X24553Y34318D1*
X24574Y34427D1*
Y34974D1*
X24716Y34827D2*
X24760Y34864D1*
X24825Y34973D1*
Y34208D1*
X25229Y34973D2*
X25010D1*
X24989Y34645D1*
X25010Y34682D1*
X25076Y34719D1*
X25141D1*
X25207Y34682D1*
X25251Y34609D1*
X25273Y34500D1*
Y34427D1*
X25251Y34318D1*
X25207Y34244D1*
X25141Y34208D1*
X25076D1*
X25010Y34244D1*
X24989Y34282D1*
X24967Y34354D1*
X24279Y26974D2*
Y26427D1*
X24301Y26318D1*
X24345Y26245D1*
X24411Y26208D1*
X24454D1*
X24520Y26245D1*
X24564Y26318D1*
X24586Y26427D1*
Y26974D1*
X24727Y26827D2*
X24771Y26864D1*
X24836Y26973D1*
Y26208D1*
X25240Y26864D2*
X25218Y26937D1*
X25152Y26973D1*
X25109D1*
X25043Y26937D1*
X24999Y26827D1*
X24978Y26645D1*
Y26463D1*
X24999Y26318D1*
X25043Y26244D1*
X25109Y26208D1*
X25131D1*
X25196Y26244D1*
X25240Y26318D1*
X25262Y26427D1*
Y26463D1*
X25240Y26573D1*
X25196Y26645D1*
X25131Y26682D1*
X25109D1*
X25043Y26645D1*
X24999Y26573D1*
X24978Y26463D1*
X31443Y26974D2*
Y26427D1*
X31465Y26318D1*
X31509Y26245D1*
X31575Y26208D1*
X31618D1*
X31684Y26245D1*
X31728Y26318D1*
X31749Y26427D1*
Y26974D1*
X31891Y26827D2*
X31935Y26864D1*
X32000Y26973D1*
Y26208D1*
X32229D2*
X32448Y26973D1*
X32142D1*
X31443Y34974D2*
Y34427D1*
X31465Y34318D1*
X31509Y34245D1*
X31575Y34208D1*
X31618D1*
X31684Y34245D1*
X31728Y34318D1*
X31750Y34427D1*
Y34974D1*
X31891Y34827D2*
X31935Y34864D1*
X32001Y34973D1*
Y34208D1*
X32251Y34973D2*
X32186Y34937D1*
X32164Y34864D1*
Y34791D1*
X32186Y34719D1*
X32229Y34682D1*
X32317Y34645D1*
X32382Y34609D1*
X32426Y34536D1*
X32448Y34463D1*
Y34354D1*
X32426Y34282D1*
X32404Y34244D1*
X32338Y34208D1*
X32251D1*
X32186Y34244D1*
X32164Y34282D1*
X32142Y34354D1*
Y34463D1*
X32164Y34536D1*
X32207Y34609D1*
X32273Y34645D1*
X32360Y34682D1*
X32404Y34719D1*
X32426Y34791D1*
Y34864D1*
X32404Y34937D1*
X32338Y34973D1*
X32251D1*
X31454Y42974D2*
Y42427D1*
X31476Y42318D1*
X31520Y42245D1*
X31585Y42208D1*
X31629D1*
X31695Y42245D1*
X31739Y42318D1*
X31760Y42427D1*
Y42974D1*
X31902Y42827D2*
X31946Y42864D1*
X32011Y42973D1*
Y42208D1*
X32437Y42719D2*
X32415Y42609D1*
X32371Y42536D1*
X32306Y42500D1*
X32284D1*
X32218Y42536D1*
X32175Y42609D1*
X32152Y42719D1*
Y42755D1*
X32175Y42864D1*
X32218Y42937D1*
X32284Y42973D1*
X32306D1*
X32371Y42937D1*
X32415Y42864D1*
X32437Y42719D1*
Y42536D1*
X32415Y42354D1*
X32371Y42244D1*
X32306Y42208D1*
X32262D1*
X32196Y42244D1*
X32175Y42318D1*
X31345Y50974D2*
Y50427D1*
X31367Y50318D1*
X31411Y50245D1*
X31476Y50208D1*
X31520D1*
X31585Y50245D1*
X31629Y50318D1*
X31651Y50427D1*
Y50974D1*
X31815Y50791D2*
Y50827D1*
X31836Y50901D1*
X31858Y50937D1*
X31902Y50973D1*
X31989D1*
X32033Y50937D1*
X32055Y50901D1*
X32077Y50827D1*
Y50755D1*
X32055Y50682D1*
X32011Y50573D1*
X31792Y50208D1*
X32099D1*
X32371Y50973D2*
X32306Y50937D1*
X32262Y50827D1*
X32240Y50645D1*
Y50536D1*
X32262Y50354D1*
X32306Y50244D1*
X32371Y50208D1*
X32415D1*
X32480Y50244D1*
X32524Y50354D1*
X32546Y50536D1*
Y50645D1*
X32524Y50827D1*
X32480Y50937D1*
X32415Y50973D1*
X32371D1*
X32524Y50827D2*
X32262Y50354D1*
X31443Y58974D2*
Y58427D1*
X31465Y58318D1*
X31509Y58245D1*
X31575Y58208D1*
X31618D1*
X31684Y58245D1*
X31728Y58318D1*
X31749Y58427D1*
Y58974D1*
X31913Y58791D2*
Y58827D1*
X31935Y58901D1*
X31956Y58937D1*
X32000Y58973D1*
X32088D1*
X32131Y58937D1*
X32153Y58901D1*
X32175Y58827D1*
Y58755D1*
X32153Y58682D1*
X32110Y58573D1*
X31891Y58208D1*
X32197D1*
X32338Y58827D2*
X32382Y58864D1*
X32448Y58973D1*
Y58208D1*
X31345Y66974D2*
Y66427D1*
X31367Y66318D1*
X31411Y66245D1*
X31476Y66208D1*
X31520D1*
X31585Y66245D1*
X31629Y66318D1*
X31651Y66427D1*
Y66974D1*
X31815Y66791D2*
Y66827D1*
X31836Y66901D1*
X31858Y66937D1*
X31902Y66973D1*
X31989D1*
X32033Y66937D1*
X32055Y66901D1*
X32077Y66827D1*
Y66755D1*
X32055Y66682D1*
X32011Y66573D1*
X31792Y66208D1*
X32099D1*
X32262Y66791D2*
Y66827D1*
X32284Y66901D1*
X32306Y66937D1*
X32349Y66973D1*
X32437D1*
X32480Y66937D1*
X32502Y66901D1*
X32524Y66827D1*
Y66755D1*
X32502Y66682D1*
X32459Y66573D1*
X32240Y66208D1*
X32546D1*
X31345Y74974D2*
Y74427D1*
X31367Y74318D1*
X31411Y74245D1*
X31476Y74208D1*
X31520D1*
X31585Y74245D1*
X31629Y74318D1*
X31651Y74427D1*
Y74974D1*
X31815Y74791D2*
Y74827D1*
X31836Y74901D1*
X31858Y74937D1*
X31902Y74973D1*
X31989D1*
X32033Y74937D1*
X32055Y74901D1*
X32077Y74827D1*
Y74755D1*
X32055Y74682D1*
X32011Y74573D1*
X31792Y74208D1*
X32099D1*
X32284Y74973D2*
X32524D1*
X32393Y74682D1*
X32459D1*
X32502Y74645D1*
X32524Y74609D1*
X32546Y74500D1*
Y74427D1*
X32524Y74318D1*
X32480Y74244D1*
X32415Y74208D1*
X32349D1*
X32284Y74244D1*
X32262Y74282D1*
X32240Y74354D1*
X31334Y82974D2*
Y82427D1*
X31356Y82318D1*
X31400Y82245D1*
X31465Y82208D1*
X31509D1*
X31575Y82245D1*
X31619Y82318D1*
X31640Y82427D1*
Y82974D1*
X31804Y82791D2*
Y82827D1*
X31825Y82901D1*
X31847Y82937D1*
X31891Y82973D1*
X31979D1*
X32022Y82937D1*
X32044Y82901D1*
X32066Y82827D1*
Y82755D1*
X32044Y82682D1*
X32000Y82573D1*
X31782Y82208D1*
X32088D1*
X32448D2*
Y82973D1*
X32229Y82463D1*
X32557D1*
X40170Y82974D2*
Y82427D1*
X40192Y82318D1*
X40236Y82245D1*
X40301Y82208D1*
X40345D1*
X40410Y82245D1*
X40454Y82318D1*
X40476Y82427D1*
Y82974D1*
X40640Y82791D2*
Y82827D1*
X40661Y82901D1*
X40683Y82937D1*
X40727Y82973D1*
X40814D1*
X40858Y82937D1*
X40880Y82901D1*
X40902Y82827D1*
Y82755D1*
X40880Y82682D1*
X40836Y82573D1*
X40617Y82208D1*
X40924D1*
X41327Y82973D2*
X41109D1*
X41087Y82645D1*
X41109Y82682D1*
X41174Y82719D1*
X41240D1*
X41305Y82682D1*
X41349Y82609D1*
X41371Y82500D1*
Y82427D1*
X41349Y82318D1*
X41305Y82244D1*
X41240Y82208D1*
X41174D1*
X41109Y82244D1*
X41087Y82282D1*
X41065Y82354D1*
X40181Y74974D2*
Y74427D1*
X40203Y74318D1*
X40247Y74245D1*
X40312Y74208D1*
X40356D1*
X40422Y74245D1*
X40466Y74318D1*
X40487Y74427D1*
Y74974D1*
X40651Y74791D2*
Y74827D1*
X40672Y74901D1*
X40694Y74937D1*
X40738Y74973D1*
X40826D1*
X40869Y74937D1*
X40891Y74901D1*
X40913Y74827D1*
Y74755D1*
X40891Y74682D1*
X40847Y74573D1*
X40628Y74208D1*
X40935D1*
X41338Y74864D2*
X41316Y74937D1*
X41251Y74973D1*
X41207D1*
X41142Y74937D1*
X41098Y74827D1*
X41076Y74645D1*
Y74463D1*
X41098Y74318D1*
X41142Y74244D1*
X41207Y74208D1*
X41229D1*
X41294Y74244D1*
X41338Y74318D1*
X41360Y74427D1*
Y74463D1*
X41338Y74573D1*
X41294Y74645D1*
X41229Y74682D1*
X41207D1*
X41142Y74645D1*
X41098Y74573D1*
X41076Y74463D1*
X40170Y66974D2*
Y66427D1*
X40192Y66318D1*
X40236Y66245D1*
X40301Y66208D1*
X40345D1*
X40410Y66245D1*
X40454Y66318D1*
X40476Y66427D1*
Y66974D1*
X40640Y66791D2*
Y66827D1*
X40661Y66901D1*
X40683Y66937D1*
X40727Y66973D1*
X40814D1*
X40858Y66937D1*
X40880Y66901D1*
X40902Y66827D1*
Y66755D1*
X40880Y66682D1*
X40836Y66573D1*
X40617Y66208D1*
X40924D1*
X41152D2*
X41371Y66973D1*
X41065D1*
X40170Y58974D2*
Y58427D1*
X40192Y58318D1*
X40236Y58245D1*
X40302Y58208D1*
X40345D1*
X40411Y58245D1*
X40455Y58318D1*
X40476Y58427D1*
Y58974D1*
X40640Y58791D2*
Y58827D1*
X40662Y58901D1*
X40683Y58937D1*
X40727Y58973D1*
X40815D1*
X40858Y58937D1*
X40880Y58901D1*
X40902Y58827D1*
Y58755D1*
X40880Y58682D1*
X40836Y58573D1*
X40618Y58208D1*
X40924D1*
X41174Y58973D2*
X41109Y58937D1*
X41087Y58864D1*
Y58791D1*
X41109Y58719D1*
X41152Y58682D1*
X41240Y58645D1*
X41306Y58609D1*
X41349Y58536D1*
X41371Y58463D1*
Y58354D1*
X41349Y58282D1*
X41327Y58244D1*
X41262Y58208D1*
X41174D1*
X41109Y58244D1*
X41087Y58282D1*
X41065Y58354D1*
Y58463D1*
X41087Y58536D1*
X41131Y58609D1*
X41196Y58645D1*
X41283Y58682D1*
X41327Y58719D1*
X41349Y58791D1*
Y58864D1*
X41327Y58937D1*
X41262Y58973D1*
X41174D1*
X40181Y50974D2*
Y50427D1*
X40203Y50318D1*
X40247Y50245D1*
X40312Y50208D1*
X40356D1*
X40421Y50245D1*
X40465Y50318D1*
X40487Y50427D1*
Y50974D1*
X40650Y50791D2*
Y50827D1*
X40672Y50901D1*
X40694Y50937D1*
X40738Y50973D1*
X40825D1*
X40869Y50937D1*
X40891Y50901D1*
X40913Y50827D1*
Y50755D1*
X40891Y50682D1*
X40847Y50573D1*
X40628Y50208D1*
X40935D1*
X41360Y50719D2*
X41338Y50609D1*
X41295Y50536D1*
X41229Y50500D1*
X41207D1*
X41141Y50536D1*
X41098Y50609D1*
X41076Y50719D1*
Y50755D1*
X41098Y50864D1*
X41141Y50937D1*
X41207Y50973D1*
X41229D1*
X41295Y50937D1*
X41338Y50864D1*
X41360Y50719D1*
Y50536D1*
X41338Y50354D1*
X41295Y50244D1*
X41229Y50208D1*
X41185D1*
X41120Y50244D1*
X41098Y50318D1*
X40170Y42974D2*
Y42427D1*
X40192Y42318D1*
X40236Y42245D1*
X40301Y42208D1*
X40345D1*
X40410Y42245D1*
X40454Y42318D1*
X40476Y42427D1*
Y42974D1*
X40661Y42973D2*
X40901D1*
X40771Y42682D1*
X40836D1*
X40880Y42645D1*
X40901Y42609D1*
X40924Y42500D1*
Y42427D1*
X40901Y42318D1*
X40858Y42244D1*
X40792Y42208D1*
X40727D1*
X40661Y42244D1*
X40640Y42282D1*
X40617Y42354D1*
X41196Y42973D2*
X41131Y42937D1*
X41087Y42827D1*
X41065Y42645D1*
Y42536D1*
X41087Y42354D1*
X41131Y42244D1*
X41196Y42208D1*
X41240D1*
X41305Y42244D1*
X41349Y42354D1*
X41371Y42536D1*
Y42645D1*
X41349Y42827D1*
X41305Y42937D1*
X41240Y42973D1*
X41196D1*
X41349Y42827D2*
X41087Y42354D1*
X40268Y34974D2*
Y34427D1*
X40290Y34318D1*
X40334Y34245D1*
X40400Y34208D1*
X40443D1*
X40509Y34245D1*
X40553Y34318D1*
X40574Y34427D1*
Y34974D1*
X40760Y34973D2*
X41000D1*
X40869Y34682D1*
X40935D1*
X40978Y34645D1*
X41000Y34609D1*
X41022Y34500D1*
Y34427D1*
X41000Y34318D1*
X40956Y34244D1*
X40891Y34208D1*
X40825D1*
X40760Y34244D1*
X40738Y34282D1*
X40716Y34354D1*
X41163Y34827D2*
X41207Y34864D1*
X41273Y34973D1*
Y34208D1*
X40170Y26974D2*
Y26427D1*
X40192Y26318D1*
X40236Y26245D1*
X40301Y26208D1*
X40345D1*
X40410Y26245D1*
X40454Y26318D1*
X40476Y26427D1*
Y26974D1*
X40661Y26973D2*
X40901D1*
X40771Y26682D1*
X40836D1*
X40880Y26645D1*
X40901Y26609D1*
X40924Y26500D1*
Y26427D1*
X40901Y26318D1*
X40858Y26244D1*
X40792Y26208D1*
X40727D1*
X40661Y26244D1*
X40640Y26282D1*
X40617Y26354D1*
X41087Y26791D2*
Y26827D1*
X41109Y26901D1*
X41131Y26937D1*
X41174Y26973D1*
X41262D1*
X41305Y26937D1*
X41327Y26901D1*
X41349Y26827D1*
Y26755D1*
X41327Y26682D1*
X41284Y26573D1*
X41065Y26208D1*
X41371D1*
X47345Y26974D2*
Y26427D1*
X47367Y26318D1*
X47411Y26245D1*
X47476Y26208D1*
X47520D1*
X47585Y26245D1*
X47629Y26318D1*
X47651Y26427D1*
Y26974D1*
X47836Y26973D2*
X48076D1*
X47946Y26682D1*
X48011D1*
X48055Y26645D1*
X48076Y26609D1*
X48099Y26500D1*
Y26427D1*
X48076Y26318D1*
X48033Y26244D1*
X47967Y26208D1*
X47902D1*
X47836Y26244D1*
X47815Y26282D1*
X47792Y26354D1*
X48284Y26973D2*
X48524D1*
X48393Y26682D1*
X48459D1*
X48502Y26645D1*
X48524Y26609D1*
X48546Y26500D1*
Y26427D1*
X48524Y26318D1*
X48480Y26244D1*
X48415Y26208D1*
X48349D1*
X48284Y26244D1*
X48262Y26282D1*
X48240Y26354D1*
X47334Y34974D2*
Y34427D1*
X47356Y34318D1*
X47400Y34245D1*
X47465Y34208D1*
X47509D1*
X47575Y34245D1*
X47619Y34318D1*
X47640Y34427D1*
Y34974D1*
X47825Y34973D2*
X48066D1*
X47935Y34682D1*
X48000D1*
X48044Y34645D1*
X48066Y34609D1*
X48088Y34500D1*
Y34427D1*
X48066Y34318D1*
X48022Y34244D1*
X47956Y34208D1*
X47891D1*
X47825Y34244D1*
X47804Y34282D1*
X47782Y34354D1*
X48448Y34208D2*
Y34973D1*
X48229Y34463D1*
X48557D1*
X47345Y42974D2*
Y42427D1*
X47367Y42318D1*
X47411Y42245D1*
X47476Y42208D1*
X47520D1*
X47585Y42245D1*
X47629Y42318D1*
X47651Y42427D1*
Y42974D1*
X47836Y42973D2*
X48076D1*
X47946Y42682D1*
X48011D1*
X48055Y42645D1*
X48076Y42609D1*
X48099Y42500D1*
Y42427D1*
X48076Y42318D1*
X48033Y42244D1*
X47967Y42208D1*
X47902D1*
X47836Y42244D1*
X47815Y42282D1*
X47792Y42354D1*
X48502Y42973D2*
X48284D1*
X48262Y42645D1*
X48284Y42682D1*
X48349Y42719D1*
X48415D1*
X48480Y42682D1*
X48524Y42609D1*
X48546Y42500D1*
Y42427D1*
X48524Y42318D1*
X48480Y42244D1*
X48415Y42208D1*
X48349D1*
X48284Y42244D1*
X48262Y42282D1*
X48240Y42354D1*
X47356Y50974D2*
Y50427D1*
X47378Y50318D1*
X47422Y50245D1*
X47487Y50208D1*
X47531D1*
X47597Y50245D1*
X47641Y50318D1*
X47662Y50427D1*
Y50974D1*
X47847Y50973D2*
X48088D1*
X47957Y50682D1*
X48022D1*
X48066Y50645D1*
X48088Y50609D1*
X48110Y50500D1*
Y50427D1*
X48088Y50318D1*
X48044Y50244D1*
X47978Y50208D1*
X47913D1*
X47847Y50244D1*
X47826Y50282D1*
X47803Y50354D1*
X48513Y50864D2*
X48491Y50937D1*
X48426Y50973D1*
X48382D1*
X48317Y50937D1*
X48273Y50827D1*
X48251Y50645D1*
Y50463D1*
X48273Y50318D1*
X48317Y50244D1*
X48382Y50208D1*
X48404D1*
X48469Y50244D1*
X48513Y50318D1*
X48535Y50427D1*
Y50463D1*
X48513Y50573D1*
X48469Y50645D1*
X48404Y50682D1*
X48382D1*
X48317Y50645D1*
X48273Y50573D1*
X48251Y50463D1*
X47345Y58974D2*
Y58427D1*
X47367Y58318D1*
X47411Y58245D1*
X47476Y58208D1*
X47520D1*
X47585Y58245D1*
X47629Y58318D1*
X47651Y58427D1*
Y58974D1*
X47836Y58973D2*
X48076D1*
X47946Y58682D1*
X48011D1*
X48055Y58645D1*
X48076Y58609D1*
X48099Y58500D1*
Y58427D1*
X48076Y58318D1*
X48033Y58244D1*
X47967Y58208D1*
X47902D1*
X47836Y58244D1*
X47815Y58282D1*
X47792Y58354D1*
X48327Y58208D2*
X48546Y58973D1*
X48240D1*
X47345Y66974D2*
Y66427D1*
X47367Y66318D1*
X47411Y66245D1*
X47477Y66208D1*
X47520D1*
X47586Y66245D1*
X47630Y66318D1*
X47651Y66427D1*
Y66974D1*
X47837Y66973D2*
X48077D1*
X47946Y66682D1*
X48011D1*
X48055Y66645D1*
X48077Y66609D1*
X48099Y66500D1*
Y66427D1*
X48077Y66318D1*
X48033Y66244D1*
X47967Y66208D1*
X47902D1*
X47837Y66244D1*
X47815Y66282D1*
X47793Y66354D1*
X48349Y66973D2*
X48284Y66937D1*
X48262Y66864D1*
Y66791D1*
X48284Y66719D1*
X48327Y66682D1*
X48415Y66645D1*
X48481Y66609D1*
X48524Y66536D1*
X48546Y66463D1*
Y66354D1*
X48524Y66282D1*
X48502Y66244D1*
X48437Y66208D1*
X48349D1*
X48284Y66244D1*
X48262Y66282D1*
X48240Y66354D1*
Y66463D1*
X48262Y66536D1*
X48306Y66609D1*
X48371Y66645D1*
X48458Y66682D1*
X48502Y66719D1*
X48524Y66791D1*
Y66864D1*
X48502Y66937D1*
X48437Y66973D1*
X48349D1*
X47356Y74974D2*
Y74427D1*
X47378Y74318D1*
X47422Y74245D1*
X47487Y74208D1*
X47531D1*
X47596Y74245D1*
X47640Y74318D1*
X47662Y74427D1*
Y74974D1*
X47847Y74973D2*
X48087D1*
X47956Y74682D1*
X48022D1*
X48066Y74645D1*
X48087Y74609D1*
X48110Y74500D1*
Y74427D1*
X48087Y74318D1*
X48044Y74244D1*
X47978Y74208D1*
X47912D1*
X47847Y74244D1*
X47825Y74282D1*
X47803Y74354D1*
X48535Y74719D2*
X48513Y74609D1*
X48470Y74536D1*
X48404Y74500D1*
X48382D1*
X48316Y74536D1*
X48273Y74609D1*
X48251Y74719D1*
Y74755D1*
X48273Y74864D1*
X48316Y74937D1*
X48382Y74973D1*
X48404D1*
X48470Y74937D1*
X48513Y74864D1*
X48535Y74719D1*
Y74536D1*
X48513Y74354D1*
X48470Y74244D1*
X48404Y74208D1*
X48360D1*
X48295Y74244D1*
X48273Y74318D1*
X47334Y82974D2*
Y82427D1*
X47356Y82318D1*
X47400Y82245D1*
X47465Y82208D1*
X47509D1*
X47575Y82245D1*
X47619Y82318D1*
X47640Y82427D1*
Y82974D1*
X48000Y82208D2*
Y82973D1*
X47782Y82463D1*
X48110D1*
X48382Y82973D2*
X48316Y82937D1*
X48272Y82827D1*
X48251Y82645D1*
Y82536D1*
X48272Y82354D1*
X48316Y82244D1*
X48382Y82208D1*
X48426D1*
X48491Y82244D1*
X48535Y82354D1*
X48557Y82536D1*
Y82645D1*
X48535Y82827D1*
X48491Y82937D1*
X48426Y82973D1*
X48382D1*
X48535Y82827D2*
X48272Y82354D1*
X56257Y82974D2*
Y82427D1*
X56279Y82318D1*
X56323Y82245D1*
X56389Y82208D1*
X56432D1*
X56498Y82245D1*
X56542Y82318D1*
X56564Y82427D1*
Y82974D1*
X56924Y82208D2*
Y82973D1*
X56705Y82463D1*
X57033D1*
X57174Y82827D2*
X57218Y82864D1*
X57284Y82973D1*
Y82208D1*
X56159Y74974D2*
Y74427D1*
X56181Y74318D1*
X56225Y74245D1*
X56290Y74208D1*
X56334D1*
X56400Y74245D1*
X56444Y74318D1*
X56465Y74427D1*
Y74974D1*
X56825Y74208D2*
Y74973D1*
X56607Y74463D1*
X56935D1*
X57098Y74791D2*
Y74827D1*
X57120Y74901D1*
X57141Y74937D1*
X57185Y74973D1*
X57273D1*
X57316Y74937D1*
X57338Y74901D1*
X57360Y74827D1*
Y74755D1*
X57338Y74682D1*
X57295Y74573D1*
X57076Y74208D1*
X57382D1*
X56159Y66974D2*
Y66427D1*
X56181Y66318D1*
X56225Y66245D1*
X56290Y66208D1*
X56334D1*
X56400Y66245D1*
X56444Y66318D1*
X56465Y66427D1*
Y66974D1*
X56825Y66208D2*
Y66973D1*
X56607Y66463D1*
X56935D1*
X57120Y66973D2*
X57360D1*
X57229Y66682D1*
X57295D1*
X57338Y66645D1*
X57360Y66609D1*
X57382Y66500D1*
Y66427D1*
X57360Y66318D1*
X57316Y66244D1*
X57251Y66208D1*
X57185D1*
X57120Y66244D1*
X57098Y66282D1*
X57076Y66354D1*
X56148Y58974D2*
Y58427D1*
X56170Y58318D1*
X56214Y58245D1*
X56280Y58208D1*
X56323D1*
X56389Y58245D1*
X56433Y58318D1*
X56454Y58427D1*
Y58974D1*
X56814Y58208D2*
Y58973D1*
X56596Y58463D1*
X56924D1*
X57284Y58208D2*
Y58973D1*
X57065Y58463D1*
X57393D1*
X56159Y50974D2*
Y50427D1*
X56181Y50318D1*
X56225Y50245D1*
X56290Y50208D1*
X56334D1*
X56400Y50245D1*
X56444Y50318D1*
X56465Y50427D1*
Y50974D1*
X56825Y50208D2*
Y50973D1*
X56607Y50463D1*
X56935D1*
X57338Y50973D2*
X57120D1*
X57098Y50645D1*
X57120Y50682D1*
X57185Y50719D1*
X57251D1*
X57316Y50682D1*
X57360Y50609D1*
X57382Y50500D1*
Y50427D1*
X57360Y50318D1*
X57316Y50244D1*
X57251Y50208D1*
X57185D1*
X57120Y50244D1*
X57098Y50282D1*
X57076Y50354D1*
X56170Y42974D2*
Y42427D1*
X56192Y42318D1*
X56236Y42245D1*
X56302Y42208D1*
X56345D1*
X56411Y42245D1*
X56455Y42318D1*
X56476Y42427D1*
Y42974D1*
X56836Y42208D2*
Y42973D1*
X56618Y42463D1*
X56946D1*
X57349Y42864D2*
X57327Y42937D1*
X57262Y42973D1*
X57218D1*
X57152Y42937D1*
X57109Y42827D1*
X57087Y42645D1*
Y42463D1*
X57109Y42318D1*
X57152Y42244D1*
X57218Y42208D1*
X57240D1*
X57305Y42244D1*
X57349Y42318D1*
X57371Y42427D1*
Y42463D1*
X57349Y42573D1*
X57305Y42645D1*
X57240Y42682D1*
X57218D1*
X57152Y42645D1*
X57109Y42573D1*
X57087Y42463D1*
X56159Y34974D2*
Y34427D1*
X56181Y34318D1*
X56225Y34245D1*
X56290Y34208D1*
X56334D1*
X56400Y34245D1*
X56444Y34318D1*
X56465Y34427D1*
Y34974D1*
X56825Y34208D2*
Y34973D1*
X56607Y34463D1*
X56935D1*
X57163Y34208D2*
X57382Y34973D1*
X57076D1*
X56159Y26974D2*
Y26427D1*
X56181Y26318D1*
X56225Y26245D1*
X56291Y26208D1*
X56334D1*
X56400Y26245D1*
X56444Y26318D1*
X56466Y26427D1*
Y26974D1*
X56826Y26208D2*
Y26973D1*
X56607Y26463D1*
X56935D1*
X57185Y26973D2*
X57120Y26937D1*
X57098Y26864D1*
Y26791D1*
X57120Y26719D1*
X57163Y26682D1*
X57251Y26645D1*
X57316Y26609D1*
X57360Y26536D1*
X57382Y26463D1*
Y26354D1*
X57360Y26282D1*
X57338Y26244D1*
X57273Y26208D1*
X57185D1*
X57120Y26244D1*
X57098Y26282D1*
X57076Y26354D1*
Y26463D1*
X57098Y26536D1*
X57142Y26609D1*
X57207Y26645D1*
X57294Y26682D1*
X57338Y26719D1*
X57360Y26791D1*
Y26864D1*
X57338Y26937D1*
X57273Y26973D1*
X57185D1*
X63345Y26974D2*
Y26427D1*
X63367Y26318D1*
X63411Y26245D1*
X63476Y26208D1*
X63520D1*
X63585Y26245D1*
X63629Y26318D1*
X63651Y26427D1*
Y26974D1*
X64011Y26208D2*
Y26973D1*
X63792Y26463D1*
X64120D1*
X64546Y26719D2*
X64524Y26609D1*
X64480Y26536D1*
X64415Y26500D1*
X64393D1*
X64327Y26536D1*
X64284Y26609D1*
X64262Y26719D1*
Y26755D1*
X64284Y26864D1*
X64327Y26937D1*
X64393Y26973D1*
X64415D1*
X64480Y26937D1*
X64524Y26864D1*
X64546Y26719D1*
Y26536D1*
X64524Y26354D1*
X64480Y26244D1*
X64415Y26208D1*
X64371D1*
X64306Y26244D1*
X64284Y26318D1*
X63345Y34974D2*
Y34427D1*
X63367Y34318D1*
X63411Y34245D1*
X63476Y34208D1*
X63520D1*
X63585Y34245D1*
X63629Y34318D1*
X63651Y34427D1*
Y34974D1*
X64055Y34973D2*
X63836D1*
X63815Y34645D1*
X63836Y34682D1*
X63902Y34719D1*
X63967D1*
X64033Y34682D1*
X64077Y34609D1*
X64099Y34500D1*
Y34427D1*
X64077Y34318D1*
X64033Y34244D1*
X63967Y34208D1*
X63902D1*
X63836Y34244D1*
X63815Y34282D1*
X63792Y34354D1*
X64371Y34973D2*
X64306Y34937D1*
X64262Y34827D1*
X64240Y34645D1*
Y34536D1*
X64262Y34354D1*
X64306Y34244D1*
X64371Y34208D1*
X64415D1*
X64480Y34244D1*
X64524Y34354D1*
X64546Y34536D1*
Y34645D1*
X64524Y34827D1*
X64480Y34937D1*
X64415Y34973D1*
X64371D1*
X64524Y34827D2*
X64262Y34354D1*
X63443Y42974D2*
Y42427D1*
X63465Y42318D1*
X63509Y42245D1*
X63575Y42208D1*
X63618D1*
X63684Y42245D1*
X63728Y42318D1*
X63749Y42427D1*
Y42974D1*
X64153Y42973D2*
X63935D1*
X63913Y42645D1*
X63935Y42682D1*
X64000Y42719D1*
X64066D1*
X64131Y42682D1*
X64175Y42609D1*
X64197Y42500D1*
Y42427D1*
X64175Y42318D1*
X64131Y42244D1*
X64066Y42208D1*
X64000D1*
X63935Y42244D1*
X63913Y42282D1*
X63891Y42354D1*
X64338Y42827D2*
X64382Y42864D1*
X64448Y42973D1*
Y42208D1*
X63345Y50974D2*
Y50427D1*
X63367Y50318D1*
X63411Y50245D1*
X63476Y50208D1*
X63520D1*
X63585Y50245D1*
X63629Y50318D1*
X63651Y50427D1*
Y50974D1*
X64055Y50973D2*
X63836D1*
X63815Y50645D1*
X63836Y50682D1*
X63902Y50719D1*
X63967D1*
X64033Y50682D1*
X64077Y50609D1*
X64099Y50500D1*
Y50427D1*
X64077Y50318D1*
X64033Y50244D1*
X63967Y50208D1*
X63902D1*
X63836Y50244D1*
X63815Y50282D1*
X63792Y50354D1*
X64262Y50791D2*
Y50827D1*
X64284Y50901D1*
X64306Y50937D1*
X64349Y50973D1*
X64437D1*
X64480Y50937D1*
X64502Y50901D1*
X64524Y50827D1*
Y50755D1*
X64502Y50682D1*
X64459Y50573D1*
X64240Y50208D1*
X64546D1*
X63345Y58974D2*
Y58427D1*
X63367Y58318D1*
X63411Y58245D1*
X63476Y58208D1*
X63520D1*
X63585Y58245D1*
X63629Y58318D1*
X63651Y58427D1*
Y58974D1*
X64055Y58973D2*
X63836D1*
X63815Y58645D1*
X63836Y58682D1*
X63902Y58719D1*
X63967D1*
X64033Y58682D1*
X64077Y58609D1*
X64099Y58500D1*
Y58427D1*
X64077Y58318D1*
X64033Y58244D1*
X63967Y58208D1*
X63902D1*
X63836Y58244D1*
X63815Y58282D1*
X63792Y58354D1*
X64284Y58973D2*
X64524D1*
X64393Y58682D1*
X64459D1*
X64502Y58645D1*
X64524Y58609D1*
X64546Y58500D1*
Y58427D1*
X64524Y58318D1*
X64480Y58244D1*
X64415Y58208D1*
X64349D1*
X64284Y58244D1*
X64262Y58282D1*
X64240Y58354D1*
X63334Y66974D2*
Y66427D1*
X63356Y66318D1*
X63400Y66245D1*
X63465Y66208D1*
X63509D1*
X63575Y66245D1*
X63619Y66318D1*
X63640Y66427D1*
Y66974D1*
X64044Y66973D2*
X63825D1*
X63804Y66645D1*
X63825Y66682D1*
X63891Y66719D1*
X63956D1*
X64022Y66682D1*
X64066Y66609D1*
X64088Y66500D1*
Y66427D1*
X64066Y66318D1*
X64022Y66244D1*
X63956Y66208D1*
X63891D1*
X63825Y66244D1*
X63804Y66282D1*
X63782Y66354D1*
X64448Y66208D2*
Y66973D1*
X64229Y66463D1*
X64557D1*
X63345Y74974D2*
Y74427D1*
X63367Y74318D1*
X63411Y74245D1*
X63476Y74208D1*
X63520D1*
X63585Y74245D1*
X63629Y74318D1*
X63651Y74427D1*
Y74974D1*
X64055Y74973D2*
X63836D1*
X63815Y74645D1*
X63836Y74682D1*
X63902Y74719D1*
X63967D1*
X64033Y74682D1*
X64077Y74609D1*
X64099Y74500D1*
Y74427D1*
X64077Y74318D1*
X64033Y74244D1*
X63967Y74208D1*
X63902D1*
X63836Y74244D1*
X63815Y74282D1*
X63792Y74354D1*
X64502Y74973D2*
X64284D1*
X64262Y74645D1*
X64284Y74682D1*
X64349Y74719D1*
X64415D1*
X64480Y74682D1*
X64524Y74609D1*
X64546Y74500D1*
Y74427D1*
X64524Y74318D1*
X64480Y74244D1*
X64415Y74208D1*
X64349D1*
X64284Y74244D1*
X64262Y74282D1*
X64240Y74354D1*
X63356Y82974D2*
Y82427D1*
X63378Y82318D1*
X63422Y82245D1*
X63487Y82208D1*
X63531D1*
X63597Y82245D1*
X63641Y82318D1*
X63662Y82427D1*
Y82974D1*
X64066Y82973D2*
X63847D1*
X63826Y82645D1*
X63847Y82682D1*
X63913Y82719D1*
X63978D1*
X64044Y82682D1*
X64088Y82609D1*
X64110Y82500D1*
Y82427D1*
X64088Y82318D1*
X64044Y82244D1*
X63978Y82208D1*
X63913D1*
X63847Y82244D1*
X63826Y82282D1*
X63803Y82354D1*
X64513Y82864D2*
X64491Y82937D1*
X64426Y82973D1*
X64382D1*
X64317Y82937D1*
X64273Y82827D1*
X64251Y82645D1*
Y82463D1*
X64273Y82318D1*
X64317Y82244D1*
X64382Y82208D1*
X64404D1*
X64469Y82244D1*
X64513Y82318D1*
X64535Y82427D1*
Y82463D1*
X64513Y82573D1*
X64469Y82645D1*
X64404Y82682D1*
X64382D1*
X64317Y82645D1*
X64273Y82573D1*
X64251Y82463D1*
X72170Y82974D2*
Y82427D1*
X72192Y82318D1*
X72236Y82245D1*
X72301Y82208D1*
X72345D1*
X72410Y82245D1*
X72454Y82318D1*
X72476Y82427D1*
Y82974D1*
X72880Y82973D2*
X72661D1*
X72640Y82645D1*
X72661Y82682D1*
X72727Y82719D1*
X72792D1*
X72858Y82682D1*
X72902Y82609D1*
X72924Y82500D1*
Y82427D1*
X72902Y82318D1*
X72858Y82244D1*
X72792Y82208D1*
X72727D1*
X72661Y82244D1*
X72640Y82282D1*
X72617Y82354D1*
X73152Y82208D2*
X73371Y82973D1*
X73065D1*
X72170Y74974D2*
Y74427D1*
X72192Y74318D1*
X72236Y74245D1*
X72302Y74208D1*
X72345D1*
X72411Y74245D1*
X72455Y74318D1*
X72476Y74427D1*
Y74974D1*
X72880Y74973D2*
X72662D1*
X72640Y74645D1*
X72662Y74682D1*
X72727Y74719D1*
X72792D1*
X72858Y74682D1*
X72902Y74609D1*
X72924Y74500D1*
Y74427D1*
X72902Y74318D1*
X72858Y74244D1*
X72792Y74208D1*
X72727D1*
X72662Y74244D1*
X72640Y74282D1*
X72618Y74354D1*
X73174Y74973D2*
X73109Y74937D1*
X73087Y74864D1*
Y74791D1*
X73109Y74719D1*
X73152Y74682D1*
X73240Y74645D1*
X73306Y74609D1*
X73349Y74536D1*
X73371Y74463D1*
Y74354D1*
X73349Y74282D1*
X73327Y74244D1*
X73262Y74208D1*
X73174D1*
X73109Y74244D1*
X73087Y74282D1*
X73065Y74354D1*
Y74463D1*
X73087Y74536D1*
X73131Y74609D1*
X73196Y74645D1*
X73283Y74682D1*
X73327Y74719D1*
X73349Y74791D1*
Y74864D1*
X73327Y74937D1*
X73262Y74973D1*
X73174D1*
X72181Y66974D2*
Y66427D1*
X72203Y66318D1*
X72247Y66245D1*
X72312Y66208D1*
X72356D1*
X72421Y66245D1*
X72465Y66318D1*
X72487Y66427D1*
Y66974D1*
X72891Y66973D2*
X72672D1*
X72650Y66645D1*
X72672Y66682D1*
X72738Y66719D1*
X72803D1*
X72869Y66682D1*
X72913Y66609D1*
X72935Y66500D1*
Y66427D1*
X72913Y66318D1*
X72869Y66244D1*
X72803Y66208D1*
X72738D1*
X72672Y66244D1*
X72650Y66282D1*
X72628Y66354D1*
X73360Y66719D2*
X73338Y66609D1*
X73295Y66536D1*
X73229Y66500D1*
X73207D1*
X73141Y66536D1*
X73098Y66609D1*
X73076Y66719D1*
Y66755D1*
X73098Y66864D1*
X73141Y66937D1*
X73207Y66973D1*
X73229D1*
X73295Y66937D1*
X73338Y66864D1*
X73360Y66719D1*
Y66536D1*
X73338Y66354D1*
X73295Y66244D1*
X73229Y66208D1*
X73185D1*
X73120Y66244D1*
X73098Y66318D1*
X72181Y58974D2*
Y58427D1*
X72203Y58318D1*
X72247Y58245D1*
X72312Y58208D1*
X72356D1*
X72422Y58245D1*
X72466Y58318D1*
X72487Y58427D1*
Y58974D1*
X72891Y58864D2*
X72869Y58937D1*
X72803Y58973D1*
X72760D1*
X72694Y58937D1*
X72650Y58827D1*
X72628Y58645D1*
Y58463D1*
X72650Y58318D1*
X72694Y58244D1*
X72760Y58208D1*
X72782D1*
X72847Y58244D1*
X72891Y58318D1*
X72913Y58427D1*
Y58463D1*
X72891Y58573D1*
X72847Y58645D1*
X72782Y58682D1*
X72760D1*
X72694Y58645D1*
X72650Y58573D1*
X72628Y58463D1*
X73185Y58973D2*
X73119Y58937D1*
X73075Y58827D1*
X73054Y58645D1*
Y58536D1*
X73075Y58354D1*
X73119Y58244D1*
X73185Y58208D1*
X73229D1*
X73294Y58244D1*
X73338Y58354D1*
X73360Y58536D1*
Y58645D1*
X73338Y58827D1*
X73294Y58937D1*
X73229Y58973D1*
X73185D1*
X73338Y58827D2*
X73075Y58354D1*
X72279Y50974D2*
Y50427D1*
X72301Y50318D1*
X72345Y50245D1*
X72411Y50208D1*
X72454D1*
X72520Y50245D1*
X72564Y50318D1*
X72586Y50427D1*
Y50974D1*
X72989Y50864D2*
X72967Y50937D1*
X72902Y50973D1*
X72858D1*
X72792Y50937D1*
X72749Y50827D1*
X72727Y50645D1*
Y50463D1*
X72749Y50318D1*
X72792Y50244D1*
X72858Y50208D1*
X72880D1*
X72945Y50244D1*
X72989Y50318D1*
X73011Y50427D1*
Y50463D1*
X72989Y50573D1*
X72945Y50645D1*
X72880Y50682D1*
X72858D1*
X72792Y50645D1*
X72749Y50573D1*
X72727Y50463D1*
X73152Y50827D2*
X73196Y50864D1*
X73262Y50973D1*
Y50208D1*
X72181Y42974D2*
Y42427D1*
X72203Y42318D1*
X72247Y42245D1*
X72312Y42208D1*
X72356D1*
X72422Y42245D1*
X72466Y42318D1*
X72487Y42427D1*
Y42974D1*
X72891Y42864D2*
X72869Y42937D1*
X72803Y42973D1*
X72760D1*
X72694Y42937D1*
X72650Y42827D1*
X72628Y42645D1*
Y42463D1*
X72650Y42318D1*
X72694Y42244D1*
X72760Y42208D1*
X72782D1*
X72847Y42244D1*
X72891Y42318D1*
X72913Y42427D1*
Y42463D1*
X72891Y42573D1*
X72847Y42645D1*
X72782Y42682D1*
X72760D1*
X72694Y42645D1*
X72650Y42573D1*
X72628Y42463D1*
X73076Y42791D2*
Y42827D1*
X73098Y42901D1*
X73119Y42937D1*
X73163Y42973D1*
X73251D1*
X73294Y42937D1*
X73316Y42901D1*
X73338Y42827D1*
Y42755D1*
X73316Y42682D1*
X73273Y42573D1*
X73054Y42208D1*
X73360D1*
X72181Y34974D2*
Y34427D1*
X72203Y34318D1*
X72247Y34245D1*
X72312Y34208D1*
X72356D1*
X72422Y34245D1*
X72466Y34318D1*
X72487Y34427D1*
Y34974D1*
X72891Y34864D2*
X72869Y34937D1*
X72803Y34973D1*
X72760D1*
X72694Y34937D1*
X72650Y34827D1*
X72628Y34645D1*
Y34463D1*
X72650Y34318D1*
X72694Y34244D1*
X72760Y34208D1*
X72782D1*
X72847Y34244D1*
X72891Y34318D1*
X72913Y34427D1*
Y34463D1*
X72891Y34573D1*
X72847Y34645D1*
X72782Y34682D1*
X72760D1*
X72694Y34645D1*
X72650Y34573D1*
X72628Y34463D1*
X73098Y34973D2*
X73338D1*
X73207Y34682D1*
X73273D1*
X73316Y34645D1*
X73338Y34609D1*
X73360Y34500D1*
Y34427D1*
X73338Y34318D1*
X73294Y34244D1*
X73229Y34208D1*
X73163D1*
X73098Y34244D1*
X73076Y34282D1*
X73054Y34354D1*
X72170Y26974D2*
Y26427D1*
X72192Y26318D1*
X72236Y26245D1*
X72302Y26208D1*
X72345D1*
X72411Y26245D1*
X72455Y26318D1*
X72476Y26427D1*
Y26974D1*
X72880Y26864D2*
X72858Y26937D1*
X72792Y26973D1*
X72749D1*
X72683Y26937D1*
X72639Y26827D1*
X72618Y26645D1*
Y26463D1*
X72639Y26318D1*
X72683Y26244D1*
X72749Y26208D1*
X72771D1*
X72836Y26244D1*
X72880Y26318D1*
X72902Y26427D1*
Y26463D1*
X72880Y26573D1*
X72836Y26645D1*
X72771Y26682D1*
X72749D1*
X72683Y26645D1*
X72639Y26573D1*
X72618Y26463D1*
X73262Y26208D2*
Y26973D1*
X73043Y26463D1*
X73371D1*
X76560Y12658D2*
D29*
X75539Y12347D1*
X76560Y12037D1*
Y11319D2*
X75539D1*
X76074D2*
X76171Y11397D1*
X76220Y11475D1*
Y11592D1*
X76171Y11669D1*
X76074Y11747D1*
X75928Y11786D1*
X75831D1*
X75685Y11747D1*
X75589Y11669D1*
X75539Y11592D1*
Y11475D1*
X75589Y11397D1*
X75685Y11319D1*
X67529Y12589D2*
X66508Y12278D1*
X67529Y11967D1*
X67043Y11288D2*
X67140Y11327D1*
X67189Y11444D1*
Y11561D1*
X67140Y11677D1*
X67043Y11716D1*
X66946Y11677D1*
X66897Y11599D1*
X66848Y11405D1*
X66800Y11327D1*
X66702Y11288D1*
X66654D1*
X66558Y11327D1*
X66508Y11444D1*
Y11561D1*
X66558Y11677D1*
X66654Y11716D1*
X73528Y18790D2*
X72508D1*
Y18517D1*
X72557Y18400D1*
X72654Y18322D1*
X72751Y18284D1*
X72896Y18245D1*
X73140D1*
X73286Y18284D1*
X73382Y18322D1*
X73480Y18400D1*
X73528Y18517D1*
Y18790D1*
X73188Y17800D2*
X73140Y17877D1*
X73042Y17955D1*
X72896Y17994D1*
X72800D1*
X72654Y17955D1*
X72557Y17877D1*
X72508Y17800D1*
Y17683D1*
X72557Y17605D1*
X72654Y17528D1*
X72800Y17488D1*
X72896D1*
X73042Y17528D1*
X73140Y17605D1*
X73188Y17683D1*
Y17800D1*
X73493Y12550D2*
X72472D1*
Y12278D1*
X72522Y12161D1*
X72618Y12083D1*
X72716Y12044D1*
X72861Y12006D1*
X73105D1*
X73251Y12044D1*
X73347Y12083D1*
X73445Y12161D1*
X73493Y12278D1*
Y12550D1*
Y11755D2*
X73445Y11716D1*
X73493Y11677D1*
X73543Y11716D1*
X73493Y11755D1*
X73153Y11716D2*
X72472D1*
X70255Y11962D2*
X70352Y12000D1*
X70450Y12079D1*
X70498Y12156D1*
Y12311D1*
X70450Y12389D1*
X70352Y12467D1*
X70255Y12506D1*
X70109Y12545D1*
X69866D1*
X69721Y12506D1*
X69623Y12467D1*
X69526Y12389D1*
X69477Y12311D1*
Y12156D1*
X69526Y12079D1*
X69623Y12000D1*
X69721Y11962D1*
X70498Y11711D2*
X70450Y11672D1*
X70498Y11633D1*
X70547Y11672D1*
X70498Y11711D1*
X70158Y11672D2*
X69477D1*
X70368Y18250D2*
X70464Y18289D1*
X70562Y18367D1*
X70610Y18444D1*
Y18600D1*
X70562Y18678D1*
X70464Y18755D1*
X70368Y18795D1*
X70222Y18833D1*
X69978D1*
X69833Y18795D1*
X69735Y18755D1*
X69639Y18678D1*
X69589Y18600D1*
Y18444D1*
X69639Y18367D1*
X69735Y18289D1*
X69833Y18250D1*
X70270Y17805D2*
X70222Y17882D1*
X70124Y17961D1*
X69978Y17999D1*
X69881D1*
X69735Y17961D1*
X69639Y17882D1*
X69589Y17805D1*
Y17688D1*
X69639Y17610D1*
X69735Y17533D1*
X69881Y17493D1*
X69978D1*
X70124Y17533D1*
X70222Y17610D1*
X70270Y17688D1*
Y17805D1*
X76635Y18858D2*
X75614Y18548D1*
X76635Y18237D1*
Y17519D2*
X75614D1*
X76149D2*
X76246Y17597D1*
X76295Y17675D1*
Y17792D1*
X76246Y17869D1*
X76149Y17947D1*
X76003Y17986D1*
X75906D1*
X75760Y17947D1*
X75663Y17869D1*
X75614Y17792D1*
Y17675D1*
X75663Y17597D1*
X75760Y17519D1*
X67654Y18789D2*
X66634Y18478D1*
X67654Y18167D1*
X67168Y17488D2*
X67266Y17527D1*
X67314Y17644D1*
Y17761D1*
X67266Y17877D1*
X67168Y17916D1*
X67072Y17877D1*
X67022Y17799D1*
X66974Y17605D1*
X66926Y17527D1*
X66828Y17488D1*
X66780D1*
X66683Y17527D1*
X66634Y17644D1*
Y17761D1*
X66683Y17877D1*
X66780Y17916D1*
X12312Y17861D2*
X13332Y18172D1*
X12312Y18483D1*
Y19200D2*
X13332D1*
X12798D2*
X12700Y19123D1*
X12652Y19045D1*
Y18928D1*
X12700Y18851D1*
X12798Y18773D1*
X12944Y18734D1*
X13040D1*
X13186Y18773D1*
X13283Y18851D1*
X13332Y18928D1*
Y19045D1*
X13283Y19123D1*
X13186Y19200D1*
X21343Y17931D2*
X22363Y18242D1*
X21343Y18553D1*
X21829Y19231D2*
X21731Y19193D1*
X21683Y19076D1*
Y18959D1*
X21731Y18842D1*
X21829Y18804D1*
X21925Y18842D1*
X21975Y18920D1*
X22023Y19114D1*
X22071Y19193D1*
X22169Y19231D1*
X22217D1*
X22314Y19193D1*
X22363Y19076D1*
Y18959D1*
X22314Y18842D1*
X22217Y18804D1*
X15343Y11730D2*
X16364D1*
Y12002D1*
X16315Y12119D1*
X16218Y12197D1*
X16120Y12236D1*
X15975Y12274D1*
X15732D1*
X15586Y12236D1*
X15489Y12197D1*
X15391Y12119D1*
X15343Y12002D1*
Y11730D1*
X15683Y12720D2*
X15732Y12642D1*
X15829Y12564D1*
X15975Y12525D1*
X16072D1*
X16218Y12564D1*
X16315Y12642D1*
X16364Y12720D1*
Y12836D1*
X16315Y12914D1*
X16218Y12992D1*
X16072Y13031D1*
X15975D1*
X15829Y12992D1*
X15732Y12914D1*
X15683Y12836D1*
Y12720D1*
X15378Y17969D2*
X16399D1*
Y18242D1*
X16350Y18358D1*
X16253Y18437D1*
X16155Y18475D1*
X16011Y18514D1*
X15767D1*
X15621Y18475D1*
X15524Y18437D1*
X15427Y18358D1*
X15378Y18242D1*
Y17969D1*
Y18765D2*
X15427Y18804D1*
X15378Y18843D1*
X15329Y18804D1*
X15378Y18765D1*
X15719Y18804D2*
X16399D1*
X18616Y18558D2*
X18520Y18519D1*
X18422Y18441D1*
X18374Y18364D1*
Y18208D1*
X18422Y18130D1*
X18520Y18053D1*
X18616Y18013D1*
X18762Y17975D1*
X19006D1*
X19151Y18013D1*
X19248Y18053D1*
X19345Y18130D1*
X19394Y18208D1*
Y18364D1*
X19345Y18441D1*
X19248Y18519D1*
X19151Y18558D1*
X18374Y18809D2*
X18422Y18847D1*
X18374Y18887D1*
X18324Y18847D1*
X18374Y18809D1*
X18714Y18847D2*
X19394D1*
X18504Y12269D2*
X18407Y12231D1*
X18310Y12153D1*
X18261Y12075D1*
Y11920D1*
X18310Y11842D1*
X18407Y11764D1*
X18504Y11725D1*
X18650Y11686D1*
X18894D1*
X19039Y11725D1*
X19136Y11764D1*
X19233Y11842D1*
X19282Y11920D1*
Y12075D1*
X19233Y12153D1*
X19136Y12231D1*
X19039Y12269D1*
X18602Y12714D2*
X18650Y12637D1*
X18748Y12559D1*
X18894Y12520D1*
X18990D1*
X19136Y12559D1*
X19233Y12637D1*
X19282Y12714D1*
Y12831D1*
X19233Y12909D1*
X19136Y12987D1*
X18990Y13026D1*
X18894D1*
X18748Y12987D1*
X18650Y12909D1*
X18602Y12831D1*
Y12714D1*
X12237Y11661D2*
X13258Y11972D1*
X12237Y12283D1*
Y13000D2*
X13258D1*
X12723D2*
X12625Y12923D1*
X12577Y12845D1*
Y12728D1*
X12625Y12651D1*
X12723Y12572D1*
X12869Y12534D1*
X12966D1*
X13112Y12572D1*
X13208Y12651D1*
X13258Y12728D1*
Y12845D1*
X13208Y12923D1*
X13112Y13000D1*
X21217Y11731D2*
X22238Y12042D1*
X21217Y12352D1*
X21703Y13031D2*
X21606Y12993D1*
X21557Y12876D1*
Y12759D1*
X21606Y12642D1*
X21703Y12603D1*
X21800Y12642D1*
X21849Y12720D1*
X21898Y12914D1*
X21946Y12993D1*
X22044Y13031D1*
X22092D1*
X22189Y12993D1*
X22238Y12876D1*
Y12759D1*
X22189Y12642D1*
X22092Y12603D1*
M02*
