G04 DipTrace 2.4.0.2*
%IN64xAPA102Crigid.gbo*%
%MOMM*%
%ADD11C,0.14*%
%ADD19C,0.203*%
%ADD20C,0.15*%
%ADD34C,0.118*%
%ADD35C,0.196*%
%ADD36C,0.314*%
%ADD37C,0.784*%
%FSLAX53Y53*%
G04*
G71*
G90*
G75*
G01*
%LNBotSilk*%
%LPD*%
X34643Y53501D2*
D19*
X30143D1*
X28393Y50001D2*
Y46000D1*
X29243D1*
Y48501D1*
X30643D1*
X34143D2*
X35543D1*
Y46000D1*
X36393D1*
Y50001D1*
X20919Y62919D2*
D20*
G03X20919Y61569I80J-675D01*
G01*
X22622D2*
G03X22622Y62919I-80J675D01*
G01*
X22660Y61569D2*
X20881D1*
X22660Y62919D2*
X20881D1*
X22650Y58596D2*
G03X22650Y59946I-80J675D01*
G01*
X20947D2*
G03X20947Y58596I80J-675D01*
G01*
X20909Y59946D2*
X22688D1*
X20909Y58596D2*
X22688D1*
X11497Y54057D2*
D11*
X11364Y54050D1*
X11233Y54029D1*
X11104Y53995D1*
X10980Y53947D1*
X10862Y53887D1*
X10750Y53814D1*
X10647Y53731D1*
X10553Y53637D1*
X10469Y53533D1*
X10397Y53422D1*
X10337Y53303D1*
X10289Y53179D1*
X10255Y53051D1*
X10234Y52920D1*
X10227Y52787D1*
Y26625D1*
X10989Y25863D1*
X14291D1*
X15815Y24339D1*
X22927D1*
X24705Y26117D1*
X25467D1*
Y52787D1*
X25460Y52920D1*
X25439Y53051D1*
X25405Y53179D1*
X25357Y53303D1*
X25297Y53422D1*
X25224Y53533D1*
X25141Y53637D1*
X25047Y53731D1*
X24943Y53814D1*
X24832Y53887D1*
X24713Y53947D1*
X24589Y53995D1*
X24461Y54029D1*
X24330Y54050D1*
X24197Y54057D1*
X11497D1*
X33016Y54817D2*
D34*
Y54051D1*
X32818D1*
X32753Y54088D1*
X32731Y54124D1*
X32709Y54197D1*
Y54306D1*
X32731Y54380D1*
X32753Y54416D1*
X32818Y54452D1*
X32753Y54489D1*
X32731Y54525D1*
X32709Y54598D1*
Y54671D1*
X32731Y54743D1*
X32753Y54780D1*
X32818Y54817D1*
X33016D1*
Y54452D2*
X32818D1*
X32218Y54051D2*
X32393Y54817D1*
X32568Y54051D1*
X32502Y54306D2*
X32284D1*
X31924Y54817D2*
Y54051D1*
X32077Y54817D2*
X31770D1*
X23435Y64035D2*
Y63269D1*
X23238D1*
X23172Y63306D1*
X23151Y63342D1*
X23129Y63415D1*
Y63524D1*
X23151Y63597D1*
X23172Y63634D1*
X23238Y63670D1*
X23172Y63707D1*
X23151Y63743D1*
X23129Y63816D1*
Y63889D1*
X23151Y63961D1*
X23172Y63998D1*
X23238Y64035D1*
X23435D1*
Y63670D2*
X23238D1*
X22638Y63269D2*
X22813Y64035D1*
X22988Y63269D1*
X22922Y63524D2*
X22703D1*
X22343Y64035D2*
Y63269D1*
X22496Y64035D2*
X22190D1*
X22049Y63634D2*
X21852D1*
X21787Y63670D1*
X21764Y63707D1*
X21743Y63779D1*
Y63889D1*
X21764Y63961D1*
X21787Y63998D1*
X21852Y64035D1*
X22049D1*
Y63269D1*
X21492Y63779D2*
X21536Y63743D1*
X21580Y63670D1*
X21601Y63560D1*
Y63488D1*
X21580Y63378D1*
X21536Y63306D1*
X21492Y63269D1*
X21427D1*
X21383Y63306D1*
X21339Y63378D1*
X21317Y63488D1*
Y63560D1*
X21339Y63670D1*
X21383Y63743D1*
X21427Y63779D1*
X21492D1*
X21176D2*
X21088Y63269D1*
X21001Y63779D1*
X20913Y63269D1*
X20826Y63779D1*
X20685Y63560D2*
X20423D1*
Y63634D1*
X20444Y63707D1*
X20466Y63743D1*
X20510Y63779D1*
X20576D1*
X20619Y63743D1*
X20663Y63670D1*
X20685Y63560D1*
Y63488D1*
X20663Y63378D1*
X20619Y63306D1*
X20576Y63269D1*
X20510D1*
X20466Y63306D1*
X20423Y63378D1*
X20281Y63779D2*
Y63269D1*
Y63560D2*
X20259Y63670D1*
X20216Y63743D1*
X20172Y63779D1*
X20106D1*
X23441Y61062D2*
Y60515D1*
X23419Y60405D1*
X23375Y60333D1*
X23310Y60296D1*
X23266D1*
X23201Y60333D1*
X23157Y60405D1*
X23135Y60515D1*
Y61062D1*
X22687Y60952D2*
X22731Y61025D1*
X22797Y61062D1*
X22884D1*
X22950Y61025D1*
X22994Y60952D1*
Y60880D1*
X22971Y60806D1*
X22950Y60770D1*
X22906Y60734D1*
X22775Y60661D1*
X22731Y60624D1*
X22709Y60587D1*
X22687Y60515D1*
Y60405D1*
X22731Y60333D1*
X22797Y60296D1*
X22884D1*
X22950Y60333D1*
X22994Y60405D1*
X22546Y61062D2*
Y60296D1*
X22349D1*
X22283Y60333D1*
X22262Y60369D1*
X22240Y60442D1*
Y60551D1*
X22262Y60624D1*
X22283Y60661D1*
X22349Y60697D1*
X22283Y60734D1*
X22262Y60770D1*
X22240Y60843D1*
Y60916D1*
X22262Y60988D1*
X22283Y61025D1*
X22349Y61062D1*
X22546D1*
Y60697D2*
X22349D1*
X22099Y60661D2*
X21902D1*
X21837Y60697D1*
X21814Y60734D1*
X21793Y60806D1*
Y60916D1*
X21814Y60988D1*
X21837Y61025D1*
X21902Y61062D1*
X22099D1*
Y60296D1*
X21542Y60806D2*
X21586Y60770D1*
X21630Y60697D1*
X21651Y60587D1*
Y60515D1*
X21630Y60405D1*
X21586Y60333D1*
X21542Y60296D1*
X21477D1*
X21433Y60333D1*
X21389Y60405D1*
X21367Y60515D1*
Y60587D1*
X21389Y60697D1*
X21433Y60770D1*
X21477Y60806D1*
X21542D1*
X21226D2*
X21138Y60296D1*
X21051Y60806D1*
X20963Y60296D1*
X20876Y60806D1*
X20735Y60587D2*
X20473D1*
Y60661D1*
X20494Y60734D1*
X20516Y60770D1*
X20560Y60806D1*
X20626D1*
X20669Y60770D1*
X20713Y60697D1*
X20735Y60587D1*
Y60515D1*
X20713Y60405D1*
X20669Y60333D1*
X20626Y60296D1*
X20560D1*
X20516Y60333D1*
X20473Y60405D1*
X20331Y60806D2*
Y60296D1*
Y60587D2*
X20309Y60697D1*
X20266Y60770D1*
X20222Y60806D1*
X20156D1*
X27867Y66281D2*
D35*
X27319D1*
X27138Y66342D1*
X27077Y66404D1*
X27016Y66524D1*
Y66707D1*
X27077Y66827D1*
X27138Y66889D1*
X27319Y66950D1*
X27867D1*
Y65674D1*
X26321Y66524D2*
X26442Y66464D1*
X26564Y66342D1*
X26624Y66159D1*
Y66039D1*
X26564Y65856D1*
X26442Y65735D1*
X26321Y65674D1*
X26138D1*
X26016Y65735D1*
X25895Y65856D1*
X25834Y66039D1*
Y66159D1*
X25895Y66342D1*
X26016Y66464D1*
X26138Y66524D1*
X26321D1*
X25442D2*
X25199Y65674D1*
X24956Y66524D1*
X24713Y65674D1*
X24470Y66524D1*
X24078Y66159D2*
X23349D1*
Y66281D1*
X23410Y66404D1*
X23470Y66464D1*
X23592Y66524D1*
X23775D1*
X23895Y66464D1*
X24018Y66342D1*
X24078Y66159D1*
Y66039D1*
X24018Y65856D1*
X23895Y65735D1*
X23775Y65674D1*
X23592D1*
X23470Y65735D1*
X23349Y65856D1*
X22957Y66524D2*
Y65674D1*
Y66159D2*
X22895Y66342D1*
X22775Y66464D1*
X22653Y66524D1*
X22470D1*
X19993Y66767D2*
X20113Y66889D1*
X20296Y66950D1*
X20539D1*
X20721Y66889D1*
X20843Y66767D1*
Y66646D1*
X20782Y66524D1*
X20721Y66464D1*
X20601Y66404D1*
X20236Y66281D1*
X20113Y66221D1*
X20053Y66159D1*
X19993Y66039D1*
Y65856D1*
X20113Y65735D1*
X20296Y65674D1*
X20539D1*
X20721Y65735D1*
X20843Y65856D1*
X19601Y66159D2*
X18872D1*
Y66281D1*
X18932Y66404D1*
X18993Y66464D1*
X19115Y66524D1*
X19297D1*
X19418Y66464D1*
X19540Y66342D1*
X19601Y66159D1*
Y66039D1*
X19540Y65856D1*
X19418Y65735D1*
X19297Y65674D1*
X19115D1*
X18993Y65735D1*
X18872Y65856D1*
X18480Y66950D2*
Y65674D1*
X18088Y66159D2*
X17359D1*
Y66281D1*
X17419Y66404D1*
X17480Y66464D1*
X17602Y66524D1*
X17784D1*
X17905Y66464D1*
X18027Y66342D1*
X18088Y66159D1*
Y66039D1*
X18027Y65856D1*
X17905Y65735D1*
X17784Y65674D1*
X17602D1*
X17480Y65735D1*
X17359Y65856D1*
X16237Y66342D2*
X16359Y66464D1*
X16481Y66524D1*
X16662D1*
X16784Y66464D1*
X16905Y66342D1*
X16967Y66159D1*
Y66039D1*
X16905Y65856D1*
X16784Y65735D1*
X16662Y65674D1*
X16481D1*
X16359Y65735D1*
X16237Y65856D1*
X15662Y66950D2*
Y65916D1*
X15602Y65735D1*
X15480Y65674D1*
X15359D1*
X15845Y66524D2*
X15419D1*
X16344Y47776D2*
D36*
Y48747D1*
X17218Y48843D1*
X17121Y48747D1*
X17022Y48455D1*
Y48165D1*
X17121Y47873D1*
X17314Y47678D1*
X17606Y47581D1*
X17799D1*
X18091Y47678D1*
X18287Y47873D1*
X18383Y48165D1*
Y48455D1*
X18287Y48747D1*
X18188Y48843D1*
X17995Y48942D1*
X16342Y46954D2*
X18383Y46176D1*
X16342Y45399D1*
Y42116D2*
X18383D1*
X16342Y42797D2*
Y41436D1*
X17022Y40808D2*
X18383D1*
X17606D2*
X17314Y40709D1*
X17119Y40516D1*
X17022Y40321D1*
Y40029D1*
X16342Y39401D2*
X16438Y39305D1*
X16342Y39206D1*
X16243Y39305D1*
X16342Y39401D1*
X17022Y39305D2*
X18383D1*
X17022Y38578D2*
X18383D1*
X17411D2*
X17119Y38286D1*
X17022Y38091D1*
Y37801D1*
X17119Y37606D1*
X17411Y37509D1*
X18383D1*
X16342Y36882D2*
X18383D1*
X17022Y35909D2*
X17995Y36882D1*
X17606Y36493D2*
X18383Y35813D1*
X17606Y35185D2*
Y34019D1*
X17411D1*
X17215Y34116D1*
X17119Y34213D1*
X17022Y34408D1*
Y34700D1*
X17119Y34893D1*
X17314Y35089D1*
X17606Y35185D1*
X17799D1*
X18091Y35089D1*
X18285Y34893D1*
X18383Y34700D1*
Y34408D1*
X18285Y34213D1*
X18091Y34019D1*
X16342Y33100D2*
X17995D1*
X18285Y33003D1*
X18383Y32808D1*
Y32615D1*
X17022Y33392D2*
Y32711D1*
X73516Y74735D2*
D37*
X76678D1*
Y69630D1*
Y72303D2*
X74735D1*
X71701Y73033D2*
X70246Y69630D1*
X70729Y68659D1*
X71218Y68170D1*
X71701Y67929D1*
X71948D1*
X68786Y73033D2*
X70246Y69630D1*
X67217Y74735D2*
Y69630D1*
Y72303D2*
X66729Y72792D1*
X66246Y73033D1*
X65516D1*
X65033Y72792D1*
X64545Y72303D1*
X64303Y71573D1*
Y71090D1*
X64545Y70360D1*
X65033Y69878D1*
X65516Y69630D1*
X66246D1*
X66729Y69878D1*
X67217Y70360D1*
X62734Y71573D2*
X59820D1*
Y72062D1*
X60062Y72550D1*
X60303Y72792D1*
X60792Y73033D1*
X61522D1*
X62004Y72792D1*
X62493Y72303D1*
X62734Y71573D1*
Y71090D1*
X62493Y70360D1*
X62004Y69878D1*
X61522Y69630D1*
X60792D1*
X60303Y69878D1*
X59820Y70360D1*
X58251Y73033D2*
Y69630D1*
Y71573D2*
X58004Y72303D1*
X57521Y72792D1*
X57033Y73033D1*
X56303D1*
X49796Y74735D2*
Y69630D1*
X46882D1*
X42399Y73033D2*
Y69630D1*
Y72303D2*
X42882Y72792D1*
X43371Y73033D1*
X44095D1*
X44583Y72792D1*
X45066Y72303D1*
X45313Y71573D1*
Y71090D1*
X45066Y70360D1*
X44583Y69878D1*
X44095Y69630D1*
X43371D1*
X42882Y69878D1*
X42399Y70360D1*
X40830Y74735D2*
Y69630D1*
Y72303D2*
X40342Y72792D1*
X39859Y73033D1*
X39129D1*
X38646Y72792D1*
X38157Y72303D1*
X37916Y71573D1*
Y71090D1*
X38157Y70360D1*
X38646Y69878D1*
X39129Y69630D1*
X39859D1*
X40342Y69878D1*
X40830Y70360D1*
X33674Y72303D2*
X33916Y72792D1*
X34646Y73033D1*
X35376D1*
X36106Y72792D1*
X36347Y72303D1*
X36106Y71820D1*
X35617Y71573D1*
X34404Y71332D1*
X33916Y71090D1*
X33674Y70602D1*
Y70360D1*
X33916Y69878D1*
X34646Y69630D1*
X35376D1*
X36106Y69878D1*
X36347Y70360D1*
X27168Y74735D2*
Y69630D1*
X25599Y73033D2*
Y69630D1*
Y72062D2*
X24869Y72792D1*
X24381Y73033D1*
X23656D1*
X23168Y72792D1*
X22926Y72062D1*
Y69630D1*
X18438Y72303D2*
X18926Y72792D1*
X19415Y73033D1*
X20139D1*
X20628Y72792D1*
X21111Y72303D1*
X21358Y71573D1*
Y71090D1*
X21111Y70360D1*
X20628Y69878D1*
X20139Y69630D1*
X19415D1*
X18926Y69878D1*
X18438Y70360D1*
X16628Y70119D2*
X16869Y69872D1*
X16628Y69630D1*
X16381Y69872D1*
X16628Y70119D1*
X73840Y62540D2*
X74081Y63023D1*
X74811Y63265D1*
X75294D1*
X76024Y63023D1*
X76512Y62293D1*
X76754Y61080D1*
Y59867D1*
X76512Y58896D1*
X76024Y58407D1*
X75294Y58166D1*
X75052D1*
X74328Y58407D1*
X73840Y58896D1*
X73598Y59626D1*
Y59867D1*
X73840Y60597D1*
X74328Y61080D1*
X75052Y61322D1*
X75294D1*
X76024Y61080D1*
X76512Y60597D1*
X76754Y59867D1*
X69598Y58166D2*
Y63265D1*
X72029Y59867D1*
X68385D1*
X66816Y61569D2*
X64143Y58166D1*
Y61569D2*
X66816Y58166D1*
X53746D2*
X55694Y63270D1*
X57637Y58166D1*
X56907Y59867D2*
X54476D1*
X52177Y60597D2*
X49987D1*
X49263Y60839D1*
X49015Y61086D1*
X48774Y61569D1*
Y62299D1*
X49015Y62782D1*
X49263Y63029D1*
X49987Y63270D1*
X52177D1*
Y58166D1*
X43314D2*
X45262Y63270D1*
X47205Y58166D1*
X46475Y59867D2*
X44044D1*
X41745Y62293D2*
X41257Y62540D1*
X40527Y63265D1*
Y58166D1*
X37498Y63265D2*
X38228Y63023D1*
X38717Y62293D1*
X38958Y61080D1*
Y60350D1*
X38717Y59137D1*
X38228Y58407D1*
X37498Y58166D1*
X37015D1*
X36285Y58407D1*
X35802Y59137D1*
X35555Y60350D1*
Y61080D1*
X35802Y62293D1*
X36285Y63023D1*
X37015Y63265D1*
X37498D1*
X35802Y62293D2*
X38717Y59137D1*
X33739Y62052D2*
Y62293D1*
X33498Y62782D1*
X33257Y63023D1*
X32768Y63265D1*
X31797D1*
X31314Y63023D1*
X31072Y62782D1*
X30825Y62293D1*
Y61810D1*
X31072Y61322D1*
X31555Y60597D1*
X33987Y58166D1*
X30584D1*
X25371Y62057D2*
X25612Y62540D1*
X26101Y63029D1*
X26584Y63270D1*
X27555D1*
X28044Y63029D1*
X28526Y62540D1*
X28774Y62057D1*
X29015Y61327D1*
Y60109D1*
X28774Y59384D1*
X28526Y58896D1*
X28044Y58413D1*
X27555Y58166D1*
X26584D1*
X26101Y58413D1*
X25612Y58896D1*
X25371Y59384D1*
X75866Y45386D2*
Y40282D1*
X72951D1*
X71383Y45386D2*
X71141Y45145D1*
X70894Y45386D1*
X71141Y45633D1*
X71383Y45386D1*
X71141Y43685D2*
Y40282D1*
X66411Y43443D2*
Y39552D1*
X66653Y38828D1*
X66894Y38581D1*
X67383Y38339D1*
X68113D1*
X68596Y38581D1*
X66411Y42713D2*
X66894Y43196D1*
X67383Y43443D1*
X68113D1*
X68596Y43196D1*
X69084Y42713D1*
X69326Y41983D1*
Y41495D1*
X69084Y40771D1*
X68596Y40282D1*
X68113Y40041D1*
X67383D1*
X66894Y40282D1*
X66411Y40771D1*
X64843Y45386D2*
Y40282D1*
Y42713D2*
X64113Y43443D1*
X63624Y43685D1*
X62894D1*
X62411Y43443D1*
X62170Y42713D1*
Y40282D1*
X59871Y45386D2*
Y41253D1*
X59630Y40529D1*
X59141Y40282D1*
X58658D1*
X60601Y43685D2*
X58900D1*
X48749Y44656D2*
X49232Y45145D1*
X49962Y45386D1*
X50933D1*
X51663Y45145D1*
X52152Y44656D1*
Y44173D1*
X51904Y43685D1*
X51663Y43443D1*
X51180Y43202D1*
X49720Y42713D1*
X49232Y42472D1*
X48990Y42225D1*
X48749Y41742D1*
Y41012D1*
X49232Y40529D1*
X49962Y40282D1*
X50933D1*
X51663Y40529D1*
X52152Y41012D1*
X44266Y43685D2*
Y38581D1*
Y42955D2*
X44749Y43438D1*
X45237Y43685D1*
X45967D1*
X46450Y43438D1*
X46939Y42955D1*
X47180Y42225D1*
Y41736D1*
X46939Y41012D1*
X46450Y40523D1*
X45967Y40282D1*
X45237D1*
X44749Y40523D1*
X44266Y41012D1*
X42697Y43685D2*
Y41253D1*
X42456Y40529D1*
X41967Y40282D1*
X41237D1*
X40754Y40529D1*
X40024Y41253D1*
Y43685D2*
Y40282D1*
X35541Y43685D2*
Y40282D1*
Y42955D2*
X36024Y43443D1*
X36513Y43685D1*
X37237D1*
X37725Y43443D1*
X38208Y42955D1*
X38455Y42225D1*
Y41742D1*
X38208Y41012D1*
X37725Y40529D1*
X37237Y40282D1*
X36513D1*
X36024Y40529D1*
X35541Y41012D1*
X33972Y43685D2*
Y40282D1*
Y42225D2*
X33725Y42955D1*
X33242Y43443D1*
X32754Y43685D1*
X32024D1*
X30455Y42225D2*
X27541D1*
Y42713D1*
X27782Y43202D1*
X28024Y43443D1*
X28512Y43685D1*
X29242D1*
X29725Y43443D1*
X30214Y42955D1*
X30455Y42225D1*
Y41742D1*
X30214Y41012D1*
X29725Y40529D1*
X29242Y40282D1*
X28512D1*
X28024Y40529D1*
X27541Y41012D1*
X76168Y22603D2*
X73984D1*
X73254Y22850D1*
X73007Y23092D1*
X72765Y23574D1*
Y24063D1*
X73007Y24546D1*
X73254Y24793D1*
X73984Y25034D1*
X76168D1*
Y19930D1*
X74467Y22603D2*
X72765Y19930D1*
X71196Y21873D2*
X68282D1*
Y22362D1*
X68524Y22850D1*
X68765Y23092D1*
X69254Y23333D1*
X69984D1*
X70466Y23092D1*
X70955Y22603D1*
X71196Y21873D1*
Y21390D1*
X70955Y20660D1*
X70466Y20177D1*
X69984Y19930D1*
X69254D1*
X68765Y20177D1*
X68282Y20660D1*
X66713Y23333D2*
X65253Y19930D1*
X63799Y23333D1*
X61989Y20419D2*
X62230Y20172D1*
X61989Y19930D1*
X61742Y20172D1*
X61989Y20419D1*
X53775Y25029D2*
X54505Y24787D1*
X54994Y24057D1*
X55235Y22844D1*
Y22114D1*
X54994Y20902D1*
X54505Y20172D1*
X53775Y19930D1*
X53292D1*
X52562Y20172D1*
X52080Y20902D1*
X51832Y22114D1*
Y22844D1*
X52080Y24057D1*
X52562Y24787D1*
X53292Y25029D1*
X53775D1*
X52080Y24057D2*
X54994Y20902D1*
X47349Y24304D2*
X47591Y24787D1*
X48321Y25029D1*
X48804D1*
X49534Y24787D1*
X50022Y24057D1*
X50264Y22844D1*
Y21632D1*
X50022Y20660D1*
X49534Y20172D1*
X48804Y19930D1*
X48562D1*
X47838Y20172D1*
X47349Y20660D1*
X47108Y21390D1*
Y21632D1*
X47349Y22362D1*
X47838Y22844D1*
X48562Y23086D1*
X48804D1*
X49534Y22844D1*
X50022Y22362D1*
X50264Y21632D1*
X42676Y23806D2*
Y24048D1*
X42435Y24536D1*
X42193Y24778D1*
X41705Y25019D1*
X40733D1*
X40250Y24778D1*
X40009Y24536D1*
X39762Y24048D1*
Y23565D1*
X40009Y23076D1*
X40492Y22352D1*
X42923Y19921D1*
X39520D1*
X36492Y25019D2*
X37222Y24778D1*
X37710Y24048D1*
X37952Y22835D1*
Y22105D1*
X37710Y20892D1*
X37222Y20162D1*
X36492Y19921D1*
X36009D1*
X35279Y20162D1*
X34796Y20892D1*
X34549Y22105D1*
Y22835D1*
X34796Y24048D1*
X35279Y24778D1*
X36009Y25019D1*
X36492D1*
X34796Y24048D2*
X37710Y20892D1*
X32980Y24048D2*
X32491Y24295D1*
X31761Y25019D1*
Y19921D1*
X27278Y25019D2*
X29704D1*
X29946Y22835D1*
X29704Y23076D1*
X28974Y23324D1*
X28250D1*
X27520Y23076D1*
X27031Y22594D1*
X26790Y21864D1*
Y21381D1*
X27031Y20651D1*
X27520Y20162D1*
X28250Y19921D1*
X28974D1*
X29704Y20162D1*
X29946Y20409D1*
X30193Y20892D1*
X76080Y32618D2*
X73895D1*
X73165Y32865D1*
X72918Y33106D1*
X72677Y33589D1*
Y34078D1*
X72918Y34561D1*
X73165Y34808D1*
X73895Y35049D1*
X76080D1*
Y29945D1*
X74378Y32618D2*
X72677Y29945D1*
X71108Y35049D2*
X70867Y34808D1*
X70619Y35049D1*
X70867Y35296D1*
X71108Y35049D1*
X70867Y33348D2*
Y29945D1*
X66136Y33106D2*
Y29215D1*
X66378Y28490D1*
X66619Y28243D1*
X67108Y28002D1*
X67838D1*
X68321Y28243D1*
X66136Y32376D2*
X66619Y32859D1*
X67108Y33106D1*
X67838D1*
X68321Y32859D1*
X68809Y32376D1*
X69051Y31646D1*
Y31158D1*
X68809Y30433D1*
X68321Y29945D1*
X67838Y29703D1*
X67108D1*
X66619Y29945D1*
X66136Y30433D1*
X64568Y35049D2*
X64326Y34808D1*
X64079Y35049D1*
X64326Y35296D1*
X64568Y35049D1*
X64326Y33348D2*
Y29945D1*
X59596Y35049D2*
Y29945D1*
Y32618D2*
X60079Y33106D1*
X60568Y33348D1*
X61298D1*
X61781Y33106D1*
X62269Y32618D1*
X62511Y31888D1*
Y31405D1*
X62269Y30675D1*
X61781Y30192D1*
X61298Y29945D1*
X60568D1*
X60079Y30192D1*
X59596Y30675D1*
X51877Y35044D2*
X52601Y34802D1*
X52848Y34319D1*
Y33831D1*
X52601Y33348D1*
X52118Y33101D1*
X51147Y32859D1*
X50417Y32618D1*
X49934Y32129D1*
X49692Y31646D1*
Y30916D1*
X49934Y30433D1*
X50175Y30186D1*
X50905Y29945D1*
X51877D1*
X52601Y30186D1*
X52848Y30433D1*
X53090Y30916D1*
Y31646D1*
X52848Y32129D1*
X52360Y32618D1*
X51635Y32859D1*
X50664Y33101D1*
X50175Y33348D1*
X49934Y33831D1*
Y34319D1*
X50175Y34802D1*
X50905Y35044D1*
X51877D1*
X48124Y33348D2*
X45451Y29945D1*
Y33348D2*
X48124Y29945D1*
X42669Y35044D2*
X43394Y34802D1*
X43641Y34319D1*
Y33831D1*
X43394Y33348D1*
X42911Y33101D1*
X41939Y32859D1*
X41209Y32618D1*
X40726Y32129D1*
X40485Y31646D1*
Y30916D1*
X40726Y30433D1*
X40968Y30186D1*
X41698Y29945D1*
X42669D1*
X43394Y30186D1*
X43641Y30433D1*
X43882Y30916D1*
Y31646D1*
X43641Y32129D1*
X43152Y32618D1*
X42428Y32859D1*
X41456Y33101D1*
X40968Y33348D1*
X40726Y33831D1*
Y34319D1*
X40968Y34802D1*
X41698Y35044D1*
X42669D1*
M02*
