G04 DipTrace 2.4.0.2*
%IN64xAPA102x16mm.gts*%
%MOMM*%
%ADD25O,4.55X2.05*%
%ADD26O,1.35X0.85*%
%ADD27O,0.85X1.35*%
%ADD28C,2.05*%
%ADD29O,2.05X4.55*%
%FSLAX53Y53*%
G04*
G71*
G90*
G75*
G01*
%LNTopMask*%
%LPD*%
D29*
X131500Y10000D3*
D28*
Y11250D3*
Y8750D3*
D29*
X134500Y10000D3*
X128500D3*
D28*
Y11250D3*
Y8750D3*
X134500Y11250D3*
Y8750D3*
D29*
X125500Y10000D3*
D28*
Y11250D3*
Y8750D3*
D27*
X16150Y15500D3*
X18000D3*
X19850D3*
Y20500D3*
X18000D3*
X16150D3*
G36*
X20625Y18425D2*
Y17575D1*
X19472D1*
X19422Y17175D1*
X16578D1*
X16528Y17575D1*
X15375D1*
Y18425D1*
X16528D1*
X16578Y18825D1*
X19422D1*
X19472Y18425D1*
X20625D1*
G37*
D29*
X19500Y10000D3*
D28*
Y11250D3*
Y8750D3*
D29*
X22500Y10000D3*
X16500D3*
D28*
Y11250D3*
Y8750D3*
X22500Y11250D3*
Y8750D3*
D29*
X13500Y10000D3*
D28*
Y11250D3*
Y8750D3*
D27*
X16150Y31500D3*
X18000D3*
X19850D3*
Y36500D3*
X18000D3*
X16150D3*
G36*
X20625Y34425D2*
Y33575D1*
X19472D1*
X19422Y33175D1*
X16578D1*
X16528Y33575D1*
X15375D1*
Y34425D1*
X16528D1*
X16578Y34825D1*
X19422D1*
X19472Y34425D1*
X20625D1*
G37*
D29*
X19500Y26000D3*
D28*
Y27250D3*
Y24750D3*
D29*
X22500Y26000D3*
X16500D3*
D28*
Y27250D3*
Y24750D3*
X22500Y27250D3*
Y24750D3*
D29*
X13500Y26000D3*
D28*
Y27250D3*
Y24750D3*
D26*
X31500Y35850D3*
Y34000D3*
Y32150D3*
X36500D3*
Y34000D3*
Y35850D3*
G36*
X34425Y31375D2*
X33575D1*
Y32528D1*
X33175Y32578D1*
Y35422D1*
X33575Y35472D1*
Y36625D1*
X34425D1*
Y35472D1*
X34825Y35422D1*
Y32578D1*
X34425Y32528D1*
Y31375D1*
G37*
D25*
X26000Y32500D3*
D28*
X27250D3*
X24750D3*
D25*
X26000Y29500D3*
Y35500D3*
D28*
X27250D3*
X24750D3*
X27250Y29500D3*
X24750D3*
D25*
X26000Y38500D3*
D28*
X27250D3*
X24750D3*
D27*
X35850Y20500D3*
X34000D3*
X32150D3*
Y15500D3*
X34000D3*
X35850D3*
G36*
X31375Y17575D2*
Y18425D1*
X32528D1*
X32578Y18825D1*
X35422D1*
X35472Y18425D1*
X36625D1*
Y17575D1*
X35472D1*
X35422Y17175D1*
X32578D1*
X32528Y17575D1*
X31375D1*
G37*
D29*
X32500Y26000D3*
D28*
Y24750D3*
Y27250D3*
D29*
X29500Y26000D3*
X35500D3*
D28*
Y24750D3*
Y27250D3*
X29500Y24750D3*
Y27250D3*
D29*
X38500Y26000D3*
D28*
Y24750D3*
Y27250D3*
D26*
X47500Y19850D3*
Y18000D3*
Y16150D3*
X52500D3*
Y18000D3*
Y19850D3*
G36*
X50425Y15375D2*
X49575D1*
Y16528D1*
X49175Y16578D1*
Y19422D1*
X49575Y19472D1*
Y20625D1*
X50425D1*
Y19472D1*
X50825Y19422D1*
Y16578D1*
X50425Y16528D1*
Y15375D1*
G37*
D25*
X42000Y16500D3*
D28*
X43250D3*
X40750D3*
D25*
X42000Y13500D3*
Y19500D3*
D28*
X43250D3*
X40750D3*
X43250Y13500D3*
X40750D3*
D25*
X42000Y22500D3*
D28*
X43250D3*
X40750D3*
D27*
X48150Y31500D3*
X50000D3*
X51850D3*
Y36500D3*
X50000D3*
X48150D3*
G36*
X52625Y34425D2*
Y33575D1*
X51472D1*
X51422Y33175D1*
X48578D1*
X48528Y33575D1*
X47375D1*
Y34425D1*
X48528D1*
X48578Y34825D1*
X51422D1*
X51472Y34425D1*
X52625D1*
G37*
D29*
X51500Y26000D3*
D28*
Y27250D3*
Y24750D3*
D29*
X54500Y26000D3*
X48500D3*
D28*
Y27250D3*
Y24750D3*
X54500Y27250D3*
Y24750D3*
D29*
X45500Y26000D3*
D28*
Y27250D3*
Y24750D3*
D27*
X48150Y47500D3*
X50000D3*
X51850D3*
Y52500D3*
X50000D3*
X48150D3*
G36*
X52625Y50425D2*
Y49575D1*
X51472D1*
X51422Y49175D1*
X48578D1*
X48528Y49575D1*
X47375D1*
Y50425D1*
X48528D1*
X48578Y50825D1*
X51422D1*
X51472Y50425D1*
X52625D1*
G37*
D29*
X51500Y42000D3*
D28*
Y43250D3*
Y40750D3*
D29*
X54500Y42000D3*
X48500D3*
D28*
Y43250D3*
Y40750D3*
X54500Y43250D3*
Y40750D3*
D29*
X45500Y42000D3*
D28*
Y43250D3*
Y40750D3*
D26*
X36500Y48150D3*
Y50000D3*
Y51850D3*
X31500D3*
Y50000D3*
Y48150D3*
G36*
X33575Y52625D2*
X34425D1*
Y51472D1*
X34825Y51422D1*
Y48578D1*
X34425Y48528D1*
Y47375D1*
X33575D1*
Y48528D1*
X33175Y48578D1*
Y51422D1*
X33575Y51472D1*
Y52625D1*
G37*
D25*
X42000Y51500D3*
D28*
X40750D3*
X43250D3*
D25*
X42000Y54500D3*
Y48500D3*
D28*
X40750D3*
X43250D3*
X40750Y54500D3*
X43250D3*
D25*
X42000Y45500D3*
D28*
X40750D3*
X43250D3*
D26*
X20500Y48150D3*
Y50000D3*
Y51850D3*
X15500D3*
Y50000D3*
Y48150D3*
G36*
X17575Y52625D2*
X18425D1*
Y51472D1*
X18825Y51422D1*
Y48578D1*
X18425Y48528D1*
Y47375D1*
X17575D1*
Y48528D1*
X17175Y48578D1*
Y51422D1*
X17575Y51472D1*
Y52625D1*
G37*
D25*
X26000Y51500D3*
D28*
X24750D3*
X27250D3*
D25*
X26000Y54500D3*
Y48500D3*
D28*
X24750D3*
X27250D3*
X24750Y54500D3*
X27250D3*
D25*
X26000Y45500D3*
D28*
X24750D3*
X27250D3*
D27*
X16150Y63500D3*
X18000D3*
X19850D3*
Y68500D3*
X18000D3*
X16150D3*
G36*
X20625Y66425D2*
Y65575D1*
X19472D1*
X19422Y65175D1*
X16578D1*
X16528Y65575D1*
X15375D1*
Y66425D1*
X16528D1*
X16578Y66825D1*
X19422D1*
X19472Y66425D1*
X20625D1*
G37*
D29*
X19500Y58000D3*
D28*
Y59250D3*
Y56750D3*
D29*
X22500Y58000D3*
X16500D3*
D28*
Y59250D3*
Y56750D3*
X22500Y59250D3*
Y56750D3*
D29*
X13500Y58000D3*
D28*
Y59250D3*
Y56750D3*
D26*
X31500Y67850D3*
Y66000D3*
Y64150D3*
X36500D3*
Y66000D3*
Y67850D3*
G36*
X34425Y63375D2*
X33575D1*
Y64528D1*
X33175Y64578D1*
Y67422D1*
X33575Y67472D1*
Y68625D1*
X34425D1*
Y67472D1*
X34825Y67422D1*
Y64578D1*
X34425Y64528D1*
Y63375D1*
G37*
D25*
X26000Y64500D3*
D28*
X27250D3*
X24750D3*
D25*
X26000Y61500D3*
Y67500D3*
D28*
X27250D3*
X24750D3*
X27250Y61500D3*
X24750D3*
D25*
X26000Y70500D3*
D28*
X27250D3*
X24750D3*
D26*
X47500Y67850D3*
Y66000D3*
Y64150D3*
X52500D3*
Y66000D3*
Y67850D3*
G36*
X50425Y63375D2*
X49575D1*
Y64528D1*
X49175Y64578D1*
Y67422D1*
X49575Y67472D1*
Y68625D1*
X50425D1*
Y67472D1*
X50825Y67422D1*
Y64578D1*
X50425Y64528D1*
Y63375D1*
G37*
D25*
X42000Y64500D3*
D28*
X43250D3*
X40750D3*
D25*
X42000Y61500D3*
Y67500D3*
D28*
X43250D3*
X40750D3*
X43250Y61500D3*
X40750D3*
D25*
X42000Y70500D3*
D28*
X43250D3*
X40750D3*
D26*
X63500Y67850D3*
Y66000D3*
Y64150D3*
X68500D3*
Y66000D3*
Y67850D3*
G36*
X66425Y63375D2*
X65575D1*
Y64528D1*
X65175Y64578D1*
Y67422D1*
X65575Y67472D1*
Y68625D1*
X66425D1*
Y67472D1*
X66825Y67422D1*
Y64578D1*
X66425Y64528D1*
Y63375D1*
G37*
D25*
X58000Y64500D3*
D28*
X59250D3*
X56750D3*
D25*
X58000Y61500D3*
Y67500D3*
D28*
X59250D3*
X56750D3*
X59250Y61500D3*
X56750D3*
D25*
X58000Y70500D3*
D28*
X59250D3*
X56750D3*
D27*
X67850Y52500D3*
X66000D3*
X64150D3*
Y47500D3*
X66000D3*
X67850D3*
G36*
X63375Y49575D2*
Y50425D1*
X64528D1*
X64578Y50825D1*
X67422D1*
X67472Y50425D1*
X68625D1*
Y49575D1*
X67472D1*
X67422Y49175D1*
X64578D1*
X64528Y49575D1*
X63375D1*
G37*
D29*
X64500Y58000D3*
D28*
Y56750D3*
Y59250D3*
D29*
X61500Y58000D3*
X67500D3*
D28*
Y56750D3*
Y59250D3*
X61500Y56750D3*
Y59250D3*
D29*
X70500Y58000D3*
D28*
Y56750D3*
Y59250D3*
D27*
X67850Y36500D3*
X66000D3*
X64150D3*
Y31500D3*
X66000D3*
X67850D3*
G36*
X63375Y33575D2*
Y34425D1*
X64528D1*
X64578Y34825D1*
X67422D1*
X67472Y34425D1*
X68625D1*
Y33575D1*
X67472D1*
X67422Y33175D1*
X64578D1*
X64528Y33575D1*
X63375D1*
G37*
D29*
X64500Y42000D3*
D28*
Y40750D3*
Y43250D3*
D29*
X61500Y42000D3*
X67500D3*
D28*
Y40750D3*
Y43250D3*
X61500Y40750D3*
Y43250D3*
D29*
X70500Y42000D3*
D28*
Y40750D3*
Y43250D3*
D27*
X67850Y20500D3*
X66000D3*
X64150D3*
Y15500D3*
X66000D3*
X67850D3*
G36*
X63375Y17575D2*
Y18425D1*
X64528D1*
X64578Y18825D1*
X67422D1*
X67472Y18425D1*
X68625D1*
Y17575D1*
X67472D1*
X67422Y17175D1*
X64578D1*
X64528Y17575D1*
X63375D1*
G37*
D29*
X64500Y26000D3*
D28*
Y24750D3*
Y27250D3*
D29*
X61500Y26000D3*
X67500D3*
D28*
Y24750D3*
Y27250D3*
X61500Y24750D3*
Y27250D3*
D29*
X70500Y26000D3*
D28*
Y24750D3*
Y27250D3*
D26*
X79500Y19850D3*
Y18000D3*
Y16150D3*
X84500D3*
Y18000D3*
Y19850D3*
G36*
X82425Y15375D2*
X81575D1*
Y16528D1*
X81175Y16578D1*
Y19422D1*
X81575Y19472D1*
Y20625D1*
X82425D1*
Y19472D1*
X82825Y19422D1*
Y16578D1*
X82425Y16528D1*
Y15375D1*
G37*
D25*
X74000Y16500D3*
D28*
X75250D3*
X72750D3*
D25*
X74000Y13500D3*
Y19500D3*
D28*
X75250D3*
X72750D3*
X75250Y13500D3*
X72750D3*
D25*
X74000Y22500D3*
D28*
X75250D3*
X72750D3*
D27*
X80150Y31500D3*
X82000D3*
X83850D3*
Y36500D3*
X82000D3*
X80150D3*
G36*
X84625Y34425D2*
Y33575D1*
X83472D1*
X83422Y33175D1*
X80578D1*
X80528Y33575D1*
X79375D1*
Y34425D1*
X80528D1*
X80578Y34825D1*
X83422D1*
X83472Y34425D1*
X84625D1*
G37*
D29*
X83500Y26000D3*
D28*
Y27250D3*
Y24750D3*
D29*
X86500Y26000D3*
X80500D3*
D28*
Y27250D3*
Y24750D3*
X86500Y27250D3*
Y24750D3*
D29*
X77500Y26000D3*
D28*
Y27250D3*
Y24750D3*
D27*
X80150Y47500D3*
X82000D3*
X83850D3*
Y52500D3*
X82000D3*
X80150D3*
G36*
X84625Y50425D2*
Y49575D1*
X83472D1*
X83422Y49175D1*
X80578D1*
X80528Y49575D1*
X79375D1*
Y50425D1*
X80528D1*
X80578Y50825D1*
X83422D1*
X83472Y50425D1*
X84625D1*
G37*
D29*
X83500Y42000D3*
D28*
Y43250D3*
Y40750D3*
D29*
X86500Y42000D3*
X80500D3*
D28*
Y43250D3*
Y40750D3*
X86500Y43250D3*
Y40750D3*
D29*
X77500Y42000D3*
D28*
Y43250D3*
Y40750D3*
D27*
X80150Y63500D3*
X82000D3*
X83850D3*
Y68500D3*
X82000D3*
X80150D3*
G36*
X84625Y66425D2*
Y65575D1*
X83472D1*
X83422Y65175D1*
X80578D1*
X80528Y65575D1*
X79375D1*
Y66425D1*
X80528D1*
X80578Y66825D1*
X83422D1*
X83472Y66425D1*
X84625D1*
G37*
D29*
X83500Y58000D3*
D28*
Y59250D3*
Y56750D3*
D29*
X86500Y58000D3*
X80500D3*
D28*
Y59250D3*
Y56750D3*
X86500Y59250D3*
Y56750D3*
D29*
X77500Y58000D3*
D28*
Y59250D3*
Y56750D3*
D27*
X80150Y79500D3*
X82000D3*
X83850D3*
Y84500D3*
X82000D3*
X80150D3*
G36*
X84625Y82425D2*
Y81575D1*
X83472D1*
X83422Y81175D1*
X80578D1*
X80528Y81575D1*
X79375D1*
Y82425D1*
X80528D1*
X80578Y82825D1*
X83422D1*
X83472Y82425D1*
X84625D1*
G37*
D29*
X83500Y74000D3*
D28*
Y75250D3*
Y72750D3*
D29*
X86500Y74000D3*
X80500D3*
D28*
Y75250D3*
Y72750D3*
X86500Y75250D3*
Y72750D3*
D29*
X77500Y74000D3*
D28*
Y75250D3*
Y72750D3*
D26*
X68500Y80150D3*
Y82000D3*
Y83850D3*
X63500D3*
Y82000D3*
Y80150D3*
G36*
X65575Y84625D2*
X66425D1*
Y83472D1*
X66825Y83422D1*
Y80578D1*
X66425Y80528D1*
Y79375D1*
X65575D1*
Y80528D1*
X65175Y80578D1*
Y83422D1*
X65575Y83472D1*
Y84625D1*
G37*
D25*
X74000Y83500D3*
D28*
X72750D3*
X75250D3*
D25*
X74000Y86500D3*
Y80500D3*
D28*
X72750D3*
X75250D3*
X72750Y86500D3*
X75250D3*
D25*
X74000Y77500D3*
D28*
X72750D3*
X75250D3*
D26*
X52500Y80150D3*
Y82000D3*
Y83850D3*
X47500D3*
Y82000D3*
Y80150D3*
G36*
X49575Y84625D2*
X50425D1*
Y83472D1*
X50825Y83422D1*
Y80578D1*
X50425Y80528D1*
Y79375D1*
X49575D1*
Y80528D1*
X49175Y80578D1*
Y83422D1*
X49575Y83472D1*
Y84625D1*
G37*
D25*
X58000Y83500D3*
D28*
X56750D3*
X59250D3*
D25*
X58000Y86500D3*
Y80500D3*
D28*
X56750D3*
X59250D3*
X56750Y86500D3*
X59250D3*
D25*
X58000Y77500D3*
D28*
X56750D3*
X59250D3*
D26*
X36500Y80150D3*
Y82000D3*
Y83850D3*
X31500D3*
Y82000D3*
Y80150D3*
G36*
X33575Y84625D2*
X34425D1*
Y83472D1*
X34825Y83422D1*
Y80578D1*
X34425Y80528D1*
Y79375D1*
X33575D1*
Y80528D1*
X33175Y80578D1*
Y83422D1*
X33575Y83472D1*
Y84625D1*
G37*
D25*
X42000Y83500D3*
D28*
X40750D3*
X43250D3*
D25*
X42000Y86500D3*
Y80500D3*
D28*
X40750D3*
X43250D3*
X40750Y86500D3*
X43250D3*
D25*
X42000Y77500D3*
D28*
X40750D3*
X43250D3*
D26*
X20500Y80150D3*
Y82000D3*
Y83850D3*
X15500D3*
Y82000D3*
Y80150D3*
G36*
X17575Y84625D2*
X18425D1*
Y83472D1*
X18825Y83422D1*
Y80578D1*
X18425Y80528D1*
Y79375D1*
X17575D1*
Y80528D1*
X17175Y80578D1*
Y83422D1*
X17575Y83472D1*
Y84625D1*
G37*
D25*
X26000Y83500D3*
D28*
X24750D3*
X27250D3*
D25*
X26000Y86500D3*
Y80500D3*
D28*
X24750D3*
X27250D3*
X24750Y86500D3*
X27250D3*
D25*
X26000Y77500D3*
D28*
X24750D3*
X27250D3*
D27*
X16150Y95500D3*
X18000D3*
X19850D3*
Y100500D3*
X18000D3*
X16150D3*
G36*
X20625Y98425D2*
Y97575D1*
X19472D1*
X19422Y97175D1*
X16578D1*
X16528Y97575D1*
X15375D1*
Y98425D1*
X16528D1*
X16578Y98825D1*
X19422D1*
X19472Y98425D1*
X20625D1*
G37*
D29*
X19500Y90000D3*
D28*
Y91250D3*
Y88750D3*
D29*
X22500Y90000D3*
X16500D3*
D28*
Y91250D3*
Y88750D3*
X22500Y91250D3*
Y88750D3*
D29*
X13500Y90000D3*
D28*
Y91250D3*
Y88750D3*
D26*
X31500Y99850D3*
Y98000D3*
Y96150D3*
X36500D3*
Y98000D3*
Y99850D3*
G36*
X34425Y95375D2*
X33575D1*
Y96528D1*
X33175Y96578D1*
Y99422D1*
X33575Y99472D1*
Y100625D1*
X34425D1*
Y99472D1*
X34825Y99422D1*
Y96578D1*
X34425Y96528D1*
Y95375D1*
G37*
D25*
X26000Y96500D3*
D28*
X27250D3*
X24750D3*
D25*
X26000Y93500D3*
Y99500D3*
D28*
X27250D3*
X24750D3*
X27250Y93500D3*
X24750D3*
D25*
X26000Y102500D3*
D28*
X27250D3*
X24750D3*
D26*
X47500Y99850D3*
Y98000D3*
Y96150D3*
X52500D3*
Y98000D3*
Y99850D3*
G36*
X50425Y95375D2*
X49575D1*
Y96528D1*
X49175Y96578D1*
Y99422D1*
X49575Y99472D1*
Y100625D1*
X50425D1*
Y99472D1*
X50825Y99422D1*
Y96578D1*
X50425Y96528D1*
Y95375D1*
G37*
D25*
X42000Y96500D3*
D28*
X43250D3*
X40750D3*
D25*
X42000Y93500D3*
Y99500D3*
D28*
X43250D3*
X40750D3*
X43250Y93500D3*
X40750D3*
D25*
X42000Y102500D3*
D28*
X43250D3*
X40750D3*
D26*
X63500Y99850D3*
Y98000D3*
Y96150D3*
X68500D3*
Y98000D3*
Y99850D3*
G36*
X66425Y95375D2*
X65575D1*
Y96528D1*
X65175Y96578D1*
Y99422D1*
X65575Y99472D1*
Y100625D1*
X66425D1*
Y99472D1*
X66825Y99422D1*
Y96578D1*
X66425Y96528D1*
Y95375D1*
G37*
D25*
X58000Y96500D3*
D28*
X59250D3*
X56750D3*
D25*
X58000Y93500D3*
Y99500D3*
D28*
X59250D3*
X56750D3*
X59250Y93500D3*
X56750D3*
D25*
X58000Y102500D3*
D28*
X59250D3*
X56750D3*
D26*
X79500Y99850D3*
Y98000D3*
Y96150D3*
X84500D3*
Y98000D3*
Y99850D3*
G36*
X82425Y95375D2*
X81575D1*
Y96528D1*
X81175Y96578D1*
Y99422D1*
X81575Y99472D1*
Y100625D1*
X82425D1*
Y99472D1*
X82825Y99422D1*
Y96578D1*
X82425Y96528D1*
Y95375D1*
G37*
D25*
X74000Y96500D3*
D28*
X75250D3*
X72750D3*
D25*
X74000Y93500D3*
Y99500D3*
D28*
X75250D3*
X72750D3*
X75250Y93500D3*
X72750D3*
D25*
X74000Y102500D3*
D28*
X75250D3*
X72750D3*
D26*
X95500Y99850D3*
Y98000D3*
Y96150D3*
X100500D3*
Y98000D3*
Y99850D3*
G36*
X98425Y95375D2*
X97575D1*
Y96528D1*
X97175Y96578D1*
Y99422D1*
X97575Y99472D1*
Y100625D1*
X98425D1*
Y99472D1*
X98825Y99422D1*
Y96578D1*
X98425Y96528D1*
Y95375D1*
G37*
D25*
X90000Y96500D3*
D28*
X91250D3*
X88750D3*
D25*
X90000Y93500D3*
Y99500D3*
D28*
X91250D3*
X88750D3*
X91250Y93500D3*
X88750D3*
D25*
X90000Y102500D3*
D28*
X91250D3*
X88750D3*
D27*
X99850Y84500D3*
X98000D3*
X96150D3*
Y79500D3*
X98000D3*
X99850D3*
G36*
X95375Y81575D2*
Y82425D1*
X96528D1*
X96578Y82825D1*
X99422D1*
X99472Y82425D1*
X100625D1*
Y81575D1*
X99472D1*
X99422Y81175D1*
X96578D1*
X96528Y81575D1*
X95375D1*
G37*
D29*
X96500Y90000D3*
D28*
Y88750D3*
Y91250D3*
D29*
X93500Y90000D3*
X99500D3*
D28*
Y88750D3*
Y91250D3*
X93500Y88750D3*
Y91250D3*
D29*
X102500Y90000D3*
D28*
Y88750D3*
Y91250D3*
D27*
X99850Y68500D3*
X98000D3*
X96150D3*
Y63500D3*
X98000D3*
X99850D3*
G36*
X95375Y65575D2*
Y66425D1*
X96528D1*
X96578Y66825D1*
X99422D1*
X99472Y66425D1*
X100625D1*
Y65575D1*
X99472D1*
X99422Y65175D1*
X96578D1*
X96528Y65575D1*
X95375D1*
G37*
D29*
X96500Y74000D3*
D28*
Y72750D3*
Y75250D3*
D29*
X93500Y74000D3*
X99500D3*
D28*
Y72750D3*
Y75250D3*
X93500Y72750D3*
Y75250D3*
D29*
X102500Y74000D3*
D28*
Y72750D3*
Y75250D3*
D27*
X99850Y52500D3*
X98000D3*
X96150D3*
Y47500D3*
X98000D3*
X99850D3*
G36*
X95375Y49575D2*
Y50425D1*
X96528D1*
X96578Y50825D1*
X99422D1*
X99472Y50425D1*
X100625D1*
Y49575D1*
X99472D1*
X99422Y49175D1*
X96578D1*
X96528Y49575D1*
X95375D1*
G37*
D29*
X96500Y58000D3*
D28*
Y56750D3*
Y59250D3*
D29*
X93500Y58000D3*
X99500D3*
D28*
Y56750D3*
Y59250D3*
X93500Y56750D3*
Y59250D3*
D29*
X102500Y58000D3*
D28*
Y56750D3*
Y59250D3*
D27*
X99850Y36500D3*
X98000D3*
X96150D3*
Y31500D3*
X98000D3*
X99850D3*
G36*
X95375Y33575D2*
Y34425D1*
X96528D1*
X96578Y34825D1*
X99422D1*
X99472Y34425D1*
X100625D1*
Y33575D1*
X99472D1*
X99422Y33175D1*
X96578D1*
X96528Y33575D1*
X95375D1*
G37*
D29*
X96500Y42000D3*
D28*
Y40750D3*
Y43250D3*
D29*
X93500Y42000D3*
X99500D3*
D28*
Y40750D3*
Y43250D3*
X93500Y40750D3*
Y43250D3*
D29*
X102500Y42000D3*
D28*
Y40750D3*
Y43250D3*
D27*
X99850Y20500D3*
X98000D3*
X96150D3*
Y15500D3*
X98000D3*
X99850D3*
G36*
X95375Y17575D2*
Y18425D1*
X96528D1*
X96578Y18825D1*
X99422D1*
X99472Y18425D1*
X100625D1*
Y17575D1*
X99472D1*
X99422Y17175D1*
X96578D1*
X96528Y17575D1*
X95375D1*
G37*
D29*
X96500Y26000D3*
D28*
Y24750D3*
Y27250D3*
D29*
X93500Y26000D3*
X99500D3*
D28*
Y24750D3*
Y27250D3*
X93500Y24750D3*
Y27250D3*
D29*
X102500Y26000D3*
D28*
Y24750D3*
Y27250D3*
D26*
X111500Y19850D3*
Y18000D3*
Y16150D3*
X116500D3*
Y18000D3*
Y19850D3*
G36*
X114425Y15375D2*
X113575D1*
Y16528D1*
X113175Y16578D1*
Y19422D1*
X113575Y19472D1*
Y20625D1*
X114425D1*
Y19472D1*
X114825Y19422D1*
Y16578D1*
X114425Y16528D1*
Y15375D1*
G37*
D25*
X106000Y16500D3*
D28*
X107250D3*
X104750D3*
D25*
X106000Y13500D3*
Y19500D3*
D28*
X107250D3*
X104750D3*
X107250Y13500D3*
X104750D3*
D25*
X106000Y22500D3*
D28*
X107250D3*
X104750D3*
D27*
X112150Y31500D3*
X114000D3*
X115850D3*
Y36500D3*
X114000D3*
X112150D3*
G36*
X116625Y34425D2*
Y33575D1*
X115472D1*
X115422Y33175D1*
X112578D1*
X112528Y33575D1*
X111375D1*
Y34425D1*
X112528D1*
X112578Y34825D1*
X115422D1*
X115472Y34425D1*
X116625D1*
G37*
D29*
X115500Y26000D3*
D28*
Y27250D3*
Y24750D3*
D29*
X118500Y26000D3*
X112500D3*
D28*
Y27250D3*
Y24750D3*
X118500Y27250D3*
Y24750D3*
D29*
X109500Y26000D3*
D28*
Y27250D3*
Y24750D3*
D27*
X112150Y47500D3*
X114000D3*
X115850D3*
Y52500D3*
X114000D3*
X112150D3*
G36*
X116625Y50425D2*
Y49575D1*
X115472D1*
X115422Y49175D1*
X112578D1*
X112528Y49575D1*
X111375D1*
Y50425D1*
X112528D1*
X112578Y50825D1*
X115422D1*
X115472Y50425D1*
X116625D1*
G37*
D29*
X115500Y42000D3*
D28*
Y43250D3*
Y40750D3*
D29*
X118500Y42000D3*
X112500D3*
D28*
Y43250D3*
Y40750D3*
X118500Y43250D3*
Y40750D3*
D29*
X109500Y42000D3*
D28*
Y43250D3*
Y40750D3*
D27*
X112150Y63500D3*
X114000D3*
X115850D3*
Y68500D3*
X114000D3*
X112150D3*
G36*
X116625Y66425D2*
Y65575D1*
X115472D1*
X115422Y65175D1*
X112578D1*
X112528Y65575D1*
X111375D1*
Y66425D1*
X112528D1*
X112578Y66825D1*
X115422D1*
X115472Y66425D1*
X116625D1*
G37*
D29*
X115500Y58000D3*
D28*
Y59250D3*
Y56750D3*
D29*
X118500Y58000D3*
X112500D3*
D28*
Y59250D3*
Y56750D3*
X118500Y59250D3*
Y56750D3*
D29*
X109500Y58000D3*
D28*
Y59250D3*
Y56750D3*
D27*
X112150Y79500D3*
X114000D3*
X115850D3*
Y84500D3*
X114000D3*
X112150D3*
G36*
X116625Y82425D2*
Y81575D1*
X115472D1*
X115422Y81175D1*
X112578D1*
X112528Y81575D1*
X111375D1*
Y82425D1*
X112528D1*
X112578Y82825D1*
X115422D1*
X115472Y82425D1*
X116625D1*
G37*
D29*
X115500Y74000D3*
D28*
Y75250D3*
Y72750D3*
D29*
X118500Y74000D3*
X112500D3*
D28*
Y75250D3*
Y72750D3*
X118500Y75250D3*
Y72750D3*
D29*
X109500Y74000D3*
D28*
Y75250D3*
Y72750D3*
D27*
X112150Y95500D3*
X114000D3*
X115850D3*
Y100500D3*
X114000D3*
X112150D3*
G36*
X116625Y98425D2*
Y97575D1*
X115472D1*
X115422Y97175D1*
X112578D1*
X112528Y97575D1*
X111375D1*
Y98425D1*
X112528D1*
X112578Y98825D1*
X115422D1*
X115472Y98425D1*
X116625D1*
G37*
D29*
X115500Y90000D3*
D28*
Y91250D3*
Y88750D3*
D29*
X118500Y90000D3*
X112500D3*
D28*
Y91250D3*
Y88750D3*
X118500Y91250D3*
Y88750D3*
D29*
X109500Y90000D3*
D28*
Y91250D3*
Y88750D3*
D27*
X112150Y111500D3*
X114000D3*
X115850D3*
Y116500D3*
X114000D3*
X112150D3*
G36*
X116625Y114425D2*
Y113575D1*
X115472D1*
X115422Y113175D1*
X112578D1*
X112528Y113575D1*
X111375D1*
Y114425D1*
X112528D1*
X112578Y114825D1*
X115422D1*
X115472Y114425D1*
X116625D1*
G37*
D29*
X115500Y106000D3*
D28*
Y107250D3*
Y104750D3*
D29*
X118500Y106000D3*
X112500D3*
D28*
Y107250D3*
Y104750D3*
X118500Y107250D3*
Y104750D3*
D29*
X109500Y106000D3*
D28*
Y107250D3*
Y104750D3*
D26*
X100500Y112150D3*
Y114000D3*
Y115850D3*
X95500D3*
Y114000D3*
Y112150D3*
G36*
X97575Y116625D2*
X98425D1*
Y115472D1*
X98825Y115422D1*
Y112578D1*
X98425Y112528D1*
Y111375D1*
X97575D1*
Y112528D1*
X97175Y112578D1*
Y115422D1*
X97575Y115472D1*
Y116625D1*
G37*
D25*
X106000Y115500D3*
D28*
X104750D3*
X107250D3*
D25*
X106000Y118500D3*
Y112500D3*
D28*
X104750D3*
X107250D3*
X104750Y118500D3*
X107250D3*
D25*
X106000Y109500D3*
D28*
X104750D3*
X107250D3*
D26*
X84500Y112150D3*
Y114000D3*
Y115850D3*
X79500D3*
Y114000D3*
Y112150D3*
G36*
X81575Y116625D2*
X82425D1*
Y115472D1*
X82825Y115422D1*
Y112578D1*
X82425Y112528D1*
Y111375D1*
X81575D1*
Y112528D1*
X81175Y112578D1*
Y115422D1*
X81575Y115472D1*
Y116625D1*
G37*
D25*
X90000Y115500D3*
D28*
X88750D3*
X91250D3*
D25*
X90000Y118500D3*
Y112500D3*
D28*
X88750D3*
X91250D3*
X88750Y118500D3*
X91250D3*
D25*
X90000Y109500D3*
D28*
X88750D3*
X91250D3*
D26*
X68500Y112150D3*
Y114000D3*
Y115850D3*
X63500D3*
Y114000D3*
Y112150D3*
G36*
X65575Y116625D2*
X66425D1*
Y115472D1*
X66825Y115422D1*
Y112578D1*
X66425Y112528D1*
Y111375D1*
X65575D1*
Y112528D1*
X65175Y112578D1*
Y115422D1*
X65575Y115472D1*
Y116625D1*
G37*
D25*
X74000Y115500D3*
D28*
X72750D3*
X75250D3*
D25*
X74000Y118500D3*
Y112500D3*
D28*
X72750D3*
X75250D3*
X72750Y118500D3*
X75250D3*
D25*
X74000Y109500D3*
D28*
X72750D3*
X75250D3*
D26*
X52500Y112150D3*
Y114000D3*
Y115850D3*
X47500D3*
Y114000D3*
Y112150D3*
G36*
X49575Y116625D2*
X50425D1*
Y115472D1*
X50825Y115422D1*
Y112578D1*
X50425Y112528D1*
Y111375D1*
X49575D1*
Y112528D1*
X49175Y112578D1*
Y115422D1*
X49575Y115472D1*
Y116625D1*
G37*
D25*
X58000Y115500D3*
D28*
X56750D3*
X59250D3*
D25*
X58000Y118500D3*
Y112500D3*
D28*
X56750D3*
X59250D3*
X56750Y118500D3*
X59250D3*
D25*
X58000Y109500D3*
D28*
X56750D3*
X59250D3*
D26*
X36500Y112150D3*
Y114000D3*
Y115850D3*
X31500D3*
Y114000D3*
Y112150D3*
G36*
X33575Y116625D2*
X34425D1*
Y115472D1*
X34825Y115422D1*
Y112578D1*
X34425Y112528D1*
Y111375D1*
X33575D1*
Y112528D1*
X33175Y112578D1*
Y115422D1*
X33575Y115472D1*
Y116625D1*
G37*
D25*
X42000Y115500D3*
D28*
X40750D3*
X43250D3*
D25*
X42000Y118500D3*
Y112500D3*
D28*
X40750D3*
X43250D3*
X40750Y118500D3*
X43250D3*
D25*
X42000Y109500D3*
D28*
X40750D3*
X43250D3*
D26*
X20500Y112150D3*
Y114000D3*
Y115850D3*
X15500D3*
Y114000D3*
Y112150D3*
G36*
X17575Y116625D2*
X18425D1*
Y115472D1*
X18825Y115422D1*
Y112578D1*
X18425Y112528D1*
Y111375D1*
X17575D1*
Y112528D1*
X17175Y112578D1*
Y115422D1*
X17575Y115472D1*
Y116625D1*
G37*
D25*
X26000Y115500D3*
D28*
X24750D3*
X27250D3*
D25*
X26000Y118500D3*
Y112500D3*
D28*
X24750D3*
X27250D3*
X24750Y118500D3*
X27250D3*
D25*
X26000Y109500D3*
D28*
X24750D3*
X27250D3*
D27*
X16150Y127500D3*
X18000D3*
X19850D3*
Y132500D3*
X18000D3*
X16150D3*
G36*
X20625Y130425D2*
Y129575D1*
X19472D1*
X19422Y129175D1*
X16578D1*
X16528Y129575D1*
X15375D1*
Y130425D1*
X16528D1*
X16578Y130825D1*
X19422D1*
X19472Y130425D1*
X20625D1*
G37*
D29*
X19500Y122000D3*
D28*
Y123250D3*
Y120750D3*
D29*
X22500Y122000D3*
X16500D3*
D28*
Y123250D3*
Y120750D3*
X22500Y123250D3*
Y120750D3*
D29*
X13500Y122000D3*
D28*
Y123250D3*
Y120750D3*
D26*
X31500Y131850D3*
Y130000D3*
Y128150D3*
X36500D3*
Y130000D3*
Y131850D3*
G36*
X34425Y127375D2*
X33575D1*
Y128528D1*
X33175Y128578D1*
Y131422D1*
X33575Y131472D1*
Y132625D1*
X34425D1*
Y131472D1*
X34825Y131422D1*
Y128578D1*
X34425Y128528D1*
Y127375D1*
G37*
D25*
X26000Y128500D3*
D28*
X27250D3*
X24750D3*
D25*
X26000Y125500D3*
Y131500D3*
D28*
X27250D3*
X24750D3*
X27250Y125500D3*
X24750D3*
D25*
X26000Y134500D3*
D28*
X27250D3*
X24750D3*
D26*
X47500Y131850D3*
Y130000D3*
Y128150D3*
X52500D3*
Y130000D3*
Y131850D3*
G36*
X50425Y127375D2*
X49575D1*
Y128528D1*
X49175Y128578D1*
Y131422D1*
X49575Y131472D1*
Y132625D1*
X50425D1*
Y131472D1*
X50825Y131422D1*
Y128578D1*
X50425Y128528D1*
Y127375D1*
G37*
D25*
X42000Y128500D3*
D28*
X43250D3*
X40750D3*
D25*
X42000Y125500D3*
Y131500D3*
D28*
X43250D3*
X40750D3*
X43250Y125500D3*
X40750D3*
D25*
X42000Y134500D3*
D28*
X43250D3*
X40750D3*
D26*
X63500Y131850D3*
Y130000D3*
Y128150D3*
X68500D3*
Y130000D3*
Y131850D3*
G36*
X66425Y127375D2*
X65575D1*
Y128528D1*
X65175Y128578D1*
Y131422D1*
X65575Y131472D1*
Y132625D1*
X66425D1*
Y131472D1*
X66825Y131422D1*
Y128578D1*
X66425Y128528D1*
Y127375D1*
G37*
D25*
X58000Y128500D3*
D28*
X59250D3*
X56750D3*
D25*
X58000Y125500D3*
Y131500D3*
D28*
X59250D3*
X56750D3*
X59250Y125500D3*
X56750D3*
D25*
X58000Y134500D3*
D28*
X59250D3*
X56750D3*
D26*
X79500Y131850D3*
Y130000D3*
Y128150D3*
X84500D3*
Y130000D3*
Y131850D3*
G36*
X82425Y127375D2*
X81575D1*
Y128528D1*
X81175Y128578D1*
Y131422D1*
X81575Y131472D1*
Y132625D1*
X82425D1*
Y131472D1*
X82825Y131422D1*
Y128578D1*
X82425Y128528D1*
Y127375D1*
G37*
D25*
X74000Y128500D3*
D28*
X75250D3*
X72750D3*
D25*
X74000Y125500D3*
Y131500D3*
D28*
X75250D3*
X72750D3*
X75250Y125500D3*
X72750D3*
D25*
X74000Y134500D3*
D28*
X75250D3*
X72750D3*
D26*
X95500Y131850D3*
Y130000D3*
Y128150D3*
X100500D3*
Y130000D3*
Y131850D3*
G36*
X98425Y127375D2*
X97575D1*
Y128528D1*
X97175Y128578D1*
Y131422D1*
X97575Y131472D1*
Y132625D1*
X98425D1*
Y131472D1*
X98825Y131422D1*
Y128578D1*
X98425Y128528D1*
Y127375D1*
G37*
D25*
X90000Y128500D3*
D28*
X91250D3*
X88750D3*
D25*
X90000Y125500D3*
Y131500D3*
D28*
X91250D3*
X88750D3*
X91250Y125500D3*
X88750D3*
D25*
X90000Y134500D3*
D28*
X91250D3*
X88750D3*
D26*
X111500Y131850D3*
Y130000D3*
Y128150D3*
X116500D3*
Y130000D3*
Y131850D3*
G36*
X114425Y127375D2*
X113575D1*
Y128528D1*
X113175Y128578D1*
Y131422D1*
X113575Y131472D1*
Y132625D1*
X114425D1*
Y131472D1*
X114825Y131422D1*
Y128578D1*
X114425Y128528D1*
Y127375D1*
G37*
D25*
X106000Y128500D3*
D28*
X107250D3*
X104750D3*
D25*
X106000Y125500D3*
Y131500D3*
D28*
X107250D3*
X104750D3*
X107250Y125500D3*
X104750D3*
D25*
X106000Y134500D3*
D28*
X107250D3*
X104750D3*
D26*
X127500Y131850D3*
Y130000D3*
Y128150D3*
X132500D3*
Y130000D3*
Y131850D3*
G36*
X130425Y127375D2*
X129575D1*
Y128528D1*
X129175Y128578D1*
Y131422D1*
X129575Y131472D1*
Y132625D1*
X130425D1*
Y131472D1*
X130825Y131422D1*
Y128578D1*
X130425Y128528D1*
Y127375D1*
G37*
D25*
X122000Y128500D3*
D28*
X123250D3*
X120750D3*
D25*
X122000Y125500D3*
Y131500D3*
D28*
X123250D3*
X120750D3*
X123250Y125500D3*
X120750D3*
D25*
X122000Y134500D3*
D28*
X123250D3*
X120750D3*
D27*
X131850Y116500D3*
X130000D3*
X128150D3*
Y111500D3*
X130000D3*
X131850D3*
G36*
X127375Y113575D2*
Y114425D1*
X128528D1*
X128578Y114825D1*
X131422D1*
X131472Y114425D1*
X132625D1*
Y113575D1*
X131472D1*
X131422Y113175D1*
X128578D1*
X128528Y113575D1*
X127375D1*
G37*
D29*
X128500Y122000D3*
D28*
Y120750D3*
Y123250D3*
D29*
X125500Y122000D3*
X131500D3*
D28*
Y120750D3*
Y123250D3*
X125500Y120750D3*
Y123250D3*
D29*
X134500Y122000D3*
D28*
Y120750D3*
Y123250D3*
D27*
X131850Y100500D3*
X130000D3*
X128150D3*
Y95500D3*
X130000D3*
X131850D3*
G36*
X127375Y97575D2*
Y98425D1*
X128528D1*
X128578Y98825D1*
X131422D1*
X131472Y98425D1*
X132625D1*
Y97575D1*
X131472D1*
X131422Y97175D1*
X128578D1*
X128528Y97575D1*
X127375D1*
G37*
D29*
X128500Y106000D3*
D28*
Y104750D3*
Y107250D3*
D29*
X125500Y106000D3*
X131500D3*
D28*
Y104750D3*
Y107250D3*
X125500Y104750D3*
Y107250D3*
D29*
X134500Y106000D3*
D28*
Y104750D3*
Y107250D3*
D27*
X131850Y84500D3*
X130000D3*
X128150D3*
Y79500D3*
X130000D3*
X131850D3*
G36*
X127375Y81575D2*
Y82425D1*
X128528D1*
X128578Y82825D1*
X131422D1*
X131472Y82425D1*
X132625D1*
Y81575D1*
X131472D1*
X131422Y81175D1*
X128578D1*
X128528Y81575D1*
X127375D1*
G37*
D29*
X128500Y90000D3*
D28*
Y88750D3*
Y91250D3*
D29*
X125500Y90000D3*
X131500D3*
D28*
Y88750D3*
Y91250D3*
X125500Y88750D3*
Y91250D3*
D29*
X134500Y90000D3*
D28*
Y88750D3*
Y91250D3*
D27*
X131850Y68500D3*
X130000D3*
X128150D3*
Y63500D3*
X130000D3*
X131850D3*
G36*
X127375Y65575D2*
Y66425D1*
X128528D1*
X128578Y66825D1*
X131422D1*
X131472Y66425D1*
X132625D1*
Y65575D1*
X131472D1*
X131422Y65175D1*
X128578D1*
X128528Y65575D1*
X127375D1*
G37*
D29*
X128500Y74000D3*
D28*
Y72750D3*
Y75250D3*
D29*
X125500Y74000D3*
X131500D3*
D28*
Y72750D3*
Y75250D3*
X125500Y72750D3*
Y75250D3*
D29*
X134500Y74000D3*
D28*
Y72750D3*
Y75250D3*
D27*
X131850Y52500D3*
X130000D3*
X128150D3*
Y47500D3*
X130000D3*
X131850D3*
G36*
X127375Y49575D2*
Y50425D1*
X128528D1*
X128578Y50825D1*
X131422D1*
X131472Y50425D1*
X132625D1*
Y49575D1*
X131472D1*
X131422Y49175D1*
X128578D1*
X128528Y49575D1*
X127375D1*
G37*
D29*
X128500Y58000D3*
D28*
Y56750D3*
Y59250D3*
D29*
X125500Y58000D3*
X131500D3*
D28*
Y56750D3*
Y59250D3*
X125500Y56750D3*
Y59250D3*
D29*
X134500Y58000D3*
D28*
Y56750D3*
Y59250D3*
D27*
X131850Y36500D3*
X130000D3*
X128150D3*
Y31500D3*
X130000D3*
X131850D3*
G36*
X127375Y33575D2*
Y34425D1*
X128528D1*
X128578Y34825D1*
X131422D1*
X131472Y34425D1*
X132625D1*
Y33575D1*
X131472D1*
X131422Y33175D1*
X128578D1*
X128528Y33575D1*
X127375D1*
G37*
D29*
X128500Y42000D3*
D28*
Y40750D3*
Y43250D3*
D29*
X125500Y42000D3*
X131500D3*
D28*
Y40750D3*
Y43250D3*
X125500Y40750D3*
Y43250D3*
D29*
X134500Y42000D3*
D28*
Y40750D3*
Y43250D3*
D27*
X131850Y20500D3*
X130000D3*
X128150D3*
Y15500D3*
X130000D3*
X131850D3*
G36*
X127375Y17575D2*
Y18425D1*
X128528D1*
X128578Y18825D1*
X131422D1*
X131472Y18425D1*
X132625D1*
Y17575D1*
X131472D1*
X131422Y17175D1*
X128578D1*
X128528Y17575D1*
X127375D1*
G37*
D29*
X128500Y26000D3*
D28*
Y24750D3*
Y27250D3*
D29*
X125500Y26000D3*
X131500D3*
D28*
Y24750D3*
Y27250D3*
X125500Y24750D3*
Y27250D3*
D29*
X134500Y26000D3*
D28*
Y24750D3*
Y27250D3*
M02*
