M48
METRIC,0000.00
T01C0.75
%
T01
X+013150Y+001125
X+013150Y+000875
X+012850Y+000875
X+012850Y+001125
X+012550Y+001125
X+012550Y+000875
X+013450Y+000875
X+013450Y+001125
X+013450Y+002475
X+013450Y+002725
X+013150Y+002725
X+013150Y+002475
X+012850Y+002475
X+012850Y+002725
X+012550Y+002725
X+012550Y+002475
X+011850Y+002475
X+011850Y+002725
X+011550Y+002725
X+011550Y+002475
X+011250Y+002475
X+011250Y+002725
X+010950Y+002725
X+010950Y+002475
X+010725Y+002250
X+010475Y+002250
X+010475Y+001950
X+010725Y+001950
X+010725Y+001650
X+010475Y+001650
X+010475Y+001350
X+010725Y+001350
X+010250Y+002475
X+010250Y+002725
X+009950Y+002725
X+009950Y+002475
X+009650Y+002475
X+009650Y+002725
X+009350Y+002725
X+009350Y+002475
X+008650Y+002475
X+008650Y+002725
X+008350Y+002725
X+008350Y+002475
X+008050Y+002475
X+008050Y+002725
X+007750Y+002725
X+007750Y+002475
X+007525Y+002250
X+007275Y+002250
X+007275Y+001950
X+007525Y+001950
X+007525Y+001650
X+007275Y+001650
X+007275Y+001350
X+007525Y+001350
X+007050Y+002475
X+007050Y+002725
X+006750Y+002725
X+006750Y+002475
X+006450Y+002475
X+006450Y+002725
X+006150Y+002725
X+006150Y+002475
X+005450Y+002475
X+005450Y+002725
X+005150Y+002725
X+005150Y+002475
X+004850Y+002475
X+004850Y+002725
X+004550Y+002725
X+004550Y+002475
X+004325Y+002250
X+004075Y+002250
X+004075Y+001950
X+004325Y+001950
X+004325Y+001650
X+004075Y+001650
X+004075Y+001350
X+004325Y+001350
X+003850Y+002475
X+003850Y+002725
X+003550Y+002725
X+003550Y+002475
X+003250Y+002475
X+003250Y+002725
X+002950Y+002725
X+002950Y+002475
X+002725Y+002950
X+002475Y+002950
X+002475Y+003250
X+002725Y+003250
X+002725Y+003550
X+002475Y+003550
X+002475Y+003850
X+002725Y+003850
X+002725Y+004550
X+002475Y+004550
X+002475Y+004850
X+002725Y+004850
X+002725Y+005150
X+002475Y+005150
X+002475Y+005450
X+002725Y+005450
X+002250Y+005675
X+002250Y+005925
X+001950Y+005925
X+001950Y+005675
X+001650Y+005675
X+001650Y+005925
X+001350Y+005925
X+001350Y+005675
X+002475Y+006150
X+002725Y+006150
X+002725Y+006450
X+002475Y+006450
X+002475Y+006750
X+002725Y+006750
X+002725Y+007050
X+002475Y+007050
X+002475Y+007750
X+002725Y+007750
X+002725Y+008050
X+002475Y+008050
X+002475Y+008350
X+002725Y+008350
X+002725Y+008650
X+002475Y+008650
X+002250Y+008875
X+002250Y+009125
X+001950Y+009125
X+001950Y+008875
X+001650Y+008875
X+001650Y+009125
X+001350Y+009125
X+001350Y+008875
X+002475Y+009350
X+002725Y+009350
X+002725Y+009650
X+002475Y+009650
X+002475Y+009950
X+002725Y+009950
X+002725Y+010250
X+002475Y+010250
X+002475Y+010950
X+002725Y+010950
X+002725Y+011250
X+002475Y+011250
X+002475Y+011550
X+002725Y+011550
X+002725Y+011850
X+002475Y+011850
X+002250Y+012075
X+002250Y+012325
X+001950Y+012325
X+001950Y+012075
X+001650Y+012075
X+001650Y+012325
X+001350Y+012325
X+001350Y+012075
X+002475Y+012550
X+002725Y+012550
X+002725Y+012850
X+002475Y+012850
X+002475Y+013150
X+002725Y+013150
X+002725Y+013450
X+002475Y+013450
X+004075Y+013450
X+004325Y+013450
X+004325Y+013150
X+004075Y+013150
X+004075Y+012850
X+004325Y+012850
X+004325Y+012550
X+004075Y+012550
X+004075Y+011850
X+004325Y+011850
X+004325Y+011550
X+004075Y+011550
X+004075Y+011250
X+004325Y+011250
X+004325Y+010950
X+004075Y+010950
X+004075Y+010250
X+004325Y+010250
X+004325Y+009950
X+004075Y+009950
X+004075Y+009650
X+004325Y+009650
X+004325Y+009350
X+004075Y+009350
X+004075Y+008650
X+004325Y+008650
X+004325Y+008350
X+004075Y+008350
X+004075Y+008050
X+004325Y+008050
X+004325Y+007750
X+004075Y+007750
X+004075Y+007050
X+004325Y+007050
X+004325Y+006750
X+004075Y+006750
X+004075Y+006450
X+004325Y+006450
X+004325Y+006150
X+004075Y+006150
X+004075Y+005450
X+004325Y+005450
X+004325Y+005150
X+004075Y+005150
X+004075Y+004850
X+004325Y+004850
X+004325Y+004550
X+004075Y+004550
X+004550Y+004325
X+004550Y+004075
X+004850Y+004075
X+004850Y+004325
X+005150Y+004325
X+005150Y+004075
X+005450Y+004075
X+005450Y+004325
X+006150Y+004325
X+006150Y+004075
X+006450Y+004075
X+006450Y+004325
X+006750Y+004325
X+006750Y+004075
X+007050Y+004075
X+007050Y+004325
X+007750Y+004325
X+007750Y+004075
X+008050Y+004075
X+008050Y+004325
X+008350Y+004325
X+008350Y+004075
X+008650Y+004075
X+008650Y+004325
X+009350Y+004325
X+009350Y+004075
X+009650Y+004075
X+009650Y+004325
X+009950Y+004325
X+009950Y+004075
X+010250Y+004075
X+010250Y+004325
X+010950Y+004325
X+010950Y+004075
X+011250Y+004075
X+011250Y+004325
X+011550Y+004325
X+011550Y+004075
X+011850Y+004075
X+011850Y+004325
X+012550Y+004325
X+012550Y+004075
X+012850Y+004075
X+012850Y+004325
X+013150Y+004325
X+013150Y+004075
X+013450Y+004075
X+013450Y+004325
X+013450Y+005675
X+013450Y+005925
X+013150Y+005925
X+013150Y+005675
X+012850Y+005675
X+012850Y+005925
X+012550Y+005925
X+012550Y+005675
X+011850Y+005675
X+011850Y+005925
X+011550Y+005925
X+011550Y+005675
X+011250Y+005675
X+011250Y+005925
X+010950Y+005925
X+010950Y+005675
X+010250Y+005675
X+010250Y+005925
X+009950Y+005925
X+009950Y+005675
X+009650Y+005675
X+009650Y+005925
X+009350Y+005925
X+009350Y+005675
X+008650Y+005675
X+008650Y+005925
X+008350Y+005925
X+008350Y+005675
X+008050Y+005675
X+008050Y+005925
X+007750Y+005925
X+007750Y+005675
X+007050Y+005675
X+007050Y+005925
X+006750Y+005925
X+006750Y+005675
X+006450Y+005675
X+006450Y+005925
X+006150Y+005925
X+006150Y+005675
X+005925Y+006150
X+005675Y+006150
X+005675Y+006450
X+005925Y+006450
X+005925Y+006750
X+005675Y+006750
X+005675Y+007050
X+005925Y+007050
X+005925Y+007750
X+005675Y+007750
X+005675Y+008050
X+005925Y+008050
X+005925Y+008350
X+005675Y+008350
X+005675Y+008650
X+005925Y+008650
X+005925Y+009350
X+005675Y+009350
X+005675Y+009650
X+005925Y+009650
X+005925Y+009950
X+005675Y+009950
X+005675Y+010250
X+005925Y+010250
X+005925Y+010950
X+005675Y+010950
X+005675Y+011250
X+005925Y+011250
X+005925Y+011550
X+005675Y+011550
X+005675Y+011850
X+005925Y+011850
X+005925Y+012550
X+005675Y+012550
X+005675Y+012850
X+005925Y+012850
X+005925Y+013150
X+005675Y+013150
X+005675Y+013450
X+005925Y+013450
X+007275Y+013450
X+007525Y+013450
X+007525Y+013150
X+007275Y+013150
X+007275Y+012850
X+007525Y+012850
X+007525Y+012550
X+007275Y+012550
X+007275Y+011850
X+007525Y+011850
X+007525Y+011550
X+007275Y+011550
X+007275Y+011250
X+007525Y+011250
X+007525Y+010950
X+007275Y+010950
X+007275Y+010250
X+007525Y+010250
X+007525Y+009950
X+007275Y+009950
X+007275Y+009650
X+007525Y+009650
X+007525Y+009350
X+007275Y+009350
X+007275Y+008650
X+007525Y+008650
X+007525Y+008350
X+007275Y+008350
X+007275Y+008050
X+007525Y+008050
X+007525Y+007750
X+007275Y+007750
X+007750Y+007525
X+007750Y+007275
X+008050Y+007275
X+008050Y+007525
X+008350Y+007525
X+008350Y+007275
X+008650Y+007275
X+008650Y+007525
X+009350Y+007525
X+009350Y+007275
X+009650Y+007275
X+009650Y+007525
X+009950Y+007525
X+009950Y+007275
X+010250Y+007275
X+010250Y+007525
X+010950Y+007525
X+010950Y+007275
X+011250Y+007275
X+011250Y+007525
X+011550Y+007525
X+011550Y+007275
X+011850Y+007275
X+011850Y+007525
X+012550Y+007525
X+012550Y+007275
X+012850Y+007275
X+012850Y+007525
X+013150Y+007525
X+013150Y+007275
X+013450Y+007275
X+013450Y+007525
X+013450Y+008875
X+013450Y+009125
X+013150Y+009125
X+013150Y+008875
X+012850Y+008875
X+012850Y+009125
X+012550Y+009125
X+012550Y+008875
X+011850Y+008875
X+011850Y+009125
X+011550Y+009125
X+011550Y+008875
X+011250Y+008875
X+011250Y+009125
X+010950Y+009125
X+010950Y+008875
X+010250Y+008875
X+010250Y+009125
X+009950Y+009125
X+009950Y+008875
X+009650Y+008875
X+009650Y+009125
X+009350Y+009125
X+009350Y+008875
X+009125Y+009350
X+008875Y+009350
X+008875Y+009650
X+009125Y+009650
X+009125Y+009950
X+008875Y+009950
X+008875Y+010250
X+009125Y+010250
X+009125Y+010950
X+008875Y+010950
X+008875Y+011250
X+009125Y+011250
X+009125Y+011550
X+008875Y+011550
X+008875Y+011850
X+009125Y+011850
X+009125Y+012550
X+008875Y+012550
X+008875Y+012850
X+009125Y+012850
X+009125Y+013150
X+008875Y+013150
X+008875Y+013450
X+009125Y+013450
X+010475Y+013450
X+010725Y+013450
X+010725Y+013150
X+010475Y+013150
X+010475Y+012850
X+010725Y+012850
X+010725Y+012550
X+010475Y+012550
X+010475Y+011850
X+010725Y+011850
X+010725Y+011550
X+010475Y+011550
X+010475Y+011250
X+010725Y+011250
X+010725Y+010950
X+010475Y+010950
X+010950Y+010725
X+010950Y+010475
X+011250Y+010475
X+011250Y+010725
X+011550Y+010725
X+011550Y+010475
X+011850Y+010475
X+011850Y+010725
X+012550Y+010725
X+012550Y+010475
X+012850Y+010475
X+012850Y+010725
X+013150Y+010725
X+013150Y+010475
X+013450Y+010475
X+013450Y+010725
X+013450Y+012075
X+013450Y+012325
X+013150Y+012325
X+013150Y+012075
X+012850Y+012075
X+012850Y+012325
X+012550Y+012325
X+012550Y+012075
X+012325Y+012550
X+012075Y+012550
X+012075Y+012850
X+012325Y+012850
X+012325Y+013150
X+012075Y+013150
X+012075Y+013450
X+012325Y+013450
X+002250Y+002725
X+002250Y+002475
X+001950Y+002475
X+001950Y+002725
X+001650Y+002725
X+001650Y+002475
X+001350Y+002475
X+001350Y+002725
X+001350Y+001125
X+001350Y+000875
X+001650Y+000875
X+001650Y+001125
X+001950Y+001125
X+001950Y+000875
X+002250Y+000875
X+002250Y+001125
T00
M30
