G04 DipTrace 2.4.0.2*
%INST12axis.gto*%
%MOMM*%
%ADD10C,0.25*%
%ADD16C,0.152*%
%ADD27O,0.322X0.33*%
%ADD30O,0.312X0.377*%
%ADD32O,0.43X0.44*%
%ADD34O,0.33X0.33*%
%ADD57C,0.118*%
%FSLAX53Y53*%
G04*
G71*
G90*
G75*
G01*
%LNTopSilk*%
%LPD*%
X13623Y17465D2*
D16*
X13624Y17490D1*
X13629Y17515D1*
X13635Y17540D1*
X13645Y17564D1*
X13657Y17588D1*
X13672Y17612D1*
X13690Y17634D1*
X13710Y17656D1*
X13732Y17677D1*
X13756Y17697D1*
X13783Y17715D1*
X13812Y17733D1*
X13842Y17749D1*
X13874Y17764D1*
X13908Y17777D1*
X13943Y17789D1*
X13980Y17799D1*
X14017Y17807D1*
X14055Y17814D1*
X14094Y17820D1*
X14133Y17823D1*
X14173Y17825D1*
X14213D1*
X14253Y17823D1*
X14292Y17820D1*
X14331Y17814D1*
X14369Y17807D1*
X14407Y17799D1*
X14443Y17789D1*
X14478Y17777D1*
X14512Y17764D1*
X14544Y17749D1*
X14574Y17733D1*
X14603Y17715D1*
X14630Y17697D1*
X14654Y17677D1*
X14676Y17656D1*
X14696Y17634D1*
X14714Y17612D1*
X14729Y17588D1*
X14741Y17564D1*
X14751Y17540D1*
X14757Y17515D1*
X14762Y17490D1*
X14763Y17465D1*
X14762Y17440D1*
X14757Y17415D1*
X14751Y17390D1*
X14741Y17366D1*
X14729Y17342D1*
X14714Y17319D1*
X14696Y17296D1*
X14676Y17274D1*
X14654Y17254D1*
X14630Y17234D1*
X14603Y17215D1*
X14574Y17198D1*
X14544Y17181D1*
X14512Y17167D1*
X14478Y17153D1*
X14443Y17142D1*
X14407Y17131D1*
X14369Y17123D1*
X14331Y17116D1*
X14292Y17111D1*
X14253Y17107D1*
X14213Y17105D1*
X14173D1*
X14133Y17107D1*
X14094Y17111D1*
X14055Y17116D1*
X14017Y17123D1*
X13980Y17131D1*
X13943Y17142D1*
X13908Y17153D1*
X13874Y17167D1*
X13842Y17181D1*
X13812Y17198D1*
X13783Y17215D1*
X13756Y17234D1*
X13732Y17254D1*
X13710Y17274D1*
X13690Y17296D1*
X13672Y17319D1*
X13657Y17342D1*
X13645Y17366D1*
X13635Y17390D1*
X13629Y17415D1*
X13624Y17440D1*
X13623Y17465D1*
X13626Y16419D2*
X13628Y16444D1*
X13632Y16469D1*
X13639Y16494D1*
X13648Y16519D1*
X13661Y16542D1*
X13676Y16566D1*
X13693Y16588D1*
X13713Y16610D1*
X13735Y16631D1*
X13760Y16651D1*
X13786Y16669D1*
X13815Y16687D1*
X13845Y16703D1*
X13877Y16718D1*
X13911Y16731D1*
X13946Y16743D1*
X13983Y16753D1*
X14020Y16762D1*
X14058Y16769D1*
X14097Y16774D1*
X14137Y16777D1*
X14176Y16779D1*
X14216D1*
X14256Y16777D1*
X14295Y16774D1*
X14334Y16769D1*
X14372Y16762D1*
X14410Y16753D1*
X14446Y16743D1*
X14481Y16731D1*
X14515Y16718D1*
X14547Y16703D1*
X14578Y16687D1*
X14606Y16669D1*
X14633Y16651D1*
X14657Y16631D1*
X14680Y16610D1*
X14700Y16588D1*
X14717Y16566D1*
X14732Y16542D1*
X14744Y16519D1*
X14754Y16494D1*
X14761Y16469D1*
X14765Y16444D1*
X14766Y16419D1*
X14765Y16394D1*
X14761Y16369D1*
X14754Y16344D1*
X14744Y16320D1*
X14732Y16296D1*
X14717Y16273D1*
X14700Y16250D1*
X14680Y16229D1*
X14657Y16208D1*
X14633Y16188D1*
X14606Y16169D1*
X14578Y16152D1*
X14547Y16136D1*
X14515Y16121D1*
X14481Y16108D1*
X14446Y16096D1*
X14410Y16086D1*
X14372Y16077D1*
X14334Y16070D1*
X14295Y16065D1*
X14256Y16061D1*
X14216Y16060D1*
X14176D1*
X14137Y16061D1*
X14097Y16065D1*
X14058Y16070D1*
X14020Y16077D1*
X13983Y16086D1*
X13946Y16096D1*
X13911Y16108D1*
X13877Y16121D1*
X13845Y16136D1*
X13815Y16152D1*
X13786Y16169D1*
X13760Y16188D1*
X13735Y16208D1*
X13713Y16229D1*
X13693Y16250D1*
X13676Y16273D1*
X13661Y16296D1*
X13648Y16320D1*
X13639Y16344D1*
X13632Y16369D1*
X13628Y16394D1*
X13626Y16419D1*
X13642Y15409D2*
X13643Y15434D1*
X13647Y15459D1*
X13654Y15484D1*
X13664Y15508D1*
X13676Y15532D1*
X13691Y15555D1*
X13708Y15578D1*
X13728Y15600D1*
X13751Y15621D1*
X13775Y15640D1*
X13802Y15659D1*
X13830Y15677D1*
X13861Y15693D1*
X13893Y15707D1*
X13927Y15721D1*
X13962Y15733D1*
X13998Y15743D1*
X14036Y15751D1*
X14074Y15758D1*
X14113Y15764D1*
X14152Y15767D1*
X14192Y15769D1*
X14232D1*
X14271Y15767D1*
X14311Y15764D1*
X14350Y15758D1*
X14388Y15751D1*
X14425Y15743D1*
X14462Y15733D1*
X14497Y15721D1*
X14530Y15707D1*
X14563Y15693D1*
X14593Y15677D1*
X14622Y15659D1*
X14648Y15640D1*
X14673Y15621D1*
X14695Y15600D1*
X14715Y15578D1*
X14732Y15555D1*
X14747Y15532D1*
X14760Y15508D1*
X14769Y15484D1*
X14776Y15459D1*
X14780Y15434D1*
X14782Y15409D1*
X14780Y15384D1*
X14776Y15359D1*
X14769Y15334D1*
X14760Y15310D1*
X14747Y15286D1*
X14732Y15263D1*
X14715Y15240D1*
X14695Y15218D1*
X14673Y15197D1*
X14648Y15178D1*
X14622Y15159D1*
X14593Y15141D1*
X14563Y15125D1*
X14530Y15111D1*
X14497Y15097D1*
X14462Y15085D1*
X14425Y15075D1*
X14388Y15067D1*
X14350Y15060D1*
X14311Y15054D1*
X14271Y15051D1*
X14232Y15049D1*
X14192D1*
X14152Y15051D1*
X14113Y15054D1*
X14074Y15060D1*
X14036Y15067D1*
X13998Y15075D1*
X13962Y15085D1*
X13927Y15097D1*
X13893Y15111D1*
X13861Y15125D1*
X13830Y15141D1*
X13802Y15159D1*
X13775Y15178D1*
X13751Y15197D1*
X13728Y15218D1*
X13708Y15240D1*
X13691Y15263D1*
X13676Y15286D1*
X13664Y15310D1*
X13654Y15334D1*
X13647Y15359D1*
X13643Y15384D1*
X13642Y15409D1*
X15995Y17350D2*
D10*
X16895D1*
X15995Y14750D2*
X16895D1*
D27*
X15434Y17118D3*
X13499Y14432D2*
D10*
X14499D1*
X13499Y13032D2*
X14499D1*
D30*
X13028Y14354D3*
D32*
X20085Y16944D3*
X20135Y15924D2*
D10*
X20560D1*
Y18774D1*
X20135D1*
X18134D2*
X17709D1*
Y15924D1*
X18134D1*
X20603Y14927D2*
X20054D1*
X20603Y11427D2*
X20054D1*
X18153D2*
X17603D1*
X18153Y14927D2*
X17603D1*
D34*
X19958Y14332D3*
X20918Y14932D3*
X19703Y13177D2*
D16*
X18473D1*
X19103Y13927D2*
Y12427D1*
X18683Y13627D2*
X19493Y12787D1*
X19523Y12757D2*
X19493Y12907D1*
X18503Y13177D2*
X18683Y13057D1*
Y13297D2*
X18503Y13177D1*
X19178Y12562D2*
X19088Y12382D1*
X18998Y12562D1*
X19523Y12757D2*
X19343Y12787D1*
X24178Y18507D2*
X22948D1*
X23578Y19257D2*
Y17757D1*
X23158Y18957D2*
X23968Y18117D1*
X23998Y18087D2*
X23968Y18236D1*
X22978Y18507D2*
X23158Y18387D1*
Y18626D2*
X22978Y18507D1*
X23653Y17892D2*
X23563Y17712D1*
X23473Y17892D1*
X23998Y18087D2*
X23818Y18117D1*
X12642Y17144D2*
D57*
X12467Y17909D1*
X12292Y17144D1*
X12358Y17399D2*
X12576D1*
X12783Y17526D2*
X13036D1*
X13177Y17909D2*
Y17144D1*
X13374D1*
X13440Y17181D1*
X13462Y17217D1*
X13483Y17289D1*
Y17399D1*
X13462Y17472D1*
X13440Y17508D1*
X13374Y17544D1*
X13440Y17582D1*
X13462Y17618D1*
X13483Y17690D1*
Y17763D1*
X13462Y17836D1*
X13440Y17873D1*
X13374Y17909D1*
X13177D1*
Y17544D2*
X13374D1*
X12626Y16078D2*
X12451Y16843D1*
X12276Y16078D1*
X12342Y16333D2*
X12560D1*
X12767Y16460D2*
X13020D1*
X13489Y16661D2*
X13467Y16734D1*
X13423Y16807D1*
X13380Y16843D1*
X13293D1*
X13249Y16807D1*
X13205Y16734D1*
X13183Y16661D1*
X13161Y16552D1*
Y16369D1*
X13183Y16260D1*
X13205Y16187D1*
X13249Y16115D1*
X13293Y16078D1*
X13380D1*
X13423Y16115D1*
X13467Y16187D1*
X13489Y16260D1*
Y16369D1*
X13380D1*
X12595Y15057D2*
X12419Y15822D1*
X12244Y15057D1*
X12310Y15312D2*
X12529D1*
X12736Y15439D2*
X12988D1*
X13479Y15057D2*
Y15822D1*
X13304Y15057D1*
X13130Y15822D1*
Y15057D1*
X17768Y19702D2*
X17746Y19774D1*
X17702Y19847D1*
X17659Y19884D1*
X17571D1*
X17527Y19847D1*
X17484Y19774D1*
X17461Y19702D1*
X17440Y19592D1*
Y19409D1*
X17461Y19301D1*
X17484Y19228D1*
X17527Y19155D1*
X17571Y19118D1*
X17659D1*
X17702Y19155D1*
X17746Y19228D1*
X17768Y19301D1*
X17909Y19737D2*
X17953Y19774D1*
X18019Y19883D1*
Y19118D1*
X21842Y19121D2*
X21820Y19194D1*
X21776Y19267D1*
X21732Y19303D1*
X21645D1*
X21601Y19267D1*
X21557Y19194D1*
X21535Y19121D1*
X21514Y19012D1*
Y18829D1*
X21535Y18720D1*
X21557Y18647D1*
X21601Y18575D1*
X21645Y18538D1*
X21732D1*
X21776Y18575D1*
X21820Y18647D1*
X21842Y18720D1*
X22005Y19121D2*
Y19157D1*
X22027Y19230D1*
X22048Y19266D1*
X22092Y19302D1*
X22180D1*
X22223Y19266D1*
X22245Y19230D1*
X22267Y19157D1*
Y19084D1*
X22245Y19011D1*
X22202Y18902D1*
X21983Y18538D1*
X22289D1*
X21870Y17911D2*
X21848Y17983D1*
X21804Y18056D1*
X21761Y18093D1*
X21673D1*
X21629Y18056D1*
X21586Y17983D1*
X21564Y17911D1*
X21542Y17801D1*
Y17618D1*
X21564Y17510D1*
X21586Y17437D1*
X21629Y17364D1*
X21673Y17327D1*
X21761D1*
X21804Y17364D1*
X21848Y17437D1*
X21870Y17510D1*
X22055Y18092D2*
X22295D1*
X22164Y17800D1*
X22230D1*
X22273Y17764D1*
X22295Y17728D1*
X22317Y17618D1*
Y17546D1*
X22295Y17437D1*
X22252Y17363D1*
X22186Y17327D1*
X22120D1*
X22055Y17363D1*
X22033Y17400D1*
X22011Y17473D1*
X22527Y13330D2*
X22506Y13402D1*
X22462Y13475D1*
X22418Y13512D1*
X22331D1*
X22287Y13475D1*
X22243Y13402D1*
X22221Y13330D1*
X22199Y13220D1*
Y13037D1*
X22221Y12929D1*
X22243Y12855D1*
X22287Y12783D1*
X22331Y12746D1*
X22418D1*
X22462Y12783D1*
X22506Y12855D1*
X22527Y12929D1*
X22887Y12746D2*
Y13511D1*
X22668Y13001D1*
X22996D1*
X21491Y10847D2*
X21470Y10919D1*
X21426Y10992D1*
X21382Y11028D1*
X21295D1*
X21251Y10992D1*
X21207Y10919D1*
X21185Y10847D1*
X21163Y10737D1*
Y10554D1*
X21185Y10446D1*
X21207Y10372D1*
X21251Y10300D1*
X21295Y10263D1*
X21382D1*
X21426Y10300D1*
X21470Y10372D1*
X21491Y10446D1*
X21895Y11028D2*
X21676D1*
X21655Y10700D1*
X21676Y10736D1*
X21742Y10773D1*
X21807D1*
X21873Y10736D1*
X21917Y10664D1*
X21939Y10554D1*
Y10482D1*
X21917Y10372D1*
X21873Y10299D1*
X21807Y10263D1*
X21742D1*
X21676Y10299D1*
X21655Y10336D1*
X21633Y10409D1*
X21457Y13984D2*
X21436Y14056D1*
X21392Y14130D1*
X21348Y14166D1*
X21261D1*
X21217Y14130D1*
X21173Y14056D1*
X21151Y13984D1*
X21129Y13875D1*
Y13692D1*
X21151Y13583D1*
X21173Y13510D1*
X21217Y13437D1*
X21261Y13400D1*
X21348D1*
X21392Y13437D1*
X21436Y13510D1*
X21457Y13583D1*
X21861Y14056D2*
X21839Y14129D1*
X21774Y14165D1*
X21730D1*
X21664Y14129D1*
X21620Y14019D1*
X21599Y13837D1*
Y13656D1*
X21620Y13510D1*
X21664Y13437D1*
X21730Y13400D1*
X21752D1*
X21817Y13437D1*
X21861Y13510D1*
X21883Y13619D1*
Y13656D1*
X21861Y13765D1*
X21817Y13837D1*
X21752Y13874D1*
X21730D1*
X21664Y13837D1*
X21620Y13765D1*
X21599Y13656D1*
X22550Y14585D2*
X22529Y14658D1*
X22485Y14731D1*
X22441Y14767D1*
X22354D1*
X22310Y14731D1*
X22266Y14658D1*
X22244Y14585D1*
X22222Y14476D1*
Y14293D1*
X22244Y14184D1*
X22266Y14111D1*
X22310Y14039D1*
X22354Y14002D1*
X22441D1*
X22485Y14039D1*
X22529Y14111D1*
X22550Y14184D1*
X22779Y14002D2*
X22998Y14766D1*
X22692D1*
X15099Y14686D2*
X15296D1*
X15362Y14723D1*
X15384Y14759D1*
X15406Y14832D1*
Y14905D1*
X15384Y14978D1*
X15362Y15015D1*
X15296Y15051D1*
X15099D1*
Y14285D1*
X15253Y14686D2*
X15406Y14285D1*
X15547Y14904D2*
X15591Y14941D1*
X15657Y15050D1*
Y14285D1*
X14887Y13612D2*
X15084D1*
X15150Y13649D1*
X15172Y13685D1*
X15194Y13758D1*
Y13831D1*
X15172Y13904D1*
X15150Y13941D1*
X15084Y13977D1*
X14887D1*
Y13211D1*
X15040Y13612D2*
X15194Y13211D1*
X15357Y13794D2*
Y13830D1*
X15379Y13904D1*
X15400Y13940D1*
X15444Y13976D1*
X15532D1*
X15575Y13940D1*
X15597Y13904D1*
X15619Y13830D1*
Y13758D1*
X15597Y13685D1*
X15554Y13576D1*
X15335Y13211D1*
X15641D1*
X18879Y15937D2*
Y15391D1*
X18900Y15281D1*
X18944Y15209D1*
X19010Y15172D1*
X19054D1*
X19119Y15209D1*
X19163Y15281D1*
X19185Y15391D1*
Y15937D1*
X19326Y15791D2*
X19370Y15828D1*
X19436Y15937D1*
Y15172D1*
X16502Y13113D2*
Y12566D1*
X16524Y12457D1*
X16568Y12384D1*
X16633Y12347D1*
X16677D1*
X16742Y12384D1*
X16786Y12457D1*
X16808Y12566D1*
Y13113D1*
X16972Y12930D2*
Y12966D1*
X16993Y13039D1*
X17015Y13076D1*
X17059Y13112D1*
X17146D1*
X17190Y13076D1*
X17212Y13039D1*
X17234Y12966D1*
Y12894D1*
X17212Y12820D1*
X17168Y12712D1*
X16949Y12347D1*
X17256D1*
X19535Y14348D2*
X18769Y14093D1*
X19535D2*
X18769Y14348D1*
X18121Y13611D2*
X18266Y13247D1*
Y12846D1*
X18412Y13611D2*
X18266Y13247D1*
X20075Y12398D2*
Y12143D1*
X19309Y12398D1*
Y12143D1*
X24010Y19678D2*
X23244Y19423D1*
X24010D2*
X23244Y19678D1*
X22595Y18941D2*
X22741Y18576D1*
Y18175D1*
X22886Y18941D2*
X22741Y18576D1*
X24549Y17728D2*
Y17472D1*
X23784Y17728D1*
Y17472D1*
M02*
