G04 DipTrace 2.4.0.2*
%INST12axis.g2l*%
%MOMM*%
%ADD15C,0.127*%
%ADD23C,1.6*%
%ADD25C,1.7*%
%ADD40C,0.457*%
%FSLAX53Y53*%
G04*
G71*
G90*
G75*
G01*
%LNInner1_Plane*%
%LPD*%
D40*
X19691Y16757D3*
X19732Y19196D3*
X18194Y17261D3*
X19772Y14470D3*
X18195Y15255D3*
X15512Y14708D3*
X15179Y15205D3*
X17407Y15035D3*
X18511Y16276D3*
X17222Y13499D3*
X18376Y13142D3*
X17964Y11541D3*
X19779Y12466D3*
X16446Y15848D3*
X20624Y15947D3*
X20502Y11539D3*
X22177Y14715D3*
X16357Y14152D3*
X13749Y13390D3*
X17752Y16322D3*
X12370Y17923D3*
X11963Y12581D3*
X16937Y14047D3*
X13148Y19313D2*
D15*
X15284D1*
X17111D2*
X23057D1*
X13023Y19189D2*
X15236D1*
X17159D2*
X23009D1*
X12900Y19066D2*
X15204D1*
X17190D2*
X22977D1*
X12777Y18942D2*
X15191D1*
X17204D2*
X22963D1*
X12652Y18818D2*
X15193D1*
X17202D2*
X22965D1*
X12529Y18695D2*
X15208D1*
X17186D2*
X22981D1*
X12406Y18571D2*
X15242D1*
X17153D2*
X23015D1*
X12281Y18447D2*
X15294D1*
X17101D2*
X23067D1*
X12521Y18324D2*
X15367D1*
X17028D2*
X23140D1*
X12704Y18200D2*
X15468D1*
X16926D2*
X23241D1*
X12777Y18076D2*
X15611D1*
X16784D2*
X23384D1*
X11787Y17953D2*
X11934D1*
X12805D2*
X15851D1*
X16543D2*
X23624D1*
X24316D2*
X24503D1*
X11664Y17829D2*
X11944D1*
X12797D2*
X24503D1*
X11539Y17705D2*
X11994D1*
X12747D2*
X24503D1*
X11416Y17582D2*
X12107D1*
X12634D2*
X17903D1*
X18484D2*
X24503D1*
X11293Y17458D2*
X17806D1*
X18581D2*
X24503D1*
X11432Y17334D2*
X17764D1*
X18623D2*
X23809D1*
X24132D2*
X24503D1*
X11783Y17211D2*
X17760D1*
X18627D2*
X23457D1*
X11952Y17087D2*
X17794D1*
X18593D2*
X23289D1*
X12067Y16963D2*
X17879D1*
X18508D2*
X23174D1*
X12150Y16840D2*
X18141D1*
X18247D2*
X23090D1*
X12208Y16716D2*
X17584D1*
X17921D2*
X23031D1*
X12247Y16592D2*
X17413D1*
X18091D2*
X18217D1*
X18806D2*
X22991D1*
X12271Y16469D2*
X17342D1*
X18901D2*
X22969D1*
X12277Y16345D2*
X17316D1*
X18943D2*
X20467D1*
X20782D2*
X22961D1*
X12269Y16221D2*
X17328D1*
X18945D2*
X20288D1*
X20961D2*
X22971D1*
X12245Y16098D2*
X17379D1*
X18909D2*
X20215D1*
X21032D2*
X22995D1*
X12204Y15974D2*
X17496D1*
X18006D2*
X18201D1*
X18822D2*
X20189D1*
X21060D2*
X23037D1*
X12144Y15850D2*
X20199D1*
X21050D2*
X23096D1*
X12059Y15727D2*
X20249D1*
X20998D2*
X23182D1*
X11940Y15603D2*
X15020D1*
X15337D2*
X17941D1*
X18450D2*
X20364D1*
X20885D2*
X23301D1*
X11765Y15479D2*
X14843D1*
X15516D2*
X17822D1*
X18568D2*
X23475D1*
X10736Y15356D2*
X11218D1*
X11321D2*
X14770D1*
X15587D2*
X17117D1*
X17696D2*
X17770D1*
X18619D2*
X23918D1*
X24021D2*
X24503D1*
X10736Y15232D2*
X14744D1*
X15615D2*
X17018D1*
X18631D2*
X24503D1*
X10736Y15108D2*
X14754D1*
X15664D2*
X16976D1*
X18605D2*
X22007D1*
X22348D2*
X24503D1*
X10736Y14985D2*
X14804D1*
X15845D2*
X16973D1*
X18534D2*
X21836D1*
X22516D2*
X24503D1*
X10736Y14861D2*
X14919D1*
X15920D2*
X17008D1*
X17806D2*
X18026D1*
X18363D2*
X19596D1*
X19949D2*
X21767D1*
X22588D2*
X24503D1*
X10736Y14737D2*
X10896D1*
X11644D2*
X15075D1*
X15946D2*
X17092D1*
X17720D2*
X19431D1*
X20113D2*
X21741D1*
X22612D2*
X23596D1*
X24344D2*
X24503D1*
X11870Y14614D2*
X15085D1*
X15938D2*
X17350D1*
X17466D2*
X19362D1*
X20183D2*
X21753D1*
X22602D2*
X23370D1*
X12009Y14490D2*
X15135D1*
X15887D2*
X16087D1*
X16627D2*
X19336D1*
X20209D2*
X21804D1*
X22548D2*
X23231D1*
X12108Y14366D2*
X15248D1*
X15774D2*
X15978D1*
X17228D2*
X19348D1*
X20197D2*
X21924D1*
X22431D2*
X23132D1*
X12180Y14243D2*
X15931D1*
X17325D2*
X19401D1*
X20143D2*
X23061D1*
X12229Y14119D2*
X15923D1*
X17367D2*
X19522D1*
X20022D2*
X23011D1*
X12261Y13995D2*
X15951D1*
X17371D2*
X22979D1*
X12275Y13872D2*
X16028D1*
X17436D2*
X22963D1*
X12275Y13748D2*
X13510D1*
X13988D2*
X16218D1*
X16498D2*
X16623D1*
X17577D2*
X22963D1*
X12261Y13624D2*
X13383D1*
X14115D2*
X16804D1*
X17639D2*
X22979D1*
X12229Y13501D2*
X13327D1*
X14170D2*
X16786D1*
X17659D2*
X18137D1*
X18615D2*
X23011D1*
X12178Y13377D2*
X13313D1*
X14186D2*
X16804D1*
X17641D2*
X18010D1*
X18742D2*
X23061D1*
X12108Y13253D2*
X13335D1*
X14162D2*
X16863D1*
X17579D2*
X17955D1*
X18798D2*
X23132D1*
X12009Y13130D2*
X13401D1*
X14097D2*
X17002D1*
X17442D2*
X17939D1*
X18812D2*
X23231D1*
X11868Y13006D2*
X13555D1*
X13942D2*
X17963D1*
X18790D2*
X23370D1*
X12273Y12882D2*
X18028D1*
X18724D2*
X19685D1*
X19875D2*
X23596D1*
X24342D2*
X24503D1*
X12360Y12759D2*
X18183D1*
X18570D2*
X19459D1*
X20099D2*
X24503D1*
X12396Y12635D2*
X19378D1*
X20181D2*
X24503D1*
X12394Y12511D2*
X19346D1*
X20213D2*
X24503D1*
X12352Y12388D2*
X19350D1*
X20209D2*
X24503D1*
X12257Y12264D2*
X16284D1*
X16416D2*
X19393D1*
X20165D2*
X23904D1*
X24036D2*
X24503D1*
X11854Y12140D2*
X15853D1*
X16845D2*
X19497D1*
X20062D2*
X23473D1*
X11977Y12017D2*
X15679D1*
X17022D2*
X23299D1*
X12102Y11893D2*
X15562D1*
X17139D2*
X17715D1*
X18214D2*
X23182D1*
X12225Y11769D2*
X15476D1*
X17224D2*
X17594D1*
X18333D2*
X23096D1*
X12349Y11646D2*
X15415D1*
X17284D2*
X17540D1*
X18387D2*
X23035D1*
X12474Y11522D2*
X15375D1*
X17325D2*
X17528D1*
X18401D2*
X22995D1*
X12597Y11398D2*
X15351D1*
X17349D2*
X17552D1*
X18375D2*
X22971D1*
X12720Y11275D2*
X15341D1*
X17357D2*
X17621D1*
X18306D2*
X22961D1*
X12845Y11151D2*
X15349D1*
X17351D2*
X17786D1*
X18141D2*
X22969D1*
X12968Y11027D2*
X15373D1*
X17327D2*
X22993D1*
X13091Y10904D2*
X15413D1*
X17288D2*
X23033D1*
X13214Y10780D2*
X15470D1*
X17228D2*
X23090D1*
X24515Y12978D2*
X24435Y12930D1*
X24320Y12878D1*
X24198Y12841D1*
X24073Y12820D1*
X23946Y12815D1*
X23820Y12826D1*
X23696Y12853D1*
X23576Y12896D1*
X23463Y12953D1*
X23358Y13024D1*
X23263Y13109D1*
X23180Y13204D1*
X23109Y13310D1*
X23053Y13423D1*
X23011Y13543D1*
X22985Y13667D1*
X22975Y13794D1*
X22981Y13921D1*
X23003Y14046D1*
X23041Y14167D1*
X23093Y14282D1*
X23161Y14390D1*
X23241Y14488D1*
X23333Y14575D1*
X23436Y14650D1*
X23547Y14711D1*
X23665Y14758D1*
X23788Y14789D1*
X23914Y14804D1*
X24041Y14803D1*
X24167Y14786D1*
X24289Y14753D1*
X24407Y14705D1*
X24515Y14643D1*
X24517Y15169D1*
Y15520D1*
X24435Y15470D1*
X24320Y15418D1*
X24198Y15381D1*
X24073Y15360D1*
X23946Y15355D1*
X23820Y15366D1*
X23696Y15393D1*
X23576Y15436D1*
X23463Y15493D1*
X23358Y15564D1*
X23263Y15649D1*
X23180Y15744D1*
X23109Y15850D1*
X23053Y15963D1*
X23011Y16083D1*
X22985Y16207D1*
X22975Y16334D1*
X22981Y16461D1*
X23003Y16586D1*
X23041Y16707D1*
X23093Y16822D1*
X23161Y16930D1*
X23241Y17028D1*
X23333Y17115D1*
X23436Y17190D1*
X23547Y17251D1*
X23665Y17298D1*
X23788Y17329D1*
X23914Y17344D1*
X24041Y17343D1*
X24167Y17326D1*
X24289Y17293D1*
X24407Y17245D1*
X24515Y17183D1*
X24517Y17709D1*
Y18060D1*
X24435Y18010D1*
X24320Y17958D1*
X24198Y17921D1*
X24073Y17900D1*
X23946Y17895D1*
X23820Y17906D1*
X23696Y17933D1*
X23576Y17976D1*
X23463Y18033D1*
X23358Y18104D1*
X23263Y18189D1*
X23180Y18284D1*
X23109Y18390D1*
X23053Y18503D1*
X23011Y18623D1*
X22985Y18747D1*
X22975Y18874D1*
X22981Y19001D1*
X23003Y19126D1*
X23041Y19247D1*
X23093Y19362D1*
X23140Y19438D1*
X22929Y19437D1*
X17029D1*
X17081Y19349D1*
X17132Y19233D1*
X17168Y19111D1*
X17188Y18986D1*
X17193Y18890D1*
X17185Y18763D1*
X17161Y18639D1*
X17121Y18518D1*
X17066Y18404D1*
X16997Y18297D1*
X16915Y18200D1*
X16822Y18115D1*
X16718Y18041D1*
X16606Y17982D1*
X16487Y17937D1*
X16363Y17908D1*
X16237Y17895D1*
X16110Y17898D1*
X15985Y17917D1*
X15863Y17952D1*
X15746Y18002D1*
X15637Y18067D1*
X15537Y18145D1*
X15447Y18235D1*
X15370Y18336D1*
X15306Y18446D1*
X15257Y18563D1*
X15223Y18685D1*
X15205Y18810D1*
X15203Y18937D1*
X15217Y19063D1*
X15247Y19187D1*
X15292Y19305D1*
X15353Y19417D1*
X15367Y19438D1*
X14928Y19437D1*
X13259D1*
X11163Y17341D1*
X11277Y17346D1*
X11404Y17337D1*
X11528Y17311D1*
X11649Y17271D1*
X11763Y17215D1*
X11869Y17145D1*
X11965Y17063D1*
X12050Y16969D1*
X12122Y16864D1*
X12181Y16752D1*
X12225Y16632D1*
X12253Y16509D1*
X12265Y16382D1*
X12264Y16287D1*
X12247Y16161D1*
X12215Y16038D1*
X12168Y15920D1*
X12106Y15809D1*
X12030Y15707D1*
X11943Y15616D1*
X11844Y15536D1*
X11735Y15470D1*
X11620Y15418D1*
X11498Y15381D1*
X11373Y15360D1*
X11246Y15355D1*
X11120Y15366D1*
X10996Y15393D1*
X10876Y15436D1*
X10763Y15493D1*
X10725Y15518D1*
X10724Y14644D1*
X10847Y14711D1*
X10965Y14758D1*
X11088Y14789D1*
X11214Y14804D1*
X11341Y14803D1*
X11467Y14786D1*
X11589Y14753D1*
X11707Y14705D1*
X11817Y14642D1*
X11918Y14566D1*
X12009Y14477D1*
X12088Y14378D1*
X12154Y14269D1*
X12205Y14153D1*
X12241Y14031D1*
X12261Y13906D1*
X12266Y13810D1*
X12258Y13683D1*
X12233Y13559D1*
X12194Y13438D1*
X12139Y13324D1*
X12070Y13217D1*
X11988Y13120D1*
X11894Y13035D1*
X11819Y12980D1*
X11870Y12995D1*
X11932Y13004D1*
X11996D1*
X12058Y12994D1*
X12119Y12976D1*
X12176Y12948D1*
X12228Y12912D1*
X12275Y12869D1*
X12314Y12819D1*
X12346Y12764D1*
X12369Y12705D1*
X12382Y12643D1*
X12387Y12581D1*
X12382Y12518D1*
X12368Y12456D1*
X12345Y12397D1*
X12313Y12342D1*
X12273Y12293D1*
X12227Y12249D1*
X12175Y12214D1*
X12117Y12186D1*
X12057Y12168D1*
X11994Y12158D1*
X11931D1*
X11868Y12168D1*
X11784Y12198D1*
X13260Y10722D1*
X13994Y10724D1*
X15516D1*
X15459Y10826D1*
X15410Y10943D1*
X15376Y11065D1*
X15358Y11190D1*
X15356Y11317D1*
X15370Y11443D1*
X15400Y11567D1*
X15445Y11685D1*
X15505Y11797D1*
X15579Y11900D1*
X15666Y11993D1*
X15763Y12074D1*
X15870Y12142D1*
X15985Y12196D1*
X16106Y12235D1*
X16231Y12258D1*
X16357Y12266D1*
X16484Y12257D1*
X16608Y12231D1*
X16729Y12191D1*
X16843Y12135D1*
X16949Y12065D1*
X17045Y11983D1*
X17130Y11889D1*
X17202Y11784D1*
X17261Y11672D1*
X17305Y11552D1*
X17333Y11429D1*
X17345Y11302D1*
X17344Y11207D1*
X17327Y11081D1*
X17295Y10958D1*
X17248Y10840D1*
X17183Y10724D1*
X19265D1*
X23136D1*
X23079Y10826D1*
X23030Y10943D1*
X22996Y11065D1*
X22978Y11190D1*
X22976Y11317D1*
X22990Y11443D1*
X23020Y11567D1*
X23065Y11685D1*
X23125Y11797D1*
X23199Y11900D1*
X23286Y11993D1*
X23383Y12074D1*
X23490Y12142D1*
X23605Y12196D1*
X23726Y12235D1*
X23851Y12258D1*
X23977Y12266D1*
X24104Y12257D1*
X24228Y12231D1*
X24349Y12191D1*
X24463Y12135D1*
X24515Y12103D1*
X24517Y12629D1*
Y12980D1*
X18613Y17198D2*
X18599Y17136D1*
X18576Y17077D1*
X18544Y17022D1*
X18505Y16973D1*
X18458Y16930D1*
X18406Y16894D1*
X18348Y16866D1*
X18288Y16848D1*
X18225Y16838D1*
X18162Y16839D1*
X18099Y16848D1*
X18038Y16867D1*
X17981Y16894D1*
X17929Y16930D1*
X17882Y16973D1*
X17843Y17023D1*
X17811Y17078D1*
X17788Y17137D1*
X17774Y17199D1*
X17770Y17262D1*
X17774Y17326D1*
X17789Y17387D1*
X17812Y17446D1*
X17844Y17501D1*
X17884Y17551D1*
X17930Y17594D1*
X17983Y17629D1*
X18040Y17657D1*
X18101Y17675D1*
X18163Y17685D1*
X18227Y17684D1*
X18290Y17675D1*
X18350Y17656D1*
X18407Y17628D1*
X18459Y17592D1*
X18506Y17549D1*
X18545Y17499D1*
X18577Y17444D1*
X18600Y17385D1*
X18613Y17323D1*
X18618Y17261D1*
X18613Y17198D1*
X20192Y14407D2*
X20178Y14345D1*
X20154Y14286D1*
X20123Y14231D1*
X20083Y14181D1*
X20037Y14138D1*
X19984Y14102D1*
X19927Y14075D1*
X19866Y14056D1*
X19804Y14047D1*
X19740D1*
X19677Y14056D1*
X19617Y14075D1*
X19560Y14103D1*
X19507Y14139D1*
X19461Y14182D1*
X19421Y14231D1*
X19390Y14286D1*
X19367Y14346D1*
X19353Y14407D1*
X19348Y14471D1*
X19353Y14534D1*
X19367Y14596D1*
X19391Y14655D1*
X19422Y14710D1*
X19462Y14759D1*
X19509Y14802D1*
X19561Y14838D1*
X19619Y14865D1*
X19679Y14884D1*
X19742Y14893D1*
X19805D1*
X19868Y14883D1*
X19929Y14864D1*
X19986Y14836D1*
X20038Y14800D1*
X20084Y14757D1*
X20124Y14707D1*
X20155Y14652D1*
X20178Y14593D1*
X20192Y14531D1*
X20197Y14470D1*
X20192Y14407D1*
X18615Y15192D2*
X18600Y15130D1*
X18577Y15071D1*
X18545Y15016D1*
X18506Y14966D1*
X18459Y14923D1*
X18407Y14887D1*
X18350Y14860D1*
X18289Y14841D1*
X18226Y14832D1*
X18163D1*
X18100Y14841D1*
X18040Y14860D1*
X17983Y14888D1*
X17930Y14924D1*
X17884Y14967D1*
X17831Y15039D1*
X17826Y14972D1*
X17812Y14910D1*
X17789Y14851D1*
X17757Y14796D1*
X17718Y14746D1*
X17671Y14703D1*
X17619Y14667D1*
X17561Y14640D1*
X17501Y14621D1*
X17438Y14612D1*
X17375D1*
X17312Y14622D1*
X17251Y14640D1*
X17194Y14668D1*
X17142Y14704D1*
X17095Y14747D1*
X17056Y14797D1*
X17024Y14852D1*
X17001Y14911D1*
X16987Y14973D1*
X16983Y15036D1*
X16987Y15099D1*
X17002Y15161D1*
X17025Y15220D1*
X17057Y15275D1*
X17097Y15324D1*
X17143Y15367D1*
X17196Y15403D1*
X17253Y15430D1*
X17314Y15449D1*
X17376Y15458D1*
X17440D1*
X17503Y15448D1*
X17563Y15429D1*
X17620Y15402D1*
X17672Y15366D1*
X17719Y15322D1*
X17771Y15250D1*
X17776Y15319D1*
X17790Y15381D1*
X17813Y15440D1*
X17845Y15495D1*
X17885Y15544D1*
X17932Y15587D1*
X17984Y15623D1*
X18041Y15650D1*
X18102Y15669D1*
X18165Y15678D1*
X18228D1*
X18291Y15668D1*
X18351Y15649D1*
X18409Y15621D1*
X18461Y15586D1*
X18507Y15542D1*
X18547Y15492D1*
X18578Y15437D1*
X18601Y15378D1*
X18615Y15316D1*
X18619Y15255D1*
X18615Y15192D1*
X15931Y14645D2*
X15917Y14583D1*
X15894Y14524D1*
X15862Y14469D1*
X15822Y14420D1*
X15776Y14377D1*
X15723Y14341D1*
X15666Y14314D1*
X15606Y14295D1*
X15543Y14285D1*
X15479Y14286D1*
X15417Y14295D1*
X15356Y14314D1*
X15299Y14341D1*
X15247Y14377D1*
X15200Y14420D1*
X15161Y14470D1*
X15129Y14525D1*
X15106Y14584D1*
X15092Y14646D1*
X15087Y14709D1*
X15096Y14790D1*
X15023Y14810D1*
X14966Y14838D1*
X14914Y14874D1*
X14868Y14917D1*
X14828Y14967D1*
X14796Y15022D1*
X14773Y15081D1*
X14759Y15143D1*
X14755Y15206D1*
X14760Y15269D1*
X14774Y15331D1*
X14797Y15390D1*
X14829Y15445D1*
X14869Y15494D1*
X14915Y15537D1*
X14968Y15573D1*
X15025Y15600D1*
X15086Y15619D1*
X15149Y15628D1*
X15212D1*
X15275Y15618D1*
X15335Y15599D1*
X15392Y15572D1*
X15445Y15536D1*
X15491Y15492D1*
X15530Y15443D1*
X15562Y15388D1*
X15585Y15328D1*
X15599Y15266D1*
X15603Y15205D1*
X15594Y15124D1*
X15668Y15103D1*
X15725Y15075D1*
X15777Y15039D1*
X15824Y14996D1*
X15863Y14946D1*
X15894Y14891D1*
X15917Y14832D1*
X15931Y14770D1*
X15936Y14708D1*
X15931Y14645D1*
X18931Y16212D2*
X18917Y16151D1*
X18894Y16092D1*
X18862Y16037D1*
X18822Y15987D1*
X18776Y15944D1*
X18723Y15908D1*
X18666Y15881D1*
X18605Y15862D1*
X18543Y15853D1*
X18479D1*
X18416Y15862D1*
X18356Y15881D1*
X18299Y15909D1*
X18246Y15945D1*
X18200Y15988D1*
X18161Y16037D1*
X18121Y16113D1*
X18063Y16033D1*
X18016Y15990D1*
X17964Y15954D1*
X17906Y15927D1*
X17846Y15908D1*
X17783Y15899D1*
X17720D1*
X17657Y15908D1*
X17596Y15927D1*
X17539Y15955D1*
X17487Y15991D1*
X17440Y16034D1*
X17401Y16083D1*
X17369Y16138D1*
X17346Y16198D1*
X17332Y16259D1*
X17328Y16323D1*
X17332Y16386D1*
X17347Y16448D1*
X17370Y16507D1*
X17402Y16562D1*
X17442Y16611D1*
X17488Y16654D1*
X17541Y16690D1*
X17598Y16717D1*
X17659Y16736D1*
X17721Y16745D1*
X17785D1*
X17847Y16735D1*
X17908Y16716D1*
X17965Y16688D1*
X18017Y16653D1*
X18064Y16609D1*
X18103Y16559D1*
X18142Y16484D1*
X18201Y16565D1*
X18248Y16608D1*
X18300Y16644D1*
X18358Y16671D1*
X18418Y16690D1*
X18481Y16699D1*
X18544D1*
X18607Y16689D1*
X18668Y16670D1*
X18725Y16642D1*
X18777Y16606D1*
X18823Y16563D1*
X18863Y16513D1*
X18894Y16458D1*
X18917Y16399D1*
X18931Y16337D1*
X18936Y16276D1*
X18931Y16212D1*
X17641Y13436D2*
X17627Y13374D1*
X17604Y13315D1*
X17572Y13260D1*
X17532Y13211D1*
X17486Y13167D1*
X17433Y13132D1*
X17376Y13104D1*
X17316Y13086D1*
X17253Y13076D1*
X17189D1*
X17127Y13086D1*
X17066Y13105D1*
X17009Y13132D1*
X16957Y13168D1*
X16910Y13211D1*
X16871Y13261D1*
X16839Y13316D1*
X16816Y13375D1*
X16802Y13437D1*
X16797Y13500D1*
X16802Y13563D1*
X16822Y13638D1*
X16724Y13680D1*
X16672Y13716D1*
X16625Y13759D1*
X16592Y13801D1*
X16569Y13785D1*
X16512Y13757D1*
X16451Y13739D1*
X16389Y13729D1*
X16325D1*
X16263Y13739D1*
X16202Y13758D1*
X16145Y13785D1*
X16093Y13821D1*
X16046Y13864D1*
X16007Y13914D1*
X15975Y13969D1*
X15952Y14028D1*
X15938Y14090D1*
X15933Y14153D1*
X15938Y14216D1*
X15952Y14278D1*
X15976Y14337D1*
X16008Y14392D1*
X16047Y14442D1*
X16094Y14485D1*
X16146Y14520D1*
X16204Y14548D1*
X16264Y14566D1*
X16327Y14575D1*
X16391D1*
X16453Y14566D1*
X16514Y14547D1*
X16571Y14519D1*
X16623Y14483D1*
X16670Y14440D1*
X16700Y14401D1*
X16783Y14442D1*
X16844Y14461D1*
X16906Y14470D1*
X16970D1*
X17033Y14460D1*
X17093Y14441D1*
X17150Y14414D1*
X17202Y14378D1*
X17249Y14334D1*
X17288Y14285D1*
X17320Y14230D1*
X17343Y14171D1*
X17356Y14109D1*
X17361Y14047D1*
X17356Y13984D1*
X17337Y13909D1*
X17435Y13866D1*
X17487Y13830D1*
X17534Y13787D1*
X17573Y13737D1*
X17604Y13682D1*
X17627Y13623D1*
X17641Y13561D1*
X17646Y13499D1*
X17641Y13436D1*
X18796Y13078D2*
X18781Y13017D1*
X18758Y12958D1*
X18726Y12903D1*
X18687Y12853D1*
X18640Y12810D1*
X18588Y12774D1*
X18531Y12747D1*
X18470Y12728D1*
X18407Y12719D1*
X18344D1*
X18281Y12728D1*
X18221Y12747D1*
X18164Y12775D1*
X18111Y12810D1*
X18065Y12854D1*
X18025Y12903D1*
X17994Y12958D1*
X17971Y13017D1*
X17957Y13079D1*
X17952Y13143D1*
X17957Y13206D1*
X17971Y13268D1*
X17994Y13327D1*
X18026Y13382D1*
X18066Y13431D1*
X18113Y13474D1*
X18165Y13510D1*
X18222Y13537D1*
X18283Y13556D1*
X18346Y13565D1*
X18409D1*
X18472Y13555D1*
X18532Y13536D1*
X18590Y13508D1*
X18642Y13472D1*
X18688Y13429D1*
X18728Y13379D1*
X18759Y13324D1*
X18782Y13265D1*
X18796Y13203D1*
X18800Y13142D1*
X18796Y13078D1*
X18383Y11478D2*
X18369Y11416D1*
X18346Y11357D1*
X18314Y11302D1*
X18275Y11253D1*
X18228Y11210D1*
X18176Y11174D1*
X18118Y11146D1*
X18058Y11128D1*
X17995Y11118D1*
X17932D1*
X17869Y11128D1*
X17808Y11147D1*
X17751Y11174D1*
X17699Y11210D1*
X17652Y11253D1*
X17613Y11303D1*
X17581Y11358D1*
X17558Y11417D1*
X17544Y11479D1*
X17540Y11542D1*
X17544Y11606D1*
X17559Y11667D1*
X17582Y11726D1*
X17614Y11781D1*
X17654Y11831D1*
X17700Y11874D1*
X17753Y11909D1*
X17810Y11937D1*
X17871Y11955D1*
X17933Y11964D1*
X17997D1*
X18060Y11955D1*
X18120Y11936D1*
X18177Y11908D1*
X18229Y11872D1*
X18276Y11829D1*
X18315Y11779D1*
X18347Y11724D1*
X18370Y11665D1*
X18383Y11603D1*
X18388Y11541D1*
X18383Y11478D1*
X20199Y12403D2*
X20185Y12341D1*
X20161Y12282D1*
X20130Y12227D1*
X20090Y12178D1*
X20044Y12135D1*
X19991Y12099D1*
X19934Y12071D1*
X19873Y12053D1*
X19811Y12043D1*
X19747D1*
X19684Y12053D1*
X19624Y12072D1*
X19567Y12099D1*
X19514Y12135D1*
X19468Y12178D1*
X19428Y12228D1*
X19397Y12283D1*
X19374Y12342D1*
X19360Y12404D1*
X19355Y12467D1*
X19360Y12531D1*
X19374Y12592D1*
X19398Y12651D1*
X19429Y12706D1*
X19469Y12756D1*
X19516Y12799D1*
X19568Y12834D1*
X19626Y12862D1*
X19686Y12880D1*
X19749Y12890D1*
X19812Y12889D1*
X19875Y12880D1*
X19936Y12861D1*
X19993Y12833D1*
X20045Y12797D1*
X20091Y12754D1*
X20131Y12704D1*
X20162Y12649D1*
X20185Y12590D1*
X20199Y12528D1*
X20203Y12466D1*
X20199Y12403D1*
X21044Y15883D2*
X21030Y15822D1*
X21006Y15762D1*
X20975Y15708D1*
X20935Y15658D1*
X20889Y15615D1*
X20836Y15579D1*
X20779Y15552D1*
X20718Y15533D1*
X20656Y15524D1*
X20592D1*
X20529Y15533D1*
X20469Y15552D1*
X20412Y15580D1*
X20359Y15615D1*
X20313Y15659D1*
X20273Y15708D1*
X20242Y15763D1*
X20219Y15822D1*
X20205Y15884D1*
X20200Y15948D1*
X20205Y16011D1*
X20219Y16073D1*
X20243Y16132D1*
X20274Y16186D1*
X20314Y16236D1*
X20361Y16279D1*
X20413Y16315D1*
X20470Y16342D1*
X20531Y16360D1*
X20594Y16370D1*
X20657D1*
X20720Y16360D1*
X20781Y16341D1*
X20838Y16313D1*
X20890Y16277D1*
X20936Y16234D1*
X20976Y16184D1*
X21007Y16129D1*
X21030Y16070D1*
X21044Y16008D1*
X21048Y15947D1*
X21044Y15883D1*
X22596Y14651D2*
X22582Y14590D1*
X22559Y14531D1*
X22527Y14476D1*
X22487Y14426D1*
X22441Y14383D1*
X22388Y14347D1*
X22331Y14320D1*
X22271Y14301D1*
X22208Y14292D1*
X22144D1*
X22082Y14301D1*
X22021Y14320D1*
X21964Y14348D1*
X21912Y14383D1*
X21865Y14427D1*
X21826Y14476D1*
X21794Y14531D1*
X21771Y14590D1*
X21757Y14652D1*
X21752Y14716D1*
X21757Y14779D1*
X21772Y14841D1*
X21795Y14900D1*
X21827Y14955D1*
X21866Y15004D1*
X21913Y15047D1*
X21966Y15083D1*
X22023Y15110D1*
X22084Y15129D1*
X22146Y15138D1*
X22210D1*
X22272Y15128D1*
X22333Y15109D1*
X22390Y15081D1*
X22442Y15045D1*
X22489Y15002D1*
X22528Y14952D1*
X22560Y14897D1*
X22582Y14838D1*
X22596Y14776D1*
X22601Y14715D1*
X22596Y14651D1*
X14168Y13326D2*
X14154Y13264D1*
X14131Y13205D1*
X14099Y13150D1*
X14060Y13101D1*
X14013Y13058D1*
X13961Y13022D1*
X13903Y12995D1*
X13843Y12976D1*
X13780Y12966D1*
X13717Y12967D1*
X13654Y12976D1*
X13593Y12995D1*
X13536Y13022D1*
X13484Y13058D1*
X13437Y13101D1*
X13398Y13151D1*
X13366Y13206D1*
X13343Y13265D1*
X13329Y13327D1*
X13325Y13390D1*
X13329Y13454D1*
X13344Y13515D1*
X13367Y13574D1*
X13399Y13629D1*
X13439Y13679D1*
X13485Y13722D1*
X13538Y13757D1*
X13595Y13785D1*
X13656Y13803D1*
X13718Y13813D1*
X13782Y13812D1*
X13844Y13803D1*
X13905Y13784D1*
X13962Y13756D1*
X14014Y13720D1*
X14061Y13677D1*
X14100Y13627D1*
X14132Y13572D1*
X14155Y13513D1*
X14168Y13451D1*
X14173Y13390D1*
X14168Y13326D1*
X12790Y17859D2*
X12776Y17797D1*
X12753Y17738D1*
X12721Y17683D1*
X12681Y17634D1*
X12635Y17591D1*
X12582Y17555D1*
X12525Y17528D1*
X12464Y17509D1*
X12402Y17500D1*
X12338D1*
X12275Y17509D1*
X12215Y17528D1*
X12158Y17556D1*
X12105Y17591D1*
X12059Y17635D1*
X12020Y17684D1*
X11988Y17739D1*
X11965Y17798D1*
X11951Y17860D1*
X11946Y17923D1*
X11951Y17987D1*
X11965Y18049D1*
X11989Y18108D1*
X12021Y18162D1*
X12060Y18212D1*
X12107Y18255D1*
X12159Y18291D1*
X12217Y18318D1*
X12277Y18336D1*
X12340Y18346D1*
X12403Y18345D1*
X12466Y18336D1*
X12527Y18317D1*
X12584Y18289D1*
X12636Y18253D1*
X12682Y18210D1*
X12722Y18160D1*
X12753Y18105D1*
X12776Y18046D1*
X12790Y17984D1*
X12795Y17923D1*
X12790Y17859D1*
D23*
X23970Y13810D3*
Y16350D3*
D25*
X25240Y13810D3*
Y16350D3*
D23*
X23970Y18890D3*
D25*
X25240D3*
D23*
X11270Y16350D3*
Y13810D3*
D25*
X10000Y16350D3*
Y13810D3*
D23*
X23970Y11270D3*
D25*
X25240D3*
D23*
X16350D3*
X13810D3*
D25*
X16350Y10000D3*
X13810D3*
D23*
X16197Y18890D3*
X13657D3*
D25*
X16197Y20160D3*
X13657D3*
M02*
