G04 DipTrace 2.4.0.2*
%INST12axis.gtl*%
%MOMM*%
%ADD10C,0.25*%
%ADD13C,0.254*%
%ADD14C,0.23*%
%ADD15C,0.203*%
%ADD17R,1.6X1.7*%
%ADD19R,2.032X1.7*%
%ADD22R,0.5X0.525*%
%ADD23R,0.5X0.25*%
%ADD24R,1.7X1.6*%
%ADD25R,1.7X2.032*%
%ADD27R,0.35X0.5*%
%ADD30O,0.23X0.7*%
%ADD31O,0.7X0.23*%
%ADD32R,0.7X0.9*%
%ADD33R,1.0X1.1*%
%ADD34R,1.1X1.0*%
%ADD36R,0.9X0.7*%
%ADD38R,0.5X0.4*%
%ADD39R,2.0X1.7*%
%ADD41C,0.457*%
%FSLAX53Y53*%
G04*
G71*
G90*
G75*
G01*
%LNTop*%
%LPD*%
X22354Y16047D2*
D13*
X22213D1*
X21748Y15581D1*
Y15065D1*
X21553Y14870D1*
X20771D1*
D14*
Y14908D1*
X20604D1*
X20574Y14939D1*
X20240D1*
Y14963D1*
X21191Y13632D2*
D13*
Y13673D1*
X20240D1*
X17440Y12383D2*
D14*
X17666D1*
X17785Y12264D1*
Y11812D1*
D13*
X18046Y11551D1*
X18168D1*
X18349Y11370D1*
X17440Y14103D2*
D14*
X16939D1*
D13*
X16905Y14068D1*
X20783Y19292D2*
X20288D1*
Y19180D1*
X19705D1*
Y19281D1*
Y19190D2*
X19172Y18658D1*
Y18349D1*
X19822Y16349D2*
Y16625D1*
X19691Y16757D1*
X20288Y19228D2*
Y19292D1*
X22354Y17347D2*
X21530D1*
X21116Y16933D1*
X19691Y16757D2*
X20940D1*
X21116Y16933D1*
X20783Y19292D2*
Y19235D1*
X21527Y18492D1*
Y17343D1*
X16700Y16134D2*
D10*
Y16634D1*
Y16552D1*
D13*
Y17274D1*
X20240Y12813D2*
D14*
Y12878D1*
X20902D1*
X21313Y12466D1*
D13*
X21191Y12344D1*
Y12332D1*
X20240Y13243D2*
D14*
X20280D1*
D13*
X21191Y12332D1*
X17770Y17696D2*
D10*
X17667D1*
X16700Y16729D1*
Y16634D1*
X21017Y11129D2*
D13*
X21147D1*
Y11899D1*
X21053Y11993D1*
Y12332D1*
X21191D1*
X22401D1*
X22421Y12353D1*
X21742D1*
X21167Y11778D1*
X16700Y16134D2*
D10*
Y15882D1*
D13*
Y15499D1*
X18195Y12238D2*
D14*
X18625D1*
X19055D1*
X19485D1*
X19727D1*
D13*
X20095D1*
D14*
X20240Y12383D1*
X20717D1*
D13*
X21140D1*
X21191Y12332D1*
X17440Y13243D2*
X17766D1*
X18064Y12946D1*
X19527D1*
X17440Y13673D2*
D14*
X18312D1*
D13*
X18528Y13457D1*
X19485Y15538D2*
D14*
X19467Y15060D1*
X17872Y16349D2*
D13*
Y16710D1*
Y16959D1*
X18445Y17531D1*
X15710Y13274D2*
X15677D1*
Y13672D1*
X17887Y16710D2*
X17872D1*
X18625Y15538D2*
D14*
Y15912D1*
D13*
Y16247D1*
X18522Y16349D1*
Y16700D1*
X18511Y16711D1*
X16357Y13830D2*
X16303D1*
X16192Y13720D1*
D15*
Y12917D1*
D13*
X15849Y12574D1*
X15710D1*
X17872Y18349D2*
X17666D1*
X17147Y17830D1*
X16062D1*
X15679Y17447D1*
Y17396D1*
X15800Y17274D1*
X15679Y17396D2*
X14716D1*
Y17291D1*
X18195Y15538D2*
D14*
Y15075D1*
X18171D1*
X15800Y16634D2*
D10*
X15393D1*
X15225Y16466D1*
X15289D1*
D13*
X14870Y16047D1*
Y15662D1*
X14752Y15544D1*
X15090Y16206D2*
Y15882D1*
X14752Y15544D1*
X17440Y15393D2*
D14*
Y15446D1*
D13*
X17536Y15543D1*
Y15588D1*
X17565Y15616D1*
X15100Y14324D2*
Y14252D1*
X14632Y13785D1*
X15800Y15499D2*
Y15025D1*
X15100Y14324D1*
X19822Y18349D2*
X20426D1*
X20783Y17992D1*
X18405Y19281D2*
Y19030D1*
X18522Y18913D1*
Y18349D1*
Y18146D1*
X19119Y17549D1*
Y16402D1*
X19172Y16349D1*
X19119Y17549D2*
Y17661D1*
X19315D1*
X20452D1*
X20783Y17992D1*
X19055Y15538D2*
D14*
Y16013D1*
D13*
X19172Y16131D1*
Y16349D1*
X21116Y15633D2*
D14*
X20876Y15393D1*
X20240D1*
Y14103D2*
Y14336D1*
Y14533D1*
X17440D2*
Y14865D1*
X16854D1*
X16700Y14712D1*
X17279D1*
Y14803D1*
X17440Y14963D1*
X16710Y12574D2*
D13*
X16641D1*
Y13274D1*
X16710D1*
X12882Y13785D2*
Y14732D1*
Y15424D1*
X13002Y15544D1*
Y17255D1*
X12966Y17291D1*
X16350Y11270D2*
X16590D1*
Y12031D1*
X16685Y11936D1*
Y12827D1*
X16710Y12802D1*
Y12574D1*
X19332Y17521D2*
X19315Y17661D1*
X21116Y15633D2*
X20938D1*
X20624Y15947D1*
X20240Y14336D2*
X20700D1*
X20791Y14428D1*
X22046D1*
X22421Y14053D1*
X19317Y11129D2*
Y10976D1*
X19051Y10711D1*
X18041D1*
X17025Y11727D1*
X16807D1*
X16350Y11270D1*
X22421Y14053D2*
Y14715D1*
X22177D1*
X13107Y14732D2*
X12882D1*
X15879Y14299D2*
D14*
X16287D1*
X16700Y14712D1*
D41*
X15677Y13672D3*
X19691Y16757D3*
X20288Y19228D3*
X18445Y17531D3*
X19467Y15060D3*
X18171Y15075D3*
X15100Y14324D3*
X15090Y16206D3*
X17565Y15616D3*
X18511Y16711D3*
X16905Y14068D3*
X18528Y13457D3*
X18349Y11370D3*
X19527Y12946D3*
X17770Y17696D3*
X13107Y14732D3*
X19332Y17521D3*
X20624Y15947D3*
X21167Y11778D3*
X22177Y14715D3*
X16357Y13830D3*
X15879Y14299D3*
X17887Y16710D3*
D17*
X23970Y13810D3*
Y16350D3*
D19*
X25240Y13810D3*
Y16350D3*
D17*
X11270D3*
Y13810D3*
D19*
X10000Y16350D3*
Y13810D3*
D22*
X15800Y17274D3*
D23*
Y16634D3*
Y16134D3*
D22*
Y15499D3*
X16700D3*
D23*
Y16134D3*
Y16634D3*
D22*
Y17274D3*
D24*
X16197Y18890D3*
X13657D3*
D25*
X16197Y20160D3*
X13657D3*
D24*
X16350Y11270D3*
X13810D3*
D25*
X16350Y10000D3*
X13810D3*
D27*
X19822Y18349D3*
X19172D3*
X18522D3*
X17872D3*
Y16349D3*
X18522D3*
X19172D3*
X19822D3*
D30*
X19485Y15538D3*
X19055D3*
X18625D3*
X18195D3*
D31*
X17440Y15393D3*
Y14963D3*
Y14533D3*
Y14103D3*
Y13673D3*
Y13243D3*
Y12813D3*
Y12383D3*
D30*
X18195Y12238D3*
X18625D3*
X19055D3*
X19485D3*
D31*
X20240Y12383D3*
Y12813D3*
Y13243D3*
Y13673D3*
Y14103D3*
Y14533D3*
Y14963D3*
Y15393D3*
D32*
X21116Y15633D3*
Y16933D3*
X22354Y16047D3*
Y17347D3*
X21191Y13632D3*
Y12332D3*
D33*
X22421Y14053D3*
Y12353D3*
D34*
X19317Y11129D3*
X21017D3*
G36*
X12742Y14385D2*
X13482D1*
Y13185D1*
X12742D1*
X12582Y13245D1*
X12382Y13385D1*
X12282Y13585D1*
Y13985D1*
X12382Y14185D1*
X12582Y14325D1*
X12742Y14385D1*
G37*
G36*
X14772Y13185D2*
X14032D1*
Y14385D1*
X14772D1*
X14932Y14325D1*
X15132Y14185D1*
X15232Y13985D1*
Y13585D1*
X15132Y13385D1*
X14932Y13245D1*
X14772Y13185D1*
G37*
G36*
X12862Y16144D2*
X13602D1*
Y14944D1*
X12862D1*
X12702Y15004D1*
X12502Y15144D1*
X12402Y15344D1*
Y15744D1*
X12502Y15944D1*
X12702Y16084D1*
X12862Y16144D1*
G37*
G36*
X14892Y14944D2*
X14152D1*
Y16144D1*
X14892D1*
X15052Y16084D1*
X15252Y15944D1*
X15352Y15744D1*
Y15344D1*
X15252Y15144D1*
X15052Y15004D1*
X14892Y14944D1*
G37*
G36*
X14856Y16691D2*
X14116D1*
Y17891D1*
X14856D1*
X15016Y17831D1*
X15216Y17691D1*
X15316Y17491D1*
Y17091D1*
X15216Y16891D1*
X15016Y16751D1*
X14856Y16691D1*
G37*
G36*
X12826Y17891D2*
X13566D1*
Y16691D1*
X12826D1*
X12666Y16751D1*
X12466Y16891D1*
X12366Y17091D1*
Y17491D1*
X12466Y17691D1*
X12666Y17831D1*
X12826Y17891D1*
G37*
D36*
X18405Y19281D3*
X19705D3*
D32*
X20783Y17992D3*
Y19292D3*
D38*
X15710Y13274D3*
Y12574D3*
X16710D3*
Y13274D3*
D17*
X23970Y18890D3*
D39*
X25240D3*
D17*
X23970Y11270D3*
D39*
X25240D3*
M02*
