G04 DipTrace 2.4.0.2*
%INST12axis.gbl*%
%MOMM*%
%ADD13C,0.254*%
%ADD15C,0.127*%
%ADD22R,1.6X1.7*%
%ADD24R,2.032X1.7*%
%ADD26R,2.0X1.7*%
%ADD27R,1.7X1.6*%
%ADD28R,1.7X2.032*%
%ADD40C,0.457*%
%FSLAX53Y53*%
G04*
G71*
G90*
G75*
G01*
%LNBottom*%
%LPD*%
X18357Y11378D2*
D13*
X18230D1*
Y12901D1*
X18791Y13462D1*
X20198D1*
X22665Y15929D1*
X23549D1*
X23978Y16358D1*
X25248D2*
X23978D1*
X22816D1*
X13818Y18898D2*
Y17736D1*
Y18898D2*
Y20168D1*
Y12441D2*
Y11278D1*
Y10008D1*
X16529Y14052D2*
X20228D1*
X22187Y16012D1*
Y18270D1*
X22816Y18898D1*
X23978D1*
X25248D1*
X19535Y12954D2*
X20285D1*
X21555Y14223D1*
X22813D1*
Y13818D1*
X23978D1*
X25248D1*
X18143Y13565D2*
X17786Y13208D1*
Y10982D1*
X18013Y10755D1*
X22293D1*
X22816Y11278D1*
X23978D1*
X25248D1*
X17866Y16700D2*
Y16039D1*
X18575Y15330D1*
X19241D1*
X19503Y15068D1*
X19475D1*
X17866Y16700D2*
Y16116D1*
X17317D1*
X16857Y16575D1*
X15453D1*
X15183Y16846D1*
X14751D1*
X13456Y15552D1*
X12569D1*
X12378Y15743D1*
Y16296D1*
X12441Y16358D1*
X11278D1*
X9897D1*
X9760Y16494D1*
X9872D1*
X10008Y16358D1*
X18519Y16719D2*
Y15963D1*
X18700Y15783D1*
X19482D1*
X19968Y15297D1*
Y14843D1*
X19606Y14481D1*
X17347D1*
X17283Y14544D1*
X12441D1*
Y13818D1*
X11278D1*
X10008D1*
X18210Y14971D2*
X14998D1*
X14505Y15464D1*
Y15918D1*
X14928Y16341D1*
X14962D1*
X17573Y15624D2*
Y15446D1*
X15241D1*
X14994Y15693D1*
X16358Y18898D2*
Y20168D1*
Y18898D2*
Y17733D1*
Y12441D2*
Y11278D1*
Y10008D1*
D40*
X19699Y16765D3*
X20296Y19236D3*
X17866Y16700D3*
X19475Y15068D3*
X18210Y14971D3*
X14994Y15693D3*
X14962Y16341D3*
X17573Y15624D3*
X18519Y16719D3*
X16529Y14052D3*
X18143Y13565D3*
X18357Y11378D3*
X19535Y12954D3*
X16658Y16085D3*
X13841Y15035D3*
X19340Y17529D3*
X20632Y15955D3*
X21175Y11786D3*
X22185Y14723D3*
X13146Y19321D2*
D15*
X15300D1*
X17417D2*
X22267D1*
X13023Y19197D2*
X15300D1*
X17417D2*
X22239D1*
X12900Y19074D2*
X15300D1*
X17417D2*
X22239D1*
X12777Y18950D2*
X15300D1*
X17417D2*
X22239D1*
X12654Y18826D2*
X15300D1*
X17417D2*
X22239D1*
X12533Y18703D2*
X15300D1*
X17417D2*
X22152D1*
X12410Y18579D2*
X15300D1*
X17417D2*
X22029D1*
X12287Y18455D2*
X15300D1*
X17417D2*
X21912D1*
X12164Y18332D2*
X15300D1*
X17417D2*
X21858D1*
X12043Y18208D2*
X15300D1*
X17417D2*
X21852D1*
X11920Y18084D2*
X15300D1*
X17417D2*
X21852D1*
X11797Y17961D2*
X15300D1*
X17417D2*
X21852D1*
X11674Y17837D2*
X15300D1*
X17417D2*
X19036D1*
X19643D2*
X21852D1*
X11551Y17713D2*
X15300D1*
X17417D2*
X18945D1*
X19734D2*
X21852D1*
X11430Y17590D2*
X15306D1*
X17411D2*
X18907D1*
X19772D2*
X21852D1*
X11307Y17466D2*
X15403D1*
X17313D2*
X18907D1*
X19772D2*
X21852D1*
X12692Y17342D2*
X15643D1*
X17073D2*
X18947D1*
X19732D2*
X21852D1*
X12765Y17219D2*
X15883D1*
X16831D2*
X19038D1*
X19641D2*
X21852D1*
X12829Y17095D2*
X14534D1*
X15401D2*
X17699D1*
X18034D2*
X18310D1*
X18728D2*
X21852D1*
X12892Y16971D2*
X14407D1*
X15526D2*
X17528D1*
X18873D2*
X21852D1*
X12956Y16848D2*
X14284D1*
X17044D2*
X17457D1*
X18937D2*
X21852D1*
X13011Y16724D2*
X14161D1*
X17177D2*
X17431D1*
X18957D2*
X21852D1*
X13015Y16600D2*
X14036D1*
X17302D2*
X17441D1*
X18939D2*
X21852D1*
X13015Y16477D2*
X13913D1*
X17425D2*
X17494D1*
X18879D2*
X21852D1*
X13015Y16353D2*
X13790D1*
X18853D2*
X20475D1*
X20790D2*
X21852D1*
X13015Y16229D2*
X13665D1*
X18853D2*
X20296D1*
X20969D2*
X21852D1*
X13015Y16106D2*
X13542D1*
X18853D2*
X20223D1*
X21040D2*
X21812D1*
X13009Y15982D2*
X13419D1*
X19752D2*
X20197D1*
X21068D2*
X21689D1*
X19875Y15858D2*
X20207D1*
X21058D2*
X21566D1*
X19998Y15735D2*
X20257D1*
X21006D2*
X21441D1*
X20123Y15611D2*
X20372D1*
X20893D2*
X21318D1*
X20240Y15487D2*
X21195D1*
X20296Y15364D2*
X21070D1*
X20304Y15240D2*
X20947D1*
X20304Y15116D2*
X20824D1*
X20304Y14993D2*
X20699D1*
X20304Y14869D2*
X20576D1*
X20288Y14745D2*
X20453D1*
X20215Y14622D2*
X20328D1*
X20092Y14498D2*
X20205D1*
X13015Y14127D2*
X16099D1*
X13015Y14003D2*
X16095D1*
X13015Y13880D2*
X16129D1*
X21679D2*
X22239D1*
X13015Y13756D2*
X16215D1*
X21556D2*
X22239D1*
X13015Y13632D2*
X16461D1*
X16597D2*
X17713D1*
X21431D2*
X22239D1*
X13015Y13509D2*
X17617D1*
X21308D2*
X22239D1*
X12986Y13385D2*
X17504D1*
X21185D2*
X22271D1*
X12920Y13261D2*
X17455D1*
X21060D2*
X22334D1*
X12857Y13138D2*
X17451D1*
X18935D2*
X19141D1*
X20937D2*
X22398D1*
X12793Y13014D2*
X17451D1*
X18812D2*
X19104D1*
X20814D2*
X22461D1*
X12730Y12890D2*
X15752D1*
X16962D2*
X17451D1*
X18689D2*
X19104D1*
X20691D2*
X22525D1*
X11251Y12767D2*
X15512D1*
X17202D2*
X17451D1*
X18566D2*
X19141D1*
X20566D2*
X24511D1*
X11372Y12643D2*
X15331D1*
X17385D2*
X17451D1*
X18566D2*
X19235D1*
X20383D2*
X24511D1*
X11495Y12519D2*
X15300D1*
X18566D2*
X24511D1*
X11618Y12396D2*
X15300D1*
X18566D2*
X24511D1*
X11741Y12272D2*
X15300D1*
X18566D2*
X22572D1*
X11864Y12148D2*
X15300D1*
X18566D2*
X22497D1*
X11985Y12025D2*
X15300D1*
X18566D2*
X22432D1*
X12108Y11901D2*
X15300D1*
X18566D2*
X22368D1*
X12232Y11777D2*
X15300D1*
X18566D2*
X22305D1*
X12355Y11654D2*
X15300D1*
X18691D2*
X22247D1*
X12478Y11530D2*
X15300D1*
X18766D2*
X22239D1*
X12599Y11406D2*
X15300D1*
X18792D2*
X22239D1*
X12722Y11283D2*
X15300D1*
X18782D2*
X22239D1*
X12845Y11159D2*
X15300D1*
X18732D2*
X22227D1*
X12968Y11035D2*
X15300D1*
X13089Y10912D2*
X15300D1*
X13212Y10788D2*
X15300D1*
X17417D2*
X17516D1*
X24523Y12772D2*
X22982Y12774D1*
X22924Y12772D1*
X22718D1*
X22656Y12783D1*
X22600Y12812D1*
X22555Y12860D1*
X22515Y12935D1*
X22274Y13404D1*
X22255Y13466D1*
X22252Y13557D1*
Y13900D1*
X21688Y13901D1*
X20513Y12725D1*
X20464Y12685D1*
X20408Y12655D1*
X20347Y12637D1*
X20285Y12631D1*
X19811D1*
X19747Y12586D1*
X19690Y12559D1*
X19629Y12540D1*
X19566Y12531D1*
X19503D1*
X19440Y12540D1*
X19380Y12559D1*
X19323Y12586D1*
X19270Y12622D1*
X19224Y12666D1*
X19184Y12715D1*
X19153Y12770D1*
X19130Y12829D1*
X19116Y12891D1*
X19111Y12954D1*
X19116Y13018D1*
X19130Y13080D1*
X19154Y13140D1*
X18926Y13139D1*
X18552Y12766D1*
X18553Y11752D1*
X18623Y11708D1*
X18669Y11665D1*
X18708Y11615D1*
X18740Y11560D1*
X18763Y11501D1*
X18777Y11439D1*
X18781Y11378D1*
X18776Y11314D1*
X18762Y11253D1*
X18739Y11193D1*
X18707Y11139D1*
X18655Y11077D1*
X20870Y11078D1*
X22158D1*
X22254Y11173D1*
X22252Y11603D1*
X22264Y11667D1*
X22303Y11749D1*
X22544Y12217D1*
X22582Y12268D1*
X22634Y12304D1*
X22696Y12322D1*
X22782Y12324D1*
X24527D1*
X24525Y12637D1*
Y12773D1*
X24036Y12772D1*
Y12774D1*
X12020Y12772D2*
X11232D1*
X13257Y10730D1*
X13864Y10732D1*
X15311D1*
X15312Y11220D1*
Y12274D1*
Y12538D1*
X15323Y12600D1*
X15352Y12656D1*
X15400Y12701D1*
X15475Y12741D1*
X15944Y12982D1*
X16006Y13001D1*
X16097Y13004D1*
X16683D1*
X16747Y12992D1*
X16829Y12953D1*
X17297Y12712D1*
X17348Y12674D1*
X17384Y12622D1*
X17402Y12560D1*
X17404Y12475D1*
Y10732D1*
X17581D1*
X17518Y10802D1*
X17488Y10858D1*
X17470Y10919D1*
X17464Y10982D1*
Y13208D1*
X17470Y13271D1*
X17488Y13332D1*
X17518Y13388D1*
X17558Y13437D1*
X17720Y13598D1*
X17738Y13691D1*
X17752Y13730D1*
X16805D1*
X16741Y13685D1*
X16684Y13657D1*
X16623Y13639D1*
X16560Y13629D1*
X16497D1*
X16434Y13639D1*
X16374Y13658D1*
X16317Y13685D1*
X16264Y13721D1*
X16218Y13764D1*
X16178Y13814D1*
X16147Y13869D1*
X16124Y13928D1*
X16110Y13990D1*
X16105Y14053D1*
X16110Y14117D1*
X16124Y14178D1*
X16140Y14222D1*
X12987D1*
X12999Y14186D1*
X13004Y14080D1*
Y13493D1*
X12992Y13429D1*
X12953Y13347D1*
X12712Y12879D1*
X12674Y12828D1*
X12622Y12792D1*
X12560Y12774D1*
X12475Y12772D1*
X12020D1*
X11233Y17404D2*
X12274Y17402D1*
X12327Y17404D1*
X12538D1*
X12600Y17393D1*
X12656Y17364D1*
X12701Y17316D1*
X12741Y17241D1*
X12982Y16772D1*
X13001Y16710D1*
X13004Y16620D1*
Y16033D1*
X12992Y15969D1*
X12947Y15875D1*
X13322D1*
X14523Y17074D1*
X14572Y17114D1*
X14627Y17144D1*
X14688Y17163D1*
X14751Y17169D1*
X15183D1*
X15246Y17163D1*
X15306Y17144D1*
X15362Y17114D1*
X15411Y17074D1*
X15586Y16899D1*
X16857Y16898D1*
X16921Y16892D1*
X16981Y16873D1*
X17037Y16843D1*
X17086Y16804D1*
X17452Y16437D1*
X17533Y16439D1*
X17484Y16517D1*
X17461Y16576D1*
X17447Y16638D1*
X17442Y16701D1*
X17447Y16764D1*
X17461Y16826D1*
X17484Y16885D1*
X17516Y16940D1*
X17556Y16990D1*
X17603Y17033D1*
X17655Y17068D1*
X17712Y17096D1*
X17773Y17114D1*
X17836Y17123D1*
X17899D1*
X17962Y17113D1*
X18022Y17095D1*
X18080Y17067D1*
X18132Y17031D1*
X18184Y16980D1*
X18256Y17052D1*
X18308Y17087D1*
X18366Y17115D1*
X18426Y17133D1*
X18489Y17143D1*
X18552Y17142D1*
X18615Y17133D1*
X18676Y17114D1*
X18733Y17086D1*
X18785Y17050D1*
X18831Y17007D1*
X18871Y16957D1*
X18902Y16902D1*
X18925Y16843D1*
X18939Y16781D1*
X18944Y16719D1*
X18939Y16656D1*
X18925Y16594D1*
X18902Y16535D1*
X18870Y16480D1*
X18841Y16445D1*
X18842Y16106D1*
X19482Y16105D1*
X19545Y16099D1*
X19606Y16081D1*
X19662Y16051D1*
X19710Y16011D1*
X20196Y15525D1*
X20237Y15476D1*
X20266Y15420D1*
X20285Y15359D1*
X20291Y15297D1*
Y14843D1*
X20285Y14780D1*
X20266Y14719D1*
X20236Y14663D1*
X20196Y14615D1*
X19958Y14375D1*
X20095D1*
X21865Y16145D1*
Y18270D1*
X21871Y18333D1*
X21889Y18394D1*
X21919Y18449D1*
X21959Y18498D1*
X22253Y18791D1*
X22252Y19223D1*
X22264Y19287D1*
X22303Y19369D1*
X22342Y19445D1*
X17403D1*
X17404Y18956D1*
Y17902D1*
Y17638D1*
X17393Y17576D1*
X17364Y17520D1*
X17307Y17470D1*
X16772Y17194D1*
X16710Y17175D1*
X16620Y17172D1*
X16033D1*
X15969Y17184D1*
X15887Y17223D1*
X15419Y17464D1*
X15368Y17502D1*
X15332Y17554D1*
X15314Y17616D1*
X15312Y17702D1*
Y19447D1*
X14936Y19445D1*
X13255D1*
X11233Y17404D1*
X19759Y17466D2*
X19745Y17404D1*
X19722Y17345D1*
X19690Y17290D1*
X19651Y17240D1*
X19604Y17197D1*
X19552Y17162D1*
X19494Y17134D1*
X19434Y17115D1*
X19371Y17106D1*
X19308D1*
X19245Y17116D1*
X19184Y17134D1*
X19127Y17162D1*
X19075Y17198D1*
X19028Y17241D1*
X18989Y17291D1*
X18957Y17346D1*
X18934Y17405D1*
X18920Y17467D1*
X18916Y17530D1*
X18920Y17593D1*
X18935Y17655D1*
X18958Y17714D1*
X18990Y17769D1*
X19030Y17818D1*
X19076Y17861D1*
X19129Y17897D1*
X19186Y17924D1*
X19247Y17943D1*
X19309Y17952D1*
X19373D1*
X19436Y17942D1*
X19496Y17923D1*
X19553Y17896D1*
X19605Y17860D1*
X19652Y17816D1*
X19691Y17767D1*
X19723Y17712D1*
X19746Y17652D1*
X19759Y17591D1*
X19764Y17529D1*
X19759Y17466D1*
X21052Y15891D2*
X21038Y15830D1*
X21014Y15770D1*
X20983Y15716D1*
X20943Y15666D1*
X20897Y15623D1*
X20844Y15587D1*
X20787Y15560D1*
X20726Y15541D1*
X20664Y15532D1*
X20600D1*
X20537Y15541D1*
X20477Y15560D1*
X20420Y15588D1*
X20367Y15623D1*
X20321Y15667D1*
X20281Y15716D1*
X20250Y15771D1*
X20227Y15830D1*
X20213Y15892D1*
X20208Y15956D1*
X20213Y16019D1*
X20227Y16081D1*
X20251Y16140D1*
X20282Y16194D1*
X20322Y16244D1*
X20369Y16287D1*
X20421Y16323D1*
X20478Y16350D1*
X20539Y16368D1*
X20602Y16378D1*
X20665D1*
X20728Y16368D1*
X20789Y16349D1*
X20846Y16321D1*
X20898Y16285D1*
X20944Y16242D1*
X20984Y16192D1*
X21015Y16137D1*
X21038Y16078D1*
X21052Y16016D1*
X21056Y15955D1*
X21052Y15891D1*
D22*
X23978Y13818D3*
Y16358D3*
D24*
X25248Y13818D3*
Y16358D3*
G36*
X22718Y17208D2*
X23183D1*
Y15508D1*
X22718D1*
X22448Y16033D1*
Y16683D1*
X22718Y17208D1*
G37*
G36*
Y14668D2*
X23178D1*
Y12968D1*
X22718D1*
X22448Y13493D1*
Y14143D1*
X22718Y14668D1*
G37*
D22*
X11278Y13818D3*
Y16358D3*
G36*
X12538Y15508D2*
X12073D1*
Y17208D1*
X12538D1*
X12808Y16683D1*
Y16033D1*
X12538Y15508D1*
G37*
G36*
Y12968D2*
X12073D1*
Y14668D1*
X12538D1*
X12808Y14143D1*
Y13493D1*
X12538Y12968D1*
G37*
D24*
X10008Y13818D3*
Y16358D3*
D22*
X23978Y18898D3*
G36*
X22718Y19748D2*
X23183D1*
Y18048D1*
X22718D1*
X22448Y18573D1*
Y19223D1*
X22718Y19748D1*
G37*
D26*
X25248Y18898D3*
D22*
X23978Y11278D3*
G36*
X22718Y12128D2*
X23183D1*
Y10428D1*
X22718D1*
X22448Y10953D1*
Y11603D1*
X22718Y12128D1*
G37*
D26*
X25248Y11278D3*
D27*
X16358D3*
X13818D3*
G36*
X14668Y12538D2*
Y12073D1*
X12968D1*
Y12538D1*
X13493Y12808D1*
X14143D1*
X14668Y12538D1*
G37*
G36*
X17208D2*
Y12073D1*
X15508D1*
Y12538D1*
X16033Y12808D1*
X16683D1*
X17208Y12538D1*
G37*
D28*
X16358Y10008D3*
X13818D3*
D27*
X16358Y18898D3*
X13818D3*
D28*
X16358Y20168D3*
X13818D3*
G36*
X12968Y17638D2*
Y18103D1*
X14668D1*
Y17638D1*
X14143Y17368D1*
X13493D1*
X12968Y17638D1*
G37*
G36*
X15508D2*
Y18098D1*
X17208D1*
Y17638D1*
X16683Y17368D1*
X16033D1*
X15508Y17638D1*
G37*
G36*
X18659Y11710D2*
X18689Y11520D1*
X18748Y11372D1*
X18825Y11278D1*
X18901Y11202D1*
X19013Y11139D1*
X19079Y11113D1*
X19174Y11093D1*
X19225Y11083D1*
X19307Y11078D1*
X19372Y11101D1*
X19410Y11139D1*
X19435Y11164D1*
X19499Y11177D1*
X19525Y11172D1*
X19576Y11157D1*
X19603Y11126D1*
X19702Y11208D1*
X19652Y11284D1*
Y11302D1*
X19740Y11338D1*
X19753Y11393D1*
X19763Y11494D1*
X19510Y11388D1*
X19479D1*
X19435Y11395D1*
X19425Y11418D1*
X19446Y11469D1*
X19561Y11532D1*
X19733Y11603D1*
X19707Y11654D1*
X19644Y11708D1*
X19453Y11634D1*
X19460Y11672D1*
Y11710D1*
X18659D1*
G37*
M02*
