M48
METRIC,0000.00
T01C0.254
T02C1.1
%
T01
X+001969Y+001676
X+001933Y+001752
X+001851Y+001671
X+001786Y+001669
X+001756Y+001562
X+001820Y+001496
X+001947Y+001506
X+002062Y+001595
X+002218Y+001471
X+002117Y+001178
X+001953Y+001295
X+001814Y+001356
X+001652Y+001404
X+001665Y+001608
X+001499Y+001569
X+001495Y+001633
X+001383Y+001503
X+001835Y+001137
X+002029Y+001923
T02
X+002397Y+001381
X+002524Y+001381
X+002524Y+001127
X+002397Y+001127
X+002397Y+001635
X+002524Y+001635
X+002524Y+001889
X+002397Y+001889
X+001635Y+001889
X+001635Y+002016
X+001381Y+002016
X+001381Y+001889
X+001127Y+001635
X+001000Y+001635
X+001000Y+001381
X+001127Y+001381
X+001381Y+001127
X+001381Y+001000
X+001635Y+001000
X+001635Y+001127
T00
M30
