G04 DipTrace 2.4.0.2*
%INST12axis.gbo*%
%MOMM*%
%ADD10C,0.25*%
%ADD39O,0.863X0.723*%
%ADD62C,0.111*%
%FSLAX53Y53*%
G04*
G71*
G90*
G75*
G01*
%LNBotSilk*%
%LPD*%
G36*
X18663Y11709D2*
X19296Y12326D1*
X19643Y11842D1*
X19486Y11716D1*
X18663Y11709D1*
G37*
D39*
X19358Y11991D3*
X18780Y11706D2*
D10*
G02X19283Y12222I586J-68D01*
G01*
X18803Y11692D2*
G03X19423Y11752I219J970D01*
G01*
X21273Y14277D2*
D62*
X22293D1*
X21273Y13825D2*
X22293D1*
X21273Y14166D1*
X22293D1*
X21273Y13544D2*
X22293D1*
X21273Y13714D2*
Y13374D1*
X21515Y12898D2*
X21419Y12922D1*
X21321Y12971D1*
X21273Y13020D1*
Y13117D1*
X21321Y13166D1*
X21419Y13214D1*
X21515Y13239D1*
X21661Y13263D1*
X21905D1*
X22050Y13239D1*
X22147Y13214D1*
X22244Y13166D1*
X22293Y13117D1*
Y13020D1*
X22244Y12971D1*
X22147Y12922D1*
X22050Y12898D1*
X21905D1*
Y13020D1*
X21253Y17098D2*
X22274D1*
Y16928D1*
X22224Y16855D1*
X22128Y16806D1*
X22030Y16782D1*
X21885Y16757D1*
X21642D1*
X21496Y16782D1*
X21399Y16806D1*
X21301Y16855D1*
X21253Y16928D1*
Y17098D1*
Y16331D2*
Y16646D1*
X22274D1*
Y16331D1*
X21739Y16646D2*
Y16452D1*
X21253Y15879D2*
X22274D1*
X21253Y16220D1*
X22274D1*
X17413Y18420D2*
X17607Y19441D1*
X17802Y18420D1*
X18277Y18663D2*
X18253Y18566D1*
X18204Y18469D1*
X18156Y18420D1*
X18059D1*
X18010Y18469D1*
X17962Y18566D1*
X17937Y18663D1*
X17913Y18809D1*
Y19053D1*
X17937Y19198D1*
X17962Y19295D1*
X18010Y19392D1*
X18059Y19441D1*
X18156D1*
X18204Y19392D1*
X18253Y19295D1*
X18277Y19198D1*
X18753Y18663D2*
X18729Y18566D1*
X18680Y18469D1*
X18632Y18420D1*
X18534D1*
X18486Y18469D1*
X18437Y18566D1*
X18413Y18663D1*
X18388Y18809D1*
Y19053D1*
X18413Y19198D1*
X18437Y19295D1*
X18486Y19392D1*
X18534Y19441D1*
X18632D1*
X18680Y19392D1*
X18729Y19295D1*
X18753Y19198D1*
X12486Y12542D2*
X12511Y12639D1*
X12559Y12737D1*
X12608Y12785D1*
X12705D1*
X12754Y12737D1*
X12802Y12639D1*
X12827Y12542D1*
X12851Y12396D1*
Y12153D1*
X12827Y12008D1*
X12802Y11910D1*
X12754Y11814D1*
X12705Y11764D1*
X12608D1*
X12559Y11814D1*
X12511Y11910D1*
X12486Y12008D1*
Y12153D1*
X12608D1*
X12035Y12785D2*
Y11764D1*
X12375Y12785D1*
Y11764D1*
X11924Y12785D2*
Y11764D1*
X11754D1*
X11681Y11814D1*
X11632Y11910D1*
X11608Y12008D1*
X11584Y12153D1*
Y12396D1*
X11608Y12542D1*
X11632Y12639D1*
X11681Y12737D1*
X11754Y12785D1*
X11924D1*
X18665Y12637D2*
X18471Y11616D1*
X18277Y12637D1*
X17801Y12394D2*
X17825Y12491D1*
X17874Y12588D1*
X17923Y12637D1*
X18020D1*
X18069Y12588D1*
X18117Y12491D1*
X18142Y12394D1*
X18166Y12248D1*
Y12004D1*
X18142Y11860D1*
X18117Y11762D1*
X18069Y11665D1*
X18020Y11616D1*
X17923D1*
X17874Y11665D1*
X17825Y11762D1*
X17801Y11860D1*
X17326Y12394D2*
X17350Y12491D1*
X17399Y12588D1*
X17447Y12637D1*
X17544D1*
X17593Y12588D1*
X17641Y12491D1*
X17666Y12394D1*
X17690Y12248D1*
Y12004D1*
X17666Y11860D1*
X17641Y11762D1*
X17593Y11665D1*
X17544Y11616D1*
X17447D1*
X17399Y11665D1*
X17350Y11762D1*
X17326Y11860D1*
X11922Y17655D2*
X11898Y17558D1*
X11849Y17460D1*
X11801Y17412D1*
X11704D1*
X11655Y17460D1*
X11607Y17558D1*
X11582Y17655D1*
X11558Y17801D1*
Y18044D1*
X11582Y18189D1*
X11607Y18287D1*
X11655Y18383D1*
X11704Y18433D1*
X11801D1*
X11849Y18383D1*
X11898Y18287D1*
X11922Y18189D1*
Y18044D1*
X11801D1*
X12374Y17412D2*
Y18433D1*
X12033Y17412D1*
Y18433D1*
X12485Y17412D2*
Y18433D1*
X12655D1*
X12728Y18383D1*
X12777Y18287D1*
X12801Y18189D1*
X12825Y18044D1*
Y17801D1*
X12801Y17655D1*
X12777Y17558D1*
X12728Y17460D1*
X12655Y17412D1*
X12485D1*
X13894Y13572D2*
X13992Y13524D1*
X14040Y13451D1*
Y13354D1*
X13992Y13281D1*
X13894Y13232D1*
X13797D1*
X13700Y13256D1*
X13651Y13281D1*
X13603Y13329D1*
X13505Y13475D1*
X13457Y13524D1*
X13408Y13548D1*
X13311Y13572D1*
X13165D1*
X13069Y13524D1*
X13019Y13451D1*
Y13354D1*
X13069Y13281D1*
X13165Y13232D1*
X14040Y13683D2*
X13019D1*
Y13853D1*
X13069Y13926D1*
X13165Y13975D1*
X13263Y13999D1*
X13408Y14023D1*
X13651D1*
X13797Y13999D1*
X13894Y13975D1*
X13992Y13926D1*
X14040Y13853D1*
Y13683D1*
X13019Y14524D2*
X14040Y14329D1*
X13019Y14135D1*
X13359Y14208D2*
Y14451D1*
X13874Y15982D2*
X13972Y15934D1*
X14020Y15861D1*
Y15764D1*
X13972Y15691D1*
X13874Y15642D1*
X13778D1*
X13680Y15667D1*
X13632Y15691D1*
X13584Y15739D1*
X13486Y15885D1*
X13438Y15934D1*
X13388Y15958D1*
X13292Y15982D1*
X13146D1*
X13049Y15934D1*
X13000Y15861D1*
Y15764D1*
X13049Y15691D1*
X13146Y15642D1*
X13778Y16458D2*
X13874Y16434D1*
X13972Y16385D1*
X14020Y16337D1*
Y16239D1*
X13972Y16191D1*
X13874Y16142D1*
X13778Y16118D1*
X13632Y16093D1*
X13388D1*
X13243Y16118D1*
X13146Y16142D1*
X13049Y16191D1*
X13000Y16239D1*
Y16337D1*
X13049Y16385D1*
X13146Y16434D1*
X13243Y16458D1*
X14020Y16569D2*
X13000D1*
Y16860D1*
X15746Y13064D2*
Y12748D1*
X14725D1*
X15260D2*
Y12943D1*
X15406Y13200D2*
X14725Y13346D1*
X14531Y13297D1*
X14433Y13249D1*
X14385Y13200D1*
Y13176D1*
X15406Y13492D2*
X14725Y13346D1*
X15746Y13603D2*
X14725D1*
X15260D2*
X15358Y13652D1*
X15406Y13700D1*
Y13773D1*
X15358Y13821D1*
X15260Y13870D1*
X15114Y13894D1*
X15017D1*
X14871Y13870D1*
X14775Y13821D1*
X14725Y13773D1*
Y13700D1*
X14775Y13652D1*
X14871Y13603D1*
X15114Y14005D2*
Y14297D1*
X15212D1*
X15309Y14273D1*
X15358Y14249D1*
X15406Y14200D1*
Y14127D1*
X15358Y14078D1*
X15260Y14030D1*
X15114Y14005D1*
X15017D1*
X14871Y14030D1*
X14775Y14078D1*
X14725Y14127D1*
Y14200D1*
X14775Y14249D1*
X14871Y14297D1*
X15406Y14408D2*
X14725D1*
X15114D2*
X15260Y14433D1*
X15358Y14481D1*
X15406Y14530D1*
Y14603D1*
X15746Y15162D2*
X14725D1*
Y15453D1*
X15406Y15856D2*
X14725D1*
X15260D2*
X15358Y15808D1*
X15406Y15759D1*
Y15686D1*
X15358Y15637D1*
X15260Y15589D1*
X15114Y15564D1*
X15017D1*
X14871Y15589D1*
X14775Y15637D1*
X14725Y15686D1*
Y15759D1*
X14775Y15808D1*
X14871Y15856D1*
X15746Y15967D2*
X14725D1*
X15260D2*
X15358Y16016D1*
X15406Y16064D1*
Y16137D1*
X15358Y16185D1*
X15260Y16234D1*
X15114Y16258D1*
X15017D1*
X14871Y16234D1*
X14775Y16185D1*
X14725Y16137D1*
Y16064D1*
X14775Y16016D1*
X14871Y15967D1*
X15260Y16637D2*
X15358Y16613D1*
X15406Y16540D1*
Y16467D1*
X15358Y16394D1*
X15260Y16370D1*
X15163Y16394D1*
X15114Y16443D1*
X15066Y16564D1*
X15017Y16613D1*
X14920Y16637D1*
X14871D1*
X14775Y16613D1*
X14725Y16540D1*
Y16467D1*
X14775Y16394D1*
X14871Y16370D1*
X15746Y17196D2*
X14725D1*
X15406Y17307D2*
X14725D1*
X15212D2*
X15358Y17380D1*
X15406Y17429D1*
Y17501D1*
X15358Y17550D1*
X15212Y17574D1*
X14725D1*
X15260Y17978D2*
X15358Y17929D1*
X15406Y17880D1*
Y17807D1*
X15358Y17759D1*
X15260Y17710D1*
X15114Y17686D1*
X15017D1*
X14871Y17710D1*
X14775Y17759D1*
X14725Y17807D1*
Y17880D1*
X14775Y17929D1*
X14871Y17978D1*
X14823Y18113D2*
X14774Y18089D1*
X14725Y18113D1*
X14774Y18137D1*
X14823Y18113D1*
X20830Y12078D2*
X20879Y12127D1*
X21024Y12200D1*
X20004D1*
X20781Y12336D2*
X20830D1*
X20927Y12360D1*
X20976Y12384D1*
X21024Y12433D1*
Y12530D1*
X20976Y12578D1*
X20927Y12602D1*
X20830Y12627D1*
X20733D1*
X20635Y12602D1*
X20490Y12554D1*
X20004Y12311D1*
Y12651D1*
X20685Y13054D2*
X20004D1*
X20539D2*
X20636Y13006D1*
X20685Y12957D1*
Y12884D1*
X20636Y12835D1*
X20539Y12787D1*
X20393Y12762D1*
X20296D1*
X20150Y12787D1*
X20054Y12835D1*
X20004Y12884D1*
Y12957D1*
X20054Y13006D1*
X20150Y13054D1*
X20685Y13165D2*
X20004Y13432D1*
X20685D2*
X20004Y13165D1*
X21025Y13543D2*
X20977Y13568D1*
X21025Y13592D1*
X21074Y13568D1*
X21025Y13543D1*
X20685Y13568D2*
X20004D1*
X20539Y13971D2*
X20636Y13947D1*
X20685Y13874D1*
Y13801D1*
X20636Y13728D1*
X20539Y13703D1*
X20442Y13728D1*
X20393Y13776D1*
X20344Y13898D1*
X20296Y13947D1*
X20198Y13971D1*
X20150D1*
X20054Y13947D1*
X20004Y13874D1*
Y13801D1*
X20054Y13728D1*
X20150Y13703D1*
X20999Y14803D2*
Y14487D1*
X19979D1*
X20513D2*
Y14682D1*
X20999Y14914D2*
X19979D1*
X20367Y15026D2*
Y15317D1*
X20465D1*
X20563Y15293D1*
X20611Y15269D1*
X20659Y15220D1*
Y15147D1*
X20611Y15099D1*
X20513Y15050D1*
X20367Y15026D1*
X20271D1*
X20125Y15050D1*
X20028Y15099D1*
X19979Y15147D1*
Y15220D1*
X20028Y15269D1*
X20125Y15317D1*
X20659Y15428D2*
X19979Y15695D1*
X20659D2*
X19979Y15428D1*
Y16643D2*
X20999D1*
X19979Y16449D1*
X20999Y16255D1*
X19979D1*
X20659Y16876D2*
X20611Y16827D1*
X20513Y16778D1*
X20367Y16754D1*
X20271D1*
X20125Y16778D1*
X20028Y16827D1*
X19979Y16876D1*
Y16949D1*
X20028Y16997D1*
X20125Y17046D1*
X20271Y17070D1*
X20367D1*
X20513Y17046D1*
X20611Y16997D1*
X20659Y16949D1*
Y16876D1*
X20999Y17473D2*
X19979D1*
X20513D2*
X20611Y17425D1*
X20659Y17376D1*
Y17303D1*
X20611Y17255D1*
X20513Y17206D1*
X20367Y17182D1*
X20271D1*
X20125Y17206D1*
X20028Y17255D1*
X19979Y17303D1*
Y17376D1*
X20028Y17425D1*
X20125Y17473D1*
X20659Y17584D2*
X20173D1*
X20028Y17608D1*
X19979Y17657D1*
Y17730D1*
X20028Y17778D1*
X20173Y17851D1*
X20659D2*
X19979D1*
X20999Y17962D2*
X19979D1*
X20367Y18074D2*
Y18365D1*
X20465D1*
X20563Y18341D1*
X20611Y18317D1*
X20659Y18268D1*
Y18195D1*
X20611Y18147D1*
X20513Y18098D1*
X20367Y18074D1*
X20271D1*
X20125Y18098D1*
X20028Y18147D1*
X19979Y18195D1*
Y18268D1*
X20028Y18317D1*
X20125Y18365D1*
X18928Y13223D2*
Y13442D1*
X18977Y13515D1*
X19026Y13539D1*
X19122Y13563D1*
X19220D1*
X19316Y13539D1*
X19366Y13515D1*
X19414Y13442D1*
Y13223D1*
X18393D1*
X18928Y13393D2*
X18393Y13563D1*
X19413Y13821D2*
X19365Y13748D1*
X19219Y13699D1*
X18976Y13675D1*
X18830D1*
X18588Y13699D1*
X18442Y13748D1*
X18393Y13821D1*
Y13869D1*
X18442Y13942D1*
X18588Y13990D1*
X18830Y14015D1*
X18976D1*
X19219Y13990D1*
X19365Y13942D1*
X19413Y13869D1*
Y13821D1*
X19219Y13990D2*
X18588Y13699D1*
X18491Y14150D2*
X18442Y14126D1*
X18393Y14150D1*
X18442Y14175D1*
X18491Y14150D1*
X19074Y14602D2*
X18928Y14577D1*
X18830Y14529D1*
X18782Y14456D1*
Y14432D1*
X18830Y14359D1*
X18928Y14311D1*
X19074Y14286D1*
X19122D1*
X19268Y14311D1*
X19365Y14359D1*
X19413Y14432D1*
Y14456D1*
X19365Y14529D1*
X19268Y14577D1*
X19074Y14602D1*
X18830D1*
X18588Y14577D1*
X18442Y14529D1*
X18393Y14456D1*
Y14408D1*
X18442Y14335D1*
X18539Y14311D1*
X17598Y13858D2*
X17646D1*
X17744Y13882D1*
X17792Y13906D1*
X17841Y13955D1*
Y14052D1*
X17792Y14100D1*
X17744Y14125D1*
X17646Y14149D1*
X17550D1*
X17452Y14125D1*
X17307Y14076D1*
X16821Y13833D1*
Y14173D1*
X17841Y14431D2*
X17792Y14358D1*
X17646Y14309D1*
X17404Y14285D1*
X17258D1*
X17015Y14309D1*
X16869Y14358D1*
X16821Y14431D1*
Y14479D1*
X16869Y14552D1*
X17015Y14600D1*
X17258Y14625D1*
X17404D1*
X17646Y14600D1*
X17792Y14552D1*
X17841Y14479D1*
Y14431D1*
X17646Y14600D2*
X17015Y14309D1*
X17646Y14736D2*
X17696Y14785D1*
X17841Y14858D1*
X16821D1*
X17841Y15260D2*
Y15018D1*
X17404Y14994D1*
X17452Y15018D1*
X17501Y15091D1*
Y15163D1*
X17452Y15236D1*
X17355Y15285D1*
X17209Y15309D1*
X17113D1*
X16967Y15285D1*
X16869Y15236D1*
X16821Y15163D1*
Y15091D1*
X16869Y15018D1*
X16918Y14994D1*
X17015Y14969D1*
X21242Y19561D2*
X22263D1*
Y19391D1*
X22214Y19318D1*
X22117Y19269D1*
X22019Y19245D1*
X21874Y19221D1*
X21631D1*
X21485Y19245D1*
X21388Y19269D1*
X21290Y19318D1*
X21242Y19391D1*
Y19561D1*
X21728Y19110D2*
Y18891D1*
X21679Y18818D1*
X21631Y18794D1*
X21534Y18769D1*
X21436D1*
X21340Y18794D1*
X21290Y18818D1*
X21242Y18891D1*
Y19110D1*
X22263D1*
X21728Y18940D2*
X22263Y18769D1*
X21242Y18658D2*
X22263D1*
Y18488D1*
X22214Y18415D1*
X22117Y18366D1*
X22019Y18342D1*
X21874Y18318D1*
X21631D1*
X21485Y18342D1*
X21388Y18366D1*
X21290Y18415D1*
X21242Y18488D1*
Y18658D1*
Y18207D2*
X21728Y18013D1*
X22263D1*
X21242Y17818D2*
X21728Y18013D1*
X21322Y11992D2*
X22343D1*
X21322Y11540D2*
X22343D1*
X21322Y11881D1*
X22343D1*
X21322Y11259D2*
X22343D1*
X21322Y11429D2*
Y11089D1*
X22343Y10589D2*
X21322D1*
X22343Y10784D1*
X21322Y10978D1*
X22343D1*
M02*
