G04 DipTrace 2.4.0.2*
%INST12axis.gbs*%
%MOMM*%
%ADD50R,1.75X2.082*%
%ADD51R,1.75X1.65*%
%ADD52R,2.05X1.75*%
%ADD54R,2.082X1.75*%
%ADD56R,1.65X1.75*%
%FSLAX53Y53*%
G04*
G71*
G90*
G75*
G01*
%LNBotMask*%
%LPD*%
D56*
X23970Y13810D3*
Y16350D3*
D54*
X25240Y13810D3*
Y16350D3*
G36*
X22695Y17225D2*
X23200D1*
Y15475D1*
X22695D1*
X22415Y16019D1*
Y16681D1*
X22695Y17225D1*
G37*
G36*
Y14685D2*
X23195D1*
Y12935D1*
X22695D1*
X22415Y13479D1*
Y14141D1*
X22695Y14685D1*
G37*
D56*
X23970Y18890D3*
G36*
X22695Y19765D2*
X23200D1*
Y18015D1*
X22695D1*
X22415Y18559D1*
Y19221D1*
X22695Y19765D1*
G37*
D52*
X25240Y18890D3*
D56*
X11270Y16350D3*
Y13810D3*
D54*
X10000Y16350D3*
Y13810D3*
G36*
X12545Y12935D2*
X12040D1*
Y14685D1*
X12545D1*
X12825Y14141D1*
Y13479D1*
X12545Y12935D1*
G37*
G36*
Y15475D2*
X12045D1*
Y17225D1*
X12545D1*
X12825Y16681D1*
Y16019D1*
X12545Y15475D1*
G37*
D56*
X23970Y11270D3*
G36*
X22695Y12145D2*
X23200D1*
Y10395D1*
X22695D1*
X22415Y10939D1*
Y11601D1*
X22695Y12145D1*
G37*
D52*
X25240Y11270D3*
D51*
X16350D3*
X13810D3*
G36*
X14685Y12545D2*
Y12040D1*
X12935D1*
Y12545D1*
X13479Y12825D1*
X14141D1*
X14685Y12545D1*
G37*
G36*
X17225D2*
Y12040D1*
X15475D1*
Y12545D1*
X16019Y12825D1*
X16681D1*
X17225Y12545D1*
G37*
D50*
X16350Y10000D3*
X13810D3*
D51*
X16197Y18890D3*
X13657D3*
D50*
X16197Y20160D3*
X13657D3*
G36*
X12782Y17615D2*
Y18120D1*
X14532D1*
Y17615D1*
X13988Y17335D1*
X13326D1*
X12782Y17615D1*
G37*
G36*
X15322D2*
Y18115D1*
X17072D1*
Y17615D1*
X16528Y17335D1*
X15866D1*
X15322Y17615D1*
G37*
G36*
X20370Y11251D2*
X20341Y11441D1*
X20281Y11589D1*
X20205Y11683D1*
X20129Y11759D1*
X20016Y11822D1*
X19951Y11848D1*
X19856Y11868D1*
X19805Y11878D1*
X19723Y11883D1*
X19658Y11860D1*
X19620Y11822D1*
X19594Y11797D1*
X19530Y11784D1*
X19505Y11789D1*
X19454Y11804D1*
X19427Y11835D1*
X19328Y11753D1*
X19378Y11677D1*
Y11659D1*
X19290Y11623D1*
X19277Y11568D1*
X19267Y11467D1*
X19519Y11573D1*
X19551D1*
X19594Y11566D1*
X19605Y11543D1*
X19584Y11492D1*
X19469Y11429D1*
X19297Y11358D1*
X19323Y11307D1*
X19386Y11253D1*
X19577Y11327D1*
X19570Y11289D1*
Y11251D1*
X20370D1*
G37*
M02*
