M48
METRIC,0000.00
T01C0.254
T02C1.1
%
T01
X+001970Y+001676
X+001934Y+001753
X+001852Y+001672
X+001787Y+001670
X+001757Y+001562
X+001821Y+001497
X+001947Y+001507
X+002063Y+001595
X+002218Y+001472
X+002118Y+001179
X+001954Y+001295
X+001814Y+001357
X+001653Y+001405
X+001666Y+001608
X+001499Y+001569
X+001496Y+001634
X+001384Y+001504
X+001836Y+001138
X+002030Y+001924
T02
X+002398Y+001382
X+002525Y+001382
X+002525Y+001128
X+002398Y+001128
X+002398Y+001636
X+002525Y+001636
X+002525Y+001890
X+002398Y+001890
X+001636Y+001890
X+001636Y+002017
X+001382Y+002017
X+001382Y+001890
X+001128Y+001636
X+001001Y+001636
X+001001Y+001382
X+001128Y+001382
X+001382Y+001128
X+001382Y+001001
X+001636Y+001001
X+001636Y+001128
T00
M30
