G04 DipTrace 2.4.0.2*
%INST12axis.gtp*%
%MOMM*%
%ADD18R,0.9X0.7*%
%ADD19R,0.7X0.9*%
%ADD20R,1.1X1.0*%
%ADD28R,0.5X0.525*%
%ADD29R,0.5X0.25*%
%ADD31R,0.5X0.4*%
%ADD33R,0.35X0.5*%
%ADD35O,0.23X0.7*%
%ADD36O,0.7X0.23*%
%FSLAX53Y53*%
G04*
G71*
G90*
G75*
G01*
%LNTopPaste*%
%LPD*%
G36*
X14453Y17234D2*
X14262D1*
Y17696D1*
X14453D1*
X14589Y17561D1*
Y17369D1*
X14453Y17234D1*
G37*
G36*
X13917Y17696D2*
X14109D1*
Y17234D1*
X13917D1*
X13782Y17369D1*
Y17561D1*
X13917Y17696D1*
G37*
G36*
X13936Y16650D2*
X14127D1*
Y16188D1*
X13936D1*
X13801Y16324D1*
Y16515D1*
X13936Y16650D1*
G37*
G36*
X14472Y16188D2*
X14281D1*
Y16650D1*
X14472D1*
X14607Y16515D1*
Y16324D1*
X14472Y16188D1*
G37*
G36*
X13951Y15640D2*
X14143D1*
Y15178D1*
X13951D1*
X13816Y15313D1*
Y15505D1*
X13951Y15640D1*
G37*
G36*
X14487Y15178D2*
X14296D1*
Y15640D1*
X14487D1*
X14623Y15505D1*
Y15313D1*
X14487Y15178D1*
G37*
D18*
X18692Y19281D3*
X19992D3*
D19*
X21070Y17992D3*
Y19292D3*
X21507Y15509D3*
Y16809D3*
D20*
X22566Y12168D3*
X24266D3*
X22564Y10889D3*
X24264D3*
D19*
X21356Y12882D3*
Y11582D3*
X22506Y15341D3*
Y16641D3*
D28*
X15995Y16940D3*
D29*
Y16300D3*
Y15800D3*
D28*
Y15165D3*
X16895D3*
D29*
Y15800D3*
Y16300D3*
D28*
Y16940D3*
D31*
X13499Y14082D3*
Y13382D3*
X14499D3*
Y14082D3*
D33*
X20110Y18349D3*
X19460D3*
X18810D3*
X18160D3*
Y16349D3*
X18810D3*
X19460D3*
X20110D3*
D35*
X19748Y14827D3*
X19318D3*
X18888D3*
X18458D3*
D36*
X17703Y14682D3*
Y14252D3*
Y13822D3*
Y13392D3*
Y12962D3*
Y12532D3*
Y12102D3*
Y11672D3*
D35*
X18458Y11527D3*
X18888D3*
X19318D3*
X19748D3*
D36*
X20503Y11672D3*
Y12102D3*
Y12532D3*
Y12962D3*
Y13392D3*
Y13822D3*
Y14252D3*
Y14682D3*
M02*
