G04 DipTrace 2.4.0.2*
%INST12axis.gbl*%
%MOMM*%
%ADD13C,0.254*%
%ADD16C,0.127*%
%ADD17R,1.6X1.7*%
%ADD19R,2.032X1.7*%
%ADD24R,1.7X1.6*%
%ADD25R,1.7X2.032*%
%ADD39R,2.0X1.7*%
%ADD41C,0.457*%
%FSLAX53Y53*%
G04*
G71*
G90*
G75*
G01*
%LNBottom*%
%LPD*%
X18349Y11370D2*
D13*
X18222D1*
Y12335D1*
X19342Y13454D1*
X20190D1*
X22657Y15921D1*
X23541D1*
X23970Y16350D1*
X25240D2*
X23970D1*
X22808D1*
X16905Y14068D2*
X20244D1*
X22179Y16004D1*
Y18262D1*
X22808Y18890D1*
X23970D1*
X25240D1*
X13657D2*
Y17728D1*
Y18890D2*
Y20160D1*
X13810Y12433D2*
Y11270D1*
Y10000D1*
X19527Y12946D2*
X20277D1*
X21547Y14215D1*
X22805D1*
Y13810D1*
X23970D1*
X25240D1*
X18528Y13457D2*
Y13190D1*
X17778Y12441D1*
Y10974D1*
X18005Y10747D1*
X22285D1*
X22808Y11270D1*
X23970D1*
X25240D1*
X15677Y13672D2*
X15036D1*
X14594Y14114D1*
X14468Y14241D1*
X12433D1*
Y13810D1*
X18445Y17531D2*
X18549D1*
X18797Y17283D1*
Y17133D1*
X19180Y16750D1*
Y15375D1*
X19495Y15060D1*
X19467D1*
X17887Y16710D2*
X14892D1*
X14594Y16412D1*
Y14114D1*
X12433Y13810D2*
X11270D1*
X10000D1*
X18511Y16711D2*
Y15893D1*
X18627Y15777D1*
Y15279D1*
X18734Y15173D1*
Y14953D1*
X18360Y14579D1*
X17972D1*
X17991Y14561D1*
X16698D1*
X16387Y14250D1*
Y13830D1*
X16357D1*
X18511Y16711D2*
Y16781D1*
X18097Y17196D1*
X17371D1*
X17274Y17099D1*
X14738D1*
X13269Y15629D1*
X12435D1*
Y16350D1*
X11270D1*
X10000D1*
X18171Y15075D2*
X18239D1*
Y15625D1*
X17749Y16115D1*
X15079D1*
X15090Y16126D1*
Y16206D1*
X17565Y15616D2*
X16392D1*
X15100Y14324D1*
X16197Y18890D2*
Y20160D1*
Y18890D2*
Y17725D1*
X16350Y12433D2*
Y11270D1*
Y10000D1*
D41*
X15677Y13672D3*
X19691Y16757D3*
X20288Y19228D3*
X18445Y17531D3*
X19467Y15060D3*
X18171Y15075D3*
X15100Y14324D3*
X15090Y16206D3*
X17565Y15616D3*
X18511Y16711D3*
X16905Y14068D3*
X18528Y13457D3*
X18349Y11370D3*
X19527Y12946D3*
X17770Y17696D3*
X13107Y14732D3*
X19332Y17521D3*
X20624Y15947D3*
X21167Y11778D3*
X22177Y14715D3*
X16357Y13830D3*
X15879Y14299D3*
X17887Y16710D3*
X13148Y19313D2*
D16*
X15139D1*
X17256D2*
X22259D1*
X13023Y19189D2*
X15139D1*
X17256D2*
X22231D1*
X12900Y19066D2*
X15139D1*
X17256D2*
X22231D1*
X12777Y18942D2*
X15139D1*
X17256D2*
X22231D1*
X12652Y18818D2*
X15139D1*
X17256D2*
X22231D1*
X12529Y18695D2*
X15139D1*
X17256D2*
X22144D1*
X12406Y18571D2*
X15139D1*
X17256D2*
X22021D1*
X12281Y18447D2*
X15139D1*
X17256D2*
X21904D1*
X12158Y18324D2*
X15139D1*
X17256D2*
X21850D1*
X12035Y18200D2*
X15139D1*
X17256D2*
X21844D1*
X11910Y18076D2*
X15139D1*
X17256D2*
X21844D1*
X11787Y17953D2*
X15139D1*
X17256D2*
X18387D1*
X18504D2*
X21844D1*
X11664Y17829D2*
X15139D1*
X17256D2*
X18131D1*
X18760D2*
X19028D1*
X19635D2*
X21844D1*
X22514D2*
X24503D1*
X11539Y17705D2*
X15139D1*
X17256D2*
X18046D1*
X18843D2*
X18937D1*
X19726D2*
X21844D1*
X22514D2*
X24503D1*
X11416Y17582D2*
X15145D1*
X17250D2*
X18012D1*
X19764D2*
X21844D1*
X22514D2*
X24503D1*
X11293Y17458D2*
X15242D1*
X19764D2*
X21844D1*
X22514D2*
X24503D1*
X12684Y17334D2*
X14506D1*
X19724D2*
X21844D1*
X12757Y17211D2*
X14381D1*
X19633D2*
X21844D1*
X12821Y17087D2*
X14258D1*
X19312D2*
X21844D1*
X12884Y16963D2*
X14135D1*
X19435D2*
X21844D1*
X12948Y16840D2*
X14010D1*
X19502D2*
X21844D1*
X13003Y16716D2*
X13887D1*
X19514D2*
X21844D1*
X13007Y16592D2*
X13764D1*
X19514D2*
X21844D1*
X13007Y16469D2*
X13639D1*
X19514D2*
X21844D1*
X13007Y16345D2*
X13516D1*
X19514D2*
X20467D1*
X20782D2*
X21844D1*
X13007Y16221D2*
X13393D1*
X19514D2*
X20288D1*
X20961D2*
X21844D1*
X13007Y16098D2*
X13268D1*
X19514D2*
X20215D1*
X21032D2*
X21804D1*
X13001Y15974D2*
X13145D1*
X19514D2*
X20189D1*
X21060D2*
X21681D1*
X19514Y15850D2*
X20199D1*
X21050D2*
X21558D1*
X19514Y15727D2*
X20249D1*
X20998D2*
X21433D1*
X19514Y15603D2*
X20364D1*
X20885D2*
X21310D1*
X19544Y15479D2*
X21187D1*
X19784Y15356D2*
X21062D1*
X19867Y15232D2*
X20939D1*
X19901Y15108D2*
X20816D1*
X19897Y14985D2*
X20691D1*
X19853Y14861D2*
X20568D1*
X18986Y14737D2*
X19179D1*
X19754D2*
X20445D1*
X18863Y14614D2*
X20320D1*
X18738Y14490D2*
X20197D1*
X13007Y13872D2*
X14369D1*
X21671D2*
X22231D1*
X13007Y13748D2*
X14492D1*
X21548D2*
X22231D1*
X13007Y13624D2*
X14615D1*
X16740D2*
X18125D1*
X21423D2*
X22231D1*
X13007Y13501D2*
X14740D1*
X16637D2*
X18094D1*
X21300D2*
X22231D1*
X12978Y13377D2*
X14895D1*
X15994D2*
X18100D1*
X21177D2*
X22263D1*
X12912Y13253D2*
X15603D1*
X15751D2*
X18121D1*
X21052D2*
X22326D1*
X12849Y13130D2*
X17998D1*
X20929D2*
X22390D1*
X12785Y13006D2*
X17875D1*
X20806D2*
X22453D1*
X12722Y12882D2*
X15746D1*
X16954D2*
X17752D1*
X20683D2*
X22517D1*
X11235Y12759D2*
X15504D1*
X17194D2*
X17627D1*
X20558D2*
X24503D1*
X11360Y12635D2*
X15323D1*
X17377D2*
X17508D1*
X18990D2*
X19227D1*
X20375D2*
X24503D1*
X11483Y12511D2*
X15292D1*
X18867D2*
X24503D1*
X11606Y12388D2*
X15292D1*
X18744D2*
X24503D1*
X11731Y12264D2*
X15292D1*
X18619D2*
X22564D1*
X11854Y12140D2*
X15292D1*
X18558D2*
X22489D1*
X11977Y12017D2*
X15292D1*
X18558D2*
X22424D1*
X12102Y11893D2*
X15292D1*
X18558D2*
X22360D1*
X12225Y11769D2*
X15292D1*
X18558D2*
X22297D1*
X12349Y11646D2*
X15292D1*
X18683D2*
X22239D1*
X12474Y11522D2*
X15292D1*
X18758D2*
X22231D1*
X12597Y11398D2*
X15292D1*
X18784D2*
X22231D1*
X12720Y11275D2*
X15292D1*
X18774D2*
X22231D1*
X12845Y11151D2*
X15292D1*
X18724D2*
X22219D1*
X12968Y11027D2*
X15292D1*
X13091Y10904D2*
X15292D1*
X13214Y10780D2*
X15292D1*
X17409D2*
X17508D1*
X24515Y12764D2*
X22974Y12766D1*
X22916Y12764D1*
X22710D1*
X22648Y12775D1*
X22592Y12804D1*
X22547Y12852D1*
X22507Y12927D1*
X22266Y13396D1*
X22247Y13458D1*
X22244Y13549D1*
Y13892D1*
X21680Y13893D1*
X20505Y12717D1*
X20456Y12677D1*
X20400Y12647D1*
X20339Y12629D1*
X20277Y12623D1*
X19803D1*
X19739Y12578D1*
X19682Y12551D1*
X19621Y12532D1*
X19558Y12523D1*
X19495D1*
X19432Y12532D1*
X19372Y12551D1*
X19315Y12578D1*
X19262Y12614D1*
X19216Y12658D1*
X19176Y12707D1*
X19134Y12790D1*
X18544Y12200D1*
X18545Y11745D1*
X18615Y11700D1*
X18661Y11657D1*
X18700Y11607D1*
X18732Y11552D1*
X18755Y11493D1*
X18769Y11431D1*
X18773Y11370D1*
X18768Y11306D1*
X18754Y11245D1*
X18731Y11185D1*
X18699Y11131D1*
X18647Y11069D1*
X20862Y11070D1*
X22150D1*
X22246Y11165D1*
X22244Y11595D1*
X22256Y11659D1*
X22295Y11741D1*
X22536Y12209D1*
X22574Y12260D1*
X22626Y12296D1*
X22688Y12314D1*
X22774Y12316D1*
X24519D1*
X24517Y12629D1*
Y12765D1*
X24028Y12764D1*
Y12766D1*
X23228Y17396D2*
X24519D1*
X24517Y17772D1*
Y17845D1*
X24044Y17844D1*
X22974D1*
X22710D1*
X22648Y17855D1*
X22592Y17884D1*
X22547Y17932D1*
X22501Y18019D1*
X22502Y17500D1*
Y17224D1*
X22536Y17289D1*
X22574Y17340D1*
X22626Y17376D1*
X22688Y17394D1*
X22774Y17396D1*
X23228D1*
X11217D2*
X12266Y17394D1*
X12324Y17396D1*
X12530D1*
X12592Y17385D1*
X12648Y17356D1*
X12693Y17308D1*
X12733Y17233D1*
X12974Y16764D1*
X12993Y16702D1*
X12996Y16612D1*
Y16025D1*
X12984Y15961D1*
X12988Y15972D1*
X13007Y15952D1*
X13136D1*
X14510Y17327D1*
X14559Y17367D1*
X14615Y17397D1*
X14676Y17415D1*
X14738Y17421D1*
X15327D1*
X15258Y17456D1*
X15207Y17494D1*
X15171Y17546D1*
X15153Y17608D1*
X15152Y17694D1*
Y19436D1*
X13259Y19437D1*
X11216Y17394D1*
X12012Y12764D2*
X11216D1*
X11648Y12334D1*
X13260Y10722D1*
X14058Y10724D1*
X15306D1*
X15304Y11074D1*
X15306Y11212D1*
X15304Y11417D1*
X15306Y12266D1*
X15304Y12319D1*
Y12530D1*
X15315Y12592D1*
X15344Y12648D1*
X15392Y12693D1*
X15467Y12733D1*
X15936Y12974D1*
X15998Y12993D1*
X16089Y12996D1*
X16675D1*
X16739Y12984D1*
X16821Y12945D1*
X17289Y12704D1*
X17340Y12666D1*
X17376Y12614D1*
X17394Y12552D1*
X17396Y12467D1*
Y10724D1*
X17572D1*
X17510Y10794D1*
X17480Y10850D1*
X17462Y10911D1*
X17456Y10974D1*
Y12441D1*
X17462Y12504D1*
X17480Y12564D1*
X17510Y12620D1*
X17550Y12669D1*
X18149Y13268D1*
X18122Y13332D1*
X18108Y13394D1*
X18104Y13458D1*
X18109Y13521D1*
X18123Y13583D1*
X18146Y13642D1*
X18178Y13697D1*
X18216Y13745D1*
X17178D1*
X17116Y13701D1*
X17059Y13673D1*
X16999Y13654D1*
X16936Y13645D1*
X16872D1*
X16810Y13655D1*
X16751Y13673D1*
X16708Y13591D1*
X16668Y13541D1*
X16622Y13498D1*
X16569Y13463D1*
X16512Y13435D1*
X16451Y13416D1*
X16389Y13407D1*
X16325D1*
X16263Y13417D1*
X16202Y13435D1*
X16145Y13463D1*
X16071Y13519D1*
X16059Y13488D1*
X16028Y13433D1*
X15988Y13384D1*
X15942Y13341D1*
X15889Y13305D1*
X15832Y13278D1*
X15771Y13259D1*
X15709Y13249D1*
X15645Y13250D1*
X15582Y13259D1*
X15522Y13278D1*
X15465Y13305D1*
X15402Y13351D1*
X15036Y13350D1*
X14973Y13356D1*
X14912Y13375D1*
X14856Y13405D1*
X14808Y13444D1*
X14334Y13919D1*
X12994Y13918D1*
X12996Y13627D1*
Y13485D1*
X12984Y13421D1*
X12945Y13339D1*
X12704Y12871D1*
X12666Y12820D1*
X12614Y12784D1*
X12552Y12766D1*
X12467Y12764D1*
X12012D1*
X17243Y19435D2*
X17241Y17894D1*
X17243Y17836D1*
Y17630D1*
X17233Y17568D1*
X17203Y17512D1*
X17147Y17462D1*
X17068Y17421D1*
X17143Y17424D1*
X17192Y17464D1*
X17248Y17494D1*
X17309Y17512D1*
X17371Y17518D1*
X18020D1*
X18026Y17595D1*
X18040Y17657D1*
X18063Y17716D1*
X18095Y17771D1*
X18135Y17820D1*
X18181Y17864D1*
X18234Y17899D1*
X18291Y17926D1*
X18352Y17945D1*
X18415Y17954D1*
X18478D1*
X18541Y17944D1*
X18601Y17925D1*
X18658Y17898D1*
X18711Y17862D1*
X18757Y17819D1*
X18796Y17769D1*
X18831Y17704D1*
X18918Y17618D1*
X18950Y17706D1*
X18982Y17761D1*
X19022Y17810D1*
X19068Y17853D1*
X19121Y17889D1*
X19178Y17916D1*
X19239Y17935D1*
X19301Y17944D1*
X19365D1*
X19428Y17934D1*
X19488Y17915D1*
X19545Y17888D1*
X19597Y17852D1*
X19644Y17808D1*
X19683Y17759D1*
X19715Y17704D1*
X19738Y17644D1*
X19751Y17583D1*
X19756Y17521D1*
X19751Y17458D1*
X19737Y17396D1*
X19714Y17337D1*
X19682Y17282D1*
X19643Y17232D1*
X19596Y17189D1*
X19544Y17154D1*
X19486Y17126D1*
X19426Y17107D1*
X19363Y17098D1*
X19286Y17100D1*
X19408Y16978D1*
X19448Y16929D1*
X19478Y16873D1*
X19496Y16813D1*
X19502Y16750D1*
Y15510D1*
X19563Y15473D1*
X19623Y15454D1*
X19680Y15427D1*
X19733Y15391D1*
X19779Y15347D1*
X19818Y15298D1*
X19850Y15242D1*
X19873Y15183D1*
X19887Y15121D1*
X19891Y15060D1*
X19886Y14997D1*
X19872Y14935D1*
X19849Y14876D1*
X19817Y14821D1*
X19778Y14771D1*
X19731Y14728D1*
X19679Y14692D1*
X19622Y14665D1*
X19561Y14646D1*
X19498Y14637D1*
X19435D1*
X19372Y14647D1*
X19311Y14665D1*
X19254Y14693D1*
X19202Y14729D1*
X19155Y14772D1*
X19116Y14822D1*
X19084Y14877D1*
X19056Y14957D1*
X19050Y14890D1*
X19032Y14830D1*
X19002Y14774D1*
X18962Y14725D1*
X18627Y14390D1*
X20109Y14391D1*
X21858Y16139D1*
X21857Y16956D1*
Y18262D1*
X21863Y18325D1*
X21881Y18386D1*
X21911Y18441D1*
X21951Y18490D1*
X22245Y18783D1*
X22244Y19215D1*
X22256Y19279D1*
X22295Y19361D1*
X22334Y19437D1*
X17244D1*
X17243Y18948D1*
X17241D1*
X21044Y15883D2*
X21030Y15822D1*
X21006Y15762D1*
X20975Y15708D1*
X20935Y15658D1*
X20889Y15615D1*
X20836Y15579D1*
X20779Y15552D1*
X20718Y15533D1*
X20656Y15524D1*
X20592D1*
X20529Y15533D1*
X20469Y15552D1*
X20412Y15580D1*
X20359Y15615D1*
X20313Y15659D1*
X20273Y15708D1*
X20242Y15763D1*
X20219Y15822D1*
X20205Y15884D1*
X20200Y15948D1*
X20205Y16011D1*
X20219Y16073D1*
X20243Y16132D1*
X20274Y16186D1*
X20314Y16236D1*
X20361Y16279D1*
X20413Y16315D1*
X20470Y16342D1*
X20531Y16360D1*
X20594Y16370D1*
X20657D1*
X20720Y16360D1*
X20781Y16341D1*
X20838Y16313D1*
X20890Y16277D1*
X20936Y16234D1*
X20976Y16184D1*
X21007Y16129D1*
X21030Y16070D1*
X21044Y16008D1*
X21048Y15947D1*
X21044Y15883D1*
D17*
X23970Y13810D3*
Y16350D3*
D19*
X25240Y13810D3*
Y16350D3*
G36*
X22710Y17200D2*
X23175D1*
Y15500D1*
X22710D1*
X22440Y16025D1*
Y16675D1*
X22710Y17200D1*
G37*
G36*
Y14660D2*
X23170D1*
Y12960D1*
X22710D1*
X22440Y13485D1*
Y14135D1*
X22710Y14660D1*
G37*
D17*
X11270Y16350D3*
Y13810D3*
D19*
X10000Y16350D3*
Y13810D3*
G36*
X12530Y12960D2*
X12065D1*
Y14660D1*
X12530D1*
X12800Y14135D1*
Y13485D1*
X12530Y12960D1*
G37*
G36*
Y15500D2*
X12070D1*
Y17200D1*
X12530D1*
X12800Y16675D1*
Y16025D1*
X12530Y15500D1*
G37*
D24*
X16197Y18890D3*
X13657D3*
D25*
X16197Y20160D3*
X13657D3*
G36*
X12807Y17630D2*
Y18095D1*
X14507D1*
Y17630D1*
X13982Y17360D1*
X13332D1*
X12807Y17630D1*
G37*
G36*
X15347D2*
Y18090D1*
X17047D1*
Y17630D1*
X16522Y17360D1*
X15872D1*
X15347Y17630D1*
G37*
D24*
X16350Y11270D3*
X13810D3*
G36*
X14660Y12530D2*
Y12065D1*
X12960D1*
Y12530D1*
X13485Y12800D1*
X14135D1*
X14660Y12530D1*
G37*
G36*
X17200D2*
Y12065D1*
X15500D1*
Y12530D1*
X16025Y12800D1*
X16675D1*
X17200Y12530D1*
G37*
D25*
X16350Y10000D3*
X13810D3*
D17*
X23970Y18890D3*
G36*
X22710Y19740D2*
X23175D1*
Y18040D1*
X22710D1*
X22440Y18565D1*
Y19215D1*
X22710Y19740D1*
G37*
D39*
X25240Y18890D3*
D17*
X23970Y11270D3*
G36*
X22710Y12120D2*
X23175D1*
Y10420D1*
X22710D1*
X22440Y10945D1*
Y11595D1*
X22710Y12120D1*
G37*
D39*
X25240Y11270D3*
G36*
X18714Y11724D2*
X18744Y11533D1*
X18803Y11386D1*
X18880Y11292D1*
X18956Y11216D1*
X19068Y11152D1*
X19134Y11127D1*
X19229Y11106D1*
X19280Y11096D1*
X19362Y11091D1*
X19427Y11114D1*
X19465Y11152D1*
X19490Y11177D1*
X19554Y11190D1*
X19580Y11185D1*
X19631Y11170D1*
X19658Y11139D1*
X19757Y11221D1*
X19707Y11297D1*
Y11315D1*
X19795Y11351D1*
X19808Y11406D1*
X19818Y11508D1*
X19565Y11401D1*
X19534D1*
X19490Y11409D1*
X19480Y11431D1*
X19501Y11482D1*
X19616Y11546D1*
X19788Y11617D1*
X19762Y11667D1*
X19699Y11722D1*
X19508Y11647D1*
X19515Y11685D1*
Y11724D1*
X18714D1*
G37*
M02*
