G04 DipTrace 2.4.0.2*
%INST12axis.gbo*%
%MOMM*%
%ADD10C,0.25*%
%ADD17C,0.15*%
%ADD40O,0.863X0.723*%
%ADD61C,0.118*%
%ADD62C,0.111*%
%FSLAX53Y53*%
G04*
G71*
G90*
G75*
G01*
%LNBotSilk*%
%LPD*%
X17459Y16112D2*
D17*
X16229D1*
X16859Y16862D2*
Y15362D1*
X16439Y16562D2*
X17249Y15722D1*
X17279Y15692D2*
X17249Y15842D1*
X16259Y16112D2*
X16439Y15992D1*
Y16232D2*
X16259Y16112D1*
X16934Y15497D2*
X16844Y15317D1*
X16754Y15497D1*
X17279Y15692D2*
X17099Y15722D1*
G36*
X18718Y11722D2*
X19351Y12339D1*
X19698Y11855D1*
X19541Y11729D1*
X18718Y11722D1*
G37*
D40*
X19413Y12004D3*
X18835Y11719D2*
D10*
G02X19338Y12235I586J-68D01*
G01*
X18858Y11705D2*
G03X19478Y11765I219J970D01*
G01*
X21265Y14269D2*
D62*
X22285D1*
X21265Y13817D2*
X22285D1*
X21265Y14158D1*
X22285D1*
X21265Y13536D2*
X22285D1*
X21265Y13706D2*
Y13366D1*
X21507Y12890D2*
X21411Y12914D1*
X21313Y12963D1*
X21265Y13012D1*
Y13109D1*
X21313Y13158D1*
X21411Y13206D1*
X21507Y13231D1*
X21653Y13255D1*
X21897D1*
X22042Y13231D1*
X22139Y13206D1*
X22236Y13158D1*
X22285Y13109D1*
Y13012D1*
X22236Y12963D1*
X22139Y12914D1*
X22042Y12890D1*
X21897D1*
Y13012D1*
X21245Y17090D2*
X22266D1*
Y16920D1*
X22216Y16847D1*
X22120Y16798D1*
X22022Y16774D1*
X21877Y16749D1*
X21634D1*
X21488Y16774D1*
X21391Y16798D1*
X21293Y16847D1*
X21245Y16920D1*
Y17090D1*
Y16323D2*
Y16638D1*
X22266D1*
Y16323D1*
X21731Y16638D2*
Y16444D1*
X21245Y15871D2*
X22266D1*
X21245Y16212D1*
X22266D1*
X17453Y18412D2*
X17648Y19433D1*
X17842Y18412D1*
X17953D2*
Y19433D1*
X18123D1*
X18196Y19384D1*
X18245Y19287D1*
X18269Y19190D1*
X18293Y19045D1*
Y18801D1*
X18269Y18655D1*
X18245Y18558D1*
X18196Y18461D1*
X18123Y18412D1*
X17953D1*
X18405D2*
Y19433D1*
X18575D1*
X18648Y19384D1*
X18697Y19287D1*
X18721Y19190D1*
X18745Y19045D1*
Y18801D1*
X18721Y18655D1*
X18697Y18558D1*
X18648Y18461D1*
X18575Y18412D1*
X18405D1*
X12478Y12534D2*
X12503Y12631D1*
X12551Y12729D1*
X12600Y12777D1*
X12697D1*
X12746Y12729D1*
X12794Y12631D1*
X12819Y12534D1*
X12843Y12388D1*
Y12145D1*
X12819Y12000D1*
X12794Y11902D1*
X12746Y11806D1*
X12697Y11756D1*
X12600D1*
X12551Y11806D1*
X12503Y11902D1*
X12478Y12000D1*
Y12145D1*
X12600D1*
X12027Y12777D2*
Y11756D1*
X12367Y12777D1*
Y11756D1*
X11916Y12777D2*
Y11756D1*
X11746D1*
X11673Y11806D1*
X11624Y11902D1*
X11600Y12000D1*
X11576Y12145D1*
Y12388D1*
X11600Y12534D1*
X11624Y12631D1*
X11673Y12729D1*
X11746Y12777D1*
X11916D1*
X18609Y12629D2*
X18415Y11608D1*
X18220Y12629D1*
X18109D2*
Y11608D1*
X17939D1*
X17866Y11657D1*
X17817Y11754D1*
X17793Y11852D1*
X17769Y11996D1*
Y12240D1*
X17793Y12386D1*
X17817Y12483D1*
X17866Y12580D1*
X17939Y12629D1*
X18109D1*
X17658D2*
Y11608D1*
X17488D1*
X17415Y11657D1*
X17366Y11754D1*
X17342Y11852D1*
X17318Y11996D1*
Y12240D1*
X17342Y12386D1*
X17366Y12483D1*
X17415Y12580D1*
X17488Y12629D1*
X17658D1*
X11914Y17647D2*
X11890Y17550D1*
X11841Y17452D1*
X11793Y17404D1*
X11696D1*
X11647Y17452D1*
X11599Y17550D1*
X11574Y17647D1*
X11550Y17793D1*
Y18036D1*
X11574Y18181D1*
X11599Y18279D1*
X11647Y18375D1*
X11696Y18425D1*
X11793D1*
X11841Y18375D1*
X11890Y18279D1*
X11914Y18181D1*
Y18036D1*
X11793D1*
X12366Y17404D2*
Y18425D1*
X12025Y17404D1*
Y18425D1*
X12477Y17404D2*
Y18425D1*
X12647D1*
X12720Y18375D1*
X12769Y18279D1*
X12793Y18181D1*
X12817Y18036D1*
Y17793D1*
X12793Y17647D1*
X12769Y17550D1*
X12720Y17452D1*
X12647Y17404D1*
X12477D1*
X13886Y13564D2*
X13984Y13516D1*
X14032Y13443D1*
Y13346D1*
X13984Y13273D1*
X13886Y13224D1*
X13789D1*
X13692Y13248D1*
X13643Y13273D1*
X13595Y13321D1*
X13497Y13467D1*
X13449Y13516D1*
X13400Y13540D1*
X13303Y13564D1*
X13157D1*
X13061Y13516D1*
X13011Y13443D1*
Y13346D1*
X13061Y13273D1*
X13157Y13224D1*
X14032Y13675D2*
X13011D1*
Y13845D1*
X13061Y13918D1*
X13157Y13967D1*
X13255Y13991D1*
X13400Y14015D1*
X13643D1*
X13789Y13991D1*
X13886Y13967D1*
X13984Y13918D1*
X14032Y13845D1*
Y13675D1*
X13011Y14516D2*
X14032Y14321D1*
X13011Y14127D1*
X13351Y14200D2*
Y14443D1*
X13866Y15974D2*
X13964Y15926D1*
X14012Y15853D1*
Y15756D1*
X13964Y15683D1*
X13866Y15634D1*
X13770D1*
X13672Y15659D1*
X13624Y15683D1*
X13576Y15731D1*
X13478Y15877D1*
X13430Y15926D1*
X13380Y15950D1*
X13284Y15974D1*
X13138D1*
X13041Y15926D1*
X12992Y15853D1*
Y15756D1*
X13041Y15683D1*
X13138Y15634D1*
X13770Y16450D2*
X13866Y16426D1*
X13964Y16377D1*
X14012Y16329D1*
Y16231D1*
X13964Y16183D1*
X13866Y16134D1*
X13770Y16110D1*
X13624Y16085D1*
X13380D1*
X13235Y16110D1*
X13138Y16134D1*
X13041Y16183D1*
X12992Y16231D1*
Y16329D1*
X13041Y16377D1*
X13138Y16426D1*
X13235Y16450D1*
X14012Y16561D2*
X12992D1*
Y16852D1*
X15677Y13026D2*
Y12710D1*
X14656D1*
X15190D2*
Y12904D1*
X15336Y13162D2*
X14656Y13307D1*
X14462Y13259D1*
X14364Y13210D1*
X14316Y13162D1*
Y13137D1*
X15336Y13453D2*
X14656Y13307D1*
X15677Y13564D2*
X14656D1*
X15190D2*
X15288Y13613D1*
X15336Y13661D1*
Y13734D1*
X15288Y13783D1*
X15190Y13831D1*
X15044Y13856D1*
X14948D1*
X14802Y13831D1*
X14705Y13783D1*
X14656Y13734D1*
Y13661D1*
X14705Y13613D1*
X14802Y13564D1*
X15044Y13967D2*
Y14258D1*
X15142D1*
X15240Y14234D1*
X15288Y14210D1*
X15336Y14161D1*
Y14088D1*
X15288Y14040D1*
X15190Y13991D1*
X15044Y13967D1*
X14948D1*
X14802Y13991D1*
X14705Y14040D1*
X14656Y14088D1*
Y14161D1*
X14705Y14210D1*
X14802Y14258D1*
X15336Y14369D2*
X14656D1*
X15044D2*
X15190Y14394D1*
X15288Y14442D1*
X15336Y14491D1*
Y14564D1*
X15677Y15123D2*
X14656D1*
Y15415D1*
X15336Y15817D2*
X14656D1*
X15190D2*
X15288Y15769D1*
X15336Y15720D1*
Y15648D1*
X15288Y15599D1*
X15190Y15550D1*
X15044Y15526D1*
X14948D1*
X14802Y15550D1*
X14705Y15599D1*
X14656Y15648D1*
Y15720D1*
X14705Y15769D1*
X14802Y15817D1*
X15677Y15928D2*
X14656D1*
X15190D2*
X15288Y15977D1*
X15336Y16025D1*
Y16098D1*
X15288Y16147D1*
X15190Y16196D1*
X15044Y16220D1*
X14948D1*
X14802Y16196D1*
X14705Y16147D1*
X14656Y16098D1*
Y16025D1*
X14705Y15977D1*
X14802Y15928D1*
X15190Y16598D2*
X15288Y16574D1*
X15336Y16501D1*
Y16428D1*
X15288Y16355D1*
X15190Y16331D1*
X15094Y16355D1*
X15044Y16404D1*
X14996Y16525D1*
X14948Y16574D1*
X14850Y16598D1*
X14802D1*
X14705Y16574D1*
X14656Y16501D1*
Y16428D1*
X14705Y16355D1*
X14802Y16331D1*
X15677Y17157D2*
X14656D1*
X15336Y17268D2*
X14656D1*
X15142D2*
X15288Y17341D1*
X15336Y17390D1*
Y17463D1*
X15288Y17512D1*
X15142Y17536D1*
X14656D1*
X15190Y17939D2*
X15288Y17890D1*
X15336Y17841D1*
Y17769D1*
X15288Y17720D1*
X15190Y17672D1*
X15044Y17647D1*
X14948D1*
X14802Y17672D1*
X14705Y17720D1*
X14656Y17769D1*
Y17841D1*
X14705Y17890D1*
X14802Y17939D1*
X14754Y18074D2*
X14704Y18050D1*
X14656Y18074D1*
X14704Y18099D1*
X14754Y18074D1*
X20822Y12070D2*
X20871Y12119D1*
X21016Y12192D1*
X19996D1*
X20773Y12328D2*
X20822D1*
X20919Y12352D1*
X20968Y12376D1*
X21016Y12425D1*
Y12522D1*
X20968Y12570D1*
X20919Y12594D1*
X20822Y12619D1*
X20725D1*
X20627Y12594D1*
X20482Y12546D1*
X19996Y12303D1*
Y12643D1*
X20677Y13046D2*
X19996D1*
X20531D2*
X20628Y12998D1*
X20677Y12949D1*
Y12876D1*
X20628Y12827D1*
X20531Y12779D1*
X20385Y12754D1*
X20288D1*
X20142Y12779D1*
X20046Y12827D1*
X19996Y12876D1*
Y12949D1*
X20046Y12998D1*
X20142Y13046D1*
X20677Y13157D2*
X19996Y13424D1*
X20677D2*
X19996Y13157D1*
X21017Y13535D2*
X20969Y13560D1*
X21017Y13584D1*
X21066Y13560D1*
X21017Y13535D1*
X20677Y13560D2*
X19996D1*
X20531Y13963D2*
X20628Y13938D1*
X20677Y13865D1*
Y13792D1*
X20628Y13719D1*
X20531Y13695D1*
X20434Y13719D1*
X20385Y13768D1*
X20336Y13890D1*
X20288Y13938D1*
X20190Y13963D1*
X20142D1*
X20046Y13938D1*
X19996Y13865D1*
Y13792D1*
X20046Y13719D1*
X20142Y13695D1*
X20991Y14795D2*
Y14479D1*
X19971D1*
X20505D2*
Y14674D1*
X20991Y14906D2*
X19971D1*
X20359Y15018D2*
Y15309D1*
X20457D1*
X20555Y15285D1*
X20603Y15261D1*
X20651Y15212D1*
Y15139D1*
X20603Y15091D1*
X20505Y15042D1*
X20359Y15018D1*
X20263D1*
X20117Y15042D1*
X20020Y15091D1*
X19971Y15139D1*
Y15212D1*
X20020Y15261D1*
X20117Y15309D1*
X20651Y15420D2*
X19971Y15687D1*
X20651D2*
X19971Y15420D1*
Y16635D2*
X20991D1*
X19971Y16441D1*
X20991Y16247D1*
X19971D1*
X20651Y16868D2*
X20603Y16819D1*
X20505Y16770D1*
X20359Y16746D1*
X20263D1*
X20117Y16770D1*
X20020Y16819D1*
X19971Y16868D1*
Y16941D1*
X20020Y16989D1*
X20117Y17038D1*
X20263Y17062D1*
X20359D1*
X20505Y17038D1*
X20603Y16989D1*
X20651Y16941D1*
Y16868D1*
X20991Y17465D2*
X19971D1*
X20505D2*
X20603Y17417D1*
X20651Y17368D1*
Y17295D1*
X20603Y17247D1*
X20505Y17198D1*
X20359Y17174D1*
X20263D1*
X20117Y17198D1*
X20020Y17247D1*
X19971Y17295D1*
Y17368D1*
X20020Y17417D1*
X20117Y17465D1*
X20651Y17576D2*
X20165D1*
X20020Y17600D1*
X19971Y17649D1*
Y17722D1*
X20020Y17770D1*
X20165Y17843D1*
X20651D2*
X19971D1*
X20991Y17954D2*
X19971D1*
X20359Y18066D2*
Y18357D1*
X20457D1*
X20555Y18333D1*
X20603Y18309D1*
X20651Y18260D1*
Y18187D1*
X20603Y18139D1*
X20505Y18090D1*
X20359Y18066D1*
X20263D1*
X20117Y18090D1*
X20020Y18139D1*
X19971Y18187D1*
Y18260D1*
X20020Y18309D1*
X20117Y18357D1*
X19255Y13327D2*
Y13545D1*
X19304Y13618D1*
X19353Y13643D1*
X19449Y13667D1*
X19547D1*
X19643Y13643D1*
X19693Y13618D1*
X19741Y13545D1*
Y13327D1*
X18720D1*
X19255Y13497D2*
X18720Y13667D1*
X19740Y13924D2*
X19692Y13851D1*
X19546Y13802D1*
X19303Y13778D1*
X19157D1*
X18915Y13802D1*
X18769Y13851D1*
X18720Y13924D1*
Y13973D1*
X18769Y14046D1*
X18915Y14094D1*
X19157Y14119D1*
X19303D1*
X19546Y14094D1*
X19692Y14046D1*
X19740Y13973D1*
Y13924D1*
X19546Y14094D2*
X18915Y13802D1*
X18818Y14254D2*
X18769Y14230D1*
X18720Y14254D1*
X18769Y14279D1*
X18818Y14254D1*
X19401Y14706D2*
X19255Y14681D1*
X19157Y14633D1*
X19109Y14560D1*
Y14536D1*
X19157Y14463D1*
X19255Y14414D1*
X19401Y14390D1*
X19449D1*
X19595Y14414D1*
X19692Y14463D1*
X19740Y14536D1*
Y14560D1*
X19692Y14633D1*
X19595Y14681D1*
X19401Y14706D1*
X19157D1*
X18915Y14681D1*
X18769Y14633D1*
X18720Y14560D1*
Y14511D1*
X18769Y14438D1*
X18866Y14414D1*
X18034Y13090D2*
X18083D1*
X18180Y13114D1*
X18229Y13139D1*
X18277Y13187D1*
Y13285D1*
X18229Y13333D1*
X18180Y13357D1*
X18083Y13382D1*
X17986D1*
X17888Y13357D1*
X17743Y13309D1*
X17257Y13066D1*
Y13406D1*
X18277Y13663D2*
X18229Y13590D1*
X18083Y13541D1*
X17840Y13517D1*
X17694D1*
X17451Y13541D1*
X17305Y13590D1*
X17257Y13663D1*
Y13711D1*
X17305Y13784D1*
X17451Y13833D1*
X17694Y13857D1*
X17840D1*
X18083Y13832D1*
X18229Y13784D1*
X18277Y13711D1*
Y13663D1*
X18083Y13832D2*
X17451Y13541D1*
X18083Y13968D2*
X18132Y14017D1*
X18277Y14090D1*
X17257D1*
X18277Y14493D2*
Y14250D1*
X17840Y14226D1*
X17888Y14250D1*
X17938Y14323D1*
Y14396D1*
X17888Y14469D1*
X17792Y14517D1*
X17646Y14542D1*
X17549D1*
X17403Y14517D1*
X17305Y14469D1*
X17257Y14396D1*
Y14323D1*
X17305Y14250D1*
X17355Y14226D1*
X17451Y14201D1*
X21234Y19553D2*
X22255D1*
Y19383D1*
X22206Y19310D1*
X22109Y19261D1*
X22011Y19237D1*
X21866Y19213D1*
X21623D1*
X21477Y19237D1*
X21380Y19261D1*
X21282Y19310D1*
X21234Y19383D1*
Y19553D1*
X21720Y19102D2*
Y18883D1*
X21671Y18810D1*
X21623Y18786D1*
X21526Y18761D1*
X21428D1*
X21332Y18786D1*
X21282Y18810D1*
X21234Y18883D1*
Y19102D1*
X22255D1*
X21720Y18932D2*
X22255Y18761D1*
X21234Y18650D2*
X22255D1*
Y18480D1*
X22206Y18407D1*
X22109Y18358D1*
X22011Y18334D1*
X21866Y18310D1*
X21623D1*
X21477Y18334D1*
X21380Y18358D1*
X21282Y18407D1*
X21234Y18480D1*
Y18650D1*
Y18199D2*
X21720Y18005D1*
X22255D1*
X21234Y17810D2*
X21720Y18005D1*
X21314Y11984D2*
X22335D1*
X21314Y11532D2*
X22335D1*
X21314Y11873D1*
X22335D1*
X21314Y11251D2*
X22335D1*
X21314Y11421D2*
Y11081D1*
X22335Y10581D2*
X21314D1*
X22335Y10776D1*
X21314Y10970D1*
X22335D1*
X17808Y17283D2*
D61*
X18574Y17028D1*
X17808D2*
X18574Y17283D1*
X15467Y15688D2*
X15613Y16053D1*
Y16454D1*
X15759Y15688D2*
X15613Y16053D1*
X18348Y15333D2*
Y15078D1*
X19113Y15333D1*
Y15078D1*
M02*
