G04 DipTrace 2.4.0.2*
%INST12axis.gtp*%
%MOMM*%
%ADD18R,0.9X0.7*%
%ADD19R,0.7X0.9*%
%ADD20R,1.0X1.1*%
%ADD30R,0.5X0.525*%
%ADD31R,0.5X0.25*%
%ADD33R,0.5X0.4*%
%ADD35R,0.35X0.5*%
%ADD37O,0.23X0.7*%
%ADD38O,0.7X0.23*%
%FSLAX53Y53*%
G04*
G71*
G90*
G75*
G01*
%LNTopPaste*%
%LPD*%
D18*
X18405Y18735D3*
X19705D3*
X21006Y18751D3*
X22306D3*
D19*
X21116Y15633D3*
Y16933D3*
D20*
X22522Y13638D3*
Y11938D3*
D19*
X21316Y13165D3*
Y11865D3*
X22354Y16047D3*
Y17347D3*
D30*
X15800Y17274D3*
D31*
Y16634D3*
Y16134D3*
D30*
Y15499D3*
X16700D3*
D31*
Y16134D3*
Y16634D3*
D30*
Y17274D3*
D33*
X12372Y13274D3*
Y12574D3*
X13372D3*
Y13274D3*
D35*
X19822Y17836D3*
X19172D3*
X18522D3*
X17872D3*
Y15836D3*
X18522D3*
X19172D3*
X19822D3*
D37*
X19726Y14927D3*
X19296D3*
X18866D3*
X18436D3*
D38*
X17681Y14782D3*
Y14352D3*
Y13922D3*
Y13492D3*
Y13062D3*
Y12632D3*
Y12202D3*
Y11772D3*
D37*
X18436Y11627D3*
X18866D3*
X19296D3*
X19726D3*
D38*
X20481Y11772D3*
Y12202D3*
Y12632D3*
Y13062D3*
Y13492D3*
Y13922D3*
Y14352D3*
Y14782D3*
M02*
