G04 DipTrace 2.4.0.2*
%INkeypad.gbo*%
%MOMM*%
%ADD10C,0.25*%
%ADD36O,0.863X0.723*%
%ADD54C,0.111*%
%ADD55C,0.235*%
%FSLAX53Y53*%
G04*
G71*
G90*
G75*
G01*
%LNBotSilk*%
%LPD*%
G36*
X20985Y25011D2*
X20352Y24394D1*
X20005Y24877D1*
X20162Y25004D1*
X20985Y25011D1*
G37*
D36*
X20290Y24729D3*
X20869Y25014D2*
D10*
G02X20366Y24497I-586J68D01*
G01*
X20846Y25027D2*
G03X20226Y24967I-219J-970D01*
G01*
X20046Y18446D2*
D55*
X19973D1*
X19827Y18403D1*
X19754Y18359D1*
X19682Y18271D1*
Y18096D1*
X19754Y18009D1*
X19827Y17966D1*
X19973Y17922D1*
X20118D1*
X20265Y17966D1*
X20482Y18053D1*
X21211Y18491D1*
Y17878D1*
X19682Y17333D2*
X19754Y17464D1*
X19973Y17552D1*
X20337Y17596D1*
X20556D1*
X20920Y17552D1*
X21139Y17464D1*
X21211Y17333D1*
Y17246D1*
X21139Y17115D1*
X20920Y17028D1*
X20556Y16983D1*
X20337D1*
X19973Y17028D1*
X19754Y17115D1*
X19682Y17246D1*
Y17333D1*
X19973Y17028D2*
X20920Y17552D1*
X19973Y16701D2*
X19899Y16613D1*
X19682Y16482D1*
X21211Y16481D1*
X19682Y15675D2*
Y16111D1*
X20337Y16155D1*
X20265Y16111D1*
X20190Y15980D1*
Y15849D1*
X20265Y15718D1*
X20409Y15630D1*
X20628Y15587D1*
X20773D1*
X20992Y15630D1*
X21139Y15718D1*
X21211Y15849D1*
Y15980D1*
X21139Y16111D1*
X21065Y16155D1*
X20920Y16199D1*
X22573Y20922D2*
Y20529D1*
X22499Y20398D1*
X22426Y20353D1*
X22282Y20310D1*
X22135D1*
X21990Y20353D1*
X21916Y20398D1*
X21844Y20529D1*
Y20922D1*
X23375D1*
X22573Y20616D2*
X23375Y20310D1*
X22792Y20027D2*
Y19503D1*
X22645D1*
X22499Y19546D1*
X22426Y19590D1*
X22354Y19678D1*
Y19809D1*
X22426Y19896D1*
X22573Y19984D1*
X22792Y20027D1*
X22937D1*
X23156Y19984D1*
X23301Y19896D1*
X23375Y19809D1*
Y19678D1*
X23301Y19590D1*
X23156Y19503D1*
X22354Y19220D2*
X23375Y18958D1*
X22354Y18696D1*
X21845Y17262D2*
X21918Y17393D1*
X22137Y17481D1*
X22501Y17525D1*
X22720D1*
X23083Y17481D1*
X23302Y17393D1*
X23375Y17262D1*
Y17175D1*
X23302Y17043D1*
X23083Y16956D1*
X22720Y16912D1*
X22501D1*
X22137Y16956D1*
X21918Y17043D1*
X21845Y17175D1*
Y17262D1*
X22137Y16956D2*
X23083Y17481D1*
X23228Y16586D2*
X23302Y16630D1*
X23375Y16586D1*
X23302Y16542D1*
X23228Y16586D1*
X21845Y15735D2*
Y16171D1*
X22501Y16215D1*
X22428Y16171D1*
X22354Y16040D1*
Y15910D1*
X22428Y15778D1*
X22573Y15690D1*
X22792Y15647D1*
X22937D1*
X23156Y15690D1*
X23302Y15778D1*
X23375Y15910D1*
Y16040D1*
X23302Y16171D1*
X23228Y16215D1*
X23083Y16259D1*
X17333Y26093D2*
Y26662D1*
X18864D1*
X18062D2*
Y26312D1*
X17843Y25766D2*
X18864Y25504D1*
X19155Y25591D1*
X19302Y25679D1*
X19374Y25766D1*
Y25811D1*
X17843Y25242D2*
X18864Y25504D1*
X17333Y24959D2*
X18864D1*
X18062D2*
X17915Y24871D1*
X17843Y24784D1*
Y24653D1*
X17915Y24566D1*
X18062Y24478D1*
X18281Y24435D1*
X18426D1*
X18645Y24478D1*
X18790Y24566D1*
X18864Y24653D1*
Y24784D1*
X18790Y24871D1*
X18645Y24959D1*
X18281Y24152D2*
Y23628D1*
X18134D1*
X17988Y23671D1*
X17915Y23715D1*
X17843Y23803D1*
Y23934D1*
X17915Y24021D1*
X18062Y24109D1*
X18281Y24152D1*
X18426D1*
X18645Y24109D1*
X18790Y24021D1*
X18864Y23934D1*
Y23803D1*
X18790Y23715D1*
X18645Y23628D1*
X17843Y23345D2*
X18864D1*
X18281D2*
X18062Y23301D1*
X17915Y23214D1*
X17843Y23126D1*
Y22995D1*
X17333Y21823D2*
X18864D1*
Y21299D1*
X17843Y20492D2*
X18864D1*
X18062D2*
X17915Y20579D1*
X17843Y20667D1*
Y20797D1*
X17915Y20885D1*
X18062Y20972D1*
X18281Y21016D1*
X18426D1*
X18645Y20972D1*
X18790Y20885D1*
X18864Y20797D1*
Y20667D1*
X18790Y20579D1*
X18645Y20492D1*
X17333Y20210D2*
X18864D1*
X18062D2*
X17915Y20122D1*
X17843Y20035D1*
Y19903D1*
X17915Y19816D1*
X18062Y19728D1*
X18281Y19685D1*
X18426D1*
X18645Y19728D1*
X18790Y19816D1*
X18864Y19903D1*
Y20035D1*
X18790Y20122D1*
X18645Y20210D1*
X18062Y18921D2*
X17915Y18965D1*
X17843Y19096D1*
Y19228D1*
X17915Y19359D1*
X18062Y19403D1*
X18207Y19359D1*
X18281Y19271D1*
X18353Y19053D1*
X18426Y18965D1*
X18572Y18921D1*
X18645D1*
X18790Y18965D1*
X18864Y19096D1*
Y19228D1*
X18790Y19359D1*
X18645Y19403D1*
X17333Y17750D2*
X18864D1*
X17843Y17468D2*
X18864D1*
X18134D2*
X17915Y17337D1*
X17843Y17249D1*
Y17118D1*
X17915Y17030D1*
X18134Y16987D1*
X18864D1*
X18062Y16179D2*
X17915Y16267D1*
X17843Y16355D1*
Y16485D1*
X17915Y16573D1*
X18062Y16660D1*
X18281Y16704D1*
X18426D1*
X18645Y16660D1*
X18790Y16573D1*
X18864Y16485D1*
Y16355D1*
X18790Y16267D1*
X18645Y16179D1*
X18717Y15853D2*
X18791Y15897D1*
X18864Y15853D1*
X18791Y15809D1*
X18717Y15853D1*
X15023Y21878D2*
Y22447D1*
X16555D1*
X15753D2*
Y22097D1*
X15023Y21596D2*
X16555D1*
X15972Y21313D2*
Y20789D1*
X15825D1*
X15679Y20832D1*
X15606Y20876D1*
X15534Y20964D1*
Y21095D1*
X15606Y21182D1*
X15753Y21270D1*
X15972Y21313D1*
X16117D1*
X16336Y21270D1*
X16481Y21182D1*
X16555Y21095D1*
Y20964D1*
X16481Y20876D1*
X16336Y20789D1*
X15534Y20506D2*
X16555Y20025D1*
X15534D2*
X16555Y20506D1*
Y18155D2*
X15023D1*
X16555Y18504D1*
X15023Y18854D1*
X16555D1*
X15534Y17654D2*
X15606Y17741D1*
X15753Y17829D1*
X15972Y17872D1*
X16117D1*
X16336Y17829D1*
X16481Y17741D1*
X16555Y17654D1*
Y17523D1*
X16481Y17435D1*
X16336Y17348D1*
X16117Y17303D1*
X15972D1*
X15753Y17348D1*
X15606Y17435D1*
X15534Y17523D1*
Y17654D1*
X15023Y16496D2*
X16555D1*
X15753D2*
X15606Y16583D1*
X15534Y16671D1*
Y16803D1*
X15606Y16889D1*
X15753Y16977D1*
X15972Y17021D1*
X16117D1*
X16336Y16977D1*
X16481Y16889D1*
X16555Y16803D1*
Y16671D1*
X16481Y16583D1*
X16336Y16496D1*
X15534Y16214D2*
X16263D1*
X16481Y16170D1*
X16555Y16083D1*
Y15951D1*
X16481Y15864D1*
X16263Y15733D1*
X15534D2*
X16555D1*
X15023Y15450D2*
X16555D1*
X15972Y15168D2*
Y14643D1*
X15825D1*
X15679Y14687D1*
X15606Y14730D1*
X15534Y14818D1*
Y14950D1*
X15606Y15037D1*
X15753Y15125D1*
X15972Y15168D1*
X16117D1*
X16336Y15125D1*
X16481Y15037D1*
X16555Y14950D1*
Y14818D1*
X16481Y14730D1*
X16336Y14643D1*
X14969Y28185D2*
X16500D1*
X14969Y27572D2*
X15990Y28185D1*
X15624Y27967D2*
X16500Y27572D1*
X15917Y27290D2*
Y26765D1*
X15771D1*
X15624Y26809D1*
X15552Y26852D1*
X15479Y26940D1*
Y27072D1*
X15552Y27159D1*
X15698Y27247D1*
X15917Y27290D1*
X16062D1*
X16281Y27247D1*
X16426Y27159D1*
X16500Y27072D1*
Y26940D1*
X16426Y26852D1*
X16281Y26765D1*
X15479Y26439D2*
X16500Y26177D1*
X16791Y26264D1*
X16938Y26352D1*
X17010Y26439D1*
Y26483D1*
X15479Y25914D2*
X16500Y26177D1*
X15479Y25632D2*
X17010D1*
X15698D2*
X15553Y25544D1*
X15479Y25457D1*
Y25325D1*
X15553Y25237D1*
X15698Y25151D1*
X15917Y25106D1*
X16064D1*
X16281Y25151D1*
X16428Y25237D1*
X16500Y25325D1*
Y25457D1*
X16428Y25544D1*
X16281Y25632D1*
X15479Y24299D2*
X16500D1*
X15698D2*
X15552Y24386D1*
X15479Y24474D1*
Y24604D1*
X15552Y24692D1*
X15698Y24779D1*
X15917Y24824D1*
X16062D1*
X16281Y24779D1*
X16426Y24692D1*
X16500Y24604D1*
Y24474D1*
X16426Y24386D1*
X16281Y24299D1*
X14969Y23492D2*
X16500D1*
X15698D2*
X15552Y23579D1*
X15479Y23667D1*
Y23798D1*
X15552Y23885D1*
X15698Y23973D1*
X15917Y24017D1*
X16062D1*
X16281Y23973D1*
X16426Y23885D1*
X16500Y23798D1*
Y23667D1*
X16426Y23579D1*
X16281Y23492D1*
X22037Y28927D2*
D54*
X22270Y29948D1*
X22503Y28927D1*
X22636D2*
Y29948D1*
X22840D1*
X22928Y29899D1*
X22987Y29802D1*
X23016Y29705D1*
X23045Y29560D1*
Y29316D1*
X23016Y29170D1*
X22987Y29073D1*
X22928Y28976D1*
X22840Y28927D1*
X22636D1*
X23178D2*
Y29948D1*
X23382D1*
X23470Y29899D1*
X23528Y29802D1*
X23557Y29705D1*
X23586Y29560D1*
Y29316D1*
X23557Y29170D1*
X23528Y29073D1*
X23470Y28976D1*
X23382Y28927D1*
X23178D1*
X20670Y29152D2*
X20641Y29056D1*
X20582Y28958D1*
X20524Y28910D1*
X20408D1*
X20349Y28958D1*
X20291Y29056D1*
X20261Y29152D1*
X20232Y29298D1*
Y29542D1*
X20261Y29687D1*
X20291Y29785D1*
X20349Y29881D1*
X20408Y29931D1*
X20524D1*
X20582Y29881D1*
X20641Y29785D1*
X20670Y29687D1*
Y29542D1*
X20524D1*
X21211Y28910D2*
Y29931D1*
X20803Y28910D1*
Y29931D1*
X21345Y28910D2*
Y29931D1*
X21549D1*
X21636Y29881D1*
X21695Y29785D1*
X21724Y29687D1*
X21753Y29542D1*
Y29298D1*
X21724Y29152D1*
X21695Y29056D1*
X21636Y28958D1*
X21549Y28910D1*
X21345D1*
X18765Y29075D2*
X18707Y28977D1*
X18619Y28929D1*
X18503D1*
X18415Y28977D1*
X18357Y29075D1*
Y29171D1*
X18386Y29269D1*
X18415Y29317D1*
X18473Y29366D1*
X18648Y29463D1*
X18707Y29512D1*
X18736Y29561D1*
X18765Y29658D1*
Y29804D1*
X18707Y29900D1*
X18619Y29950D1*
X18503D1*
X18415Y29900D1*
X18357Y29804D1*
X19336Y29171D2*
X19307Y29075D1*
X19248Y28977D1*
X19190Y28929D1*
X19074D1*
X19015Y28977D1*
X18957Y29075D1*
X18927Y29171D1*
X18898Y29317D1*
Y29561D1*
X18927Y29706D1*
X18957Y29804D1*
X19015Y29900D1*
X19074Y29950D1*
X19190D1*
X19248Y29900D1*
X19307Y29804D1*
X19336Y29706D1*
X19469Y28929D2*
Y29950D1*
X19819D1*
X16575Y29074D2*
X16518Y28976D1*
X16430Y28928D1*
X16313D1*
X16226Y28976D1*
X16167Y29074D1*
Y29171D1*
X16197Y29268D1*
X16226Y29317D1*
X16284Y29365D1*
X16459Y29463D1*
X16518Y29511D1*
X16546Y29560D1*
X16575Y29657D1*
Y29803D1*
X16518Y29900D1*
X16430Y29949D1*
X16313D1*
X16226Y29900D1*
X16167Y29803D1*
X16709Y28928D2*
Y29949D1*
X16913D1*
X17001Y29900D1*
X17059Y29803D1*
X17088Y29705D1*
X17117Y29560D1*
Y29317D1*
X17088Y29171D1*
X17059Y29074D1*
X17001Y28976D1*
X16913Y28928D1*
X16709D1*
X17717Y29949D2*
X17484Y28928D1*
X17250Y29949D1*
X17338Y29609D2*
X17630D1*
X14074Y29965D2*
X14482Y28945D1*
X14615Y28944D2*
Y29965D1*
X15157Y28944D2*
Y29965D1*
X14749Y28944D1*
Y29965D1*
X15494Y28944D2*
Y29965D1*
X15290Y28944D2*
X15699D1*
X24875Y29990D2*
X23855Y29581D1*
X24341Y29448D2*
Y29186D1*
X24291Y29098D1*
X24243Y29069D1*
X24146Y29040D1*
X24049D1*
X23952Y29069D1*
X23903Y29098D1*
X23854Y29186D1*
Y29448D1*
X24875D1*
X24341Y29244D2*
X24875Y29040D1*
X24000Y28498D2*
X23903Y28556D1*
X23854Y28643D1*
Y28760D1*
X23903Y28848D1*
X24000Y28906D1*
X24097D1*
X24195Y28877D1*
X24243Y28848D1*
X24291Y28790D1*
X24389Y28614D1*
X24437Y28556D1*
X24487Y28527D1*
X24583Y28498D1*
X24729D1*
X24826Y28556D1*
X24875Y28643D1*
Y28760D1*
X24826Y28848D1*
X24729Y28906D1*
X23854Y28160D2*
X24875D1*
X23854Y28365D2*
Y27956D1*
X24083Y26486D2*
X23986Y26515D1*
X23889Y26574D1*
X23840Y26632D1*
Y26749D1*
X23889Y26807D1*
X23986Y26865D1*
X24083Y26895D1*
X24229Y26924D1*
X24473D1*
X24618Y26895D1*
X24715Y26865D1*
X24812Y26807D1*
X24861Y26749D1*
Y26632D1*
X24812Y26574D1*
X24715Y26515D1*
X24618Y26486D1*
X24181Y25974D2*
X24327Y26003D1*
X24424Y26061D1*
X24473Y26149D1*
Y26178D1*
X24424Y26266D1*
X24327Y26323D1*
X24181Y26353D1*
X24132D1*
X23986Y26323D1*
X23890Y26266D1*
X23841Y26178D1*
Y26149D1*
X23890Y26061D1*
X23986Y26003D1*
X24181Y25974D1*
X24424D1*
X24667Y26003D1*
X24813Y26061D1*
X24861Y26149D1*
Y26207D1*
X24813Y26295D1*
X24715Y26323D1*
X13438Y28506D2*
Y28768D1*
X13487Y28856D1*
X13536Y28885D1*
X13632Y28914D1*
X13730D1*
X13826Y28885D1*
X13876Y28856D1*
X13924Y28768D1*
Y28506D1*
X12903D1*
X13438Y28710D2*
X12903Y28914D1*
Y29164D2*
X13923Y29456D1*
Y29047D1*
X24068Y24000D2*
X23972Y24029D1*
X23874Y24088D1*
X23826Y24146D1*
Y24262D1*
X23874Y24321D1*
X23972Y24379D1*
X24068Y24409D1*
X24214Y24438D1*
X24458D1*
X24603Y24409D1*
X24701Y24379D1*
X24797Y24321D1*
X24847Y24262D1*
Y24146D1*
X24797Y24088D1*
X24701Y24029D1*
X24603Y24000D1*
X23827Y23721D2*
X23875Y23808D1*
X23972Y23838D1*
X24069D1*
X24166Y23808D1*
X24215Y23750D1*
X24264Y23634D1*
X24312Y23546D1*
X24410Y23488D1*
X24506Y23459D1*
X24652D1*
X24749Y23488D1*
X24798Y23517D1*
X24847Y23605D1*
Y23721D1*
X24798Y23808D1*
X24749Y23838D1*
X24652Y23867D1*
X24506D1*
X24410Y23838D1*
X24312Y23779D1*
X24264Y23693D1*
X24215Y23576D1*
X24166Y23517D1*
X24069Y23488D1*
X23972D1*
X23875Y23517D1*
X23827Y23605D1*
Y23721D1*
X24068Y21366D2*
X23972Y21395D1*
X23874Y21454D1*
X23826Y21512D1*
Y21628D1*
X23874Y21687D1*
X23972Y21745D1*
X24068Y21774D1*
X24214Y21803D1*
X24458D1*
X24603Y21774D1*
X24701Y21745D1*
X24797Y21687D1*
X24847Y21628D1*
Y21512D1*
X24797Y21454D1*
X24701Y21395D1*
X24603Y21366D1*
X24847Y21116D2*
X23827Y20824D1*
Y21233D1*
X24091Y18976D2*
X23995Y19005D1*
X23897Y19063D1*
X23849Y19121D1*
Y19238D1*
X23897Y19297D1*
X23995Y19354D1*
X24091Y19384D1*
X24237Y19413D1*
X24481D1*
X24626Y19384D1*
X24723Y19354D1*
X24820Y19297D1*
X24869Y19238D1*
Y19121D1*
X24820Y19063D1*
X24723Y19005D1*
X24626Y18976D1*
X23995Y18493D2*
X23898Y18522D1*
X23850Y18609D1*
Y18667D1*
X23898Y18755D1*
X24044Y18813D1*
X24287Y18842D1*
X24529D1*
X24723Y18813D1*
X24821Y18755D1*
X24869Y18667D1*
Y18638D1*
X24821Y18551D1*
X24723Y18493D1*
X24577Y18464D1*
X24529D1*
X24383Y18493D1*
X24287Y18551D1*
X24238Y18638D1*
Y18667D1*
X24287Y18755D1*
X24383Y18813D1*
X24529Y18842D1*
X24093Y16450D2*
X23997Y16479D1*
X23899Y16538D1*
X23851Y16596D1*
Y16713D1*
X23899Y16771D1*
X23997Y16829D1*
X24093Y16859D1*
X24239Y16888D1*
X24483D1*
X24628Y16859D1*
X24726Y16829D1*
X24822Y16771D1*
X24872Y16713D1*
Y16596D1*
X24822Y16538D1*
X24726Y16479D1*
X24628Y16450D1*
X23852Y15967D2*
Y16258D1*
X24289Y16287D1*
X24241Y16258D1*
X24191Y16171D1*
Y16084D1*
X24241Y15996D1*
X24337Y15938D1*
X24483Y15909D1*
X24580D1*
X24726Y15938D1*
X24823Y15996D1*
X24872Y16084D1*
Y16171D1*
X24823Y16258D1*
X24774Y16287D1*
X24677Y16317D1*
X24093Y14551D2*
X23997Y14580D1*
X23899Y14638D1*
X23851Y14696D1*
Y14813D1*
X23899Y14871D1*
X23997Y14929D1*
X24093Y14959D1*
X24239Y14988D1*
X24483D1*
X24628Y14959D1*
X24726Y14929D1*
X24822Y14871D1*
X24872Y14813D1*
Y14696D1*
X24822Y14638D1*
X24726Y14580D1*
X24628Y14551D1*
X24872Y14125D2*
X23852D1*
X24531Y14417D1*
Y13980D1*
X23564Y13681D2*
X23592Y13778D1*
X23651Y13876D1*
X23709Y13924D1*
X23826D1*
X23884Y13876D1*
X23942Y13778D1*
X23972Y13681D1*
X24001Y13535D1*
Y13292D1*
X23972Y13147D1*
X23942Y13049D1*
X23884Y12953D1*
X23826Y12903D1*
X23709D1*
X23651Y12953D1*
X23592Y13049D1*
X23564Y13147D1*
X23372Y13923D2*
X23051D1*
X23226Y13534D1*
X23138D1*
X23080Y13486D1*
X23051Y13438D1*
X23022Y13292D1*
Y13195D1*
X23051Y13049D1*
X23109Y12951D1*
X23197Y12903D1*
X23285D1*
X23372Y12951D1*
X23401Y13001D1*
X23430Y13097D1*
X21459Y13683D2*
X21488Y13780D1*
X21547Y13877D1*
X21605Y13926D1*
X21721D1*
X21780Y13877D1*
X21838Y13780D1*
X21867Y13683D1*
X21896Y13537D1*
Y13293D1*
X21867Y13149D1*
X21838Y13051D1*
X21780Y12954D1*
X21721Y12905D1*
X21605D1*
X21547Y12954D1*
X21488Y13051D1*
X21459Y13149D1*
X21296Y13682D2*
Y13730D1*
X21267Y13828D1*
X21238Y13876D1*
X21179Y13925D1*
X21063D1*
X21005Y13876D1*
X20976Y13828D1*
X20946Y13730D1*
Y13634D1*
X20976Y13536D1*
X21034Y13391D1*
X21326Y12905D1*
X20917D1*
X18806Y13688D2*
X18835Y13785D1*
X18894Y13883D1*
X18952Y13931D1*
X19068D1*
X19127Y13883D1*
X19185Y13785D1*
X19215Y13688D1*
X19244Y13542D1*
Y13299D1*
X19215Y13154D1*
X19185Y13056D1*
X19127Y12959D1*
X19068Y12910D1*
X18952D1*
X18894Y12959D1*
X18835Y13056D1*
X18806Y13154D1*
X18673Y13735D2*
X18614Y13785D1*
X18527Y13930D1*
Y12910D1*
X16434Y13680D2*
X16463Y13776D1*
X16522Y13874D1*
X16580Y13922D1*
X16697D1*
X16755Y13874D1*
X16813Y13776D1*
X16843Y13680D1*
X16872Y13534D1*
Y13290D1*
X16843Y13145D1*
X16813Y13047D1*
X16755Y12951D1*
X16697Y12901D1*
X16580D1*
X16522Y12951D1*
X16463Y13047D1*
X16434Y13145D1*
X16126Y13921D2*
X16214Y13873D1*
X16272Y13727D1*
X16301Y13484D1*
Y13338D1*
X16272Y13096D1*
X16214Y12950D1*
X16126Y12901D1*
X16068D1*
X15980Y12950D1*
X15922Y13096D1*
X15893Y13338D1*
Y13484D1*
X15922Y13727D1*
X15980Y13873D1*
X16068Y13921D1*
X16126D1*
X15922Y13727D2*
X16272Y13096D1*
X13451Y25937D2*
Y26200D1*
X13501Y26287D1*
X13549Y26317D1*
X13646Y26346D1*
X13743D1*
X13840Y26317D1*
X13889Y26287D1*
X13938Y26200D1*
Y25937D1*
X12917D1*
X13451Y26142D2*
X12917Y26346D1*
X13792Y26829D2*
X13888Y26800D1*
X13936Y26712D1*
Y26654D1*
X13888Y26567D1*
X13742Y26508D1*
X13500Y26479D1*
X13257D1*
X13063Y26508D1*
X12965Y26567D1*
X12917Y26654D1*
Y26683D1*
X12965Y26770D1*
X13063Y26829D1*
X13209Y26858D1*
X13257D1*
X13403Y26829D1*
X13500Y26770D1*
X13548Y26683D1*
Y26654D1*
X13500Y26567D1*
X13403Y26508D1*
X13257Y26479D1*
X13447Y23416D2*
Y23678D1*
X13496Y23766D1*
X13545Y23795D1*
X13641Y23824D1*
X13739D1*
X13835Y23795D1*
X13885Y23766D1*
X13933Y23678D1*
Y23416D1*
X12912D1*
X13447Y23620D2*
X12912Y23824D1*
X13932Y24307D2*
Y24016D1*
X13495Y23987D1*
X13543Y24016D1*
X13593Y24104D1*
Y24191D1*
X13543Y24278D1*
X13447Y24337D1*
X13301Y24366D1*
X13204D1*
X13058Y24337D1*
X12961Y24278D1*
X12912Y24191D1*
Y24104D1*
X12961Y24016D1*
X13010Y23987D1*
X13107Y23958D1*
X13435Y20911D2*
Y21173D1*
X13484Y21261D1*
X13532Y21291D1*
X13629Y21320D1*
X13727D1*
X13823Y21291D1*
X13873Y21261D1*
X13921Y21173D1*
Y20911D1*
X12900D1*
X13435Y21115D2*
X12900Y21320D1*
Y21745D2*
X13920D1*
X13240Y21453D1*
Y21890D1*
X13446Y18356D2*
Y18618D1*
X13496Y18705D1*
X13544Y18735D1*
X13641Y18764D1*
X13738D1*
X13835Y18735D1*
X13884Y18705D1*
X13933Y18618D1*
Y18356D1*
X12912D1*
X13446Y18560D2*
X12912Y18764D1*
X13931Y18956D2*
Y19276D1*
X13543Y19101D1*
Y19189D1*
X13495Y19247D1*
X13446Y19276D1*
X13300Y19306D1*
X13204D1*
X13058Y19276D1*
X12960Y19218D1*
X12912Y19130D1*
Y19043D1*
X12960Y18956D1*
X13009Y18927D1*
X13106Y18897D1*
X13448Y15925D2*
Y16187D1*
X13498Y16275D1*
X13546Y16305D1*
X13643Y16334D1*
X13740D1*
X13837Y16305D1*
X13886Y16275D1*
X13935Y16187D1*
Y15925D1*
X12914D1*
X13448Y16130D2*
X12914Y16334D1*
X13691Y16497D2*
X13739D1*
X13837Y16526D1*
X13885Y16555D1*
X13934Y16613D1*
Y16730D1*
X13885Y16788D1*
X13837Y16817D1*
X13739Y16846D1*
X13643D1*
X13545Y16817D1*
X13400Y16759D1*
X12914Y16467D1*
Y16875D1*
X13454Y14119D2*
Y14381D1*
X13503Y14469D1*
X13551Y14498D1*
X13648Y14527D1*
X13746D1*
X13842Y14498D1*
X13892Y14469D1*
X13940Y14381D1*
Y14119D1*
X12919D1*
X13454Y14323D2*
X12919Y14527D1*
X13744Y14661D2*
X13794Y14719D1*
X13939Y14807D1*
X12919D1*
X14420Y13432D2*
X14158D1*
X14070Y13481D1*
X14041Y13529D1*
X14012Y13626D1*
Y13724D1*
X14041Y13820D1*
X14070Y13870D1*
X14158Y13918D1*
X14420D1*
Y12897D1*
X14216Y13432D2*
X14012Y12897D1*
X13703Y13917D2*
X13791Y13868D1*
X13850Y13722D1*
X13878Y13480D1*
Y13334D1*
X13850Y13091D1*
X13791Y12945D1*
X13703Y12897D1*
X13645D1*
X13558Y12945D1*
X13500Y13091D1*
X13470Y13334D1*
Y13480D1*
X13500Y13722D1*
X13558Y13868D1*
X13645Y13917D1*
X13703D1*
X13500Y13722D2*
X13850Y13091D1*
M02*
