G04 DipTrace 2.4.0.2*
%INkeypad.gto*%
%MOMM*%
%ADD10C,0.25*%
%ADD15C,0.152*%
%ADD19O,0.4X0.437*%
%ADD31O,0.377X0.312*%
%ADD35O,0.723X0.863*%
%ADD52C,0.118*%
%ADD53C,0.111*%
%FSLAX53Y53*%
G04*
G71*
G90*
G75*
G01*
%LNTopSilk*%
%LPD*%
D19*
X17355Y21931D3*
X18272Y22076D2*
D10*
X18772Y22576D1*
X21772D2*
X22272D1*
Y22076D1*
Y19076D2*
Y18576D1*
X21772D1*
X18272Y19076D2*
Y18576D1*
X18772D1*
X20163Y26743D2*
Y27743D1*
X21563Y26743D2*
Y27743D1*
D31*
X20241Y26272D3*
X16668Y28029D2*
D10*
Y29029D1*
X18068Y28029D2*
Y29029D1*
D31*
X16746Y27558D3*
X18618Y26844D2*
D15*
G02X18618Y25494I-80J-675D01*
G01*
X16543D2*
G02X16543Y26844I80J675D01*
G01*
X16581Y25494D2*
X18581D1*
X16581Y26844D2*
X18581D1*
G36*
X15063Y20014D2*
X15680Y20648D1*
X15196Y20994D1*
X15070Y20838D1*
X15063Y20014D1*
G37*
D35*
X15345Y20709D3*
X15060Y20131D2*
D10*
G03X15576Y20634I-68J586D01*
G01*
X15046Y20154D2*
G02X15106Y20774I970J219D01*
G01*
X18960Y24242D2*
D52*
Y23695D1*
X18981Y23586D1*
X19025Y23513D1*
X19091Y23476D1*
X19135D1*
X19200Y23513D1*
X19244Y23586D1*
X19266Y23695D1*
Y24242D1*
X19407Y24095D2*
X19451Y24132D1*
X19517Y24241D1*
Y23476D1*
X22877Y24560D2*
X22855Y24633D1*
X22811Y24706D1*
X22768Y24742D1*
X22680D1*
X22636Y24706D1*
X22593Y24633D1*
X22571Y24560D1*
X22549Y24451D1*
Y24268D1*
X22571Y24159D1*
X22593Y24086D1*
X22636Y24014D1*
X22680Y23977D1*
X22768D1*
X22811Y24014D1*
X22855Y24086D1*
X22877Y24159D1*
X23018Y24596D2*
X23062Y24633D1*
X23128Y24741D1*
Y23977D1*
X22882Y25844D2*
X22861Y25916D1*
X22817Y25990D1*
X22773Y26026D1*
X22686D1*
X22642Y25990D1*
X22598Y25916D1*
X22576Y25844D1*
X22554Y25734D1*
Y25552D1*
X22576Y25443D1*
X22598Y25370D1*
X22642Y25297D1*
X22686Y25260D1*
X22773D1*
X22817Y25297D1*
X22861Y25370D1*
X22882Y25443D1*
X23046Y25843D2*
Y25879D1*
X23067Y25953D1*
X23089Y25989D1*
X23133Y26025D1*
X23221D1*
X23264Y25989D1*
X23286Y25953D1*
X23308Y25879D1*
Y25807D1*
X23286Y25734D1*
X23242Y25625D1*
X23023Y25260D1*
X23330D1*
X22060Y27397D2*
X22256D1*
X22322Y27434D1*
X22344Y27470D1*
X22366Y27542D1*
Y27616D1*
X22344Y27688D1*
X22322Y27725D1*
X22256Y27761D1*
X22060D1*
Y26996D1*
X22213Y27397D2*
X22366Y26996D1*
X22507Y27615D2*
X22551Y27652D1*
X22617Y27761D1*
Y26996D1*
X18466Y28717D2*
X18663D1*
X18728Y28754D1*
X18751Y28790D1*
X18772Y28862D1*
Y28936D1*
X18751Y29008D1*
X18728Y29045D1*
X18663Y29081D1*
X18466D1*
Y28316D1*
X18619Y28717D2*
X18772Y28316D1*
X18936Y28899D2*
Y28935D1*
X18957Y29008D1*
X18979Y29044D1*
X19023Y29081D1*
X19111D1*
X19154Y29044D1*
X19176Y29008D1*
X19198Y28935D1*
Y28862D1*
X19176Y28789D1*
X19132Y28681D1*
X18913Y28316D1*
X19220D1*
X16889Y25262D2*
X16910Y25226D1*
X16933Y25262D1*
X16910Y25299D1*
X16889Y25262D1*
X16910Y25007D2*
Y24496D1*
X17096Y25079D2*
Y25115D1*
X17118Y25189D1*
X17140Y25225D1*
X17184Y25261D1*
X17271D1*
X17314Y25225D1*
X17336Y25189D1*
X17358Y25115D1*
Y25043D1*
X17336Y24970D1*
X17293Y24861D1*
X17074Y24496D1*
X17380D1*
X17784Y24897D2*
X17740Y24970D1*
X17696Y25007D1*
X17631D1*
X17587Y24970D1*
X17544Y24897D1*
X17521Y24788D1*
Y24715D1*
X17544Y24606D1*
X17587Y24533D1*
X17631Y24496D1*
X17696D1*
X17740Y24533D1*
X17784Y24606D1*
X17925Y24897D2*
X18122D1*
X18188Y24934D1*
X18210Y24970D1*
X18232Y25043D1*
Y25116D1*
X18210Y25189D1*
X18188Y25226D1*
X18122Y25262D1*
X17925D1*
Y24496D1*
X18078Y24897D2*
X18232Y24496D1*
X22238Y29612D2*
D53*
X22005Y30633D1*
X21772Y29612D1*
X21638D2*
Y30633D1*
X21434D1*
X21347Y30583D1*
X21288Y30487D1*
X21259Y30389D1*
X21230Y30244D1*
Y30000D1*
X21259Y29854D1*
X21288Y29758D1*
X21347Y29660D1*
X21434Y29612D1*
X21638D1*
X21097D2*
Y30633D1*
X20892D1*
X20805Y30583D1*
X20746Y30487D1*
X20717Y30389D1*
X20688Y30244D1*
Y30000D1*
X20717Y29854D1*
X20746Y29758D1*
X20805Y29660D1*
X20892Y29612D1*
X21097D1*
X19223Y14509D2*
Y14558D1*
X19252Y14655D1*
X19281Y14704D1*
X19339Y14752D1*
X19456D1*
X19514Y14704D1*
X19543Y14655D1*
X19572Y14558D1*
Y14461D1*
X19543Y14363D1*
X19485Y14218D1*
X19193Y13732D1*
X19601D1*
X19910Y14752D2*
X19822Y14704D1*
X19764Y14558D1*
X19735Y14315D1*
Y14169D1*
X19764Y13926D1*
X19822Y13780D1*
X19910Y13732D1*
X19968D1*
X20055Y13780D1*
X20113Y13926D1*
X20143Y14169D1*
Y14315D1*
X20113Y14558D1*
X20055Y14704D1*
X19968Y14752D1*
X19910D1*
X20113Y14558D2*
X19764Y13926D1*
X20276Y14558D2*
X20335Y14607D1*
X20423Y14752D1*
Y13732D1*
X20906Y14752D2*
X20615D1*
X20586Y14315D1*
X20615Y14363D1*
X20702Y14413D1*
X20789D1*
X20877Y14363D1*
X20935Y14267D1*
X20964Y14121D1*
Y14024D1*
X20935Y13878D1*
X20877Y13780D1*
X20789Y13732D1*
X20702D1*
X20615Y13780D1*
X20586Y13830D1*
X20556Y13926D1*
X23860Y29888D2*
X23889Y29791D1*
X23948Y29693D1*
X24006Y29645D1*
X24122D1*
X24181Y29693D1*
X24239Y29791D1*
X24268Y29888D1*
X24297Y30034D1*
Y30277D1*
X24268Y30422D1*
X24239Y30520D1*
X24181Y30616D1*
X24122Y30666D1*
X24006D1*
X23948Y30616D1*
X23889Y30520D1*
X23860Y30422D1*
Y30277D1*
X24006D1*
X23318Y29645D2*
Y30666D1*
X23727Y29645D1*
Y30666D1*
X23185Y29645D2*
Y30666D1*
X22981D1*
X22893Y30616D1*
X22835Y30520D1*
X22806Y30422D1*
X22777Y30277D1*
Y30034D1*
X22806Y29888D1*
X22835Y29791D1*
X22893Y29693D1*
X22981Y29645D1*
X23185D1*
X19292Y29770D2*
X19350Y29673D1*
X19438Y29624D1*
X19554D1*
X19642Y29673D1*
X19700Y29770D1*
Y29867D1*
X19671Y29965D1*
X19642Y30013D1*
X19584Y30061D1*
X19409Y30159D1*
X19350Y30207D1*
X19321Y30257D1*
X19292Y30353D1*
Y30499D1*
X19350Y30596D1*
X19438Y30645D1*
X19554D1*
X19642Y30596D1*
X19700Y30499D1*
X18721Y29867D2*
X18750Y29770D1*
X18809Y29673D1*
X18867Y29624D1*
X18984D1*
X19042Y29673D1*
X19100Y29770D1*
X19130Y29867D1*
X19159Y30013D1*
Y30257D1*
X19130Y30402D1*
X19100Y30499D1*
X19042Y30596D1*
X18984Y30645D1*
X18867D1*
X18809Y30596D1*
X18750Y30499D1*
X18721Y30402D1*
X18588Y29624D2*
Y30645D1*
X18238D1*
X16771Y29770D2*
X16829Y29673D1*
X16916Y29624D1*
X17033D1*
X17120Y29673D1*
X17179Y29770D1*
Y29867D1*
X17149Y29965D1*
X17120Y30013D1*
X17062Y30061D1*
X16887Y30159D1*
X16829Y30207D1*
X16800Y30257D1*
X16771Y30353D1*
Y30499D1*
X16829Y30596D1*
X16916Y30645D1*
X17033D1*
X17120Y30596D1*
X17179Y30499D1*
X16637Y29624D2*
Y30645D1*
X16433D1*
X16345Y30596D1*
X16287Y30499D1*
X16258Y30402D1*
X16229Y30257D1*
Y30013D1*
X16258Y29867D1*
X16287Y29770D1*
X16345Y29673D1*
X16433Y29624D1*
X16637D1*
X15629Y30645D2*
X15862Y29624D1*
X16096Y30645D1*
X16008Y30305D2*
X15716D1*
X15006Y30650D2*
X14597Y29630D1*
X14464Y29629D2*
Y30650D1*
X13922Y29629D2*
Y30650D1*
X14331Y29629D1*
Y30650D1*
X13585Y29629D2*
Y30650D1*
X13789Y29629D2*
X13381D1*
X25556Y27697D2*
X24536Y28106D1*
X25021Y28239D2*
Y28501D1*
X24972Y28589D1*
X24923Y28618D1*
X24827Y28647D1*
X24729D1*
X24633Y28618D1*
X24583Y28589D1*
X24535Y28501D1*
Y28239D1*
X25556D1*
X25021Y28443D2*
X25556Y28647D1*
X24681Y29189D2*
X24583Y29131D1*
X24535Y29043D1*
Y28927D1*
X24583Y28839D1*
X24681Y28781D1*
X24777D1*
X24875Y28810D1*
X24923Y28839D1*
X24972Y28897D1*
X25069Y29072D1*
X25118Y29131D1*
X25167Y29160D1*
X25264Y29189D1*
X25410D1*
X25506Y29131D1*
X25556Y29043D1*
Y28927D1*
X25506Y28839D1*
X25410Y28781D1*
X24535Y29527D2*
X25556D1*
X24535Y29322D2*
Y29731D1*
X24779Y25809D2*
X24682Y25780D1*
X24584Y25722D1*
X24536Y25664D1*
Y25547D1*
X24584Y25489D1*
X24682Y25431D1*
X24779Y25401D1*
X24925Y25372D1*
X25168D1*
X25313Y25401D1*
X25411Y25431D1*
X25507Y25489D1*
X25557Y25547D1*
Y25664D1*
X25507Y25722D1*
X25411Y25780D1*
X25313Y25809D1*
X24536Y26118D2*
X24584Y26059D1*
X24682Y26001D1*
X24779Y25972D1*
X24925Y25943D1*
X25168D1*
X25313Y25972D1*
X25411Y26001D1*
X25507Y26059D1*
X25557Y26118D1*
Y26235D1*
X25507Y26292D1*
X25411Y26351D1*
X25313Y26380D1*
X25168Y26409D1*
X24925D1*
X24779Y26380D1*
X24682Y26351D1*
X24584Y26292D1*
X24536Y26235D1*
Y26118D1*
Y26542D2*
X25557D1*
Y26892D1*
X24876Y27405D2*
X25022Y27375D1*
X25120Y27317D1*
X25168Y27230D1*
Y27201D1*
X25120Y27113D1*
X25022Y27055D1*
X24876Y27025D1*
X24828D1*
X24682Y27055D1*
X24585Y27113D1*
X24537Y27201D1*
Y27230D1*
X24585Y27317D1*
X24682Y27375D1*
X24876Y27405D1*
X25120D1*
X25363Y27375D1*
X25509Y27317D1*
X25557Y27230D1*
Y27172D1*
X25509Y27084D1*
X25411Y27055D1*
X12736Y30371D2*
Y30109D1*
X12785Y30021D1*
X12834Y29992D1*
X12930Y29963D1*
X13028D1*
X13125Y29992D1*
X13174Y30021D1*
X13222Y30109D1*
Y30371D1*
X12201D1*
X12736Y30167D2*
X12201Y29963D1*
X13222Y29654D2*
X13174Y29713D1*
X13076Y29771D1*
X12980Y29800D1*
X12834Y29829D1*
X12590D1*
X12445Y29800D1*
X12347Y29771D1*
X12251Y29713D1*
X12201Y29654D1*
Y29538D1*
X12251Y29480D1*
X12347Y29421D1*
X12445Y29392D1*
X12590Y29363D1*
X12834D1*
X12980Y29392D1*
X13076Y29421D1*
X13174Y29480D1*
X13222Y29538D1*
Y29654D1*
Y29230D2*
X12201Y29083D1*
X13222Y28938D1*
X12201Y28792D1*
X13222Y28646D1*
X12201Y28396D2*
X13221Y28104D1*
Y28513D1*
X24781Y23329D2*
X24684Y23300D1*
X24586Y23241D1*
X24538Y23184D1*
Y23067D1*
X24586Y23008D1*
X24684Y22950D1*
X24781Y22921D1*
X24927Y22892D1*
X25170D1*
X25315Y22921D1*
X25413Y22950D1*
X25509Y23008D1*
X25559Y23067D1*
Y23184D1*
X25509Y23241D1*
X25413Y23300D1*
X25315Y23329D1*
X24538Y23638D2*
X24586Y23579D1*
X24684Y23521D1*
X24781Y23491D1*
X24927Y23462D1*
X25170D1*
X25315Y23491D1*
X25413Y23521D1*
X25509Y23579D1*
X25559Y23638D1*
Y23754D1*
X25509Y23812D1*
X25413Y23871D1*
X25315Y23900D1*
X25170Y23929D1*
X24927D1*
X24781Y23900D1*
X24684Y23871D1*
X24586Y23812D1*
X24538Y23754D1*
Y23638D1*
Y24062D2*
X25559D1*
Y24412D1*
X24539Y24691D2*
X24587Y24604D1*
X24684Y24574D1*
X24782D1*
X24878Y24604D1*
X24928Y24662D1*
X24976Y24778D1*
X25024Y24866D1*
X25122Y24924D1*
X25219Y24953D1*
X25365D1*
X25461Y24924D1*
X25511Y24895D1*
X25559Y24807D1*
Y24691D1*
X25511Y24604D1*
X25461Y24574D1*
X25365Y24545D1*
X25219D1*
X25122Y24574D1*
X25024Y24633D1*
X24976Y24720D1*
X24928Y24836D1*
X24878Y24895D1*
X24782Y24924D1*
X24684D1*
X24587Y24895D1*
X24539Y24807D1*
Y24691D1*
X24781Y20980D2*
X24684Y20951D1*
X24586Y20893D1*
X24538Y20835D1*
Y20718D1*
X24586Y20659D1*
X24684Y20601D1*
X24781Y20572D1*
X24927Y20543D1*
X25170D1*
X25315Y20572D1*
X25413Y20601D1*
X25509Y20659D1*
X25559Y20718D1*
Y20835D1*
X25509Y20893D1*
X25413Y20951D1*
X25315Y20980D1*
X24538Y21289D2*
X24586Y21230D1*
X24684Y21172D1*
X24781Y21142D1*
X24927Y21113D1*
X25170D1*
X25315Y21142D1*
X25413Y21172D1*
X25509Y21230D1*
X25559Y21289D1*
Y21405D1*
X25509Y21463D1*
X25413Y21522D1*
X25315Y21551D1*
X25170Y21580D1*
X24927D1*
X24781Y21551D1*
X24684Y21522D1*
X24586Y21463D1*
X24538Y21405D1*
Y21289D1*
Y21713D2*
X25559D1*
Y22063D1*
Y22313D2*
X24539Y22605D1*
Y22196D1*
X24782Y18600D2*
X24686Y18571D1*
X24588Y18512D1*
X24540Y18454D1*
Y18337D1*
X24588Y18279D1*
X24686Y18221D1*
X24782Y18191D1*
X24928Y18162D1*
X25172D1*
X25317Y18191D1*
X25415Y18221D1*
X25511Y18279D1*
X25561Y18337D1*
Y18454D1*
X25511Y18512D1*
X25415Y18571D1*
X25317Y18600D1*
X24540Y18908D2*
X24588Y18849D1*
X24686Y18792D1*
X24782Y18762D1*
X24928Y18733D1*
X25172D1*
X25317Y18762D1*
X25415Y18792D1*
X25511Y18849D1*
X25561Y18908D1*
Y19025D1*
X25511Y19083D1*
X25415Y19141D1*
X25317Y19170D1*
X25172Y19199D1*
X24928D1*
X24782Y19170D1*
X24686Y19141D1*
X24588Y19083D1*
X24540Y19025D1*
Y18908D1*
Y19333D2*
X25561D1*
Y19682D1*
X24686Y20165D2*
X24589Y20136D1*
X24541Y20049D1*
Y19991D1*
X24589Y19903D1*
X24735Y19845D1*
X24978Y19816D1*
X25220D1*
X25415Y19845D1*
X25512Y19903D1*
X25561Y19991D1*
Y20020D1*
X25512Y20107D1*
X25415Y20165D1*
X25269Y20194D1*
X25220D1*
X25074Y20165D1*
X24978Y20107D1*
X24930Y20020D1*
Y19991D1*
X24978Y19903D1*
X25074Y19845D1*
X25220Y19816D1*
X24772Y16156D2*
X24676Y16127D1*
X24578Y16069D1*
X24530Y16011D1*
Y15894D1*
X24578Y15836D1*
X24676Y15778D1*
X24772Y15748D1*
X24918Y15719D1*
X25162D1*
X25307Y15748D1*
X25405Y15778D1*
X25501Y15836D1*
X25551Y15894D1*
Y16011D1*
X25501Y16069D1*
X25405Y16127D1*
X25307Y16156D1*
X24530Y16465D2*
X24578Y16406D1*
X24676Y16348D1*
X24772Y16319D1*
X24918Y16290D1*
X25162D1*
X25307Y16319D1*
X25405Y16348D1*
X25501Y16406D1*
X25551Y16465D1*
Y16581D1*
X25501Y16639D1*
X25405Y16698D1*
X25307Y16727D1*
X25162Y16756D1*
X24918D1*
X24772Y16727D1*
X24676Y16698D1*
X24578Y16639D1*
X24530Y16581D1*
Y16465D1*
Y16889D2*
X25551D1*
Y17239D1*
X24531Y17722D2*
Y17431D1*
X24968Y17402D1*
X24919Y17431D1*
X24870Y17519D1*
Y17606D1*
X24919Y17693D1*
X25016Y17752D1*
X25162Y17781D1*
X25259D1*
X25405Y17752D1*
X25502Y17693D1*
X25551Y17606D1*
Y17519D1*
X25502Y17431D1*
X25453Y17402D1*
X25356Y17372D1*
X24792Y13834D2*
X24695Y13805D1*
X24597Y13747D1*
X24549Y13689D1*
Y13572D1*
X24597Y13514D1*
X24695Y13456D1*
X24792Y13426D1*
X24938Y13397D1*
X25181D1*
X25326Y13426D1*
X25424Y13456D1*
X25521Y13514D1*
X25570Y13572D1*
Y13689D1*
X25521Y13747D1*
X25424Y13805D1*
X25326Y13834D1*
X24549Y14143D2*
X24597Y14084D1*
X24695Y14026D1*
X24792Y13997D1*
X24938Y13968D1*
X25181D1*
X25326Y13997D1*
X25424Y14026D1*
X25521Y14084D1*
X25570Y14143D1*
Y14260D1*
X25521Y14317D1*
X25424Y14376D1*
X25326Y14405D1*
X25181Y14434D1*
X24938D1*
X24792Y14405D1*
X24695Y14376D1*
X24597Y14317D1*
X24549Y14260D1*
Y14143D1*
Y14567D2*
X25570D1*
Y14917D1*
Y15342D2*
X24550D1*
X25230Y15050D1*
Y15488D1*
X23351Y12968D2*
X23322Y13065D1*
X23263Y13163D1*
X23205Y13211D1*
X23089D1*
X23030Y13163D1*
X22972Y13065D1*
X22943Y12968D1*
X22914Y12822D1*
Y12579D1*
X22943Y12434D1*
X22972Y12336D1*
X23030Y12240D1*
X23089Y12190D1*
X23205D1*
X23263Y12240D1*
X23322Y12336D1*
X23351Y12434D1*
X23659Y13211D2*
X23601Y13163D1*
X23543Y13065D1*
X23513Y12968D1*
X23484Y12822D1*
Y12579D1*
X23513Y12434D1*
X23543Y12336D1*
X23601Y12240D1*
X23659Y12190D1*
X23776D1*
X23834Y12240D1*
X23893Y12336D1*
X23922Y12434D1*
X23951Y12579D1*
Y12822D1*
X23922Y12968D1*
X23893Y13065D1*
X23834Y13163D1*
X23776Y13211D1*
X23659D1*
X24084D2*
Y12190D1*
X24434D1*
X24626Y13210D2*
X24946D1*
X24771Y12821D1*
X24859D1*
X24917Y12773D1*
X24946Y12725D1*
X24975Y12579D1*
Y12482D1*
X24946Y12336D1*
X24888Y12238D1*
X24800Y12190D1*
X24713D1*
X24626Y12238D1*
X24597Y12288D1*
X24567Y12384D1*
X20891Y12998D2*
X20862Y13095D1*
X20803Y13193D1*
X20745Y13241D1*
X20628D1*
X20570Y13193D1*
X20512Y13095D1*
X20482Y12998D1*
X20453Y12852D1*
Y12609D1*
X20482Y12464D1*
X20512Y12366D1*
X20570Y12269D1*
X20628Y12220D1*
X20745D1*
X20803Y12269D1*
X20862Y12366D1*
X20891Y12464D1*
X21199Y13241D2*
X21140Y13193D1*
X21082Y13095D1*
X21053Y12998D1*
X21024Y12852D1*
Y12609D1*
X21053Y12464D1*
X21082Y12366D1*
X21140Y12269D1*
X21199Y12220D1*
X21316D1*
X21374Y12269D1*
X21432Y12366D1*
X21461Y12464D1*
X21490Y12609D1*
Y12852D1*
X21461Y12998D1*
X21432Y13095D1*
X21374Y13193D1*
X21316Y13241D1*
X21199D1*
X21623D2*
Y12220D1*
X21973D1*
X22136Y12997D2*
Y13045D1*
X22165Y13143D1*
X22194Y13191D1*
X22253Y13240D1*
X22369D1*
X22427Y13191D1*
X22456Y13143D1*
X22486Y13045D1*
Y12949D1*
X22456Y12851D1*
X22398Y12706D1*
X22107Y12220D1*
X22515D1*
X18581Y13013D2*
X18552Y13110D1*
X18493Y13208D1*
X18435Y13256D1*
X18319D1*
X18260Y13208D1*
X18202Y13110D1*
X18172Y13013D1*
X18143Y12867D1*
Y12624D1*
X18172Y12479D1*
X18202Y12381D1*
X18260Y12285D1*
X18319Y12235D1*
X18435D1*
X18493Y12285D1*
X18552Y12381D1*
X18581Y12479D1*
X18889Y13256D2*
X18831Y13208D1*
X18773Y13110D1*
X18743Y13013D1*
X18714Y12867D1*
Y12624D1*
X18743Y12479D1*
X18773Y12381D1*
X18831Y12285D1*
X18889Y12235D1*
X19006D1*
X19064Y12285D1*
X19122Y12381D1*
X19151Y12479D1*
X19180Y12624D1*
Y12867D1*
X19151Y13013D1*
X19122Y13110D1*
X19064Y13208D1*
X19006Y13256D1*
X18889D1*
X19314D2*
Y12235D1*
X19663D1*
X19797Y13061D2*
X19855Y13110D1*
X19943Y13255D1*
Y12235D1*
X15899Y13017D2*
X15870Y13113D1*
X15811Y13211D1*
X15753Y13259D1*
X15637D1*
X15578Y13211D1*
X15520Y13113D1*
X15490Y13017D1*
X15461Y12871D1*
Y12627D1*
X15490Y12482D1*
X15520Y12384D1*
X15578Y12288D1*
X15637Y12238D1*
X15753D1*
X15811Y12288D1*
X15870Y12384D1*
X15899Y12482D1*
X16207Y13259D2*
X16149Y13211D1*
X16091Y13113D1*
X16061Y13017D1*
X16032Y12871D1*
Y12627D1*
X16061Y12482D1*
X16091Y12384D1*
X16149Y12288D1*
X16207Y12238D1*
X16324D1*
X16382Y12288D1*
X16440Y12384D1*
X16469Y12482D1*
X16498Y12627D1*
Y12871D1*
X16469Y13017D1*
X16440Y13113D1*
X16382Y13211D1*
X16324Y13259D1*
X16207D1*
X16632D2*
Y12238D1*
X16981D1*
X17290Y13258D2*
X17202Y13210D1*
X17144Y13064D1*
X17115Y12821D1*
Y12675D1*
X17144Y12433D1*
X17202Y12287D1*
X17290Y12238D1*
X17348D1*
X17435Y12287D1*
X17493Y12433D1*
X17523Y12675D1*
Y12821D1*
X17493Y13064D1*
X17435Y13210D1*
X17348Y13258D1*
X17290D1*
X17493Y13064D2*
X17144Y12433D1*
X12726Y27820D2*
Y27558D1*
X12775Y27470D1*
X12824Y27441D1*
X12920Y27412D1*
X13018D1*
X13114Y27441D1*
X13164Y27470D1*
X13212Y27558D1*
Y27820D1*
X12191D1*
X12726Y27616D2*
X12191Y27412D1*
X13212Y27103D2*
X13164Y27162D1*
X13066Y27220D1*
X12970Y27250D1*
X12824Y27279D1*
X12580D1*
X12435Y27250D1*
X12337Y27220D1*
X12241Y27162D1*
X12191Y27103D1*
Y26987D1*
X12241Y26929D1*
X12337Y26870D1*
X12435Y26841D1*
X12580Y26812D1*
X12824D1*
X12970Y26841D1*
X13066Y26870D1*
X13164Y26929D1*
X13212Y26987D1*
Y27103D1*
Y26679D2*
X12191Y26533D1*
X13212Y26387D1*
X12191Y26242D1*
X13212Y26095D1*
X13066Y25612D2*
X13163Y25641D1*
X13211Y25729D1*
Y25787D1*
X13163Y25874D1*
X13017Y25933D1*
X12774Y25962D1*
X12532D1*
X12337Y25933D1*
X12240Y25874D1*
X12191Y25787D1*
Y25758D1*
X12240Y25671D1*
X12337Y25612D1*
X12483Y25583D1*
X12532D1*
X12678Y25612D1*
X12774Y25671D1*
X12822Y25758D1*
Y25787D1*
X12774Y25874D1*
X12678Y25933D1*
X12532Y25962D1*
X12721Y25328D2*
Y25066D1*
X12771Y24979D1*
X12819Y24949D1*
X12916Y24920D1*
X13013D1*
X13110Y24949D1*
X13159Y24979D1*
X13208Y25066D1*
Y25328D1*
X12187D1*
X12721Y25124D2*
X12187Y24920D1*
X13208Y24612D2*
X13159Y24670D1*
X13062Y24728D1*
X12965Y24758D1*
X12819Y24787D1*
X12575D1*
X12431Y24758D1*
X12333Y24728D1*
X12236Y24670D1*
X12187Y24612D1*
Y24495D1*
X12236Y24437D1*
X12333Y24378D1*
X12431Y24349D1*
X12575Y24320D1*
X12819D1*
X12965Y24349D1*
X13062Y24378D1*
X13159Y24437D1*
X13208Y24495D1*
Y24612D1*
Y24187D2*
X12187Y24041D1*
X13208Y23895D1*
X12187Y23750D1*
X13208Y23604D1*
X13207Y23121D2*
Y23412D1*
X12770Y23441D1*
X12818Y23412D1*
X12867Y23324D1*
Y23237D1*
X12818Y23149D1*
X12721Y23091D1*
X12575Y23062D1*
X12479D1*
X12333Y23091D1*
X12235Y23149D1*
X12187Y23237D1*
Y23324D1*
X12235Y23412D1*
X12285Y23441D1*
X12381Y23470D1*
X12733Y22791D2*
Y22529D1*
X12782Y22441D1*
X12830Y22411D1*
X12927Y22382D1*
X13025D1*
X13121Y22411D1*
X13171Y22441D1*
X13219Y22529D1*
Y22791D1*
X12198D1*
X12733Y22587D2*
X12198Y22382D1*
X13219Y22074D2*
X13171Y22132D1*
X13073Y22190D1*
X12976Y22220D1*
X12830Y22249D1*
X12587D1*
X12442Y22220D1*
X12344Y22190D1*
X12248Y22132D1*
X12198Y22074D1*
Y21957D1*
X12248Y21899D1*
X12344Y21841D1*
X12442Y21812D1*
X12587Y21783D1*
X12830D1*
X12976Y21812D1*
X13073Y21841D1*
X13171Y21899D1*
X13219Y21957D1*
Y22074D1*
Y21649D2*
X12198Y21503D1*
X13219Y21358D1*
X12198Y21212D1*
X13219Y21066D1*
X12198Y20641D2*
X13218D1*
X12538Y20933D1*
Y20495D1*
X12733Y20345D2*
Y20083D1*
X12782Y19995D1*
X12830Y19965D1*
X12927Y19936D1*
X13025D1*
X13121Y19965D1*
X13171Y19995D1*
X13219Y20083D1*
Y20345D1*
X12198D1*
X12733Y20141D2*
X12198Y19936D1*
X13219Y19628D2*
X13171Y19687D1*
X13073Y19744D1*
X12976Y19774D1*
X12830Y19803D1*
X12587D1*
X12442Y19774D1*
X12344Y19744D1*
X12247Y19687D1*
X12198Y19628D1*
Y19511D1*
X12247Y19453D1*
X12344Y19395D1*
X12442Y19366D1*
X12587Y19337D1*
X12830D1*
X12976Y19366D1*
X13073Y19395D1*
X13171Y19453D1*
X13219Y19511D1*
Y19628D1*
Y19203D2*
X12198Y19057D1*
X13219Y18912D1*
X12198Y18766D1*
X13219Y18620D1*
X13218Y18428D2*
Y18108D1*
X12829Y18282D1*
Y18195D1*
X12781Y18137D1*
X12733Y18108D1*
X12587Y18078D1*
X12490D1*
X12344Y18108D1*
X12246Y18166D1*
X12198Y18253D1*
Y18341D1*
X12246Y18428D1*
X12296Y18457D1*
X12392Y18487D1*
X12747Y17926D2*
Y17664D1*
X12796Y17577D1*
X12844Y17547D1*
X12941Y17518D1*
X13039D1*
X13135Y17547D1*
X13185Y17577D1*
X13233Y17664D1*
Y17926D1*
X12212D1*
X12747Y17722D2*
X12212Y17518D1*
X13233Y17209D2*
X13185Y17268D1*
X13087Y17326D1*
X12990Y17356D1*
X12844Y17385D1*
X12601D1*
X12456Y17356D1*
X12358Y17326D1*
X12261Y17268D1*
X12212Y17209D1*
Y17093D1*
X12261Y17035D1*
X12358Y16976D1*
X12456Y16947D1*
X12601Y16918D1*
X12844D1*
X12990Y16947D1*
X13087Y16976D1*
X13185Y17035D1*
X13233Y17093D1*
Y17209D1*
Y16785D2*
X12212Y16639D1*
X13233Y16493D1*
X12212Y16348D1*
X13233Y16201D1*
X12989Y16038D2*
X13037D1*
X13135Y16010D1*
X13183Y15981D1*
X13232Y15922D1*
Y15805D1*
X13183Y15747D1*
X13135Y15718D1*
X13037Y15689D1*
X12941D1*
X12843Y15718D1*
X12698Y15776D1*
X12212Y16068D1*
Y15660D1*
X12763Y15442D2*
Y15180D1*
X12813Y15092D1*
X12861Y15063D1*
X12958Y15034D1*
X13055D1*
X13152Y15063D1*
X13201Y15092D1*
X13250Y15180D1*
Y15442D1*
X12229D1*
X12763Y15238D2*
X12229Y15034D1*
X13250Y14725D2*
X13201Y14784D1*
X13104Y14842D1*
X13007Y14871D1*
X12861Y14900D1*
X12617D1*
X12473Y14871D1*
X12375Y14842D1*
X12278Y14784D1*
X12229Y14725D1*
Y14608D1*
X12278Y14550D1*
X12375Y14492D1*
X12473Y14463D1*
X12617Y14434D1*
X12861D1*
X13007Y14463D1*
X13104Y14492D1*
X13201Y14550D1*
X13250Y14608D1*
Y14725D1*
Y14301D2*
X12229Y14154D1*
X13250Y14009D1*
X12229Y13863D1*
X13250Y13717D1*
X13054Y13584D2*
X13104Y13525D1*
X13249Y13437D1*
X12229D1*
X12890Y12757D2*
X13152D1*
X13239Y12807D1*
X13269Y12855D1*
X13298Y12952D1*
Y13049D1*
X13269Y13146D1*
X13239Y13195D1*
X13152Y13244D1*
X12890D1*
Y12223D1*
X13094Y12757D2*
X13298Y12223D1*
X13606Y13244D2*
X13548Y13195D1*
X13490Y13098D1*
X13460Y13001D1*
X13431Y12855D1*
Y12611D1*
X13460Y12466D1*
X13490Y12369D1*
X13548Y12272D1*
X13606Y12223D1*
X13723D1*
X13781Y12272D1*
X13840Y12369D1*
X13869Y12466D1*
X13898Y12611D1*
Y12855D1*
X13869Y13001D1*
X13840Y13098D1*
X13781Y13195D1*
X13723Y13244D1*
X13606D1*
X14031D2*
X14177Y12223D1*
X14323Y13244D1*
X14468Y12223D1*
X14614Y13244D1*
X14923Y13242D2*
X14835Y13194D1*
X14777Y13048D1*
X14748Y12806D1*
Y12660D1*
X14777Y12417D1*
X14835Y12271D1*
X14923Y12223D1*
X14981D1*
X15069Y12271D1*
X15126Y12417D1*
X15156Y12660D1*
Y12806D1*
X15126Y13048D1*
X15069Y13194D1*
X14981Y13242D1*
X14923D1*
X15126Y13048D2*
X14777Y12417D1*
X14508Y14242D2*
X14771D1*
X14858Y14292D1*
X14888Y14340D1*
X14917Y14437D1*
Y14534D1*
X14888Y14631D1*
X14858Y14680D1*
X14771Y14729D1*
X14508D1*
Y13708D1*
X14713Y14242D2*
X14917Y13708D1*
X15050Y14096D2*
X15400D1*
Y14194D1*
X15371Y14292D1*
X15342Y14340D1*
X15283Y14388D1*
X15196D1*
X15138Y14340D1*
X15079Y14242D1*
X15050Y14096D1*
Y14000D1*
X15079Y13854D1*
X15138Y13757D1*
X15196Y13708D1*
X15283D1*
X15342Y13757D1*
X15400Y13854D1*
X15533Y14388D2*
X15708Y13708D1*
X15883Y14388D1*
X16729Y14728D2*
X16641Y14679D1*
X16583Y14533D1*
X16554Y14291D1*
Y14145D1*
X16583Y13902D1*
X16641Y13756D1*
X16729Y13708D1*
X16787D1*
X16875Y13756D1*
X16933Y13902D1*
X16962Y14145D1*
Y14291D1*
X16933Y14533D1*
X16875Y14679D1*
X16787Y14728D1*
X16729D1*
X16933Y14533D2*
X16583Y13902D1*
X17125Y13806D2*
X17096Y13756D1*
X17125Y13708D1*
X17154Y13756D1*
X17125Y13806D1*
X17579Y13708D2*
Y14728D1*
X17288Y14048D1*
X17725D1*
X14929Y16226D2*
X14550D1*
Y15205D1*
Y15739D2*
X14783D1*
X15092Y15885D2*
X15267Y15205D1*
X15209Y15010D1*
X15150Y14913D1*
X15092Y14864D1*
X15062D1*
X15442Y15885D2*
X15267Y15205D1*
X15575Y16226D2*
Y15205D1*
Y15739D2*
X15634Y15837D1*
X15692Y15885D1*
X15779D1*
X15837Y15837D1*
X15896Y15739D1*
X15925Y15593D1*
Y15497D1*
X15896Y15351D1*
X15837Y15254D1*
X15779Y15205D1*
X15692D1*
X15634Y15254D1*
X15575Y15351D1*
X16058Y15593D2*
X16408D1*
Y15691D1*
X16379Y15789D1*
X16350Y15837D1*
X16291Y15885D1*
X16204D1*
X16146Y15837D1*
X16087Y15739D1*
X16058Y15593D1*
Y15497D1*
X16087Y15351D1*
X16146Y15254D1*
X16204Y15205D1*
X16291D1*
X16350Y15254D1*
X16408Y15351D1*
X16541Y15885D2*
Y15205D1*
Y15593D2*
X16571Y15739D1*
X16629Y15837D1*
X16687Y15885D1*
X16775D1*
X17446Y16226D2*
Y15205D1*
X17796D1*
X18279Y15885D2*
Y15205D1*
Y15739D2*
X18221Y15837D1*
X18162Y15885D1*
X18075D1*
X18017Y15837D1*
X17959Y15739D1*
X17929Y15593D1*
Y15497D1*
X17959Y15351D1*
X18017Y15254D1*
X18075Y15205D1*
X18162D1*
X18221Y15254D1*
X18279Y15351D1*
X18412Y16226D2*
Y15205D1*
Y15739D2*
X18471Y15837D1*
X18529Y15885D1*
X18616D1*
X18674Y15837D1*
X18733Y15739D1*
X18762Y15593D1*
Y15497D1*
X18733Y15351D1*
X18674Y15254D1*
X18616Y15205D1*
X18529D1*
X18471Y15254D1*
X18412Y15351D1*
X19216Y15739D2*
X19187Y15837D1*
X19099Y15885D1*
X19012D1*
X18924Y15837D1*
X18895Y15739D1*
X18924Y15643D1*
X18983Y15593D1*
X19128Y15545D1*
X19187Y15497D1*
X19216Y15399D1*
Y15351D1*
X19187Y15254D1*
X19099Y15205D1*
X19012D1*
X18924Y15254D1*
X18895Y15351D1*
X19887Y16226D2*
Y15205D1*
X20020Y15885D2*
Y15205D1*
Y15691D2*
X20108Y15837D1*
X20166Y15885D1*
X20253D1*
X20312Y15837D1*
X20341Y15691D1*
Y15205D1*
X20825Y15739D2*
X20766Y15837D1*
X20708Y15885D1*
X20621D1*
X20562Y15837D1*
X20504Y15739D1*
X20474Y15593D1*
Y15497D1*
X20504Y15351D1*
X20562Y15254D1*
X20621Y15205D1*
X20708D1*
X20766Y15254D1*
X20825Y15351D1*
X20987Y15302D2*
X20958Y15253D1*
X20987Y15205D1*
X21017Y15253D1*
X20987Y15302D1*
X18529Y17839D2*
X18150D1*
Y16819D1*
Y17353D2*
X18383D1*
X18662Y17839D2*
Y16819D1*
X18796Y17207D2*
X19145D1*
Y17305D1*
X19116Y17403D1*
X19087Y17451D1*
X19029Y17499D1*
X18941D1*
X18883Y17451D1*
X18825Y17353D1*
X18796Y17207D1*
Y17111D1*
X18825Y16965D1*
X18883Y16868D1*
X18941Y16819D1*
X19029D1*
X19087Y16868D1*
X19145Y16965D1*
X19279Y17499D2*
X19599Y16819D1*
Y17499D2*
X19279Y16819D1*
X20737D2*
Y17839D1*
X20504Y16819D1*
X20270Y17839D1*
Y16819D1*
X21016Y17499D2*
X20958Y17451D1*
X20899Y17353D1*
X20870Y17207D1*
Y17111D1*
X20899Y16965D1*
X20958Y16868D1*
X21016Y16819D1*
X21103D1*
X21162Y16868D1*
X21220Y16965D1*
X21249Y17111D1*
Y17207D1*
X21220Y17353D1*
X21162Y17451D1*
X21103Y17499D1*
X21016D1*
X21732Y17839D2*
Y16819D1*
Y17353D2*
X21675Y17451D1*
X21616Y17499D1*
X21528D1*
X21470Y17451D1*
X21412Y17353D1*
X21383Y17207D1*
Y17111D1*
X21412Y16965D1*
X21470Y16868D1*
X21528Y16819D1*
X21616D1*
X21675Y16868D1*
X21732Y16965D1*
X21866Y17499D2*
Y17013D1*
X21895Y16868D1*
X21953Y16819D1*
X22041D1*
X22099Y16868D1*
X22187Y17013D1*
Y17499D2*
Y16819D1*
X22320Y17839D2*
Y16819D1*
X22453Y17207D2*
X22803D1*
Y17305D1*
X22774Y17403D1*
X22745Y17451D1*
X22686Y17499D1*
X22599D1*
X22541Y17451D1*
X22482Y17353D1*
X22453Y17207D1*
Y17111D1*
X22482Y16965D1*
X22541Y16868D1*
X22599Y16819D1*
X22686D1*
X22745Y16868D1*
X22803Y16965D1*
X14540Y17854D2*
Y16833D1*
X14948Y17854D2*
X14540Y17174D1*
X14685Y17417D2*
X14948Y16833D1*
X15081Y17222D2*
X15431D1*
Y17320D1*
X15402Y17417D1*
X15373Y17466D1*
X15314Y17514D1*
X15227D1*
X15169Y17466D1*
X15110Y17368D1*
X15081Y17222D1*
Y17125D1*
X15110Y16979D1*
X15169Y16883D1*
X15227Y16833D1*
X15314D1*
X15373Y16883D1*
X15431Y16979D1*
X15594Y17514D2*
X15768Y16833D1*
X15710Y16639D1*
X15652Y16541D1*
X15594Y16493D1*
X15564D1*
X15944Y17514D2*
X15768Y16833D1*
X16077Y17514D2*
Y16493D1*
Y17368D2*
X16136Y17464D1*
X16194Y17514D1*
X16281D1*
X16340Y17464D1*
X16398Y17368D1*
X16427Y17222D1*
Y17124D1*
X16398Y16979D1*
X16340Y16882D1*
X16281Y16833D1*
X16194D1*
X16136Y16882D1*
X16077Y16979D1*
X16910Y17514D2*
Y16833D1*
Y17368D2*
X16852Y17466D1*
X16794Y17514D1*
X16707D1*
X16648Y17466D1*
X16590Y17368D1*
X16561Y17222D1*
Y17125D1*
X16590Y16979D1*
X16648Y16883D1*
X16707Y16833D1*
X16794D1*
X16852Y16883D1*
X16910Y16979D1*
X17393Y17854D2*
Y16833D1*
Y17368D2*
X17336Y17466D1*
X17277Y17514D1*
X17189D1*
X17131Y17466D1*
X17073Y17368D1*
X17044Y17222D1*
Y17125D1*
X17073Y16979D1*
X17131Y16883D1*
X17189Y16833D1*
X17277D1*
X17336Y16883D1*
X17393Y16979D1*
M02*
