G04 DipTrace 2.4.0.2*
%INkeypad.gbl*%
%MOMM*%
%ADD13C,0.305*%
%ADD15C,0.152*%
%ADD19R,1.7X1.6*%
%ADD20R,1.7X2.032*%
%ADD21R,1.6X1.7*%
%ADD22R,2.032X1.7*%
%ADD33C,0.711*%
%ADD37C,0.711*%
%FSLAX53Y53*%
G04*
G71*
G90*
G75*
G01*
%LNBottom*%
%LPD*%
X17393Y23557D2*
D13*
Y23478D1*
X16858Y24013D1*
Y24865D1*
X19423Y27430D1*
Y27916D1*
Y27939D1*
X18988Y28373D1*
X15864D1*
X13810Y30428D1*
Y31590D2*
Y30428D1*
X21661Y28335D2*
X24630D1*
X25345Y29050D1*
X21232Y23571D2*
X21486D1*
Y28160D1*
X21661Y28335D1*
X25345Y29050D2*
X26510D1*
X27780D1*
X16350Y10000D2*
Y11270D1*
Y12433D1*
X18890D2*
Y11270D1*
Y10000D1*
X21430Y12433D2*
Y11270D1*
Y10000D1*
X23970Y12433D2*
Y11270D1*
Y10000D1*
X25348Y13810D2*
X26510D1*
X27780D1*
Y16350D2*
X26510D1*
X25345D2*
X26510D1*
X27780Y18890D2*
X26510D1*
X25345D1*
Y21430D2*
X26510D1*
X27780D1*
X25345Y23970D2*
X26510D1*
X27780D1*
X25345Y26510D2*
X26510D1*
X27780D1*
X19372Y19676D2*
X20272Y20576D1*
X21493Y22309D2*
Y21797D1*
X21172Y21476D1*
X19372Y20576D2*
X14603D1*
X13883Y19856D1*
X19372Y20576D2*
X18612D1*
X14711Y24476D1*
Y26794D1*
X14809Y26891D1*
X21172Y19676D2*
X22484D1*
X23338Y18821D1*
Y14784D1*
X20272Y19676D2*
X18465D1*
X16747Y17958D1*
Y15724D1*
X17006Y15465D1*
Y14235D1*
X17850Y13391D1*
X21430Y30428D2*
Y31590D1*
Y32860D1*
X22222Y24997D2*
Y23795D1*
X22177Y23750D1*
Y22481D1*
X21172Y21476D1*
X21430Y31590D2*
Y29571D1*
X20396Y28537D1*
Y21600D1*
X20272Y21476D1*
X13810Y12433D2*
Y11270D1*
Y10000D1*
X12435Y13810D2*
X11270D1*
X10000D1*
X12435Y16350D2*
X11270D1*
X10000D1*
X12435Y18890D2*
X11270D1*
X10000D1*
X12435Y21430D2*
X11270D1*
X10000D1*
X12435Y23970D2*
X11270D1*
X10000D1*
X12435Y26510D2*
X11270D1*
X10000D1*
X12432Y29050D2*
X11270D1*
X10000D1*
X16142Y24163D2*
Y24843D1*
X18740Y27440D1*
Y27626D1*
X18587D1*
X18890Y30428D2*
Y31590D1*
Y32860D1*
X16350Y30428D2*
Y31590D1*
Y32860D1*
X23970Y30428D2*
Y31590D1*
Y32860D1*
D37*
X22222Y24997D3*
X22177Y23750D3*
X21661Y28335D3*
X19423Y27916D3*
X17393Y23557D3*
X21232Y23571D3*
X16142Y24163D3*
X18587Y27626D3*
X14809Y26891D3*
X13883Y19856D3*
X17006Y15465D3*
X17850Y13391D3*
X23338Y14784D3*
X14910Y31975D2*
D15*
X15251D1*
X17449D2*
X17790D1*
X19990D2*
X22871D1*
X14910Y31826D2*
X15251D1*
X17449D2*
X17790D1*
X19990D2*
X22871D1*
X14910Y31677D2*
X15251D1*
X17449D2*
X17790D1*
X19990D2*
X22871D1*
X14910Y31528D2*
X15251D1*
X17449D2*
X17790D1*
X19990D2*
X22871D1*
X12534Y31378D2*
X12711D1*
X14910D2*
X15251D1*
X17449D2*
X17790D1*
X19990D2*
X22871D1*
X25069D2*
X25245D1*
X12384Y31229D2*
X12711D1*
X14910D2*
X15251D1*
X17449D2*
X17790D1*
X19990D2*
X22871D1*
X25069D2*
X25395D1*
X12236Y31080D2*
X12711D1*
X14910D2*
X15251D1*
X17449D2*
X17790D1*
X19990D2*
X22871D1*
X25069D2*
X25543D1*
X12086Y30931D2*
X12711D1*
X14910D2*
X15251D1*
X17449D2*
X17790D1*
X19990D2*
X22871D1*
X25069D2*
X25693D1*
X11936Y30782D2*
X12711D1*
X14910D2*
X15251D1*
X17449D2*
X17790D1*
X19990D2*
X22871D1*
X25069D2*
X25843D1*
X11788Y30633D2*
X12711D1*
X14910D2*
X15251D1*
X17449D2*
X17790D1*
X19990D2*
X22871D1*
X25069D2*
X25991D1*
X11638Y30484D2*
X12711D1*
X14910D2*
X15251D1*
X17449D2*
X17790D1*
X19990D2*
X22871D1*
X25069D2*
X26141D1*
X11491Y30335D2*
X12711D1*
X14910D2*
X15251D1*
X17449D2*
X17790D1*
X19990D2*
X22871D1*
X25069D2*
X26288D1*
X11341Y30186D2*
X12761D1*
X14860D2*
X15299D1*
X17401D2*
X17840D1*
X19940D2*
X22919D1*
X25021D2*
X26438D1*
X12736Y30037D2*
X13003D1*
X14763D2*
X15542D1*
X17158D2*
X18083D1*
X19697D2*
X23162D1*
X24778D2*
X25043D1*
X12815Y29888D2*
X13292D1*
X14913D2*
X15832D1*
X16868D2*
X18373D1*
X19408D2*
X23452D1*
X24488D2*
X24962D1*
X12891Y29739D2*
X13937D1*
X15060D2*
X24886D1*
X12967Y29590D2*
X14084D1*
X15210D2*
X24810D1*
X13041Y29441D2*
X14235D1*
X15358D2*
X24738D1*
X13051Y29292D2*
X14385D1*
X15508D2*
X24729D1*
X13051Y29142D2*
X14532D1*
X15658D2*
X24729D1*
X13051Y28993D2*
X14682D1*
X15806D2*
X24726D1*
X13051Y28844D2*
X14830D1*
X15956D2*
X21350D1*
X21973D2*
X24576D1*
X13048Y28695D2*
X14980D1*
X19218D2*
X21178D1*
X12986Y28546D2*
X15130D1*
X19378D2*
X21095D1*
X12910Y28397D2*
X15277D1*
X19780D2*
X21059D1*
X12834Y28248D2*
X15428D1*
X19925D2*
X21062D1*
X12758Y28099D2*
X15575D1*
X19999D2*
X21083D1*
X10751Y27950D2*
X18078D1*
X20028D2*
X21083D1*
X24685D2*
X27029D1*
X10751Y27801D2*
X18009D1*
X20016D2*
X21083D1*
X21928D2*
X27029D1*
X10751Y27652D2*
X17983D1*
X19966D2*
X21083D1*
X21887D2*
X27029D1*
X12734Y27503D2*
X17995D1*
X19859D2*
X21083D1*
X21887D2*
X25045D1*
X12815Y27354D2*
X18049D1*
X19818D2*
X21083D1*
X21887D2*
X24964D1*
X12891Y27205D2*
X17942D1*
X19751D2*
X21083D1*
X21887D2*
X24888D1*
X12967Y27056D2*
X17792D1*
X19611D2*
X21083D1*
X21887D2*
X24812D1*
X13041Y26906D2*
X17644D1*
X19461D2*
X21083D1*
X21887D2*
X24738D1*
X13053Y26757D2*
X17494D1*
X19313D2*
X21083D1*
X21887D2*
X24729D1*
X13053Y26608D2*
X17347D1*
X19163D2*
X21083D1*
X21887D2*
X24729D1*
X13053Y26459D2*
X17197D1*
X19016D2*
X21083D1*
X21887D2*
X24729D1*
X13053Y26310D2*
X17047D1*
X18866D2*
X21083D1*
X21887D2*
X24729D1*
X13051Y26161D2*
X16899D1*
X18716D2*
X21083D1*
X21887D2*
X24729D1*
X12993Y26012D2*
X16749D1*
X18568D2*
X21083D1*
X21887D2*
X24788D1*
X12915Y25863D2*
X16601D1*
X18418D2*
X21083D1*
X21887D2*
X24864D1*
X12839Y25714D2*
X16451D1*
X18270D2*
X21083D1*
X21887D2*
X24941D1*
X12762Y25565D2*
X16301D1*
X18120D2*
X21083D1*
X21887D2*
X25017D1*
X10751Y25416D2*
X16154D1*
X17970D2*
X21083D1*
X21887D2*
X27029D1*
X10751Y25267D2*
X16004D1*
X17823D2*
X21083D1*
X21887D2*
X27029D1*
X10751Y25118D2*
X15856D1*
X17673D2*
X21083D1*
X21887D2*
X27029D1*
X12729Y24969D2*
X15761D1*
X17525D2*
X21083D1*
X21887D2*
X25050D1*
X12812Y24820D2*
X15739D1*
X17375D2*
X21083D1*
X21887D2*
X24969D1*
X12889Y24670D2*
X15739D1*
X17261D2*
X21083D1*
X21887D2*
X24893D1*
X12965Y24521D2*
X15658D1*
X17261D2*
X21083D1*
X21887D2*
X24814D1*
X13039Y24372D2*
X15575D1*
X17261D2*
X21083D1*
X21887D2*
X24741D1*
X13053Y24223D2*
X15539D1*
X17261D2*
X21083D1*
X21887D2*
X24729D1*
X13053Y24074D2*
X15544D1*
X17692D2*
X20909D1*
X21887D2*
X24729D1*
X13053Y23925D2*
X15587D1*
X17870D2*
X20745D1*
X21887D2*
X24729D1*
X13053Y23776D2*
X15682D1*
X17956D2*
X20664D1*
X21887D2*
X24729D1*
X13051Y23627D2*
X15880D1*
X16406D2*
X16682D1*
X17994D2*
X20631D1*
X21887D2*
X24729D1*
X12996Y23478D2*
X16792D1*
X17992D2*
X20633D1*
X21878D2*
X24786D1*
X12920Y23329D2*
X16832D1*
X17951D2*
X20678D1*
X21804D2*
X24862D1*
X12841Y23180D2*
X16923D1*
X17861D2*
X20776D1*
X21690D2*
X24938D1*
X12765Y23031D2*
X17111D1*
X17673D2*
X20978D1*
X21485D2*
X25014D1*
X10751Y22882D2*
X27029D1*
X10751Y22733D2*
X27029D1*
X10751Y22584D2*
X27029D1*
X12724Y22434D2*
X25055D1*
X12808Y22285D2*
X24972D1*
X12886Y22136D2*
X24895D1*
X12962Y21987D2*
X24819D1*
X13036Y21838D2*
X24743D1*
X13053Y21689D2*
X24729D1*
X13053Y21540D2*
X24729D1*
X13053Y21391D2*
X24729D1*
X13053Y21242D2*
X24729D1*
X13051Y21093D2*
X24729D1*
X12998Y20944D2*
X24781D1*
X12922Y20795D2*
X24857D1*
X12846Y20646D2*
X24936D1*
X12767Y20497D2*
X25012D1*
X12577Y20348D2*
X25203D1*
X10751Y20198D2*
X27029D1*
X10751Y20049D2*
X27029D1*
X12720Y19900D2*
X25062D1*
X12805Y19751D2*
X24974D1*
X12881Y19602D2*
X24898D1*
X12958Y19453D2*
X24822D1*
X13034Y19304D2*
X24745D1*
X13053Y19155D2*
X24729D1*
X13053Y19006D2*
X24729D1*
X13053Y18857D2*
X24729D1*
X13053Y18708D2*
X24729D1*
X13053Y18559D2*
X24729D1*
X13001Y18410D2*
X24779D1*
X12924Y18261D2*
X24855D1*
X12848Y18112D2*
X24931D1*
X12772Y17962D2*
X25010D1*
X12608Y17813D2*
X25172D1*
X10751Y17664D2*
X27029D1*
X10751Y17515D2*
X27029D1*
X12712Y17366D2*
X25067D1*
X12803Y17217D2*
X24979D1*
X12879Y17068D2*
X24900D1*
X12955Y16919D2*
X24824D1*
X13032Y16770D2*
X24748D1*
X13053Y16621D2*
X24729D1*
X13053Y16472D2*
X24729D1*
X13053Y16323D2*
X24729D1*
X13053Y16174D2*
X24729D1*
X13053Y16025D2*
X24729D1*
X13005Y15876D2*
X24776D1*
X12927Y15726D2*
X24853D1*
X12851Y15577D2*
X24929D1*
X12774Y15428D2*
X25005D1*
X12627Y15279D2*
X25153D1*
X10751Y15130D2*
X27029D1*
X10751Y14981D2*
X27029D1*
X12708Y14832D2*
X25076D1*
X12801Y14683D2*
X24983D1*
X12877Y14534D2*
X24907D1*
X12953Y14385D2*
X24829D1*
X13029Y14236D2*
X24752D1*
X13053Y14087D2*
X24731D1*
X13053Y13938D2*
X24731D1*
X13053Y13789D2*
X24731D1*
X13053Y13640D2*
X24731D1*
X13053Y13490D2*
X24731D1*
X13008Y13341D2*
X24776D1*
X12931Y13192D2*
X24853D1*
X12853Y13043D2*
X24929D1*
X12777Y12894D2*
X13142D1*
X14479D2*
X15680D1*
X17020D2*
X18221D1*
X19559D2*
X20762D1*
X22099D2*
X23300D1*
X24640D2*
X25005D1*
X12641Y12745D2*
X12851D1*
X14770D2*
X15392D1*
X17308D2*
X17930D1*
X19849D2*
X20471D1*
X22390D2*
X23012D1*
X24928D2*
X25141D1*
X11419Y12596D2*
X12720D1*
X14901D2*
X15261D1*
X17439D2*
X17799D1*
X19980D2*
X20340D1*
X22521D2*
X22881D1*
X25059D2*
X26360D1*
X11567Y12447D2*
X12711D1*
X14910D2*
X15251D1*
X17449D2*
X17790D1*
X19990D2*
X20331D1*
X22530D2*
X22871D1*
X25069D2*
X26212D1*
X11717Y12298D2*
X12711D1*
X14910D2*
X15251D1*
X17449D2*
X17790D1*
X19990D2*
X20331D1*
X22530D2*
X22871D1*
X25069D2*
X26062D1*
X11867Y12149D2*
X12711D1*
X14910D2*
X15251D1*
X17449D2*
X17790D1*
X19990D2*
X20331D1*
X22530D2*
X22871D1*
X25069D2*
X25915D1*
X12015Y12000D2*
X12711D1*
X14910D2*
X15251D1*
X17449D2*
X17790D1*
X19990D2*
X20331D1*
X22530D2*
X22871D1*
X25069D2*
X25765D1*
X12165Y11851D2*
X12711D1*
X14910D2*
X15251D1*
X17449D2*
X17790D1*
X19990D2*
X20331D1*
X22530D2*
X22871D1*
X25069D2*
X25615D1*
X12312Y11702D2*
X12711D1*
X14910D2*
X15251D1*
X17449D2*
X17790D1*
X19990D2*
X20331D1*
X22530D2*
X22871D1*
X25069D2*
X25467D1*
X12462Y11553D2*
X12711D1*
X14910D2*
X15251D1*
X17449D2*
X17790D1*
X19990D2*
X20331D1*
X22530D2*
X22871D1*
X25069D2*
X25317D1*
X12612Y11404D2*
X12711D1*
X14910D2*
X15251D1*
X17449D2*
X17790D1*
X19990D2*
X20331D1*
X22530D2*
X22871D1*
X25069D2*
X25169D1*
X14910Y11254D2*
X15251D1*
X17449D2*
X17790D1*
X19990D2*
X20331D1*
X22530D2*
X22871D1*
X14910Y11105D2*
X15251D1*
X17449D2*
X17790D1*
X19990D2*
X20331D1*
X22530D2*
X22871D1*
X14910Y10956D2*
X15251D1*
X17449D2*
X17790D1*
X19990D2*
X20331D1*
X22530D2*
X22871D1*
X14910Y10807D2*
X15251D1*
X17449D2*
X17790D1*
X19990D2*
X20331D1*
X22530D2*
X22871D1*
X25055Y31584D2*
X25052Y30555D1*
X25055Y30490D1*
Y30330D1*
X25042Y30255D1*
X25007Y30188D1*
X24950Y30135D1*
X24860Y30086D1*
X24402Y29851D1*
X24328Y29828D1*
X24219Y29825D1*
X23645D1*
X23568Y29839D1*
X23470Y29886D1*
X23013Y30121D1*
X22952Y30166D1*
X22908Y30229D1*
X22887Y30304D1*
X22885Y30406D1*
Y32125D1*
X19973Y32124D1*
X19975Y31329D1*
X19972Y30555D1*
X19975Y30490D1*
Y30330D1*
X19962Y30255D1*
X19927Y30188D1*
X19870Y30135D1*
X19780Y30086D1*
X19322Y29851D1*
X19248Y29828D1*
X19139Y29825D1*
X18565D1*
X18488Y29839D1*
X18390Y29886D1*
X17933Y30121D1*
X17872Y30166D1*
X17828Y30229D1*
X17807Y30304D1*
X17805Y30406D1*
Y32125D1*
X17435Y32124D1*
X17432Y30555D1*
X17435Y30490D1*
Y30330D1*
X17422Y30255D1*
X17387Y30188D1*
X17330Y30135D1*
X17240Y30086D1*
X16782Y29851D1*
X16708Y29828D1*
X16599Y29825D1*
X16025D1*
X15948Y29839D1*
X15850Y29886D1*
X15393Y30121D1*
X15332Y30166D1*
X15288Y30229D1*
X15267Y30304D1*
X15265Y30406D1*
Y32125D1*
X14896Y32124D1*
X14895Y31406D1*
X14892Y30555D1*
X14895Y30490D1*
Y30330D1*
X14882Y30255D1*
X14847Y30188D1*
X14790Y30135D1*
X14697Y30085D1*
X15377Y29408D1*
X16025Y28760D1*
X18988D1*
X19064Y28753D1*
X19137Y28731D1*
X19204Y28695D1*
X19262Y28647D1*
X19402Y28507D1*
X19536Y28495D1*
X19609Y28476D1*
X19680Y28447D1*
X19746Y28410D1*
X19807Y28364D1*
X19862Y28311D1*
X19909Y28251D1*
X19948Y28186D1*
X19978Y28116D1*
X19999Y28043D1*
X20013Y27916D1*
X20008Y27840D1*
X19993Y27765D1*
X19969Y27693D1*
X19936Y27625D1*
X19894Y27561D1*
X19811Y27473D1*
X19802Y27354D1*
X19780Y27281D1*
X19744Y27214D1*
X19696Y27156D1*
X17243Y24703D1*
X17245Y24172D1*
X17354Y24147D1*
X17430D1*
X17506Y24137D1*
X17579Y24117D1*
X17650Y24089D1*
X17716Y24051D1*
X17777Y24005D1*
X17832Y23952D1*
X17879Y23892D1*
X17918Y23827D1*
X17948Y23757D1*
X17969Y23684D1*
X17983Y23557D1*
X17978Y23481D1*
X17963Y23407D1*
X17939Y23335D1*
X17906Y23266D1*
X17864Y23202D1*
X17815Y23145D1*
X17758Y23094D1*
X17695Y23051D1*
X17627Y23016D1*
X17556Y22990D1*
X17481Y22974D1*
X17405Y22967D1*
X17329Y22971D1*
X17254Y22984D1*
X17182Y23006D1*
X17112Y23038D1*
X17048Y23078D1*
X16989Y23127D1*
X16937Y23182D1*
X16892Y23244D1*
X16856Y23311D1*
X16829Y23382D1*
X16811Y23456D1*
X16804Y23520D1*
X16581Y23743D1*
X16564Y23750D1*
X16508Y23699D1*
X16445Y23656D1*
X16377Y23621D1*
X16306Y23595D1*
X16231Y23579D1*
X16155Y23573D1*
X16079Y23576D1*
X16004Y23589D1*
X15931Y23612D1*
X15862Y23643D1*
X15798Y23684D1*
X15739Y23732D1*
X15687Y23788D1*
X15642Y23849D1*
X15606Y23916D1*
X15579Y23987D1*
X15561Y24061D1*
X15553Y24137D1*
X15554Y24213D1*
X15566Y24289D1*
X15587Y24362D1*
X15617Y24432D1*
X15656Y24497D1*
X15703Y24557D1*
X15756Y24609D1*
X15755Y24843D1*
X15763Y24918D1*
X15785Y24991D1*
X15821Y25058D1*
X15869Y25116D1*
X18080Y27327D1*
X18050Y27379D1*
X18023Y27451D1*
X18005Y27525D1*
X17997Y27600D1*
X17999Y27676D1*
X18010Y27752D1*
X18031Y27825D1*
X18061Y27895D1*
X18119Y27984D1*
X17083Y27986D1*
X15864D1*
X15789Y27993D1*
X15716Y28016D1*
X15649Y28052D1*
X15591Y28099D1*
X13865Y29825D1*
X13485D1*
X13408Y29839D1*
X13310Y29886D1*
X12853Y30121D1*
X12792Y30166D1*
X12748Y30229D1*
X12727Y30304D1*
X12725Y30406D1*
Y31586D1*
X11274Y30134D1*
X12305Y30135D1*
X12530D1*
X12605Y30122D1*
X12672Y30087D1*
X12725Y30030D1*
X12774Y29940D1*
X13009Y29482D1*
X13032Y29408D1*
X13035Y29299D1*
Y28725D1*
X13021Y28648D1*
X12974Y28550D1*
X12739Y28093D1*
X12694Y28032D1*
X12631Y27988D1*
X12556Y27967D1*
X12454Y27965D1*
X10735D1*
X10736Y27596D1*
X11454Y27595D1*
X12305Y27592D1*
X12372Y27595D1*
X12532D1*
X12607Y27582D1*
X12674Y27547D1*
X12728Y27490D1*
X12776Y27400D1*
X13011Y26942D1*
X13034Y26868D1*
X13037Y26759D1*
Y26185D1*
X13024Y26108D1*
X12976Y26010D1*
X12741Y25553D1*
X12696Y25492D1*
X12634Y25448D1*
X12559Y25427D1*
X12456Y25425D1*
X10734D1*
X10736Y25053D1*
X11531Y25055D1*
X12305Y25052D1*
X12372Y25055D1*
X12532D1*
X12607Y25042D1*
X12674Y25007D1*
X12728Y24950D1*
X12776Y24860D1*
X13011Y24402D1*
X13034Y24328D1*
X13037Y24219D1*
Y23645D1*
X13024Y23568D1*
X12976Y23470D1*
X12741Y23013D1*
X12696Y22952D1*
X12634Y22908D1*
X12559Y22887D1*
X12456Y22885D1*
X10735D1*
X10736Y22515D1*
X12305Y22512D1*
X12372Y22515D1*
X12532D1*
X12607Y22502D1*
X12674Y22467D1*
X12728Y22410D1*
X12776Y22320D1*
X13011Y21862D1*
X13034Y21788D1*
X13037Y21679D1*
Y21105D1*
X13024Y21028D1*
X12976Y20930D1*
X12741Y20473D1*
X12696Y20412D1*
X12634Y20368D1*
X12559Y20347D1*
X12456Y20345D1*
X10735D1*
X10736Y19976D1*
X11454Y19975D1*
X12305Y19972D1*
X12372Y19975D1*
X12532D1*
X12607Y19962D1*
X12674Y19927D1*
X12728Y19870D1*
X12776Y19780D1*
X13011Y19322D1*
X13034Y19248D1*
X13037Y19139D1*
Y18565D1*
X13024Y18488D1*
X12976Y18390D1*
X12741Y17933D1*
X12696Y17872D1*
X12634Y17828D1*
X12559Y17807D1*
X12456Y17805D1*
X10734D1*
X10736Y17433D1*
X11531Y17435D1*
X12305Y17432D1*
X12372Y17435D1*
X12532D1*
X12607Y17422D1*
X12674Y17387D1*
X12728Y17330D1*
X12776Y17240D1*
X13011Y16782D1*
X13034Y16708D1*
X13037Y16599D1*
Y16025D1*
X13024Y15948D1*
X12976Y15850D1*
X12741Y15393D1*
X12696Y15332D1*
X12634Y15288D1*
X12559Y15267D1*
X12456Y15265D1*
X10735D1*
X10736Y14895D1*
X12305Y14892D1*
X12372Y14895D1*
X12532D1*
X12607Y14882D1*
X12674Y14847D1*
X12728Y14790D1*
X12776Y14700D1*
X13011Y14242D1*
X13034Y14168D1*
X13037Y14059D1*
Y13485D1*
X13024Y13408D1*
X12976Y13310D1*
X12741Y12853D1*
X12696Y12792D1*
X12634Y12748D1*
X12559Y12727D1*
X12456Y12725D1*
X11274D1*
X12726Y11274D1*
X12725Y12305D1*
Y12530D1*
X12738Y12605D1*
X12773Y12672D1*
X12830Y12725D1*
X12920Y12774D1*
X13378Y13009D1*
X13452Y13032D1*
X13561Y13035D1*
X14135D1*
X14212Y13021D1*
X14310Y12974D1*
X14767Y12739D1*
X14828Y12694D1*
X14872Y12631D1*
X14893Y12556D1*
X14895Y12454D1*
Y10735D1*
X15264Y10736D1*
X15265Y11455D1*
X15268Y12305D1*
X15265Y12370D1*
Y12530D1*
X15278Y12605D1*
X15313Y12672D1*
X15370Y12725D1*
X15460Y12774D1*
X15918Y13009D1*
X15992Y13032D1*
X16101Y13035D1*
X16675D1*
X16752Y13021D1*
X16850Y12974D1*
X17307Y12739D1*
X17368Y12694D1*
X17412Y12631D1*
X17433Y12556D1*
X17435Y12454D1*
Y10734D1*
X17807Y10736D1*
X17805Y11531D1*
X17808Y12305D1*
X17805Y12370D1*
Y12530D1*
X17818Y12605D1*
X17853Y12672D1*
X17910Y12725D1*
X18000Y12774D1*
X18458Y13009D1*
X18532Y13032D1*
X18641Y13035D1*
X19215D1*
X19292Y13021D1*
X19390Y12974D1*
X19847Y12739D1*
X19908Y12694D1*
X19952Y12631D1*
X19973Y12556D1*
X19975Y12454D1*
Y10735D1*
X20345Y10736D1*
X20348Y12305D1*
X20345Y12370D1*
Y12530D1*
X20358Y12605D1*
X20393Y12672D1*
X20450Y12725D1*
X20540Y12774D1*
X20998Y13009D1*
X21072Y13032D1*
X21181Y13035D1*
X21755D1*
X21832Y13021D1*
X21930Y12974D1*
X22387Y12739D1*
X22448Y12694D1*
X22492Y12631D1*
X22513Y12556D1*
X22515Y12454D1*
Y10735D1*
X22884Y10736D1*
X22885Y11455D1*
X22888Y12305D1*
X22885Y12370D1*
Y12530D1*
X22898Y12605D1*
X22933Y12672D1*
X22990Y12725D1*
X23080Y12774D1*
X23538Y13009D1*
X23612Y13032D1*
X23721Y13035D1*
X24295D1*
X24372Y13021D1*
X24470Y12974D1*
X24927Y12739D1*
X24988Y12694D1*
X25032Y12631D1*
X25053Y12556D1*
X25055Y12454D1*
Y11274D1*
X26506Y12726D1*
X25475Y12725D1*
X25250D1*
X25175Y12738D1*
X25108Y12773D1*
X25055Y12830D1*
X25006Y12920D1*
X24771Y13378D1*
X24748Y13452D1*
X24745Y13561D1*
Y14135D1*
X24759Y14212D1*
X24806Y14310D1*
X25041Y14767D1*
X25086Y14828D1*
X25149Y14872D1*
X25224Y14893D1*
X25326Y14895D1*
X27045D1*
X27044Y15264D1*
X26326Y15265D1*
X25475Y15268D1*
X25408Y15265D1*
X25248D1*
X25173Y15278D1*
X25106Y15313D1*
X25052Y15370D1*
X25004Y15460D1*
X24769Y15918D1*
X24746Y15992D1*
X24743Y16101D1*
Y16675D1*
X24756Y16752D1*
X24804Y16850D1*
X25039Y17307D1*
X25084Y17368D1*
X25146Y17412D1*
X25221Y17433D1*
X25324Y17435D1*
X27046D1*
X27044Y17807D1*
X26249Y17805D1*
X25475Y17808D1*
X25408Y17805D1*
X25248D1*
X25173Y17818D1*
X25106Y17853D1*
X25052Y17910D1*
X25004Y18000D1*
X24769Y18458D1*
X24746Y18532D1*
X24743Y18641D1*
Y19215D1*
X24756Y19292D1*
X24804Y19390D1*
X25039Y19847D1*
X25084Y19908D1*
X25146Y19952D1*
X25221Y19973D1*
X25324Y19975D1*
X27045D1*
X27044Y20345D1*
X25475Y20348D1*
X25408Y20345D1*
X25248D1*
X25173Y20358D1*
X25106Y20393D1*
X25052Y20450D1*
X25004Y20540D1*
X24769Y20998D1*
X24746Y21072D1*
X24743Y21181D1*
Y21755D1*
X24756Y21832D1*
X24804Y21930D1*
X25039Y22387D1*
X25084Y22448D1*
X25146Y22492D1*
X25221Y22513D1*
X25324Y22515D1*
X27045D1*
X27044Y22884D1*
X26326Y22885D1*
X25475Y22888D1*
X25408Y22885D1*
X25248D1*
X25173Y22898D1*
X25106Y22933D1*
X25052Y22990D1*
X25004Y23080D1*
X24769Y23538D1*
X24746Y23612D1*
X24743Y23721D1*
Y24295D1*
X24756Y24372D1*
X24804Y24470D1*
X25039Y24927D1*
X25084Y24988D1*
X25146Y25032D1*
X25221Y25053D1*
X25324Y25055D1*
X27046D1*
X27044Y25427D1*
X26249Y25425D1*
X25475Y25428D1*
X25408Y25425D1*
X25248D1*
X25173Y25438D1*
X25106Y25473D1*
X25052Y25530D1*
X25004Y25620D1*
X24769Y26078D1*
X24746Y26152D1*
X24743Y26261D1*
Y26835D1*
X24756Y26912D1*
X24804Y27010D1*
X25039Y27467D1*
X25084Y27528D1*
X25146Y27572D1*
X25221Y27593D1*
X25324Y27595D1*
X27045D1*
X27044Y27965D1*
X25475Y27968D1*
X25408Y27965D1*
X25248D1*
X25173Y27978D1*
X25106Y28013D1*
X25052Y28070D1*
X25003Y28163D1*
X24903Y28061D1*
X24844Y28013D1*
X24777Y27977D1*
X24705Y27955D1*
X24630Y27947D1*
X22108D1*
X22026Y27871D1*
X21963Y27828D1*
X21871Y27784D1*
X21873Y27550D1*
Y23571D1*
X21866Y23495D1*
X21844Y23422D1*
X21808Y23355D1*
X21745Y23279D1*
X21703Y23216D1*
X21654Y23158D1*
X21597Y23107D1*
X21534Y23064D1*
X21467Y23029D1*
X21395Y23003D1*
X21321Y22987D1*
X21245Y22981D1*
X21169Y22984D1*
X21094Y22997D1*
X21021Y23019D1*
X20952Y23051D1*
X20887Y23092D1*
X20828Y23140D1*
X20776Y23195D1*
X20732Y23257D1*
X20696Y23324D1*
X20668Y23395D1*
X20650Y23469D1*
X20642Y23545D1*
X20644Y23621D1*
X20655Y23697D1*
X20676Y23770D1*
X20706Y23840D1*
X20745Y23905D1*
X20792Y23965D1*
X20847Y24018D1*
X20908Y24064D1*
X20974Y24102D1*
X21044Y24130D1*
X21097Y24144D1*
X21099Y24714D1*
X21097Y28159D1*
X21079Y28233D1*
X21071Y28309D1*
X21073Y28385D1*
X21084Y28460D1*
X21105Y28533D1*
X21135Y28603D1*
X21174Y28669D1*
X21221Y28729D1*
X21276Y28782D1*
X21337Y28828D1*
X21403Y28865D1*
X21473Y28894D1*
X21547Y28914D1*
X21622Y28924D1*
X21699D1*
X21774Y28914D1*
X21848Y28894D1*
X21918Y28866D1*
X21984Y28828D1*
X22045Y28782D1*
X22107Y28720D1*
X22499Y28722D1*
X24468D1*
X24745Y28997D1*
X24743Y29375D1*
X24756Y29452D1*
X24804Y29550D1*
X25039Y30007D1*
X25084Y30068D1*
X25146Y30112D1*
X25221Y30133D1*
X25324Y30135D1*
X26506D1*
X25054Y31586D1*
D19*
X23970Y31590D3*
X21430D3*
X18890D3*
X16350D3*
X13810D3*
G36*
X20580Y30330D2*
Y30795D1*
X22280D1*
Y30330D1*
X21755Y30060D1*
X21105D1*
X20580Y30330D1*
G37*
G36*
X23120D2*
Y30795D1*
X24820D1*
Y30330D1*
X24295Y30060D1*
X23645D1*
X23120Y30330D1*
G37*
G36*
X18040D2*
Y30795D1*
X19740D1*
Y30330D1*
X19215Y30060D1*
X18565D1*
X18040Y30330D1*
G37*
G36*
X12960D2*
Y30795D1*
X14660D1*
Y30330D1*
X14135Y30060D1*
X13485D1*
X12960Y30330D1*
G37*
G36*
X15500D2*
Y30795D1*
X17200D1*
Y30330D1*
X16675Y30060D1*
X16025D1*
X15500Y30330D1*
G37*
D20*
X23970Y32860D3*
X21430D3*
X18890D3*
X16350D3*
X13810D3*
D19*
Y11270D3*
X16350D3*
X18890D3*
X21430D3*
X23970D3*
G36*
X17200Y12530D2*
Y12065D1*
X15500D1*
Y12530D1*
X16025Y12800D1*
X16675D1*
X17200Y12530D1*
G37*
G36*
X14660D2*
Y12065D1*
X12960D1*
Y12530D1*
X13485Y12800D1*
X14135D1*
X14660Y12530D1*
G37*
G36*
X19740D2*
Y12065D1*
X18040D1*
Y12530D1*
X18565Y12800D1*
X19215D1*
X19740Y12530D1*
G37*
G36*
X24820D2*
Y12065D1*
X23120D1*
Y12530D1*
X23645Y12800D1*
X24295D1*
X24820Y12530D1*
G37*
G36*
X22280D2*
Y12065D1*
X20580D1*
Y12530D1*
X21105Y12800D1*
X21755D1*
X22280Y12530D1*
G37*
D20*
X13810Y10000D3*
X16350D3*
X18890D3*
X21430D3*
X23970D3*
D21*
X26510Y16350D3*
Y18890D3*
Y21430D3*
Y23970D3*
Y26510D3*
G36*
X25248Y19740D2*
X25713D1*
Y18040D1*
X25248D1*
X24978Y18565D1*
Y19215D1*
X25248Y19740D1*
G37*
G36*
Y17200D2*
X25713D1*
Y15500D1*
X25248D1*
X24978Y16025D1*
Y16675D1*
X25248Y17200D1*
G37*
G36*
Y22280D2*
X25713D1*
Y20580D1*
X25248D1*
X24978Y21105D1*
Y21755D1*
X25248Y22280D1*
G37*
G36*
Y27360D2*
X25713D1*
Y25660D1*
X25248D1*
X24978Y26185D1*
Y26835D1*
X25248Y27360D1*
G37*
G36*
Y24820D2*
X25713D1*
Y23120D1*
X25248D1*
X24978Y23645D1*
Y24295D1*
X25248Y24820D1*
G37*
D22*
X27780Y16350D3*
Y18890D3*
Y21430D3*
Y23970D3*
Y26510D3*
D21*
X26510Y29050D3*
G36*
X25248Y29900D2*
X25713D1*
Y28200D1*
X25248D1*
X24978Y28725D1*
Y29375D1*
X25248Y29900D1*
G37*
D22*
X27780Y29050D3*
D21*
X26510Y13810D3*
G36*
X25250Y14660D2*
X25715D1*
Y12960D1*
X25250D1*
X24980Y13485D1*
Y14135D1*
X25250Y14660D1*
G37*
D22*
X27780Y13810D3*
D21*
X11270Y26510D3*
Y23970D3*
Y21430D3*
Y18890D3*
Y16350D3*
G36*
X12532Y23120D2*
X12067D1*
Y24820D1*
X12532D1*
X12802Y24295D1*
Y23645D1*
X12532Y23120D1*
G37*
G36*
Y25660D2*
X12067D1*
Y27360D1*
X12532D1*
X12802Y26835D1*
Y26185D1*
X12532Y25660D1*
G37*
G36*
Y20580D2*
X12067D1*
Y22280D1*
X12532D1*
X12802Y21755D1*
Y21105D1*
X12532Y20580D1*
G37*
G36*
Y15500D2*
X12067D1*
Y17200D1*
X12532D1*
X12802Y16675D1*
Y16025D1*
X12532Y15500D1*
G37*
G36*
Y18040D2*
X12067D1*
Y19740D1*
X12532D1*
X12802Y19215D1*
Y18565D1*
X12532Y18040D1*
G37*
D22*
X10000Y26510D3*
Y23970D3*
Y21430D3*
Y18890D3*
Y16350D3*
D21*
X11270Y13810D3*
G36*
X12532Y12960D2*
X12067D1*
Y14660D1*
X12532D1*
X12802Y14135D1*
Y13485D1*
X12532Y12960D1*
G37*
D22*
X10000Y13810D3*
D21*
X11270Y29050D3*
G36*
X12530Y28200D2*
X12065D1*
Y29900D1*
X12530D1*
X12800Y29375D1*
Y28725D1*
X12530Y28200D1*
G37*
D22*
X10000Y29050D3*
D33*
X19372Y21476D3*
X20272D3*
X21172D3*
X19372Y20576D3*
X20272D3*
X21172D3*
X19372Y19676D3*
X20272D3*
X21172D3*
G36*
X20989Y25009D2*
X20960Y25200D1*
X20900Y25347D1*
X20824Y25441D1*
X20748Y25517D1*
X20635Y25581D1*
X20570Y25606D1*
X20475Y25626D1*
X20424Y25637D1*
X20341Y25642D1*
X20277Y25619D1*
X20238Y25581D1*
X20213Y25555D1*
X20149Y25543D1*
X20124Y25548D1*
X20073Y25563D1*
X20045Y25593D1*
X19946Y25512D1*
X19997Y25436D1*
Y25418D1*
X19908Y25382D1*
X19896Y25327D1*
X19885Y25225D1*
X20138Y25332D1*
X20170D1*
X20213Y25324D1*
X20223Y25301D1*
X20203Y25250D1*
X20087Y25187D1*
X19916Y25116D1*
X19941Y25065D1*
X20005Y25011D1*
X20195Y25085D1*
X20189Y25047D1*
Y25009D1*
X20989D1*
G37*
M02*
