G04 DipTrace 2.4.0.2*
%INUSBBiPower3.2.gbo*%
%MOIN*%
%ADD89C,0.0046*%
%ADD90C,0.0033*%
%FSLAX44Y44*%
G04*
G70*
G90*
G75*
G01*
%LNBotSilk*%
%LPD*%
X8483Y5889D2*
D89*
Y5673D1*
X8475Y5630D1*
X8457Y5602D1*
X8432Y5587D1*
X8414D1*
X8389Y5602D1*
X8371Y5630D1*
X8363Y5673D1*
Y5889D1*
X8187Y5845D2*
X8204Y5874D1*
X8229Y5889D1*
X8264D1*
X8290Y5874D1*
X8307Y5845D1*
Y5817D1*
X8298Y5788D1*
X8290Y5774D1*
X8273Y5760D1*
X8221Y5731D1*
X8204Y5716D1*
X8195Y5702D1*
X8187Y5673D1*
Y5630D1*
X8204Y5602D1*
X8229Y5587D1*
X8264D1*
X8290Y5602D1*
X8307Y5630D1*
X8131Y5889D2*
Y5587D1*
X8053D1*
X8027Y5602D1*
X8019Y5616D1*
X8010Y5645D1*
Y5688D1*
X8019Y5716D1*
X8027Y5731D1*
X8053Y5745D1*
X8027Y5760D1*
X8019Y5774D1*
X8010Y5802D1*
Y5831D1*
X8019Y5860D1*
X8027Y5874D1*
X8053Y5889D1*
X8131D1*
Y5745D2*
X8053D1*
X7780Y5889D2*
Y5587D1*
X7702D1*
X7676Y5602D1*
X7668Y5616D1*
X7659Y5645D1*
Y5688D1*
X7668Y5716D1*
X7676Y5731D1*
X7702Y5745D1*
X7676Y5760D1*
X7668Y5774D1*
X7659Y5802D1*
Y5831D1*
X7668Y5860D1*
X7676Y5874D1*
X7702Y5889D1*
X7780D1*
Y5745D2*
X7702D1*
X7604Y5889D2*
X7595Y5874D1*
X7586Y5889D1*
X7595Y5903D1*
X7604Y5889D1*
X7595Y5788D2*
Y5587D1*
X7531Y5731D2*
X7453D1*
X7427Y5745D1*
X7419Y5760D1*
X7410Y5788D1*
Y5831D1*
X7419Y5860D1*
X7427Y5874D1*
X7453Y5889D1*
X7531D1*
Y5587D1*
X7312Y5788D2*
X7329Y5774D1*
X7346Y5745D1*
X7355Y5702D1*
Y5673D1*
X7346Y5630D1*
X7329Y5602D1*
X7312Y5587D1*
X7286D1*
X7268Y5602D1*
X7251Y5630D1*
X7243Y5673D1*
Y5702D1*
X7251Y5745D1*
X7268Y5774D1*
X7286Y5788D1*
X7312D1*
X7187D2*
X7153Y5587D1*
X7118Y5788D1*
X7084Y5587D1*
X7049Y5788D1*
X6994Y5702D2*
X6890D1*
Y5731D1*
X6899Y5760D1*
X6908Y5774D1*
X6925Y5788D1*
X6951D1*
X6968Y5774D1*
X6985Y5745D1*
X6994Y5702D1*
Y5673D1*
X6985Y5630D1*
X6968Y5602D1*
X6951Y5587D1*
X6925D1*
X6908Y5602D1*
X6890Y5630D1*
X6835Y5788D2*
Y5587D1*
Y5702D2*
X6826Y5745D1*
X6809Y5774D1*
X6792Y5788D1*
X6766D1*
X6693Y5888D2*
X6598D1*
X6650Y5774D1*
X6624D1*
X6607Y5759D1*
X6598Y5745D1*
X6590Y5702D1*
Y5673D1*
X6598Y5630D1*
X6616Y5601D1*
X6641Y5587D1*
X6667D1*
X6693Y5601D1*
X6701Y5616D1*
X6710Y5645D1*
X6526Y5616D2*
X6534Y5601D1*
X6526Y5587D1*
X6517Y5601D1*
X6526Y5616D1*
X6452Y5817D2*
Y5831D1*
X6444Y5860D1*
X6435Y5874D1*
X6418Y5888D1*
X6384D1*
X6366Y5874D1*
X6358Y5860D1*
X6349Y5831D1*
Y5802D1*
X6358Y5774D1*
X6375Y5731D1*
X6461Y5587D1*
X6341D1*
X8954Y4894D2*
X8825D1*
X8782Y4909D1*
X8768Y4923D1*
X8753Y4952D1*
Y4981D1*
X8768Y5009D1*
X8782Y5024D1*
X8825Y5038D1*
X8954D1*
Y4736D1*
X8854Y4894D2*
X8753Y4736D1*
X8661Y4851D2*
X8489D1*
Y4880D1*
X8503Y4909D1*
X8517Y4923D1*
X8546Y4937D1*
X8589D1*
X8618Y4923D1*
X8646Y4894D1*
X8661Y4851D1*
Y4823D1*
X8646Y4780D1*
X8618Y4751D1*
X8589Y4736D1*
X8546D1*
X8517Y4751D1*
X8489Y4780D1*
X8396Y4937D2*
X8310Y4736D1*
X8224Y4937D1*
X8131Y5038D2*
X8117Y5024D1*
X8102Y5038D1*
X8117Y5052D1*
X8131Y5038D1*
X8117Y4937D2*
Y4736D1*
X7852Y4894D2*
X7866Y4923D1*
X7909Y4937D1*
X7952D1*
X7995Y4923D1*
X8010Y4894D1*
X7995Y4866D1*
X7967Y4851D1*
X7895Y4837D1*
X7866Y4823D1*
X7852Y4794D1*
Y4780D1*
X7866Y4751D1*
X7909Y4736D1*
X7952D1*
X7995Y4751D1*
X8010Y4780D1*
X7759Y5038D2*
X7745Y5024D1*
X7730Y5038D1*
X7745Y5052D1*
X7759Y5038D1*
X7745Y4937D2*
Y4736D1*
X7566Y4937D2*
X7595Y4923D1*
X7623Y4894D1*
X7638Y4851D1*
Y4823D1*
X7623Y4780D1*
X7595Y4751D1*
X7566Y4736D1*
X7523D1*
X7494Y4751D1*
X7466Y4780D1*
X7451Y4823D1*
Y4851D1*
X7466Y4894D1*
X7494Y4923D1*
X7523Y4937D1*
X7566D1*
X7358D2*
Y4736D1*
Y4880D2*
X7315Y4923D1*
X7286Y4937D1*
X7244D1*
X7215Y4923D1*
X7200Y4880D1*
Y4736D1*
X6730Y5038D2*
X6773Y5023D1*
X6802Y4980D1*
X6816Y4909D1*
Y4865D1*
X6802Y4794D1*
X6773Y4751D1*
X6730Y4736D1*
X6702D1*
X6658Y4751D1*
X6630Y4794D1*
X6615Y4865D1*
Y4909D1*
X6630Y4980D1*
X6658Y5023D1*
X6702Y5038D1*
X6730D1*
X6630Y4980D2*
X6802Y4794D1*
X6508Y4765D2*
X6523Y4751D1*
X6508Y4736D1*
X6494Y4751D1*
X6508Y4765D1*
X6214Y4937D2*
X6229Y4894D1*
X6258Y4865D1*
X6301Y4851D1*
X6315D1*
X6358Y4865D1*
X6387Y4894D1*
X6401Y4937D1*
Y4952D1*
X6387Y4995D1*
X6358Y5023D1*
X6315Y5038D1*
X6301D1*
X6258Y5023D1*
X6229Y4995D1*
X6214Y4937D1*
Y4865D1*
X6229Y4794D1*
X6258Y4751D1*
X6301Y4736D1*
X6329D1*
X6372Y4751D1*
X6387Y4780D1*
X5935Y5038D2*
X6122D1*
Y4736D1*
X5935D1*
X6122Y4894D2*
X6007D1*
X8700Y5554D2*
X8812D1*
Y5252D1*
Y5410D2*
X8743D1*
X8636Y5453D2*
X8584Y5252D1*
X8601Y5195D1*
X8619Y5166D1*
X8636Y5152D1*
X8645D1*
X8533Y5453D2*
X8584Y5252D1*
X8477Y5554D2*
Y5252D1*
Y5410D2*
X8460Y5439D1*
X8443Y5453D1*
X8417D1*
X8400Y5439D1*
X8382Y5410D1*
X8374Y5367D1*
Y5338D1*
X8382Y5295D1*
X8400Y5267D1*
X8417Y5252D1*
X8443D1*
X8460Y5267D1*
X8477Y5295D1*
X8318Y5367D2*
X8215D1*
Y5396D1*
X8223Y5425D1*
X8232Y5439D1*
X8249Y5453D1*
X8275D1*
X8292Y5439D1*
X8310Y5410D1*
X8318Y5367D1*
Y5338D1*
X8310Y5295D1*
X8292Y5267D1*
X8275Y5252D1*
X8249D1*
X8232Y5267D1*
X8215Y5295D1*
X8159Y5453D2*
Y5252D1*
Y5367D2*
X8151Y5410D1*
X8133Y5439D1*
X8116Y5453D1*
X8090D1*
X7860Y5554D2*
Y5252D1*
X7756D1*
X7598Y5453D2*
Y5252D1*
Y5410D2*
X7615Y5439D1*
X7632Y5453D1*
X7658D1*
X7675Y5439D1*
X7692Y5410D1*
X7701Y5367D1*
Y5338D1*
X7692Y5295D1*
X7675Y5267D1*
X7658Y5252D1*
X7632D1*
X7615Y5267D1*
X7598Y5295D1*
X7542Y5554D2*
Y5252D1*
Y5410D2*
X7525Y5439D1*
X7508Y5453D1*
X7482D1*
X7465Y5439D1*
X7447Y5410D1*
X7439Y5367D1*
Y5338D1*
X7447Y5295D1*
X7465Y5267D1*
X7482Y5252D1*
X7508D1*
X7525Y5267D1*
X7542Y5295D1*
X7288Y5410D2*
X7297Y5439D1*
X7323Y5453D1*
X7349D1*
X7375Y5439D1*
X7383Y5410D1*
X7375Y5381D1*
X7357Y5367D1*
X7314Y5353D1*
X7297Y5338D1*
X7288Y5310D1*
Y5295D1*
X7297Y5267D1*
X7323Y5252D1*
X7349D1*
X7375Y5267D1*
X7383Y5295D1*
X7058Y5554D2*
Y5252D1*
X7002Y5453D2*
Y5252D1*
Y5396D2*
X6976Y5439D1*
X6959Y5453D1*
X6933D1*
X6916Y5439D1*
X6908Y5396D1*
Y5252D1*
X6749Y5410D2*
X6766Y5439D1*
X6783Y5453D1*
X6809D1*
X6826Y5439D1*
X6843Y5410D1*
X6852Y5367D1*
Y5338D1*
X6843Y5295D1*
X6826Y5267D1*
X6809Y5252D1*
X6783D1*
X6766Y5267D1*
X6749Y5295D1*
X6684Y5281D2*
X6693Y5266D1*
X6684Y5252D1*
X6676Y5266D1*
X6684Y5281D1*
X6125Y5641D2*
D90*
Y5656D1*
X6111Y5684D1*
X6096Y5699D1*
X6068Y5713D1*
X6010D1*
X5982Y5699D1*
X5967Y5684D1*
X5953Y5656D1*
Y5627D1*
X5967Y5598D1*
X5996Y5555D1*
X6140Y5412D1*
X5939D1*
X5787Y5713D2*
X5830Y5699D1*
X5859Y5656D1*
X5873Y5584D1*
Y5541D1*
X5859Y5469D1*
X5830Y5426D1*
X5787Y5412D1*
X5758D1*
X5715Y5426D1*
X5687Y5469D1*
X5672Y5541D1*
Y5584D1*
X5687Y5656D1*
X5715Y5699D1*
X5758Y5713D1*
X5787D1*
X5687Y5656D2*
X5859Y5469D1*
X5606Y5656D2*
X5578Y5670D1*
X5534Y5713D1*
Y5412D1*
X5325D2*
Y5713D1*
X5469Y5512D1*
X5254D1*
M02*
