G04 DipTrace 2.4.0.2*
%INUSBBiPower3.2.gtl*%
%MOIN*%
%ADD10C,0.0098*%
%ADD13C,0.016*%
%ADD14C,0.02*%
%ADD15C,0.03*%
%ADD16C,0.012*%
%ADD17C,0.0094*%
%ADD18C,0.01*%
%ADD21C,0.0079*%
%ADD22C,0.025*%
%ADD23C,0.0118*%
%ADD24C,0.04*%
%ADD25C,0.006*%
%ADD26C,0.013*%
%ADD27R,0.08X0.0669*%
%ADD28R,0.0669X0.08*%
%ADD29R,0.0394X0.0433*%
%ADD30R,0.0433X0.0394*%
%ADD32R,0.071X0.044*%
%ADD33R,0.044X0.071*%
%ADD34R,0.0276X0.0354*%
%ADD35R,0.0354X0.0276*%
%ADD37R,0.0276X0.013*%
%ADD38R,0.011X0.0276*%
%ADD39R,0.0094X0.0276*%
%ADD44R,0.0094X0.0236*%
%ADD45R,0.063X0.0394*%
%ADD46C,0.028*%
%ADD48R,0.0157X0.0531*%
%ADD49R,0.0945X0.063*%
%ADD50R,0.1063X0.063*%
%ADD51R,0.1476X0.0906*%
%ADD52R,0.134X0.038*%
%ADD56R,0.0236X0.0098*%
%ADD57O,0.0236X0.0098*%
%ADD58R,0.0646X0.0173*%
%ADD60R,0.0205X0.0118*%
%ADD61R,0.0236X0.0787*%
%ADD62C,0.028*%
%FSLAX44Y44*%
G04*
G70*
G90*
G75*
G01*
%LNTop*%
%LPD*%
X7556Y9853D2*
D13*
X7684D1*
X8301Y10470D1*
X8227D1*
X4558Y7574D2*
D14*
Y6869D1*
X4595Y6832D1*
X3937Y6293D2*
X4476Y6832D1*
X4595D1*
X7316Y7875D2*
D16*
Y7759D1*
X6920D1*
X6513Y8166D1*
X6174D1*
X6066Y8058D1*
X4595Y6832D2*
Y7537D1*
X4558Y7574D1*
X6066Y8058D2*
X5886D1*
X5765Y7938D1*
X6426Y7541D2*
D17*
X6583D1*
D16*
X6640D1*
X6790Y7691D1*
X7316D1*
Y7875D1*
Y7976D1*
X6839D1*
X6477Y7614D1*
D17*
Y7592D1*
X6426Y7541D1*
X7316Y7875D2*
D16*
X6889D1*
X6634Y7620D1*
D17*
Y7592D1*
X6583Y7541D1*
X7608Y7608D2*
D16*
Y7612D1*
D15*
X7346Y7875D1*
D16*
X7316D1*
X8227Y10470D2*
D18*
X8406D1*
X8548Y10328D1*
X8227Y10470D2*
X7960D1*
X7648Y10782D1*
X6876D1*
X6850Y10755D1*
X5250Y9267D2*
Y9161D1*
X5042D1*
X4974D1*
X4540Y8728D1*
Y8688D1*
X4953Y9444D2*
X5042D1*
Y9161D1*
X5915Y10665D2*
Y10649D1*
X6006Y10558D1*
X6547D1*
X5105Y10711D2*
X5503D1*
X5845Y10369D1*
X6138D1*
X6238Y10269D1*
Y9533D1*
X6411Y9360D1*
X5105Y10711D2*
Y9848D1*
X5047Y9790D1*
X6411Y8848D2*
Y8971D1*
X5939D1*
X6333Y5763D2*
X6304D1*
Y6074D1*
X5998Y6380D1*
X5776Y6602D1*
X5596D1*
X5329Y6870D1*
X5368Y6909D1*
X6111Y6754D2*
Y6380D1*
X5998D1*
X4918Y6577D2*
X4959D1*
X5104Y6431D1*
X5709D1*
X6078Y6062D1*
Y5763D1*
X5953Y6754D2*
D21*
X5828Y6880D1*
X5771D1*
X5747Y6855D1*
X4921Y6215D2*
D18*
X4959Y6253D1*
Y6577D1*
X5644Y8676D2*
D17*
Y8598D1*
D18*
Y8399D1*
X5676Y8366D1*
X4918Y7088D2*
Y7533D1*
X4921Y7536D1*
X5368Y7420D2*
X5424D1*
Y8507D1*
X5447Y8529D1*
Y8676D1*
X6268Y7541D2*
Y7788D1*
X6386Y7906D1*
X6268Y7541D2*
D17*
Y7192D1*
D16*
X6225D1*
Y7239D1*
X5172Y5654D2*
Y5132D1*
X4869D1*
Y4668D1*
X4965Y4572D1*
X7702D2*
Y5096D1*
X7398D1*
Y5558D1*
X7495Y5654D1*
X6845Y5763D2*
X7387D1*
X7495Y5654D1*
X6424Y7285D2*
Y7234D1*
X6673D1*
X6679Y7240D1*
X6940D1*
X7495Y5654D2*
D14*
Y6007D1*
X7368Y6134D1*
Y6926D1*
X6923Y7371D1*
Y7224D1*
X6940Y7240D1*
X3937Y4293D2*
D16*
Y4347D1*
X4270D1*
Y5275D1*
X4376Y5381D1*
X4650Y5654D1*
X5172D1*
X3937Y5293D2*
X4153D1*
X4764Y5904D1*
X4922D1*
X5172Y5654D1*
X7421Y6041D2*
Y6007D1*
X7495D1*
X7298Y5096D2*
X7398D1*
X4851Y5132D2*
X4869D1*
X4516Y5254D2*
D18*
Y5381D1*
X4376D1*
X6406Y8426D2*
D16*
X6535D1*
X6769Y8192D1*
X6966D1*
X7316Y8542D1*
Y8544D1*
X7118Y4628D2*
Y4572D1*
X7702D1*
X5096Y7938D2*
Y8522D1*
X5250Y8676D1*
X5096Y7938D2*
Y8392D1*
X5015Y8473D1*
X7702Y4571D2*
Y6079D1*
X7458Y6324D1*
X8160Y5733D2*
X7574D1*
X7495Y5654D1*
X6268Y6754D2*
D17*
Y7025D1*
D16*
Y7148D1*
X6847D1*
X6940Y7240D1*
X7702Y4572D2*
X7175D1*
X7118Y4628D1*
X9407Y10470D2*
D22*
X9467D1*
X9846Y10091D1*
Y9863D1*
X10039D1*
X7316Y8544D2*
D16*
Y9117D1*
X7285Y9148D1*
X6268Y7148D2*
Y7363D1*
D17*
Y7541D1*
X9407Y10470D2*
D22*
X9310D1*
Y10875D1*
X8892Y11293D1*
X8937D1*
X7285Y9148D2*
D16*
X7517Y9381D1*
X7556D1*
X9156Y7411D2*
D14*
Y6935D1*
X9825Y6266D1*
X10189D1*
X10910D1*
X10937Y6293D1*
D16*
X10748D1*
Y5293D1*
X10937D1*
X9284Y5801D2*
X9373D1*
X9815Y6243D1*
X10748D1*
Y5293D1*
X9373Y5801D2*
X9840Y6267D1*
X10911D1*
X10937Y6293D1*
X9284Y5801D2*
Y5785D1*
X9213Y5714D1*
Y5342D1*
X9156Y5285D1*
X9754Y4455D2*
X9438D1*
X9156Y4737D1*
Y5285D1*
X7435Y10353D2*
Y10424D1*
X7301D1*
X7049Y10172D1*
X6681D1*
D23*
X6491Y10362D1*
X6547D1*
X5543Y4640D2*
D16*
X6264D1*
X6333Y4710D1*
X10156Y7411D2*
Y6299D1*
X10189Y6266D1*
X5953Y7541D2*
D18*
X5822D1*
Y7507D1*
X6589Y5763D2*
Y6129D1*
X6523Y6196D1*
X6490Y9988D2*
Y9800D1*
X6663Y9628D1*
Y8681D1*
X6863Y8481D1*
X5644Y9267D2*
D17*
Y9419D1*
D18*
X5743Y9519D1*
X5941D1*
X5986Y9564D1*
Y10103D1*
X5447Y9267D2*
D17*
Y9937D1*
X5552D1*
X6850Y10362D2*
D18*
X6975D1*
X7229Y10615D1*
X7585D1*
X7697Y10504D1*
Y10141D1*
D10*
X7606Y10050D1*
X7180D1*
X7042Y9912D1*
X7025D1*
X8656Y7411D2*
D18*
X8521D1*
D14*
X8016Y6906D1*
X9656Y7411D2*
Y7712D1*
X9288Y8079D1*
X8023D1*
X8016Y8086D1*
X8574Y4455D2*
D18*
Y5204D1*
X8656Y5285D1*
X8574Y4455D2*
Y4667D1*
X8484Y4757D1*
X7556Y9617D2*
D13*
X8662D1*
X8750Y9704D1*
X6426Y6754D2*
D18*
X6504D1*
D14*
Y6536D1*
X6583Y6754D2*
X6485D1*
X6673Y6566D1*
X6504D1*
Y6536D1*
X6940Y6571D2*
X6932Y6563D1*
X6504D1*
X5822Y5763D2*
Y6020D1*
X5664Y6177D1*
X5592D1*
X5840Y8676D2*
D18*
X5903Y8613D1*
X5986D1*
X4558Y8086D2*
Y8123D1*
X4727Y8292D1*
X5151Y8971D2*
D16*
X5094D1*
X4983Y8860D1*
Y8814D1*
X8127Y6324D2*
X8505D1*
X8638Y6457D1*
X4540Y9200D2*
X4467D1*
X4374Y9293D1*
X3937D1*
X4540Y9200D2*
Y9784D1*
X4535Y9790D1*
X8750Y8774D2*
D24*
X9948D1*
X10039Y8683D1*
D16*
X10548D1*
X10586Y8644D1*
X10937Y8293D1*
X4535Y9790D2*
X4441D1*
X3937Y10293D1*
X10176Y10527D2*
X10216D1*
X10752Y11063D1*
X6917Y9096D2*
Y9214D1*
D10*
X7025Y9321D1*
Y9518D1*
X9937Y11293D2*
D16*
Y10766D1*
X10176Y10527D1*
X10703D1*
X10937Y10293D1*
Y10146D1*
X10583Y9793D1*
Y9647D1*
X10937Y9293D1*
X10583Y9647D2*
Y8647D1*
X10586Y8644D2*
Y7644D1*
X10937Y7293D1*
X10156Y5285D2*
Y5632D1*
X10153Y5634D1*
D62*
X7951Y10302D3*
X7608Y7608D3*
X8548Y10328D3*
X5915Y10665D3*
X5986Y10103D3*
X5552Y9937D3*
X4983Y8814D3*
X6917Y9096D3*
X7421Y6041D3*
X4953Y9444D3*
X8160Y5733D3*
X7298Y5096D3*
X4851Y5132D3*
X4516Y5254D3*
X8638Y6457D3*
X7285Y9148D3*
X5015Y8473D3*
X9284Y5801D3*
X5986Y8613D3*
X4473Y4140D3*
X6406Y8426D3*
X5543Y4640D3*
X7118Y4628D3*
X5676Y8366D3*
X4727Y8292D3*
X4921Y7536D3*
X6301Y5193D3*
X8484Y4757D3*
X6504Y6536D3*
X5592Y6177D3*
X6523Y6196D3*
X4921Y6215D3*
X5747Y6855D3*
X5822Y7507D3*
X4595Y6832D3*
X6066Y8058D3*
X6386Y7906D3*
X6863Y8481D3*
X6490Y9988D3*
X5105Y10711D3*
X10176Y10527D3*
X4210Y11012D3*
X4599Y10154D3*
X10752Y11063D3*
X10153Y5634D3*
X7435Y10353D3*
X10015Y8266D3*
X10143Y9252D3*
X9372Y11204D2*
D25*
X10948D1*
X9371Y11146D2*
X10948D1*
X9410Y11087D2*
X10948D1*
X9469Y11029D2*
X10948D1*
X9511Y10970D2*
X10948D1*
X9726Y10912D2*
X10948D1*
X9726Y10853D2*
X10948D1*
X9726Y10795D2*
X10948D1*
X9726Y10736D2*
X10947D1*
X9726Y10678D2*
X10947D1*
X9726Y10619D2*
X10947D1*
X9726Y10561D2*
X10947D1*
X9748Y10502D2*
X10947D1*
X9807Y10444D2*
X10947D1*
X9865Y10385D2*
X10947D1*
X9924Y10326D2*
X10947D1*
X9983Y10268D2*
X10947D1*
X10034Y10209D2*
X10947D1*
X10492Y10151D2*
X10947D1*
X10492Y10092D2*
X10947D1*
X10492Y10034D2*
X10947D1*
X10492Y9975D2*
X10947D1*
X10492Y9917D2*
X10947D1*
X10492Y9858D2*
X10947D1*
X10492Y9800D2*
X10947D1*
X10492Y9741D2*
X10947D1*
X10492Y9683D2*
X10947D1*
X10492Y9624D2*
X10947D1*
X10492Y9566D2*
X10947D1*
X9617Y9507D2*
X10947D1*
X9617Y9448D2*
X10947D1*
X9617Y9390D2*
X10947D1*
X9617Y9331D2*
X10947D1*
X9617Y9273D2*
X10947D1*
X9617Y9214D2*
X10947D1*
X9617Y9156D2*
X10947D1*
X9617Y9097D2*
X10947D1*
X9617Y9039D2*
X10947D1*
X10492Y8980D2*
X10947D1*
X9518Y8922D2*
X9585D1*
X10492D2*
X10947D1*
X9518Y8863D2*
X9585D1*
X10492D2*
X10947D1*
X9518Y8805D2*
X9585D1*
X10492D2*
X10947D1*
X9518Y8746D2*
X9585D1*
X10492D2*
X10947D1*
X9518Y8688D2*
X9585D1*
X10492D2*
X10947D1*
X9518Y8629D2*
X9585D1*
X10492D2*
X10947D1*
X9518Y8571D2*
X9585D1*
X10492D2*
X10947D1*
X9518Y8512D2*
X9585D1*
X10492D2*
X10947D1*
X9341Y8453D2*
X9585D1*
X10492D2*
X10947D1*
X9340Y8395D2*
X9585D1*
X10492D2*
X10947D1*
X9340Y8336D2*
X10946D1*
X9339Y8278D2*
X10946D1*
X9426Y8219D2*
X10946D1*
X9485Y8161D2*
X10946D1*
X9543Y8102D2*
X10946D1*
X9602Y8044D2*
X10946D1*
X9660Y7985D2*
X10946D1*
X9719Y7927D2*
X10946D1*
X9872Y7868D2*
X9940D1*
X10372D2*
X10946D1*
X9872Y7810D2*
X9940D1*
X10372D2*
X10946D1*
X9872Y7751D2*
X9940D1*
X10372D2*
X10946D1*
X9872Y7693D2*
X9940D1*
X10372D2*
X10946D1*
X9872Y7634D2*
X9940D1*
X10372D2*
X10946D1*
X9872Y7576D2*
X9940D1*
X10372D2*
X10946D1*
X9872Y7517D2*
X9940D1*
X10372D2*
X10946D1*
X9872Y7458D2*
X9940D1*
X10372D2*
X10946D1*
X9872Y7400D2*
X9940D1*
X10372D2*
X10946D1*
X10372Y7341D2*
X10946D1*
X10372Y7283D2*
X10946D1*
X10372Y7224D2*
X10946D1*
X10372Y7166D2*
X10946D1*
X10393Y7107D2*
X10946D1*
X10418Y7049D2*
X10946D1*
X10443Y6990D2*
X10946D1*
X10467Y6932D2*
X10946D1*
X10492Y6873D2*
X10946D1*
X10517Y6815D2*
X10946D1*
X10541Y6756D2*
X10946D1*
X10550Y6720D2*
X10952D1*
Y7107D1*
X10954Y11263D1*
X9367Y11259D1*
X9365Y11127D1*
X9464Y11028D1*
X9484Y11006D1*
X9500Y10981D1*
X9513Y10954D1*
X9521Y10926D1*
X9543Y10917D1*
X9719D1*
Y10526D1*
X10000Y10245D1*
X10019Y10222D1*
X10035Y10198D1*
X10071Y10175D1*
X10486D1*
Y9550D1*
X9611D1*
Y8995D1*
X10486D1*
Y8370D1*
X9592D1*
Y8946D1*
X9511D1*
X9512Y8787D1*
Y8492D1*
X9335D1*
X9333Y8267D1*
X9371Y8253D1*
X9397Y8238D1*
X9424Y8215D1*
X9745Y7897D1*
X9866D1*
X9867Y7396D1*
X9946Y7355D1*
X9945Y7763D1*
Y7897D1*
X10366D1*
Y7135D1*
X10381Y7123D1*
X10551Y6720D1*
X9592Y8995D2*
D26*
X10486Y8370D1*
Y8995D2*
X9592Y8370D1*
X4014Y7834D2*
D25*
X4322D1*
X4014Y7776D2*
X4492D1*
X4014Y7717D2*
X4492D1*
X4014Y7659D2*
X4521D1*
X4014Y7600D2*
X4627D1*
X4014Y7542D2*
X4627D1*
X4014Y7483D2*
X4642D1*
X4014Y7425D2*
X4676D1*
X4014Y7366D2*
X4745D1*
X4014Y7307D2*
X4681D1*
X4014Y7249D2*
X4681D1*
X4014Y7190D2*
X4681D1*
X4014Y7132D2*
X4681D1*
X4014Y7073D2*
X4681D1*
X4014Y7015D2*
X4681D1*
X4014Y6956D2*
X4681D1*
X4014Y6898D2*
X4681D1*
X4014Y6839D2*
X4681D1*
X4014Y6781D2*
X4681D1*
X4014Y6722D2*
X4681D1*
X4014Y6664D2*
X4557D1*
X4014Y6605D2*
X4505D1*
X4014Y6547D2*
X4489D1*
X4014Y6488D2*
X4472D1*
X4014Y6430D2*
X4454D1*
X4014Y6371D2*
X4437D1*
X4014Y6312D2*
X4420D1*
X4014Y6254D2*
X4404D1*
X4014Y6195D2*
X4386D1*
X4014Y6137D2*
X4369D1*
X4014Y6078D2*
X4352D1*
X4014Y6020D2*
X4335D1*
X4327Y7866D2*
X4008D1*
Y7614D1*
Y5984D1*
X4330D1*
X4520Y6636D1*
X4542Y6656D1*
X4688Y6705D1*
X4687Y6846D1*
Y7358D1*
X4767D1*
X4728Y7380D1*
X4705Y7399D1*
X4685Y7420D1*
X4667Y7445D1*
X4653Y7471D1*
X4642Y7499D1*
X4635Y7528D1*
X4631Y7557D1*
X4634Y7605D1*
X4603Y7606D1*
X4587Y7612D1*
X4510Y7672D1*
X4499Y7699D1*
Y7817D1*
X4328Y7816D1*
Y7866D1*
X8872Y7844D2*
X8939D1*
X8872Y7786D2*
X8939D1*
X8156Y7727D2*
X8440D1*
X8872D2*
X8939D1*
X8092Y7669D2*
X8440D1*
X8872D2*
X8939D1*
X8027Y7610D2*
X8440D1*
X8872D2*
X8939D1*
X7963Y7551D2*
X8384D1*
X8872D2*
X8939D1*
X7899Y7493D2*
X8325D1*
X8872D2*
X8939D1*
X9372D2*
X9411D1*
X7835Y7434D2*
X8266D1*
X8872D2*
X8939D1*
X9372D2*
X9439D1*
X7770Y7376D2*
X8208D1*
X8872D2*
X8939D1*
X9372D2*
X9439D1*
X7707Y7317D2*
X8149D1*
X8872D2*
X8939D1*
X9372D2*
X9439D1*
X7642Y7259D2*
X8091D1*
X8872D2*
X8939D1*
X9372D2*
X9439D1*
X8872Y7200D2*
X8939D1*
X9372D2*
X9439D1*
X9872D2*
X9940D1*
X7513Y7142D2*
X7563D1*
X8872D2*
X8939D1*
X9372D2*
X9439D1*
X9872D2*
X9940D1*
X7449Y7083D2*
X7563D1*
X8872D2*
X8939D1*
X9372D2*
X9439D1*
X9872D2*
X9940D1*
X7385Y7025D2*
X7563D1*
X8872D2*
X8939D1*
X9372D2*
X9439D1*
X9872D2*
X9940D1*
X7320Y6966D2*
X7563D1*
X8872D2*
X8939D1*
X9372D2*
X9439D1*
X9872D2*
X9940D1*
X7257Y6908D2*
X7563D1*
X8470D2*
X10333D1*
X7234Y6849D2*
X7563D1*
X8470D2*
X10358D1*
X7234Y6791D2*
X7563D1*
X8470D2*
X10383D1*
X7234Y6732D2*
X7563D1*
X8470D2*
X10407D1*
X7234Y6673D2*
X7563D1*
X8470D2*
X8548D1*
X8728D2*
X10431D1*
X7234Y6615D2*
X7563D1*
X8814D2*
X10463D1*
X8854Y6556D2*
X10936D1*
X4629Y6498D2*
X4682D1*
X8873D2*
X10934D1*
X4612Y6439D2*
X4682D1*
X8875D2*
X10933D1*
X4596Y6381D2*
X4682D1*
X8863D2*
X10933D1*
X4579Y6322D2*
X4682D1*
X8833D2*
X10933D1*
X4562Y6264D2*
X4687D1*
X8772D2*
X10933D1*
X4546Y6205D2*
X4683D1*
X8606D2*
X10933D1*
X4529Y6147D2*
X4693D1*
X8441D2*
X10933D1*
X4512Y6088D2*
X4720D1*
X8441D2*
X10933D1*
X4496Y6030D2*
X4601D1*
X8066D2*
X10933D1*
X4480Y5971D2*
X4601D1*
X8066D2*
X10933D1*
X4463Y5913D2*
X4601D1*
X8066D2*
X10932D1*
X4446Y5854D2*
X4601D1*
X8066D2*
X10072D1*
X10235D2*
X10932D1*
X4429Y5796D2*
X4601D1*
X8066D2*
X9980D1*
X10327D2*
X10932D1*
X4001Y5737D2*
X4601D1*
X8066D2*
X8440D1*
X8872D2*
X8939D1*
X9372D2*
X9439D1*
X9872D2*
X9939D1*
X10372D2*
X10932D1*
X4001Y5678D2*
X4601D1*
X8066D2*
X8440D1*
X8872D2*
X8939D1*
X9372D2*
X9439D1*
X9872D2*
X9919D1*
X10387D2*
X10932D1*
X4002Y5620D2*
X4601D1*
X8066D2*
X8440D1*
X8872D2*
X8939D1*
X9372D2*
X9439D1*
X9872D2*
X9915D1*
X10391D2*
X10932D1*
X4002Y5561D2*
X4601D1*
X8066D2*
X8440D1*
X8872D2*
X8939D1*
X9372D2*
X9439D1*
X9872D2*
X9926D1*
X10380D2*
X10932D1*
X4002Y5503D2*
X4601D1*
X8066D2*
X8440D1*
X8872D2*
X8939D1*
X9372D2*
X9439D1*
X9872D2*
X9940D1*
X10372D2*
X10932D1*
X4003Y5444D2*
X4601D1*
X8066D2*
X8440D1*
X8872D2*
X8939D1*
X9372D2*
X9439D1*
X9872D2*
X9940D1*
X10372D2*
X10932D1*
X4003Y5386D2*
X4601D1*
X6757D2*
X6924D1*
X8066D2*
X8440D1*
X8872D2*
X8939D1*
X9372D2*
X9439D1*
X9872D2*
X9940D1*
X10372D2*
X10932D1*
X4004Y5327D2*
X4601D1*
X6754D2*
X6924D1*
X8066D2*
X8440D1*
X8872D2*
X8939D1*
X9372D2*
X9439D1*
X9872D2*
X9940D1*
X10372D2*
X10932D1*
X4004Y5269D2*
X4601D1*
X5743D2*
X6924D1*
X8066D2*
X8440D1*
X8872D2*
X8939D1*
X9372D2*
X9439D1*
X9872D2*
X9940D1*
X10372D2*
X10932D1*
X4005Y5210D2*
X5497D1*
X7170D2*
X8427D1*
X8872D2*
X8939D1*
X9372D2*
X9439D1*
X9872D2*
X9940D1*
X10372D2*
X10932D1*
X4005Y5152D2*
X5497D1*
X7170D2*
X8426D1*
X8872D2*
X8939D1*
X9372D2*
X9439D1*
X9872D2*
X9940D1*
X10372D2*
X10932D1*
X4005Y5093D2*
X5497D1*
X7170D2*
X8426D1*
X8872D2*
X8939D1*
X9372D2*
X9439D1*
X9872D2*
X9940D1*
X10372D2*
X10931D1*
X4006Y5035D2*
X5497D1*
X7170D2*
X8426D1*
X8872D2*
X8939D1*
X9372D2*
X9439D1*
X9872D2*
X9940D1*
X10372D2*
X10931D1*
X4006Y4976D2*
X4336D1*
X8331D2*
X8401D1*
X8872D2*
X8939D1*
X9372D2*
X9439D1*
X9872D2*
X9940D1*
X10372D2*
X10931D1*
X4007Y4918D2*
X4336D1*
X8872D2*
X8939D1*
X9372D2*
X9439D1*
X9872D2*
X9940D1*
X10372D2*
X10931D1*
X4007Y4859D2*
X4336D1*
X8892D2*
X8939D1*
X9372D2*
X9437D1*
X10372D2*
X10931D1*
X4007Y4801D2*
X4336D1*
X8892D2*
X8939D1*
X9372D2*
X9437D1*
X10372D2*
X10931D1*
X4008Y4742D2*
X4336D1*
X8892D2*
X9437D1*
X10072D2*
X10931D1*
X4008Y4683D2*
X4336D1*
X8892D2*
X9437D1*
X10072D2*
X10439D1*
X4008Y4625D2*
X4336D1*
X8892D2*
X9437D1*
X10072D2*
X10439D1*
X4008Y4566D2*
X4336D1*
X8892D2*
X9437D1*
X10072D2*
X10439D1*
X4008Y4508D2*
X4336D1*
X8892D2*
X9437D1*
X10072D2*
X10439D1*
X4009Y4449D2*
X4336D1*
X8892D2*
X9437D1*
X10072D2*
X10439D1*
X4009Y4391D2*
X4336D1*
X8892D2*
X9437D1*
X10072D2*
X10439D1*
X4010Y4332D2*
X4336D1*
X8892D2*
X9437D1*
X10072D2*
X10439D1*
X4010Y4274D2*
X4336D1*
X8892D2*
X9437D1*
X10072D2*
X10439D1*
X4011Y4215D2*
X4336D1*
X8892D2*
X9437D1*
X10072D2*
X10439D1*
X4011Y4157D2*
X8257D1*
X8892D2*
X9437D1*
X10072D2*
X10439D1*
X4011Y4098D2*
X8257D1*
X8892D2*
X9437D1*
X10072D2*
X10439D1*
X4012Y4040D2*
X8257D1*
X8892D2*
X9437D1*
X10072D2*
X10439D1*
X4012Y3981D2*
X10439D1*
X10475Y4720D2*
X10937D1*
Y4954D1*
X10939Y6470D1*
X10944Y6594D1*
X10537Y6586D1*
X10508Y6591D1*
X10481Y6604D1*
X10460Y6625D1*
X10439Y6670D1*
X10330Y6925D1*
X9945D1*
Y7217D1*
X9866Y7259D1*
Y6925D1*
X9445D1*
Y7478D1*
X9367Y7519D1*
X9366Y7364D1*
Y6925D1*
X8945D1*
Y7887D1*
X8867D1*
X8866Y7448D1*
Y6925D1*
X8463D1*
X8464Y6611D1*
X8485Y6632D1*
X8508Y6650D1*
X8534Y6665D1*
X8562Y6676D1*
X8591Y6684D1*
X8620Y6689D1*
X8650D1*
X8680Y6685D1*
X8709Y6678D1*
X8737Y6667D1*
X8763Y6653D1*
X8787Y6635D1*
X8809Y6614D1*
X8827Y6591D1*
X8843Y6566D1*
X8855Y6538D1*
X8864Y6510D1*
X8869Y6480D1*
X8870Y6457D1*
X8868Y6427D1*
X8863Y6398D1*
X8853Y6369D1*
X8840Y6342D1*
X8824Y6317D1*
X8804Y6295D1*
X8782Y6275D1*
X8757Y6258D1*
X8731Y6244D1*
X8703Y6234D1*
X8674Y6227D1*
X8644Y6225D1*
X8622Y6226D1*
X8590Y6198D1*
X8563Y6183D1*
X8535Y6175D1*
X8505Y6172D1*
X8435D1*
X8436Y6035D1*
X8059D1*
X8060Y6002D1*
Y5247D1*
X7164D1*
Y4979D1*
X8325D1*
Y4927D1*
X8355Y4950D1*
X8381Y4965D1*
X8408Y4977D1*
X8432Y4983D1*
Y5204D1*
X8435Y5233D1*
X8442Y5257D1*
X8445Y5278D1*
Y5771D1*
X8866D1*
Y4902D1*
X8887Y4903D1*
Y4008D1*
X8262D1*
Y4164D1*
X8134Y4165D1*
X4342D1*
Y4979D1*
X5503D1*
Y5247D1*
X4607D1*
Y6062D1*
X4746D1*
X4725Y6090D1*
X4710Y6117D1*
X4699Y6144D1*
X4692Y6173D1*
X4689Y6203D1*
Y6233D1*
X4693Y6263D1*
X4708Y6308D1*
X4687Y6307D1*
Y6523D1*
X4629Y6522D1*
X4595Y6400D1*
X4422Y5790D1*
X4401Y5769D1*
X4393Y5768D1*
X3994D1*
X3996Y5588D1*
X4007Y3973D1*
X10445Y3967D1*
Y4720D1*
X10475D1*
X7220Y6880D2*
X7229D1*
Y6613D1*
X7569D1*
Y7198D1*
X7457Y7096D1*
X7220Y6880D1*
X8446Y7774D2*
X8202D1*
X7592Y7219D1*
X8056D1*
X8385Y7547D1*
X8407Y7566D1*
X8446Y7587D1*
X8445Y7775D1*
X9866Y4903D2*
X9945D1*
Y5531D1*
X9932Y5564D1*
X9925Y5593D1*
X9921Y5623D1*
X9922Y5653D1*
X9926Y5682D1*
X9934Y5711D1*
X9945Y5738D1*
Y5771D1*
X9965D1*
X10000Y5809D1*
X10024Y5827D1*
X10050Y5842D1*
X10077Y5854D1*
X10106Y5862D1*
X10136Y5866D1*
X10166D1*
X10195Y5863D1*
X10224Y5856D1*
X10252Y5845D1*
X10278Y5830D1*
X10302Y5813D1*
X10324Y5792D1*
X10341Y5771D1*
X10366D1*
Y5727D1*
X10380Y5687D1*
X10384Y5658D1*
X10386Y5634D1*
X10384Y5605D1*
X10378Y5575D1*
X10366Y5541D1*
Y5113D1*
Y4799D1*
X10066D1*
X10067Y4729D1*
Y4008D1*
X9442D1*
Y4903D1*
X9446D1*
X9445Y5771D1*
X9866D1*
Y4902D1*
X6760Y5406D2*
X6751Y5405D1*
Y5346D1*
X6736Y5321D1*
X6721Y5316D1*
X5736D1*
X5737Y5278D1*
Y5254D1*
X6930Y5255D1*
Y5405D1*
X6753D1*
X8951Y5771D2*
X9366D1*
Y4799D1*
X8945D1*
Y5771D1*
X8951D1*
X9442Y4455D2*
D26*
X10067D1*
X7458Y6613D2*
D16*
Y6324D1*
X6845Y5763D2*
Y5405D1*
X5172Y5654D2*
Y5247D1*
X4607Y5654D2*
X5172D1*
X7495D2*
Y5247D1*
Y5654D2*
X8060D1*
X4965Y4979D2*
Y4165D1*
X4342Y4572D2*
X4965D1*
X7702Y4979D2*
Y4165D1*
X6333Y5255D2*
Y4165D1*
X10156Y7411D2*
Y6925D1*
X9156Y7411D2*
Y6925D1*
X8945Y7411D2*
X9366D1*
X9156Y5771D2*
Y4799D1*
X8945Y5285D2*
X9366D1*
X3960Y11216D2*
D25*
X4504D1*
X3960Y11157D2*
X4504D1*
X3961Y11099D2*
X4504D1*
X3961Y11040D2*
X4504D1*
X3961Y10981D2*
X4504D1*
X3962Y10923D2*
X4504D1*
X3962Y10864D2*
X4509D1*
X3962Y10806D2*
X4567D1*
X3963Y10747D2*
X4869D1*
X4435Y10689D2*
X4868D1*
X4435Y10630D2*
X4882D1*
X4435Y10572D2*
X4913D1*
X4435Y10513D2*
X4956D1*
X4435Y10455D2*
X4956D1*
X4435Y10396D2*
X4956D1*
X4435Y10338D2*
X4956D1*
X4435Y10279D2*
X4956D1*
X4435Y10221D2*
X4956D1*
X4435Y10162D2*
X4956D1*
X4435Y10104D2*
X4956D1*
X4435Y10045D2*
X4956D1*
X6728Y9986D2*
X6809D1*
X6721Y9928D2*
X6809D1*
X6695Y9869D2*
X6809D1*
X6687Y9811D2*
X6809D1*
X6745Y9752D2*
X6813D1*
X6810Y9401D2*
X6870D1*
X6810Y9343D2*
X7135D1*
X6810Y9284D2*
X7091D1*
X6810Y9226D2*
X7060D1*
X6810Y9167D2*
X7047D1*
X7525D2*
X7835D1*
X6810Y9109D2*
X7050D1*
X7519D2*
X7835D1*
X6810Y9050D2*
X7069D1*
X7501D2*
X7835D1*
X6810Y8991D2*
X7107D1*
X7474D2*
X7835D1*
X6810Y8933D2*
X7158D1*
X7474D2*
X7981D1*
X6810Y8874D2*
X7158D1*
X7474D2*
X7981D1*
X6810Y8816D2*
X7021D1*
X7611D2*
X7981D1*
X6810Y8757D2*
X7021D1*
X7611D2*
X7981D1*
X6949Y8699D2*
X7021D1*
X7611D2*
X7981D1*
X7611Y8640D2*
X7981D1*
X7611Y8582D2*
X7981D1*
X7611Y8523D2*
X7981D1*
X7611Y8465D2*
X9280D1*
X7611Y8406D2*
X9279D1*
X8469Y8348D2*
X9279D1*
X8469Y8289D2*
X9278D1*
X7057Y8853D2*
X7164D1*
Y8951D1*
X7127Y8978D1*
X7106Y8999D1*
X7089Y9024D1*
X7074Y9050D1*
X7063Y9078D1*
X7056Y9107D1*
X7053Y9136D1*
Y9166D1*
X7058Y9196D1*
X7066Y9225D1*
X7077Y9252D1*
X7092Y9278D1*
X7111Y9302D1*
X7141Y9330D1*
Y9386D1*
X7124Y9380D1*
X7094Y9377D1*
X6939Y9378D1*
X6910Y9385D1*
X6883Y9397D1*
X6859Y9415D1*
X6839Y9438D1*
X6825Y9464D1*
X6817Y9493D1*
X6814Y9523D1*
X6818Y9552D1*
X6829Y9580D1*
X6844Y9606D1*
X6854Y9617D1*
X6839Y9635D1*
X6825Y9661D1*
X6817Y9690D1*
X6815Y9720D1*
X6819Y9749D1*
X6827Y9771D1*
X6814D1*
Y10020D1*
X6720D1*
X6723Y9988D1*
X6721Y9959D1*
X6715Y9929D1*
X6706Y9901D1*
X6693Y9874D1*
X6676Y9849D1*
X6661Y9831D1*
X6763Y9729D1*
X6782Y9705D1*
X6796Y9679D1*
X6802Y9656D1*
X6805Y9598D1*
X6806Y8739D1*
X6834Y8711D1*
X6875Y8713D1*
X6905Y8710D1*
X6934Y8702D1*
X6962Y8691D1*
X6988Y8677D1*
X7012Y8659D1*
X7027Y8644D1*
Y8853D1*
X7057D1*
X7469D2*
X7605D1*
Y8399D1*
X8436D1*
X8463D1*
Y8273D1*
X8621Y8272D1*
X9285D1*
X9286Y8492D1*
X7987D1*
Y8946D1*
X7841D1*
Y9201D1*
X7553Y9202D1*
X7516Y9164D1*
X7515Y9118D1*
X7510Y9089D1*
X7500Y9061D1*
X7487Y9034D1*
X7468Y9005D1*
Y8852D1*
X3957Y10720D2*
X4429D1*
Y10020D1*
X4804D1*
X4963D1*
Y10357D1*
Y10528D1*
X4947Y10541D1*
X4927Y10562D1*
X4909Y10586D1*
X4895Y10613D1*
X4884Y10641D1*
X4876Y10670D1*
X4873Y10699D1*
Y10729D1*
X4878Y10759D1*
X4891Y10800D1*
X4602Y10801D1*
X4573Y10806D1*
X4547Y10820D1*
X4526Y10841D1*
X4514Y10868D1*
X4510Y10893D1*
Y11272D1*
X4222Y11273D1*
X3954Y11274D1*
X3957Y10720D1*
X4429D2*
D26*
X3937Y10293D1*
X4535Y10020D2*
Y9790D1*
X8750Y8774D2*
X7988Y8492D1*
X7025Y9518D2*
X6881Y9398D1*
D27*
X10937Y4293D3*
X3937Y9293D3*
X10937Y7293D3*
Y8293D3*
Y9293D3*
Y10293D3*
D28*
X8937Y11293D3*
D27*
X3937Y4293D3*
Y5293D3*
Y6293D3*
Y7293D3*
D28*
X9937Y11293D3*
D29*
X6940Y7240D3*
Y6571D3*
X7316Y8544D3*
Y7875D3*
D30*
X5096Y7938D3*
X5765D3*
D32*
X8016Y8086D3*
Y6906D3*
D33*
X8574Y4455D3*
X9754D3*
D30*
X8127Y6324D3*
X7458D3*
D34*
X6411Y8848D3*
Y9360D3*
D27*
X10937Y5293D3*
Y6293D3*
X3937Y8293D3*
Y10293D3*
D34*
X4918Y6577D3*
Y7088D3*
X5368Y6909D3*
Y7420D3*
X4558Y8086D3*
Y7574D3*
X4540Y9200D3*
Y8688D3*
D35*
X4535Y9790D3*
X5047D3*
D37*
X5939Y8971D3*
D38*
X5840Y9267D3*
D39*
X5644D3*
X5447D3*
D38*
X5250D3*
D37*
X5151Y8971D3*
D38*
X5250Y8676D3*
D39*
X5447D3*
X5644D3*
D38*
X5840D3*
D44*
X6583Y7541D3*
X6426D3*
X6268D3*
X6111D3*
X5953D3*
Y6754D3*
X6111D3*
X6268D3*
X6426D3*
X6583D3*
D45*
X6268Y7148D3*
D46*
X6446Y7093D3*
X6268Y7198D3*
X6091Y7093D3*
G36*
X4602Y11693D2*
X5272D1*
Y10893D1*
X4602D1*
Y11693D1*
G37*
D48*
X5822Y5763D3*
X6078D3*
X6333D3*
X6589D3*
X6845D3*
D49*
X5172Y5654D3*
X7495D3*
D50*
X4965Y4572D3*
X7702D3*
D51*
X6333Y4710D3*
D28*
X5937Y11293D3*
X6937D3*
X7937D3*
D52*
X8750Y8774D3*
Y9704D3*
D56*
X7025Y9912D3*
D57*
Y9715D3*
Y9518D3*
Y9321D3*
D58*
X7556Y9381D3*
Y9617D3*
Y9853D3*
D33*
X8227Y10470D3*
X9407D3*
D32*
X10039Y8683D3*
Y9863D3*
D60*
X6547Y10755D3*
Y10558D3*
Y10362D3*
X6850D3*
Y10558D3*
Y10755D3*
D61*
X10156Y7411D3*
X9656D3*
X9156D3*
X8656D3*
Y5285D3*
X9156D3*
X9656D3*
X10156D3*
M02*
