G04 DipTrace 2.4.0.2*
%INUSBBiPower3.2.gto*%
%MOIN*%
%ADD10C,0.0098*%
%ADD25C,0.006*%
%ADD36O,0.0114X0.012*%
%ADD40O,0.0102X0.0108*%
%ADD42C,0.007*%
%ADD47C,0.0157*%
%ADD59O,0.0144X0.0163*%
%ADD89C,0.0046*%
%ADD90C,0.0033*%
%FSLAX44Y44*%
G04*
G70*
G90*
G75*
G01*
%LNTopSilk*%
%LPD*%
X7661Y7735D2*
D25*
Y7257D1*
X8371D2*
Y7735D1*
X8925Y4100D2*
X9403D1*
Y4810D2*
X8925D1*
X6312Y8553D2*
D10*
X6509D1*
X5053Y8873D2*
D25*
Y8578D1*
Y9070D2*
Y9365D1*
X6037Y9070D2*
Y9365D1*
Y8578D2*
Y8873D1*
D36*
X5840Y9514D3*
X5053Y8578D2*
D25*
X5151D1*
X5939D2*
X6037D1*
Y9365D2*
X5939D1*
X5053D2*
X5151D1*
X5875Y6754D2*
X5816D1*
Y7541D1*
X5875D1*
X6721D2*
X6662D1*
X6721D2*
Y6754D1*
X6662D1*
D40*
X6585Y7780D3*
X4786Y3863D2*
D10*
X7881D1*
X7790Y5056D2*
Y5170D1*
X4877Y5056D2*
Y5170D1*
Y3863D2*
Y4088D1*
X7790Y3863D2*
Y4088D1*
D47*
X5822Y6225D3*
X4786Y3627D2*
D10*
X7881D1*
X4786Y3863D2*
Y3627D1*
X7881Y3863D2*
Y3627D1*
X8720Y8284D2*
D25*
G02X8720Y8284I30J0D01*
G01*
X9595Y8394D2*
Y10084D1*
X7905D1*
Y8394D1*
X9595D1*
X6946Y9164D2*
D42*
X7025D1*
X7733D2*
X7812D1*
X7733Y10070D2*
X7812D1*
X6946D2*
X7143D1*
X8578Y10115D2*
D25*
X9056D1*
Y10825D2*
X8578D1*
X10394Y9034D2*
Y9511D1*
X9684D2*
Y9034D1*
X6989Y10860D2*
X6435D1*
Y10256D1*
X6989D1*
Y10860D1*
D59*
X6271Y10756D3*
X10390Y6860D2*
D10*
X8421D1*
X10390Y5836D2*
X8421D1*
Y6860D2*
Y5836D1*
X10390Y6545D2*
Y6860D1*
Y6151D2*
Y5836D1*
Y6545D2*
G03X10390Y6151I0J-197D01*
G01*
X6916Y7730D2*
D89*
X6907Y7759D1*
X6890Y7788D1*
X6873Y7802D1*
X6838D1*
X6821Y7788D1*
X6804Y7759D1*
X6795Y7730D1*
X6787Y7687D1*
Y7615D1*
X6795Y7573D1*
X6804Y7544D1*
X6821Y7515D1*
X6838Y7501D1*
X6873D1*
X6890Y7515D1*
X6907Y7544D1*
X6916Y7573D1*
X7014Y7802D2*
X6989Y7787D1*
X6980Y7759D1*
Y7730D1*
X6989Y7702D1*
X7006Y7687D1*
X7040Y7673D1*
X7066Y7658D1*
X7083Y7630D1*
X7092Y7601D1*
Y7558D1*
X7083Y7529D1*
X7075Y7515D1*
X7049Y7501D1*
X7014D1*
X6989Y7515D1*
X6980Y7529D1*
X6971Y7558D1*
Y7601D1*
X6980Y7630D1*
X6997Y7658D1*
X7023Y7673D1*
X7057Y7687D1*
X7075Y7702D1*
X7083Y7730D1*
Y7759D1*
X7075Y7787D1*
X7049Y7802D1*
X7014D1*
X6895Y8141D2*
X6887Y8169D1*
X6870Y8198D1*
X6852Y8212D1*
X6818D1*
X6801Y8198D1*
X6784Y8169D1*
X6775Y8141D1*
X6766Y8098D1*
Y8026D1*
X6775Y7983D1*
X6784Y7954D1*
X6801Y7925D1*
X6818Y7911D1*
X6852D1*
X6870Y7925D1*
X6887Y7954D1*
X6895Y7983D1*
X7054Y8169D2*
X7046Y8198D1*
X7020Y8212D1*
X7003D1*
X6977Y8198D1*
X6960Y8155D1*
X6951Y8083D1*
Y8011D1*
X6960Y7954D1*
X6977Y7925D1*
X7003Y7911D1*
X7011D1*
X7037Y7925D1*
X7054Y7954D1*
X7063Y7997D1*
Y8011D1*
X7054Y8054D1*
X7037Y8083D1*
X7011Y8097D1*
X7003D1*
X6977Y8083D1*
X6960Y8054D1*
X6951Y8011D1*
X5412Y8387D2*
X5403Y8416D1*
X5386Y8444D1*
X5369Y8459D1*
X5334D1*
X5317Y8444D1*
X5300Y8416D1*
X5291Y8387D1*
X5283Y8344D1*
Y8272D1*
X5291Y8229D1*
X5300Y8200D1*
X5317Y8172D1*
X5334Y8157D1*
X5369D1*
X5386Y8172D1*
X5403Y8200D1*
X5412Y8229D1*
X5502Y8157D2*
X5588Y8458D1*
X5467D1*
X7342Y7444D2*
X7314Y7435D1*
X7285Y7418D1*
X7271Y7401D1*
Y7366D1*
X7285Y7349D1*
X7314Y7332D1*
X7342Y7323D1*
X7385Y7315D1*
X7457D1*
X7500Y7323D1*
X7529Y7332D1*
X7557Y7349D1*
X7572Y7366D1*
Y7401D1*
X7557Y7418D1*
X7529Y7435D1*
X7500Y7444D1*
X7328Y7499D2*
X7314Y7517D1*
X7271Y7542D1*
X7572D1*
X10182Y4354D2*
X10173Y4382D1*
X10156Y4411D1*
X10139Y4425D1*
X10104D1*
X10087Y4411D1*
X10070Y4382D1*
X10061Y4354D1*
X10053Y4311D1*
Y4239D1*
X10061Y4196D1*
X10070Y4167D1*
X10087Y4139D1*
X10104Y4124D1*
X10139D1*
X10156Y4139D1*
X10173Y4167D1*
X10182Y4196D1*
X10255Y4425D2*
X10349D1*
X10298Y4310D1*
X10323D1*
X10341Y4296D1*
X10349Y4282D1*
X10358Y4239D1*
Y4210D1*
X10349Y4167D1*
X10332Y4138D1*
X10306Y4124D1*
X10280D1*
X10255Y4138D1*
X10246Y4153D1*
X10237Y4181D1*
X7416Y6759D2*
X7408Y6787D1*
X7390Y6816D1*
X7373Y6830D1*
X7339D1*
X7321Y6816D1*
X7304Y6787D1*
X7296Y6759D1*
X7287Y6715D1*
Y6643D1*
X7296Y6601D1*
X7304Y6572D1*
X7321Y6543D1*
X7339Y6529D1*
X7373D1*
X7390Y6543D1*
X7408Y6572D1*
X7416Y6601D1*
X7575Y6830D2*
X7489D1*
X7480Y6701D1*
X7489Y6715D1*
X7515Y6730D1*
X7541D1*
X7566Y6715D1*
X7584Y6687D1*
X7592Y6643D1*
Y6615D1*
X7584Y6572D1*
X7566Y6543D1*
X7541Y6529D1*
X7515D1*
X7489Y6543D1*
X7480Y6558D1*
X7472Y6586D1*
X6580Y9282D2*
Y8981D1*
X6641D1*
X6666Y8995D1*
X6684Y9024D1*
X6692Y9053D1*
X6701Y9096D1*
Y9168D1*
X6692Y9211D1*
X6684Y9239D1*
X6666Y9268D1*
X6641Y9282D1*
X6580D1*
X6756Y9225D2*
X6774Y9239D1*
X6800Y9282D1*
Y8981D1*
X4820Y6225D2*
X4897D1*
X4923Y6240D1*
X4932Y6254D1*
X4940Y6283D1*
Y6312D1*
X4932Y6340D1*
X4923Y6355D1*
X4897Y6369D1*
X4820D1*
Y6068D1*
X4880Y6225D2*
X4940Y6068D1*
X4996Y6311D2*
X5013Y6326D1*
X5039Y6369D1*
Y6068D1*
X5193Y6546D2*
X5270D1*
X5296Y6561D1*
X5305Y6575D1*
X5314Y6603D1*
Y6632D1*
X5305Y6661D1*
X5296Y6675D1*
X5270Y6690D1*
X5193D1*
Y6388D1*
X5253Y6546D2*
X5314Y6388D1*
X5378Y6618D2*
Y6632D1*
X5386Y6661D1*
X5395Y6675D1*
X5412Y6689D1*
X5447D1*
X5464Y6675D1*
X5472Y6661D1*
X5481Y6632D1*
Y6603D1*
X5472Y6575D1*
X5455Y6532D1*
X5369Y6388D1*
X5490D1*
X4417Y7182D2*
X4494D1*
X4520Y7197D1*
X4529Y7211D1*
X4537Y7240D1*
Y7269D1*
X4529Y7297D1*
X4520Y7312D1*
X4494Y7326D1*
X4417D1*
Y7025D1*
X4477Y7182D2*
X4537Y7025D1*
X4610Y7326D2*
X4705D1*
X4653Y7211D1*
X4679D1*
X4696Y7197D1*
X4705Y7182D1*
X4714Y7139D1*
Y7111D1*
X4705Y7068D1*
X4688Y7039D1*
X4662Y7025D1*
X4636D1*
X4610Y7039D1*
X4602Y7053D1*
X4593Y7082D1*
X4841Y8864D2*
Y8942D1*
X4826Y8967D1*
X4812Y8976D1*
X4783Y8985D1*
X4755D1*
X4726Y8976D1*
X4712Y8967D1*
X4697Y8942D1*
Y8864D1*
X4999D1*
X4841Y8924D2*
X4999Y8985D1*
Y9126D2*
X4698D1*
X4898Y9040D1*
Y9169D1*
X4631Y10147D2*
X4708D1*
X4734Y10161D1*
X4743Y10176D1*
X4751Y10204D1*
Y10233D1*
X4743Y10262D1*
X4734Y10276D1*
X4708Y10290D1*
X4631D1*
Y9989D1*
X4691Y10147D2*
X4751Y9989D1*
X4910Y10290D2*
X4824D1*
X4815Y10161D1*
X4824Y10175D1*
X4850Y10190D1*
X4876D1*
X4901Y10175D1*
X4919Y10147D1*
X4927Y10104D1*
Y10075D1*
X4919Y10032D1*
X4901Y10003D1*
X4876Y9989D1*
X4850D1*
X4824Y10003D1*
X4815Y10018D1*
X4807Y10046D1*
X5630Y9882D2*
Y9667D1*
X5639Y9624D1*
X5656Y9595D1*
X5682Y9581D1*
X5699D1*
X5725Y9595D1*
X5742Y9624D1*
X5751Y9667D1*
Y9882D1*
X5807Y9825D2*
X5824Y9839D1*
X5850Y9882D1*
Y9581D1*
X6217Y8091D2*
Y7875D1*
X6226Y7832D1*
X6243Y7804D1*
X6269Y7789D1*
X6286D1*
X6312Y7804D1*
X6329Y7832D1*
X6338Y7875D1*
Y8091D1*
X6402Y8019D2*
Y8033D1*
X6411Y8062D1*
X6419Y8076D1*
X6437Y8090D1*
X6471D1*
X6488Y8076D1*
X6497Y8062D1*
X6505Y8033D1*
Y8004D1*
X6497Y7976D1*
X6480Y7933D1*
X6393Y7789D1*
X6514D1*
X5545Y6524D2*
Y6309D1*
X5553Y6266D1*
X5570Y6237D1*
X5596Y6222D1*
X5613D1*
X5639Y6237D1*
X5657Y6266D1*
X5665Y6309D1*
Y6524D1*
X5841Y6481D2*
X5824Y6510D1*
X5798Y6524D1*
X5764D1*
X5738Y6510D1*
X5721Y6481D1*
Y6452D1*
X5729Y6423D1*
X5738Y6409D1*
X5755Y6395D1*
X5807Y6366D1*
X5824Y6352D1*
X5833Y6337D1*
X5841Y6309D1*
Y6266D1*
X5824Y6237D1*
X5798Y6222D1*
X5764D1*
X5738Y6237D1*
X5721Y6266D1*
X5897Y6524D2*
Y6222D1*
X5974D1*
X6000Y6237D1*
X6009Y6251D1*
X6017Y6280D1*
Y6323D1*
X6009Y6352D1*
X6000Y6366D1*
X5974Y6380D1*
X6000Y6395D1*
X6009Y6409D1*
X6017Y6438D1*
Y6466D1*
X6009Y6495D1*
X6000Y6510D1*
X5974Y6524D1*
X5897D1*
Y6380D2*
X5974D1*
X6073Y6423D2*
Y6222D1*
Y6366D2*
X6099Y6409D1*
X6116Y6423D1*
X6142D1*
X6159Y6409D1*
X6168Y6366D1*
Y6222D1*
Y6366D2*
X6194Y6409D1*
X6211Y6423D1*
X6237D1*
X6254Y6409D1*
X6263Y6366D1*
Y6222D1*
X6318Y6524D2*
X6327Y6510D1*
X6336Y6524D1*
X6327Y6538D1*
X6318Y6524D1*
X6327Y6423D2*
Y6222D1*
X6495Y6380D2*
X6477Y6409D1*
X6460Y6423D1*
X6434D1*
X6417Y6409D1*
X6400Y6380D1*
X6391Y6337D1*
Y6309D1*
X6400Y6266D1*
X6417Y6237D1*
X6434Y6222D1*
X6460D1*
X6477Y6237D1*
X6495Y6266D1*
X6550Y6524D2*
Y6222D1*
X6628D1*
X6654Y6237D1*
X6662Y6251D1*
X6671Y6280D1*
Y6323D1*
X6662Y6352D1*
X6654Y6366D1*
X6628Y6380D1*
X6654Y6395D1*
X6662Y6409D1*
X6671Y6438D1*
Y6466D1*
X6662Y6495D1*
X6654Y6510D1*
X6628Y6524D1*
X6550D1*
Y6380D2*
X6628D1*
X6726Y6466D2*
X6744Y6481D1*
X6770Y6524D1*
Y6222D1*
X7618Y8784D2*
Y8482D1*
X7721D1*
X7777Y8726D2*
X7794Y8741D1*
X7820Y8783D1*
Y8482D1*
X7465Y10450D2*
Y10235D1*
X7474Y10192D1*
X7491Y10163D1*
X7517Y10149D1*
X7534D1*
X7560Y10163D1*
X7577Y10192D1*
X7586Y10235D1*
Y10450D1*
X7659D2*
X7753D1*
X7702Y10335D1*
X7728D1*
X7745Y10321D1*
X7753Y10307D1*
X7762Y10263D1*
Y10235D1*
X7753Y10192D1*
X7736Y10163D1*
X7710Y10149D1*
X7685D1*
X7659Y10163D1*
X7650Y10178D1*
X7642Y10206D1*
X7799Y10731D2*
X7791Y10760D1*
X7774Y10789D1*
X7757Y10803D1*
X7722D1*
X7705Y10789D1*
X7688Y10760D1*
X7679Y10731D1*
X7670Y10688D1*
Y10616D1*
X7679Y10574D1*
X7688Y10545D1*
X7705Y10516D1*
X7722Y10502D1*
X7757D1*
X7774Y10516D1*
X7791Y10545D1*
X7799Y10574D1*
X7864Y10731D2*
Y10745D1*
X7872Y10774D1*
X7881Y10788D1*
X7898Y10803D1*
X7933D1*
X7950Y10788D1*
X7958Y10774D1*
X7967Y10745D1*
Y10717D1*
X7958Y10688D1*
X7941Y10645D1*
X7855Y10502D1*
X7976D1*
X10010Y10356D2*
X10002Y10385D1*
X9984Y10413D1*
X9967Y10428D1*
X9933D1*
X9916Y10413D1*
X9899Y10385D1*
X9890Y10356D1*
X9881Y10313D1*
Y10241D1*
X9890Y10198D1*
X9899Y10169D1*
X9916Y10141D1*
X9933Y10126D1*
X9967D1*
X9984Y10141D1*
X10002Y10169D1*
X10010Y10198D1*
X10152Y10126D2*
Y10427D1*
X10066Y10227D1*
X10195D1*
X7080Y10768D2*
Y10553D1*
X7088Y10510D1*
X7105Y10481D1*
X7131Y10467D1*
X7148D1*
X7174Y10481D1*
X7192Y10510D1*
X7200Y10553D1*
Y10768D1*
X7342Y10467D2*
Y10768D1*
X7256Y10567D1*
X7385D1*
X10091Y4827D2*
Y4612D1*
X10100Y4569D1*
X10117Y4540D1*
X10143Y4526D1*
X10160D1*
X10186Y4540D1*
X10203Y4569D1*
X10212Y4612D1*
Y4827D1*
X10370Y4784D2*
X10362Y4812D1*
X10336Y4827D1*
X10319D1*
X10293Y4812D1*
X10276Y4769D1*
X10267Y4698D1*
Y4626D1*
X10276Y4569D1*
X10293Y4540D1*
X10319Y4526D1*
X10327D1*
X10353Y4540D1*
X10370Y4569D1*
X10379Y4612D1*
Y4626D1*
X10370Y4669D1*
X10353Y4698D1*
X10327Y4712D1*
X10319D1*
X10293Y4698D1*
X10276Y4669D1*
X10267Y4626D1*
X10689Y6887D2*
D90*
X10682Y6916D1*
X10668Y6945D1*
X10654Y6959D1*
X10625D1*
X10610Y6945D1*
X10596Y6916D1*
X10589Y6887D1*
X10582Y6844D1*
Y6772D1*
X10589Y6729D1*
X10596Y6701D1*
X10610Y6672D1*
X10625Y6657D1*
X10654D1*
X10668Y6672D1*
X10682Y6701D1*
X10689Y6729D1*
Y6772D1*
X10654D1*
X10823Y6959D2*
Y6657D1*
X10722Y6959D1*
Y6657D1*
X10856Y6959D2*
Y6657D1*
X10906D1*
X10927Y6672D1*
X10942Y6701D1*
X10949Y6729D1*
X10956Y6772D1*
Y6844D1*
X10949Y6887D1*
X10942Y6916D1*
X10927Y6945D1*
X10906Y6959D1*
X10856D1*
X9356Y10945D2*
X9327Y10938D1*
X9298Y10923D1*
X9284Y10909D1*
Y10881D1*
X9298Y10866D1*
X9327Y10852D1*
X9356Y10845D1*
X9399Y10837D1*
X9471D1*
X9514Y10845D1*
X9542Y10852D1*
X9571Y10866D1*
X9586Y10881D1*
Y10909D1*
X9571Y10923D1*
X9542Y10938D1*
X9514Y10945D1*
X9471D1*
Y10909D1*
X9284Y11078D2*
X9586D1*
X9284Y10978D1*
X9586D1*
X9284Y11111D2*
X9586D1*
Y11161D1*
X9571Y11183D1*
X9542Y11197D1*
X9514Y11204D1*
X9471Y11212D1*
X9399D1*
X9356Y11204D1*
X9327Y11197D1*
X9298Y11183D1*
X9284Y11161D1*
Y11111D1*
X4144Y5868D2*
X4137Y5897D1*
X4123Y5926D1*
X4108Y5940D1*
X4080D1*
X4065Y5926D1*
X4051Y5897D1*
X4044Y5868D1*
X4037Y5825D1*
Y5753D1*
X4044Y5711D1*
X4051Y5682D1*
X4065Y5653D1*
X4080Y5639D1*
X4108D1*
X4123Y5653D1*
X4137Y5682D1*
X4144Y5711D1*
Y5753D1*
X4108D1*
X4277Y5940D2*
Y5639D1*
X4177Y5940D1*
Y5639D1*
X4310Y5940D2*
Y5639D1*
X4361D1*
X4382Y5653D1*
X4396Y5682D1*
X4404Y5711D1*
X4411Y5753D1*
Y5825D1*
X4404Y5868D1*
X4396Y5897D1*
X4382Y5926D1*
X4361Y5940D1*
X4310D1*
X5361Y10456D2*
X5333Y10449D1*
X5304Y10434D1*
X5290Y10420D1*
Y10392D1*
X5304Y10377D1*
X5333Y10363D1*
X5361Y10356D1*
X5405Y10348D1*
X5477D1*
X5519Y10356D1*
X5548Y10363D1*
X5577Y10377D1*
X5591Y10392D1*
Y10420D1*
X5577Y10434D1*
X5548Y10449D1*
X5519Y10456D1*
X5290Y10489D2*
X5591D1*
X5290Y10589D2*
X5591D1*
X5433Y10489D2*
Y10589D1*
X5361Y10730D2*
X5333Y10723D1*
X5304Y10708D1*
X5290Y10694D1*
Y10665D1*
X5304Y10651D1*
X5333Y10637D1*
X5361Y10629D1*
X5405Y10622D1*
X5477D1*
X5519Y10629D1*
X5548Y10637D1*
X5577Y10651D1*
X5591Y10665D1*
Y10694D1*
X5577Y10708D1*
X5548Y10723D1*
X5519Y10730D1*
X5477D1*
Y10694D1*
X5641Y10763D2*
Y10899D1*
X5290Y10932D2*
X5591D1*
Y10982D1*
X5577Y11003D1*
X5548Y11018D1*
X5519Y11025D1*
X5477Y11032D1*
X5405D1*
X5361Y11025D1*
X5333Y11018D1*
X5304Y11003D1*
X5290Y10982D1*
Y10932D1*
Y11158D2*
Y11065D1*
X5591D1*
Y11158D1*
X5433Y11065D2*
Y11122D1*
X5290Y11241D2*
X5591D1*
X5290Y11191D2*
Y11291D1*
X3996Y9948D2*
X4054Y9647D1*
X4111Y9948D1*
X4251Y9876D2*
X4244Y9905D1*
X4230Y9934D1*
X4216Y9948D1*
X4187D1*
X4173Y9934D1*
X4158Y9905D1*
X4151Y9876D1*
X4144Y9833D1*
Y9761D1*
X4151Y9719D1*
X4158Y9690D1*
X4173Y9661D1*
X4187Y9647D1*
X4216D1*
X4230Y9661D1*
X4244Y9690D1*
X4251Y9719D1*
X4392Y9876D2*
X4385Y9905D1*
X4370Y9934D1*
X4356Y9948D1*
X4327D1*
X4313Y9934D1*
X4299Y9905D1*
X4291Y9876D1*
X4284Y9833D1*
Y9761D1*
X4291Y9719D1*
X4299Y9690D1*
X4313Y9661D1*
X4327Y9647D1*
X4356D1*
X4370Y9661D1*
X4385Y9690D1*
X4392Y9719D1*
X6377Y11229D2*
Y10928D1*
X6409Y11229D2*
Y10928D1*
X6460D1*
X6481Y10943D1*
X6496Y10971D1*
X6503Y11000D1*
X6510Y11043D1*
Y11115D1*
X6503Y11158D1*
X6496Y11186D1*
X6481Y11215D1*
X6460Y11229D1*
X6409D1*
X7297Y11226D2*
Y10925D1*
X7347D1*
X7369Y10939D1*
X7383Y10968D1*
X7390Y10997D1*
X7397Y11040D1*
Y11112D1*
X7390Y11155D1*
X7383Y11183D1*
X7369Y11212D1*
X7347Y11226D1*
X7297D1*
X7545Y10925D2*
Y11226D1*
X7487Y10925D1*
X7430Y11226D1*
Y10925D1*
X8295Y11234D2*
Y10933D1*
X8345D1*
X8366Y10947D1*
X8381Y10976D1*
X8388Y11004D1*
X8395Y11047D1*
Y11119D1*
X8388Y11162D1*
X8381Y11191D1*
X8366Y11220D1*
X8345Y11234D1*
X8295D1*
X8428Y11076D2*
X8493D1*
X8514Y11090D1*
X8521Y11105D1*
X8528Y11133D1*
Y11177D1*
X8521Y11205D1*
X8514Y11220D1*
X8493Y11234D1*
X8428D1*
Y10933D1*
X5157Y10253D2*
D89*
Y9951D1*
X5234D1*
X5260Y9966D1*
X5269Y9980D1*
X5277Y10009D1*
Y10052D1*
X5269Y10081D1*
X5260Y10095D1*
X5234Y10109D1*
X5260Y10124D1*
X5269Y10138D1*
X5277Y10167D1*
Y10195D1*
X5269Y10224D1*
X5260Y10239D1*
X5234Y10253D1*
X5157D1*
Y10109D2*
X5234D1*
X5333Y10253D2*
X5342Y10239D1*
X5350Y10253D1*
X5342Y10267D1*
X5333Y10253D1*
X5342Y10152D2*
Y9951D1*
X5406Y10095D2*
X5483D1*
X5509Y10109D1*
X5518Y10124D1*
X5526Y10152D1*
Y10195D1*
X5518Y10224D1*
X5509Y10239D1*
X5483Y10253D1*
X5406D1*
Y9951D1*
X5625Y10152D2*
X5608Y10138D1*
X5591Y10109D1*
X5582Y10066D1*
Y10038D1*
X5591Y9994D1*
X5608Y9966D1*
X5625Y9951D1*
X5651D1*
X5668Y9966D1*
X5685Y9994D1*
X5694Y10038D1*
Y10066D1*
X5685Y10109D1*
X5668Y10138D1*
X5651Y10152D1*
X5625D1*
X5750D2*
X5784Y9951D1*
X5818Y10152D1*
X5853Y9951D1*
X5887Y10152D1*
X5943Y10066D2*
X6046D1*
Y10095D1*
X6038Y10124D1*
X6029Y10138D1*
X6012Y10152D1*
X5986D1*
X5969Y10138D1*
X5951Y10109D1*
X5943Y10066D1*
Y10038D1*
X5951Y9994D1*
X5969Y9966D1*
X5986Y9951D1*
X6012D1*
X6029Y9966D1*
X6046Y9994D1*
X6102Y10152D2*
Y9951D1*
Y10066D2*
X6110Y10109D1*
X6128Y10138D1*
X6145Y10152D1*
X6171D1*
X6244Y10252D2*
X6338D1*
X6287Y10138D1*
X6313D1*
X6330Y10123D1*
X6338Y10109D1*
X6347Y10066D1*
Y10038D1*
X6338Y9994D1*
X6321Y9966D1*
X6295Y9951D1*
X6269D1*
X6244Y9966D1*
X6235Y9980D1*
X6226Y10009D1*
X6411Y9980D2*
X6403Y9966D1*
X6411Y9951D1*
X6420Y9966D1*
X6411Y9980D1*
X6484Y10181D2*
Y10195D1*
X6493Y10224D1*
X6501Y10238D1*
X6519Y10252D1*
X6553D1*
X6570Y10238D1*
X6579Y10224D1*
X6587Y10195D1*
Y10167D1*
X6579Y10138D1*
X6562Y10095D1*
X6475Y9951D1*
X6596D1*
X8236Y4911D2*
Y5040D1*
X8222Y5084D1*
X8208Y5098D1*
X8179Y5112D1*
X8150D1*
X8122Y5098D1*
X8107Y5084D1*
X8093Y5040D1*
Y4911D1*
X8394D1*
X8236Y5012D2*
X8394Y5112D1*
X8093Y5291D2*
X8107Y5248D1*
X8150Y5219D1*
X8222Y5205D1*
X8265D1*
X8337Y5219D1*
X8380Y5248D1*
X8394Y5291D1*
Y5320D1*
X8380Y5363D1*
X8337Y5391D1*
X8265Y5406D1*
X8222D1*
X8150Y5391D1*
X8107Y5363D1*
X8093Y5320D1*
Y5291D1*
X8150Y5391D2*
X8337Y5219D1*
X8365Y5513D2*
X8380Y5499D1*
X8394Y5513D1*
X8380Y5528D1*
X8365Y5513D1*
X8193Y5807D2*
X8236Y5792D1*
X8265Y5764D1*
X8279Y5721D1*
Y5706D1*
X8265Y5663D1*
X8236Y5635D1*
X8193Y5620D1*
X8179D1*
X8136Y5635D1*
X8107Y5663D1*
X8093Y5706D1*
Y5721D1*
X8107Y5764D1*
X8136Y5792D1*
X8193Y5807D1*
X8265D1*
X8337Y5792D1*
X8380Y5764D1*
X8394Y5721D1*
Y5692D1*
X8380Y5649D1*
X8351Y5635D1*
X8093Y6086D2*
Y5899D1*
X8394D1*
Y6086D1*
X8236Y5899D2*
Y6014D1*
X8514Y8283D2*
X8402D1*
Y7981D1*
Y8139D2*
X8470D1*
X8578Y8182D2*
X8629Y7981D1*
X8612Y7924D1*
X8595Y7895D1*
X8578Y7881D1*
X8569D1*
X8681Y8182D2*
X8629Y7981D1*
X8737Y8283D2*
Y7981D1*
Y8139D2*
X8754Y8168D1*
X8771Y8182D1*
X8797D1*
X8814Y8168D1*
X8831Y8139D1*
X8840Y8096D1*
Y8067D1*
X8831Y8024D1*
X8814Y7996D1*
X8797Y7981D1*
X8771D1*
X8754Y7996D1*
X8737Y8024D1*
X8896Y8096D2*
X8999D1*
Y8125D1*
X8990Y8154D1*
X8982Y8168D1*
X8964Y8182D1*
X8939D1*
X8921Y8168D1*
X8904Y8139D1*
X8896Y8096D1*
Y8067D1*
X8904Y8024D1*
X8921Y7996D1*
X8939Y7981D1*
X8964D1*
X8982Y7996D1*
X8999Y8024D1*
X9054Y8182D2*
Y7981D1*
Y8096D2*
X9063Y8139D1*
X9080Y8168D1*
X9098Y8182D1*
X9123D1*
X9354Y8283D2*
Y7981D1*
X9457D1*
X9616Y8182D2*
Y7981D1*
Y8139D2*
X9599Y8168D1*
X9582Y8182D1*
X9556D1*
X9539Y8168D1*
X9522Y8139D1*
X9513Y8096D1*
Y8067D1*
X9522Y8024D1*
X9539Y7996D1*
X9556Y7981D1*
X9582D1*
X9599Y7996D1*
X9616Y8024D1*
X9672Y8283D2*
Y7981D1*
Y8139D2*
X9689Y8168D1*
X9706Y8182D1*
X9732D1*
X9749Y8168D1*
X9766Y8139D1*
X9775Y8096D1*
Y8067D1*
X9766Y8024D1*
X9749Y7996D1*
X9732Y7981D1*
X9706D1*
X9689Y7996D1*
X9672Y8024D1*
X9925Y8139D2*
X9917Y8168D1*
X9891Y8182D1*
X9865D1*
X9839Y8168D1*
X9831Y8139D1*
X9839Y8111D1*
X9856Y8096D1*
X9899Y8082D1*
X9917Y8067D1*
X9925Y8039D1*
Y8024D1*
X9917Y7996D1*
X9891Y7981D1*
X9865D1*
X9839Y7996D1*
X9831Y8024D1*
X10156Y8283D2*
Y7981D1*
X10211Y8182D2*
Y7981D1*
Y8125D2*
X10237Y8168D1*
X10255Y8182D1*
X10280D1*
X10298Y8168D1*
X10306Y8125D1*
Y7981D1*
X10465Y8139D2*
X10448Y8168D1*
X10431Y8182D1*
X10405D1*
X10388Y8168D1*
X10370Y8139D1*
X10362Y8096D1*
Y8067D1*
X10370Y8024D1*
X10388Y7996D1*
X10405Y7981D1*
X10431D1*
X10448Y7996D1*
X10465Y8024D1*
X10529Y8010D2*
X10521Y7995D1*
X10529Y7981D1*
X10538Y7995D1*
X10529Y8010D1*
X10501Y4802D2*
D90*
X10583D1*
X10631Y4952D2*
X10709D1*
X10666Y4838D1*
X10688D1*
X10702Y4823D1*
X10709Y4809D1*
X10717Y4766D1*
Y4737D1*
X10709Y4694D1*
X10695Y4665D1*
X10674Y4651D1*
X10652D1*
X10631Y4665D1*
X10624Y4680D1*
X10616Y4709D1*
X10750Y4852D2*
X10793Y4651D1*
X10836Y4852D1*
X10883Y4952D2*
X10962D1*
X10919Y4838D1*
X10940D1*
X10954Y4823D1*
X10962Y4809D1*
X10969Y4766D1*
Y4737D1*
X10962Y4694D1*
X10947Y4665D1*
X10926Y4651D1*
X10904D1*
X10883Y4665D1*
X10876Y4680D1*
X10868Y4709D1*
X10665Y5897D2*
X10658Y5925D1*
X10644Y5954D1*
X10629Y5968D1*
X10601D1*
X10586Y5954D1*
X10572Y5925D1*
X10565Y5897D1*
X10558Y5854D1*
Y5782D1*
X10565Y5739D1*
X10572Y5710D1*
X10586Y5682D1*
X10601Y5667D1*
X10629D1*
X10644Y5682D1*
X10658Y5710D1*
X10665Y5739D1*
Y5782D1*
X10629D1*
X10798Y5968D2*
Y5667D1*
X10698Y5968D1*
Y5667D1*
X10831Y5968D2*
Y5667D1*
X10882D1*
X10903Y5682D1*
X10918Y5710D1*
X10925Y5739D1*
X10932Y5782D1*
Y5854D1*
X10925Y5897D1*
X10918Y5925D1*
X10903Y5954D1*
X10882Y5968D1*
X10831D1*
X10306Y10985D2*
X10364Y10684D1*
X10421Y10985D1*
X10562Y10914D2*
X10554Y10942D1*
X10540Y10971D1*
X10526Y10985D1*
X10497D1*
X10483Y10971D1*
X10468Y10942D1*
X10461Y10914D1*
X10454Y10870D1*
Y10798D1*
X10461Y10756D1*
X10468Y10727D1*
X10483Y10698D1*
X10497Y10684D1*
X10526D1*
X10540Y10698D1*
X10554Y10727D1*
X10562Y10756D1*
X10702Y10914D2*
X10695Y10942D1*
X10680Y10971D1*
X10666Y10985D1*
X10637D1*
X10623Y10971D1*
X10609Y10942D1*
X10602Y10914D1*
X10594Y10870D1*
Y10798D1*
X10602Y10756D1*
X10609Y10727D1*
X10623Y10698D1*
X10637Y10684D1*
X10666D1*
X10680Y10698D1*
X10695Y10727D1*
X10702Y10756D1*
X10556Y9956D2*
X10614Y9654D1*
X10671Y9956D1*
X10811Y9884D2*
X10804Y9912D1*
X10790Y9941D1*
X10776Y9956D1*
X10747D1*
X10732Y9941D1*
X10718Y9912D1*
X10711Y9884D1*
X10704Y9841D1*
Y9769D1*
X10711Y9726D1*
X10718Y9697D1*
X10732Y9669D1*
X10747Y9654D1*
X10776D1*
X10790Y9669D1*
X10804Y9697D1*
X10811Y9726D1*
X10952Y9884D2*
X10945Y9912D1*
X10930Y9941D1*
X10916Y9956D1*
X10887D1*
X10873Y9941D1*
X10859Y9912D1*
X10851Y9884D1*
X10844Y9841D1*
Y9769D1*
X10851Y9726D1*
X10859Y9697D1*
X10873Y9669D1*
X10887Y9654D1*
X10916D1*
X10930Y9669D1*
X10945Y9697D1*
X10952Y9726D1*
X10566Y7959D2*
X10623Y7658D1*
X10681Y7959D1*
X10821Y7887D2*
X10814Y7916D1*
X10799Y7945D1*
X10785Y7959D1*
X10757D1*
X10742Y7945D1*
X10728Y7916D1*
X10721Y7887D1*
X10713Y7844D1*
Y7772D1*
X10721Y7729D1*
X10728Y7701D1*
X10742Y7672D1*
X10757Y7658D1*
X10785D1*
X10799Y7672D1*
X10814Y7701D1*
X10821Y7729D1*
X10961Y7887D2*
X10954Y7916D1*
X10940Y7945D1*
X10926Y7959D1*
X10897D1*
X10883Y7945D1*
X10868Y7916D1*
X10861Y7887D1*
X10854Y7844D1*
Y7772D1*
X10861Y7729D1*
X10868Y7701D1*
X10883Y7672D1*
X10897Y7658D1*
X10926D1*
X10940Y7672D1*
X10954Y7701D1*
X10961Y7729D1*
X4443Y10662D2*
Y10676D1*
X4458Y10705D1*
X4472Y10719D1*
X4501Y10733D1*
X4558D1*
X4587Y10719D1*
X4601Y10705D1*
X4616Y10676D1*
Y10647D1*
X4601Y10619D1*
X4572Y10576D1*
X4429Y10432D1*
X4630D1*
X4782Y10733D2*
X4739Y10719D1*
X4710Y10676D1*
X4695Y10604D1*
Y10561D1*
X4710Y10490D1*
X4739Y10446D1*
X4782Y10432D1*
X4810D1*
X4853Y10446D1*
X4882Y10490D1*
X4896Y10561D1*
Y10604D1*
X4882Y10676D1*
X4853Y10719D1*
X4810Y10733D1*
X4782D1*
X4882Y10676D2*
X4710Y10490D1*
X4962Y10676D2*
X4991Y10691D1*
X5034Y10733D1*
Y10432D1*
X5243D2*
Y10733D1*
X5100Y10533D1*
X5315D1*
X4118Y6908D2*
X4046D1*
X4039Y6779D1*
X4046Y6793D1*
X4068Y6808D1*
X4089D1*
X4111Y6793D1*
X4125Y6765D1*
X4132Y6722D1*
Y6693D1*
X4125Y6650D1*
X4111Y6621D1*
X4089Y6607D1*
X4068D1*
X4046Y6621D1*
X4039Y6636D1*
X4032Y6664D1*
X4165Y6908D2*
X4222Y6607D1*
X4280Y6908D1*
X4313D2*
Y6693D1*
X4320Y6650D1*
X4334Y6621D1*
X4356Y6607D1*
X4370D1*
X4392Y6621D1*
X4406Y6650D1*
X4413Y6693D1*
Y6908D1*
X4546Y6865D2*
X4532Y6894D1*
X4511Y6908D1*
X4482D1*
X4460Y6894D1*
X4446Y6865D1*
Y6837D1*
X4453Y6808D1*
X4460Y6794D1*
X4475Y6779D1*
X4518Y6750D1*
X4532Y6736D1*
X4539Y6722D1*
X4546Y6693D1*
Y6650D1*
X4532Y6621D1*
X4511Y6607D1*
X4482D1*
X4460Y6621D1*
X4446Y6650D1*
X4579Y6908D2*
Y6607D1*
X4644D1*
X4665Y6621D1*
X4673Y6636D1*
X4680Y6664D1*
Y6707D1*
X4673Y6736D1*
X4665Y6750D1*
X4644Y6765D1*
X4665Y6779D1*
X4673Y6794D1*
X4680Y6822D1*
Y6851D1*
X4673Y6879D1*
X4665Y6894D1*
X4644Y6908D1*
X4579D1*
Y6765D2*
X4644D1*
X4145Y4874D2*
X4138Y4903D1*
X4123Y4932D1*
X4109Y4946D1*
X4080D1*
X4066Y4932D1*
X4052Y4903D1*
X4045Y4874D1*
X4037Y4831D1*
Y4759D1*
X4045Y4716D1*
X4052Y4688D1*
X4066Y4659D1*
X4080Y4644D1*
X4109D1*
X4123Y4659D1*
X4138Y4688D1*
X4145Y4716D1*
Y4759D1*
X4109D1*
X4278Y4946D2*
Y4644D1*
X4178Y4946D1*
Y4644D1*
X4311Y4946D2*
Y4644D1*
X4361D1*
X4383Y4659D1*
X4397Y4688D1*
X4404Y4716D1*
X4412Y4759D1*
Y4831D1*
X4404Y4874D1*
X4397Y4903D1*
X4383Y4932D1*
X4361Y4946D1*
X4311D1*
X4131Y8864D2*
X4124Y8892D1*
X4110Y8921D1*
X4096Y8935D1*
X4067D1*
X4052Y8921D1*
X4038Y8892D1*
X4031Y8864D1*
X4024Y8821D1*
Y8749D1*
X4031Y8706D1*
X4038Y8677D1*
X4052Y8649D1*
X4067Y8634D1*
X4096D1*
X4110Y8649D1*
X4124Y8677D1*
X4131Y8706D1*
Y8749D1*
X4096D1*
X4265Y8935D2*
Y8634D1*
X4164Y8935D1*
Y8634D1*
X4297Y8935D2*
Y8634D1*
X4348D1*
X4369Y8649D1*
X4384Y8677D1*
X4391Y8706D1*
X4398Y8749D1*
Y8821D1*
X4391Y8864D1*
X4384Y8892D1*
X4369Y8921D1*
X4348Y8935D1*
X4297D1*
X3974Y10953D2*
X4032Y10652D1*
X4089Y10953D1*
X4229Y10882D2*
X4222Y10910D1*
X4208Y10939D1*
X4193Y10953D1*
X4165D1*
X4150Y10939D1*
X4136Y10910D1*
X4129Y10882D1*
X4122Y10838D1*
Y10766D1*
X4129Y10724D1*
X4136Y10695D1*
X4150Y10666D1*
X4165Y10652D1*
X4193D1*
X4208Y10666D1*
X4222Y10695D1*
X4229Y10724D1*
X4370Y10882D2*
X4363Y10910D1*
X4348Y10939D1*
X4334Y10953D1*
X4305D1*
X4291Y10939D1*
X4277Y10910D1*
X4269Y10882D1*
X4262Y10838D1*
Y10766D1*
X4269Y10724D1*
X4277Y10695D1*
X4291Y10666D1*
X4305Y10652D1*
X4334D1*
X4348Y10666D1*
X4363Y10695D1*
X4370Y10724D1*
X10582Y8975D2*
X10639Y8673D1*
X10696Y8975D1*
X10837Y8903D2*
X10830Y8932D1*
X10815Y8960D1*
X10801Y8975D1*
X10772D1*
X10758Y8960D1*
X10744Y8932D1*
X10736Y8903D1*
X10729Y8860D1*
Y8788D1*
X10736Y8745D1*
X10744Y8716D1*
X10758Y8688D1*
X10772Y8673D1*
X10801D1*
X10815Y8688D1*
X10830Y8716D1*
X10837Y8745D1*
X10977Y8903D2*
X10970Y8932D1*
X10956Y8960D1*
X10942Y8975D1*
X10913D1*
X10898Y8960D1*
X10884Y8932D1*
X10877Y8903D1*
X10870Y8860D1*
Y8788D1*
X10877Y8745D1*
X10884Y8716D1*
X10898Y8688D1*
X10913Y8673D1*
X10942D1*
X10956Y8688D1*
X10970Y8716D1*
X10977Y8745D1*
X4114Y7935D2*
X4042D1*
X4035Y7806D1*
X4042Y7821D1*
X4064Y7835D1*
X4085D1*
X4107Y7821D1*
X4121Y7792D1*
X4129Y7749D1*
Y7720D1*
X4121Y7677D1*
X4107Y7648D1*
X4085Y7634D1*
X4064D1*
X4042Y7648D1*
X4035Y7663D1*
X4028Y7692D1*
X4161Y7936D2*
X4219Y7634D1*
X4276Y7936D1*
X4309D2*
Y7720D1*
X4316Y7677D1*
X4330Y7649D1*
X4352Y7634D1*
X4366D1*
X4388Y7649D1*
X4402Y7677D1*
X4409Y7720D1*
Y7936D1*
X4543Y7893D2*
X4528Y7921D1*
X4507Y7936D1*
X4478D1*
X4457Y7921D1*
X4442Y7893D1*
Y7864D1*
X4449Y7835D1*
X4457Y7821D1*
X4471Y7807D1*
X4514Y7778D1*
X4528Y7764D1*
X4535Y7749D1*
X4543Y7720D1*
Y7677D1*
X4528Y7649D1*
X4507Y7634D1*
X4478D1*
X4457Y7649D1*
X4442Y7677D1*
X4575Y7936D2*
Y7634D1*
X4640D1*
X4662Y7649D1*
X4669Y7663D1*
X4676Y7692D1*
Y7735D1*
X4669Y7764D1*
X4662Y7778D1*
X4640Y7792D1*
X4662Y7807D1*
X4669Y7821D1*
X4676Y7849D1*
Y7878D1*
X4669Y7907D1*
X4662Y7921D1*
X4640Y7936D1*
X4575D1*
Y7792D2*
X4640D1*
X5667Y10713D2*
D89*
Y10498D1*
X5676Y10455D1*
X5693Y10426D1*
X5719Y10412D1*
X5736D1*
X5762Y10426D1*
X5779Y10455D1*
X5788Y10498D1*
Y10713D1*
X5964Y10670D2*
X5947Y10699D1*
X5921Y10713D1*
X5886D1*
X5861Y10699D1*
X5843Y10670D1*
Y10641D1*
X5852Y10612D1*
X5861Y10598D1*
X5878Y10584D1*
X5929Y10555D1*
X5947Y10541D1*
X5955Y10526D1*
X5964Y10498D1*
Y10455D1*
X5947Y10426D1*
X5921Y10412D1*
X5886D1*
X5861Y10426D1*
X5843Y10455D1*
X6019Y10713D2*
Y10412D1*
X6097D1*
X6123Y10426D1*
X6131Y10440D1*
X6140Y10469D1*
Y10512D1*
X6131Y10541D1*
X6123Y10555D1*
X6097Y10569D1*
X6123Y10584D1*
X6131Y10598D1*
X6140Y10627D1*
Y10656D1*
X6131Y10684D1*
X6123Y10699D1*
X6097Y10713D1*
X6019D1*
Y10569D2*
X6097D1*
M02*
