G04 DipTrace 2.4.0.2*
%INUSBBiPower3.2.gbl*%
%MOIN*%
%ADD14C,0.02*%
%ADD15C,0.03*%
%ADD16C,0.012*%
%ADD18C,0.01*%
%ADD19C,0.035*%
%ADD20C,0.045*%
%ADD22C,0.025*%
%ADD25C,0.006*%
%ADD27R,0.08X0.0669*%
%ADD28R,0.0669X0.08*%
%ADD46C,0.028*%
%ADD62C,0.028*%
%FSLAX44Y44*%
G04*
G70*
G90*
G75*
G01*
%LNBottom*%
%LPD*%
X4595Y6832D2*
D15*
X4739D1*
X5275Y7368D1*
Y7754D1*
X5537Y8016D1*
X6024D1*
X6066Y8058D1*
X8548Y10328D2*
D19*
Y10292D1*
X7976D1*
X7664Y9979D1*
Y7608D1*
X7608D1*
X7951Y10302D2*
D15*
X7976Y10292D1*
X4595Y6832D2*
D20*
X4157D1*
Y6293D1*
X3937D1*
X4158Y6832D2*
Y7293D1*
X3937D1*
X4953Y9444D2*
D18*
Y9827D1*
X5792Y10665D1*
X5915D1*
X5105Y10711D2*
X5215Y10821D1*
Y11015D1*
X4937Y11293D1*
X5747Y6855D2*
X5593D1*
X5037Y6299D1*
X4886D1*
X4921Y6264D1*
Y6215D1*
Y7536D2*
Y7778D1*
X5509Y8366D1*
X5676D1*
X3937Y4293D2*
D16*
X4270D1*
Y5293D1*
Y4993D1*
X5270Y5992D1*
Y6232D1*
X5495Y6458D1*
X5802D1*
X6412Y7068D1*
X6243D1*
X6424Y7248D1*
Y7285D1*
X3937Y5293D2*
X4270D1*
X4473Y4140D2*
X4355D1*
Y4210D1*
X4272Y4293D1*
X5015Y8473D2*
X5425Y8884D1*
X6119D1*
X6406Y8597D1*
Y8426D1*
X3937Y8293D2*
Y8164D1*
X3723Y8378D1*
X4431D1*
X4608Y8555D1*
X4933D1*
X5015Y8473D1*
X8160Y5733D2*
X8163D1*
X8510Y5387D1*
X8908D1*
X9088D1*
X9229Y5247D1*
X10354D1*
X10726Y5618D1*
Y6293D1*
X10937D1*
X10354Y5247D2*
X10307Y5293D1*
X10937D1*
X9284Y5801D2*
D18*
Y5762D1*
X8908Y5387D1*
X6446Y7093D2*
D16*
X6373D1*
X6268Y7198D1*
D18*
X6196D1*
X6091Y7093D1*
X6268Y7198D2*
X6243Y7068D1*
X6386Y7906D2*
D16*
Y7985D1*
X6406Y8005D1*
Y8338D1*
X6450Y8382D1*
X6406Y8426D1*
X7285Y9148D2*
D22*
Y10248D1*
X7712Y10675D1*
X8425D1*
X9044Y11293D1*
X8937D1*
X7285Y10248D2*
D16*
X7330D1*
X7435Y10353D1*
X5822Y7507D2*
D18*
Y7540D1*
X6550D1*
X6767Y7323D1*
Y6441D1*
X6523Y6196D1*
X6863Y8481D2*
X6767Y8386D1*
Y7323D1*
X6490Y9988D2*
Y10604D1*
X6180Y10915D1*
Y11051D1*
X5937Y11293D1*
X5986Y10103D2*
X5975D1*
X6354Y9723D1*
X6584D1*
X6741Y9880D1*
Y11490D1*
X6937Y11293D1*
X5552Y9937D2*
Y9847D1*
X5998D1*
X6285Y9559D1*
X6666D1*
X6922Y9815D1*
Y10614D1*
X7068Y10761D1*
X7299D1*
X7832Y11293D1*
X7937D1*
X10937Y4293D2*
X8948D1*
X8484Y4757D1*
X5592Y6177D2*
D14*
X6072D1*
X6431Y6536D1*
X6504D1*
X5986Y8613D2*
D18*
X5949D1*
X5990Y8654D1*
X5556D1*
X5111Y8209D1*
X4810D1*
X4727Y8292D1*
X4983Y8814D2*
D16*
Y8950D1*
X4455D1*
X4112Y9293D1*
X3937D1*
X6917Y9096D2*
X6956Y9134D1*
X6832Y9258D1*
X5427D1*
X4983Y8814D1*
X6917Y9096D2*
Y9083D1*
X7236Y8764D1*
Y7326D1*
X8118Y6443D1*
Y7351D1*
Y6835D1*
X8585Y6368D1*
X9739D1*
X9807D1*
X10788Y7350D1*
X10880D1*
X10937Y7293D1*
X3937Y10293D2*
X4460D1*
X4599Y10154D1*
X9739Y6368D2*
X10167Y5941D1*
Y5648D1*
X10153Y5634D1*
X8118Y7351D2*
X8638D1*
Y6457D1*
X10176Y10527D2*
Y9285D1*
X10143Y9252D1*
Y8394D1*
X10015Y8266D1*
D62*
X7951Y10302D3*
X7608Y7608D3*
X8548Y10328D3*
X5915Y10665D3*
X5986Y10103D3*
X5552Y9937D3*
X4983Y8814D3*
X6917Y9096D3*
X7421Y6041D3*
X4953Y9444D3*
X8160Y5733D3*
X7298Y5096D3*
X4851Y5132D3*
X4516Y5254D3*
X8638Y6457D3*
X7285Y9148D3*
X5015Y8473D3*
X9284Y5801D3*
X5986Y8613D3*
X4473Y4140D3*
X6406Y8426D3*
X5543Y4640D3*
X7118Y4628D3*
X5676Y8366D3*
X4727Y8292D3*
X4921Y7536D3*
X6301Y5193D3*
X8484Y4757D3*
X6504Y6536D3*
X5592Y6177D3*
X6523Y6196D3*
X4921Y6215D3*
X5747Y6855D3*
X5822Y7507D3*
X4595Y6832D3*
X6066Y8058D3*
X6386Y7906D3*
X6863Y8481D3*
X6490Y9988D3*
X5105Y10711D3*
X10176Y10527D3*
X4210Y11012D3*
X4599Y10154D3*
X10752Y11063D3*
X10153Y5634D3*
X7435Y10353D3*
X10015Y8266D3*
X10143Y9252D3*
X5455Y9064D2*
D25*
X6682D1*
X5396Y9005D2*
X6698D1*
X5338Y8947D2*
X6733D1*
X5279Y8888D2*
X6768D1*
X3967Y8830D2*
X4356D1*
X5221D2*
X5895D1*
X6076D2*
X6768D1*
X3967Y8771D2*
X4749D1*
X5217D2*
X5470D1*
X6163D2*
X6769D1*
X3967Y8712D2*
X4769D1*
X5198D2*
X5407D1*
X6202D2*
X6769D1*
X3967Y8654D2*
X4809D1*
X5157D2*
X5349D1*
X6220D2*
X6702D1*
X3967Y8595D2*
X4898D1*
X5069D2*
X5290D1*
X6223D2*
X6655D1*
X3967Y8537D2*
X5232D1*
X6211D2*
X6631D1*
X3967Y8478D2*
X4582D1*
X4871D2*
X5173D1*
X6181D2*
X6625D1*
X3967Y8420D2*
X4526D1*
X4926D2*
X5115D1*
X6120D2*
X6624D1*
X3967Y8361D2*
X4499D1*
X4954D2*
X5057D1*
X5914D2*
X6619D1*
X3967Y8303D2*
X4489D1*
X5905D2*
X6619D1*
X3967Y8244D2*
X4494D1*
X6226D2*
X6619D1*
X3967Y8186D2*
X4514D1*
X6278D2*
X6619D1*
X3967Y8127D2*
X4557D1*
X6304D2*
X6619D1*
X3967Y8069D2*
X4658D1*
X6314D2*
X6619D1*
X3967Y8010D2*
X4946D1*
X6309D2*
X6619D1*
X3967Y7952D2*
X4887D1*
X6290D2*
X6619D1*
X3967Y7893D2*
X4829D1*
X6249D2*
X6619D1*
X3967Y7835D2*
X4784D1*
X6190D2*
X6619D1*
X3967Y7776D2*
X4772D1*
X6060D2*
X6619D1*
X4435Y7717D2*
X4770D1*
X5587D2*
X5719D1*
X5925D2*
X6619D1*
X4435Y7659D2*
X4718D1*
X5528D2*
X5641D1*
X4435Y7600D2*
X4692D1*
X5523D2*
X5604D1*
X4435Y7542D2*
X4683D1*
X5523D2*
X5587D1*
X4435Y7483D2*
X4688D1*
X5523D2*
X5585D1*
X4453Y7425D2*
X4711D1*
X5523D2*
X5599D1*
X4473Y7366D2*
X4756D1*
X5523D2*
X5631D1*
X6013D2*
X6517D1*
X4481Y7308D2*
X4867D1*
X5515D2*
X5696D1*
X5947D2*
X6576D1*
X4481Y7249D2*
X4808D1*
X5492D2*
X6619D1*
X4481Y7191D2*
X4750D1*
X5446D2*
X6619D1*
X5388Y7132D2*
X6619D1*
X5329Y7074D2*
X5662D1*
X5832D2*
X6619D1*
X5270Y7015D2*
X5573D1*
X5922D2*
X6619D1*
X5213Y6957D2*
X5487D1*
X5962D2*
X6619D1*
X5154Y6898D2*
X5429D1*
X5981D2*
X6619D1*
X5096Y6840D2*
X5370D1*
X5985D2*
X6619D1*
X5037Y6781D2*
X5312D1*
X5974D2*
X6619D1*
X4979Y6722D2*
X5253D1*
X5944D2*
X6359D1*
X4920Y6664D2*
X5194D1*
X5885D2*
X6281D1*
X4831Y6605D2*
X5136D1*
X5550D2*
X6223D1*
X4740Y6547D2*
X5077D1*
X5491D2*
X6164D1*
X4480Y6488D2*
X5019D1*
X5433D2*
X6106D1*
X4480Y6430D2*
X4824D1*
X5374D2*
X6047D1*
X4480Y6371D2*
X4743D1*
X5315D2*
X5459D1*
X5726D2*
X5988D1*
X4480Y6313D2*
X4704D1*
X5257D2*
X5398D1*
X4478Y6254D2*
X4686D1*
X5198D2*
X5367D1*
X4464Y6196D2*
X4683D1*
X5158D2*
X5355D1*
X4439Y6137D2*
X4696D1*
X5145D2*
X5358D1*
X4435Y6079D2*
X4726D1*
X5114D2*
X5376D1*
X6251D2*
X6316D1*
X6729D2*
X9808D1*
X10251D2*
X10938D1*
X4435Y6020D2*
X4788D1*
X5054D2*
X5416D1*
X6189D2*
X6365D1*
X6681D2*
X9866D1*
X10303D2*
X10938D1*
X4435Y5962D2*
X5500D1*
X5684D2*
X9925D1*
X10323D2*
X10938D1*
X4435Y5903D2*
X9983D1*
X10325D2*
X10938D1*
X3967Y5845D2*
X10009D1*
X10325D2*
X10938D1*
X3967Y5786D2*
X9971D1*
X10336D2*
X10938D1*
X3967Y5727D2*
X9935D1*
X10372D2*
X10938D1*
X3967Y5669D2*
X9918D1*
X10389D2*
X10938D1*
X3967Y5610D2*
X9916D1*
X10390D2*
X10938D1*
X3967Y5552D2*
X9930D1*
X10377D2*
X10937D1*
X3967Y5493D2*
X9963D1*
X10344D2*
X10937D1*
X3967Y5435D2*
X10029D1*
X10278D2*
X10937D1*
X3967Y5376D2*
X10937D1*
X3967Y5318D2*
X10937D1*
X3967Y5259D2*
X10937D1*
X3967Y5201D2*
X10937D1*
X3967Y5142D2*
X10937D1*
X3967Y5084D2*
X10937D1*
X3967Y5025D2*
X10937D1*
X3967Y4967D2*
X8378D1*
X8590D2*
X10937D1*
X3967Y4908D2*
X8302D1*
X8667D2*
X10937D1*
X3967Y4850D2*
X8266D1*
X8703D2*
X10937D1*
X3967Y4791D2*
X8249D1*
X8720D2*
X10936D1*
X3967Y4732D2*
X8247D1*
X8721D2*
X10936D1*
X3967Y4674D2*
X8261D1*
X8774D2*
X10439D1*
X3967Y4615D2*
X8295D1*
X8833D2*
X10439D1*
X3967Y4557D2*
X8361D1*
X8891D2*
X10439D1*
X3967Y4498D2*
X8536D1*
X8950D2*
X10439D1*
X3967Y4440D2*
X8595D1*
X9009D2*
X10439D1*
X3967Y4381D2*
X8653D1*
X3967Y4323D2*
X8712D1*
X3967Y4264D2*
X8770D1*
X3967Y4206D2*
X8828D1*
X3967Y4147D2*
X10439D1*
X3967Y4089D2*
X10439D1*
X3967Y4030D2*
X10439D1*
X5153Y6214D2*
X5151Y6185D1*
X5145Y6156D1*
X5136Y6127D1*
X5123Y6100D1*
X5107Y6075D1*
X5087Y6053D1*
X5065Y6033D1*
X5040Y6016D1*
X5014Y6002D1*
X4986Y5992D1*
X4956Y5985D1*
X4927Y5983D1*
X4897Y5984D1*
X4867Y5989D1*
X4839Y5998D1*
X4811Y6010D1*
X4786Y6026D1*
X4763Y6045D1*
X4742Y6066D1*
X4725Y6090D1*
X4710Y6117D1*
X4699Y6144D1*
X4692Y6173D1*
X4689Y6203D1*
Y6233D1*
X4693Y6263D1*
X4701Y6291D1*
X4713Y6319D1*
X4728Y6345D1*
X4746Y6368D1*
X4768Y6390D1*
X4802Y6414D1*
X4822Y6426D1*
X4859Y6439D1*
X4903Y6447D1*
X4933D1*
X4971Y6441D1*
X4978Y6442D1*
X5492Y6956D1*
X5515Y6975D1*
X5537Y6986D1*
X5573Y7009D1*
X5594Y7030D1*
X5618Y7048D1*
X5644Y7063D1*
X5671Y7075D1*
X5700Y7083D1*
X5730Y7087D1*
X5760D1*
X5789Y7084D1*
X5818Y7077D1*
X5846Y7066D1*
X5872Y7051D1*
X5896Y7034D1*
X5918Y7013D1*
X5937Y6990D1*
X5953Y6964D1*
X5965Y6937D1*
X5973Y6908D1*
X5978Y6879D1*
X5980Y6855D1*
X5978Y6826D1*
X5972Y6796D1*
X5962Y6768D1*
X5949Y6741D1*
X5933Y6716D1*
X5914Y6693D1*
X5891Y6673D1*
X5867Y6656D1*
X5840Y6643D1*
X5812Y6632D1*
X5783Y6626D1*
X5753Y6623D1*
X5723Y6624D1*
X5694Y6629D1*
X5665Y6638D1*
X5638Y6650D1*
X5609Y6669D1*
X5376Y6437D1*
X5153Y6215D1*
X4474Y6515D2*
X4473Y6263D1*
X4461Y6205D1*
X4439Y6149D1*
X4429Y6130D1*
Y5866D1*
X3961D1*
Y3973D1*
X10445Y3983D1*
Y4152D1*
X9950Y4151D1*
X8948D1*
X8918Y4154D1*
X8890Y4163D1*
X8869Y4175D1*
X8826Y4214D1*
X8513Y4527D1*
X8490Y4525D1*
X8460Y4526D1*
X8431Y4531D1*
X8402Y4540D1*
X8375Y4552D1*
X8349Y4568D1*
X8326Y4587D1*
X8306Y4608D1*
X8288Y4633D1*
X8274Y4659D1*
X8263Y4687D1*
X8256Y4716D1*
X8252Y4745D1*
X8253Y4775D1*
X8257Y4805D1*
X8265Y4834D1*
X8276Y4861D1*
X8292Y4887D1*
X8310Y4911D1*
X8331Y4932D1*
X8355Y4950D1*
X8381Y4965D1*
X8408Y4977D1*
X8437Y4985D1*
X8467Y4989D1*
X8496D1*
X8526Y4986D1*
X8555Y4978D1*
X8583Y4967D1*
X8609Y4953D1*
X8633Y4935D1*
X8655Y4915D1*
X8674Y4891D1*
X8689Y4866D1*
X8702Y4839D1*
X8710Y4810D1*
X8715Y4780D1*
Y4728D1*
X9008Y4436D1*
X10445D1*
Y4720D1*
X10943D1*
Y4912D1*
X10944Y6118D1*
X10203Y6120D1*
X10275Y6049D1*
X10294Y6025D1*
X10308Y5999D1*
X10316Y5970D1*
X10319Y5941D1*
Y5796D1*
X10343Y5769D1*
X10359Y5743D1*
X10371Y5716D1*
X10380Y5687D1*
X10384Y5658D1*
X10386Y5634D1*
X10384Y5605D1*
X10378Y5575D1*
X10368Y5547D1*
X10355Y5520D1*
X10339Y5495D1*
X10320Y5472D1*
X10297Y5452D1*
X10273Y5435D1*
X10246Y5422D1*
X10218Y5411D1*
X10189Y5405D1*
X10159Y5402D1*
X10129Y5403D1*
X10100Y5408D1*
X10071Y5417D1*
X10044Y5429D1*
X10019Y5445D1*
X9995Y5464D1*
X9975Y5486D1*
X9957Y5510D1*
X9943Y5536D1*
X9932Y5564D1*
X9925Y5593D1*
X9921Y5623D1*
X9922Y5653D1*
X9926Y5682D1*
X9934Y5711D1*
X9946Y5739D1*
X9961Y5764D1*
X9979Y5788D1*
X10014Y5820D1*
X10015Y5877D1*
X9772Y6121D1*
X6797Y6128D1*
X6771Y6142D1*
X6767Y6158D1*
Y6239D1*
X6754Y6226D1*
X6755Y6196D1*
X6753Y6166D1*
X6747Y6137D1*
X6738Y6108D1*
X6725Y6081D1*
X6708Y6056D1*
X6689Y6034D1*
X6667Y6014D1*
X6642Y5997D1*
X6616Y5983D1*
X6587Y5973D1*
X6558Y5966D1*
X6528Y5964D1*
X6499Y5965D1*
X6469Y5970D1*
X6441Y5979D1*
X6413Y5991D1*
X6388Y6007D1*
X6365Y6025D1*
X6344Y6047D1*
X6326Y6071D1*
X6312Y6098D1*
X6299Y6134D1*
X6208Y6041D1*
X6185Y6022D1*
X6160Y6006D1*
X6132Y5995D1*
X6103Y5987D1*
X6042Y5985D1*
X5721D1*
X5685Y5964D1*
X5657Y5954D1*
X5628Y5948D1*
X5598Y5945D1*
X5568Y5946D1*
X5539Y5951D1*
X5510Y5960D1*
X5483Y5972D1*
X5457Y5988D1*
X5434Y6007D1*
X5414Y6029D1*
X5396Y6053D1*
X5382Y6079D1*
X5371Y6107D1*
X5364Y6136D1*
X5360Y6166D1*
X5361Y6195D1*
X5365Y6225D1*
X5373Y6254D1*
X5384Y6281D1*
X5400Y6307D1*
X5418Y6331D1*
X5439Y6352D1*
X5463Y6370D1*
X5489Y6385D1*
X5516Y6397D1*
X5545Y6405D1*
X5575Y6409D1*
X5604D1*
X5634Y6406D1*
X5663Y6398D1*
X5691Y6387D1*
X5722Y6369D1*
X5993Y6370D1*
X6148Y6525D1*
X6295Y6672D1*
X6318Y6692D1*
X6340Y6706D1*
X6351Y6711D1*
X6375Y6729D1*
X6400Y6744D1*
X6428Y6756D1*
X6457Y6764D1*
X6486Y6768D1*
X6516D1*
X6546Y6765D1*
X6575Y6758D1*
X6603Y6747D1*
X6625Y6734D1*
X6624Y7265D1*
X6490Y7398D1*
X6027D1*
X6008Y7367D1*
X5988Y7344D1*
X5966Y7324D1*
X5942Y7307D1*
X5915Y7294D1*
X5887Y7284D1*
X5858Y7277D1*
X5828Y7274D1*
X5798Y7276D1*
X5769Y7281D1*
X5740Y7289D1*
X5713Y7302D1*
X5687Y7317D1*
X5664Y7336D1*
X5644Y7358D1*
X5626Y7382D1*
X5612Y7408D1*
X5601Y7436D1*
X5593Y7465D1*
X5590Y7495D1*
Y7525D1*
X5595Y7554D1*
X5603Y7583D1*
X5614Y7611D1*
X5629Y7637D1*
X5648Y7660D1*
X5669Y7681D1*
X5693Y7700D1*
X5718Y7715D1*
X5746Y7726D1*
X5775Y7734D1*
X5804Y7738D1*
X5834Y7739D1*
X5864Y7735D1*
X5893Y7728D1*
X5921Y7717D1*
X5947Y7702D1*
X5973Y7683D1*
X6550D1*
X6580Y7680D1*
X6603Y7672D1*
X6625Y7682D1*
Y8386D1*
X6627Y8410D1*
X6634Y8440D1*
X6631Y8469D1*
Y8499D1*
X6635Y8529D1*
X6643Y8558D1*
X6655Y8585D1*
X6670Y8611D1*
X6688Y8635D1*
X6710Y8656D1*
X6733Y8674D1*
X6774Y8695D1*
Y8913D1*
X6739Y8947D1*
X6721Y8971D1*
X6707Y8997D1*
X6696Y9025D1*
X6689Y9054D1*
X6685Y9084D1*
X6686Y9105D1*
X5490Y9106D1*
X5215Y8830D1*
X5214Y8784D1*
X5208Y8754D1*
X5198Y8726D1*
X5185Y8699D1*
X5169Y8674D1*
X5150Y8651D1*
X5127Y8631D1*
X5103Y8614D1*
X5076Y8601D1*
X5048Y8591D1*
X5019Y8584D1*
X4989Y8581D1*
X4959Y8583D1*
X4930Y8588D1*
X4901Y8596D1*
X4874Y8609D1*
X4848Y8624D1*
X4825Y8643D1*
X4805Y8665D1*
X4787Y8689D1*
X4773Y8715D1*
X4762Y8743D1*
X4755Y8772D1*
X4752Y8797D1*
X4455D1*
X4426Y8800D1*
X4397Y8809D1*
X4371Y8823D1*
X4348Y8842D1*
X4323Y8866D1*
X3961D1*
Y7720D1*
X4429D1*
Y7458D1*
X4446Y7428D1*
X4466Y7372D1*
X4475Y7313D1*
X4476Y7148D1*
X4595Y7149D1*
X4654Y7144D1*
X4686Y7136D1*
X4716Y7151D1*
X4873Y7308D1*
X4839Y7318D1*
X4811Y7331D1*
X4786Y7347D1*
X4763Y7365D1*
X4742Y7387D1*
X4725Y7411D1*
X4710Y7438D1*
X4699Y7465D1*
X4692Y7494D1*
X4689Y7524D1*
Y7554D1*
X4693Y7584D1*
X4701Y7612D1*
X4713Y7640D1*
X4728Y7666D1*
X4746Y7689D1*
X4779Y7719D1*
X4778Y7778D1*
X4782Y7808D1*
X4791Y7836D1*
X4802Y7857D1*
X4841Y7900D1*
X5009Y8067D1*
X4809D1*
X4789Y8069D1*
X4762Y8063D1*
X4733Y8060D1*
X4703Y8061D1*
X4673Y8066D1*
X4645Y8075D1*
X4617Y8087D1*
X4592Y8103D1*
X4569Y8122D1*
X4548Y8144D1*
X4531Y8168D1*
X4516Y8194D1*
X4505Y8222D1*
X4498Y8251D1*
X4495Y8281D1*
Y8310D1*
X4499Y8340D1*
X4507Y8369D1*
X4519Y8396D1*
X4534Y8422D1*
X4552Y8446D1*
X4574Y8467D1*
X4597Y8485D1*
X4623Y8500D1*
X4651Y8512D1*
X4680Y8520D1*
X4709Y8524D1*
X4739D1*
X4769Y8521D1*
X4798Y8514D1*
X4826Y8503D1*
X4852Y8488D1*
X4876Y8470D1*
X4898Y8450D1*
X4916Y8427D1*
X4932Y8401D1*
X4944Y8374D1*
X4951Y8351D1*
X5053Y8352D1*
X5456Y8755D1*
X5479Y8773D1*
X5505Y8787D1*
X5528Y8794D1*
X5586Y8796D1*
X5844Y8797D1*
X5882Y8821D1*
X5910Y8833D1*
X5939Y8841D1*
X5968Y8845D1*
X5998D1*
X6028Y8842D1*
X6057Y8835D1*
X6085Y8824D1*
X6111Y8809D1*
X6135Y8792D1*
X6157Y8771D1*
X6176Y8748D1*
X6191Y8722D1*
X6203Y8695D1*
X6212Y8666D1*
X6217Y8637D1*
X6218Y8613D1*
X6216Y8584D1*
X6211Y8554D1*
X6201Y8526D1*
X6188Y8499D1*
X6172Y8474D1*
X6152Y8451D1*
X6130Y8431D1*
X6105Y8414D1*
X6079Y8401D1*
X6051Y8390D1*
X6022Y8384D1*
X5992Y8381D1*
X5962Y8382D1*
X5932Y8387D1*
X5907Y8395D1*
X5908Y8366D1*
X5906Y8337D1*
X5901Y8307D1*
X5891Y8279D1*
X5881Y8258D1*
X5931Y8259D1*
X5968Y8280D1*
X5996Y8290D1*
X6025Y8297D1*
X6055Y8300D1*
X6085D1*
X6114Y8295D1*
X6143Y8288D1*
X6171Y8276D1*
X6197Y8262D1*
X6221Y8244D1*
X6243Y8223D1*
X6262Y8200D1*
X6278Y8175D1*
X6291Y8148D1*
X6300Y8120D1*
X6306Y8090D1*
X6308Y8060D1*
X6306Y8031D1*
X6301Y8001D1*
X6292Y7973D1*
X6280Y7945D1*
X6265Y7920D1*
X6237Y7887D1*
X6173Y7825D1*
X6148Y7808D1*
X6122Y7795D1*
X6094Y7784D1*
X6065Y7777D1*
X6037Y7774D1*
X5638D1*
X5517Y7654D1*
Y7368D1*
X5515Y7338D1*
X5510Y7308D1*
X5501Y7280D1*
X5488Y7253D1*
X5473Y7227D1*
X5455Y7206D1*
X4910Y6660D1*
X4888Y6641D1*
X4863Y6624D1*
X4836Y6610D1*
X3962Y11210D2*
X4504D1*
X5370D2*
X5505D1*
X9370D2*
X10947D1*
X3962Y11152D2*
X4504D1*
X5370D2*
X5505D1*
X9370D2*
X10947D1*
X3962Y11093D2*
X4504D1*
X5370D2*
X5505D1*
X9370D2*
X10947D1*
X3962Y11035D2*
X4504D1*
X5370D2*
X5505D1*
X9370D2*
X10947D1*
X3962Y10976D2*
X4504D1*
X5370D2*
X5505D1*
X9370D2*
X10947D1*
X3962Y10917D2*
X4504D1*
X5370D2*
X5505D1*
X9370D2*
X10947D1*
X3962Y10859D2*
X4511D1*
X5363D2*
X5505D1*
X9370D2*
X10947D1*
X3962Y10800D2*
X4885D1*
X5361D2*
X5721D1*
X8864D2*
X10947D1*
X3962Y10742D2*
X4869D1*
X5341D2*
X5662D1*
X8806D2*
X10947D1*
X3962Y10683D2*
X4869D1*
X5342D2*
X5604D1*
X8747D2*
X10947D1*
X3962Y10625D2*
X4884D1*
X5327D2*
X5545D1*
X8688D2*
X10947D1*
X3962Y10566D2*
X4917D1*
X5293D2*
X5486D1*
X7081D2*
X7290D1*
X8676D2*
X10947D1*
X3962Y10508D2*
X4987D1*
X5224D2*
X5428D1*
X7070D2*
X7232D1*
X8752D2*
X10947D1*
X3962Y10449D2*
X5369D1*
X7070D2*
X7173D1*
X8792D2*
X10947D1*
X3962Y10391D2*
X5311D1*
X7070D2*
X7116D1*
X8813D2*
X10947D1*
X3962Y10332D2*
X5252D1*
X8821D2*
X10947D1*
X3962Y10274D2*
X5193D1*
X8821D2*
X10947D1*
X3962Y10215D2*
X5135D1*
X8810D2*
X10947D1*
X3962Y10157D2*
X5076D1*
X8784D2*
X10947D1*
X3962Y10098D2*
X5018D1*
X9676D2*
X10947D1*
X3962Y10040D2*
X4959D1*
X9676D2*
X10947D1*
X3962Y9981D2*
X4901D1*
X9676D2*
X10947D1*
X3962Y9922D2*
X4843D1*
X5257D2*
X5315D1*
X9676D2*
X10947D1*
X3962Y9864D2*
X4810D1*
X5198D2*
X5326D1*
X9676D2*
X10947D1*
X3962Y9805D2*
X4805D1*
X5140D2*
X5355D1*
X9676D2*
X10947D1*
X3962Y9747D2*
X4805D1*
X5101D2*
X5413D1*
X9676D2*
X10947D1*
X3962Y9688D2*
X4805D1*
X5101D2*
X5949D1*
X7002D2*
X7061D1*
X9676D2*
X10947D1*
X3962Y9630D2*
X4805D1*
X5101D2*
X6008D1*
X6943D2*
X7061D1*
X9676D2*
X10947D1*
X3962Y9571D2*
X4754D1*
X5154D2*
X6066D1*
X6884D2*
X7061D1*
X9676D2*
X10947D1*
X3962Y9513D2*
X4726D1*
X5181D2*
X6124D1*
X6826D2*
X7061D1*
X9676D2*
X10947D1*
X3962Y9454D2*
X4715D1*
X5191D2*
X6183D1*
X6768D2*
X7061D1*
X9676D2*
X10947D1*
X3962Y9396D2*
X4720D1*
X5186D2*
X7061D1*
X9676D2*
X10947D1*
X3962Y9337D2*
X4741D1*
X5166D2*
X7061D1*
X9676D2*
X10947D1*
X3962Y9279D2*
X4784D1*
X5123D2*
X5386D1*
X6871D2*
X7061D1*
X9676D2*
X10947D1*
X3962Y9220D2*
X4885D1*
X5023D2*
X5316D1*
X6901D2*
X7059D1*
X9676D2*
X10947D1*
X3962Y9162D2*
X5246D1*
X6901D2*
X7047D1*
X9676D2*
X10947D1*
X3962Y9103D2*
X5175D1*
X6901D2*
X7051D1*
X9676D2*
X10947D1*
X4078Y9045D2*
X5106D1*
X6901D2*
X7071D1*
X9676D2*
X10947D1*
X4441Y8986D2*
X5036D1*
X6902D2*
X7113D1*
X9676D2*
X10947D1*
X4804Y8927D2*
X4966D1*
X6902D2*
X7206D1*
X9676D2*
X10947D1*
X6902Y8869D2*
X7391D1*
X7936D2*
X10947D1*
X6902Y8810D2*
X7391D1*
X7936D2*
X10947D1*
X6902Y8752D2*
X7391D1*
X7936D2*
X10947D1*
X6963Y8693D2*
X7391D1*
X7936D2*
X10947D1*
X7042Y8635D2*
X7391D1*
X7936D2*
X10947D1*
X7081Y8576D2*
X7391D1*
X7936D2*
X10947D1*
X7098Y8518D2*
X7391D1*
X7936D2*
X10947D1*
X7100Y8459D2*
X7391D1*
X7936D2*
X10947D1*
X7086Y8401D2*
X7391D1*
X7936D2*
X10947D1*
X7055Y8342D2*
X7391D1*
X7936D2*
X10947D1*
X6991Y8284D2*
X7391D1*
X7936D2*
X10947D1*
X6915Y8225D2*
X7391D1*
X7936D2*
X10947D1*
X6915Y8167D2*
X7391D1*
X7936D2*
X10947D1*
X6915Y8108D2*
X7391D1*
X7936D2*
X10947D1*
X6915Y8050D2*
X7391D1*
X7936D2*
X10947D1*
X6915Y7991D2*
X7391D1*
X7936D2*
X10947D1*
X6915Y7932D2*
X7391D1*
X7936D2*
X10947D1*
X6915Y7874D2*
X7391D1*
X7936D2*
X10947D1*
X6915Y7815D2*
X7391D1*
X7936D2*
X10947D1*
X6915Y7757D2*
X7380D1*
X7936D2*
X10947D1*
X6915Y7698D2*
X7351D1*
X7936D2*
X10947D1*
X6915Y7640D2*
X7337D1*
X7936D2*
X10947D1*
X6915Y7581D2*
X7336D1*
X7935D2*
X10947D1*
X6915Y7523D2*
X7349D1*
X7923D2*
X10947D1*
X6915Y7464D2*
X7377D1*
X7895D2*
X10947D1*
X6915Y7406D2*
X7428D1*
X7845D2*
X10947D1*
X6915Y7347D2*
X7544D1*
X7728D2*
X10947D1*
X6915Y7289D2*
X10947D1*
X6915Y7230D2*
X10947D1*
X6915Y7172D2*
X10947D1*
X6915Y7113D2*
X10947D1*
X6915Y7054D2*
X10947D1*
X6915Y6996D2*
X10947D1*
X6915Y6937D2*
X10947D1*
X6915Y6879D2*
X10947D1*
X6915Y6820D2*
X10947D1*
X6915Y6762D2*
X10947D1*
X6915Y6703D2*
X10439D1*
X6915Y6645D2*
X10439D1*
X6915Y6586D2*
X10439D1*
X6915Y6528D2*
X10439D1*
X6915Y6469D2*
X10439D1*
X6913Y6411D2*
X10439D1*
X6897Y6352D2*
X10439D1*
X6896Y6294D2*
X10439D1*
X9364Y11244D2*
Y10801D1*
X8859D1*
X8637Y10580D1*
X8664Y10569D1*
X8706Y10544D1*
X8743Y10512D1*
X8773Y10473D1*
X8795Y10429D1*
X8810Y10383D1*
X8815Y10334D1*
X8814Y10267D1*
X8805Y10219D1*
X8788Y10173D1*
X8773Y10148D1*
X9670D1*
Y8877D1*
X7932D1*
X7931Y8722D1*
Y7608D1*
X7929Y7578D1*
X7924Y7549D1*
X7916Y7520D1*
X7905Y7492D1*
X7890Y7466D1*
X7873Y7442D1*
X7853Y7419D1*
X7831Y7399D1*
X7806Y7382D1*
X7780Y7367D1*
X7753Y7356D1*
X7724Y7347D1*
X7695Y7342D1*
X7634Y7341D1*
X7578Y7342D1*
X7549Y7347D1*
X7520Y7355D1*
X7493Y7367D1*
X7466Y7381D1*
X7442Y7399D1*
X7420Y7418D1*
X7400Y7441D1*
X7382Y7465D1*
X7368Y7491D1*
X7356Y7519D1*
X7348Y7548D1*
X7343Y7577D1*
X7341Y7607D1*
X7343Y7637D1*
X7347Y7666D1*
X7356Y7695D1*
X7367Y7723D1*
X7381Y7749D1*
X7397Y7771D1*
X7396Y8715D1*
Y8944D1*
X7350Y8925D1*
X7321Y8919D1*
X7291Y8916D1*
X7261Y8917D1*
X7231Y8922D1*
X7203Y8931D1*
X7176Y8943D1*
X7150Y8959D1*
X7127Y8978D1*
X7106Y8999D1*
X7089Y9024D1*
X7074Y9050D1*
X7063Y9078D1*
X7056Y9107D1*
X7053Y9136D1*
Y9166D1*
X7058Y9196D1*
X7067Y9229D1*
X7068Y10248D1*
X7070Y10278D1*
X7076Y10307D1*
X7086Y10335D1*
X7100Y10362D1*
X7115Y10383D1*
X7174Y10444D1*
X7363Y10634D1*
X7327Y10621D1*
X7269Y10618D1*
X7127D1*
X7064Y10554D1*
Y9815D1*
X7061Y9785D1*
X7052Y9757D1*
X7040Y9736D1*
X7001Y9693D1*
X6766Y9458D1*
X6743Y9440D1*
X6716Y9426D1*
X6694Y9419D1*
X6636Y9417D1*
X6285D1*
X6256Y9420D1*
X6227Y9429D1*
X6207Y9441D1*
X6164Y9480D1*
X5938Y9704D1*
X5535Y9705D1*
X5499Y9711D1*
X5470Y9720D1*
X5443Y9732D1*
X5417Y9748D1*
X5394Y9767D1*
X5373Y9789D1*
X5356Y9813D1*
X5341Y9839D1*
X5331Y9867D1*
X5323Y9896D1*
X5320Y9926D1*
Y9956D1*
X5329Y10001D1*
X5096Y9767D1*
Y9627D1*
X5124Y9601D1*
X5143Y9578D1*
X5159Y9552D1*
X5171Y9525D1*
X5180Y9496D1*
X5185Y9467D1*
X5186Y9444D1*
X5184Y9414D1*
X5178Y9384D1*
X5169Y9356D1*
X5156Y9329D1*
X5139Y9304D1*
X5120Y9281D1*
X5098Y9261D1*
X5073Y9244D1*
X5046Y9231D1*
X5018Y9220D1*
X4989Y9214D1*
X4959Y9211D1*
X4929Y9212D1*
X4900Y9217D1*
X4871Y9226D1*
X4844Y9239D1*
X4819Y9254D1*
X4795Y9273D1*
X4775Y9295D1*
X4757Y9319D1*
X4743Y9345D1*
X4732Y9373D1*
X4725Y9402D1*
X4721Y9432D1*
X4722Y9462D1*
X4726Y9491D1*
X4734Y9520D1*
X4746Y9548D1*
X4761Y9573D1*
X4779Y9597D1*
X4811Y9627D1*
Y9827D1*
X4814Y9856D1*
X4824Y9885D1*
X4835Y9905D1*
X4874Y9948D1*
X5691Y10766D1*
X5710Y10782D1*
X5728Y10802D1*
X5510Y10801D1*
Y11262D1*
X5365D1*
X5364Y11065D1*
Y10893D1*
X5357Y10859D1*
Y10821D1*
X5354Y10791D1*
X5336Y10734D1*
X5337Y10711D1*
X5335Y10681D1*
X5330Y10652D1*
X5320Y10623D1*
X5307Y10597D1*
X5291Y10571D1*
X5271Y10549D1*
X5249Y10529D1*
X5225Y10512D1*
X5198Y10498D1*
X5170Y10488D1*
X5141Y10481D1*
X5111Y10479D1*
X5081Y10480D1*
X5052Y10485D1*
X5023Y10494D1*
X4996Y10506D1*
X4970Y10522D1*
X4947Y10541D1*
X4927Y10562D1*
X4909Y10586D1*
X4895Y10613D1*
X4884Y10641D1*
X4876Y10670D1*
X4873Y10699D1*
Y10729D1*
X4878Y10759D1*
X4891Y10800D1*
X4602Y10801D1*
X4573Y10806D1*
X4547Y10820D1*
X4526Y10841D1*
X4514Y10868D1*
X4510Y10893D1*
Y11266D1*
X3957Y11269D1*
X3956Y10640D1*
Y9063D1*
X4477Y8979D1*
X4943Y8904D1*
X5385Y9273D1*
X5410Y9288D1*
X5443Y9295D1*
X6803Y9303D1*
X6832Y9298D1*
X6858Y9285D1*
X6879Y9263D1*
X6892Y9236D1*
X6896Y9211D1*
X6897Y8711D1*
X6934Y8702D1*
X6962Y8691D1*
X6988Y8677D1*
X7012Y8659D1*
X7033Y8639D1*
X7052Y8615D1*
X7068Y8590D1*
X7080Y8563D1*
X7089Y8534D1*
X7094Y8504D1*
X7095Y8481D1*
X7093Y8451D1*
X7087Y8422D1*
X7078Y8393D1*
X7065Y8367D1*
X7048Y8342D1*
X7029Y8319D1*
X7007Y8299D1*
X6982Y8282D1*
X6956Y8268D1*
X6910Y8254D1*
Y7698D1*
Y6441D1*
X6907Y6411D1*
X6899Y6387D1*
X6890Y6347D1*
Y6249D1*
X7317D1*
X7345Y6260D1*
X7374Y6268D1*
X7403Y6272D1*
X7433Y6273D1*
X7463Y6269D1*
X7492Y6262D1*
X7526Y6248D1*
X10445Y6241D1*
Y6720D1*
X10954Y6721D1*
X10953Y11237D1*
X9363Y11244D1*
D27*
X10937Y4293D3*
X3937Y9293D3*
X10937Y7293D3*
Y8293D3*
Y9293D3*
Y10293D3*
D28*
X8937Y11293D3*
D27*
X3937Y4293D3*
Y5293D3*
Y6293D3*
Y7293D3*
D28*
X9937Y11293D3*
D27*
X10937Y5293D3*
Y6293D3*
X3937Y8293D3*
Y10293D3*
D46*
X6446Y7093D3*
X6268Y7198D3*
X6091Y7093D3*
G36*
X4602Y11693D2*
X5272D1*
Y10893D1*
X4602D1*
Y11693D1*
G37*
D28*
X5937Y11293D3*
X6937D3*
X7937D3*
M02*
