G04 DipTrace 2.4.0.2*
%INSocialLightsmall.gts*%
%MOIN*%
%ADD10C,0.0098*%
%ADD28C,0.0065*%
%ADD41R,0.0685X0.0816*%
%ADD43R,0.0816X0.0685*%
%ADD45R,0.0646X0.1039*%
%ADD47R,0.1039X0.0646*%
%ADD49R,0.0291X0.0528*%
%ADD51R,0.037X0.0291*%
%ADD53R,0.0449X0.0409*%
%ADD55R,0.0291X0.037*%
%FSLAX44Y44*%
G04*
G70*
G90*
G75*
G01*
%LNTopMask*%
%LPD*%
D55*
X6635Y6083D3*
Y5572D3*
D53*
X7796Y5119D3*
X7127D3*
D51*
X7774Y4643D3*
X7262D3*
D49*
X9111Y5778D3*
X8678D3*
X8245D3*
Y4616D3*
X8678D3*
X9111D3*
D47*
X9950Y5730D3*
Y4628D3*
D49*
X9254Y8856D3*
X9687D3*
X10120D3*
Y10018D3*
X9687D3*
X9254D3*
D47*
X8187Y8886D3*
Y9988D3*
D49*
X6254Y8856D3*
X6687D3*
X7120D3*
Y10018D3*
X6687D3*
X6254D3*
D47*
X5187Y8886D3*
Y9988D3*
D49*
X5562Y7241D3*
X5129D3*
X4696D3*
Y6079D3*
X5129D3*
X5562D3*
D45*
X5953Y4880D3*
X4850D3*
D43*
X3937Y7937D3*
Y8937D3*
X10937D3*
Y7937D3*
X3937Y6937D3*
Y5937D3*
X10937Y6937D3*
Y5937D3*
D41*
X7937Y3937D3*
X6937D3*
D55*
X7098Y5547D3*
Y6059D3*
X6066Y6749D3*
Y6237D3*
X7629Y7199D2*
D28*
Y7206D1*
X7630Y7214D1*
X7631Y7221D1*
X7633Y7229D1*
X7635Y7236D1*
X7638Y7243D1*
X7641Y7250D1*
X7645Y7257D1*
X7649Y7263D1*
X7654Y7269D1*
X7658Y7275D1*
X7664Y7280D1*
X7669Y7285D1*
X7675Y7290D1*
X7681Y7294D1*
X7688Y7298D1*
X7695Y7301D1*
X7702Y7303D1*
X7709Y7305D1*
X7716Y7307D1*
X7723Y7308D1*
X7730Y7309D1*
X7738D1*
X7745Y7308D1*
X7752Y7307D1*
X7759Y7305D1*
X7766Y7303D1*
X7773Y7301D1*
X7780Y7298D1*
X7786Y7294D1*
X7793Y7290D1*
X7799Y7285D1*
X7804Y7280D1*
X7809Y7275D1*
X7814Y7269D1*
X7819Y7263D1*
X7823Y7257D1*
X7827Y7250D1*
X7830Y7243D1*
X7833Y7236D1*
X7835Y7229D1*
X7837Y7221D1*
X7838Y7214D1*
X7839Y7206D1*
Y7199D1*
Y7191D1*
X7838Y7183D1*
X7837Y7176D1*
X7835Y7168D1*
X7833Y7161D1*
X7830Y7154D1*
X7827Y7147D1*
X7823Y7140D1*
X7819Y7134D1*
X7814Y7128D1*
X7809Y7122D1*
X7804Y7117D1*
X7799Y7112D1*
X7793Y7107D1*
X7786Y7103D1*
X7780Y7100D1*
X7773Y7097D1*
X7766Y7094D1*
X7759Y7092D1*
X7752Y7090D1*
X7745Y7089D1*
X7738D1*
X7730D1*
X7723D1*
X7716Y7090D1*
X7709Y7092D1*
X7702Y7094D1*
X7695Y7097D1*
X7688Y7100D1*
X7681Y7103D1*
X7675Y7107D1*
X7669Y7112D1*
X7664Y7117D1*
X7658Y7122D1*
X7654Y7128D1*
X7649Y7134D1*
X7645Y7140D1*
X7641Y7147D1*
X7638Y7154D1*
X7635Y7161D1*
X7633Y7168D1*
X7631Y7176D1*
X7630Y7183D1*
X7629Y7191D1*
Y7199D1*
X7029D2*
Y7206D1*
X7030Y7214D1*
X7031Y7221D1*
X7033Y7229D1*
X7035Y7236D1*
X7038Y7243D1*
X7041Y7250D1*
X7045Y7257D1*
X7049Y7263D1*
X7054Y7269D1*
X7059Y7275D1*
X7064Y7280D1*
X7070Y7285D1*
X7075Y7290D1*
X7082Y7294D1*
X7088Y7298D1*
X7095Y7301D1*
X7102Y7303D1*
X7109Y7305D1*
X7116Y7307D1*
X7123Y7308D1*
X7131Y7309D1*
X7138D1*
X7145Y7308D1*
X7152Y7307D1*
X7160Y7305D1*
X7167Y7303D1*
X7174Y7301D1*
X7180Y7298D1*
X7187Y7294D1*
X7193Y7290D1*
X7199Y7285D1*
X7204Y7280D1*
X7210Y7275D1*
X7215Y7269D1*
X7219Y7263D1*
X7223Y7257D1*
X7227Y7250D1*
X7230Y7243D1*
X7233Y7236D1*
X7235Y7229D1*
X7237Y7221D1*
X7238Y7214D1*
X7239Y7206D1*
Y7199D1*
Y7191D1*
X7238Y7183D1*
X7237Y7176D1*
X7235Y7168D1*
X7233Y7161D1*
X7230Y7154D1*
X7227Y7147D1*
X7223Y7140D1*
X7219Y7134D1*
X7215Y7128D1*
X7210Y7122D1*
X7204Y7117D1*
X7199Y7112D1*
X7193Y7107D1*
X7187Y7103D1*
X7180Y7100D1*
X7174Y7097D1*
X7167Y7094D1*
X7160Y7092D1*
X7152Y7090D1*
X7145Y7089D1*
X7138D1*
X7131D1*
X7123D1*
X7116Y7090D1*
X7109Y7092D1*
X7102Y7094D1*
X7095Y7097D1*
X7088Y7100D1*
X7082Y7103D1*
X7075Y7107D1*
X7070Y7112D1*
X7064Y7117D1*
X7059Y7122D1*
X7054Y7128D1*
X7049Y7134D1*
X7045Y7140D1*
X7041Y7147D1*
X7038Y7154D1*
X7035Y7161D1*
X7033Y7168D1*
X7031Y7176D1*
X7030Y7183D1*
X7029Y7191D1*
Y7199D1*
X7928D2*
Y7206D1*
X7929Y7214D1*
X7930Y7221D1*
X7932Y7229D1*
X7934Y7236D1*
X7937Y7243D1*
X7940Y7250D1*
X7944Y7257D1*
X7948Y7263D1*
X7953Y7269D1*
X7958Y7275D1*
X7963Y7280D1*
X7968Y7285D1*
X7974Y7290D1*
X7981Y7294D1*
X7987Y7298D1*
X7994Y7301D1*
X8001Y7303D1*
X8008Y7305D1*
X8015Y7307D1*
X8022Y7308D1*
X8029Y7309D1*
X8037D1*
X8044Y7308D1*
X8051Y7307D1*
X8059Y7305D1*
X8066Y7303D1*
X8072Y7301D1*
X8079Y7298D1*
X8086Y7294D1*
X8092Y7290D1*
X8098Y7285D1*
X8103Y7280D1*
X8109Y7275D1*
X8114Y7269D1*
X8118Y7263D1*
X8122Y7257D1*
X8126Y7250D1*
X8129Y7243D1*
X8132Y7236D1*
X8134Y7229D1*
X8136Y7221D1*
X8137Y7214D1*
X8138Y7206D1*
Y7199D1*
Y7191D1*
X8137Y7183D1*
X8136Y7176D1*
X8134Y7168D1*
X8132Y7161D1*
X8129Y7154D1*
X8126Y7147D1*
X8122Y7140D1*
X8118Y7134D1*
X8114Y7128D1*
X8109Y7122D1*
X8103Y7117D1*
X8098Y7112D1*
X8092Y7107D1*
X8086Y7103D1*
X8079Y7100D1*
X8072Y7097D1*
X8066Y7094D1*
X8059Y7092D1*
X8051Y7090D1*
X8044Y7089D1*
X8037D1*
X8029D1*
X8022D1*
X8015Y7090D1*
X8008Y7092D1*
X8001Y7094D1*
X7994Y7097D1*
X7987Y7100D1*
X7981Y7103D1*
X7974Y7107D1*
X7968Y7112D1*
X7963Y7117D1*
X7958Y7122D1*
X7953Y7128D1*
X7948Y7134D1*
X7944Y7140D1*
X7940Y7147D1*
X7937Y7154D1*
X7934Y7161D1*
X7932Y7168D1*
X7930Y7176D1*
X7929Y7183D1*
X7928Y7191D1*
Y7199D1*
X7328D2*
X7329Y7206D1*
Y7214D1*
X7331Y7221D1*
X7332Y7229D1*
X7335Y7236D1*
X7338Y7243D1*
X7341Y7250D1*
X7344Y7257D1*
X7348Y7263D1*
X7353Y7269D1*
X7358Y7275D1*
X7363Y7280D1*
X7369Y7285D1*
X7375Y7290D1*
X7381Y7294D1*
X7387Y7298D1*
X7394Y7301D1*
X7401Y7303D1*
X7408Y7305D1*
X7415Y7307D1*
X7422Y7308D1*
X7430Y7309D1*
X7437D1*
X7444Y7308D1*
X7452Y7307D1*
X7459Y7305D1*
X7466Y7303D1*
X7473Y7301D1*
X7479Y7298D1*
X7486Y7294D1*
X7492Y7290D1*
X7498Y7285D1*
X7504Y7280D1*
X7509Y7275D1*
X7514Y7269D1*
X7518Y7263D1*
X7523Y7257D1*
X7526Y7250D1*
X7529Y7243D1*
X7532Y7236D1*
X7534Y7229D1*
X7536Y7221D1*
X7537Y7214D1*
X7538Y7206D1*
Y7199D1*
Y7191D1*
X7537Y7183D1*
X7536Y7176D1*
X7534Y7168D1*
X7532Y7161D1*
X7529Y7154D1*
X7526Y7147D1*
X7523Y7140D1*
X7518Y7134D1*
X7514Y7128D1*
X7509Y7122D1*
X7504Y7117D1*
X7498Y7112D1*
X7492Y7107D1*
X7486Y7103D1*
X7479Y7100D1*
X7473Y7097D1*
X7466Y7094D1*
X7459Y7092D1*
X7452Y7090D1*
X7444Y7089D1*
X7437D1*
X7430D1*
X7422D1*
X7415Y7090D1*
X7408Y7092D1*
X7401Y7094D1*
X7394Y7097D1*
X7387Y7100D1*
X7381Y7103D1*
X7375Y7107D1*
X7369Y7112D1*
X7363Y7117D1*
X7358Y7122D1*
X7353Y7128D1*
X7348Y7134D1*
X7344Y7140D1*
X7341Y7147D1*
X7338Y7154D1*
X7335Y7161D1*
X7332Y7168D1*
X7331Y7176D1*
X7329Y7183D1*
Y7191D1*
X7328Y7199D1*
X7628Y7498D2*
Y7505D1*
X7629Y7513D1*
X7630Y7521D1*
X7632Y7528D1*
X7634Y7535D1*
X7637Y7543D1*
X7640Y7549D1*
X7644Y7556D1*
X7648Y7562D1*
X7652Y7569D1*
X7657Y7574D1*
X7662Y7580D1*
X7668Y7585D1*
X7674Y7589D1*
X7680Y7593D1*
X7687Y7597D1*
X7693Y7600D1*
X7700Y7602D1*
X7707Y7605D1*
X7714Y7606D1*
X7722Y7607D1*
X7729Y7608D1*
X7736D1*
X7744Y7607D1*
X7751Y7606D1*
X7758Y7605D1*
X7765Y7602D1*
X7772Y7600D1*
X7779Y7597D1*
X7785Y7593D1*
X7791Y7589D1*
X7797Y7585D1*
X7803Y7580D1*
X7808Y7574D1*
X7813Y7569D1*
X7817Y7562D1*
X7822Y7556D1*
X7825Y7549D1*
X7828Y7543D1*
X7831Y7535D1*
X7833Y7528D1*
X7835Y7521D1*
X7837Y7513D1*
Y7505D1*
X7838Y7498D1*
X7837Y7490D1*
Y7482D1*
X7835Y7475D1*
X7833Y7467D1*
X7831Y7460D1*
X7828Y7453D1*
X7825Y7446D1*
X7822Y7439D1*
X7817Y7433D1*
X7813Y7427D1*
X7808Y7421D1*
X7803Y7416D1*
X7797Y7411D1*
X7791Y7407D1*
X7785Y7403D1*
X7779Y7399D1*
X7772Y7396D1*
X7765Y7393D1*
X7758Y7391D1*
X7751Y7389D1*
X7744Y7388D1*
X7736D1*
X7729D1*
X7722D1*
X7714Y7389D1*
X7707Y7391D1*
X7700Y7393D1*
X7693Y7396D1*
X7687Y7399D1*
X7680Y7403D1*
X7674Y7407D1*
X7668Y7411D1*
X7662Y7416D1*
X7657Y7421D1*
X7652Y7427D1*
X7648Y7433D1*
X7644Y7439D1*
X7640Y7446D1*
X7637Y7453D1*
X7634Y7460D1*
X7632Y7467D1*
X7630Y7475D1*
X7629Y7482D1*
X7628Y7490D1*
Y7498D1*
X7028D2*
Y7505D1*
X7029Y7513D1*
X7030Y7521D1*
X7032Y7528D1*
X7034Y7535D1*
X7037Y7543D1*
X7040Y7549D1*
X7044Y7556D1*
X7048Y7562D1*
X7052Y7569D1*
X7057Y7574D1*
X7063Y7580D1*
X7068Y7585D1*
X7074Y7589D1*
X7080Y7593D1*
X7087Y7597D1*
X7094Y7600D1*
X7100Y7602D1*
X7107Y7605D1*
X7115Y7606D1*
X7122Y7607D1*
X7129Y7608D1*
X7137D1*
X7144Y7607D1*
X7151Y7606D1*
X7158Y7605D1*
X7165Y7602D1*
X7172Y7600D1*
X7179Y7597D1*
X7185Y7593D1*
X7192Y7589D1*
X7198Y7585D1*
X7203Y7580D1*
X7208Y7574D1*
X7213Y7569D1*
X7218Y7562D1*
X7222Y7556D1*
X7226Y7549D1*
X7229Y7543D1*
X7232Y7535D1*
X7234Y7528D1*
X7236Y7521D1*
X7237Y7513D1*
X7238Y7505D1*
Y7498D1*
Y7490D1*
X7237Y7482D1*
X7236Y7475D1*
X7234Y7467D1*
X7232Y7460D1*
X7229Y7453D1*
X7226Y7446D1*
X7222Y7439D1*
X7218Y7433D1*
X7213Y7427D1*
X7208Y7421D1*
X7203Y7416D1*
X7198Y7411D1*
X7192Y7407D1*
X7185Y7403D1*
X7179Y7399D1*
X7172Y7396D1*
X7165Y7393D1*
X7158Y7391D1*
X7151Y7389D1*
X7144Y7388D1*
X7137D1*
X7129D1*
X7122D1*
X7115Y7389D1*
X7107Y7391D1*
X7100Y7393D1*
X7094Y7396D1*
X7087Y7399D1*
X7080Y7403D1*
X7074Y7407D1*
X7068Y7411D1*
X7063Y7416D1*
X7057Y7421D1*
X7052Y7427D1*
X7048Y7433D1*
X7044Y7439D1*
X7040Y7446D1*
X7037Y7453D1*
X7034Y7460D1*
X7032Y7467D1*
X7030Y7475D1*
X7029Y7482D1*
X7028Y7490D1*
Y7498D1*
X7927D2*
Y7505D1*
X7928Y7513D1*
X7929Y7521D1*
X7931Y7528D1*
X7933Y7535D1*
X7936Y7543D1*
X7939Y7549D1*
X7943Y7556D1*
X7947Y7562D1*
X7951Y7569D1*
X7956Y7574D1*
X7962Y7580D1*
X7967Y7585D1*
X7973Y7589D1*
X7979Y7593D1*
X7986Y7597D1*
X7992Y7600D1*
X7999Y7602D1*
X8006Y7605D1*
X8014Y7606D1*
X8021Y7607D1*
X8028Y7608D1*
X8035D1*
X8043Y7607D1*
X8050Y7606D1*
X8057Y7605D1*
X8064Y7602D1*
X8071Y7600D1*
X8078Y7597D1*
X8084Y7593D1*
X8091Y7589D1*
X8096Y7585D1*
X8102Y7580D1*
X8107Y7574D1*
X8112Y7569D1*
X8117Y7562D1*
X8121Y7556D1*
X8125Y7549D1*
X8128Y7543D1*
X8130Y7535D1*
X8133Y7528D1*
X8135Y7521D1*
X8136Y7513D1*
X8137Y7505D1*
Y7498D1*
Y7490D1*
X8136Y7482D1*
X8135Y7475D1*
X8133Y7467D1*
X8130Y7460D1*
X8128Y7453D1*
X8125Y7446D1*
X8121Y7439D1*
X8117Y7433D1*
X8112Y7427D1*
X8107Y7421D1*
X8102Y7416D1*
X8096Y7411D1*
X8091Y7407D1*
X8084Y7403D1*
X8078Y7399D1*
X8071Y7396D1*
X8064Y7393D1*
X8057Y7391D1*
X8050Y7389D1*
X8043Y7388D1*
X8035D1*
X8028D1*
X8021D1*
X8014Y7389D1*
X8006Y7391D1*
X7999Y7393D1*
X7992Y7396D1*
X7986Y7399D1*
X7979Y7403D1*
X7973Y7407D1*
X7967Y7411D1*
X7962Y7416D1*
X7956Y7421D1*
X7951Y7427D1*
X7947Y7433D1*
X7943Y7439D1*
X7939Y7446D1*
X7936Y7453D1*
X7933Y7460D1*
X7931Y7467D1*
X7929Y7475D1*
X7928Y7482D1*
X7927Y7490D1*
Y7498D1*
X7327D2*
Y7505D1*
X7328Y7513D1*
X7329Y7521D1*
X7331Y7528D1*
X7333Y7535D1*
X7336Y7543D1*
X7339Y7549D1*
X7343Y7556D1*
X7347Y7562D1*
X7352Y7569D1*
X7357Y7574D1*
X7362Y7580D1*
X7367Y7585D1*
X7373Y7589D1*
X7380Y7593D1*
X7386Y7597D1*
X7393Y7600D1*
X7400Y7602D1*
X7407Y7605D1*
X7414Y7606D1*
X7421Y7607D1*
X7428Y7608D1*
X7436D1*
X7443Y7607D1*
X7450Y7606D1*
X7458Y7605D1*
X7465Y7602D1*
X7471Y7600D1*
X7478Y7597D1*
X7485Y7593D1*
X7491Y7589D1*
X7497Y7585D1*
X7502Y7580D1*
X7508Y7574D1*
X7513Y7569D1*
X7517Y7562D1*
X7521Y7556D1*
X7525Y7549D1*
X7528Y7543D1*
X7531Y7535D1*
X7533Y7528D1*
X7535Y7521D1*
X7536Y7513D1*
X7537Y7505D1*
Y7498D1*
Y7490D1*
X7536Y7482D1*
X7535Y7475D1*
X7533Y7467D1*
X7531Y7460D1*
X7528Y7453D1*
X7525Y7446D1*
X7521Y7439D1*
X7517Y7433D1*
X7513Y7427D1*
X7508Y7421D1*
X7502Y7416D1*
X7497Y7411D1*
X7491Y7407D1*
X7485Y7403D1*
X7478Y7399D1*
X7471Y7396D1*
X7465Y7393D1*
X7458Y7391D1*
X7450Y7389D1*
X7443Y7388D1*
X7436D1*
X7428D1*
X7421D1*
X7414Y7389D1*
X7407Y7391D1*
X7400Y7393D1*
X7393Y7396D1*
X7386Y7399D1*
X7380Y7403D1*
X7373Y7407D1*
X7367Y7411D1*
X7362Y7416D1*
X7357Y7421D1*
X7352Y7427D1*
X7347Y7433D1*
X7343Y7439D1*
X7339Y7446D1*
X7336Y7453D1*
X7333Y7460D1*
X7331Y7467D1*
X7329Y7475D1*
X7328Y7482D1*
X7327Y7490D1*
Y7498D1*
X7628Y6897D2*
Y6904D1*
X7629Y6912D1*
X7630Y6920D1*
X7632Y6927D1*
X7634Y6934D1*
X7637Y6941D1*
X7640Y6948D1*
X7644Y6955D1*
X7648Y6961D1*
X7652Y6967D1*
X7657Y6973D1*
X7662Y6978D1*
X7668Y6983D1*
X7674Y6988D1*
X7680Y6992D1*
X7687Y6996D1*
X7693Y6999D1*
X7700Y7001D1*
X7707Y7003D1*
X7714Y7005D1*
X7722Y7006D1*
X7729Y7007D1*
X7736D1*
X7744Y7006D1*
X7751Y7005D1*
X7758Y7003D1*
X7765Y7001D1*
X7772Y6999D1*
X7779Y6996D1*
X7785Y6992D1*
X7791Y6988D1*
X7797Y6983D1*
X7803Y6978D1*
X7808Y6973D1*
X7813Y6967D1*
X7817Y6961D1*
X7822Y6955D1*
X7825Y6948D1*
X7828Y6941D1*
X7831Y6934D1*
X7833Y6927D1*
X7835Y6920D1*
X7837Y6912D1*
Y6904D1*
X7838Y6897D1*
X7837Y6889D1*
Y6881D1*
X7835Y6874D1*
X7833Y6866D1*
X7831Y6859D1*
X7828Y6852D1*
X7825Y6845D1*
X7822Y6838D1*
X7817Y6832D1*
X7813Y6826D1*
X7808Y6820D1*
X7803Y6815D1*
X7797Y6810D1*
X7791Y6806D1*
X7785Y6802D1*
X7779Y6798D1*
X7772Y6795D1*
X7765Y6792D1*
X7758Y6790D1*
X7751Y6788D1*
X7744Y6787D1*
X7736D1*
X7729D1*
X7722D1*
X7714Y6788D1*
X7707Y6790D1*
X7700Y6792D1*
X7693Y6795D1*
X7687Y6798D1*
X7680Y6802D1*
X7674Y6806D1*
X7668Y6810D1*
X7662Y6815D1*
X7657Y6820D1*
X7652Y6826D1*
X7648Y6832D1*
X7644Y6838D1*
X7640Y6845D1*
X7637Y6852D1*
X7634Y6859D1*
X7632Y6866D1*
X7630Y6874D1*
X7629Y6881D1*
X7628Y6889D1*
Y6897D1*
X7028D2*
Y6904D1*
X7029Y6912D1*
X7030Y6920D1*
X7032Y6927D1*
X7034Y6934D1*
X7037Y6941D1*
X7040Y6948D1*
X7044Y6955D1*
X7048Y6961D1*
X7052Y6967D1*
X7057Y6973D1*
X7063Y6978D1*
X7068Y6983D1*
X7074Y6988D1*
X7080Y6992D1*
X7087Y6996D1*
X7094Y6999D1*
X7100Y7001D1*
X7107Y7003D1*
X7115Y7005D1*
X7122Y7006D1*
X7129Y7007D1*
X7137D1*
X7144Y7006D1*
X7151Y7005D1*
X7158Y7003D1*
X7165Y7001D1*
X7172Y6999D1*
X7179Y6996D1*
X7185Y6992D1*
X7192Y6988D1*
X7198Y6983D1*
X7203Y6978D1*
X7208Y6973D1*
X7213Y6967D1*
X7218Y6961D1*
X7222Y6955D1*
X7226Y6948D1*
X7229Y6941D1*
X7232Y6934D1*
X7234Y6927D1*
X7236Y6920D1*
X7237Y6912D1*
X7238Y6904D1*
Y6897D1*
Y6889D1*
X7237Y6881D1*
X7236Y6874D1*
X7234Y6866D1*
X7232Y6859D1*
X7229Y6852D1*
X7226Y6845D1*
X7222Y6838D1*
X7218Y6832D1*
X7213Y6826D1*
X7208Y6820D1*
X7203Y6815D1*
X7198Y6810D1*
X7192Y6806D1*
X7185Y6802D1*
X7179Y6798D1*
X7172Y6795D1*
X7165Y6792D1*
X7158Y6790D1*
X7151Y6788D1*
X7144Y6787D1*
X7137D1*
X7129D1*
X7122D1*
X7115Y6788D1*
X7107Y6790D1*
X7100Y6792D1*
X7094Y6795D1*
X7087Y6798D1*
X7080Y6802D1*
X7074Y6806D1*
X7068Y6810D1*
X7063Y6815D1*
X7057Y6820D1*
X7052Y6826D1*
X7048Y6832D1*
X7044Y6838D1*
X7040Y6845D1*
X7037Y6852D1*
X7034Y6859D1*
X7032Y6866D1*
X7030Y6874D1*
X7029Y6881D1*
X7028Y6889D1*
Y6897D1*
X7927D2*
Y6904D1*
X7928Y6912D1*
X7929Y6920D1*
X7931Y6927D1*
X7933Y6934D1*
X7936Y6941D1*
X7939Y6948D1*
X7943Y6955D1*
X7947Y6961D1*
X7951Y6967D1*
X7956Y6973D1*
X7962Y6978D1*
X7967Y6983D1*
X7973Y6988D1*
X7979Y6992D1*
X7986Y6996D1*
X7992Y6999D1*
X7999Y7001D1*
X8006Y7003D1*
X8014Y7005D1*
X8021Y7006D1*
X8028Y7007D1*
X8035D1*
X8043Y7006D1*
X8050Y7005D1*
X8057Y7003D1*
X8064Y7001D1*
X8071Y6999D1*
X8078Y6996D1*
X8084Y6992D1*
X8091Y6988D1*
X8096Y6983D1*
X8102Y6978D1*
X8107Y6973D1*
X8112Y6967D1*
X8117Y6961D1*
X8121Y6955D1*
X8125Y6948D1*
X8128Y6941D1*
X8130Y6934D1*
X8133Y6927D1*
X8135Y6920D1*
X8136Y6912D1*
X8137Y6904D1*
Y6897D1*
Y6889D1*
X8136Y6881D1*
X8135Y6874D1*
X8133Y6866D1*
X8130Y6859D1*
X8128Y6852D1*
X8125Y6845D1*
X8121Y6838D1*
X8117Y6832D1*
X8112Y6826D1*
X8107Y6820D1*
X8102Y6815D1*
X8096Y6810D1*
X8091Y6806D1*
X8084Y6802D1*
X8078Y6798D1*
X8071Y6795D1*
X8064Y6792D1*
X8057Y6790D1*
X8050Y6788D1*
X8043Y6787D1*
X8035D1*
X8028D1*
X8021D1*
X8014Y6788D1*
X8006Y6790D1*
X7999Y6792D1*
X7992Y6795D1*
X7986Y6798D1*
X7979Y6802D1*
X7973Y6806D1*
X7967Y6810D1*
X7962Y6815D1*
X7956Y6820D1*
X7951Y6826D1*
X7947Y6832D1*
X7943Y6838D1*
X7939Y6845D1*
X7936Y6852D1*
X7933Y6859D1*
X7931Y6866D1*
X7929Y6874D1*
X7928Y6881D1*
X7927Y6889D1*
Y6897D1*
X7327D2*
Y6904D1*
X7328Y6912D1*
X7329Y6920D1*
X7331Y6927D1*
X7333Y6934D1*
X7336Y6941D1*
X7339Y6948D1*
X7343Y6955D1*
X7347Y6961D1*
X7352Y6967D1*
X7357Y6973D1*
X7362Y6978D1*
X7367Y6983D1*
X7373Y6988D1*
X7380Y6992D1*
X7386Y6996D1*
X7393Y6999D1*
X7400Y7001D1*
X7407Y7003D1*
X7414Y7005D1*
X7421Y7006D1*
X7428Y7007D1*
X7436D1*
X7443Y7006D1*
X7450Y7005D1*
X7458Y7003D1*
X7465Y7001D1*
X7471Y6999D1*
X7478Y6996D1*
X7485Y6992D1*
X7491Y6988D1*
X7497Y6983D1*
X7502Y6978D1*
X7508Y6973D1*
X7513Y6967D1*
X7517Y6961D1*
X7521Y6955D1*
X7525Y6948D1*
X7528Y6941D1*
X7531Y6934D1*
X7533Y6927D1*
X7535Y6920D1*
X7536Y6912D1*
X7537Y6904D1*
Y6897D1*
Y6889D1*
X7536Y6881D1*
X7535Y6874D1*
X7533Y6866D1*
X7531Y6859D1*
X7528Y6852D1*
X7525Y6845D1*
X7521Y6838D1*
X7517Y6832D1*
X7513Y6826D1*
X7508Y6820D1*
X7502Y6815D1*
X7497Y6810D1*
X7491Y6806D1*
X7485Y6802D1*
X7478Y6798D1*
X7471Y6795D1*
X7465Y6792D1*
X7458Y6790D1*
X7450Y6788D1*
X7443Y6787D1*
X7436D1*
X7428D1*
X7421D1*
X7414Y6788D1*
X7407Y6790D1*
X7400Y6792D1*
X7393Y6795D1*
X7386Y6798D1*
X7380Y6802D1*
X7373Y6806D1*
X7367Y6810D1*
X7362Y6815D1*
X7357Y6820D1*
X7352Y6826D1*
X7347Y6832D1*
X7343Y6838D1*
X7339Y6845D1*
X7336Y6852D1*
X7333Y6859D1*
X7331Y6866D1*
X7329Y6874D1*
X7328Y6881D1*
X7327Y6889D1*
Y6897D1*
X7628Y7798D2*
Y7806D1*
X7629Y7814D1*
X7630Y7821D1*
X7632Y7829D1*
X7634Y7836D1*
X7637Y7843D1*
X7640Y7850D1*
X7644Y7857D1*
X7648Y7863D1*
X7652Y7869D1*
X7657Y7875D1*
X7662Y7880D1*
X7668Y7885D1*
X7674Y7889D1*
X7680Y7894D1*
X7687Y7897D1*
X7693Y7900D1*
X7700Y7903D1*
X7707Y7905D1*
X7714Y7907D1*
X7722Y7908D1*
X7729D1*
X7736D1*
X7744D1*
X7751Y7907D1*
X7758Y7905D1*
X7765Y7903D1*
X7772Y7900D1*
X7779Y7897D1*
X7785Y7894D1*
X7791Y7889D1*
X7797Y7885D1*
X7803Y7880D1*
X7808Y7875D1*
X7813Y7869D1*
X7817Y7863D1*
X7822Y7857D1*
X7825Y7850D1*
X7828Y7843D1*
X7831Y7836D1*
X7833Y7829D1*
X7835Y7821D1*
X7837Y7814D1*
Y7806D1*
X7838Y7798D1*
X7837Y7791D1*
Y7783D1*
X7835Y7775D1*
X7833Y7768D1*
X7831Y7761D1*
X7828Y7754D1*
X7825Y7747D1*
X7822Y7740D1*
X7817Y7734D1*
X7813Y7728D1*
X7808Y7722D1*
X7803Y7717D1*
X7797Y7712D1*
X7791Y7707D1*
X7785Y7703D1*
X7779Y7699D1*
X7772Y7696D1*
X7765Y7694D1*
X7758Y7692D1*
X7751Y7690D1*
X7744Y7689D1*
X7736Y7688D1*
X7729D1*
X7722Y7689D1*
X7714Y7690D1*
X7707Y7692D1*
X7700Y7694D1*
X7693Y7696D1*
X7687Y7699D1*
X7680Y7703D1*
X7674Y7707D1*
X7668Y7712D1*
X7662Y7717D1*
X7657Y7722D1*
X7652Y7728D1*
X7648Y7734D1*
X7644Y7740D1*
X7640Y7747D1*
X7637Y7754D1*
X7634Y7761D1*
X7632Y7768D1*
X7630Y7775D1*
X7629Y7783D1*
X7628Y7791D1*
Y7798D1*
X7028D2*
Y7806D1*
X7029Y7814D1*
X7030Y7821D1*
X7032Y7829D1*
X7034Y7836D1*
X7037Y7843D1*
X7040Y7850D1*
X7044Y7857D1*
X7048Y7863D1*
X7052Y7869D1*
X7057Y7875D1*
X7063Y7880D1*
X7068Y7885D1*
X7074Y7889D1*
X7080Y7894D1*
X7087Y7897D1*
X7094Y7900D1*
X7100Y7903D1*
X7107Y7905D1*
X7115Y7907D1*
X7122Y7908D1*
X7129D1*
X7137D1*
X7144D1*
X7151Y7907D1*
X7158Y7905D1*
X7165Y7903D1*
X7172Y7900D1*
X7179Y7897D1*
X7185Y7894D1*
X7192Y7889D1*
X7198Y7885D1*
X7203Y7880D1*
X7208Y7875D1*
X7213Y7869D1*
X7218Y7863D1*
X7222Y7857D1*
X7226Y7850D1*
X7229Y7843D1*
X7232Y7836D1*
X7234Y7829D1*
X7236Y7821D1*
X7237Y7814D1*
X7238Y7806D1*
Y7798D1*
Y7791D1*
X7237Y7783D1*
X7236Y7775D1*
X7234Y7768D1*
X7232Y7761D1*
X7229Y7754D1*
X7226Y7747D1*
X7222Y7740D1*
X7218Y7734D1*
X7213Y7728D1*
X7208Y7722D1*
X7203Y7717D1*
X7198Y7712D1*
X7192Y7707D1*
X7185Y7703D1*
X7179Y7699D1*
X7172Y7696D1*
X7165Y7694D1*
X7158Y7692D1*
X7151Y7690D1*
X7144Y7689D1*
X7137Y7688D1*
X7129D1*
X7122Y7689D1*
X7115Y7690D1*
X7107Y7692D1*
X7100Y7694D1*
X7094Y7696D1*
X7087Y7699D1*
X7080Y7703D1*
X7074Y7707D1*
X7068Y7712D1*
X7063Y7717D1*
X7057Y7722D1*
X7052Y7728D1*
X7048Y7734D1*
X7044Y7740D1*
X7040Y7747D1*
X7037Y7754D1*
X7034Y7761D1*
X7032Y7768D1*
X7030Y7775D1*
X7029Y7783D1*
X7028Y7791D1*
Y7798D1*
X7927D2*
Y7806D1*
X7928Y7814D1*
X7929Y7821D1*
X7931Y7829D1*
X7933Y7836D1*
X7936Y7843D1*
X7939Y7850D1*
X7943Y7857D1*
X7947Y7863D1*
X7951Y7869D1*
X7956Y7875D1*
X7962Y7880D1*
X7967Y7885D1*
X7973Y7889D1*
X7979Y7894D1*
X7986Y7897D1*
X7992Y7900D1*
X7999Y7903D1*
X8006Y7905D1*
X8014Y7907D1*
X8021Y7908D1*
X8028D1*
X8035D1*
X8043D1*
X8050Y7907D1*
X8057Y7905D1*
X8064Y7903D1*
X8071Y7900D1*
X8078Y7897D1*
X8084Y7894D1*
X8091Y7889D1*
X8096Y7885D1*
X8102Y7880D1*
X8107Y7875D1*
X8112Y7869D1*
X8117Y7863D1*
X8121Y7857D1*
X8125Y7850D1*
X8128Y7843D1*
X8130Y7836D1*
X8133Y7829D1*
X8135Y7821D1*
X8136Y7814D1*
X8137Y7806D1*
Y7798D1*
Y7791D1*
X8136Y7783D1*
X8135Y7775D1*
X8133Y7768D1*
X8130Y7761D1*
X8128Y7754D1*
X8125Y7747D1*
X8121Y7740D1*
X8117Y7734D1*
X8112Y7728D1*
X8107Y7722D1*
X8102Y7717D1*
X8096Y7712D1*
X8091Y7707D1*
X8084Y7703D1*
X8078Y7699D1*
X8071Y7696D1*
X8064Y7694D1*
X8057Y7692D1*
X8050Y7690D1*
X8043Y7689D1*
X8035Y7688D1*
X8028D1*
X8021Y7689D1*
X8014Y7690D1*
X8006Y7692D1*
X7999Y7694D1*
X7992Y7696D1*
X7986Y7699D1*
X7979Y7703D1*
X7973Y7707D1*
X7967Y7712D1*
X7962Y7717D1*
X7956Y7722D1*
X7951Y7728D1*
X7947Y7734D1*
X7943Y7740D1*
X7939Y7747D1*
X7936Y7754D1*
X7933Y7761D1*
X7931Y7768D1*
X7929Y7775D1*
X7928Y7783D1*
X7927Y7791D1*
Y7798D1*
X7327D2*
Y7806D1*
X7328Y7814D1*
X7329Y7821D1*
X7331Y7829D1*
X7333Y7836D1*
X7336Y7843D1*
X7339Y7850D1*
X7343Y7857D1*
X7347Y7863D1*
X7352Y7869D1*
X7357Y7875D1*
X7362Y7880D1*
X7367Y7885D1*
X7373Y7889D1*
X7380Y7894D1*
X7386Y7897D1*
X7393Y7900D1*
X7400Y7903D1*
X7407Y7905D1*
X7414Y7907D1*
X7421Y7908D1*
X7428D1*
X7436D1*
X7443D1*
X7450Y7907D1*
X7458Y7905D1*
X7465Y7903D1*
X7471Y7900D1*
X7478Y7897D1*
X7485Y7894D1*
X7491Y7889D1*
X7497Y7885D1*
X7502Y7880D1*
X7508Y7875D1*
X7513Y7869D1*
X7517Y7863D1*
X7521Y7857D1*
X7525Y7850D1*
X7528Y7843D1*
X7531Y7836D1*
X7533Y7829D1*
X7535Y7821D1*
X7536Y7814D1*
X7537Y7806D1*
Y7798D1*
Y7791D1*
X7536Y7783D1*
X7535Y7775D1*
X7533Y7768D1*
X7531Y7761D1*
X7528Y7754D1*
X7525Y7747D1*
X7521Y7740D1*
X7517Y7734D1*
X7513Y7728D1*
X7508Y7722D1*
X7502Y7717D1*
X7497Y7712D1*
X7491Y7707D1*
X7485Y7703D1*
X7478Y7699D1*
X7471Y7696D1*
X7465Y7694D1*
X7458Y7692D1*
X7450Y7690D1*
X7443Y7689D1*
X7436Y7688D1*
X7428D1*
X7421Y7689D1*
X7414Y7690D1*
X7407Y7692D1*
X7400Y7694D1*
X7393Y7696D1*
X7386Y7699D1*
X7380Y7703D1*
X7373Y7707D1*
X7367Y7712D1*
X7362Y7717D1*
X7357Y7722D1*
X7352Y7728D1*
X7347Y7734D1*
X7343Y7740D1*
X7339Y7747D1*
X7336Y7754D1*
X7333Y7761D1*
X7331Y7768D1*
X7329Y7775D1*
X7328Y7783D1*
X7327Y7791D1*
Y7798D1*
G36*
X7949Y6756D2*
X7820D1*
Y7915D1*
X7949D1*
Y6756D1*
G37*
G36*
X7647Y6762D2*
X7517D1*
Y7918D1*
X7647D1*
Y6762D1*
G37*
G36*
X7349Y6772D2*
X7211D1*
Y7915D1*
X7349D1*
Y6772D1*
G37*
G36*
X8163Y6967D2*
X7016D1*
Y7126D1*
X8163D1*
Y6967D1*
G37*
G36*
X8154Y7279D2*
X7009D1*
Y7422D1*
X8154D1*
Y7279D1*
G37*
G36*
X8143Y7579D2*
X7017D1*
Y7712D1*
X8143D1*
Y7579D1*
G37*
X8166Y6748D2*
D10*
X6987D1*
Y7955D1*
X8166D1*
Y6748D1*
G36*
X8427Y6728D2*
X8566D1*
Y6603D1*
X8427D1*
X8411Y6608D1*
X8397Y6616D1*
X8385Y6627D1*
X8377Y6641D1*
X8373Y6658D1*
Y6674D1*
X8377Y6690D1*
X8385Y6704D1*
X8397Y6716D1*
X8411Y6724D1*
X8427Y6728D1*
G37*
G36*
Y6925D2*
X8566D1*
Y6800D1*
X8427D1*
X8411Y6804D1*
X8397Y6813D1*
X8385Y6824D1*
X8377Y6838D1*
X8373Y6854D1*
Y6871D1*
X8377Y6887D1*
X8385Y6901D1*
X8397Y6913D1*
X8411Y6921D1*
X8427Y6925D1*
G37*
G36*
Y7122D2*
X8566D1*
Y6997D1*
X8427D1*
X8411Y7001D1*
X8397Y7009D1*
X8385Y7021D1*
X8377Y7035D1*
X8373Y7051D1*
Y7068D1*
X8377Y7084D1*
X8385Y7098D1*
X8397Y7109D1*
X8411Y7118D1*
X8427Y7122D1*
G37*
G36*
Y7319D2*
X8566D1*
Y7194D1*
X8427D1*
X8411Y7198D1*
X8397Y7206D1*
X8385Y7218D1*
X8377Y7232D1*
X8373Y7248D1*
Y7264D1*
X8377Y7281D1*
X8385Y7295D1*
X8397Y7306D1*
X8411Y7314D1*
X8427Y7319D1*
G37*
G36*
Y7516D2*
X8566D1*
Y7391D1*
X8427D1*
X8411Y7395D1*
X8397Y7403D1*
X8385Y7415D1*
X8377Y7429D1*
X8373Y7445D1*
Y7461D1*
X8377Y7477D1*
X8385Y7491D1*
X8397Y7503D1*
X8411Y7511D1*
X8427Y7516D1*
G37*
G36*
Y7713D2*
X8566D1*
Y7587D1*
X8427D1*
X8411Y7592D1*
X8397Y7600D1*
X8385Y7612D1*
X8377Y7626D1*
X8373Y7642D1*
Y7658D1*
X8377Y7674D1*
X8385Y7688D1*
X8397Y7700D1*
X8411Y7708D1*
X8427Y7713D1*
G37*
G36*
Y7909D2*
X8566D1*
Y7784D1*
X8427D1*
X8411Y7789D1*
X8397Y7797D1*
X8385Y7809D1*
X8377Y7822D1*
X8373Y7839D1*
Y7855D1*
X8377Y7871D1*
X8385Y7885D1*
X8397Y7897D1*
X8411Y7905D1*
X8427Y7909D1*
G37*
G36*
Y8106D2*
X8566D1*
Y7981D1*
X8427D1*
X8411Y7986D1*
X8397Y7994D1*
X8385Y8005D1*
X8377Y8019D1*
X8373Y8036D1*
Y8052D1*
X8377Y8068D1*
X8385Y8082D1*
X8397Y8094D1*
X8411Y8102D1*
X8427Y8106D1*
G37*
G36*
X8200Y8208D2*
Y8347D1*
X8325D1*
Y8208D1*
X8321Y8192D1*
X8313Y8178D1*
X8301Y8167D1*
X8287Y8158D1*
X8271Y8154D1*
X8254D1*
X8238Y8158D1*
X8224Y8167D1*
X8213Y8178D1*
X8205Y8192D1*
X8200Y8208D1*
G37*
G36*
X8003D2*
Y8347D1*
X8128D1*
Y8208D1*
X8124Y8192D1*
X8116Y8178D1*
X8104Y8167D1*
X8090Y8158D1*
X8074Y8154D1*
X8058D1*
X8041Y8158D1*
X8027Y8167D1*
X8016Y8178D1*
X8008Y8192D1*
X8003Y8208D1*
G37*
G36*
X7806D2*
Y8347D1*
X7932D1*
Y8208D1*
X7927Y8192D1*
X7919Y8178D1*
X7907Y8167D1*
X7893Y8158D1*
X7877Y8154D1*
X7861D1*
X7845Y8158D1*
X7831Y8167D1*
X7819Y8178D1*
X7811Y8192D1*
X7806Y8208D1*
G37*
G36*
X7609D2*
Y8347D1*
X7735D1*
Y8208D1*
X7730Y8192D1*
X7722Y8178D1*
X7710Y8167D1*
X7696Y8158D1*
X7680Y8154D1*
X7664D1*
X7648Y8158D1*
X7634Y8167D1*
X7622Y8178D1*
X7614Y8192D1*
X7609Y8208D1*
G37*
G36*
X7413D2*
Y8347D1*
X7538D1*
Y8208D1*
X7533Y8192D1*
X7525Y8178D1*
X7514Y8167D1*
X7500Y8158D1*
X7483Y8154D1*
X7467D1*
X7451Y8158D1*
X7437Y8167D1*
X7425Y8178D1*
X7417Y8192D1*
X7413Y8208D1*
G37*
G36*
X7216D2*
Y8347D1*
X7341D1*
Y8208D1*
X7336Y8192D1*
X7328Y8178D1*
X7317Y8167D1*
X7303Y8158D1*
X7287Y8154D1*
X7270D1*
X7254Y8158D1*
X7240Y8167D1*
X7228Y8178D1*
X7220Y8192D1*
X7216Y8208D1*
G37*
G36*
X7019D2*
Y8347D1*
X7144D1*
Y8208D1*
X7140Y8192D1*
X7132Y8178D1*
X7120Y8167D1*
X7106Y8158D1*
X7090Y8154D1*
X7073D1*
X7057Y8158D1*
X7043Y8167D1*
X7032Y8178D1*
X7023Y8192D1*
X7019Y8208D1*
G37*
G36*
X6822D2*
Y8347D1*
X6947D1*
Y8208D1*
X6943Y8192D1*
X6935Y8178D1*
X6923Y8167D1*
X6909Y8158D1*
X6893Y8154D1*
X6877D1*
X6860Y8158D1*
X6846Y8167D1*
X6835Y8178D1*
X6827Y8192D1*
X6822Y8208D1*
G37*
G36*
X6720Y7981D2*
X6582D1*
Y8106D1*
X6720D1*
X6736Y8102D1*
X6750Y8094D1*
X6762Y8082D1*
X6770Y8068D1*
X6774Y8052D1*
Y8036D1*
X6770Y8019D1*
X6762Y8005D1*
X6750Y7994D1*
X6736Y7986D1*
X6720Y7981D1*
G37*
G36*
Y7784D2*
X6582D1*
Y7909D1*
X6720D1*
X6736Y7905D1*
X6750Y7897D1*
X6762Y7885D1*
X6770Y7871D1*
X6774Y7855D1*
Y7839D1*
X6770Y7822D1*
X6762Y7809D1*
X6750Y7797D1*
X6736Y7789D1*
X6720Y7784D1*
G37*
G36*
Y7587D2*
X6582D1*
Y7713D1*
X6720D1*
X6736Y7708D1*
X6750Y7700D1*
X6762Y7688D1*
X6770Y7674D1*
X6774Y7658D1*
Y7642D1*
X6770Y7626D1*
X6762Y7612D1*
X6750Y7600D1*
X6736Y7592D1*
X6720Y7587D1*
G37*
G36*
Y7391D2*
X6582D1*
Y7516D1*
X6720D1*
X6736Y7511D1*
X6750Y7503D1*
X6762Y7491D1*
X6770Y7477D1*
X6774Y7461D1*
Y7445D1*
X6770Y7429D1*
X6762Y7415D1*
X6750Y7403D1*
X6736Y7395D1*
X6720Y7391D1*
G37*
G36*
Y7194D2*
X6582D1*
Y7319D1*
X6720D1*
X6736Y7314D1*
X6750Y7306D1*
X6762Y7295D1*
X6770Y7281D1*
X6774Y7264D1*
Y7248D1*
X6770Y7232D1*
X6762Y7218D1*
X6750Y7206D1*
X6736Y7198D1*
X6720Y7194D1*
G37*
G36*
Y6997D2*
X6582D1*
Y7122D1*
X6720D1*
X6736Y7118D1*
X6750Y7109D1*
X6762Y7098D1*
X6770Y7084D1*
X6774Y7068D1*
Y7051D1*
X6770Y7035D1*
X6762Y7021D1*
X6750Y7009D1*
X6736Y7001D1*
X6720Y6997D1*
G37*
G36*
Y6800D2*
X6582D1*
Y6925D1*
X6720D1*
X6736Y6921D1*
X6750Y6913D1*
X6762Y6901D1*
X6770Y6887D1*
X6774Y6871D1*
Y6854D1*
X6770Y6838D1*
X6762Y6824D1*
X6750Y6813D1*
X6736Y6804D1*
X6720Y6800D1*
G37*
G36*
Y6603D2*
X6582D1*
Y6728D1*
X6720D1*
X6736Y6724D1*
X6750Y6716D1*
X6762Y6704D1*
X6770Y6690D1*
X6774Y6674D1*
Y6658D1*
X6770Y6641D1*
X6762Y6627D1*
X6750Y6616D1*
X6736Y6608D1*
X6720Y6603D1*
G37*
G36*
X6947Y6501D2*
Y6363D1*
X6822D1*
Y6501D1*
X6827Y6517D1*
X6835Y6531D1*
X6846Y6543D1*
X6860Y6551D1*
X6877Y6555D1*
X6893D1*
X6909Y6551D1*
X6923Y6543D1*
X6935Y6531D1*
X6943Y6517D1*
X6947Y6501D1*
G37*
G36*
X7144D2*
Y6363D1*
X7019D1*
Y6501D1*
X7023Y6517D1*
X7032Y6531D1*
X7043Y6543D1*
X7057Y6551D1*
X7073Y6555D1*
X7090D1*
X7106Y6551D1*
X7120Y6543D1*
X7132Y6531D1*
X7140Y6517D1*
X7144Y6501D1*
G37*
G36*
X7341D2*
Y6363D1*
X7216D1*
Y6501D1*
X7220Y6517D1*
X7228Y6531D1*
X7240Y6543D1*
X7254Y6551D1*
X7270Y6555D1*
X7287D1*
X7303Y6551D1*
X7317Y6543D1*
X7328Y6531D1*
X7336Y6517D1*
X7341Y6501D1*
G37*
G36*
X7538D2*
Y6363D1*
X7413D1*
Y6501D1*
X7417Y6517D1*
X7425Y6531D1*
X7437Y6543D1*
X7451Y6551D1*
X7467Y6555D1*
X7483D1*
X7500Y6551D1*
X7514Y6543D1*
X7525Y6531D1*
X7533Y6517D1*
X7538Y6501D1*
G37*
G36*
X7735D2*
Y6363D1*
X7609D1*
Y6501D1*
X7614Y6517D1*
X7622Y6531D1*
X7634Y6543D1*
X7648Y6551D1*
X7664Y6555D1*
X7680D1*
X7696Y6551D1*
X7710Y6543D1*
X7722Y6531D1*
X7730Y6517D1*
X7735Y6501D1*
G37*
G36*
X7932D2*
Y6363D1*
X7806D1*
Y6501D1*
X7811Y6517D1*
X7819Y6531D1*
X7831Y6543D1*
X7845Y6551D1*
X7861Y6555D1*
X7877D1*
X7893Y6551D1*
X7907Y6543D1*
X7919Y6531D1*
X7927Y6517D1*
X7932Y6501D1*
G37*
G36*
X8128D2*
Y6363D1*
X8003D1*
Y6501D1*
X8008Y6517D1*
X8016Y6531D1*
X8027Y6543D1*
X8041Y6551D1*
X8058Y6555D1*
X8074D1*
X8090Y6551D1*
X8104Y6543D1*
X8116Y6531D1*
X8124Y6517D1*
X8128Y6501D1*
G37*
G36*
X8325D2*
Y6363D1*
X8200D1*
Y6501D1*
X8205Y6517D1*
X8213Y6531D1*
X8224Y6543D1*
X8238Y6551D1*
X8254Y6555D1*
X8271D1*
X8287Y6551D1*
X8301Y6543D1*
X8313Y6531D1*
X8321Y6517D1*
X8325Y6501D1*
G37*
M02*
