M48
INCH
T01C0.013
T02C0.0433
%
T01
X+007734Y+007199
X+007732Y+007498
X+007432Y+007498
X+007434Y+007199
X+007134Y+007199
X+007132Y+007498
X+007132Y+007798
X+007432Y+007798
X+007732Y+007798
X+008032Y+007798
X+008032Y+007498
X+008034Y+007199
X+008032Y+006897
X+007732Y+006897
X+007432Y+006897
X+007132Y+006897
X+006763Y+006297
X+006400Y+006458
X+006404Y+006800
X+006069Y+007003
X+005475Y+005630
X+004756Y+005658
X+004425Y+005032
X+004149Y+005249
X+005213Y+004213
X+006749Y+005065
X+006857Y+005387
X+007299Y+005388
X+007896Y+005673
X+007653Y+006141
X+008401Y+006396
X+008765Y+006797
X+009058Y+007005
X+009284Y+006746
X+010299Y+006258
X+010638Y+005102
X+010729Y+004435
X+010676Y+004160
X+010279Y+004112
X+009944Y+004124
X+009554Y+004137
X+008929Y+004163
X+008501Y+004178
X+007833Y+004420
X+007839Y+004828
X+008300Y+005044
X+009313Y+005056
X+009874Y+009437
X+010349Y+009442
X+010329Y+010017
X+009018Y+010052
X+007441Y+010125
X+005822Y+010107
X+004408Y+010109
X+004509Y+009388
X+004542Y+007825
T02
X+003937Y+007937
X+003937Y+008937
X+003937Y+006937
X+003937Y+005937
X+006937Y+003937
X+007937Y+003937
X+010937Y+005937
X+010937Y+006937
X+010937Y+007937
X+010937Y+008937
T00
M30
