M48
METRIC,0000.00
T01C0.33
T02C1.1
%
T01
X+001936Y+002103
X+001935Y+002179
X+001859Y+002179
X+001859Y+002103
X+001783Y+002103
X+001783Y+002179
X+001783Y+002255
X+001859Y+002255
X+001935Y+002255
X+002011Y+002255
X+002011Y+002179
X+002012Y+002103
X+002011Y+002026
X+001935Y+002026
X+001859Y+002026
X+001783Y+002026
X+001624Y+001927
X+001559Y+001997
X+001497Y+002059
X+001550Y+001764
X+001884Y+001787
X+002020Y+001785
X+002101Y+001877
X+002170Y+001930
X+002230Y+002002
X+002303Y+002051
X+002387Y+001463
X+001933Y+001477
X+001202Y+001838
X+001440Y+002847
X+002483Y+002851
T02
X+001381Y+003159
X+001381Y+003286
X+001635Y+003286
X+001635Y+003159
X+001889Y+003159
X+001889Y+003286
X+002143Y+003286
X+002143Y+003159
X+002397Y+003159
X+002397Y+003286
X+002397Y+001127
X+002397Y+001000
X+002143Y+001000
X+002143Y+001127
X+001889Y+001127
X+001889Y+001000
X+001635Y+001000
X+001635Y+001127
X+001381Y+001127
X+001381Y+001000
T00
M30
