G04 DipTrace 2.4.0.2*
%INSocialLightsmall.gtl*%
%MOMM*%
%ADD13C,0.254*%
%ADD14C,0.152*%
%ADD15R,0.7X0.9*%
%ADD16R,1.1X1.0*%
%ADD17R,0.9X0.7*%
%ADD19R,0.7X1.3*%
%ADD21R,2.6X1.6*%
%ADD23R,1.6X2.6*%
%ADD24R,1.7X1.6*%
%ADD25R,1.7X2.0*%
%ADD26R,1.7X2.032*%
%ADD30R,3.15X3.15*%
%ADD31C,0.711*%
%ADD33R,0.4X0.5*%
%ADD35C,0.711*%
%FSLAX53Y53*%
G04*
G71*
G90*
G75*
G01*
%LNTop*%
%LPD*%
X20186Y18870D2*
D13*
Y17858D1*
X20196Y17848D1*
X16280Y16449D2*
X17394D1*
X17456Y16511D1*
Y15677D1*
X17756Y15377D1*
Y14390D1*
X17948Y14198D1*
Y14075D1*
X18879Y13144D1*
Y11281D1*
X18890Y11270D1*
X18840Y17875D2*
X19236D1*
X19686Y18325D1*
Y18870D1*
X19356Y21032D2*
X19250D1*
X18936Y21345D1*
X16461Y19595D2*
X16242Y19375D1*
Y19274D1*
X17686Y18870D2*
Y18041D1*
X17456Y17811D1*
X21415Y20595D2*
X21878D1*
X21965Y20682D1*
X22862D1*
X23029Y20515D1*
X16461Y21095D2*
Y21148D1*
X15747D1*
X15632Y21263D1*
X14576D1*
X14336Y21023D1*
Y20438D1*
X13469Y19570D1*
X11139D1*
X10846Y19277D1*
Y16620D1*
X10819Y16647D1*
Y16621D2*
X11560Y15881D1*
X12323D1*
X11890Y15447D1*
X21099Y17609D2*
Y17948D1*
X21753Y18602D1*
X21949D1*
X22412Y19065D1*
Y19240D1*
X22934Y19762D1*
X23185D1*
X23687Y20264D1*
Y20778D1*
X23292Y21172D1*
X21415D1*
Y21095D1*
Y21595D2*
X21910D1*
X21930Y21614D1*
X23543D1*
X24105Y21052D1*
Y20096D1*
X22420Y18411D1*
Y17830D1*
X22199Y17609D1*
X21415Y22095D2*
X23739D1*
X24560Y21274D1*
Y19558D1*
X23295Y18293D1*
Y17613D1*
X23299Y17609D1*
X21415Y22595D2*
X24291D1*
X25334Y21552D1*
Y17651D1*
X25379Y17606D1*
X21415Y23095D2*
X23772D1*
X25381Y24704D1*
Y25524D1*
X25358Y25546D1*
X20686Y23820D2*
X23401D1*
X24262Y24682D1*
Y25542D1*
X24258Y25546D1*
X20186Y23820D2*
Y24373D1*
X20343Y24530D1*
X22846D1*
X23152Y24836D1*
Y25540D1*
X23158Y25546D1*
X19686Y23820D2*
Y24859D1*
X20448Y25621D1*
X18186Y23820D2*
Y25098D1*
X17738Y25546D1*
X17686Y23820D2*
Y24346D1*
X17460Y24573D1*
X16878D1*
X16679Y24771D1*
Y25505D1*
X16638Y25546D1*
X17186Y23820D2*
X16439D1*
X15630Y24629D1*
Y25455D1*
X15538Y25546D1*
X16461Y23095D2*
X15354D1*
X12828Y25621D1*
X16461Y22595D2*
Y22654D1*
X11926D1*
X11444Y22173D1*
Y21336D1*
X11498Y21282D1*
X16461Y22095D2*
X15515D1*
X15391Y22218D1*
X12868D1*
X12717Y22067D1*
Y21402D1*
X12598Y21282D1*
X16461Y21595D2*
Y21676D1*
X14092D1*
X13698Y21282D1*
X21415Y19595D2*
Y19584D1*
X21698Y19300D1*
X22195Y12520D2*
Y12035D1*
X21430Y11270D1*
X21415Y20095D2*
X22295D1*
Y20024D1*
X22895Y12520D2*
Y12345D1*
X23970Y11270D1*
X16461Y20095D2*
X15586D1*
Y19971D1*
X14690Y15447D2*
X15228D1*
X12343Y18332D1*
X11498D1*
X12015D1*
X12598D1*
X13698D1*
X14302D1*
X14948Y17687D1*
X15501D1*
X16218D1*
X16280Y17749D1*
Y18286D1*
X16881Y18888D1*
X17169D1*
X17186Y18870D1*
X19248Y14198D2*
Y15169D1*
X19456Y15377D1*
X19469D1*
X20381D1*
X21099Y14659D1*
X22199D1*
X23299D1*
X23870D1*
X25232D1*
X25379Y14806D1*
X18186Y18870D2*
Y16647D1*
X19456Y15377D1*
X12828Y28421D2*
X14396D1*
X15463D1*
X15538Y28496D1*
X16638D1*
X17738D1*
X20373D1*
X20448Y28421D1*
X23083D1*
X23158Y28496D1*
X24258D1*
X24829D1*
X25358D1*
X19329Y14770D2*
X19469D1*
Y15377D1*
X15501Y17638D2*
Y17687D1*
X14396Y28473D2*
Y28421D1*
X12015Y18382D2*
Y18332D1*
X24829Y28509D2*
Y28496D1*
X23870Y14632D2*
Y14659D1*
X22199D2*
Y13523D1*
X22195Y13520D1*
X23299Y14659D2*
Y13923D1*
X22895Y13520D1*
X16461Y20595D2*
X15969D1*
X15850Y20713D1*
X15313D1*
X14948Y20348D1*
Y18987D1*
X14973Y20591D2*
X14948D1*
Y20348D1*
X20686Y18870D2*
X20908D1*
X21008Y18770D1*
D35*
X21698Y19300D3*
X22295Y20024D3*
X14973Y20591D3*
X18840Y17875D3*
X21008Y18770D3*
X20196Y17848D3*
X23029Y20515D3*
X16242Y19274D3*
X15586Y19971D3*
X19329Y14770D3*
X15501Y17638D3*
X14396Y28473D3*
X12015Y18382D3*
X24829Y28509D3*
X23870Y14632D3*
X14911Y31827D2*
D14*
X15249D1*
X17449D2*
X17790D1*
X19990D2*
X20331D1*
X22531D2*
X22869D1*
X14911Y31678D2*
X15249D1*
X17449D2*
X17790D1*
X19990D2*
X20331D1*
X22531D2*
X22869D1*
X14911Y31529D2*
X15249D1*
X17449D2*
X17790D1*
X19990D2*
X20331D1*
X22531D2*
X22869D1*
X25069D2*
X25213D1*
X12480Y31380D2*
X12711D1*
X14911D2*
X15249D1*
X17449D2*
X17790D1*
X19990D2*
X20331D1*
X22531D2*
X22869D1*
X25069D2*
X25360D1*
X12325Y31231D2*
X12711D1*
X14911D2*
X15249D1*
X17449D2*
X17790D1*
X19990D2*
X20331D1*
X22531D2*
X22869D1*
X25069D2*
X25505D1*
X12170Y31082D2*
X12711D1*
X14911D2*
X15249D1*
X17449D2*
X17790D1*
X19990D2*
X20331D1*
X22531D2*
X22869D1*
X25069D2*
X25653D1*
X12015Y30932D2*
X12711D1*
X14911D2*
X15249D1*
X17449D2*
X17790D1*
X19990D2*
X20331D1*
X22531D2*
X22869D1*
X25069D2*
X25801D1*
X11860Y30783D2*
X12711D1*
X14911D2*
X15249D1*
X17449D2*
X17790D1*
X19990D2*
X20331D1*
X22531D2*
X22869D1*
X25069D2*
X25948D1*
X11703Y30634D2*
X12711D1*
X14911D2*
X15249D1*
X17449D2*
X17790D1*
X19990D2*
X20331D1*
X22531D2*
X22869D1*
X25069D2*
X26094D1*
X11548Y30485D2*
X26241D1*
X11394Y30336D2*
X26389D1*
X11239Y30187D2*
X26537D1*
X11084Y30038D2*
X26682D1*
X10927Y29889D2*
X26829D1*
X10842Y29740D2*
X26939D1*
X10842Y29591D2*
X26939D1*
X10842Y29442D2*
X11277D1*
X14377D2*
X18897D1*
X21997D2*
X26939D1*
X10842Y29293D2*
X11277D1*
X14377D2*
X14937D1*
X18337D2*
X18897D1*
X21997D2*
X22557D1*
X25957D2*
X26939D1*
X10842Y29144D2*
X11277D1*
X14377D2*
X14937D1*
X18337D2*
X18897D1*
X21997D2*
X22557D1*
X25957D2*
X26939D1*
X10842Y28995D2*
X11277D1*
X14377D2*
X14937D1*
X18337D2*
X18897D1*
X21997D2*
X22557D1*
X25957D2*
X26939D1*
X10842Y28846D2*
X11277D1*
X14377D2*
X14937D1*
X18337D2*
X18897D1*
X21997D2*
X22557D1*
X25957D2*
X26939D1*
X10842Y28696D2*
X11277D1*
X14377D2*
X14937D1*
X18337D2*
X18897D1*
X21997D2*
X22557D1*
X25957D2*
X26939D1*
X10842Y28547D2*
X11277D1*
X14377D2*
X14937D1*
X18337D2*
X18897D1*
X21997D2*
X22557D1*
X25957D2*
X26939D1*
X10842Y28398D2*
X11277D1*
X14377D2*
X14937D1*
X18337D2*
X18897D1*
X21997D2*
X22557D1*
X25957D2*
X26939D1*
X10842Y28249D2*
X11277D1*
X14377D2*
X14937D1*
X18337D2*
X18897D1*
X21997D2*
X22557D1*
X25957D2*
X26939D1*
X10842Y28100D2*
X11277D1*
X14377D2*
X14937D1*
X18337D2*
X18897D1*
X21997D2*
X22557D1*
X25957D2*
X26939D1*
X10842Y27951D2*
X11277D1*
X14377D2*
X14937D1*
X18337D2*
X18897D1*
X21997D2*
X22557D1*
X25957D2*
X26939D1*
X10842Y27802D2*
X11277D1*
X14377D2*
X14937D1*
X18337D2*
X18897D1*
X21997D2*
X22557D1*
X25957D2*
X26939D1*
X10842Y27653D2*
X11277D1*
X14377D2*
X14937D1*
X18337D2*
X18897D1*
X21997D2*
X22557D1*
X25957D2*
X26939D1*
X10842Y27504D2*
X11277D1*
X14377D2*
X18897D1*
X21997D2*
X26939D1*
X10842Y27355D2*
X26939D1*
X24789Y29381D2*
X25943D1*
Y27611D1*
X22574D1*
Y29381D1*
X24789D1*
X18929Y29456D2*
X21983D1*
Y27386D1*
X18914D1*
Y29456D1*
X18929D1*
X17169Y29381D2*
X18323D1*
Y27611D1*
X14954D1*
Y29381D1*
X17169D1*
X11309Y29456D2*
X14363D1*
Y27386D1*
X11294D1*
Y29456D1*
X11309D1*
X14895Y31951D2*
Y30555D1*
X12725D1*
Y31628D1*
X10825Y29805D1*
X10827Y29077D1*
Y27248D1*
X26955Y27308D1*
Y29779D1*
X26121Y30623D1*
X25056Y31703D1*
X25052Y31609D1*
X25055Y31558D1*
Y30555D1*
X22885D1*
Y31972D1*
X22516Y31970D1*
X22515Y30555D1*
X20345D1*
Y31963D1*
X19973D1*
X19975Y31634D1*
Y30555D1*
X17805D1*
Y31959D1*
X17434Y31957D1*
X17435Y30555D1*
X15265D1*
Y31950D1*
X14896D1*
X14892Y31625D1*
X24774Y29380D2*
X25942Y27612D1*
Y29380D2*
X24774Y27612D1*
X23674Y29380D2*
X24842Y27612D1*
Y29380D2*
X23674Y27612D1*
X22574Y29380D2*
X23742Y27612D1*
Y29380D2*
X22574Y27612D1*
X18914Y29455D2*
X21982Y27387D1*
Y29455D2*
X18914Y27387D1*
X17154Y29380D2*
X18322Y27612D1*
Y29380D2*
X17154Y27612D1*
X16054Y29380D2*
X17222Y27612D1*
Y29380D2*
X16054Y27612D1*
X14954Y29380D2*
X16122Y27612D1*
Y29380D2*
X14954Y27612D1*
X11294Y29455D2*
X14362Y27387D1*
Y29455D2*
X11294Y27387D1*
X15549Y19063D2*
X15675D1*
X15549Y18914D2*
X15759D1*
X15549Y18764D2*
X15928D1*
X16556D2*
X16733D1*
X15549Y18615D2*
X16637D1*
X15549Y18466D2*
X16545D1*
X15549Y18317D2*
X15680D1*
X15549Y18168D2*
X15680D1*
X15549Y18019D2*
X15680D1*
X15549Y17870D2*
X15680D1*
X15549Y17721D2*
X15680D1*
X15549Y17572D2*
X15680D1*
X11222Y17423D2*
X14349D1*
X15549D2*
X15680D1*
X11222Y17274D2*
X14349D1*
X15549D2*
X15680D1*
X11222Y17125D2*
X14349D1*
X15549D2*
X15680D1*
X12939Y16976D2*
X13639D1*
X12939Y16827D2*
X13639D1*
X12939Y16678D2*
X13639D1*
X12939Y16528D2*
X13639D1*
X12939Y16379D2*
X13639D1*
X12939Y16230D2*
X13639D1*
X12939Y16081D2*
X13639D1*
X12939Y15932D2*
X13639D1*
X12939Y15783D2*
X13639D1*
X12939Y15634D2*
X13639D1*
X12939Y15485D2*
X13639D1*
X12939Y15336D2*
X13639D1*
X12939Y15187D2*
X13639D1*
X12939Y15038D2*
X13639D1*
X12939Y14889D2*
X13639D1*
X12939Y14740D2*
X13639D1*
X12939Y14591D2*
X13639D1*
X12939Y14442D2*
X13639D1*
X12939Y14292D2*
X13639D1*
X12939Y14143D2*
X13639D1*
X12939Y13994D2*
X13639D1*
X11037Y13845D2*
X15673D1*
X11037Y13696D2*
X15792D1*
X11037Y13547D2*
X15914D1*
X11037Y13398D2*
X16033D1*
X11037Y13249D2*
X16154D1*
X11136Y13100D2*
X16273D1*
X11284Y12951D2*
X16395D1*
X11429Y12802D2*
X16514D1*
X11577Y12653D2*
X16635D1*
X11724Y12504D2*
X16754D1*
X11870Y12355D2*
X16876D1*
X12017Y12206D2*
X12711D1*
X14911D2*
X15252D1*
X12163Y12056D2*
X12711D1*
X14911D2*
X15252D1*
X12310Y11907D2*
X12711D1*
X14911D2*
X15252D1*
X12456Y11758D2*
X12711D1*
X14911D2*
X15252D1*
X12603Y11609D2*
X12711D1*
X14911D2*
X15252D1*
X14911Y11460D2*
X15252D1*
X14911Y11311D2*
X15252D1*
X15771Y18433D2*
X16540D1*
X16814Y18871D1*
X16812Y19123D1*
X16788Y19051D1*
X16755Y18982D1*
X16713Y18918D1*
X16664Y18861D1*
X16607Y18810D1*
X16544Y18767D1*
X16476Y18732D1*
X16405Y18706D1*
X16330Y18690D1*
X16255Y18683D1*
X16178Y18687D1*
X16103Y18700D1*
X16031Y18722D1*
X15961Y18754D1*
X15897Y18794D1*
X15838Y18843D1*
X15786Y18898D1*
X15741Y18960D1*
X15705Y19027D1*
X15678Y19098D1*
X15656Y19212D1*
X15531D1*
X15533Y18452D1*
X15530Y18302D1*
X15533Y18249D1*
Y17002D1*
X14363D1*
Y19214D1*
X14283Y19212D1*
X14282Y17448D1*
X11208D1*
Y16984D1*
X11693Y16982D1*
X12925D1*
Y13913D1*
X11022D1*
Y13204D1*
X12122Y12083D1*
X12725Y11470D1*
Y12305D1*
X14895D1*
Y11209D1*
X15267Y11208D1*
X15265Y11256D1*
Y12305D1*
X16932D1*
X15633Y13913D1*
X13655D1*
Y16982D1*
X15625D1*
X15697Y17098D1*
X15698Y17133D1*
X15695Y17293D1*
Y18433D1*
X15771D1*
X15695D2*
X16280Y17749D1*
X15695Y17064D1*
X11498Y18332D2*
X12082Y17448D1*
X12598Y18332D2*
X13182Y17448D1*
X12598Y18332D2*
X12014Y17448D1*
X13698Y18332D2*
X14282Y17448D1*
Y19216D2*
X13114Y17448D1*
X13656Y16981D2*
X14690Y15447D1*
X13656Y13913D1*
X15266Y12304D2*
X16350Y11270D1*
X14364Y18371D2*
X15533Y17002D1*
Y18371D2*
X14364Y17002D1*
X15827Y15699D2*
X16956D1*
X15827Y15550D2*
X16956D1*
X15827Y15401D2*
X16956D1*
X15827Y15252D2*
X16956D1*
X15827Y15103D2*
X16956D1*
X15827Y14954D2*
X16956D1*
X15827Y14805D2*
X16956D1*
X15827Y14656D2*
X16956D1*
X15827Y14506D2*
X17249D1*
X15827Y14357D2*
X17249D1*
X15827Y14208D2*
X17249D1*
X15929Y14059D2*
X17249D1*
X16050Y13910D2*
X17249D1*
X16169Y13761D2*
X17249D1*
X16291Y13612D2*
X19539D1*
X16410Y13463D2*
X19592D1*
X16531Y13314D2*
X19644D1*
X16650Y13165D2*
X19697D1*
X16772Y13016D2*
X19749D1*
X16891Y12867D2*
X19799D1*
X17012Y12718D2*
X19851D1*
X17131Y12569D2*
X19904D1*
X17253Y12420D2*
X19956D1*
X17451Y12270D2*
X17792D1*
X17451Y12121D2*
X17792D1*
X17451Y11972D2*
X17792D1*
X19989D2*
X20111D1*
X17451Y11823D2*
X17792D1*
X19989D2*
X20163D1*
X17455Y11674D2*
X17792D1*
X19989D2*
X20216D1*
X17558Y11525D2*
X17792D1*
X19989D2*
X20268D1*
X17662Y11376D2*
X17792D1*
X19989D2*
X20320D1*
X16865Y17026D2*
Y15764D1*
X15812D1*
Y14186D1*
X17331Y12304D1*
X17435Y12305D1*
Y11678D1*
X17680Y11330D1*
X17805Y11333D1*
Y12305D1*
X19975D1*
Y11330D1*
X20348D1*
X20228Y11681D1*
X19551Y13613D1*
X18563Y13616D1*
X18510Y13613D1*
X17263D1*
X17261Y14642D1*
X16971D1*
Y15827D1*
X16871Y15826D1*
Y17026D1*
X16280Y16449D2*
X16864Y15764D1*
X17756Y15377D2*
X16972Y14642D1*
X17948Y14198D2*
X18632Y13614D1*
X17948Y14198D2*
X17263Y13614D1*
X17806Y12304D2*
X18890Y11270D1*
X19974Y12304D2*
X18890Y11270D1*
X17456Y16511D2*
X16871Y15826D1*
X18062Y18192D2*
X18327D1*
X18062Y18043D2*
X18260D1*
X18055Y17894D2*
X18236D1*
X18055Y17745D2*
X18250D1*
X18071Y17596D2*
X18305D1*
X19481D2*
X19648D1*
X18088Y17447D2*
X18420D1*
X19262D2*
X19748D1*
X18102Y17298D2*
X18701D1*
X18979D2*
X19970D1*
X20424D2*
X20501D1*
X18119Y17149D2*
X20498D1*
X18136Y17000D2*
X20498D1*
X18150Y16851D2*
X20498D1*
X18169Y16701D2*
X23830D1*
X18255Y16552D2*
X26706D1*
X18338Y16403D2*
X26706D1*
X18424Y16254D2*
X26706D1*
X18555Y16105D2*
X18658D1*
X20255D2*
X26706D1*
X20255Y15956D2*
X26709D1*
X20255Y15807D2*
X23830D1*
X20255Y15658D2*
X23830D1*
X20255Y15509D2*
X20498D1*
X20255Y15360D2*
X20498D1*
X20255Y15211D2*
X20498D1*
X20255Y15062D2*
X20498D1*
X20255Y14913D2*
X20498D1*
X20255Y14764D2*
X20498D1*
X19948Y14615D2*
X20498D1*
X19948Y14465D2*
X20498D1*
X19948Y14316D2*
X20498D1*
X19948Y14167D2*
X20498D1*
X19948Y14018D2*
X20498D1*
X19948Y13869D2*
X20498D1*
X19948Y13720D2*
X21746D1*
X23346D2*
X26716D1*
X19914Y13571D2*
X21746D1*
X23346D2*
X26718D1*
X19964Y13422D2*
X21746D1*
X23346D2*
X26718D1*
X20017Y13273D2*
X21746D1*
X23346D2*
X26718D1*
X20069Y13124D2*
X21746D1*
X23346D2*
X26718D1*
X20122Y12975D2*
X21746D1*
X23346D2*
X26716D1*
X20174Y12826D2*
X21746D1*
X23346D2*
X26530D1*
X20226Y12677D2*
X21746D1*
X23346D2*
X26347D1*
X20276Y12528D2*
X21746D1*
X23346D2*
X26163D1*
X20329Y12379D2*
X21746D1*
X23389D2*
X25978D1*
X25070Y12229D2*
X25794D1*
X25070Y12080D2*
X25611D1*
X25070Y11931D2*
X25425D1*
X25070Y11782D2*
X25242D1*
X18687Y16112D2*
X20241D1*
Y14642D1*
X19932D1*
Y13613D1*
X19882D1*
X20346Y12287D1*
X20345Y12305D1*
X21762D1*
X21761Y13005D1*
X22630Y13002D1*
X22689Y13005D1*
X23330D1*
Y12421D1*
X23446Y12306D1*
X25055Y12305D1*
Y11617D1*
X25418Y11913D1*
X26736Y12979D1*
X26731Y13771D1*
X23746Y13774D1*
X23330D1*
Y13035D1*
X21761D1*
Y13775D1*
X20514Y13774D1*
Y15544D1*
X23845D1*
X23844Y15841D1*
X26724D1*
X26721Y16574D1*
X26380Y16571D1*
X23844D1*
Y16726D1*
X23274Y16724D1*
X22714Y16727D1*
X22555Y16724D1*
X21614Y16727D1*
X21455Y16724D1*
X20514D1*
Y17351D1*
X20431Y17307D1*
X20359Y17281D1*
X20285Y17265D1*
X20209Y17258D1*
X20133Y17261D1*
X20058Y17274D1*
X19985Y17297D1*
X19916Y17329D1*
X19851Y17369D1*
X19793Y17417D1*
X19741Y17473D1*
X19696Y17535D1*
X19660Y17602D1*
X19633Y17673D1*
X19615Y17745D1*
X19492Y17619D1*
X19432Y17571D1*
X19375Y17541D1*
X19312Y17519D1*
X19262Y17462D1*
X19205Y17411D1*
X19143Y17368D1*
X19075Y17333D1*
X19003Y17307D1*
X18929Y17291D1*
X18853Y17284D1*
X18777Y17288D1*
X18702Y17301D1*
X18629Y17323D1*
X18560Y17355D1*
X18495Y17395D1*
X18437Y17444D1*
X18384Y17499D1*
X18340Y17561D1*
X18304Y17628D1*
X18276Y17699D1*
X18259Y17773D1*
X18250Y17849D1*
X18252Y17925D1*
X18263Y18000D1*
X18284Y18073D1*
X18315Y18143D1*
X18358Y18214D1*
X18249Y18210D1*
X18049D1*
X18048Y18055D1*
X18041Y17962D1*
Y17741D1*
X18152Y16704D1*
X18492Y16110D1*
X18541Y16112D1*
Y16024D1*
X18671Y15801D1*
Y16112D1*
X18687D1*
X18672Y16111D2*
X20241Y14642D1*
Y16111D2*
X19456Y15377D1*
X20515Y15543D2*
X21683Y13775D1*
Y15543D2*
X20515Y13775D1*
X21615Y15543D2*
X22199Y14659D1*
X22783Y15543D2*
X21615Y13775D1*
X22715Y15543D2*
X23883Y13775D1*
Y15543D2*
X23299Y14659D1*
X23845Y15840D2*
X25379Y14806D1*
X23845Y13772D1*
X22895Y13520D2*
X23330Y13035D1*
X22895Y13520D2*
X22461Y13035D1*
X22195Y13520D2*
X22630Y13035D1*
X22195Y13520D2*
X21761Y13035D1*
D15*
X16280Y17749D3*
Y16449D3*
D16*
X19456Y15377D3*
X17756D3*
D17*
X19248Y14198D3*
X17948D3*
D19*
X23299Y17609D3*
X22199D3*
X21099D3*
Y14659D3*
X22199D3*
X23299D3*
D21*
X25379Y17606D3*
Y14806D3*
D19*
X23158Y25546D3*
X24258D3*
X25358D3*
Y28496D3*
X24258D3*
X23158D3*
D21*
X20448Y25621D3*
Y28421D3*
D19*
X15538Y25546D3*
X16638D3*
X17738D3*
Y28496D3*
X16638D3*
X15538D3*
D21*
X12828Y25621D3*
Y28421D3*
D19*
X13698Y21282D3*
X12598D3*
X11498D3*
Y18332D3*
X12598D3*
X13698D3*
D23*
X11890Y15447D3*
X14690D3*
D24*
X13810Y31590D3*
D25*
Y32860D3*
D24*
X18890Y31590D3*
X16350D3*
D26*
X18890Y32860D3*
X16350D3*
D24*
X23970Y11270D3*
X21430D3*
D26*
X23970Y10000D3*
X21430D3*
D24*
X23970Y31590D3*
X21430D3*
D26*
X23970Y32860D3*
X21430D3*
D24*
X16350Y11270D3*
X18890D3*
D26*
X16350Y10000D3*
X18890D3*
D24*
X13810Y11270D3*
D25*
Y10000D3*
D15*
X17456Y16511D3*
Y17811D3*
X14948Y18987D3*
Y17687D3*
G36*
X21111Y19734D2*
X21840D1*
Y19456D1*
X21111D1*
X21075Y19466D1*
X21044Y19484D1*
X21018Y19510D1*
X21000Y19541D1*
X20990Y19577D1*
Y19613D1*
X21000Y19649D1*
X21018Y19680D1*
X21044Y19706D1*
X21075Y19724D1*
X21111Y19734D1*
G37*
G36*
Y20234D2*
X21840D1*
Y19956D1*
X21111D1*
X21075Y19966D1*
X21044Y19984D1*
X21018Y20010D1*
X21000Y20041D1*
X20990Y20077D1*
Y20113D1*
X21000Y20149D1*
X21018Y20180D1*
X21044Y20206D1*
X21075Y20224D1*
X21111Y20234D1*
G37*
G36*
Y20734D2*
X21840D1*
Y20456D1*
X21111D1*
X21075Y20466D1*
X21044Y20484D1*
X21018Y20510D1*
X21000Y20541D1*
X20990Y20577D1*
Y20613D1*
X21000Y20649D1*
X21018Y20680D1*
X21044Y20706D1*
X21075Y20724D1*
X21111Y20734D1*
G37*
G36*
Y21234D2*
X21840D1*
Y20956D1*
X21111D1*
X21075Y20966D1*
X21044Y20984D1*
X21018Y21010D1*
X21000Y21041D1*
X20990Y21077D1*
Y21113D1*
X21000Y21149D1*
X21018Y21180D1*
X21044Y21206D1*
X21075Y21224D1*
X21111Y21234D1*
G37*
G36*
Y21734D2*
X21840D1*
Y21456D1*
X21111D1*
X21075Y21466D1*
X21044Y21484D1*
X21018Y21510D1*
X21000Y21541D1*
X20990Y21577D1*
Y21613D1*
X21000Y21649D1*
X21018Y21680D1*
X21044Y21706D1*
X21075Y21724D1*
X21111Y21734D1*
G37*
G36*
Y22234D2*
X21840D1*
Y21956D1*
X21111D1*
X21075Y21966D1*
X21044Y21984D1*
X21018Y22010D1*
X21000Y22041D1*
X20990Y22077D1*
Y22113D1*
X21000Y22149D1*
X21018Y22180D1*
X21044Y22206D1*
X21075Y22224D1*
X21111Y22234D1*
G37*
G36*
Y22734D2*
X21840D1*
Y22456D1*
X21111D1*
X21075Y22466D1*
X21044Y22484D1*
X21018Y22510D1*
X21000Y22541D1*
X20990Y22577D1*
Y22613D1*
X21000Y22649D1*
X21018Y22680D1*
X21044Y22706D1*
X21075Y22724D1*
X21111Y22734D1*
G37*
G36*
Y23234D2*
X21840D1*
Y22956D1*
X21111D1*
X21075Y22966D1*
X21044Y22984D1*
X21018Y23010D1*
X21000Y23041D1*
X20990Y23077D1*
Y23113D1*
X21000Y23149D1*
X21018Y23180D1*
X21044Y23206D1*
X21075Y23224D1*
X21111Y23234D1*
G37*
G36*
X20547Y23516D2*
Y24245D1*
X20825D1*
Y23516D1*
X20815Y23480D1*
X20797Y23449D1*
X20771Y23423D1*
X20740Y23405D1*
X20704Y23395D1*
X20668D1*
X20632Y23405D1*
X20601Y23423D1*
X20575Y23449D1*
X20557Y23480D1*
X20547Y23516D1*
G37*
G36*
X20047D2*
Y24245D1*
X20325D1*
Y23516D1*
X20315Y23480D1*
X20297Y23449D1*
X20271Y23423D1*
X20240Y23405D1*
X20204Y23395D1*
X20168D1*
X20132Y23405D1*
X20101Y23423D1*
X20075Y23449D1*
X20057Y23480D1*
X20047Y23516D1*
G37*
G36*
X19547D2*
Y24245D1*
X19825D1*
Y23516D1*
X19815Y23480D1*
X19797Y23449D1*
X19771Y23423D1*
X19740Y23405D1*
X19704Y23395D1*
X19668D1*
X19632Y23405D1*
X19601Y23423D1*
X19575Y23449D1*
X19557Y23480D1*
X19547Y23516D1*
G37*
G36*
X19047D2*
Y24245D1*
X19325D1*
Y23516D1*
X19315Y23480D1*
X19297Y23449D1*
X19271Y23423D1*
X19240Y23405D1*
X19204Y23395D1*
X19168D1*
X19132Y23405D1*
X19101Y23423D1*
X19075Y23449D1*
X19057Y23480D1*
X19047Y23516D1*
G37*
G36*
X18547D2*
Y24245D1*
X18825D1*
Y23516D1*
X18815Y23480D1*
X18797Y23449D1*
X18771Y23423D1*
X18740Y23405D1*
X18704Y23395D1*
X18668D1*
X18632Y23405D1*
X18601Y23423D1*
X18575Y23449D1*
X18557Y23480D1*
X18547Y23516D1*
G37*
G36*
X18047D2*
Y24245D1*
X18325D1*
Y23516D1*
X18315Y23480D1*
X18297Y23449D1*
X18271Y23423D1*
X18240Y23405D1*
X18204Y23395D1*
X18168D1*
X18132Y23405D1*
X18101Y23423D1*
X18075Y23449D1*
X18057Y23480D1*
X18047Y23516D1*
G37*
G36*
X17547D2*
Y24245D1*
X17825D1*
Y23516D1*
X17815Y23480D1*
X17797Y23449D1*
X17771Y23423D1*
X17740Y23405D1*
X17704Y23395D1*
X17668D1*
X17632Y23405D1*
X17601Y23423D1*
X17575Y23449D1*
X17557Y23480D1*
X17547Y23516D1*
G37*
G36*
X17047D2*
Y24245D1*
X17325D1*
Y23516D1*
X17315Y23480D1*
X17297Y23449D1*
X17271Y23423D1*
X17240Y23405D1*
X17204Y23395D1*
X17168D1*
X17132Y23405D1*
X17101Y23423D1*
X17075Y23449D1*
X17057Y23480D1*
X17047Y23516D1*
G37*
G36*
X16765Y22956D2*
X16036D1*
Y23234D1*
X16765D1*
X16801Y23224D1*
X16832Y23206D1*
X16858Y23180D1*
X16876Y23149D1*
X16886Y23113D1*
Y23077D1*
X16876Y23041D1*
X16858Y23010D1*
X16832Y22984D1*
X16801Y22966D1*
X16765Y22956D1*
G37*
G36*
Y22456D2*
X16036D1*
Y22734D1*
X16765D1*
X16801Y22724D1*
X16832Y22706D1*
X16858Y22680D1*
X16876Y22649D1*
X16886Y22613D1*
Y22577D1*
X16876Y22541D1*
X16858Y22510D1*
X16832Y22484D1*
X16801Y22466D1*
X16765Y22456D1*
G37*
G36*
Y21956D2*
X16036D1*
Y22234D1*
X16765D1*
X16801Y22224D1*
X16832Y22206D1*
X16858Y22180D1*
X16876Y22149D1*
X16886Y22113D1*
Y22077D1*
X16876Y22041D1*
X16858Y22010D1*
X16832Y21984D1*
X16801Y21966D1*
X16765Y21956D1*
G37*
G36*
Y21456D2*
X16036D1*
Y21734D1*
X16765D1*
X16801Y21724D1*
X16832Y21706D1*
X16858Y21680D1*
X16876Y21649D1*
X16886Y21613D1*
Y21577D1*
X16876Y21541D1*
X16858Y21510D1*
X16832Y21484D1*
X16801Y21466D1*
X16765Y21456D1*
G37*
G36*
Y20956D2*
X16036D1*
Y21234D1*
X16765D1*
X16801Y21224D1*
X16832Y21206D1*
X16858Y21180D1*
X16876Y21149D1*
X16886Y21113D1*
Y21077D1*
X16876Y21041D1*
X16858Y21010D1*
X16832Y20984D1*
X16801Y20966D1*
X16765Y20956D1*
G37*
G36*
Y20456D2*
X16036D1*
Y20734D1*
X16765D1*
X16801Y20724D1*
X16832Y20706D1*
X16858Y20680D1*
X16876Y20649D1*
X16886Y20613D1*
Y20577D1*
X16876Y20541D1*
X16858Y20510D1*
X16832Y20484D1*
X16801Y20466D1*
X16765Y20456D1*
G37*
G36*
Y19956D2*
X16036D1*
Y20234D1*
X16765D1*
X16801Y20224D1*
X16832Y20206D1*
X16858Y20180D1*
X16876Y20149D1*
X16886Y20113D1*
Y20077D1*
X16876Y20041D1*
X16858Y20010D1*
X16832Y19984D1*
X16801Y19966D1*
X16765Y19956D1*
G37*
G36*
Y19456D2*
X16036D1*
Y19734D1*
X16765D1*
X16801Y19724D1*
X16832Y19706D1*
X16858Y19680D1*
X16876Y19649D1*
X16886Y19613D1*
Y19577D1*
X16876Y19541D1*
X16858Y19510D1*
X16832Y19484D1*
X16801Y19466D1*
X16765Y19456D1*
G37*
G36*
X17325Y19174D2*
Y18445D1*
X17047D1*
Y19174D1*
X17057Y19210D1*
X17075Y19241D1*
X17101Y19267D1*
X17132Y19285D1*
X17168Y19295D1*
X17204D1*
X17240Y19285D1*
X17271Y19267D1*
X17297Y19241D1*
X17315Y19210D1*
X17325Y19174D1*
G37*
G36*
X17825D2*
Y18445D1*
X17547D1*
Y19174D1*
X17557Y19210D1*
X17575Y19241D1*
X17601Y19267D1*
X17632Y19285D1*
X17668Y19295D1*
X17704D1*
X17740Y19285D1*
X17771Y19267D1*
X17797Y19241D1*
X17815Y19210D1*
X17825Y19174D1*
G37*
G36*
X18325D2*
Y18445D1*
X18047D1*
Y19174D1*
X18057Y19210D1*
X18075Y19241D1*
X18101Y19267D1*
X18132Y19285D1*
X18168Y19295D1*
X18204D1*
X18240Y19285D1*
X18271Y19267D1*
X18297Y19241D1*
X18315Y19210D1*
X18325Y19174D1*
G37*
G36*
X18825D2*
Y18445D1*
X18547D1*
Y19174D1*
X18557Y19210D1*
X18575Y19241D1*
X18601Y19267D1*
X18632Y19285D1*
X18668Y19295D1*
X18704D1*
X18740Y19285D1*
X18771Y19267D1*
X18797Y19241D1*
X18815Y19210D1*
X18825Y19174D1*
G37*
G36*
X19325D2*
Y18445D1*
X19047D1*
Y19174D1*
X19057Y19210D1*
X19075Y19241D1*
X19101Y19267D1*
X19132Y19285D1*
X19168Y19295D1*
X19204D1*
X19240Y19285D1*
X19271Y19267D1*
X19297Y19241D1*
X19315Y19210D1*
X19325Y19174D1*
G37*
G36*
X19825D2*
Y18445D1*
X19547D1*
Y19174D1*
X19557Y19210D1*
X19575Y19241D1*
X19601Y19267D1*
X19632Y19285D1*
X19668Y19295D1*
X19704D1*
X19740Y19285D1*
X19771Y19267D1*
X19797Y19241D1*
X19815Y19210D1*
X19825Y19174D1*
G37*
G36*
X20325D2*
Y18445D1*
X20047D1*
Y19174D1*
X20057Y19210D1*
X20075Y19241D1*
X20101Y19267D1*
X20132Y19285D1*
X20168Y19295D1*
X20204D1*
X20240Y19285D1*
X20271Y19267D1*
X20297Y19241D1*
X20315Y19210D1*
X20325Y19174D1*
G37*
G36*
X20825D2*
Y18445D1*
X20547D1*
Y19174D1*
X20557Y19210D1*
X20575Y19241D1*
X20601Y19267D1*
X20632Y19285D1*
X20668Y19295D1*
X20704D1*
X20740Y19285D1*
X20771Y19267D1*
X20797Y19241D1*
X20815Y19210D1*
X20825Y19174D1*
G37*
D30*
X18936Y21345D3*
D31*
X19356Y21032D3*
X18594D3*
X17832D3*
X20118D3*
X19353Y21792D3*
X18591D3*
X17829D3*
X20115D3*
X19353Y20265D3*
X18591D3*
X17829D3*
X20115D3*
X19353Y22555D3*
X18591D3*
X17829D3*
X20115D3*
D33*
X22895Y13520D3*
X22195D3*
Y12520D3*
X22895D3*
M02*
