G04 DipTrace 2.4.0.2*
%INSocialLightsmall.gbs*%
%MOMM*%
%ADD43R,1.75X2.082*%
%ADD44R,1.75X2.05*%
%ADD45R,1.75X1.65*%
%FSLAX53Y53*%
G04*
G71*
G90*
G75*
G01*
%LNBotMask*%
%LPD*%
D45*
X13810Y31590D3*
G36*
X12935Y30315D2*
Y30820D1*
X14685D1*
Y30315D1*
X14141Y30035D1*
X13479D1*
X12935Y30315D1*
G37*
D44*
X13810Y32860D3*
D45*
X18890Y31590D3*
X16350D3*
D43*
X18890Y32860D3*
X16350D3*
G36*
X15475Y30315D2*
Y30820D1*
X17225D1*
Y30315D1*
X16681Y30035D1*
X16019D1*
X15475Y30315D1*
G37*
G36*
X18015D2*
Y30815D1*
X19765D1*
Y30315D1*
X19221Y30035D1*
X18559D1*
X18015Y30315D1*
G37*
D45*
X23970Y11270D3*
X21430D3*
G36*
X22305Y12545D2*
Y12040D1*
X20555D1*
Y12545D1*
X21099Y12825D1*
X21761D1*
X22305Y12545D1*
G37*
G36*
X24845D2*
Y12040D1*
X23095D1*
Y12545D1*
X23639Y12825D1*
X24301D1*
X24845Y12545D1*
G37*
D43*
X23970Y10000D3*
X21430D3*
D45*
X23970Y31590D3*
X21430D3*
D43*
X23970Y32860D3*
X21430D3*
G36*
X20555Y30315D2*
Y30820D1*
X22305D1*
Y30315D1*
X21761Y30035D1*
X21099D1*
X20555Y30315D1*
G37*
G36*
X23095D2*
Y30815D1*
X24845D1*
Y30315D1*
X24301Y30035D1*
X23639D1*
X23095Y30315D1*
G37*
D45*
X16350Y11270D3*
X18890D3*
D43*
X16350Y10000D3*
X18890D3*
G36*
X19765Y12545D2*
Y12040D1*
X18015D1*
Y12545D1*
X18559Y12825D1*
X19221D1*
X19765Y12545D1*
G37*
G36*
X17225D2*
Y12045D1*
X15475D1*
Y12545D1*
X16019Y12825D1*
X16681D1*
X17225Y12545D1*
G37*
D45*
X13810Y11270D3*
G36*
X14685Y12545D2*
Y12040D1*
X12935D1*
Y12545D1*
X13479Y12825D1*
X14141D1*
X14685Y12545D1*
G37*
D44*
X13810Y10000D3*
G36*
X21225Y15242D2*
X21196Y15432D1*
X21136Y15580D1*
X21060Y15674D1*
X20984Y15750D1*
X20871Y15813D1*
X20806Y15839D1*
X20711Y15859D1*
X20660Y15869D1*
X20578Y15874D1*
X20513Y15851D1*
X20475Y15813D1*
X20449Y15788D1*
X20385Y15775D1*
X20360Y15780D1*
X20309Y15795D1*
X20282Y15826D1*
X20183Y15744D1*
X20233Y15668D1*
Y15650D1*
X20144Y15614D1*
X20132Y15559D1*
X20122Y15458D1*
X20374Y15564D1*
X20406D1*
X20449Y15557D1*
X20459Y15534D1*
X20439Y15483D1*
X20324Y15420D1*
X20152Y15349D1*
X20177Y15298D1*
X20241Y15244D1*
X20431Y15318D1*
X20425Y15280D1*
Y15242D1*
X21225D1*
G37*
M02*
