G04 DipTrace 2.4.0.2*
%INSocialLightsmall.gto*%
%MOIN*%
%ADD10C,0.0098*%
%ADD14C,0.006*%
%ADD19O,0.0256X0.0272*%
%ADD21O,0.0447X0.0455*%
%ADD23O,0.0455X0.0447*%
%ADD27O,0.0167X0.0163*%
%ADD46C,0.0033*%
%ADD47C,0.0044*%
%FSLAX44Y44*%
G04*
G70*
G90*
G75*
G01*
%LNTopSilk*%
%LPD*%
X9477Y5938D2*
D10*
X9379Y6135D1*
X9477Y4166D2*
Y4462D1*
Y4166D2*
X9182D1*
X8394D2*
X8099D1*
Y4462D1*
Y5840D2*
Y6135D1*
X8394D1*
D19*
X9223Y6462D3*
D21*
X9947Y6582D3*
X10542Y4490D2*
D10*
Y4195D1*
X9361D1*
Y4490D1*
X10542Y5868D2*
Y6163D1*
X9361D1*
Y5868D1*
X8998Y8650D2*
X9096Y8453D1*
X8998Y10421D2*
Y10126D1*
Y10421D2*
X9293D1*
X10081D2*
X10376D1*
Y10126D1*
Y8748D2*
Y8453D1*
X10081D1*
D19*
X9252Y8126D3*
D21*
X8192Y8034D3*
X7596Y10126D2*
D10*
Y10421D1*
X8778D1*
Y10126D1*
X7596Y8748D2*
Y8453D1*
X8778D1*
Y8748D1*
X5998Y8650D2*
X6096Y8453D1*
X5998Y10421D2*
Y10126D1*
Y10421D2*
X6293D1*
X7081D2*
X7376D1*
Y10126D1*
Y8748D2*
Y8453D1*
X7081D1*
D19*
X6252Y8126D3*
D21*
X5192Y8034D3*
X4596Y10126D2*
D10*
Y10421D1*
X5778D1*
Y10126D1*
X4596Y8748D2*
Y8453D1*
X5778D1*
Y8748D1*
X5674Y7273D2*
X5576Y7470D1*
X5674Y5502D2*
Y5797D1*
Y5502D2*
X5379D1*
X4592D2*
X4296D1*
Y5797D1*
Y7175D2*
Y7470D1*
X4592D1*
D19*
X5420Y7797D3*
D23*
X6660Y4885D3*
X4569Y4290D2*
D10*
X4273D1*
Y5471D1*
X4569D1*
X5947Y4290D2*
X6242D1*
Y5471D1*
X5947D1*
D27*
X8813Y6589D3*
X8576Y6415D2*
D14*
X8379Y6218D1*
X6805D2*
X6608D1*
Y6415D1*
Y7990D2*
Y8187D1*
X6805D1*
X8379D2*
X8576D1*
Y7990D1*
X6574Y6248D2*
D46*
X6565Y6277D1*
X6548Y6306D1*
X6531Y6320D1*
X6496D1*
X6479Y6306D1*
X6462Y6277D1*
X6453Y6248D1*
X6445Y6205D1*
Y6133D1*
X6453Y6090D1*
X6462Y6062D1*
X6479Y6033D1*
X6496Y6018D1*
X6531D1*
X6548Y6033D1*
X6565Y6062D1*
X6574Y6090D1*
X6613Y6262D2*
X6630Y6277D1*
X6656Y6320D1*
Y6018D1*
X7446Y5298D2*
X7438Y5326D1*
X7421Y5355D1*
X7403Y5369D1*
X7369D1*
X7352Y5355D1*
X7335Y5326D1*
X7326Y5298D1*
X7317Y5255D1*
Y5183D1*
X7326Y5140D1*
X7335Y5111D1*
X7352Y5082D1*
X7369Y5068D1*
X7403D1*
X7421Y5082D1*
X7438Y5111D1*
X7446Y5140D1*
X7494Y5297D2*
Y5312D1*
X7503Y5340D1*
X7512Y5355D1*
X7529Y5369D1*
X7563D1*
X7580Y5355D1*
X7589Y5340D1*
X7598Y5312D1*
Y5283D1*
X7589Y5254D1*
X7572Y5211D1*
X7486Y5068D1*
X7606D1*
X6850Y4575D2*
X6841Y4603D1*
X6824Y4632D1*
X6807Y4646D1*
X6772D1*
X6755Y4632D1*
X6738Y4603D1*
X6729Y4575D1*
X6720Y4532D1*
Y4460D1*
X6729Y4417D1*
X6738Y4388D1*
X6755Y4360D1*
X6772Y4345D1*
X6807D1*
X6824Y4360D1*
X6841Y4388D1*
X6850Y4417D1*
X6906Y4646D2*
X7001D1*
X6949Y4531D1*
X6975D1*
X6992Y4517D1*
X7001Y4503D1*
X7010Y4460D1*
Y4431D1*
X7001Y4388D1*
X6984Y4359D1*
X6958Y4345D1*
X6932D1*
X6906Y4359D1*
X6898Y4374D1*
X6889Y4402D1*
X7813Y5880D2*
Y5578D1*
X7873D1*
X7899Y5593D1*
X7917Y5622D1*
X7925Y5650D1*
X7934Y5693D1*
Y5765D1*
X7925Y5808D1*
X7917Y5837D1*
X7899Y5866D1*
X7873Y5880D1*
X7813D1*
X7973Y5822D2*
X7990Y5837D1*
X8016Y5880D1*
Y5578D1*
X10490Y5562D2*
Y5260D1*
X10551D1*
X10577Y5275D1*
X10594Y5303D1*
X10602Y5332D1*
X10611Y5375D1*
Y5447D1*
X10602Y5490D1*
X10594Y5519D1*
X10577Y5547D1*
X10551Y5562D1*
X10490D1*
X10659Y5490D2*
Y5504D1*
X10668Y5533D1*
X10676Y5547D1*
X10694Y5561D1*
X10728D1*
X10745Y5547D1*
X10754Y5533D1*
X10762Y5504D1*
Y5475D1*
X10754Y5447D1*
X10737Y5404D1*
X10650Y5260D1*
X10771D1*
X10505Y10249D2*
Y9948D1*
X10566D1*
X10591Y9962D1*
X10609Y9991D1*
X10617Y10020D1*
X10626Y10062D1*
Y10134D1*
X10617Y10177D1*
X10609Y10206D1*
X10591Y10235D1*
X10566Y10249D1*
X10505D1*
X10683D2*
X10777D1*
X10726Y10134D1*
X10751D1*
X10769Y10120D1*
X10777Y10105D1*
X10786Y10062D1*
Y10034D1*
X10777Y9991D1*
X10760Y9962D1*
X10734Y9948D1*
X10708D1*
X10683Y9962D1*
X10674Y9976D1*
X10665Y10005D1*
X8587Y8395D2*
Y8094D1*
X8647D1*
X8673Y8108D1*
X8690Y8137D1*
X8699Y8166D1*
X8707Y8208D1*
Y8280D1*
X8699Y8324D1*
X8690Y8352D1*
X8673Y8381D1*
X8647Y8395D1*
X8587D1*
X8833Y8094D2*
Y8395D1*
X8747Y8194D1*
X8876D1*
X5762Y8338D2*
Y8037D1*
X5822D1*
X5848Y8051D1*
X5865Y8080D1*
X5874Y8109D1*
X5882Y8151D1*
Y8223D1*
X5874Y8266D1*
X5865Y8295D1*
X5848Y8324D1*
X5822Y8338D1*
X5762D1*
X6025D2*
X5939D1*
X5930Y8209D1*
X5939Y8223D1*
X5965Y8238D1*
X5991D1*
X6016Y8223D1*
X6034Y8194D1*
X6042Y8151D1*
Y8123D1*
X6034Y8080D1*
X6016Y8051D1*
X5991Y8037D1*
X5965D1*
X5939Y8051D1*
X5930Y8065D1*
X5922Y8094D1*
X4326Y10044D2*
Y9742D1*
X4386D1*
X4412Y9757D1*
X4429Y9785D1*
X4438Y9814D1*
X4446Y9857D1*
Y9929D1*
X4438Y9972D1*
X4429Y10001D1*
X4412Y10030D1*
X4386Y10044D1*
X4326D1*
X4589Y10001D2*
X4580Y10029D1*
X4555Y10043D1*
X4537D1*
X4512Y10029D1*
X4494Y9986D1*
X4486Y9914D1*
Y9843D1*
X4494Y9785D1*
X4512Y9757D1*
X4537Y9742D1*
X4546D1*
X4572Y9757D1*
X4589Y9785D1*
X4597Y9829D1*
Y9843D1*
X4589Y9886D1*
X4572Y9914D1*
X4546Y9929D1*
X4537D1*
X4512Y9914D1*
X4494Y9886D1*
X4486Y9843D1*
X5782Y7646D2*
Y7345D1*
X5842D1*
X5868Y7359D1*
X5885Y7388D1*
X5894Y7417D1*
X5902Y7460D1*
Y7531D1*
X5894Y7575D1*
X5885Y7603D1*
X5868Y7632D1*
X5842Y7646D1*
X5782D1*
X5976Y7345D2*
X6062Y7646D1*
X5942D1*
X3983Y4296D2*
Y3994D1*
X4044D1*
X4069Y4009D1*
X4087Y4038D1*
X4095Y4066D1*
X4104Y4109D1*
Y4181D1*
X4095Y4224D1*
X4087Y4253D1*
X4069Y4282D1*
X4044Y4296D1*
X3983D1*
X4186D2*
X4161Y4281D1*
X4152Y4253D1*
Y4224D1*
X4161Y4195D1*
X4178Y4181D1*
X4212Y4167D1*
X4238Y4152D1*
X4255Y4123D1*
X4264Y4095D1*
Y4052D1*
X4255Y4023D1*
X4247Y4009D1*
X4221Y3994D1*
X4186D1*
X4161Y4009D1*
X4152Y4023D1*
X4143Y4052D1*
Y4095D1*
X4152Y4123D1*
X4169Y4152D1*
X4195Y4167D1*
X4229Y4181D1*
X4247Y4195D1*
X4255Y4224D1*
Y4253D1*
X4247Y4281D1*
X4221Y4296D1*
X4186D1*
X7309Y5445D2*
Y5522D1*
X7295Y5548D1*
X7280Y5557D1*
X7252Y5566D1*
X7223D1*
X7195Y5557D1*
X7180Y5548D1*
X7166Y5522D1*
Y5445D1*
X7467D1*
X7309Y5505D2*
X7467Y5566D1*
X7223Y5605D2*
X7209Y5622D1*
X7166Y5648D1*
X7467D1*
X5854Y6626D2*
X5932D1*
X5958Y6641D1*
X5966Y6655D1*
X5975Y6683D1*
Y6712D1*
X5966Y6741D1*
X5958Y6755D1*
X5932Y6770D1*
X5854D1*
Y6468D1*
X5915Y6626D2*
X5975Y6468D1*
X6023Y6698D2*
Y6712D1*
X6032Y6741D1*
X6040Y6755D1*
X6057Y6769D1*
X6092D1*
X6109Y6755D1*
X6118Y6741D1*
X6126Y6712D1*
Y6683D1*
X6118Y6655D1*
X6100Y6612D1*
X6014Y6468D1*
X6135D1*
X8771Y7014D2*
Y6799D1*
X8780Y6755D1*
X8797Y6727D1*
X8823Y6712D1*
X8840D1*
X8866Y6727D1*
X8883Y6755D1*
X8892Y6799D1*
Y7014D1*
X8931Y6956D2*
X8948Y6971D1*
X8974Y7013D1*
Y6712D1*
X10648Y9669D2*
D47*
X10629Y9708D1*
X10601Y9727D1*
X10562D1*
X10534Y9708D1*
X10515Y9669D1*
Y9631D1*
X10524Y9593D1*
X10534Y9574D1*
X10553Y9555D1*
X10610Y9516D1*
X10629Y9497D1*
X10639Y9478D1*
X10648Y9440D1*
Y9383D1*
X10629Y9344D1*
X10601Y9325D1*
X10562D1*
X10534Y9344D1*
X10515Y9383D1*
X10692Y9727D2*
Y9325D1*
X10870Y9727D2*
Y9325D1*
X10736Y9727D1*
Y9325D1*
X9970Y8280D2*
X9951Y8318D1*
X9922Y8337D1*
X9884D1*
X9855Y8318D1*
X9836Y8280D1*
Y8242D1*
X9846Y8203D1*
X9855Y8184D1*
X9874Y8165D1*
X9932Y8127D1*
X9951Y8108D1*
X9960Y8088D1*
X9970Y8050D1*
Y7993D1*
X9951Y7955D1*
X9922Y7935D1*
X9884D1*
X9855Y7955D1*
X9836Y7993D1*
X10157Y8242D2*
X10148Y8280D1*
X10128Y8318D1*
X10109Y8337D1*
X10071D1*
X10052Y8318D1*
X10033Y8280D1*
X10023Y8242D1*
X10014Y8184D1*
Y8088D1*
X10023Y8031D1*
X10033Y7993D1*
X10052Y7955D1*
X10071Y7935D1*
X10109D1*
X10128Y7955D1*
X10148Y7993D1*
X10157Y8031D1*
X10201Y8337D2*
Y7935D1*
X10316D1*
X10359Y8337D2*
Y7935D1*
X10493Y8337D2*
X10359Y8069D1*
X10407Y8165D2*
X10493Y7935D1*
X9944Y6926D2*
Y7327D1*
X9868Y6926D1*
X9791Y7327D1*
Y6926D1*
X10045Y7327D2*
X10026Y7308D1*
X10007Y7270D1*
X9997Y7232D1*
X9988Y7174D1*
Y7079D1*
X9997Y7021D1*
X10007Y6983D1*
X10026Y6945D1*
X10045Y6926D1*
X10084D1*
X10103Y6945D1*
X10122Y6983D1*
X10131Y7021D1*
X10141Y7079D1*
Y7174D1*
X10131Y7232D1*
X10122Y7270D1*
X10103Y7308D1*
X10084Y7327D1*
X10045D1*
X10185D2*
Y6926D1*
X10252D1*
X10280Y6945D1*
X10299Y6983D1*
X10309Y7021D1*
X10319Y7079D1*
Y7174D1*
X10309Y7232D1*
X10299Y7270D1*
X10280Y7308D1*
X10252Y7327D1*
X10185D1*
X10486D2*
X10362D1*
Y6926D1*
X10486D1*
X10362Y7136D2*
X10439D1*
X9680Y6655D2*
Y6253D1*
X9766D1*
X9795Y6273D1*
X9804Y6292D1*
X9814Y6330D1*
Y6387D1*
X9804Y6426D1*
X9795Y6445D1*
X9766Y6464D1*
X9795Y6483D1*
X9804Y6502D1*
X9814Y6540D1*
Y6579D1*
X9804Y6617D1*
X9795Y6636D1*
X9766Y6655D1*
X9680D1*
Y6464D2*
X9766D1*
X9858Y6655D2*
Y6253D1*
X9972D1*
X10169D2*
X10093Y6655D1*
X10016Y6253D1*
X10045Y6387D2*
X10141D1*
X10347Y6655D2*
Y6253D1*
X10213Y6655D1*
Y6253D1*
X10391Y6655D2*
Y6253D1*
X10525Y6655D2*
X10391Y6387D1*
X10439Y6483D2*
X10525Y6253D1*
X3989Y9712D2*
X4123Y9310D1*
Y9712D2*
X3989Y9310D1*
X4291Y9712D2*
X4166D1*
Y9310D1*
X4291D1*
X4166Y9521D2*
X4243D1*
X4334D2*
X4420D1*
X4449Y9540D1*
X4459Y9559D1*
X4468Y9597D1*
Y9636D1*
X4459Y9674D1*
X4449Y9693D1*
X4420Y9712D1*
X4334D1*
Y9310D1*
X4401Y9521D2*
X4468Y9310D1*
X4512Y9521D2*
X4598D1*
X4627Y9540D1*
X4637Y9559D1*
X4646Y9597D1*
Y9636D1*
X4637Y9674D1*
X4627Y9693D1*
X4598Y9712D1*
X4512D1*
Y9310D1*
X4579Y9521D2*
X4646Y9310D1*
X4373Y8366D2*
X4507Y7964D1*
Y8366D2*
X4373Y7964D1*
X4551Y8366D2*
Y7964D1*
X4666D1*
X4863D2*
X4786Y8366D1*
X4710Y7964D1*
X4738Y8098D2*
X4834D1*
X4974Y8366D2*
Y7964D1*
X4907Y8366D2*
X5041D1*
X4109Y6539D2*
X4090Y6578D1*
X4061Y6597D1*
X4023D1*
X3994Y6578D1*
X3975Y6539D1*
Y6501D1*
X3984Y6463D1*
X3994Y6444D1*
X4013Y6425D1*
X4070Y6386D1*
X4090Y6367D1*
X4099Y6348D1*
X4109Y6310D1*
Y6252D1*
X4090Y6214D1*
X4061Y6195D1*
X4023D1*
X3994Y6214D1*
X3975Y6252D1*
X4210Y6597D2*
X4191Y6578D1*
X4172Y6539D1*
X4162Y6501D1*
X4152Y6444D1*
Y6348D1*
X4162Y6291D1*
X4172Y6252D1*
X4191Y6214D1*
X4210Y6195D1*
X4248D1*
X4267Y6214D1*
X4286Y6252D1*
X4296Y6291D1*
X4305Y6348D1*
Y6444D1*
X4296Y6501D1*
X4286Y6539D1*
X4267Y6578D1*
X4248Y6597D1*
X4210D1*
X4349D2*
Y6310D1*
X4359Y6252D1*
X4378Y6214D1*
X4407Y6195D1*
X4426D1*
X4454Y6214D1*
X4473Y6252D1*
X4483Y6310D1*
Y6597D1*
X4594D2*
Y6195D1*
X4527Y6597D2*
X4661D1*
X4868Y5711D2*
X4859Y5749D1*
X4839Y5787D1*
X4820Y5806D1*
X4782D1*
X4763Y5787D1*
X4744Y5749D1*
X4734Y5711D1*
X4725Y5653D1*
Y5557D1*
X4734Y5500D1*
X4744Y5462D1*
X4763Y5424D1*
X4782Y5404D1*
X4820D1*
X4839Y5424D1*
X4859Y5462D1*
X4868Y5500D1*
Y5557D1*
X4820D1*
X5046Y5749D2*
X5027Y5787D1*
X4998Y5806D1*
X4960D1*
X4931Y5787D1*
X4912Y5749D1*
Y5711D1*
X4922Y5672D1*
X4931Y5653D1*
X4950Y5634D1*
X5008Y5596D1*
X5027Y5577D1*
X5036Y5557D1*
X5046Y5519D1*
Y5462D1*
X5027Y5424D1*
X4998Y5404D1*
X4960D1*
X4931Y5424D1*
X4912Y5462D1*
X5233Y5711D2*
X5224Y5749D1*
X5204Y5787D1*
X5185Y5806D1*
X5147D1*
X5128Y5787D1*
X5109Y5749D1*
X5099Y5711D1*
X5090Y5653D1*
Y5557D1*
X5099Y5500D1*
X5109Y5462D1*
X5128Y5424D1*
X5147Y5404D1*
X5185D1*
X5204Y5424D1*
X5224Y5462D1*
X5233Y5500D1*
X5277Y5806D2*
Y5404D1*
X5392D1*
X5435Y5806D2*
Y5404D1*
X5569Y5806D2*
X5435Y5538D1*
X5483Y5634D2*
X5569Y5404D1*
X8376Y4360D2*
X8452Y3958D1*
X8529Y4360D1*
X8716Y4265D2*
X8707Y4303D1*
X8687Y4341D1*
X8668Y4360D1*
X8630D1*
X8611Y4341D1*
X8592Y4303D1*
X8582Y4265D1*
X8573Y4207D1*
Y4111D1*
X8582Y4054D1*
X8592Y4016D1*
X8611Y3978D1*
X8630Y3958D1*
X8668D1*
X8687Y3978D1*
X8707Y4016D1*
X8716Y4054D1*
X8903Y4265D2*
X8894Y4303D1*
X8875Y4341D1*
X8856Y4360D1*
X8817D1*
X8798Y4341D1*
X8779Y4303D1*
X8769Y4265D1*
X8760Y4207D1*
Y4111D1*
X8769Y4054D1*
X8779Y4016D1*
X8798Y3978D1*
X8817Y3958D1*
X8856D1*
X8875Y3978D1*
X8894Y4016D1*
X8903Y4054D1*
X6214Y4252D2*
X6204Y4290D1*
X6185Y4328D1*
X6166Y4347D1*
X6128D1*
X6108Y4328D1*
X6089Y4290D1*
X6080Y4252D1*
X6070Y4194D1*
Y4098D1*
X6080Y4041D1*
X6089Y4003D1*
X6108Y3965D1*
X6128Y3945D1*
X6166D1*
X6185Y3965D1*
X6204Y4003D1*
X6214Y4041D1*
Y4098D1*
X6166D1*
X6391Y4347D2*
Y3945D1*
X6257Y4347D1*
Y3945D1*
X6435Y4347D2*
Y3945D1*
X6502D1*
X6531Y3965D1*
X6550Y4003D1*
X6560Y4041D1*
X6569Y4098D1*
Y4194D1*
X6560Y4252D1*
X6550Y4290D1*
X6531Y4328D1*
X6502Y4347D1*
X6435D1*
X6150Y9609D2*
X6112Y9647D1*
X6055Y9666D1*
X5978D1*
X5921Y9647D1*
X5882Y9609D1*
Y9571D1*
X5902Y9532D1*
X5921Y9513D1*
X5959Y9494D1*
X6074Y9456D1*
X6112Y9437D1*
X6131Y9417D1*
X6150Y9379D1*
Y9322D1*
X6112Y9284D1*
X6055Y9264D1*
X5978D1*
X5921Y9284D1*
X5882Y9322D1*
X6333Y9532D2*
X6295Y9513D1*
X6257Y9475D1*
X6238Y9417D1*
Y9379D1*
X6257Y9322D1*
X6295Y9284D1*
X6333Y9264D1*
X6391D1*
X6429Y9284D1*
X6467Y9322D1*
X6487Y9379D1*
Y9417D1*
X6467Y9475D1*
X6429Y9513D1*
X6391Y9532D1*
X6333D1*
X6804Y9475D2*
X6766Y9513D1*
X6727Y9532D1*
X6670D1*
X6632Y9513D1*
X6594Y9475D1*
X6574Y9417D1*
Y9379D1*
X6594Y9322D1*
X6632Y9284D1*
X6670Y9264D1*
X6727D1*
X6766Y9284D1*
X6804Y9322D1*
X6892Y9666D2*
X6911Y9647D1*
X6930Y9666D1*
X6911Y9686D1*
X6892Y9666D1*
X6911Y9532D2*
Y9264D1*
X7247Y9532D2*
Y9264D1*
Y9475D2*
X7209Y9513D1*
X7171Y9532D1*
X7114D1*
X7075Y9513D1*
X7037Y9475D1*
X7018Y9417D1*
Y9379D1*
X7037Y9322D1*
X7075Y9284D1*
X7114Y9264D1*
X7171D1*
X7209Y9284D1*
X7247Y9322D1*
X7335Y9666D2*
Y9264D1*
X7775Y9666D2*
Y9264D1*
X8004D1*
X8092Y9666D2*
X8111Y9647D1*
X8130Y9666D1*
X8111Y9686D1*
X8092Y9666D1*
X8111Y9532D2*
Y9264D1*
X8447Y9513D2*
Y9207D1*
X8428Y9150D1*
X8409Y9130D1*
X8371Y9111D1*
X8313D1*
X8275Y9130D1*
X8447Y9456D2*
X8409Y9494D1*
X8371Y9513D1*
X8313D1*
X8275Y9494D1*
X8237Y9456D1*
X8218Y9398D1*
Y9360D1*
X8237Y9303D1*
X8275Y9264D1*
X8313Y9245D1*
X8371D1*
X8409Y9264D1*
X8447Y9303D1*
X8535Y9666D2*
Y9264D1*
Y9456D2*
X8592Y9513D1*
X8631Y9532D1*
X8688D1*
X8726Y9513D1*
X8745Y9456D1*
Y9264D1*
X8890Y9666D2*
Y9341D1*
X8909Y9284D1*
X8948Y9264D1*
X8986D1*
X8833Y9532D2*
X8967D1*
X8984Y7091D2*
Y7263D1*
X8965Y7321D1*
X8946Y7340D1*
X8908Y7359D1*
X8869D1*
X8831Y7340D1*
X8812Y7321D1*
X8793Y7263D1*
Y7091D1*
X9195D1*
X8984Y7225D2*
X9195Y7359D1*
X8793Y7562D2*
X8812Y7504D1*
X8870Y7466D1*
X8965Y7447D1*
X9023D1*
X9118Y7466D1*
X9176Y7504D1*
X9195Y7562D1*
Y7600D1*
X9176Y7657D1*
X9118Y7695D1*
X9023Y7715D1*
X8965D1*
X8870Y7695D1*
X8812Y7657D1*
X8793Y7600D1*
Y7562D1*
X8870Y7695D2*
X9118Y7466D1*
X9156Y7821D2*
X9176Y7802D1*
X9195Y7821D1*
X9176Y7841D1*
X9156Y7821D1*
X8793Y8158D2*
Y7967D1*
X8965Y7948D1*
X8946Y7967D1*
X8927Y8024D1*
Y8081D1*
X8946Y8139D1*
X8984Y8177D1*
X9042Y8196D1*
X9080D1*
X9137Y8177D1*
X9176Y8139D1*
X9195Y8081D1*
Y8024D1*
X9176Y7967D1*
X9156Y7948D1*
X9118Y7928D1*
X8330Y5329D2*
D46*
X8143D1*
Y5027D1*
Y5185D2*
X8258D1*
X8410Y5228D2*
X8496Y5027D1*
X8468Y4970D1*
X8439Y4941D1*
X8410Y4927D1*
X8396D1*
X8582Y5228D2*
X8496Y5027D1*
X8648Y5329D2*
Y5027D1*
Y5185D2*
X8677Y5214D1*
X8705Y5228D1*
X8748D1*
X8777Y5214D1*
X8806Y5185D1*
X8820Y5142D1*
Y5114D1*
X8806Y5071D1*
X8777Y5042D1*
X8748Y5027D1*
X8705D1*
X8677Y5042D1*
X8648Y5071D1*
X8886Y5142D2*
X9058D1*
Y5171D1*
X9044Y5200D1*
X9029Y5214D1*
X9000Y5228D1*
X8957D1*
X8929Y5214D1*
X8900Y5185D1*
X8886Y5142D1*
Y5114D1*
X8900Y5071D1*
X8929Y5042D1*
X8957Y5027D1*
X9000D1*
X9029Y5042D1*
X9058Y5071D1*
X9123Y5228D2*
Y5027D1*
Y5142D2*
X9138Y5185D1*
X9167Y5214D1*
X9195Y5228D1*
X9239D1*
X9569Y5329D2*
Y5027D1*
X9741D1*
X9979Y5228D2*
Y5027D1*
Y5185D2*
X9950Y5214D1*
X9921Y5228D1*
X9878D1*
X9850Y5214D1*
X9821Y5185D1*
X9806Y5142D1*
Y5114D1*
X9821Y5071D1*
X9850Y5042D1*
X9878Y5027D1*
X9921D1*
X9950Y5042D1*
X9979Y5071D1*
X10044Y5329D2*
Y5027D1*
Y5185D2*
X10073Y5214D1*
X10102Y5228D1*
X10145D1*
X10173Y5214D1*
X10202Y5185D1*
X10216Y5142D1*
Y5114D1*
X10202Y5071D1*
X10173Y5042D1*
X10145Y5027D1*
X10102D1*
X10073Y5042D1*
X10044Y5071D1*
X10440Y5185D2*
X10425Y5214D1*
X10382Y5228D1*
X10339D1*
X10296Y5214D1*
X10282Y5185D1*
X10296Y5157D1*
X10325Y5142D1*
X10397Y5128D1*
X10425Y5114D1*
X10440Y5085D1*
Y5071D1*
X10425Y5042D1*
X10382Y5027D1*
X10339D1*
X10296Y5042D1*
X10282Y5071D1*
X9486Y7339D2*
D47*
X9467D1*
X9429Y7358D1*
X9410Y7377D1*
X9391Y7415D1*
Y7492D1*
X9410Y7530D1*
X9429Y7549D1*
X9467Y7568D1*
X9505D1*
X9544Y7549D1*
X9601Y7511D1*
X9792Y7319D1*
Y7587D1*
X9391Y7790D2*
X9410Y7732D1*
X9467Y7694D1*
X9563Y7675D1*
X9620D1*
X9716Y7694D1*
X9773Y7732D1*
X9792Y7790D1*
Y7828D1*
X9773Y7885D1*
X9716Y7923D1*
X9620Y7943D1*
X9563D1*
X9467Y7923D1*
X9410Y7885D1*
X9391Y7828D1*
Y7790D1*
X9467Y7923D2*
X9716Y7694D1*
X9467Y8030D2*
X9448Y8069D1*
X9391Y8126D1*
X9792D1*
Y8405D2*
X9391D1*
X9658Y8214D1*
Y8501D1*
M02*
