G04 DipTrace 2.4.0.2*
%INUSBBiPowerOTG.gtl*%
%MOMM*%
%ADD10C,0.25*%
%ADD13C,0.305*%
%ADD14C,0.23*%
%ADD15C,0.203*%
%ADD16C,1.067*%
%ADD17C,0.35*%
%ADD18C,0.44*%
%ADD19C,1.0*%
%ADD20C,0.457*%
%ADD22C,0.66*%
%ADD23C,1.2*%
%ADD24C,1.702*%
%ADD25C,0.7*%
%ADD26C,0.27*%
%ADD27C,0.4*%
%ADD29C,0.114*%
%ADD30C,0.22*%
%ADD31C,0.102*%
%ADD32C,0.127*%
%ADD33C,0.787*%
%ADD34C,0.75*%
%ADD35C,0.508*%
%ADD36C,0.635*%
%ADD37C,0.36*%
%ADD40C,0.152*%
%ADD42R,1.6X1.7*%
%ADD43R,2.0X1.7*%
%ADD44R,1.0X1.1*%
%ADD45R,1.1X1.0*%
%ADD46R,0.7X0.9*%
%ADD47R,0.9X0.7*%
%ADD48R,0.7X0.4*%
%ADD49R,1.7X1.6*%
%ADD50R,1.7X2.0*%
%ADD51R,1.2X1.5*%
%ADD52R,0.9X0.75*%
%ADD54R,0.25X0.6*%
%ADD55R,0.75X0.9*%
%ADD56R,0.65X1.6*%
%ADD58R,0.5X0.4*%
%ADD60R,0.36X0.5*%
%ADD61R,0.25X0.5*%
%ADD63C,0.23*%
%ADD69R,0.6X0.25*%
%ADD70O,0.6X0.25*%
%ADD71R,1.64X0.44*%
%ADD74O,1.0X0.35*%
%ADD75C,0.711*%
%ADD77C,0.35*%
%ADD84R,1.7X2.032*%
%ADD85R,0.4X1.35*%
%ADD86O,0.853X1.053*%
%ADD87R,2.9X1.9*%
%ADD88C,0.711*%
%FSLAX53Y53*%
G04*
G71*
G90*
G75*
G01*
%LNTop*%
%LPD*%
X19540Y16587D2*
D13*
X20303D1*
X20377Y16661D1*
X20855D1*
X21025Y16491D1*
X21034Y17597D2*
Y16501D1*
X21025Y16491D1*
X26518Y13818D2*
X26355D1*
X25511Y14663D1*
X25152D1*
X23496Y14074D2*
D14*
Y14938D1*
X23384D1*
X20304Y16717D2*
D13*
X20377Y16661D1*
X22443Y15375D2*
D15*
Y16374D1*
X22325Y16491D1*
X22334Y17597D2*
Y16501D1*
X22325Y16491D1*
X23096Y14074D2*
X23038D1*
Y14623D1*
X22443Y15218D1*
Y15375D1*
X24296Y13674D2*
D14*
Y13693D1*
D15*
X24812D1*
D13*
Y12129D1*
X24781Y12161D1*
X24296Y13674D2*
D14*
X24984D1*
D13*
X24863D1*
X25152Y13963D1*
X23096Y13674D2*
D15*
X22844D1*
X22443Y14075D1*
X20511Y28320D2*
D16*
Y28105D1*
X20799Y27818D1*
X21405Y27426D1*
X20924Y27570D1*
X24296Y14074D2*
D15*
X24428Y14207D1*
D13*
Y14973D1*
X25267Y15813D1*
X25039D1*
X24548Y15116D2*
X24428Y14973D1*
X19817Y27291D2*
X20069Y27372D1*
X20302Y27524D1*
X20514Y27877D1*
D16*
X20511Y28320D1*
X20576Y27595D2*
X20799Y27818D1*
X20498Y23501D2*
D17*
X19715D1*
Y23529D1*
X21167Y27141D2*
D18*
Y27665D1*
D19*
X20511Y28320D1*
X21693Y29540D2*
X23824D1*
D23*
X23943Y29659D1*
X23658Y29102D1*
D24*
X26518Y29058D1*
X19817Y26291D2*
D10*
Y25791D1*
X18679Y25764D2*
D25*
X19271D1*
X19789D1*
D10*
X19817Y25791D1*
X17341Y25695D2*
D26*
X18220Y25797D1*
D25*
X18679Y25764D1*
X16141Y26095D2*
D26*
Y26583D1*
Y27368D1*
D13*
X16051D1*
X19336Y20209D2*
D17*
X19265D1*
D15*
X18707Y19651D1*
Y19610D1*
X21336Y20209D2*
D17*
Y19709D1*
D13*
X21443D1*
Y19326D1*
X22256Y18514D1*
X22340D1*
D25*
X23022D1*
X23412D1*
X23731Y18833D1*
Y18284D1*
X23743D1*
Y17551D1*
X23496Y13674D2*
D14*
Y13521D1*
X23180Y13206D1*
X22693D1*
D20*
X22688Y13200D1*
X23022Y18501D2*
D25*
Y18514D1*
X23800Y18285D2*
X23731D1*
X14057Y30064D2*
D27*
Y29555D1*
Y29364D1*
X14055Y29555D2*
X14057D1*
X19271Y26186D2*
D25*
Y25764D1*
X16131Y26583D2*
D26*
X16141D1*
X12581Y26990D2*
D13*
X13024D1*
X13147Y27113D1*
X14014Y28290D2*
Y27871D1*
X14085Y27800D1*
X21336Y21209D2*
D15*
X21766D1*
X22472Y21915D1*
X20836Y21209D2*
Y21579D1*
X21172Y21915D1*
X14078Y16239D2*
D13*
Y15559D1*
X15227Y14410D1*
X19677D2*
Y13405D1*
X18968Y12697D1*
X18739D1*
X17452Y11410D1*
X15227Y14410D2*
Y13598D1*
X15976Y12849D1*
X16012D1*
X17452Y11410D1*
X17062Y18491D2*
D29*
Y18935D1*
X18957Y20830D1*
X18944D1*
X19323Y21209D1*
X19336D1*
X17452Y14085D2*
Y14926D1*
X17119Y15260D1*
Y18434D1*
X17062Y18491D1*
Y20991D2*
X17207D1*
Y22449D1*
X17134Y22375D1*
X19336Y20709D2*
X19179D1*
X17564Y19094D1*
Y18493D1*
X17562Y18491D1*
X18102Y14085D2*
Y14621D1*
X17362Y15361D1*
Y18132D1*
X17601Y18371D1*
Y18491D1*
X17562D1*
Y20991D2*
X17449D1*
Y22190D1*
X17634Y22375D1*
Y23375D2*
Y23596D1*
X16941Y24289D1*
Y24495D1*
X16541Y26095D2*
X16605D1*
Y27812D1*
X19269Y30475D1*
X19846D1*
X19985Y30614D1*
Y30718D1*
X19105Y31598D1*
X18898D1*
X16541Y24495D2*
Y24344D1*
X17119Y23766D1*
Y23390D1*
X17134Y23375D1*
X16941Y26095D2*
X16868D1*
Y27727D1*
X19370Y30229D1*
X19942D1*
X21311Y31598D1*
X21438D1*
X19993Y29540D2*
D13*
Y29598D1*
X20900Y30505D1*
X22885D1*
X23978Y31598D1*
X18811Y28320D2*
Y28466D1*
X19329Y28983D1*
X19436D1*
X19993Y29540D1*
X18679Y27064D2*
Y27708D1*
Y28188D1*
X18811Y28320D1*
X20336Y21209D2*
Y20709D1*
Y20209D1*
X18062Y20991D2*
X18111D1*
X19046Y21926D1*
X19997D1*
X20326Y21597D1*
Y21219D1*
X20336Y21209D1*
X21040Y18514D2*
X20278D1*
X19767D1*
X19540Y18287D1*
X23743Y15851D2*
Y16004D1*
X24219Y16479D1*
X25252Y17513D1*
X25039D1*
X25031Y18833D2*
Y17521D1*
X25039Y17513D1*
X23608Y21307D2*
X24142D1*
X25061D1*
Y23250D1*
X25204Y23394D1*
X25031Y18833D2*
X24319Y19546D1*
Y20980D1*
X25083Y21744D1*
Y23394D1*
X25204D1*
X23608Y21307D2*
X25001D1*
X25097Y21403D1*
X23896Y14074D2*
D14*
Y14342D1*
D13*
Y15699D1*
X23743Y15851D1*
X23896Y14074D2*
D14*
Y13674D1*
Y13407D1*
D13*
Y12626D1*
X23431Y12161D1*
X24199Y16500D2*
X24219Y16479D1*
X14504Y18768D2*
Y17969D1*
X14070Y17536D1*
X14001D1*
X12795Y16330D1*
X11306D1*
X11278Y16358D1*
X14504Y18768D2*
Y18957D1*
X14869Y19322D1*
X15138Y19592D1*
Y20058D1*
D30*
X14909Y20288D1*
Y20688D1*
Y21088D1*
Y21350D1*
D13*
Y21711D1*
X15209Y22011D1*
X15741Y24495D2*
D15*
Y24208D1*
D13*
X15679D1*
Y22356D1*
X15209Y21885D1*
Y22011D1*
X20278Y18544D2*
Y18514D1*
X16141Y25295D2*
D15*
Y24895D1*
X15741Y24495D2*
D31*
X16141Y24895D1*
X21167Y25941D2*
D13*
Y25470D1*
X20498Y24801D1*
X21167Y25941D2*
X21050Y24842D1*
X22048Y23826D1*
X23598Y23501D2*
X22373D1*
X22048Y23826D1*
X20182Y21906D2*
X19997Y21926D1*
X13709Y21088D2*
D15*
X13468D1*
X13418Y21138D1*
X13709Y20288D2*
X13559D1*
X13364Y20483D1*
Y21138D1*
X13418D1*
X16051Y28668D2*
D13*
Y29191D1*
X16101Y29241D1*
X18721Y27708D2*
X18679D1*
X22523Y22976D2*
Y23351D1*
X22048Y23826D1*
X14878Y19216D2*
X14869Y19225D1*
Y19322D1*
X24142Y21313D2*
Y21307D1*
X16152Y14085D2*
Y15565D1*
X15478Y16239D1*
Y17528D1*
X15470Y17536D1*
X19836Y21209D2*
D32*
Y21406D1*
X19661Y21582D1*
X19190D1*
X18466Y20859D1*
Y20700D1*
X17746Y19980D1*
X16574D1*
Y19539D1*
X15804Y18768D1*
X16802Y14085D2*
D15*
Y15760D1*
X16130Y16432D1*
Y18442D1*
X15804Y18768D1*
X16579Y22375D2*
X16574Y19980D1*
X16141Y25695D2*
D31*
X15741Y26095D1*
D15*
Y26118D1*
X15450Y26408D1*
Y30690D1*
X16358Y31598D1*
X16578Y23375D2*
Y23741D1*
X16135Y24184D1*
Y24490D1*
X16141Y24495D1*
X23598Y24801D2*
X25096D1*
X25204Y24694D1*
X12714Y28290D2*
Y28445D1*
X11278Y27009D1*
Y26518D1*
X19836Y19709D2*
Y19453D1*
X19723Y19339D1*
X14279Y22719D2*
X14143Y22855D1*
Y27036D1*
X13442Y27736D1*
X13032D1*
X12786Y27982D1*
X12714D1*
Y28290D1*
X17341Y25295D2*
X17469D1*
X17898Y25224D1*
X17779Y25244D1*
X11278Y21438D2*
Y21697D1*
X12666Y23085D1*
Y25149D1*
Y25690D1*
X12581D1*
X12713Y25149D2*
X12666D1*
X20336Y19709D2*
Y19417D1*
X20312Y19392D1*
X16541Y25295D2*
Y25485D1*
Y25695D1*
Y25478D2*
Y25485D1*
X13057Y30064D2*
Y30837D1*
X13818Y31598D1*
X14981Y22724D2*
X15190Y22932D1*
Y25732D1*
Y26098D1*
X15081Y26207D1*
Y29878D1*
X13818Y31140D1*
Y31598D1*
X15158Y25732D2*
X15190D1*
X20836Y19709D2*
Y19466D1*
X20902Y19400D1*
X16941Y25695D2*
D32*
Y25295D1*
D15*
Y24933D1*
Y24895D1*
X16541D1*
X16900Y24933D2*
X16941D1*
X13057Y29364D2*
X11584D1*
X11278Y29058D1*
X14616Y23200D2*
X14589D1*
Y26000D1*
X14733D1*
Y28737D1*
X14546Y28925D1*
X13417D1*
X13057Y29284D1*
Y29364D1*
X14629Y26000D2*
X14589D1*
X21167Y26541D2*
D18*
X22348D1*
D33*
X23943Y26959D1*
X20498Y24151D2*
D17*
X20033D1*
X19018Y24852D1*
X26518Y18898D2*
D16*
X26281Y19507D1*
D25*
X25097Y20103D1*
X12795Y18030D2*
D33*
X13142Y18657D1*
X13602Y19489D1*
X14344Y19929D1*
D30*
X14109Y20288D1*
X14509Y20688D2*
Y20288D1*
X14109D1*
X18113Y17263D2*
D34*
Y17457D1*
D20*
X18539Y17883D1*
X13496Y18575D2*
D33*
X13142Y18657D1*
X18752Y14085D2*
D27*
Y15224D1*
D33*
X18656Y15320D1*
D34*
X18113Y15863D1*
X17341Y24895D2*
D26*
X17733Y24690D1*
X18021Y24684D1*
D35*
X18883Y24046D1*
D36*
X18897Y22909D1*
D20*
X19066Y22664D1*
X20498Y22851D2*
D17*
X20226Y22668D1*
D33*
X19066Y22664D1*
X23598Y24151D2*
D17*
X24188D1*
D20*
X24194Y24146D1*
X17341Y24495D2*
D26*
X17664Y24191D1*
D35*
X18166Y23818D1*
D37*
X18189Y23375D1*
X21336Y20709D2*
D17*
X21745D1*
D13*
X21971Y20483D1*
X21901D1*
X22407Y19977D1*
X23578D1*
X23608Y20007D1*
X22392Y19420D2*
X22407Y19977D1*
X14109Y21088D2*
D30*
X14509D1*
X14109Y20688D2*
Y21088D1*
Y20772D1*
X14278Y21328D1*
D25*
X13857Y22078D1*
X13909Y22011D1*
X11278Y18898D2*
D33*
X11405D1*
X12637Y20129D1*
Y21390D1*
D25*
X13257Y22011D1*
X13909D1*
X13483Y22389D1*
D33*
X13470Y26126D1*
D20*
X13492Y26270D1*
X18189Y22375D2*
D37*
Y21933D1*
D20*
X18163Y21907D1*
X24194Y24146D3*
X18707Y19610D3*
X19723Y19339D3*
X20312Y19392D3*
X20902Y19400D3*
X22392Y19420D3*
X23384Y14938D3*
X22688Y13200D3*
X20304Y16717D3*
X20182Y21906D3*
X24199Y16500D3*
X24142Y21313D3*
D22*
X19018Y24852D3*
X19715Y23529D3*
D20*
X20278Y18544D3*
X23022Y18501D3*
X23800Y18285D3*
X24548Y15116D3*
X19066Y22664D3*
X14055Y29555D3*
X16541Y25478D3*
X16900Y24933D3*
X17779Y25244D3*
X13418Y21138D3*
D22*
X20576Y27595D3*
X13492Y26270D3*
D88*
X19271Y26186D3*
D20*
X16131Y26583D3*
X16101Y29241D3*
X18721Y27708D3*
X14085Y27800D3*
D22*
X18163Y21907D3*
X18539Y17883D3*
X13496Y18575D3*
D20*
X14279Y22719D3*
X14616Y23200D3*
X14981Y22724D3*
X14629Y26000D3*
X15158Y25732D3*
X12713Y25149D3*
X13147Y27113D3*
X14878Y19216D3*
X13761Y16557D2*
D40*
X14442D1*
X13761Y16408D2*
X14442D1*
X13761Y16259D2*
X14442D1*
X13761Y16110D2*
X14442D1*
X13761Y15961D2*
X14442D1*
X13761Y15812D2*
X14442D1*
X13520Y15663D2*
X14878D1*
X12660Y15514D2*
X15633D1*
X12660Y15364D2*
X15633D1*
X12660Y15215D2*
X15633D1*
X12660Y15066D2*
X15633D1*
X12660Y14917D2*
X15633D1*
X12660Y14768D2*
X15633D1*
X19316D2*
X20062D1*
X12660Y14619D2*
X15633D1*
X19316D2*
X20062D1*
X12660Y14470D2*
X15633D1*
X19316D2*
X20062D1*
X12660Y14321D2*
X15633D1*
X19316D2*
X20062D1*
X12660Y14172D2*
X15633D1*
X19316D2*
X20062D1*
X12660Y14023D2*
X15633D1*
X19316D2*
X20062D1*
X12660Y13874D2*
X15633D1*
X19316D2*
X20062D1*
X12660Y13725D2*
X15633D1*
X19316D2*
X20062D1*
X12660Y13576D2*
X15633D1*
X19316D2*
X20062D1*
X12660Y13427D2*
X15633D1*
X19316D2*
X20062D1*
X12660Y13278D2*
X15728D1*
X19202D2*
X22048D1*
X12660Y13128D2*
X22046D1*
X12660Y12979D2*
X22043D1*
X12660Y12830D2*
X22041D1*
X12660Y12681D2*
X14569D1*
X15640D2*
X19264D1*
X20336D2*
X22039D1*
X12660Y12532D2*
X14314D1*
X15895D2*
X19010D1*
X20590D2*
X22036D1*
X12660Y12383D2*
X14159D1*
X16049D2*
X18855D1*
X20745D2*
X22034D1*
X12660Y12234D2*
X14038D1*
X16171D2*
X18733D1*
X20867D2*
X22031D1*
X12660Y12085D2*
X13957D1*
X16252D2*
X18652D1*
X20948D2*
X22029D1*
X12660Y11936D2*
X13892D1*
X16318D2*
X18588D1*
X21014D2*
X22027D1*
X12660Y11787D2*
X13854D1*
X16354D2*
X18550D1*
X21050D2*
X22024D1*
X12660Y11638D2*
X13833D1*
X16376D2*
X18529D1*
X21071D2*
X22024D1*
X12660Y11489D2*
X13826D1*
X16383D2*
X18521D1*
X21078D2*
X22022D1*
X12723Y11340D2*
X13826D1*
X16383D2*
X18521D1*
X21078D2*
X22020D1*
X12858Y11191D2*
X13826D1*
X16383D2*
X18521D1*
X21078D2*
X22017D1*
X12994Y11042D2*
X13826D1*
X16383D2*
X18521D1*
X21078D2*
X22015D1*
X13130Y10892D2*
X13826D1*
X16383D2*
X18521D1*
X21078D2*
X22012D1*
X13266Y10743D2*
X13826D1*
X16383D2*
X18521D1*
X21078D2*
X22010D1*
X13504Y15668D2*
Y15571D1*
X12645D1*
X12644Y11409D1*
X13271Y10721D1*
X13841Y10722D1*
X13844Y11611D1*
X13872Y11797D1*
X13909Y11945D1*
X13953Y12047D1*
X14051Y12232D1*
X14144Y12352D1*
X14262Y12472D1*
X14379Y12569D1*
X14474Y12626D1*
X14662Y12717D1*
X14808Y12761D1*
X14973Y12788D1*
X15125Y12798D1*
X15235Y12788D1*
X15441Y12752D1*
X15585Y12701D1*
X15735Y12626D1*
X15863Y12545D1*
X15947Y12472D1*
X16092Y12321D1*
X16179Y12196D1*
X16256Y12047D1*
X16312Y11906D1*
X16337Y11797D1*
X16366Y11590D1*
X16368Y11459D1*
Y10718D1*
X16820Y10721D1*
X18537Y10722D1*
X18540Y11611D1*
X18568Y11797D1*
X18605Y11945D1*
X18649Y12047D1*
X18747Y12232D1*
X18839Y12352D1*
X18958Y12472D1*
X19075Y12569D1*
X19170Y12626D1*
X19358Y12717D1*
X19504Y12761D1*
X19669Y12788D1*
X19821Y12798D1*
X19931Y12788D1*
X20137Y12752D1*
X20281Y12701D1*
X20430Y12626D1*
X20559Y12545D1*
X20643Y12472D1*
X20788Y12321D1*
X20874Y12196D1*
X20951Y12047D1*
X21008Y11906D1*
X21032Y11797D1*
X21062Y11590D1*
X21064Y11459D1*
Y10718D1*
X21315Y10721D1*
X22024Y10722D1*
X22065Y13357D1*
X20154Y13356D1*
X20090Y13393D1*
X20078Y13432D1*
Y14912D1*
X19301D1*
Y13368D1*
X19264Y13303D1*
X19225Y13291D1*
X19184D1*
X19187Y13175D1*
X18317D1*
Y13182D1*
X17675Y13185D1*
X17422Y13182D1*
X17025D1*
Y13199D1*
X16393Y13200D1*
X15743D1*
Y13293D1*
X15724Y13291D1*
X15659Y13329D1*
X15647Y13368D1*
Y15561D1*
X15625Y15580D1*
X14894Y15579D1*
Y15691D1*
X14535Y15690D1*
X14471Y15728D1*
X14459Y15766D1*
Y16706D1*
X13747D1*
Y15745D1*
X13709Y15681D1*
X13670Y15669D1*
X13506D1*
D42*
X26518Y13818D3*
D43*
X27788D3*
D42*
X11278D3*
D43*
X10008D3*
D42*
X26518Y29058D3*
D43*
X27788D3*
D44*
X25039Y15813D3*
Y17513D3*
D45*
X20511Y28320D3*
X18811D3*
X21693Y29540D3*
X19993D3*
D44*
X23743Y17551D3*
Y15851D3*
D46*
X25097Y20103D3*
Y21403D3*
D47*
X22340Y18514D3*
X21040D3*
X23731Y18833D3*
X25031D3*
X22472Y21915D3*
X21172D3*
D46*
X18679Y25764D3*
Y27064D3*
X16051Y27368D3*
Y28668D3*
X23608Y20007D3*
Y21307D3*
D47*
X13909Y22011D3*
X15209D3*
D44*
X12795Y18030D3*
Y16330D3*
X19540Y16587D3*
Y18287D3*
D47*
X21025Y16491D3*
X22325D3*
D48*
X25152Y13963D3*
Y14663D3*
D47*
X15804Y18768D3*
X14504D3*
D42*
X26518Y26518D3*
D43*
X27788D3*
D49*
X23978Y31598D3*
D50*
Y32868D3*
D42*
X11278Y16358D3*
D43*
X10008D3*
D42*
X11278Y26518D3*
D43*
X10008D3*
D42*
X26518Y16358D3*
D43*
X27788D3*
D51*
X23943Y29659D3*
Y26959D3*
D52*
X18113Y17263D3*
Y15863D3*
D54*
X18062Y20991D3*
X17562D3*
X17062D3*
Y18491D3*
X17562D3*
X18062D3*
D55*
X14078Y16239D3*
X15478D3*
X14070Y17536D3*
X15470D3*
D56*
X23431Y12161D3*
X24781D3*
D42*
X11278Y21438D3*
D43*
X10008D3*
D42*
X26518D3*
D43*
X27788D3*
D46*
X25204Y23394D3*
Y24694D3*
D58*
X13057Y30064D3*
Y29364D3*
X14057D3*
Y30064D3*
D47*
X12714Y28290D3*
X14014D3*
D46*
X12581Y25690D3*
Y26990D3*
D60*
X16579Y22375D3*
D61*
X17134D3*
X17634D3*
D60*
X18189D3*
Y23375D3*
D61*
X17634D3*
X17134D3*
D60*
X16578D3*
D46*
X22443Y15375D3*
Y14075D3*
D47*
X21034Y17597D3*
X22334D3*
D49*
X13818Y31598D3*
D50*
Y32868D3*
D42*
X11278Y29058D3*
D43*
X10008D3*
D63*
X23096Y13674D3*
Y14074D3*
X23496Y13674D3*
Y14074D3*
X23896Y13674D3*
Y14074D3*
X24296Y13674D3*
Y14074D3*
D69*
X19817Y27291D3*
D70*
Y26791D3*
Y26291D3*
Y25791D3*
D71*
X21167Y25941D3*
Y26541D3*
Y27141D3*
D74*
X23598Y22851D3*
Y23501D3*
Y24151D3*
Y24801D3*
X20498D3*
Y24151D3*
Y23501D3*
Y22851D3*
G36*
X21223Y25026D2*
X22873D1*
Y23064D1*
X22528Y22626D1*
X21223D1*
Y25026D1*
G37*
D75*
X21573Y24676D3*
X22523D3*
X21573Y22976D3*
X22048Y23826D3*
X22523Y22976D3*
D77*
X19336Y21209D3*
X19836D3*
X20336D3*
X20836D3*
X21336D3*
X19336Y20709D3*
X19836D3*
X20336D3*
X20836D3*
X21336D3*
X19336Y20209D3*
X19836D3*
X20336D3*
X20836D3*
X21336D3*
X19336Y19709D3*
X19836D3*
X20336D3*
X20836D3*
X21336D3*
D26*
X17341Y26095D3*
Y25695D3*
Y25295D3*
Y24895D3*
Y24495D3*
X16941Y26095D3*
Y25695D3*
Y25295D3*
Y24895D3*
Y24495D3*
X16541Y26095D3*
Y25695D3*
Y25295D3*
Y24895D3*
Y24495D3*
X16141Y26095D3*
Y25695D3*
Y25295D3*
Y24895D3*
Y24495D3*
X15741Y26095D3*
Y25695D3*
Y25295D3*
Y24895D3*
Y24495D3*
D30*
X13709Y21088D3*
Y20688D3*
Y20288D3*
X14109Y21088D3*
Y20688D3*
Y20288D3*
X14509Y21088D3*
Y20688D3*
Y20288D3*
X14909Y21088D3*
Y20688D3*
Y20288D3*
D49*
X21438Y31598D3*
X18898D3*
X16358D3*
D84*
X21438Y32868D3*
X18898D3*
X16358D3*
D85*
X16152Y14085D3*
X16802D3*
X17452D3*
X18102D3*
X18752D3*
D86*
X15227Y14410D3*
X19677D3*
G36*
X22154Y12032D2*
Y10788D1*
X21837Y10460D1*
X20752D1*
Y12360D1*
X21837D1*
X22154Y12032D1*
G37*
G36*
X12750Y10788D2*
Y12032D1*
X13067Y12360D1*
X14152D1*
Y10460D1*
X13067D1*
X12750Y10788D1*
G37*
D87*
X17452Y11410D3*
D42*
X26518Y18898D3*
D43*
X27788D3*
D42*
X11278Y23978D3*
D43*
X10008D3*
D42*
X26518D3*
D43*
X27788D3*
D42*
X11278Y18898D3*
D43*
X10008D3*
M02*
