G04 DipTrace 2.4.0.2*
%INUSBBiPowerOTG.gbl*%
%MOMM*%
%ADD13C,0.305*%
%ADD15C,0.203*%
%ADD16C,1.067*%
%ADD20C,0.457*%
%ADD22C,0.66*%
%ADD28C,0.735*%
%ADD29C,0.114*%
%ADD33C,0.787*%
%ADD42R,1.6X1.7*%
%ADD43R,2.0X1.7*%
%ADD49R,1.7X1.6*%
%ADD50R,1.7X2.0*%
%ADD75C,0.711*%
%ADD84R,1.7X2.032*%
%ADD86O,0.853X1.053*%
%ADD88C,0.711*%
%FSLAX53Y53*%
G04*
G71*
G90*
G75*
G01*
%LNBottom*%
%LPD*%
X20304Y16717D2*
D13*
X21605D1*
X23384Y14938D1*
X23952D1*
X25072Y13818D1*
X25356D1*
X26518D1*
X27788D1*
X19715Y23529D2*
D16*
X19863D1*
X20576Y24242D1*
Y27595D1*
X25356Y29058D2*
D28*
X26256D1*
D16*
X26518D1*
X27788D1*
X12441Y13818D2*
D28*
X11540D1*
D16*
X11278D1*
X10008D2*
X11278D1*
X18898Y30436D2*
D29*
Y31598D1*
Y32868D1*
X21438Y30433D2*
Y31598D1*
Y32868D1*
X25356Y26518D2*
D13*
X26518D1*
X27788D1*
X23978Y30436D2*
Y31598D1*
Y32868D1*
X12441Y16358D2*
X11278D1*
X10008D1*
X16358Y30436D2*
D15*
Y31598D1*
Y32868D1*
X19723Y19339D2*
Y17911D1*
X20285Y17349D1*
X24365D1*
X25356Y16358D1*
X26518D1*
X27788D1*
X12441Y26518D2*
X11278D1*
X10008D1*
X14279Y22719D2*
Y20914D1*
X16625Y18567D1*
X19222D1*
X19666Y19012D1*
Y19339D1*
X19723D1*
X25356Y21438D2*
X26518D1*
X27788D1*
X12441D2*
X11278D1*
X10008D1*
X17779Y25244D2*
Y25132D1*
X18242Y25595D1*
X19298D1*
X19689Y25204D1*
Y24532D1*
X19386Y24229D1*
X19331D1*
X18893Y23791D1*
Y23451D1*
X18388Y22945D1*
Y22590D1*
X18957Y22021D1*
X19360D1*
X19718Y22378D1*
X20664D1*
X21010Y22033D1*
X23190D1*
X23723Y22566D1*
X25390D1*
X26518Y21438D1*
X17779Y25244D2*
Y24988D1*
X17085Y24294D1*
X16657D1*
X16555Y24396D1*
X16677D1*
X15985Y25089D1*
X12774D1*
X12713Y25149D1*
X13818Y30436D2*
Y31598D1*
Y32868D1*
X14981Y22724D2*
X15048D1*
Y21531D1*
X17460Y19119D1*
X19007D1*
X19221Y19333D1*
Y19517D1*
X19528Y19824D1*
X19957D1*
X20389Y19392D1*
X20312D1*
X15158Y25732D2*
X16286D1*
X16541Y25478D1*
X12441Y29058D2*
X11278D1*
X10008D1*
X14616Y23200D2*
X15228D1*
X15448Y22980D1*
Y21675D1*
X17181Y19941D1*
X18374D1*
X18593Y20161D1*
X20509D1*
X20938Y19732D1*
Y19400D1*
X20902D1*
X14629Y26000D2*
X14687D1*
X14941Y26254D1*
X15387D1*
X15577Y26063D1*
X16678D1*
X17026Y25716D1*
Y25059D1*
X16900Y24933D1*
X12441Y23978D2*
D16*
X14401Y24132D1*
X15582D1*
X16107Y23608D1*
X16959Y22872D1*
G03X18746Y21019I1218J-614D01*
G01*
X19924Y20938D1*
X23044Y20919D1*
X24126Y19607D1*
X25175Y18886D1*
D28*
X24718Y19535D1*
X25356Y18898D1*
X26256D1*
D16*
X26518D1*
X27788D1*
X12441Y23978D2*
D28*
X11540D1*
D16*
X11278D1*
X10008D1*
X19018Y24852D2*
D22*
X18721Y24724D1*
D16*
X17161Y23216D1*
X16107Y23608D1*
X18539Y17883D2*
D22*
X17815D1*
D33*
X13981D1*
X13801Y18064D1*
D22*
Y18270D1*
X13496Y18575D1*
X19066Y22664D2*
D15*
Y22766D1*
X20847D1*
X21238Y22375D1*
X23061D1*
X23843Y23156D1*
Y23794D1*
X24194Y24146D1*
X26518Y23978D2*
D33*
X26052D1*
X24981Y25049D1*
X23828D1*
X23141Y25735D1*
X22307D1*
X21900Y26143D1*
Y27909D1*
X21068Y28741D1*
X17535D1*
X13492Y26270D1*
X25356Y23978D2*
D28*
X26117D1*
D33*
X26518D1*
X27788D1*
X12441Y18898D2*
D28*
X11679D1*
D33*
X11278D1*
X10008D1*
D20*
X24194Y24146D3*
X18707Y19610D3*
X19723Y19339D3*
X20312Y19392D3*
X20902Y19400D3*
X22392Y19420D3*
X23384Y14938D3*
X22688Y13200D3*
X20304Y16717D3*
X20182Y21906D3*
X24199Y16500D3*
X24142Y21313D3*
D22*
X19018Y24852D3*
X19715Y23529D3*
D20*
X20278Y18544D3*
X23022Y18501D3*
X23800Y18285D3*
X24548Y15116D3*
X19066Y22664D3*
X14055Y29555D3*
X16541Y25478D3*
X16900Y24933D3*
X17779Y25244D3*
X13418Y21138D3*
D22*
X20576Y27595D3*
X13492Y26270D3*
D88*
X19271Y26186D3*
D20*
X16131Y26583D3*
X16101Y29241D3*
X18721Y27708D3*
X14085Y27800D3*
D22*
X18163Y21907D3*
X18539Y17883D3*
X13496Y18575D3*
D20*
X14279Y22719D3*
X14616Y23200D3*
X14981Y22724D3*
X14629Y26000D3*
X15158Y25732D3*
X12713Y25149D3*
X13147Y27113D3*
X14878Y19216D3*
D42*
X26518Y13818D3*
G36*
X25258Y14668D2*
X25723D1*
Y12968D1*
X25258D1*
X24988Y13493D1*
Y14143D1*
X25258Y14668D1*
G37*
D43*
X27788Y13818D3*
D42*
X11278D3*
G36*
X12538Y12968D2*
X12073D1*
Y14668D1*
X12538D1*
X12808Y14143D1*
Y13493D1*
X12538Y12968D1*
G37*
D43*
X10008Y13818D3*
D42*
X26518Y29058D3*
G36*
X25258Y29908D2*
X25723D1*
Y28208D1*
X25258D1*
X24988Y28733D1*
Y29383D1*
X25258Y29908D1*
G37*
D43*
X27788Y29058D3*
D42*
X26518Y26518D3*
G36*
X25258Y27368D2*
X25723D1*
Y25668D1*
X25258D1*
X24988Y26193D1*
Y26843D1*
X25258Y27368D1*
G37*
D43*
X27788Y26518D3*
D49*
X23978Y31598D3*
G36*
X23128Y30338D2*
Y30803D1*
X24828D1*
Y30338D1*
X24303Y30068D1*
X23653D1*
X23128Y30338D1*
G37*
D50*
X23978Y32868D3*
D42*
X11278Y16358D3*
G36*
X12538Y15508D2*
X12073D1*
Y17208D1*
X12538D1*
X12808Y16683D1*
Y16033D1*
X12538Y15508D1*
G37*
D43*
X10008Y16358D3*
D42*
X11278Y26518D3*
G36*
X12538Y25668D2*
X12073D1*
Y27368D1*
X12538D1*
X12808Y26843D1*
Y26193D1*
X12538Y25668D1*
G37*
D43*
X10008Y26518D3*
D42*
X26518Y16358D3*
G36*
X25258Y17208D2*
X25723D1*
Y15508D1*
X25258D1*
X24988Y16033D1*
Y16683D1*
X25258Y17208D1*
G37*
D43*
X27788Y16358D3*
D42*
X11278Y21438D3*
G36*
X12538Y20588D2*
X12073D1*
Y22288D1*
X12538D1*
X12808Y21763D1*
Y21113D1*
X12538Y20588D1*
G37*
D43*
X10008Y21438D3*
D42*
X26518D3*
G36*
X25258Y22288D2*
X25723D1*
Y20588D1*
X25258D1*
X24988Y21113D1*
Y21763D1*
X25258Y22288D1*
G37*
D43*
X27788Y21438D3*
D49*
X13818Y31598D3*
G36*
X12968Y30338D2*
Y30803D1*
X14668D1*
Y30338D1*
X14143Y30068D1*
X13493D1*
X12968Y30338D1*
G37*
D50*
X13818Y32868D3*
D42*
X11278Y29058D3*
G36*
X12538Y28208D2*
X12073D1*
Y29908D1*
X12538D1*
X12808Y29383D1*
Y28733D1*
X12538Y28208D1*
G37*
D43*
X10008Y29058D3*
D75*
X21573Y24676D3*
X22523D3*
X21573Y22976D3*
X22048Y23826D3*
X22523Y22976D3*
G36*
X19051Y26716D2*
X19022Y26907D1*
X18962Y27054D1*
X18886Y27148D1*
X18810Y27224D1*
X18697Y27288D1*
X18632Y27313D1*
X18537Y27334D1*
X18486Y27344D1*
X18404Y27349D1*
X18339Y27326D1*
X18301Y27288D1*
X18275Y27263D1*
X18211Y27250D1*
X18186Y27255D1*
X18135Y27270D1*
X18108Y27301D1*
X18009Y27219D1*
X18059Y27143D1*
Y27125D1*
X17970Y27089D1*
X17958Y27034D1*
X17948Y26932D1*
X18200Y27039D1*
X18232D1*
X18275Y27031D1*
X18285Y27009D1*
X18265Y26958D1*
X18150Y26894D1*
X17978Y26823D1*
X18004Y26773D1*
X18067Y26718D1*
X18258Y26793D1*
X18251Y26755D1*
Y26716D1*
X19051D1*
G37*
D49*
X21438Y31598D3*
X18898D3*
X16358D3*
G36*
X18048Y30338D2*
Y30803D1*
X19748D1*
Y30338D1*
X19223Y30068D1*
X18573D1*
X18048Y30338D1*
G37*
G36*
X20588D2*
Y30798D1*
X22288D1*
Y30338D1*
X21763Y30068D1*
X21113D1*
X20588Y30338D1*
G37*
D84*
X21438Y32868D3*
G36*
X15508Y30338D2*
Y30803D1*
X17208D1*
Y30338D1*
X16683Y30068D1*
X16033D1*
X15508Y30338D1*
G37*
D84*
X18898Y32868D3*
X16358D3*
D86*
X15227Y14410D3*
X19677D3*
G36*
X22154Y12032D2*
Y10788D1*
X21837Y10460D1*
X20752D1*
Y12360D1*
X21837D1*
X22154Y12032D1*
G37*
G36*
X12750Y10788D2*
Y12032D1*
X13067Y12360D1*
X14152D1*
Y10460D1*
X13067D1*
X12750Y10788D1*
G37*
D42*
X26518Y18898D3*
G36*
X25258Y19748D2*
X25723D1*
Y18048D1*
X25258D1*
X24988Y18573D1*
Y19223D1*
X25258Y19748D1*
G37*
D43*
X27788Y18898D3*
D42*
X11278Y23978D3*
G36*
X12538Y23128D2*
X12073D1*
Y24828D1*
X12538D1*
X12808Y24303D1*
Y23653D1*
X12538Y23128D1*
G37*
D43*
X10008Y23978D3*
D42*
X26518D3*
G36*
X25258Y24828D2*
X25723D1*
Y23128D1*
X25258D1*
X24988Y23653D1*
Y24303D1*
X25258Y24828D1*
G37*
D43*
X27788Y23978D3*
D42*
X11278Y18898D3*
G36*
X12538Y18048D2*
X12073D1*
Y19748D1*
X12538D1*
X12808Y19223D1*
Y18573D1*
X12538Y18048D1*
G37*
D43*
X10008Y18898D3*
M02*
