G04 DipTrace 2.4.0.2*
%INUSBBiPowerOTG.gtp*%
%MOMM*%
%ADD26C,0.27*%
%ADD30C,0.22*%
%ADD44R,1.0X1.1*%
%ADD45R,1.1X1.0*%
%ADD46R,0.7X0.9*%
%ADD47R,0.9X0.7*%
%ADD48R,0.7X0.4*%
%ADD51R,1.2X1.5*%
%ADD52R,0.9X0.75*%
%ADD54R,0.25X0.6*%
%ADD55R,0.75X0.9*%
%ADD56R,0.65X1.6*%
%ADD58R,0.5X0.4*%
%ADD60R,0.36X0.5*%
%ADD61R,0.25X0.5*%
%ADD63C,0.23*%
%ADD67C,0.11*%
%ADD69R,0.6X0.25*%
%ADD70O,0.6X0.25*%
%ADD71R,1.64X0.44*%
%ADD74O,1.0X0.35*%
%ADD77C,0.35*%
%ADD85R,0.4X1.35*%
%ADD87R,2.9X1.9*%
%FSLAX53Y53*%
G04*
G71*
G90*
G75*
G01*
%LNTopPaste*%
%LPD*%
D44*
X25039Y15813D3*
Y17513D3*
D45*
X20511Y28320D3*
X18811D3*
X21693Y29540D3*
X19993D3*
D44*
X23743Y17551D3*
Y15851D3*
D46*
X25097Y20103D3*
Y21403D3*
D47*
X22340Y18514D3*
X21040D3*
X23731Y18833D3*
X25031D3*
X22472Y21915D3*
X21172D3*
D46*
X18679Y25764D3*
Y27064D3*
X16051Y27368D3*
Y28668D3*
X23608Y20007D3*
Y21307D3*
D47*
X13909Y22011D3*
X15209D3*
D44*
X12795Y18030D3*
Y16330D3*
X19540Y16587D3*
Y18287D3*
D47*
X21025Y16491D3*
X22325D3*
D48*
X25152Y13963D3*
Y14663D3*
D47*
X15804Y18768D3*
X14504D3*
D51*
X23943Y29659D3*
Y26959D3*
D52*
X18113Y17263D3*
Y15863D3*
D54*
X18062Y20991D3*
X17562D3*
X17062D3*
Y18491D3*
X17562D3*
X18062D3*
D55*
X14078Y16239D3*
X15478D3*
X14070Y17536D3*
X15470D3*
D56*
X23431Y12161D3*
X24781D3*
D46*
X25204Y23394D3*
Y24694D3*
D58*
X13057Y30064D3*
Y29364D3*
X14057D3*
Y30064D3*
D47*
X12714Y28290D3*
X14014D3*
D46*
X12581Y25690D3*
Y26990D3*
D60*
X16579Y22375D3*
D61*
X17134D3*
X17634D3*
D60*
X18189D3*
Y23375D3*
D61*
X17634D3*
X17134D3*
D60*
X16578D3*
D46*
X22443Y15375D3*
Y14075D3*
D47*
X21034Y17597D3*
X22334D3*
D63*
X23096Y13674D3*
Y14074D3*
X23496Y13674D3*
Y14074D3*
X23896Y13674D3*
Y14074D3*
X24296Y13674D3*
Y14074D3*
X19572Y26791D2*
D67*
Y26795D1*
Y26798D1*
X19573Y26801D1*
X19574Y26805D1*
X19575Y26808D1*
X19576Y26811D1*
X19578Y26815D1*
X19579Y26818D1*
X19581Y26820D1*
X19583Y26823D1*
X19586Y26826D1*
X19588Y26828D1*
X19591Y26830D1*
X19594Y26832D1*
X19597Y26834D1*
X19600Y26836D1*
X19603Y26837D1*
X19606Y26839D1*
X19610Y26840D1*
X19613D1*
X19616Y26841D1*
X19620D1*
X19623D1*
X19627D1*
X19630Y26840D1*
X19634D1*
X19637Y26839D1*
X19640Y26837D1*
X19644Y26836D1*
X19647Y26834D1*
X19650Y26832D1*
X19652Y26830D1*
X19655Y26828D1*
X19658Y26826D1*
X19660Y26823D1*
X19662Y26820D1*
X19664Y26818D1*
X19666Y26815D1*
X19667Y26811D1*
X19669Y26808D1*
X19670Y26805D1*
X19671Y26801D1*
Y26798D1*
X19672Y26795D1*
Y26791D1*
Y26788D1*
X19671Y26784D1*
Y26781D1*
X19670Y26777D1*
X19669Y26774D1*
X19667Y26771D1*
X19666Y26768D1*
X19664Y26765D1*
X19662Y26762D1*
X19660Y26759D1*
X19658Y26756D1*
X19655Y26754D1*
X19652Y26752D1*
X19650Y26750D1*
X19647Y26748D1*
X19644Y26746D1*
X19640Y26745D1*
X19637Y26744D1*
X19634Y26743D1*
X19630Y26742D1*
X19627Y26741D1*
X19623D1*
X19620D1*
X19616D1*
X19613Y26742D1*
X19610Y26743D1*
X19606Y26744D1*
X19603Y26745D1*
X19600Y26746D1*
X19597Y26748D1*
X19594Y26750D1*
X19591Y26752D1*
X19588Y26754D1*
X19586Y26756D1*
X19583Y26759D1*
X19581Y26762D1*
X19579Y26765D1*
X19578Y26768D1*
X19576Y26771D1*
X19575Y26774D1*
X19574Y26777D1*
X19573Y26781D1*
X19572Y26784D1*
Y26788D1*
Y26791D1*
X19962D2*
G02X19962Y26791I50J0D01*
G01*
X19572Y26291D2*
Y26295D1*
Y26298D1*
X19573Y26301D1*
X19574Y26305D1*
X19575Y26308D1*
X19576Y26311D1*
X19578Y26315D1*
X19579Y26318D1*
X19581Y26320D1*
X19583Y26323D1*
X19586Y26326D1*
X19588Y26328D1*
X19591Y26330D1*
X19594Y26332D1*
X19597Y26334D1*
X19600Y26336D1*
X19603Y26337D1*
X19606Y26339D1*
X19610Y26340D1*
X19613D1*
X19616Y26341D1*
X19620D1*
X19623D1*
X19627D1*
X19630Y26340D1*
X19634D1*
X19637Y26339D1*
X19640Y26337D1*
X19644Y26336D1*
X19647Y26334D1*
X19650Y26332D1*
X19652Y26330D1*
X19655Y26328D1*
X19658Y26326D1*
X19660Y26323D1*
X19662Y26320D1*
X19664Y26318D1*
X19666Y26315D1*
X19667Y26311D1*
X19669Y26308D1*
X19670Y26305D1*
X19671Y26301D1*
Y26298D1*
X19672Y26295D1*
Y26291D1*
Y26288D1*
X19671Y26284D1*
Y26281D1*
X19670Y26277D1*
X19669Y26274D1*
X19667Y26271D1*
X19666Y26268D1*
X19664Y26265D1*
X19662Y26262D1*
X19660Y26259D1*
X19658Y26256D1*
X19655Y26254D1*
X19652Y26252D1*
X19650Y26250D1*
X19647Y26248D1*
X19644Y26246D1*
X19640Y26245D1*
X19637Y26244D1*
X19634Y26243D1*
X19630Y26242D1*
X19627Y26241D1*
X19623D1*
X19620D1*
X19616D1*
X19613Y26242D1*
X19610Y26243D1*
X19606Y26244D1*
X19603Y26245D1*
X19600Y26246D1*
X19597Y26248D1*
X19594Y26250D1*
X19591Y26252D1*
X19588Y26254D1*
X19586Y26256D1*
X19583Y26259D1*
X19581Y26262D1*
X19579Y26265D1*
X19578Y26268D1*
X19576Y26271D1*
X19575Y26274D1*
X19574Y26277D1*
X19573Y26281D1*
X19572Y26284D1*
Y26288D1*
Y26291D1*
X19961D2*
G02X19961Y26291I50J0D01*
G01*
X19572Y25791D2*
G02X19572Y25791I50J0D01*
G01*
X19962D2*
Y25795D1*
Y25798D1*
X19963Y25802D1*
X19964Y25805D1*
X19965Y25808D1*
X19966Y25812D1*
X19968Y25815D1*
X19969Y25818D1*
X19971Y25821D1*
X19973Y25823D1*
X19976Y25826D1*
X19978Y25828D1*
X19981Y25831D1*
X19984Y25833D1*
X19987Y25835D1*
X19990Y25836D1*
X19993Y25838D1*
X19996Y25839D1*
X20000Y25840D1*
X20003D1*
X20006Y25841D1*
X20010D1*
X20013D1*
X20017D1*
X20020Y25840D1*
X20024D1*
X20027Y25839D1*
X20030Y25838D1*
X20033Y25836D1*
X20037Y25835D1*
X20039Y25833D1*
X20042Y25831D1*
X20045Y25828D1*
X20047Y25826D1*
X20050Y25823D1*
X20052Y25821D1*
X20054Y25818D1*
X20056Y25815D1*
X20057Y25812D1*
X20058Y25808D1*
X20060Y25805D1*
Y25802D1*
X20061Y25798D1*
Y25795D1*
Y25791D1*
Y25788D1*
Y25784D1*
X20060Y25781D1*
Y25777D1*
X20058Y25774D1*
X20057Y25771D1*
X20056Y25768D1*
X20054Y25765D1*
X20052Y25762D1*
X20050Y25759D1*
X20047Y25756D1*
X20045Y25754D1*
X20042Y25752D1*
X20039Y25750D1*
X20037Y25748D1*
X20033Y25746D1*
X20030Y25745D1*
X20027Y25744D1*
X20024Y25743D1*
X20020Y25742D1*
X20017Y25741D1*
X20013D1*
X20010D1*
X20006D1*
X20003Y25742D1*
X20000Y25743D1*
X19996Y25744D1*
X19993Y25745D1*
X19990Y25746D1*
X19987Y25748D1*
X19984Y25750D1*
X19981Y25752D1*
X19978Y25754D1*
X19976Y25756D1*
X19973Y25759D1*
X19971Y25762D1*
X19969Y25765D1*
X19968Y25768D1*
X19966Y25771D1*
X19965Y25774D1*
X19964Y25777D1*
X19963Y25781D1*
X19962Y25784D1*
Y25788D1*
Y25791D1*
D69*
X19817Y27291D3*
D70*
Y26791D3*
Y26291D3*
Y25791D3*
D71*
X21167Y25941D3*
Y26541D3*
Y27141D3*
D74*
X23598Y22851D3*
Y23501D3*
Y24151D3*
Y24801D3*
X20498D3*
Y24151D3*
Y23501D3*
Y22851D3*
G36*
X21223Y25026D2*
X22873D1*
Y23064D1*
X22528Y22626D1*
X21223D1*
Y25026D1*
G37*
D77*
X19336Y21209D3*
X19836D3*
X20336D3*
X20836D3*
X21336D3*
X19336Y20709D3*
X19836D3*
X20336D3*
X20836D3*
X21336D3*
X19336Y20209D3*
X19836D3*
X20336D3*
X20836D3*
X21336D3*
X19336Y19709D3*
X19836D3*
X20336D3*
X20836D3*
X21336D3*
D26*
X17341Y26095D3*
Y25695D3*
Y25295D3*
Y24895D3*
Y24495D3*
X16941Y26095D3*
Y25695D3*
Y25295D3*
Y24895D3*
Y24495D3*
X16541Y26095D3*
Y25695D3*
Y25295D3*
Y24895D3*
Y24495D3*
X16141Y26095D3*
Y25695D3*
Y25295D3*
Y24895D3*
Y24495D3*
X15741Y26095D3*
Y25695D3*
Y25295D3*
Y24895D3*
Y24495D3*
D30*
X13709Y21088D3*
Y20688D3*
Y20288D3*
X14109Y21088D3*
Y20688D3*
Y20288D3*
X14509Y21088D3*
Y20688D3*
Y20288D3*
X14909Y21088D3*
Y20688D3*
Y20288D3*
D85*
X16152Y14085D3*
X16802D3*
X17452D3*
X18102D3*
X18752D3*
D87*
X17452Y11410D3*
M02*
