G04 DipTrace 2.4.0.2*
%INUSBBiPowerOTG.gto*%
%MOMM*%
%ADD10C,0.25*%
%ADD15C,0.203*%
%ADD41C,0.152*%
%ADD53O,0.394X0.339*%
%ADD57O,0.312X0.377*%
%ADD59O,0.303X0.3*%
%ADD62O,0.19X0.186*%
%ADD66C,0.18*%
%ADD72O,0.497X0.499*%
%ADD77O,0.253X0.267*%
%ADD80O,0.287X0.268*%
%ADD82O,0.257X0.256*%
%ADD126C,0.118*%
%FSLAX53Y53*%
G04*
G71*
G90*
G75*
G01*
%LNTopSilk*%
%LPD*%
X24644Y13605D2*
D41*
X25644D1*
Y15005D1*
X24644D1*
Y13605D1*
G36*
X24569Y13305D2*
X25719D1*
Y13655D1*
X24569D1*
Y13305D1*
G37*
X16545Y19010D2*
D10*
Y18510D1*
X25535Y30501D2*
D41*
X22335D1*
Y26101D1*
X25535D1*
Y30501D1*
X16554Y20146D2*
D10*
Y21695D1*
X18554Y20146D2*
Y21695D1*
D53*
X16964Y19592D3*
X22898Y13153D2*
D10*
X25298D1*
Y11153D1*
X22898D1*
Y13153D1*
X13049Y30406D2*
X14049D1*
X13049Y29006D2*
X14049D1*
D57*
X12578Y30327D3*
X16145Y22367D2*
D10*
Y23367D1*
X18445Y22367D2*
Y23367D1*
D59*
X16224Y21834D3*
X22888Y13466D2*
D41*
X24488D1*
Y14266D1*
X22888D1*
Y13466D1*
D62*
X22686D3*
X19609Y25383D2*
D66*
X19809D1*
X21609D2*
X21809D1*
X21609Y27683D2*
X21809D1*
X19609D2*
X20109D1*
X20540Y22418D2*
D41*
X23540D1*
X20540Y25218D2*
X23540D1*
D72*
X24591Y22617D3*
X19028Y21501D2*
D41*
X21628D1*
Y19401D1*
X19028D1*
Y21501D1*
D77*
X18975Y21867D3*
X17583Y26337D2*
D15*
X15483D1*
Y24237D1*
X17583D1*
Y26337D1*
D80*
X17802Y26550D3*
X13424Y20010D2*
D15*
X15181D1*
Y21366D1*
X13424D1*
Y20010D1*
D82*
X13456Y21675D3*
X24570Y16909D2*
D126*
X24548Y16981D1*
X24504Y17054D1*
X24461Y17091D1*
X24373D1*
X24329Y17054D1*
X24286Y16981D1*
X24264Y16909D1*
X24242Y16799D1*
Y16616D1*
X24264Y16508D1*
X24286Y16435D1*
X24329Y16362D1*
X24373Y16325D1*
X24461D1*
X24504Y16362D1*
X24548Y16435D1*
X24570Y16508D1*
X24711Y16944D2*
X24755Y16981D1*
X24821Y17090D1*
Y16325D1*
X17729Y28524D2*
X17707Y28596D1*
X17663Y28670D1*
X17620Y28706D1*
X17532D1*
X17488Y28670D1*
X17445Y28596D1*
X17422Y28524D1*
X17401Y28415D1*
Y28232D1*
X17422Y28123D1*
X17445Y28050D1*
X17488Y27977D1*
X17532Y27940D1*
X17620D1*
X17663Y27977D1*
X17707Y28050D1*
X17729Y28123D1*
X17892Y28523D2*
Y28559D1*
X17914Y28633D1*
X17936Y28669D1*
X17980Y28705D1*
X18067D1*
X18110Y28669D1*
X18132Y28633D1*
X18154Y28559D1*
Y28487D1*
X18132Y28414D1*
X18089Y28305D1*
X17870Y27940D1*
X18176D1*
X18870Y29788D2*
X18848Y29860D1*
X18804Y29933D1*
X18760Y29970D1*
X18673D1*
X18629Y29933D1*
X18586Y29860D1*
X18563Y29788D1*
X18542Y29678D1*
Y29495D1*
X18563Y29387D1*
X18586Y29313D1*
X18629Y29241D1*
X18673Y29204D1*
X18760D1*
X18804Y29241D1*
X18848Y29313D1*
X18870Y29387D1*
X19055Y29969D2*
X19295D1*
X19164Y29677D1*
X19230D1*
X19273Y29641D1*
X19295Y29605D1*
X19317Y29495D1*
Y29423D1*
X19295Y29313D1*
X19251Y29240D1*
X19186Y29204D1*
X19120D1*
X19055Y29240D1*
X19033Y29277D1*
X19011Y29350D1*
X23178Y16774D2*
X23156Y16847D1*
X23112Y16920D1*
X23069Y16956D1*
X22982D1*
X22938Y16920D1*
X22894Y16847D1*
X22872Y16774D1*
X22850Y16665D1*
Y16482D1*
X22872Y16373D1*
X22894Y16300D1*
X22938Y16227D1*
X22982Y16190D1*
X23069D1*
X23112Y16227D1*
X23156Y16300D1*
X23178Y16373D1*
X23538Y16190D2*
Y16955D1*
X23319Y16446D1*
X23647D1*
X25116Y22522D2*
X25094Y22594D1*
X25051Y22668D1*
X25007Y22704D1*
X24920D1*
X24876Y22668D1*
X24832Y22594D1*
X24810Y22522D1*
X24788Y22412D1*
Y22230D1*
X24810Y22121D1*
X24832Y22048D1*
X24876Y21975D1*
X24920Y21938D1*
X25007D1*
X25051Y21975D1*
X25094Y22048D1*
X25116Y22121D1*
X25520Y22594D2*
X25498Y22667D1*
X25432Y22703D1*
X25389D1*
X25323Y22667D1*
X25279Y22557D1*
X25257Y22375D1*
Y22193D1*
X25279Y22048D1*
X25323Y21974D1*
X25389Y21938D1*
X25411D1*
X25476Y21974D1*
X25520Y22048D1*
X25541Y22157D1*
Y22193D1*
X25520Y22303D1*
X25476Y22375D1*
X25411Y22412D1*
X25389D1*
X25323Y22375D1*
X25279Y22303D1*
X25257Y22193D1*
X20137Y18933D2*
X20115Y19006D1*
X20071Y19079D1*
X20028Y19115D1*
X19940D1*
X19896Y19079D1*
X19853Y19006D1*
X19831Y18933D1*
X19809Y18824D1*
Y18641D1*
X19831Y18532D1*
X19853Y18459D1*
X19896Y18387D1*
X19940Y18350D1*
X20028D1*
X20071Y18387D1*
X20115Y18459D1*
X20137Y18532D1*
X20365Y18350D2*
X20584Y19115D1*
X20278D1*
X24296Y19804D2*
X24274Y19877D1*
X24230Y19950D1*
X24187Y19986D1*
X24099D1*
X24056Y19950D1*
X24012Y19877D1*
X23990Y19804D1*
X23968Y19695D1*
Y19512D1*
X23990Y19403D1*
X24012Y19330D1*
X24056Y19258D1*
X24099Y19221D1*
X24187D1*
X24230Y19258D1*
X24274Y19330D1*
X24296Y19403D1*
X24546Y19985D2*
X24481Y19949D1*
X24459Y19877D1*
Y19803D1*
X24481Y19731D1*
X24525Y19694D1*
X24612Y19658D1*
X24678Y19622D1*
X24721Y19548D1*
X24743Y19476D1*
Y19366D1*
X24721Y19294D1*
X24700Y19257D1*
X24634Y19221D1*
X24546D1*
X24481Y19257D1*
X24459Y19294D1*
X24437Y19366D1*
Y19476D1*
X24459Y19548D1*
X24503Y19622D1*
X24568Y19658D1*
X24656Y19694D1*
X24700Y19731D1*
X24721Y19803D1*
Y19877D1*
X24700Y19949D1*
X24634Y19985D1*
X24546D1*
X22223Y21245D2*
X22201Y21317D1*
X22157Y21390D1*
X22114Y21426D1*
X22026D1*
X21982Y21390D1*
X21939Y21317D1*
X21917Y21245D1*
X21895Y21135D1*
Y20952D1*
X21917Y20844D1*
X21939Y20770D1*
X21982Y20698D1*
X22026Y20661D1*
X22114D1*
X22157Y20698D1*
X22201Y20770D1*
X22223Y20844D1*
X22649Y21171D2*
X22626Y21062D1*
X22583Y20988D1*
X22517Y20952D1*
X22496D1*
X22430Y20988D1*
X22386Y21062D1*
X22364Y21171D1*
Y21207D1*
X22386Y21317D1*
X22430Y21389D1*
X22496Y21426D1*
X22517D1*
X22583Y21389D1*
X22626Y21317D1*
X22649Y21171D1*
Y20988D1*
X22626Y20807D1*
X22583Y20697D1*
X22517Y20661D1*
X22474D1*
X22408Y20697D1*
X22386Y20770D1*
X17516Y27268D2*
X17494Y27340D1*
X17450Y27414D1*
X17407Y27450D1*
X17319D1*
X17275Y27414D1*
X17232Y27340D1*
X17210Y27268D1*
X17188Y27159D1*
Y26976D1*
X17210Y26867D1*
X17232Y26794D1*
X17275Y26721D1*
X17319Y26684D1*
X17407D1*
X17450Y26721D1*
X17494Y26794D1*
X17516Y26867D1*
X17657Y27303D2*
X17701Y27340D1*
X17767Y27449D1*
Y26684D1*
X18039Y27449D2*
X17974Y27413D1*
X17930Y27303D1*
X17908Y27121D1*
Y27012D1*
X17930Y26830D1*
X17974Y26721D1*
X18039Y26684D1*
X18083D1*
X18149Y26721D1*
X18192Y26830D1*
X18214Y27012D1*
Y27121D1*
X18192Y27303D1*
X18149Y27413D1*
X18083Y27449D1*
X18039D1*
X18192Y27303D2*
X17930Y26830D1*
X16006Y30044D2*
X15984Y30116D1*
X15940Y30189D1*
X15897Y30225D1*
X15809D1*
X15766Y30189D1*
X15722Y30116D1*
X15700Y30044D1*
X15678Y29934D1*
Y29751D1*
X15700Y29643D1*
X15722Y29569D1*
X15766Y29497D1*
X15809Y29460D1*
X15897D1*
X15940Y29497D1*
X15984Y29569D1*
X16006Y29643D1*
X16147Y30079D2*
X16191Y30116D1*
X16257Y30225D1*
Y29460D1*
X16398Y30079D2*
X16442Y30116D1*
X16508Y30225D1*
Y29460D1*
X22477Y20309D2*
X22455Y20382D1*
X22411Y20455D1*
X22368Y20491D1*
X22280D1*
X22236Y20455D1*
X22193Y20382D1*
X22170Y20309D1*
X22149Y20200D1*
Y20017D1*
X22170Y19908D1*
X22193Y19835D1*
X22236Y19762D1*
X22280Y19725D1*
X22368D1*
X22411Y19762D1*
X22455Y19835D1*
X22477Y19908D1*
X22618Y20344D2*
X22662Y20382D1*
X22728Y20490D1*
Y19725D1*
X22891Y20308D2*
Y20344D1*
X22913Y20418D1*
X22934Y20454D1*
X22978Y20490D1*
X23066D1*
X23109Y20454D1*
X23131Y20418D1*
X23153Y20344D1*
Y20272D1*
X23131Y20199D1*
X23088Y20090D1*
X22869Y19725D1*
X23175D1*
X13256Y22959D2*
X13235Y23032D1*
X13191Y23105D1*
X13147Y23141D1*
X13060D1*
X13016Y23105D1*
X12972Y23032D1*
X12950Y22959D1*
X12928Y22850D1*
Y22667D1*
X12950Y22558D1*
X12972Y22485D1*
X13016Y22412D1*
X13060Y22375D1*
X13147D1*
X13191Y22412D1*
X13235Y22485D1*
X13256Y22558D1*
X13398Y22995D2*
X13442Y23032D1*
X13507Y23140D1*
Y22375D1*
X13692Y23140D2*
X13932D1*
X13802Y22849D1*
X13867D1*
X13911Y22813D1*
X13932Y22776D1*
X13955Y22667D1*
Y22594D1*
X13932Y22485D1*
X13889Y22412D1*
X13823Y22375D1*
X13758D1*
X13692Y22412D1*
X13671Y22449D1*
X13648Y22521D1*
X12647Y19275D2*
X12625Y19347D1*
X12581Y19421D1*
X12537Y19457D1*
X12450D1*
X12406Y19421D1*
X12363Y19347D1*
X12340Y19275D1*
X12319Y19165D1*
Y18983D1*
X12340Y18874D1*
X12363Y18801D1*
X12406Y18728D1*
X12450Y18691D1*
X12537D1*
X12581Y18728D1*
X12625Y18801D1*
X12647Y18874D1*
X12788Y19310D2*
X12832Y19347D1*
X12898Y19456D1*
Y18691D1*
X13258D2*
Y19456D1*
X13039Y18946D1*
X13367D1*
X19356Y15734D2*
X19334Y15806D1*
X19290Y15879D1*
X19247Y15915D1*
X19159D1*
X19115Y15879D1*
X19072Y15806D1*
X19049Y15734D1*
X19028Y15624D1*
Y15441D1*
X19049Y15333D1*
X19072Y15259D1*
X19115Y15187D1*
X19159Y15150D1*
X19247D1*
X19290Y15187D1*
X19334Y15259D1*
X19356Y15333D1*
X19497Y15769D2*
X19541Y15806D1*
X19607Y15915D1*
Y15150D1*
X20010Y15915D2*
X19792D1*
X19770Y15587D1*
X19792Y15623D1*
X19857Y15660D1*
X19923D1*
X19988Y15623D1*
X20032Y15551D1*
X20054Y15441D1*
Y15369D1*
X20032Y15259D1*
X19988Y15186D1*
X19923Y15150D1*
X19857D1*
X19792Y15186D1*
X19770Y15223D1*
X19748Y15296D1*
X20918Y15794D2*
X20896Y15866D1*
X20853Y15940D1*
X20809Y15976D1*
X20722D1*
X20678Y15940D1*
X20634Y15866D1*
X20612Y15794D1*
X20590Y15685D1*
Y15502D1*
X20612Y15393D1*
X20634Y15320D1*
X20678Y15247D1*
X20722Y15210D1*
X20809D1*
X20853Y15247D1*
X20896Y15320D1*
X20918Y15393D1*
X21059Y15829D2*
X21103Y15866D1*
X21169Y15975D1*
Y15210D1*
X21573Y15866D2*
X21551Y15939D1*
X21485Y15975D1*
X21442D1*
X21376Y15939D1*
X21332Y15829D1*
X21310Y15647D1*
Y15466D1*
X21332Y15320D1*
X21376Y15247D1*
X21442Y15210D1*
X21463D1*
X21529Y15247D1*
X21573Y15320D1*
X21594Y15429D1*
Y15466D1*
X21573Y15575D1*
X21529Y15647D1*
X21463Y15684D1*
X21442D1*
X21376Y15647D1*
X21332Y15575D1*
X21310Y15466D1*
X23831Y15220D2*
Y14454D1*
X23984D1*
X24049Y14491D1*
X24093Y14564D1*
X24115Y14637D1*
X24137Y14746D1*
Y14929D1*
X24115Y15038D1*
X24093Y15110D1*
X24049Y15184D1*
X23984Y15220D1*
X23831D1*
X24278Y15073D2*
X24322Y15110D1*
X24388Y15219D1*
Y14454D1*
X15549Y20100D2*
Y19334D1*
X15702D1*
X15768Y19371D1*
X15812Y19444D1*
X15833Y19517D1*
X15855Y19626D1*
Y19809D1*
X15833Y19918D1*
X15812Y19990D1*
X15768Y20064D1*
X15702Y20100D1*
X15549D1*
X16018Y19917D2*
Y19953D1*
X16040Y20027D1*
X16062Y20063D1*
X16106Y20099D1*
X16193D1*
X16237Y20063D1*
X16258Y20027D1*
X16281Y19953D1*
Y19881D1*
X16258Y19808D1*
X16215Y19699D1*
X15996Y19334D1*
X16302D1*
X24014Y25935D2*
Y25170D1*
X24277D1*
X24418Y25789D2*
X24462Y25826D1*
X24528Y25934D1*
Y25170D1*
X16898Y16984D2*
Y16219D1*
X17160D1*
X17323Y16802D2*
Y16838D1*
X17345Y16911D1*
X17367Y16947D1*
X17411Y16984D1*
X17498D1*
X17542Y16947D1*
X17563Y16911D1*
X17586Y16838D1*
Y16765D1*
X17563Y16692D1*
X17520Y16583D1*
X17301Y16219D1*
X17607D1*
X16957Y18247D2*
Y17481D1*
X17219D1*
X17404Y18246D2*
X17644D1*
X17513Y17954D1*
X17579D1*
X17622Y17918D1*
X17644Y17882D1*
X17666Y17772D1*
Y17700D1*
X17644Y17590D1*
X17601Y17517D1*
X17535Y17481D1*
X17469D1*
X17404Y17517D1*
X17382Y17554D1*
X17360Y17627D1*
X15975Y16992D2*
Y16226D1*
X16238D1*
X16598D2*
Y16991D1*
X16379Y16482D1*
X16707D1*
X15940Y18079D2*
Y17313D1*
X16202D1*
X16606Y18078D2*
X16387D1*
X16366Y17750D1*
X16387Y17786D1*
X16453Y17823D1*
X16518D1*
X16584Y17786D1*
X16628Y17714D1*
X16650Y17604D1*
Y17532D1*
X16628Y17422D1*
X16584Y17349D1*
X16518Y17313D1*
X16453D1*
X16387Y17349D1*
X16366Y17386D1*
X16344Y17459D1*
X25549Y12707D2*
Y11941D1*
X25811D1*
X26215Y12598D2*
X26193Y12670D1*
X26127Y12706D1*
X26084D1*
X26018Y12670D1*
X25974Y12560D1*
X25952Y12379D1*
Y12197D1*
X25974Y12051D1*
X26018Y11978D1*
X26084Y11941D1*
X26105D1*
X26171Y11978D1*
X26215Y12051D1*
X26236Y12160D1*
Y12197D1*
X26215Y12306D1*
X26171Y12379D1*
X26105Y12415D1*
X26084D1*
X26018Y12379D1*
X25974Y12306D1*
X25952Y12197D1*
X24195Y23422D2*
X24392D1*
X24458Y23459D1*
X24480Y23495D1*
X24501Y23567D1*
Y23641D1*
X24480Y23713D1*
X24458Y23750D1*
X24392Y23786D1*
X24195D1*
Y23021D1*
X24348Y23422D2*
X24501Y23021D1*
X24643Y23640D2*
X24687Y23677D1*
X24752Y23786D1*
Y23021D1*
X14449Y29734D2*
X14646D1*
X14712Y29771D1*
X14734Y29808D1*
X14756Y29880D1*
Y29953D1*
X14734Y30026D1*
X14712Y30063D1*
X14646Y30099D1*
X14449D1*
Y29333D1*
X14603Y29734D2*
X14756Y29333D1*
X14919Y29916D2*
Y29953D1*
X14941Y30026D1*
X14963Y30062D1*
X15007Y30098D1*
X15094D1*
X15137Y30062D1*
X15159Y30026D1*
X15181Y29953D1*
Y29880D1*
X15159Y29807D1*
X15116Y29698D1*
X14897Y29333D1*
X15203D1*
X14563Y28280D2*
X14760D1*
X14826Y28317D1*
X14848Y28353D1*
X14870Y28426D1*
Y28499D1*
X14848Y28572D1*
X14826Y28609D1*
X14760Y28645D1*
X14563D1*
Y27879D1*
X14716Y28280D2*
X14870Y27879D1*
X15055Y28644D2*
X15295D1*
X15164Y28353D1*
X15230D1*
X15273Y28316D1*
X15295Y28280D1*
X15317Y28171D1*
Y28098D1*
X15295Y27989D1*
X15251Y27915D1*
X15186Y27879D1*
X15120D1*
X15055Y27915D1*
X15033Y27953D1*
X15011Y28025D1*
X13104Y25535D2*
X13301D1*
X13366Y25573D1*
X13389Y25609D1*
X13410Y25681D1*
Y25754D1*
X13389Y25827D1*
X13366Y25864D1*
X13301Y25900D1*
X13104D1*
Y25135D1*
X13257Y25535D2*
X13410Y25135D1*
X13770D2*
Y25899D1*
X13551Y25390D1*
X13879D1*
X17902Y24141D2*
X18098D1*
X18164Y24179D1*
X18186Y24215D1*
X18208Y24287D1*
Y24360D1*
X18186Y24433D1*
X18164Y24470D1*
X18098Y24506D1*
X17902D1*
Y23741D1*
X18055Y24141D2*
X18208Y23741D1*
X18611Y24397D2*
X18590Y24469D1*
X18524Y24505D1*
X18480D1*
X18415Y24469D1*
X18371Y24360D1*
X18349Y24178D1*
Y23996D1*
X18371Y23850D1*
X18415Y23777D1*
X18480Y23741D1*
X18502D1*
X18567Y23777D1*
X18611Y23850D1*
X18633Y23960D1*
Y23996D1*
X18611Y24105D1*
X18567Y24178D1*
X18502Y24214D1*
X18480D1*
X18415Y24178D1*
X18371Y24105D1*
X18349Y23996D1*
X21210Y14530D2*
X21406D1*
X21472Y14567D1*
X21494Y14603D1*
X21516Y14675D1*
Y14749D1*
X21494Y14821D1*
X21472Y14858D1*
X21406Y14894D1*
X21210D1*
Y14129D1*
X21363Y14530D2*
X21516Y14129D1*
X21766Y14894D2*
X21701Y14857D1*
X21679Y14785D1*
Y14712D1*
X21701Y14639D1*
X21745Y14602D1*
X21832Y14566D1*
X21898Y14530D1*
X21941Y14456D1*
X21963Y14384D1*
Y14274D1*
X21941Y14202D1*
X21920Y14165D1*
X21854Y14129D1*
X21766D1*
X21701Y14165D1*
X21679Y14202D1*
X21657Y14274D1*
Y14384D1*
X21679Y14456D1*
X21723Y14530D1*
X21788Y14566D1*
X21876Y14602D1*
X21920Y14639D1*
X21941Y14712D1*
Y14785D1*
X21920Y14857D1*
X21854Y14894D1*
X21766D1*
X19806Y17238D2*
X20003D1*
X20069Y17275D1*
X20091Y17311D1*
X20113Y17384D1*
Y17457D1*
X20091Y17529D1*
X20069Y17566D1*
X20003Y17603D1*
X19806D1*
Y16837D1*
X19960Y17238D2*
X20113Y16837D1*
X20538Y17347D2*
X20516Y17238D1*
X20473Y17165D1*
X20407Y17128D1*
X20385D1*
X20320Y17165D1*
X20276Y17238D1*
X20254Y17347D1*
Y17384D1*
X20276Y17493D1*
X20320Y17566D1*
X20385Y17602D1*
X20407D1*
X20473Y17566D1*
X20516Y17493D1*
X20538Y17347D1*
Y17165D1*
X20516Y16983D1*
X20473Y16873D1*
X20407Y16837D1*
X20363D1*
X20298Y16873D1*
X20276Y16946D1*
X23148Y15170D2*
Y14623D1*
X23170Y14514D1*
X23214Y14441D1*
X23280Y14404D1*
X23323D1*
X23389Y14441D1*
X23433Y14514D1*
X23454Y14623D1*
Y15170D1*
X23596Y15023D2*
X23640Y15060D1*
X23705Y15169D1*
Y14404D1*
X21207Y28675D2*
Y28129D1*
X21229Y28019D1*
X21273Y27947D1*
X21339Y27910D1*
X21382D1*
X21448Y27947D1*
X21492Y28019D1*
X21514Y28129D1*
Y28675D1*
X21677Y28493D2*
Y28529D1*
X21699Y28602D1*
X21720Y28638D1*
X21764Y28675D1*
X21852D1*
X21895Y28638D1*
X21917Y28602D1*
X21939Y28529D1*
Y28456D1*
X21917Y28383D1*
X21874Y28274D1*
X21655Y27910D1*
X21961D1*
X19100Y24664D2*
Y24117D1*
X19121Y24008D1*
X19165Y23935D1*
X19231Y23898D1*
X19275D1*
X19340Y23935D1*
X19384Y24008D1*
X19406Y24117D1*
Y24664D1*
X19591Y24663D2*
X19831D1*
X19700Y24372D1*
X19766D1*
X19809Y24336D1*
X19831Y24299D1*
X19853Y24190D1*
Y24117D1*
X19831Y24008D1*
X19788Y23935D1*
X19722Y23898D1*
X19656D1*
X19591Y23935D1*
X19569Y23972D1*
X19547Y24044D1*
X19720Y22855D2*
Y22308D1*
X19741Y22198D1*
X19785Y22126D1*
X19851Y22089D1*
X19895D1*
X19960Y22126D1*
X20004Y22198D1*
X20026Y22308D1*
Y22855D1*
X20386Y22089D2*
Y22854D1*
X20167Y22344D1*
X20495D1*
X14527Y25298D2*
Y24751D1*
X14548Y24642D1*
X14592Y24569D1*
X14658Y24532D1*
X14702D1*
X14767Y24569D1*
X14811Y24642D1*
X14833Y24751D1*
Y25298D1*
X15236Y25297D2*
X15018D1*
X14996Y24970D1*
X15018Y25006D1*
X15084Y25043D1*
X15149D1*
X15215Y25006D1*
X15259Y24933D1*
X15280Y24824D1*
Y24751D1*
X15259Y24642D1*
X15215Y24569D1*
X15149Y24532D1*
X15084D1*
X15018Y24569D1*
X14996Y24606D1*
X14974Y24678D1*
X15401Y21457D2*
Y20910D1*
X15423Y20800D1*
X15467Y20728D1*
X15533Y20691D1*
X15576D1*
X15642Y20728D1*
X15686Y20800D1*
X15707Y20910D1*
Y21457D1*
X16111Y21347D2*
X16089Y21419D1*
X16023Y21456D1*
X15980D1*
X15914Y21419D1*
X15870Y21310D1*
X15849Y21128D1*
Y20946D1*
X15870Y20800D1*
X15914Y20727D1*
X15980Y20691D1*
X16002D1*
X16067Y20727D1*
X16111Y20800D1*
X16133Y20910D1*
Y20946D1*
X16111Y21056D1*
X16067Y21128D1*
X16002Y21164D1*
X15980D1*
X15914Y21128D1*
X15870Y21056D1*
X15849Y20946D1*
M02*
