G04 DipTrace 2.4.0.2*
%INUSBBiPowerOTG.gbo*%
%MOMM*%
%ADD10C,0.25*%
%ADD29C,0.114*%
%ADD82O,0.863X0.723*%
%ADD125C,0.157*%
%FSLAX53Y53*%
G04*
G71*
G90*
G75*
G01*
%LNBotSilk*%
%LPD*%
G36*
X19040Y26710D2*
X18406Y26093D1*
X18060Y26577D1*
X18216Y26703D1*
X19040Y26710D1*
G37*
D82*
X18345Y26428D3*
X18923Y26713D2*
D10*
G02X18420Y26196I-586J68D01*
G01*
X18900Y26727D2*
G03X18280Y26666I-219J-970D01*
G01*
X18640Y16129D2*
D125*
Y15780D1*
X18591Y15663D1*
X18542Y15623D1*
X18446Y15585D1*
X18348D1*
X18252Y15623D1*
X18202Y15663D1*
X18154Y15780D1*
Y16129D1*
X19175D1*
X18640Y15857D2*
X19175Y15585D1*
X18155Y15100D2*
X18203Y15217D1*
X18349Y15295D1*
X18592Y15334D1*
X18738D1*
X18980Y15295D1*
X19126Y15217D1*
X19175Y15100D1*
Y15023D1*
X19126Y14906D1*
X18980Y14829D1*
X18738Y14789D1*
X18592D1*
X18349Y14829D1*
X18203Y14906D1*
X18155Y15023D1*
Y15100D1*
X18349Y14829D2*
X18980Y15295D1*
X19077Y14500D2*
X19126Y14538D1*
X19175Y14500D1*
X19126Y14460D1*
X19077Y14500D1*
X18155Y13743D2*
Y14131D1*
X18592Y14170D1*
X18544Y14131D1*
X18494Y14014D1*
Y13898D1*
X18544Y13781D1*
X18640Y13703D1*
X18786Y13665D1*
X18883D1*
X19029Y13703D1*
X19126Y13781D1*
X19175Y13898D1*
Y14014D1*
X19126Y14131D1*
X19077Y14170D1*
X18980Y14209D1*
X24428Y14742D2*
D29*
Y14461D1*
X23918Y14301D2*
Y14034D1*
X24307Y14180D1*
Y14107D1*
X24355Y14059D1*
X24404Y14034D1*
X24550Y14010D1*
X24646D1*
X24792Y14034D1*
X24890Y14083D1*
X24938Y14156D1*
Y14229D1*
X24890Y14301D1*
X24841Y14325D1*
X24744Y14350D1*
X24258Y13899D2*
X24938Y13753D1*
X24258Y13607D1*
X23918Y13447D2*
Y13180D1*
X24307Y13326D1*
Y13253D1*
X24355Y13205D1*
X24404Y13180D1*
X24550Y13156D1*
X24646D1*
X24792Y13180D1*
X24890Y13229D1*
X24938Y13302D1*
Y13375D1*
X24890Y13447D1*
X24841Y13471D1*
X24744Y13496D1*
X23822Y19882D2*
X24842Y19688D1*
X23822Y19493D1*
Y19382D2*
X24842D1*
Y19163D1*
X24793Y19090D1*
X24745Y19066D1*
X24648Y19042D1*
X24502D1*
X24404Y19066D1*
X24356Y19090D1*
X24308Y19163D1*
X24258Y19090D1*
X24210Y19066D1*
X24114Y19042D1*
X24016D1*
X23919Y19066D1*
X23870Y19090D1*
X23822Y19163D1*
Y19382D1*
X24308D2*
Y19163D1*
X24842Y18542D2*
X23822Y18736D1*
X24842Y18931D1*
X24502Y18858D2*
Y18615D1*
X23822Y18260D2*
X24842D1*
X23822Y18430D2*
Y18090D1*
X16351Y27833D2*
D125*
X17080D1*
X17226Y27795D1*
X17323Y27717D1*
X17372Y27600D1*
Y27522D1*
X17323Y27406D1*
X17226Y27327D1*
X17080Y27289D1*
X16351D1*
X16497Y26493D2*
X16400Y26571D1*
X16351Y26687D1*
Y26843D1*
X16400Y26960D1*
X16497Y27038D1*
X16594D1*
X16692Y26998D1*
X16740Y26960D1*
X16788Y26882D1*
X16886Y26649D1*
X16934Y26571D1*
X16984Y26532D1*
X17080Y26493D1*
X17226D1*
X17323Y26571D1*
X17372Y26687D1*
Y26843D1*
X17323Y26960D1*
X17226Y27038D1*
X16351Y26242D2*
X17372D1*
Y25892D1*
X17323Y25775D1*
X17274Y25737D1*
X17178Y25698D1*
X17032D1*
X16934Y25737D1*
X16886Y25775D1*
X16838Y25892D1*
X16788Y25775D1*
X16740Y25737D1*
X16643Y25698D1*
X16546D1*
X16449Y25737D1*
X16400Y25775D1*
X16351Y25892D1*
Y26242D1*
X16838D2*
Y25892D1*
X16351Y24657D2*
X17372D1*
Y24307D1*
X17323Y24190D1*
X17274Y24151D1*
X17178Y24112D1*
X17032D1*
X16934Y24151D1*
X16886Y24190D1*
X16838Y24307D1*
X16788Y24190D1*
X16740Y24151D1*
X16643Y24112D1*
X16546D1*
X16449Y24151D1*
X16400Y24190D1*
X16351Y24307D1*
Y24657D1*
X16838D2*
Y24307D1*
X16351Y23861D2*
X16400Y23823D1*
X16351Y23783D1*
X16302Y23823D1*
X16351Y23861D1*
X16692Y23823D2*
X17372D1*
X16886Y23532D2*
Y23182D1*
X16838Y23066D1*
X16788Y23026D1*
X16692Y22988D1*
X16546D1*
X16449Y23026D1*
X16400Y23066D1*
X16351Y23182D1*
Y23532D1*
X17372D1*
X16692Y22543D2*
X16740Y22620D1*
X16838Y22698D1*
X16984Y22737D1*
X17080D1*
X17226Y22698D1*
X17323Y22620D1*
X17372Y22543D1*
Y22426D1*
X17323Y22348D1*
X17226Y22271D1*
X17080Y22231D1*
X16984D1*
X16838Y22271D1*
X16740Y22348D1*
X16692Y22426D1*
Y22543D1*
Y21980D2*
X17372Y21825D1*
X16692Y21669D1*
X17372Y21514D1*
X16692Y21358D1*
X16984Y21107D2*
Y20641D1*
X16886D1*
X16788Y20680D1*
X16740Y20718D1*
X16692Y20796D1*
Y20913D1*
X16740Y20991D1*
X16838Y21069D1*
X16984Y21107D1*
X17080D1*
X17226Y21069D1*
X17323Y20991D1*
X17372Y20913D1*
Y20796D1*
X17323Y20718D1*
X17226Y20641D1*
X16692Y20390D2*
X17372D1*
X16984D2*
X16838Y20351D1*
X16740Y20273D1*
X16692Y20195D1*
Y20078D1*
X16351Y18804D2*
X16400Y18882D1*
X16497Y18959D1*
X16594Y18999D1*
X16740Y19037D1*
X16984D1*
X17128Y18999D1*
X17226Y18959D1*
X17323Y18882D1*
X17372Y18804D1*
Y18648D1*
X17323Y18571D1*
X17226Y18493D1*
X17128Y18454D1*
X16984Y18416D1*
X16740D1*
X16594Y18454D1*
X16497Y18493D1*
X16400Y18571D1*
X16351Y18648D1*
Y18804D1*
Y17892D2*
X17372D1*
X16351Y18165D2*
Y17620D1*
X16594Y16786D2*
X16497Y16825D1*
X16400Y16903D1*
X16351Y16980D1*
Y17136D1*
X16400Y17214D1*
X16497Y17291D1*
X16594Y17330D1*
X16740Y17369D1*
X16984D1*
X17128Y17330D1*
X17226Y17291D1*
X17323Y17214D1*
X17372Y17136D1*
Y16980D1*
X17323Y16903D1*
X17226Y16825D1*
X17128Y16786D1*
X16984D1*
Y16980D1*
X14320Y25944D2*
Y26450D1*
X15340D1*
X14806D2*
Y26139D1*
X14660Y25654D2*
X15340Y25421D1*
X15535Y25498D1*
X15632Y25577D1*
X15681Y25654D1*
Y25693D1*
X14660Y25188D2*
X15340Y25421D1*
X14320Y24937D2*
X15340D1*
X14806D2*
X14708Y24858D1*
X14660Y24781D1*
Y24664D1*
X14708Y24587D1*
X14806Y24509D1*
X14952Y24470D1*
X15048D1*
X15194Y24509D1*
X15291Y24587D1*
X15340Y24664D1*
Y24781D1*
X15291Y24858D1*
X15194Y24937D1*
X14952Y24219D2*
Y23753D1*
X14854D1*
X14756Y23792D1*
X14708Y23830D1*
X14660Y23908D1*
Y24025D1*
X14708Y24103D1*
X14806Y24181D1*
X14952Y24219D1*
X15048D1*
X15194Y24181D1*
X15291Y24103D1*
X15340Y24025D1*
Y23908D1*
X15291Y23830D1*
X15194Y23753D1*
X14660Y23502D2*
X15340D1*
X14952D2*
X14806Y23463D1*
X14708Y23385D1*
X14660Y23307D1*
Y23190D1*
X14320Y22149D2*
X15340D1*
Y21683D1*
X14660Y20966D2*
X15340D1*
X14806D2*
X14708Y21043D1*
X14660Y21121D1*
Y21237D1*
X14708Y21315D1*
X14806Y21392D1*
X14952Y21432D1*
X15048D1*
X15194Y21392D1*
X15291Y21315D1*
X15340Y21237D1*
Y21121D1*
X15291Y21043D1*
X15194Y20966D1*
X14320Y20715D2*
X15340D1*
X14806D2*
X14708Y20636D1*
X14660Y20559D1*
Y20442D1*
X14708Y20365D1*
X14806Y20287D1*
X14952Y20248D1*
X15048D1*
X15194Y20287D1*
X15291Y20365D1*
X15340Y20442D1*
Y20559D1*
X15291Y20636D1*
X15194Y20715D1*
X14806Y19570D2*
X14708Y19608D1*
X14660Y19725D1*
Y19842D1*
X14708Y19959D1*
X14806Y19997D1*
X14902Y19959D1*
X14952Y19881D1*
X15000Y19687D1*
X15048Y19608D1*
X15146Y19570D1*
X15194D1*
X15291Y19608D1*
X15340Y19725D1*
Y19842D1*
X15291Y19959D1*
X15194Y19997D1*
X14320Y18529D2*
X15340D1*
X14660Y18278D2*
X15340D1*
X14854D2*
X14708Y18161D1*
X14660Y18083D1*
Y17967D1*
X14708Y17889D1*
X14854Y17850D1*
X15340D1*
X14806Y17132D2*
X14708Y17210D1*
X14660Y17288D1*
Y17404D1*
X14708Y17482D1*
X14806Y17560D1*
X14952Y17599D1*
X15048D1*
X15194Y17560D1*
X15291Y17482D1*
X15340Y17404D1*
Y17288D1*
X15291Y17210D1*
X15194Y17132D1*
X15243Y16842D2*
X15292Y16881D1*
X15340Y16842D1*
X15292Y16803D1*
X15243Y16842D1*
X16618Y16276D2*
X16569D1*
X16472Y16237D1*
X16423Y16198D1*
X16375Y16120D1*
Y15965D1*
X16423Y15888D1*
X16472Y15849D1*
X16569Y15809D1*
X16666D1*
X16764Y15849D1*
X16908Y15926D1*
X17395Y16315D1*
Y15771D1*
X16375Y15286D2*
X16423Y15403D1*
X16569Y15481D1*
X16812Y15520D1*
X16958D1*
X17200Y15481D1*
X17346Y15403D1*
X17395Y15286D1*
Y15209D1*
X17346Y15092D1*
X17200Y15015D1*
X16958Y14975D1*
X16812D1*
X16569Y15015D1*
X16423Y15092D1*
X16375Y15209D1*
Y15286D1*
X16569Y15015D2*
X17200Y15481D1*
X16569Y14724D2*
X16520Y14646D1*
X16375Y14529D1*
X17395D1*
X16375Y13812D2*
Y14200D1*
X16812Y14239D1*
X16764Y14200D1*
X16714Y14083D1*
Y13968D1*
X16764Y13851D1*
X16860Y13773D1*
X17006Y13734D1*
X17103D1*
X17249Y13773D1*
X17346Y13851D1*
X17395Y13968D1*
Y14083D1*
X17346Y14200D1*
X17297Y14239D1*
X17200Y14278D1*
X23865Y17032D2*
D29*
X24886D1*
X23865Y16581D2*
X24886D1*
X23865Y16921D1*
X24886D1*
X23865Y16300D2*
X24886D1*
X23865Y16470D2*
Y16129D1*
Y16018D2*
X24886D1*
Y15799D1*
X24836Y15726D1*
X24788Y15702D1*
X24692Y15678D1*
X24546D1*
X24448Y15702D1*
X24400Y15726D1*
X24351Y15799D1*
X24302Y15726D1*
X24254Y15702D1*
X24157Y15678D1*
X24059D1*
X23963Y15702D1*
X23913Y15726D1*
X23865Y15799D1*
Y16018D1*
X24351D2*
Y15799D1*
X24321Y22121D2*
Y21902D1*
X24272Y21829D1*
X24223Y21805D1*
X24126Y21780D1*
X23980D1*
X23884Y21805D1*
X23834Y21829D1*
X23786Y21902D1*
Y22121D1*
X24807D1*
X23932Y21329D2*
X23834Y21377D1*
X23786Y21450D1*
Y21548D1*
X23834Y21621D1*
X23932Y21669D1*
X24029D1*
X24126Y21645D1*
X24175Y21621D1*
X24223Y21572D1*
X24321Y21426D1*
X24369Y21377D1*
X24418Y21353D1*
X24515Y21329D1*
X24661D1*
X24758Y21377D1*
X24807Y21450D1*
Y21548D1*
X24758Y21621D1*
X24661Y21669D1*
X23786Y20902D2*
Y21218D1*
X24807D1*
Y20902D1*
X24272Y21218D2*
Y21024D1*
X23786Y20791D2*
X24807D1*
Y20500D1*
X23815Y24837D2*
X24836Y24643D1*
X23815Y24448D1*
Y24337D2*
X24836D1*
Y24118D1*
X24786Y24045D1*
X24738Y24021D1*
X24641Y23997D1*
X24495D1*
X24398Y24021D1*
X24349Y24045D1*
X24301Y24118D1*
X24252Y24045D1*
X24203Y24021D1*
X24107Y23997D1*
X24009D1*
X23913Y24021D1*
X23863Y24045D1*
X23815Y24118D1*
Y24337D1*
X24301D2*
Y24118D1*
X23815Y23886D2*
X24544D1*
X24690Y23862D1*
X24786Y23813D1*
X24836Y23740D1*
Y23692D1*
X24786Y23619D1*
X24690Y23570D1*
X24544Y23546D1*
X23815D1*
X23961Y23094D2*
X23863Y23142D1*
X23815Y23215D1*
Y23313D1*
X23863Y23386D1*
X23961Y23434D1*
X24057D1*
X24155Y23410D1*
X24203Y23386D1*
X24252Y23337D1*
X24349Y23191D1*
X24398Y23142D1*
X24447Y23118D1*
X24544Y23094D1*
X24690D1*
X24786Y23142D1*
X24836Y23215D1*
Y23313D1*
X24786Y23386D1*
X24690Y23434D1*
X24060Y26596D2*
X23964Y26620D1*
X23866Y26669D1*
X23818Y26717D1*
Y26815D1*
X23866Y26863D1*
X23964Y26912D1*
X24060Y26936D1*
X24206Y26961D1*
X24450D1*
X24595Y26936D1*
X24692Y26912D1*
X24789Y26863D1*
X24838Y26815D1*
Y26717D1*
X24789Y26669D1*
X24692Y26620D1*
X24595Y26596D1*
X24450D1*
Y26717D1*
X23818Y26145D2*
X24838D1*
X23818Y26485D1*
X24838D1*
X23818Y26034D2*
X24838D1*
Y25864D1*
X24789Y25791D1*
X24692Y25742D1*
X24595Y25718D1*
X24450Y25693D1*
X24206D1*
X24060Y25718D1*
X23964Y25742D1*
X23866Y25791D1*
X23818Y25864D1*
Y26034D1*
X23848Y28631D2*
Y28365D1*
X24236Y28510D1*
Y28437D1*
X24284Y28389D1*
X24333Y28365D1*
X24479Y28340D1*
X24575D1*
X24721Y28365D1*
X24819Y28413D1*
X24867Y28486D1*
Y28559D1*
X24819Y28631D1*
X24770Y28656D1*
X24673Y28680D1*
X24187Y28229D2*
X24867Y28083D1*
X24187Y27937D1*
X23848Y27777D2*
Y27511D1*
X24236Y27656D1*
Y27583D1*
X24284Y27535D1*
X24333Y27511D1*
X24479Y27486D1*
X24575D1*
X24721Y27511D1*
X24819Y27559D1*
X24867Y27632D1*
Y27705D1*
X24819Y27777D1*
X24770Y27802D1*
X24673Y27826D1*
X23543Y29104D2*
X23519Y29008D1*
X23470Y28910D1*
X23421Y28862D1*
X23324D1*
X23275Y28910D1*
X23227Y29008D1*
X23202Y29104D1*
X23178Y29250D1*
Y29494D1*
X23202Y29639D1*
X23227Y29737D1*
X23275Y29833D1*
X23324Y29883D1*
X23421D1*
X23470Y29833D1*
X23519Y29737D1*
X23543Y29639D1*
Y29494D1*
X23421D1*
X23994Y28862D2*
Y29883D1*
X23654Y28862D1*
Y29883D1*
X24105Y28862D2*
Y29883D1*
X24275D1*
X24348Y29833D1*
X24397Y29737D1*
X24421Y29639D1*
X24445Y29494D1*
Y29250D1*
X24421Y29104D1*
X24397Y29008D1*
X24348Y28910D1*
X24275Y28862D1*
X24105D1*
X21055Y28885D2*
Y29906D1*
X21225D1*
X21298Y29856D1*
X21347Y29760D1*
X21371Y29662D1*
X21395Y29517D1*
Y29274D1*
X21371Y29128D1*
X21347Y29031D1*
X21298Y28933D1*
X21225Y28885D1*
X21055D1*
X21506Y29420D2*
X21725D1*
X21797Y29371D1*
X21822Y29322D1*
X21846Y29225D1*
Y29079D1*
X21822Y28983D1*
X21797Y28933D1*
X21725Y28885D1*
X21506D1*
Y29906D1*
X18537Y28882D2*
Y29903D1*
X18707D1*
X18780Y29854D1*
X18829Y29757D1*
X18853Y29659D1*
X18877Y29514D1*
Y29271D1*
X18853Y29125D1*
X18829Y29028D1*
X18780Y28930D1*
X18707Y28882D1*
X18537D1*
X19377Y29903D2*
Y28882D1*
X19183Y29903D1*
X18989Y28882D1*
Y29903D1*
X16526Y28930D2*
Y29951D1*
X16637Y28930D2*
Y29951D1*
X16808D1*
X16881Y29902D1*
X16929Y29805D1*
X16954Y29708D1*
X16978Y29563D1*
Y29319D1*
X16954Y29173D1*
X16929Y29076D1*
X16881Y28979D1*
X16808Y28930D1*
X16637D1*
X14535Y29138D2*
X14486Y29041D1*
X14413Y28992D1*
X14316D1*
X14243Y29041D1*
X14194Y29138D1*
Y29235D1*
X14219Y29333D1*
X14243Y29381D1*
X14292Y29429D1*
X14438Y29527D1*
X14486Y29575D1*
X14511Y29625D1*
X14535Y29721D1*
Y29867D1*
X14486Y29964D1*
X14413Y30013D1*
X14316D1*
X14243Y29964D1*
X14194Y29867D1*
X15010Y29235D2*
X14986Y29138D1*
X14937Y29041D1*
X14889Y28992D1*
X14792D1*
X14743Y29041D1*
X14695Y29138D1*
X14670Y29235D1*
X14646Y29381D1*
Y29625D1*
X14670Y29770D1*
X14695Y29867D1*
X14743Y29964D1*
X14792Y30013D1*
X14889D1*
X14937Y29964D1*
X14986Y29867D1*
X15010Y29770D1*
X15121Y28992D2*
Y30013D1*
X15413D1*
X13788Y28541D2*
X13886Y28492D1*
X13934Y28419D1*
Y28322D1*
X13886Y28249D1*
X13788Y28200D1*
X13691D1*
X13594Y28225D1*
X13545Y28249D1*
X13497Y28298D1*
X13399Y28444D1*
X13351Y28492D1*
X13302Y28517D1*
X13205Y28541D1*
X13059D1*
X12963Y28492D1*
X12913Y28419D1*
Y28322D1*
X12963Y28249D1*
X13059Y28200D1*
X13934Y28652D2*
X12913D1*
Y28822D1*
X12963Y28895D1*
X13059Y28944D1*
X13157Y28968D1*
X13302Y28992D1*
X13545D1*
X13691Y28968D1*
X13788Y28944D1*
X13886Y28895D1*
X13934Y28822D1*
Y28652D1*
X12913Y29492D2*
X13934Y29297D1*
X12913Y29103D1*
X13253Y29176D2*
Y29419D1*
X13942Y25505D2*
X12921D1*
X13942Y25956D2*
X12921D1*
X13942Y25616D1*
X12921D1*
X13942Y26237D2*
X12921D1*
X13942Y26067D2*
Y26407D1*
Y26519D2*
X12921D1*
Y26738D1*
X12970Y26811D1*
X13018Y26835D1*
X13115Y26859D1*
X13261D1*
X13359Y26835D1*
X13407Y26811D1*
X13455Y26738D1*
X13505Y26811D1*
X13553Y26835D1*
X13650Y26859D1*
X13747D1*
X13844Y26835D1*
X13893Y26811D1*
X13942Y26738D1*
Y26519D1*
X13455D2*
Y26738D1*
X13945Y23169D2*
X12924Y23363D1*
X13945Y23557D1*
Y23668D2*
X12924D1*
Y23887D1*
X12974Y23960D1*
X13022Y23984D1*
X13119Y24009D1*
X13265D1*
X13362Y23984D1*
X13411Y23960D1*
X13459Y23887D1*
X13508Y23960D1*
X13557Y23984D1*
X13653Y24009D1*
X13751D1*
X13847Y23984D1*
X13897Y23960D1*
X13945Y23887D1*
Y23668D1*
X13459D2*
Y23887D1*
X12924Y24509D2*
X13945Y24314D1*
X12924Y24120D1*
X13265Y24193D2*
Y24436D1*
X13945Y24790D2*
X12924D1*
X13945Y24620D2*
Y24960D1*
X13468Y20629D2*
Y20848D1*
X13517Y20920D1*
X13566Y20945D1*
X13663Y20969D1*
X13809D1*
X13905Y20945D1*
X13955Y20920D1*
X14003Y20848D1*
Y20629D1*
X12982D1*
X13857Y21420D2*
X13955Y21372D1*
X14003Y21299D1*
Y21202D1*
X13955Y21129D1*
X13857Y21080D1*
X13760D1*
X13663Y21105D1*
X13614Y21129D1*
X13566Y21177D1*
X13468Y21323D1*
X13420Y21372D1*
X13371Y21396D1*
X13274Y21420D1*
X13128D1*
X13031Y21372D1*
X12982Y21299D1*
Y21202D1*
X13031Y21129D1*
X13128Y21080D1*
X14003Y21847D2*
Y21531D1*
X12982D1*
Y21847D1*
X13517Y21531D2*
Y21726D1*
X14003Y21958D2*
X12982D1*
Y22250D1*
X14028Y17917D2*
X13007Y18111D1*
X14028Y18305D1*
Y18416D2*
X13007D1*
Y18635D1*
X13057Y18708D1*
X13105Y18732D1*
X13201Y18757D1*
X13347D1*
X13445Y18732D1*
X13493Y18708D1*
X13542Y18635D1*
X13591Y18708D1*
X13639Y18732D1*
X13736Y18757D1*
X13834D1*
X13930Y18732D1*
X13980Y18708D1*
X14028Y18635D1*
Y18416D1*
X13542D2*
Y18635D1*
X14028Y18868D2*
X13299D1*
X13153Y18892D1*
X13057Y18941D1*
X13007Y19014D1*
Y19062D1*
X13057Y19135D1*
X13153Y19184D1*
X13299Y19208D1*
X14028D1*
X13882Y19659D2*
X13980Y19611D1*
X14028Y19538D1*
Y19441D1*
X13980Y19368D1*
X13882Y19319D1*
X13785D1*
X13688Y19344D1*
X13639Y19368D1*
X13591Y19416D1*
X13493Y19562D1*
X13445Y19611D1*
X13396Y19635D1*
X13299Y19659D1*
X13153D1*
X13057Y19611D1*
X13007Y19538D1*
Y19441D1*
X13057Y19368D1*
X13153Y19319D1*
X13787Y16214D2*
X13883Y16190D1*
X13981Y16141D1*
X14029Y16093D1*
Y15996D1*
X13981Y15947D1*
X13883Y15899D1*
X13787Y15874D1*
X13641Y15850D1*
X13397D1*
X13252Y15874D1*
X13154Y15899D1*
X13058Y15947D1*
X13008Y15996D1*
Y16093D1*
X13058Y16141D1*
X13154Y16190D1*
X13252Y16214D1*
X13397D1*
Y16093D1*
X14029Y16666D2*
X13008D1*
X14029Y16325D1*
X13008D1*
X14029Y16777D2*
X13008D1*
Y16947D1*
X13058Y17020D1*
X13154Y17069D1*
X13252Y17093D1*
X13397Y17117D1*
X13641D1*
X13787Y17093D1*
X13883Y17069D1*
X13981Y17020D1*
X14029Y16947D1*
Y16777D1*
X14028Y13239D2*
Y13506D1*
X13640Y13360D1*
Y13433D1*
X13591Y13481D1*
X13543Y13506D1*
X13397Y13530D1*
X13300D1*
X13154Y13506D1*
X13057Y13457D1*
X13008Y13384D1*
Y13311D1*
X13057Y13239D1*
X13106Y13215D1*
X13203Y13190D1*
X13689Y13641D2*
X13008Y13787D1*
X13689Y13933D1*
X14028Y14093D2*
Y14360D1*
X13640Y14214D1*
Y14287D1*
X13591Y14335D1*
X13543Y14360D1*
X13397Y14384D1*
X13300D1*
X13154Y14360D1*
X13057Y14311D1*
X13008Y14238D1*
Y14165D1*
X13057Y14093D1*
X13106Y14069D1*
X13203Y14044D1*
M02*
