M48
METRIC,0000.00
T01C0.254
T02C0.33
T03C0.457
T04C0.65
T05C0.8
T06C1.1
%
T01
X+002419Y+002415
X+002414Y+002131
X+002239Y+001942
X+002302Y+001850
X+002380Y+001828
X+002420Y+001650
X+002455Y+001512
X+002338Y+001494
X+002269Y+001320
X+002030Y+001672
X+002028Y+001854
X+002031Y+001939
X+002090Y+001940
X+001972Y+001934
X+001871Y+001961
X+002018Y+002191
X+001907Y+002266
X+001778Y+002524
X+001690Y+002493
X+001654Y+002548
X+001613Y+002658
X+001516Y+002573
X+001463Y+002600
X+001315Y+002711
X+001409Y+002780
X+001405Y+002955
X+001610Y+002924
X+001872Y+002771
X+001462Y+002320
X+001428Y+002272
X+001498Y+002272
X+001342Y+002114
X+001488Y+001922
X+001271Y+002515
T02
X+001927Y+002619
X+002157Y+002468
X+002252Y+002468
X+002205Y+002383
X+002157Y+002298
X+002252Y+002298
T03
X+001902Y+002485
X+001971Y+002353
X+001816Y+002191
X+001854Y+001788
X+001350Y+001858
X+001349Y+002627
X+002058Y+002760
T04
X+001523Y+001431G85X+001523Y+001451
X+001968Y+001431G85X+001968Y+001451
T05
X+002153Y+001106G85X+002153Y+001176
X+001338Y+001106G85X+001338Y+001176
T06
X+002652Y+001382
X+002779Y+001382
X+002779Y+001636
X+002652Y+001636
X+002652Y+001890
X+002779Y+001890
X+002779Y+002144
X+002652Y+002144
X+002652Y+002398
X+002779Y+002398
X+002779Y+002652
X+002652Y+002652
X+002652Y+002906
X+002779Y+002906
X+002398Y+003160
X+002398Y+003287
X+002144Y+003287
X+002144Y+003160
X+001890Y+003160
X+001890Y+003287
X+001636Y+003287
X+001636Y+003160
X+001382Y+003160
X+001382Y+003287
X+001128Y+002906
X+001001Y+002906
X+001001Y+002652
X+001128Y+002652
X+001128Y+002398
X+001001Y+002398
X+001001Y+002144
X+001128Y+002144
X+001128Y+001890
X+001001Y+001890
X+001001Y+001636
X+001128Y+001636
X+001128Y+001382
X+001001Y+001382
T00
M30
