G04 DipTrace 2.4.0.2*
%INUSBBiPowerOTG.gbo*%
%MOMM*%
%ADD10C,0.25*%
%ADD29C,0.114*%
%ADD83O,0.863X0.723*%
%ADD123C,0.157*%
%FSLAX53Y53*%
G04*
G71*
G90*
G75*
G01*
%LNBotSilk*%
%LPD*%
G36*
X19048Y26718D2*
X18414Y26101D1*
X18068Y26585D1*
X18224Y26711D1*
X19048Y26718D1*
G37*
D83*
X18353Y26436D3*
X18931Y26721D2*
D10*
G02X18428Y26204I-586J68D01*
G01*
X18908Y26735D2*
G03X18288Y26674I-219J-970D01*
G01*
X18648Y16137D2*
D123*
Y15788D1*
X18599Y15671D1*
X18550Y15631D1*
X18454Y15593D1*
X18356D1*
X18260Y15631D1*
X18210Y15671D1*
X18162Y15788D1*
Y16137D1*
X19183D1*
X18648Y15865D2*
X19183Y15593D1*
X18163Y15108D2*
X18211Y15225D1*
X18357Y15303D1*
X18600Y15342D1*
X18746D1*
X18988Y15303D1*
X19134Y15225D1*
X19183Y15108D1*
Y15031D1*
X19134Y14914D1*
X18988Y14837D1*
X18746Y14797D1*
X18600D1*
X18357Y14837D1*
X18211Y14914D1*
X18163Y15031D1*
Y15108D1*
X18357Y14837D2*
X18988Y15303D1*
X19085Y14508D2*
X19134Y14546D1*
X19183Y14508D1*
X19134Y14468D1*
X19085Y14508D1*
X18163Y13751D2*
Y14139D1*
X18600Y14178D1*
X18552Y14139D1*
X18502Y14022D1*
Y13906D1*
X18552Y13789D1*
X18648Y13711D1*
X18794Y13673D1*
X18891D1*
X19037Y13711D1*
X19134Y13789D1*
X19183Y13906D1*
Y14022D1*
X19134Y14139D1*
X19085Y14178D1*
X18988Y14217D1*
X24436Y14750D2*
D29*
Y14469D1*
X23926Y14309D2*
Y14042D1*
X24315Y14188D1*
Y14115D1*
X24363Y14067D1*
X24412Y14042D1*
X24558Y14018D1*
X24654D1*
X24800Y14042D1*
X24898Y14091D1*
X24946Y14164D1*
Y14237D1*
X24898Y14309D1*
X24849Y14333D1*
X24752Y14358D1*
X24266Y13907D2*
X24946Y13761D1*
X24266Y13615D1*
X23926Y13455D2*
Y13188D1*
X24315Y13334D1*
Y13261D1*
X24363Y13213D1*
X24412Y13188D1*
X24558Y13164D1*
X24654D1*
X24800Y13188D1*
X24898Y13237D1*
X24946Y13310D1*
Y13383D1*
X24898Y13455D1*
X24849Y13479D1*
X24752Y13504D1*
X23830Y19890D2*
X24850Y19696D1*
X23830Y19501D1*
Y19390D2*
X24850D1*
Y19171D1*
X24801Y19098D1*
X24753Y19074D1*
X24656Y19050D1*
X24510D1*
X24412Y19074D1*
X24364Y19098D1*
X24316Y19171D1*
X24266Y19098D1*
X24218Y19074D1*
X24122Y19050D1*
X24024D1*
X23927Y19074D1*
X23878Y19098D1*
X23830Y19171D1*
Y19390D1*
X24316D2*
Y19171D1*
X24850Y18550D2*
X23830Y18744D1*
X24850Y18939D1*
X24510Y18866D2*
Y18623D1*
X23830Y18268D2*
X24850D1*
X23830Y18438D2*
Y18098D1*
X16359Y27841D2*
D123*
X17088D1*
X17234Y27803D1*
X17331Y27725D1*
X17380Y27608D1*
Y27530D1*
X17331Y27414D1*
X17234Y27335D1*
X17088Y27297D1*
X16359D1*
X16505Y26501D2*
X16408Y26579D1*
X16359Y26695D1*
Y26851D1*
X16408Y26968D1*
X16505Y27046D1*
X16602D1*
X16700Y27006D1*
X16748Y26968D1*
X16796Y26890D1*
X16894Y26657D1*
X16942Y26579D1*
X16992Y26540D1*
X17088Y26501D1*
X17234D1*
X17331Y26579D1*
X17380Y26695D1*
Y26851D1*
X17331Y26968D1*
X17234Y27046D1*
X16359Y26250D2*
X17380D1*
Y25900D1*
X17331Y25783D1*
X17282Y25745D1*
X17186Y25706D1*
X17040D1*
X16942Y25745D1*
X16894Y25783D1*
X16846Y25900D1*
X16796Y25783D1*
X16748Y25745D1*
X16651Y25706D1*
X16554D1*
X16457Y25745D1*
X16408Y25783D1*
X16359Y25900D1*
Y26250D1*
X16846D2*
Y25900D1*
X16359Y24665D2*
X17380D1*
Y24315D1*
X17331Y24198D1*
X17282Y24159D1*
X17186Y24120D1*
X17040D1*
X16942Y24159D1*
X16894Y24198D1*
X16846Y24315D1*
X16796Y24198D1*
X16748Y24159D1*
X16651Y24120D1*
X16554D1*
X16457Y24159D1*
X16408Y24198D1*
X16359Y24315D1*
Y24665D1*
X16846D2*
Y24315D1*
X16359Y23869D2*
X16408Y23831D1*
X16359Y23791D1*
X16310Y23831D1*
X16359Y23869D1*
X16700Y23831D2*
X17380D1*
X16894Y23540D2*
Y23190D1*
X16846Y23074D1*
X16796Y23034D1*
X16700Y22996D1*
X16554D1*
X16457Y23035D1*
X16408Y23074D1*
X16359Y23190D1*
Y23540D1*
X17380D1*
X16700Y22551D2*
X16748Y22628D1*
X16846Y22706D1*
X16992Y22745D1*
X17088D1*
X17234Y22706D1*
X17331Y22628D1*
X17380Y22551D1*
Y22434D1*
X17331Y22356D1*
X17234Y22279D1*
X17088Y22239D1*
X16992D1*
X16846Y22279D1*
X16748Y22356D1*
X16700Y22434D1*
Y22551D1*
Y21988D2*
X17380Y21833D1*
X16700Y21677D1*
X17380Y21522D1*
X16700Y21366D1*
X16992Y21115D2*
Y20649D1*
X16894D1*
X16796Y20688D1*
X16748Y20726D1*
X16700Y20804D1*
Y20921D1*
X16748Y20999D1*
X16846Y21077D1*
X16992Y21115D1*
X17088D1*
X17234Y21077D1*
X17331Y20999D1*
X17380Y20921D1*
Y20804D1*
X17331Y20726D1*
X17234Y20649D1*
X16700Y20398D2*
X17380D1*
X16992D2*
X16846Y20359D1*
X16748Y20281D1*
X16700Y20203D1*
Y20086D1*
X16359Y18812D2*
X16408Y18890D1*
X16505Y18967D1*
X16602Y19007D1*
X16748Y19045D1*
X16992D1*
X17136Y19007D1*
X17234Y18967D1*
X17331Y18890D1*
X17380Y18812D1*
Y18656D1*
X17331Y18579D1*
X17234Y18501D1*
X17136Y18462D1*
X16992Y18424D1*
X16748D1*
X16602Y18462D1*
X16505Y18501D1*
X16408Y18579D1*
X16359Y18656D1*
Y18812D1*
Y17900D2*
X17380D1*
X16359Y18173D2*
Y17628D1*
X16602Y16794D2*
X16505Y16833D1*
X16408Y16911D1*
X16359Y16988D1*
Y17144D1*
X16408Y17222D1*
X16505Y17299D1*
X16602Y17338D1*
X16748Y17377D1*
X16992D1*
X17136Y17338D1*
X17234Y17299D1*
X17331Y17222D1*
X17380Y17144D1*
Y16988D1*
X17331Y16911D1*
X17234Y16833D1*
X17136Y16794D1*
X16992D1*
Y16988D1*
X14328Y25952D2*
Y26458D1*
X15348D1*
X14814D2*
Y26147D1*
X14668Y25662D2*
X15348Y25429D1*
X15543Y25506D1*
X15640Y25585D1*
X15689Y25662D1*
Y25701D1*
X14668Y25196D2*
X15348Y25429D1*
X14328Y24945D2*
X15348D1*
X14814D2*
X14716Y24866D1*
X14668Y24789D1*
Y24672D1*
X14716Y24595D1*
X14814Y24517D1*
X14960Y24478D1*
X15056D1*
X15202Y24517D1*
X15299Y24595D1*
X15348Y24672D1*
Y24789D1*
X15299Y24866D1*
X15202Y24945D1*
X14960Y24227D2*
Y23761D1*
X14862D1*
X14764Y23800D1*
X14716Y23838D1*
X14668Y23916D1*
Y24033D1*
X14716Y24111D1*
X14814Y24189D1*
X14960Y24227D1*
X15056D1*
X15202Y24189D1*
X15299Y24111D1*
X15348Y24033D1*
Y23916D1*
X15299Y23838D1*
X15202Y23761D1*
X14668Y23510D2*
X15348D1*
X14960D2*
X14814Y23471D1*
X14716Y23393D1*
X14668Y23315D1*
Y23198D1*
X14328Y22157D2*
X15348D1*
Y21691D1*
X14668Y20974D2*
X15348D1*
X14814D2*
X14716Y21051D1*
X14668Y21129D1*
Y21245D1*
X14716Y21323D1*
X14814Y21400D1*
X14960Y21440D1*
X15056D1*
X15202Y21400D1*
X15299Y21323D1*
X15348Y21245D1*
Y21129D1*
X15299Y21051D1*
X15202Y20974D1*
X14328Y20723D2*
X15348D1*
X14814D2*
X14716Y20645D1*
X14668Y20567D1*
Y20450D1*
X14716Y20373D1*
X14814Y20295D1*
X14960Y20256D1*
X15056D1*
X15202Y20295D1*
X15299Y20373D1*
X15348Y20450D1*
Y20567D1*
X15299Y20645D1*
X15202Y20723D1*
X14814Y19578D2*
X14716Y19616D1*
X14668Y19733D1*
Y19850D1*
X14716Y19967D1*
X14814Y20005D1*
X14910Y19967D1*
X14960Y19889D1*
X15008Y19695D1*
X15056Y19616D1*
X15154Y19578D1*
X15202D1*
X15299Y19616D1*
X15348Y19733D1*
Y19850D1*
X15299Y19967D1*
X15202Y20005D1*
X14328Y18537D2*
X15348D1*
X14668Y18286D2*
X15348D1*
X14862D2*
X14716Y18169D1*
X14668Y18091D1*
Y17975D1*
X14716Y17897D1*
X14862Y17858D1*
X15348D1*
X14814Y17140D2*
X14716Y17218D1*
X14668Y17296D1*
Y17412D1*
X14716Y17490D1*
X14814Y17568D1*
X14960Y17607D1*
X15056D1*
X15202Y17568D1*
X15299Y17490D1*
X15348Y17412D1*
Y17296D1*
X15299Y17218D1*
X15202Y17140D1*
X15251Y16850D2*
X15300Y16889D1*
X15348Y16850D1*
X15300Y16811D1*
X15251Y16850D1*
X16626Y16284D2*
X16577D1*
X16480Y16245D1*
X16431Y16206D1*
X16383Y16128D1*
Y15973D1*
X16431Y15896D1*
X16480Y15857D1*
X16577Y15817D1*
X16674D1*
X16772Y15857D1*
X16916Y15934D1*
X17403Y16323D1*
Y15779D1*
X16383Y15294D2*
X16431Y15411D1*
X16577Y15489D1*
X16820Y15528D1*
X16966D1*
X17208Y15489D1*
X17354Y15411D1*
X17403Y15294D1*
Y15217D1*
X17354Y15100D1*
X17208Y15023D1*
X16966Y14983D1*
X16820D1*
X16577Y15023D1*
X16431Y15100D1*
X16383Y15217D1*
Y15294D1*
X16577Y15023D2*
X17208Y15489D1*
X16577Y14732D2*
X16528Y14654D1*
X16383Y14537D1*
X17403D1*
X16383Y13820D2*
Y14208D1*
X16820Y14247D1*
X16772Y14208D1*
X16722Y14091D1*
Y13976D1*
X16772Y13859D1*
X16868Y13781D1*
X17014Y13742D1*
X17111D1*
X17257Y13781D1*
X17354Y13859D1*
X17403Y13976D1*
Y14091D1*
X17354Y14208D1*
X17305Y14247D1*
X17208Y14286D1*
X23873Y17040D2*
D29*
X24894D1*
X23873Y16589D2*
X24894D1*
X23873Y16929D1*
X24894D1*
X23873Y16308D2*
X24894D1*
X23873Y16478D2*
Y16137D1*
Y16026D2*
X24894D1*
Y15807D1*
X24844Y15734D1*
X24796Y15710D1*
X24700Y15686D1*
X24554D1*
X24456Y15710D1*
X24408Y15734D1*
X24359Y15807D1*
X24310Y15734D1*
X24262Y15710D1*
X24165Y15686D1*
X24067D1*
X23971Y15710D1*
X23921Y15734D1*
X23873Y15807D1*
Y16026D1*
X24359D2*
Y15807D1*
X24329Y22129D2*
Y21910D1*
X24280Y21837D1*
X24231Y21813D1*
X24134Y21788D1*
X23988D1*
X23892Y21813D1*
X23842Y21837D1*
X23794Y21910D1*
Y22129D1*
X24815D1*
X23940Y21337D2*
X23842Y21385D1*
X23794Y21458D1*
Y21556D1*
X23842Y21629D1*
X23940Y21677D1*
X24037D1*
X24134Y21653D1*
X24183Y21629D1*
X24231Y21580D1*
X24329Y21434D1*
X24377Y21385D1*
X24426Y21361D1*
X24523Y21337D1*
X24669D1*
X24766Y21385D1*
X24815Y21458D1*
Y21556D1*
X24766Y21629D1*
X24669Y21677D1*
X23794Y20910D2*
Y21226D1*
X24815D1*
Y20910D1*
X24280Y21226D2*
Y21032D1*
X23794Y20799D2*
X24815D1*
Y20508D1*
X23823Y24845D2*
X24844Y24651D1*
X23823Y24456D1*
Y24345D2*
X24844D1*
Y24126D1*
X24794Y24053D1*
X24746Y24029D1*
X24649Y24005D1*
X24503D1*
X24406Y24029D1*
X24357Y24053D1*
X24309Y24126D1*
X24260Y24053D1*
X24211Y24029D1*
X24115Y24005D1*
X24017D1*
X23921Y24029D1*
X23871Y24053D1*
X23823Y24126D1*
Y24345D1*
X24309D2*
Y24126D1*
X23823Y23894D2*
X24552D1*
X24698Y23870D1*
X24794Y23821D1*
X24844Y23748D1*
Y23700D1*
X24794Y23627D1*
X24698Y23578D1*
X24552Y23554D1*
X23823D1*
X23969Y23102D2*
X23871Y23150D1*
X23823Y23223D1*
Y23321D1*
X23871Y23394D1*
X23969Y23442D1*
X24065D1*
X24163Y23418D1*
X24211Y23394D1*
X24260Y23345D1*
X24357Y23199D1*
X24406Y23150D1*
X24455Y23126D1*
X24552Y23102D1*
X24698D1*
X24794Y23150D1*
X24844Y23223D1*
Y23321D1*
X24794Y23394D1*
X24698Y23442D1*
X24068Y26604D2*
X23972Y26628D1*
X23874Y26677D1*
X23826Y26725D1*
Y26823D1*
X23874Y26871D1*
X23972Y26920D1*
X24068Y26944D1*
X24214Y26969D1*
X24458D1*
X24603Y26944D1*
X24700Y26920D1*
X24797Y26871D1*
X24846Y26823D1*
Y26725D1*
X24797Y26677D1*
X24700Y26628D1*
X24603Y26604D1*
X24458D1*
Y26725D1*
X23826Y26153D2*
X24846D1*
X23826Y26493D1*
X24846D1*
X23826Y26042D2*
X24846D1*
Y25872D1*
X24797Y25799D1*
X24700Y25750D1*
X24603Y25726D1*
X24458Y25701D1*
X24214D1*
X24068Y25726D1*
X23972Y25750D1*
X23874Y25799D1*
X23826Y25872D1*
Y26042D1*
X23856Y28639D2*
Y28373D1*
X24244Y28518D1*
Y28445D1*
X24292Y28397D1*
X24341Y28373D1*
X24487Y28348D1*
X24583D1*
X24729Y28373D1*
X24827Y28421D1*
X24875Y28494D1*
Y28567D1*
X24827Y28639D1*
X24778Y28664D1*
X24681Y28688D1*
X24195Y28237D2*
X24875Y28091D1*
X24195Y27945D1*
X23856Y27785D2*
Y27519D1*
X24244Y27664D1*
Y27591D1*
X24292Y27543D1*
X24341Y27519D1*
X24487Y27494D1*
X24583D1*
X24729Y27519D1*
X24827Y27567D1*
X24875Y27640D1*
Y27713D1*
X24827Y27785D1*
X24778Y27810D1*
X24681Y27834D1*
X23551Y29112D2*
X23527Y29016D1*
X23478Y28918D1*
X23429Y28870D1*
X23332D1*
X23283Y28918D1*
X23235Y29016D1*
X23210Y29112D1*
X23186Y29258D1*
Y29502D1*
X23210Y29647D1*
X23235Y29745D1*
X23283Y29841D1*
X23332Y29891D1*
X23429D1*
X23478Y29841D1*
X23527Y29745D1*
X23551Y29647D1*
Y29502D1*
X23429D1*
X24002Y28870D2*
Y29891D1*
X23662Y28870D1*
Y29891D1*
X24113Y28870D2*
Y29891D1*
X24283D1*
X24356Y29841D1*
X24405Y29745D1*
X24429Y29647D1*
X24453Y29502D1*
Y29258D1*
X24429Y29112D1*
X24405Y29016D1*
X24356Y28918D1*
X24283Y28870D1*
X24113D1*
X21063Y28893D2*
Y29914D1*
X21233D1*
X21306Y29864D1*
X21355Y29768D1*
X21379Y29670D1*
X21403Y29525D1*
Y29282D1*
X21379Y29136D1*
X21355Y29039D1*
X21306Y28941D1*
X21233Y28893D1*
X21063D1*
X21514Y29428D2*
X21733D1*
X21805Y29379D1*
X21830Y29330D1*
X21854Y29233D1*
Y29087D1*
X21830Y28991D1*
X21805Y28941D1*
X21733Y28893D1*
X21514D1*
Y29914D1*
X18545Y28890D2*
Y29911D1*
X18715D1*
X18788Y29862D1*
X18837Y29765D1*
X18861Y29667D1*
X18885Y29522D1*
Y29279D1*
X18861Y29133D1*
X18837Y29036D1*
X18788Y28938D1*
X18715Y28890D1*
X18545D1*
X19385Y29911D2*
Y28890D1*
X19191Y29911D1*
X18997Y28890D1*
Y29911D1*
X16534Y28938D2*
Y29959D1*
X16645Y28938D2*
Y29959D1*
X16816D1*
X16889Y29910D1*
X16937Y29813D1*
X16962Y29716D1*
X16986Y29571D1*
Y29327D1*
X16962Y29181D1*
X16937Y29084D1*
X16889Y28987D1*
X16816Y28938D1*
X16645D1*
X14543Y29146D2*
X14494Y29049D1*
X14421Y29000D1*
X14324D1*
X14251Y29049D1*
X14202Y29146D1*
Y29243D1*
X14227Y29341D1*
X14251Y29389D1*
X14300Y29437D1*
X14446Y29535D1*
X14494Y29583D1*
X14519Y29633D1*
X14543Y29729D1*
Y29875D1*
X14494Y29972D1*
X14421Y30021D1*
X14324D1*
X14251Y29972D1*
X14202Y29875D1*
X15018Y29243D2*
X14994Y29146D1*
X14945Y29049D1*
X14897Y29000D1*
X14800D1*
X14751Y29049D1*
X14703Y29146D1*
X14678Y29243D1*
X14654Y29389D1*
Y29633D1*
X14678Y29778D1*
X14703Y29875D1*
X14751Y29972D1*
X14800Y30021D1*
X14897D1*
X14945Y29972D1*
X14994Y29875D1*
X15018Y29778D1*
X15129Y29000D2*
Y30021D1*
X15421D1*
X13796Y28549D2*
X13894Y28500D1*
X13942Y28427D1*
Y28330D1*
X13894Y28257D1*
X13796Y28208D1*
X13699D1*
X13602Y28233D1*
X13553Y28257D1*
X13505Y28306D1*
X13407Y28452D1*
X13359Y28500D1*
X13310Y28525D1*
X13213Y28549D1*
X13067D1*
X12971Y28500D1*
X12921Y28427D1*
Y28330D1*
X12971Y28257D1*
X13067Y28208D1*
X13942Y28660D2*
X12921D1*
Y28830D1*
X12971Y28903D1*
X13067Y28952D1*
X13165Y28976D1*
X13310Y29000D1*
X13553D1*
X13699Y28976D1*
X13796Y28952D1*
X13894Y28903D1*
X13942Y28830D1*
Y28660D1*
X12921Y29500D2*
X13942Y29305D1*
X12921Y29111D1*
X13261Y29184D2*
Y29427D1*
X13950Y25513D2*
X12929D1*
X13950Y25964D2*
X12929D1*
X13950Y25624D1*
X12929D1*
X13950Y26245D2*
X12929D1*
X13950Y26075D2*
Y26415D1*
Y26527D2*
X12929D1*
Y26746D1*
X12978Y26819D1*
X13026Y26843D1*
X13123Y26867D1*
X13269D1*
X13367Y26843D1*
X13415Y26819D1*
X13463Y26746D1*
X13513Y26819D1*
X13561Y26843D1*
X13658Y26867D1*
X13755D1*
X13852Y26843D1*
X13901Y26819D1*
X13950Y26746D1*
Y26527D1*
X13463D2*
Y26746D1*
X13953Y23177D2*
X12932Y23371D1*
X13953Y23565D1*
Y23676D2*
X12932D1*
Y23895D1*
X12982Y23968D1*
X13030Y23992D1*
X13127Y24017D1*
X13273D1*
X13370Y23992D1*
X13419Y23968D1*
X13467Y23895D1*
X13516Y23968D1*
X13565Y23992D1*
X13661Y24017D1*
X13759D1*
X13855Y23992D1*
X13905Y23968D1*
X13953Y23895D1*
Y23676D1*
X13467D2*
Y23895D1*
X12932Y24517D2*
X13953Y24322D1*
X12932Y24128D1*
X13273Y24201D2*
Y24444D1*
X13953Y24798D2*
X12932D1*
X13953Y24628D2*
Y24968D1*
X13476Y20637D2*
Y20856D1*
X13525Y20928D1*
X13574Y20953D1*
X13671Y20977D1*
X13817D1*
X13913Y20953D1*
X13963Y20928D1*
X14011Y20856D1*
Y20637D1*
X12990D1*
X13865Y21428D2*
X13963Y21380D1*
X14011Y21307D1*
Y21210D1*
X13963Y21137D1*
X13865Y21088D1*
X13768D1*
X13671Y21113D1*
X13622Y21137D1*
X13574Y21185D1*
X13476Y21331D1*
X13428Y21380D1*
X13379Y21404D1*
X13282Y21428D1*
X13136D1*
X13039Y21380D1*
X12990Y21307D1*
Y21210D1*
X13039Y21137D1*
X13136Y21088D1*
X14011Y21855D2*
Y21539D1*
X12990D1*
Y21855D1*
X13525Y21539D2*
Y21734D1*
X14011Y21966D2*
X12990D1*
Y22258D1*
X14036Y17925D2*
X13015Y18119D1*
X14036Y18313D1*
Y18424D2*
X13015D1*
Y18643D1*
X13065Y18716D1*
X13113Y18740D1*
X13209Y18765D1*
X13355D1*
X13453Y18740D1*
X13501Y18716D1*
X13550Y18643D1*
X13599Y18716D1*
X13647Y18740D1*
X13744Y18765D1*
X13842D1*
X13938Y18740D1*
X13988Y18716D1*
X14036Y18643D1*
Y18424D1*
X13550D2*
Y18643D1*
X14036Y18876D2*
X13307D1*
X13161Y18900D1*
X13065Y18949D1*
X13015Y19022D1*
Y19070D1*
X13065Y19143D1*
X13161Y19192D1*
X13307Y19216D1*
X14036D1*
X13890Y19667D2*
X13988Y19619D1*
X14036Y19546D1*
Y19449D1*
X13988Y19376D1*
X13890Y19327D1*
X13793D1*
X13696Y19352D1*
X13647Y19376D1*
X13599Y19424D1*
X13501Y19570D1*
X13453Y19619D1*
X13404Y19643D1*
X13307Y19667D1*
X13161D1*
X13065Y19619D1*
X13015Y19546D1*
Y19449D1*
X13065Y19376D1*
X13161Y19327D1*
X13795Y16222D2*
X13891Y16198D1*
X13989Y16149D1*
X14037Y16101D1*
Y16004D1*
X13989Y15955D1*
X13891Y15907D1*
X13795Y15882D1*
X13649Y15858D1*
X13405D1*
X13260Y15882D1*
X13162Y15907D1*
X13066Y15955D1*
X13016Y16004D1*
Y16101D1*
X13066Y16149D1*
X13162Y16198D1*
X13260Y16222D1*
X13405D1*
Y16101D1*
X14037Y16674D2*
X13016D1*
X14037Y16333D1*
X13016D1*
X14037Y16785D2*
X13016D1*
Y16955D1*
X13066Y17028D1*
X13162Y17077D1*
X13260Y17101D1*
X13405Y17125D1*
X13649D1*
X13795Y17101D1*
X13891Y17077D1*
X13989Y17028D1*
X14037Y16955D1*
Y16785D1*
X14036Y13247D2*
Y13514D1*
X13648Y13368D1*
Y13441D1*
X13599Y13489D1*
X13551Y13514D1*
X13405Y13538D1*
X13308D1*
X13162Y13514D1*
X13065Y13465D1*
X13016Y13392D1*
Y13319D1*
X13065Y13247D1*
X13114Y13223D1*
X13211Y13198D1*
X13697Y13649D2*
X13016Y13795D1*
X13697Y13941D1*
X14036Y14101D2*
Y14368D1*
X13648Y14222D1*
Y14295D1*
X13599Y14343D1*
X13551Y14368D1*
X13405Y14392D1*
X13308D1*
X13162Y14368D1*
X13065Y14319D1*
X13016Y14246D1*
Y14173D1*
X13065Y14101D1*
X13114Y14077D1*
X13211Y14052D1*
M02*
