G04 DipTrace 2.4.0.2*
%INUSBBiPowerOTG.g2l*%
%MOMM*%
%ADD20C,0.457*%
%ADD22C,0.66*%
%ADD32C,0.127*%
%ADD40C,0.152*%
%ADD42R,1.6X1.7*%
%ADD43R,2.0X1.7*%
%ADD49R,1.7X1.6*%
%ADD50R,1.7X2.0*%
%ADD75C,0.711*%
%ADD84R,1.7X2.032*%
%ADD86O,0.853X1.053*%
%ADD88C,0.711*%
%FSLAX53Y53*%
G04*
G71*
G90*
G75*
G01*
%LNInner1*%
%LPD*%
D20*
X24194Y24146D3*
X18707Y19610D3*
X19723Y19339D3*
X20312Y19392D3*
X20902Y19400D3*
X22392Y19420D3*
X23384Y14938D3*
X22688Y13200D3*
X20304Y16717D3*
X20182Y21906D3*
X24199Y16500D3*
X24142Y21313D3*
D22*
X19018Y24852D3*
X19715Y23529D3*
D20*
X20278Y18544D3*
X23022Y18501D3*
X23800Y18285D3*
X24548Y15116D3*
X19066Y22664D3*
X14055Y29555D3*
X16541Y25478D3*
X16900Y24933D3*
X17779Y25244D3*
X13418Y21138D3*
D22*
X20576Y27595D3*
X13492Y26270D3*
D88*
X19271Y26186D3*
D20*
X16131Y26583D3*
X16101Y29241D3*
X18721Y27708D3*
X14085Y27800D3*
D22*
X18163Y21907D3*
X18539Y17883D3*
X13496Y18575D3*
D20*
X14279Y22719D3*
X14616Y23200D3*
X14981Y22724D3*
X14629Y26000D3*
X15158Y25732D3*
X12713Y25149D3*
X13147Y27113D3*
X14878Y19216D3*
X14893Y31983D2*
D40*
X15285D1*
X17432D2*
X17805D1*
X19990D2*
X20346D1*
X22531D2*
X24657D1*
X14893Y31835D2*
X15285D1*
X17432D2*
X17805D1*
X19990D2*
X20346D1*
X22531D2*
X24807D1*
X14893Y31686D2*
X15285D1*
X17432D2*
X17805D1*
X19990D2*
X20346D1*
X22531D2*
X24954D1*
X14893Y31537D2*
X15285D1*
X17432D2*
X17805D1*
X19990D2*
X20346D1*
X22531D2*
X25104D1*
X12544Y31389D2*
X12744D1*
X14893D2*
X15285D1*
X17432D2*
X17805D1*
X19990D2*
X20346D1*
X22531D2*
X25253D1*
X12394Y31240D2*
X12744D1*
X14893D2*
X15285D1*
X17432D2*
X17805D1*
X19990D2*
X20346D1*
X22531D2*
X25400D1*
X12247Y31091D2*
X12744D1*
X14893D2*
X15285D1*
X17432D2*
X17805D1*
X19990D2*
X20346D1*
X22531D2*
X25550D1*
X12098Y30943D2*
X12744D1*
X14893D2*
X15285D1*
X17432D2*
X17805D1*
X19990D2*
X20346D1*
X22531D2*
X25697D1*
X11948Y30794D2*
X12744D1*
X14893D2*
X15285D1*
X17432D2*
X17805D1*
X19990D2*
X20346D1*
X22531D2*
X25847D1*
X11801Y30645D2*
X12744D1*
X14893D2*
X15285D1*
X17432D2*
X17805D1*
X19990D2*
X20346D1*
X25873D2*
X25997D1*
X11651Y30497D2*
X22102D1*
X25873D2*
X26144D1*
X11504Y30348D2*
X22102D1*
X25873D2*
X26293D1*
X11354Y30199D2*
X22102D1*
X25873D2*
X26441D1*
X12302Y30051D2*
X22102D1*
X12302Y29902D2*
X13734D1*
X14375D2*
X22102D1*
X12302Y29753D2*
X13620D1*
X14487D2*
X22102D1*
X12302Y29605D2*
X13580D1*
X14530D2*
X22102D1*
X12302Y29456D2*
X13587D1*
X14522D2*
X22102D1*
X12302Y29307D2*
X13649D1*
X14461D2*
X22102D1*
X12302Y29159D2*
X13801D1*
X14309D2*
X22102D1*
X12302Y29010D2*
X22102D1*
X12302Y28861D2*
X22102D1*
X12302Y28713D2*
X22102D1*
X12302Y28564D2*
X22102D1*
X12302Y28415D2*
X22102D1*
X12302Y28267D2*
X22102D1*
X12302Y28118D2*
X13734D1*
X14437D2*
X20349D1*
X20804D2*
X22102D1*
X10759Y27969D2*
X13639D1*
X14532D2*
X20137D1*
X21013D2*
X22102D1*
X25873D2*
X27037D1*
X10759Y27821D2*
X13609D1*
X14563D2*
X20045D1*
X21108D2*
X22102D1*
X25873D2*
X27037D1*
X10759Y27672D2*
X13625D1*
X14546D2*
X20002D1*
X21151D2*
X22102D1*
X25873D2*
X27037D1*
X12302Y27523D2*
X12917D1*
X13375D2*
X13699D1*
X14473D2*
X20002D1*
X21151D2*
X27037D1*
X12302Y27375D2*
X12751D1*
X13544D2*
X13886D1*
X14283D2*
X20042D1*
X21111D2*
X27037D1*
X12302Y27226D2*
X12682D1*
X13610D2*
X20135D1*
X21018D2*
X27037D1*
X12302Y27077D2*
X12670D1*
X13622D2*
X20337D1*
X20816D2*
X27037D1*
X12302Y26929D2*
X12706D1*
X13587D2*
X15808D1*
X16453D2*
X27037D1*
X12302Y26780D2*
X12811D1*
X13748D2*
X15696D1*
X16565D2*
X27037D1*
X12302Y26631D2*
X13043D1*
X13941D2*
X15656D1*
X16605D2*
X18869D1*
X19674D2*
X27037D1*
X12302Y26483D2*
X12953D1*
X14028D2*
X15663D1*
X16598D2*
X18746D1*
X19795D2*
X27037D1*
X12302Y26334D2*
X12915D1*
X14066D2*
X14333D1*
X14926D2*
X15725D1*
X16536D2*
X18684D1*
X19857D2*
X27037D1*
X12302Y26185D2*
X12917D1*
X14064D2*
X14219D1*
X15040D2*
X15879D1*
X16382D2*
X18665D1*
X19876D2*
X27037D1*
X12302Y26037D2*
X12963D1*
X14021D2*
X14179D1*
X15487D2*
X18686D1*
X19857D2*
X27037D1*
X12302Y25888D2*
X13060D1*
X13922D2*
X14190D1*
X15582D2*
X16373D1*
X16707D2*
X18746D1*
X19795D2*
X27037D1*
X12302Y25739D2*
X13283D1*
X13698D2*
X14262D1*
X15610D2*
X16176D1*
X16907D2*
X18872D1*
X19671D2*
X27037D1*
X12302Y25591D2*
X14459D1*
X15586D2*
X16102D1*
X16978D2*
X17496D1*
X18059D2*
X27037D1*
X10759Y25442D2*
X12374D1*
X13055D2*
X14815D1*
X15501D2*
X16090D1*
X16992D2*
X17373D1*
X18185D2*
X27037D1*
X10759Y25293D2*
X12286D1*
X13143D2*
X16128D1*
X17163D2*
X17328D1*
X18227D2*
X18670D1*
X19365D2*
X27037D1*
X10759Y25145D2*
X12262D1*
X13166D2*
X16242D1*
X18220D2*
X18530D1*
X19508D2*
X27037D1*
X13138Y24996D2*
X16451D1*
X18154D2*
X18461D1*
X19574D2*
X25469D1*
X13045Y24847D2*
X16456D1*
X17344D2*
X17577D1*
X17978D2*
X18439D1*
X19598D2*
X25469D1*
X12328Y24699D2*
X16516D1*
X17285D2*
X18456D1*
X19579D2*
X25469D1*
X12328Y24550D2*
X16675D1*
X17125D2*
X18518D1*
X19519D2*
X23954D1*
X24433D2*
X25469D1*
X12328Y24401D2*
X18644D1*
X19391D2*
X23793D1*
X24595D2*
X25469D1*
X12328Y24253D2*
X23728D1*
X24659D2*
X25469D1*
X12328Y24104D2*
X23719D1*
X24671D2*
X25469D1*
X12328Y23955D2*
X19330D1*
X20099D2*
X23757D1*
X24630D2*
X25469D1*
X12328Y23807D2*
X19209D1*
X20222D2*
X23864D1*
X24524D2*
X25469D1*
X12328Y23658D2*
X19149D1*
X20279D2*
X25469D1*
X12328Y23509D2*
X14293D1*
X14940D2*
X19135D1*
X20294D2*
X25469D1*
X12328Y23361D2*
X14195D1*
X15038D2*
X19161D1*
X20270D2*
X25469D1*
X12328Y23212D2*
X14164D1*
X15069D2*
X19233D1*
X20196D2*
X25469D1*
X12328Y23063D2*
X13993D1*
X15273D2*
X18817D1*
X20049D2*
X25469D1*
X12328Y22915D2*
X13872D1*
X15389D2*
X18660D1*
X19470D2*
X25469D1*
X10759Y22766D2*
X13829D1*
X15432D2*
X18598D1*
X19531D2*
X27037D1*
X10759Y22617D2*
X13839D1*
X15420D2*
X18589D1*
X19541D2*
X27037D1*
X12302Y22469D2*
X13905D1*
X15351D2*
X18093D1*
X18235D2*
X18632D1*
X19500D2*
X25493D1*
X12302Y22320D2*
X14084D1*
X14473D2*
X14798D1*
X15166D2*
X17762D1*
X18562D2*
X18741D1*
X19391D2*
X25493D1*
X12302Y22171D2*
X17648D1*
X18676D2*
X25493D1*
X12302Y22023D2*
X17596D1*
X18731D2*
X25493D1*
X12302Y21874D2*
X17584D1*
X18740D2*
X25493D1*
X12302Y21725D2*
X17613D1*
X18712D2*
X25493D1*
X12302Y21577D2*
X17691D1*
X18636D2*
X25493D1*
X12302Y21428D2*
X17850D1*
X18477D2*
X25493D1*
X12302Y21279D2*
X25493D1*
X12302Y21131D2*
X25493D1*
X12302Y20982D2*
X25493D1*
X12302Y20833D2*
X25493D1*
X12302Y20685D2*
X25493D1*
X12302Y20536D2*
X25493D1*
X12302Y20387D2*
X25493D1*
X10759Y20239D2*
X27037D1*
X10759Y20090D2*
X27037D1*
X12328Y19941D2*
X18370D1*
X19044D2*
X25469D1*
X12328Y19793D2*
X18268D1*
X19147D2*
X20121D1*
X20503D2*
X20693D1*
X21111D2*
X22102D1*
X22681D2*
X25469D1*
X12328Y19644D2*
X18230D1*
X19185D2*
X19394D1*
X21279D2*
X21971D1*
X22811D2*
X25469D1*
X12328Y19495D2*
X18245D1*
X19170D2*
X19299D1*
X21343D2*
X21921D1*
X22863D2*
X25469D1*
X12328Y19347D2*
X18311D1*
X19104D2*
X19271D1*
X21351D2*
X21919D1*
X22863D2*
X25469D1*
X12328Y19198D2*
X18480D1*
X18935D2*
X19294D1*
X21305D2*
X21971D1*
X22814D2*
X25469D1*
X12328Y19049D2*
X13174D1*
X13817D2*
X19380D1*
X21177D2*
X22099D1*
X22685D2*
X25469D1*
X12328Y18901D2*
X13020D1*
X13971D2*
X22774D1*
X23270D2*
X25469D1*
X12328Y18752D2*
X12944D1*
X14047D2*
X22617D1*
X23426D2*
X25469D1*
X12328Y18603D2*
X12917D1*
X14074D2*
X22555D1*
X24151D2*
X25469D1*
X12328Y18455D2*
X12929D1*
X14062D2*
X22546D1*
X24246D2*
X25469D1*
X12328Y18306D2*
X12984D1*
X14007D2*
X18150D1*
X18928D2*
X22586D1*
X24277D2*
X25469D1*
X12328Y18157D2*
X13103D1*
X13891D2*
X18031D1*
X19047D2*
X22698D1*
X24260D2*
X25469D1*
X12328Y18009D2*
X17974D1*
X19104D2*
X23413D1*
X24186D2*
X25469D1*
X12328Y17860D2*
X17960D1*
X19118D2*
X23600D1*
X23999D2*
X25469D1*
X10759Y17711D2*
X17986D1*
X19092D2*
X27037D1*
X10759Y17563D2*
X18059D1*
X19018D2*
X27037D1*
X10759Y17414D2*
X18211D1*
X18866D2*
X25493D1*
X10759Y17265D2*
X25493D1*
X10759Y17117D2*
X20111D1*
X20496D2*
X25493D1*
X10759Y16968D2*
X13578D1*
X14617D2*
X19931D1*
X20676D2*
X25493D1*
X10759Y16819D2*
X13433D1*
X14762D2*
X19864D1*
X20745D2*
X25493D1*
X10759Y16671D2*
X13426D1*
X14769D2*
X19855D1*
X20754D2*
X25493D1*
X10759Y16522D2*
X13426D1*
X14769D2*
X19898D1*
X20712D2*
X25493D1*
X10759Y16373D2*
X13426D1*
X14769D2*
X20019D1*
X20591D2*
X25493D1*
X10759Y16225D2*
X13426D1*
X14769D2*
X25493D1*
X10759Y16076D2*
X13426D1*
X14769D2*
X25493D1*
X10759Y15927D2*
X12549D1*
X15855D2*
X25493D1*
X10759Y15779D2*
X12395D1*
X15945D2*
X25493D1*
X10759Y15630D2*
X12388D1*
X15945D2*
X25493D1*
X10759Y15481D2*
X12388D1*
X15945D2*
X24249D1*
X24847D2*
X25493D1*
X10759Y15333D2*
X12388D1*
X15945D2*
X23180D1*
X23588D2*
X24125D1*
X24972D2*
X25493D1*
X10759Y15184D2*
X12388D1*
X15945D2*
X19168D1*
X20189D2*
X23006D1*
X23761D2*
X24075D1*
X25020D2*
X27037D1*
X10759Y15035D2*
X12388D1*
X15945D2*
X19007D1*
X20348D2*
X22942D1*
X23825D2*
X24078D1*
X25020D2*
X27037D1*
X15945Y14887D2*
X19000D1*
X20358D2*
X22935D1*
X23832D2*
X24132D1*
X24965D2*
X27037D1*
X15945Y14738D2*
X19000D1*
X20358D2*
X22980D1*
X23787D2*
X24265D1*
X24830D2*
X25493D1*
X15945Y14589D2*
X19000D1*
X20358D2*
X23104D1*
X23661D2*
X25493D1*
X15945Y14441D2*
X19000D1*
X20358D2*
X25493D1*
X15945Y14292D2*
X19000D1*
X20358D2*
X25493D1*
X15945Y14143D2*
X19000D1*
X20358D2*
X25493D1*
X15945Y13995D2*
X19000D1*
X20358D2*
X25493D1*
X15945Y13846D2*
X19000D1*
X20358D2*
X25493D1*
X15945Y13697D2*
X19000D1*
X20358D2*
X25493D1*
X23008Y13549D2*
X25493D1*
X23120Y13400D2*
X25493D1*
X23163Y13251D2*
X25493D1*
X23156Y13103D2*
X25493D1*
X23094Y12954D2*
X25493D1*
X22944Y12805D2*
X25493D1*
X11373Y12657D2*
X12388D1*
X22384D2*
X26422D1*
X11523Y12508D2*
X12388D1*
X22384D2*
X26272D1*
X11672Y12359D2*
X12388D1*
X22384D2*
X26125D1*
X11820Y12211D2*
X12388D1*
X22384D2*
X25975D1*
X11969Y12062D2*
X12388D1*
X22384D2*
X25828D1*
X12117Y11913D2*
X12388D1*
X22384D2*
X25678D1*
X12266Y11765D2*
X12388D1*
X22384D2*
X25529D1*
X22384Y11616D2*
X25381D1*
X22384Y11467D2*
X25232D1*
X22384Y11319D2*
X25085D1*
X22384Y11170D2*
X24935D1*
X22384Y11021D2*
X24785D1*
X22384Y10873D2*
X24638D1*
X25585Y14877D2*
X27052D1*
Y15300D1*
X26579Y15301D1*
X26615Y15299D1*
X25509D1*
Y17417D1*
X27052Y17420D1*
Y17812D1*
X26554Y17814D1*
X25484D1*
Y19982D1*
X27053D1*
X27052Y20377D1*
X26579Y20379D1*
X25509D1*
Y22497D1*
X27052D1*
Y22895D1*
X26554Y22894D1*
X25484D1*
Y25062D1*
X27053D1*
X27052Y26160D1*
Y27973D1*
X26554Y27974D1*
X25854D1*
X25857Y27707D1*
Y27647D1*
X22117D1*
Y30571D1*
X20361D1*
Y32131D1*
X19974Y32132D1*
X19975Y30571D1*
X17821D1*
Y32131D1*
X17419Y32132D1*
X17417Y31643D1*
Y30589D1*
X15299D1*
Y32130D1*
X14877Y32132D1*
X14875Y31659D1*
X14877Y31695D1*
Y30589D1*
X12759D1*
X12757Y31617D1*
X11257Y30117D1*
X12287D1*
Y27999D1*
X10744D1*
Y27576D1*
X11217Y27575D1*
X11181Y27577D1*
X12287D1*
Y25459D1*
X10744Y25456D1*
Y25064D1*
X11242Y25062D1*
X12284D1*
X12276Y25142D1*
X12281Y25218D1*
X12299Y25292D1*
X12330Y25361D1*
X12373Y25424D1*
X12425Y25479D1*
X12486Y25524D1*
X12554Y25557D1*
X12627Y25579D1*
X12703Y25587D1*
X12778Y25582D1*
X12852Y25564D1*
X12922Y25534D1*
X12985Y25492D1*
X13040Y25440D1*
X13086Y25379D1*
X13120Y25311D1*
X13142Y25239D1*
X13151Y25149D1*
X13144Y25074D1*
X13125Y25000D1*
X13093Y24932D1*
X13050Y24869D1*
X12996Y24815D1*
X12934Y24772D1*
X12866Y24739D1*
X12792Y24719D1*
X12717Y24712D1*
X12641Y24718D1*
X12568Y24737D1*
X12498Y24768D1*
X12436Y24811D1*
X12381Y24864D1*
X12337Y24926D1*
X12311Y24979D1*
X12312Y22894D1*
X10743D1*
X10744Y22499D1*
X11217Y22497D1*
X12287D1*
Y20379D1*
X10744D1*
Y19981D1*
X11242Y19982D1*
X12312D1*
Y17814D1*
X10743D1*
X10744Y16716D1*
Y14903D1*
X11242Y14902D1*
X12312D1*
Y12734D1*
X11284D1*
X12403Y11613D1*
X12401Y12470D1*
X12402Y15724D1*
X12415Y15798D1*
X12455Y15863D1*
X12514Y15909D1*
X12589Y15931D1*
X13219Y15933D1*
X13440D1*
X13441Y16332D1*
Y16768D1*
X13455Y16842D1*
X13494Y16906D1*
X13554Y16953D1*
X13628Y16975D1*
X14258Y16977D1*
X14545D1*
X14619Y16963D1*
X14684Y16924D1*
X14730Y16864D1*
X14752Y16790D1*
X14754Y16160D1*
Y15962D1*
X15722Y15963D1*
X15796Y15950D1*
X15861Y15910D1*
X15907Y15851D1*
X15929Y15776D1*
X15931Y15146D1*
Y13562D1*
X16254Y13564D1*
X19016D1*
X19015Y14495D1*
Y14979D1*
X19028Y15054D1*
X19067Y15118D1*
X19127Y15165D1*
X19202Y15187D1*
X19832Y15188D1*
X20133D1*
X20207Y15175D1*
X20272Y15136D1*
X20318Y15076D1*
X20340Y15001D1*
X20342Y14371D1*
Y13595D1*
X22159Y13594D1*
X22234Y13580D1*
X22300Y13539D1*
X22279Y13556D1*
X22333Y13500D1*
X22423Y13580D1*
X22488Y13618D1*
X22559Y13645D1*
X22634Y13660D1*
X22710Y13663D1*
X22785Y13653D1*
X22858Y13631D1*
X22926Y13598D1*
X22988Y13554D1*
X23041Y13500D1*
X23085Y13438D1*
X23119Y13370D1*
X23141Y13297D1*
X23151Y13200D1*
X23145Y13125D1*
X23126Y13051D1*
X23096Y12982D1*
X23055Y12918D1*
X23004Y12862D1*
X22944Y12815D1*
X22878Y12778D1*
X22806Y12753D1*
X22731Y12739D1*
X22655Y12738D1*
X22580Y12750D1*
X22508Y12774D1*
X22441Y12809D1*
X22369Y12866D1*
X22368Y10742D1*
X22816Y10744D1*
X24524D1*
X26539Y12759D1*
X25509D1*
Y14877D1*
X25585D1*
X25856Y30142D2*
X26512D1*
X25140Y31516D1*
X24524Y32132D1*
X22515D1*
Y30747D1*
X25857D1*
Y30141D1*
X24651Y24070D2*
X24632Y23996D1*
X24602Y23927D1*
X24561Y23863D1*
X24510Y23807D1*
X24450Y23760D1*
X24384Y23723D1*
X24312Y23698D1*
X24237Y23685D1*
X24162Y23684D1*
X24086Y23695D1*
X24014Y23719D1*
X23947Y23754D1*
X23886Y23800D1*
X23834Y23855D1*
X23791Y23917D1*
X23759Y23986D1*
X23739Y24059D1*
X23731Y24135D1*
X23736Y24211D1*
X23752Y24285D1*
X23781Y24355D1*
X23821Y24420D1*
X23871Y24477D1*
X23929Y24525D1*
X23995Y24564D1*
X24066Y24591D1*
X24140Y24606D1*
X24216Y24608D1*
X24291Y24598D1*
X24364Y24577D1*
X24432Y24543D1*
X24494Y24499D1*
X24547Y24445D1*
X24591Y24383D1*
X24625Y24315D1*
X24647Y24243D1*
X24657Y24146D1*
X24651Y24070D1*
X19164Y19534D2*
X19146Y19460D1*
X19115Y19391D1*
X19074Y19327D1*
X19023Y19271D1*
X18963Y19224D1*
X18897Y19187D1*
X18825Y19162D1*
X18751Y19149D1*
X18675Y19148D1*
X18600Y19159D1*
X18528Y19183D1*
X18460Y19218D1*
X18400Y19264D1*
X18347Y19318D1*
X18304Y19381D1*
X18273Y19450D1*
X18252Y19523D1*
X18244Y19599D1*
X18249Y19675D1*
X18266Y19749D1*
X18294Y19819D1*
X18334Y19884D1*
X18384Y19941D1*
X18442Y19989D1*
X18508Y20028D1*
X18579Y20054D1*
X18653Y20069D1*
X18729Y20072D1*
X18804Y20062D1*
X18877Y20040D1*
X18945Y20007D1*
X19007Y19963D1*
X19061Y19909D1*
X19105Y19847D1*
X19138Y19779D1*
X19160Y19706D1*
X19170Y19610D1*
X19164Y19534D1*
X20044Y19044D2*
X20005Y19005D1*
X19943Y18961D1*
X19875Y18929D1*
X19802Y18909D1*
X19726Y18901D1*
X19650Y18907D1*
X19577Y18926D1*
X19508Y18958D1*
X19445Y19001D1*
X19391Y19054D1*
X19346Y19115D1*
X19313Y19184D1*
X19293Y19257D1*
X19285Y19332D1*
X19290Y19408D1*
X19309Y19481D1*
X19339Y19551D1*
X19382Y19614D1*
X19434Y19669D1*
X19496Y19713D1*
X19564Y19747D1*
X19637Y19768D1*
X19712Y19777D1*
X19788Y19772D1*
X19862Y19754D1*
X19931Y19724D1*
X19989Y19686D1*
X20024Y19722D1*
X20085Y19766D1*
X20153Y19800D1*
X20226Y19821D1*
X20301Y19830D1*
X20377Y19825D1*
X20451Y19807D1*
X20521Y19777D1*
X20603Y19717D1*
X20675Y19774D1*
X20743Y19808D1*
X20816Y19829D1*
X20891Y19838D1*
X20967Y19833D1*
X21041Y19815D1*
X21110Y19785D1*
X21174Y19743D1*
X21229Y19691D1*
X21274Y19630D1*
X21308Y19562D1*
X21330Y19490D1*
X21339Y19400D1*
X21333Y19324D1*
X21313Y19251D1*
X21281Y19182D1*
X21238Y19120D1*
X21185Y19066D1*
X21123Y19022D1*
X21054Y18990D1*
X20981Y18970D1*
X20905Y18962D1*
X20830Y18968D1*
X20756Y18987D1*
X20687Y19019D1*
X20612Y19073D1*
X20533Y19014D1*
X20464Y18982D1*
X20391Y18962D1*
X20315Y18954D1*
X20240Y18960D1*
X20166Y18979D1*
X20097Y19011D1*
X20048Y19044D1*
X22849Y19344D2*
X22830Y19271D1*
X22800Y19201D1*
X22759Y19137D1*
X22708Y19081D1*
X22648Y19034D1*
X22581Y18997D1*
X22510Y18972D1*
X22435Y18959D1*
X22359Y18958D1*
X22284Y18969D1*
X22212Y18993D1*
X22145Y19028D1*
X22084Y19074D1*
X22032Y19129D1*
X21989Y19192D1*
X21957Y19260D1*
X21937Y19334D1*
X21929Y19409D1*
X21933Y19485D1*
X21950Y19559D1*
X21979Y19629D1*
X22018Y19694D1*
X22068Y19751D1*
X22127Y19800D1*
X22192Y19838D1*
X22263Y19865D1*
X22338Y19880D1*
X22414Y19882D1*
X22489Y19873D1*
X22562Y19851D1*
X22630Y19817D1*
X22691Y19773D1*
X22745Y19719D1*
X22789Y19658D1*
X22823Y19589D1*
X22845Y19517D1*
X22855Y19420D1*
X22849Y19344D1*
X23815Y14863D2*
X23795Y14789D1*
X23763Y14721D1*
X23720Y14658D1*
X23666Y14604D1*
X23604Y14560D1*
X23536Y14528D1*
X23463Y14508D1*
X23387Y14501D1*
X23311Y14507D1*
X23238Y14526D1*
X23169Y14557D1*
X23106Y14600D1*
X23052Y14653D1*
X23007Y14714D1*
X22974Y14783D1*
X22954Y14856D1*
X22946Y14931D1*
X22951Y15007D1*
X22970Y15081D1*
X23000Y15150D1*
X23043Y15213D1*
X23095Y15268D1*
X23157Y15313D1*
X23225Y15346D1*
X23298Y15368D1*
X23373Y15376D1*
X23449Y15371D1*
X23523Y15353D1*
X23592Y15323D1*
X23655Y15281D1*
X23711Y15229D1*
X23756Y15168D1*
X23790Y15100D1*
X23812Y15028D1*
X23821Y14938D1*
X23815Y14863D1*
X20735Y16641D2*
X20715Y16568D1*
X20684Y16499D1*
X20640Y16436D1*
X20587Y16383D1*
X20525Y16339D1*
X20456Y16306D1*
X20383Y16286D1*
X20307Y16279D1*
X20232Y16285D1*
X20158Y16304D1*
X20089Y16335D1*
X20026Y16378D1*
X19972Y16431D1*
X19928Y16493D1*
X19895Y16561D1*
X19874Y16634D1*
X19866Y16710D1*
X19872Y16785D1*
X19890Y16859D1*
X19921Y16928D1*
X19963Y16991D1*
X20016Y17046D1*
X20077Y17091D1*
X20145Y17124D1*
X20218Y17146D1*
X20293Y17154D1*
X20369Y17149D1*
X20443Y17132D1*
X20513Y17101D1*
X20576Y17060D1*
X20631Y17007D1*
X20676Y16946D1*
X20710Y16879D1*
X20732Y16806D1*
X20742Y16717D1*
X20735Y16641D1*
X19577Y24762D2*
X19562Y24688D1*
X19537Y24616D1*
X19503Y24548D1*
X19459Y24486D1*
X19408Y24430D1*
X19350Y24381D1*
X19286Y24341D1*
X19216Y24309D1*
X19144Y24287D1*
X19069Y24275D1*
X18993Y24274D1*
X18917Y24282D1*
X18844Y24301D1*
X18773Y24329D1*
X18707Y24366D1*
X18647Y24412D1*
X18593Y24466D1*
X18547Y24526D1*
X18509Y24592D1*
X18481Y24663D1*
X18462Y24736D1*
X18454Y24812D1*
X18455Y24888D1*
X18467Y24963D1*
X18489Y25035D1*
X18520Y25105D1*
X18560Y25169D1*
X18609Y25227D1*
X18665Y25279D1*
X18727Y25322D1*
X18795Y25357D1*
X18867Y25382D1*
X18941Y25397D1*
X19017Y25402D1*
X19093Y25397D1*
X19167Y25382D1*
X19239Y25357D1*
X19306Y25323D1*
X19369Y25280D1*
X19425Y25229D1*
X19474Y25171D1*
X19514Y25106D1*
X19546Y25037D1*
X19568Y24965D1*
X19582Y24838D1*
X19577Y24762D1*
X20274Y23453D2*
X20259Y23379D1*
X20234Y23307D1*
X20200Y23239D1*
X20156Y23177D1*
X20105Y23121D1*
X20047Y23072D1*
X19983Y23032D1*
X19914Y23000D1*
X19841Y22978D1*
X19766Y22966D1*
X19690Y22965D1*
X19614Y22973D1*
X19541Y22992D1*
X19470Y23020D1*
X19404Y23057D1*
X19344Y23103D1*
X19290Y23157D1*
X19244Y23217D1*
X19206Y23283D1*
X19178Y23354D1*
X19159Y23427D1*
X19151Y23503D1*
X19152Y23579D1*
X19164Y23654D1*
X19186Y23726D1*
X19217Y23796D1*
X19258Y23860D1*
X19306Y23918D1*
X19362Y23970D1*
X19425Y24013D1*
X19492Y24048D1*
X19564Y24073D1*
X19638Y24088D1*
X19714Y24093D1*
X19790Y24088D1*
X19864Y24073D1*
X19936Y24048D1*
X20004Y24014D1*
X20066Y23971D1*
X20122Y23920D1*
X20171Y23862D1*
X20212Y23797D1*
X20243Y23728D1*
X20265Y23656D1*
X20280Y23529D1*
X20274Y23453D1*
X23349Y18174D2*
X23278Y18115D1*
X23212Y18078D1*
X23140Y18053D1*
X23065Y18040D1*
X22989Y18039D1*
X22914Y18051D1*
X22842Y18074D1*
X22775Y18109D1*
X22714Y18155D1*
X22662Y18210D1*
X22619Y18273D1*
X22587Y18341D1*
X22567Y18415D1*
X22559Y18490D1*
X22563Y18566D1*
X22580Y18640D1*
X22609Y18710D1*
X22649Y18775D1*
X22698Y18832D1*
X22757Y18881D1*
X22822Y18919D1*
X22893Y18946D1*
X22968Y18961D1*
X23044Y18963D1*
X23119Y18954D1*
X23192Y18932D1*
X23260Y18898D1*
X23321Y18854D1*
X23375Y18800D1*
X23419Y18739D1*
X23453Y18670D1*
X23471Y18609D1*
X23534Y18665D1*
X23600Y18703D1*
X23671Y18730D1*
X23745Y18745D1*
X23821Y18747D1*
X23897Y18738D1*
X23969Y18716D1*
X24037Y18682D1*
X24099Y18638D1*
X24153Y18584D1*
X24197Y18523D1*
X24230Y18454D1*
X24252Y18382D1*
X24263Y18285D1*
X24256Y18209D1*
X24238Y18136D1*
X24208Y18066D1*
X24166Y18002D1*
X24115Y17946D1*
X24056Y17899D1*
X23989Y17862D1*
X23918Y17837D1*
X23843Y17824D1*
X23767Y17823D1*
X23692Y17834D1*
X23620Y17858D1*
X23552Y17893D1*
X23492Y17939D1*
X23439Y17994D1*
X23397Y18057D1*
X23365Y18125D1*
X23351Y18173D1*
X25005Y15040D2*
X24986Y14967D1*
X24956Y14897D1*
X24915Y14833D1*
X24864Y14777D1*
X24804Y14730D1*
X24738Y14694D1*
X24666Y14668D1*
X24591Y14655D1*
X24516Y14654D1*
X24441Y14666D1*
X24368Y14689D1*
X24301Y14724D1*
X24240Y14770D1*
X24188Y14825D1*
X24145Y14888D1*
X24113Y14957D1*
X24093Y15030D1*
X24085Y15105D1*
X24090Y15181D1*
X24106Y15255D1*
X24135Y15325D1*
X24175Y15390D1*
X24225Y15447D1*
X24283Y15496D1*
X24349Y15534D1*
X24420Y15561D1*
X24494Y15576D1*
X24570Y15579D1*
X24645Y15569D1*
X24718Y15547D1*
X24786Y15513D1*
X24848Y15469D1*
X24901Y15415D1*
X24946Y15354D1*
X24979Y15286D1*
X25001Y15213D1*
X25011Y15116D1*
X25005Y15040D1*
X19522Y22589D2*
X19504Y22515D1*
X19474Y22445D1*
X19432Y22382D1*
X19381Y22325D1*
X19322Y22278D1*
X19255Y22242D1*
X19184Y22216D1*
X19109Y22203D1*
X19033Y22202D1*
X18958Y22214D1*
X18886Y22237D1*
X18818Y22273D1*
X18758Y22318D1*
X18705Y22373D1*
X18663Y22436D1*
X18631Y22505D1*
X18611Y22578D1*
X18603Y22653D1*
X18607Y22729D1*
X18624Y22803D1*
X18652Y22873D1*
X18692Y22938D1*
X18742Y22995D1*
X18800Y23044D1*
X18866Y23082D1*
X18937Y23109D1*
X19011Y23124D1*
X19087Y23127D1*
X19163Y23117D1*
X19235Y23095D1*
X19303Y23062D1*
X19365Y23017D1*
X19419Y22964D1*
X19463Y22902D1*
X19496Y22834D1*
X19518Y22761D1*
X19529Y22664D1*
X19522Y22589D1*
X14511Y29479D2*
X14493Y29405D1*
X14463Y29336D1*
X14421Y29272D1*
X14370Y29216D1*
X14311Y29169D1*
X14244Y29132D1*
X14173Y29107D1*
X14098Y29094D1*
X14022Y29093D1*
X13947Y29104D1*
X13875Y29128D1*
X13808Y29163D1*
X13747Y29209D1*
X13694Y29264D1*
X13652Y29326D1*
X13620Y29395D1*
X13600Y29468D1*
X13592Y29544D1*
X13596Y29620D1*
X13613Y29694D1*
X13642Y29764D1*
X13681Y29829D1*
X13731Y29886D1*
X13790Y29934D1*
X13855Y29973D1*
X13926Y30000D1*
X14000Y30015D1*
X14076Y30017D1*
X14152Y30008D1*
X14224Y29986D1*
X14292Y29952D1*
X14354Y29908D1*
X14408Y29854D1*
X14452Y29792D1*
X14485Y29724D1*
X14507Y29652D1*
X14518Y29555D1*
X14511Y29479D1*
X16972Y25402D2*
X16965Y25366D1*
X17039Y25348D1*
X17108Y25318D1*
X17172Y25276D1*
X17227Y25224D1*
X17272Y25163D1*
X17306Y25095D1*
X17328Y25023D1*
X17337Y24933D1*
X17331Y24858D1*
X17311Y24784D1*
X17279Y24716D1*
X17236Y24653D1*
X17183Y24599D1*
X17121Y24556D1*
X17052Y24523D1*
X16979Y24503D1*
X16903Y24496D1*
X16828Y24502D1*
X16754Y24521D1*
X16685Y24552D1*
X16622Y24595D1*
X16568Y24648D1*
X16524Y24710D1*
X16491Y24778D1*
X16470Y24851D1*
X16462Y24926D1*
X16468Y25002D1*
X16478Y25046D1*
X16395Y25065D1*
X16326Y25097D1*
X16263Y25139D1*
X16209Y25192D1*
X16165Y25254D1*
X16132Y25322D1*
X16111Y25395D1*
X16103Y25471D1*
X16108Y25547D1*
X16127Y25620D1*
X16158Y25690D1*
X16200Y25753D1*
X16253Y25807D1*
X16314Y25852D1*
X16382Y25886D1*
X16455Y25907D1*
X16530Y25915D1*
X16606Y25911D1*
X16680Y25893D1*
X16749Y25863D1*
X16813Y25821D1*
X16868Y25769D1*
X16913Y25708D1*
X16947Y25640D1*
X16969Y25567D1*
X16978Y25478D1*
X16972Y25402D1*
X18210Y25168D2*
X18190Y25095D1*
X18158Y25026D1*
X18115Y24963D1*
X18061Y24910D1*
X17999Y24866D1*
X17931Y24833D1*
X17858Y24813D1*
X17782Y24806D1*
X17706Y24812D1*
X17633Y24831D1*
X17564Y24862D1*
X17501Y24905D1*
X17447Y24958D1*
X17402Y25020D1*
X17369Y25088D1*
X17349Y25161D1*
X17341Y25237D1*
X17346Y25312D1*
X17365Y25386D1*
X17395Y25455D1*
X17438Y25518D1*
X17490Y25573D1*
X17552Y25618D1*
X17620Y25651D1*
X17693Y25673D1*
X17768Y25681D1*
X17844Y25676D1*
X17918Y25659D1*
X17987Y25628D1*
X18051Y25587D1*
X18106Y25534D1*
X18151Y25473D1*
X18185Y25406D1*
X18207Y25333D1*
X18216Y25244D1*
X18210Y25168D1*
X21136Y27520D2*
X21121Y27445D1*
X21096Y27374D1*
X21061Y27306D1*
X21018Y27243D1*
X20967Y27187D1*
X20908Y27139D1*
X20844Y27098D1*
X20775Y27067D1*
X20702Y27045D1*
X20627Y27033D1*
X20551Y27031D1*
X20476Y27040D1*
X20402Y27058D1*
X20332Y27086D1*
X20266Y27124D1*
X20205Y27170D1*
X20151Y27224D1*
X20105Y27284D1*
X20068Y27350D1*
X20039Y27420D1*
X20021Y27494D1*
X20012Y27569D1*
X20014Y27645D1*
X20026Y27720D1*
X20047Y27793D1*
X20079Y27862D1*
X20119Y27927D1*
X20168Y27985D1*
X20224Y28036D1*
X20286Y28080D1*
X20354Y28114D1*
X20425Y28139D1*
X20500Y28155D1*
X20575Y28160D1*
X20651Y28155D1*
X20725Y28140D1*
X20797Y28115D1*
X20865Y28081D1*
X20927Y28038D1*
X20984Y27986D1*
X21032Y27928D1*
X21073Y27864D1*
X21105Y27795D1*
X21127Y27722D1*
X21141Y27595D1*
X21136Y27520D1*
X14051Y26194D2*
X14036Y26120D1*
X14011Y26048D1*
X13976Y25980D1*
X13933Y25918D1*
X13882Y25862D1*
X13824Y25813D1*
X13759Y25773D1*
X13690Y25741D1*
X13618Y25719D1*
X13543Y25708D1*
X13467Y25706D1*
X13391Y25714D1*
X13318Y25733D1*
X13247Y25761D1*
X13181Y25798D1*
X13121Y25844D1*
X13067Y25898D1*
X13021Y25958D1*
X12983Y26024D1*
X12955Y26095D1*
X12936Y26168D1*
X12928Y26244D1*
X12929Y26320D1*
X12941Y26395D1*
X12963Y26468D1*
X12994Y26537D1*
X13034Y26601D1*
X13078Y26654D1*
X12967Y26686D1*
X12900Y26721D1*
X12839Y26767D1*
X12787Y26822D1*
X12744Y26884D1*
X12712Y26953D1*
X12692Y27026D1*
X12684Y27102D1*
X12688Y27178D1*
X12705Y27252D1*
X12734Y27322D1*
X12773Y27387D1*
X12823Y27444D1*
X12882Y27492D1*
X12947Y27531D1*
X13018Y27558D1*
X13093Y27573D1*
X13168Y27575D1*
X13244Y27565D1*
X13316Y27544D1*
X13385Y27510D1*
X13446Y27466D1*
X13500Y27412D1*
X13544Y27350D1*
X13578Y27282D1*
X13600Y27210D1*
X13610Y27113D1*
X13604Y27037D1*
X13585Y26963D1*
X13555Y26894D1*
X13515Y26832D1*
X13566Y26830D1*
X13641Y26814D1*
X13713Y26790D1*
X13780Y26755D1*
X13843Y26712D1*
X13899Y26661D1*
X13948Y26603D1*
X13988Y26539D1*
X14020Y26469D1*
X14042Y26397D1*
X14056Y26270D1*
X14051Y26194D1*
X19856Y26111D2*
X19841Y26036D1*
X19817Y25964D1*
X19784Y25896D1*
X19743Y25832D1*
X19693Y25774D1*
X19637Y25724D1*
X19574Y25680D1*
X19507Y25646D1*
X19435Y25620D1*
X19361Y25603D1*
X19286Y25596D1*
X19210Y25599D1*
X19135Y25612D1*
X19062Y25634D1*
X18993Y25666D1*
X18928Y25706D1*
X18870Y25754D1*
X18817Y25809D1*
X18773Y25870D1*
X18736Y25937D1*
X18708Y26007D1*
X18690Y26081D1*
X18681Y26157D1*
X18682Y26232D1*
X18693Y26308D1*
X18714Y26381D1*
X18743Y26451D1*
X18782Y26516D1*
X18828Y26576D1*
X18882Y26630D1*
X18942Y26676D1*
X19008Y26715D1*
X19078Y26744D1*
X19151Y26764D1*
X19226Y26775D1*
X19302Y26776D1*
X19377Y26767D1*
X19451Y26748D1*
X19522Y26720D1*
X19588Y26684D1*
X19650Y26639D1*
X19704Y26586D1*
X19752Y26527D1*
X19792Y26463D1*
X19823Y26393D1*
X19845Y26321D1*
X19858Y26246D1*
X19861Y26186D1*
X19856Y26111D1*
X16588Y26507D2*
X16569Y26434D1*
X16539Y26364D1*
X16498Y26300D1*
X16447Y26244D1*
X16387Y26197D1*
X16321Y26161D1*
X16249Y26135D1*
X16174Y26122D1*
X16098Y26121D1*
X16023Y26133D1*
X15951Y26156D1*
X15884Y26191D1*
X15823Y26237D1*
X15771Y26292D1*
X15728Y26355D1*
X15696Y26424D1*
X15676Y26497D1*
X15668Y26572D1*
X15672Y26648D1*
X15689Y26722D1*
X15718Y26792D1*
X15758Y26857D1*
X15807Y26914D1*
X15866Y26963D1*
X15931Y27001D1*
X16002Y27028D1*
X16077Y27043D1*
X16153Y27046D1*
X16228Y27036D1*
X16301Y27014D1*
X16369Y26980D1*
X16430Y26936D1*
X16484Y26882D1*
X16528Y26821D1*
X16562Y26753D1*
X16584Y26680D1*
X16594Y26583D1*
X16588Y26507D1*
X14542Y27724D2*
X14523Y27650D1*
X14493Y27581D1*
X14452Y27517D1*
X14401Y27461D1*
X14341Y27414D1*
X14275Y27377D1*
X14203Y27352D1*
X14128Y27339D1*
X14053Y27338D1*
X13978Y27349D1*
X13905Y27373D1*
X13838Y27408D1*
X13777Y27454D1*
X13725Y27509D1*
X13682Y27571D1*
X13650Y27640D1*
X13630Y27713D1*
X13622Y27789D1*
X13627Y27865D1*
X13643Y27939D1*
X13672Y28009D1*
X13712Y28074D1*
X13762Y28131D1*
X13820Y28179D1*
X13886Y28218D1*
X13957Y28245D1*
X14031Y28260D1*
X14107Y28262D1*
X14182Y28253D1*
X14255Y28231D1*
X14323Y28197D1*
X14385Y28153D1*
X14438Y28099D1*
X14483Y28037D1*
X14516Y27969D1*
X14538Y27897D1*
X14548Y27800D1*
X14542Y27724D1*
X18722Y21831D2*
X18707Y21757D1*
X18682Y21685D1*
X18648Y21618D1*
X18604Y21555D1*
X18553Y21499D1*
X18495Y21450D1*
X18431Y21410D1*
X18361Y21379D1*
X18289Y21357D1*
X18214Y21345D1*
X18138Y21343D1*
X18062Y21351D1*
X17989Y21370D1*
X17918Y21398D1*
X17852Y21436D1*
X17792Y21482D1*
X17738Y21535D1*
X17692Y21596D1*
X17654Y21662D1*
X17626Y21732D1*
X17607Y21806D1*
X17599Y21881D1*
X17600Y21957D1*
X17612Y22032D1*
X17634Y22105D1*
X17665Y22174D1*
X17706Y22238D1*
X17754Y22297D1*
X17810Y22348D1*
X17872Y22391D1*
X17940Y22426D1*
X18012Y22451D1*
X18086Y22467D1*
X18162Y22472D1*
X18238Y22467D1*
X18312Y22452D1*
X18384Y22427D1*
X18451Y22392D1*
X18514Y22349D1*
X18570Y22298D1*
X18619Y22240D1*
X18659Y22176D1*
X18691Y22107D1*
X18713Y22034D1*
X18727Y21907D1*
X18722Y21831D1*
X19098Y17808D2*
X19083Y17733D1*
X19058Y17662D1*
X19023Y17594D1*
X18980Y17531D1*
X18929Y17475D1*
X18871Y17427D1*
X18806Y17386D1*
X18737Y17355D1*
X18665Y17333D1*
X18590Y17321D1*
X18514Y17319D1*
X18438Y17328D1*
X18365Y17346D1*
X18294Y17374D1*
X18228Y17412D1*
X18168Y17458D1*
X18114Y17511D1*
X18068Y17572D1*
X18030Y17638D1*
X18002Y17708D1*
X17983Y17782D1*
X17975Y17857D1*
X17976Y17933D1*
X17988Y18008D1*
X18010Y18081D1*
X18041Y18150D1*
X18081Y18215D1*
X18130Y18273D1*
X18186Y18324D1*
X18248Y18368D1*
X18316Y18402D1*
X18388Y18427D1*
X18462Y18443D1*
X18538Y18448D1*
X18613Y18443D1*
X18688Y18428D1*
X18760Y18403D1*
X18827Y18369D1*
X18890Y18326D1*
X18946Y18274D1*
X18995Y18216D1*
X19035Y18152D1*
X19067Y18083D1*
X19089Y18010D1*
X19103Y17883D1*
X19098Y17808D1*
X14055Y18500D2*
X14040Y18425D1*
X14015Y18354D1*
X13981Y18286D1*
X13937Y18223D1*
X13886Y18167D1*
X13828Y18119D1*
X13764Y18078D1*
X13694Y18047D1*
X13622Y18025D1*
X13547Y18013D1*
X13471Y18011D1*
X13395Y18020D1*
X13322Y18038D1*
X13251Y18066D1*
X13185Y18104D1*
X13125Y18150D1*
X13071Y18204D1*
X13025Y18264D1*
X12987Y18330D1*
X12959Y18400D1*
X12940Y18474D1*
X12932Y18549D1*
X12933Y18625D1*
X12945Y18700D1*
X12967Y18773D1*
X12998Y18842D1*
X13039Y18907D1*
X13087Y18965D1*
X13143Y19016D1*
X13205Y19060D1*
X13273Y19094D1*
X13345Y19119D1*
X13419Y19135D1*
X13495Y19140D1*
X13571Y19135D1*
X13645Y19120D1*
X13717Y19095D1*
X13784Y19061D1*
X13847Y19018D1*
X13903Y18966D1*
X13952Y18908D1*
X13992Y18844D1*
X14024Y18775D1*
X14046Y18702D1*
X14060Y18575D1*
X14055Y18500D1*
X14630Y22460D2*
X14562Y22385D1*
X14500Y22341D1*
X14431Y22308D1*
X14358Y22288D1*
X14282Y22281D1*
X14207Y22287D1*
X14133Y22306D1*
X14064Y22337D1*
X14002Y22380D1*
X13947Y22433D1*
X13903Y22495D1*
X13870Y22563D1*
X13849Y22636D1*
X13841Y22712D1*
X13847Y22788D1*
X13865Y22861D1*
X13896Y22931D1*
X13938Y22994D1*
X13991Y23048D1*
X14052Y23093D1*
X14120Y23127D1*
X14182Y23145D1*
X14179Y23193D1*
X14184Y23268D1*
X14202Y23342D1*
X14233Y23411D1*
X14276Y23474D1*
X14328Y23529D1*
X14389Y23574D1*
X14458Y23608D1*
X14530Y23629D1*
X14606Y23637D1*
X14682Y23633D1*
X14755Y23615D1*
X14825Y23585D1*
X14888Y23543D1*
X14944Y23491D1*
X14989Y23430D1*
X15023Y23362D1*
X15045Y23289D1*
X15054Y23200D1*
X15050Y23155D1*
X15120Y23139D1*
X15190Y23108D1*
X15253Y23066D1*
X15308Y23014D1*
X15354Y22953D1*
X15388Y22886D1*
X15410Y22813D1*
X15419Y22724D1*
X15412Y22648D1*
X15393Y22575D1*
X15361Y22506D1*
X15318Y22443D1*
X15264Y22389D1*
X15202Y22346D1*
X15134Y22313D1*
X15060Y22293D1*
X14985Y22286D1*
X14909Y22292D1*
X14836Y22311D1*
X14767Y22342D1*
X14704Y22385D1*
X14650Y22438D1*
X14632Y22463D1*
X14747Y25580D2*
X14708Y25569D1*
X14633Y25562D1*
X14557Y25568D1*
X14484Y25587D1*
X14415Y25618D1*
X14352Y25661D1*
X14298Y25714D1*
X14253Y25776D1*
X14220Y25844D1*
X14199Y25917D1*
X14192Y25993D1*
X14197Y26068D1*
X14215Y26142D1*
X14246Y26211D1*
X14289Y26274D1*
X14341Y26329D1*
X14402Y26374D1*
X14471Y26407D1*
X14543Y26429D1*
X14619Y26437D1*
X14695Y26432D1*
X14768Y26415D1*
X14838Y26384D1*
X14901Y26342D1*
X14956Y26290D1*
X15002Y26229D1*
X15038Y26155D1*
X15148Y26170D1*
X15223Y26165D1*
X15297Y26147D1*
X15367Y26117D1*
X15430Y26075D1*
X15485Y26023D1*
X15531Y25962D1*
X15565Y25894D1*
X15587Y25821D1*
X15596Y25732D1*
X15589Y25656D1*
X15570Y25583D1*
X15538Y25514D1*
X15494Y25452D1*
X15441Y25398D1*
X15379Y25354D1*
X15310Y25322D1*
X15237Y25302D1*
X15162Y25294D1*
X15086Y25300D1*
X15012Y25319D1*
X14943Y25351D1*
X14881Y25394D1*
X14826Y25447D1*
X14782Y25508D1*
X14748Y25579D1*
X13726Y16580D2*
D32*
X14468D1*
X13726Y16457D2*
X14468D1*
X13726Y16333D2*
X14468D1*
X13726Y16209D2*
X14468D1*
X13726Y16086D2*
X14468D1*
X13726Y15962D2*
X14468D1*
X13726Y15838D2*
X14468D1*
X13726Y15715D2*
X14468D1*
X12688Y15591D2*
X15645D1*
X12688Y15467D2*
X15645D1*
X12688Y15344D2*
X15645D1*
X12688Y15220D2*
X15645D1*
X12688Y15096D2*
X15645D1*
X12688Y14973D2*
X15645D1*
X12688Y14849D2*
X15645D1*
X19300D2*
X20056D1*
X12688Y14725D2*
X15645D1*
X19300D2*
X20056D1*
X12688Y14602D2*
X15645D1*
X19300D2*
X20056D1*
X12688Y14478D2*
X15645D1*
X19300D2*
X20056D1*
X12688Y14354D2*
X15645D1*
X19300D2*
X20056D1*
X12688Y14231D2*
X15645D1*
X19300D2*
X20056D1*
X12688Y14107D2*
X15645D1*
X19300D2*
X20056D1*
X12688Y13983D2*
X15645D1*
X19300D2*
X20056D1*
X12688Y13860D2*
X15645D1*
X19300D2*
X20056D1*
X12688Y13736D2*
X15645D1*
X19300D2*
X20056D1*
X12688Y13612D2*
X15645D1*
X19300D2*
X20056D1*
X12688Y13489D2*
X15645D1*
X19300D2*
X20056D1*
X12688Y13365D2*
X15645D1*
X19300D2*
X20056D1*
X12688Y13241D2*
X22082D1*
X12688Y13118D2*
X22082D1*
X12688Y12994D2*
X22082D1*
X12688Y12870D2*
X22082D1*
X12688Y12747D2*
X14792D1*
X15418D2*
X19487D1*
X20113D2*
X22082D1*
X12688Y12623D2*
X14484D1*
X15724D2*
X19181D1*
X20419D2*
X22082D1*
X12688Y12499D2*
X14297D1*
X15910D2*
X18994D1*
X20607D2*
X22082D1*
X12688Y12376D2*
X14172D1*
X16037D2*
X18867D1*
X20732D2*
X22082D1*
X12688Y12252D2*
X14067D1*
X16140D2*
X18762D1*
X20838D2*
X22082D1*
X12688Y12128D2*
X13996D1*
X16212D2*
X18693D1*
X20907D2*
X22082D1*
X12688Y12005D2*
X13934D1*
X16273D2*
X18631D1*
X20970D2*
X22082D1*
X12688Y11881D2*
X13891D1*
X16319D2*
X18586D1*
X21014D2*
X22082D1*
X12688Y11757D2*
X13867D1*
X16343D2*
X18562D1*
X21038D2*
X22082D1*
X12688Y11634D2*
X13847D1*
X16361D2*
X18542D1*
X21058D2*
X22082D1*
X12688Y11510D2*
X13841D1*
X16367D2*
X18536D1*
X21064D2*
X22082D1*
X12688Y11386D2*
X13841D1*
X16367D2*
X18536D1*
X21064D2*
X22082D1*
X12702Y11263D2*
X13841D1*
X16367D2*
X18536D1*
X21064D2*
X22082D1*
X12823Y11139D2*
X13841D1*
X16367D2*
X18536D1*
X21064D2*
X22082D1*
X12942Y11015D2*
X13841D1*
X16367D2*
X18536D1*
X21064D2*
X22082D1*
X13063Y10892D2*
X13841D1*
X16367D2*
X18536D1*
X21064D2*
X22082D1*
X13182Y10768D2*
X13841D1*
X16367D2*
X18536D1*
X21064D2*
X22082D1*
X16334Y11733D2*
X16352Y11601D1*
X16355Y11552D1*
Y10735D1*
X17746Y10736D1*
X18549D1*
X18552Y11598D1*
X18569Y11727D1*
X18593Y11858D1*
X18631Y11978D1*
X18689Y12098D1*
X18752Y12215D1*
X18826Y12318D1*
X18917Y12413D1*
X19013Y12506D1*
X19116Y12581D1*
X19232Y12643D1*
X19352Y12701D1*
X19472Y12741D1*
X19602Y12764D1*
X19734Y12783D1*
X19861D1*
X19992Y12765D1*
X20123Y12742D1*
X20244Y12703D1*
X20363Y12646D1*
X20480Y12583D1*
X20583Y12509D1*
X20678Y12418D1*
X20771Y12322D1*
X20846Y12220D1*
X20908Y12103D1*
X20967Y11984D1*
X21006Y11863D1*
X21030Y11733D1*
X21048Y11601D1*
X21051Y11535D1*
Y10735D1*
X22096Y10736D1*
Y13321D1*
X20133D1*
X20079Y13352D1*
X20069Y13385D1*
Y14916D1*
X19287D1*
Y13355D1*
X19256Y13302D1*
X19224Y13292D1*
X15722D1*
X15668Y13323D1*
X15658Y13355D1*
Y15691D1*
X14545D1*
X14491Y15722D1*
X14481Y15754D1*
Y16704D1*
X13714D1*
Y15724D1*
X13683Y15671D1*
X13651Y15661D1*
X12674Y15660D1*
Y11281D1*
X13202Y10735D1*
X13854Y10736D1*
X13853Y11535D1*
X13863Y11661D1*
X13897Y11858D1*
X13936Y11978D1*
X13993Y12098D1*
X14056Y12215D1*
X14130Y12318D1*
X14222Y12413D1*
X14317Y12506D1*
X14420Y12581D1*
X14536Y12643D1*
X14656Y12701D1*
X14777Y12741D1*
X14907Y12764D1*
X15038Y12783D1*
X15165D1*
X15296Y12765D1*
X15427Y12742D1*
X15548Y12703D1*
X15667Y12646D1*
X15784Y12583D1*
X15887Y12509D1*
X15983Y12418D1*
X16075Y12322D1*
X16150Y12220D1*
X16213Y12103D1*
X16271Y11984D1*
X16311Y11863D1*
X16334Y11733D1*
X16352Y11601D1*
X16355Y11535D1*
Y11471D1*
D42*
X26518Y13818D3*
D43*
X27788D3*
D42*
X11278D3*
D43*
X10008D3*
D42*
X26518Y29058D3*
D43*
X27788D3*
D42*
X26518Y26518D3*
D43*
X27788D3*
D49*
X23978Y31598D3*
D50*
Y32868D3*
D42*
X11278Y16358D3*
D43*
X10008D3*
D42*
X11278Y26518D3*
D43*
X10008D3*
D42*
X26518Y16358D3*
D43*
X27788D3*
D42*
X11278Y21438D3*
D43*
X10008D3*
D42*
X26518D3*
D43*
X27788D3*
D49*
X13818Y31598D3*
D50*
Y32868D3*
D42*
X11278Y29058D3*
D43*
X10008D3*
D75*
X21573Y24676D3*
X22523D3*
X21573Y22976D3*
X22048Y23826D3*
X22523Y22976D3*
D49*
X21438Y31598D3*
X18898D3*
X16358D3*
D84*
X21438Y32868D3*
X18898D3*
X16358D3*
D86*
X15227Y14410D3*
X19677D3*
G36*
X22154Y12032D2*
Y10788D1*
X21837Y10460D1*
X20752D1*
Y12360D1*
X21837D1*
X22154Y12032D1*
G37*
G36*
X12750Y10788D2*
Y12032D1*
X13067Y12360D1*
X14152D1*
Y10460D1*
X13067D1*
X12750Y10788D1*
G37*
D42*
X26518Y18898D3*
D43*
X27788D3*
D42*
X11278Y23978D3*
D43*
X10008D3*
D42*
X26518D3*
D43*
X27788D3*
D42*
X11278Y18898D3*
D43*
X10008D3*
M02*
