G04 DipTrace 2.4.0.2*
%INUSBBiPowerOTG.gtl*%
%MOMM*%
%ADD10C,0.25*%
%ADD13C,0.305*%
%ADD14C,0.23*%
%ADD15C,0.203*%
%ADD16C,1.067*%
%ADD17C,0.35*%
%ADD18C,0.44*%
%ADD19C,1.0*%
%ADD20C,0.457*%
%ADD22C,0.66*%
%ADD23C,1.2*%
%ADD24C,1.702*%
%ADD25C,0.7*%
%ADD26C,0.27*%
%ADD27C,0.4*%
%ADD29C,0.114*%
%ADD30C,0.22*%
%ADD31C,0.102*%
%ADD32C,0.127*%
%ADD33C,0.787*%
%ADD34C,0.75*%
%ADD35C,0.508*%
%ADD36C,0.635*%
%ADD37C,0.61*%
%ADD38C,0.36*%
%ADD41C,0.152*%
%ADD42R,1.6X1.7*%
%ADD43R,2.0X1.7*%
%ADD44R,1.0X1.1*%
%ADD45R,1.1X1.0*%
%ADD46R,0.7X0.9*%
%ADD47R,0.9X0.7*%
%ADD48R,0.7X0.4*%
%ADD49R,1.7X1.6*%
%ADD50R,1.7X2.0*%
%ADD51R,1.2X1.5*%
%ADD52R,0.9X0.75*%
%ADD54R,0.25X0.6*%
%ADD55R,0.75X0.9*%
%ADD56R,0.65X1.6*%
%ADD58R,0.5X0.4*%
%ADD60R,0.36X0.5*%
%ADD61R,0.25X0.5*%
%ADD63C,0.23*%
%ADD69R,0.6X0.25*%
%ADD70O,0.6X0.25*%
%ADD71R,1.64X0.44*%
%ADD75O,1.0X0.35*%
%ADD76C,0.711*%
%ADD78C,0.35*%
%ADD85R,1.7X2.032*%
%ADD87R,0.4X1.35*%
%ADD88C,1.092*%
%ADD89C,1.092*%
%ADD90R,2.9X1.9*%
%ADD91C,0.711*%
%FSLAX53Y53*%
G04*
G71*
G90*
G75*
G01*
%LNTop*%
%LPD*%
X19532Y16579D2*
D13*
X20295D1*
X20369Y16653D1*
X20847D1*
X21017Y16483D1*
X21026Y17589D2*
Y16493D1*
X21017Y16483D1*
X26510Y13810D2*
X26347D1*
X25503Y14655D1*
X25144D1*
X23488Y14066D2*
D14*
Y14930D1*
X23376D1*
X20296Y16709D2*
D13*
X20369Y16653D1*
X22435Y15367D2*
D15*
Y16366D1*
X22317Y16483D1*
X22326Y17589D2*
Y16493D1*
X22317Y16483D1*
X23088Y14066D2*
X23030D1*
Y14615D1*
X22435Y15210D1*
Y15367D1*
X24288Y13666D2*
D14*
Y13685D1*
D15*
X24804D1*
D13*
Y12121D1*
X24773Y12153D1*
X24288Y13666D2*
D14*
X24976D1*
D13*
X24855D1*
X25144Y13955D1*
X23088Y13666D2*
D15*
X22836D1*
X22435Y14067D1*
X20503Y28312D2*
D16*
Y28097D1*
X20791Y27810D1*
X21397Y27418D1*
X20916Y27562D1*
X24288Y14066D2*
D15*
X24420Y14199D1*
D13*
Y14965D1*
X25259Y15805D1*
X25031D1*
X24540Y15108D2*
X24420Y14965D1*
X19809Y27283D2*
X20061Y27364D1*
X20294Y27516D1*
X20506Y27869D1*
D16*
X20503Y28312D1*
X20568Y27587D2*
X20791Y27810D1*
X20490Y23493D2*
D17*
X19707D1*
Y23521D1*
X21159Y27133D2*
D18*
Y27657D1*
D19*
X20503Y28312D1*
X21685Y29532D2*
X23816D1*
D23*
X23935Y29651D1*
X23650Y29094D1*
D24*
X26510Y29050D1*
X19809Y26283D2*
D10*
Y25783D1*
X18671Y25756D2*
D25*
X19263D1*
X19781D1*
D10*
X19809Y25783D1*
X17333Y25687D2*
D26*
X18212Y25789D1*
D25*
X18671Y25756D1*
X16133Y26087D2*
D26*
Y26575D1*
Y27360D1*
D13*
X16043D1*
X19328Y20201D2*
D15*
X19132D1*
X18699Y19767D1*
Y19636D1*
X21328Y20201D2*
D17*
Y19701D1*
D13*
X21435D1*
Y19318D1*
X22248Y18506D1*
X22332D1*
D25*
X23014D1*
X23404D1*
X23723Y18825D1*
X23735Y18276D1*
Y17543D1*
X23488Y13666D2*
D14*
Y13513D1*
X23172Y13198D1*
X22685D1*
D20*
X22680Y13192D1*
X23014Y18493D2*
D25*
Y18506D1*
X23792Y18277D2*
X23735Y18276D1*
X14049Y30056D2*
D27*
Y29699D1*
Y29356D1*
X14047Y29699D2*
X14049D1*
X19263Y26178D2*
D25*
Y25756D1*
X16123Y26575D2*
D26*
X16133D1*
X12573Y26982D2*
D13*
X13016D1*
X13139Y27105D1*
X14006Y28282D2*
Y27863D1*
X14077Y27792D1*
X21328Y21201D2*
D15*
X21758D1*
X22464Y21907D1*
X20828Y21201D2*
Y21571D1*
X21164Y21907D1*
X14070Y16231D2*
D13*
Y15551D1*
X15219Y14402D1*
X19669D2*
Y13397D1*
X18960Y12689D1*
X18731D1*
X17444Y11402D1*
X15219Y14402D2*
Y13590D1*
X15968Y12841D1*
X16004D1*
X17444Y11402D1*
Y14077D2*
D29*
X17577D1*
Y14832D1*
X17185Y15224D1*
Y20195D1*
X17109Y20271D1*
X17054D1*
X17170D1*
Y20853D1*
X17382Y21065D1*
X19205D1*
X19341Y21201D1*
X19328D1*
X17054Y21571D2*
X17177D1*
Y22236D1*
X17046Y22367D1*
X18094Y14077D2*
X17948D1*
Y14830D1*
X17450Y15328D1*
Y20226D1*
X17554Y20331D1*
Y20271D1*
X17434D1*
Y20745D1*
X17491Y20802D1*
X19328D1*
Y20701D1*
X17554Y21571D2*
X17437D1*
Y22216D1*
X17514Y22293D1*
Y22399D1*
X17546Y22367D1*
Y23367D2*
Y23668D1*
X16933Y24281D1*
Y24487D1*
X16533Y26087D2*
X16599D1*
Y27877D1*
X19225Y30503D1*
X19846D1*
X19977Y30634D1*
Y30710D1*
X19097Y31590D1*
X18890D1*
X16533Y24487D2*
Y24336D1*
X17111Y23758D1*
Y23432D1*
X17046Y23367D1*
X16933Y26087D2*
X16860D1*
Y27752D1*
X19348Y30240D1*
X19953D1*
X21303Y31590D1*
X21430D1*
X19985Y29532D2*
D13*
Y29590D1*
X20864Y30469D1*
X22849D1*
X23970Y31590D1*
X18803Y28312D2*
Y28458D1*
X19321Y28975D1*
X19428D1*
X19985Y29532D1*
X18671Y27056D2*
Y27700D1*
Y28180D1*
X18803Y28312D1*
X20328Y21201D2*
Y20701D1*
Y20201D1*
X21032Y18506D2*
X20270D1*
X19759D1*
X19532Y18279D1*
X23735Y15843D2*
Y15996D1*
X24211Y16471D1*
X25244Y17505D1*
X25031D1*
X25023Y18825D2*
Y17513D1*
X25031Y17505D1*
X23600Y21299D2*
X24134D1*
X25053D1*
Y23242D1*
X25196Y23386D1*
X25023Y18825D2*
X24311Y19538D1*
Y20972D1*
X25075Y21736D1*
Y23386D1*
X25196D1*
X23600Y21299D2*
X24993D1*
X25089Y21395D1*
X23888Y14066D2*
D14*
Y14334D1*
D13*
Y15691D1*
X23735Y15843D1*
X23888Y14066D2*
D14*
Y13666D1*
Y13399D1*
D13*
Y12618D1*
X23423Y12153D1*
X24191Y16492D2*
X24211Y16471D1*
X14496Y18760D2*
Y17961D1*
X14062Y17528D1*
X13993D1*
X12787Y16322D1*
X11298D1*
X11270Y16350D1*
X14496Y18760D2*
Y18949D1*
X14861Y19314D1*
X15130Y19584D1*
Y20050D1*
D30*
X14901Y20280D1*
Y20680D1*
Y21080D1*
Y21342D1*
D13*
Y21703D1*
X15201Y22003D1*
X15733Y24487D2*
D15*
Y24200D1*
D13*
X15671D1*
Y22348D1*
X15201Y21877D1*
Y22003D1*
X20270Y18536D2*
Y18506D1*
X16133Y25287D2*
D15*
Y24887D1*
X15733Y24487D2*
D31*
X16133Y24887D1*
X21159Y25933D2*
D13*
Y25462D1*
X20490Y24793D1*
X21159Y25933D2*
X21042Y24834D1*
X22040Y23818D1*
X23590Y23493D2*
X22365D1*
X22040Y23818D1*
X20174Y21821D2*
Y21733D1*
X20328Y21579D1*
Y21201D1*
X13701Y21080D2*
D15*
X13460D1*
X13410Y21130D1*
X13701Y20280D2*
X13551D1*
X13356Y20475D1*
Y21130D1*
X13410D1*
X16043Y28660D2*
D13*
Y29183D1*
X16093Y29233D1*
X18713Y27700D2*
X18671D1*
X22515Y22968D2*
Y23343D1*
X22040Y23818D1*
X14870Y19208D2*
X14861Y19217D1*
Y19314D1*
X24134Y21305D2*
Y21299D1*
X18054Y20271D2*
D10*
Y19120D1*
D13*
X18365Y18809D1*
X19002D1*
X19532Y18279D1*
X16144Y14077D2*
Y15557D1*
X15470Y16231D1*
Y17520D1*
X15462Y17528D1*
X16794Y14077D2*
D15*
Y15752D1*
X16122Y16424D1*
Y18434D1*
X15796Y18760D1*
X16491Y22367D2*
Y19926D1*
X16566D1*
D32*
Y19531D1*
X15796Y18760D1*
X19828Y21201D2*
Y21259D1*
X19145Y21943D1*
Y22252D1*
X18851Y22546D1*
X18732D1*
X18410Y22867D1*
X16714D1*
X16465Y22618D1*
Y22367D1*
X16491D1*
X16133Y25687D2*
D31*
X15733Y26087D1*
D15*
Y26110D1*
X15442Y26400D1*
Y30682D1*
X16350Y31590D1*
X16490Y23367D2*
Y23813D1*
X16127Y24176D1*
Y24482D1*
X16133Y24487D1*
X23590Y24793D2*
X25088D1*
X25196Y24686D1*
X12706Y28282D2*
Y28437D1*
X11270Y27001D1*
Y26510D1*
X19828Y19701D2*
Y19445D1*
X19715Y19331D1*
X14271Y22711D2*
X14135Y22847D1*
Y27028D1*
X13434Y27728D1*
X13024D1*
X12778Y27974D1*
X12706D1*
Y28282D1*
X17333Y25287D2*
X17461D1*
X17890Y25216D1*
X17771Y25236D1*
X11270Y21430D2*
Y21689D1*
X12658Y23077D1*
Y25141D1*
Y25682D1*
X12573D1*
X12705Y25141D2*
X12658D1*
X20328Y19701D2*
Y19409D1*
X20304Y19384D1*
X16533Y25287D2*
Y25477D1*
Y25687D1*
Y25470D2*
Y25477D1*
X13049Y30056D2*
Y30829D1*
X13810Y31590D1*
X14973Y22716D2*
X15182Y22924D1*
Y25724D1*
Y26090D1*
X15073Y26199D1*
Y29870D1*
X13810Y31132D1*
Y31590D1*
X15150Y25724D2*
X15182D1*
X20828Y19701D2*
Y19458D1*
X20894Y19392D1*
X16933Y25687D2*
D32*
Y25287D1*
D15*
Y24925D1*
Y24887D1*
X16533D1*
X16892Y24925D2*
X16933D1*
X13049Y29356D2*
X11576D1*
X11270Y29050D1*
X14608Y23192D2*
X14581D1*
Y25992D1*
X14725D1*
Y28729D1*
X14538Y28917D1*
X13409D1*
X13049Y29276D1*
Y29356D1*
X14621Y25992D2*
X14581D1*
X21159Y26533D2*
D18*
X22340D1*
D33*
X23935Y26951D1*
X20490Y24143D2*
D17*
X20025D1*
X19010Y24844D1*
X26510Y18890D2*
D16*
X26273Y19499D1*
D25*
X25089Y20095D1*
X12787Y18022D2*
D33*
X13134Y18649D1*
X13594Y19481D1*
X14336Y19921D1*
D30*
X14101Y20280D1*
X14501Y20680D2*
Y20280D1*
X14101D1*
X18105Y17255D2*
D34*
Y17449D1*
D20*
X18531Y17875D1*
X13488Y18567D2*
D33*
X13134Y18649D1*
X18744Y14077D2*
D27*
Y15216D1*
D33*
X18648Y15312D1*
D34*
X18105Y15855D1*
X17333Y24887D2*
D26*
X17725Y24682D1*
X18013Y24676D1*
D35*
X18875Y24038D1*
D36*
X18932Y23153D1*
D37*
X19631Y22570D1*
D20*
X19617Y22623D1*
X20490Y22843D2*
D17*
X20218Y22660D1*
D33*
X19617Y22623D1*
X23590Y24143D2*
D17*
X24180D1*
D20*
X24186Y24138D1*
X17333Y24487D2*
D26*
X17656Y24183D1*
D35*
X18158Y23810D1*
D38*
X18101Y23367D1*
X21328Y20701D2*
D17*
X21737D1*
D13*
X21963Y20475D1*
X21893D1*
X22399Y19969D1*
X23570D1*
X23600Y19999D1*
X22384Y19412D2*
X22399Y19969D1*
X14101Y21080D2*
D30*
X14501D1*
X14101Y20680D2*
Y21080D1*
Y20764D1*
X14270Y21320D1*
D25*
X13849Y22070D1*
X13901Y22003D1*
X11270Y18890D2*
D33*
X11397D1*
X12629Y20121D1*
Y21382D1*
D25*
X13249Y22003D1*
X13901D1*
X13475Y22381D1*
D33*
X13462Y26118D1*
D20*
X13484Y26262D1*
X18101Y22367D2*
D38*
X18288D1*
D20*
X18620Y22035D1*
X24186Y24138D3*
X18699Y19636D3*
X19715Y19331D3*
X20304Y19384D3*
X20894Y19392D3*
X22384Y19412D3*
X23376Y14930D3*
X22680Y13192D3*
X20296Y16709D3*
X20174Y21821D3*
X24191Y16492D3*
X24134Y21305D3*
D22*
X19010Y24844D3*
X19707Y23521D3*
D20*
X20270Y18536D3*
X23014Y18493D3*
X23792Y18277D3*
X24540Y15108D3*
X19617Y22623D3*
X14047Y29699D3*
X16533Y25470D3*
X16892Y24925D3*
X17771Y25236D3*
X13410Y21130D3*
D22*
X20568Y27587D3*
X13484Y26262D3*
D91*
X19263Y26178D3*
D20*
X16123Y26575D3*
X16093Y29233D3*
X18713Y27700D3*
X14077Y27792D3*
D22*
X18620Y22035D3*
X18531Y17875D3*
X13488Y18567D3*
D20*
X14271Y22711D3*
X14608Y23192D3*
X14973Y22716D3*
X14621Y25992D3*
X15150Y25724D3*
X12705Y25141D3*
X13139Y27105D3*
X14870Y19208D3*
X13754Y16549D2*
D41*
X14436D1*
X13754Y16400D2*
X14436D1*
X13754Y16251D2*
X14436D1*
X13754Y16102D2*
X14436D1*
X13754Y15953D2*
X14436D1*
X13754Y15804D2*
X14436D1*
X13512Y15655D2*
X14872D1*
X12652Y15506D2*
X15624D1*
X12652Y15356D2*
X15624D1*
X12652Y15207D2*
X15624D1*
X12652Y15058D2*
X15624D1*
X12652Y14909D2*
X15624D1*
X12652Y14760D2*
X15624D1*
X19307D2*
X20056D1*
X12652Y14611D2*
X15624D1*
X19307D2*
X20056D1*
X12652Y14462D2*
X15624D1*
X19307D2*
X20056D1*
X12652Y14313D2*
X15624D1*
X19307D2*
X20056D1*
X12652Y14164D2*
X15624D1*
X19307D2*
X20056D1*
X12654Y14015D2*
X15624D1*
X19307D2*
X20056D1*
X12654Y13866D2*
X15624D1*
X19307D2*
X20056D1*
X12654Y13717D2*
X15624D1*
X19307D2*
X20056D1*
X12654Y13568D2*
X15624D1*
X19307D2*
X20056D1*
X12654Y13419D2*
X15624D1*
X19307D2*
X20056D1*
X12654Y13270D2*
X15719D1*
X19193D2*
X22208D1*
X12654Y13120D2*
X22208D1*
X12654Y12971D2*
X22258D1*
X12654Y12822D2*
X22370D1*
X12654Y12673D2*
X22370D1*
X12654Y12524D2*
X22370D1*
X12640Y12375D2*
X22373D1*
X12182Y12226D2*
X22373D1*
X12182Y12077D2*
X22375D1*
X12182Y11928D2*
X22375D1*
X12204Y11779D2*
X22375D1*
X12383Y11630D2*
X22377D1*
X12564Y11481D2*
X22377D1*
X12714Y11332D2*
X22380D1*
X12850Y11183D2*
X22380D1*
X12985Y11034D2*
X22380D1*
X13121Y10884D2*
X22382D1*
X13257Y10735D2*
X22382D1*
X13496Y15660D2*
Y15563D1*
X12637D1*
X12640Y12428D1*
X12603Y12364D1*
X12564Y12352D1*
X12166D1*
Y11795D1*
X12609Y11430D1*
X13263Y10713D1*
X20241Y10701D1*
X22400Y10698D1*
X22395Y11154D1*
X22383Y12837D1*
X22329Y12890D1*
X22284Y12951D1*
X22250Y13019D1*
X22228Y13092D1*
X22217Y13168D1*
X22220Y13244D1*
X22240Y13337D1*
X22229Y13351D1*
X20146Y13348D1*
X20082Y13385D1*
X20070Y13424D1*
Y14904D1*
X19293D1*
Y13360D1*
X19256Y13295D1*
X19217Y13283D1*
X19176D1*
X19179Y13167D1*
X18309D1*
Y13174D1*
X17667Y13177D1*
X17414Y13174D1*
X17017D1*
Y13191D1*
X16385Y13192D1*
X15735D1*
Y13285D1*
X15716Y13283D1*
X15651Y13321D1*
X15639Y13360D1*
Y15553D1*
X15617Y15572D1*
X14886Y15571D1*
Y15683D1*
X14527Y15682D1*
X14463Y15720D1*
X14451Y15758D1*
Y16698D1*
X13739D1*
Y15737D1*
X13701Y15673D1*
X13662Y15661D1*
X13498D1*
D42*
X26510Y13810D3*
D43*
X27780D3*
D42*
X11270D3*
D43*
X10000D3*
D42*
X26510Y29050D3*
D43*
X27780D3*
D44*
X25031Y15805D3*
Y17505D3*
D45*
X20503Y28312D3*
X18803D3*
X21685Y29532D3*
X19985D3*
D44*
X23735Y17543D3*
Y15843D3*
D46*
X25089Y20095D3*
Y21395D3*
D47*
X22332Y18506D3*
X21032D3*
X23723Y18825D3*
X25023D3*
X22464Y21907D3*
X21164D3*
D46*
X18671Y25756D3*
Y27056D3*
X16043Y27360D3*
Y28660D3*
X23600Y19999D3*
Y21299D3*
D47*
X13901Y22003D3*
X15201D3*
D44*
X12787Y18022D3*
Y16322D3*
X19532Y16579D3*
Y18279D3*
D47*
X21017Y16483D3*
X22317D3*
D48*
X25144Y13955D3*
Y14655D3*
D47*
X15796Y18760D3*
X14496D3*
D42*
X26510Y26510D3*
D43*
X27780D3*
D49*
X23970Y31590D3*
D50*
Y32860D3*
D42*
X11270Y16350D3*
D43*
X10000D3*
D42*
X11270Y26510D3*
D43*
X10000D3*
D42*
X26510Y16350D3*
D43*
X27780D3*
D51*
X23935Y29651D3*
Y26951D3*
D52*
X18105Y17255D3*
Y15855D3*
D54*
X17054Y20271D3*
X17554D3*
X18054D3*
Y21571D3*
X17554D3*
X17054D3*
D55*
X14070Y16231D3*
X15470D3*
X14062Y17528D3*
X15462D3*
D56*
X23423Y12153D3*
X24773D3*
D42*
X11270Y21430D3*
D43*
X10000D3*
D42*
X26510D3*
D43*
X27780D3*
D46*
X25196Y23386D3*
Y24686D3*
D58*
X13049Y30056D3*
Y29356D3*
X14049D3*
Y30056D3*
D47*
X12706Y28282D3*
X14006D3*
D46*
X12573Y25682D3*
Y26982D3*
D60*
X16491Y22367D3*
D61*
X17046D3*
X17546D3*
D60*
X18101D3*
Y23367D3*
D61*
X17546D3*
X17046D3*
D60*
X16490D3*
D46*
X22435Y15367D3*
Y14067D3*
D47*
X21026Y17589D3*
X22326D3*
D49*
X13810Y31590D3*
D50*
Y32860D3*
D42*
X11270Y29050D3*
D43*
X10000D3*
D63*
X23088Y13666D3*
Y14066D3*
X23488Y13666D3*
Y14066D3*
X23888Y13666D3*
Y14066D3*
X24288Y13666D3*
Y14066D3*
D69*
X19809Y27283D3*
D70*
Y26783D3*
Y26283D3*
Y25783D3*
D71*
X21159Y25933D3*
Y26533D3*
Y27133D3*
D75*
X23590Y22843D3*
Y23493D3*
Y24143D3*
Y24793D3*
X20490D3*
Y24143D3*
Y23493D3*
Y22843D3*
G36*
X21215Y25018D2*
X22865D1*
Y23056D1*
X22520Y22618D1*
X21215D1*
Y25018D1*
G37*
D76*
X21565Y24668D3*
X22515D3*
X21565Y22968D3*
X22040Y23818D3*
X22515Y22968D3*
D78*
X19328Y21201D3*
X19828D3*
X20328D3*
X20828D3*
X21328D3*
X19328Y20701D3*
X19828D3*
X20328D3*
X20828D3*
X21328D3*
X19328Y20201D3*
X19828D3*
X20328D3*
X20828D3*
X21328D3*
X19328Y19701D3*
X19828D3*
X20328D3*
X20828D3*
X21328D3*
D26*
X17333Y26087D3*
Y25687D3*
Y25287D3*
Y24887D3*
Y24487D3*
X16933Y26087D3*
Y25687D3*
Y25287D3*
Y24887D3*
Y24487D3*
X16533Y26087D3*
Y25687D3*
Y25287D3*
Y24887D3*
Y24487D3*
X16133Y26087D3*
Y25687D3*
Y25287D3*
Y24887D3*
Y24487D3*
X15733Y26087D3*
Y25687D3*
Y25287D3*
Y24887D3*
Y24487D3*
D30*
X13701Y21080D3*
Y20680D3*
Y20280D3*
X14101Y21080D3*
Y20680D3*
Y20280D3*
X14501Y21080D3*
Y20680D3*
Y20280D3*
X14901Y21080D3*
Y20680D3*
Y20280D3*
D49*
X21430Y31590D3*
X18890D3*
X16350D3*
D85*
X21430Y32860D3*
X18890D3*
X16350D3*
D87*
X16144Y14077D3*
X16794D3*
X17444D3*
X18094D3*
X18744D3*
D88*
X15219Y14402D3*
D89*
X19669D3*
G36*
X22476Y12024D2*
Y10780D1*
X21829Y10452D1*
X20566D1*
Y12352D1*
X21829D1*
X22476Y12024D1*
G37*
G36*
X12412Y10780D2*
Y12024D1*
X13059Y12352D1*
X14322D1*
Y10452D1*
X13059D1*
X12412Y10780D1*
G37*
D90*
X17444Y11402D3*
D42*
X26510Y18890D3*
D43*
X27780D3*
D42*
X11270Y23970D3*
D43*
X10000D3*
D42*
X26510D3*
D43*
X27780D3*
D42*
X11270Y18890D3*
D43*
X10000D3*
M02*
