M48
METRIC,0000.00
T01C0.33
T02C1.1
%
T01
X+001891Y+002199
X+001801Y+002199
X+001711Y+002199
X+001711Y+002289
X+001801Y+002289
X+001891Y+002289
X+001891Y+002379
X+001801Y+002379
X+001711Y+002379
X+001832Y+002593
X+001466Y+002579
X+001546Y+002032
X+001501Y+001954
X+001671Y+001968
X+001688Y+001836
X+001616Y+001735
X+001803Y+001713
X+001933Y+001764
X+002008Y+001826
X+001977Y+001982
X+001969Y+002068
X+001828Y+001991
X+002200Y+002503
T02
X+001127Y+002143
X+001000Y+002143
X+001000Y+001889
X+001127Y+001889
X+001127Y+001635
X+001000Y+001635
X+001000Y+001381
X+001127Y+001381
X+001381Y+001127
X+001381Y+001000
X+001635Y+001000
X+001635Y+001127
X+001889Y+001127
X+001889Y+001000
X+002143Y+001000
X+002143Y+001127
X+002397Y+001381
X+002524Y+001381
X+002524Y+001635
X+002397Y+001635
X+002397Y+001889
X+002524Y+001889
X+002524Y+002143
X+002397Y+002143
X+002397Y+002397
X+002524Y+002397
X+002524Y+002651
X+002397Y+002651
X+002143Y+002905
X+002143Y+003032
X+001889Y+003032
X+001889Y+002905
X+001635Y+002905
X+001635Y+003032
X+001381Y+003032
X+001381Y+002905
X+001127Y+002651
X+001000Y+002651
X+001000Y+002397
X+001127Y+002397
T00
M30
