G04 DipTrace 2.4.0.2*
%INi2cswitch.gbo*%
%MOMM*%
%ADD53C,0.111*%
%FSLAX53Y53*%
G04*
G71*
G90*
G75*
G01*
%LNBotSilk*%
%LPD*%
X13696Y16227D2*
D53*
X13793Y16203D1*
X13891Y16154D1*
X13939Y16105D1*
Y16008D1*
X13891Y15959D1*
X13793Y15911D1*
X13696Y15886D1*
X13550Y15862D1*
X13307D1*
X13162Y15886D1*
X13064Y15911D1*
X12967Y15959D1*
X12918Y16008D1*
Y16105D1*
X12967Y16154D1*
X13064Y16203D1*
X13162Y16227D1*
X13307D1*
Y16105D1*
X13939Y16678D2*
X12918D1*
X13939Y16338D1*
X12918D1*
X13939Y16789D2*
X12918D1*
Y16959D1*
X12967Y17032D1*
X13064Y17081D1*
X13162Y17105D1*
X13307Y17129D1*
X13550D1*
X13696Y17105D1*
X13793Y17081D1*
X13891Y17032D1*
X13939Y16959D1*
Y16789D1*
X13970Y14133D2*
X12949Y14327D1*
X13970Y14521D1*
X13727Y14997D2*
X13824Y14973D1*
X13922Y14924D1*
X13970Y14876D1*
Y14779D1*
X13922Y14730D1*
X13824Y14681D1*
X13727Y14657D1*
X13581Y14633D1*
X13338D1*
X13193Y14657D1*
X13095Y14681D1*
X12998Y14730D1*
X12949Y14779D1*
Y14876D1*
X12998Y14924D1*
X13095Y14973D1*
X13193Y14997D1*
X13727Y15473D2*
X13824Y15448D1*
X13922Y15400D1*
X13970Y15351D1*
Y15254D1*
X13922Y15205D1*
X13824Y15157D1*
X13727Y15132D1*
X13581Y15108D1*
X13338D1*
X13193Y15132D1*
X13095Y15157D1*
X12998Y15205D1*
X12949Y15254D1*
Y15351D1*
X12998Y15400D1*
X13095Y15448D1*
X13193Y15473D1*
X13790Y25576D2*
X13888Y25527D1*
X13936Y25454D1*
Y25357D1*
X13888Y25284D1*
X13790Y25235D1*
X13693D1*
X13596Y25260D1*
X13547Y25284D1*
X13499Y25333D1*
X13401Y25479D1*
X13353Y25527D1*
X13304Y25552D1*
X13207Y25576D1*
X13061D1*
X12965Y25527D1*
X12915Y25454D1*
Y25357D1*
X12965Y25284D1*
X13061Y25235D1*
X13936Y25687D2*
X12915D1*
Y25857D1*
X12965Y25930D1*
X13061Y25979D1*
X13159Y26003D1*
X13304Y26027D1*
X13547D1*
X13693Y26003D1*
X13790Y25979D1*
X13888Y25930D1*
X13936Y25857D1*
Y25687D1*
X13790Y26430D2*
X13887Y26405D1*
X13935Y26332D1*
Y26284D1*
X13887Y26211D1*
X13741Y26162D1*
X13498Y26138D1*
X13255D1*
X13061Y26162D1*
X12963Y26211D1*
X12915Y26284D1*
Y26308D1*
X12963Y26381D1*
X13061Y26430D1*
X13207Y26454D1*
X13255D1*
X13401Y26430D1*
X13498Y26381D1*
X13546Y26308D1*
Y26284D1*
X13498Y26211D1*
X13401Y26162D1*
X13255Y26138D1*
X13775Y23461D2*
X13873Y23413D1*
X13921Y23340D1*
Y23242D1*
X13873Y23169D1*
X13775Y23121D1*
X13678D1*
X13581Y23145D1*
X13532Y23169D1*
X13484Y23218D1*
X13386Y23364D1*
X13338Y23413D1*
X13289Y23437D1*
X13192Y23461D1*
X13046D1*
X12950Y23413D1*
X12900Y23340D1*
Y23242D1*
X12950Y23169D1*
X13046Y23121D1*
X13678Y23936D2*
X13775Y23912D1*
X13873Y23863D1*
X13921Y23815D1*
Y23718D1*
X13873Y23669D1*
X13775Y23621D1*
X13678Y23596D1*
X13532Y23572D1*
X13289D1*
X13144Y23596D1*
X13046Y23621D1*
X12950Y23669D1*
X12900Y23718D1*
Y23815D1*
X12950Y23863D1*
X13046Y23912D1*
X13144Y23936D1*
X13775Y24339D2*
X13872Y24315D1*
X13920Y24242D1*
Y24194D1*
X13872Y24121D1*
X13726Y24072D1*
X13483Y24048D1*
X13240D1*
X13046Y24072D1*
X12948Y24121D1*
X12900Y24194D1*
Y24218D1*
X12948Y24290D1*
X13046Y24339D1*
X13192Y24363D1*
X13240D1*
X13386Y24339D1*
X13483Y24290D1*
X13531Y24218D1*
Y24194D1*
X13483Y24121D1*
X13386Y24072D1*
X13240Y24048D1*
X13805Y21176D2*
X13903Y21128D1*
X13951Y21055D1*
Y20958D1*
X13903Y20885D1*
X13805Y20836D1*
X13709D1*
X13611Y20861D1*
X13563Y20885D1*
X13514Y20933D1*
X13417Y21079D1*
X13368Y21128D1*
X13319Y21152D1*
X13222Y21176D1*
X13076D1*
X12980Y21128D1*
X12930Y21055D1*
Y20958D1*
X12980Y20885D1*
X13076Y20836D1*
X13951Y21287D2*
X12930D1*
Y21457D1*
X12980Y21530D1*
X13076Y21579D1*
X13174Y21603D1*
X13319Y21628D1*
X13563D1*
X13709Y21603D1*
X13805Y21579D1*
X13903Y21530D1*
X13951Y21457D1*
Y21287D1*
X12930Y21836D2*
X13950Y22079D1*
Y21739D1*
X13768Y18728D2*
X13866Y18680D1*
X13914Y18607D1*
Y18510D1*
X13866Y18437D1*
X13768Y18388D1*
X13671D1*
X13574Y18413D1*
X13525Y18437D1*
X13477Y18485D1*
X13379Y18631D1*
X13331Y18680D1*
X13282Y18704D1*
X13185Y18728D1*
X13039D1*
X12943Y18680D1*
X12893Y18607D1*
Y18510D1*
X12943Y18437D1*
X13039Y18388D1*
X13671Y19204D2*
X13768Y19180D1*
X13866Y19131D1*
X13914Y19083D1*
Y18986D1*
X13866Y18937D1*
X13768Y18888D1*
X13671Y18864D1*
X13525Y18840D1*
X13282D1*
X13137Y18864D1*
X13039Y18888D1*
X12943Y18937D1*
X12893Y18986D1*
Y19083D1*
X12943Y19131D1*
X13039Y19180D1*
X13137Y19204D1*
X12893Y19412D2*
X13913Y19655D1*
Y19315D1*
X18880Y13805D2*
X18928Y13903D1*
X19001Y13951D1*
X19098D1*
X19171Y13903D1*
X19220Y13805D1*
Y13709D1*
X19195Y13611D1*
X19171Y13563D1*
X19123Y13515D1*
X18977Y13417D1*
X18928Y13369D1*
X18904Y13319D1*
X18880Y13223D1*
Y13077D1*
X18928Y12980D1*
X19001Y12931D1*
X19098D1*
X19171Y12980D1*
X19220Y13077D1*
X18769Y13951D2*
Y12931D1*
X18598D1*
X18525Y12980D1*
X18477Y13077D1*
X18452Y13174D1*
X18428Y13319D1*
Y13563D1*
X18452Y13709D1*
X18477Y13805D1*
X18525Y13903D1*
X18598Y13951D1*
X18769D1*
X18317Y13756D2*
X18268Y13805D1*
X18195Y13950D1*
Y12931D1*
X20781Y13795D2*
X20829Y13892D1*
X20902Y13941D1*
X20999D1*
X21072Y13892D1*
X21121Y13795D1*
Y13698D1*
X21096Y13600D1*
X21072Y13552D1*
X21024Y13504D1*
X20878Y13406D1*
X20829Y13358D1*
X20805Y13308D1*
X20781Y13212D1*
Y13066D1*
X20829Y12969D1*
X20902Y12920D1*
X20999D1*
X21072Y12969D1*
X21121Y13066D1*
X20305Y13698D2*
X20329Y13795D1*
X20378Y13892D1*
X20426Y13941D1*
X20524D1*
X20572Y13892D1*
X20621Y13795D1*
X20645Y13698D1*
X20670Y13552D1*
Y13308D1*
X20645Y13164D1*
X20621Y13066D1*
X20572Y12969D1*
X20524Y12920D1*
X20426D1*
X20378Y12969D1*
X20329Y13066D1*
X20305Y13164D1*
X20194Y13745D2*
X20145Y13795D1*
X20072Y13940D1*
Y12920D1*
X13923Y13766D2*
X13972Y13863D1*
X14045Y13912D1*
X14142D1*
X14215Y13863D1*
X14264Y13766D1*
Y13669D1*
X14239Y13571D1*
X14215Y13523D1*
X14166Y13475D1*
X14020Y13377D1*
X13972Y13329D1*
X13947Y13279D1*
X13923Y13183D1*
Y13037D1*
X13972Y12940D1*
X14045Y12891D1*
X14142D1*
X14215Y12940D1*
X14264Y13037D1*
X13812Y13912D2*
Y12891D1*
X13642D1*
X13569Y12940D1*
X13520Y13037D1*
X13496Y13134D1*
X13472Y13279D1*
Y13523D1*
X13496Y13669D1*
X13520Y13766D1*
X13569Y13863D1*
X13642Y13912D1*
X13812D1*
X13215Y13910D2*
X13288Y13862D1*
X13337Y13716D1*
X13361Y13474D1*
Y13328D1*
X13337Y13085D1*
X13288Y12939D1*
X13215Y12891D1*
X13167D1*
X13094Y12939D1*
X13045Y13085D1*
X13021Y13328D1*
Y13474D1*
X13045Y13716D1*
X13094Y13862D1*
X13167Y13910D1*
X13215D1*
X13045Y13716D2*
X13337Y13085D1*
X16506Y13794D2*
X16554Y13892D1*
X16627Y13940D1*
X16724D1*
X16797Y13892D1*
X16846Y13794D1*
Y13697D1*
X16821Y13600D1*
X16797Y13551D1*
X16749Y13503D1*
X16603Y13405D1*
X16554Y13357D1*
X16530Y13308D1*
X16506Y13211D1*
Y13065D1*
X16554Y12969D1*
X16627Y12919D1*
X16724D1*
X16797Y12969D1*
X16846Y13065D1*
X16030Y13697D2*
X16054Y13794D1*
X16103Y13892D1*
X16151Y13940D1*
X16249D1*
X16297Y13892D1*
X16346Y13794D1*
X16370Y13697D1*
X16395Y13551D1*
Y13308D1*
X16370Y13163D1*
X16346Y13065D1*
X16297Y12969D1*
X16249Y12919D1*
X16151D1*
X16103Y12969D1*
X16054Y13065D1*
X16030Y13163D1*
X15773Y13939D2*
X15846Y13891D1*
X15895Y13745D1*
X15919Y13502D1*
Y13356D1*
X15895Y13113D1*
X15846Y12967D1*
X15773Y12919D1*
X15725D1*
X15652Y12967D1*
X15604Y13113D1*
X15579Y13356D1*
Y13502D1*
X15604Y13745D1*
X15652Y13891D1*
X15725Y13939D1*
X15773D1*
X15604Y13745D2*
X15895Y13113D1*
X20335Y26499D2*
X20286Y26401D1*
X20213Y26353D1*
X20116D1*
X20043Y26401D1*
X19994Y26499D1*
Y26596D1*
X20019Y26693D1*
X20043Y26742D1*
X20092Y26790D1*
X20238Y26888D1*
X20286Y26936D1*
X20311Y26985D1*
X20335Y27082D1*
Y27228D1*
X20286Y27325D1*
X20213Y27374D1*
X20116D1*
X20043Y27325D1*
X19994Y27228D1*
X20446Y26353D2*
Y27374D1*
X20616D1*
X20689Y27325D1*
X20738Y27228D1*
X20762Y27130D1*
X20786Y26985D1*
Y26742D1*
X20762Y26596D1*
X20738Y26499D1*
X20689Y26401D1*
X20616Y26353D1*
X20446D1*
X21140Y27374D2*
Y26354D1*
X20897Y27034D1*
X21262D1*
X18632Y26534D2*
X18584Y26437D1*
X18511Y26388D1*
X18414D1*
X18341Y26437D1*
X18292Y26534D1*
Y26631D1*
X18317Y26729D1*
X18341Y26777D1*
X18389Y26825D1*
X18535Y26923D1*
X18584Y26971D1*
X18608Y27021D1*
X18632Y27117D1*
Y27263D1*
X18584Y27360D1*
X18511Y27409D1*
X18414D1*
X18341Y27360D1*
X18292Y27263D1*
X19108Y26631D2*
X19084Y26534D1*
X19035Y26437D1*
X18986Y26388D1*
X18889D1*
X18840Y26437D1*
X18792Y26534D1*
X18767Y26631D1*
X18743Y26777D1*
Y27021D1*
X18767Y27165D1*
X18792Y27263D1*
X18840Y27360D1*
X18889Y27409D1*
X18986D1*
X19035Y27360D1*
X19084Y27263D1*
X19108Y27165D1*
X19462Y27409D2*
Y26389D1*
X19219Y27069D1*
X19583D1*
X15930Y26567D2*
X15881Y26470D1*
X15808Y26421D1*
X15711D1*
X15638Y26470D1*
X15589Y26567D1*
Y26664D1*
X15614Y26762D1*
X15638Y26810D1*
X15687Y26858D1*
X15833Y26956D1*
X15881Y27004D1*
X15906Y27054D1*
X15930Y27150D1*
Y27296D1*
X15881Y27393D1*
X15808Y27442D1*
X15711D1*
X15638Y27393D1*
X15589Y27296D1*
X16041Y26421D2*
Y27442D1*
X16211D1*
X16284Y27393D1*
X16333Y27296D1*
X16357Y27198D1*
X16381Y27054D1*
Y26810D1*
X16357Y26664D1*
X16333Y26567D1*
X16284Y26470D1*
X16211Y26421D1*
X16041D1*
X16784Y26422D2*
X16541D1*
X16517Y26859D1*
X16541Y26811D1*
X16614Y26762D1*
X16687D1*
X16760Y26811D1*
X16808Y26908D1*
X16833Y27054D1*
Y27150D1*
X16808Y27296D1*
X16760Y27394D1*
X16687Y27442D1*
X16614D1*
X16541Y27394D1*
X16517Y27344D1*
X16492Y27248D1*
X14368Y26532D2*
X14320Y26434D1*
X14247Y26386D1*
X14150D1*
X14077Y26434D1*
X14028Y26532D1*
Y26628D1*
X14053Y26726D1*
X14077Y26774D1*
X14125Y26823D1*
X14271Y26920D1*
X14320Y26969D1*
X14344Y27018D1*
X14368Y27115D1*
Y27261D1*
X14320Y27357D1*
X14247Y27407D1*
X14150D1*
X14077Y27357D1*
X14028Y27261D1*
X14844Y26628D2*
X14820Y26532D1*
X14771Y26434D1*
X14723Y26386D1*
X14625D1*
X14577Y26434D1*
X14528Y26532D1*
X14504Y26628D1*
X14479Y26774D1*
Y27018D1*
X14504Y27163D1*
X14528Y27261D1*
X14577Y27357D1*
X14625Y27407D1*
X14723D1*
X14771Y27357D1*
X14820Y27261D1*
X14844Y27163D1*
X15246Y26387D2*
X15004D1*
X14980Y26824D1*
X15004Y26776D1*
X15077Y26726D1*
X15149D1*
X15222Y26776D1*
X15271Y26872D1*
X15295Y27018D1*
Y27115D1*
X15271Y27261D1*
X15222Y27358D1*
X15149Y27407D1*
X15077D1*
X15004Y27358D1*
X14980Y27309D1*
X14955Y27212D1*
X21428Y19162D2*
X21330Y19210D1*
X21282Y19283D1*
Y19381D1*
X21330Y19454D1*
X21428Y19502D1*
X21525D1*
X21622Y19478D1*
X21671Y19454D1*
X21719Y19405D1*
X21817Y19259D1*
X21865Y19210D1*
X21914Y19186D1*
X22011Y19162D1*
X22157D1*
X22254Y19210D1*
X22303Y19283D1*
Y19381D1*
X22254Y19454D1*
X22157Y19502D1*
X21282Y19051D2*
X22303D1*
Y18881D1*
X22254Y18808D1*
X22157Y18759D1*
X22059Y18735D1*
X21914Y18711D1*
X21671D1*
X21525Y18735D1*
X21428Y18759D1*
X21330Y18808D1*
X21282Y18881D1*
Y19051D1*
X21526Y18575D2*
X21478D1*
X21380Y18551D1*
X21332Y18527D1*
X21283Y18478D1*
Y18381D1*
X21332Y18332D1*
X21380Y18308D1*
X21478Y18284D1*
X21574D1*
X21672Y18308D1*
X21817Y18357D1*
X22303Y18600D1*
Y18259D1*
X21422Y21649D2*
X21325Y21697D1*
X21276Y21770D1*
Y21868D1*
X21325Y21941D1*
X21422Y21989D1*
X21519D1*
X21617Y21965D1*
X21665Y21941D1*
X21713Y21892D1*
X21811Y21746D1*
X21859Y21697D1*
X21909Y21673D1*
X22005Y21649D1*
X22151D1*
X22248Y21697D1*
X22297Y21770D1*
Y21868D1*
X22248Y21941D1*
X22151Y21989D1*
X21519Y21174D2*
X21422Y21198D1*
X21325Y21247D1*
X21276Y21295D1*
Y21392D1*
X21325Y21441D1*
X21422Y21489D1*
X21519Y21514D1*
X21665Y21538D1*
X21909D1*
X22054Y21514D1*
X22151Y21489D1*
X22248Y21441D1*
X22297Y21392D1*
Y21295D1*
X22248Y21247D1*
X22151Y21198D1*
X22054Y21174D1*
X21520Y21038D2*
X21472D1*
X21374Y21014D1*
X21326Y20989D1*
X21278Y20941D1*
Y20843D1*
X21326Y20795D1*
X21374Y20771D1*
X21472Y20746D1*
X21568D1*
X21666Y20771D1*
X21811Y20819D1*
X22297Y21062D1*
Y20722D1*
X21441Y24145D2*
X21343Y24194D1*
X21295Y24267D1*
Y24364D1*
X21343Y24437D1*
X21441Y24486D1*
X21537D1*
X21635Y24461D1*
X21683Y24437D1*
X21731Y24389D1*
X21829Y24243D1*
X21877Y24194D1*
X21927Y24170D1*
X22023Y24145D1*
X22169D1*
X22266Y24194D1*
X22315Y24267D1*
Y24364D1*
X22266Y24437D1*
X22169Y24486D1*
X21295Y24034D2*
X22315D1*
Y23864D1*
X22266Y23791D1*
X22169Y23742D1*
X22072Y23718D1*
X21927Y23694D1*
X21683D1*
X21537Y23718D1*
X21441Y23742D1*
X21343Y23791D1*
X21295Y23864D1*
Y24034D1*
X21296Y23534D2*
Y23267D1*
X21684Y23413D1*
Y23340D1*
X21733Y23291D1*
X21781Y23267D1*
X21927Y23243D1*
X22023D1*
X22169Y23267D1*
X22267Y23316D1*
X22315Y23389D1*
Y23462D1*
X22267Y23534D1*
X22218Y23558D1*
X22121Y23583D1*
X21471Y26157D2*
X21373Y26205D1*
X21325Y26278D1*
Y26376D1*
X21373Y26449D1*
X21471Y26497D1*
X21567D1*
X21665Y26473D1*
X21713Y26449D1*
X21762Y26400D1*
X21859Y26254D1*
X21908Y26205D1*
X21957Y26181D1*
X22054Y26157D1*
X22200D1*
X22296Y26205D1*
X22346Y26278D1*
Y26376D1*
X22296Y26449D1*
X22200Y26497D1*
X21567Y25682D2*
X21471Y25706D1*
X21373Y25755D1*
X21325Y25803D1*
Y25900D1*
X21373Y25949D1*
X21471Y25997D1*
X21567Y26022D1*
X21713Y26046D1*
X21957D1*
X22102Y26022D1*
X22200Y25997D1*
X22296Y25949D1*
X22346Y25900D1*
Y25803D1*
X22296Y25755D1*
X22200Y25706D1*
X22102Y25682D1*
X21326Y25522D2*
Y25255D1*
X21715Y25400D1*
Y25327D1*
X21763Y25279D1*
X21811Y25255D1*
X21957Y25230D1*
X22054D1*
X22200Y25255D1*
X22297Y25303D1*
X22346Y25376D1*
Y25449D1*
X22297Y25522D1*
X22248Y25546D1*
X22151Y25570D1*
X21443Y16612D2*
X21346Y16660D1*
X21297Y16733D1*
Y16830D1*
X21346Y16903D1*
X21443Y16952D1*
X21540D1*
X21638Y16928D1*
X21686Y16903D1*
X21734Y16855D1*
X21832Y16709D1*
X21880Y16660D1*
X21930Y16636D1*
X22026Y16612D1*
X22172D1*
X22269Y16660D1*
X22318Y16733D1*
Y16830D1*
X22269Y16903D1*
X22172Y16952D1*
X21297Y16501D2*
X22318D1*
Y16331D1*
X22269Y16258D1*
X22172Y16209D1*
X22074Y16185D1*
X21930Y16161D1*
X21686D1*
X21540Y16185D1*
X21443Y16209D1*
X21346Y16258D1*
X21297Y16331D1*
Y16501D1*
X22318Y15660D2*
X21297Y15855D1*
X22318Y16050D1*
X21978Y15977D2*
Y15733D1*
X21462Y14243D2*
X21365Y14291D1*
X21316Y14364D1*
Y14462D1*
X21365Y14535D1*
X21462Y14583D1*
X21559D1*
X21657Y14559D1*
X21705Y14535D1*
X21753Y14486D1*
X21851Y14340D1*
X21899Y14291D1*
X21949Y14267D1*
X22045Y14243D1*
X22191D1*
X22288Y14291D1*
X22337Y14364D1*
Y14462D1*
X22288Y14535D1*
X22191Y14583D1*
X21559Y13768D2*
X21462Y13792D1*
X21365Y13841D1*
X21316Y13889D1*
Y13986D1*
X21365Y14035D1*
X21462Y14083D1*
X21559Y14108D1*
X21705Y14132D1*
X21949D1*
X22093Y14108D1*
X22191Y14083D1*
X22288Y14035D1*
X22337Y13986D1*
Y13889D1*
X22288Y13841D1*
X22191Y13792D1*
X22093Y13768D1*
X21316Y13657D2*
X22337D1*
Y13365D1*
X15969Y20158D2*
Y19842D1*
X14949D1*
X15483D2*
Y20036D1*
X15629Y20294D2*
X14949Y20439D1*
X14754Y20391D1*
X14657Y20342D1*
X14608Y20294D1*
Y20269D1*
X15629Y20585D2*
X14949Y20439D1*
X15969Y20696D2*
X14949D1*
X15483D2*
X15581Y20745D1*
X15629Y20793D1*
Y20866D1*
X15581Y20915D1*
X15483Y20964D1*
X15337Y20988D1*
X15241D1*
X15095Y20964D1*
X14998Y20915D1*
X14949Y20866D1*
Y20793D1*
X14998Y20745D1*
X15095Y20696D1*
X15337Y21099D2*
Y21390D1*
X15435D1*
X15533Y21366D1*
X15581Y21342D1*
X15629Y21293D1*
Y21220D1*
X15581Y21172D1*
X15483Y21123D1*
X15337Y21099D1*
X15241D1*
X15095Y21123D1*
X14998Y21172D1*
X14949Y21220D1*
Y21293D1*
X14998Y21342D1*
X15095Y21390D1*
X15629Y21501D2*
X14949D1*
X15337D2*
X15483Y21526D1*
X15581Y21574D1*
X15629Y21623D1*
Y21696D1*
X15969Y22255D2*
X14949D1*
Y22547D1*
X15629Y22949D2*
X14949D1*
X15483D2*
X15581Y22901D1*
X15629Y22852D1*
Y22780D1*
X15581Y22731D1*
X15483Y22683D1*
X15337Y22658D1*
X15241D1*
X15095Y22683D1*
X14998Y22731D1*
X14949Y22780D1*
Y22852D1*
X14998Y22901D1*
X15095Y22949D1*
X15969Y23060D2*
X14949D1*
X15483D2*
X15581Y23109D1*
X15629Y23158D1*
Y23231D1*
X15581Y23279D1*
X15483Y23328D1*
X15337Y23352D1*
X15241D1*
X15095Y23328D1*
X14998Y23279D1*
X14949Y23231D1*
Y23158D1*
X14998Y23109D1*
X15095Y23060D1*
X15483Y23730D2*
X15581Y23706D1*
X15629Y23633D1*
Y23560D1*
X15581Y23487D1*
X15483Y23463D1*
X15387Y23487D1*
X15337Y23536D1*
X15289Y23657D1*
X15241Y23706D1*
X15143Y23730D1*
X15095D1*
X14998Y23706D1*
X14949Y23633D1*
Y23560D1*
X14998Y23487D1*
X15095Y23463D1*
X15969Y24289D2*
X14949D1*
X15629Y24401D2*
X14949D1*
X15435D2*
X15581Y24474D1*
X15629Y24522D1*
Y24595D1*
X15581Y24644D1*
X15435Y24668D1*
X14949D1*
X15483Y25071D2*
X15581Y25022D1*
X15629Y24973D1*
Y24901D1*
X15581Y24852D1*
X15483Y24804D1*
X15337Y24779D1*
X15241D1*
X15095Y24804D1*
X14998Y24852D1*
X14949Y24901D1*
Y24973D1*
X14998Y25022D1*
X15095Y25071D1*
X15046Y25206D2*
X14997Y25182D1*
X14949Y25206D1*
X14997Y25231D1*
X15046Y25206D1*
X18705Y22061D2*
X18753D1*
X18851Y22086D1*
X18899Y22110D1*
X18948Y22159D1*
Y22256D1*
X18899Y22304D1*
X18851Y22328D1*
X18753Y22353D1*
X18657D1*
X18559Y22328D1*
X18414Y22280D1*
X17928Y22037D1*
Y22377D1*
X18948Y22634D2*
X18899Y22561D1*
X18753Y22512D1*
X18511Y22488D1*
X18365D1*
X18122Y22512D1*
X17976Y22561D1*
X17928Y22634D1*
Y22682D1*
X17976Y22755D1*
X18122Y22804D1*
X18365Y22828D1*
X18511D1*
X18753Y22804D1*
X18899Y22755D1*
X18948Y22682D1*
Y22634D1*
X18753Y22804D2*
X18122Y22512D1*
X18753Y22940D2*
X18803Y22988D1*
X18948Y23061D1*
X17928D1*
X18948Y23464D2*
Y23221D1*
X18511Y23197D1*
X18559Y23221D1*
X18609Y23294D1*
Y23367D1*
X18559Y23440D1*
X18463Y23489D1*
X18317Y23513D1*
X18220D1*
X18074Y23489D1*
X17976Y23440D1*
X17928Y23367D1*
Y23294D1*
X17976Y23221D1*
X18026Y23197D1*
X18122Y23173D1*
X20308Y22861D2*
Y23079D1*
X20357Y23152D1*
X20405Y23177D1*
X20502Y23201D1*
X20600D1*
X20696Y23177D1*
X20746Y23152D1*
X20794Y23079D1*
Y22861D1*
X19773D1*
X20308Y23031D2*
X19773Y23201D1*
X20793Y23458D2*
X20745Y23385D1*
X20599Y23336D1*
X20356Y23312D1*
X20210D1*
X19967Y23337D1*
X19821Y23385D1*
X19773Y23458D1*
Y23507D1*
X19821Y23580D1*
X19967Y23628D1*
X20210Y23653D1*
X20356D1*
X20599Y23628D1*
X20745Y23580D1*
X20793Y23507D1*
Y23458D1*
X20599Y23628D2*
X19967Y23337D1*
X19871Y23788D2*
X19821Y23764D1*
X19773Y23788D1*
X19821Y23813D1*
X19871Y23788D1*
X20793Y24215D2*
Y23973D1*
X20356Y23948D1*
X20404Y23973D1*
X20454Y24046D1*
Y24118D1*
X20404Y24191D1*
X20308Y24240D1*
X20162Y24264D1*
X20065D1*
X19919Y24240D1*
X19821Y24191D1*
X19773Y24118D1*
Y24046D1*
X19821Y23973D1*
X19871Y23948D1*
X19967Y23924D1*
X20786Y18780D2*
Y18463D1*
X19766D1*
X20300D2*
Y18658D1*
X20786Y18891D2*
X19766D1*
X20154Y19002D2*
Y19293D1*
X20252D1*
X20350Y19269D1*
X20398Y19245D1*
X20446Y19196D1*
Y19123D1*
X20398Y19075D1*
X20300Y19026D1*
X20154Y19002D1*
X20058D1*
X19912Y19026D1*
X19815Y19075D1*
X19766Y19123D1*
Y19196D1*
X19815Y19245D1*
X19912Y19293D1*
X20446Y19404D2*
X19766Y19672D1*
X20446D2*
X19766Y19404D1*
Y20619D2*
X20786D1*
X19766Y20425D1*
X20786Y20231D1*
X19766D1*
X20446Y20852D2*
X20398Y20803D1*
X20300Y20755D1*
X20154Y20730D1*
X20058D1*
X19912Y20755D1*
X19815Y20803D1*
X19766Y20852D1*
Y20925D1*
X19815Y20974D1*
X19912Y21022D1*
X20058Y21047D1*
X20154D1*
X20300Y21022D1*
X20398Y20974D1*
X20446Y20925D1*
Y20852D1*
X20786Y21449D2*
X19766D1*
X20300D2*
X20398Y21401D1*
X20446Y21352D1*
Y21279D1*
X20398Y21231D1*
X20300Y21182D1*
X20154Y21158D1*
X20058D1*
X19912Y21182D1*
X19815Y21231D1*
X19766Y21279D1*
Y21352D1*
X19815Y21401D1*
X19912Y21449D1*
X20446Y21560D2*
X19960D1*
X19815Y21584D1*
X19766Y21633D1*
Y21706D1*
X19815Y21755D1*
X19960Y21828D1*
X20446D2*
X19766D1*
X20786Y21939D2*
X19766D1*
X20154Y22050D2*
Y22341D1*
X20252D1*
X20350Y22317D1*
X20398Y22293D1*
X20446Y22244D1*
Y22171D1*
X20398Y22123D1*
X20300Y22074D1*
X20154Y22050D1*
X20058D1*
X19912Y22074D1*
X19815Y22123D1*
X19766Y22171D1*
Y22244D1*
X19815Y22293D1*
X19912Y22341D1*
X20787Y14442D2*
X20739Y14467D1*
X20787Y14491D1*
X20836Y14467D1*
X20787Y14442D1*
X20447Y14467D2*
X19766D1*
X20543Y14627D2*
X20591D1*
X20689Y14651D1*
X20737Y14675D1*
X20786Y14724D1*
Y14821D1*
X20737Y14870D1*
X20689Y14894D1*
X20591Y14919D1*
X20495D1*
X20397Y14894D1*
X20252Y14846D1*
X19766Y14602D1*
Y14943D1*
X20301Y15346D2*
X20398Y15297D1*
X20447Y15248D1*
Y15176D1*
X20398Y15127D1*
X20301Y15079D1*
X20155Y15054D1*
X20058D1*
X19912Y15079D1*
X19815Y15127D1*
X19766Y15176D1*
Y15248D1*
X19815Y15297D1*
X19912Y15346D1*
X20641Y16245D2*
X20739Y16197D1*
X20787Y16124D1*
Y16027D1*
X20739Y15954D1*
X20641Y15905D1*
X20544D1*
X20447Y15930D1*
X20398Y15954D1*
X20350Y16002D1*
X20252Y16148D1*
X20204Y16197D1*
X20155Y16221D1*
X20058Y16245D1*
X19912D1*
X19815Y16197D1*
X19766Y16124D1*
Y16027D1*
X19815Y15954D1*
X19912Y15905D1*
X20447Y16356D2*
X19766Y16453D1*
X20447Y16551D1*
X19766Y16648D1*
X20447Y16745D1*
X20787Y16856D2*
X20739Y16880D1*
X20787Y16905D1*
X20836Y16880D1*
X20787Y16856D1*
X20447Y16880D2*
X19766D1*
X20787Y17089D2*
X19960D1*
X19815Y17113D1*
X19766Y17162D1*
Y17210D1*
X20447Y17016D2*
Y17186D1*
X20301Y17613D2*
X20398Y17565D1*
X20447Y17516D1*
Y17443D1*
X20398Y17394D1*
X20301Y17346D1*
X20155Y17321D1*
X20058D1*
X19912Y17346D1*
X19815Y17394D1*
X19766Y17443D1*
Y17516D1*
X19815Y17565D1*
X19912Y17613D1*
X20787Y17725D2*
X19766D1*
X20252D2*
X20398Y17798D1*
X20447Y17846D1*
Y17919D1*
X20398Y17968D1*
X20252Y17992D1*
X19766D1*
M02*
