G04 DipTrace 2.4.0.2*
%INi2cswitch.gto*%
%MOMM*%
%ADD10C,0.25*%
%ADD17C,0.15*%
%ADD23O,0.33X0.322*%
%ADD26O,0.377X0.312*%
%ADD31O,0.4X0.437*%
%ADD55C,0.118*%
%ADD56C,0.111*%
%FSLAX53Y53*%
G04*
G71*
G90*
G75*
G01*
%LNTopSilk*%
%LPD*%
X15452Y16738D2*
D17*
G02X16802Y16738I675J-80D01*
G01*
Y14738D2*
G02X15452Y14738I-675J80D01*
G01*
X16802D2*
Y16738D1*
X15452Y14738D2*
Y16738D1*
X17285Y16736D2*
G02X18635Y16736I675J-80D01*
G01*
Y14736D2*
G02X17285Y14736I-675J80D01*
G01*
X18635D2*
Y16736D1*
X17285Y14736D2*
Y16736D1*
X19116Y16765D2*
G02X20466Y16765I675J-80D01*
G01*
Y14765D2*
G02X19116Y14765I-675J80D01*
G01*
X20466D2*
Y16765D1*
X19116Y14765D2*
Y16765D1*
X17015Y18275D2*
D10*
Y19175D1*
X19615Y18275D2*
Y19175D1*
D23*
X17247Y17714D3*
X16008Y19069D2*
D10*
Y18069D1*
X14608Y19069D2*
Y18069D1*
D26*
X15929Y19540D3*
D31*
X20929Y21537D3*
X20012Y21392D2*
D10*
X19512Y20891D1*
X16512D2*
X16012D1*
Y21392D1*
Y24392D2*
Y24892D1*
X16512D1*
X20012Y24392D2*
Y24892D1*
X19512D1*
X17328Y13714D2*
D55*
X16562Y13539D1*
X17328Y13364D1*
X17073Y13429D2*
Y13648D1*
X16563Y13987D2*
X16599Y13921D1*
X16709Y13877D1*
X16891Y13855D1*
X17000D1*
X17182Y13877D1*
X17292Y13921D1*
X17328Y13987D1*
Y14030D1*
X17292Y14096D1*
X17182Y14139D1*
X17000Y14161D1*
X16891D1*
X16709Y14139D1*
X16599Y14096D1*
X16563Y14030D1*
Y13987D1*
X16709Y14139D2*
X17182Y13877D1*
X19093Y13787D2*
X18328Y13612D1*
X19093Y13437D1*
X18838Y13503D2*
Y13722D1*
X18474Y13928D2*
X18437Y13972D1*
X18329Y14038D1*
X19093D1*
X20261Y13527D2*
X19496Y13352D1*
X20261Y13177D1*
X20006Y13243D2*
Y13462D1*
X19678Y13691D2*
X19642D1*
X19569Y13712D1*
X19533Y13734D1*
X19496Y13778D1*
Y13866D1*
X19533Y13909D1*
X19569Y13931D1*
X19642Y13953D1*
X19715D1*
X19788Y13931D1*
X19896Y13887D1*
X20261Y13669D1*
Y13975D1*
X20223Y18725D2*
Y18922D1*
X20186Y18988D1*
X20149Y19010D1*
X20077Y19032D1*
X20004D1*
X19931Y19010D1*
X19894Y18988D1*
X19858Y18922D1*
Y18725D1*
X20624D1*
X20223Y18879D2*
X20624Y19032D1*
X20004Y19173D2*
X19967Y19217D1*
X19859Y19283D1*
X20624D1*
X13909Y17505D2*
Y17701D1*
X13872Y17767D1*
X13835Y17789D1*
X13763Y17811D1*
X13690D1*
X13617Y17789D1*
X13580Y17767D1*
X13544Y17701D1*
Y17505D1*
X14310D1*
X13909Y17658D2*
X14310Y17811D1*
X13727Y17974D2*
X13691D1*
X13617Y17996D1*
X13581Y18018D1*
X13545Y18062D1*
Y18149D1*
X13581Y18193D1*
X13617Y18214D1*
X13691Y18237D1*
X13763D1*
X13836Y18214D1*
X13945Y18171D1*
X14310Y17952D1*
Y18258D1*
X15524Y25194D2*
X16071D1*
X16180Y25216D1*
X16253Y25260D1*
X16290Y25325D1*
Y25369D1*
X16253Y25435D1*
X16180Y25479D1*
X16071Y25500D1*
X15524D1*
X15671Y25641D2*
X15633Y25685D1*
X15525Y25751D1*
X16290D1*
X13706Y16552D2*
X13634Y16530D1*
X13560Y16486D1*
X13524Y16443D1*
Y16355D1*
X13560Y16311D1*
X13634Y16268D1*
X13706Y16246D1*
X13815Y16224D1*
X13998D1*
X14107Y16246D1*
X14180Y16268D1*
X14253Y16311D1*
X14290Y16355D1*
Y16443D1*
X14253Y16486D1*
X14180Y16530D1*
X14107Y16552D1*
X13671Y16693D2*
X13634Y16737D1*
X13525Y16803D1*
X14290D1*
X14633Y16534D2*
X14561Y16512D1*
X14487Y16468D1*
X14451Y16425D1*
Y16337D1*
X14487Y16294D1*
X14561Y16250D1*
X14633Y16228D1*
X14743Y16206D1*
X14925D1*
X15034Y16228D1*
X15107Y16250D1*
X15180Y16294D1*
X15217Y16337D1*
Y16425D1*
X15180Y16468D1*
X15107Y16512D1*
X15034Y16534D1*
X14634Y16697D2*
X14598D1*
X14524Y16719D1*
X14488Y16741D1*
X14452Y16785D1*
Y16872D1*
X14488Y16916D1*
X14524Y16938D1*
X14598Y16960D1*
X14670D1*
X14743Y16938D1*
X14852Y16894D1*
X15217Y16675D1*
Y16982D1*
X20960Y13082D2*
D56*
X20911Y13180D1*
X20838Y13228D1*
X20741D1*
X20668Y13180D1*
X20619Y13082D1*
Y12986D1*
X20644Y12888D1*
X20668Y12840D1*
X20717Y12791D1*
X20863Y12694D1*
X20911Y12645D1*
X20936Y12596D1*
X20960Y12499D1*
Y12353D1*
X20911Y12257D1*
X20838Y12207D1*
X20741D1*
X20668Y12257D1*
X20619Y12353D1*
X21071Y13228D2*
Y12207D1*
X21241D1*
X21314Y12257D1*
X21363Y12353D1*
X21387Y12451D1*
X21411Y12596D1*
Y12840D1*
X21387Y12986D1*
X21363Y13082D1*
X21314Y13180D1*
X21241Y13228D1*
X21071D1*
X21911Y12207D2*
X21716Y13228D1*
X21522Y12207D1*
X21595Y12548D2*
X21838D1*
X18242Y13085D2*
X18194Y13182D1*
X18121Y13231D1*
X18024D1*
X17951Y13182D1*
X17902Y13085D1*
Y12988D1*
X17927Y12890D1*
X17951Y12842D1*
X17999Y12794D1*
X18145Y12696D1*
X18194Y12648D1*
X18218Y12598D1*
X18242Y12502D1*
Y12356D1*
X18194Y12259D1*
X18121Y12210D1*
X18024D1*
X17951Y12259D1*
X17902Y12356D1*
X18718Y12988D2*
X18694Y13085D1*
X18645Y13182D1*
X18596Y13231D1*
X18499D1*
X18450Y13182D1*
X18402Y13085D1*
X18377Y12988D1*
X18353Y12842D1*
Y12598D1*
X18377Y12454D1*
X18402Y12356D1*
X18450Y12259D1*
X18499Y12210D1*
X18596D1*
X18645Y12259D1*
X18694Y12356D1*
X18718Y12454D1*
X18829Y13231D2*
Y12210D1*
X19120D1*
X22123Y23605D2*
X22026Y23556D1*
X21977Y23483D1*
Y23386D1*
X22026Y23313D1*
X22123Y23264D1*
X22220D1*
X22318Y23289D1*
X22366Y23313D1*
X22414Y23362D1*
X22512Y23508D1*
X22560Y23556D1*
X22610Y23581D1*
X22706Y23605D1*
X22852D1*
X22949Y23556D1*
X22998Y23483D1*
Y23386D1*
X22949Y23313D1*
X22852Y23264D1*
X21977Y23716D2*
X22998D1*
Y23886D1*
X22949Y23959D1*
X22852Y24008D1*
X22754Y24032D1*
X22610Y24056D1*
X22366D1*
X22220Y24032D1*
X22123Y24008D1*
X22026Y23959D1*
X21977Y23886D1*
Y23716D1*
X22221Y24192D2*
X22173D1*
X22075Y24216D1*
X22027Y24240D1*
X21978Y24289D1*
Y24386D1*
X22027Y24434D1*
X22075Y24459D1*
X22173Y24483D1*
X22269D1*
X22367Y24459D1*
X22512Y24410D1*
X22998Y24167D1*
Y24507D1*
X22069Y26112D2*
X21971Y26063D1*
X21923Y25990D1*
Y25893D1*
X21971Y25820D1*
X22069Y25771D1*
X22166D1*
X22263Y25796D1*
X22312Y25820D1*
X22360Y25868D1*
X22458Y26014D1*
X22506Y26063D1*
X22555Y26087D1*
X22652Y26112D1*
X22798D1*
X22895Y26063D1*
X22944Y25990D1*
Y25893D1*
X22895Y25820D1*
X22798Y25771D1*
X22166Y26587D2*
X22069Y26563D1*
X21971Y26514D1*
X21923Y26466D1*
Y26369D1*
X21971Y26320D1*
X22069Y26272D1*
X22166Y26247D1*
X22312Y26223D1*
X22555D1*
X22700Y26247D1*
X22798Y26272D1*
X22895Y26320D1*
X22944Y26369D1*
Y26466D1*
X22895Y26514D1*
X22798Y26563D1*
X22700Y26587D1*
X22167Y26723D2*
X22119D1*
X22021Y26747D1*
X21973Y26771D1*
X21924Y26820D1*
Y26917D1*
X21973Y26966D1*
X22021Y26990D1*
X22119Y27014D1*
X22215D1*
X22313Y26990D1*
X22458Y26941D1*
X22944Y26698D1*
Y27039D1*
X21468Y27202D2*
X21516Y27104D1*
X21589Y27056D1*
X21686D1*
X21759Y27104D1*
X21808Y27202D1*
Y27298D1*
X21783Y27396D1*
X21759Y27444D1*
X21711Y27493D1*
X21565Y27590D1*
X21516Y27639D1*
X21492Y27688D1*
X21468Y27785D1*
Y27931D1*
X21516Y28027D1*
X21589Y28077D1*
X21686D1*
X21759Y28027D1*
X21808Y27931D1*
X21356Y27056D2*
Y28077D1*
X21186D1*
X21113Y28027D1*
X21064Y27931D1*
X21040Y27833D1*
X21016Y27688D1*
Y27444D1*
X21040Y27298D1*
X21064Y27202D1*
X21113Y27104D1*
X21186Y27056D1*
X21356D1*
X20856Y27057D2*
X20589D1*
X20735Y27446D1*
X20662D1*
X20614Y27494D1*
X20589Y27542D1*
X20565Y27688D1*
Y27785D1*
X20589Y27931D1*
X20638Y28028D1*
X20711Y28077D1*
X20784D1*
X20856Y28028D1*
X20880Y27979D1*
X20905Y27882D1*
X19162Y27173D2*
X19210Y27076D1*
X19283Y27027D1*
X19380D1*
X19453Y27076D1*
X19502Y27173D1*
Y27270D1*
X19478Y27368D1*
X19453Y27416D1*
X19405Y27464D1*
X19259Y27562D1*
X19210Y27610D1*
X19186Y27660D1*
X19162Y27756D1*
Y27902D1*
X19210Y27999D1*
X19283Y28048D1*
X19380D1*
X19453Y27999D1*
X19502Y27902D1*
X18686Y27270D2*
X18711Y27173D1*
X18759Y27076D1*
X18808Y27027D1*
X18905D1*
X18954Y27076D1*
X19002Y27173D1*
X19027Y27270D1*
X19051Y27416D1*
Y27660D1*
X19027Y27805D1*
X19002Y27902D1*
X18954Y27999D1*
X18905Y28048D1*
X18808D1*
X18759Y27999D1*
X18711Y27902D1*
X18686Y27805D1*
X18527Y27029D2*
X18260D1*
X18405Y27417D1*
X18332D1*
X18284Y27465D1*
X18260Y27514D1*
X18235Y27660D1*
Y27756D1*
X18260Y27902D1*
X18308Y28000D1*
X18381Y28048D1*
X18454D1*
X18527Y28000D1*
X18551Y27951D1*
X18575Y27854D1*
X22100Y18667D2*
X22002Y18618D1*
X21954Y18545D1*
Y18448D1*
X22002Y18375D1*
X22100Y18326D1*
X22196D1*
X22294Y18351D1*
X22342Y18375D1*
X22391Y18424D1*
X22488Y18570D1*
X22537Y18618D1*
X22586Y18643D1*
X22683Y18667D1*
X22829D1*
X22925Y18618D1*
X22975Y18545D1*
Y18448D1*
X22925Y18375D1*
X22829Y18326D1*
X21954Y18778D2*
X22975D1*
Y18948D1*
X22925Y19021D1*
X22829Y19070D1*
X22731Y19094D1*
X22586Y19118D1*
X22342D1*
X22196Y19094D1*
X22100Y19070D1*
X22002Y19021D1*
X21954Y18948D1*
Y18778D1*
X22149Y19229D2*
X22100Y19278D1*
X21955Y19351D1*
X22975D1*
X22103Y21222D2*
X22005Y21174D1*
X21957Y21101D1*
Y21004D1*
X22005Y20931D1*
X22103Y20882D1*
X22200D1*
X22297Y20907D1*
X22346Y20931D1*
X22394Y20979D1*
X22492Y21125D1*
X22540Y21174D1*
X22589Y21198D1*
X22686Y21222D1*
X22832D1*
X22929Y21174D1*
X22978Y21101D1*
Y21004D1*
X22929Y20931D1*
X22832Y20882D1*
X22200Y21698D2*
X22103Y21674D1*
X22005Y21625D1*
X21957Y21577D1*
Y21479D1*
X22005Y21431D1*
X22103Y21382D1*
X22200Y21358D1*
X22346Y21333D1*
X22589D1*
X22734Y21358D1*
X22832Y21382D1*
X22929Y21431D1*
X22978Y21479D1*
Y21577D1*
X22929Y21625D1*
X22832Y21674D1*
X22734Y21698D1*
X22153Y21809D2*
X22103Y21858D1*
X21958Y21931D1*
X22978D1*
X22118Y13738D2*
X22020Y13690D1*
X21972Y13617D1*
Y13520D1*
X22020Y13447D1*
X22118Y13398D1*
X22214D1*
X22312Y13423D1*
X22360Y13447D1*
X22408Y13495D1*
X22506Y13641D1*
X22554Y13690D1*
X22604Y13714D1*
X22700Y13738D1*
X22846D1*
X22943Y13690D1*
X22992Y13617D1*
Y13520D1*
X22943Y13447D1*
X22846Y13398D1*
X21972Y13849D2*
X22992D1*
Y14020D1*
X22943Y14093D1*
X22846Y14141D1*
X22749Y14166D1*
X22604Y14190D1*
X22360D1*
X22214Y14166D1*
X22118Y14141D1*
X22020Y14093D1*
X21972Y14020D1*
Y13849D1*
X21973Y14447D2*
X22021Y14374D1*
X22167Y14325D1*
X22410Y14301D1*
X22556D1*
X22798Y14325D1*
X22944Y14374D1*
X22992Y14447D1*
Y14495D1*
X22944Y14568D1*
X22798Y14616D1*
X22556Y14641D1*
X22410D1*
X22167Y14616D1*
X22021Y14568D1*
X21973Y14495D1*
Y14447D1*
X22167Y14616D2*
X22798Y14325D1*
X22127Y16023D2*
X22029Y15975D1*
X21981Y15902D1*
Y15805D1*
X22029Y15732D1*
X22127Y15683D1*
X22223D1*
X22321Y15708D1*
X22369Y15732D1*
X22418Y15780D1*
X22515Y15926D1*
X22564Y15975D1*
X22613Y15999D1*
X22710Y16023D1*
X22856D1*
X22952Y15975D1*
X23002Y15902D1*
Y15805D1*
X22952Y15732D1*
X22856Y15683D1*
X22223Y16499D2*
X22127Y16475D1*
X22029Y16426D1*
X21981Y16377D1*
Y16280D1*
X22029Y16231D1*
X22127Y16183D1*
X22223Y16158D1*
X22369Y16134D1*
X22613D1*
X22758Y16158D1*
X22856Y16183D1*
X22952Y16231D1*
X23002Y16280D1*
Y16377D1*
X22952Y16426D1*
X22856Y16475D1*
X22758Y16499D1*
X21982Y16756D2*
X22030Y16683D1*
X22176Y16634D1*
X22419Y16610D1*
X22565D1*
X22807Y16634D1*
X22953Y16683D1*
X23002Y16756D1*
Y16804D1*
X22953Y16877D1*
X22807Y16925D1*
X22565Y16950D1*
X22419D1*
X22176Y16925D1*
X22030Y16877D1*
X21982Y16804D1*
Y16756D1*
X22176Y16925D2*
X22807Y16634D1*
X16156Y12983D2*
X16132Y13080D1*
X16083Y13178D1*
X16035Y13226D1*
X15938D1*
X15889Y13178D1*
X15841Y13080D1*
X15816Y12983D1*
X15792Y12837D1*
Y12594D1*
X15816Y12449D1*
X15841Y12351D1*
X15889Y12254D1*
X15938Y12205D1*
X16035D1*
X16083Y12254D1*
X16132Y12351D1*
X16156Y12449D1*
Y12594D1*
X16035D1*
X16608Y13226D2*
Y12205D1*
X16267Y13226D1*
Y12205D1*
X16719Y13226D2*
Y12205D1*
X16889D1*
X16962Y12254D1*
X17011Y12351D1*
X17035Y12449D1*
X17059Y12594D1*
Y12837D1*
X17035Y12983D1*
X17011Y13080D1*
X16962Y13178D1*
X16889Y13226D1*
X16719D1*
X13113Y13227D2*
X13307Y12206D1*
X13502Y13227D1*
X13613D2*
Y12206D1*
X13783D1*
X13856Y12255D1*
X13905Y12352D1*
X13929Y12450D1*
X13953Y12595D1*
Y12838D1*
X13929Y12984D1*
X13905Y13081D1*
X13856Y13179D1*
X13783Y13227D1*
X13613D1*
X14064D2*
Y12206D1*
X14234D1*
X14307Y12255D1*
X14356Y12352D1*
X14380Y12450D1*
X14405Y12595D1*
Y12838D1*
X14380Y12984D1*
X14356Y13081D1*
X14307Y13179D1*
X14234Y13227D1*
X14064D1*
X16637Y27164D2*
X16685Y27066D1*
X16758Y27018D1*
X16855D1*
X16928Y27066D1*
X16977Y27164D1*
Y27261D1*
X16952Y27358D1*
X16928Y27407D1*
X16880Y27455D1*
X16734Y27553D1*
X16685Y27601D1*
X16661Y27650D1*
X16637Y27747D1*
Y27893D1*
X16685Y27990D1*
X16758Y28039D1*
X16855D1*
X16928Y27990D1*
X16977Y27893D1*
X16526Y27018D2*
Y28039D1*
X16356D1*
X16283Y27990D1*
X16234Y27893D1*
X16210Y27795D1*
X16185Y27650D1*
Y27407D1*
X16210Y27261D1*
X16234Y27164D1*
X16283Y27066D1*
X16356Y27018D1*
X16526D1*
X15831Y28039D2*
Y27019D1*
X16074Y27699D1*
X15710D1*
X14351Y27157D2*
X14399Y27060D1*
X14472Y27011D1*
X14569D1*
X14642Y27060D1*
X14691Y27157D1*
Y27254D1*
X14666Y27352D1*
X14642Y27400D1*
X14594Y27448D1*
X14448Y27546D1*
X14399Y27594D1*
X14375Y27644D1*
X14351Y27740D1*
Y27886D1*
X14399Y27983D1*
X14472Y28032D1*
X14569D1*
X14642Y27983D1*
X14691Y27886D1*
X13875Y27254D2*
X13899Y27157D1*
X13948Y27060D1*
X13996Y27011D1*
X14094D1*
X14142Y27060D1*
X14191Y27157D1*
X14215Y27254D1*
X14240Y27400D1*
Y27644D1*
X14215Y27789D1*
X14191Y27886D1*
X14142Y27983D1*
X14094Y28032D1*
X13996D1*
X13948Y27983D1*
X13899Y27886D1*
X13875Y27789D1*
X13521Y28032D2*
Y27013D1*
X13764Y27692D1*
X13400D1*
X13184Y26591D2*
X13281Y26639D1*
X13330Y26712D1*
Y26809D1*
X13281Y26882D1*
X13184Y26931D1*
X13087D1*
X12989Y26906D1*
X12941Y26882D1*
X12893Y26834D1*
X12795Y26688D1*
X12747Y26639D1*
X12697Y26615D1*
X12601Y26591D1*
X12455D1*
X12358Y26639D1*
X12309Y26712D1*
Y26809D1*
X12358Y26882D1*
X12455Y26931D1*
X13330Y26480D2*
X12309D1*
Y26310D1*
X12358Y26237D1*
X12455Y26188D1*
X12553Y26164D1*
X12697Y26139D1*
X12941D1*
X13087Y26164D1*
X13184Y26188D1*
X13281Y26237D1*
X13330Y26310D1*
Y26480D1*
X13329Y25737D2*
Y25979D1*
X12892Y26004D1*
X12940Y25979D1*
X12989Y25906D1*
Y25834D1*
X12940Y25761D1*
X12843Y25712D1*
X12697Y25688D1*
X12601D1*
X12455Y25712D1*
X12357Y25761D1*
X12309Y25834D1*
Y25906D1*
X12357Y25979D1*
X12407Y26004D1*
X12503Y26028D1*
X13159Y24307D2*
X13257Y24356D1*
X13305Y24429D1*
Y24526D1*
X13257Y24599D1*
X13159Y24648D1*
X13062D1*
X12965Y24623D1*
X12916Y24599D1*
X12868Y24550D1*
X12770Y24404D1*
X12722Y24356D1*
X12673Y24331D1*
X12576Y24307D1*
X12430D1*
X12334Y24356D1*
X12284Y24429D1*
Y24526D1*
X12334Y24599D1*
X12430Y24648D1*
X13062Y23832D2*
X13159Y23856D1*
X13257Y23905D1*
X13305Y23953D1*
Y24050D1*
X13257Y24099D1*
X13159Y24147D1*
X13062Y24172D1*
X12916Y24196D1*
X12673D1*
X12528Y24172D1*
X12430Y24147D1*
X12334Y24099D1*
X12284Y24050D1*
Y23953D1*
X12334Y23905D1*
X12430Y23856D1*
X12528Y23832D1*
X13304Y23429D2*
Y23672D1*
X12867Y23696D1*
X12915Y23672D1*
X12965Y23599D1*
Y23526D1*
X12915Y23453D1*
X12819Y23404D1*
X12673Y23380D1*
X12576D1*
X12430Y23404D1*
X12332Y23453D1*
X12284Y23526D1*
Y23599D1*
X12332Y23672D1*
X12382Y23696D1*
X12478Y23721D1*
X13155Y21725D2*
X13252Y21773D1*
X13301Y21846D1*
Y21944D1*
X13252Y22017D1*
X13155Y22065D1*
X13058D1*
X12960Y22041D1*
X12912Y22017D1*
X12864Y21968D1*
X12766Y21822D1*
X12718Y21773D1*
X12668Y21749D1*
X12572Y21725D1*
X12426D1*
X12329Y21773D1*
X12280Y21846D1*
Y21944D1*
X12329Y22017D1*
X12426Y22065D1*
X13301Y21614D2*
X12280D1*
Y21444D1*
X12329Y21371D1*
X12426Y21322D1*
X12523Y21298D1*
X12668Y21274D1*
X12912D1*
X13058Y21298D1*
X13155Y21322D1*
X13252Y21371D1*
X13301Y21444D1*
Y21614D1*
X13155Y20871D2*
X13251Y20895D1*
X13299Y20968D1*
Y21017D1*
X13251Y21090D1*
X13105Y21138D1*
X12863Y21163D1*
X12620D1*
X12426Y21138D1*
X12328Y21090D1*
X12280Y21017D1*
Y20992D1*
X12328Y20920D1*
X12426Y20871D1*
X12572Y20847D1*
X12620D1*
X12766Y20871D1*
X12863Y20920D1*
X12911Y20992D1*
Y21017D1*
X12863Y21090D1*
X12766Y21138D1*
X12620Y21163D1*
X13187Y19144D2*
X13285Y19192D1*
X13333Y19265D1*
Y19363D1*
X13285Y19436D1*
X13187Y19484D1*
X13091D1*
X12993Y19460D1*
X12945Y19436D1*
X12896Y19387D1*
X12799Y19241D1*
X12750Y19192D1*
X12701Y19168D1*
X12604Y19144D1*
X12458D1*
X12362Y19192D1*
X12312Y19265D1*
Y19363D1*
X12362Y19436D1*
X12458Y19484D1*
X13091Y18669D2*
X13187Y18693D1*
X13285Y18742D1*
X13333Y18790D1*
Y18887D1*
X13285Y18936D1*
X13187Y18984D1*
X13091Y19009D1*
X12945Y19033D1*
X12701D1*
X12556Y19009D1*
X12458Y18984D1*
X12362Y18936D1*
X12312Y18887D1*
Y18790D1*
X12362Y18742D1*
X12458Y18693D1*
X12556Y18669D1*
X13187Y18266D2*
X13284Y18290D1*
X13332Y18363D1*
Y18411D1*
X13284Y18484D1*
X13138Y18533D1*
X12895Y18557D1*
X12653D1*
X12458Y18533D1*
X12361Y18484D1*
X12312Y18411D1*
Y18387D1*
X12361Y18315D1*
X12458Y18266D1*
X12604Y18242D1*
X12653D1*
X12799Y18266D1*
X12895Y18315D1*
X12944Y18387D1*
Y18411D1*
X12895Y18484D1*
X12799Y18533D1*
X12653Y18557D1*
X13185Y16732D2*
X13283Y16780D1*
X13331Y16853D1*
Y16951D1*
X13283Y17024D1*
X13185Y17072D1*
X13088D1*
X12991Y17048D1*
X12942Y17024D1*
X12894Y16975D1*
X12796Y16829D1*
X12748Y16780D1*
X12699Y16756D1*
X12602Y16732D1*
X12456D1*
X12360Y16780D1*
X12310Y16853D1*
Y16951D1*
X12360Y17024D1*
X12456Y17072D1*
X13331Y16621D2*
X12310D1*
Y16451D1*
X12360Y16378D1*
X12456Y16329D1*
X12554Y16305D1*
X12699Y16281D1*
X12942D1*
X13088Y16305D1*
X13185Y16329D1*
X13283Y16378D1*
X13331Y16451D1*
Y16621D1*
X12310Y16072D2*
X13330Y15829D1*
Y16170D1*
X13166Y14427D2*
X13264Y14475D1*
X13312Y14548D1*
Y14645D1*
X13264Y14718D1*
X13166Y14767D1*
X13069D1*
X12972Y14742D1*
X12923Y14718D1*
X12875Y14670D1*
X12777Y14524D1*
X12729Y14475D1*
X12680Y14451D1*
X12583Y14427D1*
X12437D1*
X12341Y14475D1*
X12291Y14548D1*
Y14645D1*
X12341Y14718D1*
X12437Y14767D1*
X13069Y13951D2*
X13166Y13975D1*
X13264Y14024D1*
X13312Y14072D1*
Y14170D1*
X13264Y14218D1*
X13166Y14267D1*
X13069Y14291D1*
X12923Y14316D1*
X12680D1*
X12535Y14291D1*
X12437Y14267D1*
X12341Y14218D1*
X12291Y14170D1*
Y14072D1*
X12341Y14024D1*
X12437Y13975D1*
X12535Y13951D1*
X12291Y13743D2*
X13311Y13500D1*
Y13840D1*
X20753Y13589D2*
X20801Y13613D1*
X20753Y13638D1*
X20703Y13613D1*
X20753Y13589D1*
X21093Y13613D2*
X21774D1*
X20996Y13773D2*
X20948D1*
X20850Y13797D1*
X20802Y13822D1*
X20754Y13870D1*
Y13968D1*
X20802Y14016D1*
X20850Y14040D1*
X20948Y14065D1*
X21045D1*
X21142Y14040D1*
X21287Y13992D1*
X21774Y13749D1*
Y14089D1*
X21239Y14492D2*
X21141Y14443D1*
X21093Y14394D1*
Y14322D1*
X21141Y14273D1*
X21239Y14225D1*
X21385Y14200D1*
X21482D1*
X21628Y14225D1*
X21724Y14273D1*
X21774Y14322D1*
Y14394D1*
X21724Y14443D1*
X21628Y14492D1*
X20899Y15391D2*
X20801Y15343D1*
X20753Y15270D1*
Y15173D1*
X20801Y15100D1*
X20899Y15051D1*
X20995D1*
X21093Y15076D1*
X21141Y15100D1*
X21190Y15148D1*
X21287Y15294D1*
X21336Y15343D1*
X21385Y15367D1*
X21482Y15391D1*
X21628D1*
X21724Y15343D1*
X21774Y15270D1*
Y15173D1*
X21724Y15100D1*
X21628Y15051D1*
X21093Y15503D2*
X21774Y15600D1*
X21093Y15697D1*
X21774Y15794D1*
X21093Y15891D1*
X20753Y16002D2*
X20801Y16026D1*
X20753Y16051D1*
X20703Y16026D1*
X20753Y16002D1*
X21093Y16026D2*
X21774D1*
X20753Y16235D2*
X21579D1*
X21724Y16259D1*
X21774Y16308D1*
Y16357D1*
X21093Y16162D2*
Y16332D1*
X21239Y16760D2*
X21141Y16711D1*
X21093Y16662D1*
Y16589D1*
X21141Y16541D1*
X21239Y16492D1*
X21385Y16468D1*
X21482D1*
X21628Y16492D1*
X21724Y16541D1*
X21774Y16589D1*
Y16662D1*
X21724Y16711D1*
X21628Y16760D1*
X20753Y16871D2*
X21774D1*
X21287D2*
X21141Y16944D1*
X21093Y16993D1*
Y17066D1*
X21141Y17114D1*
X21287Y17138D1*
X21774D1*
X20744Y17708D2*
Y17392D1*
X21765D1*
X21231D2*
Y17587D1*
X20744Y17820D2*
X21765D1*
X21377Y17931D2*
Y18222D1*
X21279D1*
X21181Y18198D1*
X21133Y18174D1*
X21085Y18125D1*
Y18052D1*
X21133Y18004D1*
X21231Y17955D1*
X21377Y17931D1*
X21473D1*
X21619Y17955D1*
X21716Y18004D1*
X21765Y18052D1*
Y18125D1*
X21716Y18174D1*
X21619Y18222D1*
X21085Y18333D2*
X21765Y18601D1*
X21085D2*
X21765Y18333D1*
Y19548D2*
X20744D1*
X21765Y19354D1*
X20744Y19160D1*
X21765D1*
X21085Y19781D2*
X21133Y19732D1*
X21231Y19684D1*
X21377Y19659D1*
X21473D1*
X21619Y19684D1*
X21716Y19732D1*
X21765Y19781D1*
Y19854D1*
X21716Y19903D1*
X21619Y19951D1*
X21473Y19976D1*
X21377D1*
X21231Y19951D1*
X21133Y19903D1*
X21085Y19854D1*
Y19781D1*
X20744Y20378D2*
X21765D1*
X21231D2*
X21133Y20330D1*
X21085Y20281D1*
Y20208D1*
X21133Y20160D1*
X21231Y20111D1*
X21377Y20087D1*
X21473D1*
X21619Y20111D1*
X21716Y20160D1*
X21765Y20208D1*
Y20281D1*
X21716Y20330D1*
X21619Y20378D1*
X21085Y20489D2*
X21571D1*
X21716Y20513D1*
X21765Y20562D1*
Y20635D1*
X21716Y20683D1*
X21571Y20756D1*
X21085D2*
X21765D1*
X20744Y20868D2*
X21765D1*
X21377Y20979D2*
Y21270D1*
X21279D1*
X21181Y21246D1*
X21133Y21222D1*
X21085Y21173D1*
Y21100D1*
X21133Y21052D1*
X21231Y21003D1*
X21377Y20979D1*
X21473D1*
X21619Y21003D1*
X21716Y21052D1*
X21765Y21100D1*
Y21173D1*
X21716Y21222D1*
X21619Y21270D1*
X21259Y22342D2*
Y22560D1*
X21210Y22633D1*
X21161Y22658D1*
X21065Y22682D1*
X20967D1*
X20870Y22658D1*
X20821Y22633D1*
X20773Y22560D1*
Y22342D1*
X21794D1*
X21259Y22512D2*
X21794Y22682D1*
X20774Y22939D2*
X20822Y22866D1*
X20968Y22817D1*
X21211Y22793D1*
X21357D1*
X21599Y22817D1*
X21745Y22866D1*
X21794Y22939D1*
Y22988D1*
X21745Y23061D1*
X21599Y23109D1*
X21357Y23134D1*
X21211D1*
X20968Y23109D1*
X20822Y23061D1*
X20774Y22988D1*
Y22939D1*
X20968Y23109D2*
X21599Y22817D1*
X21696Y23269D2*
X21745Y23245D1*
X21794Y23269D1*
X21745Y23294D1*
X21696Y23269D1*
X20919Y23696D2*
X20822Y23672D1*
X20774Y23599D1*
Y23551D1*
X20822Y23478D1*
X20968Y23429D1*
X21211Y23405D1*
X21453D1*
X21648Y23429D1*
X21745Y23478D1*
X21794Y23551D1*
Y23575D1*
X21745Y23647D1*
X21648Y23696D1*
X21502Y23720D1*
X21453D1*
X21307Y23696D1*
X21211Y23647D1*
X21162Y23575D1*
Y23551D1*
X21211Y23478D1*
X21307Y23429D1*
X21453Y23405D1*
X20754Y24799D2*
X20706D1*
X20608Y24823D1*
X20560Y24847D1*
X20512Y24896D1*
Y24993D1*
X20560Y25041D1*
X20608Y25065D1*
X20706Y25090D1*
X20802D1*
X20900Y25065D1*
X21045Y25017D1*
X21531Y24774D1*
Y25114D1*
X20512Y25371D2*
X20560Y25298D1*
X20706Y25249D1*
X20948Y25225D1*
X21094D1*
X21337Y25249D1*
X21483Y25298D1*
X21531Y25371D1*
Y25419D1*
X21483Y25492D1*
X21337Y25541D1*
X21094Y25565D1*
X20948D1*
X20706Y25541D1*
X20560Y25492D1*
X20512Y25419D1*
Y25371D1*
X20706Y25541D2*
X21337Y25249D1*
X20706Y25677D2*
X20656Y25725D1*
X20512Y25798D1*
X21531D1*
X20512Y26201D2*
Y25958D1*
X20948Y25934D1*
X20900Y25958D1*
X20851Y26031D1*
Y26104D1*
X20900Y26177D1*
X20997Y26226D1*
X21143Y26250D1*
X21239D1*
X21385Y26226D1*
X21483Y26177D1*
X21531Y26104D1*
Y26031D1*
X21483Y25958D1*
X21434Y25934D1*
X21337Y25910D1*
X13617Y19887D2*
Y19571D1*
X14638D1*
X14103D2*
Y19765D1*
X13957Y20023D2*
X14638Y20169D1*
X14832Y20120D1*
X14930Y20071D1*
X14978Y20023D1*
Y19998D1*
X13957Y20315D2*
X14638Y20169D1*
X13617Y20426D2*
X14638D1*
X14103D2*
X14005Y20475D1*
X13957Y20523D1*
Y20596D1*
X14005Y20644D1*
X14103Y20693D1*
X14249Y20717D1*
X14346D1*
X14492Y20693D1*
X14588Y20644D1*
X14638Y20596D1*
Y20523D1*
X14588Y20475D1*
X14492Y20426D1*
X14249Y20828D2*
Y21120D1*
X14151D1*
X14054Y21096D1*
X14005Y21071D1*
X13957Y21023D1*
Y20950D1*
X14005Y20901D1*
X14103Y20852D1*
X14249Y20828D1*
X14346D1*
X14492Y20852D1*
X14588Y20901D1*
X14638Y20950D1*
Y21023D1*
X14588Y21071D1*
X14492Y21120D1*
X13957Y21231D2*
X14638D1*
X14249D2*
X14103Y21255D1*
X14005Y21304D1*
X13957Y21353D1*
Y21426D1*
X13617Y21985D2*
X14638D1*
Y22276D1*
X13957Y22679D2*
X14638D1*
X14103D2*
X14005Y22630D1*
X13957Y22582D1*
Y22509D1*
X14005Y22460D1*
X14103Y22412D1*
X14249Y22387D1*
X14346D1*
X14492Y22412D1*
X14588Y22460D1*
X14638Y22509D1*
Y22582D1*
X14588Y22630D1*
X14492Y22679D1*
X13617Y22790D2*
X14638D1*
X14103D2*
X14005Y22839D1*
X13957Y22887D1*
Y22960D1*
X14005Y23008D1*
X14103Y23057D1*
X14249Y23081D1*
X14346D1*
X14492Y23057D1*
X14588Y23008D1*
X14638Y22960D1*
Y22887D1*
X14588Y22839D1*
X14492Y22790D1*
X14103Y23460D2*
X14005Y23436D1*
X13957Y23363D1*
Y23290D1*
X14005Y23217D1*
X14103Y23192D1*
X14200Y23217D1*
X14249Y23265D1*
X14297Y23387D1*
X14346Y23436D1*
X14443Y23460D1*
X14492D1*
X14588Y23436D1*
X14638Y23363D1*
Y23290D1*
X14588Y23217D1*
X14492Y23192D1*
X13617Y24019D2*
X14638D1*
X13957Y24130D2*
X14638D1*
X14151D2*
X14005Y24203D1*
X13957Y24252D1*
Y24324D1*
X14005Y24373D1*
X14151Y24397D1*
X14638D1*
X14103Y24800D2*
X14005Y24752D1*
X13957Y24703D1*
Y24630D1*
X14005Y24581D1*
X14103Y24533D1*
X14249Y24508D1*
X14346D1*
X14492Y24533D1*
X14588Y24581D1*
X14638Y24630D1*
Y24703D1*
X14588Y24752D1*
X14492Y24800D1*
X14540Y24936D2*
X14589Y24911D1*
X14638Y24936D1*
X14589Y24960D1*
X14540Y24936D1*
M02*
