M48
METRIC,0000.00
T01C0.33
T02C1.1
%
T01
X+001850Y+002116
X+001760Y+002116
X+001670Y+002116
X+001670Y+002206
X+001760Y+002206
X+001850Y+002206
X+001850Y+002296
X+001760Y+002296
X+001670Y+002296
X+001788Y+002519
X+001988Y+002584
X+002294Y+002818
X+001414Y+002582
X+001522Y+002046
X+001587Y+001885
X+001664Y+001770
X+001692Y+001635
X+001596Y+001637
X+001797Y+001626
X+001883Y+001638
X+001872Y+001874
X+001778Y+001884
X+001443Y+001832
X+001750Y+001388
X+002299Y+001233
X+002220Y+001749
T02
X+001127Y+002651
X+001000Y+002651
X+001000Y+002397
X+001127Y+002397
X+001127Y+002143
X+001000Y+002143
X+001000Y+001889
X+001127Y+001889
X+001127Y+001635
X+001000Y+001635
X+001000Y+001381
X+001127Y+001381
X+001381Y+001127
X+001381Y+001000
X+001635Y+001000
X+001635Y+001127
X+001889Y+001127
X+001889Y+001000
X+002143Y+001000
X+002143Y+001127
X+002397Y+001381
X+002524Y+001381
X+002524Y+001635
X+002397Y+001635
X+002397Y+001889
X+002524Y+001889
X+002524Y+002143
X+002397Y+002143
X+002397Y+002397
X+002524Y+002397
X+002524Y+002651
X+002397Y+002651
X+002143Y+002905
X+002143Y+003032
X+001889Y+003032
X+001889Y+002905
X+001635Y+002905
X+001635Y+003032
X+001381Y+003032
X+001381Y+002905
T00
M30
