G04 DipTrace 2.4.0.2*
%INi2cswitch.gtl*%
%MOMM*%
%ADD10C,0.25*%
%ADD13C,0.305*%
%ADD14C,0.28*%
%ADD15C,0.127*%
%ADD16C,0.254*%
%ADD19R,1.6X1.7*%
%ADD20R,2.032X1.7*%
%ADD21R,1.7X1.6*%
%ADD22R,1.7X2.032*%
%ADD24R,0.525X0.5*%
%ADD25R,0.25X0.5*%
%ADD27R,0.4X0.5*%
%ADD32O,1.0X0.28*%
%ADD33O,0.28X1.0*%
%ADD34C,0.711*%
%ADD35R,2.7X2.7*%
%ADD37R,0.7X0.9*%
%ADD38C,0.686*%
%FSLAX53Y53*%
G04*
G71*
G90*
G75*
G01*
%LNTop*%
%LPD*%
X17425Y18275D2*
D13*
X16962D1*
X16878Y18360D1*
X19690Y20678D2*
X19426D1*
D14*
X19262Y20842D1*
X13810Y11270D2*
D13*
Y11733D1*
X16940Y14863D1*
X16127D1*
X17957D1*
X17960Y14861D1*
X19762D1*
X19791Y14890D1*
X15658Y18069D2*
X14958D1*
X17425Y19175D2*
Y19016D1*
X16610D1*
X16112Y18518D1*
Y18355D1*
X15834Y18078D1*
X15666D1*
X15658Y18069D1*
X14958D2*
X14298D1*
X13063Y16833D1*
Y15293D1*
X14344D1*
X15283D1*
X16127D1*
Y14863D1*
X17425Y19175D2*
Y19590D1*
X17624Y19788D1*
Y20142D1*
X17724Y20242D1*
Y20842D1*
X17762D1*
X13810Y15548D2*
X14090D1*
X14344Y15293D1*
X14788Y15548D2*
X15029D1*
X15283Y15293D1*
X18065Y18275D2*
D10*
X17980Y17788D1*
D13*
X17550Y17626D1*
X16229D1*
Y16715D1*
X16127Y16613D1*
X18262Y20842D2*
D14*
Y20189D1*
D13*
Y19933D1*
X18282Y19913D1*
X16164Y17352D2*
X15955D1*
X16229Y17626D1*
X18565Y18275D2*
D10*
Y17873D1*
D13*
Y17609D1*
X18035Y17078D1*
X17960Y17003D1*
Y16611D1*
X18762Y20842D2*
D14*
Y20352D1*
D13*
X19151Y19963D1*
X19629D1*
X19772Y19820D1*
X18550Y17448D2*
X18180Y17078D1*
X18035D1*
X19791Y16640D2*
Y17352D1*
X19508Y17635D1*
X19353D1*
X19231Y17757D1*
Y18306D1*
X19200Y18275D1*
X19332Y17751D2*
X19392D1*
X19791Y17352D1*
X15962Y21642D2*
D14*
Y20825D1*
D13*
X15458Y20321D1*
X18065Y19175D2*
D10*
X18565D1*
X18606D1*
D13*
X19200D1*
Y19231D1*
X20170Y18261D1*
X20081D1*
X18262Y24942D2*
D14*
Y25594D1*
D13*
X18321D1*
Y25929D1*
X18912Y23792D2*
X18012Y22892D1*
Y21992D2*
X18912D1*
X14788Y14248D2*
X14463D1*
X14310Y14401D1*
X13810Y14248D2*
X14157D1*
X14310Y14401D1*
X20062Y22142D2*
D14*
X20715D1*
D13*
X21876D1*
X22384Y21633D1*
Y17936D1*
X23970Y16350D1*
X20062Y23142D2*
D14*
X20715D1*
D13*
X22258D1*
X23970Y21430D1*
X20062Y24142D2*
D14*
Y25414D1*
D13*
X22457Y27809D1*
X23127D1*
X23970Y26966D1*
Y26510D1*
X18762Y24942D2*
D14*
Y25434D1*
D13*
X20368Y27040D1*
Y27988D1*
X19307Y29050D1*
X18890D1*
X17262Y24942D2*
D14*
X17229D1*
Y25476D1*
D13*
X16882Y25823D1*
Y27806D1*
X16745Y27943D1*
X15329D1*
X13810Y29462D1*
Y29050D1*
X15962Y24142D2*
D14*
X15310D1*
D13*
X11442D1*
X11270Y23970D1*
X15962Y23142D2*
D14*
X15310D1*
D13*
X13230D1*
X12393Y22304D1*
Y20013D1*
X11270Y18890D1*
X15962Y22142D2*
D14*
X15310D1*
D13*
X13554D1*
X13326Y21914D1*
Y17746D1*
X12392Y16811D1*
Y14932D1*
X11270Y13810D1*
X14958Y19069D2*
Y19256D1*
X15339Y19637D1*
X15805D1*
X16121Y19954D1*
Y20201D1*
D14*
X16762Y20842D1*
X15011Y19539D2*
D13*
Y19069D1*
X14958D1*
X20062Y21642D2*
D14*
X20715D1*
D13*
X21653D1*
X21919Y21376D1*
Y17674D1*
X22857Y16736D1*
Y14923D1*
X23970Y13810D1*
X20062Y22642D2*
D14*
X20715D1*
D13*
X22050D1*
X22850Y21842D1*
Y20010D1*
X23970Y18890D1*
X20062Y23642D2*
D14*
X20715D1*
D13*
X23642D1*
X23970Y23970D1*
X19262Y24942D2*
D14*
Y25284D1*
D13*
X20958Y26980D1*
Y28578D1*
X21430Y29050D1*
X17762Y24942D2*
D14*
X17710D1*
Y25662D1*
D13*
X17353Y26019D1*
Y28047D1*
X16350Y29050D1*
X16762Y24942D2*
X16558D1*
Y24609D1*
X12726D1*
X10920Y26415D1*
X11365D1*
X11270Y26510D1*
X15962Y23642D2*
D14*
X15310D1*
D13*
X13035D1*
X11443Y22050D1*
X11890D1*
X11270Y21430D1*
X15962Y22642D2*
D14*
X15310D1*
D13*
X13392D1*
X12868Y22117D1*
Y17948D1*
X11270Y16350D1*
X15658Y19069D2*
Y19100D1*
X15963D1*
X16371Y19508D1*
X16532Y19669D1*
X16769D1*
X17133Y20033D1*
D14*
X17253Y20626D1*
X17262Y20842D1*
X16712Y19680D2*
D13*
X16540Y19508D1*
X16371D1*
D38*
X16878Y18360D3*
X19690Y20678D3*
X18282Y19913D3*
X19772Y19820D3*
X15458Y20321D3*
X19332Y17751D3*
X16164Y17352D3*
X18550Y17448D3*
X18321Y25929D3*
X20081Y18261D3*
X16712Y19680D3*
X15011Y19539D3*
X14662Y25786D3*
X22003Y25026D3*
X14310Y14401D3*
X13712Y21647D2*
D15*
X15228D1*
X13712Y21524D2*
X15248D1*
X13712Y21400D2*
X15322D1*
X13712Y21276D2*
X15589D1*
X19627D2*
X20628D1*
X13712Y21153D2*
X15589D1*
X20006D2*
X21533D1*
X13712Y21029D2*
X15589D1*
X20143D2*
X21533D1*
X13712Y20905D2*
X15502D1*
X20219D2*
X21533D1*
X13712Y20782D2*
X15121D1*
X20256D2*
X21533D1*
X13712Y20658D2*
X14994D1*
X20266D2*
X21533D1*
X13712Y20534D2*
X14923D1*
X20246D2*
X21533D1*
X13712Y20411D2*
X14889D1*
X20199D2*
X21533D1*
X13712Y20287D2*
X14883D1*
X20107D2*
X21533D1*
X13712Y20163D2*
X14903D1*
X20230D2*
X21533D1*
X13712Y20040D2*
X14740D1*
X20304D2*
X21533D1*
X13712Y19916D2*
X14579D1*
X20340D2*
X21533D1*
X13712Y19792D2*
X14496D1*
X20348D2*
X21533D1*
X13712Y19669D2*
X14450D1*
X20328D2*
X21533D1*
X13712Y19545D2*
X14434D1*
X20276D2*
X21533D1*
X13712Y19421D2*
X14448D1*
X20183D2*
X21533D1*
X13712Y19298D2*
X14490D1*
X19996D2*
X21533D1*
X13712Y19174D2*
X14482D1*
X19798D2*
X21533D1*
X13712Y19050D2*
X14470D1*
X16454D2*
X16929D1*
X19921D2*
X21533D1*
X13712Y18927D2*
X14492D1*
X16329D2*
X16929D1*
X20044D2*
X21533D1*
X13712Y18803D2*
X14524D1*
X16200D2*
X16518D1*
X20248D2*
X21533D1*
X13712Y18679D2*
X14524D1*
X16091D2*
X16401D1*
X20471D2*
X21533D1*
X13712Y18556D2*
X16338D1*
X20574D2*
X21533D1*
X13712Y18432D2*
X14524D1*
X16091D2*
X16306D1*
X20631D2*
X21533D1*
X13712Y18308D2*
X14524D1*
X16091D2*
X16304D1*
X20655D2*
X21533D1*
X13712Y18185D2*
X14524D1*
X16091D2*
X16330D1*
X20653D2*
X21533D1*
X13712Y18061D2*
X14524D1*
X16091D2*
X16387D1*
X20621D2*
X21533D1*
X13712Y17937D2*
X14524D1*
X20556D2*
X21533D1*
X13712Y17814D2*
X14524D1*
X20437D2*
X21533D1*
X13708Y17690D2*
X14524D1*
X19994D2*
X21533D1*
X13666Y17566D2*
X15629D1*
X20109D2*
X21548D1*
X13563Y17443D2*
X15579D1*
X20165D2*
X21614D1*
X13440Y17319D2*
X15570D1*
X20332D2*
X21733D1*
X13317Y17195D2*
X15502D1*
X20435D2*
X21858D1*
X13192Y17072D2*
X15415D1*
X20520D2*
X21981D1*
X13069Y16948D2*
X15351D1*
X20576D2*
X22104D1*
X12946Y16824D2*
X15306D1*
X20619D2*
X22229D1*
X12821Y16701D2*
X15294D1*
X20625D2*
X22352D1*
X12777Y16577D2*
X15294D1*
X20625D2*
X22471D1*
X12777Y16453D2*
X15294D1*
X20625D2*
X22471D1*
X12777Y16330D2*
X15294D1*
X20756D2*
X22471D1*
X12777Y16206D2*
X13226D1*
X20756D2*
X22471D1*
X12777Y16082D2*
X13226D1*
X20756D2*
X22471D1*
X12777Y15959D2*
X13226D1*
X20756D2*
X22471D1*
X12777Y15835D2*
X13226D1*
X20756D2*
X22471D1*
X12777Y15711D2*
X13226D1*
X20756D2*
X22471D1*
X12777Y15588D2*
X13226D1*
X20756D2*
X22471D1*
X12777Y15464D2*
X13226D1*
X20756D2*
X22471D1*
X12777Y15340D2*
X13226D1*
X20756D2*
X22471D1*
X12777Y15217D2*
X13226D1*
X20756D2*
X22471D1*
X12777Y15093D2*
X13226D1*
X16960D2*
X17127D1*
X18794D2*
X18957D1*
X20625D2*
X22471D1*
X12777Y14969D2*
X13226D1*
X16960D2*
X17127D1*
X18794D2*
X18957D1*
X20625D2*
X22471D1*
X12767Y14846D2*
X13226D1*
X16960D2*
X17127D1*
X18794D2*
X18957D1*
X20625D2*
X22479D1*
X12714Y14722D2*
X13226D1*
X16960D2*
X17127D1*
X18794D2*
X18959D1*
X20623D2*
X22531D1*
X12599Y14598D2*
X13226D1*
X16928D2*
X17157D1*
X18762D2*
X19001D1*
X20584D2*
X22642D1*
X12476Y14475D2*
X13226D1*
X16881D2*
X17205D1*
X18716D2*
X19050D1*
X20532D2*
X22765D1*
X12350Y14351D2*
X13226D1*
X15371D2*
X15454D1*
X16799D2*
X17284D1*
X18635D2*
X19135D1*
X20447D2*
X22888D1*
X12303Y14227D2*
X13226D1*
X15371D2*
X15540D1*
X16712D2*
X17371D1*
X18548D2*
X19229D1*
X20353D2*
X22938D1*
X12303Y14104D2*
X13226D1*
X15371D2*
X15740D1*
X16514D2*
X17568D1*
X18351D2*
X19457D1*
X20125D2*
X22938D1*
X12303Y13980D2*
X13226D1*
X15371D2*
X22938D1*
X12303Y13856D2*
X13226D1*
X15371D2*
X22938D1*
X12303Y13733D2*
X13226D1*
X15371D2*
X22938D1*
X12303Y13609D2*
X13226D1*
X15371D2*
X22938D1*
X12303Y13485D2*
X22938D1*
X12303Y13362D2*
X22938D1*
X12303Y13238D2*
X22938D1*
X12303Y13114D2*
X22938D1*
X12303Y12991D2*
X22938D1*
X12303Y12867D2*
X22938D1*
X12303Y12743D2*
X22938D1*
X11350Y12620D2*
X23888D1*
X11477Y12496D2*
X23763D1*
X11602Y12372D2*
X23636D1*
X11729Y12249D2*
X15266D1*
X17432D2*
X17806D1*
X19972D2*
X20346D1*
X22512D2*
X23511D1*
X11854Y12125D2*
X15266D1*
X17432D2*
X17806D1*
X19972D2*
X20346D1*
X22512D2*
X23386D1*
X11979Y12001D2*
X15266D1*
X17432D2*
X17806D1*
X19972D2*
X20346D1*
X22512D2*
X23259D1*
X12106Y11878D2*
X15266D1*
X17432D2*
X17806D1*
X19972D2*
X20346D1*
X22512D2*
X23134D1*
X12231Y11754D2*
X15266D1*
X17432D2*
X17806D1*
X19972D2*
X20346D1*
X22512D2*
X23007D1*
X12358Y11630D2*
X15266D1*
X17432D2*
X17806D1*
X19972D2*
X20346D1*
X22512D2*
X22882D1*
X12483Y11507D2*
X15266D1*
X17432D2*
X17806D1*
X19972D2*
X20346D1*
X22512D2*
X22757D1*
X12608Y11383D2*
X15266D1*
X17432D2*
X17806D1*
X19972D2*
X20346D1*
X22512D2*
X22630D1*
X12735Y11259D2*
X15266D1*
X17432D2*
X17806D1*
X19972D2*
X20346D1*
X14892Y11136D2*
X15266D1*
X17432D2*
X17806D1*
X19972D2*
X20346D1*
X14892Y11012D2*
X15266D1*
X17432D2*
X17806D1*
X19972D2*
X20346D1*
X14892Y10888D2*
X15266D1*
X17432D2*
X17806D1*
X19972D2*
X20346D1*
X14892Y10765D2*
X15266D1*
X17432D2*
X17806D1*
X19972D2*
X20346D1*
X20612Y16716D2*
Y16333D1*
X20743Y16335D1*
Y15197D1*
X20610D1*
X20612Y15083D1*
X20609Y14712D1*
X20594Y14660D1*
X20522Y14478D1*
X20365Y14253D1*
X20329Y14217D1*
X20279Y14186D1*
X20055Y14078D1*
X20005Y14069D1*
X19578D1*
X19529Y14078D1*
X19481Y14098D1*
X19260Y14212D1*
X19223Y14246D1*
X19070Y14463D1*
X19046Y14507D1*
X18977Y14696D1*
X18970Y14746D1*
Y15197D1*
X18908D1*
X18910Y15179D1*
X18781D1*
X18778Y14683D1*
X18763Y14631D1*
X18691Y14449D1*
X18534Y14224D1*
X18498Y14188D1*
X18448Y14157D1*
X18224Y14049D1*
X18174Y14040D1*
X17747D1*
X17698Y14049D1*
X17650Y14069D1*
X17429Y14183D1*
X17392Y14218D1*
X17239Y14434D1*
X17215Y14479D1*
X17146Y14667D1*
X17139Y14718D1*
Y15179D1*
X17074D1*
X17076Y15161D1*
X16948Y15159D1*
X16945Y14686D1*
X16929Y14634D1*
X16857Y14452D1*
X16700Y14227D1*
X16665Y14191D1*
X16614Y14160D1*
X16390Y14052D1*
X16340Y14043D1*
X15914D1*
X15864Y14052D1*
X15817Y14072D1*
X15596Y14186D1*
X15559Y14220D1*
X15406Y14437D1*
X15382Y14481D1*
X15359Y14538D1*
Y13577D1*
X14217Y13579D1*
X14000Y13577D1*
X13239D1*
X13241Y14919D1*
X13239Y14928D1*
Y16219D1*
X15147D1*
Y16317D1*
X15306D1*
Y16753D1*
X15320Y16831D1*
X15380Y16991D1*
X15406Y17040D1*
X15547Y17242D1*
X15581Y17279D1*
X15585Y17298D1*
X15581Y17361D1*
X15588Y17424D1*
X15606Y17485D1*
X15657Y17598D1*
X14537D1*
Y18540D1*
X16078D1*
Y17967D1*
X16151Y17991D1*
X16229Y17999D1*
X16445D1*
X16398Y18064D1*
X16368Y18120D1*
X16344Y18179D1*
X16327Y18240D1*
X16317Y18303D1*
X16314Y18366D1*
X16318Y18429D1*
X16330Y18492D1*
X16348Y18553D1*
X16373Y18611D1*
X16405Y18666D1*
X16442Y18717D1*
X16485Y18764D1*
X16533Y18806D1*
X16585Y18842D1*
X16641Y18871D1*
X16700Y18895D1*
X16762Y18911D1*
X16824Y18921D1*
X16888Y18923D1*
X16942Y18920D1*
Y19166D1*
X16835Y19130D1*
X16773Y19120D1*
X16709Y19117D1*
X16646Y19120D1*
X16566Y19137D1*
X16526Y19135D1*
X16227Y18836D1*
X16179Y18795D1*
X16110Y18757D1*
X16078Y18714D1*
Y18598D1*
X15237Y18600D1*
X15188Y18598D1*
X14942Y18594D1*
X14870Y18598D1*
X14537D1*
X14534Y18855D1*
X14509Y18913D1*
X14492Y18974D1*
X14484Y19037D1*
Y19101D1*
X14492Y19164D1*
X14524Y19259D1*
X14501Y19299D1*
X14477Y19358D1*
X14460Y19419D1*
X14450Y19482D1*
X14448Y19545D1*
X14452Y19609D1*
X14463Y19671D1*
X14482Y19732D1*
X14507Y19790D1*
X14538Y19845D1*
X14576Y19897D1*
X14619Y19943D1*
X14666Y19985D1*
X14719Y20021D1*
X14775Y20051D1*
X14834Y20074D1*
X14940Y20097D1*
X14906Y20201D1*
X14897Y20264D1*
X14894Y20327D1*
X14898Y20390D1*
X14909Y20453D1*
X14928Y20514D1*
X14953Y20572D1*
X14984Y20627D1*
X15022Y20678D1*
X15065Y20725D1*
X15113Y20767D1*
X15165Y20803D1*
X15221Y20832D1*
X15280Y20856D1*
X15341Y20872D1*
X15404Y20882D1*
X15493D1*
X15602Y20993D1*
X15601Y21280D1*
X15535Y21287D1*
X15474Y21304D1*
X15417Y21332D1*
X15365Y21369D1*
X15321Y21415D1*
X15286Y21468D1*
X15260Y21526D1*
X15245Y21587D1*
X15241Y21651D1*
X15248Y21714D1*
X15265Y21769D1*
X13708Y21768D1*
X13699Y21723D1*
Y17746D1*
X13694Y17682D1*
X13678Y17621D1*
X13652Y17563D1*
X13610Y17504D1*
X13006Y16898D1*
X12764Y16655D1*
X12765Y16240D1*
Y14932D1*
X12760Y14869D1*
X12744Y14807D1*
X12718Y14749D1*
X12676Y14690D1*
X12290Y14302D1*
X12291Y13547D1*
Y12739D1*
X11215D1*
X11656Y12308D1*
X12747Y11236D1*
X13946Y11237D1*
X14881D1*
Y10723D1*
X15280Y10724D1*
X15279Y11237D1*
Y12291D1*
X17421D1*
Y10723D1*
X17820Y10724D1*
X17819Y11237D1*
Y12291D1*
X19961D1*
Y10723D1*
X20360Y10724D1*
X20359Y11237D1*
Y12291D1*
X22501D1*
Y11241D1*
X23041Y11774D1*
X24024Y12740D1*
X24003Y12741D1*
X23784Y12739D1*
X22949D1*
Y14305D1*
X22593Y14659D1*
X22552Y14707D1*
X22520Y14762D1*
X22498Y14822D1*
X22485Y14893D1*
X22484Y15749D1*
Y16580D1*
X21655Y17410D1*
X21614Y17459D1*
X21582Y17514D1*
X21559Y17573D1*
X21546Y17644D1*
X21545Y18500D1*
Y21220D1*
X21499Y21268D1*
X20715D1*
X20651Y21274D1*
X20623Y21281D1*
X19702D1*
X19635Y21287D1*
X19610Y21294D1*
X19621Y21237D1*
X19699Y21242D1*
X19763Y21237D1*
X19825Y21226D1*
X19886Y21207D1*
X19944Y21182D1*
X19999Y21150D1*
X20050Y21112D1*
X20096Y21069D1*
X20138Y21021D1*
X20173Y20968D1*
X20203Y20912D1*
X20226Y20853D1*
X20242Y20791D1*
X20254Y20678D1*
X20250Y20615D1*
X20239Y20552D1*
X20222Y20491D1*
X20197Y20433D1*
X20167Y20377D1*
X20130Y20326D1*
X20091Y20283D1*
X20132Y20254D1*
X20178Y20210D1*
X20220Y20162D1*
X20255Y20110D1*
X20285Y20053D1*
X20308Y19994D1*
X20324Y19933D1*
X20336Y19820D1*
X20332Y19756D1*
X20321Y19694D1*
X20304Y19633D1*
X20279Y19574D1*
X20249Y19519D1*
X20212Y19467D1*
X20169Y19420D1*
X20122Y19378D1*
X20070Y19341D1*
X20014Y19311D1*
X19956Y19287D1*
X19894Y19269D1*
X19832Y19259D1*
X19768Y19256D1*
X19699Y19261D1*
X20137Y18822D1*
X20217Y18808D1*
X20277Y18789D1*
X20336Y18764D1*
X20391Y18732D1*
X20442Y18694D1*
X20488Y18651D1*
X20529Y18603D1*
X20565Y18550D1*
X20594Y18494D1*
X20617Y18435D1*
X20634Y18374D1*
X20645Y18261D1*
X20642Y18197D1*
X20631Y18135D1*
X20613Y18074D1*
X20589Y18015D1*
X20558Y17960D1*
X20521Y17908D1*
X20479Y17861D1*
X20431Y17819D1*
X20380Y17782D1*
X20324Y17752D1*
X20265Y17728D1*
X20204Y17710D1*
X20141Y17700D1*
X20078Y17697D1*
X20015Y17701D1*
X19962Y17710D1*
X20055Y17616D1*
X20096Y17568D1*
X20128Y17513D1*
X20154Y17439D1*
X20132Y17505D1*
X20153Y17445D1*
X20159Y17403D1*
X20290Y17337D1*
X20332Y17310D1*
X20372Y17266D1*
X20512Y17066D1*
X20538Y17017D1*
X20598Y16857D1*
X20612Y16780D1*
Y16716D1*
X16127Y14863D2*
D16*
Y14043D1*
Y14863D2*
X16947D1*
X17960Y14861D2*
Y14040D1*
X17140Y14861D2*
X18781D1*
X19791Y14890D2*
Y14069D1*
X18971Y14890D2*
X20612D1*
X16942Y19175D2*
X17425D1*
X14958Y18540D2*
Y17598D1*
X14537Y18069D2*
X14958D1*
X15658Y18540D2*
Y17598D1*
Y18069D2*
X16078D1*
X13810Y16219D2*
Y15548D1*
X13239D2*
X13810D1*
X14788Y16219D2*
Y15548D1*
X17408Y29490D2*
D15*
X17833D1*
X17408Y29366D2*
X17833D1*
X17408Y29243D2*
X17833D1*
X17408Y29119D2*
X17833D1*
X12647Y28995D2*
X12753D1*
X17408D2*
X17833D1*
X12518Y28872D2*
X12753D1*
X17408D2*
X17833D1*
X12391Y28748D2*
X12753D1*
X17408D2*
X17833D1*
X12264Y28624D2*
X12753D1*
X17408D2*
X17833D1*
X12137Y28501D2*
X12753D1*
X17408D2*
X17833D1*
X12010Y28377D2*
X12753D1*
X17527D2*
X17833D1*
X11883Y28253D2*
X12753D1*
X17646D2*
X17833D1*
X11754Y28130D2*
X12753D1*
X17703D2*
X17833D1*
X11627Y28006D2*
X14761D1*
X17713D2*
X19847D1*
X11500Y27882D2*
X14886D1*
X17713D2*
X19970D1*
X11373Y27759D2*
X15009D1*
X17713D2*
X20008D1*
X11246Y27635D2*
X15154D1*
X17713D2*
X20008D1*
X12278Y27511D2*
X16521D1*
X17713D2*
X20008D1*
X12278Y27388D2*
X16521D1*
X17713D2*
X20008D1*
X22541D2*
X22962D1*
X12278Y27264D2*
X16521D1*
X17713D2*
X20008D1*
X22416D2*
X22962D1*
X12278Y27140D2*
X16521D1*
X17713D2*
X19964D1*
X22293D2*
X22962D1*
X12278Y27017D2*
X16521D1*
X17713D2*
X19841D1*
X22170D2*
X22962D1*
X12278Y26893D2*
X16521D1*
X17713D2*
X19716D1*
X22045D2*
X22962D1*
X12278Y26769D2*
X16521D1*
X17713D2*
X19593D1*
X21922D2*
X22962D1*
X12278Y26646D2*
X16521D1*
X17713D2*
X19470D1*
X21799D2*
X22962D1*
X12278Y26522D2*
X16521D1*
X17713D2*
X19347D1*
X21674D2*
X22962D1*
X12278Y26398D2*
X16521D1*
X17713D2*
X19222D1*
X21551D2*
X22962D1*
X12278Y26275D2*
X16521D1*
X17713D2*
X19099D1*
X21428D2*
X22962D1*
X12278Y26151D2*
X16521D1*
X17725D2*
X18976D1*
X21303D2*
X22962D1*
X12278Y26027D2*
X16521D1*
X17848D2*
X18851D1*
X21180D2*
X22962D1*
X12278Y25904D2*
X16521D1*
X17973D2*
X18728D1*
X21057D2*
X22962D1*
X12278Y25780D2*
X16525D1*
X18049D2*
X18605D1*
X20932D2*
X22962D1*
X12278Y25656D2*
X16565D1*
X18070D2*
X18482D1*
X20809D2*
X22962D1*
X12306Y25533D2*
X16507D1*
X18057D2*
X18416D1*
X20686D2*
X22962D1*
X12431Y25409D2*
X16432D1*
X18092D2*
X18402D1*
X20561D2*
X24484D1*
X12554Y25285D2*
X16414D1*
X18110D2*
X18414D1*
X20438D2*
X24484D1*
X12677Y25162D2*
X16277D1*
X18110D2*
X18414D1*
X20410D2*
X24484D1*
X12802Y25038D2*
X16211D1*
X18110D2*
X18414D1*
X20410D2*
X24484D1*
X18110Y24914D2*
X18414D1*
X20410D2*
X22962D1*
X18110Y24791D2*
X18414D1*
X20410D2*
X22962D1*
X18110Y24667D2*
X18414D1*
X20410D2*
X22962D1*
X18108Y24543D2*
X18416D1*
X20410D2*
X22962D1*
X18068Y24420D2*
X18456D1*
X20622D2*
X22962D1*
X16951Y24296D2*
X17075D1*
X17451D2*
X17575D1*
X17951D2*
X18575D1*
X18950D2*
X19073D1*
X20731D2*
X22962D1*
X16669Y24172D2*
X19355D1*
X20769D2*
X22962D1*
X16658Y24049D2*
X19367D1*
X20757D2*
X22962D1*
X16590Y23925D2*
X19434D1*
X16630Y23801D2*
X19394D1*
X16667Y23678D2*
X19357D1*
X16658Y23554D2*
X19367D1*
X16596Y23430D2*
X19430D1*
X16626Y23307D2*
X19398D1*
X16667Y23183D2*
X19357D1*
X16660Y23059D2*
X19365D1*
X16600Y22936D2*
X19424D1*
X16624Y22812D2*
X19400D1*
X16667Y22688D2*
X19357D1*
X16662Y22565D2*
X19363D1*
X16604Y22441D2*
X19420D1*
X23038Y25016D2*
X24496D1*
X24497Y25466D1*
X24293Y25464D1*
X24028Y25466D1*
X23823Y25464D1*
X22974D1*
Y27463D1*
X22601Y27461D1*
X20398Y25257D1*
X20401Y24477D1*
X20422Y24475D1*
X20491Y24470D1*
X20552Y24451D1*
X20608Y24421D1*
X20657Y24381D1*
X20698Y24333D1*
X20729Y24278D1*
X20749Y24217D1*
X20758Y24142D1*
X20752Y24079D1*
X20734Y24018D1*
X20719Y23988D1*
X21096Y23990D1*
X22975D1*
X22974Y25016D1*
X23038D1*
X17396Y29567D2*
Y28496D1*
X17599Y28293D1*
X17640Y28244D1*
X17671Y28189D1*
X17691Y28129D1*
X17701Y28047D1*
Y26164D1*
X17956Y25908D1*
X17996Y25860D1*
X18027Y25804D1*
X18048Y25744D1*
X18057Y25682D1*
X18055Y25618D1*
X18045Y25574D1*
Y25482D1*
X18069Y25438D1*
X18089Y25377D1*
X18098Y25302D1*
X18096Y24582D1*
X18092Y24519D1*
X18074Y24458D1*
X18045Y24401D1*
X18006Y24351D1*
X17958Y24309D1*
X17904Y24277D1*
X17844Y24256D1*
X17781Y24247D1*
X17718Y24249D1*
X17656Y24263D1*
X17598Y24289D1*
X17546Y24325D1*
X17514Y24357D1*
X17458Y24309D1*
X17404Y24277D1*
X17344Y24256D1*
X17281Y24247D1*
X17218Y24249D1*
X17156Y24263D1*
X17098Y24289D1*
X17046Y24325D1*
X17014Y24357D1*
X16958Y24309D1*
X16904Y24277D1*
X16844Y24256D1*
X16781Y24247D1*
X16718Y24249D1*
X16640Y24270D1*
X16632Y24269D1*
X16649Y24217D1*
X16658Y24142D1*
X16652Y24079D1*
X16634Y24018D1*
X16605Y23961D1*
X16566Y23911D1*
X16544Y23892D1*
X16598Y23833D1*
X16629Y23778D1*
X16649Y23717D1*
X16658Y23642D1*
X16652Y23579D1*
X16634Y23518D1*
X16605Y23461D1*
X16566Y23411D1*
X16544Y23392D1*
X16598Y23333D1*
X16629Y23278D1*
X16649Y23217D1*
X16658Y23142D1*
X16652Y23079D1*
X16634Y23018D1*
X16605Y22961D1*
X16566Y22911D1*
X16544Y22892D1*
X16598Y22833D1*
X16629Y22778D1*
X16649Y22717D1*
X16658Y22642D1*
X16652Y22579D1*
X16634Y22518D1*
X16605Y22461D1*
X16559Y22405D1*
X17188Y22402D1*
X19472Y22386D1*
X19478Y22391D1*
X19442Y22430D1*
X19406Y22483D1*
X19382Y22541D1*
X19369Y22603D1*
X19368Y22667D1*
X19378Y22729D1*
X19401Y22789D1*
X19434Y22843D1*
X19478Y22891D1*
X19442Y22930D1*
X19406Y22983D1*
X19382Y23041D1*
X19369Y23103D1*
X19368Y23167D1*
X19378Y23229D1*
X19401Y23289D1*
X19434Y23343D1*
X19478Y23391D1*
X19442Y23430D1*
X19406Y23483D1*
X19382Y23541D1*
X19369Y23603D1*
X19368Y23667D1*
X19378Y23729D1*
X19401Y23789D1*
X19434Y23843D1*
X19478Y23891D1*
X19442Y23930D1*
X19406Y23983D1*
X19382Y24041D1*
X19369Y24103D1*
X19368Y24167D1*
X19378Y24229D1*
X19394Y24272D1*
X19344Y24256D1*
X19281Y24247D1*
X19218Y24249D1*
X19156Y24263D1*
X19098Y24289D1*
X19046Y24325D1*
X19014Y24357D1*
X18958Y24309D1*
X18904Y24277D1*
X18844Y24256D1*
X18781Y24247D1*
X18718Y24249D1*
X18656Y24263D1*
X18598Y24289D1*
X18546Y24325D1*
X18502Y24370D1*
X18466Y24423D1*
X18442Y24481D1*
X18429Y24543D1*
X18427Y24645D1*
X18429Y25302D1*
X18427Y25344D1*
X18419Y25376D1*
X18414Y25440D1*
X18421Y25503D1*
X18439Y25563D1*
X18468Y25620D1*
X18516Y25680D1*
X20022Y27186D1*
X20020Y27844D1*
X19809Y28054D1*
X17844D1*
Y29563D1*
X17394Y29568D1*
X17396Y29309D1*
X17394Y29108D1*
X14727Y28054D2*
X12764D1*
Y29122D1*
X11150Y27554D1*
X11417Y27556D1*
X12266D1*
Y25561D1*
X12870Y24956D1*
X16209Y24957D1*
X16221Y25029D1*
X16242Y25089D1*
X16274Y25144D1*
X16316Y25192D1*
X16365Y25231D1*
X16423Y25262D1*
X16427Y25302D1*
X16428Y25327D1*
X16438Y25389D1*
X16461Y25449D1*
X16494Y25503D1*
X16536Y25550D1*
X16587Y25588D1*
X16614Y25601D1*
X16564Y25680D1*
X16544Y25740D1*
X16534Y25823D1*
Y27595D1*
X15329D1*
X15266Y27601D1*
X15205Y27618D1*
X15148Y27646D1*
X15083Y27697D1*
X14725Y28054D1*
G36*
X16727Y16753D2*
Y16013D1*
X15527D1*
Y16753D1*
X15587Y16913D1*
X15727Y17113D1*
X15927Y17213D1*
X16327D1*
X16527Y17113D1*
X16667Y16913D1*
X16727Y16753D1*
G37*
G36*
X15527Y14723D2*
Y15463D1*
X16727D1*
Y14723D1*
X16667Y14563D1*
X16527Y14363D1*
X16327Y14263D1*
X15927D1*
X15727Y14363D1*
X15587Y14563D1*
X15527Y14723D1*
G37*
G36*
X18560Y16751D2*
Y16011D1*
X17360D1*
Y16751D1*
X17420Y16911D1*
X17560Y17111D1*
X17760Y17211D1*
X18160D1*
X18360Y17111D1*
X18500Y16911D1*
X18560Y16751D1*
G37*
G36*
X17360Y14721D2*
Y15461D1*
X18560D1*
Y14721D1*
X18500Y14561D1*
X18360Y14361D1*
X18160Y14261D1*
X17760D1*
X17560Y14361D1*
X17420Y14561D1*
X17360Y14721D1*
G37*
G36*
X20391Y16780D2*
Y16040D1*
X19191D1*
Y16780D1*
X19251Y16940D1*
X19391Y17140D1*
X19591Y17240D1*
X19991D1*
X20191Y17140D1*
X20331Y16940D1*
X20391Y16780D1*
G37*
G36*
X19191Y14750D2*
Y15490D1*
X20391D1*
Y14750D1*
X20331Y14590D1*
X20191Y14390D1*
X19991Y14290D1*
X19591D1*
X19391Y14390D1*
X19251Y14590D1*
X19191Y14750D1*
G37*
D19*
X11270Y21430D3*
Y18890D3*
Y16350D3*
Y13810D3*
D20*
X10000Y21430D3*
Y18890D3*
Y16350D3*
Y13810D3*
D19*
X23970D3*
Y16350D3*
Y18890D3*
Y21430D3*
D20*
X25240Y13810D3*
Y16350D3*
Y18890D3*
Y21430D3*
D19*
X23970Y23970D3*
Y26510D3*
D20*
X25240Y23970D3*
Y26510D3*
D21*
X16350Y29050D3*
X13810D3*
D22*
X16350Y30320D3*
X13810D3*
D21*
X16350Y11270D3*
X13810D3*
D22*
X16350Y10000D3*
X13810D3*
D21*
X18890Y11270D3*
X21430D3*
D22*
X18890Y10000D3*
X21430D3*
D21*
Y29050D3*
X18890D3*
D22*
X21430Y30320D3*
X18890D3*
D19*
X11270Y26510D3*
Y23970D3*
D20*
X10000Y26510D3*
Y23970D3*
D24*
X17425Y18275D3*
D25*
X18065D3*
X18565D3*
D24*
X19200D3*
Y19175D3*
D25*
X18565D3*
X18065D3*
D24*
X17425D3*
D27*
X15658Y19069D3*
X14958D3*
Y18069D3*
X15658D3*
D32*
X20062Y21642D3*
Y22142D3*
Y22642D3*
Y23142D3*
Y23642D3*
Y24142D3*
D33*
X19262Y24942D3*
X18762D3*
X18262D3*
X17762D3*
X17262D3*
X16762D3*
D32*
X15962Y24142D3*
Y23642D3*
Y23142D3*
Y22642D3*
Y22142D3*
Y21642D3*
D33*
X16762Y20842D3*
X17262D3*
X17762D3*
X18262D3*
X18762D3*
X19262D3*
D34*
X18912Y21992D3*
X18012D3*
X17112D3*
X18912Y22892D3*
X18012D3*
X17112D3*
X18912Y23792D3*
X18012D3*
X17112D3*
D35*
X18012Y22892D3*
D37*
X13810Y15548D3*
Y14248D3*
X14788Y15548D3*
Y14248D3*
M02*
