G04 DipTrace 2.4.0.2*
%INSTM32.gtp*%
%MOIN*%
%ADD27C,0.0875*%
%ADD28C,0.075*%
%ADD36R,0.0433X0.0472*%
%ADD49R,0.0039X0.0138*%
%ADD51R,0.0138X0.0039*%
%ADD53R,0.0276X0.0217*%
%ADD55R,0.0197X0.0276*%
%ADD57R,0.0315X0.0354*%
%ADD59R,0.0276X0.0197*%
%ADD61R,0.0354X0.0315*%
%FSLAX44Y44*%
G04*
G70*
G90*
G75*
G01*
%LNTopPaste*%
%LPD*%
G36*
X11417Y5854D2*
X11220D1*
Y6129D1*
X11417D1*
Y5854D1*
G37*
G36*
Y6365D2*
X11220D1*
Y6641D1*
X11417D1*
Y6365D1*
G37*
D61*
X10096Y9492D3*
X10765D3*
D59*
X10212Y9019D3*
X10724D3*
D57*
X7222Y10254D3*
Y10923D3*
G36*
X6646Y9877D2*
Y9680D1*
X6370D1*
Y9877D1*
X6646D1*
G37*
G36*
X7158D2*
Y9680D1*
X6882D1*
Y9877D1*
X7158D1*
G37*
D61*
X5952Y4817D3*
X5283D3*
D55*
X6453Y6393D3*
Y6905D3*
D59*
X5865Y6126D3*
X5353D3*
X5868Y5725D3*
X5356D3*
G36*
X5989Y5393D2*
Y5197D1*
X5713D1*
Y5393D1*
X5989D1*
G37*
G36*
X5477D2*
Y5197D1*
X5202D1*
Y5393D1*
X5477D1*
G37*
D59*
X9801Y6396D3*
X9289D3*
D55*
X9902Y7305D3*
Y6793D3*
D59*
X11138Y6962D3*
X10626D3*
G36*
X10726Y8593D2*
Y8396D1*
X10450D1*
Y8593D1*
X10726D1*
G37*
G36*
X11238D2*
Y8396D1*
X10962D1*
Y8593D1*
X11238D1*
G37*
D53*
X10068Y11223D3*
Y10671D3*
D55*
X9753Y12343D3*
Y11831D3*
X10411Y11781D3*
Y12293D3*
D59*
X10790Y12312D3*
X11301D3*
D55*
X11327Y11654D3*
Y11142D3*
D59*
X5244Y7081D3*
X4732D3*
X5241Y6673D3*
X4729D3*
D55*
X10913Y5445D3*
Y5957D3*
X7705Y10398D3*
Y10909D3*
X11323Y5017D3*
Y5528D3*
D27*
X8093Y8057D3*
D28*
X8718Y7432D3*
X7468D3*
X8718Y8682D3*
X7468D3*
D51*
X9421Y6974D3*
Y7171D3*
Y7368D3*
Y7565D3*
Y7762D3*
Y7958D3*
Y8155D3*
Y8352D3*
Y8549D3*
Y8746D3*
Y8943D3*
Y9139D3*
D49*
X9175Y9386D3*
X8979D3*
X8782D3*
X8585D3*
X8388D3*
X8191D3*
X7994D3*
X7797D3*
X7601D3*
X7404D3*
X7207D3*
X7010D3*
D51*
X6764Y9139D3*
Y8943D3*
Y8746D3*
Y8549D3*
Y8352D3*
Y8155D3*
Y7958D3*
Y7762D3*
Y7565D3*
Y7368D3*
Y7171D3*
Y6974D3*
D49*
X7010Y6728D3*
X7207D3*
X7404D3*
X7601D3*
X7797D3*
X7994D3*
X8191D3*
X8388D3*
X8585D3*
X8782D3*
X8979D3*
X9175D3*
D36*
X11114Y7398D3*
Y8068D3*
X10562D3*
Y7398D3*
M02*
