G04 DipTrace 2.4.0.2*
%INSTM32.gbo*%
%MOMM*%
%ADD71C,0.111*%
%ADD72C,0.083*%
%FSLAX53Y53*%
G04*
G71*
G90*
G75*
G01*
%LNBotSilk*%
%LPD*%
X30614Y18244D2*
D71*
X30930D1*
Y17223D1*
Y17758D2*
X30736D1*
X30478Y17904D2*
X30333Y17223D1*
X30381Y17029D1*
X30430Y16931D1*
X30478Y16883D1*
X30503D1*
X30187Y17904D2*
X30333Y17223D1*
X30075Y18244D2*
Y17223D1*
Y17758D2*
X30027Y17856D1*
X29978Y17904D1*
X29905D1*
X29857Y17856D1*
X29808Y17758D1*
X29784Y17612D1*
Y17515D1*
X29808Y17369D1*
X29857Y17273D1*
X29905Y17223D1*
X29978D1*
X30027Y17273D1*
X30075Y17369D1*
X29673Y17612D2*
X29381D1*
Y17710D1*
X29406Y17807D1*
X29430Y17856D1*
X29479Y17904D1*
X29552D1*
X29600Y17856D1*
X29649Y17758D1*
X29673Y17612D1*
Y17515D1*
X29649Y17369D1*
X29600Y17273D1*
X29552Y17223D1*
X29479D1*
X29430Y17273D1*
X29381Y17369D1*
X29270Y17904D2*
Y17223D1*
Y17612D2*
X29246Y17758D1*
X29197Y17856D1*
X29149Y17904D1*
X29076D1*
X28516Y18244D2*
Y17223D1*
X28225D1*
X27822Y17904D2*
Y17223D1*
Y17758D2*
X27871Y17856D1*
X27920Y17904D1*
X27992D1*
X28041Y17856D1*
X28089Y17758D1*
X28114Y17612D1*
Y17515D1*
X28089Y17369D1*
X28041Y17273D1*
X27992Y17223D1*
X27920D1*
X27871Y17273D1*
X27822Y17369D1*
X27711Y18244D2*
Y17223D1*
Y17758D2*
X27662Y17856D1*
X27614Y17904D1*
X27541D1*
X27493Y17856D1*
X27444Y17758D1*
X27420Y17612D1*
Y17515D1*
X27444Y17369D1*
X27493Y17273D1*
X27541Y17223D1*
X27614D1*
X27662Y17273D1*
X27711Y17369D1*
X27041Y17758D2*
X27066Y17856D1*
X27139Y17904D1*
X27212D1*
X27285Y17856D1*
X27309Y17758D1*
X27285Y17661D1*
X27236Y17612D1*
X27114Y17564D1*
X27066Y17515D1*
X27041Y17418D1*
Y17369D1*
X27066Y17273D1*
X27139Y17223D1*
X27212D1*
X27285Y17273D1*
X27309Y17369D1*
X26482Y18244D2*
Y17223D1*
X26371Y17904D2*
Y17223D1*
Y17710D2*
X26298Y17856D1*
X26249Y17904D1*
X26177D1*
X26128Y17856D1*
X26104Y17710D1*
Y17223D1*
X25701Y17758D2*
X25750Y17856D1*
X25798Y17904D1*
X25871D1*
X25920Y17856D1*
X25968Y17758D1*
X25993Y17612D1*
Y17515D1*
X25968Y17369D1*
X25920Y17273D1*
X25871Y17223D1*
X25798D1*
X25750Y17273D1*
X25701Y17369D1*
X25565Y17321D2*
X25590Y17272D1*
X25565Y17223D1*
X25541Y17272D1*
X25565Y17321D1*
X30933Y16153D2*
X30715D1*
X30642Y16202D1*
X30617Y16251D1*
X30593Y16347D1*
Y16445D1*
X30617Y16541D1*
X30642Y16591D1*
X30715Y16639D1*
X30933D1*
Y15618D1*
X30763Y16153D2*
X30593Y15618D1*
X30482Y16007D2*
X30190D1*
Y16105D1*
X30214Y16202D1*
X30239Y16251D1*
X30287Y16299D1*
X30360D1*
X30409Y16251D1*
X30458Y16153D1*
X30482Y16007D1*
Y15910D1*
X30458Y15764D1*
X30409Y15668D1*
X30360Y15618D1*
X30287D1*
X30239Y15668D1*
X30190Y15764D1*
X30079Y16299D2*
X29933Y15618D1*
X29788Y16299D1*
X29229Y16444D2*
X29180Y16493D1*
X29107Y16638D1*
Y15618D1*
X28971Y15716D2*
X28996Y15667D1*
X28971Y15618D1*
X28947Y15667D1*
X28971Y15716D1*
X28690Y16638D2*
X28763Y16590D1*
X28812Y16444D1*
X28836Y16201D1*
Y16055D1*
X28812Y15813D1*
X28763Y15667D1*
X28690Y15618D1*
X28641D1*
X28568Y15667D1*
X28520Y15813D1*
X28495Y16055D1*
Y16201D1*
X28520Y16444D1*
X28568Y16590D1*
X28641Y16638D1*
X28690D1*
X28520Y16444D2*
X28812Y15813D1*
X27912Y16395D2*
Y16444D1*
X27887Y16541D1*
X27863Y16590D1*
X27814Y16638D1*
X27717D1*
X27669Y16590D1*
X27645Y16541D1*
X27620Y16444D1*
Y16347D1*
X27645Y16249D1*
X27693Y16105D1*
X27936Y15618D1*
X27596D1*
X27339Y16638D2*
X27412Y16590D1*
X27461Y16444D1*
X27485Y16201D1*
Y16055D1*
X27461Y15813D1*
X27412Y15667D1*
X27339Y15618D1*
X27291D1*
X27218Y15667D1*
X27169Y15813D1*
X27145Y16055D1*
Y16201D1*
X27169Y16444D1*
X27218Y16590D1*
X27291Y16638D1*
X27339D1*
X27169Y16444D2*
X27461Y15813D1*
X27033Y16444D2*
X26985Y16493D1*
X26912Y16638D1*
Y15618D1*
X26557D2*
Y16638D1*
X26800Y15959D1*
X26436D1*
X30619Y19508D2*
X30667Y19606D1*
X30740Y19654D1*
X30837D1*
X30910Y19606D1*
X30959Y19508D1*
Y19412D1*
X30935Y19314D1*
X30910Y19266D1*
X30862Y19217D1*
X30716Y19120D1*
X30667Y19071D1*
X30643Y19022D1*
X30619Y18925D1*
Y18779D1*
X30667Y18683D1*
X30740Y18633D1*
X30837D1*
X30910Y18683D1*
X30959Y18779D1*
X30338Y19654D2*
Y18633D1*
X30508Y19654D2*
X30168D1*
X29668Y18633D2*
Y19654D1*
X29862Y18633D1*
X30057Y19654D1*
Y18633D1*
X29508Y19653D2*
X29241D1*
X29387Y19265D1*
X29314D1*
X29265Y19216D1*
X29241Y19168D1*
X29217Y19022D1*
Y18925D1*
X29241Y18779D1*
X29290Y18682D1*
X29363Y18633D1*
X29436D1*
X29508Y18682D1*
X29532Y18731D1*
X29557Y18828D1*
X29081Y19411D2*
Y19459D1*
X29057Y19557D1*
X29032Y19605D1*
X28984Y19653D1*
X28886D1*
X28838Y19605D1*
X28814Y19557D1*
X28789Y19459D1*
Y19362D1*
X28814Y19265D1*
X28862Y19120D1*
X29105Y18633D1*
X28765D1*
X28206Y19654D2*
Y18633D1*
X27803Y19314D2*
Y18633D1*
Y19168D2*
X27852Y19266D1*
X27901Y19314D1*
X27973D1*
X28022Y19266D1*
X28070Y19168D1*
X28095Y19022D1*
Y18925D1*
X28070Y18779D1*
X28022Y18683D1*
X27973Y18633D1*
X27901D1*
X27852Y18683D1*
X27803Y18779D1*
X27692Y19314D2*
Y18633D1*
Y19022D2*
X27668Y19168D1*
X27619Y19266D1*
X27570Y19314D1*
X27497D1*
X27095Y19266D2*
Y18487D1*
X27119Y18342D1*
X27143Y18293D1*
X27192Y18245D1*
X27265D1*
X27313Y18293D1*
X27095Y19120D2*
X27143Y19216D1*
X27192Y19266D1*
X27265D1*
X27313Y19216D1*
X27362Y19120D1*
X27386Y18974D1*
Y18876D1*
X27362Y18731D1*
X27313Y18633D1*
X27265Y18585D1*
X27192D1*
X27143Y18633D1*
X27095Y18731D1*
X26984Y19022D2*
X26692D1*
Y19120D1*
X26717Y19217D1*
X26741Y19266D1*
X26790Y19314D1*
X26863D1*
X26911Y19266D1*
X26960Y19168D1*
X26984Y19022D1*
Y18925D1*
X26960Y18779D1*
X26911Y18683D1*
X26863Y18633D1*
X26790D1*
X26741Y18683D1*
X26692Y18779D1*
X25918Y19608D2*
X26234D1*
Y18587D1*
Y19122D2*
X26040D1*
X25807Y19608D2*
Y18587D1*
X25696Y18976D2*
X25404D1*
Y19073D1*
X25428Y19171D1*
X25453Y19219D1*
X25501Y19268D1*
X25574D1*
X25623Y19219D1*
X25672Y19122D1*
X25696Y18976D1*
Y18879D1*
X25672Y18733D1*
X25623Y18636D1*
X25574Y18587D1*
X25501D1*
X25453Y18636D1*
X25404Y18733D1*
X25293Y19268D2*
X25026Y18587D1*
Y19268D2*
X25293Y18587D1*
X24078D2*
Y19608D1*
X24272Y18587D1*
X24467Y19608D1*
Y18587D1*
X23846Y19268D2*
X23894Y19219D1*
X23943Y19122D1*
X23967Y18976D1*
Y18879D1*
X23943Y18733D1*
X23894Y18636D1*
X23846Y18587D1*
X23773D1*
X23724Y18636D1*
X23676Y18733D1*
X23651Y18879D1*
Y18976D1*
X23676Y19122D1*
X23724Y19219D1*
X23773Y19268D1*
X23846D1*
X23248Y19608D2*
Y18587D1*
Y19122D2*
X23297Y19219D1*
X23345Y19268D1*
X23418D1*
X23467Y19219D1*
X23516Y19122D1*
X23540Y18976D1*
Y18879D1*
X23516Y18733D1*
X23467Y18636D1*
X23418Y18587D1*
X23345D1*
X23297Y18636D1*
X23248Y18733D1*
X23137Y19268D2*
Y18781D1*
X23113Y18636D1*
X23064Y18587D1*
X22991D1*
X22943Y18636D1*
X22870Y18781D1*
Y19268D2*
Y18587D1*
X22759Y19608D2*
Y18587D1*
X22648Y18976D2*
X22356D1*
Y19073D1*
X22380Y19171D1*
X22405Y19219D1*
X22453Y19268D1*
X22526D1*
X22575Y19219D1*
X22624Y19122D1*
X22648Y18976D1*
Y18879D1*
X22624Y18733D1*
X22575Y18636D1*
X22526Y18587D1*
X22453D1*
X22405Y18636D1*
X22356Y18733D1*
X13204Y13441D2*
D72*
Y13606D1*
X13241Y13660D1*
X13278Y13678D1*
X13350Y13696D1*
X13460D1*
X13532Y13678D1*
X13569Y13660D1*
X13605Y13606D1*
Y13441D1*
X12840D1*
X13605Y13780D2*
X12840D1*
Y13944D1*
X12877Y13999D1*
X12913Y14017D1*
X12985Y14035D1*
X13095D1*
X13168Y14017D1*
X13204Y13999D1*
X13241Y13944D1*
X13278Y13999D1*
X13314Y14017D1*
X13386Y14035D1*
X13460D1*
X13532Y14017D1*
X13569Y13999D1*
X13605Y13944D1*
Y13780D1*
X13241D2*
Y13944D1*
X13459Y14118D2*
X13496Y14155D1*
X13604Y14210D1*
X12840D1*
X13604Y14512D2*
Y14330D1*
X13277Y14312D1*
X13313Y14330D1*
X13350Y14384D1*
Y14439D1*
X13313Y14494D1*
X13241Y14530D1*
X13131Y14548D1*
X13059D1*
X12949Y14530D1*
X12876Y14494D1*
X12840Y14439D1*
Y14384D1*
X12876Y14330D1*
X12913Y14312D1*
X12985Y14293D1*
X13202Y15873D2*
Y16037D1*
X13238Y16091D1*
X13275Y16110D1*
X13347Y16128D1*
X13457D1*
X13529Y16110D1*
X13566Y16091D1*
X13603Y16037D1*
Y15873D1*
X12837D1*
X13603Y16211D2*
X12837D1*
Y16376D1*
X12874Y16430D1*
X12910Y16448D1*
X12983Y16467D1*
X13092D1*
X13165Y16448D1*
X13202Y16430D1*
X13238Y16376D1*
X13275Y16430D1*
X13311Y16448D1*
X13384Y16467D1*
X13457D1*
X13529Y16448D1*
X13566Y16430D1*
X13603Y16376D1*
Y16211D1*
X13238D2*
Y16376D1*
X13456Y16550D2*
X13493Y16586D1*
X13602Y16641D1*
X12837D1*
Y16907D2*
X13602D1*
X13092Y16725D1*
Y16998D1*
X13218Y18458D2*
Y18622D1*
X13255Y18676D1*
X13292Y18695D1*
X13364Y18713D1*
X13474D1*
X13546Y18695D1*
X13583Y18676D1*
X13619Y18622D1*
Y18458D1*
X12854D1*
X13619Y18796D2*
X12854D1*
Y18961D1*
X12891Y19015D1*
X12927Y19033D1*
X12999Y19052D1*
X13109D1*
X13182Y19033D1*
X13218Y19015D1*
X13255Y18961D1*
X13292Y19015D1*
X13328Y19033D1*
X13400Y19052D1*
X13474D1*
X13546Y19033D1*
X13583Y19015D1*
X13619Y18961D1*
Y18796D1*
X13255D2*
Y18961D1*
X13473Y19135D2*
X13510Y19172D1*
X13619Y19226D1*
X12854D1*
X13619Y19346D2*
Y19546D1*
X13327Y19437D1*
Y19492D1*
X13291Y19528D1*
X13255Y19546D1*
X13145Y19565D1*
X13073D1*
X12963Y19546D1*
X12890Y19510D1*
X12854Y19455D1*
Y19401D1*
X12890Y19346D1*
X12927Y19328D1*
X12999Y19310D1*
X13214Y20963D2*
Y21127D1*
X13251Y21182D1*
X13288Y21200D1*
X13360Y21218D1*
X13470D1*
X13542Y21200D1*
X13579Y21182D1*
X13615Y21127D1*
Y20963D1*
X12850D1*
X13615Y21302D2*
X12850D1*
Y21466D1*
X12887Y21521D1*
X12923Y21539D1*
X12995Y21557D1*
X13105D1*
X13178Y21539D1*
X13214Y21521D1*
X13251Y21466D1*
X13288Y21521D1*
X13324Y21539D1*
X13396Y21557D1*
X13470D1*
X13542Y21539D1*
X13579Y21521D1*
X13615Y21466D1*
Y21302D1*
X13251D2*
Y21466D1*
X13469Y21640D2*
X13506Y21677D1*
X13615Y21732D1*
X12850D1*
X13433Y21833D2*
X13469D1*
X13542Y21852D1*
X13578Y21870D1*
X13615Y21906D1*
Y21979D1*
X13578Y22015D1*
X13542Y22033D1*
X13469Y22052D1*
X13396D1*
X13323Y22033D1*
X13215Y21997D1*
X12850Y21815D1*
Y22070D1*
X13211Y23483D2*
Y23647D1*
X13248Y23701D1*
X13285Y23720D1*
X13357Y23738D1*
X13467D1*
X13539Y23720D1*
X13576Y23701D1*
X13612Y23647D1*
Y23483D1*
X12847D1*
X13612Y23821D2*
X12847D1*
Y23986D1*
X12884Y24040D1*
X12920Y24059D1*
X12992Y24077D1*
X13102D1*
X13175Y24059D1*
X13211Y24040D1*
X13248Y23986D1*
X13285Y24040D1*
X13321Y24059D1*
X13393Y24077D1*
X13467D1*
X13539Y24059D1*
X13576Y24040D1*
X13612Y23986D1*
Y23821D1*
X13248D2*
Y23986D1*
X13466Y24160D2*
X13503Y24197D1*
X13611Y24251D1*
X12847D1*
X13611Y24444D2*
X13575Y24389D1*
X13466Y24353D1*
X13284Y24335D1*
X13174D1*
X12992Y24353D1*
X12883Y24389D1*
X12847Y24444D1*
Y24480D1*
X12883Y24535D1*
X12992Y24571D1*
X13174Y24590D1*
X13284D1*
X13466Y24571D1*
X13575Y24535D1*
X13611Y24480D1*
Y24444D1*
X13466Y24571D2*
X12992Y24353D1*
X13171Y33375D2*
Y33539D1*
X13208Y33593D1*
X13245Y33612D1*
X13317Y33630D1*
X13427D1*
X13499Y33612D1*
X13536Y33593D1*
X13572Y33539D1*
Y33375D1*
X12807D1*
Y34005D2*
X13572Y33859D1*
X12807Y33713D1*
X13062Y33768D2*
Y33950D1*
X13463Y34307D2*
X13535Y34289D1*
X13572Y34234D1*
Y34198D1*
X13535Y34143D1*
X13426Y34107D1*
X13244Y34088D1*
X13062D1*
X12916Y34107D1*
X12843Y34143D1*
X12807Y34198D1*
Y34216D1*
X12843Y34270D1*
X12916Y34307D1*
X13026Y34325D1*
X13062D1*
X13171Y34307D1*
X13244Y34270D1*
X13280Y34216D1*
Y34198D1*
X13244Y34143D1*
X13171Y34107D1*
X13062Y34088D1*
X13187Y31208D2*
Y31373D1*
X13224Y31427D1*
X13261Y31445D1*
X13333Y31464D1*
X13443D1*
X13515Y31445D1*
X13552Y31427D1*
X13588Y31373D1*
Y31208D1*
X12823D1*
Y31839D2*
X13588Y31693D1*
X12823Y31547D1*
X13078Y31602D2*
Y31784D1*
X12823Y31995D2*
X13587Y32177D1*
Y31922D1*
X13180Y28739D2*
Y28903D1*
X13216Y28957D1*
X13253Y28976D1*
X13326Y28994D1*
X13435D1*
X13508Y28976D1*
X13545Y28957D1*
X13581Y28903D1*
Y28739D1*
X12815D1*
X13581Y29077D2*
X12815D1*
Y29241D1*
X12852Y29296D1*
X12889Y29314D1*
X12961Y29332D1*
X13071D1*
X13144Y29314D1*
X13180Y29296D1*
X13216Y29241D1*
X13253Y29296D1*
X13290Y29314D1*
X13362Y29332D1*
X13435D1*
X13508Y29314D1*
X13545Y29296D1*
X13581Y29241D1*
Y29077D1*
X13216D2*
Y29241D1*
X13580Y29525D2*
X13544Y29470D1*
X13435Y29434D1*
X13253Y29416D1*
X13143D1*
X12961Y29434D1*
X12852Y29470D1*
X12815Y29525D1*
Y29561D1*
X12852Y29616D1*
X12961Y29652D1*
X13143Y29671D1*
X13253D1*
X13435Y29652D1*
X13544Y29616D1*
X13580Y29561D1*
Y29525D1*
X13435Y29652D2*
X12961Y29434D1*
X13201Y26180D2*
Y26344D1*
X13237Y26398D1*
X13274Y26417D1*
X13346Y26435D1*
X13456D1*
X13528Y26417D1*
X13565Y26398D1*
X13602Y26344D1*
Y26180D1*
X12836D1*
X13602Y26518D2*
X12836D1*
Y26682D1*
X12873Y26737D1*
X12909Y26755D1*
X12982Y26773D1*
X13091D1*
X13165Y26755D1*
X13201Y26737D1*
X13237Y26682D1*
X13274Y26737D1*
X13310Y26755D1*
X13383Y26773D1*
X13456D1*
X13528Y26755D1*
X13565Y26737D1*
X13602Y26682D1*
Y26518D1*
X13237D2*
Y26682D1*
X13455Y26857D2*
X13492Y26893D1*
X13601Y26948D1*
X12836D1*
X31413Y13341D2*
X31249D1*
X31194Y13377D1*
X31176Y13415D1*
X31158Y13487D1*
Y13596D1*
X31176Y13669D1*
X31194Y13706D1*
X31249Y13742D1*
X31413D1*
Y12977D1*
X31074Y13742D2*
Y12977D1*
X30910D1*
X30855Y13014D1*
X30837Y13050D1*
X30819Y13122D1*
Y13232D1*
X30837Y13305D1*
X30855Y13341D1*
X30910Y13377D1*
X30855Y13415D1*
X30837Y13451D1*
X30819Y13523D1*
Y13596D1*
X30837Y13669D1*
X30855Y13706D1*
X30910Y13742D1*
X31074D1*
Y13377D2*
X30910D1*
X30553Y12977D2*
Y13741D1*
X30736Y13232D1*
X30463D1*
X29485Y13327D2*
X29321D1*
X29267Y13363D1*
X29248Y13400D1*
X29230Y13473D1*
Y13582D1*
X29248Y13655D1*
X29267Y13692D1*
X29321Y13728D1*
X29485D1*
Y12962D1*
X28855D2*
X29001Y13728D1*
X29147Y12962D1*
X29092Y13218D2*
X28910D1*
X28681Y13727D2*
X28735Y13691D1*
X28753Y13618D1*
Y13545D1*
X28735Y13473D1*
X28699Y13436D1*
X28626Y13399D1*
X28571Y13363D1*
X28535Y13290D1*
X28517Y13218D1*
Y13108D1*
X28535Y13036D1*
X28553Y12999D1*
X28608Y12962D1*
X28681D1*
X28735Y12999D1*
X28753Y13036D1*
X28772Y13108D1*
Y13218D1*
X28753Y13290D1*
X28717Y13363D1*
X28662Y13399D1*
X28590Y13436D1*
X28553Y13473D1*
X28535Y13545D1*
Y13618D1*
X28553Y13691D1*
X28608Y13727D1*
X28681D1*
X16747Y13335D2*
X16582D1*
X16528Y13372D1*
X16509Y13409D1*
X16491Y13481D1*
Y13591D1*
X16509Y13663D1*
X16528Y13700D1*
X16582Y13736D1*
X16747D1*
Y12971D1*
X16116D2*
X16262Y13736D1*
X16408Y12971D1*
X16353Y13226D2*
X16171D1*
X16033Y13590D2*
X15996Y13627D1*
X15941Y13736D1*
Y12971D1*
X15749Y13736D2*
X15803Y13699D1*
X15840Y13590D1*
X15858Y13408D1*
Y13298D1*
X15840Y13116D1*
X15803Y13007D1*
X15749Y12971D1*
X15712D1*
X15658Y13007D1*
X15621Y13116D1*
X15603Y13298D1*
Y13408D1*
X15621Y13590D1*
X15658Y13699D1*
X15712Y13736D1*
X15749D1*
X15621Y13590D2*
X15840Y13116D1*
X19282Y13335D2*
X19118D1*
X19064Y13371D1*
X19045Y13408D1*
X19027Y13481D1*
Y13590D1*
X19045Y13662D1*
X19064Y13700D1*
X19118Y13736D1*
X19282D1*
Y12970D1*
X18652D2*
X18798Y13736D1*
X18944Y12970D1*
X18889Y13225D2*
X18707D1*
X18569Y13589D2*
X18532Y13626D1*
X18477Y13735D1*
Y12970D1*
X18394Y13589D2*
X18357Y13626D1*
X18302Y13735D1*
Y12970D1*
X21912Y13343D2*
X21748D1*
X21693Y13380D1*
X21675Y13417D1*
X21657Y13489D1*
Y13599D1*
X21675Y13671D1*
X21693Y13708D1*
X21748Y13744D1*
X21912D1*
Y12979D1*
X21281D2*
X21428Y13744D1*
X21573Y12979D1*
X21519Y13234D2*
X21336D1*
X21198Y13598D2*
X21161Y13635D1*
X21107Y13744D1*
Y12979D1*
X21005Y13562D2*
Y13598D1*
X20987Y13671D1*
X20969Y13707D1*
X20932Y13744D1*
X20859D1*
X20823Y13707D1*
X20805Y13671D1*
X20786Y13598D1*
Y13525D1*
X20805Y13452D1*
X20841Y13343D1*
X21023Y12979D1*
X20768D1*
X24183Y13531D2*
X24201Y13603D1*
X24238Y13676D1*
X24274Y13712D1*
X24347D1*
X24383Y13676D1*
X24420Y13603D1*
X24438Y13531D1*
X24456Y13421D1*
Y13238D1*
X24438Y13130D1*
X24420Y13056D1*
X24383Y12984D1*
X24347Y12947D1*
X24274D1*
X24238Y12984D1*
X24201Y13056D1*
X24183Y13130D1*
Y13238D1*
X24274D1*
X23844Y13712D2*
Y12947D1*
X24100Y13712D1*
Y12947D1*
X23761Y13712D2*
Y12947D1*
X23633D1*
X23579Y12984D1*
X23542Y13056D1*
X23524Y13130D1*
X23506Y13238D1*
Y13421D1*
X23524Y13531D1*
X23542Y13603D1*
X23579Y13676D1*
X23633Y13712D1*
X23761D1*
X26971Y13738D2*
X26825Y12972D1*
X26679Y13738D1*
X26596D2*
Y12972D1*
X26468D1*
X26414Y13009D1*
X26377Y13082D1*
X26359Y13155D1*
X26341Y13264D1*
Y13446D1*
X26359Y13556D1*
X26377Y13628D1*
X26414Y13702D1*
X26468Y13738D1*
X26596D1*
X26257D2*
Y12972D1*
X26130D1*
X26075Y13009D1*
X26038Y13082D1*
X26020Y13155D1*
X26002Y13264D1*
Y13446D1*
X26020Y13556D1*
X26038Y13628D1*
X26075Y13702D1*
X26130Y13738D1*
X26257D1*
X14839Y13335D2*
X14675D1*
X14620Y13371D1*
X14602Y13408D1*
X14584Y13480D1*
Y13590D1*
X14602Y13662D1*
X14620Y13699D1*
X14675Y13735D1*
X14839D1*
Y12970D1*
X14209D2*
X14355Y13735D1*
X14500Y12970D1*
X14446Y13225D2*
X14263D1*
X13888Y13480D2*
X13907Y13371D1*
X13943Y13297D1*
X13998Y13261D1*
X14016D1*
X14070Y13297D1*
X14107Y13371D1*
X14125Y13480D1*
Y13516D1*
X14107Y13626D1*
X14070Y13698D1*
X14016Y13735D1*
X13998D1*
X13943Y13698D1*
X13907Y13626D1*
X13888Y13480D1*
Y13297D1*
X13907Y13116D1*
X13943Y13006D1*
X13998Y12970D1*
X14034D1*
X14089Y13006D1*
X14107Y13079D1*
X31721Y29449D2*
X32487D1*
X31721Y29705D1*
X32487D1*
X32086Y29366D2*
Y29202D1*
X32049Y29148D1*
X32013Y29129D1*
X31940Y29111D1*
X31867D1*
X31795Y29129D1*
X31757Y29148D1*
X31721Y29202D1*
Y29366D1*
X32487D1*
X32086Y29239D2*
X32487Y29111D1*
X31831Y28772D2*
X31757Y28809D1*
X31721Y28863D1*
Y28936D1*
X31757Y28991D1*
X31831Y29028D1*
X31903D1*
X31976Y29009D1*
X32013Y28991D1*
X32049Y28955D1*
X32122Y28845D1*
X32158Y28809D1*
X32195Y28790D1*
X32268Y28772D1*
X32377D1*
X32450Y28809D1*
X32487Y28863D1*
Y28936D1*
X32450Y28991D1*
X32377Y29028D1*
X31721Y28561D2*
X32487D1*
X31721Y28689D2*
Y28434D1*
X31708Y27443D2*
X32473D1*
Y27278D1*
X32436Y27224D1*
X32400Y27206D1*
X32328Y27187D1*
X32218D1*
X32145Y27206D1*
X32109Y27224D1*
X32073Y27278D1*
X32035Y27224D1*
X31999Y27206D1*
X31927Y27187D1*
X31854D1*
X31781Y27206D1*
X31744Y27224D1*
X31708Y27278D1*
Y27443D1*
X32073D2*
Y27278D1*
X31708Y26995D2*
X31744Y27031D1*
X31817Y27068D1*
X31890Y27086D1*
X31999Y27104D1*
X32182D1*
X32291Y27086D1*
X32364Y27068D1*
X32436Y27031D1*
X32473Y26995D1*
Y26922D1*
X32436Y26886D1*
X32364Y26849D1*
X32291Y26831D1*
X32182Y26813D1*
X31999D1*
X31890Y26831D1*
X31817Y26849D1*
X31744Y26886D1*
X31708Y26922D1*
Y26995D1*
Y26620D2*
X31744Y26657D1*
X31817Y26693D1*
X31890Y26711D1*
X31999Y26729D1*
X32182D1*
X32291Y26711D1*
X32364Y26693D1*
X32436Y26657D1*
X32473Y26620D1*
Y26547D1*
X32436Y26511D1*
X32364Y26474D1*
X32291Y26456D1*
X32182Y26438D1*
X31999D1*
X31890Y26456D1*
X31817Y26474D1*
X31744Y26511D1*
X31708Y26547D1*
Y26620D1*
Y26227D2*
X32473D1*
X31708Y26355D2*
Y26099D1*
X31709Y25907D2*
X31745Y25961D1*
X31854Y25998D1*
X32036Y26016D1*
X32146D1*
X32328Y25998D1*
X32437Y25961D1*
X32473Y25907D1*
Y25870D1*
X32437Y25816D1*
X32328Y25779D1*
X32146Y25761D1*
X32036D1*
X31854Y25779D1*
X31745Y25816D1*
X31709Y25870D1*
Y25907D1*
X31854Y25779D2*
X32328Y25998D1*
X32098Y19383D2*
Y19218D1*
X32061Y19164D1*
X32024Y19146D1*
X31952Y19127D1*
X31842D1*
X31770Y19146D1*
X31733Y19164D1*
X31697Y19218D1*
Y19383D1*
X32462D1*
X31697Y19044D2*
X32462D1*
Y18880D1*
X32425Y18825D1*
X32389Y18807D1*
X32317Y18789D1*
X32207D1*
X32134Y18807D1*
X32098Y18825D1*
X32061Y18880D1*
X32024Y18825D1*
X31988Y18807D1*
X31916Y18789D1*
X31842D1*
X31770Y18807D1*
X31733Y18825D1*
X31697Y18880D1*
Y19044D1*
X32061D2*
Y18880D1*
X31697Y18487D2*
Y18669D1*
X32025Y18687D1*
X31989Y18669D1*
X31952Y18614D1*
Y18560D1*
X31989Y18505D1*
X32061Y18468D1*
X32171Y18450D1*
X32243D1*
X32353Y18468D1*
X32426Y18505D1*
X32462Y18560D1*
Y18614D1*
X32426Y18669D1*
X32389Y18687D1*
X32317Y18706D1*
X32106Y21926D2*
Y21761D1*
X32070Y21707D1*
X32033Y21689D1*
X31960Y21671D1*
X31851D1*
X31778Y21689D1*
X31741Y21707D1*
X31705Y21761D1*
Y21926D1*
X32471D1*
X31705Y21587D2*
X32471D1*
Y21423D1*
X32434Y21368D1*
X32397Y21350D1*
X32325Y21332D1*
X32215D1*
X32142Y21350D1*
X32106Y21368D1*
X32070Y21423D1*
X32033Y21368D1*
X31996Y21350D1*
X31924Y21332D1*
X31851D1*
X31778Y21350D1*
X31741Y21368D1*
X31705Y21423D1*
Y21587D1*
X32070D2*
Y21423D1*
X31815Y21030D2*
X31742Y21048D1*
X31706Y21103D1*
Y21139D1*
X31742Y21194D1*
X31852Y21231D1*
X32034Y21249D1*
X32215D1*
X32361Y21231D1*
X32434Y21194D1*
X32471Y21139D1*
Y21121D1*
X32434Y21067D1*
X32361Y21030D1*
X32252Y21012D1*
X32215D1*
X32106Y21030D1*
X32034Y21067D1*
X31997Y21121D1*
Y21139D1*
X32034Y21194D1*
X32106Y21231D1*
X32215Y21249D1*
X32107Y24431D2*
Y24267D1*
X32070Y24213D1*
X32033Y24194D1*
X31961Y24176D1*
X31851D1*
X31779Y24194D1*
X31742Y24213D1*
X31706Y24267D1*
Y24431D1*
X32471D1*
X31706Y24093D2*
X32471D1*
Y23929D1*
X32434Y23874D1*
X32398Y23856D1*
X32326Y23838D1*
X32216D1*
X32143Y23856D1*
X32107Y23874D1*
X32070Y23929D1*
X32033Y23874D1*
X31997Y23856D1*
X31925Y23838D1*
X31851D1*
X31779Y23856D1*
X31742Y23874D1*
X31706Y23929D1*
Y24093D1*
X32070D2*
Y23929D1*
X32471Y23681D2*
X31706Y23499D1*
Y23754D1*
X32092Y16828D2*
Y16664D1*
X32056Y16610D1*
X32019Y16591D1*
X31947Y16573D1*
X31837D1*
X31765Y16591D1*
X31728Y16610D1*
X31691Y16664D1*
Y16828D1*
X32457D1*
X31691Y16490D2*
X32457D1*
Y16326D1*
X32420Y16271D1*
X32384Y16253D1*
X32311Y16235D1*
X32202D1*
X32129Y16253D1*
X32092Y16271D1*
X32056Y16326D1*
X32019Y16271D1*
X31983Y16253D1*
X31910Y16235D1*
X31837D1*
X31765Y16253D1*
X31728Y16271D1*
X31691Y16326D1*
Y16490D1*
X32056D2*
Y16326D1*
X31692Y16115D2*
Y15915D1*
X31984Y16024D1*
Y15969D1*
X32020Y15933D1*
X32056Y15915D1*
X32166Y15896D1*
X32238D1*
X32348Y15915D1*
X32421Y15951D1*
X32457Y16006D1*
Y16060D1*
X32421Y16115D1*
X32384Y16133D1*
X32311Y16151D1*
X32108Y14922D2*
Y14758D1*
X32072Y14704D1*
X32035Y14685D1*
X31962Y14667D1*
X31853D1*
X31780Y14685D1*
X31743Y14704D1*
X31707Y14758D1*
Y14922D1*
X32473D1*
Y14292D2*
X31707Y14438D1*
X32473Y14584D1*
X32217Y14529D2*
Y14347D1*
X31853Y14209D2*
X31816Y14172D1*
X31708Y14117D1*
X32473D1*
X31708Y13815D2*
Y13997D1*
X32035Y14015D1*
X31999Y13997D1*
X31962Y13942D1*
Y13888D1*
X31999Y13833D1*
X32072Y13797D1*
X32181Y13779D1*
X32254D1*
X32363Y13797D1*
X32436Y13833D1*
X32473Y13888D1*
Y13942D1*
X32436Y13997D1*
X32399Y14015D1*
X32327Y14034D1*
X31721Y32228D2*
X32487Y32082D1*
X31721Y31936D1*
Y31853D2*
X32487D1*
Y31689D1*
X32450Y31634D1*
X32414Y31616D1*
X32341Y31598D1*
X32232D1*
X32158Y31616D1*
X32122Y31634D1*
X32086Y31689D1*
X32049Y31634D1*
X32013Y31616D1*
X31940Y31598D1*
X31867D1*
X31795Y31616D1*
X31758Y31634D1*
X31721Y31689D1*
Y31853D1*
X32086D2*
Y31689D1*
X32487Y31223D2*
X31721Y31369D1*
X32487Y31515D1*
X32232Y31460D2*
Y31277D1*
X31721Y31012D2*
X32487D1*
X31721Y31139D2*
Y30884D1*
X32124Y34240D2*
Y34076D1*
X32088Y34022D1*
X32051Y34003D1*
X31979Y33985D1*
X31869D1*
X31797Y34003D1*
X31760Y34022D1*
X31723Y34076D1*
Y34240D1*
X32489D1*
X31905Y33628D2*
X31833Y33646D1*
X31760Y33683D1*
X31723Y33719D1*
Y33792D1*
X31760Y33829D1*
X31833Y33865D1*
X31905Y33883D1*
X32015Y33902D1*
X32198D1*
X32306Y33883D1*
X32380Y33865D1*
X32452Y33829D1*
X32489Y33792D1*
Y33719D1*
X32452Y33683D1*
X32380Y33646D1*
X32306Y33628D1*
X31870Y33545D2*
X31833Y33508D1*
X31724Y33453D1*
X32489D1*
X31724Y33334D2*
Y33133D1*
X32016Y33243D1*
Y33188D1*
X32052Y33152D1*
X32088Y33133D1*
X32198Y33115D1*
X32270D1*
X32380Y33133D1*
X32453Y33170D1*
X32489Y33224D1*
Y33279D1*
X32453Y33334D1*
X32416Y33352D1*
X32343Y33370D1*
X28549Y34793D2*
X28713D1*
X28767Y34757D1*
X28786Y34720D1*
X28804Y34647D1*
Y34538D1*
X28786Y34465D1*
X28767Y34428D1*
X28713Y34392D1*
X28549D1*
Y35158D1*
X28887Y34392D2*
Y35158D1*
X29052D1*
X29106Y35121D1*
X29124Y35085D1*
X29142Y35012D1*
Y34903D1*
X29124Y34829D1*
X29106Y34793D1*
X29052Y34757D1*
X29106Y34720D1*
X29124Y34684D1*
X29142Y34611D1*
Y34538D1*
X29124Y34465D1*
X29106Y34428D1*
X29052Y34392D1*
X28887D1*
Y34757D2*
X29052D1*
X29463Y34647D2*
X29444Y34757D1*
X29408Y34830D1*
X29353Y34866D1*
X29335D1*
X29281Y34830D1*
X29244Y34757D1*
X29226Y34647D1*
Y34611D1*
X29244Y34502D1*
X29281Y34429D1*
X29335Y34393D1*
X29353D1*
X29408Y34429D1*
X29444Y34502D1*
X29463Y34647D1*
Y34830D1*
X29444Y35012D1*
X29408Y35122D1*
X29353Y35158D1*
X29317D1*
X29262Y35122D1*
X29244Y35048D1*
X30646Y34779D2*
X30810D1*
X30864Y34743D1*
X30883Y34706D1*
X30901Y34633D1*
Y34524D1*
X30883Y34452D1*
X30864Y34414D1*
X30810Y34378D1*
X30646D1*
Y35144D1*
X30984Y34378D2*
Y35144D1*
X31149D1*
X31203Y35107D1*
X31222Y35071D1*
X31240Y34998D1*
Y34889D1*
X31222Y34815D1*
X31203Y34779D1*
X31149Y34743D1*
X31203Y34706D1*
X31222Y34670D1*
X31240Y34597D1*
Y34524D1*
X31222Y34452D1*
X31203Y34414D1*
X31149Y34378D1*
X30984D1*
Y34743D2*
X31149D1*
X31414Y34379D2*
X31360Y34415D1*
X31341Y34488D1*
Y34561D1*
X31360Y34633D1*
X31396Y34671D1*
X31469Y34707D1*
X31523Y34743D1*
X31560Y34816D1*
X31578Y34889D1*
Y34998D1*
X31560Y35071D1*
X31542Y35108D1*
X31487Y35144D1*
X31414D1*
X31360Y35108D1*
X31341Y35071D1*
X31323Y34998D1*
Y34889D1*
X31341Y34816D1*
X31378Y34743D1*
X31432Y34707D1*
X31505Y34671D1*
X31542Y34633D1*
X31560Y34561D1*
Y34488D1*
X31542Y34415D1*
X31487Y34379D1*
X31414D1*
X25962Y34791D2*
X26127D1*
X26181Y34755D1*
X26199Y34718D1*
X26218Y34645D1*
Y34536D1*
X26199Y34464D1*
X26181Y34426D1*
X26127Y34390D1*
X25962D1*
Y35156D1*
X26593D2*
X26447Y34390D1*
X26301Y35156D1*
X26356Y34901D2*
X26538D1*
X26786Y34391D2*
X26731Y34427D1*
X26694Y34537D1*
X26676Y34719D1*
Y34828D1*
X26694Y35010D1*
X26731Y35120D1*
X26786Y35156D1*
X26822D1*
X26877Y35120D1*
X26913Y35010D1*
X26931Y34828D1*
Y34719D1*
X26913Y34537D1*
X26877Y34427D1*
X26822Y34391D1*
X26786D1*
X26913Y34537D2*
X26694Y35010D1*
X23474Y34790D2*
X23638D1*
X23692Y34754D1*
X23711Y34716D1*
X23729Y34644D1*
Y34535D1*
X23711Y34462D1*
X23692Y34425D1*
X23638Y34389D1*
X23474D1*
Y35154D1*
X24104D2*
X23958Y34389D1*
X23812Y35154D1*
X23867Y34899D2*
X24049D1*
X24188Y34535D2*
X24224Y34498D1*
X24279Y34390D1*
Y35154D1*
X20922Y34797D2*
X21086D1*
X21141Y34761D1*
X21159Y34724D1*
X21177Y34652D1*
Y34542D1*
X21159Y34470D1*
X21141Y34433D1*
X21086Y34396D1*
X20922D1*
Y35162D1*
X21553D2*
X21407Y34396D1*
X21261Y35162D1*
X21316Y34907D2*
X21498D1*
X21655Y34579D2*
Y34543D1*
X21673Y34470D1*
X21691Y34433D1*
X21727Y34397D1*
X21800D1*
X21836Y34433D1*
X21855Y34470D1*
X21873Y34543D1*
Y34615D1*
X21855Y34689D1*
X21818Y34797D1*
X21636Y35162D1*
X21891D1*
X18349Y34782D2*
X18513D1*
X18568Y34746D1*
X18586Y34709D1*
X18604Y34636D1*
Y34527D1*
X18586Y34454D1*
X18568Y34417D1*
X18513Y34381D1*
X18349D1*
Y35147D1*
X18980D2*
X18834Y34381D1*
X18688Y35147D1*
X18743Y34892D2*
X18925D1*
X19100Y34382D2*
X19300D1*
X19191Y34673D1*
X19245D1*
X19282Y34710D1*
X19300Y34746D1*
X19318Y34855D1*
Y34928D1*
X19300Y35037D1*
X19263Y35111D1*
X19209Y35147D1*
X19154D1*
X19100Y35111D1*
X19082Y35074D1*
X19063Y35001D1*
X15814Y34799D2*
X15979D1*
X16033Y34762D1*
X16052Y34725D1*
X16070Y34653D1*
Y34543D1*
X16051Y34471D1*
X16033Y34434D1*
X15979Y34398D1*
X15814D1*
Y35163D1*
X16445D2*
X16299Y34398D1*
X16153Y35163D1*
X16208Y34908D2*
X16390D1*
X16710Y35163D2*
Y34399D1*
X16528Y34908D1*
X16801D1*
X13892Y34809D2*
X14056D1*
X14111Y34773D1*
X14129Y34736D1*
X14147Y34663D1*
Y34554D1*
X14129Y34481D1*
X14111Y34444D1*
X14056Y34408D1*
X13892D1*
Y35174D1*
X14522D2*
X14376Y34408D1*
X14231Y35174D1*
X14285Y34919D2*
X14468D1*
X14824Y34409D2*
X14642D1*
X14624Y34737D1*
X14642Y34700D1*
X14697Y34663D1*
X14751D1*
X14806Y34700D1*
X14843Y34773D1*
X14861Y34882D1*
Y34955D1*
X14843Y35064D1*
X14806Y35138D1*
X14751Y35174D1*
X14697D1*
X14642Y35138D1*
X14624Y35101D1*
X14606Y35028D1*
M02*
