G04 DipTrace 2.4.0.2*
%INSTM32.gto*%
%MOMM*%
%ADD17C,0.152*%
%ADD32O,0.507X0.436*%
%ADD42O,0.525X0.48*%
%ADD70C,0.118*%
%ADD71C,0.111*%
%ADD72C,0.083*%
%FSLAX53Y53*%
G04*
G71*
G90*
G75*
G01*
%LNTopSilk*%
%LPD*%
D32*
X25875Y27858D3*
X26103Y27153D2*
D17*
X26703Y26553D1*
Y20553D2*
Y19953D1*
X26103D1*
X19503Y20553D2*
Y19953D1*
X20103D1*
Y27153D2*
X19503D1*
Y26553D1*
D42*
X21461Y31462D3*
G36*
X24819Y29242D2*
X24389D1*
Y28807D1*
X24819D1*
Y29242D1*
G37*
G36*
X21689Y29347D2*
X21329Y29062D1*
X21689Y28802D1*
Y28792D1*
D1*
Y29347D1*
G37*
X24369Y30977D2*
D17*
Y29487D1*
X23219Y28712D2*
X22849D1*
X21719Y30987D2*
Y29487D1*
X22869Y31787D2*
X23219D1*
X27285Y31040D2*
Y29505D1*
X25632Y31050D2*
Y29505D1*
X31890Y29803D2*
D70*
X31868Y29876D1*
X31824Y29949D1*
X31781Y29985D1*
X31693D1*
X31649Y29949D1*
X31606Y29876D1*
X31583Y29803D1*
X31562Y29694D1*
Y29511D1*
X31583Y29403D1*
X31606Y29329D1*
X31649Y29257D1*
X31693Y29220D1*
X31781D1*
X31824Y29257D1*
X31868Y29329D1*
X31890Y29403D1*
X32031Y29839D2*
X32075Y29876D1*
X32141Y29985D1*
Y29220D1*
X19850Y31698D2*
X19828Y31770D1*
X19784Y31843D1*
X19741Y31880D1*
X19653D1*
X19609Y31843D1*
X19566Y31770D1*
X19544Y31698D1*
X19522Y31588D1*
Y31405D1*
X19544Y31297D1*
X19566Y31223D1*
X19609Y31151D1*
X19653Y31114D1*
X19741D1*
X19784Y31151D1*
X19828Y31223D1*
X19850Y31297D1*
X20013Y31697D2*
Y31733D1*
X20035Y31806D1*
X20057Y31843D1*
X20101Y31879D1*
X20188D1*
X20232Y31843D1*
X20254Y31806D1*
X20276Y31733D1*
Y31661D1*
X20254Y31587D1*
X20210Y31479D1*
X19991Y31114D1*
X20297D1*
X21039Y31152D2*
X21017Y31225D1*
X20973Y31298D1*
X20930Y31334D1*
X20842D1*
X20798Y31298D1*
X20755Y31225D1*
X20733Y31152D1*
X20711Y31043D1*
Y30860D1*
X20733Y30751D1*
X20755Y30678D1*
X20798Y30606D1*
X20842Y30569D1*
X20930D1*
X20973Y30606D1*
X21017Y30678D1*
X21039Y30751D1*
X21224Y31333D2*
X21464D1*
X21333Y31042D1*
X21399D1*
X21442Y31006D1*
X21464Y30970D1*
X21486Y30860D1*
Y30788D1*
X21464Y30678D1*
X21421Y30605D1*
X21355Y30569D1*
X21289D1*
X21224Y30605D1*
X21202Y30642D1*
X21180Y30714D1*
X17597Y20258D2*
X17575Y20331D1*
X17531Y20404D1*
X17488Y20440D1*
X17400D1*
X17356Y20404D1*
X17313Y20331D1*
X17291Y20258D1*
X17269Y20149D1*
Y19966D1*
X17291Y19858D1*
X17313Y19784D1*
X17356Y19712D1*
X17400Y19675D1*
X17488D1*
X17531Y19712D1*
X17575Y19784D1*
X17597Y19858D1*
X17957Y19675D2*
Y20440D1*
X17738Y19930D1*
X18066D1*
X18764Y18886D2*
X18742Y18958D1*
X18698Y19031D1*
X18655Y19068D1*
X18567D1*
X18523Y19031D1*
X18480Y18958D1*
X18458Y18886D1*
X18436Y18776D1*
Y18593D1*
X18458Y18485D1*
X18480Y18411D1*
X18523Y18339D1*
X18567Y18302D1*
X18655D1*
X18698Y18339D1*
X18742Y18411D1*
X18764Y18485D1*
X19167Y19067D2*
X18949D1*
X18927Y18739D1*
X18949Y18775D1*
X19015Y18812D1*
X19080D1*
X19146Y18775D1*
X19190Y18703D1*
X19211Y18593D1*
Y18521D1*
X19190Y18411D1*
X19146Y18338D1*
X19080Y18302D1*
X19015D1*
X18949Y18338D1*
X18927Y18375D1*
X18905Y18448D1*
X28155Y14616D2*
X28133Y14688D1*
X28089Y14762D1*
X28046Y14798D1*
X27958D1*
X27914Y14762D1*
X27871Y14688D1*
X27849Y14616D1*
X27827Y14506D1*
Y14324D1*
X27849Y14215D1*
X27871Y14142D1*
X27914Y14069D1*
X27958Y14032D1*
X28046D1*
X28089Y14069D1*
X28133Y14142D1*
X28155Y14215D1*
X28558Y14688D2*
X28537Y14761D1*
X28471Y14797D1*
X28427D1*
X28362Y14761D1*
X28318Y14651D1*
X28296Y14469D1*
Y14287D1*
X28318Y14142D1*
X28362Y14068D1*
X28427Y14032D1*
X28449D1*
X28514Y14068D1*
X28558Y14142D1*
X28580Y14251D1*
Y14287D1*
X28558Y14397D1*
X28514Y14469D1*
X28449Y14506D1*
X28427D1*
X28362Y14469D1*
X28318Y14397D1*
X28296Y14287D1*
X27925Y15963D2*
X27903Y16036D1*
X27859Y16109D1*
X27816Y16145D1*
X27728D1*
X27684Y16109D1*
X27641Y16036D1*
X27619Y15963D1*
X27597Y15854D1*
Y15671D1*
X27619Y15562D1*
X27641Y15489D1*
X27684Y15416D1*
X27728Y15379D1*
X27816D1*
X27859Y15416D1*
X27903Y15489D1*
X27925Y15562D1*
X28154Y15379D2*
X28372Y16144D1*
X28066D1*
X27931Y17104D2*
X27909Y17177D1*
X27865Y17250D1*
X27822Y17286D1*
X27735D1*
X27691Y17250D1*
X27647Y17177D1*
X27625Y17104D1*
X27603Y16995D1*
Y16812D1*
X27625Y16703D1*
X27647Y16630D1*
X27691Y16558D1*
X27735Y16521D1*
X27822D1*
X27865Y16558D1*
X27909Y16630D1*
X27931Y16703D1*
X28181Y17285D2*
X28116Y17249D1*
X28094Y17177D1*
Y17103D1*
X28116Y17031D1*
X28160Y16994D1*
X28247Y16958D1*
X28313Y16922D1*
X28356Y16848D1*
X28378Y16776D1*
Y16666D1*
X28356Y16594D1*
X28335Y16557D1*
X28269Y16521D1*
X28181D1*
X28116Y16557D1*
X28094Y16594D1*
X28072Y16666D1*
Y16776D1*
X28094Y16848D1*
X28138Y16922D1*
X28203Y16958D1*
X28291Y16994D1*
X28335Y17031D1*
X28356Y17103D1*
Y17177D1*
X28335Y17249D1*
X28269Y17285D1*
X28181D1*
X27938Y18238D2*
X27916Y18311D1*
X27872Y18384D1*
X27829Y18420D1*
X27742D1*
X27698Y18384D1*
X27654Y18311D1*
X27632Y18238D1*
X27610Y18129D1*
Y17946D1*
X27632Y17837D1*
X27654Y17764D1*
X27698Y17692D1*
X27742Y17654D1*
X27829D1*
X27872Y17692D1*
X27916Y17764D1*
X27938Y17837D1*
X28364Y18165D2*
X28342Y18055D1*
X28298Y17982D1*
X28232Y17946D1*
X28211D1*
X28145Y17982D1*
X28102Y18055D1*
X28079Y18165D1*
Y18201D1*
X28102Y18311D1*
X28145Y18383D1*
X28211Y18419D1*
X28232D1*
X28298Y18383D1*
X28342Y18311D1*
X28364Y18165D1*
Y17982D1*
X28342Y17800D1*
X28298Y17691D1*
X28232Y17654D1*
X28189D1*
X28123Y17691D1*
X28102Y17764D1*
X27928Y19415D2*
X27906Y19487D1*
X27862Y19560D1*
X27819Y19597D1*
X27732D1*
X27688Y19560D1*
X27644Y19487D1*
X27622Y19415D1*
X27600Y19305D1*
Y19122D1*
X27622Y19014D1*
X27644Y18940D1*
X27688Y18868D1*
X27732Y18831D1*
X27819D1*
X27862Y18868D1*
X27906Y18940D1*
X27928Y19014D1*
X28069Y19450D2*
X28113Y19487D1*
X28179Y19596D1*
Y18831D1*
X28452Y19596D2*
X28386Y19559D1*
X28342Y19450D1*
X28320Y19268D1*
Y19159D1*
X28342Y18977D1*
X28386Y18867D1*
X28452Y18831D1*
X28495D1*
X28561Y18867D1*
X28604Y18977D1*
X28626Y19159D1*
Y19268D1*
X28604Y19450D1*
X28561Y19559D1*
X28495Y19596D1*
X28452D1*
X28604Y19450D2*
X28342Y18977D1*
X28058Y27627D2*
X28036Y27700D1*
X27992Y27773D1*
X27949Y27809D1*
X27861D1*
X27817Y27773D1*
X27774Y27700D1*
X27752Y27627D1*
X27730Y27518D1*
Y27335D1*
X27752Y27226D1*
X27774Y27153D1*
X27817Y27081D1*
X27861Y27044D1*
X27949D1*
X27992Y27081D1*
X28036Y27153D1*
X28058Y27226D1*
X28199Y27663D2*
X28243Y27700D1*
X28309Y27809D1*
Y27044D1*
X28450Y27663D2*
X28494Y27700D1*
X28559Y27809D1*
Y27044D1*
X29052Y28916D2*
X29031Y28989D1*
X28987Y29062D1*
X28943Y29098D1*
X28856D1*
X28812Y29062D1*
X28768Y28989D1*
X28746Y28916D1*
X28724Y28807D1*
Y28624D1*
X28746Y28515D1*
X28768Y28442D1*
X28812Y28370D1*
X28856Y28333D1*
X28943D1*
X28987Y28370D1*
X29031Y28442D1*
X29052Y28515D1*
X29193Y28952D2*
X29237Y28989D1*
X29303Y29097D1*
Y28333D1*
X29467Y28916D2*
Y28952D1*
X29488Y29025D1*
X29510Y29061D1*
X29554Y29097D1*
X29641D1*
X29685Y29061D1*
X29707Y29025D1*
X29729Y28952D1*
Y28879D1*
X29707Y28806D1*
X29663Y28697D1*
X29444Y28333D1*
X29751D1*
X22796Y33401D2*
X22774Y33474D1*
X22730Y33547D1*
X22687Y33583D1*
X22599D1*
X22556Y33547D1*
X22512Y33474D1*
X22490Y33401D1*
X22468Y33292D1*
Y33109D1*
X22490Y33000D1*
X22512Y32927D1*
X22556Y32855D1*
X22599Y32818D1*
X22687D1*
X22730Y32855D1*
X22774Y32927D1*
X22796Y33000D1*
X22937Y33437D2*
X22981Y33474D1*
X23047Y33583D1*
Y32818D1*
X23232Y33583D2*
X23472D1*
X23341Y33291D1*
X23407D1*
X23450Y33255D1*
X23472Y33219D1*
X23494Y33109D1*
Y33037D1*
X23472Y32927D1*
X23429Y32854D1*
X23363Y32818D1*
X23297D1*
X23232Y32854D1*
X23210Y32891D1*
X23188Y32963D1*
X24450Y28474D2*
X24428Y28546D1*
X24384Y28620D1*
X24341Y28656D1*
X24253D1*
X24209Y28620D1*
X24166Y28546D1*
X24144Y28474D1*
X24122Y28364D1*
Y28182D1*
X24144Y28073D1*
X24166Y28000D1*
X24209Y27927D1*
X24253Y27890D1*
X24341D1*
X24384Y27927D1*
X24428Y28000D1*
X24450Y28073D1*
X24591Y28509D2*
X24635Y28546D1*
X24701Y28655D1*
Y27890D1*
X25061D2*
Y28655D1*
X24842Y28145D1*
X25170D1*
X25004Y32068D2*
X24982Y32141D1*
X24939Y32214D1*
X24895Y32250D1*
X24808D1*
X24764Y32214D1*
X24720Y32141D1*
X24698Y32068D1*
X24676Y31959D1*
Y31776D1*
X24698Y31667D1*
X24720Y31594D1*
X24764Y31522D1*
X24808Y31485D1*
X24895D1*
X24939Y31522D1*
X24982Y31594D1*
X25004Y31667D1*
X25145Y32104D2*
X25189Y32141D1*
X25255Y32249D1*
Y31485D1*
X25659Y32249D2*
X25440D1*
X25418Y31922D1*
X25440Y31958D1*
X25506Y31995D1*
X25571D1*
X25637Y31958D1*
X25681Y31886D1*
X25703Y31776D1*
Y31704D1*
X25681Y31594D1*
X25637Y31521D1*
X25571Y31485D1*
X25506D1*
X25440Y31521D1*
X25418Y31558D1*
X25396Y31630D1*
X27536Y32103D2*
X27514Y32175D1*
X27470Y32248D1*
X27427Y32285D1*
X27339D1*
X27295Y32248D1*
X27252Y32175D1*
X27230Y32103D1*
X27208Y31993D1*
Y31810D1*
X27230Y31702D1*
X27252Y31628D1*
X27295Y31556D1*
X27339Y31519D1*
X27427D1*
X27470Y31556D1*
X27514Y31628D1*
X27536Y31702D1*
X27677Y32138D2*
X27721Y32175D1*
X27787Y32284D1*
Y31519D1*
X28190Y32175D2*
X28169Y32247D1*
X28103Y32284D1*
X28059D1*
X27994Y32247D1*
X27950Y32138D1*
X27928Y31956D1*
Y31774D1*
X27950Y31628D1*
X27994Y31555D1*
X28059Y31519D1*
X28081D1*
X28146Y31555D1*
X28190Y31628D1*
X28212Y31738D1*
Y31774D1*
X28190Y31884D1*
X28146Y31956D1*
X28081Y31992D1*
X28059D1*
X27994Y31956D1*
X27950Y31884D1*
X27928Y31774D1*
X18310Y31510D2*
Y30744D1*
X18573D1*
X18714Y31363D2*
X18758Y31400D1*
X18823Y31509D1*
Y30744D1*
X30342Y28347D2*
X30539D1*
X30605Y28384D1*
X30627Y28421D1*
X30649Y28493D1*
Y28566D1*
X30627Y28639D1*
X30605Y28676D1*
X30539Y28712D1*
X30342D1*
Y27946D1*
X30495Y28347D2*
X30649Y27946D1*
X30790Y28565D2*
X30834Y28603D1*
X30899Y28711D1*
Y27946D1*
X16055Y20072D2*
X16252D1*
X16317Y20109D1*
X16340Y20145D1*
X16361Y20217D1*
Y20291D1*
X16340Y20363D1*
X16317Y20400D1*
X16252Y20436D1*
X16055D1*
Y19671D1*
X16208Y20072D2*
X16361Y19671D1*
X16525Y20254D2*
Y20290D1*
X16546Y20363D1*
X16568Y20399D1*
X16612Y20435D1*
X16700D1*
X16743Y20399D1*
X16765Y20363D1*
X16787Y20290D1*
Y20217D1*
X16765Y20144D1*
X16721Y20035D1*
X16502Y19671D1*
X16809D1*
X31421Y23700D2*
X31617D1*
X31683Y23737D1*
X31705Y23773D1*
X31727Y23845D1*
Y23919D1*
X31705Y23991D1*
X31683Y24028D1*
X31617Y24064D1*
X31421D1*
Y23299D1*
X31574Y23700D2*
X31727Y23299D1*
X31912Y24064D2*
X32152D1*
X32021Y23772D1*
X32087D1*
X32131Y23736D1*
X32152Y23700D1*
X32175Y23590D1*
Y23518D1*
X32152Y23408D1*
X32109Y23335D1*
X32043Y23299D1*
X31977D1*
X31912Y23335D1*
X31891Y23372D1*
X31868Y23444D1*
X16064Y14594D2*
X16021Y14667D1*
X15955Y14703D1*
X15868D1*
X15802Y14667D1*
X15758Y14594D1*
Y14521D1*
X15780Y14448D1*
X15802Y14412D1*
X15846Y14375D1*
X15977Y14302D1*
X16021Y14266D1*
X16043Y14229D1*
X16064Y14156D1*
Y14047D1*
X16021Y13975D1*
X15955Y13937D1*
X15868D1*
X15802Y13975D1*
X15758Y14047D1*
X16206Y14703D2*
X16315Y13937D1*
X16424Y14703D1*
X16534Y13937D1*
X16643Y14703D1*
X16784D2*
Y13937D1*
X16938D1*
X17003Y13975D1*
X17047Y14047D1*
X17069Y14120D1*
X17091Y14229D1*
Y14412D1*
X17069Y14521D1*
X17047Y14594D1*
X17003Y14667D1*
X16938Y14703D1*
X16784D1*
X26485Y28465D2*
Y27918D1*
X26507Y27809D1*
X26551Y27736D1*
X26617Y27699D1*
X26660D1*
X26726Y27736D1*
X26770Y27809D1*
X26792Y27918D1*
Y28465D1*
X26933Y28318D2*
X26977Y28356D1*
X27043Y28464D1*
Y27699D1*
X21152Y32691D2*
X21458Y31926D1*
Y32691D2*
X21152Y31926D1*
X21599Y32545D2*
X21643Y32582D1*
X21709Y32690D1*
Y31926D1*
X26081Y32306D2*
X26388Y31540D1*
Y32306D2*
X26081Y31540D1*
X26551Y32123D2*
Y32159D1*
X26573Y32232D1*
X26595Y32268D1*
X26639Y32305D1*
X26726D1*
X26769Y32268D1*
X26791Y32232D1*
X26813Y32159D1*
Y32087D1*
X26791Y32013D1*
X26748Y31905D1*
X26529Y31540D1*
X26835D1*
X13583Y33357D2*
D71*
X13267D1*
Y32336D1*
Y32870D2*
X13461D1*
X13719Y33016D2*
X13865Y32336D1*
X13816Y32142D1*
X13767Y32044D1*
X13719Y31996D1*
X13694D1*
X14011Y33016D2*
X13865Y32336D1*
X14122Y33357D2*
Y32336D1*
Y32870D2*
X14170Y32968D1*
X14219Y33016D1*
X14292D1*
X14340Y32968D1*
X14389Y32870D1*
X14413Y32724D1*
Y32628D1*
X14389Y32482D1*
X14340Y32385D1*
X14292Y32336D1*
X14219D1*
X14170Y32385D1*
X14122Y32482D1*
X14524Y32724D2*
X14816D1*
Y32822D1*
X14791Y32920D1*
X14767Y32968D1*
X14718Y33016D1*
X14645D1*
X14597Y32968D1*
X14548Y32870D1*
X14524Y32724D1*
Y32628D1*
X14548Y32482D1*
X14597Y32385D1*
X14645Y32336D1*
X14718D1*
X14767Y32385D1*
X14816Y32482D1*
X14927Y33016D2*
Y32336D1*
Y32724D2*
X14951Y32870D1*
X15000Y32968D1*
X15049Y33016D1*
X15122D1*
X15681Y33357D2*
Y32336D1*
X15972D1*
X16375Y33016D2*
Y32336D1*
Y32870D2*
X16326Y32968D1*
X16278Y33016D1*
X16205D1*
X16156Y32968D1*
X16108Y32870D1*
X16083Y32724D1*
Y32628D1*
X16108Y32482D1*
X16156Y32385D1*
X16205Y32336D1*
X16278D1*
X16326Y32385D1*
X16375Y32482D1*
X16486Y33357D2*
Y32336D1*
Y32870D2*
X16535Y32968D1*
X16583Y33016D1*
X16656D1*
X16704Y32968D1*
X16753Y32870D1*
X16777Y32724D1*
Y32628D1*
X16753Y32482D1*
X16704Y32385D1*
X16656Y32336D1*
X16583D1*
X16535Y32385D1*
X16486Y32482D1*
X17156Y32870D2*
X17132Y32968D1*
X17059Y33016D1*
X16986D1*
X16913Y32968D1*
X16888Y32870D1*
X16913Y32774D1*
X16961Y32724D1*
X17083Y32676D1*
X17132Y32628D1*
X17156Y32530D1*
Y32482D1*
X17132Y32385D1*
X17059Y32336D1*
X16986D1*
X16913Y32385D1*
X16888Y32482D1*
X17715Y33357D2*
Y32336D1*
X17826Y33016D2*
Y32336D1*
Y32822D2*
X17899Y32968D1*
X17948Y33016D1*
X18020D1*
X18069Y32968D1*
X18093Y32822D1*
Y32336D1*
X18496Y32870D2*
X18447Y32968D1*
X18399Y33016D1*
X18326D1*
X18277Y32968D1*
X18229Y32870D1*
X18204Y32724D1*
Y32628D1*
X18229Y32482D1*
X18277Y32385D1*
X18326Y32336D1*
X18399D1*
X18447Y32385D1*
X18496Y32482D1*
X18632Y32434D2*
X18607Y32384D1*
X18632Y32336D1*
X18656Y32384D1*
X18632Y32434D1*
X13279Y31285D2*
X13497D1*
X13570Y31334D1*
X13595Y31382D1*
X13619Y31479D1*
Y31577D1*
X13595Y31673D1*
X13570Y31723D1*
X13497Y31771D1*
X13279D1*
Y30750D1*
X13449Y31285D2*
X13619Y30750D1*
X13730Y31139D2*
X14022D1*
Y31236D1*
X13997Y31334D1*
X13973Y31382D1*
X13924Y31431D1*
X13851D1*
X13803Y31382D1*
X13754Y31285D1*
X13730Y31139D1*
Y31042D1*
X13754Y30896D1*
X13803Y30799D1*
X13851Y30750D1*
X13924D1*
X13973Y30799D1*
X14022Y30896D1*
X14133Y31431D2*
X14279Y30750D1*
X14424Y31431D1*
X14983Y31576D2*
X15032Y31625D1*
X15105Y31770D1*
Y30750D1*
X15240Y30848D2*
X15216Y30798D1*
X15240Y30750D1*
X15265Y30798D1*
X15240Y30848D1*
X15522Y31770D2*
X15449Y31722D1*
X15400Y31576D1*
X15376Y31333D1*
Y31187D1*
X15400Y30944D1*
X15449Y30798D1*
X15522Y30750D1*
X15570D1*
X15643Y30798D1*
X15692Y30944D1*
X15716Y31187D1*
Y31333D1*
X15692Y31576D1*
X15643Y31722D1*
X15570Y31770D1*
X15522D1*
X15692Y31576D2*
X15400Y30944D1*
X16300Y31527D2*
Y31576D1*
X16324Y31673D1*
X16349Y31722D1*
X16397Y31770D1*
X16495D1*
X16543Y31722D1*
X16567Y31673D1*
X16592Y31576D1*
Y31479D1*
X16567Y31381D1*
X16519Y31236D1*
X16276Y30750D1*
X16616D1*
X16873Y31770D2*
X16800Y31722D1*
X16751Y31576D1*
X16727Y31333D1*
Y31187D1*
X16751Y30944D1*
X16800Y30798D1*
X16873Y30750D1*
X16921D1*
X16994Y30798D1*
X17043Y30944D1*
X17067Y31187D1*
Y31333D1*
X17043Y31576D1*
X16994Y31722D1*
X16921Y31770D1*
X16873D1*
X17043Y31576D2*
X16751Y30944D1*
X17178Y31576D2*
X17227Y31625D1*
X17300Y31770D1*
Y30750D1*
X17655D2*
Y31770D1*
X17411Y31090D1*
X17776D1*
X13596Y34654D2*
X13548Y34752D1*
X13475Y34800D1*
X13378D1*
X13305Y34752D1*
X13256Y34654D1*
Y34557D1*
X13281Y34460D1*
X13305Y34411D1*
X13353Y34363D1*
X13499Y34265D1*
X13548Y34217D1*
X13572Y34168D1*
X13596Y34071D1*
Y33925D1*
X13548Y33828D1*
X13475Y33779D1*
X13378D1*
X13305Y33828D1*
X13256Y33925D1*
X13877Y34800D2*
Y33779D1*
X13707Y34800D2*
X14048D1*
X14547Y33779D2*
Y34800D1*
X14353Y33779D1*
X14159Y34800D1*
Y33779D1*
X14707Y34799D2*
X14974D1*
X14829Y34410D1*
X14902D1*
X14950Y34362D1*
X14974Y34314D1*
X14999Y34168D1*
Y34071D1*
X14974Y33925D1*
X14926Y33827D1*
X14853Y33779D1*
X14780D1*
X14707Y33827D1*
X14683Y33877D1*
X14658Y33973D1*
X15135Y34556D2*
Y34604D1*
X15159Y34702D1*
X15183Y34750D1*
X15232Y34799D1*
X15329D1*
X15377Y34750D1*
X15401Y34702D1*
X15426Y34604D1*
Y34508D1*
X15401Y34410D1*
X15353Y34265D1*
X15110Y33779D1*
X15450D1*
X16009Y34800D2*
Y33779D1*
X16412Y34460D2*
Y33779D1*
Y34314D2*
X16364Y34411D1*
X16315Y34460D1*
X16242D1*
X16193Y34411D1*
X16145Y34314D1*
X16120Y34168D1*
Y34071D1*
X16145Y33925D1*
X16193Y33828D1*
X16242Y33779D1*
X16315D1*
X16364Y33828D1*
X16412Y33925D1*
X16523Y34460D2*
Y33779D1*
Y34168D2*
X16548Y34314D1*
X16596Y34411D1*
X16645Y34460D1*
X16718D1*
X17120Y34411D2*
Y33633D1*
X17096Y33488D1*
X17072Y33439D1*
X17023Y33390D1*
X16950D1*
X16902Y33439D1*
X17120Y34265D2*
X17072Y34362D1*
X17023Y34411D1*
X16950D1*
X16902Y34362D1*
X16853Y34265D1*
X16829Y34119D1*
Y34022D1*
X16853Y33877D1*
X16902Y33779D1*
X16950Y33731D1*
X17023D1*
X17072Y33779D1*
X17120Y33877D1*
X17231Y34168D2*
X17523D1*
Y34265D1*
X17499Y34363D1*
X17475Y34411D1*
X17426Y34460D1*
X17353D1*
X17304Y34411D1*
X17256Y34314D1*
X17231Y34168D1*
Y34071D1*
X17256Y33925D1*
X17304Y33828D1*
X17353Y33779D1*
X17426D1*
X17475Y33828D1*
X17523Y33925D1*
X12519Y14458D2*
D72*
Y14294D1*
X12555Y14239D1*
X12592Y14221D1*
X12665Y14203D1*
X12774D1*
X12847Y14221D1*
X12884Y14239D1*
X12920Y14294D1*
Y14458D1*
X12154D1*
X12920Y14119D2*
X12154D1*
Y13955D1*
X12192Y13900D1*
X12228Y13882D1*
X12300Y13864D1*
X12410D1*
X12483Y13882D1*
X12519Y13900D1*
X12555Y13955D1*
X12592Y13900D1*
X12629Y13882D1*
X12701Y13864D1*
X12774D1*
X12847Y13882D1*
X12884Y13900D1*
X12920Y13955D1*
Y14119D1*
X12555D2*
Y13955D1*
X12774Y13781D2*
X12811Y13744D1*
X12919Y13689D1*
X12154D1*
X12919Y13387D2*
Y13569D1*
X12592Y13588D1*
X12628Y13569D1*
X12665Y13515D1*
Y13460D1*
X12628Y13406D1*
X12555Y13369D1*
X12446Y13351D1*
X12373D1*
X12264Y13369D1*
X12191Y13406D1*
X12154Y13460D1*
Y13515D1*
X12191Y13569D1*
X12228Y13588D1*
X12300Y13606D1*
X12544Y16935D2*
Y16771D1*
X12580Y16716D1*
X12617Y16698D1*
X12690Y16680D1*
X12799D1*
X12872Y16698D1*
X12909Y16716D1*
X12945Y16771D1*
Y16935D1*
X12179D1*
X12945Y16596D2*
X12179D1*
Y16432D1*
X12216Y16377D1*
X12253Y16359D1*
X12325Y16341D1*
X12434D1*
X12508Y16359D1*
X12544Y16377D1*
X12580Y16432D1*
X12617Y16377D1*
X12653Y16359D1*
X12726Y16341D1*
X12799D1*
X12872Y16359D1*
X12909Y16377D1*
X12945Y16432D1*
Y16596D1*
X12580D2*
Y16432D1*
X12798Y16258D2*
X12835Y16221D1*
X12944Y16166D1*
X12179D1*
Y15901D2*
X12944D1*
X12434Y16083D1*
Y15810D1*
X12547Y19529D2*
Y19365D1*
X12583Y19311D1*
X12620Y19292D1*
X12693Y19274D1*
X12802D1*
X12875Y19292D1*
X12912Y19311D1*
X12948Y19365D1*
Y19529D1*
X12182D1*
X12948Y19191D2*
X12182D1*
Y19027D1*
X12219Y18972D1*
X12256Y18954D1*
X12328Y18936D1*
X12438D1*
X12511Y18954D1*
X12547Y18972D1*
X12583Y19027D1*
X12620Y18972D1*
X12657Y18954D1*
X12729Y18936D1*
X12802D1*
X12875Y18954D1*
X12912Y18972D1*
X12948Y19027D1*
Y19191D1*
X12583D2*
Y19027D1*
X12801Y18852D2*
X12838Y18816D1*
X12947Y18761D1*
X12182D1*
X12947Y18641D2*
Y18441D1*
X12656Y18550D1*
Y18495D1*
X12619Y18459D1*
X12583Y18441D1*
X12474Y18422D1*
X12401D1*
X12292Y18441D1*
X12219Y18477D1*
X12182Y18532D1*
Y18587D1*
X12219Y18641D1*
X12256Y18659D1*
X12328Y18678D1*
X12557Y22021D2*
Y21857D1*
X12593Y21802D1*
X12630Y21784D1*
X12703Y21766D1*
X12812D1*
X12884Y21784D1*
X12922Y21802D1*
X12958Y21857D1*
Y22021D1*
X12192D1*
X12958Y21682D2*
X12192D1*
Y21518D1*
X12229Y21463D1*
X12265Y21445D1*
X12338Y21427D1*
X12447D1*
X12521Y21445D1*
X12557Y21463D1*
X12593Y21518D1*
X12630Y21463D1*
X12666Y21445D1*
X12739Y21427D1*
X12812D1*
X12884Y21445D1*
X12922Y21463D1*
X12958Y21518D1*
Y21682D1*
X12593D2*
Y21518D1*
X12811Y21344D2*
X12848Y21307D1*
X12957Y21252D1*
X12192D1*
X12775Y21151D2*
X12811D1*
X12884Y21132D1*
X12921Y21114D1*
X12957Y21078D1*
Y21005D1*
X12921Y20969D1*
X12884Y20950D1*
X12811Y20932D1*
X12739D1*
X12665Y20950D1*
X12557Y20987D1*
X12192Y21169D1*
Y20914D1*
X12526Y24596D2*
Y24431D1*
X12562Y24377D1*
X12599Y24358D1*
X12672Y24340D1*
X12781D1*
X12854Y24358D1*
X12891Y24377D1*
X12927Y24431D1*
Y24596D1*
X12161D1*
X12927Y24257D2*
X12161D1*
Y24093D1*
X12199Y24038D1*
X12235Y24020D1*
X12307Y24002D1*
X12417D1*
X12490Y24020D1*
X12526Y24038D1*
X12562Y24093D1*
X12599Y24038D1*
X12636Y24020D1*
X12708Y24002D1*
X12781D1*
X12854Y24020D1*
X12891Y24038D1*
X12927Y24093D1*
Y24257D1*
X12562D2*
Y24093D1*
X12781Y23918D2*
X12818Y23882D1*
X12926Y23827D1*
X12161D1*
X12926Y23634D2*
X12890Y23689D1*
X12781Y23726D1*
X12599Y23744D1*
X12489D1*
X12307Y23726D1*
X12198Y23689D1*
X12161Y23634D1*
Y23598D1*
X12198Y23543D1*
X12307Y23507D1*
X12489Y23488D1*
X12599D1*
X12781Y23507D1*
X12890Y23543D1*
X12926Y23598D1*
Y23634D1*
X12781Y23507D2*
X12307Y23726D1*
X29485Y35433D2*
X29320D1*
X29266Y35397D1*
X29248Y35360D1*
X29230Y35287D1*
Y35178D1*
X29248Y35106D1*
X29266Y35068D1*
X29320Y35032D1*
X29485D1*
Y35798D1*
X29146Y35032D2*
Y35798D1*
X28982D1*
X28927Y35761D1*
X28909Y35725D1*
X28891Y35652D1*
Y35543D1*
X28909Y35469D1*
X28927Y35433D1*
X28982Y35397D1*
X28927Y35360D1*
X28909Y35324D1*
X28891Y35251D1*
Y35178D1*
X28909Y35106D1*
X28927Y35068D1*
X28982Y35032D1*
X29146D1*
Y35397D2*
X28982D1*
X28571Y35287D2*
X28589Y35397D1*
X28625Y35470D1*
X28680Y35506D1*
X28698D1*
X28753Y35470D1*
X28789Y35397D1*
X28808Y35287D1*
Y35251D1*
X28789Y35142D1*
X28753Y35069D1*
X28698Y35033D1*
X28680D1*
X28625Y35069D1*
X28589Y35142D1*
X28571Y35287D1*
Y35470D1*
X28589Y35652D1*
X28625Y35762D1*
X28680Y35798D1*
X28716D1*
X28771Y35762D1*
X28789Y35688D1*
X31976Y35419D2*
X31812D1*
X31757Y35383D1*
X31739Y35346D1*
X31721Y35274D1*
Y35164D1*
X31739Y35092D1*
X31757Y35055D1*
X31812Y35018D1*
X31976D1*
Y35784D1*
X31637Y35018D2*
Y35784D1*
X31473D1*
X31418Y35747D1*
X31400Y35711D1*
X31382Y35638D1*
Y35529D1*
X31400Y35455D1*
X31418Y35419D1*
X31473Y35383D1*
X31418Y35346D1*
X31400Y35310D1*
X31382Y35237D1*
Y35164D1*
X31400Y35092D1*
X31418Y35055D1*
X31473Y35018D1*
X31637D1*
Y35383D2*
X31473D1*
X31208Y35019D2*
X31262Y35055D1*
X31281Y35128D1*
Y35201D1*
X31262Y35274D1*
X31226Y35311D1*
X31153Y35347D1*
X31098Y35383D1*
X31062Y35456D1*
X31044Y35529D1*
Y35638D1*
X31062Y35711D1*
X31080Y35748D1*
X31135Y35784D1*
X31208D1*
X31262Y35748D1*
X31281Y35711D1*
X31299Y35638D1*
Y35529D1*
X31281Y35456D1*
X31244Y35383D1*
X31190Y35347D1*
X31117Y35311D1*
X31080Y35274D1*
X31062Y35201D1*
Y35128D1*
X31080Y35055D1*
X31135Y35019D1*
X31208D1*
X32398Y28722D2*
X33164D1*
X32398Y28467D1*
X33164D1*
X32763Y28805D2*
Y28969D1*
X32726Y29024D1*
X32690Y29043D1*
X32617Y29061D1*
X32544D1*
X32472Y29043D1*
X32434Y29024D1*
X32398Y28969D1*
Y28805D1*
X33164D1*
X32763Y28933D2*
X33164Y29061D1*
X32508Y29399D2*
X32434Y29363D1*
X32398Y29308D1*
Y29235D1*
X32434Y29181D1*
X32508Y29144D1*
X32580D1*
X32653Y29163D1*
X32690Y29181D1*
X32726Y29217D1*
X32799Y29326D1*
X32835Y29363D1*
X32872Y29381D1*
X32945Y29399D1*
X33054D1*
X33127Y29363D1*
X33164Y29308D1*
Y29235D1*
X33127Y29181D1*
X33054Y29144D1*
X32398Y29610D2*
X33164D1*
X32398Y29483D2*
Y29738D1*
X32385Y25794D2*
X33150D1*
Y25958D1*
X33113Y26013D1*
X33077Y26031D1*
X33005Y26049D1*
X32895D1*
X32822Y26031D1*
X32786Y26013D1*
X32750Y25958D1*
X32712Y26013D1*
X32676Y26031D1*
X32604Y26049D1*
X32531D1*
X32458Y26031D1*
X32421Y26013D1*
X32385Y25958D1*
Y25794D1*
X32750D2*
Y25958D1*
X32385Y26242D2*
X32421Y26205D1*
X32494Y26169D1*
X32567Y26151D1*
X32676Y26132D1*
X32859D1*
X32968Y26151D1*
X33041Y26169D1*
X33113Y26205D1*
X33150Y26242D1*
Y26315D1*
X33113Y26351D1*
X33041Y26388D1*
X32968Y26406D1*
X32859Y26424D1*
X32676D1*
X32567Y26406D1*
X32494Y26388D1*
X32421Y26351D1*
X32385Y26315D1*
Y26242D1*
Y26617D2*
X32421Y26580D1*
X32494Y26544D1*
X32567Y26525D1*
X32676Y26507D1*
X32859D1*
X32968Y26525D1*
X33041Y26544D1*
X33113Y26580D1*
X33150Y26617D1*
Y26690D1*
X33113Y26726D1*
X33041Y26762D1*
X32968Y26781D1*
X32859Y26799D1*
X32676D1*
X32567Y26781D1*
X32494Y26762D1*
X32421Y26726D1*
X32385Y26690D1*
Y26617D1*
Y27010D2*
X33150D1*
X32385Y26882D2*
Y27137D1*
X32386Y27330D2*
X32422Y27275D1*
X32531Y27239D1*
X32713Y27221D1*
X32823D1*
X33005Y27239D1*
X33114Y27275D1*
X33150Y27330D1*
Y27366D1*
X33114Y27421D1*
X33005Y27457D1*
X32823Y27476D1*
X32713D1*
X32531Y27457D1*
X32422Y27421D1*
X32386Y27366D1*
Y27330D1*
X32531Y27457D2*
X33005Y27239D1*
X31147Y12664D2*
X31312D1*
X31366Y12700D1*
X31384Y12738D1*
X31403Y12810D1*
Y12919D1*
X31384Y12992D1*
X31366Y13029D1*
X31312Y13065D1*
X31147D1*
Y12300D1*
X31486Y13065D2*
Y12300D1*
X31650D1*
X31705Y12337D1*
X31723Y12373D1*
X31741Y12445D1*
Y12555D1*
X31723Y12628D1*
X31705Y12664D1*
X31650Y12700D1*
X31705Y12738D1*
X31723Y12774D1*
X31741Y12846D1*
Y12919D1*
X31723Y12992D1*
X31705Y13029D1*
X31650Y13065D1*
X31486D1*
Y12700D2*
X31650D1*
X32007Y12300D2*
Y13064D1*
X31824Y12555D1*
X32098D1*
X32775Y18483D2*
Y18648D1*
X32738Y18702D1*
X32701Y18720D1*
X32629Y18739D1*
X32519D1*
X32447Y18720D1*
X32410Y18702D1*
X32374Y18648D1*
Y18483D1*
X33139D1*
X32374Y18822D2*
X33139D1*
Y18986D1*
X33102Y19041D1*
X33066Y19059D1*
X32994Y19077D1*
X32884D1*
X32811Y19059D1*
X32775Y19041D1*
X32738Y18986D1*
X32701Y19041D1*
X32665Y19059D1*
X32593Y19077D1*
X32519D1*
X32447Y19059D1*
X32410Y19041D1*
X32374Y18986D1*
Y18822D1*
X32738D2*
Y18986D1*
X32374Y19379D2*
Y19197D1*
X32702Y19179D1*
X32666Y19197D1*
X32629Y19252D1*
Y19306D1*
X32666Y19361D1*
X32738Y19398D1*
X32848Y19416D1*
X32920D1*
X33030Y19398D1*
X33103Y19361D1*
X33139Y19306D1*
Y19252D1*
X33103Y19197D1*
X33066Y19179D1*
X32994Y19160D1*
X32783Y21045D2*
Y21209D1*
X32747Y21264D1*
X32710Y21282D1*
X32637Y21300D1*
X32528D1*
X32455Y21282D1*
X32418Y21264D1*
X32382Y21209D1*
Y21045D1*
X33148D1*
X32382Y21384D2*
X33148D1*
Y21548D1*
X33111Y21603D1*
X33074Y21621D1*
X33002Y21639D1*
X32892D1*
X32819Y21621D1*
X32783Y21603D1*
X32747Y21548D1*
X32710Y21603D1*
X32673Y21621D1*
X32601Y21639D1*
X32528D1*
X32455Y21621D1*
X32418Y21603D1*
X32382Y21548D1*
Y21384D1*
X32747D2*
Y21548D1*
X32492Y21941D2*
X32419Y21923D1*
X32383Y21868D1*
Y21832D1*
X32419Y21777D1*
X32529Y21740D1*
X32711Y21722D1*
X32892D1*
X33038Y21740D1*
X33111Y21777D1*
X33148Y21832D1*
Y21850D1*
X33111Y21904D1*
X33038Y21941D1*
X32929Y21959D1*
X32892D1*
X32783Y21941D1*
X32711Y21904D1*
X32674Y21850D1*
Y21832D1*
X32711Y21777D1*
X32783Y21740D1*
X32892Y21722D1*
X32783Y23532D2*
Y23696D1*
X32747Y23751D1*
X32710Y23769D1*
X32638Y23787D1*
X32528D1*
X32456Y23769D1*
X32419Y23751D1*
X32383Y23696D1*
Y23532D1*
X33148D1*
X32383Y23871D2*
X33148D1*
Y24035D1*
X33111Y24090D1*
X33075Y24108D1*
X33003Y24126D1*
X32893D1*
X32820Y24108D1*
X32784Y24090D1*
X32747Y24035D1*
X32710Y24090D1*
X32674Y24108D1*
X32602Y24126D1*
X32528D1*
X32456Y24108D1*
X32419Y24090D1*
X32383Y24035D1*
Y23871D1*
X32747D2*
Y24035D1*
X33148Y24282D2*
X32383Y24464D1*
Y24209D1*
X32769Y15929D2*
Y16093D1*
X32733Y16148D1*
X32696Y16166D1*
X32624Y16184D1*
X32514D1*
X32442Y16166D1*
X32405Y16148D1*
X32368Y16093D1*
Y15929D1*
X33134D1*
X32368Y16268D2*
X33134D1*
Y16432D1*
X33097Y16487D1*
X33061Y16505D1*
X32988Y16523D1*
X32879D1*
X32806Y16505D1*
X32769Y16487D1*
X32733Y16432D1*
X32696Y16487D1*
X32660Y16505D1*
X32587Y16523D1*
X32514D1*
X32442Y16505D1*
X32405Y16487D1*
X32368Y16432D1*
Y16268D1*
X32733D2*
Y16432D1*
X32369Y16643D2*
Y16843D1*
X32661Y16734D1*
Y16789D1*
X32697Y16825D1*
X32733Y16843D1*
X32843Y16861D1*
X32915D1*
X33025Y16843D1*
X33098Y16807D1*
X33134Y16752D1*
Y16697D1*
X33098Y16643D1*
X33061Y16625D1*
X32988Y16606D1*
X28484Y12650D2*
X28648D1*
X28702Y12686D1*
X28721Y12723D1*
X28739Y12796D1*
Y12905D1*
X28721Y12978D1*
X28702Y13015D1*
X28648Y13051D1*
X28484D1*
Y12285D1*
X29114D2*
X28968Y13051D1*
X28822Y12285D1*
X28877Y12541D2*
X29059D1*
X29288Y13050D2*
X29234Y13014D1*
X29216Y12941D1*
Y12868D1*
X29234Y12796D1*
X29270Y12759D1*
X29343Y12722D1*
X29398Y12686D1*
X29434Y12613D1*
X29452Y12541D1*
Y12431D1*
X29434Y12359D1*
X29416Y12322D1*
X29361Y12285D1*
X29288D1*
X29234Y12322D1*
X29216Y12359D1*
X29197Y12431D1*
Y12541D1*
X29216Y12613D1*
X29252Y12686D1*
X29307Y12722D1*
X29379Y12759D1*
X29416Y12796D1*
X29434Y12868D1*
Y12941D1*
X29416Y13014D1*
X29361Y13050D1*
X29288D1*
X26939Y35459D2*
X26775D1*
X26721Y35423D1*
X26702Y35385D1*
X26684Y35313D1*
Y35204D1*
X26702Y35131D1*
X26721Y35094D1*
X26775Y35058D1*
X26939D1*
Y35823D1*
X26309D2*
X26455Y35058D1*
X26601Y35823D1*
X26546Y35568D2*
X26364D1*
X26116Y35059D2*
X26171Y35095D1*
X26208Y35204D1*
X26226Y35386D1*
Y35496D1*
X26208Y35678D1*
X26171Y35787D1*
X26116Y35823D1*
X26080D1*
X26025Y35787D1*
X25989Y35678D1*
X25970Y35496D1*
Y35386D1*
X25989Y35204D1*
X26025Y35095D1*
X26080Y35059D1*
X26116D1*
X25989Y35204D2*
X26208Y35678D1*
X24342Y35471D2*
X24178D1*
X24123Y35435D1*
X24105Y35398D1*
X24087Y35325D1*
Y35216D1*
X24105Y35143D1*
X24123Y35106D1*
X24178Y35070D1*
X24342D1*
Y35836D1*
X23711D2*
X23858Y35070D1*
X24003Y35836D1*
X23949Y35581D2*
X23766D1*
X23628Y35217D2*
X23591Y35180D1*
X23537Y35071D1*
Y35836D1*
X21819Y35465D2*
X21654D1*
X21600Y35429D1*
X21582Y35392D1*
X21563Y35319D1*
Y35210D1*
X21582Y35137D1*
X21600Y35100D1*
X21654Y35064D1*
X21819D1*
Y35830D1*
X21188D2*
X21334Y35064D1*
X21480Y35830D1*
X21425Y35574D2*
X21243D1*
X21086Y35247D2*
Y35211D1*
X21068Y35137D1*
X21050Y35101D1*
X21014Y35065D1*
X20941D1*
X20904Y35101D1*
X20886Y35137D1*
X20868Y35211D1*
Y35283D1*
X20886Y35356D1*
X20923Y35465D1*
X21105Y35830D1*
X20850D1*
X19299Y35477D2*
X19135D1*
X19080Y35441D1*
X19062Y35404D1*
X19044Y35331D1*
Y35222D1*
X19062Y35149D1*
X19080Y35112D1*
X19135Y35076D1*
X19299D1*
Y35842D1*
X18668D2*
X18815Y35076D1*
X18960Y35842D1*
X18906Y35587D2*
X18723D1*
X18548Y35077D2*
X18348D1*
X18458Y35368D1*
X18403D1*
X18367Y35405D1*
X18348Y35441D1*
X18330Y35550D1*
Y35623D1*
X18348Y35732D1*
X18385Y35806D1*
X18439Y35842D1*
X18494D1*
X18548Y35806D1*
X18567Y35769D1*
X18585Y35696D1*
X16796Y35494D2*
X16632D1*
X16577Y35457D1*
X16559Y35420D1*
X16541Y35348D1*
Y35238D1*
X16559Y35166D1*
X16577Y35129D1*
X16632Y35093D1*
X16796D1*
Y35858D1*
X16165D2*
X16312Y35093D1*
X16457Y35858D1*
X16403Y35603D2*
X16220D1*
X15900Y35858D2*
Y35094D1*
X16082Y35603D1*
X15809D1*
X14229Y35489D2*
X14065D1*
X14011Y35453D1*
X13992Y35416D1*
X13974Y35344D1*
Y35234D1*
X13992Y35162D1*
X14011Y35125D1*
X14065Y35088D1*
X14229D1*
Y35854D1*
X13599D2*
X13745Y35088D1*
X13891Y35854D1*
X13836Y35599D2*
X13654D1*
X13297Y35089D2*
X13479D1*
X13497Y35417D1*
X13479Y35381D1*
X13424Y35344D1*
X13370D1*
X13315Y35381D1*
X13278Y35453D1*
X13260Y35563D1*
Y35635D1*
X13278Y35745D1*
X13315Y35818D1*
X13370Y35854D1*
X13424D1*
X13479Y35818D1*
X13497Y35781D1*
X13516Y35708D1*
X12491Y34643D2*
Y34478D1*
X12527Y34424D1*
X12564Y34406D1*
X12637Y34387D1*
X12746D1*
X12819Y34406D1*
X12856Y34424D1*
X12892Y34478D1*
Y34643D1*
X12126D1*
Y34012D2*
X12892Y34158D1*
X12126Y34304D1*
X12382Y34249D2*
Y34067D1*
X12783Y33710D2*
X12855Y33728D1*
X12891Y33783D1*
Y33819D1*
X12855Y33874D1*
X12746Y33911D1*
X12564Y33929D1*
X12382D1*
X12236Y33911D1*
X12163Y33874D1*
X12126Y33819D1*
Y33801D1*
X12163Y33747D1*
X12236Y33710D1*
X12345Y33692D1*
X12382D1*
X12491Y33710D1*
X12564Y33747D1*
X12600Y33801D1*
Y33819D1*
X12564Y33874D1*
X12491Y33911D1*
X12382Y33929D1*
X12502Y32087D2*
Y31923D1*
X12538Y31868D1*
X12576Y31850D1*
X12648Y31832D1*
X12757D1*
X12830Y31850D1*
X12867Y31868D1*
X12903Y31923D1*
Y32087D1*
X12138D1*
Y31456D2*
X12903Y31603D1*
X12138Y31748D1*
X12393Y31694D2*
Y31511D1*
X12138Y31300D2*
X12902Y31118D1*
Y31373D1*
X12509Y29580D2*
Y29416D1*
X12545Y29362D1*
X12582Y29343D1*
X12654Y29325D1*
X12764D1*
X12836Y29343D1*
X12873Y29362D1*
X12910Y29416D1*
Y29580D1*
X12144D1*
X12910Y29242D2*
X12144D1*
Y29078D1*
X12181Y29023D1*
X12217Y29005D1*
X12290Y28987D1*
X12399D1*
X12473Y29005D1*
X12509Y29023D1*
X12545Y29078D1*
X12582Y29023D1*
X12618Y29005D1*
X12691Y28987D1*
X12764D1*
X12836Y29005D1*
X12873Y29023D1*
X12910Y29078D1*
Y29242D1*
X12545D2*
Y29078D1*
X12909Y28794D2*
X12873Y28849D1*
X12763Y28885D1*
X12581Y28903D1*
X12472D1*
X12290Y28885D1*
X12180Y28849D1*
X12144Y28794D1*
Y28758D1*
X12180Y28703D1*
X12290Y28667D1*
X12472Y28648D1*
X12581D1*
X12763Y28667D1*
X12873Y28703D1*
X12909Y28758D1*
Y28794D1*
X12763Y28667D2*
X12290Y28885D1*
X12516Y26995D2*
Y26831D1*
X12552Y26776D1*
X12589Y26758D1*
X12661Y26740D1*
X12771D1*
X12843Y26758D1*
X12880Y26776D1*
X12917Y26831D1*
Y26995D1*
X12151D1*
X12917Y26656D2*
X12151D1*
Y26492D1*
X12188Y26437D1*
X12224Y26419D1*
X12297Y26401D1*
X12406D1*
X12479Y26419D1*
X12516Y26437D1*
X12552Y26492D1*
X12589Y26437D1*
X12625Y26419D1*
X12698Y26401D1*
X12771D1*
X12843Y26419D1*
X12880Y26437D1*
X12917Y26492D1*
Y26656D1*
X12552D2*
Y26492D1*
X12770Y26318D2*
X12807Y26281D1*
X12916Y26226D1*
X12151D1*
X15707Y12658D2*
X15871D1*
X15926Y12695D1*
X15944Y12732D1*
X15962Y12804D1*
Y12914D1*
X15944Y12986D1*
X15926Y13023D1*
X15871Y13059D1*
X15707D1*
Y12294D1*
X16337D2*
X16191Y13059D1*
X16045Y12294D1*
X16100Y12549D2*
X16283D1*
X16421Y12913D2*
X16457Y12950D1*
X16512Y13059D1*
Y12294D1*
X16705Y13059D2*
X16650Y13022D1*
X16614Y12913D1*
X16595Y12731D1*
Y12621D1*
X16614Y12439D1*
X16650Y12330D1*
X16705Y12294D1*
X16741D1*
X16796Y12330D1*
X16832Y12439D1*
X16851Y12621D1*
Y12731D1*
X16832Y12913D1*
X16796Y13022D1*
X16741Y13059D1*
X16705D1*
X16832Y12913D2*
X16614Y12439D1*
X18750Y14161D2*
Y13395D1*
X18877D1*
X18932Y13432D1*
X18969Y13504D1*
X18987Y13578D1*
X19005Y13686D1*
Y13869D1*
X18987Y13979D1*
X18969Y14051D1*
X18932Y14124D1*
X18877Y14161D1*
X18750D1*
X19088Y13777D2*
X19299D1*
X20780Y12650D2*
X20944D1*
X20998Y12687D1*
X21017Y12724D1*
X21035Y12796D1*
Y12906D1*
X21017Y12978D1*
X20998Y13015D1*
X20944Y13051D1*
X20780D1*
Y12286D1*
X21410D2*
X21264Y13051D1*
X21118Y12286D1*
X21173Y12541D2*
X21355D1*
X21494Y12905D2*
X21530Y12942D1*
X21585Y13050D1*
Y12286D1*
X21687Y12869D2*
Y12905D1*
X21705Y12978D1*
X21723Y13014D1*
X21760Y13050D1*
X21833D1*
X21869Y13014D1*
X21887Y12978D1*
X21905Y12905D1*
Y12832D1*
X21887Y12759D1*
X21851Y12650D1*
X21668Y12286D1*
X21923D1*
X23746Y12854D2*
X23728Y12926D1*
X23691Y12999D1*
X23655Y13035D1*
X23582D1*
X23546Y12999D1*
X23509Y12926D1*
X23491Y12854D1*
X23473Y12744D1*
Y12561D1*
X23491Y12453D1*
X23509Y12379D1*
X23546Y12307D1*
X23582Y12270D1*
X23655D1*
X23691Y12307D1*
X23728Y12379D1*
X23746Y12453D1*
Y12561D1*
X23655D1*
X24085Y13035D2*
Y12270D1*
X23829Y13035D1*
Y12270D1*
X24168Y13035D2*
Y12270D1*
X24296D1*
X24350Y12307D1*
X24387Y12379D1*
X24405Y12453D1*
X24423Y12561D1*
Y12744D1*
X24405Y12854D1*
X24387Y12926D1*
X24350Y12999D1*
X24296Y13035D1*
X24168D1*
X25969Y13061D2*
X26115Y12295D1*
X26261Y13061D1*
X26344D2*
Y12295D1*
X26472D1*
X26526Y12332D1*
X26563Y12405D1*
X26581Y12478D1*
X26599Y12587D1*
Y12769D1*
X26581Y12879D1*
X26563Y12951D1*
X26526Y13025D1*
X26472Y13061D1*
X26344D1*
X26682D2*
Y12295D1*
X26810D1*
X26865Y12332D1*
X26901Y12405D1*
X26920Y12478D1*
X26938Y12587D1*
Y12769D1*
X26920Y12879D1*
X26901Y12951D1*
X26865Y13025D1*
X26810Y13061D1*
X26682D1*
X32785Y13263D2*
Y13427D1*
X32749Y13482D1*
X32712Y13500D1*
X32639Y13518D1*
X32530D1*
X32457Y13500D1*
X32420Y13482D1*
X32384Y13427D1*
Y13263D1*
X33150D1*
Y13894D2*
X32384Y13747D1*
X33150Y13602D1*
X32894Y13656D2*
Y13839D1*
X32530Y13977D2*
X32493Y14014D1*
X32385Y14068D1*
X33150D1*
X32385Y14370D2*
Y14188D1*
X32712Y14170D1*
X32676Y14188D1*
X32639Y14243D1*
Y14297D1*
X32676Y14352D1*
X32749Y14389D1*
X32858Y14407D1*
X32931D1*
X33040Y14389D1*
X33113Y14352D1*
X33150Y14297D1*
Y14243D1*
X33113Y14188D1*
X33076Y14170D1*
X33004Y14152D1*
X32398Y30981D2*
X33164Y31127D1*
X32398Y31272D1*
Y31356D2*
X33164D1*
Y31520D1*
X33127Y31575D1*
X33091Y31593D1*
X33018Y31611D1*
X32909D1*
X32835Y31593D1*
X32799Y31575D1*
X32763Y31520D1*
X32726Y31575D1*
X32690Y31593D1*
X32617Y31611D1*
X32544D1*
X32472Y31593D1*
X32435Y31575D1*
X32398Y31520D1*
Y31356D1*
X32763D2*
Y31520D1*
X33164Y31986D2*
X32398Y31840D1*
X33164Y31694D1*
X32909Y31749D2*
Y31931D1*
X32398Y32197D2*
X33164D1*
X32398Y32069D2*
Y32325D1*
X32801Y33613D2*
Y33777D1*
X32765Y33832D1*
X32728Y33850D1*
X32656Y33868D1*
X32546D1*
X32474Y33850D1*
X32437Y33832D1*
X32400Y33777D1*
Y33613D1*
X33166D1*
X32582Y34225D2*
X32510Y34207D1*
X32437Y34170D1*
X32400Y34134D1*
Y34061D1*
X32437Y34025D1*
X32510Y33988D1*
X32582Y33970D1*
X32692Y33952D1*
X32875D1*
X32983Y33970D1*
X33057Y33988D1*
X33129Y34025D1*
X33166Y34061D1*
Y34134D1*
X33129Y34170D1*
X33057Y34207D1*
X32983Y34225D1*
X32547Y34308D2*
X32510Y34345D1*
X32401Y34400D1*
X33166D1*
X32401Y34520D2*
Y34720D1*
X32693Y34611D1*
Y34666D1*
X32729Y34702D1*
X32765Y34720D1*
X32875Y34738D1*
X32947D1*
X33057Y34720D1*
X33130Y34684D1*
X33166Y34629D1*
Y34574D1*
X33130Y34520D1*
X33093Y34502D1*
X33020Y34483D1*
X13306Y12658D2*
X13471D1*
X13525Y12694D1*
X13544Y12731D1*
X13562Y12803D1*
Y12913D1*
X13544Y12985D1*
X13525Y13022D1*
X13471Y13058D1*
X13306D1*
Y12293D1*
X13937D2*
X13791Y13058D1*
X13645Y12293D1*
X13700Y12548D2*
X13882D1*
X14257Y12803D2*
X14239Y12694D1*
X14203Y12620D1*
X14148Y12584D1*
X14130D1*
X14075Y12620D1*
X14039Y12694D1*
X14020Y12803D1*
Y12839D1*
X14039Y12949D1*
X14075Y13021D1*
X14130Y13058D1*
X14148D1*
X14203Y13021D1*
X14239Y12949D1*
X14257Y12803D1*
Y12620D1*
X14239Y12439D1*
X14203Y12329D1*
X14148Y12293D1*
X14112D1*
X14057Y12329D1*
X14039Y12402D1*
X18280Y34748D2*
D71*
X17964D1*
Y33727D1*
Y34261D2*
X18159D1*
X18391Y34748D2*
Y33727D1*
X18503Y34115D2*
X18794D1*
Y34213D1*
X18770Y34311D1*
X18746Y34359D1*
X18697Y34407D1*
X18624D1*
X18576Y34359D1*
X18527Y34261D1*
X18503Y34115D1*
Y34019D1*
X18527Y33873D1*
X18576Y33776D1*
X18624Y33727D1*
X18697D1*
X18746Y33776D1*
X18794Y33873D1*
X18905Y34407D2*
X19172Y33727D1*
Y34407D2*
X18905Y33727D1*
X20120D2*
Y34748D1*
X19926Y33727D1*
X19732Y34748D1*
Y33727D1*
X20353Y34407D2*
X20304Y34359D1*
X20255Y34261D1*
X20231Y34115D1*
Y34019D1*
X20255Y33873D1*
X20304Y33776D1*
X20353Y33727D1*
X20426D1*
X20474Y33776D1*
X20523Y33873D1*
X20547Y34019D1*
Y34115D1*
X20523Y34261D1*
X20474Y34359D1*
X20426Y34407D1*
X20353D1*
X20950Y34748D2*
Y33727D1*
Y34261D2*
X20902Y34359D1*
X20853Y34407D1*
X20780D1*
X20732Y34359D1*
X20683Y34261D1*
X20659Y34115D1*
Y34019D1*
X20683Y33873D1*
X20732Y33776D1*
X20780Y33727D1*
X20853D1*
X20902Y33776D1*
X20950Y33873D1*
X21061Y34407D2*
Y33921D1*
X21085Y33776D1*
X21134Y33727D1*
X21207D1*
X21255Y33776D1*
X21328Y33921D1*
Y34407D2*
Y33727D1*
X21439Y34748D2*
Y33727D1*
X21551Y34115D2*
X21842D1*
Y34213D1*
X21818Y34311D1*
X21794Y34359D1*
X21745Y34407D1*
X21672D1*
X21624Y34359D1*
X21575Y34261D1*
X21551Y34115D1*
Y34019D1*
X21575Y33873D1*
X21624Y33776D1*
X21672Y33727D1*
X21745D1*
X21794Y33776D1*
X21842Y33873D1*
X18388Y12678D2*
D72*
X18553D1*
X18607Y12714D1*
X18626Y12751D1*
X18644Y12824D1*
Y12933D1*
X18626Y13006D1*
X18607Y13043D1*
X18553Y13079D1*
X18388D1*
Y12313D1*
X19019D2*
X18873Y13079D1*
X18727Y12313D1*
X18782Y12568D2*
X18964D1*
X19102Y12932D2*
X19139Y12969D1*
X19194Y13078D1*
Y12313D1*
X19277Y12932D2*
X19314Y12969D1*
X19368Y13078D1*
Y12313D1*
X21101Y14110D2*
Y13345D1*
X21229D1*
X21283Y13382D1*
X21320Y13454D1*
X21338Y13528D1*
X21356Y13636D1*
Y13819D1*
X21338Y13928D1*
X21320Y14001D1*
X21283Y14074D1*
X21229Y14110D1*
X21101D1*
X21604Y14055D2*
Y13399D1*
X21440Y13727D2*
X21768D1*
M02*
