G04 DipTrace 2.4.0.2*
%INSTM32.gtp*%
%MOIN*%
%ADD20R,0.0433X0.0394*%
%ADD21R,0.0354X0.0276*%
%ADD22R,0.0394X0.0433*%
%ADD23R,0.0276X0.0354*%
%ADD24R,0.0354X0.0295*%
%ADD27C,0.0875*%
%ADD28C,0.075*%
%ADD31R,0.0217X0.0118*%
%ADD32R,0.0118X0.0217*%
%ADD36R,0.0433X0.0472*%
%FSLAX44Y44*%
G04*
G70*
G90*
G75*
G01*
%LNTopPaste*%
%LPD*%
G36*
X11456Y5814D2*
X11181D1*
Y6168D1*
X11456D1*
Y5814D1*
G37*
G36*
Y6326D2*
X11181D1*
Y6680D1*
X11456D1*
Y6326D1*
G37*
D20*
X10095Y9492D3*
X10765D3*
D21*
X10212Y9019D3*
X10724D3*
D22*
X7222Y10254D3*
Y10923D3*
G36*
X6685Y9917D2*
Y9641D1*
X6331D1*
Y9917D1*
X6685D1*
G37*
G36*
X7197D2*
Y9641D1*
X6843D1*
Y9917D1*
X7197D1*
G37*
D20*
X5952Y4817D3*
X5283D3*
D23*
X6453Y6393D3*
Y6905D3*
D21*
X5865Y6126D3*
X5353D3*
X5868Y5725D3*
X5356D3*
G36*
X6028Y5433D2*
Y5157D1*
X5674D1*
Y5433D1*
X6028D1*
G37*
G36*
X5517D2*
Y5157D1*
X5162D1*
Y5433D1*
X5517D1*
G37*
D21*
X9801Y6396D3*
X9289D3*
D23*
X9902Y7305D3*
Y6793D3*
D21*
X11138Y6962D3*
X10626D3*
G36*
X10765Y8633D2*
Y8357D1*
X10411D1*
Y8633D1*
X10765D1*
G37*
G36*
X11277D2*
Y8357D1*
X10923D1*
Y8633D1*
X11277D1*
G37*
D24*
X10068Y11223D3*
Y10671D3*
D23*
X9753Y12343D3*
Y11831D3*
X10411Y11781D3*
Y12293D3*
D21*
X10790Y12312D3*
X11301D3*
D23*
X11327Y11654D3*
Y11142D3*
D21*
X5244Y7081D3*
X4732D3*
X5241Y6673D3*
X4729D3*
D23*
X10913Y5445D3*
Y5957D3*
X7705Y10398D3*
Y10909D3*
X11323Y5017D3*
Y5528D3*
D27*
X8093Y8057D3*
D28*
X8718Y7432D3*
X7468D3*
X8718Y8682D3*
X7468D3*
D31*
X9421Y6974D3*
Y7171D3*
Y7368D3*
Y7565D3*
Y7762D3*
Y7958D3*
Y8155D3*
Y8352D3*
Y8549D3*
Y8746D3*
Y8943D3*
Y9139D3*
D32*
X9175Y9386D3*
X8979D3*
X8782D3*
X8585D3*
X8388D3*
X8191D3*
X7994D3*
X7797D3*
X7601D3*
X7404D3*
X7207D3*
X7010D3*
D31*
X6764Y9139D3*
Y8943D3*
Y8746D3*
Y8549D3*
Y8352D3*
Y8155D3*
Y7958D3*
Y7762D3*
Y7565D3*
Y7368D3*
Y7171D3*
Y6974D3*
D32*
X7010Y6728D3*
X7207D3*
X7404D3*
X7601D3*
X7797D3*
X7994D3*
X8191D3*
X8388D3*
X8585D3*
X8782D3*
X8979D3*
X9175D3*
D36*
X11114Y7398D3*
Y8068D3*
X10562D3*
Y7398D3*
M02*
