M48
INCH
T01C0.013
T02C0.0374
T03C0.0433
%
T01
X+010079Y+008199
X+010016Y+007517
X+010517Y+006747
X+010793Y+006703
X+010687Y+005322
X+011352Y+004522
X+009193Y+006054
X+008805Y+006388
X+008298Y+006342
X+008379Y+005995
X+008080Y+005807
X+008055Y+005047
X+006781Y+004970
X+006754Y+004635
X+006321Y+005109
X+006217Y+005720
X+006481Y+006075
X+006117Y+006367
X+005930Y+006925
X+005394Y+006323
X+005047Y+006301
X+004879Y+005639
X+004659Y+005258
X+004573Y+004881
X+004866Y+004911
X+005831Y+004563
X+006757Y+005696
X+006862Y+006450
X+007493Y+006325
X+007493Y+007150
X+007793Y+007150
X+008093Y+007150
X+008393Y+007150
X+008693Y+007150
X+008993Y+007150
X+008990Y+007452
X+008690Y+007452
X+008390Y+007452
X+008090Y+007452
X+007790Y+007452
X+007490Y+007452
X+007491Y+007752
X+007791Y+007752
X+008091Y+007752
X+008391Y+007752
X+008691Y+007752
X+008991Y+007752
X+008991Y+008054
X+008691Y+008054
X+008391Y+008054
X+008091Y+008054
X+007791Y+008054
X+007491Y+008054
X+007191Y+008053
X+007191Y+007751
X+007190Y+007450
X+007192Y+007149
X+007191Y+008355
X+007491Y+008356
X+007791Y+008356
X+008091Y+008356
X+008391Y+008356
X+008691Y+008356
X+008991Y+008356
X+008991Y+008658
X+008691Y+008658
X+008391Y+008658
X+008091Y+008658
X+007791Y+008658
X+007491Y+008658
X+007191Y+008657
X+007191Y+008958
X+007491Y+008960
X+007791Y+008960
X+008091Y+008960
X+008391Y+008960
X+008691Y+008960
X+008991Y+008960
X+009194Y+010162
X+009023Y+010456
X+008835Y+010742
X+008604Y+011000
X+008320Y+010807
X+008206Y+010486
X+008058Y+010158
X+006821Y+010292
X+006167Y+009462
X+006352Y+009130
X+006278Y+008791
X+006445Y+008493
X+006309Y+008178
X+005446Y+007599
X+005144Y+007610
X+004872Y+007970
X+005200Y+008744
X+005345Y+009409
X+004719Y+009852
X+005207Y+010411
X+004690Y+010652
X+004851Y+011593
X+004825Y+012154
X+007759Y+011794
X+008507Y+011808
X+009414Y+011926
X+009580Y+011282
X+010446Y+010643
X+010760Y+010785
X+010252Y+010320
X+010200Y+009982
X+010488Y+009803
X+010899Y+008795
X+010970Y+011768
X+010605Y+011812
T02
X+008371Y+005419
X+010371Y+005819
X+010371Y+005019
T03
X+008937Y+012937
X+009937Y+012937
X+010937Y+012937
X+011937Y+011937
X+011937Y+010937
X+011937Y+009937
X+011937Y+008937
X+011937Y+007937
X+011937Y+006937
X+011937Y+005937
X+011937Y+004937
X+010937Y+003937
X+009937Y+003937
X+008937Y+003937
X+007937Y+003937
X+006937Y+003937
X+005937Y+003937
X+004937Y+003937
X+003937Y+004937
X+003937Y+005937
X+003937Y+006937
X+003937Y+007937
X+003937Y+008937
X+003937Y+009937
X+003937Y+010937
X+003937Y+011937
X+004937Y+012937
X+005937Y+012937
X+006937Y+012937
X+007937Y+012937
T00
M30
