G04 DipTrace 2.4.0.2*
%INSTM32.gtl*%
%MOIN*%
%ADD13C,0.008*%
%ADD14C,0.0118*%
%ADD15C,0.012*%
%ADD16C,0.007*%
%ADD18R,0.0669X0.08*%
%ADD19R,0.08X0.0669*%
%ADD20R,0.0433X0.0394*%
%ADD21R,0.0354X0.0276*%
%ADD22R,0.0394X0.0433*%
%ADD23R,0.0276X0.0354*%
%ADD24R,0.0354X0.0295*%
%ADD31R,0.0217X0.0118*%
%ADD32R,0.0118X0.0217*%
%ADD33R,0.2205X0.2205*%
%ADD34C,0.028*%
%ADD36R,0.0433X0.0472*%
%ADD37C,0.028*%
%FSLAX44Y44*%
G04*
G70*
G90*
G75*
G01*
%LNTop*%
%LPD*%
X10913Y5445D2*
D13*
X11240D1*
X11323Y5528D1*
X8298Y6342D2*
Y6398D1*
X8373Y6323D1*
Y6558D1*
X8367Y6552D1*
Y6728D1*
X8388D1*
X10913Y5445D2*
X10811D1*
X10687Y5322D1*
X7797Y9386D2*
Y9501D1*
X7705Y9593D1*
Y10398D1*
X11323Y5017D2*
X11857D1*
X11937Y4937D1*
X6937Y3937D2*
X7105D1*
Y6513D1*
X7213Y6620D1*
Y6722D1*
X7207Y6728D1*
X7404D2*
Y6608D1*
X7250Y6454D1*
Y4867D1*
X7947Y4171D1*
Y3947D1*
X7937Y3937D1*
X7797Y6728D2*
Y6610D1*
X7734Y6547D1*
Y6218D1*
X7592Y6076D1*
X7523D1*
X7394Y5947D1*
Y4943D1*
X7895Y4442D1*
X8432D1*
X8937Y3937D1*
X3937Y4937D2*
Y5004D1*
X4603Y5670D1*
Y6481D1*
X4729Y6607D1*
Y6673D1*
X3937Y5937D2*
Y6035D1*
X4442Y6540D1*
Y6843D1*
X4680Y7081D1*
X4732D1*
X5244D2*
X5505D1*
X5807Y7383D1*
X6020D1*
X6386Y7749D1*
X6752D1*
X6764Y7762D1*
X5241Y6673D2*
X5305D1*
X5815Y7184D1*
X6022D1*
X6409Y7571D1*
X6758D1*
X6764Y7565D1*
X8191Y6728D2*
Y6589D1*
X8034Y6432D1*
Y6118D1*
X7695Y5779D1*
Y5059D1*
X8026Y4727D1*
X8789D1*
X8936Y4580D1*
X10237D1*
X10880Y3937D1*
X10937D1*
X7994Y6728D2*
Y6602D1*
X7891Y6499D1*
Y6173D1*
X7547Y5829D1*
Y4999D1*
X7965Y4582D1*
X8721D1*
X8865Y4438D1*
X9436D1*
X9937Y3937D1*
X9421Y8352D2*
D14*
X9590D1*
D15*
X9854D1*
X10261Y8759D1*
X10836D1*
X11100Y8495D1*
X10836Y8759D2*
Y8907D1*
X10724Y9019D1*
Y9451D1*
X10765Y9492D1*
X11100Y8495D2*
Y8081D1*
X11114Y8068D1*
X10562Y7398D2*
Y7026D1*
X10626Y6962D1*
X9902Y6793D2*
X10071Y6962D1*
X10626D1*
Y6770D1*
X10723Y6673D1*
X10793D1*
X11148D1*
X11318Y6503D1*
X8979Y6728D2*
D14*
Y6584D1*
D15*
X9167Y6396D1*
X9289D1*
X9597Y6087D1*
X10073D1*
X10354Y6368D1*
X10913D1*
Y5957D1*
Y6261D1*
X10230D1*
Y6729D1*
X10166Y6793D1*
X9902D1*
X10899Y8795D2*
X10836Y8759D1*
X10517Y6747D2*
X10623Y6853D1*
X10562D1*
X10626Y6917D1*
Y6962D1*
X10562Y7398D2*
X10623Y6853D1*
X8979Y6728D2*
Y7024D1*
X9052Y7098D1*
X10793Y6703D2*
Y6673D1*
X9871Y5169D2*
X9917D1*
X10216Y5469D1*
X10457D1*
X10655Y5667D1*
Y5699D1*
X10913Y5957D1*
X10765Y9492D2*
Y9526D1*
X10488Y9803D1*
X7705Y10909D2*
X7237D1*
X7222Y10923D1*
X7020Y9779D2*
X6899D1*
Y10600D1*
X7222Y10923D1*
X7207Y9386D2*
D14*
Y9592D1*
D15*
X7020Y9779D1*
X5339Y5295D2*
Y5708D1*
X5356Y5725D1*
Y6126D1*
X5353D1*
Y6311D1*
X5441Y6399D1*
X5776D1*
X6282Y6905D1*
X6453D1*
Y7005D1*
X6618Y7171D1*
X6764D1*
X5339Y5295D2*
Y6008D1*
X5047Y6301D1*
X6821Y10292D2*
Y9978D1*
X7020Y9779D1*
X7207Y9386D2*
D14*
Y9024D1*
D15*
Y8925D1*
X8077Y8056D1*
Y8371D1*
X4866Y4911D2*
X4603D1*
X4573Y4881D1*
X5394Y6323D2*
Y6311D1*
X5353D1*
X8077Y8056D2*
X7757Y8055D1*
X4573Y4881D2*
Y5171D1*
X4659Y5258D1*
X4875D1*
Y5635D1*
X4879Y5639D1*
X4719Y9852D2*
Y10309D1*
X4976Y10566D1*
Y11271D1*
Y11467D1*
X4851Y11593D1*
Y12128D1*
X4825Y12154D1*
X4976Y11271D2*
X5045D1*
X5490Y10826D1*
Y9554D1*
X5345Y9409D1*
X4872Y7970D2*
X4879D1*
X5519Y8611D1*
Y9236D1*
X5345Y9409D1*
X6764Y7171D2*
D14*
X6932D1*
D15*
X7207D1*
X8093Y8057D1*
X8585Y6728D2*
D13*
Y6583D1*
X8560Y6558D1*
Y6276D1*
X8733Y6103D1*
X9193D1*
Y6054D1*
X10605Y11812D2*
X10657D1*
Y10785D1*
X10760D1*
X10605Y11812D2*
X10442D1*
X10411Y11781D1*
X8782Y6728D2*
Y6411D1*
X8805Y6388D1*
X9753Y12343D2*
Y12753D1*
X9937Y12937D1*
X10446Y10643D2*
Y10641D1*
X10411Y10606D1*
Y10804D1*
X10272Y10942D1*
X9776D1*
X9533Y11186D1*
Y11282D1*
X9580D1*
X11327Y11142D2*
Y11101D1*
X11773D1*
X11937Y10937D1*
X6764Y8352D2*
X6649D1*
X6475Y8178D1*
X6309D1*
X10200Y9982D2*
Y10078D1*
X10612D1*
X11384Y10850D1*
Y11199D1*
X11327Y11142D1*
X11301Y12312D2*
X11562D1*
X11937Y11937D1*
X7601Y6728D2*
Y6607D1*
X7456Y6462D1*
Y6325D1*
X7493D1*
X10252Y10320D2*
X10199D1*
Y10399D1*
X10736D1*
X11058Y10722D1*
Y11680D1*
X10970Y11768D1*
X8191Y9386D2*
Y9794D1*
X8304Y9907D1*
Y10486D1*
X8206D1*
X5207Y10411D2*
Y9935D1*
X4209Y8937D1*
X3937D1*
X7994Y9386D2*
Y9526D1*
X8031Y9563D1*
Y10130D1*
X8058Y10158D1*
X3937Y7937D2*
Y8146D1*
X4438D1*
X5108Y8815D1*
X5128D1*
X5200Y8744D1*
X9421Y8155D2*
X10035D1*
X10079Y8199D1*
X11318Y5991D2*
X11883D1*
X11937Y5937D1*
X11352Y4522D2*
X10497D1*
X10271Y4748D1*
X9792D1*
X9371Y5169D1*
X9421Y8746D2*
X9651D1*
X9773Y8868D1*
Y10746D1*
X9171Y11347D1*
Y13171D1*
X8937Y12937D1*
X9421Y8943D2*
X9543D1*
X9632Y9032D1*
Y10662D1*
X9024Y11270D1*
Y12201D1*
X8792Y12433D1*
X8320D1*
X7937Y12816D1*
Y12937D1*
X9421Y9139D2*
X9438D1*
Y10652D1*
X8877Y11213D1*
Y12142D1*
X8729Y12290D1*
X7700D1*
X6954Y13035D1*
Y12920D1*
X6937Y12937D1*
X9175Y9386D2*
Y9509D1*
X9129Y9555D1*
Y10162D1*
X9194D1*
X8979Y9386D2*
X8946D1*
Y10456D1*
X9023D1*
X8782Y9386D2*
Y10742D1*
X8835D1*
X8585Y9386D2*
X8594D1*
Y11000D1*
X8604D1*
X8388Y9386D2*
Y9753D1*
X8447Y9812D1*
Y10807D1*
X8320D1*
X4690Y10652D2*
X4652D1*
X3937Y9937D1*
X9421Y7762D2*
X10153D1*
Y7730D1*
D16*
X10977D1*
D13*
X11114Y7594D1*
Y7398D1*
X11138Y6962D2*
Y7374D1*
X11114Y7398D1*
X9421Y7958D2*
X10183D1*
X10295Y8070D1*
X10560D1*
X10562Y8068D1*
X10588Y8495D2*
Y8094D1*
X10562Y8068D1*
X6764Y8746D2*
X6323D1*
X6278Y8791D1*
X6764Y8549D2*
X6501D1*
X6445Y8493D1*
X6764Y9139D2*
Y9239D1*
X6628Y9375D1*
X6255D1*
X6167Y9462D1*
X6764Y8943D2*
X6650D1*
X6463Y9130D1*
X6352D1*
X7010Y6728D2*
X7018D1*
X6963Y6673D1*
Y6551D1*
X6862Y6450D1*
X9371Y5669D2*
X9234D1*
X8942Y5962D1*
X8425D1*
Y6003D1*
X8286D1*
X8278Y5995D1*
X8379D1*
X6764Y7368D2*
X6437D1*
X5983Y6914D1*
X5856D1*
Y6925D1*
X5930D1*
X8871Y5669D2*
X8915Y5713D1*
X8448Y5752D1*
G02X8093Y5735I-239J1265D01*
G01*
X8080Y5807D1*
X3937Y6937D2*
X3997D1*
X4392Y7331D1*
X5543D1*
X5745Y7534D1*
X5971D1*
X6376Y7939D1*
X6764D1*
Y7958D1*
X7404Y9386D2*
D14*
Y9554D1*
D15*
Y10113D1*
X7262Y10254D1*
X7222D1*
X10068Y11223D2*
X9995D1*
Y11717D1*
X9881Y11831D1*
X9753D1*
Y11870D1*
X9988D1*
X10411Y12293D1*
X10430Y12312D1*
X10790D1*
X7010Y9386D2*
D14*
X6891D1*
D15*
Y9396D1*
X6508Y9779D1*
X9175Y6728D2*
D14*
X9294D1*
D15*
X9521D1*
X9642Y6848D1*
Y7044D1*
X9902Y7305D1*
X9421Y6974D2*
D14*
Y6855D1*
D15*
Y6782D1*
X9801Y6403D1*
Y6396D1*
X5851Y5295D2*
Y5708D1*
X5868Y5725D1*
Y6126D1*
X5865D1*
Y6055D1*
X6194D1*
X6453Y6313D1*
Y6393D1*
Y6412D1*
X6742Y6701D1*
Y6952D1*
D14*
X6764Y6974D1*
X5851Y5295D2*
D15*
Y6101D1*
X6117Y6367D1*
X9753Y11831D2*
X9509D1*
X9414Y11926D1*
X10016Y7517D2*
Y7419D1*
X9902Y7305D1*
X8055Y5047D2*
D13*
X8748D1*
X8871Y5169D1*
X5831Y4563D2*
D15*
X5755Y4488D1*
Y3937D1*
X5937D1*
X6508Y9779D2*
X6472D1*
Y9927D1*
Y10794D1*
X6940Y11262D1*
X7227D1*
X7759Y11794D1*
X10790Y12312D2*
Y12309D1*
X11108Y11991D1*
X11268D1*
X11318Y11942D1*
Y11663D1*
X11327Y11654D1*
X5868Y5725D2*
X6212D1*
X6217Y5720D1*
X5851Y5295D2*
X6135D1*
X6321Y5109D1*
X9421Y6974D2*
D14*
X9572D1*
D15*
X9642Y7044D1*
X6321Y5109D2*
X6642D1*
X6781Y4970D1*
X6321Y5109D2*
Y5260D1*
X6757Y5696D1*
X5446Y7599D2*
Y8088D1*
X5902Y8543D1*
Y9771D1*
X6136Y10005D1*
X6394D1*
X6472Y9927D1*
X5144Y7610D2*
X5207D1*
Y7849D1*
X5446Y8088D1*
X7759Y11794D2*
X8494D1*
X8507Y11808D1*
X9421Y8549D2*
D14*
X9603D1*
D15*
X9693D1*
X10163Y9019D1*
X10212D1*
Y9376D1*
X10096Y9492D1*
X9939D1*
Y10508D1*
X10113Y10682D1*
X10057D1*
X10068Y10671D1*
D37*
X10517Y6747D3*
X10079Y8199D3*
X8805Y6388D3*
X9193Y6054D3*
X7493Y6325D3*
X9194Y10162D3*
X9023Y10456D3*
X8835Y10742D3*
X8604Y11000D3*
X8320Y10807D3*
X8206Y10486D3*
X8058Y10158D3*
X5200Y8744D3*
X5207Y10411D3*
X6862Y6450D3*
X5047Y6301D3*
X4872Y7970D3*
X5446Y7599D3*
X8507Y11808D3*
X6117Y6367D3*
X6821Y10292D3*
X5930Y6925D3*
X6167Y9462D3*
X6352Y9130D3*
X6278Y8791D3*
X6445Y8493D3*
X6309Y8178D3*
X10687Y5322D3*
X8298Y6342D3*
X6321Y5109D3*
X6217Y5720D3*
X4690Y10652D3*
X10200Y9982D3*
X10970Y11768D3*
X8379Y5995D3*
X10016Y7517D3*
X6754Y4635D3*
X4866Y4911D3*
X6781Y4970D3*
X10899Y8795D3*
X9414Y11926D3*
X7759Y11794D3*
X10252Y10320D3*
X6757Y5696D3*
X4879Y5639D3*
X9580Y11282D3*
X10446Y10643D3*
X10605Y11812D3*
X10760Y10785D3*
X6481Y6075D3*
X4659Y5258D3*
X10488Y9803D3*
X4573Y4881D3*
X5394Y6323D3*
X5144Y7610D3*
X10793Y6703D3*
X8080Y5807D3*
X11352Y4522D3*
X8055Y5047D3*
X5831Y4563D3*
X4719Y9852D3*
X5345Y9409D3*
X4825Y12154D3*
X4851Y11593D3*
X6075Y6460D2*
D13*
X6203D1*
X6007Y6382D2*
X6203D1*
X6153Y6303D2*
X6203D1*
X6153Y6224D2*
X6203D1*
X6702D2*
X6764D1*
X6153Y6145D2*
X6203D1*
X6702D2*
X6954D1*
X6153Y6067D2*
X6954D1*
X6153Y5988D2*
X6954D1*
X6157Y5909D2*
X6954D1*
X6157Y5831D2*
X6954D1*
X6157Y5752D2*
X6954D1*
X6157Y5673D2*
X6954D1*
X6157Y5595D2*
X6954D1*
X6157Y5516D2*
X6954D1*
X6139Y5437D2*
X6954D1*
X6139Y5359D2*
X6954D1*
X6139Y5280D2*
X6954D1*
X6139Y5201D2*
X6954D1*
X6133Y5123D2*
X6954D1*
X6272Y5044D2*
X6954D1*
X6280Y4965D2*
X6954D1*
X6280Y4886D2*
X6954D1*
X6280Y4808D2*
X6954D1*
X6280Y4729D2*
X6954D1*
X6280Y4650D2*
X6954D1*
X6274Y4572D2*
X6954D1*
X5712Y4493D2*
X6954D1*
X6383Y4414D2*
X6491D1*
X6383Y4336D2*
X6491D1*
X6383Y4257D2*
X6491D1*
X6383Y4178D2*
X6491D1*
X6383Y4100D2*
X6491D1*
X6383Y4021D2*
X6491D1*
X6273Y4993D2*
X6272Y4592D1*
X6262Y4561D1*
X6243Y4535D1*
X6218Y4516D1*
X6188Y4506D1*
X6162Y4504D1*
X5721Y4506D1*
X5704Y4510D1*
Y4440D1*
X5915D1*
X6375D1*
Y3972D1*
X6498D1*
X6499Y4234D1*
Y4440D1*
X6963D1*
X6962Y4737D1*
X6961Y6228D1*
X6924Y6215D1*
X6884Y6208D1*
X6844D1*
X6805Y6214D1*
X6767Y6226D1*
X6732Y6245D1*
X6694Y6276D1*
Y6113D1*
X6212D1*
Y6514D1*
X6094Y6486D1*
X6015Y6407D1*
X5993Y6367D1*
X6145D1*
Y5965D1*
X6149Y5966D1*
Y5484D1*
X6119Y5483D1*
X6130Y5453D1*
X6132Y5409D1*
X6130Y5141D1*
X6121Y5111D1*
X6117Y5104D1*
X6186Y5103D1*
X6216Y5093D1*
X6242Y5075D1*
X6261Y5049D1*
X6271Y5019D1*
X6273Y4993D1*
X5953Y4804D2*
X6239Y4532D1*
Y5077D2*
X5953Y4804D1*
X6453Y6393D2*
X6694Y6113D1*
X6453Y6393D2*
X6212Y6113D1*
X6145Y6367D2*
X5865Y6126D1*
X5868Y5725D2*
X6148Y5484D1*
Y5965D2*
X5868Y5725D1*
X5851Y5295D2*
X6094Y5077D1*
Y5513D2*
X5851Y5295D1*
X6375Y4440D2*
X5937Y3937D1*
X7747Y12072D2*
X7806D1*
X7646Y11994D2*
X7885D1*
X7545Y11915D2*
X7964D1*
X7444Y11836D2*
X8043D1*
X7342Y11758D2*
X8055D1*
X7242Y11679D2*
X7965D1*
X7141Y11600D2*
X7876D1*
X7040Y11522D2*
X7786D1*
X6939Y11443D2*
X7698D1*
X6837Y11364D2*
X7608D1*
X6737Y11285D2*
X7518D1*
X6636Y11207D2*
X6914D1*
X6535Y11128D2*
X6914D1*
X6434Y11049D2*
X6914D1*
X6332Y10971D2*
X6914D1*
X6232Y10892D2*
X6914D1*
X6216Y10813D2*
X6874D1*
X6216Y10735D2*
X6795D1*
X6216Y10656D2*
X6738D1*
X6216Y10577D2*
X6728D1*
X6216Y10499D2*
X6685D1*
X6216Y10420D2*
X6606D1*
X6251Y10341D2*
X6575D1*
X6339Y10263D2*
X6571D1*
X6372Y10184D2*
X6595D1*
X6379Y10105D2*
X6650D1*
X6357Y10026D2*
X6650D1*
X6962Y11243D2*
X7479D1*
X8099Y11789D1*
X8007Y11880D1*
X7782Y12105D1*
X6205Y10877D1*
X6208Y10857D1*
Y10356D1*
X6255Y10335D1*
X6288Y10311D1*
X6316Y10282D1*
X6338Y10250D1*
X6356Y10213D1*
X6367Y10175D1*
X6371Y10127D1*
X6368Y10088D1*
X6358Y10049D1*
X6346Y10020D1*
X6658D1*
Y10111D1*
X6631Y10140D1*
X6609Y10173D1*
X6592Y10209D1*
X6582Y10248D1*
X6578Y10288D1*
X6580Y10328D1*
X6590Y10366D1*
X6605Y10403D1*
X6626Y10437D1*
X6653Y10467D1*
X6684Y10492D1*
X6718Y10512D1*
X6736Y10519D1*
Y10600D1*
X6741Y10640D1*
X6755Y10677D1*
X6784Y10715D1*
X6922Y10854D1*
Y11243D1*
X6962D1*
X9382Y12838D2*
X9491D1*
X9382Y12759D2*
X9491D1*
X9382Y12680D2*
X9491D1*
X9382Y12602D2*
X9491D1*
X9382Y12523D2*
X9491D1*
X9382Y12444D2*
X9491D1*
X9322Y12365D2*
X9505D1*
X10002D2*
X10163D1*
X9322Y12287D2*
X9505D1*
X10002D2*
X10163D1*
X9322Y12208D2*
X9505D1*
X10002D2*
X10163D1*
X9322Y12129D2*
X9505D1*
X10002D2*
X10163D1*
X9322Y12051D2*
X9505D1*
X10002D2*
X10163D1*
X9322Y11972D2*
X9505D1*
X10002D2*
X10163D1*
X9322Y11893D2*
X9505D1*
X10002D2*
X10163D1*
X9322Y11815D2*
X9505D1*
X10002D2*
X10163D1*
X9322Y11736D2*
X9505D1*
X10002D2*
X10163D1*
X9322Y11657D2*
X9505D1*
X10002D2*
X10163D1*
X9322Y11579D2*
X9505D1*
X10002D2*
X10163D1*
X9322Y11500D2*
X9464D1*
X9696D2*
X10506D1*
X9322Y11421D2*
X9373D1*
X10356D2*
X10506D1*
X10356Y11343D2*
X10506D1*
X9375Y12916D2*
Y12434D1*
X9314D1*
X9315Y12171D1*
Y11405D1*
X9353Y11368D1*
X9364Y11394D1*
X9385Y11428D1*
X9412Y11458D1*
X9443Y11483D1*
X9477Y11503D1*
X9515Y11516D1*
X9554Y11524D1*
X9594Y11525D1*
X9633Y11519D1*
X9672Y11507D1*
X9707Y11489D1*
X9739Y11466D1*
X9767Y11437D1*
X9788Y11407D1*
Y11473D1*
X10348D1*
Y11295D1*
X10513Y11294D1*
X10514Y11502D1*
X10212Y11501D1*
X10170D1*
X10171Y12061D1*
X10170Y12068D1*
Y12434D1*
X9994D1*
Y12143D1*
X9993Y12062D1*
X9994Y12055D1*
Y11550D1*
X9512D1*
Y12433D1*
X9499Y12434D1*
Y12915D1*
X9374Y12916D1*
X9788Y11473D2*
X10068Y11223D1*
X10348Y11473D2*
X10068Y11223D1*
X9513Y12111D2*
X9994Y11551D1*
Y12111D2*
X9513Y11551D1*
X10411Y12293D2*
X10170Y12012D1*
X10151Y7271D2*
X10235D1*
X10151Y7193D2*
X10235D1*
X10151Y7114D2*
X10235D1*
X10151Y7035D2*
X10338D1*
X10151Y6957D2*
X10338D1*
X10151Y6878D2*
X10338D1*
X10151Y6799D2*
X10338D1*
X10151Y6720D2*
X11078D1*
X10151Y6642D2*
X11070D1*
X10151Y6563D2*
X11070D1*
X10089Y6484D2*
X11070D1*
X10089Y6406D2*
X11070D1*
X10089Y6327D2*
X11070D1*
X10089Y6248D2*
X11105D1*
X10089Y6170D2*
X10665D1*
X9441Y6091D2*
X10213D1*
X10528D2*
X10665D1*
X9441Y6012D2*
X10120D1*
X10622D2*
X10665D1*
X9412Y5934D2*
X9777D1*
X9964D2*
X10075D1*
X11077Y6334D2*
X11079Y6696D1*
X11084Y6717D1*
X11086Y6721D1*
X10857Y6722D1*
X10850Y6721D1*
X10346D1*
Y7059D1*
X10243D1*
Y7428D1*
X10231Y7402D1*
X10209Y7368D1*
X10182Y7339D1*
X10143Y7310D1*
X10142Y7024D1*
X10143Y7017D1*
Y6512D1*
X10081D1*
Y6155D1*
X9520Y6156D1*
X9513Y6155D1*
X9414D1*
X9431Y6102D1*
X9436Y6054D1*
X9432Y6014D1*
X9423Y5976D1*
X9398Y5925D1*
X9424Y5922D1*
X9467Y5908D1*
X9507Y5888D1*
X9515Y5882D1*
X9690Y5880D1*
X9723Y5904D1*
X9766Y5927D1*
X9812Y5941D1*
X9860Y5947D1*
X9908Y5945D1*
X9956Y5934D1*
X10000Y5915D1*
X10041Y5889D1*
X10057Y5876D1*
X10067Y5884D1*
X10078Y5923D1*
X10094Y5959D1*
X10114Y5994D1*
X10139Y6025D1*
X10167Y6053D1*
X10199Y6078D1*
X10234Y6098D1*
X10271Y6113D1*
X10309Y6123D1*
X10349Y6129D1*
X10389D1*
X10429Y6124D1*
X10467Y6114D1*
X10504Y6099D1*
X10539Y6080D1*
X10571Y6056D1*
X10600Y6028D1*
X10625Y5997D1*
X10646Y5963D1*
X10662Y5926D1*
X10672Y5893D1*
Y6237D1*
X11105Y6239D1*
X11110Y6251D1*
X11090Y6276D1*
X11079Y6306D1*
X11077Y6334D1*
Y6503D2*
X11318D1*
X9902Y6793D2*
X10143D1*
X10626Y6962D2*
Y6721D1*
X10346Y6962D2*
X10626D1*
X10913Y6237D2*
Y5957D1*
X10672D2*
X10913D1*
X10243Y7398D2*
X10562D1*
X6158Y6821D2*
X6204D1*
X5584Y6742D2*
X5762D1*
X6099D2*
X6204D1*
X5529Y6663D2*
X6144D1*
X5529Y6585D2*
X5950D1*
X5529Y6506D2*
X5899D1*
X4760Y6427D2*
X5852D1*
X4754Y6349D2*
X5065D1*
X4754Y6270D2*
X5065D1*
X4754Y6191D2*
X5065D1*
X4754Y6113D2*
X5065D1*
X4754Y6034D2*
X5065D1*
X4754Y5955D2*
X5065D1*
X4754Y5876D2*
X5068D1*
X4754Y5798D2*
X5068D1*
X4754Y5719D2*
X5068D1*
X4751Y5640D2*
X5068D1*
X4705Y5562D2*
X5068D1*
X4626Y5483D2*
X5064D1*
X4548Y5404D2*
X5052D1*
X4470Y5326D2*
X5052D1*
X4448Y5247D2*
X5052D1*
X4448Y5168D2*
X5052D1*
X4448Y5090D2*
X5007D1*
X4448Y5011D2*
X4957D1*
X4448Y4932D2*
X4957D1*
X4448Y4854D2*
X4957D1*
X4448Y4775D2*
X4957D1*
X4448Y4696D2*
X4957D1*
X4448Y4617D2*
X4957D1*
X4448Y4539D2*
X4983D1*
X4131Y4460D2*
X5517D1*
X4213Y4381D2*
X4492D1*
X5383D2*
X5488D1*
X4294Y4303D2*
X4492D1*
X5383D2*
X5483D1*
X4375Y4224D2*
X4492D1*
X5383D2*
X5484D1*
X5383Y4145D2*
X5485D1*
X5383Y4067D2*
X5487D1*
X5389Y3988D2*
X5488D1*
X5492Y4504D2*
X5051Y4506D1*
X5021Y4515D1*
X4995Y4534D1*
X4976Y4559D1*
X4966Y4590D1*
X4964Y4616D1*
X4965Y5017D1*
X4975Y5048D1*
X4994Y5073D1*
X5019Y5093D1*
X5049Y5103D1*
X5071Y5104D1*
X5068Y5114D1*
X5060Y5145D1*
X5059Y5349D1*
X5060Y5449D1*
X5070Y5479D1*
X5076Y5492D1*
Y5885D1*
X5073D1*
Y6367D1*
X5574D1*
X5586Y6377D1*
X5606Y6383D1*
X5627D1*
X5639Y6389D1*
X5682Y6398D1*
X5830Y6399D1*
X5854Y6419D1*
X5944Y6566D1*
X5971Y6596D1*
X6009Y6613D1*
X6124Y6640D1*
X6212Y6712D1*
Y6941D1*
X6171Y6900D1*
X6160Y6846D1*
X6144Y6809D1*
X6122Y6776D1*
X6096Y6746D1*
X6064Y6722D1*
X6029Y6703D1*
X5991Y6689D1*
X5952Y6682D1*
X5912D1*
X5873Y6688D1*
X5835Y6701D1*
X5799Y6720D1*
X5767Y6744D1*
X5740Y6773D1*
X5718Y6806D1*
X5701Y6842D1*
X5696Y6863D1*
X5549Y6715D1*
X5522Y6687D1*
X5521Y6432D1*
X4961Y6433D1*
X4930Y6432D1*
X4756D1*
X4746Y6401D1*
Y5670D1*
X4741Y5630D1*
X4724Y5593D1*
X4733Y5609D1*
X4704Y5568D1*
X4440Y5304D1*
Y4499D1*
X4084Y4498D1*
X4499Y4097D1*
Y4440D1*
X5375D1*
Y3989D1*
X5495Y3987D1*
X5490Y4344D1*
X5499Y4394D1*
Y4440D1*
X5523D1*
X5533Y4510D1*
X5512Y4505D1*
X5492Y4504D1*
X4998Y5077D2*
X5284Y4804D1*
X4998Y4532D1*
X5073Y6367D2*
X5353Y6126D1*
X5073Y5885D1*
X5356Y5725D2*
X5076Y5484D1*
X5097Y5513D2*
X5339Y5295D1*
X5097Y5077D1*
X4499Y4440D2*
X4937Y3937D1*
X5375Y4440D2*
X4937Y3937D1*
X7845Y5647D2*
X7890D1*
X7845Y5568D2*
X8028D1*
X7845Y5489D2*
X8061D1*
X7845Y5410D2*
X8053D1*
X7845Y5332D2*
X8066D1*
X7845Y5253D2*
X8101D1*
X7845Y5174D2*
X8172D1*
X7868Y5096D2*
X8616D1*
X7947Y5017D2*
X8654D1*
X9087D2*
X9154D1*
X8025Y4938D2*
X8748D1*
X8993D2*
X9248D1*
X8850Y4860D2*
X9469D1*
X8945Y4781D2*
X9548D1*
X9185Y4990D2*
X9167Y5010D1*
X9161Y5020D1*
X9081D1*
X9062Y4997D1*
X9030Y4966D1*
X8992Y4941D1*
X8950Y4924D1*
X8907Y4914D1*
X8862Y4911D1*
X8817Y4917D1*
X8774Y4930D1*
X8734Y4950D1*
X8698Y4977D1*
X8667Y5010D1*
X8643Y5048D1*
X8625Y5089D1*
X8615Y5133D1*
X8613Y5178D1*
X8618Y5223D1*
X8623Y5239D1*
X8593Y5202D1*
X8563Y5176D1*
X8530Y5153D1*
X8494Y5135D1*
X8457Y5121D1*
X8418Y5113D1*
X8378Y5109D1*
X8338Y5111D1*
X8299Y5118D1*
X8260Y5129D1*
X8224Y5146D1*
X8190Y5167D1*
X8159Y5192D1*
X8132Y5221D1*
X8108Y5254D1*
X8089Y5289D1*
X8075Y5326D1*
X8065Y5365D1*
X8061Y5405D1*
X8062Y5445D1*
X8067Y5484D1*
X8078Y5523D1*
X8097Y5565D1*
X8063Y5564D1*
X8023Y5571D1*
X7985Y5583D1*
X7950Y5602D1*
X7918Y5626D1*
X7891Y5655D1*
X7868Y5688D1*
X7854Y5719D1*
X7838Y5699D1*
Y5117D1*
X8085Y4871D1*
X8789D1*
X8828Y4865D1*
X8865Y4848D1*
X8849Y4857D1*
X8890Y4829D1*
X8995Y4723D1*
X9615D1*
X9421Y4916D1*
X9380Y4911D1*
X9335Y4914D1*
X9291Y4924D1*
X9250Y4941D1*
X9212Y4966D1*
X9185Y4990D1*
X8871Y5169D2*
X9053Y4987D1*
X8871Y5169D2*
X8689Y4987D1*
X11305Y10560D2*
X11426D1*
X11227Y10482D2*
X11892D1*
X11148Y10403D2*
X11893D1*
X11069Y10324D2*
X11426D1*
X10990Y10246D2*
X11426D1*
X10912Y10167D2*
X11426D1*
X10833Y10088D2*
X11426D1*
X10754Y10010D2*
X11426D1*
X10445Y9931D2*
X11426D1*
X10413Y9852D2*
X11426D1*
X11093Y9774D2*
X11426D1*
X11093Y9695D2*
X11426D1*
X11093Y9616D2*
X11426D1*
X11093Y9537D2*
X11426D1*
X11093Y9459D2*
X11896D1*
X11093Y9380D2*
X11896D1*
X11093Y9301D2*
X11426D1*
X11093Y9223D2*
X11426D1*
X11012Y9144D2*
X11426D1*
X11012Y9065D2*
X11426D1*
X11012Y8987D2*
X11426D1*
X11012Y8908D2*
X11426D1*
X11012Y8829D2*
X11426D1*
X10372Y8751D2*
X11426D1*
X11380Y8672D2*
X11426D1*
X11388Y8436D2*
X11898D1*
X11442Y7492D2*
X11902D1*
X11442Y7413D2*
X11902D1*
X11417Y6783D2*
X11433D1*
X11418Y6803D1*
Y6784D1*
X11434Y6819D1*
Y7375D1*
X11910D1*
X11909Y7500D1*
X11640Y7499D1*
X11434D1*
Y8375D1*
X11908D1*
X11906Y8500D1*
X11680Y8499D1*
X11434D1*
Y9375D1*
X11903D1*
Y9500D1*
X11680Y9499D1*
X11434D1*
Y10375D1*
X11900D1*
Y10500D1*
X11680Y10499D1*
X11434D1*
Y10618D1*
X11360Y10624D1*
X11174Y10437D1*
X10714Y9977D1*
X10682Y9953D1*
X10643Y9938D1*
X10661Y9944D1*
X10612Y9935D1*
X10439D1*
X10430Y9904D1*
X10414Y9867D1*
X10392Y9834D1*
X10365Y9804D1*
X10350Y9793D1*
X10415Y9792D1*
Y9261D1*
X10445Y9260D1*
Y9792D1*
X11085D1*
Y9192D1*
X11004D1*
Y8778D1*
X10353D1*
X10371Y8727D1*
X10411Y8736D1*
X10765D1*
X10804Y8728D1*
X10837Y8707D1*
X10848Y8703D1*
X10873Y8723D1*
X10903Y8734D1*
X10947Y8736D1*
X11293Y8735D1*
X11324Y8725D1*
X11349Y8706D1*
X11368Y8681D1*
X11379Y8651D1*
X11380Y8625D1*
Y8407D1*
X11433D1*
Y7059D1*
X11417D1*
X11418Y6883D1*
Y6803D1*
X10765Y9792D2*
Y9492D1*
X10445D2*
X11084D1*
X10724Y9019D2*
Y8779D1*
Y9019D2*
X11004D1*
X11100Y8736D2*
Y8495D1*
X11380D1*
X11114Y8068D2*
X11433D1*
X5383Y12822D2*
X5491D1*
X6383D2*
X6491D1*
X5383Y12743D2*
X5491D1*
X6383D2*
X6491D1*
X5383Y12664D2*
X5491D1*
X6383D2*
X6491D1*
X5401Y12586D2*
X5491D1*
X6383D2*
X6491D1*
X5419Y12507D2*
X5491D1*
X6383D2*
X6491D1*
X5437Y12428D2*
X7351D1*
X5456Y12349D2*
X7430D1*
X5474Y12271D2*
X7508D1*
X5492Y12192D2*
X7587D1*
X5511Y12113D2*
X8695D1*
X5528Y12035D2*
X8726D1*
X5547Y11956D2*
X8726D1*
X5566Y11877D2*
X8726D1*
X5583Y11799D2*
X8726D1*
X5602Y11720D2*
X8726D1*
X5619Y11641D2*
X8726D1*
X5638Y11563D2*
X8726D1*
X5657Y11484D2*
X8726D1*
X5674Y11405D2*
X8726D1*
X5693Y11327D2*
X8726D1*
X5696Y11248D2*
X8726D1*
X5696Y11169D2*
X6915D1*
X7953D2*
X8421D1*
X5696Y11090D2*
X6915D1*
X7953D2*
X8370D1*
X5696Y11012D2*
X6915D1*
X7953D2*
X8181D1*
X5694Y10933D2*
X6915D1*
X7953D2*
X8105D1*
X5694Y10854D2*
X6915D1*
X7953D2*
X8073D1*
X5694Y10776D2*
X6836D1*
X7953D2*
X8071D1*
X5694Y10697D2*
X6760D1*
X7953D2*
X8077D1*
X5694Y10618D2*
X6728D1*
X5694Y10540D2*
X6728D1*
X5694Y10461D2*
X6638D1*
X5694Y10382D2*
X6587D1*
X5693Y10304D2*
X6570D1*
X5693Y10225D2*
X6580D1*
X5693Y10146D2*
X6618D1*
X5693Y10068D2*
X6650D1*
X5693Y9989D2*
X6250D1*
X5693Y9910D2*
X6220D1*
X5693Y9831D2*
X6220D1*
X5693Y9753D2*
X6220D1*
X5692Y9674D2*
X6041D1*
X5692Y9595D2*
X5956D1*
X5692Y9517D2*
X5922D1*
X5692Y9438D2*
X5917D1*
X5692Y9359D2*
X5938D1*
X5692Y9281D2*
X5997D1*
X5692Y9202D2*
X6112D1*
X5692Y9123D2*
X6101D1*
X5691Y9045D2*
X6117D1*
X5691Y8966D2*
X6101D1*
X5691Y8887D2*
X6047D1*
X5691Y8809D2*
X6027D1*
X5691Y8730D2*
X6035D1*
X5691Y8651D2*
X6071D1*
X5691Y8572D2*
X6163D1*
X5677Y8494D2*
X6193D1*
X5609Y8415D2*
X6206D1*
X5542Y8336D2*
X6117D1*
X5473Y8258D2*
X6071D1*
X5406Y8179D2*
X6058D1*
X5338Y8100D2*
X6071D1*
X5269Y8022D2*
X6115D1*
X5202Y7943D2*
X6170D1*
X5148Y7864D2*
X6091D1*
X5101Y7786D2*
X6012D1*
X5054Y7707D2*
X5933D1*
X5011Y7628D2*
X5630D1*
X5014Y7550D2*
X5551D1*
X7354Y12434D2*
X6499D1*
Y12865D1*
X6375Y12868D1*
Y12434D1*
X5499D1*
Y12893D1*
X5376Y12897D1*
X5375Y12664D1*
X5687Y11315D1*
X5682Y8523D1*
X5673Y8497D1*
X5171Y7917D1*
X5003Y7633D1*
X5009Y7474D1*
X5483D1*
X5644Y7635D1*
X5676Y7659D1*
X5715Y7674D1*
X5697Y7668D1*
X5745Y7677D1*
X5912D1*
X6196Y7961D1*
X6146Y7997D1*
X6119Y8026D1*
X6097Y8059D1*
X6080Y8095D1*
X6070Y8134D1*
X6066Y8174D1*
X6068Y8213D1*
X6077Y8252D1*
X6093Y8289D1*
X6114Y8323D1*
X6140Y8353D1*
X6171Y8378D1*
X6219Y8403D1*
X6205Y8449D1*
X6201Y8489D1*
X6204Y8529D1*
X6211Y8556D1*
X6147Y8586D1*
X6116Y8610D1*
X6088Y8639D1*
X6066Y8672D1*
X6049Y8709D1*
X6039Y8747D1*
X6035Y8787D1*
X6038Y8827D1*
X6047Y8866D1*
X6062Y8903D1*
X6083Y8936D1*
X6110Y8966D1*
X6148Y8996D1*
X6123Y9048D1*
X6113Y9086D1*
X6109Y9126D1*
X6112Y9166D1*
X6121Y9205D1*
X6128Y9222D1*
X6072Y9238D1*
X6036Y9257D1*
X6005Y9281D1*
X5977Y9310D1*
X5955Y9343D1*
X5938Y9380D1*
X5928Y9418D1*
X5924Y9458D1*
X5927Y9498D1*
X5936Y9537D1*
X5951Y9574D1*
X5972Y9607D1*
X5999Y9637D1*
X6030Y9663D1*
X6064Y9682D1*
X6102Y9696D1*
X6141Y9704D1*
X6181Y9705D1*
X6227Y9697D1*
X6228Y9917D1*
X6235Y9956D1*
X6257Y9989D1*
X6290Y10011D1*
X6331Y10020D1*
X6658D1*
Y10111D1*
X6631Y10140D1*
X6609Y10173D1*
X6592Y10209D1*
X6582Y10248D1*
X6578Y10288D1*
X6580Y10328D1*
X6590Y10366D1*
X6605Y10403D1*
X6626Y10437D1*
X6653Y10467D1*
X6684Y10492D1*
X6718Y10512D1*
X6736Y10519D1*
Y10600D1*
X6741Y10640D1*
X6755Y10677D1*
X6784Y10715D1*
X6922Y10854D1*
Y11243D1*
X7523D1*
Y11189D1*
X7946Y11190D1*
X7945Y10629D1*
X7946Y10598D1*
Y10374D1*
X7983Y10388D1*
X7966Y10442D1*
X7962Y10482D1*
X7965Y10521D1*
X7974Y10560D1*
X7989Y10597D1*
X8011Y10631D1*
X8037Y10661D1*
X8068Y10686D1*
X8100Y10704D1*
X8081Y10763D1*
X8077Y10803D1*
X8080Y10843D1*
X8089Y10882D1*
X8104Y10919D1*
X8125Y10953D1*
X8152Y10983D1*
X8183Y11008D1*
X8217Y11028D1*
X8255Y11041D1*
X8294Y11049D1*
X8334Y11050D1*
X8365Y11046D1*
X8372Y11075D1*
X8388Y11112D1*
X8409Y11146D1*
X8435Y11176D1*
X8466Y11201D1*
X8501Y11221D1*
X8538Y11235D1*
X8578Y11242D1*
X8618Y11243D1*
X8657Y11238D1*
X8695Y11226D1*
X8734Y11206D1*
X8733Y12082D1*
X8670Y12146D1*
X7700D1*
X7661Y12152D1*
X7623Y12169D1*
X7640Y12160D1*
X7599Y12188D1*
X7354Y12433D1*
X4433Y12721D2*
X4492D1*
X4353Y12643D2*
X4492D1*
X4271Y12564D2*
X4492D1*
X4191Y12485D2*
X4492D1*
X4110Y12407D2*
X5252D1*
X4448Y12328D2*
X5272D1*
X4448Y12249D2*
X5292D1*
X4448Y12170D2*
X5310D1*
X4448Y12092D2*
X5330D1*
X4448Y12013D2*
X5350D1*
X4448Y11934D2*
X5370D1*
X4448Y11856D2*
X5390D1*
X4448Y11777D2*
X5409D1*
X4448Y11698D2*
X5429D1*
X4448Y11620D2*
X5449D1*
X4448Y11541D2*
X5469D1*
X3976Y11462D2*
X5489D1*
X3976Y11384D2*
X5508D1*
X4448Y11305D2*
X5528D1*
X4448Y11226D2*
X5528D1*
X4448Y11148D2*
X5528D1*
X4448Y11069D2*
X5528D1*
X4448Y10990D2*
X5528D1*
X4448Y10911D2*
X5528D1*
X4448Y10833D2*
X4520D1*
X4860D2*
X5528D1*
X4919Y10754D2*
X5528D1*
X4940Y10675D2*
X5528D1*
X4935Y10597D2*
X5042D1*
X5371D2*
X5528D1*
X4901Y10518D2*
X4980D1*
X5433D2*
X5528D1*
X4816Y10439D2*
X4958D1*
X5456D2*
X5528D1*
X4571Y10361D2*
X4960D1*
X5453D2*
X5528D1*
X4493Y10282D2*
X4993D1*
X5420D2*
X5528D1*
X4448Y10203D2*
X5055D1*
X5358D2*
X5528D1*
X4448Y10125D2*
X5055D1*
X5358D2*
X5528D1*
X4448Y10046D2*
X5055D1*
X5358D2*
X5528D1*
X4448Y9967D2*
X5029D1*
X5358D2*
X5528D1*
X4448Y9889D2*
X4950D1*
X5350D2*
X5528D1*
X4448Y9810D2*
X4872D1*
X5293D2*
X5528D1*
X4448Y9731D2*
X4793D1*
X5214D2*
X5528D1*
X4448Y9652D2*
X4714D1*
X5135D2*
X5528D1*
X4448Y9574D2*
X4635D1*
X5056D2*
X5528D1*
X3981Y9495D2*
X4557D1*
X4978D2*
X5528D1*
X3981Y9416D2*
X4478D1*
X4899D2*
X5528D1*
X4820Y9338D2*
X5528D1*
X4741Y9259D2*
X5528D1*
X4663Y9180D2*
X5528D1*
X4584Y9102D2*
X5528D1*
X4505Y9023D2*
X5528D1*
X4448Y8944D2*
X5038D1*
X5345D2*
X5528D1*
X4448Y8866D2*
X4948D1*
X5419D2*
X5528D1*
X4448Y8787D2*
X4869D1*
X5448D2*
X5528D1*
X4448Y8708D2*
X4790D1*
X5449D2*
X5528D1*
X4448Y8630D2*
X4712D1*
X5423D2*
X5528D1*
X4448Y8551D2*
X4633D1*
X5356D2*
X5495D1*
X3984Y8472D2*
X4554D1*
X4975D2*
X5425D1*
X3984Y8393D2*
X4475D1*
X4896D2*
X5357D1*
X4818Y8315D2*
X5288D1*
X4739Y8236D2*
X5218D1*
X4660Y8157D2*
X5149D1*
X4581Y8079D2*
X5079D1*
X4448Y8000D2*
X5023D1*
X4448Y7921D2*
X4979D1*
X4448Y7843D2*
X4934D1*
X4448Y7764D2*
X4890D1*
X4448Y7685D2*
X4845D1*
X4448Y7607D2*
X4839D1*
X4448Y7528D2*
X4843D1*
X3986Y7449D2*
X4303D1*
X5254Y12434D2*
X4499D1*
Y12793D1*
X4070Y12374D1*
X4440Y12375D1*
Y11499D1*
X3969D1*
Y11374D1*
X4440Y11375D1*
Y10644D1*
X4459Y10726D1*
X4474Y10763D1*
X4495Y10797D1*
X4522Y10827D1*
X4553Y10852D1*
X4587Y10872D1*
X4625Y10886D1*
X4664Y10894D1*
X4704D1*
X4744Y10889D1*
X4782Y10877D1*
X4817Y10859D1*
X4850Y10835D1*
X4877Y10807D1*
X4900Y10774D1*
X4917Y10738D1*
X4928Y10699D1*
X4933Y10652D1*
X4930Y10612D1*
X4920Y10573D1*
X4904Y10537D1*
X4882Y10503D1*
X4856Y10473D1*
X4824Y10449D1*
X4789Y10430D1*
X4751Y10416D1*
X4712Y10409D1*
X4672D1*
X4622Y10419D1*
X4441Y10238D1*
X4440Y9575D1*
Y9499D1*
X3974D1*
X3973Y9374D1*
X4440Y9375D1*
Y9371D1*
X5063Y9994D1*
Y10216D1*
X5044Y10230D1*
X5017Y10259D1*
X4994Y10293D1*
X4978Y10329D1*
X4967Y10368D1*
X4963Y10407D1*
X4966Y10447D1*
X4975Y10486D1*
X4991Y10523D1*
X5012Y10557D1*
X5038Y10587D1*
X5069Y10612D1*
X5104Y10632D1*
X5141Y10646D1*
X5181Y10653D1*
X5221Y10654D1*
X5260Y10649D1*
X5298Y10637D1*
X5334Y10619D1*
X5366Y10595D1*
X5394Y10566D1*
X5417Y10534D1*
X5434Y10497D1*
X5445Y10459D1*
X5450Y10411D1*
X5447Y10371D1*
X5437Y10333D1*
X5421Y10296D1*
X5399Y10263D1*
X5372Y10233D1*
X5350Y10215D1*
Y9935D1*
X5344Y9895D1*
X5327Y9858D1*
X5336Y9874D1*
X5308Y9834D1*
X4441Y8966D1*
X4440Y8499D1*
X3976D1*
Y8374D1*
X4440Y8375D1*
Y8351D1*
X5007Y8917D1*
X5038Y8941D1*
X5082Y8956D1*
X5135Y8978D1*
X5174Y8985D1*
X5214Y8986D1*
X5254Y8981D1*
X5292Y8969D1*
X5327Y8951D1*
X5360Y8927D1*
X5388Y8899D1*
X5410Y8866D1*
X5428Y8830D1*
X5439Y8791D1*
X5443Y8744D1*
X5440Y8704D1*
X5430Y8665D1*
X5414Y8628D1*
X5393Y8595D1*
X5366Y8565D1*
X5334Y8541D1*
X5299Y8521D1*
X5261Y8508D1*
X5222Y8501D1*
X5182D1*
X5143Y8507D1*
X5105Y8520D1*
X5069Y8538D1*
X5049Y8554D1*
X4540Y8045D1*
X4508Y8021D1*
X4469Y8006D1*
X4487Y8011D1*
X4440Y8003D1*
Y7499D1*
X3976D1*
X3978Y7374D1*
X4233Y7375D1*
X4290Y7433D1*
X4322Y7457D1*
X4361Y7471D1*
X4343Y7466D1*
X4392Y7474D1*
X4855D1*
X4850Y7536D1*
X4846Y7660D1*
X4850Y7680D1*
X5056Y8043D1*
X5537Y8589D1*
X5535Y11308D1*
X5253Y12433D1*
D18*
X8937Y12937D3*
X7937D3*
X6937D3*
X5937D3*
X4937D3*
D19*
X3937Y11937D3*
Y10937D3*
Y9937D3*
Y8937D3*
Y7937D3*
X11937Y4937D3*
Y5937D3*
G36*
X11456Y5814D2*
X11181D1*
Y6168D1*
X11456D1*
Y5814D1*
G37*
G36*
Y6326D2*
X11181D1*
Y6680D1*
X11456D1*
Y6326D1*
G37*
D20*
X10096Y9492D3*
X10765D3*
D21*
X10212Y9019D3*
X10724D3*
D22*
X7222Y10254D3*
Y10923D3*
G36*
X6685Y9917D2*
Y9641D1*
X6331D1*
Y9917D1*
X6685D1*
G37*
G36*
X7197D2*
Y9641D1*
X6843D1*
Y9917D1*
X7197D1*
G37*
D20*
X5952Y4817D3*
X5283D3*
D23*
X6453Y6393D3*
Y6905D3*
D21*
X5865Y6126D3*
X5353D3*
X5868Y5725D3*
X5356D3*
G36*
X6028Y5433D2*
Y5157D1*
X5674D1*
Y5433D1*
X6028D1*
G37*
G36*
X5517D2*
Y5157D1*
X5162D1*
Y5433D1*
X5517D1*
G37*
D21*
X9801Y6396D3*
X9289D3*
D23*
X9902Y7305D3*
Y6793D3*
D21*
X11138Y6962D3*
X10626D3*
G36*
X10765Y8633D2*
Y8357D1*
X10411D1*
Y8633D1*
X10765D1*
G37*
G36*
X11277D2*
Y8357D1*
X10923D1*
Y8633D1*
X11277D1*
G37*
D18*
X9937Y3937D3*
X10937D3*
Y12937D3*
X9937D3*
D19*
X11937Y10937D3*
Y11937D3*
D24*
X10068Y11223D3*
Y10671D3*
D18*
X5937Y3937D3*
X4937D3*
D23*
X9753Y12343D3*
Y11831D3*
X10411Y11781D3*
Y12293D3*
D21*
X10790Y12312D3*
X11301D3*
D23*
X11327Y11654D3*
Y11142D3*
D21*
X5244Y7081D3*
X4732D3*
X5241Y6673D3*
X4729D3*
D23*
X10913Y5445D3*
Y5957D3*
X7705Y10398D3*
Y10909D3*
X11323Y5017D3*
Y5528D3*
D19*
X11937Y9937D3*
Y8937D3*
Y7937D3*
Y6937D3*
G36*
X9026Y5669D2*
X9023Y5696D1*
X9016Y5722D1*
X9005Y5747D1*
X8989Y5769D1*
X8970Y5788D1*
X8948Y5803D1*
X8924Y5815D1*
X8898Y5822D1*
X8871Y5824D1*
D1*
X8844Y5822D1*
X8818Y5815D1*
X8793Y5803D1*
X8771Y5788D1*
X8752Y5769D1*
X8736Y5747D1*
X8725Y5722D1*
X8718Y5696D1*
X8716Y5669D1*
D1*
X8718Y5642D1*
X8725Y5616D1*
X8736Y5592D1*
X8752Y5570D1*
X8771Y5550D1*
X8793Y5535D1*
X8818Y5524D1*
X8844Y5517D1*
X8871Y5514D1*
D1*
X8898Y5517D1*
X8924Y5524D1*
X8948Y5535D1*
X8970Y5550D1*
X8989Y5570D1*
X9005Y5592D1*
X9016Y5616D1*
X9023Y5642D1*
X9026Y5669D1*
G37*
G36*
X9526D2*
X9523Y5696D1*
X9516Y5722D1*
X9505Y5747D1*
X9489Y5769D1*
X9470Y5788D1*
X9448Y5803D1*
X9424Y5815D1*
X9398Y5822D1*
X9371Y5824D1*
D1*
X9344Y5822D1*
X9318Y5815D1*
X9293Y5803D1*
X9271Y5788D1*
X9252Y5769D1*
X9236Y5747D1*
X9225Y5722D1*
X9218Y5696D1*
X9216Y5669D1*
D1*
X9218Y5642D1*
X9225Y5616D1*
X9236Y5592D1*
X9252Y5570D1*
X9271Y5550D1*
X9293Y5535D1*
X9318Y5524D1*
X9344Y5517D1*
X9371Y5514D1*
D1*
X9398Y5517D1*
X9424Y5524D1*
X9448Y5535D1*
X9470Y5550D1*
X9489Y5570D1*
X9505Y5592D1*
X9516Y5616D1*
X9523Y5642D1*
X9526Y5669D1*
G37*
G36*
X10026D2*
X10023Y5696D1*
X10016Y5722D1*
X10005Y5747D1*
X9989Y5769D1*
X9970Y5788D1*
X9948Y5803D1*
X9924Y5815D1*
X9898Y5822D1*
X9871Y5824D1*
D1*
X9844Y5822D1*
X9818Y5815D1*
X9793Y5803D1*
X9771Y5788D1*
X9752Y5769D1*
X9736Y5747D1*
X9725Y5722D1*
X9718Y5696D1*
X9716Y5669D1*
D1*
X9718Y5642D1*
X9725Y5616D1*
X9736Y5592D1*
X9752Y5570D1*
X9771Y5550D1*
X9793Y5535D1*
X9818Y5524D1*
X9844Y5517D1*
X9871Y5514D1*
D1*
X9898Y5517D1*
X9924Y5524D1*
X9948Y5535D1*
X9970Y5550D1*
X9989Y5570D1*
X10005Y5592D1*
X10016Y5616D1*
X10023Y5642D1*
X10026Y5669D1*
G37*
G36*
Y5169D2*
X10023Y5196D1*
X10016Y5222D1*
X10005Y5247D1*
X9989Y5269D1*
X9970Y5288D1*
X9948Y5303D1*
X9924Y5315D1*
X9898Y5322D1*
X9871Y5324D1*
D1*
X9844Y5322D1*
X9818Y5315D1*
X9793Y5303D1*
X9771Y5288D1*
X9752Y5269D1*
X9736Y5247D1*
X9725Y5222D1*
X9718Y5196D1*
X9716Y5169D1*
D1*
X9718Y5142D1*
X9725Y5116D1*
X9736Y5092D1*
X9752Y5070D1*
X9771Y5050D1*
X9793Y5035D1*
X9818Y5024D1*
X9844Y5017D1*
X9871Y5014D1*
D1*
X9898Y5017D1*
X9924Y5024D1*
X9948Y5035D1*
X9970Y5050D1*
X9989Y5070D1*
X10005Y5092D1*
X10016Y5116D1*
X10023Y5142D1*
X10026Y5169D1*
G37*
G36*
X9526D2*
X9523Y5196D1*
X9516Y5222D1*
X9505Y5247D1*
X9489Y5269D1*
X9470Y5288D1*
X9448Y5303D1*
X9424Y5315D1*
X9398Y5322D1*
X9371Y5324D1*
D1*
X9344Y5322D1*
X9318Y5315D1*
X9293Y5303D1*
X9271Y5288D1*
X9252Y5269D1*
X9236Y5247D1*
X9225Y5222D1*
X9218Y5196D1*
X9216Y5169D1*
D1*
X9218Y5142D1*
X9225Y5116D1*
X9236Y5092D1*
X9252Y5070D1*
X9271Y5050D1*
X9293Y5035D1*
X9318Y5024D1*
X9344Y5017D1*
X9371Y5014D1*
D1*
X9398Y5017D1*
X9424Y5024D1*
X9448Y5035D1*
X9470Y5050D1*
X9489Y5070D1*
X9505Y5092D1*
X9516Y5116D1*
X9523Y5142D1*
X9526Y5169D1*
G37*
G36*
X9026D2*
X9023Y5196D1*
X9016Y5222D1*
X9005Y5247D1*
X8989Y5269D1*
X8970Y5288D1*
X8948Y5303D1*
X8924Y5315D1*
X8898Y5322D1*
X8871Y5324D1*
D1*
X8844Y5322D1*
X8818Y5315D1*
X8793Y5303D1*
X8771Y5288D1*
X8752Y5269D1*
X8736Y5247D1*
X8725Y5222D1*
X8718Y5196D1*
X8716Y5169D1*
D1*
X8718Y5142D1*
X8725Y5116D1*
X8736Y5092D1*
X8752Y5070D1*
X8771Y5050D1*
X8793Y5035D1*
X8818Y5024D1*
X8844Y5017D1*
X8871Y5014D1*
D1*
X8898Y5017D1*
X8924Y5024D1*
X8948Y5035D1*
X8970Y5050D1*
X8989Y5070D1*
X9005Y5092D1*
X9016Y5116D1*
X9023Y5142D1*
X9026Y5169D1*
G37*
D31*
X9421Y6974D3*
Y7171D3*
Y7368D3*
Y7565D3*
Y7762D3*
Y7958D3*
Y8155D3*
Y8352D3*
Y8549D3*
Y8746D3*
Y8943D3*
Y9139D3*
D32*
X9175Y9386D3*
X8979D3*
X8782D3*
X8585D3*
X8388D3*
X8191D3*
X7994D3*
X7797D3*
X7601D3*
X7404D3*
X7207D3*
X7010D3*
D31*
X6764Y9139D3*
Y8943D3*
Y8746D3*
Y8549D3*
Y8352D3*
Y8155D3*
Y7958D3*
Y7762D3*
Y7565D3*
Y7368D3*
Y7171D3*
Y6974D3*
D32*
X7010Y6728D3*
X7207D3*
X7404D3*
X7601D3*
X7797D3*
X7994D3*
X8191D3*
X8388D3*
X8585D3*
X8782D3*
X8979D3*
X9175D3*
D33*
X8093Y8057D3*
D34*
X8991Y7752D3*
X8691D3*
X8391D3*
X8091D3*
X7791D3*
X7491D3*
X8991Y8054D3*
X8691D3*
X8391D3*
X8091D3*
X7791D3*
X7491D3*
X8990Y7452D3*
X8690D3*
X8390D3*
X8090D3*
X7790D3*
X7490D3*
X8991Y8356D3*
X8691D3*
X8391D3*
X8091D3*
X7791D3*
X7491D3*
X8991Y8658D3*
X8691D3*
X8391D3*
X8091D3*
X7791D3*
X7491D3*
X8993Y7150D3*
X8693D3*
X8393D3*
X8093D3*
X7793D3*
X7493D3*
X7191Y7751D3*
Y8053D3*
X7190Y7450D3*
X7191Y8355D3*
Y8657D3*
X7192Y7149D3*
X8991Y8960D3*
X8691D3*
X8391D3*
X8091D3*
X7791D3*
X7491D3*
X7191Y8958D3*
D18*
X6937Y3937D3*
X7937D3*
X8937D3*
D19*
X3937Y4937D3*
Y5937D3*
Y6937D3*
D36*
X11114Y7398D3*
Y8068D3*
X10562D3*
Y7398D3*
M02*
